<?xml version="1.0" encoding="UTF-8" ?>
<!DOCTYPE svg PUBLIC "-//W3C//DTD SVG 1.1//EN" "http://www.w3.org/Graphics/SVG/1.1/DTD/svg11.dtd">
<svg width="512pt" height="512pt" viewBox="0 0 512 512" version="1.1" xmlns="http://www.w3.org/2000/svg">
<path fill="#04aeda" opacity="1.00" d=" M 0.00 0.00 L 512.00 0.00 L 512.00 512.00 L 0.00 512.00 L 0.00 0.00 Z" />
<path fill="#ffffff" opacity="1.00" d=" M 135.31 101.41 C 215.49 101.31 295.69 101.35 375.87 101.39 C 383.22 101.05 389.71 107.72 389.60 114.96 C 389.59 208.99 389.61 303.02 389.59 397.04 C 389.54 403.59 383.93 410.34 377.04 409.93 C 296.00 409.91 214.96 409.95 133.92 409.91 C 129.26 410.02 125.38 406.48 123.35 402.56 C 121.81 399.97 122.47 396.82 122.32 393.97 C 122.34 300.63 122.34 207.29 122.33 113.95 C 122.19 107.18 128.65 101.33 135.31 101.41 Z" />
<path fill="#04aeda" opacity="1.00" d=" M 140.39 113.42 C 147.25 110.00 156.24 115.36 156.75 122.92 C 157.84 129.67 151.76 136.42 144.92 135.90 C 138.60 136.16 133.09 130.25 133.33 124.03 C 133.26 119.47 136.37 115.32 140.39 113.42 Z" />
<path fill="#04aeda" opacity="1.00" d=" M 361.42 113.64 C 367.58 110.27 375.93 114.11 377.81 120.77 C 380.34 127.73 374.40 136.02 367.02 135.89 C 360.44 136.52 354.58 130.43 354.67 123.99 C 354.90 119.69 357.47 115.50 361.42 113.64 Z" />
<path fill="#04aeda" opacity="1.00" d=" M 204.22 196.12 C 208.30 195.34 212.63 196.02 216.82 195.82 C 229.82 229.93 243.11 263.93 256.06 298.05 C 251.65 298.06 247.24 297.85 242.83 298.12 C 238.87 288.68 235.59 278.96 231.79 269.45 C 217.44 269.46 203.09 269.46 188.74 269.45 C 185.41 278.94 181.96 288.40 178.68 297.90 C 174.15 297.97 169.61 298.01 165.08 298.05 C 178.05 264.05 191.03 230.03 204.22 196.12 Z" />
<path fill="#04aeda" opacity="1.00" d=" M 286.89 195.82 C 290.64 195.79 294.38 195.80 298.13 195.81 C 314.05 235.60 330.03 275.38 345.82 315.23 C 342.18 315.24 338.54 315.23 334.90 315.22 C 318.87 275.43 302.88 235.62 286.89 195.82 Z" />
<path fill="#ffffff" opacity="1.00" d=" M 205.36 224.10 C 207.15 218.99 209.50 214.00 210.10 208.55 C 210.86 211.46 211.60 214.38 212.63 217.22 C 217.73 231.01 222.81 244.81 227.88 258.62 C 216.18 258.64 204.49 258.64 192.80 258.61 C 196.93 247.09 201.20 235.62 205.36 224.10 Z" />
<path fill="#04aeda" opacity="1.00" d=" M 269.36 224.39 C 274.24 221.47 281.45 225.24 281.41 231.05 C 282.04 237.35 273.99 241.84 268.90 238.16 C 263.90 235.20 264.13 226.98 269.36 224.39 Z" />
<path fill="#04aeda" opacity="1.00" d=" M 269.42 284.43 C 274.61 281.18 282.00 285.93 281.41 291.96 C 281.42 298.11 273.55 301.92 268.69 298.24 C 263.81 295.12 264.29 287.04 269.42 284.43 Z" />
<path fill="#04aeda" opacity="1.00" d=" M 141.47 375.78 C 148.31 373.34 156.48 378.67 156.77 385.95 C 157.70 392.63 151.69 399.05 145.00 398.76 C 138.80 398.90 133.20 393.24 133.33 387.06 C 133.16 382.02 136.82 377.40 141.47 375.78 Z" />
<path fill="#04aeda" opacity="1.00" d=" M 363.40 375.63 C 369.51 373.80 376.33 377.83 377.93 383.93 C 380.27 391.20 373.66 399.40 366.08 398.75 C 358.85 398.79 352.90 390.78 355.19 383.91 C 356.26 379.97 359.49 376.74 363.40 375.63 Z" />
</svg>
