<?xml version="1.0" encoding="UTF-8" ?>
<!DOCTYPE svg PUBLIC "-//W3C//DTD SVG 1.1//EN" "http://www.w3.org/Graphics/SVG/1.1/DTD/svg11.dtd">
<svg width="512pt" height="512pt" viewBox="0 0 512 512" version="1.1" xmlns="http://www.w3.org/2000/svg">
<path fill="#97c024" opacity="1.00" d=" M 0.00 0.00 L 512.00 0.00 L 512.00 512.00 L 0.00 512.00 L 0.00 0.00 Z" />
<path fill="#ffffff" opacity="1.00" d=" M 146.48 96.66 C 147.83 95.73 149.18 94.52 150.97 94.77 C 221.65 94.78 292.33 94.79 363.01 94.77 C 364.92 94.53 367.54 95.68 367.33 97.94 C 367.37 203.66 367.35 309.38 367.34 415.10 C 367.63 416.93 365.78 418.46 364.04 418.21 C 292.66 418.23 221.28 418.23 149.90 418.21 C 148.18 418.42 146.33 416.87 146.58 415.08 C 146.47 308.94 146.67 202.80 146.48 96.66 Z" />
<path fill="#97c024" opacity="1.00" d=" M 234.18 98.64 C 249.23 98.65 264.28 98.66 279.33 98.63 C 279.33 101.51 279.33 104.38 279.30 107.26 C 264.43 107.19 249.55 107.34 234.68 107.20 C 233.18 104.69 234.49 101.43 234.18 98.64 Z" />
<path fill="#97c024" opacity="1.00" d=" M 154.16 111.25 C 155.68 111.24 157.20 111.23 158.73 111.23 C 158.74 114.59 158.73 117.95 158.72 121.31 C 223.99 121.34 289.26 121.31 354.53 121.33 C 354.55 118.01 354.51 114.69 354.37 111.37 C 356.17 111.33 357.97 111.22 359.78 111.21 C 359.81 198.39 359.77 285.57 359.80 372.74 C 291.25 372.75 222.70 372.75 154.15 372.74 C 154.17 285.58 154.14 198.42 154.16 111.25 Z" />
<path fill="#ffffff" opacity="1.00" d=" M 171.34 137.39 C 212.48 137.39 253.63 137.38 294.77 137.40 C 294.72 147.74 294.69 158.08 294.79 168.42 C 253.65 168.48 212.51 168.42 171.37 168.45 C 171.41 158.09 171.48 147.74 171.34 137.39 Z" />
<path fill="#ffffff" opacity="1.00" d=" M 310.15 137.39 C 320.57 137.40 331.00 137.36 341.43 137.41 C 341.33 147.75 341.37 158.09 341.40 168.43 C 330.99 168.45 320.57 168.46 310.15 168.42 C 310.27 158.08 310.28 147.73 310.15 137.39 Z" />
<path fill="#ffffff" opacity="1.00" d=" M 171.47 271.22 C 181.81 271.18 192.15 271.22 202.50 271.19 C 202.45 281.58 202.50 291.97 202.47 302.36 C 192.16 302.38 181.84 302.34 171.52 302.39 C 171.45 292.00 171.55 281.61 171.47 271.22 Z" />
<path fill="#ffffff" opacity="1.00" d=" M 217.63 271.19 C 228.00 271.20 238.37 271.21 248.75 271.18 C 248.69 281.60 248.84 292.02 248.67 302.44 C 238.33 302.27 227.99 302.44 217.65 302.34 C 217.64 291.96 217.68 281.57 217.63 271.19 Z" />
<path fill="#ffffff" opacity="1.00" d=" M 263.71 271.11 C 274.05 271.19 284.39 271.16 294.73 271.12 C 294.71 281.56 294.80 292.01 294.68 302.45 C 284.36 302.34 274.03 302.38 263.71 302.43 C 263.69 291.99 263.69 281.55 263.71 271.11 Z" />
<path fill="#ffffff" opacity="1.00" d=" M 310.27 271.20 C 320.63 271.21 330.99 271.20 341.35 271.21 C 341.28 281.59 341.34 291.97 341.31 302.35 C 331.00 302.42 320.68 302.28 310.37 302.43 C 310.18 292.02 310.37 281.61 310.27 271.20 Z" />
<path fill="#ffffff" opacity="1.00" d=" M 171.47 328.34 C 181.82 328.33 192.17 328.32 202.53 328.34 C 202.43 338.70 202.49 349.06 202.49 359.42 C 192.16 359.45 181.83 359.42 171.50 359.44 C 171.47 349.07 171.53 338.71 171.47 328.34 Z" />
<path fill="#ffffff" opacity="1.00" d=" M 217.62 328.34 C 228.00 328.30 238.37 328.36 248.75 328.31 C 248.74 338.69 248.72 349.07 248.76 359.44 C 238.38 359.41 228.01 359.47 217.63 359.41 C 217.66 349.05 217.69 338.70 217.62 328.34 Z" />
<path fill="#ffffff" opacity="1.00" d=" M 263.72 328.22 C 274.06 328.32 284.40 328.27 294.73 328.25 C 294.80 338.65 294.61 349.05 294.84 359.45 C 284.46 359.53 274.08 359.42 263.70 359.51 C 263.71 349.08 263.67 338.65 263.72 328.22 Z" />
<path fill="#ffffff" opacity="1.00" d=" M 310.27 328.34 C 320.63 328.35 330.99 328.29 341.36 328.37 C 341.27 338.72 341.32 349.07 341.33 359.41 C 331.00 359.49 320.67 359.36 310.35 359.49 C 310.22 349.10 310.36 338.72 310.27 328.34 Z" />
<path fill="#97c024" opacity="1.00" d=" M 251.45 378.05 C 250.97 376.93 250.50 375.83 250.07 374.70 C 250.54 375.44 251.49 376.93 251.97 377.68 C 254.96 377.12 258.00 377.11 261.01 377.54 C 261.70 376.54 262.41 375.55 263.16 374.59 C 262.63 375.71 262.09 376.83 261.54 377.94 C 264.34 380.01 266.53 382.85 266.97 386.40 C 260.04 386.47 253.11 386.46 246.18 386.41 C 246.63 382.93 248.79 380.18 251.45 378.05 Z" />
<path fill="#ffffff" opacity="1.00" d=" M 250.92 380.95 C 252.53 380.48 253.05 381.06 252.49 382.70 C 250.85 383.16 250.33 382.58 250.92 380.95 Z" />
<path fill="#ffffff" opacity="1.00" d=" M 260.38 381.00 C 261.95 380.41 262.52 380.96 262.07 382.63 C 260.48 383.21 259.92 382.67 260.38 381.00 Z" />
<path fill="#97c024" opacity="1.00" d=" M 176.26 382.78 C 183.62 382.72 190.97 382.77 198.33 382.75 C 198.28 389.94 198.33 397.13 198.30 404.32 C 191.00 404.34 183.70 404.20 176.40 404.41 C 176.27 397.20 176.52 389.99 176.26 382.78 Z" />
<path fill="#97c024" opacity="1.00" d=" M 314.44 382.74 C 321.78 382.76 329.12 382.76 336.46 382.75 C 336.38 389.94 336.44 397.13 336.42 404.33 C 329.10 404.29 321.78 404.29 314.47 404.33 C 314.45 397.13 314.49 389.94 314.44 382.74 Z" />
<path fill="#97c024" opacity="1.00" d=" M 241.16 387.09 C 242.49 387.26 243.98 387.10 245.15 387.92 C 245.79 391.91 245.36 395.98 245.44 400.00 C 244.80 400.47 243.52 401.39 242.88 401.85 C 242.39 401.37 241.40 400.40 240.90 399.91 C 240.33 395.67 240.44 391.31 241.16 387.09 Z" />
<path fill="#97c024" opacity="1.00" d=" M 267.45 388.45 C 268.80 387.09 270.63 387.18 272.38 387.48 C 272.51 391.29 272.77 395.12 272.50 398.94 C 272.63 400.46 270.96 400.96 270.07 401.85 C 269.50 401.37 268.38 400.42 267.81 399.95 C 267.61 396.11 267.64 392.28 267.45 388.45 Z" />
<path fill="#97c024" opacity="1.00" d=" M 246.47 387.37 C 253.21 387.39 259.95 387.40 266.70 387.36 C 266.19 393.05 267.94 398.77 266.52 404.38 C 265.24 404.64 263.96 404.90 262.68 405.17 C 262.51 407.74 263.84 412.34 259.90 412.48 C 257.03 410.92 258.74 406.89 257.38 404.31 C 256.74 404.63 255.45 405.29 254.80 405.62 C 254.78 408.18 255.31 411.10 253.12 413.01 C 249.62 411.86 250.21 408.24 250.29 405.34 C 249.02 404.94 247.75 404.56 246.49 404.18 C 246.35 398.58 246.57 392.97 246.47 387.37 Z" />
</svg>
