<?xml version="1.0" encoding="UTF-8" ?>
<!DOCTYPE svg PUBLIC "-//W3C//DTD SVG 1.1//EN" "http://www.w3.org/Graphics/SVG/1.1/DTD/svg11.dtd">
<svg width="512pt" height="512pt" viewBox="0 0 512 512" version="1.1" xmlns="http://www.w3.org/2000/svg">
<path fill="#04aeda" opacity="1.00" d=" M 0.00 0.00 L 512.00 0.00 L 512.00 512.00 L 0.00 512.00 L 0.00 0.00 Z" />
<path fill="#ffffff" opacity="1.00" d=" M 135.35 101.41 C 215.54 101.31 295.74 101.35 375.94 101.39 C 383.28 101.09 389.72 107.76 389.61 115.00 C 389.58 209.03 389.61 303.06 389.59 397.09 C 389.52 403.64 383.89 410.36 377.00 409.93 C 296.35 409.93 215.69 409.91 135.03 409.94 C 128.16 410.49 121.80 403.82 122.31 397.04 C 122.35 302.69 122.34 208.34 122.32 113.98 C 122.18 107.18 128.65 101.31 135.35 101.41 Z" />
<path fill="#04aeda" opacity="1.00" d=" M 140.31 113.45 C 147.17 109.97 156.22 115.32 156.75 122.90 C 157.84 129.65 151.79 136.40 144.95 135.90 C 138.61 136.18 133.07 130.23 133.32 123.99 C 133.29 119.48 136.34 115.36 140.31 113.45 Z" />
<path fill="#04aeda" opacity="1.00" d=" M 361.44 113.63 C 367.61 110.28 375.95 114.12 377.82 120.78 C 380.32 127.72 374.43 135.97 367.08 135.89 C 360.47 136.55 354.58 130.45 354.67 124.00 C 354.90 119.68 357.48 115.48 361.44 113.63 Z" />
<path fill="#04aeda" opacity="1.00" d=" M 176.17 195.81 C 186.10 195.81 196.02 195.78 205.95 195.81 C 213.94 195.88 222.43 197.97 228.13 203.91 C 234.95 210.55 235.72 221.52 232.07 229.95 C 229.27 236.48 223.40 241.31 216.72 243.50 C 223.80 244.68 230.95 247.83 235.06 253.98 C 240.10 261.36 240.30 271.31 237.32 279.53 C 232.95 290.83 220.81 297.59 209.05 297.96 C 198.11 298.20 187.16 297.84 176.22 298.05 C 176.15 263.97 176.25 229.89 176.17 195.81 Z" />
<path fill="#04aeda" opacity="1.00" d=" M 276.33 195.81 C 279.96 195.87 283.60 195.64 287.24 195.88 C 288.62 197.25 288.96 199.38 289.78 201.11 C 304.97 239.15 320.20 277.18 335.36 315.23 C 331.75 315.22 328.14 315.22 324.54 315.28 C 308.23 275.56 292.53 235.58 276.33 195.81 Z" />
<path fill="#ffffff" opacity="1.00" d=" M 188.29 206.80 C 195.91 207.04 203.69 206.01 211.16 207.97 C 215.35 209.00 219.22 211.93 220.61 216.12 C 222.87 222.96 220.90 231.56 214.75 235.74 C 207.00 241.20 197.11 239.16 188.27 239.54 C 188.31 228.62 188.27 217.71 188.29 206.80 Z" />
<path fill="#04aeda" opacity="1.00" d=" M 259.21 224.22 C 264.45 221.39 271.83 225.99 270.83 232.08 C 270.75 238.46 262.06 241.86 257.51 237.51 C 253.14 234.02 254.11 226.49 259.21 224.22 Z" />
<path fill="#ffffff" opacity="1.00" d=" M 188.31 287.23 C 188.27 274.99 188.26 262.76 188.32 250.53 C 198.51 250.99 209.55 248.94 218.89 254.09 C 229.76 260.21 228.82 278.39 217.95 284.05 C 208.84 288.85 198.17 286.74 188.31 287.23 Z" />
<path fill="#04aeda" opacity="1.00" d=" M 259.21 284.27 C 264.43 281.29 271.65 286.11 270.84 292.08 C 271.00 298.62 261.97 302.16 257.44 297.61 C 253.05 294.10 254.22 286.60 259.21 284.27 Z" />
<path fill="#04aeda" opacity="1.00" d=" M 141.54 375.76 C 148.34 373.38 156.43 378.66 156.77 385.89 C 157.73 392.58 151.73 399.04 145.02 398.76 C 138.80 398.91 133.19 393.24 133.32 387.04 C 133.18 381.98 136.85 377.35 141.54 375.76 Z" />
<path fill="#04aeda" opacity="1.00" d=" M 363.43 375.62 C 369.52 373.81 376.32 377.82 377.91 383.90 C 380.18 390.83 374.23 398.79 366.99 398.74 C 360.14 399.30 354.12 392.71 354.71 386.00 C 355.27 381.23 358.75 376.89 363.43 375.62 Z" />
</svg>
