<?xml version="1.0" encoding="UTF-8" ?>
<!DOCTYPE svg PUBLIC "-//W3C//DTD SVG 1.1//EN" "http://www.w3.org/Graphics/SVG/1.1/DTD/svg11.dtd">
<svg width="512pt" height="512pt" viewBox="0 0 512 512" version="1.1" xmlns="http://www.w3.org/2000/svg">
<path fill="#04aeda" opacity="1.00" d=" M 0.00 0.00 L 512.00 0.00 L 512.00 512.00 L 0.00 512.00 L 0.00 0.00 Z" />
<path fill="#ffffff" opacity="1.00" d=" M 247.31 114.43 C 275.12 112.73 303.42 119.38 327.46 133.49 C 356.82 150.51 379.70 178.40 390.48 210.58 C 397.89 232.09 399.58 255.40 396.34 277.86 C 392.53 303.21 381.56 327.42 365.12 347.08 C 338.70 379.05 297.61 398.81 255.99 397.95 C 224.87 398.58 193.87 387.69 169.30 368.71 C 145.70 350.61 128.08 324.89 119.71 296.34 C 112.16 270.32 112.14 242.09 119.72 216.07 C 128.51 186.05 147.57 159.19 173.00 140.97 C 194.58 125.29 220.70 116.08 247.31 114.43 Z" />
<path fill="#04aeda" opacity="1.00" d=" M 251.13 220.05 C 268.16 217.33 285.78 228.77 290.77 245.18 C 296.32 261.35 288.38 280.58 273.22 288.36 C 261.39 294.93 245.93 293.95 234.98 286.03 C 223.01 277.83 216.93 262.05 220.42 247.96 C 223.68 233.53 236.41 221.84 251.13 220.05 Z" />
<path fill="#ffffff" opacity="1.00" d=" M 186.72 411.59 C 192.58 412.12 199.20 410.06 204.47 413.36 C 210.23 416.94 208.16 426.89 201.55 428.12 C 205.49 428.95 209.32 431.81 209.62 436.11 C 210.53 441.56 206.40 446.82 201.08 447.78 C 196.33 448.47 191.51 447.94 186.74 448.09 C 186.73 435.92 186.75 423.76 186.72 411.59 Z" />
<path fill="#ffffff" opacity="1.00" d=" M 217.44 448.09 C 217.44 435.92 217.48 423.74 217.42 411.57 C 225.89 411.89 235.93 409.83 242.70 416.29 C 250.32 424.48 248.58 439.95 238.54 445.50 C 232.11 449.15 224.49 447.89 217.44 448.09 Z" />
<path fill="#ffffff" opacity="1.00" d=" M 276.13 411.59 C 282.74 412.22 290.95 409.45 296.14 414.85 C 301.25 420.21 297.69 430.13 290.36 431.20 C 296.15 435.35 298.46 442.61 302.72 448.12 C 300.91 447.92 298.88 448.54 297.21 447.71 C 294.19 443.66 292.28 438.85 288.98 435.00 C 286.89 432.51 283.44 432.73 280.52 432.79 C 280.54 437.89 280.54 443.00 280.53 448.10 C 279.08 448.09 277.63 448.09 276.18 448.09 C 276.17 435.92 276.27 423.76 276.13 411.59 Z" />
<path fill="#ffffff" opacity="1.00" d=" M 307.50 411.57 C 313.82 411.55 320.15 411.55 326.48 411.58 C 326.46 412.98 326.44 414.40 326.43 415.82 C 321.57 415.82 316.72 415.80 311.87 415.83 C 311.90 419.80 311.77 423.77 311.99 427.74 C 316.47 427.70 320.95 427.72 325.44 427.73 C 325.42 429.12 325.41 430.52 325.41 431.92 C 320.89 431.99 316.37 431.83 311.86 432.07 C 311.88 435.98 311.87 439.89 311.87 443.81 C 317.01 443.92 322.16 443.83 327.30 443.87 C 327.29 445.27 327.29 446.68 327.29 448.09 C 320.70 448.11 314.11 448.10 307.52 448.09 C 307.51 435.92 307.56 423.75 307.50 411.57 Z" />
<path fill="#04aeda" opacity="1.00" d=" M 191.27 415.82 C 194.72 415.92 198.66 415.20 201.67 417.34 C 204.31 419.47 203.41 424.12 200.52 425.63 C 197.74 427.29 194.38 426.83 191.30 426.88 C 191.29 423.19 191.30 419.51 191.27 415.82 Z" />
<path fill="#04aeda" opacity="1.00" d=" M 221.81 415.84 C 228.11 415.73 235.97 415.21 240.24 420.84 C 244.25 427.18 243.45 437.41 236.56 441.52 C 232.15 444.26 226.79 443.95 221.82 443.83 C 221.81 434.50 221.82 425.17 221.81 415.84 Z" />
<path fill="#04aeda" opacity="1.00" d=" M 280.52 415.83 C 284.03 415.96 287.85 415.18 291.08 416.94 C 294.86 418.92 294.52 425.05 291.03 427.16 C 287.92 429.28 284.02 428.42 280.52 428.55 C 280.54 424.30 280.54 420.07 280.52 415.83 Z" />
<path fill="#04aeda" opacity="1.00" d=" M 191.29 431.11 C 195.25 431.16 199.66 430.47 203.09 432.94 C 206.03 435.32 205.61 440.40 202.45 442.40 C 199.15 444.54 195.01 443.74 191.29 443.85 C 191.29 439.60 191.29 435.35 191.29 431.11 Z" />
<path fill="#ffffff" opacity="1.00" d=" M 253.65 431.95 C 258.36 431.93 263.07 431.94 267.79 431.94 C 267.82 432.78 267.89 434.46 267.92 435.30 C 263.14 435.34 258.36 435.33 253.59 435.31 C 253.60 434.47 253.63 432.79 253.65 431.95 Z" />
</svg>
