<?xml version="1.0" encoding="UTF-8" ?>
<!DOCTYPE svg PUBLIC "-//W3C//DTD SVG 1.1//EN" "http://www.w3.org/Graphics/SVG/1.1/DTD/svg11.dtd">
<svg width="512pt" height="512pt" viewBox="0 0 512 512" version="1.1" xmlns="http://www.w3.org/2000/svg">
<path fill="#04aeda" opacity="1.00" d=" M 0.00 0.00 L 512.00 0.00 L 512.00 512.00 L 0.00 512.00 L 0.00 0.00 Z" />
<path fill="#ffffff" opacity="1.00" d=" M 247.36 114.43 C 274.92 112.76 302.97 119.28 326.87 133.14 C 356.01 149.85 378.84 177.24 389.93 208.95 C 399.12 234.86 400.31 263.46 393.92 290.15 C 387.96 314.44 375.44 337.08 358.00 355.01 C 337.80 375.94 311.03 390.47 282.41 395.75 C 270.04 398.27 257.34 398.21 244.78 397.71 C 216.30 395.72 188.62 384.51 166.50 366.49 C 140.13 345.21 121.76 314.18 116.11 280.74 C 111.95 255.76 114.05 229.62 123.13 205.91 C 134.69 175.25 157.24 148.90 185.76 132.76 C 204.52 122.00 225.79 115.80 247.36 114.43 Z" />
<path fill="#04aeda" opacity="1.00" d=" M 251.09 220.05 C 268.62 217.22 286.69 229.43 291.17 246.50 C 296.09 262.91 287.39 281.89 271.87 289.05 C 260.01 295.01 244.97 293.57 234.38 285.60 C 222.55 277.14 216.78 261.16 220.63 247.10 C 224.17 233.06 236.69 221.84 251.09 220.05 Z" />
<path fill="#ffffff" opacity="1.00" d=" M 287.27 411.23 C 291.89 410.19 297.03 410.42 301.22 412.83 C 306.44 415.92 309.47 422.01 309.50 427.99 C 309.80 433.10 308.89 438.54 305.62 442.63 C 299.02 451.57 283.27 451.17 277.46 441.54 C 271.28 431.42 274.49 414.30 287.27 411.23 Z" />
<path fill="#ffffff" opacity="1.00" d=" M 157.13 411.59 C 163.60 412.20 172.00 409.37 176.70 415.28 C 180.24 419.80 177.07 425.75 172.82 428.43 C 175.45 429.34 178.12 430.80 179.25 433.51 C 180.53 437.51 180.00 442.65 176.41 445.33 C 170.99 449.75 163.56 447.60 157.18 448.09 C 157.17 435.93 157.27 423.76 157.13 411.59 Z" />
<path fill="#ffffff" opacity="1.00" d=" M 186.72 411.59 C 195.35 411.85 205.62 409.81 212.43 416.54 C 219.41 424.91 217.91 439.70 208.17 445.39 C 201.66 449.18 193.90 447.89 186.74 448.09 C 186.73 435.92 186.75 423.76 186.72 411.59 Z" />
<path fill="#ffffff" opacity="1.00" d=" M 245.46 448.04 C 245.50 435.88 245.50 423.72 245.46 411.57 C 252.04 412.23 260.05 409.53 265.38 414.63 C 270.57 419.99 267.21 429.80 259.96 431.26 C 265.44 435.56 267.93 442.46 271.97 447.98 C 270.25 448.05 268.53 448.10 266.81 448.16 C 263.98 443.97 261.80 439.35 258.66 435.38 C 256.60 432.63 252.93 432.65 249.85 432.81 C 249.85 437.91 249.84 443.01 249.86 448.12 C 248.39 448.08 246.92 448.05 245.46 448.04 Z" />
<path fill="#ffffff" opacity="1.00" d=" M 316.65 411.57 C 318.70 411.56 320.77 411.57 322.83 411.61 C 327.09 421.54 331.65 431.33 335.87 441.27 C 339.76 431.17 344.71 421.53 349.02 411.60 C 350.87 411.58 352.72 411.56 354.58 411.55 C 354.52 423.73 354.56 435.91 354.56 448.09 C 353.11 448.08 351.66 448.09 350.22 448.10 C 350.23 437.87 350.21 427.64 350.26 417.41 C 346.49 427.88 341.15 437.71 337.06 448.05 C 335.64 448.19 333.99 448.01 333.74 446.31 C 329.62 436.36 324.51 426.79 320.79 416.71 C 321.75 427.14 321.09 437.63 321.28 448.09 C 319.74 448.09 318.20 448.09 316.67 448.09 C 316.65 435.92 316.69 423.75 316.65 411.57 Z" />
<path fill="#04aeda" opacity="1.00" d=" M 288.33 415.57 C 294.71 413.30 302.52 417.08 304.10 423.81 C 305.18 429.54 305.49 436.53 301.10 441.04 C 295.74 446.79 284.90 445.73 281.28 438.55 C 277.07 430.88 278.98 418.33 288.33 415.57 Z" />
<path fill="#04aeda" opacity="1.00" d=" M 161.51 415.86 C 164.72 415.86 168.15 415.36 171.14 416.82 C 174.69 418.47 173.99 424.28 170.61 425.71 C 167.84 427.25 164.57 426.86 161.53 426.86 C 161.54 423.19 161.54 419.52 161.51 415.86 Z" />
<path fill="#04aeda" opacity="1.00" d=" M 191.26 415.84 C 197.81 415.68 206.42 415.25 210.23 421.77 C 213.36 428.02 212.61 437.20 206.36 441.29 C 201.90 444.21 196.40 443.98 191.29 443.85 C 191.28 434.52 191.33 425.18 191.26 415.84 Z" />
<path fill="#04aeda" opacity="1.00" d=" M 249.85 415.84 C 253.72 415.96 258.18 415.02 261.48 417.58 C 264.44 420.17 263.55 425.40 260.25 427.29 C 257.14 429.28 253.31 428.41 249.84 428.53 C 249.85 424.29 249.84 420.07 249.85 415.84 Z" />
<path fill="#04aeda" opacity="1.00" d=" M 161.53 431.11 C 165.46 431.12 169.77 430.55 173.24 432.83 C 176.32 435.21 175.84 440.47 172.59 442.46 C 169.29 444.54 165.21 443.74 161.53 443.85 C 161.54 439.60 161.54 435.35 161.53 431.11 Z" />
<path fill="#ffffff" opacity="1.00" d=" M 223.21 431.94 C 227.88 431.94 232.56 431.93 237.23 431.95 C 237.24 432.79 237.26 434.47 237.27 435.32 C 232.54 435.33 227.81 435.34 223.09 435.30 C 223.12 434.46 223.18 432.78 223.21 431.94 Z" />
</svg>
