<?xml version="1.0" encoding="UTF-8" ?>
<!DOCTYPE svg PUBLIC "-//W3C//DTD SVG 1.1//EN" "http://www.w3.org/Graphics/SVG/1.1/DTD/svg11.dtd">
<svg width="512pt" height="512pt" viewBox="0 0 512 512" version="1.1" xmlns="http://www.w3.org/2000/svg">
<path fill="#04aeda" opacity="1.00" d=" M 0.00 0.00 L 512.00 0.00 L 512.00 512.00 L 0.00 512.00 L 0.00 0.00 Z" />
<path fill="#ffffff" opacity="1.00" d=" M 135.29 101.41 C 215.49 101.31 295.69 101.35 375.89 101.39 C 383.24 101.06 389.72 107.74 389.60 114.98 C 389.58 209.01 389.61 303.03 389.59 397.06 C 389.53 403.58 383.96 410.31 377.10 409.93 C 296.37 409.93 215.65 409.91 134.92 409.93 C 128.11 410.44 121.79 403.78 122.32 397.06 C 122.36 304.72 122.32 212.38 122.33 120.04 C 122.37 117.15 122.17 114.24 122.49 111.37 C 124.07 105.78 129.37 101.35 135.29 101.41 Z" />
<path fill="#04aeda" opacity="1.00" d=" M 140.39 113.42 C 147.60 109.79 157.04 115.96 156.81 123.96 C 157.29 130.36 151.39 136.35 144.97 135.90 C 138.61 136.20 133.04 130.22 133.33 123.95 C 133.29 119.43 136.39 115.31 140.39 113.42 Z" />
<path fill="#04aeda" opacity="1.00" d=" M 361.46 113.62 C 367.67 110.25 376.07 114.20 377.85 120.93 C 380.27 127.85 374.33 136.02 367.02 135.89 C 360.43 136.52 354.56 130.41 354.67 123.97 C 354.91 119.66 357.49 115.46 361.46 113.62 Z" />
<path fill="#04aeda" opacity="1.00" d=" M 246.25 169.26 C 261.88 167.17 278.03 170.21 292.35 176.64 C 312.86 185.96 329.44 203.53 337.51 224.57 C 343.16 239.27 345.03 255.52 342.13 271.04 C 338.60 291.93 327.07 311.33 310.47 324.47 C 295.95 336.13 277.61 342.92 259.01 343.53 C 241.28 344.18 223.40 339.21 208.53 329.53 C 189.69 317.44 175.87 297.82 170.86 276.00 C 167.29 261.19 167.83 245.48 172.28 230.92 C 177.56 213.24 188.67 197.39 203.43 186.31 C 215.82 176.91 230.79 170.95 246.25 169.26 Z" />
<path fill="#ffffff" opacity="1.00" d=" M 251.42 233.74 C 262.75 231.18 275.00 238.70 277.97 249.88 C 280.69 259.27 276.72 270.12 268.39 275.30 C 258.88 281.70 244.70 279.37 237.90 270.06 C 233.45 264.45 232.16 256.71 234.02 249.85 C 236.27 241.83 243.24 235.35 251.42 233.74 Z" />
<path fill="#04aeda" opacity="1.00" d=" M 231.38 396.70 C 231.40 386.67 231.42 376.64 231.37 366.61 C 236.49 367.02 242.75 365.13 246.83 369.19 C 250.29 372.77 247.92 379.22 243.21 380.27 C 245.62 381.08 248.26 382.19 249.35 384.70 C 250.47 387.91 249.98 391.99 247.15 394.20 C 242.80 398.02 236.63 396.37 231.38 396.70 Z" />
<path fill="#04aeda" opacity="1.00" d=" M 256.57 366.61 C 263.70 366.74 272.36 365.37 277.74 371.22 C 283.09 378.14 281.69 390.25 273.58 394.54 C 268.38 397.45 262.24 396.67 256.53 396.64 C 256.64 386.63 256.57 376.62 256.57 366.61 Z" />
<path fill="#ffffff" opacity="1.00" d=" M 234.68 370.13 C 237.82 370.33 241.77 369.21 244.17 371.84 C 245.33 373.75 244.98 376.66 243.07 378.01 C 240.62 379.74 237.48 379.11 234.68 379.19 C 234.69 376.17 234.68 373.15 234.68 370.13 Z" />
<path fill="#ffffff" opacity="1.00" d=" M 259.82 370.18 C 265.00 370.04 271.37 369.37 275.06 373.85 C 278.84 379.03 278.05 387.71 272.44 391.32 C 268.67 393.70 264.07 393.21 259.83 393.17 C 259.82 385.50 259.84 377.84 259.82 370.18 Z" />
<path fill="#04aeda" opacity="1.00" d=" M 141.49 375.77 C 148.29 373.35 156.42 378.63 156.76 385.88 C 157.74 392.57 151.75 399.03 145.05 398.75 C 138.79 398.93 133.14 393.19 133.33 386.95 C 133.21 381.95 136.86 377.38 141.49 375.77 Z" />
<path fill="#04aeda" opacity="1.00" d=" M 363.41 375.62 C 369.52 373.80 376.33 377.83 377.93 383.93 C 380.29 391.22 373.60 399.45 366.00 398.74 C 358.82 398.73 352.92 390.77 355.19 383.93 C 356.24 379.98 359.49 376.74 363.41 375.62 Z" />
<path fill="#ffffff" opacity="1.00" d=" M 234.68 382.72 C 237.87 382.84 241.37 382.11 244.28 383.79 C 247.17 385.60 247.02 390.45 244.10 392.18 C 241.24 393.81 237.80 393.05 234.68 393.18 C 234.69 389.69 234.69 386.20 234.68 382.72 Z" />
</svg>
