<?xml version="1.0" encoding="UTF-8" ?>
<!DOCTYPE svg PUBLIC "-//W3C//DTD SVG 1.1//EN" "http://www.w3.org/Graphics/SVG/1.1/DTD/svg11.dtd">
<svg width="512pt" height="512pt" viewBox="0 0 512 512" version="1.1" xmlns="http://www.w3.org/2000/svg">
<path fill="#04aeda" opacity="1.00" d=" M 0.00 0.00 L 512.00 0.00 L 512.00 512.00 L 0.00 512.00 L 0.00 0.00 Z" />
<path fill="#ffffff" opacity="1.00" d=" M 135.38 101.41 C 214.58 101.28 293.79 101.41 372.99 101.34 C 376.10 101.34 379.36 101.35 382.19 102.82 C 386.58 105.11 389.62 109.96 389.60 114.93 C 389.58 208.98 389.61 303.03 389.59 397.07 C 389.52 403.59 383.96 410.31 377.10 409.93 C 296.04 409.91 214.98 409.95 133.92 409.91 C 129.55 410.01 125.83 406.88 123.75 403.27 C 121.65 400.25 122.48 396.43 122.33 393.00 C 122.34 299.96 122.34 206.92 122.33 113.88 C 122.23 107.11 128.71 101.30 135.38 101.41 Z" />
<path fill="#04aeda" opacity="1.00" d=" M 140.36 113.43 C 147.22 109.99 156.22 115.34 156.75 122.90 C 157.69 128.91 153.07 134.92 147.13 135.83 C 140.52 137.25 133.63 131.70 133.35 125.00 C 132.88 120.13 136.03 115.46 140.36 113.43 Z" />
<path fill="#04aeda" opacity="1.00" d=" M 361.41 113.64 C 367.58 110.27 375.95 114.11 377.81 120.79 C 380.34 127.74 374.39 136.02 367.02 135.89 C 360.41 136.53 354.52 130.37 354.67 123.90 C 354.94 119.63 357.49 115.49 361.41 113.64 Z" />
<path fill="#04aeda" opacity="1.00" d=" M 141.56 375.75 C 148.36 373.38 156.44 378.67 156.77 385.90 C 157.66 392.22 152.37 398.40 146.06 398.72 C 139.49 399.48 133.17 393.62 133.32 387.04 C 133.17 381.98 136.86 377.34 141.56 375.75 Z" />
<path fill="#04aeda" opacity="1.00" d=" M 363.44 375.62 C 369.54 373.81 376.34 377.84 377.93 383.94 C 380.15 390.85 374.25 398.75 367.03 398.74 C 360.13 399.33 354.05 392.66 354.73 385.90 C 355.32 381.16 358.79 376.88 363.44 375.62 Z" />
</svg>
