<?xml version="1.0" encoding="UTF-8" ?>
<!DOCTYPE svg PUBLIC "-//W3C//DTD SVG 1.1//EN" "http://www.w3.org/Graphics/SVG/1.1/DTD/svg11.dtd">
<svg width="512pt" height="512pt" viewBox="0 0 512 512" version="1.1" xmlns="http://www.w3.org/2000/svg">
<path fill="#04aeda" opacity="1.00" d=" M 0.00 0.00 L 512.00 0.00 L 512.00 512.00 L 0.00 512.00 L 0.00 0.00 Z" />
<path fill="#ffffff" opacity="1.00" d=" M 135.34 101.41 C 215.54 101.32 295.74 101.35 375.93 101.39 C 383.26 101.07 389.73 107.77 389.60 114.99 C 389.60 208.68 389.59 302.38 389.61 396.07 C 390.04 402.95 384.26 410.37 377.01 409.93 C 296.35 409.92 215.69 409.91 135.04 409.94 C 128.17 410.51 121.76 403.78 122.32 397.01 C 122.34 303.02 122.34 209.02 122.32 115.03 C 121.57 107.86 128.27 101.29 135.34 101.41 Z" />
<path fill="#04aeda" opacity="1.00" d=" M 140.33 113.45 C 147.19 109.97 156.25 115.34 156.75 122.93 C 157.84 129.67 151.76 136.42 144.93 135.89 C 138.60 136.18 133.06 130.22 133.33 123.99 C 133.27 119.47 136.35 115.36 140.33 113.45 Z" />
<path fill="#04aeda" opacity="1.00" d=" M 361.44 113.64 C 367.58 110.27 375.93 114.12 377.81 120.76 C 380.35 127.71 374.40 136.02 367.02 135.89 C 360.41 136.53 354.52 130.37 354.67 123.91 C 354.95 119.63 357.49 115.46 361.44 113.64 Z" />
<path fill="#04aeda" opacity="1.00" d=" M 196.41 201.43 C 207.58 195.34 220.83 194.63 233.20 196.31 C 237.54 196.79 241.73 198.06 245.79 199.64 C 245.78 203.98 245.76 208.32 245.80 212.66 C 234.71 206.64 221.25 204.71 209.07 208.27 C 198.07 211.52 189.11 220.42 185.24 231.14 C 182.24 239.07 181.84 247.71 182.54 256.09 C 183.54 266.75 188.57 277.37 197.43 283.69 C 205.51 289.72 216.16 291.16 225.95 289.89 C 232.95 289.24 239.74 286.95 245.81 283.41 C 245.79 287.30 245.70 291.19 245.86 295.08 C 236.55 300.27 225.51 301.38 215.01 301.21 C 202.03 300.89 189.00 295.40 180.79 285.13 C 169.94 272.21 167.86 254.11 170.53 237.95 C 172.94 222.65 182.67 208.66 196.41 201.43 Z" />
<path fill="#04aeda" opacity="1.00" d=" M 283.34 197.20 C 287.12 197.20 290.90 197.14 294.69 197.26 C 310.50 237.05 326.60 276.74 342.25 316.60 C 338.62 316.50 334.99 316.55 331.36 316.55 C 315.34 276.77 299.40 236.96 283.34 197.20 Z" />
<path fill="#04aeda" opacity="1.00" d=" M 266.18 225.31 C 271.94 222.71 279.02 228.83 276.96 234.92 C 275.61 240.69 267.49 242.89 263.47 238.56 C 259.32 234.82 260.84 227.11 266.18 225.31 Z" />
<path fill="#04aeda" opacity="1.00" d=" M 265.44 285.72 C 269.57 283.28 275.28 285.81 276.76 290.24 C 278.86 295.20 274.44 301.54 269.00 300.92 C 264.74 301.29 260.87 297.21 261.11 293.02 C 260.94 289.97 262.80 287.12 265.44 285.72 Z" />
<path fill="#04aeda" opacity="1.00" d=" M 141.53 375.76 C 148.33 373.38 156.43 378.65 156.76 385.89 C 157.67 392.20 152.38 398.39 146.08 398.72 C 139.50 399.50 133.15 393.62 133.33 387.03 C 133.17 381.98 136.86 377.36 141.53 375.76 Z" />
<path fill="#04aeda" opacity="1.00" d=" M 363.45 375.61 C 370.28 373.55 377.79 378.95 378.32 385.97 C 379.10 392.78 372.81 399.38 365.94 398.74 C 359.81 398.67 354.78 393.00 354.65 387.02 C 354.78 381.86 358.43 376.97 363.45 375.61 Z" />
</svg>
