<?xml version="1.0" encoding="UTF-8" ?>
<!DOCTYPE svg PUBLIC "-//W3C//DTD SVG 1.1//EN" "http://www.w3.org/Graphics/SVG/1.1/DTD/svg11.dtd">
<svg width="512pt" height="512pt" viewBox="0 0 512 512" version="1.1" xmlns="http://www.w3.org/2000/svg">
<path fill="#04aeda" opacity="1.00" d=" M 0.00 0.00 L 512.00 0.00 L 512.00 512.00 L 0.00 512.00 L 0.00 0.00 Z" />
<path fill="#ffffff" opacity="1.00" d=" M 156.82 153.29 C 182.99 128.50 218.65 112.93 254.98 114.06 C 295.18 112.56 334.94 131.05 361.60 160.82 C 333.99 182.95 306.44 205.17 278.88 227.38 C 271.92 221.84 263.03 218.58 254.08 219.22 C 246.83 219.16 240.01 222.18 234.03 226.05 C 210.42 203.96 186.83 181.85 163.24 159.74 C 161.05 157.64 158.59 155.79 156.82 153.29 Z" />
<path fill="#ffffff" opacity="1.00" d=" M 286.96 236.77 C 314.11 214.28 341.98 192.61 369.21 170.20 C 381.95 187.06 390.97 206.82 394.95 227.59 C 373.97 232.04 352.85 235.83 331.85 240.20 C 318.39 242.58 305.07 245.72 291.58 247.99 C 290.53 244.07 289.08 240.25 286.96 236.77 Z" />
<path fill="#ffffff" opacity="1.00" d=" M 128.42 192.09 C 158.93 210.04 189.34 228.22 219.65 246.50 C 219.89 249.73 219.01 252.97 219.13 256.22 C 184.37 262.93 149.70 270.14 114.91 276.64 C 113.69 265.84 114.04 254.96 114.16 244.12 C 115.29 226.03 120.54 208.36 128.42 192.09 Z" />
<path fill="#ffffff" opacity="1.00" d=" M 382.15 242.77 C 387.14 241.90 392.07 240.58 397.14 240.13 C 397.68 248.75 398.58 257.41 397.43 266.03 C 395.82 286.24 390.24 306.24 380.27 323.94 C 350.20 305.55 319.98 287.42 289.89 269.05 C 290.83 266.35 291.56 263.57 291.87 260.73 C 321.91 254.50 352.08 248.86 382.15 242.77 Z" />
<path fill="#ffffff" opacity="1.00" d=" M 117.37 288.83 C 152.02 282.00 186.69 275.21 221.32 268.25 C 221.51 268.90 221.89 270.21 222.08 270.86 C 194.41 292.99 166.90 315.32 139.21 337.42 C 129.14 322.67 121.52 306.22 117.37 288.83 Z" />
<path fill="#ffffff" opacity="1.00" d=" M 147.03 347.05 C 174.23 324.88 201.68 302.99 229.02 280.98 C 234.69 286.40 241.74 290.55 249.57 291.79 C 257.15 293.28 265.08 291.79 271.99 288.48 C 298.21 312.77 324.46 337.02 350.76 361.23 C 324.74 385.25 289.27 398.22 253.97 397.95 C 227.00 397.39 200.09 389.48 177.57 374.49 C 166.22 366.82 155.44 357.89 147.03 347.05 Z" />
</svg>
