<?xml version="1.0" encoding="UTF-8" ?>
<!DOCTYPE svg PUBLIC "-//W3C//DTD SVG 1.1//EN" "http://www.w3.org/Graphics/SVG/1.1/DTD/svg11.dtd">
<svg width="512pt" height="512pt" viewBox="0 0 512 512" version="1.1" xmlns="http://www.w3.org/2000/svg">
<path fill="#04aeda" opacity="1.00" d=" M 0.00 0.00 L 512.00 0.00 L 512.00 512.00 L 0.00 512.00 L 0.00 0.00 Z" />
<path fill="#ffffff" opacity="1.00" d=" M 241.60 114.92 C 270.97 111.86 301.27 118.31 326.82 133.12 C 352.14 147.66 372.80 170.20 384.96 196.76 C 396.07 220.39 399.90 247.15 396.98 273.03 C 393.96 299.45 383.17 324.89 366.41 345.52 C 341.68 376.30 303.59 396.16 264.06 397.86 C 254.28 398.01 244.43 398.23 234.75 396.61 C 200.44 391.67 168.37 373.34 146.41 346.57 C 129.39 326.00 118.31 300.53 115.12 274.01 C 112.36 250.60 114.96 226.45 123.68 204.49 C 135.22 174.86 157.04 149.40 184.55 133.46 C 201.94 123.27 221.55 116.96 241.60 114.92 Z" />
<path fill="#04aeda" opacity="1.00" d=" M 251.17 220.04 C 268.19 217.35 285.80 228.79 290.77 245.19 C 296.23 261.15 288.59 280.11 273.77 288.06 C 262.07 294.82 246.63 294.13 235.54 286.42 C 223.23 278.32 216.86 262.28 220.43 247.95 C 223.68 233.51 236.44 221.83 251.17 220.04 Z" />
</svg>
