<?xml version="1.0" encoding="UTF-8" ?>
<!DOCTYPE svg PUBLIC "-//W3C//DTD SVG 1.1//EN" "http://www.w3.org/Graphics/SVG/1.1/DTD/svg11.dtd">
<svg width="512pt" height="512pt" viewBox="0 0 512 512" version="1.1" xmlns="http://www.w3.org/2000/svg">
<path fill="#04aeda" opacity="1.00" d=" M 0.00 0.00 L 512.00 0.00 L 512.00 512.00 L 0.00 512.00 L 0.00 0.00 Z" />
<path fill="#ffffff" opacity="1.00" d=" M 135.30 101.41 C 215.51 101.31 295.72 101.35 375.92 101.39 C 383.27 101.07 389.73 107.77 389.60 115.02 C 389.58 209.04 389.61 303.07 389.59 397.10 C 389.51 403.60 383.95 410.30 377.10 409.93 C 296.41 409.93 215.72 409.91 135.04 409.94 C 128.15 410.50 121.78 403.79 122.32 397.01 C 122.35 302.65 122.33 208.30 122.33 113.94 C 122.19 107.18 128.65 101.33 135.30 101.41 Z" />
<path fill="#04aeda" opacity="1.00" d=" M 140.29 113.47 C 147.15 109.96 156.23 115.32 156.75 122.91 C 157.84 129.64 151.81 136.38 144.99 135.90 C 138.65 136.20 133.09 130.28 133.33 124.04 C 133.26 119.52 136.31 115.39 140.29 113.47 Z" />
<path fill="#04aeda" opacity="1.00" d=" M 361.48 113.61 C 367.63 110.29 375.94 114.13 377.81 120.77 C 380.34 127.72 374.40 136.02 367.02 135.89 C 360.43 136.52 354.56 130.41 354.67 123.97 C 354.91 119.65 357.50 115.45 361.48 113.61 Z" />
<path fill="#04aeda" opacity="1.00" d=" M 167.08 195.81 C 177.74 195.83 188.40 195.73 199.06 195.86 C 212.54 196.33 226.95 199.40 236.89 209.16 C 246.53 218.72 249.57 232.86 249.41 246.01 C 249.54 259.33 245.19 273.10 235.56 282.60 C 225.44 293.25 210.48 297.99 196.05 298.03 C 186.41 297.84 176.78 298.13 167.14 298.04 C 167.05 263.96 167.17 229.89 167.08 195.81 Z" />
<path fill="#04aeda" opacity="1.00" d=" M 285.42 195.82 C 289.25 195.80 293.09 195.69 296.91 195.98 C 312.61 235.79 328.68 275.45 344.46 315.23 C 340.84 315.22 337.23 315.21 333.62 315.28 C 317.34 275.55 301.62 235.58 285.42 195.82 Z" />
<path fill="#ffffff" opacity="1.00" d=" M 179.22 206.80 C 193.08 206.98 208.02 205.34 220.60 212.45 C 229.55 217.30 234.72 227.01 236.09 236.84 C 237.49 247.99 236.79 260.06 230.77 269.86 C 226.03 277.75 217.81 283.13 208.98 285.34 C 199.28 287.88 189.16 287.08 179.25 287.23 C 179.17 260.42 179.23 233.61 179.22 206.80 Z" />
<path fill="#04aeda" opacity="1.00" d=" M 268.21 224.28 C 273.02 221.60 280.18 225.27 279.92 231.01 C 280.72 237.30 272.80 241.75 267.67 238.30 C 262.41 235.37 262.66 226.76 268.21 224.28 Z" />
<path fill="#04aeda" opacity="1.00" d=" M 268.29 284.28 C 273.48 281.30 280.74 286.05 279.92 292.03 C 280.17 298.66 270.95 302.19 266.44 297.53 C 262.23 293.98 263.37 286.60 268.29 284.28 Z" />
<path fill="#04aeda" opacity="1.00" d=" M 141.52 375.76 C 148.33 373.37 156.44 378.66 156.77 385.90 C 157.65 392.20 152.40 398.38 146.10 398.72 C 139.49 399.51 133.12 393.59 133.33 386.97 C 133.21 381.94 136.87 377.36 141.52 375.76 Z" />
<path fill="#04aeda" opacity="1.00" d=" M 363.38 375.63 C 369.49 373.79 376.34 377.82 377.92 383.93 C 380.14 390.82 374.29 398.71 367.10 398.74 C 360.19 399.37 354.08 392.72 354.72 385.96 C 355.30 381.22 358.74 376.92 363.38 375.63 Z" />
</svg>
