<?xml version="1.0" encoding="UTF-8" ?>
<!DOCTYPE svg PUBLIC "-//W3C//DTD SVG 1.1//EN" "http://www.w3.org/Graphics/SVG/1.1/DTD/svg11.dtd">
<svg width="512pt" height="512pt" viewBox="0 0 512 512" version="1.1" xmlns="http://www.w3.org/2000/svg">
<path fill="#04aeda" opacity="1.00" d=" M 0.00 0.00 L 512.00 0.00 L 512.00 512.00 L 0.00 512.00 L 0.00 0.00 Z" />
<path fill="#ffffff" opacity="1.00" d=" M 135.30 101.41 C 215.19 101.29 295.09 101.39 374.99 101.36 C 380.38 101.03 385.82 103.95 388.11 108.92 C 390.10 112.28 389.55 116.28 389.60 120.00 C 389.58 212.35 389.61 304.71 389.59 397.06 C 389.54 403.60 383.92 410.34 377.04 409.93 C 296.01 409.91 214.98 409.95 133.96 409.91 C 129.32 410.03 125.44 406.55 123.40 402.65 C 121.81 400.05 122.46 396.87 122.32 393.99 C 122.35 302.66 122.33 211.32 122.33 119.98 C 122.37 117.11 122.16 114.23 122.50 111.37 C 124.06 105.77 129.38 101.35 135.30 101.41 Z" />
<path fill="#04aeda" opacity="1.00" d=" M 140.39 113.42 C 147.24 110.01 156.21 115.34 156.75 122.89 C 157.85 129.63 151.80 136.40 144.96 135.90 C 138.61 136.19 133.06 130.23 133.33 123.98 C 133.29 119.44 136.38 115.32 140.39 113.42 Z" />
<path fill="#04aeda" opacity="1.00" d=" M 361.48 113.61 C 367.66 110.28 375.97 114.16 377.83 120.82 C 380.31 127.75 374.41 135.98 367.07 135.89 C 360.46 136.55 354.56 130.44 354.67 123.98 C 354.90 119.65 357.51 115.45 361.48 113.61 Z" />
<path fill="#04aeda" opacity="1.00" d=" M 246.89 168.65 C 257.64 168.04 268.56 168.25 278.95 171.37 C 295.04 175.70 309.59 184.92 320.88 197.12 C 303.93 210.67 287.08 224.36 270.13 237.92 C 262.30 231.61 250.56 231.46 242.37 237.16 C 226.67 222.28 210.87 207.49 195.01 192.78 C 209.01 179.28 227.55 170.67 246.89 168.65 Z" />
<path fill="#04aeda" opacity="1.00" d=" M 275.47 243.99 C 292.33 230.50 309.17 216.96 325.95 203.36 C 333.60 213.72 338.98 225.69 341.66 238.29 C 320.46 242.44 299.30 246.81 278.07 250.81 C 277.50 248.43 276.60 246.15 275.47 243.99 Z" />
<path fill="#04aeda" opacity="1.00" d=" M 177.27 216.92 C 196.15 227.82 214.70 239.28 233.53 250.28 C 233.29 252.20 233.04 254.12 232.78 256.04 C 211.60 260.18 190.40 264.26 169.26 268.62 C 168.21 264.17 168.47 259.60 168.45 255.07 C 168.02 241.86 171.69 228.80 177.27 216.92 Z" />
<path fill="#04aeda" opacity="1.00" d=" M 278.57 258.96 C 300.14 254.95 321.58 250.16 343.20 246.46 C 344.87 264.05 341.04 282.02 332.79 297.61 C 314.22 286.50 295.78 275.15 277.23 264.00 C 277.68 262.32 278.12 260.64 278.57 258.96 Z" />
<path fill="#04aeda" opacity="1.00" d=" M 231.83 264.37 C 232.98 264.12 234.12 264.20 235.24 264.63 C 218.17 278.42 201.03 292.14 183.95 305.94 C 177.75 297.03 173.47 286.96 170.54 276.54 C 190.95 272.38 211.42 268.52 231.83 264.37 Z" />
<path fill="#04aeda" opacity="1.00" d=" M 188.90 312.23 C 205.72 298.89 222.43 285.40 239.09 271.87 C 246.22 278.46 257.01 280.76 265.90 276.42 C 281.95 291.35 298.05 306.21 314.20 321.03 C 299.12 334.66 279.21 342.43 258.99 343.53 C 232.54 344.31 205.85 332.68 188.90 312.23 Z" />
<path fill="#04aeda" opacity="1.00" d=" M 141.53 375.76 C 148.73 373.21 157.21 379.31 156.81 386.99 C 157.18 393.76 150.51 399.64 143.85 398.70 C 136.93 398.16 131.68 390.60 133.71 383.91 C 134.79 380.13 137.84 377.04 141.53 375.76 Z" />
<path fill="#04aeda" opacity="1.00" d=" M 363.43 375.62 C 369.52 373.81 376.33 377.83 377.92 383.92 C 380.16 390.84 374.25 398.77 367.01 398.74 C 360.13 399.32 354.06 392.67 354.73 385.93 C 355.31 381.19 358.77 376.89 363.43 375.62 Z" />
</svg>
