<?xml version="1.0" encoding="UTF-8" ?>
<!DOCTYPE svg PUBLIC "-//W3C//DTD SVG 1.1//EN" "http://www.w3.org/Graphics/SVG/1.1/DTD/svg11.dtd">
<svg width="512pt" height="512pt" viewBox="0 0 512 512" version="1.1" xmlns="http://www.w3.org/2000/svg">
<path fill="#04aeda" opacity="1.00" d=" M 0.00 0.00 L 512.00 0.00 L 512.00 512.00 L 0.00 512.00 L 0.00 0.00 Z" />
<path fill="#ffffff" opacity="1.00" d=" M 135.33 101.41 C 215.53 101.31 295.74 101.35 375.94 101.39 C 383.28 101.08 389.71 107.76 389.60 114.98 C 389.58 209.00 389.61 303.02 389.59 397.04 C 389.55 403.57 383.95 410.33 377.06 409.93 C 297.71 409.93 218.36 409.91 139.00 409.93 C 135.51 409.82 131.65 410.51 128.59 408.38 C 125.20 406.11 122.17 402.32 122.33 398.05 C 122.32 303.69 122.36 209.33 122.32 114.97 C 121.62 107.82 128.28 101.30 135.33 101.41 Z" />
<path fill="#04aeda" opacity="1.00" d=" M 140.28 113.47 C 147.13 109.96 156.21 115.29 156.75 122.88 C 157.86 129.64 151.78 136.42 144.93 135.90 C 138.59 136.17 133.07 130.22 133.33 123.99 C 133.28 119.49 136.33 115.39 140.28 113.47 Z" />
<path fill="#04aeda" opacity="1.00" d=" M 361.44 113.63 C 367.64 110.26 376.02 114.17 377.84 120.87 C 380.29 127.80 374.38 136.00 367.05 135.89 C 360.42 136.54 354.51 130.37 354.67 123.89 C 354.95 119.61 357.51 115.46 361.44 113.63 Z" />
<path fill="#04aeda" opacity="1.00" d=" M 181.08 195.81 C 198.43 195.80 215.79 195.79 233.14 195.82 C 233.14 199.46 233.14 203.11 233.14 206.75 C 219.83 206.85 206.53 206.76 193.22 206.80 C 193.18 218.06 193.26 229.32 193.17 240.58 C 205.48 240.63 217.80 240.58 230.11 240.61 C 230.11 244.22 230.11 247.84 230.11 251.46 C 217.80 251.46 205.50 251.45 193.20 251.46 C 193.24 263.38 193.16 275.31 193.25 287.23 C 207.29 287.21 221.33 287.23 235.37 287.22 C 235.39 290.83 235.39 294.44 235.36 298.05 C 217.29 297.94 199.21 298.05 181.14 298.04 C 181.05 263.96 181.17 229.89 181.08 195.81 Z" />
<path fill="#04aeda" opacity="1.00" d=" M 271.43 195.81 C 275.12 195.81 278.83 195.84 282.53 195.71 C 298.82 235.41 314.48 275.39 330.45 315.23 C 326.82 315.23 323.20 315.22 319.58 315.26 C 303.38 275.50 287.59 235.58 271.43 195.81 Z" />
<path fill="#04aeda" opacity="1.00" d=" M 254.18 224.29 C 258.97 221.60 266.14 225.23 265.91 230.96 C 266.77 237.29 258.76 241.79 253.62 238.27 C 248.42 235.30 248.68 226.78 254.18 224.29 Z" />
<path fill="#04aeda" opacity="1.00" d=" M 254.27 284.29 C 259.48 281.29 266.77 286.07 265.91 292.07 C 266.13 298.67 256.96 302.17 252.46 297.55 C 248.24 294.02 249.36 286.61 254.27 284.29 Z" />
<path fill="#04aeda" opacity="1.00" d=" M 141.55 375.75 C 148.38 373.38 156.48 378.70 156.77 385.95 C 157.70 392.63 151.71 399.03 145.03 398.75 C 138.79 398.92 133.15 393.20 133.33 386.97 C 133.20 381.94 136.89 377.34 141.55 375.75 Z" />
<path fill="#04aeda" opacity="1.00" d=" M 362.59 375.88 C 368.82 373.50 376.25 377.49 377.91 383.89 C 380.18 390.82 374.25 398.78 366.99 398.75 C 360.10 399.31 354.06 392.64 354.73 385.90 C 355.31 381.45 358.35 377.42 362.59 375.88 Z" />
</svg>
