<?xml version="1.0" encoding="UTF-8" ?>
<!DOCTYPE svg PUBLIC "-//W3C//DTD SVG 1.1//EN" "http://www.w3.org/Graphics/SVG/1.1/DTD/svg11.dtd">
<svg width="512pt" height="512pt" viewBox="0 0 512 512" version="1.1" xmlns="http://www.w3.org/2000/svg">
<path fill="#04aeda" opacity="1.00" d=" M 0.00 0.00 L 512.00 0.00 L 512.00 512.00 L 0.00 512.00 L 0.00 0.00 Z" />
<path fill="#ffffff" opacity="1.00" d=" M 135.34 101.41 C 214.58 101.28 293.83 101.41 373.07 101.34 C 376.15 101.34 379.39 101.36 382.18 102.82 C 386.59 105.11 389.63 109.98 389.61 114.96 C 389.58 209.00 389.61 303.03 389.59 397.06 C 389.53 403.61 383.91 410.35 377.02 409.93 C 296.34 409.93 215.66 409.91 134.98 409.93 C 128.12 410.47 121.79 403.77 122.31 397.01 C 122.35 302.67 122.34 208.33 122.32 113.99 C 122.17 107.19 128.65 101.32 135.34 101.41 Z" />
<path fill="#04aeda" opacity="1.00" d=" M 140.39 113.42 C 147.62 109.80 157.06 115.97 156.81 123.99 C 157.28 130.41 151.34 136.38 144.91 135.90 C 138.60 136.16 133.09 130.25 133.33 124.04 C 133.26 119.47 136.36 115.33 140.39 113.42 Z" />
<path fill="#04aeda" opacity="1.00" d=" M 361.45 113.62 C 367.61 110.29 375.92 114.12 377.81 120.75 C 380.34 127.72 374.41 136.02 367.02 135.89 C 360.42 136.52 354.55 130.40 354.67 123.95 C 354.92 119.64 357.50 115.47 361.45 113.62 Z" />
<path fill="#04aeda" opacity="1.00" d=" M 182.49 195.81 C 199.82 195.80 217.14 195.80 234.47 195.81 C 234.47 199.48 234.45 203.15 234.45 206.82 C 221.15 206.76 207.86 206.80 194.56 206.79 C 194.55 218.54 194.54 230.30 194.57 242.05 C 206.87 241.94 219.17 242.00 231.48 241.96 C 231.51 245.57 231.51 249.19 231.48 252.80 C 219.18 252.74 206.88 252.80 194.58 252.77 C 194.51 267.85 194.58 282.94 194.54 298.02 C 190.53 298.05 186.53 298.06 182.52 298.04 C 182.47 263.96 182.53 229.88 182.49 195.81 Z" />
<path fill="#04aeda" opacity="1.00" d=" M 270.05 195.81 C 273.80 195.81 277.55 195.80 281.30 195.78 C 297.28 235.56 313.20 275.37 329.02 315.21 C 325.36 315.25 321.69 315.23 318.04 315.20 C 302.10 275.38 286.08 235.60 270.05 195.81 Z" />
<path fill="#04aeda" opacity="1.00" d=" M 252.41 224.50 C 257.56 221.14 265.53 225.74 264.57 232.03 C 264.48 238.29 255.98 241.84 251.39 237.62 C 247.08 234.37 247.62 227.04 252.41 224.50 Z" />
<path fill="#04aeda" opacity="1.00" d=" M 253.25 284.10 C 258.45 281.49 265.29 286.27 264.58 292.07 C 264.67 298.49 255.88 302.16 251.30 297.74 C 246.67 294.19 247.98 286.31 253.25 284.10 Z" />
<path fill="#04aeda" opacity="1.00" d=" M 141.56 375.75 C 148.38 373.38 156.47 378.70 156.77 385.95 C 157.70 392.64 151.68 399.06 144.99 398.75 C 138.79 398.89 133.19 393.23 133.33 387.04 C 133.17 381.98 136.86 377.34 141.56 375.75 Z" />
<path fill="#04aeda" opacity="1.00" d=" M 363.39 375.63 C 369.50 373.79 376.35 377.83 377.93 383.95 C 380.16 390.91 374.16 398.85 366.89 398.75 C 360.05 399.24 354.06 392.62 354.73 385.93 C 355.31 381.20 358.76 376.91 363.39 375.63 Z" />
</svg>
