<?xml version="1.0" encoding="UTF-8" ?>
<!DOCTYPE svg PUBLIC "-//W3C//DTD SVG 1.1//EN" "http://www.w3.org/Graphics/SVG/1.1/DTD/svg11.dtd">
<svg width="512pt" height="512pt" viewBox="0 0 512 512" version="1.1" xmlns="http://www.w3.org/2000/svg">
<path fill="#04aedb" opacity="1.00" d=" M 0.00 0.00 L 512.00 0.00 L 512.00 512.00 L 0.00 512.00 L 0.00 0.00 Z" />
<path fill="#ffffff" opacity="1.00" d=" M 135.32 101.41 C 215.52 101.31 295.73 101.35 375.93 101.39 C 383.27 101.08 389.72 107.75 389.60 114.98 C 389.59 209.00 389.61 303.01 389.59 397.03 C 389.55 403.59 383.92 410.36 377.01 409.93 C 296.34 409.93 215.67 409.91 135.00 409.93 C 128.13 410.48 121.76 403.76 122.32 396.98 C 122.35 302.65 122.33 208.32 122.33 113.99 C 122.15 107.20 128.65 101.33 135.32 101.41 Z" />
<path fill="#04aedb" opacity="1.00" d=" M 140.35 113.43 C 145.29 111.07 151.60 112.93 154.66 117.41 C 157.96 121.84 157.48 128.69 153.45 132.53 C 148.76 137.54 139.65 136.93 135.70 131.29 C 131.02 125.55 133.64 116.28 140.35 113.43 Z" />
<path fill="#04aedb" opacity="1.00" d=" M 361.41 113.65 C 367.60 110.24 376.03 114.16 377.84 120.88 C 380.05 127.20 375.41 134.51 368.96 135.74 C 361.87 137.58 354.49 131.17 354.67 124.00 C 354.90 119.69 357.46 115.51 361.41 113.65 Z" />
<path fill="#04aedb" opacity="1.00" d=" M 168.74 168.59 C 226.62 168.31 284.50 168.67 342.37 168.41 C 342.59 169.58 342.72 170.75 342.78 171.93 C 342.74 219.95 342.77 267.97 342.76 315.98 C 342.64 325.07 343.00 334.16 342.58 343.24 C 329.26 343.13 315.93 343.08 302.62 343.26 C 302.25 323.20 302.59 303.12 302.45 283.05 C 302.70 280.05 299.97 277.37 296.98 277.62 C 269.33 277.74 241.67 277.66 214.02 277.66 C 211.40 277.66 208.98 280.23 209.17 282.88 C 209.11 302.97 209.18 323.07 209.13 343.16 C 200.77 343.14 192.40 343.22 184.03 343.12 C 179.09 337.95 173.82 333.09 168.95 327.86 C 168.43 325.94 168.76 323.90 168.69 321.94 C 168.75 270.82 168.65 219.71 168.74 168.59 Z" />
<path fill="#ffffff" opacity="1.00" d=" M 324.37 181.42 C 328.43 181.41 332.48 181.40 336.53 181.44 C 336.55 185.52 336.55 189.59 336.52 193.68 C 332.47 193.69 328.43 193.69 324.38 193.66 C 324.37 189.58 324.37 185.50 324.37 181.42 Z" />
<path fill="#ffffff" opacity="1.00" d=" M 190.48 245.06 C 190.51 223.96 190.38 202.86 190.55 181.76 C 233.61 181.89 276.67 181.76 319.74 181.83 C 319.68 203.24 319.73 224.65 319.71 246.06 C 319.95 249.64 316.60 253.01 313.00 252.68 C 274.31 252.67 235.62 252.70 196.93 252.66 C 192.97 252.87 190.18 248.74 190.48 245.06 Z" />
<path fill="#04aedb" opacity="1.00" d=" M 223.65 284.74 C 232.49 284.75 241.33 284.68 250.17 284.78 C 250.18 300.81 250.16 316.83 250.19 332.86 C 241.35 333.31 232.50 332.95 223.66 333.07 C 223.63 316.96 223.65 300.85 223.65 284.74 Z" />
<path fill="#04aedb" opacity="1.00" d=" M 143.19 375.37 C 152.10 373.50 159.91 383.84 155.81 391.92 C 152.61 399.78 140.72 401.17 135.83 394.20 C 130.13 387.68 134.76 376.48 143.19 375.37 Z" />
<path fill="#04aedb" opacity="1.00" d=" M 363.44 375.61 C 369.53 373.81 376.33 377.83 377.92 383.92 C 380.30 391.21 373.61 399.45 366.00 398.73 C 358.81 398.74 352.90 390.75 355.19 383.91 C 356.26 379.96 359.51 376.72 363.44 375.61 Z" />
</svg>
