<?xml version="1.0" encoding="UTF-8" ?>
<!DOCTYPE svg PUBLIC "-//W3C//DTD SVG 1.1//EN" "http://www.w3.org/Graphics/SVG/1.1/DTD/svg11.dtd">
<svg width="512pt" height="512pt" viewBox="0 0 512 512" version="1.1" xmlns="http://www.w3.org/2000/svg">
<path fill="#00a8ec" opacity="1.00" d=" M 0.00 0.00 L 512.00 0.00 L 512.00 512.00 L 0.00 512.00 L 0.00 0.00 Z" />
<path fill="#ffffff" opacity="1.00" d=" M 263.43 119.63 C 286.81 120.66 309.89 127.77 329.70 140.26 C 367.10 163.15 392.30 205.10 394.05 249.01 C 394.99 256.32 394.26 263.66 393.62 270.95 C 390.76 299.23 378.76 326.56 359.65 347.63 C 341.61 367.98 317.40 382.94 290.92 389.34 C 268.78 395.12 245.17 395.01 223.00 389.39 C 194.78 382.28 169.08 365.82 150.71 343.26 C 127.30 315.18 116.34 277.27 120.62 241.03 C 123.57 213.77 135.21 187.68 153.11 166.97 C 173.45 143.44 201.99 127.00 232.67 121.65 C 242.81 119.89 253.15 119.15 263.43 119.63 Z" />
<path fill="#00a8ec" opacity="1.00" d=" M 225.04 133.33 C 236.72 129.65 248.97 128.65 261.09 127.36 C 262.73 127.19 264.37 127.46 265.96 127.84 C 273.66 129.65 281.36 131.41 289.10 133.04 C 285.98 137.24 282.05 140.74 278.64 144.70 C 267.77 145.75 256.81 145.85 245.90 146.58 C 238.98 142.10 231.99 137.74 225.04 133.33 Z" />
<path fill="#00a8ec" opacity="1.00" d=" M 166.91 164.86 C 181.62 160.88 196.36 157.01 211.04 152.92 C 213.03 152.23 214.90 153.57 216.74 154.12 C 221.54 155.77 226.24 157.66 231.04 159.31 C 234.32 159.01 237.37 156.95 240.70 157.29 C 247.51 162.79 253.86 168.88 260.81 174.21 C 266.08 177.61 268.91 183.41 272.73 188.18 C 275.88 192.91 279.99 196.85 283.67 201.15 C 278.82 207.75 273.61 214.08 268.74 220.67 C 267.12 223.96 266.60 227.68 265.40 231.14 C 262.43 239.82 262.02 249.08 260.58 258.08 C 261.54 262.18 263.64 265.93 264.71 270.00 C 264.26 270.54 263.36 271.60 262.91 272.14 C 259.32 267.16 257.16 261.10 253.24 256.46 C 248.51 257.23 243.70 257.47 239.03 258.51 C 235.78 260.43 232.81 262.87 230.38 265.78 C 231.20 269.85 231.35 274.02 232.23 278.08 C 233.51 278.67 234.74 279.35 235.94 280.08 C 244.47 280.13 252.65 282.86 260.99 284.28 C 269.30 285.09 277.85 283.19 285.98 285.54 C 291.29 286.83 296.62 288.01 301.90 289.39 C 303.58 289.71 304.62 291.16 305.79 292.27 C 310.30 297.07 315.18 301.50 319.69 306.29 C 320.03 312.53 319.85 318.81 319.79 325.06 C 318.26 332.13 315.59 338.92 313.84 345.95 C 313.33 352.54 313.90 359.17 313.63 365.77 C 311.51 368.48 308.68 370.69 305.98 372.84 C 301.40 374.74 296.53 375.90 291.87 377.60 C 285.12 368.15 278.66 358.49 271.95 349.01 C 270.26 345.25 269.94 341.03 268.91 337.06 C 268.22 333.02 266.74 329.13 266.37 325.06 C 267.96 314.30 272.38 303.84 271.39 292.82 C 260.26 292.83 249.12 292.83 237.99 292.82 C 234.57 292.72 230.91 293.97 227.73 292.19 C 222.61 289.68 217.36 287.43 212.30 284.81 C 208.89 282.22 206.31 278.71 203.07 275.92 C 197.55 271.38 196.55 263.40 191.33 258.71 C 191.71 264.06 193.81 269.13 193.88 274.51 C 192.14 271.99 190.04 269.54 189.37 266.47 C 187.77 259.75 186.19 253.03 184.32 246.38 C 182.21 240.85 179.60 235.51 177.56 229.94 C 178.47 219.64 182.07 209.88 184.48 199.91 C 182.96 196.05 181.47 192.15 179.58 188.46 C 175.63 186.37 171.40 184.85 167.19 183.38 C 165.18 185.15 163.09 186.83 160.99 188.48 C 159.04 185.35 157.11 182.21 155.20 179.06 C 159.14 174.35 162.89 169.49 166.91 164.86 Z" />
<path fill="#00a8ec" opacity="1.00" d=" M 334.68 168.81 C 336.24 166.06 337.99 163.43 339.82 160.85 C 344.49 165.26 349.72 169.08 354.25 173.63 C 361.12 183.98 368.01 194.32 374.82 204.71 C 367.47 201.55 360.56 197.43 353.14 194.42 C 350.08 196.64 347.01 198.88 343.75 200.79 C 340.76 201.02 338.09 198.87 335.29 198.03 C 335.58 192.34 337.32 186.70 336.31 180.99 C 335.62 176.95 335.65 172.80 334.68 168.81 Z" />
<path fill="#00a8ec" opacity="1.00" d=" M 350.39 212.30 C 354.33 212.07 358.13 214.00 362.01 214.72 C 368.76 216.05 374.83 219.35 381.15 221.93 C 383.41 222.47 383.24 225.09 383.65 226.88 C 384.38 231.61 385.62 236.24 386.30 240.97 C 386.69 252.31 386.22 263.67 385.35 274.97 C 382.98 282.16 380.84 289.43 378.23 296.54 C 374.69 290.80 371.24 285.00 367.45 279.44 C 361.95 275.80 355.45 273.83 349.95 270.17 C 346.71 267.03 343.30 264.04 340.26 260.71 C 336.49 255.65 333.31 250.17 329.63 245.05 C 329.72 241.01 329.71 236.97 329.60 232.93 C 336.55 226.09 343.31 219.02 350.39 212.30 Z" />
</svg>
