<?xml version="1.0" encoding="UTF-8" ?>
<!DOCTYPE svg PUBLIC "-//W3C//DTD SVG 1.1//EN" "http://www.w3.org/Graphics/SVG/1.1/DTD/svg11.dtd">
<svg width="512pt" height="512pt" viewBox="0 0 512 512" version="1.1" xmlns="http://www.w3.org/2000/svg">
<path fill="#04aeda" opacity="1.00" d=" M 0.00 0.00 L 512.00 0.00 L 512.00 512.00 L 0.00 512.00 L 0.00 0.00 Z" />
<path fill="#ffffff" opacity="1.00" d=" M 156.63 153.66 C 179.76 131.17 210.71 116.71 242.93 114.21 C 251.30 113.96 259.68 113.98 268.04 114.19 C 303.72 116.83 337.79 134.22 361.61 160.80 C 335.37 181.86 309.16 202.96 282.98 224.09 C 281.25 225.35 279.12 228.20 276.97 225.99 C 264.55 216.72 246.49 217.04 234.02 226.05 C 208.19 201.96 182.54 177.67 156.63 153.66 Z" />
<path fill="#ffffff" opacity="1.00" d=" M 286.97 236.66 C 314.24 214.32 341.96 192.54 369.22 170.20 C 381.96 187.07 390.93 206.81 394.98 227.57 C 373.98 232.05 352.84 235.84 331.81 240.20 C 318.37 242.60 305.06 245.69 291.61 248.00 C 290.52 244.05 289.00 240.22 286.97 236.66 Z" />
<path fill="#ffffff" opacity="1.00" d=" M 114.06 254.96 C 113.38 233.19 118.76 211.32 128.71 192.00 C 158.50 210.07 188.55 227.72 218.42 245.66 C 219.38 246.02 219.82 246.69 219.74 247.66 C 219.61 250.59 219.16 253.49 218.81 256.40 C 184.12 262.86 149.60 270.19 114.92 276.67 C 114.10 269.46 113.94 262.21 114.06 254.96 Z" />
<path fill="#ffffff" opacity="1.00" d=" M 381.61 242.88 C 386.77 241.94 391.88 240.63 397.12 240.14 C 400.10 268.88 394.33 298.64 380.30 323.94 C 350.22 305.58 320.02 287.42 289.93 269.08 C 290.81 266.34 291.52 263.54 291.92 260.68 C 321.78 254.58 351.73 248.90 381.61 242.88 Z" />
<path fill="#ffffff" opacity="1.00" d=" M 117.35 288.84 C 152.02 282.00 186.69 275.20 221.34 268.26 C 221.52 268.91 221.88 270.23 222.06 270.89 C 194.42 293.01 166.87 315.27 139.26 337.44 C 129.10 322.73 121.57 306.22 117.35 288.84 Z" />
<path fill="#ffffff" opacity="1.00" d=" M 146.83 347.06 C 174.25 325.06 201.58 302.95 229.02 280.98 C 234.50 286.21 241.25 290.28 248.78 291.65 C 256.60 293.36 264.83 291.89 272.00 288.49 C 298.22 312.79 324.49 337.03 350.77 361.26 C 329.66 380.55 302.45 393.06 274.08 396.60 C 250.94 400.03 227.04 396.69 205.18 388.62 C 182.64 380.02 162.23 365.65 146.83 347.06 Z" />
<path fill="#ffffff" opacity="1.00" d=" M 92.46 412.39 C 93.94 412.39 95.41 412.39 96.89 412.40 C 96.82 417.78 96.85 423.16 96.84 428.54 C 103.19 428.57 109.53 428.57 115.88 428.54 C 115.80 423.16 115.84 417.79 115.83 412.42 C 117.34 412.40 118.86 412.39 120.38 412.39 C 120.35 424.57 120.37 436.76 120.37 448.95 C 118.85 448.93 117.34 448.91 115.83 448.89 C 115.84 443.53 115.81 438.18 115.86 432.82 C 109.52 432.81 103.18 432.81 96.85 432.83 C 96.85 438.19 96.84 443.57 96.85 448.94 C 95.39 448.93 93.94 448.93 92.48 448.93 C 92.48 436.75 92.51 424.57 92.46 412.39 Z" />
<path fill="#ffffff" opacity="1.00" d=" M 129.75 412.44 C 138.41 412.62 148.69 410.66 155.50 417.44 C 162.44 425.74 160.96 440.56 151.26 446.19 C 144.77 450.09 136.94 448.76 129.75 448.88 C 129.77 436.73 129.78 424.58 129.75 412.44 Z" />
<path fill="#ffffff" opacity="1.00" d=" M 181.65 412.41 C 190.16 412.66 200.07 410.72 206.96 417.04 C 214.60 425.38 212.87 441.17 202.47 446.54 C 196.10 450.05 188.61 448.70 181.66 448.92 C 181.66 436.75 181.69 424.58 181.65 412.41 Z" />
<path fill="#ffffff" opacity="1.00" d=" M 214.60 412.39 C 216.32 412.39 218.04 412.41 219.77 412.43 C 223.39 423.09 227.27 433.66 230.94 444.30 C 231.73 439.26 233.99 434.64 235.60 429.84 C 237.59 423.98 239.85 418.23 241.87 412.38 C 243.53 412.40 245.18 412.42 246.83 412.46 C 242.03 424.54 237.66 436.79 233.03 448.95 C 231.39 448.93 229.75 448.92 228.11 448.91 C 223.54 436.76 219.30 424.49 214.60 412.39 Z" />
<path fill="#ffffff" opacity="1.00" d=" M 252.30 412.41 C 260.81 412.66 270.95 410.68 277.69 417.29 C 285.09 425.55 283.37 440.85 273.35 446.35 C 266.96 450.07 259.35 448.70 252.33 448.93 C 252.32 436.75 252.37 424.58 252.30 412.41 Z" />
<path fill="#ffffff" opacity="1.00" d=" M 310.15 412.41 C 315.43 412.63 320.86 411.75 326.04 412.99 C 331.91 414.74 334.27 422.24 331.17 427.33 C 329.74 429.84 327.08 431.19 324.48 432.16 C 330.17 436.34 332.53 443.46 336.69 448.98 C 334.87 448.93 333.06 448.90 331.24 448.85 C 328.44 444.57 326.28 439.83 322.98 435.89 C 320.93 433.37 317.43 433.63 314.51 433.60 C 314.55 438.71 314.53 443.82 314.54 448.93 C 313.09 448.93 311.63 448.93 310.19 448.94 C 310.18 436.76 310.24 424.58 310.15 412.41 Z" />
<path fill="#ffffff" opacity="1.00" d=" M 350.36 412.51 C 356.76 410.43 364.67 411.28 369.35 416.52 C 375.12 423.06 375.37 433.17 371.90 440.87 C 367.15 451.10 351.63 452.97 344.06 444.94 C 340.25 440.98 338.76 435.35 339.18 429.95 C 338.93 422.63 343.26 414.97 350.36 412.51 Z" />
<path fill="#ffffff" opacity="1.00" d=" M 381.35 412.40 C 383.35 412.39 385.35 412.38 387.36 412.38 C 391.53 422.33 396.47 431.95 400.19 442.07 C 404.62 432.15 409.21 422.30 413.65 412.39 C 415.48 412.39 417.32 412.38 419.16 412.39 C 419.16 424.57 419.16 436.75 419.16 448.93 C 417.68 448.93 416.20 448.93 414.73 448.94 C 414.92 438.66 414.28 428.34 415.19 418.09 C 410.85 428.45 406.06 438.62 401.52 448.89 C 400.93 448.88 399.73 448.84 399.13 448.83 C 395.18 440.08 391.27 431.32 387.30 422.58 C 386.53 420.88 386.00 419.08 385.50 417.29 C 386.04 427.83 385.64 438.39 385.76 448.95 C 384.29 448.94 382.83 448.93 381.37 448.93 C 381.37 436.75 381.41 424.58 381.35 412.40 Z" />
<path fill="#04aeda" opacity="1.00" d=" M 352.36 416.60 C 356.19 415.25 360.70 415.65 364.08 417.96 C 367.33 420.24 368.94 424.20 369.31 428.04 C 369.74 432.57 369.26 437.57 366.30 441.24 C 361.64 447.05 351.49 447.13 347.01 441.04 C 341.27 433.71 342.87 420.01 352.36 416.60 Z" />
<path fill="#04aeda" opacity="1.00" d=" M 134.30 416.69 C 140.72 416.57 148.91 416.01 152.95 422.11 C 156.67 428.57 155.69 438.75 148.65 442.60 C 144.31 445.14 139.15 444.78 134.32 444.71 C 134.34 435.37 134.38 426.03 134.30 416.69 Z" />
<path fill="#04aeda" opacity="1.00" d=" M 186.16 416.69 C 192.40 416.60 200.16 416.00 204.42 421.55 C 208.86 428.15 207.61 439.24 199.91 442.91 C 195.69 445.15 190.79 444.75 186.19 444.71 C 186.21 435.37 186.26 426.03 186.16 416.69 Z" />
<path fill="#04aeda" opacity="1.00" d=" M 256.69 416.68 C 263.01 416.60 270.95 416.03 275.15 421.79 C 279.11 428.15 278.23 438.29 271.38 442.38 C 267.02 445.19 261.65 444.75 256.70 444.73 C 256.70 435.38 256.72 426.03 256.69 416.68 Z" />
<path fill="#04aeda" opacity="1.00" d=" M 314.51 416.67 C 318.03 416.81 321.86 416.05 325.12 417.77 C 328.88 419.79 328.51 425.98 324.97 428.05 C 321.87 430.09 317.99 429.24 314.51 429.39 C 314.54 425.15 314.55 420.91 314.51 416.67 Z" />
<path fill="#ffffff" opacity="1.00" d=" M 287.61 432.83 C 292.36 432.81 297.11 432.81 301.86 432.83 C 301.86 433.66 301.86 435.34 301.86 436.18 C 297.11 436.19 292.36 436.19 287.61 436.17 C 287.61 435.34 287.61 433.66 287.61 432.83 Z" />
</svg>
