<?xml version="1.0" encoding="UTF-8" ?>
<!DOCTYPE svg PUBLIC "-//W3C//DTD SVG 1.1//EN" "http://www.w3.org/Graphics/SVG/1.1/DTD/svg11.dtd">
<svg width="512pt" height="512pt" viewBox="0 0 512 512" version="1.1" xmlns="http://www.w3.org/2000/svg">
<path fill="#04aeda" opacity="1.00" d=" M 0.00 0.00 L 512.00 0.00 L 512.00 512.00 L 0.00 512.00 L 0.00 0.00 Z" />
<path fill="#ffffff" opacity="1.00" d=" M 135.36 101.41 C 215.53 101.31 295.71 101.35 375.87 101.39 C 383.21 101.06 389.69 107.70 389.60 114.94 C 389.59 208.99 389.61 303.04 389.59 397.09 C 389.52 403.62 383.92 410.34 377.05 409.93 C 295.99 409.91 214.93 409.95 133.88 409.90 C 129.24 409.99 125.39 406.48 123.36 402.58 C 121.81 399.98 122.46 396.82 122.32 393.95 C 122.34 300.62 122.34 207.28 122.33 113.95 C 122.18 107.16 128.69 101.30 135.36 101.41 Z" />
<path fill="#04aeda" opacity="1.00" d=" M 140.28 113.47 C 147.13 109.96 156.20 115.29 156.75 122.87 C 157.86 129.61 151.82 136.39 144.98 135.90 C 138.66 136.20 133.12 130.30 133.33 124.08 C 133.25 119.55 136.29 115.40 140.28 113.47 Z" />
<path fill="#04aeda" opacity="1.00" d=" M 361.43 113.63 C 367.63 110.25 376.03 114.16 377.85 120.88 C 380.29 127.83 374.33 136.04 366.98 135.89 C 360.38 136.50 354.53 130.36 354.67 123.91 C 354.94 119.63 357.50 115.48 361.43 113.63 Z" />
<path fill="#04aeda" opacity="1.00" d=" M 193.53 195.81 C 204.21 195.80 214.88 195.80 225.56 195.81 C 225.53 199.30 225.54 202.79 225.56 206.29 C 222.22 206.28 218.88 206.30 215.54 206.31 C 215.56 233.41 215.56 260.52 215.54 287.62 C 218.87 287.63 222.20 287.64 225.54 287.63 C 225.55 291.10 225.55 294.58 225.52 298.06 C 214.87 297.96 204.21 297.99 193.56 298.04 C 193.53 294.57 193.53 291.09 193.55 287.62 C 196.87 287.64 200.19 287.63 203.52 287.63 C 203.50 260.52 203.49 233.41 203.52 206.31 C 200.19 206.30 196.86 206.28 193.53 206.29 C 193.54 202.79 193.55 199.30 193.53 195.81 Z" />
<path fill="#04aeda" opacity="1.00" d=" M 258.89 195.82 C 262.64 195.79 266.39 195.80 270.14 195.81 C 286.06 235.60 302.00 275.39 317.84 315.22 C 314.19 315.24 310.54 315.23 306.89 315.22 C 290.87 275.43 274.88 235.62 258.89 195.82 Z" />
<path fill="#04aeda" opacity="1.00" d=" M 241.42 224.36 C 246.30 221.50 253.44 225.26 253.41 231.03 C 254.05 237.35 245.99 241.85 240.90 238.16 C 235.88 235.19 236.15 226.92 241.42 224.36 Z" />
<path fill="#04aeda" opacity="1.00" d=" M 241.39 284.45 C 246.59 281.14 254.04 285.95 253.41 292.01 C 253.38 298.13 245.52 301.92 240.68 298.24 C 235.83 295.12 236.28 287.08 241.39 284.45 Z" />
<path fill="#04aeda" opacity="1.00" d=" M 141.60 375.73 C 148.42 373.40 156.48 378.72 156.77 385.96 C 157.69 392.64 151.70 399.04 145.03 398.76 C 138.81 398.91 133.20 393.25 133.33 387.05 C 133.17 381.97 136.88 377.32 141.60 375.73 Z" />
<path fill="#04aeda" opacity="1.00" d=" M 363.43 375.62 C 369.52 373.81 376.31 377.82 377.91 383.89 C 380.17 390.80 374.28 398.74 367.05 398.74 C 360.15 399.34 354.05 392.67 354.73 385.91 C 355.32 381.17 358.78 376.88 363.43 375.62 Z" />
</svg>
