<?xml version="1.0" encoding="UTF-8" ?>
<!DOCTYPE svg PUBLIC "-//W3C//DTD SVG 1.1//EN" "http://www.w3.org/Graphics/SVG/1.1/DTD/svg11.dtd">
<svg width="512pt" height="512pt" viewBox="0 0 512 512" version="1.1" xmlns="http://www.w3.org/2000/svg">
<path fill="#6d6e71" opacity="1.00" d=" M 0.00 0.00 L 512.00 0.00 L 512.00 512.00 L 0.00 512.00 L 0.00 0.00 Z" />
<path fill="#ffffff" opacity="1.00" d=" M 148.22 104.35 C 219.48 104.12 290.75 104.31 362.02 104.25 C 366.90 103.90 371.74 106.74 373.84 111.16 C 375.84 115.16 375.29 119.75 375.35 124.07 C 375.33 214.05 375.36 304.04 375.33 394.02 C 375.47 400.19 370.68 407.19 364.01 406.88 C 345.35 406.93 326.69 406.79 308.03 406.97 C 286.38 406.53 264.71 407.35 243.07 406.86 C 220.38 406.96 197.69 406.80 175.01 406.89 C 165.42 407.30 155.82 407.15 146.24 406.73 C 140.23 405.42 136.57 398.85 136.84 392.98 C 136.87 301.31 136.82 209.63 136.86 117.96 C 136.67 111.54 141.59 104.85 148.22 104.35 Z" />
<path fill="#6d6e71" opacity="1.00" d=" M 255.12 115.44 C 256.38 114.10 258.90 116.03 257.46 117.45 C 256.22 118.83 253.53 116.83 255.12 115.44 Z" />
<path fill="#6d6e71" opacity="1.00" d=" M 160.12 129.14 C 224.21 129.11 288.31 129.12 352.40 129.14 C 352.37 213.57 352.38 298.01 352.39 382.45 C 288.30 382.44 224.21 382.53 160.11 382.40 C 160.07 298.00 160.14 213.56 160.12 129.14 Z" />
<path fill="#ffffff" opacity="1.00" d=" M 175.21 147.37 C 182.15 147.18 189.21 146.76 196.10 147.61 C 199.14 148.64 201.62 151.58 201.58 154.87 C 201.66 160.60 201.63 166.33 201.59 172.06 C 201.73 176.14 198.15 179.82 194.09 179.93 C 189.08 180.21 184.05 179.87 179.03 180.04 C 176.05 180.17 172.72 179.68 170.75 177.19 C 168.45 174.71 168.80 171.11 168.79 168.00 C 168.90 163.65 168.69 159.30 168.85 154.96 C 168.83 151.35 171.72 148.05 175.21 147.37 Z" />
<path fill="#ffffff" opacity="1.00" d=" M 221.38 147.42 C 227.23 146.88 233.13 147.31 239.01 147.18 C 243.10 146.80 247.39 149.75 247.85 153.95 C 248.28 158.28 247.82 162.63 248.02 166.97 C 247.99 170.57 248.61 174.90 245.64 177.61 C 243.47 180.10 239.96 180.06 236.93 180.06 C 232.24 179.99 227.54 180.14 222.85 179.91 C 218.72 179.94 215.10 176.13 215.22 172.03 C 215.14 166.33 215.13 160.63 215.23 154.94 C 215.22 151.40 217.96 148.19 221.38 147.42 Z" />
<path fill="#ffffff" opacity="1.00" d=" M 269.30 147.30 C 275.20 147.04 281.13 147.20 287.05 147.22 C 291.26 147.04 295.20 150.75 295.15 154.99 C 295.27 160.32 295.15 165.64 295.20 170.97 C 295.39 173.93 294.16 177.04 291.59 178.65 C 289.39 180.22 286.57 179.98 284.02 180.06 C 279.31 179.96 274.59 180.12 269.89 179.89 C 265.83 179.84 262.27 176.11 262.42 172.05 C 262.36 166.35 262.34 160.64 262.42 154.93 C 262.35 151.14 265.61 147.76 269.30 147.30 Z" />
<path fill="#ffffff" opacity="1.00" d=" M 314.30 147.39 C 318.85 146.89 323.44 147.33 328.00 147.17 C 331.55 147.20 335.73 146.66 338.43 149.52 C 341.86 152.76 340.60 157.82 340.82 162.00 C 340.65 166.12 341.22 170.32 340.46 174.39 C 339.45 177.50 336.42 179.97 333.09 179.91 C 327.36 180.00 321.63 180.16 315.91 179.96 C 311.70 180.05 307.93 176.26 308.05 172.06 C 307.90 166.35 307.87 160.63 308.06 154.93 C 308.03 151.34 310.85 148.12 314.30 147.39 Z" />
<path fill="#ffffff" opacity="1.00" d=" M 175.27 203.36 C 181.18 202.95 187.13 203.26 193.06 203.20 C 197.38 202.91 201.68 206.54 201.58 210.98 C 201.66 216.66 201.63 222.35 201.59 228.04 C 201.74 232.13 198.15 235.84 194.08 235.92 C 188.35 236.16 182.61 236.06 176.89 235.97 C 173.37 236.06 169.99 233.55 169.13 230.13 C 168.44 226.12 168.96 222.02 168.81 217.98 C 168.88 214.94 168.51 211.84 169.18 208.86 C 169.98 206.12 172.47 203.89 175.27 203.36 Z" />
<path fill="#ffffff" opacity="1.00" d=" M 221.37 203.42 C 227.22 202.87 233.13 203.31 239.01 203.18 C 243.10 202.80 247.39 205.74 247.84 209.94 C 248.29 214.29 247.83 218.67 248.02 223.03 C 248.00 226.64 248.59 230.99 245.58 233.67 C 243.14 236.36 239.25 236.04 235.96 236.03 C 231.29 235.81 226.60 236.30 221.94 235.84 C 218.17 235.41 215.12 231.80 215.22 228.02 C 215.15 222.34 215.13 216.65 215.23 210.97 C 215.20 207.42 217.95 204.19 221.37 203.42 Z" />
<path fill="#ffffff" opacity="1.00" d=" M 269.22 203.31 C 275.16 203.02 281.12 203.20 287.06 203.21 C 291.26 203.05 295.19 206.75 295.15 210.98 C 295.27 216.30 295.15 221.63 295.20 226.95 C 295.39 229.92 294.17 233.04 291.59 234.65 C 289.39 236.25 286.54 235.92 283.99 235.99 C 279.28 235.85 274.57 236.23 269.87 235.92 C 265.81 235.80 262.25 232.10 262.41 228.02 C 262.36 222.33 262.34 216.64 262.42 210.96 C 262.34 207.18 265.55 203.80 269.22 203.31 Z" />
<path fill="#ffffff" opacity="1.00" d=" M 314.28 203.40 C 318.84 202.89 323.45 203.33 328.03 203.17 C 331.58 203.19 335.78 202.67 338.47 205.56 C 342.24 209.39 340.39 215.22 340.81 220.01 C 340.47 224.50 342.10 229.95 338.54 233.54 C 336.16 236.27 332.27 236.06 328.98 236.04 C 324.31 235.85 319.63 236.15 314.97 235.86 C 311.12 235.55 307.95 231.89 308.05 228.05 C 307.98 222.34 307.90 216.62 308.06 210.91 C 308.04 207.34 310.85 204.14 314.28 203.40 Z" />
<path fill="#ffffff" opacity="1.00" d=" M 168.93 377.58 C 172.75 373.45 176.87 369.60 180.83 365.60 C 228.91 365.63 277.00 365.61 325.08 365.61 C 331.03 369.66 337.13 373.48 343.05 377.56 C 285.01 377.67 226.97 377.61 168.93 377.58 Z" />
<path fill="#6d6e71" opacity="1.00" d=" M 256.38 389.50 C 255.95 386.50 258.29 384.28 261.09 383.90 C 260.64 386.54 258.97 388.65 256.38 389.50 Z" />
<path fill="#6d6e71" opacity="1.00" d=" M 248.97 390.89 C 251.38 387.83 255.41 390.29 258.58 389.58 C 260.90 389.03 263.25 389.24 265.19 390.73 C 264.31 392.08 263.20 393.35 262.76 394.94 C 262.34 397.23 264.31 398.83 265.78 400.23 C 264.80 402.15 263.79 404.15 262.03 405.48 C 260.33 405.73 258.66 405.15 257.00 404.92 C 254.93 405.07 252.15 406.59 250.66 404.42 C 247.60 400.89 245.51 394.80 248.97 390.89 Z" />
</svg>
