<?xml version="1.0" encoding="UTF-8" ?>
<!DOCTYPE svg PUBLIC "-//W3C//DTD SVG 1.1//EN" "http://www.w3.org/Graphics/SVG/1.1/DTD/svg11.dtd">
<svg width="512pt" height="512pt" viewBox="0 0 512 512" version="1.1" xmlns="http://www.w3.org/2000/svg">
<path fill="#6d6e71" opacity="1.00" d=" M 0.00 0.00 L 512.00 0.00 L 512.00 512.00 L 0.00 512.00 L 0.00 0.00 Z" />
<path fill="#ffffff" opacity="1.00" d=" M 192.50 106.82 C 195.58 105.87 198.82 105.58 202.04 105.61 C 239.34 105.69 276.66 105.55 313.96 105.68 C 327.81 106.04 340.40 117.95 340.79 131.93 C 340.79 212.28 340.79 292.63 340.79 372.98 C 340.78 377.87 341.24 382.96 339.37 387.62 C 335.84 398.31 325.21 406.14 313.96 406.37 C 275.65 406.36 237.34 406.37 199.03 406.37 C 190.53 406.10 182.33 401.52 177.45 394.59 C 173.52 389.28 171.98 382.54 172.06 376.02 C 172.11 295.33 172.00 214.64 172.11 133.95 C 172.13 121.73 180.67 110.10 192.50 106.82 Z" />
<path fill="#6d6e71" opacity="1.00" d=" M 255.48 130.34 C 258.75 129.22 261.20 134.33 257.93 135.94 C 254.26 138.42 251.09 131.50 255.48 130.34 Z" />
<path fill="#6d6e71" opacity="1.00" d=" M 186.65 156.43 C 233.25 156.38 279.86 156.43 326.46 156.40 C 326.47 222.81 326.47 289.21 326.47 355.61 C 279.86 355.58 233.25 355.64 186.65 355.58 C 186.69 289.20 186.69 222.81 186.65 156.43 Z" />
<path fill="#ffffff" opacity="1.00" d=" M 200.47 170.71 C 203.65 168.88 207.51 169.83 211.00 169.63 C 214.73 169.72 218.48 169.39 222.20 169.80 C 225.87 170.56 228.25 174.29 228.16 177.91 C 228.22 182.95 228.25 188.00 228.14 193.04 C 228.11 196.81 225.08 200.81 221.08 200.73 C 215.39 200.82 209.68 200.79 203.99 200.74 C 199.99 200.89 196.63 197.06 196.84 193.14 C 196.79 187.75 196.76 182.34 196.86 176.95 C 196.78 174.37 198.35 172.05 200.47 170.71 Z" />
<path fill="#ffffff" opacity="1.00" d=" M 246.05 170.02 C 251.95 169.14 258.01 169.84 263.98 169.62 C 268.14 169.19 272.16 172.71 272.30 176.87 C 272.42 182.26 272.32 187.65 272.34 193.03 C 272.51 196.96 269.11 200.93 265.04 200.74 C 258.63 200.60 252.12 201.23 245.76 200.39 C 239.51 197.79 241.39 190.28 241.17 184.97 C 241.27 179.77 239.70 172.22 246.05 170.02 Z" />
<path fill="#ffffff" opacity="1.00" d=" M 291.06 170.01 C 295.29 169.16 299.68 169.83 303.98 169.62 C 307.70 169.75 312.28 168.76 315.06 171.93 C 318.66 175.31 317.13 180.64 317.42 185.00 C 317.07 189.63 318.80 195.31 314.87 198.85 C 312.57 201.30 308.99 200.71 305.97 200.79 C 301.09 200.60 296.18 201.09 291.32 200.54 C 288.63 199.65 286.12 197.03 286.24 194.04 C 286.19 188.03 286.12 182.01 286.28 176.00 C 286.30 173.22 288.62 171.00 291.06 170.01 Z" />
<path fill="#ffffff" opacity="1.00" d=" M 202.31 223.44 C 208.54 222.99 214.81 223.28 221.06 223.27 C 225.04 223.20 228.10 227.14 228.14 230.92 C 228.25 235.95 228.22 241.00 228.16 246.04 C 228.31 250.04 225.30 254.27 221.07 254.32 C 215.71 254.47 210.33 254.33 204.97 254.38 C 200.87 254.75 196.79 251.29 196.87 247.10 C 196.75 241.69 196.80 236.27 196.84 230.86 C 196.67 227.51 199.07 224.25 202.31 223.44 Z" />
<path fill="#ffffff" opacity="1.00" d=" M 247.24 223.34 C 253.17 223.10 259.12 223.24 265.06 223.26 C 269.11 223.09 272.51 227.05 272.34 230.98 C 272.39 235.65 272.30 240.33 272.37 245.01 C 273.02 249.42 269.73 254.34 265.03 254.33 C 259.69 254.45 254.34 254.35 249.00 254.37 C 244.93 254.74 240.94 251.17 241.20 247.03 C 241.14 241.34 241.10 235.65 241.22 229.97 C 241.22 226.73 244.07 223.69 247.24 223.34 Z" />
<path fill="#ffffff" opacity="1.00" d=" M 291.30 223.47 C 296.19 222.90 301.13 223.39 306.04 223.21 C 309.04 223.28 312.61 222.72 314.88 225.18 C 318.58 228.42 317.20 233.68 317.42 237.99 C 317.27 241.69 317.87 245.49 317.01 249.13 C 315.86 251.92 313.21 254.37 310.04 254.33 C 304.71 254.45 299.37 254.35 294.03 254.38 C 290.00 254.74 285.89 251.22 286.22 247.06 C 286.19 241.37 286.15 235.68 286.24 229.99 C 286.09 226.98 288.63 224.41 291.30 223.47 Z" />
<path fill="#ffffff" opacity="1.00" d=" M 202.17 338.40 C 236.33 338.38 270.50 338.38 304.66 338.40 C 308.98 342.39 313.30 346.39 317.63 350.38 C 276.26 350.39 234.90 350.39 193.54 350.38 C 196.47 346.42 199.29 342.39 202.17 338.40 Z" />
<path fill="#6d6e71" opacity="1.00" d=" M 255.93 371.47 C 256.01 366.87 259.41 362.58 264.17 362.28 C 263.82 366.83 260.70 371.06 255.93 371.47 Z" />
<path fill="#6d6e71" opacity="1.00" d=" M 245.55 372.59 C 248.25 370.45 251.84 371.08 254.84 372.15 C 258.58 373.76 262.14 370.42 265.93 371.22 C 267.93 371.57 269.62 372.82 271.05 374.20 C 269.87 376.85 266.97 378.83 267.35 382.05 C 267.20 385.50 269.80 388.05 272.30 390.01 C 270.72 393.49 268.83 397.34 265.30 399.18 C 261.88 399.47 258.56 397.47 255.14 398.46 C 252.73 398.79 249.82 400.13 247.73 398.24 C 243.82 394.58 241.36 389.39 240.88 384.07 C 240.34 379.77 241.70 374.97 245.55 372.59 Z" />
</svg>
