<?xml version="1.0" encoding="UTF-8" ?>
<!DOCTYPE svg PUBLIC "-//W3C//DTD SVG 1.1//EN" "http://www.w3.org/Graphics/SVG/1.1/DTD/svg11.dtd">
<svg width="512pt" height="512pt" viewBox="0 0 512 512" version="1.1" xmlns="http://www.w3.org/2000/svg">
<path fill="#00a8ec" opacity="1.00" d=" M 0.00 0.00 L 512.00 0.00 L 512.00 512.00 L 0.00 512.00 L 0.00 0.00 Z" />
<path fill="#ffffff" opacity="1.00" d=" M 95.13 188.25 C 202.71 188.25 310.29 188.25 417.87 188.25 C 417.82 233.75 417.82 279.25 417.87 324.75 C 310.29 324.75 202.71 324.75 95.13 324.75 C 95.18 279.25 95.18 233.75 95.13 188.25 Z" />
<path fill="#00a8ec" opacity="1.00" d=" M 114.79 216.20 C 122.95 216.19 131.11 216.20 139.27 216.20 C 139.26 224.25 139.26 232.31 139.27 240.37 C 131.11 240.37 122.94 240.38 114.78 240.36 C 114.80 232.31 114.78 224.25 114.79 216.20 Z" />
<path fill="#00a8ec" opacity="1.00" d=" M 147.41 216.17 C 155.42 216.20 163.44 216.22 171.45 216.17 C 171.43 224.24 171.43 232.31 171.45 240.38 C 163.44 240.36 155.43 240.36 147.42 240.38 C 147.44 232.31 147.45 224.24 147.41 216.17 Z" />
<path fill="#00a8ec" opacity="1.00" d=" M 179.63 216.19 C 187.81 216.25 195.99 216.08 204.17 216.29 C 203.53 224.30 203.94 232.35 203.86 240.37 C 195.78 240.36 187.70 240.37 179.63 240.37 C 179.64 232.31 179.65 224.25 179.63 216.19 Z" />
<path fill="#00a8ec" opacity="1.00" d=" M 211.81 216.28 C 219.96 216.10 228.11 216.25 236.27 216.18 C 236.27 224.24 236.26 232.31 236.28 240.37 C 228.23 240.38 220.18 240.35 212.14 240.39 C 211.54 232.36 211.96 224.31 211.81 216.28 Z" />
<path fill="#00a8ec" opacity="1.00" d=" M 244.26 216.17 C 252.34 216.21 260.41 216.21 268.49 216.18 C 268.48 224.24 268.48 232.31 268.49 240.38 C 260.41 240.35 252.33 240.37 244.25 240.37 C 244.29 232.30 244.27 224.24 244.26 216.17 Z" />
<path fill="#00a8ec" opacity="1.00" d=" M 276.68 216.19 C 284.70 216.19 292.71 216.22 300.72 216.17 C 300.68 224.24 300.71 232.32 300.70 240.39 C 292.70 240.35 284.69 240.37 276.68 240.37 C 276.69 232.31 276.69 224.25 276.68 216.19 Z" />
<path fill="#00a8ec" opacity="1.00" d=" M 308.81 216.27 C 316.98 216.11 325.16 216.24 333.33 216.19 C 333.30 224.25 333.31 232.31 333.33 240.37 C 325.16 240.36 317.00 240.39 308.83 240.35 C 308.83 232.32 308.86 224.30 308.81 216.27 Z" />
<path fill="#00a8ec" opacity="1.00" d=" M 341.31 216.17 C 349.38 216.21 357.46 216.20 365.54 216.18 C 365.50 224.25 365.52 232.31 365.53 240.38 C 357.45 240.35 349.37 240.38 341.29 240.36 C 341.34 232.30 341.32 224.23 341.31 216.17 Z" />
<path fill="#00a8ec" opacity="1.00" d=" M 373.52 216.16 C 381.59 216.22 389.65 216.20 397.72 216.18 C 397.69 224.24 397.68 232.30 397.73 240.37 C 389.66 240.38 381.59 240.35 373.52 240.39 C 373.53 232.31 373.53 224.24 373.52 216.16 Z" />
<path fill="#00a8ec" opacity="1.00" d=" M 147.42 246.50 C 155.43 246.53 163.44 246.52 171.45 246.50 C 171.44 254.51 171.42 262.52 171.46 270.53 C 163.44 270.51 155.42 270.51 147.40 270.53 C 147.46 262.52 147.44 254.51 147.42 246.50 Z" />
<path fill="#00a8ec" opacity="1.00" d=" M 114.78 246.53 C 122.94 246.50 131.11 246.52 139.27 246.52 C 139.26 254.52 139.25 262.51 139.28 270.51 C 131.11 270.51 122.94 270.54 114.77 270.50 C 114.80 262.51 114.79 254.52 114.78 246.53 Z" />
<path fill="#00a8ec" opacity="1.00" d=" M 179.63 246.51 C 187.69 246.51 195.76 246.54 203.83 246.49 C 203.86 254.51 203.80 262.52 203.86 270.53 C 195.78 270.50 187.70 270.52 179.62 270.52 C 179.66 262.52 179.64 254.51 179.63 246.51 Z" />
<path fill="#00a8ec" opacity="1.00" d=" M 211.83 246.53 C 219.98 246.50 228.13 246.53 236.28 246.51 C 236.26 254.51 236.25 262.51 236.28 270.51 C 228.13 270.51 219.97 270.55 211.81 270.48 C 211.85 262.50 211.83 254.52 211.83 246.53 Z" />
<path fill="#00a8ec" opacity="1.00" d=" M 244.27 270.54 C 244.28 262.52 244.25 254.50 244.29 246.48 C 252.36 246.55 260.42 246.52 268.49 246.50 C 268.48 254.51 268.46 262.52 268.51 270.53 C 260.43 270.52 252.35 270.50 244.27 270.54 Z" />
<path fill="#00a8ec" opacity="1.00" d=" M 276.69 246.51 C 284.69 246.51 292.69 246.55 300.69 246.48 C 300.72 254.50 300.67 262.52 300.73 270.54 C 292.71 270.50 284.69 270.52 276.67 270.52 C 276.71 262.51 276.68 254.51 276.69 246.51 Z" />
<path fill="#00a8ec" opacity="1.00" d=" M 308.83 246.54 C 317.00 246.49 325.16 246.53 333.33 246.52 C 333.31 254.52 333.30 262.52 333.34 270.51 C 325.16 270.50 316.99 270.55 308.82 270.48 C 308.86 262.50 308.84 254.52 308.83 246.54 Z" />
<path fill="#00a8ec" opacity="1.00" d=" M 341.31 270.54 C 341.34 262.52 341.31 254.50 341.33 246.49 C 349.40 246.54 357.46 246.51 365.53 246.51 C 365.52 254.51 365.50 262.52 365.55 270.53 C 357.47 270.52 349.39 270.50 341.31 270.54 Z" />
<path fill="#00a8ec" opacity="1.00" d=" M 373.52 246.50 C 381.58 246.53 389.64 246.53 397.70 246.49 C 397.69 254.51 397.70 262.53 397.70 270.55 C 389.64 270.49 381.57 270.51 373.51 270.53 C 373.53 262.52 373.52 254.51 373.52 246.50 Z" />
<path fill="#00a8ec" opacity="1.00" d=" M 114.78 276.72 C 122.95 276.70 131.11 276.71 139.27 276.72 C 139.27 284.73 139.23 292.74 139.30 300.75 C 131.12 301.18 122.94 301.29 114.77 300.76 C 114.81 292.74 114.78 284.73 114.78 276.72 Z" />
<path fill="#00a8ec" opacity="1.00" d=" M 147.41 300.90 C 147.45 292.83 147.43 284.77 147.43 276.70 C 155.44 276.72 163.44 276.72 171.45 276.70 C 171.42 284.87 171.46 293.05 171.42 301.22 C 163.42 300.82 155.42 300.76 147.41 300.90 Z" />
<path fill="#00a8ec" opacity="1.00" d=" M 179.63 276.71 C 187.70 276.71 195.77 276.73 203.84 276.70 C 203.97 284.71 203.51 292.73 204.19 300.73 C 196.02 301.58 187.81 300.48 179.62 300.86 C 179.66 292.81 179.64 284.76 179.63 276.71 Z" />
<path fill="#00a8ec" opacity="1.00" d=" M 211.82 300.79 C 211.98 292.76 211.49 284.70 212.17 276.69 C 241.69 276.75 271.21 276.69 300.72 276.72 C 300.65 284.88 300.79 293.05 300.63 301.22 C 294.45 300.62 288.25 300.91 282.06 301.15 C 272.39 300.74 262.70 300.70 253.02 301.14 C 239.30 300.58 225.55 301.00 211.82 300.79 Z" />
<path fill="#00a8ec" opacity="1.00" d=" M 308.86 276.72 C 317.02 276.71 325.17 276.71 333.32 276.71 C 333.32 284.75 333.30 292.79 333.34 300.82 C 325.16 300.93 317.00 301.34 308.83 300.76 C 308.85 292.74 308.81 284.73 308.86 276.72 Z" />
<path fill="#00a8ec" opacity="1.00" d=" M 341.30 300.88 C 341.35 292.82 341.30 284.75 341.33 276.69 C 349.40 276.73 357.46 276.71 365.52 276.71 C 365.54 284.75 365.48 292.79 365.56 300.83 C 357.48 300.91 349.39 300.84 341.30 300.88 Z" />
<path fill="#00a8ec" opacity="1.00" d=" M 373.53 276.70 C 381.58 276.72 389.64 276.72 397.69 276.70 C 397.72 284.74 397.65 292.78 397.74 300.83 C 389.67 301.20 381.61 300.77 373.55 301.16 C 373.50 293.01 373.53 284.85 373.53 276.70 Z" />
</svg>
