<?xml version="1.0" encoding="UTF-8" ?>
<!DOCTYPE svg PUBLIC "-//W3C//DTD SVG 1.1//EN" "http://www.w3.org/Graphics/SVG/1.1/DTD/svg11.dtd">
<svg width="512pt" height="512pt" viewBox="0 0 512 512" version="1.1" xmlns="http://www.w3.org/2000/svg">
<path fill="#54c104" opacity="1.00" d=" M 0.00 0.00 L 512.00 0.00 L 512.00 512.00 L 0.00 512.00 L 0.00 0.00 Z" />
<path fill="#ffffff" opacity="1.00" d=" M 75.66 213.66 C 78.75 213.20 81.89 213.52 85.00 213.46 C 201.36 213.45 317.73 213.47 434.09 213.45 C 439.00 213.37 442.84 218.33 443.38 222.87 C 443.50 235.25 443.36 247.63 443.45 260.01 C 443.77 264.21 441.33 268.50 437.57 270.38 C 434.62 271.89 431.21 271.27 428.04 271.39 C 371.74 271.35 315.45 271.40 259.16 271.36 C 259.20 272.47 259.24 273.57 259.29 274.68 C 272.33 280.34 285.43 285.89 298.35 291.83 C 299.37 294.00 299.40 296.35 298.21 298.48 C 267.14 298.63 236.06 298.50 204.98 298.54 C 202.44 299.09 201.20 296.00 201.81 293.95 C 202.77 290.58 206.75 290.10 209.44 288.69 C 220.26 283.76 231.42 279.50 242.03 274.18 C 242.14 273.50 242.34 272.14 242.45 271.46 C 187.95 271.27 133.44 271.43 78.94 271.38 C 74.93 271.56 71.27 268.86 69.62 265.31 C 68.29 263.11 68.60 260.46 68.55 258.01 C 68.62 246.66 68.55 235.32 68.58 223.98 C 68.54 219.53 71.65 215.39 75.66 213.66 Z" />
<path fill="#54c104" opacity="1.00" d=" M 159.08 228.93 C 166.58 227.62 174.44 234.37 173.75 242.08 C 173.90 249.14 167.02 255.25 160.05 254.52 C 153.67 254.23 148.07 248.45 148.14 242.04 C 147.71 235.68 152.88 229.83 159.08 228.93 Z" />
<path fill="#54c104" opacity="1.00" d=" M 227.27 229.21 C 234.47 227.07 242.50 232.64 243.39 240.02 C 244.52 247.24 238.23 254.48 230.96 254.54 C 224.06 255.03 217.45 248.96 217.41 242.04 C 217.12 236.14 221.59 230.57 227.27 229.21 Z" />
<path fill="#54c104" opacity="1.00" d=" M 266.03 228.85 C 273.11 227.88 280.14 233.81 280.44 240.92 C 281.06 248.19 274.28 255.10 266.98 254.53 C 259.41 254.46 253.03 246.46 254.86 239.06 C 256.01 233.76 260.63 229.51 266.03 228.85 Z" />
</svg>
