<?xml version="1.0" encoding="UTF-8" ?>
<!DOCTYPE svg PUBLIC "-//W3C//DTD SVG 1.1//EN" "http://www.w3.org/Graphics/SVG/1.1/DTD/svg11.dtd">
<svg width="512pt" height="512pt" viewBox="0 0 512 512" version="1.1" xmlns="http://www.w3.org/2000/svg">
<path fill="#484848" opacity="1.00" d=" M 0.00 0.00 L 512.00 0.00 L 512.00 512.00 L 0.00 512.00 L 0.00 0.00 Z" />
<path fill="#ffffff" opacity="1.00" d=" M 246.59 116.75 C 257.19 114.36 268.79 116.07 277.98 121.98 C 287.68 127.88 294.71 138.00 296.87 149.15 C 297.95 154.01 297.81 159.02 297.80 163.97 C 297.79 191.34 297.80 218.70 297.80 246.07 C 297.80 251.42 297.98 256.85 296.79 262.11 C 294.03 275.83 283.74 287.71 270.64 292.56 C 259.94 296.79 247.47 296.01 237.27 290.76 C 223.63 283.95 214.36 269.32 214.24 254.03 C 214.15 225.35 214.23 196.66 214.20 167.98 C 214.29 161.32 213.73 154.56 215.39 148.04 C 218.64 132.78 231.40 120.14 246.59 116.75 Z" />
<path fill="#ffffff" opacity="1.00" d=" M 170.50 226.35 C 179.86 226.37 189.22 226.36 198.58 226.35 C 198.50 238.21 198.57 250.08 198.54 261.94 C 198.59 273.70 202.87 285.45 210.79 294.19 C 216.75 300.84 224.57 305.81 233.13 308.31 C 243.16 311.18 253.67 309.91 263.95 310.21 C 275.52 310.44 287.23 306.70 296.06 299.14 C 306.78 290.39 313.19 276.83 313.44 263.02 C 313.45 250.80 313.48 238.58 313.42 226.35 C 322.78 226.36 332.14 226.37 341.50 226.35 C 341.57 239.25 341.53 252.16 341.53 265.06 C 340.59 279.98 335.80 294.79 326.88 306.88 C 315.17 323.10 296.79 334.26 277.03 337.33 C 274.58 337.72 271.96 337.42 269.69 338.60 C 270.21 341.70 270.24 344.84 269.96 347.97 C 269.88 354.48 270.24 361.00 269.72 367.50 C 283.92 367.91 298.15 367.58 312.36 367.67 C 312.38 376.95 312.31 386.23 312.40 395.51 C 274.80 395.52 237.20 395.51 199.60 395.51 C 199.68 386.23 199.62 376.95 199.64 367.67 C 213.72 367.69 227.79 367.68 241.87 367.68 C 241.72 357.83 242.08 347.96 241.70 338.13 C 229.27 337.07 216.93 333.38 206.35 326.63 C 188.71 315.72 175.87 297.26 172.10 276.83 C 171.37 272.60 170.42 268.37 170.45 264.06 C 170.50 251.49 170.42 238.92 170.50 226.35 Z" />
</svg>
