<?xml version="1.0" encoding="UTF-8" ?>
<!DOCTYPE svg PUBLIC "-//W3C//DTD SVG 1.1//EN" "http://www.w3.org/Graphics/SVG/1.1/DTD/svg11.dtd">
<svg width="512pt" height="512pt" viewBox="0 0 512 512" version="1.1" xmlns="http://www.w3.org/2000/svg">
<path fill="#04aeda" opacity="1.00" d=" M 0.00 0.00 L 512.00 0.00 L 512.00 512.00 L 0.00 512.00 L 0.00 0.00 Z" />
<path fill="#ffffff" opacity="1.00" d=" M 135.33 101.41 C 215.53 101.31 295.74 101.35 375.94 101.39 C 383.26 101.08 389.72 107.75 389.60 114.96 C 389.59 208.99 389.61 303.01 389.59 397.03 C 389.55 403.55 383.98 410.30 377.12 409.93 C 297.74 409.93 218.36 409.92 138.98 409.93 C 135.28 409.87 131.13 410.49 128.01 408.00 C 124.94 405.68 122.15 402.12 122.33 398.07 C 122.32 303.69 122.36 209.31 122.32 114.92 C 121.64 107.79 128.30 101.30 135.33 101.41 Z" />
<path fill="#04aeda" opacity="1.00" d=" M 140.38 113.42 C 147.59 109.80 157.02 115.94 156.81 123.94 C 157.30 130.34 151.41 136.34 145.00 135.90 C 138.65 136.21 133.07 130.27 133.33 124.02 C 133.26 119.47 136.37 115.33 140.38 113.42 Z" />
<path fill="#04aeda" opacity="1.00" d=" M 361.46 113.62 C 367.60 110.28 375.92 114.12 377.80 120.74 C 380.35 127.68 374.45 135.98 367.08 135.89 C 360.45 136.56 354.53 130.41 354.67 123.93 C 354.93 119.63 357.50 115.46 361.46 113.62 Z" />
<path fill="#04aeda" opacity="1.00" d=" M 163.59 195.81 C 168.80 195.79 174.01 195.82 179.21 195.79 C 196.30 222.40 213.24 249.10 230.29 275.74 C 231.77 278.01 233.11 280.36 234.45 282.72 C 234.38 278.81 233.87 274.93 233.81 271.03 C 233.85 245.96 233.82 220.89 233.83 195.83 C 237.93 195.79 242.03 195.79 246.13 195.82 C 246.14 229.84 246.11 263.86 246.14 297.87 C 241.13 298.18 236.11 297.98 231.10 297.96 C 214.40 271.99 197.62 246.08 180.89 220.14 C 178.73 217.05 176.81 213.78 175.45 210.25 C 175.85 239.51 175.56 268.79 175.61 298.06 C 171.61 297.94 167.61 297.98 163.62 298.06 C 163.58 263.98 163.62 229.89 163.59 195.81 Z" />
<path fill="#04aeda" opacity="1.00" d=" M 288.97 195.82 C 292.72 195.79 296.48 195.80 300.23 195.81 C 316.16 235.60 332.11 275.38 347.93 315.22 C 344.27 315.24 340.62 315.23 336.97 315.21 C 320.99 275.41 304.99 235.61 288.97 195.82 Z" />
<path fill="#04aeda" opacity="1.00" d=" M 271.40 224.44 C 276.22 221.44 283.57 225.19 283.48 230.99 C 284.20 237.34 276.02 241.89 270.95 238.12 C 266.01 235.14 266.23 227.05 271.40 224.44 Z" />
<path fill="#04aeda" opacity="1.00" d=" M 271.44 284.49 C 276.62 281.10 284.20 285.94 283.49 292.04 C 283.55 298.45 274.83 302.15 270.21 297.77 C 265.88 294.42 266.66 287.02 271.44 284.49 Z" />
<path fill="#04aeda" opacity="1.00" d=" M 141.54 375.76 C 148.74 373.21 157.22 379.32 156.81 387.01 C 157.17 393.75 150.54 399.61 143.91 398.70 C 136.94 398.20 131.65 390.58 133.72 383.87 C 134.82 380.11 137.85 377.03 141.54 375.76 Z" />
<path fill="#04aeda" opacity="1.00" d=" M 363.46 375.61 C 370.29 373.55 377.80 378.96 378.32 385.99 C 379.09 392.79 372.79 399.39 365.92 398.74 C 358.78 398.68 352.94 390.77 355.18 383.96 C 356.24 379.99 359.50 376.71 363.46 375.61 Z" />
</svg>
