<?xml version="1.0" encoding="UTF-8" ?>
<!DOCTYPE svg PUBLIC "-//W3C//DTD SVG 1.1//EN" "http://www.w3.org/Graphics/SVG/1.1/DTD/svg11.dtd">
<svg width="512pt" height="512pt" viewBox="0 0 512 512" version="1.1" xmlns="http://www.w3.org/2000/svg">
<path fill="#04aeda" opacity="1.00" d=" M 0.00 0.00 L 512.00 0.00 L 512.00 512.00 L 0.00 512.00 L 0.00 0.00 Z" />
<path fill="#ffffff" opacity="1.00" d=" M 202.42 153.98 C 202.10 148.32 207.27 143.11 212.92 143.31 C 241.28 143.28 269.65 143.30 298.01 143.30 C 303.76 142.97 309.16 148.18 308.77 153.98 C 308.75 172.33 308.77 190.68 308.76 209.02 C 309.10 214.76 303.71 219.95 298.02 219.59 C 287.21 219.59 276.41 219.57 265.61 219.58 C 265.63 229.16 265.62 238.75 265.61 248.34 C 300.17 248.36 334.74 248.30 369.30 248.37 C 369.25 263.07 369.29 277.78 369.27 292.49 C 379.55 292.48 389.82 292.42 400.09 292.49 C 405.98 292.43 410.95 298.17 410.54 303.95 C 410.49 321.99 410.54 340.03 410.52 358.08 C 410.61 364.03 405.03 369.38 399.04 368.76 C 370.69 368.71 342.35 368.80 314.00 368.71 C 308.41 368.77 303.75 363.58 303.83 358.10 C 303.75 340.06 303.80 322.02 303.79 303.99 C 303.41 298.22 308.20 292.46 314.12 292.49 C 325.87 292.43 337.62 292.49 349.37 292.47 C 349.36 282.81 349.35 273.15 349.38 263.49 C 286.66 263.49 223.95 263.51 161.24 263.48 C 161.30 273.15 161.26 282.82 161.26 292.48 C 173.21 292.48 185.17 292.42 197.12 292.50 C 202.65 292.46 207.48 297.55 207.37 303.04 C 207.39 321.36 207.38 339.68 207.37 358.00 C 207.60 363.60 202.71 368.91 197.02 368.73 C 168.68 368.77 140.33 368.73 111.99 368.75 C 107.86 369.03 103.81 366.67 101.99 362.97 C 100.18 359.95 100.77 356.32 100.69 352.98 C 100.71 336.65 100.67 320.32 100.68 303.99 C 100.36 298.24 105.21 292.48 111.10 292.49 C 121.31 292.44 131.51 292.47 141.72 292.49 C 141.72 277.78 141.74 263.07 141.71 248.35 C 176.27 248.31 210.83 248.36 245.40 248.33 C 245.38 238.75 245.38 229.17 245.40 219.59 C 234.56 219.55 223.72 219.62 212.88 219.57 C 207.32 219.76 202.16 214.67 202.44 209.08 C 202.43 190.71 202.40 172.35 202.42 153.98 Z" />
<path fill="#04aeda" opacity="1.00" d=" M 216.57 157.45 C 242.60 157.45 268.63 157.46 294.67 157.44 C 294.61 173.44 294.61 189.44 294.63 205.44 C 268.61 205.42 242.60 205.43 216.58 205.44 C 216.59 189.44 216.61 173.44 216.57 157.45 Z" />
<path fill="#04aeda" opacity="1.00" d=" M 115.22 306.61 C 141.22 306.64 167.23 306.59 193.24 306.63 C 193.23 322.61 193.18 338.59 193.22 354.56 C 167.22 354.65 141.22 354.56 115.23 354.61 C 115.24 338.61 115.26 322.61 115.22 306.61 Z" />
<path fill="#04aeda" opacity="1.00" d=" M 318.19 306.62 C 344.21 306.63 370.23 306.60 396.25 306.63 C 396.24 322.60 396.19 338.58 396.24 354.56 C 370.22 354.66 344.21 354.56 318.19 354.61 C 318.20 338.61 318.20 322.61 318.19 306.62 Z" />
</svg>
