<?xml version="1.0" encoding="UTF-8" ?>
<!DOCTYPE svg PUBLIC "-//W3C//DTD SVG 1.1//EN" "http://www.w3.org/Graphics/SVG/1.1/DTD/svg11.dtd">
<svg width="512pt" height="512pt" viewBox="0 0 512 512" version="1.1" xmlns="http://www.w3.org/2000/svg">
<path fill="#04aeda" opacity="1.00" d=" M 0.00 0.00 L 512.00 0.00 L 512.00 512.00 L 0.00 512.00 L 0.00 0.00 Z" />
<path fill="#ffffff" opacity="1.00" d=" M 135.31 101.41 C 215.51 101.31 295.72 101.35 375.93 101.39 C 383.27 101.08 389.73 107.76 389.60 115.00 C 389.58 209.03 389.61 303.06 389.59 397.09 C 389.50 402.53 385.74 407.91 380.49 409.57 C 377.36 410.20 374.14 409.86 370.97 409.93 C 292.30 409.93 213.64 409.91 134.97 409.94 C 128.13 410.46 121.79 403.78 122.32 397.03 C 122.35 302.68 122.33 208.33 122.32 113.98 C 122.17 107.20 128.64 101.33 135.31 101.41 Z" />
<path fill="#04aeda" opacity="1.00" d=" M 140.32 113.45 C 147.53 109.76 157.03 115.92 156.81 123.95 C 157.30 130.35 151.41 136.34 144.99 135.90 C 138.63 136.21 133.06 130.24 133.33 123.98 C 133.29 119.47 136.35 115.36 140.32 113.45 Z" />
<path fill="#04aeda" opacity="1.00" d=" M 361.46 113.62 C 367.61 110.28 375.94 114.13 377.81 120.77 C 380.35 127.72 374.40 136.02 367.02 135.89 C 360.41 136.52 354.53 130.38 354.67 123.92 C 354.93 119.62 357.51 115.46 361.46 113.62 Z" />
<path fill="#04aeda" opacity="1.00" d=" M 177.59 195.81 C 187.40 195.82 197.21 195.77 207.02 195.82 C 216.03 196.00 225.65 198.20 232.20 204.80 C 238.63 210.94 240.74 220.32 240.17 228.93 C 239.70 236.21 236.92 243.46 231.72 248.68 C 225.22 255.83 215.44 259.13 205.97 259.47 C 200.52 259.57 195.07 259.45 189.62 259.51 C 189.64 272.36 189.65 285.20 189.62 298.05 C 185.62 298.02 181.62 297.97 177.62 298.04 C 177.58 263.96 177.62 229.89 177.59 195.81 Z" />
<path fill="#04aeda" opacity="1.00" d=" M 274.97 195.82 C 278.72 195.80 282.48 195.80 286.23 195.81 C 302.16 235.60 318.10 275.39 333.93 315.22 C 330.27 315.24 326.62 315.23 322.97 315.21 C 306.98 275.40 290.99 235.61 274.97 195.82 Z" />
<path fill="#ffffff" opacity="1.00" d=" M 189.65 206.80 C 198.52 207.08 207.73 205.74 216.26 208.83 C 221.30 210.63 225.36 214.91 226.64 220.13 C 228.43 227.33 227.63 235.80 222.45 241.47 C 218.00 246.24 211.29 248.11 204.94 248.41 C 199.84 248.54 194.73 248.42 189.63 248.45 C 189.65 234.56 189.62 220.68 189.65 206.80 Z" />
<path fill="#04aeda" opacity="1.00" d=" M 257.45 224.41 C 262.63 221.22 270.36 225.80 269.48 232.00 C 269.36 238.22 261.01 241.83 256.39 237.70 C 251.93 234.47 252.51 226.88 257.45 224.41 Z" />
<path fill="#04aeda" opacity="1.00" d=" M 257.40 284.50 C 262.60 281.09 270.21 285.94 269.49 292.06 C 269.53 298.45 260.87 302.14 256.23 297.79 C 251.89 294.45 252.64 287.07 257.40 284.50 Z" />
<path fill="#04aeda" opacity="1.00" d=" M 141.53 375.76 C 148.36 373.36 156.50 378.71 156.77 385.98 C 157.68 392.64 151.70 399.03 145.04 398.76 C 138.81 398.92 133.18 393.24 133.33 387.03 C 133.17 381.98 136.85 377.36 141.53 375.76 Z" />
<path fill="#04aeda" opacity="1.00" d=" M 362.65 375.86 C 368.89 373.52 376.27 377.53 377.92 383.91 C 380.17 390.86 374.21 398.82 366.94 398.75 C 360.08 399.27 354.08 392.65 354.72 385.94 C 355.29 381.46 358.37 377.39 362.65 375.86 Z" />
</svg>
