<?xml version="1.0" encoding="UTF-8" ?>
<!DOCTYPE svg PUBLIC "-//W3C//DTD SVG 1.1//EN" "http://www.w3.org/Graphics/SVG/1.1/DTD/svg11.dtd">
<svg width="512pt" height="512pt" viewBox="0 0 512 512" version="1.1" xmlns="http://www.w3.org/2000/svg">
<path fill="#04aeda" opacity="1.00" d=" M 0.00 0.00 L 512.00 0.00 L 512.00 512.00 L 0.00 512.00 L 0.00 0.00 Z" />
<path fill="#ffffff" opacity="1.00" d=" M 135.29 101.41 C 215.49 101.31 295.69 101.35 375.88 101.39 C 383.23 101.05 389.72 107.73 389.60 114.98 C 389.59 208.99 389.61 303.01 389.59 397.02 C 389.55 403.59 383.92 410.36 377.01 409.93 C 296.31 409.93 215.61 409.91 134.92 409.93 C 128.08 410.44 121.77 403.74 122.32 397.00 C 122.35 302.66 122.33 208.32 122.33 113.97 C 122.17 107.20 128.63 101.34 135.29 101.41 Z" />
<path fill="#04aeda" opacity="1.00" d=" M 140.39 113.42 C 147.23 110.01 156.19 115.33 156.75 122.86 C 157.71 128.89 153.08 134.93 147.11 135.83 C 140.47 137.28 133.55 131.62 133.34 124.88 C 132.93 120.04 136.09 115.42 140.39 113.42 Z" />
<path fill="#04aeda" opacity="1.00" d=" M 361.47 113.62 C 367.63 110.28 375.96 114.14 377.81 120.79 C 380.33 127.73 374.41 136.00 367.04 135.89 C 360.43 136.54 354.53 130.39 354.67 123.93 C 354.93 119.62 357.51 115.45 361.47 113.62 Z" />
<path fill="#04aeda" opacity="1.00" d=" M 174.80 195.81 C 184.89 195.80 194.97 195.82 205.05 195.79 C 212.69 195.87 220.73 197.27 226.91 202.06 C 239.69 211.73 239.65 233.34 227.64 243.62 C 223.76 247.20 218.79 249.29 213.79 250.78 C 220.51 253.55 224.50 259.95 228.15 265.87 C 234.81 276.55 241.46 287.24 248.16 297.89 C 243.38 298.10 238.60 297.95 233.82 298.09 C 227.44 287.80 221.43 277.29 215.11 266.97 C 212.06 262.21 208.31 257.31 202.70 255.52 C 197.55 253.98 192.09 254.79 186.79 254.63 C 186.79 269.10 186.83 283.57 186.77 298.05 C 182.78 298.06 178.80 297.97 174.81 297.95 C 174.80 263.90 174.81 229.85 174.80 195.81 Z" />
<path fill="#04aeda" opacity="1.00" d=" M 277.71 195.81 C 281.49 195.80 285.28 195.80 289.06 195.82 C 304.95 235.62 320.91 275.40 336.74 315.22 C 333.10 315.23 329.45 315.23 325.81 315.23 C 309.72 275.44 293.86 235.57 277.71 195.81 Z" />
<path fill="#ffffff" opacity="1.00" d=" M 186.81 206.81 C 193.21 206.87 199.62 206.61 206.01 206.93 C 211.38 207.34 217.09 209.08 220.48 213.53 C 224.89 219.43 224.69 227.92 221.23 234.23 C 217.80 240.27 210.80 243.59 204.01 243.63 C 198.25 243.72 192.48 243.85 186.73 243.54 C 186.90 231.30 186.74 219.05 186.81 206.81 Z" />
<path fill="#04aeda" opacity="1.00" d=" M 260.36 224.34 C 265.61 221.28 273.15 225.91 272.31 232.07 C 272.09 237.95 264.58 241.56 259.81 238.18 C 254.79 235.21 255.05 226.86 260.36 224.34 Z" />
<path fill="#04aeda" opacity="1.00" d=" M 260.40 284.38 C 265.60 281.21 272.93 285.98 272.32 292.00 C 272.30 298.07 264.55 301.87 259.68 298.31 C 254.72 295.22 255.17 286.96 260.40 284.38 Z" />
<path fill="#04aeda" opacity="1.00" d=" M 141.50 375.77 C 148.36 373.34 156.52 378.71 156.78 386.01 C 157.67 392.69 151.65 399.06 144.98 398.75 C 138.04 398.93 132.12 391.87 133.47 385.06 C 134.16 380.79 137.47 377.18 141.50 375.77 Z" />
<path fill="#04aeda" opacity="1.00" d=" M 363.36 375.64 C 369.48 373.78 376.34 377.82 377.93 383.94 C 380.14 390.85 374.25 398.75 367.03 398.74 C 360.50 399.29 354.74 393.39 354.65 387.00 C 354.80 381.88 358.39 377.03 363.36 375.64 Z" />
</svg>
