<?xml version="1.0" encoding="UTF-8" ?>
<!DOCTYPE svg PUBLIC "-//W3C//DTD SVG 1.1//EN" "http://www.w3.org/Graphics/SVG/1.1/DTD/svg11.dtd">
<svg width="512pt" height="512pt" viewBox="0 0 512 512" version="1.1" xmlns="http://www.w3.org/2000/svg">
<path fill="#04aeda" opacity="1.00" d=" M 0.00 0.00 L 512.00 0.00 L 512.00 512.00 L 0.00 512.00 L 0.00 0.00 Z" />
<path fill="#ffffff" opacity="1.00" d=" M 135.30 101.41 C 215.49 101.31 295.69 101.35 375.88 101.39 C 383.24 101.06 389.72 107.74 389.61 114.99 C 389.58 209.02 389.61 303.06 389.59 397.09 C 389.51 403.63 383.91 410.34 377.03 409.93 C 295.99 409.91 214.95 409.95 133.92 409.91 C 129.29 410.01 125.44 406.53 123.40 402.65 C 121.82 400.04 122.45 396.87 122.32 393.99 C 122.35 300.65 122.34 207.31 122.32 113.97 C 122.18 107.19 128.64 101.34 135.30 101.41 Z" />
<path fill="#04aeda" opacity="1.00" d=" M 140.32 113.45 C 147.17 109.98 156.20 115.31 156.75 122.88 C 157.85 129.60 151.85 136.36 145.03 135.90 C 138.64 136.23 133.04 130.23 133.33 123.94 C 133.31 119.44 136.36 115.35 140.32 113.45 Z" />
<path fill="#04aeda" opacity="1.00" d=" M 361.48 113.61 C 367.65 110.28 375.98 114.15 377.83 120.82 C 380.31 127.76 374.39 136.01 367.04 135.89 C 360.44 136.53 354.55 130.41 354.67 123.96 C 354.91 119.64 357.51 115.46 361.48 113.61 Z" />
<path fill="#04aeda" opacity="1.00" d=" M 182.92 206.92 C 189.60 199.14 200.15 196.10 210.07 195.61 C 218.37 195.40 226.95 195.73 234.72 198.96 C 234.85 203.59 234.78 208.21 234.81 212.84 C 226.15 207.18 215.26 205.48 205.14 207.07 C 199.06 208.02 192.52 211.32 190.49 217.55 C 188.30 223.75 191.23 230.77 196.52 234.39 C 208.50 242.96 224.14 246.52 233.68 258.38 C 239.54 265.23 240.36 275.18 237.50 283.49 C 234.96 290.40 228.93 295.54 222.14 298.07 C 209.57 302.61 195.64 301.88 182.99 298.05 C 181.05 297.40 179.09 296.69 177.34 295.61 C 176.82 290.82 177.33 285.97 177.08 281.16 C 184.48 286.87 193.82 289.56 203.04 290.26 C 208.98 290.42 215.36 289.85 220.45 286.50 C 226.49 282.48 228.09 273.57 224.56 267.41 C 222.26 263.45 218.39 260.75 214.55 258.43 C 205.66 253.30 195.95 249.51 187.71 243.29 C 181.71 238.77 177.02 231.79 177.27 224.04 C 176.82 217.86 178.68 211.51 182.92 206.92 Z" />
<path fill="#04aeda" opacity="1.00" d=" M 274.98 197.22 C 278.76 197.17 282.53 197.17 286.31 197.24 C 302.15 237.02 318.04 276.77 333.97 316.52 C 330.28 316.56 326.60 316.56 322.92 316.52 C 306.98 276.74 290.96 236.99 274.98 197.22 Z" />
<path fill="#04aeda" opacity="1.00" d=" M 258.32 225.37 C 263.77 222.84 270.71 228.06 269.43 234.05 C 268.80 240.12 260.56 243.02 256.14 238.94 C 251.59 235.34 252.88 227.36 258.32 225.37 Z" />
<path fill="#04aeda" opacity="1.00" d=" M 258.32 285.44 C 263.76 282.82 270.57 288.15 269.45 294.06 C 269.02 300.66 259.65 303.42 255.48 298.49 C 251.63 294.64 253.27 287.36 258.32 285.44 Z" />
<path fill="#04aeda" opacity="1.00" d=" M 141.56 375.75 C 148.37 373.38 156.45 378.68 156.77 385.92 C 157.72 392.60 151.72 399.03 145.03 398.75 C 138.80 398.91 133.17 393.22 133.33 387.00 C 133.19 381.96 136.87 377.34 141.56 375.75 Z" />
<path fill="#04aeda" opacity="1.00" d=" M 363.35 375.64 C 369.47 373.77 376.34 377.81 377.93 383.94 C 380.15 390.87 374.21 398.80 366.98 398.74 C 360.13 399.29 354.11 392.70 354.72 385.99 C 355.27 381.25 358.71 376.95 363.35 375.64 Z" />
</svg>
