<?xml version="1.0" encoding="UTF-8" ?>
<!DOCTYPE svg PUBLIC "-//W3C//DTD SVG 1.1//EN" "http://www.w3.org/Graphics/SVG/1.1/DTD/svg11.dtd">
<svg width="512pt" height="512pt" viewBox="0 0 512 512" version="1.1" xmlns="http://www.w3.org/2000/svg">
<path fill="#00a8ec" opacity="1.00" d=" M 0.00 0.00 L 512.00 0.00 L 512.00 512.00 L 0.00 512.00 L 0.00 0.00 Z" />
<path fill="#ffffff" opacity="1.00" d=" M 146.29 117.41 C 203.17 112.43 260.04 107.24 316.92 102.23 C 320.85 101.39 325.19 102.07 328.27 104.80 C 340.24 115.80 352.18 126.84 364.11 137.89 C 367.17 140.67 368.43 144.97 368.33 149.01 C 368.21 163.72 368.39 178.44 368.25 193.16 C 367.31 194.96 365.06 194.16 363.44 194.47 C 362.98 194.81 362.06 195.50 361.60 195.84 C 361.60 201.22 361.61 206.61 361.58 211.99 C 362.19 212.37 363.41 213.11 364.03 213.49 C 365.46 213.58 366.91 213.65 368.36 213.70 C 368.22 277.53 368.41 341.36 368.34 405.19 C 368.59 407.48 366.77 409.08 365.21 410.42 C 357.13 410.23 349.10 409.23 341.01 409.25 C 333.40 408.24 325.69 408.81 318.08 407.83 C 307.24 407.53 296.44 406.71 285.61 406.25 C 284.14 404.38 282.84 401.63 280.09 401.63 C 259.67 400.79 239.27 399.47 218.85 398.65 C 217.81 399.83 216.79 401.04 215.80 402.27 C 212.84 402.29 209.87 402.31 206.91 402.04 C 199.17 401.11 191.35 401.60 183.62 400.59 C 175.71 400.79 167.88 399.45 159.98 399.58 C 155.35 399.54 150.78 398.63 146.15 398.69 C 142.76 396.06 143.80 391.71 143.71 387.98 C 143.77 341.32 143.64 294.65 143.77 247.98 C 144.02 244.13 148.54 244.72 151.30 244.65 C 151.79 243.13 152.30 241.59 152.25 239.98 C 152.24 230.42 152.21 220.87 152.25 211.32 C 150.45 210.90 147.85 212.05 146.72 210.17 C 146.57 201.11 146.73 192.05 146.65 182.99 C 145.68 182.71 144.71 182.43 143.74 182.17 C 143.71 162.05 143.71 141.93 143.73 121.82 C 143.60 119.96 145.32 118.78 146.29 117.41 Z" />
<path fill="#00a8ec" opacity="1.00" d=" M 326.00 174.04 C 333.08 173.29 340.26 173.70 347.30 172.46 C 348.04 173.84 348.42 175.36 348.30 176.94 C 348.25 200.18 348.27 223.42 348.30 246.66 C 344.52 246.77 340.74 246.71 336.97 246.84 C 322.34 247.79 307.67 247.41 293.02 247.77 C 278.71 248.79 264.35 248.24 250.02 248.70 C 232.04 249.86 213.99 248.90 196.01 250.15 C 184.17 250.25 172.33 250.22 160.50 250.75 C 160.47 228.25 160.52 205.75 160.48 183.25 C 215.67 180.39 270.80 176.97 326.00 174.04 Z" />
</svg>
