<?xml version="1.0" encoding="UTF-8" ?>
<!DOCTYPE svg PUBLIC "-//W3C//DTD SVG 1.1//EN" "http://www.w3.org/Graphics/SVG/1.1/DTD/svg11.dtd">
<svg width="512pt" height="512pt" viewBox="0 0 512 512" version="1.1" xmlns="http://www.w3.org/2000/svg">
<path fill="#04aeda" opacity="1.00" d=" M 0.00 0.00 L 512.00 0.00 L 512.00 512.00 L 0.00 512.00 L 0.00 0.00 Z" />
<path fill="#ffffff" opacity="1.00" d=" M 150.24 100.26 C 152.03 99.44 154.08 99.84 155.99 99.74 C 223.67 99.80 291.35 99.72 359.03 99.78 C 361.26 99.64 363.71 101.48 363.18 103.91 C 363.17 206.29 363.17 308.67 363.18 411.05 C 363.70 413.50 361.30 415.29 359.03 415.03 C 290.34 415.09 221.64 415.02 152.95 415.05 C 150.53 415.40 147.60 413.85 148.15 411.04 C 148.14 308.68 148.14 206.32 148.15 103.95 C 147.96 102.41 148.65 100.74 150.24 100.26 Z" />
<path fill="#04aeda" opacity="1.00" d=" M 155.75 107.65 C 222.35 107.65 288.95 107.68 355.55 107.64 C 355.56 195.24 355.55 282.84 355.55 370.45 C 288.95 370.41 222.35 370.43 155.75 370.44 C 155.76 282.84 155.75 195.25 155.75 107.65 Z" />
<path fill="#ffffff" opacity="1.00" d=" M 184.46 127.31 C 207.10 127.30 229.74 127.27 252.38 127.32 C 252.29 149.92 252.39 172.52 252.33 195.12 C 229.77 195.20 207.21 195.00 184.65 195.22 C 184.25 172.59 184.63 149.94 184.46 127.31 Z" />
<path fill="#ffffff" opacity="1.00" d=" M 263.86 127.29 C 286.48 127.32 309.10 127.28 331.73 127.31 C 331.66 149.89 331.69 172.47 331.71 195.05 C 309.08 195.22 286.45 195.09 263.81 195.11 C 263.83 172.51 263.74 149.90 263.86 127.29 Z" />
<path fill="#ffffff" opacity="1.00" d=" M 184.48 204.22 C 207.10 204.23 229.72 204.22 252.35 204.23 C 252.34 226.85 252.36 249.48 252.33 272.10 C 229.71 272.05 207.09 272.22 184.47 272.01 C 184.50 249.42 184.49 226.82 184.48 204.22 Z" />
<path fill="#ffffff" opacity="1.00" d=" M 263.80 204.27 C 286.43 204.16 309.07 204.26 331.70 204.22 C 331.66 226.85 331.73 249.47 331.67 272.09 C 310.46 272.13 289.25 272.07 268.04 272.12 C 266.61 272.07 265.19 271.97 263.77 271.84 C 263.84 249.32 263.79 226.79 263.80 204.27 Z" />
<path fill="#ffffff" opacity="1.00" d=" M 184.46 349.60 C 184.53 326.98 184.44 304.35 184.51 281.73 C 207.12 281.77 229.73 281.73 252.34 281.75 C 252.37 304.36 252.30 326.98 252.38 349.59 C 229.74 349.63 207.10 349.61 184.46 349.60 Z" />
<path fill="#ffffff" opacity="1.00" d=" M 263.81 281.77 C 286.40 281.68 309.00 281.84 331.59 281.68 C 331.85 304.32 331.58 326.96 331.73 349.60 C 309.08 349.58 286.42 349.69 263.78 349.55 C 263.84 326.95 263.78 304.36 263.81 281.77 Z" />
<path fill="#04aeda" opacity="1.00" d=" M 184.41 404.70 C 184.44 396.69 184.41 388.68 184.42 380.68 C 192.18 380.71 199.94 380.72 207.70 380.67 C 207.76 388.68 207.69 396.69 207.74 404.69 C 199.96 404.68 192.18 404.67 184.41 404.70 Z" />
<path fill="#04aeda" opacity="1.00" d=" M 246.70 380.69 C 254.29 380.70 261.88 380.71 269.47 380.69 C 269.47 388.68 269.44 396.68 269.49 404.69 C 261.89 404.69 254.30 404.67 246.70 404.69 C 246.71 396.69 246.71 388.69 246.70 380.69 Z" />
<path fill="#04aeda" opacity="1.00" d=" M 308.43 404.70 C 308.47 396.69 308.42 388.68 308.46 380.67 C 316.22 380.73 323.99 380.69 331.76 380.70 C 331.74 388.69 331.73 396.69 331.77 404.69 C 323.99 404.68 316.21 404.66 308.43 404.70 Z" />
</svg>
