<?xml version="1.0" encoding="UTF-8" ?>
<!DOCTYPE svg PUBLIC "-//W3C//DTD SVG 1.1//EN" "http://www.w3.org/Graphics/SVG/1.1/DTD/svg11.dtd">
<svg width="512pt" height="512pt" viewBox="0 0 512 512" version="1.1" xmlns="http://www.w3.org/2000/svg">
<path fill="#04aeda" opacity="1.00" d=" M 0.00 0.00 L 512.00 0.00 L 512.00 512.00 L 0.00 512.00 L 0.00 0.00 Z" />
<path fill="#ffffff" opacity="1.00" d=" M 272.08 204.30 C 274.74 197.23 282.55 192.24 290.10 194.18 C 299.26 195.82 305.17 206.78 301.24 215.29 C 297.86 224.22 285.58 227.93 277.96 222.06 C 275.25 220.20 273.46 217.39 272.12 214.46 C 263.74 214.53 255.37 214.50 246.99 214.50 C 242.68 214.46 238.31 216.20 235.43 219.46 C 225.46 229.86 215.70 240.46 205.64 250.78 C 258.65 250.92 311.66 250.79 364.66 250.84 C 364.66 246.58 364.64 242.31 364.67 238.05 C 375.03 244.08 385.39 250.13 395.83 256.02 C 385.41 261.95 375.03 267.97 364.67 274.01 C 364.64 269.75 364.66 265.49 364.66 261.23 C 324.61 261.28 284.56 261.17 244.51 261.29 C 254.80 271.77 264.69 282.63 274.90 293.18 C 277.77 296.10 281.93 297.59 285.99 297.54 C 294.08 297.52 302.18 297.68 310.28 297.49 C 310.22 294.04 310.22 290.59 310.23 287.14 C 320.58 287.15 330.94 287.15 341.29 287.14 C 341.30 297.51 341.29 307.88 341.30 318.24 C 330.94 318.26 320.58 318.25 310.22 318.25 C 310.24 314.74 310.24 311.24 310.22 307.73 C 302.15 307.68 294.07 307.81 286.00 307.75 C 277.76 307.88 269.98 303.49 264.57 297.50 C 254.73 286.97 244.72 276.60 234.89 266.06 C 231.89 262.78 227.44 261.02 223.01 261.20 C 204.42 261.22 185.82 261.15 167.22 261.23 C 165.49 269.18 160.03 276.25 152.58 279.62 C 147.76 282.01 142.18 282.26 136.93 281.54 C 127.08 279.82 118.76 271.85 116.48 262.14 C 113.34 250.82 119.55 237.97 130.02 232.87 C 138.88 228.33 150.46 229.43 158.11 235.89 C 162.77 239.63 165.89 245.02 167.22 250.80 C 173.79 250.78 180.38 251.02 186.94 250.68 C 191.69 250.23 195.44 246.94 198.41 243.46 C 207.37 233.74 216.66 224.33 225.61 214.59 C 231.26 208.37 239.43 203.86 248.02 204.30 C 256.04 204.31 264.06 204.31 272.08 204.30 Z" />
</svg>
