<?xml version="1.0" encoding="UTF-8" ?>
<!DOCTYPE svg PUBLIC "-//W3C//DTD SVG 1.1//EN" "http://www.w3.org/Graphics/SVG/1.1/DTD/svg11.dtd">
<svg width="512pt" height="512pt" viewBox="0 0 512 512" version="1.1" xmlns="http://www.w3.org/2000/svg">
<path fill="#04aeda" opacity="1.00" d=" M 0.00 0.00 L 512.00 0.00 L 512.00 512.00 L 0.00 512.00 L 0.00 0.00 Z" />
<path fill="#ffffff" opacity="1.00" d=" M 135.33 101.41 C 215.51 101.31 295.69 101.35 375.86 101.39 C 383.22 101.04 389.74 107.73 389.60 114.99 C 389.59 209.01 389.61 303.03 389.59 397.05 C 389.53 403.56 383.99 410.29 377.13 409.93 C 296.07 409.91 215.00 409.95 133.93 409.91 C 128.52 409.99 124.19 405.40 122.53 400.59 C 122.15 397.75 122.38 394.87 122.33 392.02 C 122.32 299.67 122.36 207.31 122.32 114.95 C 121.62 107.81 128.29 101.30 135.33 101.41 Z" />
<path fill="#04aeda" opacity="1.00" d=" M 140.37 113.43 C 147.59 109.78 157.05 115.96 156.81 123.98 C 157.37 131.20 149.97 137.35 142.95 135.76 C 136.32 134.80 131.77 127.34 133.75 120.97 C 134.75 117.67 137.27 114.91 140.37 113.43 Z" />
<path fill="#04aeda" opacity="1.00" d=" M 361.44 113.64 C 367.56 110.29 375.88 114.08 377.78 120.70 C 380.38 127.64 374.46 135.98 367.09 135.89 C 360.45 136.56 354.53 130.40 354.67 123.92 C 354.94 119.63 357.49 115.47 361.44 113.64 Z" />
<path fill="#04aeda" opacity="1.00" d=" M 166.80 195.81 C 171.30 195.79 175.81 195.81 180.32 195.80 C 188.27 218.24 196.03 240.75 203.90 263.22 C 206.44 270.72 209.51 278.07 210.94 285.90 C 211.30 283.08 211.86 280.28 212.81 277.60 C 222.53 250.34 232.30 223.10 241.97 195.82 C 246.34 195.79 250.71 195.79 255.09 195.82 C 242.51 229.91 229.91 263.99 217.23 298.04 C 212.77 298.03 208.30 298.11 203.85 297.95 C 191.51 263.90 179.18 229.85 166.80 195.81 Z" />
<path fill="#04aeda" opacity="1.00" d=" M 286.14 195.82 C 289.90 195.80 293.65 195.80 297.41 195.80 C 313.35 235.58 329.34 275.35 345.09 315.22 C 341.52 315.23 337.96 315.20 334.40 315.30 C 317.99 275.61 302.35 235.59 286.14 195.82 Z" />
<path fill="#04aeda" opacity="1.00" d=" M 268.42 224.55 C 273.18 221.37 280.77 225.04 280.66 230.92 C 281.47 237.13 273.65 241.74 268.48 238.34 C 263.34 235.55 263.23 227.36 268.42 224.55 Z" />
<path fill="#04aeda" opacity="1.00" d=" M 269.24 284.16 C 274.40 281.44 281.35 286.15 280.67 291.96 C 280.89 298.48 271.90 302.22 267.33 297.67 C 262.80 294.13 264.08 286.41 269.24 284.16 Z" />
<path fill="#04aeda" opacity="1.00" d=" M 141.54 375.75 C 148.35 373.38 156.43 378.66 156.77 385.89 C 157.66 392.19 152.40 398.36 146.12 398.72 C 139.52 399.51 133.16 393.63 133.33 387.02 C 133.18 381.97 136.86 377.35 141.54 375.75 Z" />
<path fill="#04aeda" opacity="1.00" d=" M 362.62 375.87 C 368.55 373.64 375.65 377.12 377.64 383.09 C 380.60 390.17 374.52 398.85 366.92 398.75 C 360.41 399.23 354.73 393.33 354.65 386.97 C 354.81 382.12 358.03 377.52 362.62 375.87 Z" />
</svg>
