<?xml version="1.0" encoding="UTF-8" ?>
<!DOCTYPE svg PUBLIC "-//W3C//DTD SVG 1.1//EN" "http://www.w3.org/Graphics/SVG/1.1/DTD/svg11.dtd">
<svg width="512pt" height="512pt" viewBox="0 0 512 512" version="1.1" xmlns="http://www.w3.org/2000/svg">
<path fill="#04aeda" opacity="1.00" d=" M 0.00 0.00 L 512.00 0.00 L 512.00 512.00 L 0.00 512.00 L 0.00 0.00 Z" />
<path fill="#ffffff" opacity="1.00" d=" M 135.34 101.41 C 215.52 101.31 295.70 101.35 375.87 101.39 C 383.25 101.05 389.76 107.78 389.61 115.06 C 389.58 209.08 389.61 303.10 389.59 397.13 C 389.50 403.64 383.91 410.33 377.06 409.93 C 296.37 409.93 215.68 409.91 135.00 409.94 C 128.13 410.48 121.76 403.76 122.32 396.98 C 122.35 302.63 122.33 208.27 122.33 113.92 C 122.20 107.15 128.68 101.32 135.34 101.41 Z" />
<path fill="#04aeda" opacity="1.00" d=" M 140.40 113.42 C 147.61 109.80 157.04 115.96 156.81 123.96 C 157.29 130.37 151.38 136.35 144.97 135.90 C 138.63 136.19 133.08 130.26 133.33 124.02 C 133.27 119.47 136.37 115.32 140.40 113.42 Z" />
<path fill="#04aeda" opacity="1.00" d=" M 361.46 113.62 C 367.58 110.30 375.87 114.09 377.78 120.68 C 380.38 127.64 374.45 136.00 367.05 135.89 C 360.44 136.54 354.54 130.41 354.67 123.94 C 354.92 119.64 357.50 115.46 361.46 113.62 Z" />
<path fill="#04aeda" opacity="1.00" d=" M 144.29 195.81 C 148.76 195.80 153.24 195.80 157.71 195.82 C 163.93 218.34 170.20 240.85 176.42 263.37 C 178.29 270.35 180.75 277.24 181.08 284.52 C 182.47 276.87 184.91 269.48 187.01 262.01 C 193.32 239.94 199.81 217.93 206.00 195.84 C 209.84 195.79 213.67 195.84 217.51 195.73 C 224.96 221.37 231.67 247.24 238.88 272.95 C 239.98 276.62 240.62 280.40 240.94 284.21 C 242.34 276.58 244.52 269.12 246.48 261.62 C 252.31 239.69 258.14 217.76 263.94 195.82 C 268.33 195.80 272.73 195.80 277.12 195.81 C 267.56 229.86 257.85 263.87 248.33 297.94 C 243.53 298.11 238.73 298.02 233.93 297.92 C 228.36 277.57 222.52 257.29 216.85 236.96 C 214.72 229.07 211.97 221.29 211.14 213.11 C 210.86 216.32 210.56 219.55 209.66 222.65 C 202.93 246.45 196.16 270.23 189.48 294.05 C 188.97 295.30 189.01 296.96 188.04 297.96 C 183.41 298.18 178.77 298.07 174.14 297.89 C 164.29 263.83 154.25 229.83 144.29 195.81 Z" />
<path fill="#04aeda" opacity="1.00" d=" M 307.89 195.82 C 311.64 195.79 315.39 195.80 319.14 195.81 C 335.06 235.61 351.01 275.39 366.83 315.22 C 363.18 315.24 359.54 315.23 355.89 315.22 C 339.88 275.42 323.88 235.62 307.89 195.82 Z" />
<path fill="#04aeda" opacity="1.00" d=" M 290.44 224.35 C 295.31 221.52 302.41 225.25 302.41 231.00 C 303.07 237.33 294.99 241.86 289.90 238.16 C 284.87 235.18 285.15 226.90 290.44 224.35 Z" />
<path fill="#04aeda" opacity="1.00" d=" M 290.40 284.44 C 295.59 281.16 303.01 285.93 302.41 291.97 C 302.42 298.09 294.57 301.92 289.71 298.26 C 284.82 295.15 285.28 287.07 290.40 284.44 Z" />
<path fill="#04aeda" opacity="1.00" d=" M 141.54 375.75 C 148.35 373.38 156.44 378.67 156.77 385.90 C 157.65 392.20 152.41 398.36 146.12 398.72 C 139.54 399.51 133.18 393.65 133.33 387.06 C 133.16 381.99 136.85 377.35 141.54 375.75 Z" />
<path fill="#04aeda" opacity="1.00" d=" M 363.41 375.62 C 369.52 373.80 376.33 377.83 377.93 383.93 C 380.14 390.84 374.26 398.74 367.05 398.74 C 360.18 399.34 354.11 392.74 354.71 386.00 C 355.27 381.24 358.74 376.91 363.41 375.62 Z" />
</svg>
