<?xml version="1.0" encoding="UTF-8" ?>
<!DOCTYPE svg PUBLIC "-//W3C//DTD SVG 1.1//EN" "http://www.w3.org/Graphics/SVG/1.1/DTD/svg11.dtd">
<svg width="512pt" height="512pt" viewBox="0 0 512 512" version="1.1" xmlns="http://www.w3.org/2000/svg">
<path fill="#04aeda" opacity="1.00" d=" M 0.00 0.00 L 512.00 0.00 L 512.00 512.00 L 0.00 512.00 L 0.00 0.00 Z" />
<path fill="#ffffff" opacity="1.00" d=" M 170.76 114.01 C 171.77 113.32 172.67 112.19 174.03 112.32 C 226.69 112.25 279.36 112.33 332.02 112.28 C 334.21 111.84 336.51 113.50 336.14 115.86 C 336.13 207.26 336.14 298.67 336.13 390.07 C 336.08 393.58 336.49 397.16 335.54 400.61 C 280.84 400.56 226.14 400.57 171.43 400.60 C 171.11 399.40 170.90 398.18 170.81 396.95 C 170.79 302.63 170.89 208.32 170.76 114.01 Z" />
<path fill="#04aeda" opacity="1.00" d=" M 175.58 117.73 C 227.50 117.72 279.42 117.71 331.33 117.74 C 331.38 194.91 331.38 272.08 331.34 349.25 C 279.42 349.26 227.50 349.27 175.58 349.25 C 175.54 272.07 175.54 194.90 175.58 117.73 Z" />
<path fill="#ffffff" opacity="1.00" d=" M 186.44 194.67 C 186.53 173.37 186.37 152.08 186.52 130.79 C 207.05 130.85 227.58 130.81 248.10 130.81 C 250.17 130.28 250.36 132.68 250.20 134.05 C 250.14 154.21 250.13 174.38 250.20 194.54 C 228.95 194.77 207.70 194.51 186.44 194.67 Z" />
<path fill="#ffffff" opacity="1.00" d=" M 256.80 131.61 C 257.03 131.43 257.50 131.06 257.73 130.88 C 278.62 130.71 299.52 130.90 320.41 130.79 C 320.70 152.08 320.57 173.38 320.47 194.67 C 299.23 194.54 277.98 194.71 256.74 194.59 C 256.83 173.59 256.70 152.60 256.80 131.61 Z" />
<path fill="#ffffff" opacity="1.00" d=" M 185.57 201.68 C 206.82 201.71 228.08 201.67 249.33 201.70 C 249.36 222.98 249.28 244.27 249.37 265.55 C 228.09 265.58 206.80 265.57 185.52 265.56 C 185.62 244.27 185.52 222.97 185.57 201.68 Z" />
<path fill="#ffffff" opacity="1.00" d=" M 256.72 201.70 C 277.98 201.66 299.24 201.73 320.51 201.66 C 320.59 222.97 320.48 244.27 320.56 265.57 C 299.27 265.55 277.97 265.60 256.67 265.55 C 256.77 244.26 256.68 222.98 256.72 201.70 Z" />
<path fill="#ffffff" opacity="1.00" d=" M 185.53 272.33 C 206.81 272.32 228.09 272.31 249.37 272.34 C 249.28 293.63 249.37 314.93 249.32 336.23 C 228.07 336.24 206.82 336.21 185.58 336.25 C 185.51 314.94 185.61 293.63 185.53 272.33 Z" />
<path fill="#ffffff" opacity="1.00" d=" M 256.68 272.35 C 277.97 272.28 299.26 272.36 320.55 272.31 C 320.49 293.63 320.59 314.95 320.50 336.26 C 299.24 336.19 277.98 336.26 256.72 336.23 C 256.68 314.94 256.76 293.64 256.68 272.35 Z" />
<path fill="#04aeda" opacity="1.00" d=" M 238.62 355.52 C 244.40 352.09 252.46 352.17 257.72 356.64 C 255.81 362.18 254.55 367.93 252.50 373.43 C 247.02 369.16 239.64 369.88 233.59 372.47 C 235.28 366.82 236.79 361.11 238.62 355.52 Z" />
<path fill="#04aeda" opacity="1.00" d=" M 259.48 358.00 C 262.18 359.47 264.96 361.07 268.10 361.33 C 271.69 361.63 274.93 359.63 278.48 359.52 C 276.61 365.04 275.25 370.72 273.44 376.26 C 267.35 378.88 259.99 379.27 254.49 375.07 C 256.01 369.34 257.69 363.65 259.48 358.00 Z" />
<path fill="#04aeda" opacity="1.00" d=" M 232.84 374.81 C 238.84 371.56 246.65 371.24 252.08 375.79 C 250.42 381.42 248.85 387.08 247.08 392.67 C 244.52 391.25 241.96 389.49 238.92 389.45 C 235.30 389.10 231.82 390.35 228.45 391.49 C 229.27 385.78 231.64 380.44 232.84 374.81 Z" />
<path fill="#04aeda" opacity="1.00" d=" M 253.81 377.24 C 256.43 378.57 259.03 380.25 262.05 380.43 C 265.79 380.78 269.38 379.40 272.89 378.30 C 271.41 383.97 269.57 389.55 268.10 395.23 C 262.09 398.34 254.37 398.65 248.97 394.12 C 250.46 388.46 252.23 382.88 253.81 377.24 Z" />
</svg>
