<?xml version="1.0" encoding="UTF-8" ?>
<!DOCTYPE svg PUBLIC "-//W3C//DTD SVG 1.1//EN" "http://www.w3.org/Graphics/SVG/1.1/DTD/svg11.dtd">
<svg width="512pt" height="512pt" viewBox="0 0 512 512" version="1.1" xmlns="http://www.w3.org/2000/svg">
<path fill="#05aedc" opacity="1.00" d=" M 0.00 0.00 L 512.00 0.00 L 512.00 512.00 L 0.00 512.00 L 0.00 0.00 Z" />
<path fill="#ffffff" opacity="1.00" d=" M 135.25 101.41 C 215.48 101.31 295.72 101.35 375.95 101.39 C 383.26 101.10 389.68 107.73 389.60 114.93 C 389.58 208.95 389.61 302.98 389.59 397.00 C 389.56 403.57 383.94 410.35 377.02 409.93 C 296.36 409.93 215.71 409.91 135.05 409.93 C 128.15 410.51 121.75 403.76 122.32 396.96 C 122.35 302.63 122.33 208.30 122.33 113.98 C 122.17 107.22 128.60 101.37 135.25 101.41 Z" />
<path fill="#05aedc" opacity="1.00" d=" M 140.25 113.48 C 147.13 109.93 156.28 115.32 156.75 122.96 C 157.82 129.66 151.81 136.36 145.03 135.90 C 138.66 136.23 133.07 130.28 133.32 124.01 C 133.28 119.51 136.31 115.41 140.25 113.48 Z" />
<path fill="#05aedc" opacity="1.00" d=" M 361.46 113.61 C 367.38 110.43 375.41 113.83 377.58 120.11 C 380.68 127.17 374.63 136.09 366.96 135.90 C 360.40 136.49 354.58 130.41 354.67 124.01 C 354.89 119.67 357.48 115.47 361.46 113.61 Z" />
<path fill="#05aedc" opacity="1.00" d=" M 242.74 187.93 C 273.52 182.02 304.24 175.79 334.99 169.72 C 335.08 196.99 335.25 224.27 334.92 251.54 C 316.28 251.65 297.65 251.78 279.01 251.86 C 266.92 252.47 254.80 252.36 242.69 252.47 C 242.74 230.96 242.65 209.44 242.74 187.93 Z" />
<path fill="#05aedc" opacity="1.00" d=" M 177.10 200.91 C 196.24 197.32 215.36 193.54 234.43 189.54 C 234.42 210.53 234.39 231.52 234.44 252.51 C 215.26 252.43 196.09 253.29 176.91 253.17 C 177.03 235.75 176.66 218.32 177.10 200.91 Z" />
<path fill="#05aedc" opacity="1.00" d=" M 176.97 259.70 C 196.14 260.17 215.32 260.20 234.50 260.45 C 234.31 281.40 234.46 302.36 234.43 323.31 C 215.28 319.38 196.08 315.74 176.93 311.82 C 176.92 294.44 176.90 277.07 176.97 259.70 Z" />
<path fill="#05aedc" opacity="1.00" d=" M 242.64 260.49 C 273.34 260.80 304.04 261.13 334.74 261.62 C 335.59 266.85 334.87 272.60 335.04 278.03 C 335.01 299.69 335.02 321.34 335.11 343.01 C 304.24 337.46 273.58 330.73 242.74 325.03 C 242.61 303.52 242.81 282.01 242.64 260.49 Z" />
<path fill="#05aedc" opacity="1.00" d=" M 141.50 375.76 C 148.35 373.35 156.51 378.70 156.78 385.99 C 157.69 392.67 151.68 399.04 145.02 398.76 C 138.79 398.91 133.18 393.23 133.32 387.02 C 133.18 381.98 136.84 377.38 141.50 375.76 Z" />
<path fill="#05aedc" opacity="1.00" d=" M 363.45 375.61 C 369.54 373.82 376.33 377.83 377.91 383.90 C 380.18 390.83 374.24 398.79 366.99 398.75 C 359.80 399.35 353.45 391.98 354.89 384.98 C 355.75 380.59 359.12 376.80 363.45 375.61 Z" />
</svg>
