<?xml version="1.0" encoding="UTF-8" ?>
<!DOCTYPE svg PUBLIC "-//W3C//DTD SVG 1.1//EN" "http://www.w3.org/Graphics/SVG/1.1/DTD/svg11.dtd">
<svg width="512pt" height="512pt" viewBox="0 0 512 512" version="1.1" xmlns="http://www.w3.org/2000/svg">
<path fill="#04aeda" opacity="1.00" d=" M 0.00 0.00 L 512.00 0.00 L 512.00 512.00 L 0.00 512.00 L 0.00 0.00 Z" />
<path fill="#ffffff" opacity="1.00" d=" M 135.31 101.41 C 215.50 101.31 295.70 101.35 375.89 101.39 C 383.25 101.06 389.73 107.75 389.60 115.00 C 389.58 209.03 389.61 303.06 389.59 397.08 C 389.52 403.62 383.91 410.34 377.04 409.93 C 296.34 409.93 215.64 409.91 134.94 409.93 C 128.09 410.45 121.77 403.75 122.32 397.00 C 122.35 302.65 122.33 208.30 122.33 113.95 C 122.18 107.18 128.65 101.33 135.31 101.41 Z" />
<path fill="#04aeda" opacity="1.00" d=" M 140.33 113.44 C 147.56 109.77 157.04 115.94 156.81 123.97 C 157.33 130.77 150.70 136.87 143.97 135.86 C 136.81 135.58 131.56 127.55 133.80 120.82 C 134.82 117.60 137.31 114.91 140.33 113.44 Z" />
<path fill="#04aeda" opacity="1.00" d=" M 361.41 113.65 C 367.56 110.27 375.90 114.09 377.80 120.73 C 380.35 127.68 374.45 135.97 367.08 135.89 C 360.45 136.56 354.51 130.40 354.68 123.91 C 354.93 119.63 357.49 115.49 361.41 113.65 Z" />
<path fill="#04aeda" opacity="1.00" d=" M 205.01 186.83 C 218.01 180.57 232.81 177.90 247.09 180.32 C 255.38 181.90 263.05 185.70 270.01 190.39 C 264.76 209.86 258.76 229.14 253.25 248.56 C 243.67 241.64 231.95 237.47 220.06 237.72 C 209.08 237.49 198.33 240.62 188.39 245.10 C 193.89 225.66 199.46 206.25 205.01 186.83 Z" />
<path fill="#04aeda" opacity="1.00" d=" M 277.98 196.06 C 284.09 200.44 290.57 204.67 298.04 206.26 C 313.15 209.69 328.75 205.74 343.01 200.65 C 337.14 220.17 331.78 239.85 325.60 259.27 C 312.64 263.73 298.85 267.34 285.05 265.37 C 276.19 264.14 268.29 259.52 261.32 254.14 C 266.92 234.80 272.52 215.45 277.98 196.06 Z" />
<path fill="#04aeda" opacity="1.00" d=" M 185.67 254.90 C 198.54 249.19 212.97 245.72 227.03 248.38 C 235.49 249.85 243.32 253.65 250.50 258.26 C 245.27 277.53 239.08 296.53 233.93 315.82 C 226.88 311.44 219.51 307.27 211.22 305.81 C 196.93 302.95 182.07 306.07 169.02 312.15 C 174.52 293.05 180.00 273.95 185.67 254.90 Z" />
<path fill="#04aeda" opacity="1.00" d=" M 258.73 264.11 C 266.46 270.40 275.83 275.26 285.97 275.63 C 298.62 276.49 311.09 273.26 322.92 269.09 C 317.33 288.16 311.52 307.17 306.19 326.32 C 293.55 331.15 279.79 334.55 266.19 332.87 C 257.25 331.87 249.29 327.29 242.22 321.99 C 247.77 302.71 253.19 283.39 258.73 264.11 Z" />
<path fill="#04aeda" opacity="1.00" d=" M 141.58 375.74 C 148.38 373.40 156.45 378.68 156.77 385.91 C 157.72 392.60 151.72 399.04 145.02 398.75 C 138.03 398.96 132.07 391.82 133.48 384.97 C 134.22 380.71 137.53 377.12 141.58 375.74 Z" />
<path fill="#04aeda" opacity="1.00" d=" M 363.36 375.64 C 369.48 373.78 376.32 377.81 377.93 383.93 C 380.15 390.84 374.26 398.75 367.04 398.74 C 360.16 399.33 354.07 392.69 354.72 385.95 C 355.29 381.22 358.73 376.93 363.36 375.64 Z" />
</svg>
