<?xml version="1.0" encoding="UTF-8" ?>
<!DOCTYPE svg PUBLIC "-//W3C//DTD SVG 1.1//EN" "http://www.w3.org/Graphics/SVG/1.1/DTD/svg11.dtd">
<svg width="512pt" height="512pt" viewBox="0 0 512 512" version="1.1" xmlns="http://www.w3.org/2000/svg">
<path fill="#04aeda" opacity="1.00" d=" M 0.00 0.00 L 512.00 0.00 L 512.00 512.00 L 0.00 512.00 L 0.00 0.00 Z" />
<path fill="#ffffff" opacity="1.00" d=" M 135.34 101.41 C 215.51 101.31 295.69 101.35 375.86 101.39 C 383.22 101.04 389.74 107.74 389.60 115.00 C 389.60 208.66 389.58 302.32 389.61 395.99 C 389.97 401.81 386.10 407.79 380.48 409.58 C 377.70 410.17 374.84 409.87 372.02 409.93 C 293.00 409.93 213.97 409.91 134.94 409.93 C 128.13 410.46 121.79 403.78 122.32 397.06 C 122.34 303.05 122.35 209.04 122.32 115.03 C 121.58 107.86 128.27 101.29 135.34 101.41 Z" />
<path fill="#04aeda" opacity="1.00" d=" M 140.32 113.45 C 147.52 109.78 156.99 115.89 156.81 123.90 C 157.33 130.32 151.42 136.35 144.98 135.90 C 138.64 136.20 133.07 130.26 133.33 124.01 C 133.27 119.48 136.35 115.37 140.32 113.45 Z" />
<path fill="#04aeda" opacity="1.00" d=" M 361.43 113.64 C 367.31 110.42 375.34 113.79 377.53 120.03 C 380.71 127.06 374.73 136.01 367.07 135.89 C 360.47 136.55 354.59 130.46 354.67 124.02 C 354.90 119.71 357.45 115.49 361.43 113.64 Z" />
<path fill="#04aeda" opacity="1.00" d=" M 172.15 195.82 C 177.12 195.79 182.10 195.81 187.08 195.80 C 195.11 209.76 203.44 223.57 211.22 237.65 L 212.02 238.21 C 216.67 229.04 222.53 220.56 227.72 211.70 C 231.11 206.41 234.06 200.83 237.70 195.71 C 242.28 195.91 246.87 195.75 251.47 195.81 C 240.86 212.44 230.34 229.12 219.75 245.76 C 218.88 246.71 220.07 247.67 220.47 248.52 C 230.97 265.00 241.40 281.52 251.79 298.07 C 246.84 297.85 241.88 298.06 236.92 298.02 C 228.37 283.29 218.93 269.06 210.94 254.02 C 208.93 259.02 205.79 263.43 203.02 268.02 C 197.30 277.30 191.51 286.54 185.82 295.84 C 185.12 296.72 184.59 298.44 183.12 298.03 C 178.57 297.94 174.02 298.07 169.47 298.04 C 180.88 280.95 192.23 263.82 203.68 246.76 C 193.24 229.74 182.64 212.81 172.15 195.82 Z" />
<path fill="#04aeda" opacity="1.00" d=" M 283.33 195.81 C 287.01 195.78 290.69 195.87 294.37 195.72 C 294.82 196.49 295.22 197.29 295.57 198.12 C 311.18 237.15 326.80 276.17 342.35 315.23 C 338.75 315.23 335.15 315.20 331.55 315.28 C 315.21 275.57 299.53 235.58 283.33 195.81 Z" />
<path fill="#04aeda" opacity="1.00" d=" M 265.36 224.29 C 270.24 221.59 277.16 225.28 277.25 230.96 C 277.82 237.00 270.58 241.56 265.35 238.57 C 259.76 235.95 259.67 226.84 265.36 224.29 Z" />
<path fill="#04aeda" opacity="1.00" d=" M 265.33 284.37 C 270.58 281.18 277.88 286.06 277.24 292.09 C 277.11 298.09 269.50 301.81 264.64 298.35 C 259.61 295.32 260.06 286.92 265.33 284.37 Z" />
<path fill="#04aeda" opacity="1.00" d=" M 141.50 375.77 C 148.31 373.35 156.45 378.65 156.77 385.90 C 157.74 392.61 151.68 399.07 144.97 398.75 C 138.78 398.89 133.19 393.22 133.33 387.04 C 133.16 382.00 136.84 377.39 141.50 375.77 Z" />
<path fill="#04aeda" opacity="1.00" d=" M 362.61 375.87 C 368.55 373.64 375.64 377.12 377.64 383.09 C 380.59 390.13 374.57 398.79 367.01 398.74 C 360.13 399.32 354.07 392.67 354.72 385.93 C 355.29 381.47 358.35 377.41 362.61 375.87 Z" />
</svg>
