<?xml version="1.0" encoding="UTF-8" ?>
<!DOCTYPE svg PUBLIC "-//W3C//DTD SVG 1.1//EN" "http://www.w3.org/Graphics/SVG/1.1/DTD/svg11.dtd">
<svg width="512pt" height="512pt" viewBox="0 0 512 512" version="1.1" xmlns="http://www.w3.org/2000/svg">
<path fill="#04aeda" opacity="1.00" d=" M 0.00 0.00 L 512.00 0.00 L 512.00 512.00 L 0.00 512.00 L 0.00 0.00 Z" />
<path fill="#ffffff" opacity="1.00" d=" M 270.56 145.45 C 310.73 145.57 350.91 145.30 391.08 145.58 C 393.30 155.30 395.91 164.93 398.44 174.57 C 353.32 174.63 308.20 174.60 263.08 174.59 C 265.57 164.87 268.01 155.15 270.56 145.45 Z" />
<path fill="#ffffff" opacity="1.00" d=" M 101.36 184.60 C 103.47 183.85 105.73 183.64 107.97 183.63 C 206.97 183.66 305.97 183.62 404.97 183.65 C 412.80 183.28 420.86 189.86 420.51 198.00 C 420.50 249.34 420.49 300.69 420.51 352.03 C 421.14 359.83 413.75 366.95 406.06 366.61 C 306.04 366.60 206.01 366.59 105.99 366.61 C 100.16 366.83 94.71 362.82 92.46 357.56 C 91.14 354.54 91.59 351.17 91.51 347.97 C 91.52 298.98 91.53 249.99 91.50 201.00 C 90.44 194.03 94.63 186.85 101.36 184.60 Z" />
<path fill="#04aeda" opacity="1.00" d=" M 352.98 225.09 C 358.03 242.35 362.54 259.78 367.66 277.02 C 383.24 278.89 398.71 281.68 414.27 283.82 C 401.84 292.44 388.98 300.44 376.46 308.93 C 381.22 326.14 386.26 343.28 390.77 360.55 C 378.15 348.50 365.53 336.44 352.97 324.31 C 340.35 332.63 327.73 340.95 315.11 349.26 C 319.68 333.39 324.65 317.63 329.50 301.84 C 316.84 289.71 304.23 277.50 291.52 265.41 C 307.16 267.67 322.78 270.04 338.39 272.44 C 343.35 256.68 347.93 240.81 352.98 225.09 Z" />
</svg>
