<?xml version="1.0" encoding="UTF-8" ?>
<!DOCTYPE svg PUBLIC "-//W3C//DTD SVG 1.1//EN" "http://www.w3.org/Graphics/SVG/1.1/DTD/svg11.dtd">
<svg width="512pt" height="512pt" viewBox="0 0 512 512" version="1.1" xmlns="http://www.w3.org/2000/svg">
<path fill="#f2d013" opacity="1.00" d=" M 0.00 0.00 L 512.00 0.00 L 512.00 512.00 L 0.00 512.00 L 0.00 0.00 Z" />
<path fill="#ffffff" opacity="1.00" d=" M 253.46 126.19 C 254.34 123.34 255.00 120.40 256.30 117.70 C 266.27 152.96 276.07 188.27 285.93 223.56 C 317.98 228.46 350.03 233.38 382.11 238.01 C 356.45 255.62 330.00 272.11 304.29 289.66 C 314.42 325.00 324.29 360.44 334.02 395.90 C 308.21 370.82 282.13 346.01 256.16 321.10 C 230.23 338.11 204.45 355.38 178.35 372.14 C 188.29 339.75 198.17 307.33 208.03 274.91 C 182.14 249.94 156.10 225.11 130.18 200.17 C 162.28 204.95 194.37 209.77 226.45 214.69 C 235.46 185.19 244.47 155.69 253.46 126.19 Z" />
</svg>
