<?xml version="1.0" encoding="UTF-8" ?>
<!DOCTYPE svg PUBLIC "-//W3C//DTD SVG 1.1//EN" "http://www.w3.org/Graphics/SVG/1.1/DTD/svg11.dtd">
<svg width="512pt" height="512pt" viewBox="0 0 512 512" version="1.1" xmlns="http://www.w3.org/2000/svg">
<path fill="#009f3c" opacity="1.00" d=" M 0.00 0.00 L 512.00 0.00 L 512.00 512.00 L 0.00 512.00 L 0.00 0.00 Z" />
<path fill="#ffffff" opacity="1.00" d=" M 176.17 165.03 C 177.01 156.59 184.36 148.99 192.91 148.43 C 255.93 148.42 318.97 148.43 382.00 148.43 C 391.19 148.97 399.15 157.74 398.81 166.96 C 398.76 227.01 398.80 287.06 398.79 347.10 C 398.61 355.63 391.45 363.48 383.02 364.55 C 320.35 364.62 257.68 364.52 195.02 364.60 C 185.63 365.38 177.02 357.16 176.18 348.00 C 175.42 340.88 176.00 333.71 175.76 326.57 C 230.79 326.45 285.83 326.62 340.86 326.49 C 353.22 324.06 361.78 311.34 360.59 298.99 C 360.49 267.44 360.71 235.88 360.48 204.34 C 357.51 193.84 346.87 186.43 336.06 186.46 C 282.63 186.45 229.19 186.51 175.76 186.43 C 176.01 179.30 175.41 172.14 176.17 165.03 Z" />
<path fill="#ffffff" opacity="1.00" d=" M 119.16 209.02 C 121.39 208.45 123.73 208.71 126.01 208.66 C 158.68 208.71 191.36 208.64 224.04 208.69 C 227.97 208.45 231.91 211.83 231.53 215.92 C 231.53 241.62 231.53 267.33 231.53 293.04 C 231.92 297.11 228.03 300.51 224.08 300.20 C 190.06 300.23 156.05 300.20 122.03 300.22 C 118.40 300.54 114.31 297.95 114.24 294.07 C 114.16 268.04 114.25 242.01 114.20 215.98 C 113.85 212.83 116.18 209.84 119.16 209.02 Z" />
</svg>
