<?xml version="1.0" encoding="UTF-8" ?>
<!DOCTYPE svg PUBLIC "-//W3C//DTD SVG 1.1//EN" "http://www.w3.org/Graphics/SVG/1.1/DTD/svg11.dtd">
<svg width="512pt" height="512pt" viewBox="0 0 512 512" version="1.1" xmlns="http://www.w3.org/2000/svg">
<path fill="#008bd3" opacity="1.00" d=" M 0.00 0.00 L 512.00 0.00 L 512.00 512.00 L 0.00 512.00 L 0.00 0.00 Z" />
<path fill="#ffffff" opacity="1.00" d=" M 270.51 105.37 C 309.36 105.32 348.21 105.36 387.05 105.34 C 388.43 105.48 389.95 105.02 391.24 105.68 C 393.45 115.32 395.91 124.91 398.59 134.43 L 397.83 134.69 C 352.92 134.64 308.00 134.77 263.09 134.62 C 265.36 124.83 267.92 115.09 270.51 105.37 Z" />
<path fill="#ffffff" opacity="1.00" d=" M 100.56 144.73 C 104.53 143.11 108.85 143.62 113.03 143.55 C 210.36 143.55 307.70 143.53 405.03 143.56 C 412.87 143.15 421.10 149.84 420.58 158.03 C 420.57 209.35 420.57 260.66 420.58 311.98 C 421.30 319.20 415.02 325.88 408.02 326.65 C 307.33 326.70 206.64 326.64 105.96 326.67 C 98.52 327.07 91.40 320.38 91.42 312.92 C 91.42 261.30 91.43 209.68 91.42 158.05 C 91.16 152.20 95.39 147.01 100.56 144.73 Z" />
<path fill="#008bd3" opacity="1.00" d=" M 231.01 187.90 C 248.57 176.55 266.36 165.53 284.01 154.31 C 295.46 164.46 307.29 174.20 318.57 184.52 C 300.95 195.56 283.35 206.65 265.82 217.84 C 254.07 208.03 242.76 197.71 231.01 187.90 Z" />
<path fill="#008bd3" opacity="1.00" d=" M 327.01 183.32 C 338.40 173.73 349.73 164.09 360.99 154.36 L 362.07 154.47 C 379.32 165.74 396.72 176.77 414.02 187.98 C 402.45 198.00 390.74 207.86 379.09 217.79 C 361.86 206.67 344.65 195.49 327.32 184.52 C 327.24 184.22 327.09 183.62 327.01 183.32 Z" />
<path fill="#008bd3" opacity="1.00" d=" M 231.16 251.88 C 242.77 242.19 254.15 232.21 265.77 222.54 C 283.07 233.78 300.42 244.96 317.83 256.02 L 317.82 256.92 C 306.45 266.56 295.13 276.26 283.78 285.92 C 282.47 286.04 281.56 284.90 280.50 284.35 C 264.06 273.74 247.60 263.16 231.15 252.58 L 231.16 251.88 Z" />
<path fill="#008bd3" opacity="1.00" d=" M 326.99 255.98 C 344.36 245.12 361.62 234.08 378.98 223.21 L 379.78 223.05 C 391.18 233.09 402.85 242.84 414.14 253.00 C 396.47 264.09 378.82 275.21 361.23 286.42 C 349.93 276.53 338.56 266.71 327.21 256.88 L 326.99 255.98 Z" />
<path fill="#008bd3" opacity="1.00" d=" M 284.17 291.73 C 296.29 281.24 308.22 270.53 320.25 259.94 C 320.38 280.10 320.28 300.26 320.30 320.42 C 302.91 309.80 285.05 299.94 267.75 289.17 C 267.89 286.82 267.78 284.30 268.61 282.12 C 273.63 285.58 279.12 288.30 284.17 291.73 Z" />
<path fill="#008bd3" opacity="1.00" d=" M 325.36 260.67 C 337.50 270.27 349.26 280.59 361.12 290.62 C 366.36 287.63 371.49 284.42 376.69 281.35 C 376.82 283.65 376.93 285.96 377.31 288.25 C 359.99 298.74 342.85 309.65 325.48 320.01 C 325.30 300.23 325.53 280.45 325.36 260.67 Z" />
</svg>
