<?xml version="1.0" encoding="UTF-8" ?>
<!DOCTYPE svg PUBLIC "-//W3C//DTD SVG 1.1//EN" "http://www.w3.org/Graphics/SVG/1.1/DTD/svg11.dtd">
<svg width="512pt" height="512pt" viewBox="0 0 512 512" version="1.1" xmlns="http://www.w3.org/2000/svg">
<path fill="#1ba0e1" opacity="1.00" d=" M 0.00 0.00 L 512.00 0.00 L 512.00 512.00 L 0.00 512.00 L 0.00 0.00 Z" />
<path fill="#ffffff" opacity="1.00" d=" M 270.47 145.35 C 310.71 145.43 350.95 145.15 391.17 145.49 C 393.44 155.23 395.96 164.92 398.58 174.58 C 353.40 174.81 308.21 174.65 263.02 174.66 C 265.40 164.86 267.93 155.10 270.47 145.35 Z" />
<path fill="#ffffff" opacity="1.00" d=" M 101.37 184.46 C 105.10 183.17 109.10 183.61 112.97 183.54 C 210.33 183.55 307.68 183.53 405.03 183.55 C 412.88 183.18 421.05 189.80 420.59 198.00 C 420.57 249.69 420.58 301.38 420.58 353.07 C 420.70 360.18 414.09 366.52 407.08 366.66 C 306.71 366.69 206.35 366.64 105.98 366.68 C 98.18 367.07 90.84 359.81 91.42 351.96 C 91.43 300.63 91.42 249.29 91.42 197.95 C 91.23 191.87 95.81 186.44 101.37 184.46 Z" />
<path fill="#1ba0e1" opacity="1.00" d=" M 241.09 207.92 C 244.76 209.85 248.02 212.46 251.76 214.29 C 274.37 226.36 300.58 228.54 323.76 239.14 C 330.31 242.19 336.44 246.36 341.17 251.89 C 344.15 244.87 348.10 238.06 354.00 233.09 C 355.52 231.46 358.97 229.72 357.03 227.13 C 355.11 224.03 354.46 219.86 356.71 216.75 C 361.11 210.35 370.98 209.61 377.02 214.04 C 380.79 216.79 381.86 222.48 379.30 226.39 C 378.53 227.98 376.16 230.13 378.33 231.66 C 384.40 237.13 388.79 244.06 392.74 251.14 C 384.99 262.13 377.19 273.09 369.32 284.00 C 371.21 286.77 373.22 289.47 375.29 292.13 C 379.67 288.44 382.22 283.10 385.69 278.62 C 389.17 273.97 392.26 268.99 396.29 264.77 C 398.02 269.33 398.48 274.23 399.26 279.01 C 401.37 300.63 398.87 323.22 388.96 342.79 C 395.46 342.96 402.06 342.40 408.46 343.85 C 411.38 344.92 415.02 347.44 414.11 351.05 C 412.66 354.65 408.47 356.24 404.87 356.51 C 384.91 357.41 364.92 357.17 344.94 357.12 C 340.14 356.66 335.29 356.91 330.52 356.27 C 326.97 355.67 324.18 353.11 322.46 350.06 C 323.48 346.25 327.19 344.25 330.83 343.60 C 335.38 342.80 340.02 342.75 344.63 342.84 C 340.03 333.58 336.53 323.73 335.12 313.45 C 327.20 317.93 318.27 321.32 309.03 320.87 C 302.61 320.94 296.49 318.40 291.26 314.84 C 296.47 324.98 301.26 335.52 308.69 344.29 C 310.19 346.10 312.16 347.54 313.22 349.70 C 304.30 353.05 295.50 356.73 286.63 360.25 C 287.58 346.36 283.05 332.94 278.91 319.90 C 277.14 329.95 270.28 338.53 261.34 343.25 C 250.21 349.13 236.72 352.63 224.42 348.46 C 214.56 345.15 207.58 336.42 203.75 327.06 C 200.45 318.17 198.14 308.53 199.94 299.04 C 202.81 283.47 211.66 270.01 219.58 256.61 C 228.68 241.39 238.17 225.68 241.09 207.92 Z" />
</svg>
