<?xml version="1.0" encoding="UTF-8" ?>
<!DOCTYPE svg PUBLIC "-//W3C//DTD SVG 1.1//EN" "http://www.w3.org/Graphics/SVG/1.1/DTD/svg11.dtd">
<svg width="512pt" height="512pt" viewBox="0 0 512 512" version="1.1" xmlns="http://www.w3.org/2000/svg">
<path fill="#27aae1" opacity="1.00" d=" M 0.00 0.00 L 512.00 0.00 L 512.00 512.00 L 0.00 512.00 L 0.00 0.00 Z" />
<path fill="#ffffff" opacity="1.00" d=" M 140.43 131.32 C 148.83 124.83 159.49 121.48 170.09 121.64 C 227.71 121.64 285.33 121.61 342.95 121.66 C 357.53 121.60 371.93 128.71 380.66 140.40 C 387.15 148.78 390.50 159.43 390.35 170.01 C 390.38 197.94 390.37 225.88 390.36 253.81 C 346.31 253.76 302.26 253.81 258.21 253.78 C 258.28 212.66 258.09 171.55 258.30 130.43 C 256.76 130.42 255.22 130.43 253.69 130.44 C 253.93 171.55 253.71 212.67 253.80 253.78 C 209.75 253.81 165.70 253.75 121.65 253.81 C 121.64 225.54 121.61 197.26 121.66 168.99 C 121.61 154.42 128.73 140.03 140.43 131.32 Z" />
<path fill="#27aae1" opacity="1.00" d=" M 181.58 153.73 C 181.75 150.82 181.98 147.91 182.32 145.02 C 192.66 149.37 202.60 156.48 207.12 167.10 C 212.46 179.22 210.06 193.22 204.68 204.90 C 205.49 204.90 207.11 204.91 207.93 204.92 C 207.66 206.83 207.35 208.74 207.03 210.65 C 205.77 210.80 204.50 210.95 203.24 211.10 C 203.34 214.31 203.18 217.92 205.46 220.50 C 207.20 222.86 211.23 222.76 211.82 226.08 C 209.51 227.63 206.88 228.74 204.04 228.33 C 191.03 227.75 178.00 227.79 164.99 227.18 C 164.81 222.95 169.26 221.13 171.59 218.28 C 171.47 215.66 171.38 213.05 171.35 210.43 C 169.42 209.93 167.49 209.45 165.56 209.02 C 165.79 207.43 165.52 205.68 166.30 204.22 C 167.37 203.91 168.45 203.64 169.54 203.41 C 171.08 198.24 173.26 193.07 177.14 189.22 C 180.77 185.65 184.02 181.72 187.74 178.24 C 184.58 179.79 181.03 179.63 177.60 179.52 C 174.23 182.17 170.31 184.57 165.92 184.80 C 161.38 184.87 160.50 178.61 162.61 175.65 C 166.42 172.02 170.06 168.04 172.20 163.16 C 174.11 159.01 177.69 155.97 181.58 153.73 Z" />
<path fill="#27aae1" opacity="1.00" d=" M 341.70 156.72 C 346.59 154.17 353.29 153.42 357.58 157.51 C 360.91 161.51 362.24 167.35 360.16 172.25 C 357.31 179.45 350.96 184.54 344.71 188.74 C 339.71 192.26 333.73 194.05 328.82 197.71 C 320.72 203.57 313.43 210.46 306.33 217.47 C 306.40 219.62 306.79 221.84 306.15 223.96 C 304.99 225.98 302.24 225.81 300.62 224.49 C 297.59 222.16 294.74 219.60 291.88 217.07 C 290.39 215.86 289.63 213.49 290.78 211.82 C 293.55 209.28 297.88 212.33 300.56 209.66 C 304.16 206.53 307.45 203.04 310.14 199.11 C 317.63 188.38 324.33 177.13 330.80 165.77 C 333.12 161.49 337.56 158.97 341.70 156.72 Z" />
<path fill="#27aae1" opacity="1.00" d=" M 291.42 167.60 C 298.52 164.73 306.87 171.43 305.36 178.98 C 304.43 186.58 294.30 190.53 288.55 185.41 C 282.34 180.79 284.12 170.09 291.42 167.60 Z" />
<path fill="#ffffff" opacity="1.00" d=" M 121.65 258.19 C 165.70 258.25 209.75 258.19 253.80 258.22 C 253.73 299.34 253.89 340.45 253.71 381.57 C 255.22 381.58 256.74 381.60 258.26 381.61 C 258.14 340.48 258.25 299.35 258.21 258.22 C 302.25 258.19 346.30 258.25 390.35 258.19 C 390.37 286.44 390.39 314.69 390.34 342.94 C 390.41 357.55 383.27 371.98 371.54 380.70 C 363.17 387.16 352.56 390.50 342.01 390.36 C 284.36 390.36 226.71 390.39 169.06 390.34 C 154.46 390.40 140.03 383.28 131.31 371.56 C 124.85 363.19 121.50 352.58 121.64 342.04 C 121.63 314.09 121.62 286.14 121.65 258.19 Z" />
<path fill="#27aae1" opacity="1.00" d=" M 286.24 278.20 C 288.16 278.18 290.08 278.17 292.01 278.14 C 295.72 282.62 296.36 288.54 298.26 293.84 C 298.65 295.56 300.23 296.53 301.46 297.64 C 307.50 302.57 313.45 307.61 319.50 312.54 C 319.73 315.46 320.14 318.54 322.72 320.39 C 322.75 321.42 322.78 322.46 322.81 323.51 C 320.57 323.80 319.03 322.28 317.71 320.71 C 315.63 320.58 313.55 320.51 311.47 320.45 C 305.56 313.47 299.54 306.58 293.60 299.64 C 290.16 298.88 286.61 298.67 283.23 297.69 C 280.81 296.17 278.79 294.10 276.54 292.34 C 276.43 290.76 276.33 289.19 276.24 287.62 C 278.79 286.84 281.35 286.10 283.92 285.40 C 284.75 283.02 285.51 280.62 286.24 278.20 Z" />
<path fill="#27aae1" opacity="1.00" d=" M 174.70 309.39 C 185.45 291.82 206.20 282.47 226.33 282.07 C 227.80 302.13 217.55 321.84 201.69 333.80 C 198.91 335.42 200.02 338.98 199.33 341.60 C 198.27 343.39 196.66 344.76 195.20 346.22 C 189.07 352.00 182.99 358.16 175.28 361.83 C 176.30 356.10 177.78 350.48 178.93 344.78 C 176.89 344.78 174.87 344.81 172.84 344.84 C 170.80 342.95 168.73 341.10 166.82 339.08 C 164.71 337.16 165.29 333.97 164.59 331.45 C 159.07 332.50 153.48 333.17 147.95 334.21 C 152.07 326.30 157.14 318.71 163.98 312.90 C 166.85 310.17 171.09 310.34 174.70 309.39 Z" />
<path fill="#27aae1" opacity="1.00" d=" M 302.61 292.31 C 309.99 288.12 318.60 285.84 327.10 286.95 C 337.79 288.13 347.87 294.13 353.95 303.02 C 361.27 313.27 362.85 327.26 358.05 338.91 C 352.90 351.96 340.07 361.56 326.05 362.65 C 311.24 364.16 296.13 355.88 289.23 342.73 C 282.71 331.02 283.43 316.08 290.30 304.68 C 292.96 307.00 295.40 309.56 297.88 312.07 C 293.75 320.47 293.93 330.94 298.82 338.99 C 304.88 349.48 318.24 354.99 329.91 351.62 C 342.09 348.62 351.10 336.56 350.58 324.04 C 350.40 314.40 344.83 305.13 336.39 300.49 C 328.42 295.88 318.25 295.97 310.02 299.86 C 307.50 297.39 304.98 294.92 302.61 292.31 Z" />
<path fill="#ffffff" opacity="1.00" d=" M 202.21 296.22 C 207.81 293.60 214.92 298.85 213.85 305.00 C 213.71 311.50 205.02 315.00 200.19 310.87 C 195.06 307.22 196.26 298.33 202.21 296.22 Z" />
<path fill="#27aae1" opacity="1.00" d=" M 325.20 308.84 C 333.16 310.04 339.59 317.87 338.29 325.99 C 337.29 334.40 328.34 340.86 320.06 338.71 C 313.74 337.42 309.08 331.80 308.11 325.56 C 311.27 325.51 314.43 325.50 317.59 325.59 C 318.74 328.39 321.81 330.50 324.89 329.50 C 327.49 328.90 328.65 326.27 329.44 324.00 C 328.78 321.62 327.46 319.54 325.23 318.38 C 325.07 315.20 325.10 312.02 325.20 308.84 Z" />
<path fill="#27aae1" opacity="1.00" d=" M 153.38 343.29 C 154.92 341.73 156.47 340.18 158.02 338.64 C 159.90 338.64 161.77 338.63 163.65 338.66 C 163.69 340.94 161.26 341.74 159.82 343.00 C 159.60 345.00 159.45 347.01 159.36 349.03 C 161.07 349.28 162.78 349.51 164.50 349.75 C 166.08 348.57 167.55 345.66 169.69 346.24 C 172.09 349.22 168.91 352.57 167.65 355.33 C 163.00 355.52 158.35 355.71 153.72 356.22 C 152.66 351.98 153.59 347.60 153.38 343.29 Z" />
</svg>
