<?xml version="1.0" encoding="UTF-8" ?>
<!DOCTYPE svg PUBLIC "-//W3C//DTD SVG 1.1//EN" "http://www.w3.org/Graphics/SVG/1.1/DTD/svg11.dtd">
<svg width="512pt" height="512pt" viewBox="0 0 512 512" version="1.1" xmlns="http://www.w3.org/2000/svg">
<path fill="#ffbc0e" opacity="1.00" d=" M 0.00 0.00 L 512.00 0.00 L 512.00 512.00 L 0.00 512.00 L 0.00 0.00 Z" />
<path fill="#ffffff" opacity="1.00" d=" M 270.48 145.35 C 310.70 145.43 350.93 145.18 391.15 145.47 C 393.44 155.23 395.99 164.92 398.56 174.61 C 353.38 174.77 308.20 174.67 263.01 174.66 C 265.41 164.87 267.92 155.10 270.48 145.35 Z" />
<path fill="#ffffff" opacity="1.00" d=" M 101.33 184.48 C 103.15 183.81 105.10 183.60 107.03 183.55 C 206.32 183.54 305.62 183.55 404.92 183.55 C 412.80 183.12 421.07 189.77 420.59 198.02 C 420.56 249.69 420.57 301.37 420.58 353.04 C 420.72 360.56 413.42 367.10 406.01 366.68 C 305.99 366.66 205.96 366.66 105.94 366.68 C 98.15 367.06 90.83 359.78 91.42 351.95 C 91.43 300.62 91.42 249.29 91.43 197.96 C 91.22 191.89 95.78 186.47 101.33 184.48 Z" />
<path fill="#ffbc0e" opacity="1.00" d=" M 287.82 195.51 C 308.05 195.47 328.27 195.49 348.50 195.50 C 367.97 228.42 387.24 261.46 406.77 294.35 C 386.49 294.37 366.21 294.35 345.94 294.35 C 326.54 261.42 307.18 228.46 287.82 195.51 Z" />
<path fill="#ffbc0e" opacity="1.00" d=" M 281.54 200.29 C 281.76 200.25 282.21 200.16 282.43 200.12 C 292.40 217.06 302.31 234.03 312.33 250.94 C 293.21 283.92 273.79 316.73 254.79 349.77 C 252.88 347.71 251.74 345.12 250.29 342.75 C 241.45 327.87 232.82 312.86 223.88 298.05 C 243.29 265.58 262.29 232.85 281.54 200.29 Z" />
<path fill="#ffbc0e" opacity="1.00" d=" M 291.08 301.21 C 329.75 301.16 368.43 301.16 407.10 301.21 C 396.93 318.34 386.85 335.53 376.77 352.73 C 338.17 352.83 299.57 352.94 260.98 352.67 C 271.16 335.60 281.09 318.39 291.08 301.21 Z" />
</svg>
