<?xml version="1.0" encoding="UTF-8" ?>
<!DOCTYPE svg PUBLIC "-//W3C//DTD SVG 1.1//EN" "http://www.w3.org/Graphics/SVG/1.1/DTD/svg11.dtd">
<svg width="512pt" height="512pt" viewBox="0 0 512 512" version="1.1" xmlns="http://www.w3.org/2000/svg">
<path fill="#208ade" opacity="1.00" d=" M 0.00 0.00 L 512.00 0.00 L 512.00 512.00 L 0.00 512.00 L 0.00 0.00 Z" />
<path fill="#ffffff" opacity="1.00" d=" M 270.48 145.35 C 310.69 145.40 350.91 145.23 391.12 145.43 C 393.46 155.19 395.97 164.91 398.56 174.60 C 353.38 174.77 308.19 174.68 263.01 174.65 C 265.42 164.86 267.91 155.09 270.48 145.35 Z" />
<path fill="#ffffff" opacity="1.00" d=" M 101.27 184.50 C 104.70 183.25 108.41 183.57 111.99 183.54 C 209.66 183.56 307.33 183.54 404.99 183.55 C 412.81 183.17 420.99 189.72 420.59 197.89 C 420.57 248.23 420.57 298.58 420.59 348.93 C 420.50 352.10 421.02 355.53 419.40 358.44 C 417.10 363.06 412.25 366.64 406.99 366.66 C 306.65 366.68 206.31 366.65 105.97 366.68 C 98.19 367.07 90.86 359.83 91.42 352.00 C 91.42 300.66 91.42 249.32 91.42 197.98 C 91.22 191.92 95.74 186.50 101.27 184.50 Z" />
<path fill="#208ade" opacity="1.00" d=" M 330.62 206.39 C 332.29 200.54 340.58 198.00 345.32 201.76 C 366.17 217.22 387.02 232.70 407.86 248.17 C 411.33 250.63 414.08 254.62 413.80 259.04 C 413.92 263.37 411.18 267.27 407.75 269.67 C 387.06 285.02 366.36 300.37 345.69 315.74 C 340.92 319.98 331.83 317.25 330.55 310.90 C 330.19 305.04 330.52 299.17 330.43 293.31 C 319.31 293.79 307.56 296.46 299.09 304.13 C 297.41 305.88 295.38 307.59 294.57 309.94 C 293.92 318.86 297.20 328.08 303.65 334.35 C 308.07 338.57 313.12 342.22 316.76 347.19 C 319.27 350.51 320.27 355.89 317.00 359.04 C 314.09 361.29 310.37 359.63 307.38 358.47 C 299.60 354.86 292.56 349.44 287.42 342.56 C 277.66 329.03 271.63 312.72 270.75 296.04 C 270.04 278.48 273.70 259.84 284.75 245.76 C 295.52 231.91 313.06 224.37 330.40 224.11 C 330.58 218.21 330.11 212.28 330.62 206.39 Z" />
</svg>
