<?xml version="1.0" encoding="UTF-8" ?>
<!DOCTYPE svg PUBLIC "-//W3C//DTD SVG 1.1//EN" "http://www.w3.org/Graphics/SVG/1.1/DTD/svg11.dtd">
<svg width="512pt" height="512pt" viewBox="0 0 512 512" version="1.1" xmlns="http://www.w3.org/2000/svg">
<path fill="#04aeda" opacity="1.00" d=" M 0.00 0.00 L 512.00 0.00 L 512.00 512.00 L 0.00 512.00 L 0.00 0.00 Z" />
<path fill="#ffffff" opacity="1.00" d=" M 270.56 145.45 C 310.74 145.58 350.92 145.28 391.10 145.60 C 393.29 155.31 395.90 164.93 398.44 174.56 C 353.32 174.65 308.20 174.59 263.08 174.59 C 265.57 164.87 268.01 155.15 270.56 145.45 Z" />
<path fill="#ffffff" opacity="1.00" d=" M 101.41 184.58 C 103.53 183.84 105.78 183.64 108.01 183.63 C 207.00 183.66 305.99 183.62 404.98 183.65 C 412.81 183.28 420.86 189.87 420.51 198.01 C 420.51 249.36 420.49 300.71 420.51 352.06 C 421.13 359.85 413.73 366.95 406.05 366.61 C 307.71 366.60 209.36 366.60 111.01 366.61 C 108.02 366.53 104.97 366.90 102.04 366.15 C 97.29 364.71 93.32 360.81 91.92 356.03 C 91.34 353.38 91.53 350.64 91.51 347.95 C 91.53 297.98 91.49 248.01 91.53 198.04 C 91.32 191.99 95.86 186.54 101.41 184.58 Z" />
<path fill="#04aeda" opacity="1.00" d=" M 326.03 214.14 C 352.07 210.17 378.04 205.72 404.07 201.75 C 406.48 201.33 408.94 203.41 408.67 205.91 C 408.72 244.96 408.67 284.02 408.69 323.07 C 408.87 332.31 401.56 340.27 393.11 343.06 C 384.11 346.04 372.60 344.23 366.84 336.14 C 362.21 329.62 364.61 320.36 370.34 315.34 C 377.46 308.25 388.52 307.20 397.79 309.99 C 397.58 286.82 398.10 263.63 397.54 240.48 C 375.72 244.75 353.64 247.81 331.73 251.71 C 331.74 279.47 331.70 307.22 331.76 334.98 C 331.81 339.89 329.44 344.57 326.10 348.06 C 318.98 355.64 306.92 357.76 297.50 353.54 C 293.05 351.53 289.13 347.85 287.92 343.00 C 286.33 336.99 289.17 330.66 293.53 326.55 C 300.67 319.81 311.58 318.22 320.70 321.43 C 320.91 286.94 320.68 252.44 320.81 217.94 C 320.90 215.33 323.88 214.39 326.03 214.14 Z" />
</svg>
