<?xml version="1.0" encoding="UTF-8" ?>
<!DOCTYPE svg PUBLIC "-//W3C//DTD SVG 1.1//EN" "http://www.w3.org/Graphics/SVG/1.1/DTD/svg11.dtd">
<svg width="512pt" height="512pt" viewBox="0 0 512 512" version="1.1" xmlns="http://www.w3.org/2000/svg">
<path fill="#327ae7" opacity="1.00" d=" M 0.00 0.00 L 512.00 0.00 L 512.00 512.00 L 0.00 512.00 L 0.00 0.00 Z" />
<path fill="#ffffff" opacity="1.00" d=" M 120.62 157.79 C 210.90 157.81 301.18 157.82 391.46 157.79 C 391.53 167.61 391.47 177.43 391.50 187.26 C 301.20 187.24 210.91 187.25 120.61 187.25 C 120.61 177.43 120.60 167.61 120.62 157.79 Z" />
<path fill="#327ae7" opacity="1.00" d=" M 320.72 164.50 C 326.30 164.32 331.88 164.42 337.47 164.43 C 337.44 169.91 337.48 175.38 337.43 180.86 C 331.87 180.80 326.31 180.88 320.75 180.79 C 320.73 175.36 320.77 169.93 320.72 164.50 Z" />
<path fill="#327ae7" opacity="1.00" d=" M 343.49 164.41 C 348.95 164.41 354.40 164.40 359.86 164.41 C 359.85 169.89 359.85 175.36 359.86 180.83 C 354.40 180.84 348.95 180.82 343.50 180.85 C 343.48 175.37 343.49 169.89 343.49 164.41 Z" />
<path fill="#327ae7" opacity="1.00" d=" M 365.51 164.48 C 371.10 164.39 376.71 164.28 382.31 164.54 C 382.11 169.96 382.25 175.39 382.20 180.82 C 376.67 180.86 371.14 180.80 365.62 180.86 C 365.55 175.40 365.70 169.94 365.51 164.48 Z" />
<path fill="#ffffff" opacity="1.00" d=" M 120.73 195.11 C 136.69 195.21 152.65 195.15 168.61 195.15 C 168.51 211.01 168.72 226.89 168.51 242.75 C 166.62 243.76 164.12 242.82 162.00 243.01 C 148.25 243.44 134.50 242.71 120.75 243.21 C 120.69 227.18 120.73 211.15 120.73 195.11 Z" />
<path fill="#ffffff" opacity="1.00" d=" M 176.51 195.16 C 192.46 195.22 208.42 195.17 224.38 195.18 C 224.43 211.06 224.33 226.94 224.43 242.82 C 208.41 242.74 192.39 242.94 176.37 242.72 C 176.69 226.87 176.43 211.01 176.51 195.16 Z" />
<path fill="#ffffff" opacity="1.00" d=" M 232.21 195.14 C 248.08 195.18 263.96 195.18 279.83 195.13 C 279.81 211.04 279.79 226.95 279.84 242.85 C 263.96 242.82 248.07 242.95 232.19 242.81 C 232.26 226.92 232.22 211.03 232.21 195.14 Z" />
<path fill="#ffffff" opacity="1.00" d=" M 288.15 195.16 C 304.12 195.17 320.09 195.15 336.07 195.17 C 336.10 211.03 336.09 226.89 336.07 242.75 C 327.39 243.43 318.70 242.37 310.01 243.03 C 302.72 242.78 295.43 242.83 288.13 242.85 C 288.22 226.95 288.18 211.05 288.15 195.16 Z" />
<path fill="#ffffff" opacity="1.00" d=" M 343.74 195.18 C 359.66 195.13 375.58 195.19 391.51 195.15 C 391.49 211.04 391.47 226.93 391.52 242.83 C 375.59 242.84 359.66 242.82 343.73 242.84 C 343.75 226.95 343.74 211.07 343.74 195.18 Z" />
<path fill="#ffffff" opacity="1.00" d=" M 120.62 251.18 C 136.52 251.27 152.43 251.19 168.33 251.22 C 168.37 267.21 168.31 283.19 168.36 299.18 C 152.45 299.19 136.54 299.18 120.63 299.19 C 120.59 283.19 120.61 267.18 120.62 251.18 Z" />
<path fill="#ffffff" opacity="1.00" d=" M 176.36 251.38 C 192.36 251.04 208.38 251.33 224.38 251.24 C 224.42 267.21 224.35 283.17 224.42 299.14 C 208.44 299.14 192.47 299.14 176.49 299.14 C 176.44 283.22 176.70 267.30 176.36 251.38 Z" />
<path fill="#ffffff" opacity="1.00" d=" M 232.22 251.19 C 248.09 251.24 263.96 251.24 279.83 251.18 C 279.79 267.19 279.83 283.19 279.81 299.20 C 263.95 299.21 248.09 299.20 232.23 299.20 C 232.22 283.20 232.23 267.19 232.22 251.19 Z" />
<path fill="#ffffff" opacity="1.00" d=" M 288.16 251.22 C 304.12 251.23 320.09 251.21 336.06 251.22 C 336.11 267.21 336.08 283.21 336.08 299.20 C 320.11 299.21 304.14 299.20 288.17 299.20 C 288.17 283.20 288.19 267.21 288.16 251.22 Z" />
<path fill="#ffffff" opacity="1.00" d=" M 343.76 251.24 C 359.67 251.18 375.58 251.27 391.50 251.19 C 391.47 267.19 391.52 283.19 391.47 299.20 C 375.55 299.17 359.64 299.20 343.73 299.18 C 343.77 283.20 343.71 267.22 343.76 251.24 Z" />
<path fill="#ffffff" opacity="1.00" d=" M 120.62 307.17 C 136.52 307.19 152.42 307.22 168.32 307.15 C 168.36 323.16 168.31 339.17 168.35 355.18 C 152.44 355.22 136.53 355.18 120.62 355.20 C 120.60 339.19 120.60 323.18 120.62 307.17 Z" />
<path fill="#ffffff" opacity="1.00" d=" M 176.53 307.31 C 192.50 307.34 208.48 307.23 224.46 307.37 C 224.25 323.30 224.41 339.23 224.38 355.17 C 208.44 355.20 192.50 355.17 176.56 355.18 C 176.59 339.22 176.65 323.27 176.53 307.31 Z" />
<path fill="#ffffff" opacity="1.00" d=" M 232.22 307.18 C 248.09 307.18 263.96 307.18 279.83 307.17 C 279.78 323.18 279.79 339.19 279.82 355.20 C 263.96 355.18 248.09 355.21 232.23 355.19 C 232.25 339.18 232.27 323.18 232.22 307.18 Z" />
<path fill="#ffffff" opacity="1.00" d=" M 288.15 307.19 C 304.12 307.18 320.09 307.16 336.06 307.20 C 336.07 323.20 336.07 339.19 336.06 355.19 C 320.10 355.20 304.14 355.19 288.18 355.19 C 288.17 339.19 288.23 323.19 288.15 307.19 Z" />
<path fill="#ffffff" opacity="1.00" d=" M 343.74 307.19 C 359.66 307.19 375.59 307.19 391.51 307.19 C 391.43 323.20 391.58 339.21 391.44 355.23 C 375.54 355.15 359.64 355.23 343.74 355.18 C 343.76 339.18 343.76 323.19 343.74 307.19 Z" />
</svg>
