<?xml version="1.0" encoding="UTF-8" ?>
<!DOCTYPE svg PUBLIC "-//W3C//DTD SVG 1.1//EN" "http://www.w3.org/Graphics/SVG/1.1/DTD/svg11.dtd">
<svg width="512pt" height="512pt" viewBox="0 0 512 512" version="1.1" xmlns="http://www.w3.org/2000/svg">
<path fill="#04aeda" opacity="1.00" d=" M 0.00 0.00 L 512.00 0.00 L 512.00 512.00 L 0.00 512.00 L 0.00 0.00 Z" />
<path fill="#ffffff" opacity="1.00" d=" M 270.57 145.44 C 310.60 145.55 350.64 145.35 390.67 145.54 C 393.79 154.93 395.58 164.95 398.45 174.52 C 353.34 174.72 308.22 174.54 263.11 174.61 C 265.53 164.87 268.02 155.15 270.57 145.44 Z" />
<path fill="#ffffff" opacity="1.00" d=" M 101.34 184.60 C 105.08 183.28 109.10 183.69 112.99 183.64 C 208.66 183.64 304.34 183.65 400.01 183.64 C 404.25 183.63 408.78 183.30 412.64 185.41 C 417.17 187.83 420.82 192.66 420.51 197.99 C 420.50 249.33 420.49 300.67 420.51 352.01 C 421.16 359.82 413.74 366.96 406.04 366.61 C 306.02 366.60 206.00 366.60 105.98 366.61 C 98.25 366.88 91.03 359.73 91.51 351.94 C 91.53 300.62 91.49 249.29 91.53 197.97 C 91.35 191.96 95.85 186.58 101.34 184.60 Z" />
<path fill="#04aeda" opacity="1.00" d=" M 206.79 208.00 C 207.41 206.91 208.54 205.92 209.89 206.10 C 219.28 206.07 228.66 206.09 238.05 206.09 C 239.76 205.82 241.83 207.04 241.63 208.95 C 241.70 213.45 241.58 217.95 241.64 222.44 C 293.73 222.44 345.82 222.42 397.91 222.46 C 404.68 222.15 410.97 228.16 410.89 234.97 C 410.94 271.66 410.90 308.35 410.91 345.04 C 411.23 351.91 404.92 358.30 398.03 357.92 C 334.34 357.90 270.66 357.90 206.97 357.92 C 200.08 358.28 193.81 351.88 194.11 345.03 C 194.07 308.67 194.10 272.31 194.10 235.95 C 193.62 228.93 199.65 222.48 206.67 222.41 C 206.75 217.61 206.46 212.79 206.79 208.00 Z" />
<path fill="#ffffff" opacity="1.00" d=" M 369.72 238.91 C 370.55 236.67 373.14 237.54 374.96 237.35 C 381.14 237.48 387.34 237.17 393.53 237.54 C 394.03 242.36 393.66 247.21 393.82 252.05 C 393.80 253.30 394.06 255.77 392.00 255.31 C 385.05 255.26 378.07 255.58 371.15 255.15 C 370.76 254.89 369.99 254.39 369.60 254.14 C 369.77 249.06 369.49 243.98 369.72 238.91 Z" />
<path fill="#ffffff" opacity="1.00" d=" M 300.40 241.58 C 313.54 239.34 327.60 242.66 338.16 250.86 C 350.21 259.95 357.92 274.80 357.68 289.97 C 358.02 303.26 352.32 316.49 342.70 325.62 C 333.66 334.75 320.78 339.86 307.95 339.60 C 295.04 339.51 282.27 333.97 273.41 324.56 C 260.91 312.01 256.23 292.38 261.71 275.53 C 266.98 258.18 282.44 244.44 300.40 241.58 Z" />
</svg>
