<?xml version="1.0" encoding="UTF-8" ?>
<!DOCTYPE svg PUBLIC "-//W3C//DTD SVG 1.1//EN" "http://www.w3.org/Graphics/SVG/1.1/DTD/svg11.dtd">
<svg width="512pt" height="512pt" viewBox="0 0 512 512" version="1.1" xmlns="http://www.w3.org/2000/svg">
<path fill="#009f3c" opacity="1.00" d=" M 0.00 0.00 L 512.00 0.00 L 512.00 512.00 L 0.00 512.00 L 0.00 0.00 Z" />
<path fill="#ffffff" opacity="1.00" d=" M 270.48 145.34 C 310.71 145.44 350.95 145.16 391.18 145.48 C 393.42 155.22 395.96 164.91 398.58 174.56 C 353.40 174.83 308.21 174.65 263.02 174.65 C 265.42 164.86 267.92 155.09 270.48 145.34 Z" />
<path fill="#ffffff" opacity="1.00" d=" M 100.56 184.76 C 104.18 183.22 108.18 183.57 112.02 183.54 C 209.67 183.55 307.32 183.54 404.97 183.55 C 412.53 183.17 420.49 189.26 420.58 197.13 C 420.58 249.10 420.57 301.07 420.58 353.04 C 420.73 360.20 414.03 366.58 406.99 366.67 C 306.64 366.68 206.28 366.65 105.93 366.68 C 98.48 367.03 91.37 360.37 91.43 352.88 C 91.41 301.24 91.43 249.60 91.42 197.96 C 91.21 192.16 95.40 186.97 100.56 184.76 Z" />
<path fill="#009f3c" opacity="1.00" d=" M 327.97 210.98 C 340.03 201.79 356.17 198.02 371.02 201.27 C 387.95 204.56 402.75 216.74 409.48 232.59 C 413.93 242.72 414.81 254.26 412.62 265.06 C 409.16 281.86 397.02 296.51 381.19 303.10 C 365.11 310.10 345.72 308.33 331.06 298.76 C 329.62 300.27 328.17 301.77 326.74 303.30 C 326.52 306.51 325.15 309.59 322.84 311.84 C 308.02 326.68 293.19 341.50 278.37 356.32 C 274.27 360.67 267.06 361.35 262.27 357.74 C 256.26 353.64 255.58 343.91 260.90 338.98 C 275.76 324.10 290.63 309.23 305.50 294.36 C 307.24 292.60 309.45 291.34 311.90 290.88 C 314.62 290.67 315.95 288.03 317.72 286.32 C 308.34 274.39 304.65 258.27 307.65 243.42 C 310.11 230.60 317.49 218.77 327.97 210.98 Z" />
<path fill="#ffffff" opacity="1.00" d=" M 354.44 218.76 C 370.74 215.75 388.09 225.95 393.52 241.57 C 397.02 250.88 396.27 261.66 391.52 270.40 C 386.35 280.35 376.18 287.38 365.09 288.92 C 348.32 291.60 330.83 280.23 326.28 263.90 C 321.37 249.03 328.31 231.58 341.66 223.60 C 345.56 221.20 349.92 219.55 354.44 218.76 Z" />
</svg>
