<?xml version="1.0" encoding="UTF-8" ?>
<!DOCTYPE svg PUBLIC "-//W3C//DTD SVG 1.1//EN" "http://www.w3.org/Graphics/SVG/1.1/DTD/svg11.dtd">
<svg width="512pt" height="512pt" viewBox="0 0 512 512" version="1.1" xmlns="http://www.w3.org/2000/svg">
<path fill="#2b76cd" opacity="1.00" d=" M 0.00 0.00 L 512.00 0.00 L 512.00 512.00 L 0.00 512.00 L 0.00 0.00 Z" />
<path fill="#ffffff" opacity="1.00" d=" M 251.29 105.15 C 254.36 104.32 257.67 104.32 260.74 105.16 C 267.80 106.92 275.03 107.92 282.14 109.49 C 313.41 115.43 344.66 121.48 375.93 127.44 C 376.05 180.61 375.88 233.80 376.05 286.97 C 376.26 296.49 372.90 305.62 369.20 314.24 C 359.76 334.69 343.85 351.39 326.47 365.39 C 305.11 382.41 281.04 395.80 256.03 406.63 C 230.99 395.85 206.93 382.41 185.56 365.41 C 166.22 349.81 148.43 330.73 139.88 307.00 C 137.77 300.87 135.80 294.52 136.00 287.97 C 136.10 234.45 135.93 180.92 136.09 127.41 C 167.22 121.53 198.30 115.45 229.43 109.57 C 236.69 107.96 244.08 106.99 251.29 105.15 Z" />
</svg>
