<?xml version="1.0" encoding="UTF-8" ?>
<!DOCTYPE svg PUBLIC "-//W3C//DTD SVG 1.1//EN" "http://www.w3.org/Graphics/SVG/1.1/DTD/svg11.dtd">
<svg width="512pt" height="512pt" viewBox="0 0 512 512" version="1.1" xmlns="http://www.w3.org/2000/svg">
<path fill="#ed1c24" opacity="1.00" d=" M 0.00 0.00 L 512.00 0.00 L 512.00 512.00 L 0.00 512.00 L 0.00 0.00 Z" />
<path fill="#ffffff" opacity="1.00" d=" M 347.39 159.55 C 360.24 159.31 373.10 159.54 385.96 159.44 C 387.56 159.25 388.99 159.96 390.34 160.72 C 390.17 220.15 390.32 279.58 390.27 339.01 C 390.20 342.68 390.49 346.37 390.13 350.04 C 389.75 352.04 387.58 351.76 386.05 351.84 C 373.68 351.80 361.30 351.83 348.93 351.83 C 347.14 352.05 344.91 351.35 345.26 349.12 C 345.14 287.40 345.28 225.67 345.19 163.95 C 345.20 162.32 345.04 159.53 347.39 159.55 Z" />
<path fill="#ed1c24" opacity="1.00" d=" M 350.12 164.32 C 361.87 164.34 373.63 164.31 385.38 164.33 C 385.34 225.20 385.37 286.06 385.36 346.92 C 373.62 346.89 361.88 346.89 350.14 346.92 C 350.14 286.05 350.18 225.19 350.12 164.32 Z" />
<path fill="#ffffff" opacity="1.00" d=" M 290.32 197.38 C 291.54 196.13 293.53 196.81 295.09 196.58 C 307.05 196.67 319.01 196.55 330.97 196.63 C 332.91 196.27 334.74 197.91 334.32 199.91 C 334.35 249.29 334.30 298.67 334.34 348.06 C 334.49 349.56 334.06 351.93 332.07 351.74 C 319.39 351.96 306.70 351.72 294.02 351.85 C 292.56 351.71 290.41 352.15 289.71 350.46 C 289.24 347.32 289.56 344.13 289.49 340.98 C 289.49 294.32 289.53 247.67 289.47 201.01 C 289.63 199.81 289.21 198.23 290.32 197.38 Z" />
<path fill="#ed1c24" opacity="1.00" d=" M 294.39 346.93 C 294.39 298.45 294.40 249.97 294.38 201.49 C 306.07 201.53 317.76 201.51 329.45 201.50 C 329.40 250.01 329.47 298.53 329.42 347.04 C 317.75 346.76 306.07 346.95 294.39 346.93 Z" />
<path fill="#ffffff" opacity="1.00" d=" M 234.27 234.36 C 246.47 233.85 258.72 234.34 270.94 234.13 C 273.07 234.24 275.37 233.82 277.37 234.74 C 277.74 235.79 277.90 236.88 277.85 238.01 C 277.83 274.33 277.81 310.66 277.87 346.99 C 277.73 348.40 278.08 350.04 277.24 351.30 C 275.62 352.04 273.76 351.76 272.04 351.85 C 259.69 351.69 247.32 352.00 234.98 351.71 C 233.06 351.79 232.84 349.48 232.85 348.08 C 232.85 311.35 232.85 274.63 232.85 237.90 C 232.87 236.63 232.95 235.00 234.27 234.36 Z" />
<path fill="#ed1c24" opacity="1.00" d=" M 237.76 238.83 C 248.50 238.84 259.24 238.85 269.97 238.81 C 271.33 238.70 273.69 238.80 273.15 240.88 C 273.18 276.21 273.14 311.54 273.17 346.87 C 261.36 346.96 249.56 346.86 237.75 346.92 C 237.76 310.89 237.75 274.86 237.76 238.83 Z" />
<path fill="#ffffff" opacity="1.00" d=" M 179.30 271.44 C 192.21 271.07 205.14 271.41 218.05 271.27 C 219.85 271.10 222.43 271.48 222.26 273.87 C 222.38 298.57 222.25 323.27 222.32 347.97 C 222.47 349.48 222.07 351.87 220.06 351.74 C 207.04 351.93 194.00 351.76 180.97 351.82 C 179.24 352.09 177.13 351.11 177.50 349.06 C 177.42 324.38 177.52 299.70 177.46 275.02 C 177.39 273.66 177.58 271.61 179.30 271.44 Z" />
<path fill="#ed1c24" opacity="1.00" d=" M 182.36 276.17 C 194.04 276.21 205.72 276.21 217.41 276.17 C 217.39 299.81 217.42 323.45 217.39 347.10 C 205.72 346.70 194.04 346.97 182.37 346.94 C 182.36 323.35 182.38 299.76 182.36 276.17 Z" />
<path fill="#ffffff" opacity="1.00" d=" M 123.27 307.36 C 136.13 306.75 149.06 307.31 161.95 307.08 C 163.89 306.88 167.00 307.24 166.56 309.94 C 166.59 322.97 166.60 336.00 166.55 349.04 C 166.98 351.10 164.82 352.11 163.09 351.82 C 150.37 351.80 137.65 351.85 124.93 351.80 C 123.25 352.10 121.62 350.88 121.78 349.10 C 121.63 336.72 121.81 324.34 121.70 311.96 C 121.78 310.41 121.45 308.00 123.27 307.36 Z" />
</svg>
