<?xml version="1.0" encoding="UTF-8" ?>
<!DOCTYPE svg PUBLIC "-//W3C//DTD SVG 1.1//EN" "http://www.w3.org/Graphics/SVG/1.1/DTD/svg11.dtd">
<svg width="512pt" height="512pt" viewBox="0 0 512 512" version="1.1" xmlns="http://www.w3.org/2000/svg">
<path fill="#0072bc" opacity="1.00" d=" M 0.00 0.00 L 512.00 0.00 L 512.00 512.00 L 0.00 512.00 L 0.00 0.00 Z" />
<path fill="#ffffff" opacity="1.00" d=" M 345.22 162.96 C 344.90 161.17 346.09 159.20 348.08 159.49 C 361.07 159.43 374.07 159.45 387.06 159.48 C 388.34 159.35 389.29 160.24 390.29 160.88 C 390.20 223.61 390.37 286.35 390.25 349.08 C 390.42 350.85 388.70 352.10 387.05 351.81 C 374.35 351.81 361.65 351.86 348.96 351.79 C 344.01 350.67 339.03 352.00 334.03 351.83 C 320.33 351.83 306.64 351.80 292.94 351.83 C 291.51 351.99 289.55 351.39 289.57 349.66 C 289.27 342.40 289.75 335.12 289.39 327.87 C 286.24 322.18 283.09 316.38 281.67 309.97 C 278.39 296.37 280.23 281.45 287.37 269.35 C 288.27 267.65 289.67 266.03 289.50 263.98 C 289.51 242.64 289.48 221.29 289.50 199.95 C 289.16 197.97 290.94 196.25 292.92 196.63 C 305.62 196.60 318.34 196.58 331.05 196.63 C 332.98 196.32 334.75 198.00 334.32 199.96 C 334.33 213.79 334.34 227.63 334.31 241.46 C 337.97 241.53 341.61 241.91 345.23 242.48 C 345.21 215.97 345.22 189.47 345.22 162.96 Z" />
<path fill="#0072bc" opacity="1.00" d=" M 349.94 164.28 C 361.76 164.27 373.58 164.30 385.40 164.26 C 385.41 200.80 385.36 237.35 385.42 273.89 C 383.64 270.10 381.51 266.50 378.95 263.19 C 379.69 270.12 373.24 275.97 366.46 275.30 C 373.11 284.77 374.83 297.35 371.30 308.33 C 368.03 318.77 359.91 327.44 349.88 331.73 C 349.88 308.45 349.86 285.18 349.89 261.91 C 352.28 262.77 354.52 263.98 356.60 265.45 C 356.06 258.92 361.30 252.61 368.06 252.97 C 363.20 247.90 356.15 245.84 349.79 243.29 C 350.04 216.96 349.78 190.62 349.94 164.28 Z" />
<path fill="#0072bc" opacity="1.00" d=" M 294.34 259.70 C 294.36 240.28 294.35 220.86 294.35 201.44 C 306.07 201.48 317.78 201.46 329.50 201.45 C 329.44 214.96 329.57 228.47 329.43 241.98 C 316.04 243.13 303.32 249.75 294.34 259.70 Z" />
<path fill="#ffffff" opacity="1.00" d=" M 234.33 234.38 C 247.20 233.84 260.14 234.35 273.04 234.13 C 275.01 234.02 278.30 234.03 277.82 236.93 C 277.87 273.95 277.79 310.98 277.86 348.00 C 277.87 349.41 277.91 351.65 275.97 351.71 C 262.62 351.95 249.25 351.77 235.89 351.80 C 233.72 352.18 232.54 349.98 232.85 348.09 C 232.86 311.36 232.86 274.62 232.85 237.88 C 232.83 236.63 232.98 234.93 234.33 234.38 Z" />
<path fill="#0072bc" opacity="1.00" d=" M 237.71 238.79 C 249.54 238.80 261.37 238.77 273.20 238.81 C 273.25 274.81 273.11 310.81 273.27 346.81 C 261.45 347.49 249.57 346.92 237.72 347.11 C 237.69 311.00 237.71 274.90 237.71 238.79 Z" />
<path fill="#0072bc" opacity="1.00" d=" M 334.38 334.68 C 334.28 309.36 334.30 284.03 334.37 258.71 C 338.05 258.96 341.89 258.91 345.34 260.42 C 345.06 284.71 345.30 309.00 345.22 333.29 C 341.69 334.28 338.02 334.54 334.38 334.68 Z" />
<path fill="#0072bc" opacity="1.00" d=" M 299.40 284.19 C 303.82 271.14 315.88 261.22 329.49 259.18 C 329.46 284.25 329.55 309.32 329.44 334.39 C 320.91 332.70 312.73 328.65 306.97 322.02 C 297.80 312.03 294.84 296.94 299.40 284.19 Z" />
<path fill="#ffffff" opacity="1.00" d=" M 179.30 271.44 C 192.52 271.09 205.78 271.36 219.01 271.30 C 220.61 271.07 222.43 272.14 222.27 273.92 C 222.36 298.60 222.26 323.29 222.33 347.97 C 222.54 349.53 221.95 351.87 219.96 351.76 C 206.66 351.88 193.34 351.83 180.03 351.78 C 178.42 351.96 177.25 350.37 177.48 348.88 C 177.45 324.23 177.49 299.59 177.46 274.95 C 177.35 273.56 177.65 271.72 179.30 271.44 Z" />
<path fill="#0072bc" opacity="1.00" d=" M 182.31 276.17 C 194.03 276.16 205.75 276.18 217.47 276.15 C 217.43 299.81 217.49 323.46 217.44 347.11 C 205.74 347.10 194.05 347.10 182.35 347.11 C 182.28 323.47 182.37 299.82 182.31 276.17 Z" />
<path fill="#ffffff" opacity="1.00" d=" M 123.36 307.35 C 136.23 306.77 149.16 307.29 162.06 307.09 C 163.99 306.87 166.99 307.33 166.56 309.97 C 166.59 322.99 166.59 336.03 166.56 349.06 C 166.82 350.53 165.53 351.95 164.03 351.79 C 151.00 351.86 137.96 351.81 124.93 351.81 C 123.26 352.08 121.62 350.82 121.77 349.07 C 121.67 336.37 121.77 323.67 121.72 310.97 C 121.66 309.65 121.87 307.79 123.36 307.35 Z" />
<path fill="#0072bc" opacity="1.00" d=" M 126.61 311.82 C 138.31 311.82 150.01 311.82 161.71 311.82 C 161.71 323.58 161.75 335.35 161.69 347.11 C 150.00 347.11 138.31 347.10 126.62 347.12 C 126.59 335.35 126.61 323.58 126.61 311.82 Z" />
<path fill="#0072bc" opacity="1.00" d=" M 357.61 347.17 C 369.77 341.65 379.91 331.76 385.38 319.54 C 385.41 328.73 385.41 337.93 385.38 347.12 C 376.12 347.13 366.87 347.04 357.61 347.17 Z" />
<path fill="#0072bc" opacity="1.00" d=" M 294.39 333.70 C 299.47 339.45 305.85 343.95 312.80 347.18 C 306.65 347.04 300.51 347.16 294.36 347.08 C 294.35 342.62 294.32 338.16 294.39 333.70 Z" />
</svg>
