<?xml version="1.0" encoding="UTF-8" ?>
<!DOCTYPE svg PUBLIC "-//W3C//DTD SVG 1.1//EN" "http://www.w3.org/Graphics/SVG/1.1/DTD/svg11.dtd">
<svg width="512pt" height="512pt" viewBox="0 0 512 512" version="1.1" xmlns="http://www.w3.org/2000/svg">
<path fill="#0072bc" opacity="1.00" d=" M 0.00 0.00 L 512.00 0.00 L 512.00 512.00 L 0.00 512.00 L 0.00 0.00 Z" />
<path fill="#ffffff" opacity="1.00" d=" M 345.22 162.96 C 344.87 161.15 346.13 159.16 348.14 159.48 C 361.09 159.43 374.04 159.46 387.00 159.47 C 388.32 159.29 389.29 160.23 390.29 160.93 C 390.20 223.63 390.37 286.33 390.25 349.03 C 390.48 352.02 387.06 352.00 384.99 351.85 C 371.31 351.49 357.56 352.46 343.95 351.28 C 338.32 351.95 332.65 351.86 327.00 351.84 C 315.34 351.76 303.67 351.89 292.02 351.78 C 290.78 351.91 289.53 350.85 289.56 349.61 C 289.31 342.37 289.71 335.12 289.41 327.88 C 284.98 320.49 281.51 312.44 280.42 303.81 C 284.78 309.41 293.60 308.75 298.01 303.59 C 300.40 319.30 313.99 331.80 329.44 334.41 C 329.55 309.32 329.46 284.23 329.49 259.14 C 313.94 261.39 300.40 274.20 297.99 289.82 C 295.66 287.25 292.34 285.76 288.90 285.50 C 285.66 285.36 282.94 287.33 280.41 289.07 C 281.76 280.79 284.85 272.92 289.30 265.83 C 289.80 243.60 289.28 221.31 289.56 199.06 C 289.57 197.34 291.43 196.35 293.00 196.62 C 305.68 196.60 318.38 196.59 331.07 196.63 C 332.96 196.33 334.75 197.97 334.32 199.91 C 334.32 213.74 334.35 227.57 334.30 241.40 C 337.96 241.43 341.61 241.78 345.22 242.42 C 345.22 215.93 345.22 189.45 345.22 162.96 Z" />
<path fill="#0072bc" opacity="1.00" d=" M 349.97 164.28 C 361.78 164.27 373.60 164.29 385.41 164.27 C 385.35 200.64 385.45 237.01 385.36 273.37 C 378.47 258.85 365.26 247.79 349.86 243.30 C 350.01 216.95 349.81 190.63 349.97 164.28 Z" />
<path fill="#0072bc" opacity="1.00" d=" M 294.35 259.64 C 294.37 240.24 294.34 220.83 294.36 201.43 C 306.07 201.49 317.79 201.46 329.50 201.44 C 329.47 214.89 329.50 228.33 329.48 241.77 C 316.11 243.19 303.32 249.59 294.35 259.64 Z" />
<path fill="#ffffff" opacity="1.00" d=" M 234.31 234.38 C 247.51 233.86 260.76 234.32 273.98 234.15 C 275.85 233.89 278.29 234.60 277.82 236.98 C 277.86 273.99 277.77 311.00 277.86 348.01 C 277.87 349.40 277.93 351.54 276.05 351.72 C 262.68 351.94 249.30 351.77 235.92 351.81 C 233.71 352.20 232.52 349.94 232.85 348.04 C 232.86 311.35 232.86 274.65 232.85 237.96 C 232.81 236.68 232.97 234.97 234.31 234.38 Z" />
<path fill="#0072bc" opacity="1.00" d=" M 237.72 238.79 C 249.54 238.81 261.37 238.77 273.20 238.81 C 273.25 274.81 273.12 310.81 273.27 346.82 C 261.44 347.49 249.57 346.92 237.72 347.11 C 237.69 311.00 237.70 274.90 237.72 238.79 Z" />
<path fill="#0072bc" opacity="1.00" d=" M 334.35 334.66 C 334.36 309.32 334.21 283.98 334.42 258.65 C 338.04 258.77 341.64 259.23 345.19 259.92 C 345.26 284.39 345.20 308.85 345.22 333.31 C 341.68 334.31 338.01 334.60 334.35 334.66 Z" />
<path fill="#0072bc" opacity="1.00" d=" M 349.89 261.89 C 357.43 264.63 363.63 270.42 367.78 277.19 C 374.61 288.37 374.94 303.12 368.68 314.61 C 364.68 322.25 357.89 328.15 350.11 331.74 C 349.60 308.47 350.05 285.17 349.89 261.89 Z" />
<path fill="#ffffff" opacity="1.00" d=" M 179.29 271.43 C 192.54 271.11 205.82 271.36 219.08 271.30 C 220.68 271.06 222.47 272.22 222.28 273.99 C 222.33 299.00 222.31 324.03 222.29 349.04 C 222.54 350.84 220.77 352.12 219.11 351.81 C 206.08 351.80 193.05 351.86 180.02 351.79 C 178.45 351.96 177.27 350.42 177.48 348.95 C 177.45 324.30 177.49 299.64 177.46 274.99 C 177.34 273.58 177.64 271.76 179.29 271.43 Z" />
<path fill="#0072bc" opacity="1.00" d=" M 182.31 276.17 C 194.03 276.16 205.75 276.19 217.46 276.15 C 217.43 299.80 217.48 323.46 217.44 347.11 C 205.74 347.09 194.04 347.14 182.35 347.09 C 182.29 323.45 182.36 299.81 182.31 276.17 Z" />
<path fill="#ffffff" opacity="1.00" d=" M 123.24 307.37 C 136.12 306.75 149.09 307.30 162.00 307.09 C 163.59 307.08 166.26 306.93 166.49 309.06 C 166.72 321.72 166.48 334.38 166.61 347.05 C 166.53 348.69 167.01 351.09 164.93 351.71 C 152.30 351.99 139.64 351.70 127.00 351.85 C 125.17 351.76 122.50 352.30 121.85 349.96 C 121.55 337.30 121.84 324.62 121.71 311.95 C 121.73 310.35 121.48 308.16 123.24 307.37 Z" />
<path fill="#0072bc" opacity="1.00" d=" M 126.61 311.82 C 138.33 311.89 150.07 311.69 161.79 311.92 C 161.63 323.62 161.75 335.33 161.73 347.04 C 150.03 347.20 138.32 347.06 126.62 347.12 C 126.59 335.35 126.61 323.58 126.61 311.82 Z" />
<path fill="#0072bc" opacity="1.00" d=" M 358.82 346.70 C 370.37 341.05 379.96 331.53 385.36 319.83 C 385.48 328.89 385.30 337.94 385.45 347.00 C 376.59 346.98 367.62 347.58 358.82 346.70 Z" />
<path fill="#0072bc" opacity="1.00" d=" M 294.37 333.87 C 299.56 339.39 305.75 343.91 312.60 347.16 C 306.52 347.04 300.43 347.18 294.35 347.06 C 294.36 342.66 294.33 338.26 294.37 333.87 Z" />
</svg>
