<?xml version="1.0" encoding="UTF-8" ?>
<!DOCTYPE svg PUBLIC "-//W3C//DTD SVG 1.1//EN" "http://www.w3.org/Graphics/SVG/1.1/DTD/svg11.dtd">
<svg width="512pt" height="512pt" viewBox="0 0 512 512" version="1.1" xmlns="http://www.w3.org/2000/svg">
<path fill="#0072bc" opacity="1.00" d=" M 0.00 0.00 L 512.00 0.00 L 512.00 512.00 L 0.00 512.00 L 0.00 0.00 Z" />
<path fill="#ffffff" opacity="1.00" d=" M 345.55 160.62 C 346.53 159.15 348.41 159.53 349.91 159.44 C 362.29 159.50 374.66 159.41 387.04 159.48 C 388.33 159.31 389.29 160.23 390.28 160.89 C 390.26 203.82 390.26 246.76 390.29 289.69 C 387.82 287.83 385.25 285.57 381.99 285.51 C 378.34 285.25 374.96 287.16 372.59 289.82 C 370.29 277.56 361.68 266.33 349.90 261.89 C 349.93 285.17 349.80 308.46 349.93 331.75 C 361.52 326.86 370.38 316.02 372.56 303.59 C 374.73 305.95 377.62 307.87 380.94 307.86 C 384.59 308.29 387.56 305.87 390.28 303.82 C 390.24 318.89 390.31 333.96 390.25 349.03 C 390.46 350.80 388.75 352.11 387.08 351.81 C 372.38 351.64 357.59 352.27 342.95 351.36 C 335.33 352.21 327.66 351.71 320.01 351.82 C 310.67 351.78 301.33 351.89 291.99 351.78 C 290.77 351.90 289.53 350.84 289.56 349.62 C 289.30 342.37 289.73 335.10 289.39 327.86 C 283.93 318.88 280.08 308.69 280.12 298.05 C 279.60 286.63 283.29 275.41 289.31 265.81 C 289.80 243.60 289.28 221.33 289.55 199.11 C 289.51 197.38 291.37 196.38 292.93 196.62 C 305.65 196.60 318.37 196.59 331.09 196.63 C 333.00 196.34 334.77 198.03 334.32 199.97 C 334.32 213.78 334.35 227.60 334.30 241.41 C 337.96 241.45 341.61 241.80 345.22 242.43 C 345.20 216.64 345.25 190.84 345.19 165.04 C 345.25 163.57 345.06 162.03 345.55 160.62 Z" />
<path fill="#0072bc" opacity="1.00" d=" M 349.95 164.29 C 361.77 164.27 373.59 164.29 385.41 164.27 C 385.37 200.76 385.42 237.25 385.39 273.74 C 378.81 258.94 365.29 247.87 349.86 243.31 C 349.94 216.97 349.80 190.63 349.95 164.29 Z" />
<path fill="#0072bc" opacity="1.00" d=" M 294.35 259.66 C 294.35 240.25 294.36 220.85 294.35 201.44 C 306.07 201.48 317.78 201.46 329.50 201.45 C 329.48 214.88 329.49 228.32 329.50 241.76 C 316.13 243.23 303.32 249.59 294.35 259.66 Z" />
<path fill="#ffffff" opacity="1.00" d=" M 234.39 234.37 C 247.57 233.87 260.81 234.32 274.01 234.15 C 275.84 233.90 278.26 234.58 277.82 236.92 C 277.85 274.30 277.84 311.69 277.82 349.07 C 278.12 350.73 276.71 352.04 275.08 351.80 C 262.04 351.83 249.00 351.82 235.96 351.81 C 233.76 352.22 232.53 350.01 232.85 348.10 C 232.86 311.38 232.86 274.67 232.85 237.96 C 232.83 236.69 232.96 234.84 234.39 234.37 Z" />
<path fill="#0072bc" opacity="1.00" d=" M 237.71 238.79 C 249.54 238.80 261.37 238.77 273.20 238.81 C 273.25 274.81 273.12 310.82 273.26 346.82 C 261.44 347.48 249.57 346.92 237.72 347.11 C 237.69 311.00 237.71 274.90 237.71 238.79 Z" />
<path fill="#0072bc" opacity="1.00" d=" M 334.34 334.66 C 334.34 309.34 334.27 284.02 334.37 258.70 C 338.01 258.74 341.62 259.23 345.19 259.93 C 345.26 284.39 345.19 308.86 345.23 333.32 C 341.68 334.33 338.00 334.60 334.34 334.66 Z" />
<path fill="#0072bc" opacity="1.00" d=" M 299.91 282.79 C 304.66 270.39 316.37 261.12 329.48 259.14 C 329.47 284.23 329.54 309.32 329.45 334.41 C 320.90 332.73 312.72 328.63 306.95 322.00 C 297.42 311.65 294.66 295.81 299.91 282.79 Z" />
<path fill="#ffffff" opacity="1.00" d=" M 179.37 271.42 C 192.61 271.12 205.87 271.35 219.11 271.31 C 220.70 271.06 222.46 272.23 222.28 273.98 C 222.33 299.02 222.31 324.08 222.29 349.12 C 222.50 350.88 220.72 352.12 219.10 351.81 C 206.07 351.81 193.03 351.86 180.00 351.78 C 178.42 351.95 177.24 350.37 177.49 348.89 C 177.45 324.25 177.49 299.60 177.46 274.95 C 177.32 273.54 177.69 271.63 179.37 271.42 Z" />
<path fill="#0072bc" opacity="1.00" d=" M 182.31 276.17 C 194.03 276.16 205.75 276.19 217.47 276.15 C 217.43 299.81 217.49 323.46 217.44 347.11 C 205.74 347.11 194.05 347.10 182.36 347.12 C 182.28 323.47 182.37 299.82 182.31 276.17 Z" />
<path fill="#ffffff" opacity="1.00" d=" M 123.33 307.35 C 136.19 306.77 149.12 307.29 162.01 307.09 C 163.60 307.07 166.33 306.95 166.50 309.12 C 166.68 322.43 166.55 335.75 166.56 349.06 C 166.83 350.55 165.53 351.94 164.03 351.79 C 151.00 351.85 137.97 351.81 124.95 351.81 C 123.25 352.11 121.59 350.78 121.76 349.01 C 121.68 336.35 121.77 323.69 121.72 311.03 C 121.65 309.69 121.85 307.84 123.33 307.35 Z" />
<path fill="#0072bc" opacity="1.00" d=" M 126.61 311.82 C 138.31 311.82 150.01 311.82 161.71 311.82 C 161.71 323.58 161.75 335.35 161.69 347.12 C 150.00 347.10 138.31 347.11 126.62 347.11 C 126.59 335.35 126.61 323.58 126.61 311.82 Z" />
<path fill="#0072bc" opacity="1.00" d=" M 357.74 347.16 C 369.82 341.66 379.97 331.84 385.35 319.66 C 385.44 328.81 385.39 337.96 385.38 347.12 C 376.16 347.12 366.95 347.06 357.74 347.16 Z" />
<path fill="#0072bc" opacity="1.00" d=" M 294.40 333.74 C 299.43 339.47 305.78 343.91 312.65 347.16 C 306.55 347.03 300.44 347.20 294.34 347.05 C 294.37 342.61 294.31 338.17 294.40 333.74 Z" />
</svg>
