<?xml version="1.0" encoding="UTF-8" ?>
<!DOCTYPE svg PUBLIC "-//W3C//DTD SVG 1.1//EN" "http://www.w3.org/Graphics/SVG/1.1/DTD/svg11.dtd">
<svg width="512pt" height="512pt" viewBox="0 0 512 512" version="1.1" xmlns="http://www.w3.org/2000/svg">
<path fill="#0072bc" opacity="1.00" d=" M 0.00 0.00 L 512.00 0.00 L 512.00 512.00 L 0.00 512.00 L 0.00 0.00 Z" />
<path fill="#ffffff" opacity="1.00" d=" M 345.22 162.95 C 344.88 161.11 346.15 159.19 348.16 159.48 C 360.77 159.41 373.38 159.49 385.98 159.45 C 387.58 159.26 389.04 159.89 390.30 160.83 C 390.18 223.57 390.38 286.30 390.24 349.04 C 390.43 350.81 388.76 352.10 387.08 351.80 C 374.36 351.80 361.64 351.89 348.92 351.76 C 343.98 350.73 339.03 351.93 334.06 351.82 C 320.70 351.85 307.33 351.78 293.97 351.84 C 292.43 351.79 290.33 352.09 289.66 350.28 C 289.15 342.83 289.81 335.32 289.38 327.87 C 284.00 318.84 280.07 308.67 280.13 298.01 C 279.61 286.59 283.35 275.43 289.29 265.80 C 289.84 243.58 289.25 221.30 289.57 199.06 C 289.56 197.37 291.38 196.39 292.92 196.63 C 305.64 196.59 318.36 196.59 331.09 196.63 C 332.96 196.36 334.75 197.97 334.32 199.90 C 334.34 213.75 334.34 227.60 334.30 241.44 C 337.96 241.50 341.61 241.89 345.23 242.46 C 345.22 215.96 345.21 189.46 345.22 162.95 Z" />
<path fill="#0072bc" opacity="1.00" d=" M 349.95 164.28 C 361.76 164.26 373.58 164.31 385.40 164.26 C 385.41 200.79 385.35 237.33 385.43 273.86 C 378.74 259.10 365.31 247.92 349.83 243.34 C 350.03 216.99 349.73 190.63 349.95 164.28 Z" />
<path fill="#0072bc" opacity="1.00" d=" M 294.34 259.68 C 294.37 240.26 294.34 220.85 294.35 201.43 C 306.07 201.48 317.79 201.46 329.50 201.45 C 329.43 214.95 329.58 228.45 329.43 241.95 C 316.04 243.13 303.31 249.72 294.34 259.68 Z" />
<path fill="#ffffff" opacity="1.00" d=" M 234.33 234.39 C 247.19 233.83 260.12 234.35 273.00 234.13 C 275.00 234.02 278.32 234.03 277.82 236.96 C 277.85 274.31 277.85 311.67 277.82 349.03 C 278.13 350.72 276.72 352.04 275.05 351.79 C 262.02 351.84 248.98 351.83 235.95 351.80 C 233.73 352.21 232.56 350.00 232.85 348.08 C 232.86 311.38 232.86 274.69 232.85 237.99 C 232.84 236.72 232.94 234.93 234.33 234.39 Z" />
<path fill="#0072bc" opacity="1.00" d=" M 237.71 238.79 C 249.56 238.90 261.41 238.57 273.25 238.96 C 273.17 274.93 273.18 310.90 273.25 346.87 C 261.42 347.41 249.56 346.96 237.72 347.11 C 237.69 311.00 237.71 274.90 237.71 238.79 Z" />
<path fill="#0072bc" opacity="1.00" d=" M 334.34 334.63 C 334.36 309.31 334.24 283.99 334.40 258.67 C 337.87 259.27 342.22 258.41 345.16 260.60 C 345.31 284.83 345.17 309.06 345.22 333.30 C 341.66 334.22 338.00 334.57 334.34 334.63 Z" />
<path fill="#0072bc" opacity="1.00" d=" M 300.19 282.08 C 305.12 270.03 316.63 261.12 329.48 259.15 C 329.48 284.22 329.53 309.30 329.45 334.38 C 320.43 332.62 311.85 328.12 306.01 320.92 C 297.06 310.37 294.78 294.79 300.19 282.08 Z" />
<path fill="#0072bc" opacity="1.00" d=" M 349.90 261.86 C 360.97 266.22 369.41 276.42 372.08 287.96 C 374.51 298.21 372.49 309.44 366.49 318.11 C 373.27 317.50 379.57 323.31 379.00 330.22 C 381.52 326.92 383.56 323.30 385.38 319.58 C 385.44 328.74 385.34 337.89 385.43 347.05 C 376.32 347.15 367.22 347.14 358.12 347.06 C 361.73 345.06 365.27 342.96 368.73 340.71 C 361.84 340.94 356.04 334.91 356.52 328.04 C 354.39 329.42 352.15 330.62 349.87 331.73 C 349.85 308.43 350.00 285.15 349.90 261.86 Z" />
<path fill="#ffffff" opacity="1.00" d=" M 179.36 271.43 C 192.59 271.11 205.85 271.35 219.08 271.31 C 220.71 271.06 222.46 272.22 222.27 274.01 C 222.36 298.68 222.26 323.35 222.32 348.02 C 222.50 349.54 221.95 351.87 220.01 351.74 C 206.67 351.89 193.32 351.83 179.99 351.77 C 178.40 351.95 177.28 350.35 177.48 348.90 C 177.45 324.25 177.49 299.60 177.46 274.96 C 177.34 273.57 177.70 271.63 179.36 271.43 Z" />
<path fill="#0072bc" opacity="1.00" d=" M 182.31 276.17 C 194.03 276.16 205.75 276.19 217.46 276.15 C 217.43 299.80 217.48 323.46 217.44 347.11 C 205.73 347.07 194.03 347.17 182.32 347.07 C 182.32 323.43 182.35 299.80 182.31 276.17 Z" />
<path fill="#ffffff" opacity="1.00" d=" M 123.29 307.37 C 136.16 306.74 149.11 307.31 162.02 307.09 C 163.94 306.87 166.99 307.31 166.55 309.95 C 166.60 323.01 166.61 336.08 166.55 349.14 C 166.80 350.62 165.45 351.96 163.98 351.78 C 150.97 351.86 137.96 351.82 124.95 351.80 C 123.26 352.10 121.62 350.80 121.77 349.04 C 121.65 336.69 121.79 324.34 121.70 311.99 C 121.75 310.41 121.48 308.07 123.29 307.37 Z" />
<path fill="#0072bc" opacity="1.00" d=" M 126.61 311.82 C 138.31 311.82 150.01 311.82 161.72 311.82 C 161.73 323.56 161.69 335.30 161.73 347.05 C 150.03 347.19 138.32 347.06 126.62 347.11 C 126.59 335.35 126.61 323.58 126.61 311.82 Z" />
<path fill="#0072bc" opacity="1.00" d=" M 294.37 333.76 C 299.36 339.34 305.61 343.53 312.16 347.05 C 306.23 347.17 300.29 347.10 294.36 347.09 C 294.35 342.64 294.34 338.20 294.37 333.76 Z" />
</svg>
