<?xml version="1.0" encoding="UTF-8" ?>
<!DOCTYPE svg PUBLIC "-//W3C//DTD SVG 1.1//EN" "http://www.w3.org/Graphics/SVG/1.1/DTD/svg11.dtd">
<svg width="512pt" height="512pt" viewBox="0 0 512 512" version="1.1" xmlns="http://www.w3.org/2000/svg">
<path fill="#e2b300" opacity="1.00" d=" M 0.00 0.00 L 512.00 0.00 L 512.00 512.00 L 0.00 512.00 L 0.00 0.00 Z" />
<path fill="#ffffff" opacity="1.00" d=" M 345.22 162.91 C 344.89 161.15 346.10 159.21 348.05 159.49 C 361.05 159.43 374.07 159.45 387.08 159.48 C 388.38 159.29 389.31 160.24 390.28 160.92 C 390.27 220.74 390.25 280.56 390.29 340.38 C 388.82 336.84 386.22 333.68 385.43 329.91 C 385.35 274.70 385.41 219.48 385.40 164.26 C 373.53 164.43 361.64 163.99 349.78 164.49 C 350.06 187.98 349.74 211.47 349.94 234.96 C 349.90 243.26 349.65 251.57 350.20 259.86 C 348.17 255.74 344.75 251.80 345.19 246.94 C 345.26 218.93 345.20 190.92 345.22 162.91 Z" />
<path fill="#ffffff" opacity="1.00" d=" M 289.50 199.97 C 289.14 197.99 290.91 196.26 292.89 196.62 C 305.62 196.60 318.34 196.59 331.07 196.62 C 332.96 196.34 334.76 197.97 334.32 199.93 C 334.28 216.04 334.42 232.16 334.25 248.27 C 325.78 265.97 316.72 283.41 308.04 301.02 C 301.81 313.26 295.90 325.67 289.50 337.83 C 289.50 291.87 289.49 245.92 289.50 199.97 Z" />
<path fill="#ffffff" opacity="1.00" d=" M 234.25 234.40 C 247.48 233.84 260.78 234.33 274.03 234.15 C 275.85 233.89 278.25 234.59 277.83 236.91 C 277.84 274.29 277.84 311.68 277.83 349.07 C 278.12 350.69 276.74 352.02 275.13 351.80 C 262.04 351.83 248.95 351.82 235.86 351.81 C 233.69 352.17 232.53 349.93 232.85 348.06 C 232.86 311.36 232.86 274.66 232.85 237.96 C 232.80 236.67 232.98 235.07 234.25 234.40 Z" />
<path fill="#ffffff" opacity="1.00" d=" M 339.19 249.17 C 349.92 269.83 359.93 290.86 370.49 311.61 C 377.15 325.28 384.30 338.71 390.91 352.40 C 356.51 352.40 322.11 352.37 287.72 352.42 C 301.83 323.43 316.51 294.72 330.84 265.83 C 333.54 260.24 336.77 254.90 339.19 249.17 Z" />
<path fill="#ffffff" opacity="1.00" d=" M 179.38 271.42 C 192.59 271.12 205.84 271.35 219.06 271.30 C 220.69 271.06 222.48 272.20 222.28 274.00 C 222.33 299.03 222.31 324.06 222.29 349.09 C 222.52 350.87 220.73 352.13 219.08 351.81 C 206.04 351.80 192.99 351.86 179.96 351.78 C 178.39 351.94 177.26 350.34 177.48 348.90 C 177.45 324.25 177.49 299.59 177.46 274.94 C 177.32 273.53 177.69 271.64 179.38 271.42 Z" />
<path fill="#e2b300" opacity="1.00" d=" M 331.25 278.73 C 336.41 278.54 341.58 278.46 346.75 278.71 C 346.11 294.28 345.49 309.85 345.07 325.44 C 341.01 325.50 336.94 325.56 332.89 325.33 C 332.43 309.79 331.63 294.27 331.25 278.73 Z" />
<path fill="#ffffff" opacity="1.00" d=" M 123.31 307.36 C 136.17 306.76 149.12 307.30 162.01 307.09 C 163.89 306.87 166.91 307.26 166.56 309.85 C 166.59 322.93 166.60 336.02 166.56 349.11 C 166.82 350.55 165.52 351.93 164.06 351.79 C 151.01 351.85 137.95 351.81 124.90 351.81 C 123.24 352.09 121.60 350.79 121.76 349.06 C 121.68 336.36 121.77 323.65 121.72 310.95 C 121.64 309.63 121.87 307.86 123.31 307.36 Z" />
<path fill="#e2b300" opacity="1.00" d=" M 335.38 332.51 C 339.38 330.76 344.77 332.12 346.76 336.21 C 349.59 340.96 345.46 347.77 339.96 347.60 C 335.11 348.41 329.95 344.13 330.42 339.11 C 330.56 336.14 332.72 333.64 335.38 332.51 Z" />
</svg>
