<?xml version="1.0" encoding="UTF-8" ?>
<!DOCTYPE svg PUBLIC "-//W3C//DTD SVG 1.1//EN" "http://www.w3.org/Graphics/SVG/1.1/DTD/svg11.dtd">
<svg width="512pt" height="512pt" viewBox="0 0 512 512" version="1.1" xmlns="http://www.w3.org/2000/svg">
<path fill="#f7941d" opacity="1.00" d=" M 0.00 0.00 L 512.00 0.00 L 512.00 512.00 L 0.00 512.00 L 0.00 0.00 Z" />
<path fill="#ffffff" opacity="1.00" d=" M 345.22 162.99 C 344.91 161.18 346.08 159.23 348.09 159.49 C 360.73 159.41 373.38 159.49 386.02 159.45 C 387.60 159.27 389.04 159.88 390.29 160.79 C 390.22 223.54 390.32 286.29 390.24 349.04 C 390.43 350.76 388.78 352.10 387.13 351.80 C 374.06 351.82 360.97 351.85 347.90 351.79 C 345.75 352.08 344.96 349.80 345.21 348.07 C 345.23 286.37 345.21 224.68 345.22 162.99 Z" />
<path fill="#f7941d" opacity="1.00" d=" M 349.98 164.27 C 361.75 164.23 373.53 164.40 385.30 164.18 C 385.51 225.15 385.35 286.13 385.38 347.11 C 374.24 347.08 363.09 347.16 351.95 347.09 C 349.30 347.69 349.95 344.63 349.84 343.01 C 350.05 283.43 349.75 223.85 349.98 164.27 Z" />
<path fill="#ffffff" opacity="1.00" d=" M 290.39 197.37 C 291.53 196.16 293.44 196.81 294.93 196.58 C 306.97 196.66 319.01 196.56 331.05 196.62 C 332.90 196.40 334.79 197.94 334.31 199.90 C 334.33 249.59 334.34 299.28 334.31 348.97 C 334.59 350.86 332.80 352.11 331.07 351.81 C 318.05 351.80 305.02 351.89 292.01 351.77 C 290.45 351.94 289.33 350.40 289.51 348.96 C 289.46 299.64 289.54 250.32 289.47 201.00 C 289.59 199.78 289.24 198.23 290.39 197.37 Z" />
<path fill="#f7941d" opacity="1.00" d=" M 294.32 347.04 C 294.41 298.50 294.31 249.96 294.38 201.42 C 306.08 201.49 317.79 201.45 329.50 201.45 C 329.46 250.00 329.53 298.56 329.47 347.11 C 317.75 347.06 306.04 347.20 294.32 347.04 Z" />
<path fill="#ffffff" opacity="1.00" d=" M 234.30 234.39 C 247.16 233.82 260.09 234.36 272.97 234.13 C 274.94 234.05 278.26 233.97 277.81 236.89 C 277.85 274.27 277.85 311.64 277.82 349.02 C 278.14 350.73 276.70 352.04 275.03 351.79 C 261.99 351.84 248.94 351.84 235.91 351.79 C 233.69 352.19 232.56 349.96 232.85 348.06 C 232.85 311.38 232.86 274.69 232.85 238.00 C 232.83 236.71 232.94 235.01 234.30 234.39 Z" />
<path fill="#ffffff" opacity="1.00" d=" M 179.37 271.44 C 192.26 271.07 205.18 271.41 218.09 271.27 C 219.89 271.06 222.45 271.63 222.27 273.96 C 222.37 298.63 222.26 323.31 222.32 347.98 C 222.50 349.52 221.96 351.86 219.99 351.74 C 207.00 351.93 194.00 351.76 181.00 351.82 C 179.21 352.16 177.16 350.97 177.49 348.96 C 177.44 324.29 177.50 299.61 177.46 274.94 C 177.35 273.57 177.70 271.61 179.37 271.44 Z" />
<path fill="#ffffff" opacity="1.00" d=" M 123.26 307.37 C 136.13 306.73 149.09 307.31 161.99 307.09 C 163.89 306.89 166.95 307.28 166.55 309.89 C 166.60 322.95 166.60 336.00 166.55 349.06 C 166.83 350.57 165.51 351.94 163.98 351.78 C 150.97 351.86 137.96 351.81 124.95 351.80 C 123.24 352.10 121.63 350.80 121.77 349.03 C 121.64 336.69 121.80 324.35 121.70 312.02 C 121.75 310.43 121.48 308.14 123.26 307.37 Z" />
</svg>
