<?xml version="1.0" encoding="UTF-8" ?>
<!DOCTYPE svg PUBLIC "-//W3C//DTD SVG 1.1//EN" "http://www.w3.org/Graphics/SVG/1.1/DTD/svg11.dtd">
<svg width="512pt" height="512pt" viewBox="0 0 512 512" version="1.1" xmlns="http://www.w3.org/2000/svg">
<path fill="#e2b300" opacity="1.00" d=" M 0.00 0.00 L 512.00 0.00 L 512.00 512.00 L 0.00 512.00 L 0.00 0.00 Z" />
<path fill="#ffffff" opacity="1.00" d=" M 345.22 162.98 C 344.89 161.17 346.09 159.20 348.11 159.48 C 361.08 159.43 374.07 159.45 387.04 159.48 C 388.97 159.20 390.72 160.96 390.27 162.92 C 390.28 222.06 390.25 281.20 390.28 340.34 C 388.69 336.24 385.09 332.63 385.37 327.99 C 385.46 273.43 385.33 218.87 385.43 164.31 C 373.61 164.22 361.79 164.31 349.97 164.27 C 349.73 195.98 350.03 227.69 349.82 259.40 C 348.30 256.44 346.57 253.57 345.42 250.45 C 345.00 248.00 345.26 245.51 345.21 243.05 C 345.23 216.36 345.21 189.67 345.22 162.98 Z" />
<path fill="#ffffff" opacity="1.00" d=" M 289.51 199.89 C 289.16 197.86 291.06 196.23 293.03 196.62 C 305.69 196.59 318.35 196.60 331.01 196.62 C 332.86 196.36 334.79 197.93 334.32 199.89 C 334.28 216.00 334.43 232.11 334.24 248.22 C 333.00 251.62 331.16 254.77 329.43 257.95 C 329.57 239.11 329.44 220.28 329.50 201.45 C 317.78 201.46 306.07 201.48 294.35 201.44 C 294.38 242.64 294.30 283.83 294.39 325.03 C 294.79 329.86 291.37 333.74 289.51 337.92 C 289.49 291.91 289.49 245.90 289.51 199.89 Z" />
<path fill="#ffffff" opacity="1.00" d=" M 234.31 234.39 C 247.16 233.83 260.08 234.35 272.95 234.13 C 274.93 234.02 278.28 233.99 277.82 236.90 C 277.85 274.28 277.84 311.66 277.82 349.03 C 278.13 350.71 276.72 352.04 275.07 351.80 C 262.03 351.83 248.99 351.82 235.95 351.80 C 233.72 352.22 232.53 349.95 232.85 348.03 C 232.86 311.36 232.86 274.69 232.84 238.02 C 232.83 236.74 232.93 234.98 234.31 234.39 Z" />
<path fill="#e2b300" opacity="1.00" d=" M 237.72 238.79 C 249.56 238.92 261.42 238.54 273.26 238.98 C 273.16 274.94 273.19 310.91 273.24 346.87 C 261.42 347.42 249.56 346.95 237.73 347.11 C 237.69 311.00 237.71 274.90 237.72 238.79 Z" />
<path fill="#ffffff" opacity="1.00" d=" M 339.22 249.18 C 354.77 279.64 369.67 310.44 385.21 340.91 C 387.26 344.67 389.17 348.49 390.91 352.40 C 356.51 352.40 322.12 352.37 287.72 352.42 C 304.86 318.00 322.20 283.66 339.22 249.18 Z" />
<path fill="#ffffff" opacity="1.00" d=" M 179.38 271.43 C 192.61 271.11 205.87 271.34 219.11 271.31 C 220.69 271.07 222.46 272.21 222.27 273.95 C 222.37 298.65 222.26 323.36 222.33 348.06 C 222.52 349.56 221.95 351.82 220.05 351.75 C 206.72 351.89 193.37 351.82 180.04 351.78 C 178.45 351.96 177.26 350.41 177.48 348.92 C 177.45 324.28 177.49 299.64 177.46 274.99 C 177.34 273.59 177.67 271.63 179.38 271.43 Z" />
<path fill="#e2b300" opacity="1.00" d=" M 332.89 325.34 C 332.47 309.78 331.55 294.24 331.31 278.68 C 336.47 278.60 341.63 278.40 346.78 278.76 C 346.06 294.31 345.51 309.87 345.07 325.44 C 341.00 325.50 336.94 325.55 332.89 325.34 Z" />
<path fill="#ffffff" opacity="1.00" d=" M 123.29 307.36 C 136.15 306.75 149.08 307.30 161.96 307.09 C 163.83 306.89 166.89 307.23 166.56 309.82 C 166.60 322.90 166.59 335.99 166.56 349.08 C 166.83 350.58 165.49 351.95 163.98 351.79 C 150.96 351.85 137.93 351.82 124.91 351.80 C 123.24 352.10 121.58 350.77 121.77 349.02 C 121.67 336.35 121.77 323.66 121.72 310.98 C 121.66 309.66 121.85 307.88 123.29 307.36 Z" />
<path fill="#e2b300" opacity="1.00" d=" M 335.35 332.52 C 341.19 329.48 349.34 335.00 347.42 341.64 C 345.92 348.23 336.34 349.74 332.33 344.65 C 328.63 340.96 330.59 334.23 335.35 332.52 Z" />
</svg>
