<?xml version="1.0" encoding="UTF-8" ?>
<!DOCTYPE svg PUBLIC "-//W3C//DTD SVG 1.1//EN" "http://www.w3.org/Graphics/SVG/1.1/DTD/svg11.dtd">
<svg width="512pt" height="512pt" viewBox="0 0 512 512" version="1.1" xmlns="http://www.w3.org/2000/svg">
<path fill="#e2b300" opacity="1.00" d=" M 0.00 0.00 L 512.00 0.00 L 512.00 512.00 L 0.00 512.00 L 0.00 0.00 Z" />
<path fill="#ffffff" opacity="1.00" d=" M 345.22 162.96 C 344.92 161.17 346.06 159.23 348.07 159.49 C 360.74 159.40 373.42 159.49 386.10 159.45 C 387.66 159.26 389.05 159.95 390.31 160.80 C 390.21 220.60 390.30 280.41 390.27 340.22 C 375.43 311.12 361.06 281.78 346.33 252.63 C 345.55 251.23 345.13 249.65 345.20 248.05 C 345.24 219.69 345.20 191.32 345.22 162.96 Z" />
<path fill="#ffffff" opacity="1.00" d=" M 289.51 199.99 C 289.16 197.98 290.95 196.24 292.95 196.63 C 305.65 196.59 318.36 196.58 331.06 196.63 C 332.95 196.38 334.78 197.97 334.31 199.94 C 334.36 215.31 334.29 230.68 334.35 246.05 C 334.50 247.82 333.90 249.50 333.07 251.03 C 318.46 279.91 304.24 308.99 289.52 337.81 C 289.47 291.87 289.50 245.93 289.51 199.99 Z" />
<path fill="#ffffff" opacity="1.00" d=" M 234.30 234.39 C 247.18 233.83 260.12 234.35 273.02 234.13 C 275.01 234.05 278.31 234.01 277.81 236.94 C 277.85 274.32 277.85 311.70 277.81 349.07 C 278.12 350.76 276.69 352.03 275.05 351.79 C 262.01 351.84 248.96 351.83 235.92 351.79 C 233.73 352.20 232.58 350.01 232.85 348.12 C 232.85 311.39 232.86 274.66 232.85 237.92 C 232.85 236.66 232.98 234.98 234.30 234.39 Z" />
<path fill="#ffffff" opacity="1.00" d=" M 339.23 249.21 C 351.61 273.14 363.48 297.34 375.58 321.42 C 380.67 331.76 386.02 341.97 390.91 352.40 C 356.52 352.40 322.12 352.37 287.72 352.42 C 304.61 317.88 322.03 283.59 339.23 249.21 Z" />
<path fill="#ffffff" opacity="1.00" d=" M 179.30 271.45 C 192.19 271.05 205.11 271.42 218.01 271.27 C 219.81 271.09 222.42 271.54 222.26 273.91 C 222.38 298.61 222.26 323.32 222.32 348.03 C 222.50 349.56 221.94 351.85 219.99 351.74 C 206.69 351.88 193.37 351.83 180.07 351.77 C 178.43 351.98 177.28 350.38 177.49 348.88 C 177.44 324.25 177.49 299.62 177.46 274.99 C 177.36 273.60 177.64 271.72 179.30 271.45 Z" />
<path fill="#e2b300" opacity="1.00" d=" M 331.26 278.72 C 336.42 278.54 341.59 278.48 346.75 278.70 C 346.11 294.28 345.49 309.85 345.07 325.44 C 341.01 325.51 336.95 325.52 332.89 325.35 C 332.43 309.80 331.63 294.27 331.26 278.72 Z" />
<path fill="#ffffff" opacity="1.00" d=" M 123.34 307.36 C 135.86 306.74 148.46 307.32 161.01 307.08 C 163.10 307.05 166.93 306.75 166.55 309.91 C 166.61 322.95 166.60 336.00 166.55 349.04 C 166.84 350.57 165.50 351.95 163.96 351.78 C 150.94 351.86 137.92 351.81 124.91 351.80 C 123.23 352.07 121.62 350.79 121.77 349.04 C 121.64 336.70 121.80 324.36 121.70 312.02 C 121.76 310.42 121.47 308.02 123.34 307.36 Z" />
<path fill="#e2b300" opacity="1.00" d=" M 335.37 332.52 C 341.18 329.51 349.28 334.95 347.44 341.57 C 346.00 348.19 336.40 349.76 332.36 344.68 C 328.63 340.99 330.57 334.21 335.37 332.52 Z" />
</svg>
