<?xml version="1.0" encoding="UTF-8" ?>
<!DOCTYPE svg PUBLIC "-//W3C//DTD SVG 1.1//EN" "http://www.w3.org/Graphics/SVG/1.1/DTD/svg11.dtd">
<svg width="512pt" height="512pt" viewBox="0 0 512 512" version="1.1" xmlns="http://www.w3.org/2000/svg">
<path fill="#ffc000" opacity="1.00" d=" M 0.00 0.00 L 512.00 0.00 L 512.00 512.00 L 0.00 512.00 L 0.00 0.00 Z" />
<path fill="#ffffff" opacity="1.00" d=" M 345.22 162.91 C 344.88 161.13 346.06 159.19 348.04 159.48 C 360.71 159.42 373.39 159.49 386.07 159.44 C 387.64 159.25 389.09 159.84 390.31 160.80 C 390.22 204.21 390.29 247.63 390.28 291.04 C 388.59 290.76 385.14 291.71 385.36 288.96 C 385.37 247.42 385.33 205.89 385.39 164.35 C 373.63 164.30 361.87 164.34 350.12 164.33 C 350.20 198.95 350.10 233.57 350.17 268.19 C 348.52 267.60 346.88 267.01 345.24 266.44 C 345.19 231.93 345.23 197.42 345.22 162.91 Z" />
<path fill="#ffffff" opacity="1.00" d=" M 289.57 198.98 C 289.43 197.22 291.51 196.41 292.98 196.62 C 305.68 196.60 318.39 196.59 331.09 196.63 C 333.00 196.32 334.76 197.96 334.32 199.90 C 334.27 211.92 334.45 223.94 334.22 235.95 C 331.57 236.06 330.20 238.23 329.26 240.42 C 329.65 227.45 329.32 214.47 329.45 201.50 C 317.76 201.51 306.08 201.53 294.39 201.49 C 294.39 218.36 294.38 235.24 294.40 252.11 C 292.91 252.54 289.74 253.92 291.47 255.88 C 290.94 256.00 289.87 256.24 289.34 256.37 C 289.75 237.24 289.29 218.10 289.57 198.98 Z" />
<path fill="#ffffff" opacity="1.00" d=" M 232.84 237.96 C 232.75 236.51 233.13 234.15 235.05 234.24 C 248.40 234.07 261.76 234.17 275.10 234.19 C 276.80 233.94 278.12 235.17 277.82 236.89 C 277.88 255.00 277.80 273.11 277.85 291.22 C 273.41 292.63 273.42 299.14 277.83 300.57 C 277.85 316.39 277.81 332.21 277.86 348.03 C 277.85 349.42 277.95 351.77 275.94 351.72 C 262.62 351.95 249.28 351.77 235.95 351.80 C 234.25 352.10 232.71 350.80 232.89 349.05 C 232.80 312.02 232.89 274.99 232.84 237.96 Z" />
<path fill="#ffc000" opacity="1.00" d=" M 237.76 238.83 C 249.27 238.89 260.78 238.73 272.29 238.90 C 272.49 239.10 272.89 239.51 273.09 239.72 C 273.26 275.42 273.08 311.14 273.18 346.86 C 261.37 347.00 249.56 346.84 237.76 346.91 C 237.76 310.89 237.75 274.86 237.76 238.83 Z" />
<path fill="#ffffff" opacity="1.00" d=" M 330.11 269.19 C 331.70 259.99 332.66 250.68 334.30 241.50 C 336.33 250.63 337.11 259.99 338.60 269.23 C 342.93 269.96 346.75 272.17 350.71 273.80 C 358.45 268.39 365.81 262.46 373.50 256.98 C 367.74 264.66 362.04 272.37 356.28 280.04 C 358.57 283.58 360.35 287.47 361.04 291.66 C 369.70 293.07 378.37 294.46 387.11 295.37 C 387.91 295.48 388.63 295.79 389.29 296.30 C 379.82 297.27 370.42 298.80 361.02 300.25 C 360.37 304.47 358.54 308.36 356.28 311.95 C 362.16 319.64 367.81 327.49 373.71 335.16 C 366.20 329.70 358.87 323.99 351.34 318.55 C 350.34 317.56 349.12 318.88 348.15 319.23 C 345.23 321.01 341.89 321.84 338.60 322.66 C 337.16 332.14 336.16 341.70 334.26 351.10 C 332.94 341.65 331.56 332.20 330.17 322.76 C 325.88 322.06 322.21 319.55 318.23 318.18 C 310.55 323.76 302.72 329.22 295.48 335.38 C 295.50 335.11 295.54 334.58 295.56 334.32 C 301.66 327.22 306.85 319.39 312.60 312.01 C 310.20 308.38 308.48 304.35 307.61 300.09 C 298.34 298.83 289.08 297.52 279.83 296.16 C 288.97 293.95 298.45 293.48 307.68 291.72 C 308.49 287.50 310.20 283.52 312.61 279.97 C 306.79 272.27 301.10 264.47 295.25 256.80 C 302.73 262.29 310.09 267.94 317.58 273.42 C 318.58 274.40 319.81 273.17 320.78 272.81 C 323.66 271.05 326.87 270.04 330.11 269.19 Z" />
<path fill="#ffffff" opacity="1.00" d=" M 289.50 260.89 C 289.19 259.43 290.29 258.37 290.90 257.19 C 291.18 259.73 293.11 261.57 294.46 263.60 C 294.34 271.99 294.37 280.39 294.44 288.78 C 292.79 289.13 291.14 289.46 289.49 289.77 C 289.52 280.14 289.48 270.52 289.50 260.89 Z" />
<path fill="#ffffff" opacity="1.00" d=" M 179.33 271.41 C 192.58 271.12 205.86 271.35 219.12 271.30 C 220.73 271.04 222.51 272.19 222.28 273.98 C 222.36 298.65 222.26 323.32 222.33 347.99 C 222.52 349.56 221.99 351.97 219.94 351.76 C 206.96 351.91 193.97 351.76 180.99 351.83 C 179.30 352.14 177.16 351.11 177.49 349.13 C 177.43 324.41 177.50 299.68 177.46 274.96 C 177.34 273.58 177.62 271.59 179.33 271.41 Z" />
<path fill="#ffc000" opacity="1.00" d=" M 182.35 276.20 C 194.03 276.18 205.72 276.21 217.41 276.19 C 217.37 299.81 217.44 323.43 217.37 347.06 C 205.70 346.73 194.03 346.94 182.35 346.96 C 182.37 323.37 182.38 299.79 182.35 276.20 Z" />
<path fill="#ffffff" opacity="1.00" d=" M 385.29 301.63 C 386.93 301.21 388.59 300.90 390.27 300.63 C 390.29 316.10 390.23 331.56 390.30 347.02 C 390.22 348.53 390.56 350.34 389.24 351.46 C 387.90 351.97 386.42 351.76 385.03 351.85 C 372.66 351.75 360.29 351.88 347.93 351.79 C 346.32 352.03 345.01 350.67 345.25 349.08 C 345.12 341.26 345.33 333.44 345.16 325.63 C 346.84 324.94 348.51 324.22 350.19 323.52 C 350.09 331.32 350.17 339.11 350.14 346.91 C 361.88 346.90 373.62 346.89 385.36 346.91 C 385.32 331.82 385.45 316.72 385.29 301.63 Z" />
<path fill="#ffffff" opacity="1.00" d=" M 289.58 301.99 C 291.17 302.37 292.77 302.77 294.38 303.12 C 294.37 311.12 294.43 319.12 294.38 327.12 C 294.79 330.31 290.55 331.58 290.95 334.78 C 290.31 333.63 289.14 332.59 289.49 331.13 C 289.53 321.42 289.41 311.70 289.58 301.99 Z" />
<path fill="#ffffff" opacity="1.00" d=" M 123.23 307.34 C 136.46 306.80 149.74 307.26 162.99 307.11 C 164.73 306.80 166.95 307.82 166.56 309.89 C 166.59 322.97 166.60 336.05 166.56 349.13 C 166.83 350.63 165.52 351.98 164.01 351.79 C 151.00 351.85 137.98 351.81 124.96 351.81 C 123.31 352.14 121.56 350.87 121.76 349.10 C 121.65 336.72 121.80 324.35 121.70 311.97 C 121.76 310.38 121.42 308.10 123.23 307.34 Z" />
<path fill="#ffc000" opacity="1.00" d=" M 126.65 311.86 C 138.29 311.81 149.93 311.96 161.56 311.78 C 161.83 323.49 161.60 335.21 161.68 346.92 C 150.01 346.97 138.33 346.72 126.66 347.05 C 126.62 335.32 126.64 323.59 126.65 311.86 Z" />
<path fill="#ffffff" opacity="1.00" d=" M 289.33 335.60 C 289.91 335.75 291.08 336.06 291.66 336.22 L 290.54 337.29 C 291.72 338.26 293.02 339.10 294.40 339.77 C 294.41 342.17 294.39 344.56 294.37 346.96 C 304.58 346.84 314.80 346.95 325.02 346.87 C 326.60 346.77 328.13 347.18 329.63 347.66 C 329.56 349.06 329.50 350.46 329.44 351.86 C 316.96 351.73 304.47 351.91 291.99 351.78 C 290.41 351.91 289.27 350.55 289.53 349.03 C 289.36 344.55 289.68 340.07 289.33 335.60 Z" />
</svg>
