<?xml version="1.0" encoding="UTF-8" ?>
<!DOCTYPE svg PUBLIC "-//W3C//DTD SVG 1.1//EN" "http://www.w3.org/Graphics/SVG/1.1/DTD/svg11.dtd">
<svg width="512pt" height="512pt" viewBox="0 0 512 512" version="1.1" xmlns="http://www.w3.org/2000/svg">
<path fill="#f26522" opacity="1.00" d=" M 0.00 0.00 L 512.00 0.00 L 512.00 512.00 L 0.00 512.00 L 0.00 0.00 Z" />
<path fill="#ffffff" opacity="1.00" d=" M 347.36 159.57 C 359.91 159.28 372.47 159.58 385.02 159.43 C 386.92 159.25 388.73 159.75 390.34 160.75 C 390.20 221.83 390.28 282.91 390.30 344.00 C 390.07 346.45 390.96 349.36 389.25 351.42 C 387.88 351.89 386.39 351.79 384.97 351.85 C 372.98 351.77 360.99 351.84 349.00 351.82 C 347.63 351.76 345.41 351.84 345.38 349.94 C 344.99 346.64 345.26 343.31 345.22 340.00 C 345.20 281.32 345.25 222.63 345.20 163.95 C 345.19 162.30 345.11 159.69 347.36 159.57 Z" />
<path fill="#f26522" opacity="1.00" d=" M 349.86 164.32 C 361.71 164.22 373.56 164.32 385.41 164.27 C 385.37 225.22 385.41 286.16 385.39 347.11 C 373.65 347.15 361.92 347.01 350.18 347.19 C 349.73 342.46 349.92 337.71 349.89 332.98 C 349.86 276.76 349.94 220.54 349.86 164.32 Z" />
<path fill="#ffffff" opacity="1.00" d=" M 290.37 197.40 C 291.53 196.16 293.50 196.81 295.01 196.58 C 307.05 196.68 319.09 196.52 331.13 196.65 C 333.03 196.36 334.69 198.03 334.32 199.93 C 334.35 249.27 334.30 298.61 334.34 347.95 C 334.48 349.50 334.02 351.92 331.98 351.73 C 318.96 351.94 305.92 351.77 292.90 351.81 C 291.10 352.11 289.22 350.89 289.52 348.92 C 289.45 299.59 289.54 250.25 289.48 200.92 C 289.59 199.73 289.30 198.25 290.37 197.40 Z" />
<path fill="#f26522" opacity="1.00" d=" M 294.37 347.12 C 294.32 298.56 294.38 250.00 294.34 201.44 C 306.06 201.47 317.78 201.47 329.50 201.45 C 329.46 250.00 329.52 298.56 329.47 347.11 C 317.77 347.11 306.07 347.10 294.37 347.12 Z" />
<path fill="#ffffff" opacity="1.00" d=" M 234.31 234.41 C 246.83 233.79 259.42 234.38 271.97 234.13 C 274.16 234.20 278.29 233.54 277.81 236.99 C 277.89 274.02 277.80 311.06 277.85 348.09 C 278.12 349.94 277.33 352.17 275.05 351.77 C 262.01 351.86 248.97 351.84 235.93 351.78 C 233.70 352.18 232.64 350.03 232.86 348.12 C 232.83 311.75 232.90 275.38 232.83 239.00 C 232.94 237.47 232.60 235.20 234.31 234.41 Z" />
<path fill="#f26522" opacity="1.00" d=" M 237.71 238.79 C 249.54 238.80 261.37 238.78 273.20 238.80 C 273.26 274.81 273.10 310.81 273.28 346.82 C 261.44 347.47 249.57 346.93 237.72 347.11 C 237.70 311.00 237.70 274.90 237.71 238.79 Z" />
<path fill="#ffffff" opacity="1.00" d=" M 179.38 271.44 C 191.91 271.04 204.47 271.44 217.02 271.26 C 219.05 271.22 222.37 271.03 222.25 273.96 C 222.39 298.67 222.26 323.40 222.32 348.11 C 222.44 349.62 221.91 351.91 219.97 351.72 C 206.98 351.95 193.98 351.76 180.98 351.82 C 179.16 352.13 177.18 350.96 177.50 348.93 C 177.43 324.28 177.50 299.62 177.46 274.97 C 177.38 273.60 177.70 271.61 179.38 271.44 Z" />
<path fill="#ffffff" opacity="1.00" d=" M 123.35 307.38 C 135.87 306.71 148.47 307.34 161.01 307.07 C 163.08 307.04 166.89 306.78 166.55 309.90 C 166.61 322.96 166.61 336.02 166.55 349.08 C 166.90 351.12 164.77 352.06 163.06 351.82 C 150.36 351.80 137.65 351.86 124.95 351.79 C 123.17 352.08 121.66 350.79 121.78 348.95 C 121.62 336.66 121.81 324.35 121.70 312.06 C 121.79 310.50 121.47 307.95 123.35 307.38 Z" />
</svg>
