<?xml version="1.0" encoding="UTF-8" ?>
<!DOCTYPE svg PUBLIC "-//W3C//DTD SVG 1.1//EN" "http://www.w3.org/Graphics/SVG/1.1/DTD/svg11.dtd">
<svg width="512pt" height="512pt" viewBox="0 0 512 512" version="1.1" xmlns="http://www.w3.org/2000/svg">
<path fill="#00a651" opacity="1.00" d=" M 0.00 0.00 L 512.00 0.00 L 512.00 512.00 L 0.00 512.00 L 0.00 0.00 Z" />
<path fill="#ffffff" opacity="1.00" d=" M 345.23 162.91 C 344.91 161.08 346.16 159.23 348.14 159.49 C 360.76 159.40 373.39 159.49 386.01 159.45 C 387.59 159.28 388.98 160.01 390.32 160.73 C 390.21 223.15 390.29 285.58 390.28 348.00 C 390.39 349.48 389.93 351.82 388.02 351.72 C 374.98 351.96 361.93 351.74 348.89 351.82 C 347.80 351.67 345.95 351.96 345.56 350.59 C 344.89 347.80 345.29 344.88 345.21 342.04 C 345.24 282.33 345.20 222.62 345.23 162.91 Z" />
<path fill="#ffffff" opacity="1.00" d=" M 289.52 199.94 C 289.17 197.94 290.93 196.29 292.92 196.63 C 306.06 196.56 319.21 196.63 332.35 196.61 C 332.84 196.96 333.80 197.67 334.28 198.02 C 334.39 248.01 334.28 298.01 334.34 348.01 C 334.51 349.57 333.96 351.94 331.94 351.74 C 318.94 351.92 305.93 351.77 292.94 351.81 C 291.08 352.14 289.20 350.86 289.52 348.85 C 289.48 299.22 289.48 249.58 289.52 199.94 Z" />
<path fill="#ffffff" opacity="1.00" d=" M 234.37 234.41 C 245.88 233.79 257.46 234.37 269.00 234.14 C 271.77 234.27 274.70 233.72 277.35 234.75 C 277.90 236.09 277.82 237.57 277.87 238.99 C 277.77 275.69 277.90 312.39 277.80 349.09 C 278.09 350.79 276.70 352.01 275.05 351.78 C 262.00 351.85 248.93 351.84 235.87 351.79 C 233.64 352.18 232.64 349.95 232.86 348.07 C 232.85 311.34 232.85 274.60 232.86 237.87 C 232.94 236.70 232.94 234.75 234.37 234.41 Z" />
<path fill="#ffffff" opacity="1.00" d=" M 179.31 271.46 C 191.87 271.03 204.47 271.44 217.05 271.26 C 219.09 271.20 222.41 271.05 222.26 274.00 C 222.38 298.67 222.26 323.36 222.32 348.03 C 222.46 349.55 221.93 351.92 219.97 351.73 C 207.29 351.95 194.61 351.72 181.93 351.84 C 180.46 351.73 178.29 352.11 177.67 350.32 C 177.27 347.90 177.50 345.43 177.46 343.00 C 177.49 320.33 177.47 297.66 177.46 275.00 C 177.38 273.64 177.66 271.69 179.31 271.46 Z" />
<path fill="#ffffff" opacity="1.00" d=" M 123.38 307.36 C 136.24 306.76 149.16 307.30 162.05 307.09 C 163.94 306.89 166.94 307.32 166.55 309.92 C 166.61 322.97 166.60 336.03 166.55 349.08 C 166.88 351.10 164.78 352.08 163.07 351.82 C 150.06 351.75 137.04 351.96 124.04 351.72 C 122.12 351.85 121.63 349.50 121.73 348.02 C 121.73 335.65 121.73 323.28 121.73 310.92 C 121.72 309.66 121.90 307.68 123.38 307.36 Z" />
</svg>
