<?xml version="1.0" encoding="UTF-8" ?>
<!DOCTYPE svg PUBLIC "-//W3C//DTD SVG 1.1//EN" "http://www.w3.org/Graphics/SVG/1.1/DTD/svg11.dtd">
<svg width="512pt" height="512pt" viewBox="0 0 512 512" version="1.1" xmlns="http://www.w3.org/2000/svg">
<path fill="#c00000" opacity="1.00" d=" M 0.00 0.00 L 512.00 0.00 L 512.00 512.00 L 0.00 512.00 L 0.00 0.00 Z" />
<path fill="#fcf1f1" opacity="1.00" d=" M 345.17 162.96 C 344.87 161.17 346.05 159.20 348.04 159.46 C 360.69 159.37 373.36 159.47 386.01 159.41 C 387.62 159.22 389.08 159.84 390.31 160.83 C 390.24 223.56 390.33 286.29 390.27 349.02 C 390.51 350.85 388.70 352.17 387.00 351.86 C 373.97 351.86 360.94 351.89 347.91 351.84 C 345.78 352.11 344.87 349.80 345.16 348.05 C 345.19 286.35 345.17 224.65 345.17 162.96 Z" />
<path fill="#c00000" opacity="1.00" d=" M 350.09 164.29 C 361.88 164.36 373.67 164.16 385.45 164.40 C 385.24 225.23 385.42 286.08 385.36 346.92 C 373.62 347.16 361.87 346.86 350.13 347.01 C 350.08 286.10 350.15 225.20 350.09 164.29 Z" />
<path fill="#fcf1f1" opacity="1.00" d=" M 290.28 197.43 C 291.44 196.11 293.45 196.78 294.99 196.56 C 307.00 196.64 319.00 196.53 331.00 196.61 C 332.97 196.30 334.80 197.97 334.34 199.99 C 334.34 249.68 334.36 299.37 334.33 349.05 C 334.62 350.90 332.75 352.18 331.07 351.86 C 318.05 351.85 305.03 351.92 292.01 351.82 C 290.42 351.96 289.31 350.44 289.49 348.95 C 289.43 299.63 289.51 250.31 289.45 200.99 C 289.61 199.82 289.18 198.25 290.28 197.43 Z" />
<path fill="#c00000" opacity="1.00" d=" M 294.36 201.47 C 306.07 201.51 317.77 201.47 329.48 201.49 C 329.42 250.02 329.51 298.55 329.44 347.08 C 317.75 346.79 306.05 347.02 294.37 346.97 C 294.37 298.47 294.39 249.97 294.36 201.47 Z" />
<path fill="#fcf1f1" opacity="1.00" d=" M 234.31 234.34 C 247.54 233.71 260.84 234.33 274.09 233.98 C 275.92 233.81 278.29 234.69 277.87 236.96 C 277.88 274.33 277.93 311.71 277.87 349.09 C 278.17 350.77 276.63 352.08 275.02 351.84 C 262.00 351.88 248.97 351.87 235.95 351.85 C 234.27 352.13 232.68 350.73 232.88 349.01 C 232.80 312.01 232.88 275.00 232.84 238.00 C 232.79 236.68 232.93 234.98 234.31 234.34 Z" />
<path fill="#c00000" opacity="1.00" d=" M 237.76 238.84 C 249.27 238.88 260.80 238.75 272.31 238.89 C 272.51 239.09 272.91 239.48 273.11 239.67 C 273.23 275.41 273.10 311.15 273.17 346.89 C 261.37 347.16 249.56 346.85 237.76 347.07 C 237.74 311.00 237.74 274.92 237.76 238.84 Z" />
<path fill="#fcf1f1" opacity="1.00" d=" M 179.26 271.40 C 192.50 271.04 205.77 271.32 219.02 271.26 C 220.68 271.02 222.53 272.19 222.30 274.03 C 222.35 299.05 222.33 324.07 222.31 349.09 C 222.56 350.88 220.75 352.16 219.10 351.85 C 206.06 351.85 193.00 351.92 179.96 351.82 C 178.39 351.97 177.27 350.39 177.46 348.95 C 177.40 324.29 177.46 299.63 177.43 274.97 C 177.31 273.56 177.62 271.75 179.26 271.40 Z" />
<path fill="#c00000" opacity="1.00" d=" M 182.32 276.18 C 194.03 276.16 205.73 276.20 217.43 276.17 C 217.40 299.80 217.45 323.44 217.41 347.08 C 205.71 346.86 194.02 347.01 182.32 346.97 C 182.36 323.37 182.36 299.78 182.32 276.18 Z" />
<path fill="#fcf1f1" opacity="1.00" d=" M 123.23 307.34 C 125.10 306.81 127.07 306.94 128.99 306.92 C 140.34 307.06 151.69 306.92 163.04 306.99 C 164.86 306.79 166.95 307.94 166.60 310.02 C 166.63 323.00 166.62 335.99 166.60 348.97 C 166.83 350.48 165.59 351.99 164.02 351.83 C 151.00 351.90 137.96 351.86 124.94 351.85 C 123.24 352.15 121.53 350.76 121.74 348.99 C 121.66 336.33 121.75 323.67 121.70 311.01 C 121.63 309.66 121.81 307.95 123.23 307.34 Z" />
<path fill="#c00000" opacity="1.00" d=" M 126.64 311.87 C 138.34 311.90 150.04 311.78 161.74 311.94 C 161.66 323.61 161.70 335.28 161.72 346.96 C 150.03 346.98 138.34 346.96 126.65 347.04 C 126.63 335.32 126.64 323.60 126.64 311.87 Z" />
</svg>
