<?xml version="1.0" encoding="UTF-8" ?>
<!DOCTYPE svg PUBLIC "-//W3C//DTD SVG 1.1//EN" "http://www.w3.org/Graphics/SVG/1.1/DTD/svg11.dtd">
<svg width="512pt" height="512pt" viewBox="0 0 512 512" version="1.1" xmlns="http://www.w3.org/2000/svg">
<path fill="#c00000" opacity="1.00" d=" M 0.00 0.00 L 512.00 0.00 L 512.00 512.00 L 0.00 512.00 L 0.00 0.00 Z" />
<path fill="#fcf1f1" opacity="1.00" d=" M 345.17 163.02 C 344.86 161.20 346.04 159.19 348.07 159.46 C 360.74 159.37 373.41 159.46 386.08 159.42 C 387.66 159.21 389.06 159.91 390.31 160.79 C 390.23 223.54 390.34 286.29 390.26 349.04 C 390.49 350.78 388.79 352.13 387.14 351.85 C 374.08 351.87 361.03 351.89 347.97 351.84 C 345.77 352.14 344.86 349.80 345.17 348.00 C 345.19 286.34 345.17 224.68 345.17 163.02 Z" />
<path fill="#c00000" opacity="1.00" d=" M 350.09 164.29 C 361.86 164.33 373.64 164.22 385.42 164.35 C 385.29 225.21 385.40 286.08 385.36 346.95 C 373.62 346.99 361.88 346.82 350.14 347.07 C 350.06 286.15 350.16 225.22 350.09 164.29 Z" />
<path fill="#fcf1f1" opacity="1.00" d=" M 290.34 197.38 C 291.53 196.13 293.48 196.78 295.01 196.56 C 307.00 196.64 318.98 196.53 330.96 196.61 C 332.94 196.28 334.78 197.95 334.34 199.97 C 334.34 249.67 334.37 299.37 334.33 349.07 C 334.61 350.88 332.78 352.15 331.13 351.85 C 318.07 351.84 304.99 351.93 291.93 351.81 C 290.32 351.93 289.31 350.33 289.49 348.87 C 289.43 299.57 289.51 250.27 289.45 200.96 C 289.62 199.79 289.18 198.17 290.34 197.38 Z" />
<path fill="#c00000" opacity="1.00" d=" M 294.36 201.47 C 306.07 201.50 317.77 201.47 329.48 201.49 C 329.42 250.01 329.50 298.54 329.44 347.06 C 317.75 346.92 306.07 346.96 294.39 347.00 C 294.35 298.49 294.40 249.98 294.36 201.47 Z" />
<path fill="#fcf1f1" opacity="1.00" d=" M 234.21 234.41 C 238.72 233.49 243.42 234.44 248.01 233.97 C 257.33 234.39 266.65 233.66 275.96 234.20 C 277.34 234.29 277.98 235.66 277.94 236.90 C 277.79 274.27 277.97 311.65 277.87 349.02 C 278.17 350.71 276.72 352.07 275.06 351.84 C 262.02 351.89 248.97 351.88 235.93 351.84 C 233.69 352.24 232.51 349.94 232.84 348.02 C 232.85 311.35 232.85 274.67 232.84 238.00 C 232.83 236.72 232.90 235.07 234.21 234.41 Z" />
<path fill="#c00000" opacity="1.00" d=" M 237.76 238.84 C 248.16 238.82 258.57 238.86 268.97 238.81 C 270.41 238.80 271.85 239.05 273.27 239.30 C 273.01 275.16 273.22 311.02 273.17 346.89 C 261.36 347.08 249.56 346.87 237.76 347.04 C 237.74 310.97 237.74 274.91 237.76 238.84 Z" />
<path fill="#fcf1f1" opacity="1.00" d=" M 179.34 271.40 C 192.22 271.02 205.14 271.36 218.04 271.23 C 219.84 271.02 222.48 271.56 222.29 273.92 C 222.36 298.96 222.33 324.01 222.30 349.05 C 222.57 350.83 220.81 352.15 219.14 351.85 C 206.08 351.85 193.02 351.92 179.96 351.82 C 178.42 351.94 177.28 350.46 177.47 349.01 C 177.40 324.34 177.47 299.66 177.43 274.99 C 177.31 273.58 177.64 271.64 179.34 271.40 Z" />
<path fill="#c00000" opacity="1.00" d=" M 182.33 276.18 C 194.03 276.17 205.73 276.19 217.44 276.17 C 217.39 299.80 217.45 323.43 217.41 347.06 C 205.73 346.98 194.05 346.96 182.37 347.05 C 182.31 323.43 182.39 299.81 182.33 276.18 Z" />
<path fill="#fcf1f1" opacity="1.00" d=" M 123.20 307.37 C 125.43 306.83 127.74 306.97 130.01 306.92 C 141.02 307.03 152.04 306.88 163.05 307.00 C 164.85 306.78 166.94 307.95 166.60 310.00 C 166.62 323.01 166.63 336.02 166.60 349.03 C 166.83 350.50 165.57 351.96 164.06 351.82 C 151.04 351.91 138.02 351.86 125.01 351.85 C 123.30 352.17 121.54 350.81 121.75 349.01 C 121.64 336.67 121.77 324.32 121.69 311.97 C 121.74 310.38 121.43 308.15 123.20 307.37 Z" />
<path fill="#c00000" opacity="1.00" d=" M 126.64 311.88 C 138.33 311.86 150.02 311.86 161.70 311.88 C 161.70 323.57 161.70 335.26 161.71 346.95 C 150.02 346.94 138.34 347.03 126.65 347.05 C 126.63 335.33 126.64 323.60 126.64 311.88 Z" />
</svg>
