<?xml version="1.0" encoding="UTF-8" ?>
<!DOCTYPE svg PUBLIC "-//W3C//DTD SVG 1.1//EN" "http://www.w3.org/Graphics/SVG/1.1/DTD/svg11.dtd">
<svg width="512pt" height="512pt" viewBox="0 0 512 512" version="1.1" xmlns="http://www.w3.org/2000/svg">
<path fill="#0072bc" opacity="1.00" d=" M 0.00 0.00 L 512.00 0.00 L 512.00 512.00 L 0.00 512.00 L 0.00 0.00 Z" />
<path fill="#ffffff" opacity="1.00" d=" M 345.22 162.92 C 344.90 161.15 346.11 159.20 348.07 159.49 C 361.07 159.43 374.07 159.45 387.06 159.48 C 388.34 159.32 389.29 160.24 390.28 160.88 C 390.21 223.60 390.37 286.31 390.25 349.02 C 390.51 351.43 387.91 352.13 386.03 351.84 C 371.58 351.57 357.09 352.34 342.68 351.32 C 347.69 346.63 347.17 338.29 342.09 333.87 C 342.87 333.76 344.43 333.52 345.21 333.40 C 345.20 308.92 345.26 284.44 345.19 259.96 C 341.62 259.24 338.00 258.76 334.35 258.74 C 334.30 282.95 334.33 307.17 334.34 331.38 C 332.61 331.60 330.97 332.20 329.40 332.94 C 329.60 308.34 329.44 283.74 329.48 259.14 C 311.76 261.63 297.11 277.99 297.32 296.00 C 296.45 313.95 310.49 331.22 328.26 333.93 C 325.86 336.35 323.85 339.47 324.07 343.04 C 323.82 346.53 326.19 349.27 328.23 351.80 C 316.48 351.84 304.73 351.81 292.99 351.83 C 291.52 352.02 289.53 351.37 289.56 349.61 C 289.35 342.70 289.62 335.79 289.48 328.89 C 289.55 327.43 288.49 326.30 287.88 325.08 C 277.49 308.23 277.42 285.60 287.70 268.69 C 288.50 267.22 289.66 265.79 289.49 264.02 C 289.51 242.66 289.48 221.29 289.50 199.93 C 289.15 197.92 290.98 196.25 292.97 196.62 C 305.68 196.60 318.39 196.59 331.10 196.63 C 332.99 196.34 334.73 198.00 334.32 199.92 C 334.32 213.75 334.35 227.59 334.30 241.43 C 337.96 241.47 341.61 241.82 345.22 242.46 C 345.22 215.95 345.22 189.43 345.22 162.92 Z" />
<path fill="#0072bc" opacity="1.00" d=" M 349.98 164.26 C 361.79 164.31 373.60 164.27 385.41 164.28 C 385.37 200.77 385.41 237.27 385.40 273.76 C 378.75 259.02 365.31 247.88 349.87 243.36 C 349.96 216.99 349.74 190.62 349.98 164.26 Z" />
<path fill="#0072bc" opacity="1.00" d=" M 294.35 259.65 C 294.35 240.24 294.36 220.84 294.35 201.44 C 306.06 201.48 317.78 201.46 329.50 201.45 C 329.48 214.90 329.49 228.34 329.50 241.79 C 316.13 243.23 303.32 249.59 294.35 259.65 Z" />
<path fill="#ffffff" opacity="1.00" d=" M 234.37 234.37 C 247.58 233.87 260.85 234.32 274.08 234.15 C 275.91 233.90 278.26 234.63 277.82 236.95 C 277.84 274.33 277.84 311.71 277.83 349.09 C 278.11 350.77 276.68 352.03 275.06 351.80 C 262.02 351.83 248.98 351.82 235.94 351.81 C 233.76 352.20 232.55 350.02 232.84 348.11 C 232.86 311.38 232.86 274.66 232.84 237.94 C 232.84 236.66 232.97 234.87 234.37 234.37 Z" />
<path fill="#0072bc" opacity="1.00" d=" M 237.72 238.79 C 249.54 238.80 261.37 238.77 273.20 238.81 C 273.26 274.81 273.12 310.81 273.27 346.81 C 261.45 347.49 249.57 346.92 237.72 347.11 C 237.69 311.00 237.70 274.90 237.72 238.79 Z" />
<path fill="#0072bc" opacity="1.00" d=" M 349.89 261.91 C 365.92 267.96 375.75 286.30 372.60 303.05 C 370.67 315.68 361.71 326.64 350.08 331.74 C 349.62 308.48 349.99 285.19 349.89 261.91 Z" />
<path fill="#ffffff" opacity="1.00" d=" M 179.34 271.43 C 192.57 271.11 205.82 271.36 219.06 271.30 C 220.66 271.07 222.45 272.17 222.28 273.96 C 222.36 298.65 222.26 323.35 222.33 348.05 C 222.55 349.63 221.88 351.91 219.91 351.76 C 206.60 351.87 193.28 351.83 179.98 351.78 C 178.41 351.95 177.26 350.35 177.48 348.91 C 177.47 324.00 177.46 299.09 177.49 274.18 C 177.34 272.98 178.08 271.60 179.34 271.43 Z" />
<path fill="#0072bc" opacity="1.00" d=" M 182.31 276.17 C 194.03 276.16 205.75 276.18 217.47 276.15 C 217.43 299.81 217.49 323.46 217.44 347.11 C 205.74 347.10 194.05 347.12 182.36 347.10 C 182.28 323.46 182.37 299.81 182.31 276.17 Z" />
<path fill="#ffffff" opacity="1.00" d=" M 123.35 307.35 C 136.22 306.77 149.16 307.29 162.05 307.09 C 163.62 307.11 166.37 306.92 166.49 309.12 C 166.69 322.43 166.54 335.75 166.56 349.07 C 166.81 350.58 165.52 351.95 163.99 351.79 C 150.97 351.85 137.95 351.81 124.93 351.81 C 123.24 352.11 121.60 350.77 121.76 349.01 C 121.67 336.35 121.77 323.69 121.72 311.02 C 121.65 309.69 121.85 307.81 123.35 307.35 Z" />
<path fill="#0072bc" opacity="1.00" d=" M 126.61 311.82 C 138.31 311.82 150.01 311.82 161.71 311.82 C 161.71 323.58 161.75 335.35 161.69 347.11 C 150.00 347.10 138.31 347.11 126.62 347.11 C 126.59 335.35 126.61 323.58 126.61 311.82 Z" />
<path fill="#0072bc" opacity="1.00" d=" M 358.05 347.12 C 369.93 341.39 380.06 331.77 385.36 319.60 C 385.43 328.77 385.40 337.94 385.38 347.11 C 376.27 347.10 367.16 347.11 358.05 347.12 Z" />
<path fill="#0072bc" opacity="1.00" d=" M 294.40 333.87 C 299.52 339.47 305.76 344.02 312.67 347.16 C 306.60 347.11 300.54 347.03 294.48 347.20 C 294.23 342.76 294.36 338.31 294.40 333.87 Z" />
</svg>
