<?xml version="1.0" encoding="UTF-8" ?>
<!DOCTYPE svg PUBLIC "-//W3C//DTD SVG 1.1//EN" "http://www.w3.org/Graphics/SVG/1.1/DTD/svg11.dtd">
<svg width="512pt" height="512pt" viewBox="0 0 512 512" version="1.1" xmlns="http://www.w3.org/2000/svg">
<path fill="#e2b300" opacity="1.00" d=" M 0.00 0.00 L 512.00 0.00 L 512.00 512.00 L 0.00 512.00 L 0.00 0.00 Z" />
<path fill="#ffffff" opacity="1.00" d=" M 345.22 162.99 C 344.88 161.17 346.11 159.19 348.12 159.49 C 360.74 159.41 373.37 159.50 385.99 159.44 C 387.59 159.25 389.07 159.82 390.28 160.84 C 390.27 220.68 390.25 280.53 390.29 340.37 C 388.81 336.84 386.21 333.69 385.44 329.91 C 385.28 274.67 385.55 219.42 385.30 164.17 C 373.53 164.41 361.75 164.22 349.97 164.28 C 349.75 185.84 349.94 207.41 349.88 228.97 C 349.98 239.21 349.63 249.46 350.15 259.69 C 348.33 256.27 345.78 252.95 345.23 249.04 C 345.20 220.36 345.23 191.67 345.22 162.99 Z" />
<path fill="#ffffff" opacity="1.00" d=" M 289.50 199.98 C 289.14 197.96 290.95 196.24 292.96 196.62 C 306.10 196.52 319.25 196.73 332.39 196.53 C 333.49 197.37 334.64 198.33 334.31 199.92 C 334.28 216.04 334.45 232.16 334.23 248.27 C 332.98 251.65 331.15 254.79 329.43 257.95 C 329.57 239.12 329.44 220.28 329.50 201.45 C 317.79 201.45 306.07 201.49 294.36 201.44 C 294.34 243.30 294.36 285.16 294.35 327.02 C 293.77 330.95 291.24 334.30 289.51 337.81 C 289.49 291.87 289.50 245.93 289.50 199.98 Z" />
<path fill="#ffffff" opacity="1.00" d=" M 234.25 234.40 C 247.15 233.81 260.11 234.36 273.04 234.13 C 275.03 234.00 278.32 234.05 277.82 236.96 C 277.85 274.32 277.84 311.69 277.82 349.05 C 278.12 350.69 276.74 352.02 275.13 351.80 C 262.06 351.84 248.98 351.82 235.91 351.80 C 233.70 352.20 232.54 349.93 232.85 348.03 C 232.86 311.36 232.86 274.69 232.85 238.02 C 232.82 236.72 232.94 235.06 234.25 234.40 Z" />
<path fill="#e2b300" opacity="1.00" d=" M 237.71 238.79 C 249.54 238.80 261.36 238.78 273.18 238.80 C 273.28 274.82 273.12 310.84 273.26 346.85 C 261.43 347.44 249.57 346.95 237.72 347.11 C 237.69 311.00 237.71 274.90 237.71 238.79 Z" />
<path fill="#ffffff" opacity="1.00" d=" M 339.20 249.19 C 349.93 269.84 359.93 290.86 370.48 311.60 C 377.14 325.28 384.29 338.71 390.90 352.40 C 356.50 352.41 322.11 352.37 287.71 352.42 C 304.87 318.01 322.20 283.67 339.20 249.19 Z" />
<path fill="#ffffff" opacity="1.00" d=" M 179.25 271.44 C 192.15 271.07 205.08 271.41 217.99 271.27 C 219.80 271.06 222.47 271.55 222.27 273.95 C 222.37 298.63 222.25 323.32 222.33 348.01 C 222.53 349.55 221.94 351.85 219.99 351.75 C 206.96 351.91 193.92 351.76 180.89 351.83 C 179.12 352.14 177.16 350.93 177.49 348.97 C 177.44 324.29 177.50 299.61 177.46 274.93 C 177.35 273.55 177.65 271.79 179.25 271.44 Z" />
<path fill="#e2b300" opacity="1.00" d=" M 182.31 276.17 C 194.03 276.15 205.74 276.19 217.46 276.15 C 217.43 299.80 217.49 323.46 217.44 347.11 C 205.72 347.05 194.00 347.24 182.28 347.01 C 182.38 323.40 182.33 299.78 182.31 276.17 Z" />
<path fill="#e2b300" opacity="1.00" d=" M 331.22 278.71 C 336.40 278.53 341.60 278.45 346.78 278.69 C 346.12 294.28 345.52 309.86 345.08 325.45 C 341.01 325.52 336.94 325.56 332.88 325.35 C 332.39 309.80 331.65 294.26 331.22 278.71 Z" />
<path fill="#ffffff" opacity="1.00" d=" M 123.28 307.37 C 136.16 306.75 149.13 307.31 162.04 307.09 C 163.95 306.86 166.96 307.33 166.56 309.92 C 166.59 322.98 166.60 336.05 166.56 349.11 C 166.81 350.56 165.52 351.93 164.05 351.78 C 151.01 351.85 137.97 351.81 124.93 351.80 C 123.26 352.12 121.60 350.76 121.77 349.03 C 121.65 336.68 121.79 324.33 121.70 311.98 C 121.75 310.39 121.47 308.11 123.28 307.37 Z" />
<path fill="#e2b300" opacity="1.00" d=" M 126.61 311.82 C 138.32 311.82 150.02 311.80 161.72 311.84 C 161.76 323.54 161.63 335.25 161.79 346.96 C 150.07 347.30 138.34 347.01 126.62 347.11 C 126.59 335.35 126.60 323.58 126.61 311.82 Z" />
<path fill="#e2b300" opacity="1.00" d=" M 335.35 332.53 C 341.16 329.51 349.26 334.92 347.45 341.56 C 345.99 348.21 336.34 349.76 332.31 344.63 C 328.64 340.94 330.60 334.23 335.35 332.53 Z" />
</svg>
