<?xml version="1.0" encoding="UTF-8" ?>
<!DOCTYPE svg PUBLIC "-//W3C//DTD SVG 1.1//EN" "http://www.w3.org/Graphics/SVG/1.1/DTD/svg11.dtd">
<svg width="512pt" height="512pt" viewBox="0 0 512 512" version="1.1" xmlns="http://www.w3.org/2000/svg">
<path fill="#f26522" opacity="1.00" d=" M 0.00 0.00 L 512.00 0.00 L 512.00 512.00 L 0.00 512.00 L 0.00 0.00 Z" />
<path fill="#ffffff" opacity="1.00" d=" M 345.23 162.88 C 344.93 161.10 346.13 159.23 348.08 159.50 C 360.74 159.39 373.40 159.50 386.06 159.45 C 387.63 159.27 389.01 160.01 390.32 160.77 C 390.17 223.53 390.36 286.29 390.23 349.05 C 390.37 350.82 388.81 352.06 387.12 351.80 C 374.39 351.86 361.66 351.79 348.93 351.83 C 347.57 351.80 345.43 351.78 345.37 349.94 C 345.02 346.95 345.25 343.93 345.22 340.93 C 345.23 281.58 345.20 222.23 345.23 162.88 Z" />
<path fill="#f26522" opacity="1.00" d=" M 349.89 164.32 C 361.73 164.23 373.57 164.30 385.42 164.28 C 385.36 225.22 385.42 286.17 385.38 347.11 C 374.59 347.11 363.80 347.10 353.01 347.13 C 351.77 347.16 349.34 347.25 349.89 345.23 C 349.88 284.92 349.93 224.62 349.89 164.32 Z" />
<path fill="#ffffff" opacity="1.00" d=" M 290.36 197.41 C 291.52 196.16 293.46 196.80 294.97 196.58 C 307.03 196.67 319.09 196.54 331.14 196.64 C 332.99 196.43 334.76 198.02 334.32 199.93 C 334.32 249.63 334.36 299.34 334.30 349.04 C 334.56 350.91 332.76 352.09 331.07 351.80 C 318.37 351.84 305.66 351.81 292.96 351.81 C 291.16 352.14 289.21 350.94 289.52 348.94 C 289.45 299.60 289.54 250.25 289.48 200.90 C 289.62 199.74 289.27 198.21 290.36 197.41 Z" />
<path fill="#f26522" opacity="1.00" d=" M 294.32 201.46 C 306.05 201.44 317.78 201.48 329.50 201.45 C 329.46 250.00 329.52 298.56 329.47 347.11 C 317.75 347.06 306.04 347.21 294.32 347.03 C 294.37 298.51 294.37 249.99 294.32 201.46 Z" />
<path fill="#ffffff" opacity="1.00" d=" M 234.34 234.40 C 246.20 233.80 258.13 234.36 270.02 234.13 C 272.43 234.26 275.02 233.76 277.29 234.75 C 278.00 236.05 277.77 237.60 277.87 239.02 C 277.77 275.70 277.90 312.38 277.81 349.06 C 278.11 350.74 276.72 352.01 275.08 351.78 C 262.72 351.90 250.36 351.74 238.00 351.85 C 236.57 351.76 235.04 351.96 233.72 351.30 C 232.75 350.08 232.89 348.45 232.83 347.01 C 232.89 310.63 232.83 274.26 232.86 237.89 C 232.89 236.66 232.97 234.89 234.34 234.40 Z" />
<path fill="#f26522" opacity="1.00" d=" M 237.72 238.79 C 249.27 238.87 260.83 238.66 272.38 238.87 C 272.57 239.05 272.94 239.41 273.13 239.58 C 273.35 275.32 273.05 311.07 273.28 346.81 C 261.44 347.48 249.57 346.93 237.72 347.11 C 237.70 311.00 237.70 274.90 237.72 238.79 Z" />
<path fill="#ffffff" opacity="1.00" d=" M 179.35 271.45 C 191.89 271.04 204.47 271.44 217.03 271.26 C 219.06 271.21 222.39 271.04 222.26 273.98 C 222.38 298.65 222.26 323.33 222.32 348.00 C 222.47 349.50 221.98 351.81 220.04 351.73 C 207.02 351.93 193.99 351.76 180.96 351.82 C 179.15 352.15 177.18 350.93 177.49 348.92 C 177.43 324.26 177.49 299.60 177.46 274.93 C 177.37 273.59 177.69 271.62 179.35 271.45 Z" />
<path fill="#ffffff" opacity="1.00" d=" M 123.33 307.37 C 136.17 306.73 149.10 307.31 161.97 307.09 C 163.89 306.90 166.97 307.29 166.55 309.94 C 166.60 322.99 166.61 336.04 166.54 349.10 C 166.92 351.10 164.80 352.06 163.12 351.82 C 150.40 351.80 137.68 351.85 124.96 351.80 C 123.25 352.11 121.65 350.79 121.78 349.03 C 121.63 336.69 121.81 324.35 121.70 312.01 C 121.77 310.45 121.48 307.99 123.33 307.37 Z" />
</svg>
