<?xml version="1.0" encoding="UTF-8" ?>
<!DOCTYPE svg PUBLIC "-//W3C//DTD SVG 1.1//EN" "http://www.w3.org/Graphics/SVG/1.1/DTD/svg11.dtd">
<svg width="512pt" height="512pt" viewBox="0 0 512 512" version="1.1" xmlns="http://www.w3.org/2000/svg">
<path fill="#696c88" opacity="1.00" d=" M 0.00 0.00 L 512.00 0.00 L 512.00 512.00 L 0.00 512.00 L 0.00 0.00 Z" />
<path fill="#ffffff" opacity="1.00" d=" M 182.19 167.21 C 191.83 167.03 201.52 166.90 211.16 167.11 C 230.79 225.26 250.35 283.43 270.04 341.56 C 261.78 341.66 253.52 341.62 245.25 341.58 C 239.95 325.33 234.71 309.05 229.40 292.80 C 207.25 292.85 185.10 292.78 162.96 292.83 C 157.81 309.10 152.41 325.28 147.23 341.54 C 139.31 341.69 131.38 341.60 123.47 341.58 C 143.06 283.47 162.83 225.40 182.19 167.21 Z" />
<path fill="#696c88" opacity="1.00" d=" M 169.49 272.84 C 178.39 245.62 187.36 218.44 196.12 191.18 C 203.47 213.45 210.75 235.74 218.08 258.02 C 219.54 263.01 221.60 267.82 222.76 272.90 C 205.00 272.72 187.24 272.84 169.49 272.84 Z" />
<path fill="#ffffff" opacity="1.00" d=" M 327.01 206.82 C 339.82 205.48 353.54 206.41 364.83 213.17 C 377.11 220.54 384.86 233.93 387.30 247.84 C 389.49 257.88 388.61 268.18 388.87 278.37 C 358.65 278.42 328.43 278.37 298.21 278.39 C 298.08 290.34 300.71 303.01 308.68 312.29 C 316.35 321.29 328.42 325.49 340.02 325.48 C 353.78 325.92 367.22 321.08 378.80 313.90 C 381.31 312.36 383.49 310.22 386.36 309.32 C 386.39 317.53 386.44 325.75 386.33 333.96 C 372.23 339.71 357.48 345.35 341.99 344.84 C 324.52 345.22 305.91 340.46 293.39 327.64 C 281.49 316.04 276.57 299.17 275.73 282.96 C 274.70 263.44 278.17 242.47 290.95 227.01 C 299.74 215.88 312.97 208.61 327.01 206.82 Z" />
<path fill="#696c88" opacity="1.00" d=" M 314.22 230.25 C 320.42 225.58 328.34 223.88 335.99 224.19 C 344.13 224.08 352.73 226.52 358.27 232.79 C 365.32 240.57 366.95 251.57 367.18 261.69 C 344.18 261.51 321.18 261.67 298.18 261.61 C 298.89 249.57 304.05 237.26 314.22 230.25 Z" />
</svg>
