<?xml version="1.0" encoding="UTF-8" ?>
<!DOCTYPE svg PUBLIC "-//W3C//DTD SVG 1.1//EN" "http://www.w3.org/Graphics/SVG/1.1/DTD/svg11.dtd">
<svg width="512pt" height="512pt" viewBox="0 0 512 512" version="1.1" xmlns="http://www.w3.org/2000/svg">
<path fill="#4b7f8c" opacity="1.00" d=" M 0.00 0.00 L 512.00 0.00 L 512.00 512.00 L 0.00 512.00 L 0.00 0.00 Z" />
<path fill="#ffffff" opacity="1.00" d=" M 182.96 167.22 C 192.62 166.94 202.29 167.03 211.95 167.17 C 231.64 225.28 251.12 283.46 270.86 341.55 C 262.57 341.66 254.29 341.62 246.00 341.57 C 240.80 325.30 235.49 309.06 230.20 292.81 C 208.07 292.82 185.94 292.81 163.81 292.82 C 158.55 309.09 153.23 325.33 147.98 341.61 C 140.09 341.59 132.19 341.65 124.30 341.57 C 143.48 284.73 162.64 227.87 181.83 171.02 C 182.23 169.76 182.60 168.49 182.96 167.22 Z" />
<path fill="#4b7f8c" opacity="1.00" d=" M 170.23 272.75 C 179.38 245.62 187.99 218.32 197.04 191.16 C 205.70 218.44 214.90 245.54 223.70 272.78 C 205.88 272.82 188.05 272.88 170.23 272.75 Z" />
<path fill="#ffffff" opacity="1.00" d=" M 284.40 210.28 C 291.85 210.26 299.30 210.26 306.74 210.28 C 306.70 237.18 306.73 264.07 306.73 290.97 C 307.25 300.14 307.06 310.34 312.99 317.97 C 318.21 324.76 327.70 325.13 335.52 324.43 C 346.85 322.58 356.68 315.95 365.39 308.79 C 365.51 275.95 365.43 243.12 365.43 210.28 C 372.82 210.26 380.21 210.25 387.60 210.28 C 387.57 254.05 387.55 297.82 387.61 341.59 C 380.21 341.62 372.81 341.62 365.42 341.59 C 365.45 336.95 365.44 332.32 365.45 327.68 C 354.85 336.64 342.56 345.58 328.07 345.62 C 316.01 346.38 303.07 342.35 295.27 332.75 C 286.99 322.78 284.55 309.44 284.48 296.82 C 284.33 267.98 284.48 239.13 284.40 210.28 Z" />
</svg>
