<?xml version="1.0" encoding="UTF-8" ?>
<!DOCTYPE svg PUBLIC "-//W3C//DTD SVG 1.1//EN" "http://www.w3.org/Graphics/SVG/1.1/DTD/svg11.dtd">
<svg width="512pt" height="512pt" viewBox="0 0 512 512" version="1.1" xmlns="http://www.w3.org/2000/svg">
<path fill="#9b74a2" opacity="1.00" d=" M 0.00 0.00 L 512.00 0.00 L 512.00 512.00 L 0.00 512.00 L 0.00 0.00 Z" />
<path fill="#ffffff" opacity="1.00" d=" M 155.98 168.64 C 172.64 168.68 189.31 168.43 205.98 168.82 C 215.05 169.22 224.25 170.05 232.84 173.20 C 247.62 178.13 260.21 190.20 264.37 205.40 C 268.09 219.51 266.79 235.06 260.06 248.08 C 252.94 262.13 238.96 271.91 223.90 275.78 C 209.38 279.73 194.21 278.01 179.36 278.40 C 179.41 299.99 179.36 321.58 179.38 343.17 C 171.58 343.19 163.78 343.20 155.98 343.17 C 156.01 284.99 156.05 226.82 155.98 168.64 Z" />
<path fill="#9b74a2" opacity="1.00" d=" M 179.32 188.93 C 190.18 188.68 201.07 188.63 211.89 189.64 C 220.33 190.55 228.98 193.66 234.77 200.11 C 241.19 207.41 242.77 217.72 241.72 227.11 C 241.16 236.16 236.45 244.79 229.36 250.40 C 223.32 255.12 215.60 257.06 208.08 257.68 C 198.57 258.71 188.99 258.25 179.44 258.43 C 179.26 235.27 179.49 212.10 179.32 188.93 Z" />
<path fill="#ffffff" opacity="1.00" d=" M 286.28 211.78 C 293.65 211.77 301.03 211.76 308.41 211.78 C 308.46 218.24 308.38 224.71 308.45 231.17 C 317.73 223.32 327.62 215.13 339.84 212.63 C 345.11 211.62 350.60 211.64 355.85 212.74 C 355.67 220.52 355.84 228.30 355.75 236.08 C 349.90 235.28 343.97 235.14 338.09 235.55 C 326.90 236.92 316.54 242.64 308.61 250.52 C 308.18 281.38 308.55 312.29 308.43 343.17 C 301.03 343.20 293.63 343.19 286.24 343.17 C 286.31 299.37 286.24 255.57 286.28 211.78 Z" />
</svg>
