<?xml version="1.0" encoding="UTF-8" ?>
<!DOCTYPE svg PUBLIC "-//W3C//DTD SVG 1.1//EN" "http://www.w3.org/Graphics/SVG/1.1/DTD/svg11.dtd">
<svg width="512pt" height="512pt" viewBox="0 0 512 512" version="1.1" xmlns="http://www.w3.org/2000/svg">
<path fill="#0c5fa1" opacity="1.00" d=" M 0.00 0.00 L 512.00 0.00 L 512.00 512.00 L 0.00 512.00 L 0.00 0.00 Z" />
<path fill="#ffffff" opacity="1.00" d=" M 147.17 167.18 C 155.11 166.45 163.07 167.56 171.02 166.92 C 187.06 167.38 203.39 166.00 219.09 170.06 C 234.24 173.76 248.01 184.30 253.91 198.95 C 258.82 211.75 258.82 226.30 254.35 239.23 C 250.70 250.33 243.04 259.92 233.21 266.20 C 221.44 274.10 206.99 276.79 193.02 276.82 C 185.53 276.81 178.03 276.81 170.54 276.82 C 170.59 298.41 170.51 320.00 170.59 341.60 C 162.77 341.62 154.95 341.63 147.14 341.59 C 147.23 283.45 147.18 225.32 147.17 167.18 Z" />
<path fill="#0c5fa1" opacity="1.00" d=" M 170.56 187.17 C 183.34 187.46 196.31 186.39 208.90 189.08 C 217.31 190.88 225.42 195.79 229.47 203.58 C 233.74 212.00 234.18 221.98 232.03 231.07 C 229.36 242.04 220.59 251.41 209.58 254.25 C 196.85 257.53 183.58 256.59 170.57 256.83 C 170.54 233.61 170.56 210.39 170.56 187.17 Z" />
<path fill="#ffffff" opacity="1.00" d=" M 308.77 207.71 C 325.99 205.79 343.92 208.68 359.42 216.53 C 359.31 224.46 359.47 232.40 359.33 240.33 C 355.96 239.06 353.40 236.42 350.25 234.76 C 337.99 227.67 323.27 223.73 309.18 226.66 C 303.63 228.03 297.81 230.58 294.74 235.68 C 292.02 240.61 292.11 246.72 293.97 251.93 C 295.91 256.78 300.82 259.42 305.41 261.27 C 317.41 265.54 330.33 266.43 342.31 270.81 C 350.57 274.01 358.32 279.89 361.59 288.37 C 365.57 299.15 365.18 311.65 359.95 321.95 C 355.40 330.82 346.97 337.06 337.93 340.85 C 329.74 344.12 320.80 345.05 312.04 344.83 C 297.21 345.11 282.83 340.35 269.58 334.07 C 269.48 325.50 269.09 316.86 269.77 308.32 C 274.02 310.96 277.68 314.47 282.14 316.81 C 293.92 323.19 307.43 328.09 321.01 325.75 C 328.40 324.88 336.65 322.28 340.21 315.15 C 342.09 310.31 342.09 304.68 340.37 299.80 C 338.59 294.72 333.49 292.06 328.77 290.30 C 313.97 285.11 297.19 285.24 283.87 276.18 C 269.46 266.47 266.43 245.59 273.54 230.54 C 279.96 217.14 294.44 209.40 308.77 207.71 Z" />
</svg>
