<?xml version="1.0" encoding="UTF-8" ?>
<!DOCTYPE svg PUBLIC "-//W3C//DTD SVG 1.1//EN" "http://www.w3.org/Graphics/SVG/1.1/DTD/svg11.dtd">
<svg width="512pt" height="512pt" viewBox="0 0 512 512" version="1.1" xmlns="http://www.w3.org/2000/svg">
<path fill="#04aeda" opacity="1.00" d=" M 0.00 0.00 L 512.00 0.00 L 512.00 512.00 L 0.00 512.00 L 0.00 0.00 Z" />
<path fill="#ffffff" opacity="1.00" d=" M 114.37 299.56 C 114.54 246.88 114.41 194.20 114.43 141.52 C 183.59 141.54 252.75 141.49 321.90 141.54 C 321.78 151.44 321.93 161.34 321.80 171.24 C 263.43 171.19 205.06 171.30 146.69 171.18 C 146.65 213.98 146.77 256.78 146.63 299.57 C 135.88 299.53 125.12 299.55 114.37 299.56 Z" />
<path fill="#ffffff" opacity="1.00" d=" M 152.29 334.58 C 152.49 281.92 152.23 229.26 152.42 176.61 C 221.48 176.77 290.55 176.75 359.61 176.62 C 359.66 186.50 359.70 196.38 359.59 206.26 C 301.27 206.17 242.96 206.27 184.65 206.21 C 184.61 249.00 184.52 291.80 184.69 334.59 C 173.89 334.57 163.09 334.59 152.29 334.58 Z" />
<path fill="#ffffff" opacity="1.00" d=" M 189.82 211.76 C 259.09 211.68 328.36 211.77 397.62 211.72 C 397.52 264.39 397.53 317.07 397.62 369.74 C 329.76 369.76 261.90 369.73 194.03 369.75 C 192.57 369.72 191.12 369.63 189.67 369.52 C 190.76 358.70 189.30 347.80 190.07 336.95 C 190.25 327.97 189.57 318.98 190.14 310.01 C 189.81 284.04 189.84 258.03 189.90 232.04 C 190.54 225.28 189.58 218.53 189.82 211.76 Z" />
</svg>
