<?xml version="1.0" encoding="UTF-8" ?>
<!DOCTYPE svg PUBLIC "-//W3C//DTD SVG 1.1//EN" "http://www.w3.org/Graphics/SVG/1.1/DTD/svg11.dtd">
<svg width="512pt" height="512pt" viewBox="0 0 512 512" version="1.1" xmlns="http://www.w3.org/2000/svg">
<path fill="#2222ff" opacity="1.00" d=" M 0.00 0.00 L 512.00 0.00 L 512.00 512.00 L 0.00 512.00 L 0.00 0.00 Z" />
<path fill="#ffffff" opacity="1.00" d=" M 240.99 125.02 C 273.74 121.49 308.65 129.42 334.35 150.69 C 349.13 162.89 360.22 179.97 363.48 199.02 C 364.52 205.75 364.72 212.58 364.52 219.39 C 373.27 224.34 380.68 231.52 385.76 240.21 C 396.85 258.56 399.45 280.98 396.42 301.92 C 394.07 316.59 388.27 331.03 378.17 342.09 C 370.33 350.62 359.24 356.62 347.48 356.67 C 347.31 311.11 347.44 265.55 347.41 219.99 C 347.33 212.92 347.90 205.73 346.05 198.82 C 342.16 181.53 329.83 167.26 315.21 157.83 C 294.01 144.18 267.88 139.24 242.98 141.94 C 221.12 144.38 199.38 152.94 183.57 168.56 C 172.48 179.36 164.84 194.26 164.72 209.93 C 164.66 258.85 164.80 307.76 164.66 356.68 C 150.90 356.57 138.29 348.47 130.28 337.64 C 119.49 323.49 114.96 305.56 114.38 288.00 C 114.20 267.10 119.87 245.09 134.44 229.51 C 138.09 225.36 142.83 222.50 147.38 219.49 C 147.90 215.34 147.35 211.15 147.72 206.99 C 148.82 188.41 157.44 170.70 170.43 157.51 C 188.95 138.49 214.86 127.92 240.99 125.02 Z" />
<path fill="#ffffff" opacity="1.00" d=" M 172.19 217.59 C 175.87 218.28 179.48 219.46 182.50 221.75 C 182.35 242.51 182.69 263.27 182.80 284.03 C 183.00 288.69 185.09 292.97 186.15 297.47 C 186.90 299.37 186.80 302.20 189.33 302.77 C 189.27 295.71 189.86 288.68 189.96 281.64 C 191.64 283.90 193.11 286.31 194.91 288.49 L 196.33 288.35 C 198.45 277.30 199.02 265.98 200.05 254.78 C 200.81 256.07 201.21 257.45 201.26 258.93 C 201.87 271.53 203.67 284.03 204.70 296.59 C 206.09 298.93 207.30 296.10 207.91 294.79 C 209.44 290.84 211.86 287.11 212.31 282.83 C 212.39 271.85 213.37 260.91 213.43 249.93 C 213.48 248.42 213.71 246.93 213.99 245.45 C 215.99 250.70 215.11 256.45 216.03 261.90 C 216.59 269.07 217.05 276.26 217.85 283.41 C 218.25 286.83 220.33 289.67 222.19 292.45 C 222.42 291.70 222.88 290.20 223.11 289.45 C 224.66 273.33 226.68 257.23 227.56 241.04 C 227.84 234.37 228.92 227.75 228.89 221.06 C 229.22 221.10 229.88 221.18 230.21 221.22 C 230.82 229.02 232.03 236.77 233.29 244.49 C 234.73 254.58 236.06 264.67 237.54 274.75 C 239.07 282.11 240.13 289.56 241.34 296.98 C 241.45 298.50 242.14 299.84 243.00 301.07 C 244.12 297.81 244.48 294.38 244.95 290.99 C 247.34 276.76 249.36 262.44 250.76 248.08 C 250.90 247.75 251.18 247.08 251.32 246.75 C 251.87 239.82 253.08 232.96 253.79 226.05 C 254.30 222.85 254.26 219.45 255.85 216.54 C 256.74 220.98 256.46 225.52 256.51 230.03 C 256.47 250.15 257.58 270.24 258.32 290.33 C 258.74 290.61 259.58 291.19 260.00 291.48 C 261.26 288.12 262.49 284.72 263.19 281.19 C 265.37 270.11 267.66 259.06 269.39 247.90 C 269.84 244.34 270.36 240.77 271.49 237.36 C 274.31 249.43 274.97 261.92 277.65 274.04 C 278.87 278.75 278.26 284.06 281.01 288.28 C 284.30 279.87 285.98 270.91 286.70 261.93 C 288.16 249.12 290.27 236.38 290.89 223.49 L 292.16 223.46 C 292.74 236.01 294.62 248.45 295.54 260.98 C 296.04 268.92 297.62 276.73 298.62 284.61 C 298.82 286.48 299.59 288.23 300.73 289.72 C 305.38 277.97 307.69 265.46 311.49 253.46 C 312.61 262.30 312.35 271.23 313.41 280.07 C 313.68 282.80 315.55 284.96 316.85 287.27 C 317.25 287.33 318.04 287.45 318.44 287.51 C 320.01 281.32 320.84 274.97 322.06 268.71 C 324.77 277.32 322.17 287.07 325.84 295.41 C 327.41 292.48 329.44 289.48 329.34 286.02 C 329.27 264.62 329.77 243.22 329.59 221.82 C 332.69 219.44 336.41 218.11 340.24 217.50 C 340.24 263.90 340.24 310.29 340.23 356.69 C 335.75 356.72 331.99 353.95 329.56 350.40 C 329.60 340.58 329.26 330.77 329.34 320.95 C 329.49 317.72 327.50 314.68 324.83 313.00 C 323.65 317.95 323.22 323.02 322.91 328.09 C 319.87 322.69 319.30 316.28 316.01 310.99 C 314.63 313.88 313.72 316.97 313.06 320.10 C 311.91 325.99 310.15 331.73 309.01 337.62 C 307.76 342.88 307.04 348.29 305.00 353.33 C 304.61 345.64 304.42 337.95 304.18 330.26 C 302.99 323.13 304.44 315.69 302.17 308.73 C 299.50 312.31 297.19 316.28 295.89 320.57 C 294.77 332.45 294.76 344.42 293.44 356.29 C 290.34 340.74 287.19 325.18 282.91 309.91 C 280.51 313.80 280.13 318.45 278.78 322.73 C 276.06 332.17 274.64 341.94 271.85 351.36 C 269.69 339.05 269.90 326.40 267.30 314.17 C 264.94 314.97 265.28 318.01 264.46 319.95 C 260.26 333.25 258.12 347.09 254.06 360.40 C 252.52 344.76 251.23 329.09 249.60 313.45 C 249.17 313.47 248.33 313.52 247.90 313.54 C 246.60 317.28 244.94 320.99 244.82 325.02 C 244.65 334.37 244.20 343.71 244.01 353.07 C 242.66 350.36 241.91 347.42 241.26 344.48 C 238.01 331.63 234.97 318.71 230.82 306.12 C 230.38 305.75 229.52 304.99 229.09 304.61 C 227.88 313.09 225.95 321.46 225.29 330.02 C 224.42 335.35 224.06 340.79 222.60 346.01 C 220.25 335.72 218.88 325.22 216.60 314.91 C 216.31 312.52 214.08 311.19 212.57 309.58 C 210.76 321.18 212.05 333.06 211.32 344.76 C 207.42 334.30 207.90 322.34 201.77 312.66 C 200.05 316.23 200.94 320.27 200.54 324.07 C 199.98 330.25 200.63 336.47 200.06 342.65 C 197.41 336.66 197.36 329.88 195.24 323.68 C 194.79 323.64 193.90 323.55 193.45 323.50 C 192.08 329.13 193.01 335.05 191.23 340.59 C 189.09 334.85 187.92 328.78 185.62 323.09 C 185.02 321.69 183.84 320.67 182.87 319.55 C 182.60 329.66 182.95 339.78 182.48 349.87 C 181.12 354.10 176.43 356.47 172.19 356.69 C 172.15 310.32 172.16 263.95 172.19 217.59 Z" />
</svg>
