<?xml version="1.0" encoding="UTF-8" ?>
<!DOCTYPE svg PUBLIC "-//W3C//DTD SVG 1.1//EN" "http://www.w3.org/Graphics/SVG/1.1/DTD/svg11.dtd">
<svg width="512pt" height="512pt" viewBox="0 0 512 512" version="1.1" xmlns="http://www.w3.org/2000/svg">
<path fill="#e43539" opacity="1.00" d=" M 0.00 0.00 L 512.00 0.00 L 512.00 512.00 L 0.00 512.00 L 0.00 0.00 Z" />
<path fill="#ffffff" opacity="1.00" d=" M 150.18 368.99 C 166.32 291.88 182.25 214.73 198.52 137.65 C 209.75 137.74 220.97 137.72 232.20 137.67 C 244.60 159.09 256.42 180.85 268.61 202.39 C 299.11 256.87 329.60 311.35 360.11 365.82 C 362.16 368.84 358.12 371.55 357.14 374.30 C 346.34 374.30 335.55 374.29 324.75 374.31 C 313.40 353.02 302.08 331.72 290.76 310.43 C 260.79 310.38 230.83 310.53 200.86 310.35 C 196.10 331.62 192.50 353.18 187.56 374.39 C 176.62 374.21 165.67 374.29 154.73 374.34 C 153.21 372.56 151.70 370.77 150.18 368.99 Z" />
<path fill="#e43539" opacity="1.00" d=" M 207.01 277.48 C 212.53 247.58 218.70 217.79 223.99 187.85 C 224.70 188.88 225.37 189.93 226.01 191.01 C 241.57 219.87 257.25 248.66 272.79 277.53 C 250.87 277.50 228.94 277.58 207.01 277.48 Z" />
</svg>
