<?xml version="1.0" encoding="UTF-8" ?>
<!DOCTYPE svg PUBLIC "-//W3C//DTD SVG 1.1//EN" "http://www.w3.org/Graphics/SVG/1.1/DTD/svg11.dtd">
<svg width="512pt" height="512pt" viewBox="0 0 512 512" version="1.1" xmlns="http://www.w3.org/2000/svg">
<path fill="#2546e9" opacity="1.00" d=" M 0.00 0.00 L 512.00 0.00 L 512.00 512.00 L 0.00 512.00 L 0.00 0.00 Z" />
<path fill="#ffffff" opacity="1.00" d=" M 249.32 108.43 C 271.55 107.60 295.15 110.29 313.98 123.08 C 330.87 134.37 341.36 152.93 347.08 172.02 C 355.97 201.77 356.45 233.20 355.36 263.98 C 353.76 288.03 350.35 312.63 339.37 334.39 C 331.32 350.26 317.99 363.67 301.48 370.60 C 285.92 377.26 268.74 378.95 251.97 378.55 C 231.17 378.23 209.37 373.49 193.05 359.90 C 177.78 347.54 168.71 329.22 163.75 310.54 C 156.34 282.69 155.72 253.61 156.67 224.98 C 158.09 201.52 161.21 177.61 171.13 156.05 C 178.08 140.83 189.40 127.27 204.31 119.35 C 218.05 111.90 233.82 108.96 249.32 108.43 Z" />
<path fill="#2546e9" opacity="1.00" d=" M 244.79 125.00 C 267.57 147.62 290.16 170.42 312.90 193.08 C 314.45 194.53 315.90 196.09 317.18 197.80 C 301.32 213.51 285.63 229.38 269.75 245.07 C 270.37 245.84 271.01 246.59 271.67 247.34 C 286.83 262.56 302.09 277.67 317.19 292.93 C 293.02 317.01 269.03 341.26 244.76 365.23 C 244.61 333.54 244.72 301.84 244.70 270.14 C 232.62 282.47 220.36 294.63 208.11 306.80 C 203.30 301.84 198.35 297.02 193.50 292.11 C 209.17 276.53 224.92 261.00 240.23 245.07 C 224.49 229.44 208.83 213.72 193.18 198.01 C 198.12 193.10 202.97 188.11 207.99 183.27 C 220.26 195.49 232.68 207.57 244.58 220.14 C 244.88 188.43 244.46 156.71 244.79 125.00 Z" />
<path fill="#ffffff" opacity="1.00" d=" M 265.39 175.02 C 272.66 182.87 280.53 190.12 287.93 197.85 C 280.37 205.36 272.68 212.76 265.40 220.55 C 265.33 205.37 265.42 190.20 265.39 175.02 Z" />
<path fill="#ffffff" opacity="1.00" d=" M 265.38 269.89 C 272.70 277.76 280.59 285.08 288.01 292.85 C 280.40 300.35 272.79 307.87 265.36 315.56 C 265.35 300.34 265.32 285.11 265.38 269.89 Z" />
</svg>
