<?xml version="1.0" encoding="UTF-8" ?>
<!DOCTYPE svg PUBLIC "-//W3C//DTD SVG 1.1//EN" "http://www.w3.org/Graphics/SVG/1.1/DTD/svg11.dtd">
<svg width="512pt" height="512pt" viewBox="0 0 512 512" version="1.1" xmlns="http://www.w3.org/2000/svg">
<path fill="#0000ff" opacity="1.00" d=" M 0.00 0.00 L 512.00 0.00 L 512.00 512.00 L 0.00 512.00 L 0.00 0.00 Z" />
<path fill="#ffffff" opacity="1.00" d=" M 106.54 106.55 C 206.18 106.64 305.82 106.64 405.46 106.55 C 405.27 206.12 405.23 305.69 405.28 405.26 C 305.76 405.26 206.24 405.26 106.72 405.26 C 106.69 305.69 106.72 206.12 106.54 106.55 Z" />
<path fill="#0000ff" opacity="1.00" d=" M 130.17 130.17 C 214.06 130.27 297.94 130.27 381.83 130.17 C 381.74 214.08 381.97 297.99 381.91 381.90 C 297.97 381.89 214.03 381.89 130.09 381.90 C 130.12 297.99 130.28 214.08 130.17 130.17 Z" />
<path fill="#ffffff" opacity="1.00" d=" M 151.66 150.19 C 196.60 150.21 241.54 150.21 286.48 150.19 C 286.39 195.05 286.39 239.90 286.32 284.76 C 309.14 284.74 331.97 284.74 354.79 284.76 C 354.74 308.34 354.71 331.92 354.81 355.50 C 331.95 355.54 309.09 355.53 286.24 355.50 C 286.33 331.93 286.30 308.36 286.26 284.79 C 241.42 284.78 196.58 284.79 151.74 284.81 C 151.74 239.94 151.76 195.06 151.66 150.19 Z" />
<path fill="#0000ff" opacity="1.00" d=" M 168.21 231.84 C 168.28 210.11 168.34 188.39 168.22 166.66 C 189.95 166.72 211.68 166.73 233.40 166.65 C 233.29 185.05 233.44 203.45 233.35 221.85 C 243.73 221.84 254.11 221.87 264.50 221.83 C 264.42 235.81 264.50 249.79 264.55 263.77 C 250.58 263.80 236.60 263.68 222.62 263.76 C 222.67 253.09 222.62 242.42 222.67 231.75 C 204.52 231.88 186.36 231.70 168.21 231.84 Z" />
<path fill="#0000ff" opacity="1.00" d=" M 301.88 300.31 C 314.57 300.33 327.26 300.29 339.95 300.33 C 339.89 313.00 339.85 325.68 339.97 338.36 C 327.27 338.39 314.57 338.36 301.87 338.37 C 301.88 325.68 301.87 312.99 301.88 300.31 Z" />
</svg>
