<?xml version="1.0" encoding="UTF-8" ?>
<!DOCTYPE svg PUBLIC "-//W3C//DTD SVG 1.1//EN" "http://www.w3.org/Graphics/SVG/1.1/DTD/svg11.dtd">
<svg width="512pt" height="512pt" viewBox="0 0 512 512" version="1.1" xmlns="http://www.w3.org/2000/svg">
<path fill="#93ab1a" opacity="1.00" d=" M 0.00 0.00 L 512.00 0.00 L 512.00 512.00 L 0.00 512.00 L 0.00 0.00 Z" />
<path fill="#ffffff" opacity="1.00" d=" M 202.34 119.20 C 226.55 109.57 253.35 106.93 279.07 110.88 C 287.00 111.87 294.60 114.44 302.38 116.16 C 300.31 116.73 298.23 117.22 296.13 117.57 C 267.68 122.62 241.14 137.29 221.41 158.36 C 193.72 187.25 179.56 228.37 183.13 268.18 C 185.61 301.89 200.78 334.50 224.97 358.11 C 245.33 378.33 272.24 391.95 300.68 396.00 C 277.68 403.65 252.72 404.74 228.92 400.54 C 196.04 394.46 165.45 376.69 143.93 351.08 C 125.69 329.70 113.77 302.95 110.30 275.04 C 106.24 243.85 112.31 211.35 127.92 184.00 C 144.30 154.71 171.07 131.40 202.34 119.20 Z" />
<path fill="#ffffff" opacity="1.00" d=" M 268.63 225.42 C 274.07 187.33 290.34 150.88 314.99 121.33 C 342.79 133.61 366.72 154.55 382.24 180.72 C 395.98 203.59 403.28 230.31 402.91 257.00 C 402.97 286.17 393.79 315.23 377.22 339.21 C 361.71 361.86 339.71 380.06 314.48 390.90 C 297.96 370.83 285.10 347.73 277.01 323.02 C 266.70 291.73 263.74 258.01 268.63 225.42 Z" />
</svg>
