<?xml version="1.0" encoding="UTF-8" ?>
<!DOCTYPE svg PUBLIC "-//W3C//DTD SVG 1.1//EN" "http://www.w3.org/Graphics/SVG/1.1/DTD/svg11.dtd">
<svg width="512pt" height="512pt" viewBox="0 0 512 512" version="1.1" xmlns="http://www.w3.org/2000/svg">
<path fill="#639146" opacity="1.00" d=" M 0.00 0.00 L 512.00 0.00 L 512.00 512.00 L 0.00 512.00 L 0.00 0.00 Z" />
<path fill="#ffffff" opacity="1.00" d=" M 134.27 222.30 C 174.91 188.65 215.65 155.11 256.27 121.42 C 271.93 133.81 287.10 146.82 302.57 159.44 C 327.76 180.26 352.94 201.08 378.14 221.88 C 387.68 229.28 396.61 237.41 405.92 245.09 C 409.64 247.87 412.52 252.20 411.82 257.04 C 411.90 266.31 399.84 272.14 392.46 266.64 C 385.24 261.00 378.47 254.78 371.36 248.99 C 372.72 252.49 373.91 256.14 373.77 259.95 C 373.84 303.40 373.67 346.86 373.86 390.31 C 295.46 390.35 217.07 390.33 138.67 390.32 C 138.72 351.22 138.68 312.11 138.69 273.01 C 138.82 265.03 137.85 256.77 140.97 249.19 C 133.82 255.31 126.68 261.45 119.42 267.43 C 114.98 271.06 108.16 270.97 103.76 267.33 C 97.65 262.72 97.69 252.35 103.73 247.70 C 113.89 239.21 123.73 230.33 134.27 222.30 Z" />
<path fill="#639146" opacity="1.00" d=" M 279.11 279.26 C 286.96 275.91 296.68 282.53 296.67 290.99 C 297.23 298.06 291.01 304.61 283.99 304.68 C 278.15 304.93 272.56 300.68 271.03 295.08 C 268.98 288.74 272.96 281.49 279.11 279.26 Z" />
<path fill="#639146" opacity="1.00" d=" M 308.31 279.51 C 315.90 275.84 325.75 281.62 326.64 289.89 C 327.81 297.28 321.40 304.55 314.01 304.66 C 307.02 305.14 300.16 299.06 300.25 291.96 C 299.82 286.60 303.48 281.56 308.31 279.51 Z" />
<path fill="#639146" opacity="1.00" d=" M 339.29 279.47 C 346.19 276.19 354.96 280.76 356.91 287.96 C 359.48 295.65 353.03 304.41 345.04 304.66 C 338.74 305.15 332.66 300.34 331.48 294.17 C 330.13 288.21 333.67 281.75 339.29 279.47 Z" />
<path fill="#639146" opacity="1.00" d=" M 278.39 310.56 C 285.94 306.84 295.80 312.59 296.59 320.87 C 297.53 326.89 293.60 333.08 287.84 334.94 C 281.38 337.44 273.55 333.49 271.33 327.02 C 268.76 320.77 272.31 313.18 278.39 310.56 Z" />
<path fill="#639146" opacity="1.00" d=" M 308.30 310.50 C 315.92 306.91 325.71 312.59 326.64 320.87 C 327.76 327.92 322.04 334.87 315.04 335.59 C 307.75 336.63 300.17 330.50 300.26 323.02 C 299.79 317.64 303.48 312.58 308.30 310.50 Z" />
<path fill="#639146" opacity="1.00" d=" M 339.38 310.44 C 345.93 307.48 354.19 311.30 356.57 317.98 C 359.34 324.47 355.40 332.49 348.88 334.81 C 342.62 337.44 334.72 333.94 332.28 327.65 C 329.27 321.22 332.85 312.98 339.38 310.44 Z" />
<path fill="#639146" opacity="1.00" d=" M 278.44 341.58 C 285.98 337.85 295.85 343.65 296.60 351.93 C 297.80 359.33 291.40 366.74 283.92 366.66 C 278.10 366.95 272.57 362.69 271.04 357.14 C 269.05 351.05 272.63 344.02 278.44 341.58 Z" />
<path fill="#639146" opacity="1.00" d=" M 308.38 341.51 C 315.96 337.94 325.75 343.65 326.64 351.90 C 327.81 359.26 321.44 366.63 314.02 366.65 C 307.00 367.19 300.16 361.06 300.25 353.97 C 299.82 348.59 303.53 343.52 308.38 341.51 Z" />
<path fill="#639146" opacity="1.00" d=" M 339.36 341.49 C 346.21 338.29 354.93 342.76 356.89 349.92 C 359.50 357.61 353.06 366.49 345.01 366.65 C 339.36 367.09 333.80 363.29 331.99 357.95 C 329.52 351.64 333.07 343.90 339.36 341.49 Z" />
</svg>
