<?xml version="1.0" encoding="UTF-8" ?>
<!DOCTYPE svg PUBLIC "-//W3C//DTD SVG 1.1//EN" "http://www.w3.org/Graphics/SVG/1.1/DTD/svg11.dtd">
<svg width="512pt" height="512pt" viewBox="0 0 512 512" version="1.1" xmlns="http://www.w3.org/2000/svg">
<path fill="#7ac142" opacity="1.00" d=" M 0.00 0.00 L 512.00 0.00 L 512.00 512.00 L 0.00 512.00 L 0.00 0.00 Z" />
<path fill="#ffffff" opacity="1.00" d=" M 219.07 120.04 C 229.97 118.05 241.17 118.37 252.11 119.89 C 256.93 120.72 261.79 121.74 266.26 123.76 C 272.67 126.86 276.61 133.54 277.94 140.35 C 287.65 140.29 297.36 140.17 307.06 140.67 C 318.17 141.55 329.22 143.14 340.17 145.23 C 345.93 146.44 352.04 147.54 356.87 151.15 C 364.35 156.60 366.19 166.28 367.03 174.92 C 368.78 191.58 370.11 208.29 370.85 225.02 C 371.81 235.98 371.39 246.99 372.11 257.95 C 372.79 279.09 370.18 300.14 366.91 320.98 C 364.16 337.15 360.88 353.39 354.34 368.52 C 350.41 377.87 344.63 387.76 334.56 391.36 C 323.17 395.30 310.87 394.10 299.03 394.31 C 287.80 393.59 275.55 393.78 265.84 387.27 C 258.05 381.92 256.08 371.83 255.69 363.01 C 255.50 353.36 255.30 342.97 260.28 334.35 C 262.94 329.84 267.54 326.68 272.58 325.40 C 281.71 323.02 291.23 323.64 300.57 323.79 C 300.48 326.96 299.16 329.89 298.69 332.99 C 298.43 336.50 299.36 339.94 299.69 343.42 C 294.03 343.99 287.83 342.70 282.69 345.72 C 279.52 347.67 279.11 351.72 279.40 355.08 C 279.35 358.81 280.92 363.07 284.74 364.38 C 289.63 366.10 294.91 365.61 300.00 365.75 C 306.52 365.59 313.34 366.13 319.53 363.70 C 324.16 361.81 325.96 356.60 326.28 351.99 C 326.83 343.74 326.67 335.38 325.26 327.22 C 324.32 322.35 322.69 317.40 319.35 313.63 C 316.18 310.22 311.53 308.63 307.00 308.10 C 296.12 306.77 285.15 305.55 274.55 302.62 C 268.76 301.08 264.01 296.66 261.66 291.21 C 258.59 284.34 258.39 276.64 258.52 269.24 C 258.24 269.21 257.66 269.16 257.37 269.13 C 257.44 280.44 256.17 291.85 252.50 302.59 C 251.10 306.53 250.00 310.90 246.73 313.78 C 243.84 316.41 239.64 316.61 235.94 316.20 C 216.47 313.53 197.01 310.28 178.14 304.64 C 172.54 302.79 166.32 301.35 162.17 296.84 C 158.28 292.01 156.26 286.00 154.50 280.14 C 149.31 261.71 146.04 242.82 142.98 223.95 C 141.81 217.33 141.31 210.63 140.82 203.94 C 140.81 197.29 141.92 189.90 147.16 185.23 C 151.72 181.06 158.09 179.70 164.10 179.50 C 173.05 179.40 182.00 179.51 190.95 179.48 C 194.70 179.63 198.44 177.46 200.11 174.09 C 202.02 170.72 201.17 166.71 201.30 163.02 C 201.37 154.13 200.82 145.21 201.42 136.33 C 202.65 127.50 210.94 121.90 219.07 120.04 Z" />
<path fill="#ffffff" opacity="1.00" d=" M 193.03 128.95 C 193.89 128.12 194.88 127.43 195.87 126.77 C 194.31 130.73 192.61 134.74 192.55 139.07 C 192.36 149.85 192.86 160.64 192.59 171.42 C 191.11 171.97 189.59 172.48 187.98 172.36 C 179.03 172.37 170.08 172.24 161.13 172.41 C 155.64 172.51 150.37 174.22 145.45 176.53 C 148.51 172.58 152.40 169.38 155.89 165.82 C 168.30 153.56 180.71 141.31 193.03 128.95 Z" />
<path fill="#7ac142" opacity="1.00" d=" M 306.87 237.89 C 311.96 231.30 323.59 231.87 328.13 238.82 C 330.87 242.92 331.33 248.03 331.60 252.83 C 322.38 249.12 312.21 248.10 302.40 249.51 C 303.20 245.43 304.12 241.15 306.87 237.89 Z" />
</svg>
