<?xml version="1.0" encoding="UTF-8" ?>
<!DOCTYPE svg PUBLIC "-//W3C//DTD SVG 1.1//EN" "http://www.w3.org/Graphics/SVG/1.1/DTD/svg11.dtd">
<svg width="512pt" height="512pt" viewBox="0 0 512 512" version="1.1" xmlns="http://www.w3.org/2000/svg">
<path fill="#85795c" opacity="1.00" d=" M 0.00 0.00 L 512.00 0.00 L 512.00 512.00 L 0.00 512.00 L 0.00 0.00 Z" />
<path fill="#ffffff" opacity="1.00" d=" M 376.36 138.40 C 377.75 136.14 378.16 133.07 380.58 131.61 C 381.52 140.06 381.67 148.56 382.35 157.02 C 382.80 171.22 383.39 185.55 380.95 199.61 C 379.68 206.34 377.55 213.01 373.79 218.79 C 368.53 227.01 361.04 233.41 354.04 240.11 C 350.54 243.36 347.28 246.88 343.61 249.95 C 342.07 257.88 341.67 266.10 338.80 273.73 C 334.46 285.75 328.31 296.99 323.01 308.59 C 335.42 309.88 347.73 312.00 360.14 313.28 C 362.19 310.84 364.60 308.40 367.86 307.77 C 374.76 305.95 381.19 310.09 387.38 312.51 C 399.78 318.51 411.89 325.28 424.96 329.78 C 424.76 330.09 424.37 330.71 424.17 331.02 C 416.70 335.03 408.42 337.33 400.12 338.84 C 389.31 341.39 377.34 341.13 367.31 335.94 C 364.29 334.21 361.79 331.77 359.23 329.45 C 346.15 329.53 333.06 329.48 319.98 329.60 C 315.57 329.73 311.49 327.71 307.16 327.32 C 305.07 327.91 303.61 329.79 301.76 330.87 C 283.46 343.42 260.77 347.13 239.02 347.82 C 212.53 347.23 186.06 342.63 161.13 333.57 C 155.73 331.91 150.57 329.59 145.21 327.83 C 137.18 323.02 128.46 319.45 120.64 314.27 C 116.75 311.41 111.74 310.88 107.78 308.15 C 92.39 297.56 83.26 278.65 84.19 260.03 C 84.36 252.86 86.55 245.64 90.89 239.89 C 95.74 233.43 103.87 229.26 112.04 230.21 C 122.43 230.99 130.80 238.15 137.73 245.34 C 140.57 244.91 143.44 244.64 146.31 244.41 C 146.67 235.53 151.79 226.90 159.76 222.81 C 164.82 219.93 170.86 219.64 176.50 220.52 C 164.70 204.46 156.70 185.93 151.12 166.88 C 148.86 158.66 145.93 150.58 144.51 142.17 C 147.19 144.64 149.12 147.75 151.40 150.56 C 164.36 166.87 179.21 181.85 196.44 193.66 C 214.41 205.97 235.21 214.68 257.02 216.64 C 279.69 217.56 303.12 213.64 322.74 201.74 C 347.01 187.19 363.77 163.19 376.36 138.40 Z" />
<path fill="#85795c" opacity="1.00" d=" M 173.42 240.60 C 178.16 238.50 184.25 240.69 186.50 245.38 C 190.01 251.20 188.18 259.72 182.22 263.17 C 178.53 265.53 173.53 264.47 170.57 261.43 C 164.67 255.62 165.83 244.37 173.42 240.60 Z" />
<path fill="#85795c" opacity="1.00" d=" M 232.42 246.48 C 241.05 244.08 248.96 252.71 248.33 261.02 C 248.56 268.61 242.07 276.42 234.11 275.55 C 225.33 274.50 220.58 264.21 223.08 256.31 C 224.45 251.85 227.82 247.80 232.42 246.48 Z" />
</svg>
