<?xml version="1.0" encoding="UTF-8" ?>
<!DOCTYPE svg PUBLIC "-//W3C//DTD SVG 1.1//EN" "http://www.w3.org/Graphics/SVG/1.1/DTD/svg11.dtd">
<svg width="512pt" height="512pt" viewBox="0 0 512 512" version="1.1" xmlns="http://www.w3.org/2000/svg">
<path fill="#248fd3" opacity="1.00" d=" M 0.00 0.00 L 512.00 0.00 L 512.00 512.00 L 0.00 512.00 L 0.00 0.00 Z" />
<path fill="#ffffff" opacity="1.00" d=" M 238.67 99.14 C 252.40 97.44 266.28 97.95 279.97 99.79 C 311.38 104.44 341.26 118.85 364.45 140.55 C 385.93 160.51 401.74 186.54 409.35 214.88 C 417.21 243.58 416.74 274.53 407.95 302.97 C 396.84 339.74 371.68 371.98 338.83 391.86 C 310.39 409.32 276.28 417.27 243.05 414.29 C 215.36 412.17 188.39 402.23 165.68 386.30 C 140.83 368.93 121.09 344.29 109.76 316.16 C 92.51 274.40 94.51 225.27 115.10 185.05 C 130.50 154.39 156.21 129.08 187.06 114.08 C 203.25 106.26 220.75 100.93 238.67 99.14 Z" />
<path fill="#248fd3" opacity="1.00" d=" M 185.61 152.66 C 216.32 130.95 257.22 124.78 293.03 136.10 C 322.06 144.87 347.62 164.67 363.41 190.57 C 372.07 204.77 377.74 220.72 380.37 237.13 C 381.72 248.73 382.49 260.65 380.05 272.16 C 378.34 279.38 374.79 287.34 367.38 290.18 C 358.01 293.18 348.33 288.56 340.57 283.52 C 326.52 274.11 317.97 259.19 307.84 246.11 C 289.81 222.43 269.37 200.17 244.77 183.19 C 232.20 174.54 217.86 168.87 203.23 164.79 C 201.95 164.33 200.60 164.39 199.30 164.68 C 201.28 179.04 202.79 193.51 202.44 208.02 C 201.66 225.24 198.56 243.11 188.72 257.64 C 181.31 268.54 171.01 278.08 158.36 282.37 C 150.97 284.87 141.56 284.09 136.34 277.70 C 131.44 271.63 131.31 263.36 131.50 255.93 C 130.64 215.29 152.29 175.57 185.61 152.66 Z" />
</svg>
