<?xml version="1.0" encoding="UTF-8" ?>
<!DOCTYPE svg PUBLIC "-//W3C//DTD SVG 1.1//EN" "http://www.w3.org/Graphics/SVG/1.1/DTD/svg11.dtd">
<svg width="512pt" height="512pt" viewBox="0 0 512 512" version="1.1" xmlns="http://www.w3.org/2000/svg">
<path fill="#009f3c" opacity="1.00" d=" M 0.00 0.00 L 512.00 0.00 L 512.00 512.00 L 0.00 512.00 L 0.00 0.00 Z" />
<path fill="#ffffff" opacity="1.00" d=" M 239.10 100.50 C 244.05 99.76 249.02 100.34 253.97 100.74 C 285.11 102.51 315.33 114.88 339.32 134.71 C 355.93 148.41 369.41 165.84 378.66 185.27 C 374.71 185.31 370.77 185.26 366.82 185.28 C 360.78 176.57 355.18 167.54 349.10 158.87 C 344.15 154.15 338.80 149.84 333.59 145.39 C 331.60 149.06 327.41 152.33 328.60 156.96 C 329.08 163.48 331.11 170.02 329.85 176.57 C 329.45 179.45 329.11 182.33 328.57 185.19 C 322.43 185.35 316.28 185.35 310.14 185.20 C 310.20 191.47 310.25 197.75 309.82 204.02 C 309.73 236.25 309.89 268.49 309.74 300.72 C 304.94 296.04 300.26 291.23 295.53 286.47 C 293.70 284.28 290.70 284.22 288.15 283.55 C 282.04 282.26 276.11 280.17 269.91 279.30 C 262.94 278.89 255.94 279.49 248.97 279.09 C 242.09 278.16 235.36 276.40 228.52 275.21 C 224.48 274.50 220.45 273.67 216.57 272.34 C 216.00 268.01 215.53 263.66 214.63 259.39 C 217.35 256.23 220.49 253.35 224.18 251.38 C 229.36 249.98 234.79 249.79 240.10 249.07 C 243.44 254.76 246.55 260.59 250.08 266.18 C 253.25 263.99 251.18 260.51 250.15 257.76 C 249.13 254.62 247.06 251.51 248.01 248.09 C 249.36 235.25 251.71 222.43 256.47 210.41 C 261.64 203.10 267.64 196.40 272.64 188.96 C 269.04 184.40 264.80 180.39 261.47 175.62 C 257.94 171.13 255.01 166.13 251.02 162.02 C 242.24 155.47 234.07 148.12 225.85 140.89 C 222.48 141.59 219.22 142.71 215.86 143.43 C 208.80 141.58 202.25 138.09 195.16 136.34 C 178.51 140.59 161.93 145.21 145.34 149.72 C 141.36 154.98 136.95 159.89 132.92 165.11 C 135.01 168.59 137.11 172.10 139.70 175.25 C 141.87 173.38 144.14 171.62 146.33 169.76 C 150.72 171.63 155.37 172.97 159.51 175.37 C 161.75 179.32 163.01 183.74 164.93 187.85 C 161.95 198.42 158.42 208.91 157.33 219.90 C 159.34 226.83 163.13 233.13 165.27 240.03 C 167.00 246.69 168.45 253.43 170.21 260.09 C 170.97 263.42 173.21 266.13 175.46 268.60 C 175.29 263.19 172.38 257.92 173.63 252.53 C 177.94 258.57 180.05 266.24 186.02 271.01 C 189.77 274.20 192.44 278.73 197.04 280.84 C 201.84 283.20 206.75 285.37 211.58 287.69 C 215.12 289.42 219.14 288.31 222.91 288.43 C 235.01 288.47 247.11 288.31 259.20 288.54 C 260.06 299.98 256.28 311.03 253.66 322.02 C 254.84 330.97 257.44 339.69 259.41 348.48 C 266.64 359.26 274.02 370.01 281.71 380.49 C 285.85 378.92 290.12 377.72 294.32 376.34 C 299.05 375.07 301.84 370.76 305.45 367.82 C 305.48 363.13 305.41 358.45 305.51 353.77 C 312.10 360.46 318.96 366.88 325.33 373.78 C 296.78 392.40 261.64 400.70 227.78 396.98 C 193.41 393.47 160.43 377.47 136.52 352.51 C 111.20 326.98 96.13 291.79 94.67 255.91 C 94.67 250.27 94.58 244.63 94.72 238.99 C 95.71 227.22 97.89 215.54 101.27 204.21 C 111.63 172.18 132.85 143.60 161.13 125.21 C 184.06 109.78 211.47 101.13 239.10 100.50 Z" />
<path fill="#009f3c" opacity="1.00" d=" M 230.02 110.93 C 236.68 110.39 243.29 109.26 249.96 108.86 C 259.65 110.56 269.11 113.45 278.81 115.11 C 275.01 119.29 271.10 123.38 267.41 127.67 C 256.31 128.79 245.12 128.78 234.00 129.62 C 231.57 130.15 229.65 128.39 227.71 127.26 C 221.48 123.18 215.05 119.41 208.92 115.17 C 216.01 114.00 222.84 111.54 230.02 110.93 Z" />
<path fill="#ffffff" opacity="1.00" d=" M 343.32 185.17 C 345.09 183.93 346.89 182.74 348.70 181.55 C 351.00 182.81 353.36 183.92 355.67 185.16 C 351.55 185.34 347.43 185.33 343.32 185.17 Z" />
<path fill="#ffffff" opacity="1.00" d=" M 326.49 201.57 C 347.26 201.62 368.03 201.59 388.80 201.58 C 388.72 243.66 388.80 285.73 388.76 327.80 C 398.65 328.63 408.59 327.87 418.51 328.25 C 398.48 348.79 377.88 368.80 357.70 389.20 C 337.21 369.14 316.95 348.84 296.77 328.47 C 306.67 327.60 316.64 328.78 326.53 327.77 C 326.48 285.70 326.57 243.64 326.49 201.57 Z" />
</svg>
