<?xml version="1.0" encoding="UTF-8" ?>
<!DOCTYPE svg PUBLIC "-//W3C//DTD SVG 1.1//EN" "http://www.w3.org/Graphics/SVG/1.1/DTD/svg11.dtd">
<svg width="512pt" height="512pt" viewBox="0 0 512 512" version="1.1" xmlns="http://www.w3.org/2000/svg">
<path fill="#0964c6" opacity="1.00" d=" M 0.00 0.00 L 512.00 0.00 L 512.00 512.00 L 0.00 512.00 L 0.00 0.00 Z" />
<path fill="#ffffff" opacity="1.00" d=" M 236.64 104.94 C 254.78 103.26 273.32 103.55 291.07 107.99 C 313.27 113.27 334.27 123.68 351.90 138.19 C 387.25 166.85 408.87 212.36 407.07 258.02 C 407.52 271.21 405.36 284.37 401.98 297.08 C 399.48 303.58 397.31 310.21 394.58 316.63 C 384.03 340.53 367.30 361.72 346.27 377.26 C 330.16 389.48 311.44 397.97 291.89 402.93 C 267.54 408.78 241.70 408.65 217.43 402.46 C 204.40 398.80 191.64 393.94 179.91 387.14 C 151.88 370.93 129.13 345.64 116.34 315.86 C 113.64 309.67 111.70 303.19 109.31 296.88 C 105.49 283.28 103.70 269.15 104.04 255.02 C 103.57 232.22 109.22 209.53 119.08 189.04 C 133.56 159.26 158.04 134.49 187.72 119.80 C 203.03 112.12 219.65 107.11 236.64 104.94 Z" />
<path fill="#0964c6" opacity="1.00" d=" M 251.15 116.24 C 276.69 115.42 302.52 121.57 324.75 134.25 C 354.78 151.04 378.12 179.40 388.77 212.12 C 397.01 237.17 398.16 264.54 391.57 290.10 C 384.54 318.87 367.81 345.11 344.95 363.90 C 325.10 380.32 300.63 391.06 275.09 394.49 C 246.73 398.54 217.14 393.36 191.72 380.19 C 166.86 367.36 146.02 346.90 132.84 322.22 C 118.73 296.14 113.28 265.43 117.63 236.09 C 121.42 208.75 133.69 182.71 152.23 162.28 C 177.17 134.35 213.75 117.46 251.15 116.24 Z" />
<path fill="#ffffff" opacity="1.00" d=" M 299.98 163.28 C 309.73 162.24 319.53 161.17 329.36 161.47 C 329.58 207.65 329.38 253.83 329.47 300.01 C 329.67 308.00 325.59 315.58 319.64 320.72 C 307.78 330.65 289.06 332.99 276.14 323.74 C 268.98 318.93 265.32 309.43 267.53 301.11 C 269.37 291.66 277.25 284.54 285.75 280.80 C 292.96 278.06 301.04 276.76 308.61 278.72 C 310.52 279.22 312.45 279.65 314.39 280.00 C 314.39 257.85 314.40 235.69 314.39 213.54 C 305.50 213.35 296.75 215.23 287.91 215.82 C 271.43 218.17 255.09 221.60 239.02 225.97 C 235.56 226.77 232.09 227.59 228.85 229.09 C 229.05 249.71 228.50 270.35 228.91 290.98 C 229.34 299.30 228.47 307.63 228.93 315.96 C 228.84 324.03 227.73 332.81 221.97 338.97 C 212.85 348.68 198.20 353.04 185.30 349.59 C 180.36 347.46 174.48 346.43 171.03 341.92 C 166.21 336.66 164.80 328.91 166.49 322.10 C 168.19 316.08 171.75 310.50 176.84 306.80 C 187.07 298.75 201.42 296.80 213.56 301.34 C 213.99 261.73 213.62 222.10 213.74 182.48 C 229.69 176.05 246.28 171.18 263.24 168.27 C 275.30 165.36 287.66 164.36 299.98 163.28 Z" />
</svg>
