<?xml version="1.0" encoding="UTF-8" ?>
<!DOCTYPE svg PUBLIC "-//W3C//DTD SVG 1.1//EN" "http://www.w3.org/Graphics/SVG/1.1/DTD/svg11.dtd">
<svg width="512pt" height="512pt" viewBox="0 0 512 512" version="1.1" xmlns="http://www.w3.org/2000/svg">
<path fill="#0d5fa7" opacity="1.00" d=" M 0.00 0.00 L 512.00 0.00 L 512.00 512.00 L 0.00 512.00 L 0.00 0.00 Z" />
<path fill="#ffffff" opacity="1.00" d=" M 320.24 135.64 C 342.59 128.88 365.97 124.92 389.36 125.45 C 365.41 127.78 341.77 133.76 319.80 143.62 C 292.47 155.88 267.26 174.42 250.59 199.61 C 237.32 219.50 230.25 243.94 233.17 267.85 C 235.61 291.99 247.44 314.50 263.89 332.06 C 282.61 352.32 306.88 366.82 332.59 376.42 C 350.84 383.11 369.94 387.53 389.30 389.30 C 378.86 390.03 368.44 388.71 358.09 387.46 C 329.65 383.62 301.70 374.74 276.95 360.07 C 254.39 346.71 234.33 328.18 221.95 304.84 C 215.98 293.36 211.88 280.83 210.57 267.93 C 210.15 265.28 210.90 262.67 211.24 260.07 L 210.00 265.15 L 208.76 260.06 C 209.46 263.68 209.77 267.37 209.30 271.05 C 206.63 299.16 195.58 327.23 175.21 347.23 C 161.22 361.16 141.98 370.60 122.00 370.32 C 143.24 361.37 159.91 343.70 170.36 323.43 C 184.83 295.57 189.20 262.85 183.94 232.01 C 179.07 203.99 166.08 176.49 144.02 157.97 C 137.59 152.39 130.10 148.27 122.51 144.51 C 139.24 144.27 155.53 151.15 168.44 161.52 C 189.44 178.46 202.26 203.91 207.33 230.09 C 208.49 237.02 209.89 244.03 209.34 251.08 C 209.16 252.36 209.63 253.58 210.00 254.78 C 211.27 252.01 210.18 248.97 210.64 246.08 C 213.01 224.82 222.73 204.82 236.43 188.55 C 258.08 162.81 288.42 145.60 320.24 135.64 Z" />
</svg>
