<?xml version="1.0" encoding="UTF-8" ?>
<!DOCTYPE svg PUBLIC "-//W3C//DTD SVG 1.1//EN" "http://www.w3.org/Graphics/SVG/1.1/DTD/svg11.dtd">
<svg width="512pt" height="512pt" viewBox="0 0 512 512" version="1.1" xmlns="http://www.w3.org/2000/svg">
<path fill="#872c2b" opacity="1.00" d=" M 0.00 0.00 L 512.00 0.00 L 512.00 512.00 L 0.00 512.00 L 0.00 0.00 Z" />
<path fill="#ffffff" opacity="1.00" d=" M 267.27 106.43 C 269.63 103.39 271.34 99.52 274.86 97.65 C 272.73 105.99 269.89 114.35 270.22 123.08 C 270.48 130.00 271.49 136.94 273.50 143.57 C 274.56 147.19 276.82 150.28 278.01 153.85 L 278.68 154.09 C 279.33 155.63 280.82 157.58 278.75 158.73 C 274.72 158.85 270.90 160.16 266.91 160.51 C 255.13 161.91 244.14 166.60 232.84 169.90 C 232.97 167.87 232.91 165.77 233.86 163.91 C 242.10 143.22 254.96 124.84 267.27 106.43 Z" />
<path fill="#ffffff" opacity="1.00" d=" M 169.15 124.49 C 171.84 128.03 172.39 132.61 174.25 136.57 C 177.60 144.42 181.42 152.36 187.75 158.28 C 191.53 162.26 195.81 165.76 200.40 168.78 C 203.06 170.12 205.70 171.50 208.42 172.73 C 211.01 173.73 213.47 175.12 215.28 177.27 C 206.31 182.86 197.27 188.48 189.47 195.68 C 184.65 199.57 180.50 204.17 175.98 208.37 C 174.50 204.90 173.60 201.23 172.69 197.58 C 170.83 189.16 169.40 180.61 169.01 171.98 C 169.41 166.94 167.82 162.03 168.11 156.99 C 168.20 146.16 167.34 135.23 169.15 124.49 Z" />
<path fill="#ffffff" opacity="1.00" d=" M 289.98 164.99 C 293.34 165.26 296.66 164.82 299.94 164.09 C 304.67 164.12 309.55 163.43 314.18 164.65 C 314.48 164.56 315.07 164.40 315.36 164.32 C 319.04 165.78 323.13 164.65 326.98 164.99 C 336.55 166.21 346.22 167.14 355.59 169.69 C 356.91 169.99 358.26 170.27 359.55 170.78 C 360.02 170.88 360.98 171.09 361.46 171.19 C 363.13 171.93 364.82 172.62 366.56 173.21 C 368.63 174.67 370.93 176.00 371.99 178.43 C 371.99 179.79 371.99 181.16 372.00 182.53 C 368.40 186.45 362.76 189.98 362.93 195.94 C 362.59 200.14 364.74 203.91 366.70 207.46 C 368.05 209.95 369.84 212.16 371.33 214.57 C 375.28 219.94 379.60 225.04 383.32 230.58 C 387.60 236.03 391.41 241.83 395.31 247.56 C 396.16 248.81 396.97 250.10 397.74 251.42 C 398.96 253.44 400.24 255.44 401.29 257.56 C 402.35 259.53 403.35 261.53 404.29 263.57 C 406.87 268.14 407.44 273.41 406.99 278.58 C 405.44 282.21 401.86 283.88 398.41 285.25 C 393.26 287.25 389.52 291.53 387.21 296.45 C 386.69 298.16 386.01 299.83 385.31 301.49 C 384.95 302.51 384.59 303.52 384.22 304.54 C 384.11 305.03 383.91 306.00 383.81 306.48 C 382.60 309.02 382.16 311.82 381.28 314.48 C 380.79 316.49 380.25 318.48 379.74 320.49 C 379.21 322.16 378.78 323.86 378.26 325.53 C 377.76 327.89 377.16 330.24 376.28 332.49 C 375.27 336.57 373.98 340.59 372.28 344.43 C 371.35 346.47 370.39 348.50 369.35 350.48 C 367.48 353.52 365.03 356.26 362.02 358.22 C 359.78 359.59 357.03 358.87 354.56 358.93 C 352.88 358.03 351.21 357.13 349.54 356.24 C 347.13 355.29 344.73 354.36 342.38 353.29 C 341.43 352.96 340.49 352.62 339.55 352.27 C 338.04 351.83 336.59 351.06 335.00 351.05 C 327.05 352.03 319.20 353.69 311.46 355.73 C 299.13 358.40 286.57 361.03 273.90 359.79 C 269.07 358.92 264.23 357.99 259.62 356.29 C 256.85 355.22 254.12 354.05 251.44 352.78 C 250.13 351.96 248.82 351.15 247.53 350.31 C 240.14 345.60 234.03 339.08 229.71 331.47 C 227.85 328.68 226.59 325.59 225.28 322.53 C 224.96 321.52 224.63 320.52 224.31 319.52 C 223.96 318.50 223.59 317.49 223.21 316.49 C 221.99 309.41 219.86 302.11 221.74 294.96 C 222.23 289.66 223.40 284.38 225.71 279.57 C 227.01 276.42 228.63 273.42 230.23 270.42 C 235.60 261.64 243.24 254.18 252.55 249.68 C 254.50 248.81 256.49 248.02 258.48 247.25 C 267.05 244.44 276.16 244.41 285.05 245.15 C 289.67 246.11 294.23 247.52 298.44 249.69 C 304.51 252.92 309.79 257.57 313.32 263.52 C 318.71 271.28 320.34 281.52 318.29 290.61 C 317.98 292.33 317.47 294.00 316.83 295.63 C 316.29 296.56 315.77 297.50 315.27 298.45 C 310.31 307.98 300.18 314.80 289.35 315.29 C 286.18 315.75 281.42 317.32 279.69 313.58 C 286.72 309.57 294.68 305.98 298.84 298.59 C 299.32 297.24 299.84 295.89 300.36 294.55 C 301.12 292.15 301.18 289.61 301.50 287.13 C 301.20 285.28 301.00 283.40 300.84 281.53 C 299.98 279.85 299.10 278.18 298.34 276.46 C 296.62 273.33 293.63 271.16 290.45 269.68 C 289.13 269.19 287.81 268.73 286.51 268.22 C 281.84 267.25 277.10 266.59 272.48 268.24 C 270.50 268.95 268.49 269.57 266.47 270.16 C 261.74 273.11 257.00 276.38 254.26 281.40 C 253.59 282.75 252.89 284.08 252.18 285.41 C 249.47 292.06 249.04 299.69 251.27 306.54 C 251.61 307.50 251.93 308.47 252.24 309.45 C 253.01 310.81 253.82 312.16 254.67 313.49 C 257.03 317.81 261.69 319.91 265.43 322.82 C 267.17 323.29 268.87 323.92 270.48 324.76 C 283.01 327.75 296.70 326.71 308.43 321.26 C 309.48 320.76 310.54 320.27 311.61 319.81 C 318.26 315.92 323.65 310.26 327.25 303.46 C 328.05 302.12 328.89 300.80 329.78 299.52 C 330.22 297.74 330.80 295.97 331.86 294.46 C 331.94 293.99 332.12 293.04 332.20 292.57 C 334.39 287.35 334.20 281.57 334.14 276.02 C 334.00 273.47 334.27 270.81 333.31 268.38 C 333.00 267.02 332.72 265.65 332.23 264.34 C 332.13 263.88 331.92 262.97 331.81 262.51 C 330.97 260.52 330.26 258.49 329.29 256.56 C 326.21 249.19 320.40 243.58 314.64 238.26 C 313.22 237.47 311.86 236.57 310.49 235.72 C 307.76 233.77 304.59 232.67 301.60 231.23 C 300.23 230.68 298.86 230.16 297.47 229.69 C 294.29 228.19 290.62 228.50 287.46 227.13 C 279.83 226.90 272.18 226.94 264.55 227.11 C 262.45 228.69 259.59 227.34 257.42 228.75 C 256.07 228.97 254.65 229.06 253.45 229.79 C 252.97 229.89 252.00 230.09 251.52 230.18 C 250.22 230.70 248.91 231.20 247.63 231.75 C 245.95 232.43 244.28 233.12 242.55 233.65 C 240.52 234.87 238.55 236.21 236.41 237.24 C 234.62 238.11 233.08 239.38 231.59 240.68 C 228.24 242.50 226.05 245.75 223.25 248.24 C 220.53 250.62 218.46 253.57 216.31 256.44 C 215.46 257.81 214.55 259.16 213.70 260.53 C 212.49 262.08 211.58 263.82 210.70 265.57 C 209.18 268.07 208.71 271.03 207.13 273.49 C 207.06 273.97 206.92 274.94 206.84 275.42 C 206.24 276.76 205.70 278.13 205.12 279.48 C 205.03 280.46 204.94 281.43 204.84 282.42 C 203.55 284.25 204.43 286.72 203.11 288.56 C 203.34 294.39 201.90 300.19 202.94 305.98 C 203.23 308.49 202.42 311.25 203.78 313.55 C 204.01 316.24 204.60 318.87 205.28 321.48 C 205.63 322.49 205.98 323.50 206.32 324.51 C 206.65 325.51 206.97 326.51 207.28 327.52 C 207.89 329.22 208.53 330.92 209.21 332.60 C 210.05 334.20 210.95 335.78 211.75 337.41 C 212.23 338.47 212.72 339.53 213.20 340.61 C 214.01 341.90 214.83 343.19 215.66 344.49 C 220.42 351.57 226.56 357.65 233.41 362.70 C 234.81 363.54 236.16 364.45 237.56 365.30 C 239.19 366.08 240.80 366.90 242.42 367.73 C 244.36 368.77 246.38 369.66 248.50 370.29 C 250.40 371.22 252.43 371.82 254.48 372.31 C 256.17 372.78 257.86 373.22 259.54 373.73 C 268.28 375.40 277.17 376.65 286.08 375.84 C 290.17 374.83 294.42 374.86 298.48 373.71 C 301.11 372.87 303.86 372.52 306.50 371.72 C 308.19 371.15 309.95 370.83 311.64 370.25 C 312.09 370.13 313.00 369.89 313.45 369.77 C 314.72 369.17 316.10 368.98 317.46 368.71 C 319.12 368.08 320.94 367.98 322.56 367.21 C 329.49 365.98 336.81 364.98 343.54 367.78 C 344.02 367.89 344.99 368.09 345.47 368.19 C 347.17 368.87 348.89 369.53 350.59 370.23 C 353.00 371.85 355.96 372.26 358.42 373.77 C 362.76 376.09 367.68 376.37 372.49 375.89 C 373.79 375.31 375.13 374.83 376.46 374.31 C 377.85 373.45 379.20 372.54 380.62 371.73 C 384.14 368.89 386.80 365.21 389.32 361.50 C 390.53 359.58 391.72 357.63 392.74 355.59 C 393.36 354.23 394.04 352.90 394.72 351.58 C 396.29 348.03 398.37 344.77 400.26 341.41 C 403.51 335.82 407.47 330.61 412.26 326.25 C 415.31 322.97 418.58 319.85 422.54 317.68 C 423.79 316.81 425.07 315.99 426.38 315.21 C 427.78 314.67 429.17 314.06 430.42 313.20 C 431.72 312.70 433.02 312.22 434.36 311.80 C 433.80 313.61 432.71 315.16 431.40 316.50 C 430.91 316.66 429.93 316.97 429.44 317.13 C 423.75 321.52 418.35 326.42 414.31 332.43 C 413.26 334.07 412.19 335.70 411.23 337.39 C 410.05 339.78 408.86 342.17 407.71 344.58 C 406.37 347.81 405.20 351.12 404.29 354.50 C 403.98 355.51 403.66 356.51 403.33 357.51 C 402.99 358.51 402.66 359.51 402.34 360.52 C 401.97 361.53 401.59 362.54 401.21 363.55 C 401.11 364.02 400.92 364.97 400.82 365.44 C 399.55 368.07 398.77 370.91 397.26 373.43 C 397.03 373.93 396.56 374.94 396.33 375.44 C 395.00 377.97 393.08 380.13 391.71 382.63 C 387.45 387.13 383.44 392.27 377.61 394.81 C 375.97 395.51 374.27 396.00 372.52 396.28 C 369.57 397.69 366.16 396.74 363.01 397.03 C 358.92 397.41 355.06 395.66 350.96 395.92 C 344.95 394.39 338.69 395.09 332.55 395.11 C 330.98 395.94 329.19 396.17 327.50 396.64 C 325.80 397.21 324.09 397.79 322.59 398.78 C 320.28 399.83 317.76 400.43 315.59 401.77 C 313.90 402.44 312.20 403.07 310.49 403.68 C 309.46 404.01 308.45 404.37 307.45 404.78 C 306.97 404.89 306.02 405.11 305.55 405.21 C 304.55 405.64 303.54 406.01 302.52 406.34 C 300.23 407.13 297.88 407.76 295.53 408.29 C 294.26 408.85 292.89 409.04 291.54 409.27 C 289.61 410.16 287.38 409.86 285.45 410.77 C 273.78 412.54 261.82 414.31 250.06 412.10 C 247.86 411.75 245.38 412.57 243.45 411.16 C 241.43 410.95 239.28 411.25 237.46 410.19 C 235.77 409.97 233.96 410.20 232.47 409.24 C 231.10 409.03 229.70 408.92 228.46 408.27 C 227.11 408.01 225.76 407.79 224.45 407.40 C 223.46 406.98 222.46 406.58 221.46 406.20 C 220.98 406.11 220.02 405.91 219.54 405.81 C 217.84 405.10 216.13 404.39 214.40 403.74 C 212.09 402.71 209.74 401.76 207.41 400.79 C 205.07 399.46 202.82 397.99 200.44 396.73 C 189.85 390.26 180.84 381.38 173.34 371.57 C 172.03 369.52 170.46 367.65 169.24 365.56 C 168.45 364.15 167.55 362.82 166.71 361.45 C 166.22 360.48 165.74 359.52 165.26 358.56 C 165.02 358.06 164.52 357.08 164.27 356.58 C 162.89 353.95 161.80 351.19 160.73 348.42 C 159.80 346.43 159.21 344.31 158.17 342.39 C 158.07 341.93 157.88 341.00 157.79 340.54 C 157.16 338.89 156.81 337.16 156.30 335.49 C 155.61 333.21 155.09 330.90 154.72 328.56 C 153.89 326.38 153.89 324.01 153.30 321.78 C 152.52 319.04 153.75 315.91 152.11 313.43 C 151.95 306.61 151.90 299.77 152.10 292.95 C 152.30 292.58 152.69 291.83 152.89 291.45 C 152.88 286.72 153.61 281.96 154.83 277.43 C 154.95 276.13 155.05 274.85 155.17 273.56 C 155.71 272.26 156.00 270.89 156.32 269.53 C 157.14 266.90 157.52 264.16 158.24 261.50 C 158.77 260.18 159.22 258.83 159.71 257.50 C 160.03 256.50 160.35 255.49 160.66 254.49 C 161.10 253.09 161.71 251.75 162.25 250.39 C 162.92 248.73 163.56 247.06 164.19 245.39 C 164.72 244.46 165.24 243.53 165.75 242.60 C 166.37 241.24 167.04 239.91 167.71 238.58 C 168.54 236.84 169.37 235.11 170.26 233.42 C 171.27 231.38 172.37 229.39 173.69 227.54 C 175.19 225.11 176.89 222.80 178.67 220.57 C 179.68 218.66 181.26 217.18 182.72 215.63 C 184.15 212.59 187.06 210.69 189.25 208.26 C 195.54 201.49 202.93 195.84 210.55 190.66 C 211.52 190.00 212.51 189.34 213.50 188.70 C 216.04 187.06 218.69 185.60 221.42 184.28 C 222.76 183.63 224.09 182.95 225.42 182.27 C 227.43 181.30 229.44 180.32 231.41 179.27 C 233.36 178.24 235.37 177.28 237.50 176.70 C 239.51 175.94 241.51 175.15 243.48 174.30 C 244.49 173.95 245.50 173.64 246.54 173.37 C 247.53 172.98 248.53 172.59 249.53 172.21 C 250.02 172.10 250.99 171.88 251.47 171.77 C 253.15 171.28 254.83 170.77 256.52 170.30 C 258.82 169.69 261.13 169.14 263.47 168.73 C 265.37 167.65 267.79 168.46 269.57 167.11 C 271.89 166.82 274.51 167.59 276.55 166.14 C 281.09 166.37 285.43 164.60 289.98 164.99 Z" />
<path fill="#872c2b" opacity="1.00" d=" M 306.49 181.70 C 309.19 180.56 312.18 181.08 315.03 180.99 C 321.57 181.07 328.36 180.39 334.59 182.82 C 335.55 182.93 336.51 183.04 337.48 183.15 C 338.98 183.89 340.80 184.16 342.01 185.40 C 342.27 187.01 340.62 187.90 339.52 188.67 C 332.89 193.20 327.21 199.00 320.46 203.34 C 315.25 205.86 308.99 206.96 303.45 204.81 C 302.48 204.30 301.50 203.80 300.53 203.31 C 298.40 202.28 296.71 200.58 295.67 198.46 C 295.41 197.96 294.90 196.96 294.64 196.46 C 293.63 194.61 294.06 192.44 294.00 190.43 C 295.64 187.71 297.73 185.22 300.51 183.61 C 302.45 182.82 304.44 182.17 306.49 181.70 Z" />
<path fill="#ffffff" opacity="1.00" d=" M 93.73 204.73 C 97.09 205.36 99.56 207.85 102.55 209.30 C 105.22 210.70 107.90 212.10 110.43 213.76 C 113.12 214.90 115.76 216.17 118.46 217.29 C 120.03 218.21 121.75 218.84 123.52 219.29 C 129.32 221.72 135.58 222.85 141.78 223.75 C 149.59 224.62 157.46 223.14 165.27 224.16 C 163.38 229.27 159.88 233.58 157.75 238.59 C 157.23 239.54 156.73 240.49 156.22 241.44 C 152.98 249.46 149.71 257.51 147.81 265.95 C 147.31 267.45 146.56 268.85 145.83 270.25 C 140.83 265.96 135.28 261.94 131.65 256.35 C 130.62 255.72 129.53 255.11 128.87 254.06 C 117.05 239.36 105.43 224.46 95.14 208.63 C 94.64 207.34 94.14 206.05 93.73 204.73 Z" />
<path fill="#872c2b" opacity="1.00" d=" M 354.33 235.10 C 356.56 234.02 359.02 233.80 361.47 234.09 C 362.45 234.51 363.44 234.89 364.46 235.24 C 371.34 239.17 376.21 246.05 378.74 253.46 C 379.06 254.47 379.39 255.48 379.73 256.50 C 380.32 259.36 381.15 262.20 381.13 265.16 C 374.37 261.80 366.54 262.90 359.55 260.38 C 355.65 258.45 352.59 255.32 350.62 251.45 C 348.96 247.53 348.65 243.37 350.15 239.35 C 351.47 237.87 352.87 236.45 354.33 235.10 Z" />
<path fill="#ffffff" opacity="1.00" d=" M 135.73 293.74 C 138.26 291.52 141.22 289.91 144.31 288.64 C 145.36 293.04 144.07 297.50 144.11 301.94 C 143.98 310.24 145.07 318.50 146.31 326.69 C 146.89 330.68 148.10 334.58 148.10 338.65 C 129.06 336.51 111.20 329.15 93.29 322.78 C 88.12 320.70 82.72 318.99 77.93 316.13 C 78.06 314.79 78.78 314.11 80.11 314.09 C 86.27 312.91 92.60 313.19 98.73 311.75 C 112.35 309.11 125.10 302.58 135.73 293.74 Z" />
<path fill="#872c2b" opacity="1.00" d=" M 355.55 304.16 C 356.03 304.11 356.99 304.01 357.48 303.96 C 359.68 305.12 360.84 307.33 361.99 309.43 C 362.23 314.15 362.49 319.02 360.76 323.52 C 360.05 325.54 359.26 327.53 358.36 329.47 C 357.55 331.20 356.30 332.59 354.47 333.26 C 352.30 329.06 349.06 325.54 346.65 321.49 C 344.85 318.69 345.05 315.46 346.16 312.45 C 346.42 311.93 346.93 310.90 347.19 310.39 C 348.35 308.11 350.36 306.59 352.45 305.23 C 353.49 304.89 354.52 304.53 355.55 304.16 Z" />
<path fill="#ffffff" opacity="1.00" d=" M 135.71 385.85 C 143.07 376.51 145.56 364.07 154.03 355.53 C 159.32 365.14 163.96 375.33 171.75 383.27 C 175.58 387.67 180.26 391.31 183.63 396.10 C 173.85 401.22 162.54 401.41 151.82 402.78 C 139.63 403.33 127.36 404.76 115.18 403.55 C 115.15 403.08 115.11 402.14 115.08 401.67 C 122.39 397.04 130.44 392.96 135.71 385.85 Z" />
</svg>
