<?xml version="1.0" encoding="UTF-8" ?>
<!DOCTYPE svg PUBLIC "-//W3C//DTD SVG 1.1//EN" "http://www.w3.org/Graphics/SVG/1.1/DTD/svg11.dtd">
<svg width="512pt" height="512pt" viewBox="0 0 512 512" version="1.1" xmlns="http://www.w3.org/2000/svg">
<path fill="#3d71be" opacity="1.00" d=" M 0.00 0.00 L 512.00 0.00 L 512.00 512.00 L 0.00 512.00 L 0.00 0.00 Z" />
<path fill="#ffffff" opacity="1.00" d=" M 117.53 125.75 C 120.64 125.17 123.81 125.37 126.96 125.35 C 158.65 125.37 190.34 125.35 222.03 125.36 C 232.24 125.26 242.48 133.34 242.74 143.93 C 242.81 170.96 242.74 197.99 242.77 225.01 C 243.40 235.22 234.25 244.96 223.99 244.74 C 189.32 244.75 154.65 244.74 119.97 244.74 C 110.26 245.21 101.06 236.76 100.83 227.02 C 100.81 201.03 100.84 175.04 100.82 149.05 C 100.83 145.34 100.46 141.46 102.01 137.98 C 104.50 131.47 110.78 126.95 117.53 125.75 Z" />
<path fill="#ffffff" opacity="1.00" d=" M 286.48 125.69 C 287.97 125.41 289.49 125.37 291.01 125.35 C 324.35 125.39 357.69 125.33 391.03 125.38 C 401.12 125.46 411.07 133.50 411.26 143.98 C 411.29 171.31 411.26 198.64 411.28 225.97 C 411.48 236.07 402.18 245.23 392.07 244.73 C 358.70 244.73 325.33 244.71 291.96 244.74 C 288.68 244.69 285.29 244.98 282.17 243.78 C 274.90 241.16 269.19 233.93 269.26 226.06 C 269.14 200.69 269.26 175.33 269.21 149.96 C 269.26 145.60 268.89 140.97 271.00 136.97 C 273.87 130.90 279.94 126.81 286.48 125.69 Z" />
<path fill="#3d71be" opacity="1.00" d=" M 147.08 148.47 C 172.46 148.52 197.85 148.36 223.23 148.55 C 223.15 168.30 223.20 188.05 223.20 207.79 C 210.21 207.77 197.18 208.20 184.20 207.56 C 184.27 211.80 184.23 216.04 184.24 220.28 C 163.69 220.32 143.14 220.25 122.59 220.31 C 122.57 199.33 122.64 178.35 122.55 157.37 C 130.90 157.42 139.26 157.23 147.61 157.48 C 146.95 154.52 147.05 151.48 147.08 148.47 Z" />
<path fill="#3d71be" opacity="1.00" d=" M 324.50 165.42 C 344.61 165.36 364.71 165.41 384.82 165.39 C 384.83 174.58 384.84 183.76 384.82 192.95 C 372.09 192.92 359.36 192.89 346.64 192.96 C 346.76 190.14 346.71 187.31 346.57 184.50 C 339.28 184.03 331.98 184.57 324.68 184.18 C 324.30 177.93 324.61 171.67 324.50 165.42 Z" />
<path fill="#3d71be" opacity="1.00" d=" M 296.55 184.51 C 313.08 184.50 329.63 184.46 346.15 184.88 C 346.53 191.41 345.53 197.93 345.98 204.47 C 329.49 204.53 313.01 204.47 296.53 204.50 C 296.57 197.84 296.54 191.17 296.55 184.51 Z" />
<path fill="#ffffff" opacity="1.00" d=" M 117.41 267.53 C 152.60 267.18 187.82 267.48 223.02 267.38 C 233.17 266.91 242.75 275.81 242.74 286.02 C 242.77 311.68 242.73 337.34 242.75 363.00 C 242.73 366.84 243.07 370.87 241.34 374.44 C 238.36 381.70 230.78 386.43 223.06 386.75 C 189.05 386.76 155.03 386.73 121.02 386.77 C 111.24 386.80 101.44 379.16 100.87 369.05 C 100.79 341.39 100.89 313.72 100.82 286.05 C 100.65 276.85 108.41 268.61 117.41 267.53 Z" />
<path fill="#ffffff" opacity="1.00" d=" M 286.35 267.50 C 321.57 267.25 356.81 267.46 392.04 267.40 C 402.06 267.11 411.28 275.95 411.26 286.01 C 411.25 313.34 411.26 340.67 411.26 368.01 C 411.18 378.16 401.84 386.26 392.04 386.73 C 358.03 386.79 324.02 386.71 290.02 386.77 C 282.17 386.82 274.27 382.31 270.95 375.07 C 268.87 371.04 269.28 366.40 269.22 362.02 C 269.28 336.71 269.15 311.39 269.29 286.08 C 269.26 276.78 277.19 268.45 286.35 267.50 Z" />
<path fill="#3d71be" opacity="1.00" d=" M 159.24 312.35 C 159.56 307.14 159.16 301.92 159.47 296.71 C 178.15 296.85 196.83 296.76 215.50 296.76 C 215.65 312.11 215.44 327.46 215.61 342.81 C 208.69 342.76 201.77 342.87 194.85 342.73 C 194.41 332.65 195.09 322.56 194.51 312.49 C 182.77 311.98 170.99 312.27 159.24 312.35 Z" />
<path fill="#3d71be" opacity="1.00" d=" M 309.58 303.17 C 330.11 303.23 350.65 303.20 371.19 303.19 C 371.20 320.21 371.21 337.24 371.18 354.26 C 350.65 354.26 330.11 354.25 309.58 354.27 C 309.54 337.23 309.55 320.20 309.58 303.17 Z" />
<path fill="#3d71be" opacity="1.00" d=" M 136.71 313.09 C 155.84 313.25 174.97 312.27 194.09 312.91 C 194.44 328.48 194.31 344.06 194.46 359.64 C 175.17 359.65 155.87 359.91 136.59 359.51 C 136.85 344.04 136.63 328.56 136.71 313.09 Z" />
</svg>
