<?xml version="1.0" encoding="UTF-8" ?>
<!DOCTYPE svg PUBLIC "-//W3C//DTD SVG 1.1//EN" "http://www.w3.org/Graphics/SVG/1.1/DTD/svg11.dtd">
<svg width="512pt" height="512pt" viewBox="0 0 512 512" version="1.1" xmlns="http://www.w3.org/2000/svg">
<path fill="#6d6e71" opacity="1.00" d=" M 0.00 0.00 L 512.00 0.00 L 512.00 512.00 L 0.00 512.00 L 0.00 0.00 Z" />
<path fill="#ffffff" opacity="1.00" d=" M 198.38 150.50 C 224.62 140.65 253.10 138.09 280.92 139.69 C 307.50 141.71 334.82 148.29 356.37 164.69 C 367.04 172.77 375.66 183.53 381.26 195.68 C 385.14 204.39 387.73 213.65 389.35 223.03 C 393.22 244.58 388.37 267.37 376.98 285.97 C 362.56 309.42 339.58 326.54 314.70 337.63 C 285.46 350.43 252.79 356.85 220.97 352.28 C 209.34 362.72 195.59 371.51 180.09 374.64 C 172.10 376.51 163.78 377.63 155.60 376.48 C 152.30 375.96 148.01 374.01 148.27 370.04 C 148.02 367.33 150.29 365.50 152.44 364.37 C 159.44 360.92 164.09 354.09 167.18 347.15 C 168.62 342.14 167.31 336.81 166.35 331.83 C 147.68 319.22 131.86 301.41 124.36 279.94 C 120.85 268.75 118.73 256.81 120.48 245.11 C 122.65 222.67 132.63 201.32 147.78 184.71 C 161.60 169.49 179.23 157.86 198.38 150.50 Z" />
<path fill="#6d6e71" opacity="1.00" d=" M 279.21 238.28 C 289.54 229.94 299.88 221.63 310.21 213.29 C 310.38 235.90 310.48 258.51 310.52 281.13 C 300.20 272.51 289.83 263.94 279.41 255.44 C 279.23 249.72 279.21 244.00 279.21 238.28 Z" />
<path fill="#6d6e71" opacity="1.00" d=" M 209.39 215.54 C 212.03 214.15 215.07 214.51 217.94 214.48 C 233.31 214.51 248.68 214.48 264.05 214.49 C 269.64 214.34 274.95 219.20 274.87 224.87 C 274.93 239.57 274.89 254.27 274.89 268.97 C 275.18 274.77 269.87 279.96 264.11 279.78 C 247.39 279.83 230.67 279.84 213.95 279.78 C 208.24 279.94 202.96 274.77 203.22 269.02 C 203.19 254.34 203.16 239.66 203.23 224.98 C 203.16 220.97 205.77 217.17 209.39 215.54 Z" />
</svg>
