<?xml version="1.0" encoding="UTF-8" ?>
<!DOCTYPE svg PUBLIC "-//W3C//DTD SVG 1.1//EN" "http://www.w3.org/Graphics/SVG/1.1/DTD/svg11.dtd">
<svg width="512pt" height="512pt" viewBox="0 0 512 512" version="1.1" xmlns="http://www.w3.org/2000/svg">
<path fill="#1859b7" opacity="1.00" d=" M 0.00 0.00 L 512.00 0.00 L 512.00 512.00 L 0.00 512.00 L 0.00 0.00 Z" />
<path fill="#ffffff" opacity="1.00" d=" M 146.79 124.03 C 146.39 121.70 147.96 119.94 149.56 118.53 C 222.39 118.72 295.23 118.55 368.06 118.62 C 370.49 118.32 372.97 120.37 372.80 122.89 C 372.91 154.26 372.81 185.64 372.85 217.01 C 372.69 229.23 373.15 241.48 372.64 253.68 C 370.31 256.71 367.40 259.24 364.75 261.98 C 364.84 216.87 364.61 171.76 364.87 126.65 C 294.79 126.67 224.72 126.69 154.64 126.64 C 154.68 186.57 154.63 246.51 154.66 306.44 C 156.43 304.74 156.65 302.17 157.49 299.98 C 159.45 294.23 161.28 288.44 163.15 282.67 C 167.38 287.64 170.89 293.17 174.86 298.35 C 187.25 286.61 206.59 284.92 222.20 290.41 C 229.31 283.09 240.00 280.74 249.88 281.47 C 255.43 281.77 260.81 283.49 265.68 286.14 C 271.82 279.50 281.42 277.74 290.09 278.59 C 294.69 273.17 299.37 267.81 303.95 262.37 C 308.59 267.75 313.00 273.40 317.94 278.51 C 326.59 277.93 335.70 279.35 342.72 284.79 C 312.95 315.35 283.38 346.10 253.59 376.63 C 250.56 379.74 247.39 382.73 244.88 386.29 C 213.57 386.30 182.26 386.33 150.96 386.28 C 148.10 386.63 146.39 383.47 146.79 380.98 C 146.82 295.33 146.81 209.68 146.79 124.03 Z" />
<path fill="#ffffff" opacity="1.00" d=" M 212.19 140.25 C 216.57 137.16 222.52 136.50 227.16 139.44 C 232.82 136.65 240.92 136.49 244.75 142.28 C 248.73 143.17 254.03 146.17 251.82 151.06 C 253.21 153.03 255.42 155.35 254.05 157.94 C 252.10 162.22 247.10 163.32 242.98 164.38 C 240.22 171.32 231.24 172.18 224.96 170.20 C 218.98 177.43 207.47 177.39 200.13 172.33 C 192.82 174.70 184.46 173.72 178.37 168.88 C 175.03 168.83 171.00 168.28 169.22 165.05 C 168.56 163.10 169.92 161.47 170.94 159.98 C 169.16 158.77 166.46 157.57 167.21 154.90 C 167.74 151.52 171.86 151.01 174.53 150.23 C 174.66 145.20 179.38 142.32 183.81 141.44 C 187.54 140.35 191.41 141.08 195.11 141.89 C 199.94 138.11 206.69 137.74 212.19 140.25 Z" />
<path fill="#ffffff" opacity="1.00" d=" M 405.78 225.75 C 407.94 223.48 410.76 221.47 414.04 221.60 C 419.38 221.71 424.05 226.62 423.72 231.99 C 423.66 236.12 420.42 239.06 417.77 241.81 C 370.62 290.35 323.57 339.00 276.42 387.54 C 271.75 382.90 267.06 378.29 262.25 373.80 C 310.11 324.47 357.91 275.08 405.78 225.75 Z" />
<path fill="#ffffff" opacity="1.00" d=" M 283.74 386.27 C 313.27 355.39 343.20 324.89 372.88 294.15 C 372.77 323.45 372.91 352.76 372.81 382.06 C 373.05 384.68 370.56 386.71 368.04 386.29 C 339.94 386.27 311.84 386.31 283.74 386.27 Z" />
<path fill="#ffffff" opacity="1.00" d=" M 259.14 377.11 C 264.47 380.82 268.58 386.15 273.49 390.45 C 270.75 393.40 267.91 396.26 265.08 399.13 C 260.41 394.48 255.56 390.02 250.96 385.31 C 253.75 382.64 256.23 379.66 259.14 377.11 Z" />
<path fill="#ffffff" opacity="1.00" d=" M 238.22 412.78 C 241.79 404.92 245.04 396.92 248.73 389.12 C 252.79 393.46 257.42 397.25 261.26 401.79 C 253.48 405.23 245.84 409.00 238.22 412.78 Z" />
</svg>
