<?xml version="1.0" encoding="UTF-8" ?>
<!DOCTYPE svg PUBLIC "-//W3C//DTD SVG 1.1//EN" "http://www.w3.org/Graphics/SVG/1.1/DTD/svg11.dtd">
<svg width="512pt" height="512pt" viewBox="0 0 512 512" version="1.1" xmlns="http://www.w3.org/2000/svg">
<path fill="#00a9ec" opacity="1.00" d=" M 0.00 0.00 L 512.00 0.00 L 512.00 512.00 L 0.00 512.00 L 0.00 0.00 Z" />
<path fill="#ffffff" opacity="1.00" d=" M 145.23 163.11 C 146.43 162.62 147.68 162.43 148.99 162.53 C 219.00 162.57 289.01 162.56 359.02 162.54 C 361.77 162.24 364.72 164.13 365.10 166.97 C 372.03 225.64 378.90 284.34 385.74 343.02 C 385.92 346.06 383.04 348.70 380.05 348.45 C 309.70 348.53 239.34 348.45 168.98 348.49 C 166.11 348.79 163.15 346.83 162.76 343.89 C 155.93 286.25 149.30 228.58 142.44 170.95 C 141.97 168.07 142.09 164.39 145.23 163.11 Z" />
<path fill="#00a9ec" opacity="1.00" d=" M 153.51 173.38 C 220.70 173.31 287.88 173.25 355.07 173.41 C 361.49 228.13 367.80 282.86 374.36 337.56 C 307.20 337.80 240.03 337.66 172.87 337.63 C 166.33 282.89 160.13 228.11 153.51 173.38 Z" />
<path fill="#ffffff" opacity="1.00" d=" M 127.82 318.97 C 135.94 310.94 144.61 303.48 152.73 295.45 C 154.22 305.94 155.31 316.48 156.68 326.98 C 157.31 330.28 155.80 333.38 154.56 336.34 C 151.71 337.65 148.86 338.97 146.02 340.32 C 140.41 338.19 134.77 336.13 129.11 334.16 C 127.85 331.35 126.34 328.65 125.28 325.77 C 125.55 323.38 126.53 320.99 127.82 318.97 Z" />
</svg>
