<?xml version="1.0" encoding="UTF-8" ?>
<!DOCTYPE svg PUBLIC "-//W3C//DTD SVG 1.1//EN" "http://www.w3.org/Graphics/SVG/1.1/DTD/svg11.dtd">
<svg width="512pt" height="512pt" viewBox="0 0 512 512" version="1.1" xmlns="http://www.w3.org/2000/svg">
<path fill="#7d4f89" opacity="1.00" d=" M 0.00 0.00 L 512.00 0.00 L 512.00 512.00 L 0.00 512.00 L 0.00 0.00 Z" />
<path fill="#ffffff" opacity="1.00" d=" M 228.53 146.49 C 233.24 143.00 239.14 141.53 244.93 141.50 C 277.30 141.47 309.67 141.51 342.04 141.48 C 347.75 141.42 353.65 142.36 358.51 145.54 C 368.22 151.66 373.30 163.23 373.44 174.46 C 373.58 194.64 373.52 214.83 373.47 235.01 C 373.05 244.69 372.89 255.52 366.28 263.31 C 361.27 269.07 353.04 269.63 345.94 269.29 C 342.86 269.52 339.22 268.40 336.67 270.65 C 330.21 275.47 323.84 280.42 317.30 285.12 C 316.92 280.45 317.65 275.70 316.92 271.08 C 316.68 269.10 314.57 269.37 313.11 269.28 C 301.91 269.28 290.70 269.34 279.49 269.27 C 278.25 273.42 276.06 277.24 275.16 281.51 C 272.96 290.84 271.20 300.39 271.36 310.01 C 271.48 314.85 272.28 320.42 276.52 323.46 C 287.01 331.54 299.58 336.57 309.64 345.25 C 313.60 348.74 317.33 353.48 316.80 359.09 C 316.97 363.38 314.56 367.67 310.68 369.56 C 308.30 370.78 305.56 370.75 302.97 370.78 C 256.32 370.57 209.67 370.41 163.03 370.22 C 156.37 370.16 148.62 370.57 143.50 365.51 C 138.17 359.73 138.69 351.13 139.99 343.93 C 141.99 330.73 151.29 320.18 154.01 307.21 C 157.92 289.78 156.00 271.75 154.24 254.18 C 152.84 229.19 167.66 204.43 190.04 193.37 C 186.42 191.22 182.72 189.23 179.10 187.08 C 185.20 181.85 193.63 182.30 201.01 183.79 C 197.18 181.19 193.34 178.60 189.72 175.72 C 197.63 171.49 206.97 173.48 215.15 175.79 C 214.66 164.68 219.38 153.08 228.53 146.49 Z" />
<path fill="#7d4f89" opacity="1.00" d=" M 206.90 193.48 C 222.27 190.43 238.84 194.28 251.34 203.73 C 259.46 209.95 266.34 218.02 270.31 227.51 C 273.69 228.58 277.57 229.11 280.08 231.88 C 284.82 236.59 285.84 243.68 286.20 250.05 C 285.98 255.36 285.35 261.39 281.31 265.29 C 279.31 267.43 276.01 267.22 273.68 268.54 C 268.67 280.70 266.62 293.93 265.88 307.00 C 265.63 314.01 266.31 322.14 272.00 327.03 C 279.80 333.54 289.15 337.77 297.56 343.39 C 302.70 346.78 308.20 350.42 311.03 356.10 C 312.86 360.59 308.70 365.71 303.97 365.34 C 292.98 365.34 281.96 365.65 270.99 364.83 C 234.31 364.88 197.62 364.81 160.94 364.81 C 156.39 364.60 151.20 364.57 147.60 361.39 C 143.86 357.19 144.24 351.05 145.21 345.89 C 147.28 332.95 156.26 322.49 158.88 309.72 C 163.20 290.78 161.42 271.13 159.44 252.01 C 159.51 237.87 164.67 223.74 173.92 213.02 C 182.26 203.01 194.14 196.04 206.90 193.48 Z" />
<path fill="#ffffff" opacity="1.00" d=" M 184.41 228.61 C 188.77 226.57 193.97 227.53 197.88 230.12 C 203.32 233.67 207.66 239.12 209.48 245.40 C 212.69 256.85 201.79 269.61 190.01 268.31 C 180.80 267.11 174.39 257.97 174.28 249.05 C 173.90 241.25 176.91 232.16 184.41 228.61 Z" />
<path fill="#ffffff" opacity="1.00" d=" M 262.45 233.68 C 266.35 232.07 271.04 232.03 274.66 234.38 C 278.13 236.33 279.96 240.16 280.76 243.91 C 281.82 248.74 281.81 254.10 279.49 258.58 C 277.73 261.96 273.78 263.97 270.01 263.26 C 260.58 261.68 253.89 251.27 256.03 242.01 C 256.82 238.50 258.95 235.00 262.45 233.68 Z" />
<path fill="#7d4f89" opacity="1.00" d=" M 189.38 243.48 C 194.61 241.28 200.88 246.25 199.60 251.85 C 198.83 257.85 190.24 260.12 186.49 255.48 C 183.00 251.83 184.67 245.17 189.38 243.48 Z" />
<path fill="#7d4f89" opacity="1.00" d=" M 265.44 243.65 C 270.31 241.32 276.70 245.53 275.90 251.02 C 275.99 256.96 268.01 260.10 263.74 256.27 C 259.49 253.07 260.51 245.63 265.44 243.65 Z" />
<path fill="#ffffff" opacity="1.00" d=" M 231.86 273.15 C 233.29 271.70 234.21 268.61 236.71 269.17 C 237.98 270.30 238.89 271.76 239.91 273.11 C 243.71 273.20 249.16 272.55 250.69 277.09 C 251.81 280.33 248.80 282.40 246.62 284.09 C 248.90 285.26 251.20 286.79 253.88 286.71 C 258.40 286.97 262.38 284.55 266.24 282.58 C 261.70 289.73 255.58 295.80 248.72 300.74 C 246.33 302.35 243.81 303.98 240.93 304.55 C 237.56 304.66 234.31 303.50 231.12 302.53 C 222.10 299.44 213.37 295.19 205.89 289.21 C 203.56 287.38 201.70 285.05 200.03 282.63 C 205.16 284.41 210.28 287.19 215.89 286.54 C 218.71 286.34 221.24 285.01 223.67 283.66 C 221.43 282.04 218.91 279.38 220.51 276.43 C 222.68 272.25 228.00 273.39 231.86 273.15 Z" />
</svg>
