<?xml version="1.0" encoding="UTF-8" ?>
<!DOCTYPE svg PUBLIC "-//W3C//DTD SVG 1.1//EN" "http://www.w3.org/Graphics/SVG/1.1/DTD/svg11.dtd">
<svg width="512pt" height="512pt" viewBox="0 0 512 512" version="1.1" xmlns="http://www.w3.org/2000/svg">
<path fill="#00a8ec" opacity="1.00" d=" M 0.00 0.00 L 512.00 0.00 L 512.00 512.00 L 0.00 512.00 L 0.00 0.00 Z" />
<path fill="#ffffff" opacity="1.00" d=" M 149.42 141.98 C 169.10 141.77 188.79 141.95 208.47 141.89 C 208.50 151.70 208.47 161.51 208.49 171.32 C 198.55 171.35 188.61 171.24 178.68 171.38 C 178.77 181.15 178.67 190.93 178.74 200.71 C 168.97 200.70 159.20 200.69 149.43 200.71 C 149.43 181.13 149.45 161.56 149.42 141.98 Z" />
<path fill="#ffffff" opacity="1.00" d=" M 229.80 141.90 C 246.49 141.88 263.17 141.89 279.86 141.89 C 279.92 151.74 279.83 161.58 279.91 171.42 C 263.20 171.44 246.49 171.44 229.79 171.42 C 229.81 161.58 229.79 151.74 229.80 141.90 Z" />
<path fill="#ffffff" opacity="1.00" d=" M 301.17 141.89 C 320.72 141.89 340.27 141.88 359.82 141.90 C 359.88 161.50 359.80 181.10 359.86 200.69 C 350.06 200.72 340.26 200.69 330.47 200.71 C 330.52 190.93 330.41 181.15 330.53 171.37 C 320.74 171.25 310.94 171.35 301.15 171.32 C 301.16 161.51 301.12 151.70 301.17 141.89 Z" />
<path fill="#ffffff" opacity="1.00" d=" M 149.44 223.21 C 159.25 223.25 169.06 223.22 178.87 223.23 C 178.82 238.43 178.82 253.62 178.87 268.82 C 169.06 268.84 159.25 268.81 149.43 268.83 C 149.44 253.63 149.43 238.42 149.44 223.21 Z" />
<path fill="#ffffff" opacity="1.00" d=" M 330.63 223.19 C 340.37 223.28 350.11 223.20 359.86 223.23 C 359.83 238.43 359.83 253.63 359.85 268.82 C 350.10 268.83 340.35 268.81 330.59 268.83 C 330.62 253.62 330.55 238.41 330.63 223.19 Z" />
<path fill="#ffffff" opacity="1.00" d=" M 149.44 295.44 C 159.20 295.47 168.97 295.45 178.74 295.46 C 178.69 305.24 178.72 315.03 178.72 324.82 C 188.63 324.82 198.55 324.83 208.46 324.81 C 208.52 334.66 208.46 344.51 208.49 354.36 C 188.81 354.37 169.14 354.33 149.46 354.39 C 149.40 334.74 149.45 315.09 149.44 295.44 Z" />
<path fill="#ffffff" opacity="1.00" d=" M 330.47 295.45 C 340.26 295.47 350.06 295.45 359.85 295.45 C 359.86 305.21 359.76 314.97 359.90 324.73 C 369.72 324.71 379.54 324.74 389.36 324.71 C 389.37 334.56 389.38 344.41 389.35 354.27 C 379.61 354.24 369.87 354.26 360.13 354.25 C 360.19 364.08 360.13 373.91 360.17 383.74 C 350.31 383.87 340.45 383.74 330.60 383.81 C 330.60 373.99 330.58 364.17 330.62 354.35 C 320.79 354.37 310.96 354.36 301.13 354.36 C 301.18 344.52 301.12 334.69 301.16 324.85 C 310.93 324.79 320.70 324.82 330.47 324.84 C 330.48 315.04 330.48 305.25 330.47 295.45 Z" />
<path fill="#ffffff" opacity="1.00" d=" M 229.80 324.73 C 246.49 324.71 263.18 324.72 279.88 324.72 C 279.89 334.60 279.86 344.48 279.90 354.35 C 263.19 354.36 246.49 354.37 229.79 354.35 C 229.81 344.48 229.79 334.60 229.80 324.73 Z" />
</svg>
