<?xml version="1.0" encoding="UTF-8" ?>
<!DOCTYPE svg PUBLIC "-//W3C//DTD SVG 1.1//EN" "http://www.w3.org/Graphics/SVG/1.1/DTD/svg11.dtd">
<svg width="512pt" height="512pt" viewBox="0 0 512 512" version="1.1" xmlns="http://www.w3.org/2000/svg">
<path fill="#7dc211" opacity="1.00" d=" M 0.00 0.00 L 512.00 0.00 L 512.00 512.00 L 0.00 512.00 L 0.00 0.00 Z" />
<path fill="#ffffff" opacity="1.00" d=" M 240.03 123.43 C 255.71 121.99 271.74 122.20 287.11 125.88 C 305.40 129.76 322.66 138.09 337.31 149.68 C 361.05 168.26 379.74 194.28 386.33 223.98 C 389.99 238.37 390.27 253.31 389.51 268.06 C 387.64 290.27 380.31 312.13 367.39 330.38 C 358.07 343.96 346.32 355.81 333.10 365.61 C 321.70 346.06 302.65 331.82 281.90 323.37 C 267.26 317.90 251.73 314.21 236.03 314.54 C 220.11 314.10 203.99 316.40 189.02 321.90 C 176.41 326.54 165.13 334.24 155.54 343.59 C 139.92 326.17 128.92 304.55 124.88 281.45 C 120.72 257.29 122.18 231.85 130.85 208.80 C 137.62 190.34 149.13 173.84 163.30 160.30 C 183.62 139.64 211.18 126.27 240.03 123.43 Z" />
<path fill="#7dc211" opacity="1.00" d=" M 254.39 179.67 C 289.10 180.97 323.42 190.66 353.99 207.10 C 362.27 211.17 361.97 224.64 354.02 228.89 C 350.76 230.94 346.65 230.36 343.29 228.89 C 310.85 213.53 274.99 204.30 238.94 205.48 C 220.10 204.99 201.41 208.26 183.12 212.47 C 178.88 213.50 174.09 212.07 171.40 208.56 C 168.49 205.12 169.03 200.25 169.46 196.09 C 170.70 190.83 176.10 188.26 180.94 187.21 C 194.14 184.20 207.45 181.50 220.97 180.44 C 232.07 179.28 243.25 179.48 254.39 179.67 Z" />
<path fill="#7dc211" opacity="1.00" d=" M 223.32 227.37 C 234.85 226.45 246.42 226.79 257.95 227.47 C 285.38 229.97 312.28 238.28 336.33 251.71 C 343.55 255.50 342.51 267.82 334.92 270.55 C 329.31 272.03 324.29 268.69 319.38 266.58 C 299.71 257.57 278.50 252.22 257.05 249.74 C 247.73 248.82 238.36 249.32 229.01 249.19 C 215.15 248.94 201.56 252.13 187.98 254.38 C 181.76 255.27 176.62 248.95 177.55 243.02 C 177.25 237.70 181.92 233.72 186.81 232.86 C 198.83 230.25 211.01 227.98 223.32 227.37 Z" />
<path fill="#7dc211" opacity="1.00" d=" M 215.50 270.87 C 251.70 266.09 289.26 273.97 320.87 292.12 C 325.79 295.70 324.00 303.51 319.26 306.34 C 315.93 308.15 311.84 307.18 308.83 305.19 C 283.28 289.69 252.46 284.99 223.00 287.24 C 212.90 288.12 202.81 289.39 192.88 291.49 C 190.08 291.94 186.50 291.80 184.85 289.11 C 183.78 286.15 183.23 282.65 184.79 279.76 C 185.84 277.76 188.09 276.92 190.12 276.28 C 198.44 273.88 206.99 272.44 215.50 270.87 Z" />
<path fill="#ffffff" opacity="1.00" d=" M 214.48 358.60 C 228.26 354.23 243.28 354.95 257.06 358.93 C 269.67 362.85 279.39 372.90 286.02 383.99 C 286.37 384.60 287.53 386.37 286.01 386.35 C 254.93 393.15 221.15 389.33 193.08 374.02 C 198.60 367.02 206.05 361.54 214.48 358.60 Z" />
</svg>
