<?xml version="1.0" encoding="UTF-8" ?>
<!DOCTYPE svg PUBLIC "-//W3C//DTD SVG 1.1//EN" "http://www.w3.org/Graphics/SVG/1.1/DTD/svg11.dtd">
<svg width="512pt" height="512pt" viewBox="0 0 512 512" version="1.1" xmlns="http://www.w3.org/2000/svg">
<path fill="#088a3f" opacity="1.00" d=" M 0.00 0.00 L 512.00 0.00 L 512.00 512.00 L 0.00 512.00 L 0.00 0.00 Z" />
<path fill="#ffffff" opacity="1.00" d=" M 210.52 138.49 C 228.77 130.87 248.92 127.91 268.58 130.12 C 295.69 132.68 321.26 145.49 341.01 164.00 C 361.41 183.04 376.37 208.45 381.09 236.11 C 383.25 249.15 383.43 262.67 380.66 275.63 C 370.04 275.58 358.61 271.57 352.46 262.47 C 335.16 237.21 327.67 206.88 312.15 180.67 C 301.55 182.65 290.90 184.51 280.38 186.91 C 284.49 215.70 302.57 239.84 309.21 267.87 C 309.08 272.97 306.83 277.91 304.11 282.18 C 296.76 292.86 283.90 299.28 271.02 299.48 C 261.74 299.76 252.96 295.73 245.36 290.76 C 233.22 281.68 227.67 266.93 222.50 253.25 C 216.49 236.23 209.81 219.36 200.91 203.62 C 187.44 203.15 173.44 203.98 161.15 210.04 C 161.24 211.37 161.39 212.69 161.61 214.00 C 170.22 253.95 188.02 290.97 202.14 329.10 C 207.61 344.09 212.88 359.26 216.03 374.93 C 170.09 360.34 135.24 316.76 129.96 268.99 C 127.71 246.70 131.49 223.74 141.50 203.63 C 155.71 174.59 180.68 150.97 210.52 138.49 Z" />
<path fill="#ffffff" opacity="1.00" d=" M 324.90 293.92 C 326.04 292.48 327.95 293.08 329.50 293.33 C 344.46 296.67 359.69 299.01 375.01 299.80 C 373.67 304.44 371.04 308.57 368.80 312.82 C 349.07 348.23 313.82 375.38 273.71 382.86 C 261.64 365.18 253.69 344.95 248.04 324.41 C 261.37 324.09 274.99 325.90 288.04 322.32 C 291.14 321.71 293.93 320.16 296.52 318.41 C 307.00 311.50 315.47 302.12 324.90 293.92 Z" />
</svg>
