<?xml version="1.0" encoding="UTF-8" ?>
<!DOCTYPE svg PUBLIC "-//W3C//DTD SVG 1.1//EN" "http://www.w3.org/Graphics/SVG/1.1/DTD/svg11.dtd">
<svg width="512pt" height="512pt" viewBox="0 0 512 512" version="1.1" xmlns="http://www.w3.org/2000/svg">
<path fill="#5b84b3" opacity="1.00" d=" M 0.00 0.00 L 512.00 0.00 L 512.00 512.00 L 0.00 512.00 L 0.00 0.00 Z" />
<path fill="#ffffff" opacity="1.00" d=" M 143.42 167.47 C 180.28 151.35 217.16 135.27 253.98 119.08 C 255.49 118.27 257.23 118.62 258.70 119.33 C 295.50 135.61 332.43 151.62 369.26 167.83 C 371.72 168.84 373.57 171.26 373.81 173.92 C 370.20 213.93 367.03 254.04 363.92 294.11 C 363.51 296.85 360.63 298.06 358.74 299.70 C 347.26 308.51 335.53 317.04 324.36 326.22 C 323.87 331.81 324.86 337.46 323.78 343.02 C 322.01 359.46 311.36 373.85 297.82 382.80 C 278.96 395.12 254.40 398.13 233.14 390.73 C 213.51 384.38 196.15 368.51 191.56 347.94 C 189.73 341.45 190.50 334.69 190.29 328.06 C 177.67 318.59 165.29 308.80 152.61 299.41 C 151.13 298.24 149.34 297.30 148.32 295.67 C 147.38 292.89 147.70 289.89 147.45 287.00 C 144.95 256.33 142.30 225.67 139.96 194.99 C 139.56 188.00 138.20 181.08 138.28 174.06 C 138.13 170.97 140.80 168.60 143.42 167.47 Z" />
<path fill="#5b84b3" opacity="1.00" d=" M 252.79 131.99 C 256.25 130.15 259.74 132.57 262.85 133.96 C 289.80 146.47 316.85 158.79 343.90 171.10 C 342.74 171.91 341.63 172.76 340.42 173.49 C 314.41 188.46 288.44 203.51 262.46 218.52 C 260.33 219.63 258.40 221.32 255.99 221.73 C 253.60 221.30 251.66 219.65 249.55 218.55 C 225.04 204.35 200.50 190.19 175.96 176.04 C 173.16 174.47 170.36 172.89 167.75 171.03 C 195.96 157.74 224.44 145.00 252.79 131.99 Z" />
<path fill="#ffffff" opacity="1.00" d=" M 187.87 173.58 C 210.62 163.34 233.16 152.61 255.90 142.32 C 278.54 152.97 301.39 163.18 324.04 173.82 C 301.42 186.13 279.12 199.08 256.56 211.50 C 254.86 212.61 253.19 210.98 251.70 210.29 C 230.52 197.88 208.96 186.11 187.87 173.58 Z" />
<path fill="#5b84b3" opacity="1.00" d=" M 238.97 154.00 C 244.53 151.24 250.21 148.75 255.83 146.10 C 275.18 155.19 294.62 164.11 313.97 173.20 C 313.90 173.54 313.76 174.23 313.69 174.57 C 301.84 181.34 289.79 187.77 277.94 194.55 C 274.11 192.46 270.09 190.73 266.38 188.44 C 266.30 188.17 266.13 187.64 266.04 187.37 C 272.23 179.30 279.00 171.66 285.03 163.47 C 277.01 166.74 269.15 170.57 260.85 173.09 C 265.14 167.68 269.76 162.54 274.31 157.36 C 265.62 160.94 256.94 164.51 248.24 168.07 C 244.71 169.52 241.25 171.19 237.53 172.08 C 241.22 167.29 246.19 163.69 250.12 159.09 C 246.35 157.51 242.63 155.83 238.97 154.00 Z" />
<path fill="#5b84b3" opacity="1.00" d=" M 196.84 173.88 C 209.30 167.52 222.14 161.87 234.84 155.98 C 237.88 157.33 240.93 158.64 243.98 159.98 C 236.38 167.78 228.48 175.28 220.82 183.02 C 233.95 177.78 246.90 172.05 260.15 167.11 C 256.60 173.04 251.33 177.75 247.01 183.13 C 255.44 179.93 263.62 176.06 272.11 173.00 C 268.32 178.71 263.68 183.84 259.35 189.15 C 263.97 191.73 268.69 194.14 273.18 196.96 C 267.16 200.22 261.40 204.18 255.06 206.69 C 235.58 195.90 216.22 184.85 196.84 173.88 Z" />
<path fill="#5b84b3" opacity="1.00" d=" M 153.67 197.55 C 156.98 197.83 159.49 200.17 162.24 201.79 C 188.29 218.18 214.47 234.37 240.50 250.78 C 240.41 281.16 240.52 311.55 240.45 341.93 C 239.17 341.48 237.98 340.87 236.89 340.10 C 211.19 320.77 185.28 301.73 159.33 282.74 C 159.78 278.12 158.48 273.61 158.44 269.01 C 157.74 252.96 155.61 237.04 155.42 220.96 C 154.85 213.15 153.38 205.40 153.67 197.55 Z" />
<path fill="#5b84b3" opacity="1.00" d=" M 347.99 203.94 C 351.05 202.21 353.88 199.85 357.44 199.22 C 355.18 226.97 354.04 254.81 351.40 282.52 C 334.16 295.61 316.49 308.17 299.20 321.21 C 290.05 327.83 281.22 334.92 271.83 341.19 C 271.47 325.43 272.35 309.69 272.20 293.92 C 272.24 280.29 272.21 266.66 272.33 253.03 C 272.10 251.08 274.08 250.25 275.40 249.34 C 299.64 234.27 323.84 219.14 347.99 203.94 Z" />
</svg>
