<?xml version="1.0" encoding="UTF-8" ?>
<!DOCTYPE svg PUBLIC "-//W3C//DTD SVG 1.1//EN" "http://www.w3.org/Graphics/SVG/1.1/DTD/svg11.dtd">
<svg width="512pt" height="512pt" viewBox="0 0 512 512" version="1.1" xmlns="http://www.w3.org/2000/svg">
<path fill="#0f6bb5" opacity="1.00" d=" M 0.00 0.00 L 512.00 0.00 L 512.00 512.00 L 0.00 512.00 L 0.00 0.00 Z" />
<path fill="#ffffff" opacity="1.00" d=" M 145.75 195.70 C 148.87 189.79 155.54 186.75 162.04 186.85 C 184.04 186.80 206.04 186.84 228.03 186.83 C 234.02 186.75 240.37 188.91 243.79 194.10 C 246.78 198.86 248.86 204.13 251.60 209.04 C 245.28 221.57 238.93 234.10 232.89 246.76 C 228.38 238.07 224.26 229.17 219.61 220.57 C 203.40 220.24 187.15 220.48 170.92 220.45 C 165.21 231.61 159.72 242.89 154.02 254.05 C 153.30 255.36 152.67 256.93 153.69 258.29 C 159.44 269.70 165.09 281.17 170.90 292.56 C 187.13 292.51 203.37 292.75 219.59 292.45 C 225.10 282.26 230.09 271.71 235.43 261.40 C 244.39 242.55 253.94 223.99 263.42 205.40 C 266.17 200.31 267.87 194.29 272.59 190.57 C 276.31 187.50 281.33 186.86 285.99 186.81 C 307.67 186.87 329.34 186.77 351.01 186.86 C 357.50 186.77 364.14 189.77 367.27 195.67 C 375.23 211.36 383.03 227.13 390.93 242.85 C 393.01 247.00 395.50 251.18 395.81 255.92 C 395.99 260.80 393.48 265.17 391.35 269.39 C 384.08 283.87 376.85 298.36 369.59 312.85 C 368.05 316.05 366.53 319.40 363.78 321.76 C 360.40 325.02 355.55 326.11 351.00 326.18 C 329.67 326.17 308.35 326.15 287.03 326.19 C 280.64 326.59 273.49 324.93 269.59 319.44 C 266.32 314.56 264.25 309.00 261.37 303.89 C 267.57 291.68 273.55 279.35 279.75 267.14 C 279.96 267.16 280.39 267.19 280.60 267.20 C 284.96 275.56 288.89 284.15 293.38 292.43 C 309.63 292.76 325.91 292.52 342.17 292.55 C 347.97 281.18 353.62 269.73 359.35 258.33 C 360.32 256.98 359.79 255.42 359.05 254.13 C 353.34 242.93 347.83 231.63 342.10 220.44 C 325.91 220.47 309.70 220.29 293.52 220.52 C 290.98 224.51 289.28 228.96 287.00 233.10 C 284.51 238.71 281.03 243.80 278.47 249.38 C 267.25 272.15 255.69 294.76 244.67 317.63 C 241.61 323.22 235.23 326.23 228.99 326.17 C 206.32 326.16 183.65 326.20 160.98 326.15 C 154.51 326.14 148.23 322.53 145.36 316.67 C 136.70 299.37 128.03 282.08 119.39 264.77 C 116.71 259.74 116.61 253.61 119.28 248.55 C 128.10 230.93 136.89 213.30 145.75 195.70 Z" />
</svg>
