<?xml version="1.0" encoding="UTF-8" ?>
<!DOCTYPE svg PUBLIC "-//W3C//DTD SVG 1.1//EN" "http://www.w3.org/Graphics/SVG/1.1/DTD/svg11.dtd">
<svg width="512pt" height="512pt" viewBox="0 0 512 512" version="1.1" xmlns="http://www.w3.org/2000/svg">
<path fill="#0071b9" opacity="1.00" d=" M 0.00 0.00 L 512.00 0.00 L 512.00 512.00 L 0.00 512.00 L 0.00 0.00 Z" />
<path fill="#ffffff" opacity="1.00" d=" M 278.64 197.71 C 288.08 191.57 298.63 186.82 309.89 185.41 C 316.56 183.95 323.34 185.24 329.99 186.10 C 345.78 188.24 360.99 195.39 372.20 206.77 C 380.45 214.94 386.53 225.16 390.30 236.10 C 388.57 235.05 387.05 233.74 385.52 232.43 C 374.88 223.85 360.40 220.70 347.04 223.14 C 335.27 225.49 324.48 231.10 314.41 237.45 C 283.18 257.62 257.26 284.90 225.87 304.84 C 212.97 312.76 198.54 320.03 182.99 319.48 C 167.13 318.40 151.66 311.81 140.00 300.97 C 133.57 295.01 128.15 287.96 124.07 280.20 C 126.19 280.66 127.49 282.57 129.22 283.71 C 138.16 290.02 149.26 292.25 160.01 292.83 C 166.72 293.27 173.41 291.48 179.38 288.48 C 189.50 283.49 198.12 276.01 206.14 268.18 C 230.31 244.73 250.35 216.62 278.64 197.71 Z" />
<path fill="#ffffff" opacity="1.00" d=" M 138.85 216.87 C 151.60 209.96 166.75 206.79 181.09 209.88 C 196.67 213.06 210.63 222.01 221.52 233.41 C 222.87 234.72 224.11 236.15 225.06 237.79 C 222.28 240.59 219.65 243.54 217.04 246.50 C 212.01 241.97 205.32 239.92 198.77 238.79 C 188.62 237.27 178.26 237.20 168.08 238.41 C 159.41 239.28 151.22 243.96 146.07 250.97 C 139.77 259.67 137.28 270.73 137.42 281.34 C 128.65 274.68 120.99 265.55 118.52 254.59 C 116.58 246.86 118.86 238.62 123.20 232.11 C 127.28 226.01 132.81 220.98 138.85 216.87 Z" />
<path fill="#ffffff" opacity="1.00" d=" M 338.08 231.92 C 350.47 227.96 365.09 226.03 376.70 233.21 C 386.57 239.31 390.81 251.04 392.21 262.03 C 392.47 272.74 387.71 283.59 378.85 289.86 C 364.66 300.07 346.41 302.15 329.38 301.84 C 339.26 289.93 344.28 274.38 344.41 258.99 C 344.36 249.60 341.79 240.47 338.08 231.92 Z" />
<path fill="#ffffff" opacity="1.00" d=" M 254.84 291.99 C 257.54 289.93 260.19 287.83 262.85 285.72 C 282.25 300.69 306.67 308.36 331.00 309.37 C 344.62 309.86 357.96 306.47 371.06 303.22 C 369.71 305.43 367.41 306.72 365.42 308.26 C 352.40 317.73 337.24 324.85 321.03 326.19 C 295.09 326.85 269.26 313.62 254.84 291.99 Z" />
</svg>
