<?xml version="1.0" encoding="UTF-8" ?>
<!DOCTYPE svg PUBLIC "-//W3C//DTD SVG 1.1//EN" "http://www.w3.org/Graphics/SVG/1.1/DTD/svg11.dtd">
<svg width="512pt" height="512pt" viewBox="0 0 512 512" version="1.1" xmlns="http://www.w3.org/2000/svg">
<path fill="#009aac" opacity="1.00" d=" M 0.00 0.00 L 512.00 0.00 L 512.00 512.00 L 0.00 512.00 L 0.00 0.00 Z" />
<path fill="#ffffff" opacity="1.00" d=" M 218.09 176.08 C 228.99 164.69 245.49 159.72 260.98 161.09 C 273.29 161.91 285.57 166.86 294.20 175.82 C 300.01 181.80 303.84 189.94 303.63 198.38 C 309.68 198.34 315.72 198.36 321.76 198.35 C 321.70 249.54 321.76 300.73 321.74 351.91 C 278.10 351.81 234.46 352.04 190.83 351.80 C 190.82 300.69 190.93 249.59 190.81 198.48 C 196.79 198.23 202.77 198.39 208.75 198.40 C 209.01 190.10 212.35 182.08 218.09 176.08 Z" />
<path fill="#009aac" opacity="1.00" d=" M 236.56 184.68 C 247.16 178.40 260.73 178.01 272.05 182.58 C 278.48 185.32 285.01 190.78 285.04 198.36 C 265.81 198.36 246.58 198.36 227.35 198.36 C 227.74 192.52 231.59 187.50 236.56 184.68 Z" />
<path fill="#ffffff" opacity="1.00" d=" M 125.62 198.37 C 143.97 198.35 162.33 198.37 180.68 198.36 C 180.61 249.54 180.66 300.72 180.65 351.90 C 162.32 351.91 143.99 351.86 125.66 351.93 C 125.61 300.74 125.70 249.56 125.62 198.37 Z" />
<path fill="#ffffff" opacity="1.00" d=" M 332.16 198.36 C 350.51 198.38 368.85 198.30 387.20 198.40 C 387.12 249.57 387.19 300.73 387.16 351.90 C 368.84 351.90 350.52 351.89 332.19 351.90 C 332.19 300.72 332.25 249.54 332.16 198.36 Z" />
</svg>
