<?xml version="1.0" encoding="UTF-8" ?>
<!DOCTYPE svg PUBLIC "-//W3C//DTD SVG 1.1//EN" "http://www.w3.org/Graphics/SVG/1.1/DTD/svg11.dtd">
<svg width="512pt" height="512pt" viewBox="0 0 512 512" version="1.1" xmlns="http://www.w3.org/2000/svg">
<path fill="#00a651" opacity="1.00" d=" M 0.00 0.00 L 512.00 0.00 L 512.00 512.00 L 0.00 512.00 L 0.00 0.00 Z" />
<path fill="#ffffff" opacity="1.00" d=" M 198.57 146.54 C 256.45 146.55 314.33 146.55 372.22 146.54 C 372.19 210.04 372.25 273.54 372.18 337.03 C 372.01 351.42 359.43 364.28 345.03 364.67 C 307.34 364.76 269.65 364.67 231.97 364.71 C 227.62 364.73 223.17 364.91 219.00 363.47 C 207.51 360.10 199.06 348.92 198.64 336.99 C 198.50 326.03 198.63 315.05 198.58 304.09 C 186.70 304.06 174.81 304.27 162.94 303.99 C 150.15 303.45 138.99 291.96 139.14 279.11 C 139.08 251.72 139.04 224.33 139.16 196.95 C 139.27 183.94 151.03 172.64 163.93 172.51 C 175.48 172.39 187.03 172.48 198.59 172.47 C 198.58 163.83 198.60 155.19 198.57 146.54 Z" />
<path fill="#00a651" opacity="1.00" d=" M 163.25 197.17 C 175.03 197.17 186.80 197.19 198.58 197.16 C 198.55 224.70 198.56 252.24 198.57 279.78 C 186.80 279.73 175.03 279.75 163.26 279.77 C 163.29 252.24 163.30 224.70 163.25 197.17 Z" />
</svg>
