<?xml version="1.0" encoding="UTF-8" ?>
<!DOCTYPE svg PUBLIC "-//W3C//DTD SVG 1.1//EN" "http://www.w3.org/Graphics/SVG/1.1/DTD/svg11.dtd">
<svg width="512pt" height="512pt" viewBox="0 0 512 512" version="1.1" xmlns="http://www.w3.org/2000/svg">
<path fill="#008d44" opacity="1.00" d=" M 0.00 0.00 L 512.00 0.00 L 512.00 512.00 L 0.00 512.00 L 0.00 0.00 Z" />
<path fill="#ffffff" opacity="1.00" d=" M 142.14 127.94 C 141.94 122.73 146.89 118.48 151.97 118.80 C 210.98 118.77 270.00 118.80 329.01 118.78 C 332.45 118.64 336.06 120.18 337.83 123.24 C 339.47 125.75 339.25 128.87 339.29 131.74 C 283.19 131.71 227.10 131.76 171.00 131.71 C 166.83 131.45 162.18 131.95 159.23 135.25 C 155.51 138.83 155.72 144.34 155.82 149.08 C 149.90 153.53 149.79 163.10 155.77 167.55 C 155.91 179.69 155.80 191.83 155.82 203.97 C 153.27 206.30 151.10 209.40 151.28 213.01 C 151.04 216.66 153.21 219.84 155.80 222.18 C 155.86 234.43 155.85 246.68 155.80 258.93 C 149.84 263.32 149.84 272.88 155.78 277.29 C 155.88 289.14 155.84 301.00 155.80 312.86 C 149.87 317.27 149.82 326.81 155.78 331.21 C 155.89 341.88 155.81 352.56 155.83 363.23 C 152.64 363.19 149.13 363.61 146.36 361.70 C 143.38 359.93 141.86 356.43 142.10 353.04 C 142.12 278.01 142.04 202.97 142.14 127.94 Z" />
<path fill="#ffffff" opacity="1.00" d=" M 159.92 143.85 C 159.67 139.39 163.48 135.45 167.98 135.71 C 226.98 135.67 285.98 135.69 344.98 135.69 C 347.70 135.57 350.47 136.80 351.98 139.10 C 353.69 141.56 353.18 144.71 353.31 147.52 C 296.56 147.57 239.80 147.51 183.04 147.55 C 175.59 147.41 170.61 155.08 171.68 162.03 C 167.80 164.70 164.92 169.12 165.21 173.97 C 165.15 178.64 167.99 182.78 171.71 185.37 C 171.73 195.76 171.73 206.15 171.70 216.55 C 168.03 219.18 165.12 223.27 165.20 227.95 C 164.91 232.84 167.84 237.26 171.75 239.93 C 171.66 250.45 171.79 260.97 171.68 271.48 C 168.30 273.93 165.46 277.55 165.25 281.88 C 164.63 286.96 167.40 291.94 171.66 294.62 C 171.79 304.98 171.72 315.34 171.69 325.70 C 166.13 329.22 163.43 336.77 166.36 342.84 C 167.44 345.46 169.56 347.42 171.76 349.12 C 171.69 358.26 171.71 367.40 171.75 376.54 C 168.59 376.47 164.89 377.00 162.42 374.56 C 159.90 372.46 159.84 368.95 159.85 365.96 C 159.93 291.92 159.78 217.88 159.92 143.85 Z" />
<path fill="#ffffff" opacity="1.00" d=" M 183.34 151.53 C 242.56 151.46 301.79 151.51 361.02 151.51 C 364.03 151.38 367.03 153.06 368.34 155.81 C 369.72 159.75 368.62 163.95 368.99 168.00 C 369.36 172.66 368.99 177.33 368.87 181.99 C 368.89 223.67 368.83 265.37 368.96 307.02 C 369.11 319.67 368.51 332.34 369.13 344.99 C 368.58 358.35 369.13 371.72 368.83 385.08 C 369.16 389.26 365.03 392.63 361.03 392.32 C 303.38 392.35 245.72 392.31 188.07 392.34 C 185.03 392.22 181.60 392.88 178.98 390.94 C 176.70 389.42 175.64 386.65 175.75 383.98 C 175.74 311.00 175.76 238.01 175.74 165.03 C 175.75 162.66 175.62 160.28 175.88 157.92 C 176.32 154.31 179.73 151.48 183.34 151.53 Z" />
<path fill="#008d44" opacity="1.00" d=" M 192.66 176.09 C 200.58 174.67 208.70 181.92 207.89 190.01 C 208.09 199.13 197.39 205.68 189.23 201.87 C 183.16 199.42 179.78 192.42 181.41 186.11 C 182.67 180.92 187.35 176.74 192.66 176.09 Z" />
<path fill="#008d44" opacity="1.00" d=" M 189.32 231.54 C 196.38 228.24 205.41 232.76 207.44 240.16 C 210.13 247.85 203.97 256.81 195.93 257.44 C 188.69 258.40 181.27 252.36 181.11 244.98 C 180.46 239.28 184.12 233.71 189.32 231.54 Z" />
<path fill="#008d44" opacity="1.00" d=" M 189.34 286.40 C 196.42 283.18 205.44 287.61 207.45 295.06 C 209.99 302.39 204.53 310.85 197.03 312.17 C 189.21 313.92 180.76 307.16 181.09 299.08 C 180.76 293.63 184.38 288.46 189.34 286.40 Z" />
<path fill="#008d44" opacity="1.00" d=" M 189.43 340.64 C 197.33 336.89 207.65 343.35 207.87 352.03 C 208.63 358.38 204.10 364.68 197.93 366.18 C 190.85 368.27 182.72 363.32 181.33 356.07 C 179.66 349.84 183.53 342.98 189.43 340.64 Z" />
</svg>
