<?xml version="1.0" encoding="UTF-8" ?>
<!DOCTYPE svg PUBLIC "-//W3C//DTD SVG 1.1//EN" "http://www.w3.org/Graphics/SVG/1.1/DTD/svg11.dtd">
<svg width="512pt" height="512pt" viewBox="0 0 512 512" version="1.1" xmlns="http://www.w3.org/2000/svg">
<path fill="#a3620a" opacity="1.00" d=" M 0.00 0.00 L 512.00 0.00 L 512.00 512.00 L 0.00 512.00 L 0.00 0.00 Z" />
<path fill="#ffffff" opacity="1.00" d=" M 249.49 118.44 C 250.73 117.36 252.47 114.88 254.09 116.86 C 287.66 147.30 321.19 177.80 354.75 208.25 C 356.61 210.13 359.34 211.46 360.11 214.17 C 288.51 214.22 216.91 214.11 145.31 214.23 C 145.14 212.28 147.21 211.51 148.34 210.32 C 159.37 200.29 170.41 190.26 181.45 180.25 C 181.90 161.01 181.56 141.66 181.62 122.37 C 193.68 122.31 205.74 122.37 217.81 122.34 C 217.85 130.59 217.72 138.84 217.88 147.09 C 228.48 137.61 238.96 128.00 249.49 118.44 Z" />
<path fill="#ffffff" opacity="1.00" d=" M 144.51 220.48 C 216.59 220.51 288.66 220.53 360.74 220.47 C 360.71 243.83 360.87 267.19 360.66 290.54 C 353.08 288.71 345.34 287.63 337.72 286.01 C 335.11 285.26 332.52 286.31 329.96 286.70 C 315.29 289.41 300.66 292.34 285.99 295.07 C 283.31 295.54 282.23 298.51 282.29 300.93 C 282.25 321.96 282.31 342.98 282.26 364.00 C 282.06 369.18 284.00 374.10 286.04 378.76 C 281.31 378.84 276.59 378.82 271.87 378.77 C 271.75 357.29 271.76 335.80 271.87 314.32 C 258.84 314.46 245.80 314.14 232.78 314.49 C 232.97 335.92 232.75 357.36 232.89 378.79 C 203.42 378.83 173.95 378.80 144.48 378.81 C 144.52 326.03 144.47 273.26 144.51 220.48 Z" />
<path fill="#ffffff" opacity="1.00" d=" M 332.97 290.42 C 336.01 289.72 339.07 290.60 342.04 291.22 C 356.21 293.95 370.41 296.53 384.56 299.42 C 384.38 321.94 384.64 344.46 384.43 366.98 C 382.98 376.27 377.29 384.28 370.77 390.80 C 361.37 399.96 349.98 406.90 338.05 412.25 C 334.91 414.05 331.75 411.50 328.88 410.34 C 314.78 403.26 300.96 394.16 292.13 380.78 C 289.33 376.29 287.05 371.28 286.56 365.96 C 286.48 343.80 286.65 321.63 286.48 299.47 C 301.93 296.23 317.49 293.53 332.97 290.42 Z" />
</svg>
