<?xml version="1.0" encoding="UTF-8" ?>
<!DOCTYPE svg PUBLIC "-//W3C//DTD SVG 1.1//EN" "http://www.w3.org/Graphics/SVG/1.1/DTD/svg11.dtd">
<svg width="512pt" height="512pt" viewBox="0 0 512 512" version="1.1" xmlns="http://www.w3.org/2000/svg">
<path fill="#0072bc" opacity="1.00" d=" M 0.00 0.00 L 512.00 0.00 L 512.00 512.00 L 0.00 512.00 L 0.00 0.00 Z" />
<path fill="#ffffff" opacity="1.00" d=" M 260.16 120.40 C 284.82 120.50 309.46 121.49 334.12 121.64 C 342.31 126.88 350.54 132.07 358.75 137.28 C 360.56 138.47 362.66 139.37 364.02 141.13 C 340.60 141.09 317.18 140.88 293.77 141.10 C 292.51 140.99 291.43 140.29 290.38 139.67 C 280.34 133.20 270.23 126.83 260.16 120.40 Z" />
<path fill="#ffffff" opacity="1.00" d=" M 252.31 126.61 C 264.31 134.37 276.48 141.87 288.45 149.66 C 287.91 160.48 287.39 171.30 287.16 182.13 C 276.34 176.27 265.79 169.93 255.04 163.95 C 254.03 163.30 252.45 162.59 252.87 161.05 C 252.72 149.57 252.56 138.09 252.31 126.61 Z" />
<path fill="#ffffff" opacity="1.00" d=" M 295.46 390.22 C 295.46 309.37 295.45 228.51 295.46 147.66 C 320.28 147.69 345.10 147.66 369.93 147.67 C 369.89 228.52 369.89 309.36 369.93 390.20 C 345.10 390.23 320.28 390.19 295.46 390.22 Z" />
<path fill="#ffffff" opacity="1.00" d=" M 147.63 166.76 C 179.74 167.07 211.85 167.43 243.97 167.46 C 245.30 167.59 246.83 167.18 248.04 167.94 C 258.96 175.10 269.64 182.65 280.67 189.65 C 247.83 190.30 214.97 190.39 182.12 190.49 C 170.69 182.49 159.08 174.74 147.63 166.76 Z" />
<path fill="#0072bc" opacity="1.00" d=" M 306.76 167.48 C 313.43 167.45 320.09 167.48 326.76 167.45 C 326.72 181.81 326.72 196.17 326.76 210.53 C 320.09 210.49 313.42 210.57 306.75 210.49 C 306.80 196.15 306.78 181.82 306.76 167.48 Z" />
<path fill="#0072bc" opacity="1.00" d=" M 332.55 167.47 C 339.32 167.46 346.09 167.47 352.87 167.46 C 352.80 181.82 352.80 196.17 352.86 210.53 C 346.09 210.51 339.31 210.53 332.54 210.52 C 332.59 196.17 332.58 181.82 332.55 167.47 Z" />
<path fill="#ffffff" opacity="1.00" d=" M 141.30 174.50 C 153.08 182.58 164.84 190.68 176.65 198.72 C 176.54 262.30 176.21 325.89 176.20 389.47 C 165.29 389.77 154.38 390.00 143.46 390.30 C 143.07 375.87 143.48 361.41 142.84 346.99 C 142.56 289.48 141.71 232.00 141.30 174.50 Z" />
<path fill="#ffffff" opacity="1.00" d=" M 183.57 197.37 C 218.50 197.12 253.44 197.37 288.37 197.24 C 288.43 261.57 288.38 325.89 288.40 390.22 C 253.48 390.20 218.57 390.22 183.66 390.21 C 183.60 325.93 183.78 261.64 183.57 197.37 Z" />
<path fill="#0072bc" opacity="1.00" d=" M 306.76 219.37 C 313.42 219.31 320.08 219.37 326.75 219.33 C 326.70 233.61 326.78 247.90 326.71 262.19 C 320.07 262.17 313.43 262.18 306.79 262.18 C 306.75 247.91 306.81 233.64 306.76 219.37 Z" />
<path fill="#0072bc" opacity="1.00" d=" M 332.54 219.34 C 339.31 219.33 346.08 219.34 352.86 219.34 C 352.76 233.62 352.89 247.91 352.80 262.19 C 346.06 262.17 339.32 262.17 332.59 262.19 C 332.53 247.91 332.62 233.63 332.54 219.34 Z" />
<path fill="#0072bc" opacity="1.00" d=" M 199.45 223.02 C 210.04 222.74 220.65 222.90 231.25 223.17 C 231.22 234.51 231.25 245.84 231.23 257.18 C 220.66 257.20 210.09 257.15 199.52 257.21 C 199.38 245.81 199.53 234.42 199.45 223.02 Z" />
<path fill="#0072bc" opacity="1.00" d=" M 240.60 222.87 C 251.17 223.22 261.75 222.97 272.32 222.89 C 272.36 234.32 272.35 245.76 272.33 257.19 C 261.75 257.18 251.17 257.18 240.59 257.19 C 240.57 245.75 240.56 234.31 240.60 222.87 Z" />
<path fill="#0072bc" opacity="1.00" d=" M 306.46 272.52 C 313.23 272.55 320.01 272.51 326.78 272.54 C 326.69 286.90 326.74 301.25 326.76 315.61 C 319.99 315.58 313.22 315.60 306.45 315.60 C 306.51 301.24 306.49 286.88 306.46 272.52 Z" />
<path fill="#0072bc" opacity="1.00" d=" M 332.55 272.52 C 339.32 272.54 346.10 272.52 352.87 272.53 C 352.79 286.89 352.81 301.25 352.86 315.61 C 346.09 315.59 339.31 315.60 332.55 315.60 C 332.59 301.24 332.57 286.88 332.55 272.52 Z" />
<path fill="#0072bc" opacity="1.00" d=" M 199.45 275.51 C 210.05 275.54 220.65 275.51 231.25 275.53 C 231.22 286.78 231.24 298.03 231.24 309.28 C 220.65 309.30 210.06 309.26 199.47 309.30 C 199.47 298.03 199.49 286.77 199.45 275.51 Z" />
<path fill="#0072bc" opacity="1.00" d=" M 240.56 275.51 C 251.16 275.53 261.76 275.52 272.37 275.52 C 272.32 286.77 272.35 298.03 272.35 309.29 C 261.76 309.28 251.16 309.27 240.57 309.29 C 240.57 298.03 240.59 286.77 240.56 275.51 Z" />
<path fill="#0072bc" opacity="1.00" d=" M 306.69 324.48 C 313.38 324.27 320.07 324.46 326.75 324.37 C 326.72 338.75 326.75 353.13 326.74 367.51 C 320.08 367.45 313.43 367.49 306.77 367.48 C 306.74 353.15 306.89 338.81 306.69 324.48 Z" />
<path fill="#0072bc" opacity="1.00" d=" M 332.55 324.38 C 339.31 324.39 346.08 324.40 352.85 324.38 C 352.82 338.74 352.80 353.11 352.86 367.48 C 346.09 367.48 339.32 367.46 332.55 367.50 C 332.57 353.12 332.58 338.75 332.55 324.38 Z" />
<path fill="#0072bc" opacity="1.00" d=" M 199.45 329.16 C 210.05 329.19 220.65 329.16 231.25 329.18 C 231.22 340.51 231.25 351.83 231.23 363.16 C 220.67 363.19 210.10 363.11 199.54 363.20 C 199.37 351.86 199.54 340.51 199.45 329.16 Z" />
<path fill="#0072bc" opacity="1.00" d=" M 240.57 329.15 C 251.16 329.19 261.76 329.17 272.36 329.16 C 272.32 340.50 272.36 351.83 272.34 363.17 C 261.75 363.16 251.17 363.16 240.59 363.17 C 240.56 351.83 240.60 340.49 240.57 329.15 Z" />
</svg>
