<?xml version="1.0" encoding="UTF-8" ?>
<!DOCTYPE svg PUBLIC "-//W3C//DTD SVG 1.1//EN" "http://www.w3.org/Graphics/SVG/1.1/DTD/svg11.dtd">
<svg width="512pt" height="512pt" viewBox="0 0 512 512" version="1.1" xmlns="http://www.w3.org/2000/svg">
<path fill="#808081" opacity="1.00" d=" M 0.00 0.00 L 512.00 0.00 L 512.00 512.00 L 0.00 512.00 L 0.00 0.00 Z" />
<path fill="#ffffff" opacity="1.00" d=" M 127.24 138.39 C 128.72 137.63 130.41 137.58 132.03 137.57 C 161.04 137.89 190.07 137.26 219.08 137.84 C 222.14 138.16 225.35 137.82 228.31 138.70 C 240.16 147.41 248.95 159.46 259.87 169.19 C 262.26 171.56 265.82 171.52 268.97 171.52 C 306.31 171.57 343.66 171.52 381.01 171.54 C 386.93 171.37 391.92 177.23 391.78 182.95 C 391.75 243.32 391.74 303.70 391.79 364.07 C 392.23 369.51 387.47 374.85 382.08 375.23 C 298.06 375.25 214.04 375.23 130.02 375.24 C 126.28 375.40 123.18 372.62 121.36 369.59 C 119.71 367.03 120.32 363.84 120.22 360.96 C 120.26 289.95 120.22 218.93 120.24 147.91 C 120.04 143.59 123.58 140.10 127.24 138.39 Z" />
</svg>
