<?xml version="1.0" encoding="UTF-8" ?>
<!DOCTYPE svg PUBLIC "-//W3C//DTD SVG 1.1//EN" "http://www.w3.org/Graphics/SVG/1.1/DTD/svg11.dtd">
<svg width="512pt" height="512pt" viewBox="0 0 512 512" version="1.1" xmlns="http://www.w3.org/2000/svg">
<path fill="#af291e" opacity="1.00" d=" M 0.00 0.00 L 512.00 0.00 L 512.00 512.00 L 0.00 512.00 L 0.00 0.00 Z" />
<path fill="#ffffff" opacity="1.00" d=" M 240.64 125.88 C 254.83 123.79 269.76 124.21 283.23 129.57 C 304.73 137.90 322.00 156.69 327.94 179.05 C 330.97 188.43 330.49 198.36 330.29 208.07 C 329.33 217.50 326.23 226.57 322.36 235.17 C 314.45 252.55 302.98 267.93 293.68 284.54 C 276.55 313.97 265.73 347.13 262.71 381.07 C 262.70 384.18 260.61 388.17 257.02 387.79 C 255.30 387.76 253.47 387.97 251.84 387.28 C 249.99 385.75 248.70 383.44 248.66 381.01 C 245.96 349.70 236.69 318.96 221.52 291.43 C 211.38 272.78 198.99 255.42 189.47 236.43 C 181.19 219.53 178.63 199.82 182.71 181.42 C 189.14 153.78 212.90 131.38 240.64 125.88 Z" />
<path fill="#af291e" opacity="1.00" d=" M 246.81 169.85 C 262.67 164.51 281.50 174.79 285.91 190.85 C 287.28 197.56 287.60 204.76 284.88 211.19 C 280.97 221.10 271.76 228.94 261.12 230.41 C 255.71 230.66 250.05 231.09 244.93 228.99 C 238.15 226.52 232.30 221.61 228.77 215.30 C 223.71 206.66 223.49 195.65 227.47 186.56 C 231.13 178.57 238.32 172.22 246.81 169.85 Z" />
</svg>
