<?xml version="1.0" encoding="UTF-8" ?>
<!DOCTYPE svg PUBLIC "-//W3C//DTD SVG 1.1//EN" "http://www.w3.org/Graphics/SVG/1.1/DTD/svg11.dtd">
<svg width="512pt" height="512pt" viewBox="0 0 512 512" version="1.1" xmlns="http://www.w3.org/2000/svg">
<path fill="#f87f14" opacity="1.00" d=" M 0.00 0.00 L 512.00 0.00 L 512.00 512.00 L 0.00 512.00 L 0.00 0.00 Z" />
<path fill="#ffffff" opacity="1.00" d=" M 202.63 138.84 C 205.41 138.40 208.21 138.07 211.02 138.09 C 227.03 138.11 243.03 138.10 259.04 138.10 C 262.07 138.11 265.16 137.86 268.14 138.60 C 286.10 142.52 302.77 152.28 315.03 165.97 C 319.93 171.34 323.38 177.80 326.29 184.41 C 330.44 195.20 329.66 207.06 332.95 218.06 C 334.07 221.79 336.96 225.14 340.90 225.94 C 348.48 227.60 356.32 227.21 364.03 227.56 C 368.37 227.72 372.75 230.50 374.15 234.72 C 376.08 238.88 375.12 243.57 375.25 247.99 C 375.34 256.69 375.02 265.39 375.05 274.09 C 374.16 286.97 376.02 300.06 373.32 312.80 C 369.66 331.59 358.10 348.54 342.32 359.27 C 329.65 367.98 314.31 372.72 298.94 372.59 C 272.63 372.58 246.33 372.59 220.02 372.59 C 213.52 372.55 206.95 372.87 200.51 371.70 C 184.02 369.26 168.43 361.15 156.95 349.06 C 144.57 336.25 137.10 318.77 136.60 300.95 C 136.59 274.28 136.60 247.61 136.60 220.94 C 136.65 213.95 136.21 206.89 137.64 200.00 C 140.68 181.75 151.15 165.02 165.85 153.87 C 176.52 145.76 189.33 140.51 202.63 138.84 Z" />
<path fill="#f87f14" opacity="1.00" d=" M 209.27 199.16 C 211.13 198.58 213.10 198.60 215.03 198.58 C 228.35 198.63 241.68 198.58 255.01 198.60 C 262.26 198.48 269.36 204.49 269.65 211.90 C 270.47 219.99 263.00 227.35 255.02 227.21 C 241.68 227.27 228.33 227.18 214.98 227.25 C 209.93 227.54 204.67 225.56 201.58 221.45 C 197.81 216.90 197.50 209.85 201.00 205.06 C 202.99 202.24 205.95 200.11 209.27 199.16 Z" />
<path fill="#f87f14" opacity="1.00" d=" M 212.36 283.49 C 241.11 283.36 269.86 283.42 298.62 283.46 C 306.68 283.26 314.06 290.99 312.80 299.13 C 312.31 305.91 305.86 311.71 299.09 311.70 C 270.38 311.70 241.66 311.68 212.95 311.70 C 205.52 311.98 198.64 305.39 198.54 297.97 C 198.21 290.47 204.93 283.64 212.36 283.49 Z" />
</svg>
