<?xml version="1.0" encoding="UTF-8" ?>
<!DOCTYPE svg PUBLIC "-//W3C//DTD SVG 1.1//EN" "http://www.w3.org/Graphics/SVG/1.1/DTD/svg11.dtd">
<svg width="512pt" height="512pt" viewBox="0 0 512 512" version="1.1" xmlns="http://www.w3.org/2000/svg">
<path fill="#0080c1" opacity="1.00" d=" M 0.00 0.00 L 512.00 0.00 L 512.00 512.00 L 0.00 512.00 L 0.00 0.00 Z" />
<path fill="#ffffff" opacity="1.00" d=" M 74.63 171.01 C 74.29 167.23 78.71 164.94 81.99 164.98 C 109.43 165.07 136.87 164.85 164.30 165.10 C 164.25 175.80 164.41 186.50 164.26 197.21 C 134.38 197.29 104.51 197.26 74.63 197.22 C 74.65 188.48 74.63 179.74 74.63 171.01 Z" />
<path fill="#ffffff" opacity="1.00" d=" M 164.71 165.04 C 192.81 164.87 220.92 165.05 249.02 164.95 C 251.10 164.93 253.18 165.06 255.26 165.26 C 255.38 175.88 255.36 186.50 255.27 197.12 C 225.09 197.40 194.91 197.23 164.74 197.21 C 164.68 186.48 164.64 175.76 164.71 165.04 Z" />
<path fill="#ffffff" opacity="1.00" d=" M 255.60 164.98 C 285.84 165.04 316.09 164.83 346.33 165.08 C 346.34 175.77 346.30 186.46 346.31 197.15 C 316.08 197.38 285.83 197.19 255.59 197.25 C 255.67 186.49 255.66 175.73 255.60 164.98 Z" />
<path fill="#ffffff" opacity="1.00" d=" M 346.76 165.19 C 374.52 164.85 402.29 165.18 430.06 165.02 C 432.67 164.71 435.30 165.87 436.95 167.90 C 437.09 177.69 437.10 187.50 436.92 197.29 C 406.87 197.18 376.81 197.37 346.76 197.19 C 346.62 186.52 346.69 175.85 346.76 165.19 Z" />
<path fill="#ffffff" opacity="1.00" d=" M 278.66 268.85 C 294.46 262.34 309.64 253.87 322.13 242.09 C 326.44 241.33 330.96 241.99 335.36 241.81 C 327.57 276.62 319.90 311.45 312.15 346.27 C 311.97 348.42 309.49 347.71 308.03 347.88 C 302.10 347.67 296.14 348.22 290.24 347.50 C 295.56 323.12 301.25 298.81 306.33 274.38 C 296.35 279.88 285.71 284.77 274.38 286.57 C 276.19 280.76 277.02 274.71 278.66 268.85 Z" />
<path fill="#ffffff" opacity="1.00" d=" M 203.59 261.48 C 207.82 261.03 212.08 261.33 216.33 261.23 C 216.33 270.75 216.31 280.27 216.34 289.79 C 226.51 290.00 236.68 289.81 246.85 289.89 C 246.86 293.81 246.92 297.73 246.79 301.65 C 236.70 301.61 226.61 301.75 216.52 301.57 C 216.09 311.24 216.42 320.93 216.35 330.60 C 212.11 330.65 207.87 330.68 203.63 330.54 C 203.76 320.93 203.50 311.32 203.80 301.72 C 193.64 301.54 183.48 301.74 173.33 301.62 C 173.33 297.71 173.34 293.81 173.32 289.90 C 183.45 289.82 193.59 289.96 203.72 289.83 C 203.56 280.38 203.78 270.93 203.59 261.48 Z" />
</svg>
