<?xml version="1.0" encoding="UTF-8" ?>
<!DOCTYPE svg PUBLIC "-//W3C//DTD SVG 1.1//EN" "http://www.w3.org/Graphics/SVG/1.1/DTD/svg11.dtd">
<svg width="512pt" height="512pt" viewBox="0 0 512 512" version="1.1" xmlns="http://www.w3.org/2000/svg">
<path fill="#df4c40" opacity="1.00" d=" M 0.00 0.00 L 512.00 0.00 L 512.00 512.00 L 0.00 512.00 L 0.00 0.00 Z" />
<path fill="#ffffff" opacity="1.00" d=" M 154.80 154.80 C 165.80 154.04 176.91 154.67 187.95 154.45 C 192.71 154.14 197.36 155.48 202.12 155.27 C 237.87 158.79 272.23 174.09 299.09 197.88 C 302.27 201.44 306.68 203.71 309.22 207.86 C 327.05 225.68 339.82 248.08 348.29 271.70 C 352.55 284.43 355.72 297.60 356.80 310.99 C 356.36 318.94 358.53 326.86 357.02 334.78 C 356.52 342.10 356.92 349.46 356.83 356.80 C 343.33 356.81 329.82 356.80 316.32 356.80 C 316.51 339.18 316.55 321.55 313.76 304.13 C 309.88 282.35 300.19 261.68 286.16 244.60 C 284.00 241.52 280.78 239.37 278.90 236.08 C 276.04 234.38 273.87 231.84 271.55 229.51 C 248.92 209.59 219.23 197.59 189.02 197.18 C 177.59 195.68 166.00 196.73 154.49 196.42 C 154.72 182.55 154.09 168.63 154.80 154.80 Z" />
<path fill="#ffffff" opacity="1.00" d=" M 154.83 226.61 C 162.86 226.55 170.93 226.95 178.94 226.17 C 184.31 225.81 189.64 226.80 195.00 226.69 C 232.27 229.75 265.91 256.07 279.32 290.74 C 282.50 299.17 284.89 308.01 285.43 317.03 C 287.23 330.50 285.10 344.10 286.11 357.62 C 272.25 357.66 258.38 357.61 244.52 357.64 C 244.34 346.42 245.23 335.14 243.79 323.98 C 242.93 309.13 236.46 294.54 225.43 284.46 C 219.56 279.40 213.11 274.79 205.70 272.30 C 197.91 268.95 189.32 268.75 181.00 268.23 C 172.38 268.19 163.77 268.18 155.16 268.22 C 154.92 254.35 155.56 240.45 154.83 226.61 Z" />
<path fill="#ffffff" opacity="1.00" d=" M 175.67 298.86 C 191.91 293.32 211.65 305.06 214.28 322.10 C 214.81 327.89 214.90 333.98 212.53 339.42 C 206.36 354.99 185.83 362.58 170.96 354.99 C 163.37 351.05 157.02 344.04 155.34 335.47 C 151.34 320.54 160.13 302.58 175.67 298.86 Z" />
</svg>
