<?xml version="1.0" encoding="UTF-8" ?>
<!DOCTYPE svg PUBLIC "-//W3C//DTD SVG 1.1//EN" "http://www.w3.org/Graphics/SVG/1.1/DTD/svg11.dtd">
<svg width="512pt" height="512pt" viewBox="0 0 512 512" version="1.1" xmlns="http://www.w3.org/2000/svg">
<path fill="#4085f9" opacity="1.00" d=" M 0.00 0.00 L 512.00 0.00 L 512.00 512.00 L 0.00 512.00 L 0.00 0.00 Z" />
<path fill="#ffffff" opacity="1.00" d=" M 122.66 140.99 C 122.13 131.57 130.58 122.65 140.03 122.68 C 183.01 122.72 226.00 122.67 268.98 122.71 C 271.36 122.72 273.76 122.56 276.11 123.00 C 283.87 124.78 290.20 132.01 290.42 140.05 C 290.49 167.80 290.33 195.55 290.50 223.29 C 318.00 223.16 345.49 223.32 372.99 223.21 C 381.28 222.84 389.37 229.84 390.31 238.04 C 390.35 284.03 390.35 330.03 390.31 376.02 C 389.22 384.64 380.56 391.37 371.95 390.86 C 327.95 390.52 283.94 390.90 239.93 390.80 C 229.85 390.60 222.30 380.55 222.71 370.88 C 231.92 362.35 240.49 353.14 249.52 344.41 C 250.87 343.15 252.10 341.75 253.10 340.19 C 246.97 334.23 240.99 328.11 234.92 322.08 C 231.13 317.94 227.30 313.83 223.15 310.03 C 223.16 303.56 223.15 297.10 223.16 290.64 C 216.38 290.54 209.59 290.63 202.81 290.59 C 193.22 280.32 183.08 270.56 173.02 260.74 C 165.66 267.48 158.86 274.83 151.71 281.79 C 148.89 284.67 145.88 287.38 143.43 290.59 C 135.39 291.27 127.10 286.66 123.82 279.23 C 122.44 276.34 122.70 273.08 122.68 269.98 C 122.60 226.98 122.81 183.99 122.66 140.99 Z" />
<path fill="#4085f9" opacity="1.00" d=" M 198.77 141.56 C 203.74 141.57 208.72 141.60 213.70 141.52 C 213.69 146.30 213.66 151.08 213.70 155.86 C 229.63 155.72 245.56 155.91 261.49 155.76 C 261.60 160.76 261.49 165.76 261.58 170.75 C 255.50 170.70 249.41 170.77 243.33 170.69 C 238.77 188.92 231.10 206.65 219.08 221.24 C 222.03 223.32 224.93 225.50 228.03 227.38 C 225.54 232.23 223.16 237.11 222.39 242.59 C 217.18 238.79 211.73 235.34 206.14 232.15 C 191.56 241.58 177.51 252.60 160.73 257.86 C 157.29 253.49 153.56 249.35 150.25 244.87 C 165.70 238.82 180.64 231.24 193.93 221.23 C 187.13 212.64 181.51 203.17 176.79 193.31 C 175.35 190.52 173.94 187.68 173.22 184.61 C 178.78 184.61 184.35 184.50 189.92 184.68 C 193.91 194.58 199.44 204.07 206.54 212.05 C 217.56 200.78 224.88 186.17 227.77 170.71 C 202.22 170.74 176.67 170.68 151.13 170.72 C 151.18 165.75 151.13 160.78 151.19 155.81 C 167.07 155.87 182.94 155.79 198.82 155.85 C 198.78 151.08 198.80 146.32 198.77 141.56 Z" />
<path fill="#4085f9" opacity="1.00" d=" M 260.49 352.39 C 272.84 321.95 283.84 290.97 296.75 260.76 C 303.64 261.71 310.63 260.66 317.51 261.49 C 317.77 261.93 318.29 262.82 318.55 263.26 C 329.89 293.06 341.60 322.72 353.25 352.39 C 346.77 352.40 340.29 352.39 333.81 352.40 C 331.43 345.35 329.20 338.15 325.49 331.66 C 312.76 332.20 299.98 331.08 287.28 332.30 C 285.04 339.06 282.07 345.56 279.98 352.37 C 273.48 352.44 266.98 352.40 260.49 352.39 Z" />
<path fill="#ffffff" opacity="1.00" d=" M 303.81 284.84 C 304.86 282.46 305.37 279.76 307.17 277.80 C 312.85 291.40 318.00 305.22 323.02 319.07 C 312.17 319.29 301.32 319.10 290.47 319.17 C 294.93 307.73 299.16 296.20 303.81 284.84 Z" />
<path fill="#ffffff" opacity="1.00" d=" M 156.31 290.73 C 161.95 295.75 166.97 301.41 172.48 306.57 C 178.63 311.79 183.85 317.99 190.10 323.08 C 179.72 323.41 169.34 323.10 158.95 323.26 C 158.30 323.16 156.99 322.98 156.34 322.88 C 156.19 312.17 156.10 301.44 156.31 290.73 Z" />
</svg>
