<?xml version="1.0" encoding="UTF-8" ?>
<!DOCTYPE svg PUBLIC "-//W3C//DTD SVG 1.1//EN" "http://www.w3.org/Graphics/SVG/1.1/DTD/svg11.dtd">
<svg width="512pt" height="512pt" viewBox="0 0 512 512" version="1.1" xmlns="http://www.w3.org/2000/svg">
<path fill="#3b83f5" opacity="1.00" d=" M 0.00 0.00 L 512.00 0.00 L 512.00 512.00 L 0.00 512.00 L 0.00 0.00 Z" />
<path fill="#ffffff" opacity="1.00" d=" M 114.89 150.04 C 114.74 139.62 123.97 130.73 133.91 129.25 C 215.63 129.27 297.36 129.26 379.08 129.25 C 389.28 130.66 399.32 140.04 398.12 150.94 C 398.07 205.31 398.11 259.69 398.10 314.06 C 375.97 336.61 353.51 358.83 331.05 381.05 C 329.81 382.04 328.90 384.01 327.08 383.84 C 263.71 383.83 200.35 383.81 136.98 383.85 C 128.57 384.83 120.95 378.80 116.96 371.85 C 114.38 367.68 114.91 362.61 114.90 357.94 C 114.90 288.64 114.92 219.34 114.89 150.04 Z" />
<path fill="#3b83f5" opacity="1.00" d=" M 170.55 159.72 C 178.41 157.07 187.23 165.09 185.62 173.14 C 184.32 180.16 175.81 184.95 169.27 181.68 C 165.53 179.49 161.88 175.69 162.33 171.02 C 161.99 165.90 165.85 161.28 170.55 159.72 Z" />
<path fill="#3b83f5" opacity="1.00" d=" M 336.37 159.54 C 344.63 156.88 353.62 165.86 350.80 174.11 C 348.80 181.85 337.93 185.80 331.92 180.08 C 324.71 174.57 327.66 161.71 336.37 159.54 Z" />
<path fill="#3b83f5" opacity="1.00" d=" M 204.82 207.37 C 217.33 203.92 231.11 205.50 242.71 211.23 C 262.59 221.97 263.09 255.59 242.67 266.04 C 251.98 268.85 259.24 276.75 261.79 286.06 C 266.40 301.29 261.76 319.99 248.25 329.25 C 236.74 336.40 222.55 338.76 209.23 336.76 C 198.19 335.07 187.51 329.27 181.28 319.82 C 176.74 312.64 176.02 303.98 174.57 295.82 C 180.26 295.47 185.96 295.58 191.65 295.33 C 193.21 303.43 195.53 312.29 202.49 317.49 C 214.38 325.79 232.81 323.39 241.43 311.45 C 247.36 303.29 246.86 291.16 240.43 283.42 C 236.77 279.22 231.69 276.11 226.10 275.44 C 220.42 274.49 214.66 274.83 208.94 274.80 C 208.74 270.03 209.44 265.29 209.27 260.53 C 217.07 261.26 225.43 260.65 232.06 256.06 C 239.37 251.58 242.01 241.58 239.19 233.73 C 234.40 221.96 218.39 217.14 207.51 223.32 C 198.35 227.71 195.89 238.65 194.36 247.78 C 188.75 247.66 183.14 247.58 177.55 247.07 C 177.93 240.48 179.71 233.99 181.87 227.77 C 185.59 217.75 194.59 210.16 204.82 207.37 Z" />
<path fill="#3b83f5" opacity="1.00" d=" M 314.24 206.39 C 318.91 206.22 323.59 206.21 328.26 206.35 C 328.22 240.90 328.26 275.46 328.24 310.01 C 327.39 318.80 327.86 327.64 327.81 336.46 C 322.39 336.52 316.98 336.31 311.57 336.35 C 309.37 332.98 310.62 328.77 310.42 325.01 C 310.37 296.50 310.52 267.98 310.32 239.47 C 300.27 239.39 290.21 239.49 280.16 239.42 C 280.15 234.80 280.27 230.17 280.22 225.55 C 288.71 225.35 297.45 223.48 304.53 218.59 C 308.95 215.66 312.19 211.24 314.24 206.39 Z" />
</svg>
