<?xml version="1.0" encoding="UTF-8" ?>
<!DOCTYPE svg PUBLIC "-//W3C//DTD SVG 1.1//EN" "http://www.w3.org/Graphics/SVG/1.1/DTD/svg11.dtd">
<svg width="512pt" height="512pt" viewBox="0 0 512 512" version="1.1" xmlns="http://www.w3.org/2000/svg">
<path fill="#9d48a1" opacity="1.00" d=" M 0.00 0.00 L 512.00 0.00 L 512.00 512.00 L 0.00 512.00 L 0.00 0.00 Z" />
<path fill="#ffffff" opacity="1.00" d=" M 230.99 132.41 C 238.95 131.14 246.97 130.33 255.01 129.86 C 259.03 130.19 263.06 130.34 267.09 130.46 C 292.16 132.29 316.57 142.03 336.12 157.82 C 348.81 168.09 359.45 180.79 367.53 194.96 C 317.96 187.89 268.44 180.35 218.89 173.04 C 221.37 163.66 224.33 154.42 226.93 145.07 C 228.28 140.85 229.18 136.47 230.99 132.41 Z" />
<path fill="#ffffff" opacity="1.00" d=" M 135.07 222.99 C 145.64 182.43 178.18 148.71 218.06 136.09 C 201.49 194.02 183.51 251.54 166.18 309.25 C 157.72 307.71 149.13 307.01 140.65 305.60 C 129.60 279.72 127.50 250.11 135.07 222.99 Z" />
<path fill="#ffffff" opacity="1.00" d=" M 328.80 219.02 C 329.21 212.81 329.39 206.61 329.30 200.39 C 343.65 202.50 357.97 204.83 372.34 206.73 C 372.62 206.93 373.17 207.33 373.44 207.53 C 379.02 220.65 382.35 234.80 382.93 249.06 C 383.99 256.38 382.64 263.71 382.38 271.03 C 379.34 296.76 368.24 321.53 350.75 340.68 C 343.85 348.41 335.89 355.13 327.39 361.04 C 327.17 353.04 327.64 345.01 326.85 337.03 C 326.46 331.69 327.39 326.39 327.34 321.05 C 327.38 306.36 327.37 291.66 328.15 276.98 C 327.98 257.65 328.97 238.34 328.80 219.02 Z" />
<path fill="#ffffff" opacity="1.00" d=" M 146.51 317.59 C 202.68 325.78 258.78 334.44 314.90 342.92 C 314.77 351.30 315.36 359.68 315.46 368.07 C 301.25 375.26 285.80 380.28 269.90 381.67 C 247.99 384.13 225.51 380.36 205.38 371.46 C 180.60 360.51 159.71 341.21 146.51 317.59 Z" />
</svg>
