<?xml version="1.0" encoding="UTF-8" ?>
<!DOCTYPE svg PUBLIC "-//W3C//DTD SVG 1.1//EN" "http://www.w3.org/Graphics/SVG/1.1/DTD/svg11.dtd">
<svg width="512pt" height="512pt" viewBox="0 0 512 512" version="1.1" xmlns="http://www.w3.org/2000/svg">
<path fill="#00a94f" opacity="1.00" d=" M 0.00 0.00 L 512.00 0.00 L 512.00 512.00 L 0.00 512.00 L 0.00 0.00 Z" />
<path fill="#ffffff" opacity="1.00" d=" M 228.86 126.11 C 240.96 121.27 254.03 119.51 266.97 118.84 C 292.86 118.80 318.76 118.84 344.65 118.82 C 344.55 119.37 344.35 120.45 344.25 120.99 C 337.03 124.65 330.20 129.08 322.94 132.63 C 315.76 132.81 308.57 132.68 301.39 132.64 C 313.44 141.73 322.93 154.94 325.39 170.04 C 327.72 183.40 325.76 197.85 318.43 209.42 C 314.22 216.05 308.61 221.67 302.54 226.61 C 296.36 231.62 289.37 236.77 286.73 244.63 C 284.67 251.11 287.59 258.12 292.80 262.18 C 305.04 272.21 318.42 281.25 328.22 293.88 C 336.96 305.03 340.02 320.05 337.48 333.88 C 334.68 350.41 324.03 364.79 310.46 374.28 C 293.71 386.14 273.09 391.20 252.86 392.54 C 235.27 393.46 217.21 391.79 200.73 385.23 C 188.49 380.26 177.05 371.80 171.16 359.70 C 164.28 346.07 166.11 329.06 174.28 316.39 C 182.12 303.94 195.03 295.59 208.56 290.44 C 225.81 284.03 244.33 281.69 262.64 281.13 C 258.64 275.91 254.43 270.55 252.87 264.02 C 251.32 256.93 252.01 249.30 255.53 242.88 C 239.77 245.11 222.80 242.76 209.42 233.70 C 195.86 224.85 186.79 209.64 185.06 193.58 C 183.13 177.03 188.65 159.97 199.24 147.21 C 206.86 137.54 217.57 130.72 228.86 126.11 Z" />
<path fill="#00a94f" opacity="1.00" d=" M 241.44 132.83 C 251.45 129.59 262.55 133.05 270.39 139.67 C 281.82 149.37 288.20 163.69 291.77 177.97 C 294.33 189.64 295.96 202.34 291.35 213.73 C 287.59 223.72 277.69 230.22 267.56 232.38 C 258.09 234.76 247.86 231.60 240.32 225.70 C 230.22 217.66 224.21 205.61 220.46 193.50 C 216.72 180.53 214.79 166.34 219.18 153.29 C 222.43 143.22 231.22 135.35 241.44 132.83 Z" />
<path fill="#00a94f" opacity="1.00" d=" M 262.32 291.45 C 266.57 291.37 270.93 290.93 275.12 291.77 C 286.28 299.74 297.93 307.48 306.78 318.11 C 317.59 331.06 315.97 352.21 303.61 363.59 C 292.93 373.96 277.38 376.93 263.02 377.37 C 246.24 377.35 228.56 374.36 214.75 364.23 C 205.16 357.31 198.56 345.99 198.65 334.01 C 198.41 323.95 202.84 313.97 210.53 307.47 C 224.81 295.37 244.29 292.68 262.32 291.45 Z" />
</svg>
