<?xml version="1.0" encoding="UTF-8" ?>
<!DOCTYPE svg PUBLIC "-//W3C//DTD SVG 1.1//EN" "http://www.w3.org/Graphics/SVG/1.1/DTD/svg11.dtd">
<svg width="512pt" height="512pt" viewBox="0 0 512 512" version="1.1" xmlns="http://www.w3.org/2000/svg">
<path fill="#3980f1" opacity="1.00" d=" M 0.00 0.00 L 512.00 0.00 L 512.00 512.00 L 0.00 512.00 L 0.00 0.00 Z" />
<path fill="#ffffff" opacity="1.00" d=" M 145.42 139.00 C 148.05 132.56 153.49 127.11 159.92 124.64 C 206.30 124.51 252.69 124.64 299.07 124.57 C 301.51 124.47 302.75 127.15 304.54 128.41 C 318.06 140.20 329.76 153.86 342.81 166.14 C 347.65 171.64 353.19 176.43 358.35 181.61 C 361.26 184.38 363.44 187.88 366.75 190.23 C 366.84 251.75 366.73 313.28 366.81 374.81 C 362.79 381.70 356.75 389.34 347.97 389.20 C 285.99 389.13 224.00 389.24 162.02 389.15 C 153.98 388.16 148.23 381.21 145.42 374.05 C 145.44 295.70 145.44 217.35 145.42 139.00 Z" />
<path fill="#3980f1" opacity="1.00" d=" M 176.43 169.44 C 183.67 167.68 192.39 175.73 189.13 183.13 C 186.77 187.30 182.32 191.44 177.13 190.40 C 173.65 188.87 169.98 186.72 168.76 182.86 C 167.10 177.26 170.96 171.07 176.43 169.44 Z" />
<path fill="#3980f1" opacity="1.00" d=" M 176.35 323.48 C 183.37 321.56 191.35 328.58 189.60 335.83 C 188.45 339.00 186.38 341.98 183.20 343.38 C 176.35 347.70 166.71 339.65 168.61 332.11 C 169.34 328.12 172.51 324.67 176.35 323.48 Z" />
</svg>
