<?xml version="1.0" encoding="UTF-8" ?>
<!DOCTYPE svg PUBLIC "-//W3C//DTD SVG 1.1//EN" "http://www.w3.org/Graphics/SVG/1.1/DTD/svg11.dtd">
<svg width="512pt" height="512pt" viewBox="0 0 512 512" version="1.1" xmlns="http://www.w3.org/2000/svg">
<path fill="#808081" opacity="1.00" d=" M 0.00 0.00 L 512.00 0.00 L 512.00 512.00 L 0.00 512.00 L 0.00 0.00 Z" />
<path fill="#ffffff" opacity="1.00" d=" M 138.37 134.34 C 140.35 133.09 142.81 133.80 145.01 133.67 C 156.86 150.61 168.21 167.89 179.53 185.19 C 162.00 185.23 144.46 185.20 126.92 185.20 C 126.95 172.74 126.82 160.28 126.98 147.82 C 128.56 141.97 133.23 137.33 138.37 134.34 Z" />
<path fill="#ffffff" opacity="1.00" d=" M 176.76 133.65 C 194.92 133.64 213.09 133.67 231.26 133.63 C 241.33 147.13 250.22 161.45 259.66 175.39 C 261.83 178.80 264.32 182.01 266.27 185.56 C 248.00 185.69 229.72 185.57 211.44 185.62 C 200.24 168.06 188.87 150.58 176.76 133.65 Z" />
<path fill="#ffffff" opacity="1.00" d=" M 263.40 133.70 C 281.55 133.68 299.72 133.48 317.87 133.80 C 329.52 150.75 340.77 167.99 351.78 185.37 C 334.52 185.96 317.21 185.41 299.94 185.64 C 297.33 186.24 296.64 183.14 295.33 181.60 C 284.53 165.74 274.68 149.22 263.40 133.70 Z" />
<path fill="#ffffff" opacity="1.00" d=" M 349.24 133.67 C 361.19 133.62 373.14 133.65 385.08 133.66 C 385.09 151.53 385.09 169.41 385.08 187.28 C 375.93 173.05 366.37 159.08 357.04 144.97 C 354.44 141.20 352.09 137.26 349.24 133.67 Z" />
<path fill="#ffffff" opacity="1.00" d=" M 126.92 203.68 C 212.97 203.69 299.03 203.68 385.08 203.68 C 385.06 257.18 385.14 310.67 385.04 364.16 C 383.16 370.44 377.79 375.32 372.08 378.25 C 309.72 378.49 247.35 378.28 184.98 378.35 C 170.00 378.26 155.01 378.53 140.04 378.22 C 134.35 375.53 129.46 370.77 127.01 364.95 C 126.79 311.20 126.97 257.44 126.92 203.68 Z" />
<path fill="#808081" opacity="1.00" d=" M 162.47 256.00 C 162.46 249.54 162.47 243.08 162.46 236.61 C 224.82 236.66 287.18 236.66 349.53 236.61 C 349.52 243.09 349.56 249.58 349.51 256.06 C 287.16 256.07 224.82 256.18 162.47 256.00 Z" />
</svg>
