<?xml version="1.0" encoding="UTF-8" ?>
<!DOCTYPE svg PUBLIC "-//W3C//DTD SVG 1.1//EN" "http://www.w3.org/Graphics/SVG/1.1/DTD/svg11.dtd">
<svg width="512pt" height="512pt" viewBox="0 0 512 512" version="1.1" xmlns="http://www.w3.org/2000/svg">
<path fill="#c8312b" opacity="1.00" d=" M 0.00 0.00 L 512.00 0.00 L 512.00 512.00 L 0.00 512.00 L 0.00 0.00 Z" />
<path fill="#ffffff" opacity="1.00" d=" M 174.18 129.81 C 179.92 129.79 185.66 129.82 191.40 129.78 C 194.25 139.48 196.90 149.24 199.67 158.97 C 200.74 162.54 201.36 166.27 203.14 169.58 C 207.01 156.40 210.32 143.06 213.94 129.81 C 219.77 129.80 225.60 129.80 231.44 129.80 C 225.01 147.96 218.92 166.23 212.53 184.40 C 211.87 186.18 211.50 188.06 211.56 189.96 C 211.61 202.59 211.56 215.22 211.60 227.86 C 205.92 228.13 200.23 228.14 194.54 228.11 C 194.49 216.08 194.52 204.05 194.53 192.02 C 194.53 190.43 194.37 188.83 193.85 187.32 C 187.28 168.16 180.76 148.97 174.18 129.81 Z" />
<path fill="#ffffff" opacity="1.00" d=" M 249.21 154.17 C 256.81 152.87 265.54 154.13 271.12 159.88 C 274.70 163.23 276.32 168.19 276.31 173.01 C 276.31 185.34 276.34 197.68 276.29 210.02 C 276.25 215.55 274.34 221.33 269.94 224.90 C 263.79 230.01 255.14 230.46 247.59 229.11 C 239.47 227.51 232.74 220.30 232.49 211.89 C 232.38 197.98 232.38 184.05 232.49 170.14 C 232.83 161.36 241.03 155.20 249.21 154.17 Z" />
<path fill="#ffffff" opacity="1.00" d=" M 288.36 217.91 C 288.28 197.13 288.35 176.35 288.33 155.58 C 293.38 155.60 298.43 155.60 303.49 155.58 C 303.49 174.06 303.48 192.53 303.49 211.00 C 303.25 213.21 304.45 215.95 307.04 215.81 C 310.82 215.70 313.65 212.82 316.30 210.46 C 316.12 192.17 316.30 173.88 316.21 155.59 C 321.25 155.59 326.30 155.60 331.35 155.59 C 331.34 179.67 331.34 203.76 331.35 227.85 C 326.33 228.12 321.29 228.13 316.26 228.13 C 316.25 225.45 316.20 222.76 316.24 220.08 C 311.05 225.56 303.78 230.17 295.91 228.68 C 290.86 227.95 288.38 222.52 288.36 217.91 Z" />
<path fill="#c8312b" opacity="1.00" d=" M 250.44 167.36 C 254.10 165.03 261.14 166.87 260.67 172.02 C 260.68 185.04 260.70 198.05 260.67 211.07 C 261.09 215.82 255.15 218.59 251.25 216.62 C 248.21 215.47 247.81 211.78 247.83 208.98 C 247.85 197.33 247.86 185.68 247.82 174.03 C 247.78 171.61 248.04 168.65 250.44 167.36 Z" />
<path fill="#ffffff" opacity="1.00" d=" M 161.52 251.83 C 164.96 251.03 168.47 250.54 172.00 250.56 C 228.34 250.58 284.68 250.58 341.02 250.56 C 353.90 250.68 366.64 256.14 375.56 265.45 C 383.91 274.07 388.81 285.98 388.76 297.99 C 388.75 310.64 388.75 323.29 388.76 335.94 C 388.82 348.45 383.56 360.85 374.57 369.54 C 365.97 378.07 354.04 383.04 341.95 383.42 C 285.29 383.44 228.63 383.41 171.97 383.44 C 159.59 383.31 147.24 378.37 138.46 369.60 C 129.17 360.73 123.81 347.85 124.23 335.00 C 124.31 321.64 124.17 308.28 124.30 294.92 C 125.31 274.36 141.50 256.06 161.52 251.83 Z" />
<path fill="#c8312b" opacity="1.00" d=" M 161.60 267.39 C 176.99 267.38 192.37 267.40 207.76 267.38 C 207.76 271.69 207.76 276.01 207.70 280.33 C 202.54 280.27 197.38 280.29 192.22 280.29 C 192.28 305.59 192.23 330.89 192.25 356.19 C 187.24 356.20 182.24 356.20 177.24 356.19 C 177.29 330.89 177.22 305.60 177.27 280.30 C 172.05 280.28 166.83 280.29 161.61 280.29 C 161.62 275.99 161.62 271.69 161.60 267.39 Z" />
<path fill="#c8312b" opacity="1.00" d=" M 262.10 267.39 C 266.56 267.38 271.01 267.39 275.46 267.37 C 275.45 276.96 275.44 286.54 275.47 296.13 C 277.80 293.89 280.21 291.49 283.40 290.57 C 288.04 289.09 293.82 290.06 296.95 294.03 C 299.79 297.68 300.45 302.49 300.41 306.99 C 300.36 318.99 300.41 330.98 300.39 342.98 C 300.44 347.95 298.61 353.66 293.77 355.90 C 287.39 358.48 279.88 356.31 275.42 351.17 C 275.44 352.84 275.45 354.51 275.45 356.20 C 271.01 356.19 266.56 356.19 262.12 356.19 C 262.13 326.59 262.16 296.99 262.10 267.39 Z" />
<path fill="#c8312b" opacity="1.00" d=" M 313.32 294.34 C 319.21 288.71 328.35 288.01 335.83 290.33 C 342.00 292.27 345.99 298.36 346.51 304.64 C 347.00 311.36 346.62 318.11 346.74 324.85 C 338.25 324.81 329.76 324.85 321.27 324.83 C 321.42 330.74 320.83 336.71 321.62 342.60 C 322.32 347.26 329.20 347.90 331.89 344.76 C 333.47 341.57 333.08 337.84 333.21 334.40 C 337.74 334.41 342.27 334.40 346.80 334.40 C 346.78 340.34 346.67 346.91 342.69 351.74 C 338.75 356.70 332.03 358.16 325.99 357.84 C 320.33 357.99 314.53 355.51 311.22 350.84 C 308.30 346.88 307.41 341.82 307.49 337.00 C 307.54 327.33 307.49 317.66 307.50 307.99 C 307.45 302.88 309.48 297.75 313.32 294.34 Z" />
<path fill="#c8312b" opacity="1.00" d=" M 213.74 290.63 C 218.21 290.64 222.69 290.62 227.17 290.67 C 226.72 304.11 227.23 317.54 227.01 330.99 C 227.42 335.21 226.25 339.57 227.46 343.69 C 228.17 345.55 230.34 345.62 232.00 345.22 C 234.59 344.34 236.61 342.41 238.65 340.68 C 238.63 323.99 238.66 307.31 238.64 290.63 C 243.01 290.64 247.38 290.63 251.75 290.64 C 251.70 312.49 251.72 334.34 251.74 356.19 C 247.37 356.19 243.01 356.19 238.65 356.19 C 238.65 353.75 238.63 351.31 238.64 348.88 C 233.85 353.64 227.26 358.54 220.12 356.78 C 215.37 355.64 213.70 350.31 213.75 345.97 C 213.71 327.52 213.74 309.08 213.74 290.63 Z" />
<path fill="#ffffff" opacity="1.00" d=" M 278.51 300.68 C 280.68 299.96 283.55 299.91 285.16 301.82 C 286.77 303.41 286.63 305.83 286.70 307.92 C 286.66 318.62 286.67 329.31 286.70 340.01 C 286.67 342.24 286.71 345.07 284.51 346.36 C 281.42 347.53 277.35 346.53 275.57 343.68 C 275.30 330.42 275.50 317.15 275.47 303.89 C 275.16 302.07 277.21 301.35 278.51 300.68 Z" />
<path fill="#ffffff" opacity="1.00" d=" M 321.53 304.38 C 322.41 299.43 330.54 298.90 332.37 303.41 C 333.66 307.06 333.09 311.00 333.20 314.79 C 329.21 314.84 325.23 314.83 321.25 314.84 C 321.30 311.36 321.00 307.84 321.53 304.38 Z" />
</svg>
