<?xml version="1.0" encoding="UTF-8" ?>
<!DOCTYPE svg PUBLIC "-//W3C//DTD SVG 1.1//EN" "http://www.w3.org/Graphics/SVG/1.1/DTD/svg11.dtd">
<svg width="512pt" height="512pt" viewBox="0 0 512 512" version="1.1" xmlns="http://www.w3.org/2000/svg">
<path fill="#c8312b" opacity="1.00" d=" M 0.00 0.00 L 512.00 0.00 L 512.00 512.00 L 0.00 512.00 L 0.00 0.00 Z" />
<path fill="#ffffff" opacity="1.00" d=" M 293.95 192.74 C 314.28 192.73 334.65 192.10 354.95 193.32 C 366.37 193.20 377.75 194.22 389.14 194.66 C 395.79 195.01 402.19 198.65 405.42 204.55 C 411.72 215.25 410.88 228.14 412.23 240.05 C 413.02 251.35 412.75 262.72 411.82 274.01 C 411.23 284.21 410.94 294.92 406.23 304.23 C 403.31 310.11 397.56 314.52 390.96 315.22 C 378.97 316.37 366.91 316.58 354.88 316.87 C 341.28 317.76 327.63 317.47 314.01 317.53 C 295.32 317.80 276.65 316.75 257.97 316.11 C 251.41 315.26 244.24 316.38 238.31 312.82 C 231.51 308.96 228.09 301.28 226.69 293.91 C 223.93 277.78 224.11 261.35 224.22 245.04 C 224.46 235.68 225.00 226.30 226.54 217.05 C 227.74 210.05 230.71 202.93 236.50 198.52 C 240.27 195.41 245.31 194.72 250.04 194.50 C 258.69 194.23 267.31 193.29 275.98 193.36 C 281.97 193.43 287.96 193.12 293.95 192.74 Z" />
<path fill="#ffffff" opacity="1.00" d=" M 97.55 212.26 C 102.07 212.22 106.59 212.22 111.11 212.27 C 113.93 221.96 116.40 231.74 119.08 241.46 C 122.88 232.05 124.28 221.88 127.37 212.23 C 131.65 212.22 135.93 212.23 140.21 212.25 C 136.00 226.23 131.87 240.23 127.53 254.17 C 126.68 257.06 125.51 259.95 125.63 263.02 C 125.60 273.26 125.75 283.50 125.52 293.73 C 121.43 294.23 117.29 294.17 113.19 293.81 C 112.49 287.91 112.83 281.95 112.78 276.03 C 112.74 270.38 114.11 264.63 112.62 259.06 C 111.24 253.52 109.02 248.24 107.28 242.81 C 104.06 232.62 100.98 222.38 97.55 212.26 Z" />
<path fill="#c8312b" opacity="1.00" d=" M 240.72 212.62 C 253.57 212.61 266.42 212.69 279.27 212.74 C 279.28 216.25 279.49 219.77 279.18 223.27 C 278.93 223.47 278.44 223.86 278.20 224.05 C 274.19 224.40 270.15 224.17 266.13 224.18 C 266.32 233.12 266.14 242.06 265.89 251.00 C 265.93 265.07 265.97 279.15 265.87 293.23 C 261.75 293.33 257.62 293.39 253.50 293.18 C 254.22 270.19 253.27 247.17 253.59 224.17 C 249.28 224.26 244.95 224.38 240.69 223.73 C 240.73 220.02 240.73 216.32 240.72 212.62 Z" />
<path fill="#c8312b" opacity="1.00" d=" M 322.43 293.42 C 322.37 266.46 322.36 239.50 322.41 212.55 C 326.11 212.53 329.81 212.53 333.51 212.56 C 333.53 221.16 333.50 229.76 333.59 238.37 C 337.03 234.80 341.77 231.28 347.04 232.69 C 352.70 234.20 354.26 240.83 354.41 245.93 C 354.51 257.89 354.68 269.86 354.28 281.81 C 354.07 286.83 351.75 293.18 346.04 293.94 C 340.98 294.99 336.97 291.11 333.49 288.07 C 333.47 289.84 333.46 291.63 333.43 293.41 C 329.76 293.43 326.09 293.43 322.43 293.42 Z" />
<path fill="#ffffff" opacity="1.00" d=" M 153.68 231.88 C 159.61 230.88 166.01 233.55 169.52 238.42 C 172.32 242.33 172.64 247.33 172.59 251.97 C 172.54 261.01 172.79 270.05 172.37 279.07 C 172.09 285.25 168.24 291.18 162.40 293.45 C 153.97 297.31 142.64 292.22 140.69 282.97 C 139.11 275.42 140.01 267.64 139.80 259.99 C 140.12 253.35 138.90 246.23 142.05 240.08 C 144.13 235.51 148.90 232.80 153.68 231.88 Z" />
<path fill="#ffffff" opacity="1.00" d=" M 180.81 232.58 C 184.70 232.53 188.59 232.54 192.48 232.54 C 192.51 247.04 192.54 261.53 192.64 276.03 C 192.62 278.68 192.91 281.33 193.68 283.88 C 196.84 283.37 199.19 281.16 201.35 278.99 C 201.43 263.50 201.39 248.01 201.50 232.52 C 205.25 232.53 209.01 232.54 212.77 232.50 C 212.68 252.94 212.79 273.38 212.71 293.83 C 208.95 294.14 205.16 294.14 201.40 293.83 C 201.36 291.93 201.36 290.03 201.35 288.14 C 197.68 291.49 193.38 295.40 187.99 294.65 C 184.51 294.62 181.71 291.44 181.53 288.08 C 180.19 269.61 181.06 251.08 180.81 232.58 Z" />
<path fill="#c8312b" opacity="1.00" d=" M 281.22 233.38 C 284.87 233.35 288.53 233.35 292.19 233.45 C 292.20 248.98 292.19 264.51 292.22 280.05 C 292.08 281.72 292.95 283.18 293.66 284.62 C 296.84 283.84 300.38 282.14 301.66 278.95 C 301.88 263.78 301.68 248.60 301.70 233.43 C 305.33 233.36 308.95 233.36 312.58 233.38 C 312.59 253.38 312.65 273.39 312.50 293.40 C 308.91 293.39 305.33 293.39 301.75 293.37 C 301.74 291.26 301.75 289.15 301.75 287.04 C 297.71 290.52 293.07 295.03 287.24 293.80 C 283.55 293.28 281.34 289.44 281.49 285.96 C 281.01 268.44 281.30 250.91 281.22 233.38 Z" />
<path fill="#c8312b" opacity="1.00" d=" M 367.02 237.98 C 372.13 231.91 381.72 230.60 388.41 234.73 C 391.76 236.85 394.40 240.22 395.34 244.11 C 396.55 251.11 396.24 258.24 396.35 265.31 C 389.05 265.41 381.74 265.28 374.43 265.36 C 374.53 270.55 373.68 275.90 375.16 280.96 C 375.82 283.08 378.26 283.58 379.98 284.54 C 381.43 283.53 383.50 282.96 384.11 281.11 C 384.94 278.30 384.61 275.30 384.79 272.41 C 388.67 272.38 392.54 272.38 396.42 272.42 C 396.15 277.71 396.48 283.66 392.89 288.00 C 387.41 295.26 375.60 296.22 368.91 290.12 C 365.53 287.30 363.41 283.06 363.41 278.64 C 363.14 269.42 363.31 260.20 363.28 250.99 C 363.12 246.42 363.89 241.51 367.02 237.98 Z" />
<path fill="#ffffff" opacity="1.00" d=" M 375.13 245.18 C 376.72 241.26 382.93 241.48 384.26 245.48 C 384.98 248.96 384.63 252.55 384.74 256.09 C 381.26 256.10 377.79 256.04 374.33 255.79 C 374.56 252.27 373.98 248.56 375.13 245.18 Z" />
<path fill="#c8312b" opacity="1.00" d=" M 151.84 247.00 C 151.74 244.52 154.29 243.49 155.96 242.29 C 157.62 243.35 160.02 244.08 160.47 246.29 C 161.57 250.76 161.02 255.40 161.12 259.95 C 161.20 266.61 161.15 273.28 160.57 279.92 C 160.37 282.50 157.20 283.82 154.91 283.44 C 152.43 282.30 151.63 279.50 151.72 276.99 C 151.41 267.00 151.29 256.98 151.84 247.00 Z" />
<path fill="#ffffff" opacity="1.00" d=" M 333.73 245.25 C 335.70 243.80 338.07 242.52 340.58 243.42 C 343.31 244.95 342.21 248.41 342.49 250.97 C 342.28 260.99 343.02 271.07 342.19 281.05 C 340.73 285.12 336.23 283.11 333.77 281.25 C 333.82 269.25 333.94 257.25 333.73 245.25 Z" />
</svg>
