<?xml version="1.0" encoding="UTF-8" ?>
<!DOCTYPE svg PUBLIC "-//W3C//DTD SVG 1.1//EN" "http://www.w3.org/Graphics/SVG/1.1/DTD/svg11.dtd">
<svg width="512pt" height="512pt" viewBox="0 0 512 512" version="1.1" xmlns="http://www.w3.org/2000/svg">
<path fill="#e94639" opacity="1.00" d=" M 0.00 0.00 L 512.00 0.00 L 512.00 512.00 L 0.00 512.00 L 0.00 0.00 Z" />
<path fill="#ffffff" opacity="1.00" d=" M 185.25 156.39 C 189.84 156.35 194.40 155.67 199.00 155.80 C 237.02 155.68 275.04 155.73 313.05 155.83 C 324.67 156.90 336.38 156.03 347.99 157.22 C 354.71 157.31 361.39 158.16 368.07 158.82 C 376.07 159.73 382.68 165.39 386.84 172.00 C 391.77 179.84 394.22 188.95 396.19 197.92 C 398.94 210.09 399.18 222.61 400.53 234.95 C 400.48 264.31 401.80 294.16 394.50 322.88 C 391.87 333.27 387.33 343.92 378.44 350.44 C 370.92 355.84 361.15 354.91 352.44 356.22 C 340.93 356.79 329.44 357.49 317.91 357.34 C 305.28 358.11 292.63 357.65 279.99 357.74 C 240.91 357.73 201.77 358.52 162.75 356.20 C 155.00 355.17 146.93 355.97 139.41 353.49 C 130.30 349.96 123.98 341.47 120.55 332.59 C 114.64 316.37 112.99 299.04 111.63 281.96 C 111.41 265.63 111.63 249.31 111.67 232.98 C 113.60 214.77 113.89 195.78 121.62 178.79 C 125.07 171.49 129.65 163.71 137.63 160.77 C 147.32 157.13 157.87 157.75 168.02 157.01 C 173.74 156.34 179.51 156.63 185.25 156.39 Z" />
<path fill="#e94639" opacity="1.00" d=" M 226.64 203.10 C 246.76 215.61 266.50 228.75 286.44 241.55 C 293.92 246.84 302.24 251.05 309.19 257.03 C 283.42 274.08 257.25 290.51 231.34 307.34 C 229.88 308.37 228.34 309.31 226.62 309.84 C 226.66 274.26 226.58 238.68 226.64 203.10 Z" />
</svg>
