<?xml version="1.0" encoding="UTF-8" ?>
<!DOCTYPE svg PUBLIC "-//W3C//DTD SVG 1.1//EN" "http://www.w3.org/Graphics/SVG/1.1/DTD/svg11.dtd">
<svg width="512pt" height="512pt" viewBox="0 0 512 512" version="1.1" xmlns="http://www.w3.org/2000/svg">
<path fill="#e2b300" opacity="1.00" d=" M 0.00 0.00 L 512.00 0.00 L 512.00 512.00 L 0.00 512.00 L 0.00 0.00 Z" />
<path fill="#ffffff" opacity="1.00" d=" M 345.22 162.91 C 344.91 161.13 346.12 159.20 348.08 159.49 C 361.09 159.43 374.11 159.44 387.12 159.48 C 389.06 159.18 390.66 161.04 390.27 162.93 C 390.20 221.75 390.41 280.56 390.16 339.37 C 388.23 336.45 386.19 333.35 385.43 329.91 C 385.28 274.67 385.55 219.43 385.30 164.19 C 373.54 164.38 361.78 164.24 350.02 164.27 C 349.72 195.95 349.89 227.66 350.06 259.34 C 348.11 256.12 345.77 252.80 345.23 249.01 C 345.20 220.31 345.23 191.61 345.22 162.91 Z" />
<path fill="#ffffff" opacity="1.00" d=" M 289.50 200.00 C 289.12 197.99 290.93 196.27 292.93 196.62 C 305.64 196.60 318.35 196.59 331.06 196.63 C 332.99 196.35 334.77 198.01 334.32 199.99 C 334.29 216.05 334.42 232.13 334.25 248.19 C 333.01 251.59 331.18 254.75 329.43 257.92 C 329.56 239.10 329.44 220.27 329.50 201.45 C 317.82 201.40 306.14 201.59 294.46 201.35 C 294.20 240.90 294.43 280.45 294.35 320.00 C 294.23 322.93 294.71 325.94 294.06 328.81 C 292.75 331.83 291.30 334.81 289.52 337.58 C 289.48 291.72 289.50 245.86 289.50 200.00 Z" />
<path fill="#ffffff" opacity="1.00" d=" M 234.33 234.38 C 247.20 233.85 260.12 234.34 273.02 234.13 C 274.99 234.02 278.30 234.02 277.82 236.93 C 277.87 273.97 277.80 311.02 277.86 348.07 C 277.90 349.46 277.86 351.64 275.97 351.72 C 262.64 351.94 249.29 351.77 235.95 351.80 C 233.75 352.22 232.53 349.98 232.85 348.08 C 232.86 311.38 232.86 274.68 232.85 237.99 C 232.83 236.69 232.95 234.96 234.33 234.38 Z" />
<path fill="#ffffff" opacity="1.00" d=" M 339.21 249.18 C 350.46 270.94 361.04 293.04 372.12 314.88 C 378.22 327.47 384.88 339.78 390.89 352.41 C 356.50 352.39 322.11 352.37 287.72 352.42 C 301.36 324.86 315.35 297.47 328.94 269.88 C 332.02 262.81 336.14 256.26 339.21 249.18 Z" />
<path fill="#ffffff" opacity="1.00" d=" M 179.40 271.42 C 192.62 271.12 205.87 271.34 219.09 271.31 C 220.71 271.04 222.49 272.26 222.28 274.03 C 222.36 298.67 222.26 323.31 222.32 347.96 C 222.52 349.50 221.98 351.83 220.02 351.75 C 206.68 351.88 193.33 351.82 180.00 351.78 C 178.44 351.95 177.27 350.41 177.49 348.96 C 177.44 324.31 177.49 299.65 177.46 275.00 C 177.34 273.58 177.67 271.61 179.40 271.42 Z" />
<path fill="#e2b300" opacity="1.00" d=" M 331.19 278.83 C 336.37 278.43 341.57 278.49 346.76 278.73 C 346.11 294.29 345.49 309.85 345.07 325.43 C 341.01 325.51 336.94 325.54 332.89 325.34 C 332.39 309.83 331.72 294.33 331.19 278.83 Z" />
<path fill="#ffffff" opacity="1.00" d=" M 123.33 307.35 C 136.20 306.77 149.14 307.30 162.04 307.09 C 163.94 306.87 166.96 307.31 166.56 309.92 C 166.60 322.97 166.60 336.03 166.56 349.08 C 166.83 350.61 165.47 351.97 163.93 351.79 C 150.94 351.85 137.94 351.82 124.94 351.80 C 123.30 352.11 121.59 350.79 121.77 349.06 C 121.67 336.37 121.77 323.67 121.72 310.98 C 121.64 309.64 121.86 307.86 123.33 307.35 Z" />
<path fill="#e2b300" opacity="1.00" d=" M 335.35 332.53 C 341.16 329.50 349.29 334.95 347.43 341.58 C 345.97 348.21 336.35 349.75 332.33 344.65 C 328.64 340.96 330.58 334.23 335.35 332.53 Z" />
</svg>
