<?xml version="1.0" encoding="UTF-8" ?>
<!DOCTYPE svg PUBLIC "-//W3C//DTD SVG 1.1//EN" "http://www.w3.org/Graphics/SVG/1.1/DTD/svg11.dtd">
<svg width="512pt" height="512pt" viewBox="0 0 512 512" version="1.1" xmlns="http://www.w3.org/2000/svg">
<path fill="#00a651" opacity="1.00" d=" M 0.00 0.00 L 512.00 0.00 L 512.00 512.00 L 0.00 512.00 L 0.00 0.00 Z" />
<path fill="#ffffff" opacity="1.00" d=" M 346.52 159.64 C 358.98 159.18 371.49 159.63 383.97 159.43 C 385.78 159.61 388.13 158.95 389.40 160.67 C 389.91 163.39 389.61 166.19 389.67 168.95 C 389.63 228.94 389.70 288.93 389.64 348.92 C 389.89 350.51 388.64 352.05 386.97 351.77 C 373.67 351.83 360.36 351.90 347.07 351.74 C 345.00 351.96 344.49 349.55 344.64 347.96 C 344.64 286.63 344.66 225.30 344.63 163.97 C 344.61 162.39 344.54 160.04 346.52 159.64 Z" />
<path fill="#00a651" opacity="1.00" d=" M 349.45 164.31 C 361.25 164.23 373.05 164.31 384.85 164.27 C 384.80 225.22 384.87 286.17 384.81 347.11 C 373.04 347.11 361.27 347.10 349.50 347.12 C 349.44 286.18 349.55 225.25 349.45 164.31 Z" />
<path fill="#ffffff" opacity="1.00" d=" M 290.18 197.13 C 290.63 197.01 291.52 196.77 291.96 196.65 C 304.96 196.58 317.97 196.56 330.96 196.67 C 332.88 196.49 334.05 198.21 333.76 199.98 C 333.79 249.34 333.75 298.70 333.78 348.06 C 333.79 349.44 333.73 351.63 331.85 351.69 C 320.22 352.02 308.57 351.69 296.93 351.84 C 294.52 351.76 292.02 352.11 289.70 351.33 C 288.89 349.66 288.92 347.77 288.89 345.97 C 288.98 302.95 288.83 259.93 288.96 216.92 C 289.55 210.49 288.05 203.90 289.51 197.57 L 290.18 197.13 Z" />
<path fill="#ffffff" opacity="1.00" d=" M 234.21 234.32 C 247.48 233.95 260.78 234.24 274.05 234.18 C 275.83 233.90 277.69 234.91 277.42 236.95 C 277.51 273.98 277.42 311.00 277.47 348.03 C 277.66 349.64 277.05 351.99 274.98 351.75 C 262.99 351.95 250.99 351.72 239.00 351.85 C 237.16 351.80 235.29 351.96 233.49 351.50 C 232.40 350.67 232.39 349.28 232.38 348.05 C 232.39 311.35 232.39 274.66 232.38 237.97 C 232.37 236.64 232.44 234.43 234.21 234.32 Z" />
<path fill="#ffffff" opacity="1.00" d=" M 178.42 271.57 C 190.91 270.88 203.48 271.51 216.00 271.26 C 217.82 271.48 220.32 270.70 221.49 272.57 C 221.96 275.00 221.71 277.50 221.76 279.97 C 221.72 302.67 221.75 325.37 221.75 348.07 C 221.66 349.26 221.86 350.91 220.53 351.53 C 218.06 352.05 215.50 351.77 212.99 351.83 C 201.68 351.69 190.36 352.02 179.06 351.69 C 176.67 351.75 177.05 348.64 176.88 347.02 C 176.90 323.35 176.89 299.68 176.88 276.02 C 177.04 274.58 176.72 272.10 178.42 271.57 Z" />
<path fill="#ffffff" opacity="1.00" d=" M 121.63 307.60 C 134.37 306.47 147.22 307.44 160.00 307.08 C 162.23 307.14 166.17 306.51 166.14 309.85 C 166.24 322.93 166.23 336.02 166.14 349.09 C 166.16 352.46 162.23 351.80 159.99 351.84 C 147.21 351.53 134.39 352.35 121.64 351.41 C 121.57 336.81 121.59 322.20 121.63 307.60 Z" />
</svg>
