<?xml version="1.0" encoding="UTF-8" ?>
<!DOCTYPE svg PUBLIC "-//W3C//DTD SVG 1.1//EN" "http://www.w3.org/Graphics/SVG/1.1/DTD/svg11.dtd">
<svg width="512pt" height="512pt" viewBox="0 0 512 512" version="1.1" xmlns="http://www.w3.org/2000/svg">
<path fill="#f7941d" opacity="1.00" d=" M 0.00 0.00 L 512.00 0.00 L 512.00 512.00 L 0.00 512.00 L 0.00 0.00 Z" />
<path fill="#ffffff" opacity="1.00" d=" M 345.51 160.67 C 346.54 159.14 348.50 159.54 350.07 159.43 C 362.05 159.48 374.03 159.46 386.01 159.44 C 387.61 159.25 389.05 159.92 390.32 160.84 C 390.18 223.57 390.35 286.30 390.24 349.02 C 390.40 350.78 388.78 352.11 387.09 351.80 C 374.02 351.82 360.95 351.86 347.88 351.78 C 345.75 352.06 344.95 349.77 345.21 348.06 C 345.22 288.70 345.22 229.34 345.21 169.99 C 345.29 166.89 344.91 163.73 345.51 160.67 Z" />
<path fill="#f7941d" opacity="1.00" d=" M 349.91 165.88 C 349.31 163.78 351.78 164.38 352.92 164.25 C 363.73 164.28 374.54 164.33 385.36 164.23 C 385.43 225.19 385.40 286.15 385.37 347.11 C 373.64 346.93 361.87 347.46 350.16 346.86 C 349.62 343.93 349.92 340.94 349.88 337.99 C 349.91 280.62 349.87 223.25 349.91 165.88 Z" />
<path fill="#ffffff" opacity="1.00" d=" M 290.31 197.45 C 291.46 196.14 293.46 196.81 294.99 196.58 C 306.32 196.62 317.65 196.63 328.99 196.58 C 330.74 196.69 332.99 196.24 334.09 198.01 C 334.54 200.64 334.30 203.32 334.34 205.98 C 334.30 253.64 334.36 301.31 334.31 348.97 C 334.59 350.88 332.77 352.12 331.03 351.81 C 318.01 351.80 304.99 351.89 291.98 351.76 C 290.43 351.93 289.35 350.38 289.52 348.97 C 289.45 299.63 289.54 250.30 289.47 200.97 C 289.62 199.80 289.24 198.29 290.31 197.45 Z" />
<path fill="#f7941d" opacity="1.00" d=" M 294.33 347.03 C 294.39 298.50 294.33 249.96 294.36 201.43 C 306.07 201.48 317.78 201.45 329.50 201.45 C 329.46 250.00 329.53 298.56 329.46 347.11 C 317.75 347.06 306.04 347.21 294.33 347.03 Z" />
<path fill="#ffffff" opacity="1.00" d=" M 234.31 234.39 C 247.14 233.82 260.04 234.35 272.90 234.13 C 274.90 234.06 278.29 233.95 277.81 236.92 C 277.86 274.31 277.85 311.70 277.81 349.09 C 278.10 350.73 276.73 352.01 275.12 351.78 C 262.04 351.85 248.96 351.84 235.88 351.79 C 233.64 352.19 232.59 349.90 232.85 348.01 C 232.86 311.32 232.85 274.63 232.86 237.95 C 232.86 236.68 232.96 234.97 234.31 234.39 Z" />
<path fill="#ffffff" opacity="1.00" d=" M 179.35 271.44 C 192.22 271.07 205.12 271.41 218.00 271.28 C 219.78 271.07 222.42 271.57 222.26 273.92 C 222.38 298.59 222.25 323.28 222.32 347.96 C 222.50 349.50 221.97 351.85 219.99 351.74 C 206.98 351.92 193.96 351.77 180.95 351.82 C 179.14 352.15 177.18 350.92 177.49 348.93 C 177.44 324.26 177.49 299.59 177.46 274.92 C 177.36 273.55 177.71 271.63 179.35 271.44 Z" />
<path fill="#ffffff" opacity="1.00" d=" M 123.26 307.37 C 136.14 306.73 149.10 307.31 162.02 307.09 C 163.89 306.90 166.95 307.29 166.55 309.88 C 166.60 322.94 166.60 336.00 166.55 349.07 C 166.94 351.13 164.70 352.12 162.98 351.82 C 150.30 351.80 137.61 351.85 124.93 351.80 C 123.28 352.09 121.66 350.82 121.78 349.11 C 121.63 336.76 121.81 324.41 121.70 312.05 C 121.76 310.44 121.47 308.17 123.26 307.37 Z" />
</svg>
