<?xml version="1.0" encoding="UTF-8" ?>
<!DOCTYPE svg PUBLIC "-//W3C//DTD SVG 1.1//EN" "http://www.w3.org/Graphics/SVG/1.1/DTD/svg11.dtd">
<svg width="512pt" height="512pt" viewBox="0 0 512 512" version="1.1" xmlns="http://www.w3.org/2000/svg">
<path fill="#e2b300" opacity="1.00" d=" M 0.00 0.00 L 512.00 0.00 L 512.00 512.00 L 0.00 512.00 L 0.00 0.00 Z" />
<path fill="#ffffff" opacity="1.00" d=" M 347.35 159.54 C 359.23 159.32 371.12 159.56 383.01 159.43 C 385.49 159.48 388.29 158.99 390.32 160.81 C 390.22 220.65 390.27 280.50 390.30 340.35 C 388.64 336.26 385.13 332.62 385.34 327.97 C 385.41 273.43 385.31 218.89 385.39 164.35 C 373.63 164.30 361.88 164.34 350.12 164.33 C 350.18 196.15 350.12 227.96 350.15 259.78 C 348.11 255.73 344.82 251.82 345.19 247.03 C 345.26 219.01 345.20 191.00 345.22 162.98 C 345.07 161.53 345.55 159.53 347.35 159.54 Z" />
<path fill="#ffffff" opacity="1.00" d=" M 289.50 199.94 C 289.28 198.41 290.23 196.57 291.98 196.68 C 304.66 196.49 317.34 196.68 330.02 196.59 C 331.67 196.47 334.28 196.73 334.27 198.92 C 334.44 214.28 334.23 229.65 334.36 245.02 C 334.76 249.89 331.40 253.86 329.39 258.01 C 329.49 239.17 329.40 220.34 329.45 201.50 C 317.76 201.51 306.07 201.53 294.39 201.49 C 294.38 243.34 294.41 285.19 294.38 327.04 C 293.75 330.97 291.23 334.31 289.51 337.84 C 289.49 291.87 289.50 245.90 289.50 199.94 Z" />
<path fill="#ffffff" opacity="1.00" d=" M 234.39 234.35 C 244.24 233.88 254.14 234.30 264.02 234.16 C 268.22 234.29 272.47 233.82 276.65 234.41 C 278.18 234.83 277.66 236.83 277.85 237.99 C 277.80 275.00 277.87 312.02 277.82 349.03 C 278.14 350.73 276.80 352.06 275.10 351.79 C 262.72 351.88 250.34 351.75 237.96 351.85 C 236.57 351.78 235.11 351.93 233.79 351.41 C 232.66 350.20 232.89 348.49 232.83 347.00 C 232.89 310.66 232.85 274.32 232.85 237.98 C 232.88 236.72 232.88 234.75 234.39 234.35 Z" />
<path fill="#e2b300" opacity="1.00" d=" M 237.76 238.83 C 249.28 238.90 260.80 238.71 272.32 238.91 C 272.51 239.12 272.89 239.53 273.08 239.74 C 273.29 275.44 273.07 311.15 273.18 346.86 C 261.37 346.98 249.55 346.85 237.73 346.92 C 237.79 310.89 237.73 274.86 237.76 238.83 Z" />
<path fill="#ffffff" opacity="1.00" d=" M 339.21 249.17 C 349.90 269.83 359.93 290.82 370.46 311.56 C 377.13 325.25 384.28 338.70 390.91 352.40 C 356.51 352.40 322.11 352.37 287.72 352.42 C 304.86 318.00 322.22 283.66 339.21 249.17 Z" />
<path fill="#ffffff" opacity="1.00" d=" M 179.26 271.43 C 192.17 271.07 205.12 271.41 218.05 271.27 C 219.82 271.07 222.50 271.51 222.27 273.89 C 222.37 298.60 222.26 323.31 222.32 348.01 C 222.51 349.54 222.04 351.87 220.05 351.75 C 207.01 351.91 193.96 351.76 180.92 351.82 C 179.24 352.13 177.16 351.08 177.50 349.13 C 177.43 324.43 177.51 299.72 177.46 275.02 C 177.39 273.65 177.53 271.67 179.26 271.43 Z" />
<path fill="#e2b300" opacity="1.00" d=" M 182.35 276.20 C 194.03 276.18 205.72 276.21 217.41 276.18 C 217.39 299.76 217.41 323.34 217.40 346.92 C 205.72 346.89 194.04 346.89 182.37 346.92 C 182.35 323.35 182.39 299.77 182.35 276.20 Z" />
<path fill="#e2b300" opacity="1.00" d=" M 331.25 278.72 C 336.42 278.54 341.59 278.48 346.75 278.70 C 346.11 294.28 345.49 309.85 345.07 325.44 C 341.01 325.51 336.94 325.53 332.89 325.35 C 332.43 309.80 331.63 294.27 331.25 278.72 Z" />
<path fill="#ffffff" opacity="1.00" d=" M 123.28 307.33 C 136.16 306.79 149.09 307.29 161.99 307.08 C 163.55 307.13 166.38 306.84 166.48 309.07 C 166.70 322.39 166.55 335.73 166.56 349.05 C 166.80 350.64 165.63 351.96 164.00 351.78 C 150.98 351.86 137.95 351.81 124.93 351.81 C 123.26 352.11 121.56 350.86 121.77 349.07 C 121.65 336.71 121.80 324.34 121.70 311.98 C 121.79 310.39 121.40 308.03 123.28 307.33 Z" />
<path fill="#e2b300" opacity="1.00" d=" M 335.32 332.54 C 341.13 329.47 349.30 334.94 347.43 341.58 C 345.97 348.23 336.32 349.75 332.31 344.63 C 328.66 340.94 330.58 334.26 335.32 332.54 Z" />
</svg>
