<?xml version="1.0" encoding="UTF-8" ?>
<!DOCTYPE svg PUBLIC "-//W3C//DTD SVG 1.1//EN" "http://www.w3.org/Graphics/SVG/1.1/DTD/svg11.dtd">
<svg width="512pt" height="512pt" viewBox="0 0 512 512" version="1.1" xmlns="http://www.w3.org/2000/svg">
<path fill="#0072bc" opacity="1.00" d=" M 0.00 0.00 L 512.00 0.00 L 512.00 512.00 L 0.00 512.00 L 0.00 0.00 Z" />
<path fill="#ffffff" opacity="1.00" d=" M 345.22 163.00 C 344.89 161.20 346.06 159.20 348.08 159.49 C 360.71 159.41 373.34 159.50 385.98 159.44 C 387.58 159.25 389.05 159.85 390.29 160.84 C 390.20 223.58 390.37 286.32 390.25 349.06 C 390.48 351.48 387.86 352.11 385.99 351.84 C 371.63 351.58 357.21 352.33 342.91 351.32 C 326.99 352.44 310.98 351.49 295.03 351.85 C 293.22 351.66 290.62 352.42 289.67 350.34 C 288.97 342.67 290.16 334.80 289.12 327.21 C 283.13 317.62 279.62 306.38 280.17 295.01 C 280.22 284.61 283.95 274.63 289.29 265.85 C 289.83 243.61 289.26 221.30 289.56 199.04 C 289.57 197.36 291.39 196.40 292.92 196.63 C 305.64 196.59 318.36 196.60 331.08 196.62 C 332.96 196.37 334.78 198.01 334.32 199.95 C 334.33 213.78 334.34 227.62 334.31 241.45 C 337.97 241.51 341.61 241.88 345.23 242.47 C 345.21 215.98 345.22 189.49 345.22 163.00 Z" />
<path fill="#0072bc" opacity="1.00" d=" M 349.80 164.42 C 361.66 164.08 373.53 164.39 385.40 164.26 C 385.41 200.78 385.36 237.30 385.43 273.82 C 379.97 262.03 370.30 252.22 358.52 246.72 C 355.65 245.42 352.66 244.45 349.76 243.23 C 349.98 216.96 349.90 190.69 349.80 164.42 Z" />
<path fill="#0072bc" opacity="1.00" d=" M 294.29 256.02 C 294.43 237.82 294.32 219.63 294.35 201.44 C 306.07 201.48 317.79 201.46 329.50 201.45 C 329.44 214.96 329.57 228.46 329.43 241.97 C 319.43 242.84 309.70 246.73 301.80 252.92 C 308.66 252.31 314.61 258.76 313.70 265.51 C 318.39 262.20 323.85 260.14 329.48 259.17 C 329.47 284.24 329.54 309.31 329.45 334.38 C 318.56 332.36 308.43 325.95 302.77 316.33 C 295.13 304.00 295.53 287.23 303.91 275.36 C 300.47 275.22 296.69 274.48 294.47 271.58 C 292.07 269.12 291.75 265.63 291.08 262.44 C 291.79 260.14 292.59 257.80 294.29 256.02 Z" />
<path fill="#ffffff" opacity="1.00" d=" M 234.32 234.39 C 247.18 233.83 260.11 234.35 272.99 234.13 C 274.96 234.03 278.28 234.00 277.82 236.90 C 277.85 274.27 277.84 311.65 277.82 349.03 C 278.12 350.72 276.72 352.04 275.06 351.80 C 262.03 351.84 249.00 351.83 235.97 351.80 C 233.71 352.22 232.55 349.96 232.84 348.02 C 232.87 311.32 232.85 274.61 232.85 237.91 C 232.84 236.66 232.96 234.94 234.32 234.39 Z" />
<path fill="#0072bc" opacity="1.00" d=" M 237.71 238.79 C 249.26 238.84 260.81 238.70 272.35 238.85 C 272.55 239.02 272.95 239.36 273.16 239.53 C 273.31 275.29 273.09 311.07 273.27 346.83 C 261.44 347.47 249.57 346.93 237.72 347.11 C 237.69 311.00 237.71 274.90 237.71 238.79 Z" />
<path fill="#0072bc" opacity="1.00" d=" M 334.33 258.76 C 338.03 258.90 341.86 258.92 345.34 260.39 C 345.06 284.69 345.30 308.99 345.22 333.29 C 341.67 334.27 338.00 334.57 334.33 334.63 C 334.31 309.34 334.33 284.05 334.33 258.76 Z" />
<path fill="#0072bc" opacity="1.00" d=" M 349.89 261.89 C 365.56 267.89 375.40 285.57 372.72 302.07 C 371.08 315.10 361.93 326.64 349.90 331.71 C 349.84 308.44 349.91 285.16 349.89 261.89 Z" />
<path fill="#ffffff" opacity="1.00" d=" M 179.38 271.43 C 192.58 271.10 205.81 271.36 219.02 271.31 C 220.64 271.06 222.45 272.17 222.27 273.97 C 222.36 298.64 222.26 323.30 222.33 347.96 C 222.53 349.53 221.95 351.88 219.95 351.75 C 206.64 351.88 193.31 351.83 179.99 351.78 C 178.42 351.94 177.28 350.38 177.48 348.93 C 177.45 324.29 177.50 299.65 177.46 275.02 C 177.34 273.61 177.65 271.62 179.38 271.43 Z" />
<path fill="#0072bc" opacity="1.00" d=" M 182.31 276.17 C 194.03 276.16 205.75 276.19 217.47 276.15 C 217.43 299.81 217.48 323.46 217.44 347.11 C 205.73 347.07 194.01 347.18 182.30 347.06 C 182.36 323.43 182.33 299.80 182.31 276.17 Z" />
<path fill="#ffffff" opacity="1.00" d=" M 123.29 307.36 C 136.17 306.75 149.12 307.30 162.03 307.09 C 163.95 306.86 166.97 307.33 166.56 309.95 C 166.59 323.01 166.60 336.07 166.56 349.13 C 166.77 350.57 165.54 351.93 164.08 351.78 C 151.03 351.86 137.97 351.82 124.92 351.80 C 123.27 352.11 121.62 350.80 121.77 349.08 C 121.65 336.72 121.80 324.37 121.70 312.02 C 121.75 310.42 121.45 308.09 123.29 307.36 Z" />
<path fill="#0072bc" opacity="1.00" d=" M 126.61 311.82 C 138.29 311.78 149.97 311.90 161.65 311.76 C 161.84 323.51 161.61 335.27 161.77 347.03 C 150.05 347.22 138.33 347.05 126.62 347.12 C 126.59 335.35 126.61 323.58 126.61 311.82 Z" />
<path fill="#0072bc" opacity="1.00" d=" M 357.74 347.15 C 369.81 341.58 379.88 331.77 385.38 319.62 C 385.41 328.78 385.41 337.95 385.38 347.12 C 376.16 347.11 366.95 347.07 357.74 347.15 Z" />
<path fill="#0072bc" opacity="1.00" d=" M 294.39 333.67 C 299.45 339.42 305.82 343.87 312.71 347.16 C 306.59 347.05 300.47 347.16 294.35 347.07 C 294.36 342.60 294.33 338.14 294.39 333.67 Z" />
</svg>
