<?xml version="1.0" encoding="UTF-8" ?>
<!DOCTYPE svg PUBLIC "-//W3C//DTD SVG 1.1//EN" "http://www.w3.org/Graphics/SVG/1.1/DTD/svg11.dtd">
<svg width="512pt" height="512pt" viewBox="0 0 512 512" version="1.1" xmlns="http://www.w3.org/2000/svg">
<path fill="#0072bc" opacity="1.00" d=" M 0.00 0.00 L 512.00 0.00 L 512.00 512.00 L 0.00 512.00 L 0.00 0.00 Z" />
<path fill="#ffffff" opacity="1.00" d=" M 345.22 162.93 C 344.90 161.16 346.09 159.20 348.07 159.49 C 361.08 159.43 374.10 159.44 387.12 159.48 C 388.39 159.34 389.32 160.26 390.30 160.90 C 390.19 223.62 390.38 286.35 390.25 349.07 C 390.42 350.82 388.77 352.08 387.12 351.81 C 374.40 351.81 361.67 351.85 348.95 351.79 C 343.01 350.58 337.01 352.24 331.00 351.84 C 318.30 351.79 305.60 351.83 292.90 351.82 C 291.49 352.01 289.55 351.36 289.57 349.66 C 289.28 342.39 289.74 335.09 289.39 327.82 C 284.00 318.81 280.09 308.65 280.15 298.01 C 279.64 286.61 283.34 275.42 289.31 265.81 C 289.80 243.59 289.28 221.31 289.56 199.06 C 289.56 197.36 291.40 196.38 292.95 196.62 C 306.07 196.58 319.20 196.63 332.33 196.61 C 332.82 196.95 333.78 197.65 334.27 197.99 C 334.39 212.47 334.32 226.95 334.30 241.43 C 337.96 241.49 341.61 241.86 345.22 242.46 C 345.22 215.95 345.22 189.44 345.22 162.93 Z" />
<path fill="#0072bc" opacity="1.00" d=" M 349.89 164.33 C 361.73 164.22 373.57 164.31 385.41 164.28 C 385.40 200.79 385.35 237.29 385.44 273.80 C 378.70 259.11 365.35 247.85 349.85 243.38 C 349.93 217.03 349.88 190.68 349.89 164.33 Z" />
<path fill="#0072bc" opacity="1.00" d=" M 294.35 259.69 C 294.36 240.27 294.36 220.86 294.35 201.44 C 306.06 201.48 317.78 201.46 329.50 201.45 C 329.43 214.95 329.58 228.45 329.42 241.95 C 316.03 243.11 303.31 249.73 294.35 259.69 Z" />
<path fill="#ffffff" opacity="1.00" d=" M 234.38 234.38 C 247.21 233.84 260.11 234.35 272.97 234.13 C 274.94 234.03 278.28 233.98 277.82 236.90 C 277.87 273.96 277.80 311.02 277.86 348.08 C 277.90 349.48 277.85 351.71 275.91 351.72 C 262.58 351.94 249.24 351.77 235.91 351.80 C 233.73 352.19 232.55 350.00 232.85 348.10 C 232.86 311.37 232.86 274.64 232.85 237.92 C 232.84 236.67 232.97 234.83 234.38 234.38 Z" />
<path fill="#0072bc" opacity="1.00" d=" M 237.71 238.79 C 249.27 238.84 260.84 238.71 272.40 238.84 C 272.59 239.02 272.97 239.38 273.17 239.57 C 273.32 275.29 273.05 311.02 273.30 346.75 C 261.48 347.58 249.57 346.88 237.72 347.11 C 237.69 311.00 237.71 274.90 237.71 238.79 Z" />
<path fill="#0072bc" opacity="1.00" d=" M 334.32 334.59 C 334.35 309.30 334.29 284.01 334.35 258.71 C 338.04 258.91 341.86 258.91 345.34 260.35 C 345.06 284.66 345.30 308.97 345.22 333.28 C 341.67 334.26 337.99 334.57 334.32 334.59 Z" />
<path fill="#0072bc" opacity="1.00" d=" M 299.66 283.44 C 304.27 270.74 316.14 261.17 329.48 259.16 C 329.48 284.22 329.53 309.29 329.45 334.36 C 323.88 333.13 318.41 331.23 313.70 327.95 C 314.56 334.87 308.47 340.90 301.65 340.70 C 305.30 343.01 308.94 345.37 312.88 347.18 C 306.71 347.06 300.54 347.12 294.37 347.12 C 294.27 344.01 294.60 340.88 294.17 337.80 C 293.05 335.55 291.83 333.35 291.11 330.93 C 291.68 327.87 292.01 324.56 294.16 322.12 C 296.34 319.04 300.29 318.13 303.86 318.11 C 297.02 308.10 295.37 294.79 299.66 283.44 Z" />
<path fill="#0072bc" opacity="1.00" d=" M 349.90 261.89 C 365.23 267.74 375.02 284.85 372.84 301.05 C 371.52 314.47 362.23 326.50 349.88 331.71 C 349.90 308.43 350.02 285.17 349.90 261.89 Z" />
<path fill="#ffffff" opacity="1.00" d=" M 179.41 271.42 C 192.64 271.12 205.90 271.34 219.13 271.31 C 220.70 271.08 222.42 272.19 222.27 273.91 C 222.36 298.63 222.26 323.35 222.32 348.06 C 222.54 349.61 221.90 351.89 219.95 351.76 C 206.63 351.88 193.29 351.83 179.97 351.78 C 178.40 351.95 177.25 350.33 177.49 348.88 C 177.44 324.25 177.50 299.61 177.46 274.98 C 177.33 273.56 177.70 271.59 179.41 271.42 Z" />
<path fill="#0072bc" opacity="1.00" d=" M 182.31 276.17 C 194.03 276.16 205.75 276.18 217.47 276.15 C 217.43 299.81 217.48 323.46 217.44 347.11 C 205.74 347.11 194.05 347.10 182.36 347.11 C 182.28 323.47 182.37 299.82 182.31 276.17 Z" />
<path fill="#ffffff" opacity="1.00" d=" M 123.32 307.35 C 136.19 306.76 149.14 307.30 162.04 307.09 C 163.92 306.89 166.93 307.26 166.56 309.87 C 166.59 322.94 166.60 336.02 166.56 349.09 C 166.81 350.56 165.52 351.94 164.04 351.79 C 151.00 351.86 137.96 351.81 124.93 351.81 C 123.26 352.09 121.62 350.82 121.77 349.06 C 121.67 336.36 121.77 323.65 121.72 310.95 C 121.66 309.64 121.87 307.83 123.32 307.35 Z" />
<path fill="#0072bc" opacity="1.00" d=" M 126.61 311.82 C 138.30 311.82 150.00 311.83 161.70 311.81 C 161.72 323.58 161.74 335.35 161.69 347.12 C 150.00 347.10 138.31 347.11 126.62 347.11 C 126.59 335.35 126.61 323.58 126.61 311.82 Z" />
<path fill="#0072bc" opacity="1.00" d=" M 357.55 347.18 C 369.74 341.66 379.93 331.76 385.39 319.50 C 385.40 328.70 385.41 337.91 385.38 347.12 C 376.10 347.13 366.82 347.04 357.55 347.18 Z" />
</svg>
