<?xml version="1.0" encoding="UTF-8" ?>
<!DOCTYPE svg PUBLIC "-//W3C//DTD SVG 1.1//EN" "http://www.w3.org/Graphics/SVG/1.1/DTD/svg11.dtd">
<svg width="512pt" height="512pt" viewBox="0 0 512 512" version="1.1" xmlns="http://www.w3.org/2000/svg">
<path fill="#0072bc" opacity="1.00" d=" M 0.00 0.00 L 512.00 0.00 L 512.00 512.00 L 0.00 512.00 L 0.00 0.00 Z" />
<path fill="#ffffff" opacity="1.00" d=" M 345.22 162.92 C 344.89 161.17 346.09 159.21 348.04 159.49 C 361.04 159.43 374.05 159.45 387.06 159.48 C 388.34 159.31 389.29 160.23 390.29 160.89 C 390.21 223.61 390.37 286.33 390.25 349.05 C 390.44 350.78 388.78 352.10 387.13 351.81 C 374.75 351.85 362.37 351.78 349.99 351.84 C 342.36 350.68 334.67 352.36 326.98 351.83 C 315.32 351.76 303.66 351.89 292.01 351.78 C 290.81 351.90 289.55 350.89 289.56 349.67 C 289.29 342.41 289.72 335.13 289.40 327.88 C 288.40 325.49 286.90 323.36 285.57 321.15 C 289.22 322.47 293.47 322.93 296.96 320.90 C 299.29 319.62 300.76 317.33 301.95 315.04 C 307.48 325.35 318.03 332.34 329.44 334.43 C 329.54 309.32 329.47 284.21 329.48 259.10 C 317.85 260.91 307.21 268.27 301.73 278.74 C 297.82 285.73 296.71 293.92 297.48 301.83 C 291.65 298.27 283.47 300.68 280.81 307.06 C 279.81 298.45 279.65 289.55 282.28 281.19 C 283.77 275.71 286.51 270.73 289.31 265.83 C 289.80 243.61 289.29 221.33 289.55 199.10 C 289.53 197.41 291.35 196.38 292.89 196.62 C 306.06 196.53 319.23 196.72 332.40 196.54 C 333.54 197.38 334.66 198.36 334.32 199.97 C 334.33 213.79 334.34 227.60 334.30 241.42 C 337.97 241.45 341.61 241.83 345.22 242.45 C 345.22 215.94 345.22 189.43 345.22 162.92 Z" />
<path fill="#0072bc" opacity="1.00" d=" M 349.88 165.82 C 349.30 163.71 351.80 164.42 352.92 164.25 C 363.76 164.33 374.60 164.22 385.44 164.32 C 385.36 200.81 385.38 237.30 385.43 273.80 C 378.79 258.96 365.25 247.94 349.81 243.27 C 350.00 217.46 349.83 191.64 349.88 165.82 Z" />
<path fill="#0072bc" opacity="1.00" d=" M 294.35 259.66 C 294.35 240.25 294.36 220.84 294.35 201.44 C 306.07 201.48 317.79 201.46 329.50 201.45 C 329.42 214.94 329.59 228.44 329.42 241.93 C 316.05 243.15 303.32 249.70 294.35 259.66 Z" />
<path fill="#ffffff" opacity="1.00" d=" M 234.28 234.40 C 247.16 233.82 260.10 234.36 273.01 234.14 C 274.96 234.01 278.26 234.01 277.82 236.88 C 277.86 272.57 277.81 308.26 277.85 343.96 C 277.77 346.19 278.11 348.48 277.57 350.68 C 276.95 352.02 275.16 351.73 273.98 351.84 C 261.01 351.73 248.03 351.95 235.07 351.73 C 233.23 351.75 232.72 349.58 232.85 348.13 C 232.86 311.41 232.86 274.68 232.85 237.96 C 232.81 236.69 232.96 235.00 234.28 234.40 Z" />
<path fill="#0072bc" opacity="1.00" d=" M 237.71 238.79 C 249.54 238.80 261.37 238.77 273.20 238.81 C 273.25 274.81 273.12 310.82 273.26 346.82 C 261.44 347.48 249.57 346.92 237.72 347.11 C 237.69 311.00 237.71 274.90 237.71 238.79 Z" />
<path fill="#0072bc" opacity="1.00" d=" M 334.34 334.69 C 334.35 309.33 334.24 283.96 334.40 258.60 C 338.03 258.75 341.64 259.18 345.20 259.92 C 345.26 284.39 345.19 308.85 345.23 333.32 C 341.69 334.35 338.01 334.62 334.34 334.69 Z" />
<path fill="#0072bc" opacity="1.00" d=" M 349.89 261.87 C 366.30 267.97 376.15 287.01 372.48 304.00 C 370.21 316.24 361.44 326.85 350.05 331.74 C 349.67 308.46 349.97 285.16 349.89 261.87 Z" />
<path fill="#ffffff" opacity="1.00" d=" M 179.31 271.43 C 192.53 271.10 205.78 271.36 219.01 271.30 C 220.59 271.05 222.43 272.14 222.27 273.90 C 222.37 298.27 222.24 322.64 222.34 347.01 C 222.27 348.56 222.61 350.39 221.21 351.49 C 219.87 351.95 218.42 351.78 217.03 351.85 C 204.66 351.75 192.29 351.90 179.93 351.78 C 178.38 351.92 177.26 350.34 177.48 348.91 C 177.45 324.25 177.49 299.59 177.46 274.94 C 177.34 273.55 177.67 271.71 179.31 271.43 Z" />
<path fill="#0072bc" opacity="1.00" d=" M 182.31 276.17 C 194.03 276.15 205.75 276.19 217.46 276.15 C 217.43 299.80 217.49 323.46 217.44 347.11 C 205.74 347.10 194.05 347.11 182.35 347.11 C 182.28 323.46 182.37 299.81 182.31 276.17 Z" />
<path fill="#ffffff" opacity="1.00" d=" M 123.28 307.37 C 136.17 306.75 149.14 307.31 162.07 307.09 C 163.95 306.86 166.93 307.32 166.56 309.88 C 166.59 322.95 166.59 336.03 166.56 349.11 C 166.80 350.54 165.53 351.95 164.07 351.79 C 151.03 351.86 137.98 351.81 124.94 351.81 C 123.26 352.11 121.61 350.79 121.76 349.04 C 121.67 336.37 121.77 323.70 121.72 311.03 C 121.65 309.70 121.83 307.90 123.28 307.37 Z" />
<path fill="#0072bc" opacity="1.00" d=" M 126.61 311.82 C 138.29 311.79 149.97 311.88 161.65 311.77 C 161.70 323.59 161.90 335.42 161.54 347.22 C 149.91 346.97 138.26 347.17 126.62 347.12 C 126.59 335.35 126.61 323.58 126.61 311.82 Z" />
<path fill="#0072bc" opacity="1.00" d=" M 357.68 347.15 C 369.81 341.65 379.84 331.79 385.38 319.65 C 385.44 328.77 385.35 337.88 385.42 347.00 C 376.17 347.27 366.92 346.99 357.68 347.15 Z" />
<path fill="#0072bc" opacity="1.00" d=" M 294.38 333.73 C 299.51 339.43 305.85 343.94 312.80 347.16 C 306.70 347.12 300.59 347.01 294.49 347.21 C 294.22 342.72 294.38 338.22 294.38 333.73 Z" />
</svg>
