<?xml version="1.0" encoding="UTF-8" ?>
<!DOCTYPE svg PUBLIC "-//W3C//DTD SVG 1.1//EN" "http://www.w3.org/Graphics/SVG/1.1/DTD/svg11.dtd">
<svg width="512pt" height="512pt" viewBox="0 0 512 512" version="1.1" xmlns="http://www.w3.org/2000/svg">
<path fill="#00a650" opacity="1.00" d=" M 0.00 0.00 L 512.00 0.00 L 512.00 512.00 L 0.00 512.00 L 0.00 0.00 Z" />
<path fill="#ffffff" opacity="1.00" d=" M 346.44 159.63 C 358.93 159.20 371.48 159.62 383.99 159.43 C 385.83 159.62 388.26 158.90 389.46 160.77 C 389.85 163.16 389.63 165.59 389.67 168.00 C 389.64 228.35 389.70 288.70 389.64 349.05 C 389.85 350.59 388.68 351.95 387.09 351.78 C 373.72 351.82 360.33 351.89 346.96 351.75 C 345.00 351.86 344.45 349.56 344.63 348.02 C 344.67 286.35 344.62 224.68 344.66 163.01 C 344.51 161.65 344.97 160.03 346.44 159.63 Z" />
<path fill="#00a650" opacity="1.00" d=" M 349.42 164.34 C 361.23 164.21 373.04 164.31 384.86 164.28 C 384.78 225.22 384.88 286.17 384.80 347.11 C 373.04 347.11 361.27 347.10 349.51 347.12 C 349.42 286.19 349.59 225.26 349.42 164.34 Z" />
<path fill="#ffffff" opacity="1.00" d=" M 290.12 197.16 C 290.58 197.03 291.51 196.77 291.98 196.64 C 304.99 196.59 318.02 196.56 331.03 196.65 C 332.83 196.47 334.08 198.24 333.77 199.91 C 333.76 249.62 333.80 299.34 333.75 349.05 C 333.95 350.61 332.70 351.98 331.10 351.79 C 318.40 351.88 305.69 351.77 292.99 351.84 C 291.59 351.78 289.34 351.93 289.20 350.02 C 288.43 345.07 289.28 340.04 288.94 335.06 C 288.89 290.37 288.93 245.68 288.92 200.99 C 289.10 199.73 288.77 197.88 290.12 197.16 Z" />
<path fill="#ffffff" opacity="1.00" d=" M 234.15 234.31 C 247.44 233.96 260.77 234.25 274.08 234.17 C 275.88 233.86 277.80 235.03 277.44 237.07 C 277.50 274.04 277.42 311.02 277.48 348.00 C 277.70 349.59 277.06 351.93 275.05 351.76 C 261.69 351.87 248.33 351.83 234.97 351.78 C 232.87 352.01 232.18 349.75 232.37 348.08 C 232.39 311.38 232.39 274.68 232.37 237.98 C 232.40 236.62 232.37 234.56 234.15 234.31 Z" />
<path fill="#ffffff" opacity="1.00" d=" M 178.44 271.55 C 190.91 270.91 203.47 271.51 215.98 271.26 C 217.80 271.48 220.29 270.68 221.46 272.54 C 221.89 273.98 221.73 275.52 221.78 277.01 C 221.68 301.01 221.80 325.00 221.72 349.00 C 221.94 350.63 220.67 352.00 219.00 351.79 C 205.98 351.84 192.96 351.83 179.94 351.79 C 177.67 352.21 176.72 349.97 176.90 348.07 C 176.85 324.06 176.92 300.05 176.87 276.03 C 176.97 274.55 176.73 272.18 178.44 271.55 Z" />
<path fill="#ffffff" opacity="1.00" d=" M 121.61 307.70 C 123.35 307.29 125.13 307.03 126.93 307.07 C 138.98 307.19 151.03 307.03 163.07 307.14 C 165.27 306.78 166.49 309.00 166.21 310.92 C 166.15 323.64 166.26 336.36 166.16 349.08 C 166.24 350.76 164.71 352.09 163.05 351.80 C 151.02 351.88 138.99 351.75 126.97 351.85 C 125.16 351.89 123.37 351.67 121.62 351.29 C 121.59 336.76 121.60 322.23 121.61 307.70 Z" />
</svg>
