<?xml version="1.0" encoding="UTF-8" ?>
<!DOCTYPE svg PUBLIC "-//W3C//DTD SVG 1.1//EN" "http://www.w3.org/Graphics/SVG/1.1/DTD/svg11.dtd">
<svg width="512pt" height="512pt" viewBox="0 0 512 512" version="1.1" xmlns="http://www.w3.org/2000/svg">
<path fill="#04aeda" opacity="1.00" d=" M 0.00 0.00 L 512.00 0.00 L 512.00 512.00 L 0.00 512.00 L 0.00 0.00 Z" />
<path fill="#ffffff" opacity="1.00" d=" M 241.56 114.93 C 267.81 112.18 294.81 117.03 318.49 128.68 C 347.60 142.89 371.55 167.37 385.00 196.85 C 396.07 220.45 399.90 247.16 396.98 273.00 C 394.15 297.74 384.54 321.64 369.53 341.50 C 351.92 365.06 326.77 382.91 298.68 391.68 C 279.50 397.97 258.99 399.09 239.00 397.21 C 207.87 393.59 178.15 379.19 155.99 357.04 C 134.52 335.89 120.09 307.70 115.64 277.88 C 112.04 253.07 114.53 227.24 123.91 203.92 C 135.58 174.31 157.55 148.92 185.17 133.10 C 202.39 123.12 221.77 116.95 241.56 114.93 Z" />
<path fill="#04aeda" opacity="1.00" d=" M 251.13 220.05 C 267.01 217.55 283.62 227.28 289.61 242.12 C 293.72 251.54 293.42 262.75 288.88 271.96 C 284.07 282.26 274.12 289.89 262.99 292.04 C 253.36 293.98 243.02 291.75 235.02 286.06 C 223.02 277.87 216.91 262.04 220.43 247.91 C 223.70 233.50 236.43 221.84 251.13 220.05 Z" />
<path fill="#ffffff" opacity="1.00" d=" M 200.58 448.17 C 200.26 435.98 200.57 423.77 200.43 411.57 C 206.37 412.13 213.14 410.00 218.41 413.58 C 223.82 417.34 221.58 427.08 215.06 428.08 C 217.55 428.95 220.40 429.76 221.84 432.20 C 224.80 436.54 223.38 443.02 219.02 445.88 C 213.59 449.62 206.70 447.51 200.58 448.17 Z" />
<path fill="#ffffff" opacity="1.00" d=" M 230.78 411.63 C 238.62 411.88 247.36 410.07 254.31 414.69 C 259.75 418.08 261.19 425.12 260.75 431.08 C 260.59 437.76 256.21 444.16 249.94 446.53 C 243.96 448.96 237.41 447.87 231.15 448.09 C 231.02 435.93 231.47 423.77 230.78 411.63 Z" />
<path fill="#ffffff" opacity="1.00" d=" M 289.61 411.58 C 295.02 411.87 300.64 410.80 305.91 412.29 C 312.52 414.22 313.94 423.70 309.32 428.28 C 307.88 429.76 305.92 430.54 304.09 431.40 C 305.58 432.37 307.03 433.47 307.96 435.03 C 310.74 439.38 313.49 443.74 316.26 448.10 C 314.48 448.09 312.70 448.09 310.92 448.10 C 308.34 444.00 306.05 439.71 303.23 435.78 C 301.21 432.80 297.32 432.45 294.07 432.92 C 294.27 437.97 294.13 443.03 294.16 448.09 C 292.65 448.08 291.14 448.09 289.64 448.10 C 289.62 435.92 289.66 423.75 289.61 411.58 Z" />
<path fill="#04aeda" opacity="1.00" d=" M 294.06 415.90 C 297.72 415.87 301.72 415.17 305.04 417.11 C 308.64 419.43 307.96 425.36 304.36 427.33 C 301.31 429.31 297.53 428.38 294.13 428.54 C 294.16 424.32 294.25 420.11 294.06 415.90 Z" />
<path fill="#04aeda" opacity="1.00" d=" M 204.81 415.84 C 208.19 415.83 211.79 415.40 214.91 416.98 C 217.91 419.06 217.16 424.41 213.81 425.78 C 211.06 427.31 207.82 426.82 204.82 426.84 C 204.81 423.17 204.81 419.50 204.81 415.84 Z" />
<path fill="#04aeda" opacity="1.00" d=" M 235.48 443.86 C 235.57 434.48 235.32 425.11 235.61 415.74 C 241.70 415.89 249.22 415.20 253.53 420.46 C 258.12 426.89 257.06 437.70 249.77 441.75 C 245.43 444.25 240.30 443.93 235.48 443.86 Z" />
<path fill="#04aeda" opacity="1.00" d=" M 204.81 431.13 C 208.68 431.10 212.84 430.60 216.35 432.64 C 219.58 434.80 219.38 440.11 216.24 442.29 C 212.88 444.56 208.63 443.75 204.82 443.84 C 204.81 439.60 204.82 435.36 204.81 431.13 Z" />
<path fill="#ffffff" opacity="1.00" d=" M 267.34 431.94 C 272.03 431.94 276.73 431.93 281.42 431.94 C 281.44 432.79 281.47 434.47 281.49 435.31 C 276.74 435.33 271.99 435.34 267.24 435.31 C 267.26 434.47 267.31 432.78 267.34 431.94 Z" />
</svg>
