<?xml version="1.0" encoding="UTF-8" ?>
<!DOCTYPE svg PUBLIC "-//W3C//DTD SVG 1.1//EN" "http://www.w3.org/Graphics/SVG/1.1/DTD/svg11.dtd">
<svg width="512pt" height="512pt" viewBox="0 0 512 512" version="1.1" xmlns="http://www.w3.org/2000/svg">
<path fill="#04aeda" opacity="1.00" d=" M 0.00 0.00 L 512.00 0.00 L 512.00 512.00 L 0.00 512.00 L 0.00 0.00 Z" />
<path fill="#ffffff" opacity="1.00" d=" M 135.32 101.41 C 215.52 101.31 295.73 101.35 375.94 101.39 C 383.27 101.08 389.71 107.76 389.60 114.98 C 389.59 209.01 389.61 303.03 389.59 397.06 C 389.53 403.61 383.91 410.36 377.02 409.93 C 295.98 409.91 214.94 409.95 133.90 409.90 C 129.27 410.02 125.41 406.50 123.38 402.60 C 121.80 400.02 122.47 396.87 122.32 394.02 C 122.34 300.69 122.34 207.35 122.33 114.02 C 122.15 107.22 128.63 101.32 135.32 101.41 Z" />
<path fill="#04aeda" opacity="1.00" d=" M 140.32 113.45 C 147.18 109.97 156.23 115.33 156.75 122.91 C 157.84 129.62 151.85 136.35 145.04 135.90 C 138.66 136.24 133.06 130.26 133.33 123.98 C 133.29 119.47 136.35 115.36 140.32 113.45 Z" />
<path fill="#04aeda" opacity="1.00" d=" M 361.40 113.65 C 367.65 110.21 376.15 114.23 377.89 121.03 C 380.22 127.94 374.29 136.01 367.02 135.89 C 360.44 136.52 354.58 130.43 354.67 124.00 C 354.91 119.69 357.46 115.51 361.40 113.65 Z" />
<path fill="#04aeda" opacity="1.00" d=" M 246.19 169.26 C 262.36 167.12 279.08 170.37 293.77 177.31 C 313.64 186.77 329.64 204.05 337.52 224.61 C 343.17 239.29 345.03 255.52 342.13 271.03 C 338.56 292.16 326.81 311.76 309.91 324.91 C 293.90 337.56 273.35 344.30 252.96 343.53 C 234.60 342.92 216.50 336.30 202.07 324.92 C 184.87 311.53 173.03 291.47 169.66 269.94 C 166.27 250.04 170.45 229.04 180.72 211.71 C 194.33 188.37 219.30 172.09 246.19 169.26 Z" />
<path fill="#ffffff" opacity="1.00" d=" M 251.48 233.72 C 262.83 231.19 275.06 238.76 278.00 249.96 C 280.66 259.32 276.71 270.11 268.41 275.29 C 263.33 278.80 256.84 279.49 250.88 278.40 C 241.12 276.30 233.33 267.10 233.24 257.06 C 232.41 246.14 240.83 235.72 251.48 233.72 Z" />
<path fill="#04aeda" opacity="1.00" d=" M 141.46 375.78 C 148.29 373.34 156.47 378.65 156.77 385.94 C 157.72 392.64 151.68 399.06 144.98 398.75 C 138.77 398.89 133.17 393.20 133.33 387.00 C 133.19 381.99 136.83 377.41 141.46 375.78 Z" />
<path fill="#04aeda" opacity="1.00" d=" M 363.45 375.61 C 369.51 373.82 376.28 377.80 377.90 383.85 C 380.34 391.17 373.61 399.48 365.97 398.74 C 358.78 398.71 352.90 390.73 355.20 383.89 C 356.27 379.95 359.52 376.72 363.45 375.61 Z" />
</svg>
