<?xml version="1.0" encoding="UTF-8" ?>
<!DOCTYPE svg PUBLIC "-//W3C//DTD SVG 1.1//EN" "http://www.w3.org/Graphics/SVG/1.1/DTD/svg11.dtd">
<svg width="512pt" height="512pt" viewBox="0 0 512 512" version="1.1" xmlns="http://www.w3.org/2000/svg">
<path fill="#00a9ec" opacity="1.00" d=" M 0.00 0.00 L 512.00 0.00 L 512.00 512.00 L 0.00 512.00 L 0.00 0.00 Z" />
<path fill="#ffffff" opacity="1.00" d=" M 115.30 158.35 C 116.51 158.10 117.74 158.00 118.99 158.05 C 187.33 158.11 255.67 158.05 324.02 158.08 C 326.37 157.66 328.47 159.52 328.16 161.94 C 328.18 210.00 328.17 258.06 328.17 306.11 C 328.50 308.47 326.45 310.64 324.06 310.24 C 255.04 310.23 186.01 310.26 116.99 310.23 C 114.70 310.41 112.85 308.27 113.29 306.03 C 113.31 258.01 113.29 210.00 113.30 161.99 C 113.15 160.49 113.74 158.84 115.30 158.35 Z" />
<path fill="#00a9ec" opacity="1.00" d=" M 119.80 164.53 C 187.07 164.42 254.34 164.53 321.61 164.48 C 321.57 205.24 321.57 246.01 321.61 286.78 C 262.74 286.75 203.86 286.78 144.99 286.77 C 136.58 286.68 128.16 286.96 119.75 286.62 C 119.90 245.92 119.79 205.23 119.80 164.53 Z" />
<path fill="#ffffff" opacity="1.00" d=" M 342.93 191.27 C 345.15 191.28 347.38 191.28 349.61 191.28 C 349.58 231.94 349.59 272.59 349.60 313.24 C 351.33 313.23 353.06 313.24 354.80 313.24 C 354.84 272.63 354.87 232.02 354.78 191.41 C 367.57 191.12 380.36 191.34 393.15 191.30 C 393.17 236.67 393.04 282.04 393.21 327.41 C 376.47 327.72 359.71 327.44 342.96 327.55 C 343.03 282.13 343.09 236.71 342.93 191.27 Z" />
<path fill="#00a9ec" opacity="1.00" d=" M 372.37 306.40 C 374.89 304.45 378.92 307.09 378.29 310.17 C 377.74 312.69 374.49 314.25 372.34 312.61 C 369.99 311.34 369.96 307.64 372.37 306.40 Z" />
<path fill="#ffffff" opacity="1.00" d=" M 199.16 313.19 C 213.51 313.18 227.86 313.18 242.21 313.19 C 242.21 322.37 242.21 331.56 242.21 340.74 C 227.86 340.76 213.51 340.74 199.17 340.75 C 199.18 331.56 199.19 322.38 199.16 313.19 Z" />
<path fill="#ffffff" opacity="1.00" d=" M 167.15 353.94 C 169.15 345.48 171.49 337.11 173.60 328.68 C 180.40 328.74 187.20 328.68 194.00 328.72 C 192.81 333.77 191.55 338.80 190.23 343.82 C 210.42 343.81 230.61 343.93 250.80 343.75 C 249.41 338.77 248.21 333.74 247.00 328.71 C 253.86 328.67 260.72 328.78 267.58 328.64 C 270.00 337.00 271.79 345.53 273.86 353.99 C 238.29 353.85 202.72 353.95 167.15 353.94 Z" />
<path fill="#ffffff" opacity="1.00" d=" M 337.49 353.94 C 339.54 346.18 341.24 338.32 343.46 330.60 C 359.88 330.73 376.31 330.63 392.73 330.65 C 394.78 338.40 396.49 346.24 398.72 353.94 C 378.31 353.92 357.90 353.91 337.49 353.94 Z" />
</svg>
