<?xml version="1.0" encoding="UTF-8" ?>
<!DOCTYPE svg PUBLIC "-//W3C//DTD SVG 1.1//EN" "http://www.w3.org/Graphics/SVG/1.1/DTD/svg11.dtd">
<svg width="512pt" height="512pt" viewBox="0 0 512 512" version="1.1" xmlns="http://www.w3.org/2000/svg">
<path fill="#0072bc" opacity="1.00" d=" M 0.00 0.00 L 512.00 0.00 L 512.00 512.00 L 0.00 512.00 L 0.00 0.00 Z" />
<path fill="#ffffff" opacity="1.00" d=" M 146.40 260.82 C 146.42 214.73 146.43 168.64 146.39 122.56 C 179.72 122.59 213.05 122.54 246.38 122.58 C 246.35 168.66 246.37 214.73 246.37 260.81 C 213.05 260.82 179.72 260.81 146.40 260.82 Z" />
<path fill="#0072bc" opacity="1.00" d=" M 157.23 129.80 C 183.34 129.83 209.45 129.83 235.56 129.80 C 235.57 132.60 235.81 135.43 235.47 138.22 C 233.72 140.29 230.94 141.01 228.44 141.74 C 220.13 143.88 211.50 144.58 202.94 144.74 C 190.26 144.87 177.40 145.00 165.00 141.93 C 162.41 141.16 159.48 140.57 157.55 138.53 C 156.67 135.75 157.37 132.69 157.23 129.80 Z" />
<path fill="#ffffff" opacity="1.00" d=" M 265.72 148.51 C 299.03 148.44 332.35 148.51 365.66 148.48 C 365.61 193.44 365.67 238.41 365.64 283.38 C 332.34 283.33 299.03 283.39 265.73 283.35 C 265.73 238.40 265.76 193.46 265.72 148.51 Z" />
<path fill="#0072bc" opacity="1.00" d=" M 276.50 155.77 C 302.78 155.80 329.07 155.78 355.35 155.78 C 355.37 158.52 355.35 161.26 355.36 164.00 C 353.80 165.28 352.08 166.39 350.11 166.92 C 342.63 169.14 334.80 169.80 327.04 170.35 C 313.36 170.79 299.51 170.82 286.05 168.03 C 282.75 167.22 279.07 166.61 276.64 164.02 C 276.29 161.28 276.49 158.52 276.50 155.77 Z" />
<path fill="#0072bc" opacity="1.00" d=" M 157.16 170.59 C 183.31 170.61 209.47 170.62 235.62 170.58 C 235.61 174.22 235.61 177.86 235.63 181.50 C 209.47 181.46 183.31 181.49 157.15 181.48 C 157.18 177.85 157.18 174.22 157.16 170.59 Z" />
<path fill="#0072bc" opacity="1.00" d=" M 157.18 192.66 C 183.32 192.69 209.46 192.69 235.60 192.66 C 235.61 196.30 235.60 199.94 235.64 203.58 C 209.47 203.57 183.31 203.58 157.14 203.57 C 157.18 199.94 157.18 196.30 157.18 192.66 Z" />
<path fill="#0072bc" opacity="1.00" d=" M 276.45 203.59 C 276.47 199.94 276.47 196.30 276.48 192.66 C 302.77 192.69 329.07 192.68 355.36 192.67 C 355.36 196.30 355.36 199.94 355.39 203.57 C 329.07 203.59 302.76 203.56 276.45 203.59 Z" />
<path fill="#0072bc" opacity="1.00" d=" M 276.48 214.79 C 302.77 214.81 329.06 214.80 355.36 214.79 C 355.36 218.41 355.36 222.03 355.39 225.66 C 329.07 225.67 302.75 225.65 276.43 225.67 C 276.47 222.04 276.47 218.41 276.48 214.79 Z" />
<path fill="#0072bc" opacity="1.00" d=" M 157.18 215.69 C 183.32 215.70 209.46 215.71 235.60 215.68 C 235.61 219.32 235.60 222.95 235.64 226.59 C 209.47 226.56 183.31 226.58 157.14 226.58 C 157.18 222.95 157.18 219.32 157.18 215.69 Z" />
<path fill="#0072bc" opacity="1.00" d=" M 157.19 237.83 C 183.32 237.84 209.45 237.85 235.59 237.82 C 235.61 241.45 235.61 245.07 235.63 248.70 C 209.47 248.66 183.30 248.70 157.14 248.68 C 157.18 245.06 157.18 241.44 157.19 237.83 Z" />
<path fill="#0072bc" opacity="1.00" d=" M 276.44 248.69 C 276.47 245.07 276.46 241.44 276.49 237.82 C 302.78 237.85 329.07 237.84 355.36 237.83 C 355.36 241.44 355.36 245.06 355.38 248.68 C 329.07 248.70 302.76 248.67 276.44 248.69 Z" />
<path fill="#0072bc" opacity="1.00" d=" M 276.49 260.80 C 302.78 260.83 329.07 260.82 355.35 260.81 C 355.37 264.60 355.37 268.40 355.34 272.19 C 329.06 272.19 302.79 272.18 276.51 272.20 C 276.45 268.40 276.45 264.60 276.49 260.80 Z" />
<path fill="#ffffff" opacity="1.00" d=" M 222.47 265.76 C 227.78 261.95 236.04 266.52 235.69 273.00 C 236.04 279.43 227.84 284.04 222.55 280.28 C 217.22 277.30 217.19 268.81 222.47 265.76 Z" />
<path fill="#ffffff" opacity="1.00" d=" M 146.39 319.34 C 146.44 307.78 146.40 296.23 146.41 284.67 C 179.73 284.70 213.05 284.67 246.37 284.69 C 246.35 296.20 246.39 307.71 246.35 319.22 C 213.03 319.29 179.71 319.05 146.39 319.34 Z" />
<path fill="#ffffff" opacity="1.00" d=" M 345.12 286.95 C 351.75 285.39 358.15 293.49 354.37 299.45 C 351.50 305.25 342.28 305.43 339.13 299.81 C 335.79 294.93 339.42 287.75 345.12 286.95 Z" />
<path fill="#0072bc" opacity="1.00" d=" M 157.13 296.35 C 183.30 296.34 209.47 296.37 235.64 296.33 C 235.61 299.95 235.61 303.58 235.60 307.20 C 209.46 307.19 183.32 307.19 157.18 307.20 C 157.18 303.58 157.18 299.97 157.13 296.35 Z" />
<path fill="#ffffff" opacity="1.00" d=" M 265.72 307.24 C 299.03 307.13 332.34 307.23 365.65 307.19 C 365.64 311.27 365.63 315.36 365.67 319.44 C 332.38 318.91 299.06 319.37 265.75 319.21 C 265.73 315.22 265.74 311.23 265.72 307.24 Z" />
<path fill="#ffffff" opacity="1.00" d=" M 145.36 323.59 C 148.42 322.31 151.80 322.84 155.02 322.75 C 223.67 322.75 292.33 322.76 360.99 322.74 C 366.63 322.22 372.40 327.08 371.85 332.94 C 371.83 348.64 371.90 364.35 371.82 380.05 C 371.89 385.10 367.01 389.34 362.10 389.31 C 291.39 389.34 220.68 389.30 149.97 389.33 C 144.68 389.74 139.46 385.35 139.34 379.98 C 139.27 364.31 139.33 348.63 139.32 332.96 C 139.12 328.96 141.68 325.09 145.36 323.59 Z" />
<path fill="#0072bc" opacity="1.00" d=" M 315.40 334.52 C 317.46 333.53 319.80 333.70 322.03 333.68 C 330.71 333.78 339.39 333.60 348.07 333.76 C 352.23 333.83 355.78 337.78 355.37 341.93 C 355.35 351.30 355.36 360.66 355.37 370.03 C 355.73 374.04 352.23 378.15 348.08 377.82 C 338.02 377.84 327.96 377.87 317.90 377.80 C 314.35 377.86 311.15 374.53 311.23 371.02 C 311.14 361.01 311.17 351.00 311.21 340.99 C 311.10 338.23 312.90 335.60 315.40 334.52 Z" />
</svg>
