<?xml version="1.0" encoding="UTF-8" ?>
<!DOCTYPE svg PUBLIC "-//W3C//DTD SVG 1.1//EN" "http://www.w3.org/Graphics/SVG/1.1/DTD/svg11.dtd">
<svg width="512pt" height="512pt" viewBox="0 0 512 512" version="1.1" xmlns="http://www.w3.org/2000/svg">
<path fill="#04aeda" opacity="1.00" d=" M 0.00 0.00 L 512.00 0.00 L 512.00 512.00 L 0.00 512.00 L 0.00 0.00 Z" />
<path fill="#ffffff" opacity="1.00" d=" M 135.28 101.41 C 215.48 101.31 295.69 101.35 375.89 101.39 C 383.23 101.05 389.73 107.74 389.60 114.98 C 389.60 208.66 389.58 302.34 389.61 396.02 C 389.95 401.85 386.06 407.84 380.43 409.59 C 377.66 410.16 374.80 409.87 372.00 409.93 C 292.99 409.93 213.99 409.91 134.99 409.93 C 128.15 410.48 121.77 403.78 122.32 397.03 C 122.34 303.01 122.35 208.99 122.32 114.97 C 121.61 107.84 128.25 101.32 135.28 101.41 Z" />
<path fill="#04aeda" opacity="1.00" d=" M 140.32 113.45 C 147.53 109.77 157.02 115.92 156.81 123.94 C 157.30 130.34 151.41 136.34 145.00 135.90 C 138.64 136.21 133.06 130.25 133.33 123.99 C 133.27 119.47 136.35 115.36 140.32 113.45 Z" />
<path fill="#04aeda" opacity="1.00" d=" M 361.42 113.64 C 367.59 110.25 375.99 114.14 377.83 120.83 C 380.31 127.78 374.37 136.03 367.01 135.89 C 360.42 136.52 354.57 130.41 354.67 123.97 C 354.91 119.68 357.47 115.49 361.42 113.64 Z" />
<path fill="#04aeda" opacity="1.00" d=" M 166.34 195.90 C 170.38 195.71 174.42 195.83 178.47 195.81 C 178.43 210.73 178.50 225.66 178.43 240.58 C 196.04 240.56 213.66 240.73 231.26 240.50 C 231.15 225.60 231.28 210.71 231.20 195.82 C 235.23 195.79 239.26 195.80 243.29 195.81 C 243.28 229.86 243.28 263.91 243.29 297.96 C 239.27 298.05 235.26 297.96 231.24 298.03 C 231.22 282.55 231.18 267.06 231.26 251.57 C 213.66 251.31 196.05 251.53 178.45 251.46 C 178.45 266.99 178.48 282.51 178.44 298.04 C 174.41 298.02 170.39 298.13 166.37 297.94 C 166.39 263.93 166.46 229.91 166.34 195.90 Z" />
<path fill="#04aeda" opacity="1.00" d=" M 286.14 195.82 C 289.86 195.79 293.58 195.84 297.31 195.75 C 313.43 235.49 329.28 275.35 345.08 315.22 C 341.56 315.24 338.04 315.17 334.53 315.33 C 333.08 312.97 332.24 310.31 331.20 307.77 C 316.16 270.46 301.23 233.11 286.14 195.82 Z" />
<path fill="#04aeda" opacity="1.00" d=" M 269.21 224.10 C 274.42 221.52 281.55 226.04 280.65 232.01 C 280.62 238.30 272.07 241.84 267.47 237.62 C 262.87 234.14 263.93 226.33 269.21 224.10 Z" />
<path fill="#04aeda" opacity="1.00" d=" M 269.22 284.16 C 274.41 281.43 281.39 286.18 280.66 292.01 C 280.85 298.52 271.87 302.21 267.31 297.66 C 262.81 294.11 264.09 286.43 269.22 284.16 Z" />
<path fill="#04aeda" opacity="1.00" d=" M 141.55 375.75 C 148.40 373.37 156.53 378.73 156.78 386.02 C 157.67 392.70 151.64 399.07 144.97 398.75 C 138.77 398.88 133.18 393.21 133.33 387.02 C 133.17 381.97 136.87 377.35 141.55 375.75 Z" />
<path fill="#04aeda" opacity="1.00" d=" M 363.37 375.63 C 370.24 373.50 377.83 378.95 378.32 386.03 C 379.06 392.78 372.86 399.32 366.04 398.74 C 358.82 398.76 352.91 390.76 355.19 383.90 C 356.26 379.98 359.47 376.76 363.37 375.63 Z" />
</svg>
