<?xml version="1.0" encoding="UTF-8" ?>
<!DOCTYPE svg PUBLIC "-//W3C//DTD SVG 1.1//EN" "http://www.w3.org/Graphics/SVG/1.1/DTD/svg11.dtd">
<svg width="512pt" height="512pt" viewBox="0 0 512 512" version="1.1" xmlns="http://www.w3.org/2000/svg">
<path fill="#04aeda" opacity="1.00" d=" M 0.00 0.00 L 512.00 0.00 L 512.00 512.00 L 0.00 512.00 L 0.00 0.00 Z" />
<path fill="#ffffff" opacity="1.00" d=" M 135.33 101.41 C 215.51 101.31 295.69 101.35 375.87 101.39 C 383.25 101.06 389.74 107.75 389.61 115.02 C 389.58 209.03 389.61 303.04 389.59 397.05 C 389.53 403.59 383.95 410.32 377.07 409.93 C 296.02 409.91 214.97 409.95 133.93 409.91 C 129.55 410.01 125.82 406.87 123.73 403.25 C 121.67 400.22 122.47 396.40 122.32 392.97 C 122.34 299.96 122.34 206.94 122.32 113.93 C 122.21 107.15 128.66 101.32 135.33 101.41 Z" />
<path fill="#04aeda" opacity="1.00" d=" M 140.36 113.43 C 147.23 109.99 156.25 115.36 156.75 122.93 C 157.69 128.95 153.03 134.97 147.06 135.84 C 140.46 137.22 133.60 131.66 133.34 124.96 C 132.90 120.10 136.05 115.45 140.36 113.43 Z" />
<path fill="#04aeda" opacity="1.00" d=" M 361.45 113.62 C 367.67 110.25 376.09 114.21 377.85 120.95 C 380.26 127.87 374.33 136.00 367.03 135.89 C 360.42 136.53 354.53 130.39 354.67 123.92 C 354.92 119.62 357.51 115.47 361.45 113.62 Z" />
<path fill="#04aeda" opacity="1.00" d=" M 195.00 192.78 C 209.55 178.81 228.96 169.95 249.10 168.50 C 256.36 168.48 263.71 168.01 270.87 169.55 C 290.03 172.81 307.75 182.85 320.88 197.11 C 303.94 210.67 287.08 224.34 270.14 237.91 C 262.26 231.58 250.60 231.56 242.29 237.10 C 226.63 222.22 210.84 207.48 195.00 192.78 Z" />
<path fill="#04aeda" opacity="1.00" d=" M 275.49 243.98 C 292.34 230.48 309.18 216.96 325.95 203.36 C 333.61 213.72 338.95 225.69 341.68 238.28 C 320.48 242.45 299.32 246.79 278.09 250.81 C 277.46 248.45 276.58 246.16 275.49 243.98 Z" />
<path fill="#04aeda" opacity="1.00" d=" M 177.28 216.90 C 196.13 227.85 214.71 239.27 233.53 250.28 C 232.85 252.22 234.12 255.96 231.34 256.25 C 210.66 260.46 189.90 264.31 169.24 268.62 C 166.63 251.08 169.45 232.83 177.28 216.90 Z" />
<path fill="#04aeda" opacity="1.00" d=" M 278.48 259.06 C 300.04 254.80 321.56 250.36 343.16 246.36 C 344.95 263.98 341.01 281.96 332.82 297.60 C 314.22 286.53 295.81 275.15 277.26 264.01 C 277.66 262.35 278.06 260.70 278.48 259.06 Z" />
<path fill="#04aeda" opacity="1.00" d=" M 170.54 276.53 C 190.72 272.44 210.95 268.62 231.12 264.49 C 232.51 264.23 233.91 264.24 235.31 264.53 C 218.26 278.42 201.04 292.10 183.95 305.95 C 177.75 297.02 173.46 286.96 170.54 276.53 Z" />
<path fill="#04aeda" opacity="1.00" d=" M 188.89 312.24 C 205.73 298.90 222.43 285.36 239.15 271.85 C 246.21 278.54 257.04 280.70 265.92 276.44 C 281.96 291.36 298.06 306.21 314.19 321.04 C 298.87 334.87 278.56 342.71 258.00 343.55 C 231.86 344.02 205.65 332.41 188.89 312.24 Z" />
<path fill="#04aeda" opacity="1.00" d=" M 178.17 366.63 C 179.01 366.62 180.70 366.60 181.54 366.60 C 181.52 371.02 181.53 375.44 181.51 379.87 C 186.84 379.89 192.16 379.89 197.48 379.87 C 197.47 375.45 197.48 371.02 197.46 366.59 C 198.30 366.60 199.99 366.62 200.83 366.63 C 200.74 376.65 200.78 386.67 200.81 396.70 C 199.69 396.70 198.57 396.70 197.46 396.71 C 197.47 392.28 197.47 387.85 197.50 383.42 C 192.17 383.38 186.83 383.38 181.50 383.42 C 181.53 387.85 181.52 392.27 181.54 396.70 C 180.42 396.70 179.31 396.70 178.20 396.70 C 178.22 386.68 178.27 376.65 178.17 366.63 Z" />
<path fill="#04aeda" opacity="1.00" d=" M 208.90 366.64 C 216.01 366.71 224.56 365.40 230.03 371.05 C 235.50 377.88 234.21 389.74 226.38 394.31 C 221.13 397.47 214.79 396.65 208.95 396.68 C 208.83 386.67 208.93 376.65 208.90 366.64 Z" />
<path fill="#04aeda" opacity="1.00" d=" M 251.66 366.62 C 258.01 366.74 265.04 365.65 270.67 369.32 C 274.86 371.98 276.18 377.32 275.84 382.01 C 276.03 387.41 272.78 392.76 267.83 394.97 C 262.81 397.40 257.07 396.60 251.69 396.71 C 251.65 386.68 251.70 376.65 251.66 366.62 Z" />
<path fill="#04aeda" opacity="1.00" d=" M 278.79 366.65 C 279.74 366.62 281.62 366.56 282.57 366.53 C 285.85 375.32 288.82 384.22 291.97 393.05 C 294.53 384.10 298.21 375.52 301.11 366.68 C 302.07 366.66 304.00 366.63 304.96 366.61 C 301.17 376.62 297.35 386.62 293.71 396.69 C 292.43 396.69 291.16 396.70 289.89 396.71 C 286.14 386.71 282.61 376.63 278.79 366.65 Z" />
<path fill="#04aeda" opacity="1.00" d=" M 309.75 366.62 C 316.68 366.72 324.81 365.47 330.38 370.59 C 336.53 377.44 335.07 390.31 326.57 394.65 C 321.44 397.44 315.42 396.59 309.82 396.74 C 309.68 386.70 309.80 376.66 309.75 366.62 Z" />
<path fill="#ffffff" opacity="1.00" d=" M 212.34 370.13 C 217.60 370.05 224.18 369.41 227.74 374.19 C 231.11 379.52 230.35 388.06 224.56 391.48 C 220.89 393.67 216.42 393.17 212.33 393.18 C 212.37 385.50 212.36 377.81 212.34 370.13 Z" />
<path fill="#ffffff" opacity="1.00" d=" M 255.13 370.12 C 260.26 370.07 266.54 369.43 270.19 373.88 C 273.92 379.11 273.15 387.87 267.40 391.40 C 263.72 393.67 259.23 393.19 255.11 393.18 C 255.17 385.50 255.14 377.81 255.13 370.12 Z" />
<path fill="#ffffff" opacity="1.00" d=" M 313.20 370.12 C 318.33 370.07 324.58 369.42 328.25 373.84 C 332.02 379.07 331.25 387.91 325.45 391.42 C 321.77 393.67 317.30 393.18 313.18 393.18 C 313.23 385.50 313.21 377.81 313.20 370.12 Z" />
<path fill="#04aeda" opacity="1.00" d=" M 141.46 375.78 C 148.30 373.33 156.48 378.67 156.77 385.95 C 157.64 392.27 152.32 398.42 146.02 398.73 C 139.45 399.46 133.16 393.60 133.32 387.02 C 133.19 382.00 136.82 377.40 141.46 375.78 Z" />
<path fill="#04aeda" opacity="1.00" d=" M 363.44 375.62 C 369.56 373.80 376.39 377.87 377.94 383.99 C 380.12 390.89 374.23 398.74 367.05 398.74 C 360.17 399.34 354.10 392.73 354.72 385.99 C 355.28 381.22 358.76 376.88 363.44 375.62 Z" />
</svg>
