<?xml version="1.0" encoding="UTF-8" ?>
<!DOCTYPE svg PUBLIC "-//W3C//DTD SVG 1.1//EN" "http://www.w3.org/Graphics/SVG/1.1/DTD/svg11.dtd">
<svg width="512pt" height="512pt" viewBox="0 0 512 512" version="1.1" xmlns="http://www.w3.org/2000/svg">
<path fill="#6d6d6d" opacity="1.00" d=" M 0.00 0.00 L 512.00 0.00 L 512.00 512.00 L 0.00 512.00 L 0.00 0.00 Z" />
<path fill="#ffffff" opacity="1.00" d=" M 194.57 107.85 C 198.01 107.25 201.52 107.34 204.99 107.32 C 240.68 107.36 276.37 107.28 312.06 107.36 C 323.81 107.08 335.07 115.15 338.78 126.26 C 340.30 130.34 339.85 134.76 339.92 139.03 C 339.90 216.67 339.91 294.32 339.91 371.96 C 339.88 375.56 340.09 379.18 339.62 382.76 C 337.20 394.99 325.58 404.82 313.03 404.67 C 275.01 404.67 236.99 404.68 198.97 404.67 C 184.52 404.81 171.44 391.51 172.10 377.01 C 172.08 296.32 172.08 215.62 172.10 134.93 C 171.72 122.01 182.00 110.16 194.57 107.85 Z" />
<path fill="#6d6d6d" opacity="1.00" d=" M 230.40 132.39 C 232.89 129.33 237.66 133.97 234.67 136.53 C 232.18 139.66 227.37 134.86 230.40 132.39 Z" />
<path fill="#6d6d6d" opacity="1.00" d=" M 241.73 137.20 C 238.42 136.84 238.86 131.71 241.99 131.60 C 250.30 131.35 258.63 131.63 266.96 131.48 C 268.68 131.62 271.04 131.08 271.96 133.02 C 273.43 134.58 271.61 136.40 270.43 137.42 C 260.87 137.06 251.29 137.53 241.73 137.20 Z" />
<path fill="#6d6d6d" opacity="1.00" d=" M 186.27 157.41 C 232.78 157.54 279.28 157.40 325.79 157.48 C 325.89 223.19 325.76 288.90 325.85 354.60 C 279.32 354.60 232.79 354.60 186.26 354.60 C 186.34 288.87 186.31 223.14 186.27 157.41 Z" />
<path fill="#ffffff" opacity="1.00" d=" M 201.30 169.45 C 204.06 168.45 207.07 168.89 209.95 168.81 C 214.01 168.96 218.10 168.51 222.14 169.05 C 225.82 169.62 228.18 173.42 228.16 176.97 C 228.26 181.65 228.15 186.34 228.21 191.02 C 228.41 194.65 226.52 198.66 222.82 199.71 C 218.98 200.73 214.96 200.01 211.04 200.21 C 207.45 200.08 203.48 200.87 200.25 198.86 C 197.88 197.51 196.70 194.69 196.82 192.03 C 196.83 186.68 196.73 181.31 196.87 175.96 C 196.86 173.14 198.78 170.58 201.30 169.45 Z" />
<path fill="#ffffff" opacity="1.00" d=" M 245.37 169.54 C 247.77 168.53 250.44 168.85 252.98 168.80 C 257.02 168.93 261.07 168.66 265.11 168.88 C 269.30 168.84 272.66 173.02 272.36 177.06 C 272.31 182.39 272.43 187.73 272.31 193.06 C 272.09 196.73 268.84 199.93 265.15 200.10 C 259.74 200.34 254.32 200.20 248.91 200.18 C 245.04 200.20 241.06 197.09 241.21 193.00 C 241.13 187.29 241.13 181.58 241.21 175.87 C 241.14 173.16 242.97 170.67 245.37 169.54 Z" />
<path fill="#ffffff" opacity="1.00" d=" M 290.33 169.54 C 296.37 168.00 302.79 169.16 308.98 168.82 C 313.51 168.34 317.76 172.47 317.43 177.00 C 317.44 182.00 317.43 187.01 317.43 192.02 C 317.67 196.08 314.22 199.88 310.17 200.10 C 304.77 200.35 299.35 200.19 293.95 200.18 C 290.11 200.21 286.02 197.12 286.23 193.03 C 286.18 187.37 286.19 181.71 286.22 176.05 C 286.01 173.26 287.92 170.74 290.33 169.54 Z" />
<path fill="#ffffff" opacity="1.00" d=" M 202.34 222.56 C 207.20 222.09 212.11 222.51 216.99 222.35 C 219.68 222.49 222.87 221.80 225.03 223.88 C 227.58 225.72 228.33 228.98 228.21 231.96 C 228.12 236.68 228.35 241.40 228.09 246.12 C 227.96 249.80 224.87 253.53 221.04 253.55 C 215.69 253.67 210.33 253.56 204.97 253.60 C 200.78 254.08 196.72 250.25 196.84 246.05 C 196.78 240.68 196.78 235.30 196.83 229.94 C 196.67 226.58 199.25 223.52 202.34 222.56 Z" />
<path fill="#ffffff" opacity="1.00" d=" M 247.34 222.46 C 253.25 222.25 259.17 222.37 265.09 222.40 C 268.98 222.31 272.39 226.17 272.34 229.95 C 272.38 234.97 272.32 239.98 272.36 245.00 C 272.72 249.10 269.33 253.68 265.03 253.57 C 259.68 253.63 254.34 253.58 249.00 253.59 C 244.88 254.00 240.85 250.22 241.19 246.05 C 241.14 240.70 241.15 235.35 241.18 230.00 C 240.81 226.39 243.82 222.90 247.34 222.46 Z" />
<path fill="#ffffff" opacity="1.00" d=" M 291.42 222.58 C 297.28 222.08 303.19 222.49 309.08 222.36 C 313.74 221.79 317.97 226.42 317.45 230.98 C 317.32 236.40 317.64 241.83 317.29 247.23 C 316.50 250.43 313.60 253.69 310.08 253.56 C 304.70 253.63 299.33 253.58 293.95 253.59 C 289.89 253.94 285.76 250.23 286.22 246.06 C 286.20 240.40 286.15 234.74 286.24 229.08 C 286.09 226.03 288.76 223.55 291.42 222.58 Z" />
<path fill="#ffffff" opacity="1.00" d=" M 193.55 349.58 C 196.45 345.63 199.28 341.63 202.11 337.63 C 235.08 337.55 268.05 337.68 301.02 337.57 C 302.49 337.73 304.33 337.21 305.49 338.41 C 309.55 342.12 313.60 345.84 317.64 349.58 C 276.28 349.64 234.91 349.63 193.55 349.58 Z" />
<path fill="#6d6d6d" opacity="1.00" d=" M 256.38 370.09 C 255.39 365.34 259.53 361.23 264.00 360.61 C 263.94 365.17 260.84 369.07 256.38 370.09 Z" />
<path fill="#6d6d6d" opacity="1.00" d=" M 241.04 377.94 C 241.65 373.89 244.90 370.33 248.95 369.56 C 251.76 369.14 254.34 370.64 257.04 371.12 C 259.74 370.85 262.23 369.41 264.97 369.47 C 267.55 369.52 269.50 371.39 271.44 372.86 C 269.30 375.07 266.84 377.69 267.37 381.05 C 267.47 384.19 269.87 386.46 272.24 388.20 C 271.06 391.67 269.01 394.94 266.11 397.23 C 262.46 398.86 258.72 395.27 255.04 396.86 C 252.63 397.41 249.52 398.55 247.53 396.50 C 242.72 391.73 240.01 384.70 241.04 377.94 Z" />
</svg>
