<?xml version="1.0" encoding="UTF-8" ?>
<!DOCTYPE svg PUBLIC "-//W3C//DTD SVG 1.1//EN" "http://www.w3.org/Graphics/SVG/1.1/DTD/svg11.dtd">
<svg width="512pt" height="512pt" viewBox="0 0 512 512" version="1.1" xmlns="http://www.w3.org/2000/svg">
<path fill="#04aeda" opacity="1.00" d=" M 0.00 0.00 L 512.00 0.00 L 512.00 512.00 L 0.00 512.00 L 0.00 0.00 Z" />
<path fill="#ffffff" opacity="1.00" d=" M 135.28 101.41 C 215.51 101.31 295.75 101.35 375.98 101.39 C 383.28 101.11 389.69 107.74 389.60 114.94 C 389.58 208.98 389.61 303.02 389.59 397.06 C 389.53 403.61 383.91 410.35 377.02 409.93 C 296.00 409.91 214.99 409.95 133.98 409.91 C 129.32 410.04 125.43 406.54 123.39 402.62 C 121.81 400.01 122.46 396.84 122.32 393.97 C 122.35 300.62 122.34 207.28 122.33 113.94 C 122.20 107.18 128.63 101.35 135.28 101.41 Z" />
<path fill="#04aeda" opacity="1.00" d=" M 140.34 113.44 C 147.19 109.98 156.22 115.33 156.75 122.89 C 157.85 129.64 151.81 136.39 144.97 135.90 C 138.63 136.20 133.08 130.26 133.33 124.02 C 133.27 119.49 136.34 115.35 140.34 113.44 Z" />
<path fill="#04aeda" opacity="1.00" d=" M 361.43 113.64 C 367.59 110.27 375.94 114.12 377.81 120.78 C 380.34 127.74 374.39 136.03 367.01 135.89 C 360.41 136.51 354.55 130.39 354.67 123.94 C 354.92 119.65 357.49 115.49 361.43 113.64 Z" />
<path fill="#04aeda" opacity="1.00" d=" M 212.11 195.81 C 216.15 195.80 220.19 195.80 224.23 195.82 C 224.22 218.21 224.23 240.61 224.23 263.00 C 223.98 273.85 221.54 285.61 213.30 293.31 C 206.15 300.16 195.07 301.24 185.97 298.21 C 185.96 294.21 185.96 290.20 185.94 286.20 C 190.89 288.96 197.21 290.00 202.44 287.43 C 206.47 285.48 208.82 281.32 210.12 277.21 C 211.75 271.64 212.12 265.78 212.15 260.00 C 212.10 238.61 212.18 217.21 212.11 195.81 Z" />
<path fill="#04aeda" opacity="1.00" d=" M 265.89 195.82 C 269.64 195.80 273.39 195.80 277.14 195.81 C 293.06 235.60 309.01 275.39 324.84 315.22 C 321.19 315.23 317.54 315.23 313.90 315.22 C 297.87 275.43 281.88 235.62 265.89 195.82 Z" />
<path fill="#04aeda" opacity="1.00" d=" M 248.41 224.37 C 253.62 221.26 261.20 225.84 260.40 232.00 C 260.25 238.19 252.03 241.79 247.37 237.77 C 242.83 234.56 243.40 226.82 248.41 224.37 Z" />
<path fill="#04aeda" opacity="1.00" d=" M 248.35 284.47 C 253.55 281.13 261.02 285.92 260.41 291.99 C 260.40 298.11 252.57 301.91 247.71 298.26 C 242.84 295.16 243.27 287.12 248.35 284.47 Z" />
<path fill="#04aeda" opacity="1.00" d=" M 141.50 375.77 C 148.34 373.34 156.49 378.69 156.77 385.97 C 157.63 392.28 152.33 398.41 146.04 398.72 C 139.48 399.47 133.18 393.63 133.33 387.06 C 133.16 382.01 136.82 377.39 141.50 375.77 Z" />
<path fill="#04aeda" opacity="1.00" d=" M 362.56 375.89 C 368.82 373.47 376.29 377.51 377.93 383.95 C 380.14 390.85 374.25 398.75 367.04 398.74 C 360.15 399.33 354.07 392.69 354.72 385.94 C 355.28 381.49 358.32 377.45 362.56 375.89 Z" />
</svg>
