<?xml version="1.0" encoding="UTF-8" ?>
<!DOCTYPE svg PUBLIC "-//W3C//DTD SVG 1.1//EN" "http://www.w3.org/Graphics/SVG/1.1/DTD/svg11.dtd">
<svg width="512pt" height="512pt" viewBox="0 0 512 512" version="1.1" xmlns="http://www.w3.org/2000/svg">
<path fill="#04aeda" opacity="1.00" d=" M 0.00 0.00 L 512.00 0.00 L 512.00 512.00 L 0.00 512.00 L 0.00 0.00 Z" />
<path fill="#ffffff" opacity="1.00" d=" M 135.27 101.41 C 215.51 101.32 295.75 101.34 375.99 101.39 C 383.31 101.10 389.72 107.79 389.60 114.99 C 389.59 209.00 389.61 303.01 389.59 397.02 C 389.56 403.58 383.92 410.36 377.01 409.93 C 297.65 409.92 218.29 409.92 138.93 409.93 C 135.44 409.82 131.58 410.51 128.54 408.35 C 125.18 406.07 122.16 402.30 122.33 398.05 C 122.33 303.71 122.35 209.37 122.32 115.03 C 121.58 107.88 128.22 101.33 135.27 101.41 Z" />
<path fill="#04aeda" opacity="1.00" d=" M 140.27 113.47 C 147.14 109.94 156.26 115.32 156.75 122.95 C 157.82 129.64 151.84 136.34 145.06 135.90 C 138.69 136.25 133.07 130.29 133.33 124.02 C 133.26 119.51 136.32 115.41 140.27 113.47 Z" />
<path fill="#04aeda" opacity="1.00" d=" M 361.50 113.61 C 368.06 110.04 376.88 114.72 378.13 121.95 C 379.82 129.07 373.29 136.65 365.99 135.89 C 358.80 135.96 352.91 127.94 355.18 121.12 C 356.12 117.87 358.41 115.03 361.50 113.61 Z" />
<path fill="#04aeda" opacity="1.00" d=" M 175.49 195.81 C 179.52 195.80 183.54 195.80 187.57 195.81 C 187.52 211.82 187.59 227.83 187.53 243.84 C 201.15 227.73 214.94 211.77 228.70 195.78 C 233.74 195.84 238.79 195.76 243.84 195.84 C 229.19 212.19 214.54 228.53 199.96 244.95 C 215.60 262.61 231.20 280.32 246.78 298.03 C 241.14 298.15 235.50 297.86 229.86 298.00 C 215.73 281.26 201.39 264.68 187.55 247.69 C 187.56 264.45 187.54 281.21 187.56 297.97 C 183.55 298.11 179.54 297.88 175.53 298.05 C 175.46 263.97 175.53 229.89 175.49 195.81 Z" />
<path fill="#04aeda" opacity="1.00" d=" M 276.33 195.81 C 279.99 195.77 283.65 195.90 287.32 195.69 C 287.81 196.54 288.26 197.42 288.67 198.32 C 304.21 237.30 319.84 276.24 335.35 315.23 C 331.77 315.23 328.20 315.18 324.62 315.30 C 308.16 275.63 292.57 235.58 276.33 195.81 Z" />
<path fill="#04aeda" opacity="1.00" d=" M 258.32 224.31 C 263.59 221.30 271.04 225.94 270.23 232.08 C 269.94 237.93 262.57 241.54 257.78 238.22 C 252.70 235.30 252.92 226.78 258.32 224.31 Z" />
<path fill="#04aeda" opacity="1.00" d=" M 258.28 284.40 C 263.51 281.18 270.83 285.99 270.24 292.02 C 270.17 298.07 262.48 301.86 257.60 298.32 C 252.63 295.28 253.07 286.96 258.28 284.40 Z" />
<path fill="#04aeda" opacity="1.00" d=" M 141.47 375.77 C 148.31 373.34 156.47 378.66 156.77 385.95 C 157.72 392.64 151.68 399.06 144.99 398.75 C 138.78 398.89 133.18 393.21 133.33 387.02 C 133.17 381.99 136.83 377.40 141.47 375.77 Z" />
<path fill="#04aeda" opacity="1.00" d=" M 363.43 375.62 C 370.29 373.53 377.84 378.98 378.33 386.04 C 379.05 392.81 372.80 399.37 365.96 398.74 C 358.78 398.70 352.90 390.73 355.19 383.90 C 356.27 379.96 359.51 376.73 363.43 375.62 Z" />
</svg>
