<?xml version="1.0" encoding="UTF-8" ?>
<!DOCTYPE svg PUBLIC "-//W3C//DTD SVG 1.1//EN" "http://www.w3.org/Graphics/SVG/1.1/DTD/svg11.dtd">
<svg width="512pt" height="512pt" viewBox="0 0 512 512" version="1.1" xmlns="http://www.w3.org/2000/svg">
<path fill="#04aeda" opacity="1.00" d=" M 0.00 0.00 L 512.00 0.00 L 512.00 512.00 L 0.00 512.00 L 0.00 0.00 Z" />
<path fill="#ffffff" opacity="1.00" d=" M 135.31 101.41 C 215.51 101.31 295.72 101.35 375.92 101.39 C 383.26 101.07 389.72 107.75 389.60 114.99 C 389.58 209.02 389.61 303.04 389.59 397.06 C 389.52 403.60 383.94 410.33 377.06 409.93 C 296.34 409.93 215.63 409.91 134.91 409.94 C 128.08 410.43 121.77 403.74 122.32 397.00 C 122.35 302.65 122.34 208.30 122.32 113.96 C 122.19 107.18 128.64 101.33 135.31 101.41 Z" />
<path fill="#04aeda" opacity="1.00" d=" M 140.37 113.43 C 147.22 110.00 156.21 115.34 156.75 122.89 C 157.70 128.90 153.09 134.91 147.14 135.83 C 140.52 137.26 133.59 131.68 133.34 124.94 C 132.90 120.08 136.06 115.45 140.37 113.43 Z" />
<path fill="#04aeda" opacity="1.00" d=" M 361.39 113.65 C 367.53 110.27 375.89 114.08 377.80 120.72 C 380.36 127.68 374.43 136.01 367.03 135.89 C 360.45 136.53 354.59 130.45 354.67 124.02 C 354.89 119.71 357.45 115.52 361.39 113.65 Z" />
<path fill="#04aeda" opacity="1.00" d=" M 183.89 195.81 C 187.90 195.80 191.90 195.80 195.90 195.82 C 195.82 223.55 195.91 251.29 195.86 279.03 C 195.79 281.77 195.88 284.52 196.15 287.25 C 209.80 287.18 223.45 287.25 237.10 287.22 C 237.12 290.82 237.12 294.43 237.10 298.04 C 219.36 298.04 201.63 297.95 183.89 298.00 C 183.89 263.93 183.89 229.87 183.89 195.81 Z" />
<path fill="#04aeda" opacity="1.00" d=" M 268.58 195.81 C 272.38 195.80 276.18 195.79 279.98 195.83 C 295.83 235.64 311.82 275.40 327.65 315.23 C 324.02 315.22 320.40 315.21 316.78 315.26 C 300.55 275.51 284.84 235.55 268.58 195.81 Z" />
<path fill="#04aeda" opacity="1.00" d=" M 251.30 224.32 C 256.55 221.30 264.04 225.92 263.23 232.07 C 262.97 237.91 255.62 241.52 250.81 238.25 C 245.72 235.34 245.90 226.81 251.30 224.32 Z" />
<path fill="#04aeda" opacity="1.00" d=" M 251.37 284.34 C 256.64 281.22 263.89 286.09 263.24 292.11 C 263.09 298.10 255.50 301.80 250.64 298.36 C 245.59 295.31 246.07 286.87 251.37 284.34 Z" />
<path fill="#04aeda" opacity="1.00" d=" M 141.57 375.75 C 148.38 373.39 156.46 378.69 156.77 385.93 C 157.70 392.60 151.73 399.02 145.06 398.75 C 138.80 398.93 133.15 393.20 133.33 386.97 C 133.20 381.93 136.89 377.33 141.57 375.75 Z" />
<path fill="#04aeda" opacity="1.00" d=" M 363.40 375.63 C 369.52 373.79 376.36 377.85 377.94 383.97 C 380.13 390.87 374.24 398.75 367.05 398.74 C 360.16 399.34 354.09 392.71 354.72 385.97 C 355.29 381.22 358.75 376.91 363.40 375.63 Z" />
</svg>
