<?xml version="1.0" encoding="UTF-8" ?>
<!DOCTYPE svg PUBLIC "-//W3C//DTD SVG 1.1//EN" "http://www.w3.org/Graphics/SVG/1.1/DTD/svg11.dtd">
<svg width="512pt" height="512pt" viewBox="0 0 512 512" version="1.1" xmlns="http://www.w3.org/2000/svg">
<path fill="#04aeda" opacity="1.00" d=" M 0.00 0.00 L 512.00 0.00 L 512.00 512.00 L 0.00 512.00 L 0.00 0.00 Z" />
<path fill="#ffffff" opacity="1.00" d=" M 135.29 101.41 C 215.51 101.31 295.74 101.35 375.97 101.39 C 383.27 101.10 389.70 107.75 389.60 114.95 C 389.59 208.96 389.60 302.97 389.59 396.98 C 389.58 403.58 383.91 410.39 376.96 409.93 C 296.32 409.92 215.67 409.91 135.03 409.93 C 128.16 410.50 121.78 403.79 122.32 397.03 C 122.36 304.69 122.32 212.35 122.33 120.01 C 122.38 117.12 122.16 114.21 122.50 111.33 C 124.09 105.76 129.38 101.34 135.29 101.41 Z" />
<path fill="#04aeda" opacity="1.00" d=" M 140.34 113.44 C 147.20 109.99 156.23 115.33 156.75 122.91 C 157.84 129.63 151.82 136.38 145.00 135.90 C 138.65 136.21 133.08 130.27 133.33 124.02 C 133.26 119.48 136.35 115.37 140.34 113.44 Z" />
<path fill="#04aeda" opacity="1.00" d=" M 361.46 113.62 C 367.65 110.27 376.00 114.17 377.84 120.85 C 380.29 127.80 374.37 136.01 367.03 135.89 C 360.43 136.53 354.54 130.40 354.67 123.94 C 354.92 119.63 357.51 115.46 361.46 113.62 Z" />
<path fill="#04aeda" opacity="1.00" d=" M 152.29 195.98 C 157.59 195.57 162.92 195.95 168.23 195.75 C 177.29 215.77 185.95 235.97 194.87 256.05 C 198.10 263.71 201.90 271.15 204.37 279.11 C 206.56 275.15 207.59 270.69 209.60 266.64 C 220.34 243.01 230.75 219.23 241.73 195.72 C 246.73 195.89 251.73 195.75 256.74 195.82 C 256.68 229.87 256.70 263.91 256.73 297.96 C 252.70 298.09 248.67 297.92 244.64 297.96 C 244.62 273.97 244.63 249.97 244.63 225.98 C 244.55 220.93 245.35 215.94 245.41 210.90 C 244.28 213.70 243.66 216.67 242.47 219.45 C 230.93 245.59 219.16 271.63 207.73 297.83 C 205.59 298.09 203.43 298.09 201.29 297.83 C 190.65 273.50 179.64 249.33 168.86 225.05 C 166.63 220.30 164.59 215.39 163.90 210.14 C 163.47 214.76 163.94 219.40 164.19 224.02 C 164.22 248.65 164.18 273.28 164.21 297.91 C 160.26 298.09 156.31 298.13 152.36 297.92 C 152.37 263.94 152.52 229.96 152.29 195.98 Z" />
<path fill="#04aeda" opacity="1.00" d=" M 300.20 195.80 C 303.88 195.79 307.58 195.86 311.27 195.73 C 327.46 235.45 343.25 275.35 359.09 315.22 C 355.47 314.91 351.52 315.89 348.12 314.76 C 331.95 275.20 316.17 235.46 300.20 195.80 Z" />
<path fill="#04aeda" opacity="1.00" d=" M 282.25 224.24 C 287.48 221.38 294.94 225.94 293.91 232.07 C 293.89 238.19 285.81 241.67 281.13 237.94 C 276.34 234.71 276.94 226.63 282.25 224.24 Z" />
<path fill="#04aeda" opacity="1.00" d=" M 282.28 284.28 C 287.48 281.30 294.74 286.05 293.92 292.04 C 294.16 298.67 284.92 302.20 280.42 297.52 C 276.23 293.97 277.38 286.60 282.28 284.28 Z" />
<path fill="#04aeda" opacity="1.00" d=" M 141.52 375.76 C 148.35 373.36 156.48 378.69 156.77 385.96 C 157.70 392.62 151.71 399.03 145.05 398.75 C 138.82 398.93 133.19 393.24 133.33 387.04 C 133.17 381.99 136.85 377.38 141.52 375.76 Z" />
<path fill="#04aeda" opacity="1.00" d=" M 363.41 375.62 C 369.90 373.66 377.08 378.39 378.19 384.98 C 379.68 392.08 373.16 399.44 365.93 398.74 C 358.76 398.68 352.91 390.72 355.20 383.90 C 356.27 379.97 359.50 376.73 363.41 375.62 Z" />
</svg>
