<?xml version="1.0" encoding="UTF-8" ?>
<!DOCTYPE svg PUBLIC "-//W3C//DTD SVG 1.1//EN" "http://www.w3.org/Graphics/SVG/1.1/DTD/svg11.dtd">
<svg width="512pt" height="512pt" viewBox="0 0 512 512" version="1.1" xmlns="http://www.w3.org/2000/svg">
<path fill="#00a8ec" opacity="1.00" d=" M 0.00 0.00 L 512.00 0.00 L 512.00 512.00 L 0.00 512.00 L 0.00 0.00 Z" />
<path fill="#ffffff" opacity="1.00" d=" M 170.21 127.36 C 227.94 127.35 285.66 127.31 343.39 127.38 C 343.32 213.13 343.34 298.88 343.38 384.63 C 285.66 384.67 227.94 384.66 170.22 384.64 C 170.29 298.88 170.29 213.12 170.21 127.36 Z" />
<path fill="#ffffff" opacity="1.00" d=" M 105.80 135.13 C 120.45 135.26 135.10 135.17 149.76 135.18 C 149.73 143.70 149.70 152.21 149.77 160.72 C 135.12 160.77 120.46 160.67 105.81 160.77 C 105.79 152.23 105.79 143.68 105.80 135.13 Z" />
<path fill="#ffffff" opacity="1.00" d=" M 363.14 135.19 C 377.79 135.18 392.44 135.23 407.09 135.16 C 407.10 143.69 407.10 152.22 407.08 160.75 C 392.43 160.70 377.78 160.76 363.12 160.72 C 363.20 152.21 363.17 143.70 363.14 135.19 Z" />
<path fill="#ffffff" opacity="1.00" d=" M 105.72 189.45 C 120.40 189.35 135.08 189.43 149.77 189.41 C 149.73 197.84 149.72 206.27 149.77 214.71 C 135.11 214.74 120.46 214.67 105.81 214.74 C 105.73 206.31 105.88 197.88 105.72 189.45 Z" />
<path fill="#ffffff" opacity="1.00" d=" M 363.14 189.44 C 377.73 189.39 392.32 189.49 406.92 189.39 C 406.84 197.83 406.80 206.26 406.89 214.69 C 392.30 214.70 377.72 214.71 363.14 214.69 C 363.19 206.27 363.19 197.86 363.14 189.44 Z" />
<path fill="#00a8ec" opacity="1.00" d=" M 182.55 283.24 C 182.33 265.36 182.46 247.48 182.48 229.60 C 188.65 229.67 194.82 229.50 200.98 229.66 C 206.97 229.91 212.99 233.92 214.35 239.96 C 214.71 242.65 214.72 245.41 214.32 248.11 C 212.90 253.00 208.78 256.88 203.86 258.17 C 205.71 260.28 207.98 262.06 209.38 264.55 C 213.15 270.76 217.22 276.79 220.80 283.12 C 217.87 282.71 213.40 284.67 211.76 281.25 C 208.14 275.50 205.19 269.29 200.99 263.93 C 198.24 260.25 193.28 260.36 189.14 260.43 C 189.33 267.78 189.05 275.14 189.31 282.49 C 187.15 283.35 184.82 283.24 182.55 283.24 Z" />
<path fill="#00a8ec" opacity="1.00" d=" M 241.93 229.72 C 244.27 229.62 246.61 229.59 248.96 229.60 C 255.87 247.45 262.98 265.23 269.53 283.21 C 267.18 283.18 264.84 283.17 262.50 283.24 C 260.03 278.50 258.65 273.30 256.63 268.37 C 249.23 268.37 241.83 268.42 234.43 268.34 C 232.62 273.17 230.79 277.99 229.19 282.90 C 226.77 283.20 224.34 283.25 221.91 283.18 C 222.58 279.22 224.55 275.70 225.88 271.96 C 231.08 257.82 236.86 243.90 241.93 229.72 Z" />
<path fill="#00a8ec" opacity="1.00" d=" M 276.61 229.63 C 279.51 229.61 282.42 229.60 285.33 229.57 C 291.64 243.82 298.10 258.03 303.94 272.48 C 310.03 258.09 316.68 243.95 322.94 229.63 C 325.70 229.60 328.46 229.60 331.23 229.64 C 331.32 247.32 331.08 265.01 331.35 282.70 C 329.14 283.26 326.86 283.26 324.60 283.17 C 324.38 269.06 324.75 254.93 324.42 240.81 C 318.40 254.33 312.54 267.93 306.42 281.40 C 305.86 283.94 302.13 283.92 301.58 281.40 C 295.36 267.96 289.57 254.32 283.45 240.84 C 283.19 254.76 283.27 268.70 283.42 282.63 C 281.21 283.26 278.91 283.26 276.63 283.19 C 276.55 265.34 276.60 247.48 276.61 229.63 Z" />
<path fill="#ffffff" opacity="1.00" d=" M 189.20 235.63 C 193.81 235.80 198.66 235.10 203.05 236.82 C 209.15 239.23 209.20 248.66 204.19 252.23 C 199.96 255.49 194.25 254.26 189.31 254.71 C 189.08 248.35 189.26 241.99 189.20 235.63 Z" />
<path fill="#ffffff" opacity="1.00" d=" M 245.13 238.72 C 246.98 240.65 247.14 243.49 248.23 245.84 C 250.49 251.26 252.17 256.90 254.47 262.30 C 248.46 262.26 242.44 262.28 236.42 262.28 C 239.64 254.55 242.22 246.57 245.13 238.72 Z" />
<path fill="#ffffff" opacity="1.00" d=" M 105.72 243.46 C 120.41 243.37 135.10 243.43 149.79 243.42 C 149.71 251.81 149.71 260.19 149.80 268.57 C 135.11 268.58 120.43 268.61 105.75 268.56 C 105.80 260.19 105.85 251.82 105.72 243.46 Z" />
<path fill="#ffffff" opacity="1.00" d=" M 363.11 243.45 C 377.75 243.40 392.40 243.48 407.04 243.41 C 406.81 251.80 406.82 260.19 406.88 268.58 C 392.31 268.56 377.73 268.54 363.16 268.59 C 363.14 260.21 363.22 251.83 363.11 243.45 Z" />
<path fill="#ffffff" opacity="1.00" d=" M 105.79 297.27 C 120.45 297.32 135.11 297.26 149.77 297.29 C 149.72 305.72 149.73 314.16 149.77 322.59 C 135.10 322.60 120.44 322.58 105.78 322.60 C 105.80 314.15 105.78 305.71 105.79 297.27 Z" />
<path fill="#ffffff" opacity="1.00" d=" M 363.14 297.32 C 377.72 297.29 392.30 297.31 406.89 297.31 C 406.82 305.74 406.81 314.17 406.94 322.60 C 392.34 322.53 377.74 322.60 363.14 322.56 C 363.19 314.14 363.19 305.73 363.14 297.32 Z" />
<path fill="#ffffff" opacity="1.00" d=" M 105.79 350.52 C 120.46 350.59 135.14 350.50 149.81 350.57 C 149.68 358.97 149.74 367.37 149.77 375.77 C 135.11 375.80 120.45 375.71 105.80 375.82 C 105.78 367.39 105.79 358.95 105.79 350.52 Z" />
<path fill="#ffffff" opacity="1.00" d=" M 363.10 350.60 C 377.70 350.56 392.31 350.56 406.91 350.60 C 407.00 358.88 406.39 367.22 407.27 375.47 C 392.58 376.12 377.84 375.58 363.14 375.75 C 363.17 367.36 363.23 358.98 363.10 350.60 Z" />
</svg>
