<?xml version="1.0" encoding="UTF-8" ?>
<!DOCTYPE svg PUBLIC "-//W3C//DTD SVG 1.1//EN" "http://www.w3.org/Graphics/SVG/1.1/DTD/svg11.dtd">
<svg width="512pt" height="512pt" viewBox="0 0 512 512" version="1.1" xmlns="http://www.w3.org/2000/svg">
<path fill="#04aeda" opacity="1.00" d=" M 0.00 0.00 L 512.00 0.00 L 512.00 512.00 L 0.00 512.00 L 0.00 0.00 Z" />
<path fill="#ffffff" opacity="1.00" d=" M 135.32 101.41 C 214.53 101.28 293.75 101.41 372.96 101.34 C 376.08 101.34 379.38 101.34 382.22 102.84 C 386.60 105.14 389.64 109.99 389.60 114.96 C 389.59 208.98 389.61 303.01 389.59 397.03 C 389.55 403.58 383.93 410.34 377.03 409.93 C 296.36 409.93 215.69 409.91 135.01 409.93 C 128.14 410.49 121.77 403.78 122.32 397.00 C 122.35 302.67 122.34 208.35 122.32 114.02 C 122.15 107.21 128.63 101.32 135.32 101.41 Z" />
<path fill="#04aeda" opacity="1.00" d=" M 140.33 113.45 C 147.19 109.97 156.24 115.34 156.75 122.93 C 157.83 129.64 151.82 136.36 145.01 135.90 C 138.66 136.22 133.08 130.27 133.33 124.01 C 133.27 119.49 136.34 115.36 140.33 113.45 Z" />
<path fill="#04aeda" opacity="1.00" d=" M 361.45 113.63 C 367.61 110.28 375.96 114.13 377.82 120.79 C 380.33 127.74 374.40 136.01 367.03 135.89 C 360.45 136.53 354.59 130.45 354.67 124.02 C 354.90 119.69 357.47 115.48 361.45 113.63 Z" />
<path fill="#04aeda" opacity="1.00" d=" M 174.08 195.81 C 197.80 195.80 221.51 195.79 245.23 195.82 C 245.23 199.47 245.23 203.11 245.23 206.76 C 235.34 206.83 225.45 206.77 215.56 206.79 C 215.53 237.20 215.57 267.60 215.55 298.00 C 211.54 298.06 207.53 298.05 203.52 298.04 C 203.46 267.62 203.54 237.20 203.48 206.79 C 193.69 206.80 183.90 206.78 174.11 206.80 C 174.12 203.14 174.11 199.47 174.08 195.81 Z" />
<path fill="#04aeda" opacity="1.00" d=" M 277.72 195.81 C 281.50 195.80 285.28 195.80 289.06 195.82 C 304.95 235.62 320.91 275.40 336.75 315.22 C 333.10 315.23 329.45 315.23 325.81 315.23 C 309.72 275.45 293.86 235.57 277.72 195.81 Z" />
<path fill="#04aeda" opacity="1.00" d=" M 260.35 224.35 C 265.59 221.27 273.15 225.91 272.31 232.07 C 272.08 237.97 264.54 241.58 259.78 238.16 C 254.79 235.17 255.06 226.87 260.35 224.35 Z" />
<path fill="#04aeda" opacity="1.00" d=" M 260.39 284.39 C 265.59 281.20 272.93 285.98 272.33 292.00 C 272.29 298.07 264.55 301.87 259.68 298.31 C 254.72 295.22 255.17 286.97 260.39 284.39 Z" />
<path fill="#04aeda" opacity="1.00" d=" M 141.57 375.75 C 148.38 373.39 156.47 378.70 156.77 385.95 C 157.62 392.22 152.40 398.35 146.14 398.72 C 139.54 399.53 133.16 393.64 133.33 387.03 C 133.18 381.97 136.87 377.34 141.57 375.75 Z" />
<path fill="#04aeda" opacity="1.00" d=" M 363.40 375.63 C 369.51 373.79 376.35 377.83 377.93 383.95 C 380.15 390.87 374.22 398.78 366.99 398.74 C 360.13 399.31 354.09 392.69 354.72 385.97 C 355.29 381.22 358.74 376.91 363.40 375.63 Z" />
</svg>
