<?xml version="1.0" encoding="UTF-8" ?>
<!DOCTYPE svg PUBLIC "-//W3C//DTD SVG 1.1//EN" "http://www.w3.org/Graphics/SVG/1.1/DTD/svg11.dtd">
<svg width="512pt" height="512pt" viewBox="0 0 512 512" version="1.1" xmlns="http://www.w3.org/2000/svg">
<path fill="#04aeda" opacity="1.00" d=" M 0.00 0.00 L 512.00 0.00 L 512.00 512.00 L 0.00 512.00 L 0.00 0.00 Z" />
<path fill="#ffffff" opacity="1.00" d=" M 135.30 101.41 C 215.50 101.31 295.71 101.35 375.91 101.39 C 383.26 101.06 389.75 107.78 389.60 115.02 C 389.59 209.02 389.61 303.03 389.59 397.04 C 389.55 403.59 383.90 410.37 377.00 409.93 C 296.31 409.93 215.62 409.91 134.93 409.93 C 128.09 410.45 121.76 403.74 122.32 397.00 C 122.34 303.00 122.35 209.00 122.32 114.99 C 121.60 107.85 128.25 101.32 135.30 101.41 Z" />
<path fill="#04aeda" opacity="1.00" d=" M 140.36 113.43 C 147.56 109.79 157.01 115.92 156.81 123.92 C 157.31 130.35 151.38 136.37 144.94 135.90 C 138.60 136.19 133.05 130.21 133.33 123.97 C 133.28 119.44 136.38 115.34 140.36 113.43 Z" />
<path fill="#04aeda" opacity="1.00" d=" M 361.44 113.63 C 367.60 110.27 375.96 114.13 377.82 120.79 C 380.33 127.75 374.39 136.02 367.01 135.89 C 360.43 136.52 354.58 130.43 354.67 124.00 C 354.90 119.68 357.47 115.48 361.44 113.63 Z" />
<path fill="#04aeda" opacity="1.00" d=" M 171.65 195.81 C 176.21 195.76 180.78 195.90 185.34 195.71 C 191.12 206.67 196.40 217.92 201.99 228.99 C 205.08 235.31 208.49 241.49 210.89 248.12 C 213.00 242.74 215.91 237.73 218.52 232.58 C 224.94 220.32 231.16 207.94 237.72 195.74 C 242.01 195.86 246.29 195.77 250.58 195.82 C 239.29 217.22 228.01 238.65 216.94 260.17 C 216.59 272.78 216.94 285.43 216.77 298.06 C 212.70 298.00 208.63 297.92 204.56 298.06 C 204.51 286.01 204.56 273.96 204.54 261.91 C 204.57 260.91 204.34 259.98 203.87 259.12 C 193.03 238.06 182.48 216.86 171.65 195.81 Z" />
<path fill="#04aeda" opacity="1.00" d=" M 281.21 195.80 C 284.93 195.80 288.66 195.85 292.38 195.74 C 308.55 235.47 324.37 275.35 340.19 315.22 C 336.62 315.23 333.06 315.19 329.50 315.29 C 313.06 275.61 297.47 235.56 281.21 195.80 Z" />
<path fill="#04aeda" opacity="1.00" d=" M 264.20 224.16 C 269.42 221.46 276.66 225.99 275.74 232.01 C 275.71 238.38 267.05 241.86 262.46 237.55 C 257.99 234.06 259.04 226.43 264.20 224.16 Z" />
<path fill="#04aeda" opacity="1.00" d=" M 264.26 284.19 C 269.47 281.39 276.52 286.15 275.75 292.05 C 275.93 298.55 266.95 302.18 262.40 297.65 C 257.90 294.12 259.16 286.48 264.26 284.19 Z" />
<path fill="#04aeda" opacity="1.00" d=" M 141.54 375.75 C 148.36 373.38 156.46 378.68 156.77 385.93 C 157.72 392.62 151.70 399.05 145.00 398.75 C 138.78 398.90 133.16 393.20 133.33 387.00 C 133.18 381.95 136.87 377.35 141.54 375.75 Z" />
<path fill="#04aeda" opacity="1.00" d=" M 363.44 375.61 C 370.28 373.54 377.79 378.96 378.32 385.98 C 379.09 392.78 372.80 399.39 365.93 398.74 C 358.79 398.69 352.93 390.76 355.18 383.94 C 356.25 379.98 359.50 376.72 363.44 375.61 Z" />
</svg>
