<?xml version="1.0" encoding="UTF-8" ?>
<!DOCTYPE svg PUBLIC "-//W3C//DTD SVG 1.1//EN" "http://www.w3.org/Graphics/SVG/1.1/DTD/svg11.dtd">
<svg width="512pt" height="512pt" viewBox="0 0 512 512" version="1.1" xmlns="http://www.w3.org/2000/svg">
<path fill="#bc3885" opacity="1.00" d=" M 0.00 0.00 L 512.00 0.00 L 512.00 512.00 L 0.00 512.00 L 0.00 0.00 Z" />
<path fill="#ffffff" opacity="1.00" d=" M 160.25 129.30 C 162.14 128.86 164.07 128.64 166.01 128.64 C 235.68 128.62 305.34 128.65 375.00 128.62 C 378.45 128.10 381.56 131.60 381.24 134.94 C 381.23 215.63 381.23 296.32 381.24 377.01 C 381.56 379.94 379.18 383.32 376.12 383.37 C 296.06 383.37 216.00 383.36 135.94 383.38 C 132.59 383.82 129.75 380.36 130.18 377.14 C 130.21 306.42 130.13 235.70 130.22 164.98 C 130.37 147.99 143.59 132.43 160.25 129.30 Z" />
<path fill="#bc3885" opacity="1.00" d=" M 159.37 141.48 C 163.73 139.86 168.45 140.23 173.01 140.17 C 238.54 140.16 304.06 140.20 369.59 140.14 C 369.59 207.04 369.58 273.93 369.59 340.82 C 293.62 340.79 217.65 340.79 141.67 340.82 C 141.67 284.20 141.68 227.59 141.67 170.97 C 141.69 167.59 141.50 164.16 142.26 160.85 C 143.99 151.96 150.78 144.31 159.37 141.48 Z" />
<path fill="#ffffff" opacity="1.00" d=" M 243.92 193.07 C 244.37 191.10 246.07 189.68 248.06 189.50 C 252.72 189.01 257.43 189.16 262.11 189.35 C 264.51 189.33 267.09 190.61 267.77 193.07 C 281.72 231.74 295.66 270.42 309.61 309.09 C 310.91 312.77 312.36 316.39 313.35 320.16 C 313.07 320.72 312.51 321.85 312.23 322.41 C 308.28 323.71 304.07 323.07 299.99 323.19 C 297.64 323.21 294.73 322.54 294.04 319.94 C 290.07 309.20 286.61 298.27 282.49 287.59 C 264.25 287.70 246.01 287.61 227.77 287.64 C 223.89 298.56 220.44 309.65 216.40 320.51 C 213.75 324.59 208.00 322.81 203.92 323.19 C 200.82 323.63 197.10 321.46 198.94 317.94 C 213.82 276.27 228.93 234.69 243.92 193.07 Z" />
<path fill="#bc3885" opacity="1.00" d=" M 254.93 207.69 C 262.73 229.62 270.27 251.64 278.03 273.58 C 262.73 273.71 247.43 273.59 232.13 273.64 C 239.79 251.68 247.22 229.64 254.93 207.69 Z" />
</svg>
