<?xml version="1.0" encoding="UTF-8" ?>
<!DOCTYPE svg PUBLIC "-//W3C//DTD SVG 1.1//EN" "http://www.w3.org/Graphics/SVG/1.1/DTD/svg11.dtd">
<svg width="512pt" height="512pt" viewBox="0 0 512 512" version="1.1" xmlns="http://www.w3.org/2000/svg">
<path fill="#339933" opacity="1.00" d=" M 0.00 0.00 L 512.00 0.00 L 512.00 512.00 L 0.00 512.00 L 0.00 0.00 Z" />
<path fill="#ffffff" opacity="1.00" d=" M 159.40 129.42 C 162.21 128.69 165.15 128.71 168.04 128.66 C 237.02 128.66 306.00 128.67 374.98 128.66 C 378.53 128.14 381.72 131.49 381.13 135.00 C 381.09 216.02 381.15 297.05 381.10 378.07 C 381.26 380.79 378.80 383.41 376.05 383.31 C 296.05 383.37 216.05 383.31 136.04 383.35 C 132.63 383.80 129.71 380.34 129.99 377.09 C 130.01 306.74 130.01 236.39 129.99 166.04 C 130.26 154.54 135.65 143.01 145.02 136.16 C 149.25 132.88 154.23 130.72 159.40 129.42 Z" />
<path fill="#339933" opacity="1.00" d=" M 144.78 153.75 C 149.39 145.02 159.16 139.58 169.00 140.01 C 235.88 140.06 302.77 139.90 369.66 140.10 C 369.69 207.01 369.64 273.93 369.68 340.84 C 293.70 341.12 217.70 340.88 141.71 340.96 C 141.60 283.31 141.70 225.65 141.66 168.00 C 141.53 163.09 142.34 158.07 144.78 153.75 Z" />
<path fill="#ffffff" opacity="1.00" d=" M 208.06 191.03 C 209.25 189.02 211.93 189.32 213.93 189.18 C 217.61 189.23 221.36 188.88 224.98 189.68 C 226.91 189.91 227.73 191.87 228.69 193.28 C 238.00 209.40 247.13 225.63 256.55 241.68 C 266.23 225.22 275.44 208.49 285.02 191.98 C 286.53 189.01 290.20 189.20 293.03 189.16 C 296.28 189.28 299.77 188.74 302.80 190.20 C 304.63 191.91 303.02 194.25 302.20 196.05 C 290.77 215.69 279.06 235.18 267.74 254.88 C 279.82 275.29 291.67 295.83 303.65 316.30 C 304.81 317.92 305.22 319.83 305.06 321.80 C 301.37 323.82 297.05 322.80 293.05 323.06 C 290.43 322.98 286.86 323.34 285.45 320.55 C 275.41 302.91 265.70 285.09 255.66 267.45 C 245.57 284.88 235.87 302.54 225.85 320.01 C 224.09 323.79 219.35 322.94 215.96 323.06 C 212.99 322.81 209.61 323.72 206.97 321.98 C 205.73 320.22 207.01 318.32 207.81 316.71 C 219.84 296.11 232.33 275.75 244.15 255.05 C 232.80 235.39 221.21 215.85 209.79 196.23 C 208.94 194.61 207.93 192.93 208.06 191.03 Z" />
</svg>
