<?xml version="1.0" encoding="UTF-8" ?>
<!DOCTYPE svg PUBLIC "-//W3C//DTD SVG 1.1//EN" "http://www.w3.org/Graphics/SVG/1.1/DTD/svg11.dtd">
<svg width="512pt" height="512pt" viewBox="0 0 512 512" version="1.1" xmlns="http://www.w3.org/2000/svg">
<path fill="#0b96bf" opacity="1.00" d=" M 0.00 0.00 L 512.00 0.00 L 512.00 512.00 L 0.00 512.00 L 0.00 0.00 Z" />
<path fill="#ffffff" opacity="1.00" d=" M 163.76 128.72 C 233.50 128.42 303.26 128.72 373.00 128.57 C 375.07 128.62 377.48 128.26 379.06 129.93 C 382.13 132.37 381.14 136.63 381.29 140.04 C 381.26 219.02 381.29 298.00 381.28 376.98 C 381.56 380.33 378.59 383.89 375.08 383.42 C 295.38 383.38 215.67 383.40 135.96 383.41 C 132.56 383.77 129.77 380.30 130.16 377.04 C 130.15 307.05 130.16 237.05 130.16 167.05 C 129.99 156.83 133.99 146.53 141.38 139.40 C 147.33 133.40 155.42 129.76 163.76 128.72 Z" />
<path fill="#0b96bf" opacity="1.00" d=" M 141.73 165.01 C 141.97 151.82 153.73 140.06 166.99 140.19 C 234.54 140.05 302.09 140.18 369.63 140.12 C 369.55 207.02 369.61 273.92 369.61 340.82 C 296.75 340.83 223.90 340.82 151.05 340.83 C 147.89 340.88 144.72 340.83 141.56 340.68 C 141.84 282.12 141.52 223.56 141.73 165.01 Z" />
<path fill="#ffffff" opacity="1.00" d=" M 219.27 192.31 C 224.97 192.33 230.67 192.17 236.36 192.41 C 236.18 229.82 236.34 267.23 236.28 304.64 C 255.22 304.61 274.17 304.63 293.11 304.63 C 293.08 309.67 293.22 314.72 292.99 319.77 C 268.42 319.62 243.84 319.77 219.27 319.69 C 219.31 277.23 219.31 234.77 219.27 192.31 Z" />
</svg>
