<?xml version="1.0" encoding="UTF-8" ?>
<!DOCTYPE svg PUBLIC "-//W3C//DTD SVG 1.1//EN" "http://www.w3.org/Graphics/SVG/1.1/DTD/svg11.dtd">
<svg width="512pt" height="512pt" viewBox="0 0 512 512" version="1.1" xmlns="http://www.w3.org/2000/svg">
<path fill="#f6961b" opacity="1.00" d=" M 0.00 0.00 L 512.00 0.00 L 512.00 512.00 L 0.00 512.00 L 0.00 0.00 Z" />
<path fill="#ffffff" opacity="1.00" d=" M 124.27 244.05 C 124.33 202.27 124.23 160.49 124.32 118.71 C 165.90 118.72 207.47 118.68 249.05 118.73 C 254.00 118.63 258.87 122.82 258.60 127.95 C 258.58 164.31 258.67 200.68 258.56 237.05 C 248.23 226.47 237.68 216.10 227.25 205.62 C 227.24 187.24 227.22 168.85 227.26 150.47 C 203.42 150.42 179.58 150.46 155.74 150.45 C 155.76 174.27 155.75 198.08 155.75 221.90 C 173.88 221.79 192.01 221.95 210.14 221.82 C 220.93 232.11 231.24 242.91 241.92 253.34 C 205.62 253.45 169.33 253.35 133.04 253.39 C 128.14 253.66 123.77 248.91 124.27 244.05 Z" />
<path fill="#ffffff" opacity="1.00" d=" M 283.79 173.97 C 283.25 169.52 287.41 164.86 291.97 165.35 C 318.59 165.40 345.22 165.36 371.84 165.37 C 371.79 192.27 371.83 219.18 371.82 246.08 C 372.05 249.78 368.49 253.03 365.03 253.43 C 343.47 253.49 321.91 253.39 300.35 253.48 C 310.76 243.16 321.10 232.78 331.45 222.41 C 334.58 222.41 337.70 222.42 340.83 222.43 C 340.75 213.76 340.73 205.10 340.87 196.44 C 332.18 196.43 323.49 196.44 314.80 196.43 C 314.84 199.49 314.85 202.56 314.78 205.62 C 304.38 215.88 294.08 226.23 283.78 236.59 C 283.85 215.72 283.82 194.85 283.79 173.97 Z" />
<path fill="#ffffff" opacity="1.00" d=" M 142.49 283.96 C 142.45 279.64 146.86 276.47 150.97 276.83 C 181.45 276.81 211.92 276.84 242.40 276.81 C 231.91 287.27 221.48 297.79 210.96 308.21 C 198.52 308.24 186.07 308.24 173.63 308.21 C 173.65 326.20 173.58 344.19 173.66 362.19 C 191.59 361.84 209.57 361.53 227.51 362.23 C 227.57 349.78 227.53 337.34 227.53 324.90 C 237.88 314.39 248.43 304.06 258.77 293.53 C 258.92 324.05 258.77 354.57 258.84 385.09 C 259.27 389.48 255.36 393.45 251.01 393.37 C 214.85 393.41 178.69 393.38 142.53 393.38 C 142.44 356.91 142.48 320.43 142.49 283.96 Z" />
<path fill="#ffffff" opacity="1.00" d=" M 300.17 276.81 C 326.14 276.79 352.12 276.79 378.09 276.80 C 381.26 276.65 384.32 278.29 385.90 281.05 C 387.68 283.69 387.16 286.98 387.22 289.98 C 387.20 320.15 387.21 350.33 387.22 380.50 C 355.45 380.64 323.69 380.50 291.92 380.56 C 287.40 380.76 283.08 376.67 283.39 372.07 C 283.38 345.85 283.39 319.64 283.39 293.42 C 293.76 303.82 304.15 314.20 314.54 324.58 C 314.56 332.83 314.56 341.08 314.54 349.33 C 328.29 349.34 342.04 349.35 355.79 349.33 C 355.74 335.58 355.78 321.84 355.77 308.09 C 348.11 308.34 340.45 307.62 332.80 308.04 C 331.48 308.21 330.56 307.16 329.71 306.35 C 319.89 296.47 310.04 286.63 300.17 276.81 Z" />
</svg>
