<?xml version="1.0" encoding="UTF-8" ?>
<!DOCTYPE svg PUBLIC "-//W3C//DTD SVG 1.1//EN" "http://www.w3.org/Graphics/SVG/1.1/DTD/svg11.dtd">
<svg width="512pt" height="512pt" viewBox="0 0 512 512" version="1.1" xmlns="http://www.w3.org/2000/svg">
<path fill="#eb3c00" opacity="1.00" d=" M 0.00 0.00 L 512.00 0.00 L 512.00 512.00 L 0.00 512.00 L 0.00 0.00 Z" />
<path fill="#ffffff" opacity="1.00" d=" M 135.33 168.34 C 187.18 149.04 239.12 129.90 291.00 110.65 L 291.95 110.47 C 320.25 119.56 348.59 128.54 376.86 137.74 C 376.77 217.32 376.78 296.90 376.86 376.48 C 348.61 385.28 320.16 393.46 291.94 402.33 C 239.99 383.74 188.17 364.77 136.15 346.37 C 139.96 346.16 143.71 346.80 147.46 347.33 C 195.54 353.15 243.62 358.90 291.69 364.75 C 291.69 295.90 291.66 227.05 291.70 158.20 C 257.65 166.03 223.67 174.18 189.61 181.96 C 189.48 228.66 189.66 275.35 189.52 322.04 C 171.42 329.96 153.19 337.65 135.28 345.99 C 134.96 290.33 135.23 234.66 135.15 178.99 C 135.29 175.45 134.84 171.86 135.33 168.34 Z" />
</svg>
