<?xml version="1.0" encoding="UTF-8" ?>
<!DOCTYPE svg PUBLIC "-//W3C//DTD SVG 1.1//EN" "http://www.w3.org/Graphics/SVG/1.1/DTD/svg11.dtd">
<svg width="512pt" height="512pt" viewBox="0 0 512 512" version="1.1" xmlns="http://www.w3.org/2000/svg">
<path fill="#f1c11e" opacity="1.00" d=" M 0.00 0.00 L 512.00 0.00 L 512.00 512.00 L 0.00 512.00 L 0.00 0.00 Z" />
<path fill="#ffffff" opacity="1.00" d=" M 139.95 144.99 C 153.16 132.20 171.50 124.65 189.96 125.12 C 257.69 125.11 325.42 125.09 393.15 125.14 C 393.15 212.15 393.15 299.16 393.15 386.17 C 301.49 386.19 209.83 386.18 118.17 386.17 C 118.23 321.78 118.11 257.38 118.23 192.99 C 118.88 174.98 126.97 157.45 139.95 144.99 Z" />
<path fill="#f1c11e" opacity="1.00" d=" M 193.34 133.56 C 254.92 133.31 316.51 133.53 378.10 133.44 C 381.37 132.90 384.75 135.52 384.30 138.99 C 384.30 217.03 384.30 295.07 384.29 373.11 C 384.54 376.01 381.94 378.62 379.04 378.32 C 297.00 378.35 214.97 378.30 132.94 378.35 C 129.90 378.81 126.90 376.12 127.28 373.02 C 127.28 316.35 127.28 259.67 127.28 203.00 C 127.05 186.12 133.41 169.26 144.73 156.74 C 156.90 142.84 174.87 134.26 193.34 133.56 Z" />
<path fill="#ffffff" opacity="1.00" d=" M 153.46 161.43 C 164.59 149.62 180.82 142.79 197.06 143.17 C 256.25 143.15 315.44 143.17 374.63 143.16 C 374.60 218.32 374.60 293.48 374.63 368.64 C 295.33 368.58 216.03 368.70 136.73 368.58 C 136.81 313.07 136.72 257.56 136.77 202.05 C 137.06 187.07 142.87 172.13 153.46 161.43 Z" />
<path fill="#f1c11e" opacity="1.00" d=" M 248.17 174.16 C 264.13 172.60 280.95 174.82 294.97 183.00 C 311.22 192.42 322.84 208.83 327.65 226.86 C 332.08 243.48 332.00 261.09 328.88 277.93 C 325.74 294.10 317.98 309.62 305.59 320.67 C 293.05 332.34 275.87 337.99 258.94 338.52 C 241.37 339.30 222.97 335.17 209.02 324.02 C 193.23 311.79 183.66 292.73 181.22 273.09 C 179.19 256.26 180.16 238.80 185.70 222.68 C 191.12 206.91 201.80 192.77 216.18 184.14 C 225.84 178.28 236.97 175.20 248.17 174.16 Z" />
<path fill="#ffffff" opacity="1.00" d=" M 244.58 191.89 C 259.32 189.37 275.58 191.11 287.99 200.03 C 301.34 209.41 308.31 225.41 310.34 241.20 C 312.32 257.84 311.76 275.39 304.91 290.93 C 299.08 304.30 287.40 315.12 273.29 319.13 C 260.11 322.75 245.51 322.76 232.88 317.12 C 217.78 310.33 207.15 295.76 202.95 279.99 C 198.82 264.00 198.85 246.75 203.57 230.88 C 209.18 211.98 224.75 195.48 244.58 191.89 Z" />
</svg>
