<?xml version="1.0" encoding="UTF-8" ?>
<!DOCTYPE svg PUBLIC "-//W3C//DTD SVG 1.1//EN" "http://www.w3.org/Graphics/SVG/1.1/DTD/svg11.dtd">
<svg width="512pt" height="512pt" viewBox="0 0 512 512" version="1.1" xmlns="http://www.w3.org/2000/svg">
<path fill="#e65618" opacity="1.00" d=" M 0.00 0.00 L 512.00 0.00 L 512.00 512.00 L 0.00 512.00 L 0.00 0.00 Z" />
<path fill="#ffffff" opacity="1.00" d=" M 154.97 133.89 C 165.32 128.19 177.09 124.94 188.94 125.14 C 257.01 125.10 325.08 125.10 393.15 125.14 C 393.15 212.15 393.15 299.16 393.15 386.17 C 301.49 386.18 209.83 386.18 118.17 386.17 C 118.20 327.78 118.17 269.38 118.18 210.99 C 118.35 200.25 117.35 189.31 120.28 178.83 C 124.99 159.92 137.88 143.25 154.97 133.89 Z" />
<path fill="#e65618" opacity="1.00" d=" M 188.58 133.91 C 192.71 133.44 196.87 133.47 201.02 133.44 C 260.36 133.47 319.69 133.41 379.03 133.47 C 381.33 133.27 383.54 134.86 384.15 137.08 C 384.47 139.72 384.26 142.39 384.30 145.04 C 384.30 221.04 384.29 297.04 384.30 373.03 C 384.58 375.97 381.92 378.66 378.97 378.33 C 296.64 378.32 214.31 378.35 131.98 378.31 C 129.27 378.38 126.96 375.70 127.28 373.03 C 127.28 316.33 127.28 259.63 127.28 202.94 C 127.06 186.09 133.41 169.27 144.70 156.77 C 155.83 144.05 171.79 135.78 188.58 133.91 Z" />
<path fill="#ffffff" opacity="1.00" d=" M 153.43 161.46 C 164.33 149.90 180.10 143.06 196.01 143.18 C 255.55 143.14 315.09 143.19 374.63 143.16 C 374.60 218.32 374.60 293.48 374.63 368.64 C 295.33 368.59 216.03 368.67 136.73 368.60 C 136.80 313.08 136.73 257.56 136.77 202.05 C 137.06 187.08 142.86 172.16 153.43 161.46 Z" />
<path fill="#e65618" opacity="1.00" d=" M 220.77 183.42 C 235.85 183.32 250.93 183.36 266.00 183.39 C 279.31 183.59 293.35 186.43 303.71 195.31 C 313.90 203.68 318.49 217.17 318.37 230.06 C 318.83 243.18 314.34 256.63 305.03 266.04 C 294.80 276.97 279.69 282.09 265.00 282.57 C 256.50 282.65 248.01 282.56 239.52 282.62 C 239.58 302.68 239.52 322.75 239.55 342.81 C 233.30 342.80 227.05 342.81 220.80 342.80 C 220.77 289.67 220.82 236.54 220.77 183.42 Z" />
<path fill="#ffffff" opacity="1.00" d=" M 239.53 200.55 C 250.68 200.87 261.93 199.75 273.00 201.40 C 281.22 202.74 289.64 206.56 294.14 213.89 C 299.17 222.17 299.66 232.59 297.51 241.86 C 295.35 251.51 287.72 259.43 278.44 262.60 C 265.98 267.14 252.50 265.22 239.53 265.62 C 239.56 243.93 239.55 222.24 239.53 200.55 Z" />
</svg>
