<?xml version="1.0" encoding="UTF-8" ?>
<!DOCTYPE svg PUBLIC "-//W3C//DTD SVG 1.1//EN" "http://www.w3.org/Graphics/SVG/1.1/DTD/svg11.dtd">
<svg width="512pt" height="512pt" viewBox="0 0 512 512" version="1.1" xmlns="http://www.w3.org/2000/svg">
<path fill="#04a693" opacity="1.00" d=" M 0.00 0.00 L 512.00 0.00 L 512.00 512.00 L 0.00 512.00 L 0.00 0.00 Z" />
<path fill="#ffffff" opacity="1.00" d=" M 136.56 123.84 C 146.84 121.09 157.55 123.58 167.63 126.10 C 218.47 136.81 269.62 146.06 320.21 157.93 C 339.28 162.81 359.03 169.45 373.21 183.75 C 381.54 191.84 386.03 202.94 388.83 214.00 C 393.37 232.40 394.04 252.31 387.26 270.25 C 382.90 281.86 373.77 291.35 362.66 296.74 C 347.17 304.34 329.81 306.49 313.00 309.36 C 303.76 310.67 294.37 312.70 285.04 311.01 C 273.29 308.93 265.63 294.04 271.41 283.45 C 275.86 276.64 284.72 275.35 292.15 274.28 C 305.38 272.28 319.84 272.94 331.55 265.53 C 339.38 260.56 341.21 250.59 340.82 241.98 C 340.69 232.56 339.39 222.70 334.51 214.47 C 330.12 207.65 322.74 203.46 315.24 200.84 C 303.88 196.93 291.85 195.65 280.00 194.10 C 247.97 189.82 215.92 185.65 183.88 181.50 C 172.16 180.20 160.60 177.90 148.98 176.02 C 140.47 174.12 131.62 170.91 125.88 164.02 C 120.13 156.86 117.54 146.62 121.11 137.90 C 123.65 131.09 129.74 126.05 136.56 123.84 Z" />
<path fill="#ffffff" opacity="1.00" d=" M 169.59 197.03 C 199.36 189.88 232.46 209.46 241.08 238.71 C 245.35 252.51 247.61 266.82 250.36 280.98 C 252.71 292.38 254.86 303.82 257.29 315.21 C 259.24 324.50 262.66 333.52 263.37 343.05 C 263.43 354.20 259.12 365.33 251.53 373.52 C 241.17 384.76 224.95 390.41 209.88 387.60 C 197.96 385.67 186.07 380.09 178.67 370.29 C 173.90 363.53 171.35 355.53 169.01 347.69 C 164.88 332.98 162.34 317.89 158.83 303.03 C 155.21 288.68 150.98 274.49 147.27 260.16 C 144.55 250.91 141.75 241.60 140.79 231.96 C 140.10 224.17 141.43 215.74 146.54 209.56 C 152.24 202.58 160.97 198.91 169.59 197.03 Z" />
</svg>
