<?xml version="1.0" encoding="UTF-8" ?>
<!DOCTYPE svg PUBLIC "-//W3C//DTD SVG 1.1//EN" "http://www.w3.org/Graphics/SVG/1.1/DTD/svg11.dtd">
<svg width="512pt" height="512pt" viewBox="0 0 512 512" version="1.1" xmlns="http://www.w3.org/2000/svg">
<path fill="#0072c6" opacity="1.00" d=" M 0.00 0.00 L 512.00 0.00 L 512.00 512.00 L 0.00 512.00 L 0.00 0.00 Z" />
<path fill="#ffffff" opacity="1.00" d=" M 113.97 149.80 C 166.14 140.43 218.34 131.19 270.56 122.05 C 270.57 211.37 270.57 300.69 270.56 390.00 C 218.36 380.98 166.22 371.60 114.05 362.42 C 113.91 291.54 114.08 220.67 113.97 149.80 Z" />
<path fill="#ffffff" opacity="1.00" d=" M 286.32 166.35 C 293.92 159.44 305.68 157.77 314.86 162.40 C 325.21 167.27 331.06 179.29 329.25 190.48 C 346.81 197.93 360.75 212.87 367.69 230.56 C 373.65 229.81 379.88 230.70 385.05 233.90 C 392.69 238.42 397.77 247.09 397.62 256.02 C 397.84 264.70 393.26 273.31 385.93 277.96 C 380.63 281.49 374.06 282.64 367.79 282.12 C 360.97 300.25 346.58 315.36 328.71 322.89 C 331.54 336.84 320.36 351.72 306.10 352.69 C 298.58 353.56 290.66 351.17 285.33 345.72 C 285.13 333.25 285.11 320.74 285.34 308.27 C 290.16 303.41 297.13 300.79 303.98 301.19 C 311.19 301.06 317.94 304.73 322.85 309.81 C 337.54 303.46 349.47 290.99 354.74 275.84 C 347.94 269.75 344.34 259.97 346.45 250.98 C 347.40 245.90 350.11 241.28 353.68 237.58 C 355.23 236.28 353.45 234.46 353.04 233.06 C 347.24 219.75 336.09 209.10 322.85 203.28 C 317.92 208.27 311.20 211.73 304.08 211.65 C 297.21 211.94 290.38 209.14 285.45 204.40 C 284.84 193.33 285.42 182.13 285.18 171.01 C 285.34 169.43 284.67 167.31 286.32 166.35 Z" />
<path fill="#0072c6" opacity="1.00" d=" M 163.77 212.77 C 168.23 206.49 175.50 202.76 182.93 201.27 C 191.69 199.57 200.90 200.01 209.36 202.95 C 209.67 210.88 209.61 218.84 209.46 226.78 C 204.14 222.12 197.00 219.81 189.99 219.72 C 184.52 219.87 178.13 222.34 176.43 228.05 C 174.66 232.80 177.27 237.92 180.99 240.90 C 188.08 246.72 197.21 249.67 203.65 256.39 C 210.64 262.87 213.93 272.60 213.67 282.00 C 213.96 290.92 211.63 300.58 204.80 306.76 C 198.40 312.55 189.27 313.89 180.95 313.24 C 173.08 312.35 164.99 310.33 158.57 305.48 C 157.18 303.63 158.09 301.20 158.07 299.10 C 158.22 293.36 158.32 287.59 157.86 281.87 C 162.96 287.00 168.84 291.83 176.13 293.31 C 180.99 294.08 186.75 294.19 190.52 290.48 C 194.51 286.49 193.85 279.72 190.48 275.56 C 184.63 268.01 174.94 265.29 168.08 258.93 C 162.63 254.09 159.07 247.26 158.17 240.04 C 156.93 230.72 158.06 220.52 163.77 212.77 Z" />
</svg>
