<?xml version="1.0" encoding="UTF-8" ?>
<!DOCTYPE svg PUBLIC "-//W3C//DTD SVG 1.1//EN" "http://www.w3.org/Graphics/SVG/1.1/DTD/svg11.dtd">
<svg width="512pt" height="512pt" viewBox="0 0 512 512" version="1.1" xmlns="http://www.w3.org/2000/svg">
<path fill="#575757" opacity="1.00" d=" M 0.00 0.00 L 512.00 0.00 L 512.00 512.00 L 0.00 512.00 L 0.00 0.00 Z" />
<path fill="#ffffff" opacity="1.00" d=" M 193.86 136.40 C 210.75 132.83 228.10 137.13 243.92 143.13 C 254.21 147.24 264.39 151.67 274.34 156.53 C 274.16 196.05 274.33 235.57 274.26 275.09 C 254.72 266.88 235.44 256.59 214.01 254.42 C 196.74 252.15 178.86 257.92 165.55 269.02 C 165.48 229.36 165.52 189.70 165.53 150.05 C 173.90 143.63 183.40 138.35 193.86 136.40 Z" />
<path fill="#ffffff" opacity="1.00" d=" M 136.79 139.16 C 143.42 139.15 150.06 139.13 156.69 139.17 C 156.66 218.38 156.66 297.59 156.69 376.80 C 150.05 376.83 143.42 376.81 136.78 376.81 C 136.79 297.59 136.78 218.38 136.79 139.16 Z" />
<path fill="#ffffff" opacity="1.00" d=" M 367.04 157.20 C 369.89 155.30 372.21 152.71 375.12 150.88 C 375.33 190.38 375.01 229.88 375.28 269.38 C 370.70 273.69 365.63 277.48 360.18 280.61 C 350.07 272.34 337.16 267.00 324.00 267.17 C 310.97 266.61 297.65 270.95 287.53 279.19 C 286.21 278.63 284.91 278.03 283.63 277.39 C 283.83 237.82 283.65 198.25 283.72 158.68 C 301.36 166.34 320.74 172.20 340.15 169.04 C 349.89 167.28 359.07 163.02 367.04 157.20 Z" />
<path fill="#ffffff" opacity="1.00" d=" M 314.09 273.09 C 326.87 271.02 340.45 273.57 351.26 280.79 C 363.30 288.58 371.84 301.51 374.18 315.66 C 375.45 325.41 374.87 335.62 370.78 344.68 C 364.47 360.04 350.25 371.88 333.98 375.25 C 323.56 377.63 312.45 376.52 302.60 372.45 C 288.39 366.45 276.98 353.92 272.83 339.01 C 269.08 326.57 270.41 312.75 276.19 301.15 C 283.47 286.54 297.91 275.62 314.09 273.09 Z" />
<path fill="#575757" opacity="1.00" d=" M 315.49 282.67 C 325.02 281.45 335.00 282.55 343.40 287.46 C 355.70 294.33 364.41 307.61 364.93 321.79 C 365.58 330.70 363.26 339.80 358.37 347.29 C 350.65 359.40 336.43 367.29 321.98 366.58 C 302.78 366.87 285.01 351.76 281.41 333.05 C 279.75 323.70 280.60 313.65 285.15 305.19 C 291.06 293.51 302.62 284.98 315.49 282.67 Z" />
<path fill="#ffffff" opacity="1.00" d=" M 320.39 289.50 C 323.34 288.82 327.26 289.75 327.61 293.31 C 327.96 301.80 327.55 310.32 327.80 318.83 C 335.43 324.60 343.22 330.19 350.50 336.40 C 350.56 338.04 350.54 339.69 350.46 341.34 C 348.58 343.28 345.52 344.69 343.08 342.83 C 336.00 337.62 329.13 332.11 322.08 326.85 C 320.21 325.32 317.74 323.72 317.66 321.03 C 317.51 312.36 317.64 303.68 317.60 295.01 C 317.29 292.72 318.95 291.01 320.39 289.50 Z" />
</svg>
