<?xml version="1.0" encoding="UTF-8" ?>
<!DOCTYPE svg PUBLIC "-//W3C//DTD SVG 1.1//EN" "http://www.w3.org/Graphics/SVG/1.1/DTD/svg11.dtd">
<svg width="512pt" height="512pt" viewBox="0 0 512 512" version="1.1" xmlns="http://www.w3.org/2000/svg">
<path fill="#f7941d" opacity="1.00" d=" M 0.00 0.00 L 512.00 0.00 L 512.00 512.00 L 0.00 512.00 L 0.00 0.00 M 257.47 157.69 C 256.37 158.13 255.43 158.86 254.53 159.61 C 235.22 176.32 215.85 192.96 196.55 209.68 C 195.50 210.43 194.50 211.67 193.05 211.39 C 174.73 211.36 156.40 211.35 138.08 211.39 C 133.50 211.39 129.15 215.30 129.13 219.98 C 128.81 224.66 128.96 229.36 129.11 234.05 C 129.10 249.36 128.87 264.66 129.16 279.97 C 129.16 284.65 128.38 289.44 129.62 294.03 C 131.05 297.72 134.96 300.20 138.93 299.83 C 156.28 299.82 173.63 299.85 190.98 299.80 C 192.43 299.69 193.93 299.99 194.99 301.06 C 214.12 317.58 233.27 334.09 252.40 350.62 C 254.57 352.60 256.90 354.73 259.95 355.10 C 265.23 355.94 270.60 351.31 270.34 345.93 C 270.36 285.95 270.37 225.97 270.33 166.00 C 270.59 159.66 263.14 154.88 257.47 157.69 M 290.04 208.11 C 284.21 209.93 281.95 217.63 285.65 222.44 C 298.42 242.33 298.63 269.34 286.27 289.46 C 283.87 292.79 283.30 297.66 285.94 301.01 C 288.51 304.67 293.89 305.88 297.76 303.63 C 301.39 301.59 302.79 297.40 304.78 293.99 C 318.14 268.30 316.51 235.57 300.43 211.45 C 298.17 208.27 293.76 206.65 290.04 208.11 Z" />
<path fill="#ffffff" opacity="1.00" d=" M 257.47 157.69 C 263.14 154.88 270.59 159.66 270.33 166.00 C 270.37 225.97 270.36 285.95 270.34 345.93 C 270.60 351.31 265.23 355.94 259.95 355.10 C 256.90 354.73 254.57 352.60 252.40 350.62 C 233.27 334.09 214.12 317.58 194.99 301.06 C 193.93 299.99 192.43 299.69 190.98 299.80 C 173.63 299.85 156.28 299.82 138.93 299.83 C 134.96 300.20 131.05 297.72 129.62 294.03 C 128.38 289.44 129.16 284.65 129.16 279.97 C 128.87 264.66 129.10 249.36 129.11 234.05 C 128.96 229.36 128.81 224.66 129.13 219.98 C 129.15 215.30 133.50 211.39 138.08 211.39 C 156.40 211.35 174.73 211.36 193.05 211.39 C 194.50 211.67 195.50 210.43 196.55 209.68 C 215.85 192.96 235.22 176.32 254.53 159.61 C 255.43 158.86 256.37 158.13 257.47 157.69 Z" />
<path fill="#ffffff" opacity="1.00" d=" M 290.04 208.11 C 293.76 206.65 298.17 208.27 300.43 211.45 C 316.51 235.57 318.14 268.30 304.78 293.99 C 302.79 297.40 301.39 301.59 297.76 303.63 C 293.89 305.88 288.51 304.67 285.94 301.01 C 283.30 297.66 283.87 292.79 286.27 289.46 C 298.63 269.34 298.42 242.33 285.65 222.44 C 281.95 217.63 284.21 209.93 290.04 208.11 Z" />
</svg>
