<?xml version="1.0" encoding="UTF-8" ?>
<!DOCTYPE svg PUBLIC "-//W3C//DTD SVG 1.1//EN" "http://www.w3.org/Graphics/SVG/1.1/DTD/svg11.dtd">
<svg width="512pt" height="512pt" viewBox="0 0 512 512" version="1.1" xmlns="http://www.w3.org/2000/svg">
<path fill="#c00000" opacity="1.00" d=" M 0.00 0.00 L 512.00 0.00 L 512.00 512.00 L 0.00 512.00 L 0.00 0.00 M 255.64 158.75 C 235.15 176.18 214.93 193.95 194.44 211.40 C 175.96 211.33 157.47 211.40 138.99 211.36 C 134.15 211.00 129.06 214.92 129.18 219.98 C 128.94 243.65 129.16 267.33 129.16 291.01 C 128.94 295.71 133.28 299.89 137.93 299.79 C 155.97 299.92 174.01 299.75 192.05 299.86 C 193.44 299.71 194.53 300.72 195.54 301.52 C 215.18 318.53 234.89 335.46 254.53 352.47 C 256.92 354.60 260.37 355.84 263.53 354.83 C 267.84 353.82 270.77 349.37 270.36 345.01 C 270.32 285.34 270.39 225.66 270.33 165.98 C 270.65 158.73 261.20 154.16 255.64 158.75 M 326.39 193.62 C 317.06 195.52 308.37 199.88 300.79 205.57 C 299.70 206.75 298.52 205.09 297.74 204.44 C 293.90 200.52 290.02 196.63 286.12 192.77 C 283.08 195.89 279.99 198.96 276.89 202.01 C 281.46 206.54 286.00 211.10 290.54 215.65 C 281.06 227.17 275.83 242.11 276.11 257.03 C 276.19 271.40 281.56 285.49 290.50 296.67 C 285.88 301.08 281.47 305.69 276.89 310.14 C 279.97 313.28 283.12 316.34 286.14 319.53 C 290.73 314.99 295.24 310.37 299.84 305.85 C 322.30 324.71 357.95 324.76 380.36 305.81 C 385.21 310.15 389.69 314.88 394.22 319.54 C 397.35 316.43 400.46 313.30 403.59 310.19 C 398.90 305.67 394.21 301.15 389.81 296.34 C 408.78 273.93 408.69 238.26 389.81 215.83 C 394.33 211.15 398.97 206.60 403.59 202.03 C 400.41 198.98 397.37 195.80 394.16 192.79 C 389.67 197.40 385.07 201.89 380.56 206.48 C 365.66 194.35 345.17 189.26 326.39 193.62 Z" />
<path fill="#ffffff" opacity="1.00" d=" M 255.64 158.75 C 261.20 154.16 270.65 158.73 270.33 165.98 C 270.39 225.66 270.32 285.34 270.36 345.01 C 270.77 349.37 267.84 353.82 263.53 354.83 C 260.37 355.84 256.92 354.60 254.53 352.47 C 234.89 335.46 215.18 318.53 195.54 301.52 C 194.53 300.72 193.44 299.71 192.05 299.86 C 174.01 299.75 155.97 299.92 137.93 299.79 C 133.28 299.89 128.94 295.71 129.16 291.01 C 129.16 267.33 128.94 243.65 129.18 219.98 C 129.06 214.92 134.15 211.00 138.99 211.36 C 157.47 211.40 175.96 211.33 194.44 211.40 C 214.93 193.95 235.15 176.18 255.64 158.75 Z" />
<path fill="#ffffff" opacity="1.00" d=" M 326.39 193.62 C 345.17 189.26 365.66 194.35 380.56 206.48 C 385.07 201.89 389.67 197.40 394.16 192.79 C 397.37 195.80 400.41 198.98 403.59 202.03 C 398.97 206.60 394.33 211.15 389.81 215.83 C 408.69 238.26 408.78 273.93 389.81 296.34 C 394.21 301.15 398.90 305.67 403.59 310.19 C 400.46 313.30 397.35 316.43 394.22 319.54 C 389.69 314.88 385.21 310.15 380.36 305.81 C 357.95 324.76 322.30 324.71 299.84 305.85 C 295.24 310.37 290.73 314.99 286.14 319.53 C 283.12 316.34 279.97 313.28 276.89 310.14 C 281.47 305.69 285.88 301.08 290.50 296.67 C 281.56 285.49 276.19 271.40 276.11 257.03 C 275.83 242.11 281.06 227.17 290.54 215.65 C 286.00 211.10 281.46 206.54 276.89 202.01 C 279.99 198.96 283.08 195.89 286.12 192.77 C 290.02 196.63 293.90 200.52 297.74 204.44 C 298.52 205.09 299.70 206.75 300.79 205.57 C 308.37 199.88 317.06 195.52 326.39 193.62 M 308.03 214.74 C 318.83 225.35 329.52 236.08 340.13 246.87 C 350.86 236.20 361.48 225.42 372.25 214.79 C 354.15 200.12 326.15 200.09 308.03 214.74 M 287.64 256.00 C 287.75 267.59 291.57 279.16 298.77 288.30 C 309.46 277.52 320.22 266.82 330.94 256.06 C 320.16 245.41 309.49 234.64 298.79 223.92 C 291.61 232.98 287.82 244.48 287.64 256.00 M 349.36 256.09 C 360.25 266.57 370.57 277.65 381.57 287.99 C 388.04 280.09 391.45 270.03 392.44 259.95 C 393.42 247.20 389.30 234.34 381.74 224.11 C 370.69 234.50 360.39 245.67 349.36 256.09 M 308.12 297.78 C 314.16 301.99 320.79 305.58 328.07 307.06 C 343.22 311.07 359.76 306.93 372.21 297.70 C 361.80 286.65 350.80 276.19 340.17 265.36 C 329.68 276.35 318.59 286.77 308.12 297.78 Z" />
<path fill="#c00000" opacity="1.00" d=" M 308.03 214.74 C 326.15 200.09 354.15 200.12 372.25 214.79 C 361.48 225.42 350.86 236.20 340.13 246.87 C 329.52 236.08 318.83 225.35 308.03 214.74 Z" />
<path fill="#c00000" opacity="1.00" d=" M 287.64 256.00 C 287.82 244.48 291.61 232.98 298.79 223.92 C 309.49 234.64 320.16 245.41 330.94 256.06 C 320.22 266.82 309.46 277.52 298.77 288.30 C 291.57 279.16 287.75 267.59 287.64 256.00 Z" />
<path fill="#c00000" opacity="1.00" d=" M 349.36 256.09 C 360.39 245.67 370.69 234.50 381.74 224.11 C 389.30 234.34 393.42 247.20 392.44 259.95 C 391.45 270.03 388.04 280.09 381.57 287.99 C 370.57 277.65 360.25 266.57 349.36 256.09 Z" />
<path fill="#c00000" opacity="1.00" d=" M 308.12 297.78 C 318.59 286.77 329.68 276.35 340.17 265.36 C 350.80 276.19 361.80 286.65 372.21 297.70 C 359.76 306.93 343.22 311.07 328.07 307.06 C 320.79 305.58 314.16 301.99 308.12 297.78 Z" />
</svg>
