<?xml version="1.0" encoding="UTF-8" ?>
<!DOCTYPE svg PUBLIC "-//W3C//DTD SVG 1.1//EN" "http://www.w3.org/Graphics/SVG/1.1/DTD/svg11.dtd">
<svg width="512pt" height="512pt" viewBox="0 0 512 512" version="1.1" xmlns="http://www.w3.org/2000/svg">
<path fill="#f26522" opacity="1.00" d=" M 0.00 0.00 L 512.00 0.00 L 512.00 512.00 L 0.00 512.00 L 0.00 0.00 M 257.48 157.68 C 255.55 158.50 254.07 160.03 252.50 161.37 C 233.87 177.47 215.21 193.52 196.60 209.64 C 195.55 210.44 194.51 211.65 193.03 211.38 C 175.00 211.36 156.97 211.38 138.95 211.37 C 134.13 211.00 129.07 214.94 129.18 219.97 C 128.99 240.99 129.22 262.01 129.11 283.03 C 128.99 286.73 128.63 290.53 129.66 294.15 C 131.03 297.38 134.32 299.89 137.91 299.79 C 155.96 299.90 174.02 299.78 192.07 299.84 C 193.43 299.66 194.48 300.66 195.45 301.44 C 215.30 318.61 235.18 335.73 255.04 352.89 C 258.90 356.34 265.52 355.76 268.52 351.47 C 270.96 348.54 270.27 344.55 270.36 341.04 C 270.35 284.35 270.35 227.67 270.36 170.99 C 270.25 167.68 270.92 163.99 268.88 161.11 C 266.58 157.39 261.45 155.86 257.48 157.68 M 315.31 182.50 C 311.05 184.25 308.49 189.56 310.26 193.92 C 311.35 196.58 313.32 198.74 314.85 201.14 C 328.33 221.46 333.97 246.82 330.35 270.94 C 328.10 286.94 321.82 302.34 312.33 315.41 C 309.51 318.79 309.31 324.27 312.42 327.53 C 315.82 331.73 323.03 331.64 326.33 327.35 C 341.60 306.96 350.02 281.49 349.74 256.01 C 349.83 230.81 341.38 205.73 326.36 185.53 C 323.95 182.14 319.12 180.69 315.31 182.50 M 289.31 208.41 C 284.79 210.31 282.40 216.13 284.67 220.58 C 286.54 224.21 288.91 227.59 290.34 231.45 C 298.57 250.41 296.61 273.20 285.61 290.65 C 281.69 296.23 286.18 304.86 293.01 304.73 C 297.85 305.18 301.30 301.09 303.12 297.10 C 318.16 271.00 317.19 236.63 300.50 211.54 C 298.10 208.05 293.17 206.48 289.31 208.41 Z" />
<path fill="#ffffff" opacity="1.00" d=" M 257.48 157.68 C 261.45 155.86 266.58 157.39 268.88 161.11 C 270.92 163.99 270.25 167.68 270.36 170.99 C 270.35 227.67 270.35 284.35 270.36 341.04 C 270.27 344.55 270.96 348.54 268.52 351.47 C 265.52 355.76 258.90 356.34 255.04 352.89 C 235.18 335.73 215.30 318.61 195.45 301.44 C 194.48 300.66 193.43 299.66 192.07 299.84 C 174.02 299.78 155.96 299.90 137.91 299.79 C 134.32 299.89 131.03 297.38 129.66 294.15 C 128.63 290.53 128.99 286.73 129.11 283.03 C 129.22 262.01 128.99 240.99 129.18 219.97 C 129.07 214.94 134.13 211.00 138.95 211.37 C 156.97 211.38 175.00 211.36 193.03 211.38 C 194.51 211.65 195.55 210.44 196.60 209.64 C 215.21 193.52 233.87 177.47 252.50 161.37 C 254.07 160.03 255.55 158.50 257.48 157.68 Z" />
<path fill="#ffffff" opacity="1.00" d=" M 315.31 182.50 C 319.12 180.69 323.95 182.14 326.36 185.53 C 341.38 205.73 349.83 230.81 349.74 256.01 C 350.02 281.49 341.60 306.96 326.33 327.35 C 323.03 331.64 315.82 331.73 312.42 327.53 C 309.31 324.27 309.51 318.79 312.33 315.41 C 321.82 302.34 328.10 286.94 330.35 270.94 C 333.97 246.82 328.33 221.46 314.85 201.14 C 313.32 198.74 311.35 196.58 310.26 193.92 C 308.49 189.56 311.05 184.25 315.31 182.50 Z" />
<path fill="#ffffff" opacity="1.00" d=" M 289.31 208.41 C 293.17 206.48 298.10 208.05 300.50 211.54 C 317.19 236.63 318.16 271.00 303.12 297.10 C 301.30 301.09 297.85 305.18 293.01 304.73 C 286.18 304.86 281.69 296.23 285.61 290.65 C 296.61 273.20 298.57 250.41 290.34 231.45 C 288.91 227.59 286.54 224.21 284.67 220.58 C 282.40 216.13 284.79 210.31 289.31 208.41 Z" />
</svg>
