<?xml version="1.0" encoding="UTF-8" ?>
<!DOCTYPE svg PUBLIC "-//W3C//DTD SVG 1.1//EN" "http://www.w3.org/Graphics/SVG/1.1/DTD/svg11.dtd">
<svg width="512pt" height="512pt" viewBox="0 0 512 512" version="1.1" xmlns="http://www.w3.org/2000/svg">
<path fill="#ed1c24" opacity="1.00" d=" M 0.00 0.00 L 512.00 0.00 L 512.00 512.00 L 0.00 512.00 L 0.00 0.00 Z" />
<path fill="#ffffff" opacity="1.00" d=" M 166.23 149.32 C 177.01 141.00 190.21 135.11 204.00 135.15 C 229.14 134.03 251.92 146.39 274.31 156.07 C 274.35 195.86 274.44 235.65 274.27 275.43 C 253.33 266.33 232.28 255.22 209.00 254.25 C 193.18 253.31 177.70 259.45 165.42 269.14 C 165.26 230.43 165.44 191.71 165.33 152.99 C 165.53 151.79 164.82 150.01 166.23 149.32 Z" />
<path fill="#ffffff" opacity="1.00" d=" M 136.76 138.88 C 143.43 138.92 150.12 138.61 156.78 139.05 C 156.82 218.30 156.75 297.55 156.81 376.80 C 150.12 376.83 143.42 376.81 136.72 376.81 C 136.75 297.50 136.67 218.19 136.76 138.88 Z" />
<path fill="#ffffff" opacity="1.00" d=" M 370.85 153.80 C 372.21 152.62 373.59 151.41 375.33 150.81 C 375.56 190.54 375.39 230.27 375.41 270.00 C 370.11 274.19 364.97 278.67 358.87 281.70 C 349.13 274.46 337.23 269.65 324.98 269.75 C 312.92 269.25 300.95 273.43 291.15 280.33 C 288.43 280.67 286.17 278.63 283.57 278.15 C 283.35 238.20 283.41 198.25 283.54 158.30 C 300.38 165.30 318.53 171.55 337.03 169.22 C 349.52 167.55 361.27 161.90 370.85 153.80 Z" />
<path fill="#ffffff" opacity="1.00" d=" M 315.24 275.23 C 326.61 273.28 338.68 275.20 348.76 280.87 C 361.37 287.64 370.68 300.10 373.82 314.05 C 376.04 324.38 375.32 335.42 371.25 345.22 C 365.62 359.21 353.35 370.25 338.91 374.54 C 326.16 378.37 311.91 377.12 300.13 370.86 C 287.76 364.44 278.33 352.72 274.72 339.27 C 271.87 328.36 272.39 316.48 276.76 306.04 C 283.13 290.03 298.27 278.03 315.24 275.23 Z" />
<path fill="#ed1c24" opacity="1.00" d=" M 292.02 309.12 C 297.29 304.03 302.42 298.79 307.61 293.61 C 313.01 299.14 318.46 304.62 324.00 310.01 C 329.57 304.62 335.00 299.10 340.45 293.61 C 345.57 298.83 350.74 304.02 356.00 309.12 C 350.54 314.49 345.19 319.98 339.70 325.32 C 344.65 331.31 350.60 336.44 356.01 342.03 C 350.76 347.17 345.58 352.37 340.42 357.59 C 335.02 352.06 329.58 346.56 324.01 341.20 C 318.44 346.56 312.99 352.05 307.60 357.59 C 302.43 352.38 297.25 347.17 292.01 342.03 C 297.38 336.70 302.83 331.43 308.04 325.95 L 307.97 325.19 C 302.82 319.68 297.32 314.49 292.02 309.12 Z" />
</svg>
