<?xml version="1.0" encoding="UTF-8" ?>
<!DOCTYPE svg PUBLIC "-//W3C//DTD SVG 1.1//EN" "http://www.w3.org/Graphics/SVG/1.1/DTD/svg11.dtd">
<svg width="512pt" height="512pt" viewBox="0 0 512 512" version="1.1" xmlns="http://www.w3.org/2000/svg">
<path fill="#4e50a2" opacity="1.00" d=" M 0.00 0.00 L 512.00 0.00 L 512.00 512.00 L 0.00 512.00 L 0.00 0.00 Z" />
<path fill="#ffffff" opacity="1.00" d=" M 197.52 145.59 C 201.54 144.86 205.68 144.94 209.74 145.28 C 211.37 145.60 211.35 147.64 211.32 148.94 C 211.25 172.38 211.32 195.81 211.29 219.25 C 206.64 219.24 201.99 219.24 197.34 219.27 C 197.41 194.71 197.05 170.14 197.52 145.59 Z" />
<path fill="#ffffff" opacity="1.00" d=" M 153.78 228.82 C 154.81 224.32 159.53 221.33 164.05 221.71 C 217.04 221.72 270.03 221.75 323.02 221.69 C 326.58 221.44 330.50 222.28 332.79 225.25 C 337.03 230.32 334.70 237.36 335.17 243.36 C 328.91 243.39 322.65 243.33 316.39 243.41 C 316.37 236.85 316.38 230.30 316.39 223.75 C 313.12 223.73 309.86 223.74 306.60 223.75 C 306.60 230.30 306.61 236.86 306.60 243.41 C 304.01 243.38 301.43 243.37 298.85 243.35 C 298.77 236.81 298.83 230.27 298.81 223.74 C 295.63 223.74 292.45 223.74 289.28 223.74 C 289.27 230.29 289.30 236.83 289.26 243.38 C 286.23 243.37 283.20 243.37 280.18 243.39 C 280.09 237.15 280.31 230.91 280.11 224.68 C 279.94 224.46 279.61 224.00 279.45 223.78 C 276.37 223.59 273.29 223.79 270.21 223.74 C 270.16 230.43 270.32 237.12 270.12 243.80 C 268.72 245.53 267.63 247.57 267.77 249.87 C 267.74 260.78 267.73 271.69 267.79 282.61 C 259.60 282.52 251.40 282.52 243.21 282.61 C 243.31 272.41 243.19 262.21 243.28 252.01 C 243.20 249.68 243.38 247.06 241.89 245.10 C 240.40 243.52 238.10 243.37 236.07 243.35 C 221.87 243.38 207.67 243.37 193.47 243.36 C 191.31 240.23 188.06 237.31 183.98 237.57 C 180.09 237.49 177.05 240.29 175.05 243.34 C 167.94 243.41 160.82 243.35 153.71 243.37 C 153.64 238.52 153.35 233.66 153.78 228.82 Z" />
<path fill="#4e50a2" opacity="1.00" d=" M 252.51 223.73 C 255.77 223.73 259.03 223.74 262.29 223.75 C 262.27 232.56 262.30 241.37 262.27 250.18 C 259.02 250.17 255.78 250.18 252.53 250.19 C 252.47 241.37 252.51 232.55 252.51 223.73 Z" />
<path fill="#ffffff" opacity="1.00" d=" M 78.76 248.12 C 132.01 248.15 185.26 248.15 238.51 248.11 C 238.51 285.83 238.50 323.54 238.52 361.25 C 185.27 361.23 132.01 361.24 78.76 361.25 C 78.76 323.54 78.75 285.83 78.76 248.12 Z" />
<path fill="#ffffff" opacity="1.00" d=" M 272.49 248.11 C 325.74 248.15 378.99 248.14 432.24 248.12 C 432.25 285.83 432.24 323.54 432.24 361.25 C 378.99 361.24 325.73 361.23 272.48 361.25 C 272.50 323.54 272.48 285.83 272.49 248.11 Z" />
<path fill="#4e50a2" opacity="1.00" d=" M 83.67 252.85 C 133.53 252.85 183.39 252.84 233.25 252.85 C 233.30 283.11 233.23 313.37 233.28 343.63 C 183.40 343.66 133.52 343.66 83.64 343.64 C 83.69 313.37 83.62 283.11 83.67 252.85 Z" />
<path fill="#4e50a2" opacity="1.00" d=" M 277.45 343.66 C 277.51 313.38 277.40 283.11 277.50 252.84 C 327.25 252.84 377.00 252.89 426.75 252.81 C 427.74 265.19 426.70 277.62 426.87 290.02 C 426.90 307.90 426.97 325.77 426.89 343.65 C 377.07 343.65 327.26 343.65 277.45 343.66 Z" />
<path fill="#ffffff" opacity="1.00" d=" M 153.78 257.59 C 178.62 257.65 203.46 257.63 228.30 257.60 C 228.32 265.89 228.29 274.19 228.32 282.48 C 206.54 282.64 184.76 282.51 162.98 282.55 C 158.28 282.88 153.59 278.79 153.63 274.00 C 153.56 268.53 153.50 263.06 153.78 257.59 Z" />
<path fill="#ffffff" opacity="1.00" d=" M 282.22 257.59 C 299.86 257.66 317.50 257.61 335.14 257.61 C 335.30 262.41 335.26 267.22 335.28 272.02 C 335.57 277.13 331.45 282.58 326.09 282.53 C 311.48 282.59 296.86 282.54 282.25 282.54 C 282.26 274.22 282.30 265.91 282.22 257.59 Z" />
</svg>
