<?xml version="1.0" encoding="UTF-8" ?>
<!DOCTYPE svg PUBLIC "-//W3C//DTD SVG 1.1//EN" "http://www.w3.org/Graphics/SVG/1.1/DTD/svg11.dtd">
<svg width="512pt" height="512pt" viewBox="0 0 512 512" version="1.1" xmlns="http://www.w3.org/2000/svg">
<path fill="#0072bc" opacity="1.00" d=" M 0.00 0.00 L 512.00 0.00 L 512.00 512.00 L 0.00 512.00 L 0.00 0.00 Z" />
<path fill="#ffffff" opacity="1.00" d=" M 228.16 109.01 C 250.33 109.65 272.53 109.52 294.67 110.47 C 302.59 115.14 310.18 120.37 318.06 125.10 C 319.24 125.76 320.29 126.62 321.15 127.67 C 300.78 127.76 280.41 127.64 260.05 127.73 C 258.67 127.63 257.15 127.96 255.94 127.14 C 247.52 121.86 239.19 116.43 230.75 111.18 C 229.81 110.55 228.94 109.83 228.16 109.01 Z" />
<path fill="#ffffff" opacity="1.00" d=" M 220.41 114.81 C 231.57 121.49 242.55 128.50 253.39 135.68 C 252.37 145.36 252.47 155.12 252.15 164.85 C 250.51 164.22 248.94 163.45 247.45 162.54 C 238.62 157.32 229.56 152.50 220.79 147.17 C 220.81 136.38 220.47 125.60 220.41 114.81 Z" />
<path fill="#ffffff" opacity="1.00" d=" M 259.43 245.94 C 259.41 208.51 259.42 171.07 259.42 133.64 C 281.88 133.68 304.33 133.65 326.78 133.66 C 326.78 166.74 326.75 199.83 326.79 232.91 C 321.62 233.72 316.54 235.00 311.37 235.79 C 311.39 223.34 311.37 210.90 311.39 198.45 C 305.33 198.44 299.27 198.46 293.22 198.43 C 293.20 211.23 293.23 224.03 293.20 236.84 C 295.37 236.84 297.55 236.87 299.72 237.00 C 298.80 238.09 297.52 238.67 296.13 238.82 C 283.90 241.22 271.58 243.18 259.43 245.94 Z" />
<path fill="#ffffff" opacity="1.00" d=" M 126.80 150.83 C 156.17 151.49 185.57 151.23 214.95 151.51 C 216.17 151.40 217.11 152.23 218.08 152.83 C 225.21 157.73 232.44 162.49 239.61 167.33 C 241.56 168.70 243.86 169.70 245.25 171.71 C 215.84 172.46 186.40 172.29 156.98 172.49 C 148.24 166.40 139.42 160.42 130.61 154.43 C 129.22 153.37 127.26 152.73 126.80 150.83 Z" />
<path fill="#0072bc" opacity="1.00" d=" M 269.75 151.60 C 275.71 151.50 281.67 151.60 287.64 151.52 C 287.73 164.51 287.67 177.49 287.67 190.47 C 281.69 190.41 275.72 190.48 269.74 190.42 C 269.76 177.48 269.75 164.54 269.75 151.60 Z" />
<path fill="#0072bc" opacity="1.00" d=" M 293.17 151.63 C 299.24 151.47 305.31 151.57 311.38 151.57 C 311.38 164.53 311.39 177.49 311.38 190.45 C 305.32 190.44 299.26 190.44 293.20 190.45 C 293.20 177.51 293.26 164.57 293.17 151.63 Z" />
<path fill="#ffffff" opacity="1.00" d=" M 120.08 157.98 C 130.00 164.67 139.81 171.53 149.73 178.21 C 150.60 178.92 151.93 179.44 152.09 180.70 C 151.52 237.84 151.79 295.03 151.46 352.19 C 141.59 352.39 131.73 352.67 121.86 352.79 C 121.33 318.87 121.64 284.93 120.81 251.02 C 120.75 220.01 120.31 189.00 120.08 157.98 Z" />
<path fill="#ffffff" opacity="1.00" d=" M 158.31 178.38 C 189.97 178.41 221.62 178.32 253.27 178.43 C 253.25 236.51 253.19 294.59 253.30 352.67 C 221.65 352.97 189.98 352.72 158.32 352.80 C 158.34 294.66 158.36 236.52 158.31 178.38 Z" />
<path fill="#0072bc" opacity="1.00" d=" M 269.74 198.48 C 275.72 198.41 281.70 198.48 287.68 198.43 C 287.55 211.35 287.95 224.30 287.48 237.21 C 281.56 237.03 275.63 237.40 269.74 236.74 C 269.76 223.99 269.76 211.23 269.74 198.48 Z" />
<path fill="#0072bc" opacity="1.00" d=" M 172.69 201.77 C 182.23 201.78 191.77 201.78 201.31 201.77 C 201.30 211.98 201.28 222.20 201.31 232.41 C 191.77 232.42 182.22 232.41 172.68 232.41 C 172.70 222.20 172.68 211.99 172.69 201.77 Z" />
<path fill="#0072bc" opacity="1.00" d=" M 209.81 201.79 C 219.36 201.76 228.90 201.80 238.44 201.76 C 238.46 211.98 238.42 222.20 238.47 232.42 C 228.91 232.39 219.36 232.45 209.80 232.39 C 209.83 222.19 209.81 211.99 209.81 201.79 Z" />
<path fill="#ffffff" opacity="1.00" d=" M 262.46 251.83 C 283.66 247.93 304.80 243.69 325.99 239.70 C 327.98 239.49 329.92 240.15 331.86 240.47 C 351.70 244.23 371.51 248.16 391.36 251.85 C 391.37 281.22 391.41 310.59 391.34 339.95 C 389.91 352.11 382.68 362.72 374.40 371.38 C 362.08 383.80 346.94 393.05 331.16 400.40 C 329.19 401.22 326.98 402.58 324.88 401.35 C 312.10 395.75 299.88 388.73 288.97 380.01 C 278.73 371.83 269.47 361.74 264.73 349.34 C 263.56 346.02 262.36 342.60 262.41 339.03 C 262.45 309.97 262.36 280.90 262.46 251.83 Z" />
<path fill="#0072bc" opacity="1.00" d=" M 172.66 249.35 C 182.22 249.34 191.78 249.32 201.34 249.36 C 201.27 259.40 201.29 269.45 201.33 279.50 C 191.77 279.50 182.22 279.49 172.67 279.50 C 172.69 269.45 172.71 259.40 172.66 249.35 Z" />
<path fill="#0072bc" opacity="1.00" d=" M 209.78 249.39 C 219.35 249.27 228.91 249.38 238.48 249.33 C 238.42 259.39 238.43 269.45 238.47 279.51 C 228.91 279.46 219.35 279.54 209.80 279.47 C 209.82 269.44 209.84 259.42 209.78 249.39 Z" />
<path fill="#0072bc" opacity="1.00" d=" M 172.67 297.58 C 182.22 297.58 191.77 297.58 201.32 297.58 C 201.27 307.80 201.30 318.01 201.31 328.23 C 191.77 328.22 182.23 328.22 172.69 328.23 C 172.67 318.01 172.70 307.79 172.67 297.58 Z" />
<path fill="#0072bc" opacity="1.00" d=" M 209.81 297.61 C 219.36 297.54 228.91 297.61 238.47 297.57 C 238.42 307.79 238.45 318.01 238.45 328.23 C 228.91 328.20 219.36 328.24 209.82 328.21 C 209.81 318.01 209.83 307.81 209.81 297.61 Z" />
</svg>
