<?xml version="1.0" encoding="UTF-8" ?>
<!DOCTYPE svg PUBLIC "-//W3C//DTD SVG 1.1//EN" "http://www.w3.org/Graphics/SVG/1.1/DTD/svg11.dtd">
<svg width="512pt" height="512pt" viewBox="0 0 512 512" version="1.1" xmlns="http://www.w3.org/2000/svg">
<path fill="#0072bc" opacity="1.00" d=" M 0.00 0.00 L 512.00 0.00 L 512.00 512.00 L 0.00 512.00 L 0.00 0.00 M 121.91 152.09 C 121.89 210.73 121.94 269.37 121.89 328.02 C 121.92 329.40 122.00 330.78 122.13 332.17 C 161.71 341.87 201.22 351.91 240.75 361.83 C 240.90 350.23 240.31 338.60 241.19 327.03 C 241.17 303.83 241.15 280.63 241.20 257.44 C 228.73 257.33 216.25 257.43 203.78 257.39 C 203.80 247.31 203.80 237.24 203.78 227.17 C 216.24 227.17 228.70 227.16 241.16 227.18 C 241.19 212.07 241.18 196.97 241.16 181.87 C 201.40 172.01 161.70 161.86 121.91 152.09 M 271.29 181.79 C 271.26 196.93 271.22 212.07 271.32 227.21 C 283.68 227.10 296.05 227.23 308.42 227.14 C 308.43 237.22 308.38 247.31 308.45 257.40 C 296.05 257.37 283.64 257.42 271.24 257.37 C 271.30 292.20 271.25 327.03 271.26 361.86 C 310.91 351.82 350.58 341.85 390.28 332.04 C 390.31 272.04 390.29 212.04 390.29 152.04 C 350.61 161.90 310.99 172.00 271.29 181.79 Z" />
<path fill="#ffffff" opacity="1.00" d=" M 121.91 152.09 C 161.70 161.86 201.40 172.01 241.16 181.87 C 241.18 196.97 241.19 212.07 241.16 227.18 C 228.70 227.16 216.24 227.17 203.78 227.17 C 203.80 237.24 203.80 247.31 203.78 257.39 C 216.25 257.43 228.73 257.33 241.20 257.44 C 241.15 280.63 241.17 303.83 241.19 327.03 C 240.31 338.60 240.90 350.23 240.75 361.83 C 201.22 351.91 161.71 341.87 122.13 332.17 C 122.00 330.78 121.92 329.40 121.89 328.02 C 121.94 269.37 121.89 210.73 121.91 152.09 Z" />
<path fill="#ffffff" opacity="1.00" d=" M 271.29 181.79 C 310.99 172.00 350.61 161.90 390.29 152.04 C 390.29 212.04 390.31 272.04 390.28 332.04 C 350.58 341.85 310.91 351.82 271.26 361.86 C 271.25 327.03 271.30 292.20 271.24 257.37 C 283.64 257.42 296.05 257.37 308.45 257.40 C 308.38 247.31 308.43 237.22 308.42 227.14 C 296.05 227.23 283.68 227.10 271.32 227.21 C 271.22 212.07 271.26 196.93 271.29 181.79 Z" />
</svg>
