<?xml version="1.0" encoding="UTF-8" ?>
<!DOCTYPE svg PUBLIC "-//W3C//DTD SVG 1.1//EN" "http://www.w3.org/Graphics/SVG/1.1/DTD/svg11.dtd">
<svg width="512pt" height="512pt" viewBox="0 0 512 512" version="1.1" xmlns="http://www.w3.org/2000/svg">
<path fill="#ef9c00" opacity="1.00" d=" M 0.00 0.00 L 512.00 0.00 L 512.00 512.00 L 0.00 512.00 L 0.00 0.00 Z" />
<path fill="#ffffff" opacity="1.00" d=" M 248.23 113.30 C 254.96 113.31 261.70 113.16 268.43 113.38 C 271.61 131.20 275.03 148.97 278.40 166.75 C 264.99 166.70 251.59 166.75 238.18 166.72 C 241.59 148.92 244.86 131.10 248.23 113.30 Z" />
<path fill="#ffffff" opacity="1.00" d=" M 303.54 178.70 C 317.70 167.10 331.89 155.53 346.06 143.94 C 351.42 148.08 356.43 152.65 361.72 156.90 C 352.67 172.78 343.70 188.70 334.77 204.65 C 324.27 196.11 314.04 187.24 303.54 178.70 Z" />
<path fill="#ffffff" opacity="1.00" d=" M 145.85 163.91 C 149.92 158.49 154.48 153.46 158.80 148.24 C 174.58 157.28 190.42 166.25 206.33 175.07 C 197.58 185.33 189.14 195.86 180.27 206.01 C 168.85 191.93 157.39 177.88 145.85 163.91 Z" />
<path fill="#ffffff" opacity="1.00" d=" M 245.40 176.68 C 261.76 173.95 278.99 176.62 293.72 184.25 C 306.96 190.97 318.12 201.61 325.58 214.44 C 334.27 229.26 337.87 247.05 335.48 264.07 C 333.30 280.99 325.32 297.11 313.14 309.05 C 298.29 324.07 277.05 332.49 255.95 331.72 C 226.42 331.38 198.35 312.33 186.67 285.28 C 178.47 266.78 177.88 245.03 185.07 226.12 C 194.54 200.50 218.38 180.87 245.40 176.68 Z" />
<path fill="#ef9c00" opacity="1.00" d=" M 249.46 215.67 C 260.90 212.98 273.48 215.90 282.57 223.35 C 290.67 229.81 295.98 239.62 296.93 249.95 C 298.75 265.85 289.47 282.15 275.00 288.91 C 262.30 295.13 246.25 293.66 234.97 285.10 C 221.69 275.70 215.85 257.48 220.88 242.05 C 224.87 229.03 236.15 218.59 249.46 215.67 Z" />
<path fill="#ffffff" opacity="1.00" d=" M 113.54 243.76 C 131.52 240.31 149.54 237.09 167.49 233.54 C 167.49 247.03 167.52 260.52 167.47 274.02 C 149.48 270.91 131.59 267.20 113.59 264.07 C 113.50 257.30 113.58 250.53 113.54 243.76 Z" />
<path fill="#ffffff" opacity="1.00" d=" M 345.52 233.54 C 363.47 237.08 381.48 240.32 399.46 243.76 C 399.42 250.53 399.51 257.30 399.40 264.07 C 381.41 267.24 363.50 270.85 345.52 274.06 C 345.49 260.56 345.49 247.05 345.52 233.54 Z" />
<path fill="#ffffff" opacity="1.00" d=" M 176.22 301.39 C 185.79 308.87 194.84 317.02 204.27 324.70 C 205.35 325.52 206.31 326.48 207.18 327.53 C 193.01 338.90 179.09 350.58 165.01 362.05 C 159.80 357.75 154.64 353.39 149.49 349.02 C 158.48 333.18 167.44 317.33 176.22 301.39 Z" />
<path fill="#ffffff" opacity="1.00" d=" M 331.23 304.85 C 343.05 318.76 354.45 333.02 366.09 347.08 C 361.87 352.36 357.38 357.41 353.11 362.65 C 337.24 353.61 321.31 344.68 305.35 335.81 C 313.89 325.42 322.71 315.26 331.23 304.85 Z" />
<path fill="#ffffff" opacity="1.00" d=" M 238.17 345.51 C 251.60 345.51 265.04 345.49 278.47 345.52 C 274.95 363.29 271.72 381.12 268.39 398.93 C 261.64 399.04 254.87 399.13 248.12 398.87 C 244.92 381.06 241.50 363.29 238.17 345.51 Z" />
</svg>
