<?xml version="1.0" encoding="UTF-8" ?>
<!DOCTYPE svg PUBLIC "-//W3C//DTD SVG 1.1//EN" "http://www.w3.org/Graphics/SVG/1.1/DTD/svg11.dtd">
<svg width="512pt" height="512pt" viewBox="0 0 512 512" version="1.1" xmlns="http://www.w3.org/2000/svg">
<path fill="#04aeda" opacity="1.00" d=" M 0.00 0.00 L 512.00 0.00 L 512.00 512.00 L 0.00 512.00 L 0.00 0.00 Z" />
<path fill="#ffffff" opacity="1.00" d=" M 190.89 135.00 C 207.66 124.39 227.07 117.55 247.01 116.98 C 263.68 116.46 281.07 119.56 295.27 128.74 C 306.98 136.17 315.75 148.29 318.60 161.92 C 321.13 173.65 320.58 186.10 316.66 197.47 C 313.21 206.65 307.95 215.11 301.67 222.63 C 290.14 236.76 274.94 247.42 263.85 261.93 C 259.52 267.78 255.43 274.13 254.20 281.44 C 252.00 293.34 255.22 305.40 259.80 316.34 C 249.67 316.44 239.55 316.28 229.43 316.43 C 227.00 310.02 226.14 303.16 225.32 296.40 C 225.08 289.67 224.63 282.80 226.24 276.19 C 227.94 268.55 231.92 261.66 236.27 255.24 C 249.53 235.78 270.60 223.09 282.83 202.81 C 289.65 192.54 291.68 179.08 287.51 167.41 C 284.12 158.07 276.25 150.77 267.11 147.12 C 254.70 142.11 240.72 142.32 227.87 145.48 C 213.54 149.06 200.94 157.67 190.90 168.34 C 190.88 157.23 190.90 146.11 190.89 135.00 Z" />
<path fill="#ffffff" opacity="1.00" d=" M 240.33 353.66 C 252.74 349.46 267.34 359.90 267.24 373.01 C 268.07 383.94 258.65 393.91 247.90 394.55 C 240.68 395.21 233.40 391.65 229.16 385.85 C 224.26 379.21 223.98 369.47 228.53 362.59 C 231.51 358.60 235.45 355.04 240.33 353.66 Z" />
</svg>
