<?xml version="1.0" encoding="UTF-8" ?>
<!DOCTYPE svg PUBLIC "-//W3C//DTD SVG 1.1//EN" "http://www.w3.org/Graphics/SVG/1.1/DTD/svg11.dtd">
<svg width="512pt" height="512pt" viewBox="0 0 512 512" version="1.1" xmlns="http://www.w3.org/2000/svg">
<path fill="#231f20" opacity="1.00" d=" M 0.00 0.00 L 512.00 0.00 L 512.00 512.00 L 0.00 512.00 L 0.00 0.00 Z" />
<path fill="#ffffff" opacity="1.00" d=" M 254.62 166.84 C 256.86 166.19 259.06 167.42 261.22 167.87 C 302.26 179.12 343.35 190.17 384.40 201.39 C 395.86 204.61 407.44 207.40 418.82 210.90 C 415.81 213.04 412.39 214.46 409.11 216.13 C 358.55 241.53 308.01 266.97 257.40 292.26 C 256.47 292.78 255.55 292.78 254.63 292.28 C 222.55 276.24 190.48 260.19 158.49 244.00 C 159.60 264.10 161.39 284.19 163.30 304.24 C 159.85 307.95 155.29 311.25 149.95 310.82 C 145.00 310.93 140.97 307.72 137.53 304.55 C 139.44 281.72 141.27 258.89 142.57 236.03 C 126.12 227.61 109.39 219.70 93.10 210.98 C 114.89 204.53 136.97 198.99 158.87 192.88 C 190.79 184.20 222.72 175.57 254.62 166.84 Z" />
<path fill="#231f20" opacity="1.00" d=" M 242.64 209.71 C 246.40 204.80 253.22 204.04 258.96 204.56 C 262.73 205.15 267.28 206.19 269.22 209.88 C 270.07 212.81 267.16 214.80 264.88 215.85 C 258.92 218.63 252.14 217.63 246.07 215.81 C 215.12 224.10 184.23 232.66 153.27 240.95 C 154.30 261.61 156.22 282.21 157.51 302.84 C 153.49 306.63 146.82 306.78 143.18 302.37 C 144.74 281.08 146.39 259.79 147.48 238.47 C 179.18 229.63 211.00 221.19 242.75 212.49 C 242.72 211.80 242.67 210.40 242.64 209.71 Z" />
<path fill="#ffffff" opacity="1.00" d=" M 180.37 260.34 C 205.48 273.26 230.82 285.71 256.00 298.50 C 281.20 285.74 306.52 273.19 331.69 260.36 C 333.99 274.96 335.72 289.67 337.64 304.33 C 318.00 325.46 292.38 343.11 263.04 346.15 C 258.35 346.43 253.64 346.43 248.96 346.15 C 219.61 343.10 193.98 325.46 174.36 304.32 C 176.32 289.66 177.94 274.92 180.37 260.34 Z" />
</svg>
