<?xml version="1.0" encoding="UTF-8" ?>
<!DOCTYPE svg PUBLIC "-//W3C//DTD SVG 1.1//EN" "http://www.w3.org/Graphics/SVG/1.1/DTD/svg11.dtd">
<svg width="512pt" height="512pt" viewBox="0 0 512 512" version="1.1" xmlns="http://www.w3.org/2000/svg">
<path fill="#004eff" opacity="1.00" d=" M 0.00 0.00 L 512.00 0.00 L 512.00 512.00 L 0.00 512.00 L 0.00 0.00 Z" />
<path fill="#ffffff" opacity="1.00" d=" M 235.52 119.99 C 255.34 117.50 275.81 118.31 295.00 124.19 C 326.03 133.28 353.44 153.86 371.03 180.97 C 385.53 203.12 393.36 229.55 393.21 256.02 C 393.30 280.00 386.86 303.96 374.81 324.70 C 360.01 350.32 336.72 370.97 309.42 382.43 C 288.27 391.49 264.82 394.83 241.95 392.55 C 210.37 389.51 180.07 374.91 157.94 352.18 C 135.26 329.35 121.09 298.24 118.92 266.12 C 118.53 253.72 118.48 241.17 121.15 228.99 C 126.70 200.70 141.55 174.34 162.83 154.89 C 182.80 136.27 208.54 124.04 235.52 119.99 Z" />
<path fill="#004eff" opacity="1.00" d=" M 240.53 135.90 C 256.07 133.98 271.97 134.96 287.11 139.02 C 311.73 145.52 334.11 160.12 350.04 179.98 C 367.32 201.25 377.05 228.58 376.78 256.01 C 377.00 283.89 366.89 311.65 349.05 333.04 C 331.48 354.42 306.31 369.40 279.13 374.63 C 254.59 379.36 228.56 376.50 205.83 366.04 C 178.39 353.66 155.98 330.62 144.39 302.85 C 138.47 289.03 135.45 274.07 134.92 259.07 C 134.16 230.61 143.77 201.93 161.82 179.86 C 181.14 155.83 209.90 139.67 240.53 135.90 Z" />
<path fill="#ffffff" opacity="1.00" d=" M 243.68 159.07 C 243.35 152.73 248.64 146.72 255.03 146.51 C 260.08 146.12 265.04 149.42 266.86 154.10 C 267.94 156.61 267.57 159.40 267.63 162.05 C 267.63 191.66 267.59 221.27 267.65 250.88 C 289.85 263.85 312.07 276.79 334.22 289.84 C 340.50 293.30 341.80 302.75 336.96 307.94 C 333.31 312.26 326.50 313.08 321.74 310.17 C 298.00 296.29 274.25 282.42 250.53 268.49 C 245.86 265.80 243.73 260.19 243.67 255.02 C 243.69 223.04 243.67 191.05 243.68 159.07 Z" />
</svg>
