<?xml version="1.0" encoding="UTF-8" ?>
<!DOCTYPE svg PUBLIC "-//W3C//DTD SVG 1.1//EN" "http://www.w3.org/Graphics/SVG/1.1/DTD/svg11.dtd">
<svg width="512pt" height="512pt" viewBox="0 0 512 512" version="1.1" xmlns="http://www.w3.org/2000/svg">
<path fill="#00a8ec" opacity="1.00" d=" M 0.00 0.00 L 512.00 0.00 L 512.00 512.00 L 0.00 512.00 L 0.00 0.00 Z" />
<path fill="#ffffff" opacity="1.00" d=" M 100.44 152.33 L 101.93 152.08 C 204.86 152.16 307.81 151.98 410.75 152.18 C 359.51 193.81 307.87 235.01 256.54 276.55 C 255.49 277.70 254.23 276.23 253.45 275.55 C 202.46 234.46 151.45 193.38 100.44 152.33 Z" />
<path fill="#ffffff" opacity="1.00" d=" M 91.10 157.09 C 95.46 159.79 99.17 163.64 103.39 166.64 C 140.57 196.80 178.05 226.59 215.15 256.84 C 173.72 290.00 132.42 323.32 91.14 356.66 C 91.02 290.14 91.11 223.61 91.10 157.09 Z" />
<path fill="#ffffff" opacity="1.00" d=" M 382.29 187.25 C 394.92 177.21 407.32 166.80 420.11 157.00 C 420.13 223.24 420.16 289.48 420.10 355.71 C 379.93 323.29 339.70 290.95 299.50 258.57 C 298.75 257.64 296.95 257.28 297.04 255.88 C 325.47 233.02 353.87 210.12 382.29 187.25 Z" />
<path fill="#ffffff" opacity="1.00" d=" M 222.19 263.10 C 223.51 262.90 224.25 264.24 225.25 264.83 C 234.31 272.11 243.34 279.43 252.42 286.68 C 253.87 288.21 256.38 288.09 258.14 287.22 C 268.43 278.89 278.81 270.68 289.03 262.27 C 328.46 293.70 367.59 325.50 406.92 357.06 C 408.19 358.38 410.15 359.05 410.99 360.75 C 307.75 360.87 204.49 360.78 101.24 360.80 C 106.63 355.66 112.88 351.37 118.56 346.50 C 153.13 318.73 187.62 290.86 222.19 263.10 Z" />
</svg>
