<?xml version="1.0" encoding="UTF-8" ?>
<!DOCTYPE svg PUBLIC "-//W3C//DTD SVG 1.1//EN" "http://www.w3.org/Graphics/SVG/1.1/DTD/svg11.dtd">
<svg width="512pt" height="512pt" viewBox="0 0 512 512" version="1.1" xmlns="http://www.w3.org/2000/svg">
<path fill="#df0024" opacity="1.00" d=" M 0.00 0.00 L 512.00 0.00 L 512.00 512.00 L 0.00 512.00 L 0.00 0.00 Z" />
<path fill="#ffffff" opacity="1.00" d=" M 110.00 146.56 C 207.62 146.46 305.26 146.50 402.88 146.55 C 402.61 219.61 402.82 292.68 402.78 365.75 C 305.21 365.78 207.64 365.78 110.07 365.75 C 110.04 292.69 110.19 219.62 110.00 146.56 Z" />
<path fill="#df0024" opacity="1.00" d=" M 159.10 167.26 C 224.35 167.31 289.60 167.28 354.85 167.27 C 322.23 201.44 289.46 235.47 256.96 269.75 C 232.57 244.24 208.15 218.74 183.78 193.22 C 175.62 184.51 167.05 176.09 159.10 167.26 Z" />
<path fill="#df0024" opacity="1.00" d=" M 130.33 167.47 C 139.92 176.88 148.92 187.00 158.40 196.57 C 191.21 230.97 224.09 265.30 256.95 299.64 C 298.59 255.89 340.38 212.26 382.19 168.67 C 382.28 226.81 382.18 284.97 382.24 343.12 C 383.00 345.20 380.35 345.46 378.98 345.16 C 296.24 345.19 213.50 345.11 130.76 345.20 L 130.43 344.70 C 130.27 285.63 130.47 226.54 130.33 167.47 Z" />
</svg>
