<?xml version="1.0" encoding="UTF-8" ?>
<!DOCTYPE svg PUBLIC "-//W3C//DTD SVG 1.1//EN" "http://www.w3.org/Graphics/SVG/1.1/DTD/svg11.dtd">
<svg width="512pt" height="512pt" viewBox="0 0 512 512" version="1.1" xmlns="http://www.w3.org/2000/svg">
<path fill="#ee5921" opacity="1.00" d=" M 0.00 0.00 L 512.00 0.00 L 512.00 512.00 L 0.00 512.00 L 0.00 0.00 Z" />
<path fill="#ffffff" opacity="1.00" d=" M 237.00 101.90 C 241.82 98.75 246.66 95.63 251.67 92.79 C 245.71 106.40 243.13 121.27 241.06 135.89 C 241.34 136.09 241.91 136.50 242.19 136.70 C 251.14 136.69 260.10 136.46 269.05 136.88 C 281.95 138.32 294.85 140.93 306.84 146.02 C 321.95 152.00 335.22 161.90 346.02 173.96 C 362.90 194.02 373.30 219.13 377.23 244.95 C 380.00 281.02 367.28 317.04 346.16 346.00 C 323.51 376.23 293.55 400.62 260.45 418.62 C 260.57 417.73 260.80 415.94 260.92 415.04 C 264.56 408.35 267.53 401.27 269.47 393.89 C 270.18 389.37 271.89 384.77 270.73 380.18 C 268.64 379.08 266.13 380.33 263.88 380.34 C 241.88 381.44 219.40 377.39 199.76 367.19 C 171.87 352.46 151.35 326.16 140.04 297.06 C 134.38 283.82 134.40 269.09 134.48 254.94 C 135.38 243.81 137.00 232.68 140.25 221.97 C 148.31 194.35 164.09 169.50 183.34 148.32 C 199.14 130.63 217.54 115.41 237.00 101.90 Z" />
<path fill="#ee5921" opacity="1.00" d=" M 250.46 210.58 C 271.18 207.58 292.29 220.66 300.24 239.75 C 305.83 252.66 305.12 268.03 298.50 280.43 C 290.19 296.49 272.08 306.88 254.00 305.60 C 241.10 304.78 228.72 298.29 220.28 288.55 C 211.24 278.10 206.90 263.61 209.42 249.95 C 212.66 229.79 230.06 212.81 250.46 210.58 Z" />
</svg>
