<?xml version="1.0" encoding="UTF-8" ?>
<!DOCTYPE svg PUBLIC "-//W3C//DTD SVG 1.1//EN" "http://www.w3.org/Graphics/SVG/1.1/DTD/svg11.dtd">
<svg width="512pt" height="512pt" viewBox="0 0 512 512" version="1.1" xmlns="http://www.w3.org/2000/svg">
<path fill="#43b51f" opacity="1.00" d=" M 0.00 0.00 L 512.00 0.00 L 512.00 512.00 L 0.00 512.00 L 0.00 0.00 Z" />
<path fill="#ffffff" opacity="1.00" d=" M 221.39 122.24 C 227.20 121.66 232.62 124.57 237.34 127.63 C 239.67 129.46 242.66 131.66 242.56 134.96 C 242.76 152.35 243.21 169.72 243.42 187.11 C 240.64 190.42 237.96 194.07 234.02 196.07 C 230.88 197.73 227.31 199.48 223.68 198.39 C 221.82 185.67 222.74 172.76 221.84 159.98 C 221.63 147.40 221.50 134.82 221.39 122.24 Z" />
<path fill="#ffffff" opacity="1.00" d=" M 177.90 133.87 C 188.70 126.62 201.69 123.59 214.47 122.33 C 215.25 148.23 216.05 174.13 216.79 200.04 C 211.86 202.43 207.23 205.90 204.83 210.96 C 200.79 219.01 202.10 228.93 206.39 236.61 C 219.05 261.41 231.59 286.30 245.64 310.35 C 249.16 315.93 252.27 322.37 258.30 325.66 C 265.57 329.50 274.50 327.58 281.33 323.67 C 301.86 339.75 322.29 355.94 342.84 371.99 C 329.38 380.45 314.22 385.75 298.92 389.74 C 293.97 389.94 288.99 389.86 284.04 389.78 C 261.58 386.09 242.79 371.60 227.20 355.78 C 212.77 340.93 200.45 324.20 188.94 307.03 C 184.36 300.42 180.20 293.52 176.96 286.16 C 164.57 258.08 159.92 227.33 157.58 196.95 C 156.99 185.31 155.15 173.38 158.32 161.94 C 160.72 150.43 168.03 140.20 177.90 133.87 Z" />
<path fill="#ffffff" opacity="1.00" d=" M 286.38 317.96 C 292.00 315.14 297.47 312.01 303.12 309.26 C 307.65 308.48 311.80 311.10 315.33 313.60 C 327.00 322.20 338.35 331.25 349.77 340.19 C 352.76 342.53 355.67 346.07 355.42 350.07 C 353.40 356.04 351.68 362.12 349.59 368.07 C 328.46 351.44 307.46 334.64 286.38 317.96 Z" />
</svg>
