<?xml version="1.0" encoding="UTF-8" ?>
<!DOCTYPE svg PUBLIC "-//W3C//DTD SVG 1.1//EN" "http://www.w3.org/Graphics/SVG/1.1/DTD/svg11.dtd">
<svg width="512pt" height="512pt" viewBox="0 0 512 512" version="1.1" xmlns="http://www.w3.org/2000/svg">
<path fill="#0b7bff" opacity="1.00" d=" M 0.00 0.00 L 512.00 0.00 L 512.00 512.00 L 0.00 512.00 L 0.00 0.00 Z" />
<path fill="#ffffff" opacity="1.00" d=" M 253.92 120.07 C 255.64 119.64 257.42 119.72 259.18 119.67 C 249.69 121.71 241.13 127.64 235.33 135.37 C 227.72 145.49 226.41 159.47 230.71 171.22 C 234.74 182.71 242.82 192.41 252.43 199.73 C 266.56 210.41 284.27 216.24 301.98 216.11 C 315.39 215.65 329.32 211.63 339.04 201.98 C 347.52 193.85 351.66 181.50 349.82 169.91 C 349.29 166.15 348.00 162.56 347.14 158.88 C 353.27 169.74 357.46 182.51 354.80 195.04 C 352.64 206.97 344.74 217.38 334.40 223.52 C 318.54 233.25 298.86 234.61 280.93 231.14 C 260.53 226.96 241.14 216.45 227.65 200.43 C 218.99 189.96 212.77 176.75 213.25 162.93 C 213.47 150.88 219.48 139.23 228.88 131.77 C 236.10 125.86 244.91 122.21 253.92 120.07 Z" />
<path fill="#ffffff" opacity="1.00" d=" M 267.52 121.76 C 281.58 119.32 296.18 122.08 309.10 127.87 C 323.22 134.30 335.89 145.10 342.29 159.46 C 346.61 168.86 347.26 180.24 342.66 189.65 C 338.34 198.69 329.82 205.10 320.52 208.40 C 305.55 213.71 288.84 212.32 274.15 206.75 C 259.33 201.16 245.80 190.99 238.03 176.99 C 232.53 167.19 230.54 154.87 235.20 144.35 C 240.63 131.43 254.15 123.83 267.52 121.76 Z" />
<path fill="#ffffff" opacity="1.00" d=" M 225.65 204.79 C 244.85 226.29 274.02 238.24 302.75 237.18 C 298.92 245.61 295.35 254.16 291.55 262.61 C 288.04 270.33 280.48 275.54 272.45 277.70 C 258.48 281.53 243.23 277.69 231.46 269.63 C 221.50 262.64 213.18 251.60 213.16 238.98 C 212.95 234.28 214.56 229.79 216.53 225.59 C 219.58 218.67 222.58 211.71 225.65 204.79 Z" />
<path fill="#ffffff" opacity="1.00" d=" M 167.88 241.94 C 179.02 227.78 197.07 220.77 214.62 219.27 C 212.39 224.29 209.75 229.27 209.04 234.80 C 207.77 243.98 210.98 253.30 216.26 260.75 C 226.06 274.31 242.36 282.63 258.97 283.47 C 270.24 283.97 282.34 280.65 290.20 272.18 C 295.49 266.81 297.38 259.30 300.73 252.76 C 310.87 264.21 318.72 278.47 319.58 294.01 C 320.51 307.72 315.07 321.65 305.08 331.08 C 292.63 343.13 275.03 348.43 258.01 349.02 C 234.16 349.78 210.28 341.90 191.03 327.91 C 175.43 316.35 162.35 299.93 158.71 280.48 C 155.95 267.11 159.40 252.64 167.88 241.94 Z" />
<path fill="#ffffff" opacity="1.00" d=" M 203.39 340.93 C 208.32 342.87 213.04 345.33 218.09 346.98 C 211.39 361.23 204.55 375.41 197.74 389.60 C 194.19 390.81 190.73 392.30 187.05 393.06 C 185.96 389.62 184.73 386.22 183.46 382.85 C 190.06 368.85 196.89 354.97 203.39 340.93 Z" />
</svg>
