<?xml version="1.0" encoding="UTF-8" ?>
<!DOCTYPE svg PUBLIC "-//W3C//DTD SVG 1.1//EN" "http://www.w3.org/Graphics/SVG/1.1/DTD/svg11.dtd">
<svg width="512pt" height="512pt" viewBox="0 0 512 512" version="1.1" xmlns="http://www.w3.org/2000/svg">
<path fill="#00a8ec" opacity="1.00" d=" M 0.00 0.00 L 512.00 0.00 L 512.00 512.00 L 0.00 512.00 L 0.00 0.00 Z" />
<path fill="#ffffff" opacity="1.00" d=" M 144.48 170.49 C 160.10 154.83 175.81 139.27 191.37 123.55 C 191.27 142.31 191.39 161.07 191.31 179.82 C 226.39 179.79 261.46 179.86 296.54 179.79 C 296.71 201.97 296.59 224.16 296.60 246.35 C 261.50 246.30 226.40 246.35 191.30 246.33 C 191.38 265.07 191.29 283.82 191.35 302.57 C 164.40 275.51 137.34 248.57 110.34 221.55 C 107.44 218.72 104.70 215.72 101.63 213.07 C 116.16 199.14 130.15 184.64 144.48 170.49 Z" />
<path fill="#ffffff" opacity="1.00" d=" M 321.64 210.52 C 344.09 233.01 366.58 255.45 389.05 277.91 C 396.52 285.24 403.70 292.88 411.39 299.99 C 381.22 329.58 351.50 359.64 321.63 389.53 C 321.73 370.76 321.60 352.00 321.70 333.23 C 286.60 333.25 251.50 333.21 216.41 333.25 C 216.36 311.08 216.36 288.90 216.41 266.72 C 251.50 266.77 286.59 266.71 321.68 266.75 C 321.63 248.01 321.70 229.27 321.64 210.52 Z" />
</svg>
