<?xml version="1.0" encoding="UTF-8" ?>
<!DOCTYPE svg PUBLIC "-//W3C//DTD SVG 1.1//EN" "http://www.w3.org/Graphics/SVG/1.1/DTD/svg11.dtd">
<svg width="512pt" height="512pt" viewBox="0 0 512 512" version="1.1" xmlns="http://www.w3.org/2000/svg">
<path fill="#4d0ca6" opacity="1.00" d=" M 0.00 0.00 L 512.00 0.00 L 512.00 512.00 L 0.00 512.00 L 0.00 0.00 Z" />
<path fill="#ffffff" opacity="1.00" d=" M 245.27 112.34 C 261.22 110.76 277.35 112.83 292.87 116.62 C 323.59 124.61 351.41 143.17 370.70 168.38 C 388.74 191.67 399.28 220.59 400.74 249.99 C 400.66 255.68 401.25 261.34 401.46 267.03 C 401.39 292.00 393.98 317.09 379.46 337.51 C 373.31 346.48 365.53 354.15 357.49 361.42 C 340.63 377.94 319.75 390.35 297.09 397.01 C 275.69 403.28 252.84 404.59 230.89 400.61 C 205.59 396.10 181.60 384.60 162.20 367.77 C 137.45 346.47 120.18 316.59 114.36 284.44 C 112.83 276.71 112.07 268.84 111.62 260.98 C 111.30 233.56 118.29 205.94 132.49 182.40 C 149.45 153.99 176.37 131.57 207.59 120.49 C 219.66 115.95 232.45 113.50 245.27 112.34 Z" />
<path fill="#4d0ca6" opacity="1.00" d=" M 243.45 125.90 C 264.91 123.83 286.89 126.98 306.77 135.36 C 307.61 135.70 308.29 136.25 308.82 137.00 C 325.15 157.77 337.21 182.09 342.51 208.05 C 347.26 232.27 346.40 257.85 338.26 281.26 C 329.83 306.31 313.47 328.46 292.51 344.48 C 266.66 364.57 234.29 375.40 201.82 377.54 C 184.03 369.56 168.27 357.18 155.78 342.24 C 136.38 319.12 125.30 289.16 125.18 258.96 C 124.70 232.10 132.77 205.18 147.92 182.99 C 169.31 151.15 205.17 129.38 243.45 125.90 Z" />
<path fill="#ffffff" opacity="1.00" d=" M 224.06 194.49 C 226.84 185.99 229.15 177.34 232.02 168.87 C 234.32 177.50 237.26 185.94 239.77 194.51 C 248.35 194.57 256.94 194.52 265.52 194.53 C 258.50 199.91 251.37 205.16 244.52 210.76 C 247.60 218.96 249.78 227.47 252.46 235.81 C 245.43 230.91 238.77 225.48 231.97 220.26 C 225.08 225.52 218.19 230.78 211.38 236.12 C 213.75 227.46 216.85 218.98 218.98 210.25 C 212.00 205.12 205.24 199.69 198.29 194.53 C 206.88 194.51 215.47 194.60 224.06 194.49 Z" />
<path fill="#ffffff" opacity="1.00" d=" M 293.80 200.27 C 296.13 207.28 297.69 214.58 300.52 221.41 C 307.32 221.22 314.13 221.37 320.94 221.31 C 315.35 225.54 309.82 229.85 304.18 234.02 C 306.09 240.82 308.52 247.47 310.34 254.30 C 304.53 250.74 299.35 246.21 293.92 242.09 C 288.13 246.17 282.62 250.63 276.99 254.92 C 279.08 247.97 281.10 241.00 283.38 234.12 C 277.76 229.89 272.29 225.46 266.52 221.46 C 273.39 221.15 280.28 221.39 287.17 221.34 C 289.66 214.40 291.50 207.26 293.80 200.27 Z" />
<path fill="#ffffff" opacity="1.00" d=" M 242.43 269.56 C 244.14 264.90 245.19 260.03 246.86 255.35 C 248.13 260.06 249.79 264.65 250.93 269.39 C 255.79 269.69 260.65 269.48 265.51 269.50 C 261.67 272.38 257.88 275.34 254.01 278.18 C 255.04 283.02 257.08 287.59 257.94 292.47 C 254.31 289.59 250.83 286.43 246.85 284.04 C 242.74 286.30 239.41 289.80 235.46 292.34 C 236.64 287.76 238.43 283.35 239.59 278.76 C 236.51 275.10 231.88 272.79 228.28 269.55 C 233.00 269.48 237.71 269.54 242.43 269.56 Z" />
</svg>
