<?xml version="1.0" encoding="UTF-8" ?>
<!DOCTYPE svg PUBLIC "-//W3C//DTD SVG 1.1//EN" "http://www.w3.org/Graphics/SVG/1.1/DTD/svg11.dtd">
<svg width="512pt" height="512pt" viewBox="0 0 512 512" version="1.1" xmlns="http://www.w3.org/2000/svg">
<path fill="#3d107b" opacity="1.00" d=" M 0.00 0.00 L 512.00 0.00 L 512.00 512.00 L 0.00 512.00 L 0.00 0.00 Z" />
<path fill="#ffffff" opacity="1.00" d=" M 261.19 102.86 C 288.87 115.08 313.88 133.42 333.77 156.23 C 354.90 180.45 370.17 210.20 375.36 242.06 C 376.97 253.93 378.85 266.03 376.78 277.98 C 374.91 300.37 367.33 322.25 354.93 340.98 C 342.49 359.95 325.16 375.52 305.39 386.56 C 282.73 399.43 256.99 406.25 231.09 408.17 C 197.80 410.50 164.24 403.73 133.61 390.79 C 139.13 390.07 144.74 390.81 150.25 389.96 C 174.91 388.33 199.36 382.41 221.73 371.86 C 246.67 360.10 268.97 342.42 285.17 320.03 C 303.25 295.21 313.45 264.67 313.73 233.95 C 315.08 187.83 295.65 142.82 265.63 108.42 C 264.01 106.68 262.41 104.90 261.19 102.86 Z" />
<path fill="#ffffff" opacity="1.00" d=" M 184.82 152.48 C 187.69 162.24 190.71 171.96 193.72 181.69 C 203.50 181.72 213.27 181.67 223.05 181.70 C 215.10 187.73 207.24 193.89 199.28 199.90 C 202.30 209.58 205.27 219.27 208.26 228.96 C 200.33 223.19 192.63 217.11 184.89 211.10 C 176.96 216.89 169.31 223.06 161.47 228.97 C 164.16 219.24 167.19 209.59 170.31 199.98 C 162.39 193.86 154.42 187.81 146.50 181.68 C 156.36 181.60 166.23 181.91 176.08 181.53 C 178.63 171.74 181.92 162.16 184.82 152.48 Z" />
<path fill="#ffffff" opacity="1.00" d=" M 247.35 212.35 C 250.52 204.51 252.54 196.24 255.02 188.16 C 257.68 196.18 259.78 204.37 262.68 212.31 C 270.47 212.20 278.26 212.30 286.05 212.23 C 279.69 217.10 273.24 221.87 266.98 226.86 C 269.22 234.72 272.22 242.38 273.98 250.36 C 267.72 245.48 261.42 240.64 255.07 235.88 C 248.72 240.81 242.22 245.54 235.99 250.62 C 238.15 242.62 240.89 234.80 243.18 226.85 C 236.94 221.84 230.53 217.06 224.13 212.29 C 231.87 212.26 239.61 212.17 247.35 212.35 Z" />
<path fill="#ffffff" opacity="1.00" d=" M 196.37 267.32 C 198.99 262.45 198.98 256.36 202.08 251.81 C 203.45 257.01 205.03 262.16 206.85 267.22 C 212.20 267.24 217.55 267.20 222.90 267.23 C 218.48 270.42 214.20 273.78 209.86 277.06 C 211.36 282.49 213.17 287.84 214.80 293.24 C 210.41 290.01 206.07 286.72 201.84 283.30 C 197.31 286.55 192.99 290.06 188.51 293.37 C 190.44 288.00 192.01 282.51 193.54 277.01 C 189.19 273.78 184.95 270.40 180.53 267.26 C 185.81 267.21 191.09 267.15 196.37 267.32 Z" />
</svg>
