<?xml version="1.0" encoding="UTF-8" ?>
<!DOCTYPE svg PUBLIC "-//W3C//DTD SVG 1.1//EN" "http://www.w3.org/Graphics/SVG/1.1/DTD/svg11.dtd">
<svg width="512pt" height="512pt" viewBox="0 0 512 512" version="1.1" xmlns="http://www.w3.org/2000/svg">
<path fill="#009f3c" opacity="1.00" d=" M 0.00 0.00 L 512.00 0.00 L 512.00 512.00 L 0.00 512.00 L 0.00 0.00 Z" />
<path fill="#ffffff" opacity="1.00" d=" M 215.53 125.41 C 228.54 121.02 242.27 119.07 255.95 118.42 C 284.13 118.24 312.47 126.22 335.84 142.13 C 359.03 157.73 377.31 180.55 387.26 206.69 C 403.63 248.63 397.27 298.43 370.87 334.91 C 355.69 356.20 334.41 373.14 310.14 382.92 C 274.11 397.78 231.83 396.42 196.91 379.04 C 181.07 371.38 166.86 360.50 155.01 347.53 C 142.12 360.03 129.23 372.53 116.56 385.25 C 116.77 371.15 118.16 357.09 118.68 342.99 C 120.01 322.49 120.91 301.95 122.29 281.45 C 136.21 281.19 150.11 280.33 164.04 280.29 C 172.02 279.45 180.05 279.80 188.05 279.40 C 200.73 278.85 213.41 278.45 226.10 278.11 C 211.77 292.14 197.47 306.21 182.98 320.09 C 203.24 344.13 235.83 356.90 267.03 353.68 C 291.56 351.71 315.03 339.80 331.56 321.64 C 352.98 298.50 362.14 264.62 354.88 233.89 C 349.45 209.72 334.36 187.93 313.74 174.23 C 297.40 163.25 277.71 157.48 258.05 157.54 C 235.83 157.57 213.74 165.37 196.39 179.25 C 173.71 197.15 159.25 225.40 159.17 254.41 C 146.13 254.53 133.10 254.10 120.08 253.74 C 120.40 226.95 129.09 200.40 144.32 178.39 C 161.46 153.62 186.81 134.57 215.53 125.41 Z" />
</svg>
