<?xml version="1.0" encoding="UTF-8" ?>
<!DOCTYPE svg PUBLIC "-//W3C//DTD SVG 1.1//EN" "http://www.w3.org/Graphics/SVG/1.1/DTD/svg11.dtd">
<svg width="512pt" height="512pt" viewBox="0 0 512 512" version="1.1" xmlns="http://www.w3.org/2000/svg">
<path fill="#7a7a7a" opacity="1.00" d=" M 0.00 0.00 L 512.00 0.00 L 512.00 512.00 L 0.00 512.00 L 0.00 0.00 Z" />
<path fill="#ffffff" opacity="1.00" d=" M 237.01 131.43 C 250.10 131.31 263.19 131.37 276.28 131.40 C 317.01 200.64 357.68 269.92 398.38 339.19 C 330.95 339.24 263.53 339.57 196.10 339.44 C 203.86 325.93 211.09 312.12 218.78 298.57 C 257.65 298.54 296.51 298.68 335.38 298.63 C 302.77 242.80 269.82 187.14 237.01 131.43 Z" />
<path fill="#ffffff" opacity="1.00" d=" M 235.21 132.92 C 235.51 133.33 236.12 134.15 236.42 134.56 C 268.40 188.58 300.22 242.71 332.21 296.73 C 319.24 296.78 306.26 296.82 293.30 296.71 C 274.61 266.02 256.04 235.27 237.41 204.55 C 236.68 203.61 236.34 202.03 234.94 201.90 C 201.15 261.20 167.11 320.35 133.34 379.66 C 126.31 366.67 120.22 353.13 113.46 339.98 C 154.10 270.99 194.76 202.02 235.21 132.92 Z" />
<path fill="#ffffff" opacity="1.00" d=" M 134.88 380.63 C 168.48 322.14 201.80 263.49 235.46 205.04 C 241.19 214.37 246.77 223.80 252.62 233.06 C 232.84 269.21 212.80 305.22 193.05 341.38 C 261.51 341.42 329.98 341.20 398.45 341.16 C 392.08 354.30 385.51 367.34 379.18 380.50 C 297.75 380.76 216.31 380.68 134.88 380.63 Z" />
</svg>
