<?xml version="1.0" encoding="UTF-8" ?>
<!DOCTYPE svg PUBLIC "-//W3C//DTD SVG 1.1//EN" "http://www.w3.org/Graphics/SVG/1.1/DTD/svg11.dtd">
<svg width="512pt" height="512pt" viewBox="0 0 512 512" version="1.1" xmlns="http://www.w3.org/2000/svg">
<path fill="#00a9ec" opacity="1.00" d=" M 0.00 0.00 L 512.00 0.00 L 512.00 512.00 L 0.00 512.00 L 0.00 0.00 Z" />
<path fill="#ffffff" opacity="1.00" d=" M 134.53 134.72 C 144.77 134.75 155.00 134.71 165.23 134.74 C 165.23 170.51 165.22 206.27 165.23 242.04 C 164.92 246.82 169.17 251.37 173.95 251.39 C 227.62 251.42 281.29 251.38 334.97 251.41 C 340.00 251.79 344.57 247.03 344.49 242.08 C 344.53 206.29 344.49 170.50 344.51 134.72 C 355.20 134.75 365.90 134.73 376.59 134.73 C 376.58 215.58 376.58 296.42 376.59 377.27 C 357.88 377.27 339.17 377.24 320.46 377.29 C 320.43 349.53 320.43 321.78 320.47 294.03 C 320.81 290.74 318.51 287.65 315.55 286.46 C 313.08 285.94 310.52 286.23 308.02 286.18 C 271.34 286.20 234.65 286.18 197.97 286.18 C 193.91 286.06 190.70 290.02 190.82 293.92 C 190.77 321.71 190.84 349.50 190.79 377.28 C 179.24 377.25 167.68 377.26 156.12 377.28 C 148.93 370.08 141.77 362.85 134.53 355.70 C 134.51 282.04 134.50 208.38 134.53 134.72 Z" />
<path fill="#00a9ec" opacity="1.00" d=" M 350.79 152.53 C 356.47 152.45 362.15 152.48 367.84 152.51 C 367.79 158.15 367.81 163.79 367.81 169.43 C 362.14 169.52 356.48 169.53 350.81 169.42 C 350.78 163.79 350.80 158.16 350.79 152.53 Z" />
<path fill="#ffffff" opacity="1.00" d=" M 210.96 319.00 C 211.18 311.24 210.63 303.47 211.26 295.73 C 223.42 296.35 235.63 295.74 247.82 296.18 C 247.72 318.52 247.87 340.86 247.74 363.21 C 235.53 363.20 223.32 363.17 211.11 363.22 C 210.78 348.48 211.20 333.74 210.96 319.00 Z" />
</svg>
