<?xml version="1.0" encoding="UTF-8" ?>
<!DOCTYPE svg PUBLIC "-//W3C//DTD SVG 1.1//EN" "http://www.w3.org/Graphics/SVG/1.1/DTD/svg11.dtd">
<svg width="512pt" height="512pt" viewBox="0 0 512 512" version="1.1" xmlns="http://www.w3.org/2000/svg">
<path fill="#009f3c" opacity="1.00" d=" M 0.00 0.00 L 512.00 0.00 L 512.00 512.00 L 0.00 512.00 L 0.00 0.00 Z" />
<path fill="#ffffff" opacity="1.00" d=" M 277.90 139.53 C 282.22 138.74 286.58 138.21 290.95 137.85 C 310.00 138.22 329.20 144.66 343.58 157.40 C 356.59 168.57 365.76 184.11 369.19 200.92 C 372.49 217.25 370.70 234.65 363.66 249.79 C 354.93 268.95 338.16 284.25 318.28 291.17 C 295.56 299.34 269.35 296.04 249.11 282.96 C 246.97 285.25 244.77 287.48 242.67 289.82 C 242.55 294.47 240.47 298.96 237.09 302.14 C 215.27 323.96 193.46 345.79 171.63 367.60 C 167.26 372.20 160.25 374.40 154.11 372.53 C 147.72 370.94 142.49 365.51 141.17 359.06 C 139.67 353.07 141.84 346.53 146.19 342.25 C 168.01 320.38 189.87 298.55 211.72 276.71 C 214.91 273.44 219.28 271.45 223.84 271.17 C 225.85 269.13 227.81 267.05 229.81 265.00 C 219.50 251.64 213.60 234.92 213.48 218.03 C 213.11 200.42 219.02 182.76 229.84 168.86 C 241.54 153.64 258.97 142.88 277.90 139.53 Z" />
<path fill="#009f3c" opacity="1.00" d=" M 281.54 165.76 C 296.07 162.57 311.82 166.28 323.63 175.25 C 334.39 183.30 341.77 195.68 343.80 208.96 C 346.04 222.81 342.22 237.46 333.70 248.59 C 325.62 259.33 313.18 266.64 299.89 268.61 C 284.96 271.06 269.13 266.23 257.79 256.29 C 247.04 247.01 240.53 233.18 239.85 219.02 C 239.40 206.83 243.37 194.49 250.91 184.88 C 258.39 175.11 269.52 168.28 281.54 165.76 Z" />
</svg>
