<?xml version="1.0" encoding="UTF-8" ?>
<!DOCTYPE svg PUBLIC "-//W3C//DTD SVG 1.1//EN" "http://www.w3.org/Graphics/SVG/1.1/DTD/svg11.dtd">
<svg width="512pt" height="512pt" viewBox="0 0 512 512" version="1.1" xmlns="http://www.w3.org/2000/svg">
<path fill="#146dc9" opacity="1.00" d=" M 0.00 0.00 L 512.00 0.00 L 512.00 512.00 L 0.00 512.00 L 0.00 0.00 M 235.53 133.96 C 190.93 138.73 148.34 159.91 117.60 192.56 C 115.99 194.70 116.48 197.54 116.39 200.04 C 116.21 202.33 117.27 204.50 118.93 206.03 C 122.99 209.98 126.92 214.07 130.99 218.02 C 134.08 220.95 139.07 219.66 141.58 216.60 C 163.75 193.86 192.75 177.79 223.92 171.50 C 245.98 166.96 269.03 167.16 291.03 172.00 C 320.43 178.46 347.90 193.49 369.14 214.82 C 370.83 216.47 372.48 218.28 374.66 219.27 C 377.08 220.10 379.97 219.64 381.84 217.83 C 385.23 214.58 388.44 211.14 391.83 207.89 C 393.53 206.18 395.58 204.50 396.01 201.98 C 396.63 197.86 396.55 192.89 392.74 190.28 C 362.99 160.00 323.08 139.75 280.90 134.47 C 265.86 132.50 250.61 132.47 235.53 133.96 M 250.19 191.24 C 215.67 192.48 182.12 208.38 158.73 233.69 C 156.87 236.08 157.52 239.30 157.44 242.10 C 157.32 244.09 158.46 245.82 159.90 247.09 C 164.20 251.13 168.31 255.37 172.42 259.60 C 175.05 262.18 179.61 261.74 181.93 258.94 C 203.21 235.49 236.11 223.42 267.51 227.16 C 291.59 229.64 314.56 241.31 330.93 259.13 C 333.48 262.12 338.46 261.96 340.93 258.93 C 345.07 254.38 349.63 250.23 353.92 245.83 C 355.91 242.36 355.75 237.58 354.03 234.04 C 327.96 205.41 288.95 188.98 250.19 191.24 M 250.37 249.54 C 233.01 250.94 216.23 258.62 203.87 270.91 C 201.89 272.99 199.05 274.83 198.75 277.94 C 198.63 281.16 198.02 284.95 200.52 287.49 C 204.75 291.89 209.10 296.17 213.44 300.46 C 216.05 303.13 220.67 302.90 223.08 300.08 C 229.97 292.30 239.50 286.70 249.87 285.30 C 263.85 283.03 278.77 288.33 288.24 298.85 C 290.25 301.35 293.60 303.35 296.83 301.93 C 300.48 300.09 302.82 296.53 305.82 293.87 C 308.41 290.94 311.99 288.64 313.55 284.95 C 313.77 281.77 314.40 278.15 312.84 275.23 C 297.53 257.57 273.75 247.51 250.37 249.54 M 253.58 309.93 C 240.53 310.89 228.43 319.66 223.61 331.84 C 221.06 337.64 220.77 344.12 221.42 350.34 C 223.03 361.45 230.38 371.50 240.42 376.51 C 249.33 381.05 260.22 381.41 269.47 377.64 C 281.85 372.72 290.75 360.29 291.37 346.98 C 292.09 335.15 286.32 323.15 276.58 316.39 C 269.98 311.64 261.66 309.35 253.58 309.93 Z" />
<path fill="#ffffff" opacity="1.00" d=" M 235.53 133.96 C 250.61 132.47 265.86 132.50 280.90 134.47 C 323.08 139.75 362.99 160.00 392.74 190.28 C 396.55 192.89 396.63 197.86 396.01 201.98 C 395.58 204.50 393.53 206.18 391.83 207.89 C 388.44 211.14 385.23 214.58 381.84 217.83 C 379.97 219.64 377.08 220.10 374.66 219.27 C 372.48 218.28 370.83 216.47 369.14 214.82 C 347.90 193.49 320.43 178.46 291.03 172.00 C 269.03 167.16 245.98 166.96 223.92 171.50 C 192.75 177.79 163.75 193.86 141.58 216.60 C 139.07 219.66 134.08 220.95 130.99 218.02 C 126.92 214.07 122.99 209.98 118.93 206.03 C 117.27 204.50 116.21 202.33 116.39 200.04 C 116.48 197.54 115.99 194.70 117.60 192.56 C 148.34 159.91 190.93 138.73 235.53 133.96 Z" />
<path fill="#ffffff" opacity="1.00" d=" M 250.19 191.24 C 288.95 188.98 327.96 205.41 354.03 234.04 C 355.75 237.58 355.91 242.36 353.92 245.83 C 349.63 250.23 345.07 254.38 340.93 258.93 C 338.46 261.96 333.48 262.12 330.93 259.13 C 314.56 241.31 291.59 229.64 267.51 227.16 C 236.11 223.42 203.21 235.49 181.93 258.94 C 179.61 261.74 175.05 262.18 172.42 259.60 C 168.31 255.37 164.20 251.13 159.90 247.09 C 158.46 245.82 157.32 244.09 157.44 242.10 C 157.52 239.30 156.87 236.08 158.73 233.69 C 182.12 208.38 215.67 192.48 250.19 191.24 Z" />
<path fill="#ffffff" opacity="1.00" d=" M 250.37 249.54 C 273.75 247.51 297.53 257.57 312.84 275.23 C 314.40 278.15 313.77 281.77 313.55 284.95 C 311.99 288.64 308.41 290.94 305.82 293.87 C 302.82 296.53 300.48 300.09 296.83 301.93 C 293.60 303.35 290.25 301.35 288.24 298.85 C 278.77 288.33 263.85 283.03 249.87 285.30 C 239.50 286.70 229.97 292.30 223.08 300.08 C 220.67 302.90 216.05 303.13 213.44 300.46 C 209.10 296.17 204.75 291.89 200.52 287.49 C 198.02 284.95 198.63 281.16 198.75 277.94 C 199.05 274.83 201.89 272.99 203.87 270.91 C 216.23 258.62 233.01 250.94 250.37 249.54 Z" />
<path fill="#ffffff" opacity="1.00" d=" M 253.58 309.93 C 261.66 309.35 269.98 311.64 276.58 316.39 C 286.32 323.15 292.09 335.15 291.37 346.98 C 290.75 360.29 281.85 372.72 269.47 377.64 C 260.22 381.41 249.33 381.05 240.42 376.51 C 230.38 371.50 223.03 361.45 221.42 350.34 C 220.77 344.12 221.06 337.64 223.61 331.84 C 228.43 319.66 240.53 310.89 253.58 309.93 Z" />
</svg>
