<?xml version="1.0" encoding="UTF-8" ?>
<!DOCTYPE svg PUBLIC "-//W3C//DTD SVG 1.1//EN" "http://www.w3.org/Graphics/SVG/1.1/DTD/svg11.dtd">
<svg width="512pt" height="512pt" viewBox="0 0 512 512" version="1.1" xmlns="http://www.w3.org/2000/svg">
<path fill="#00a9ec" opacity="1.00" d=" M 0.00 0.00 L 512.00 0.00 L 512.00 512.00 L 0.00 512.00 L 0.00 0.00 M 309.91 195.98 C 309.50 196.28 308.69 196.86 308.29 197.16 C 286.76 169.54 250.89 153.94 216.01 157.08 C 190.67 158.85 166.18 170.30 148.38 188.39 C 130.90 205.78 119.79 229.45 117.63 254.02 C 117.41 260.67 117.41 267.34 117.63 274.00 C 119.42 294.31 127.31 314.00 139.89 330.03 C 155.25 349.73 177.63 363.86 202.11 368.93 C 225.77 374.08 251.15 370.77 272.73 359.80 C 295.83 348.23 314.45 327.99 324.01 303.99 C 332.08 284.09 333.79 261.74 329.21 240.79 C 351.41 218.49 373.55 196.14 395.74 173.83 C 385.20 163.10 374.36 152.67 363.83 141.92 C 345.68 159.76 327.96 178.04 309.91 195.98 Z" />
<path fill="#ffffff" opacity="1.00" d=" M 309.91 195.98 C 327.96 178.04 345.68 159.76 363.83 141.92 C 374.36 152.67 385.20 163.10 395.74 173.83 C 373.55 196.14 351.41 218.49 329.21 240.79 C 333.79 261.74 332.08 284.09 324.01 303.99 C 314.45 327.99 295.83 348.23 272.73 359.80 C 251.15 370.77 225.77 374.08 202.11 368.93 C 177.63 363.86 155.25 349.73 139.89 330.03 C 127.31 314.00 119.42 294.31 117.63 274.00 C 117.41 267.34 117.41 260.67 117.63 254.02 C 119.79 229.45 130.90 205.78 148.38 188.39 C 166.18 170.30 190.67 158.85 216.01 157.08 C 250.89 153.94 286.76 169.54 308.29 197.16 C 308.69 196.86 309.50 196.28 309.91 195.98 M 198.02 173.08 C 176.72 179.20 157.83 193.17 145.61 211.63 C 134.18 228.66 128.61 249.54 129.98 269.99 C 131.33 292.64 141.22 314.65 157.31 330.64 C 171.39 344.98 190.20 354.57 210.08 357.54 C 228.77 360.43 248.33 357.58 265.37 349.35 C 286.03 339.47 302.86 321.83 311.70 300.70 C 318.20 285.37 320.41 268.32 318.35 251.81 C 290.34 279.69 262.57 307.83 234.80 335.94 C 233.49 336.28 232.71 334.79 231.75 334.19 C 203.29 308.05 174.86 281.85 146.31 255.81 C 156.83 244.20 167.57 232.77 178.04 221.11 C 196.63 238.29 215.35 255.34 233.96 272.51 C 255.73 250.35 277.76 228.45 299.59 206.34 C 289.36 193.32 275.92 182.75 260.55 176.48 C 240.90 168.30 218.45 167.11 198.02 173.08 Z" />
<path fill="#00a9ec" opacity="1.00" d=" M 198.02 173.08 C 218.45 167.11 240.90 168.30 260.55 176.48 C 275.92 182.75 289.36 193.32 299.59 206.34 C 277.76 228.45 255.73 250.35 233.96 272.51 C 215.35 255.34 196.63 238.29 178.04 221.11 C 167.57 232.77 156.83 244.20 146.31 255.81 C 174.86 281.85 203.29 308.05 231.75 334.19 C 232.71 334.79 233.49 336.28 234.80 335.94 C 262.57 307.83 290.34 279.69 318.35 251.81 C 320.41 268.32 318.20 285.37 311.70 300.70 C 302.86 321.83 286.03 339.47 265.37 349.35 C 248.33 357.58 228.77 360.43 210.08 357.54 C 190.20 354.57 171.39 344.98 157.31 330.64 C 141.22 314.65 131.33 292.64 129.98 269.99 C 128.61 249.54 134.18 228.66 145.61 211.63 C 157.83 193.17 176.72 179.20 198.02 173.08 Z" />
</svg>
