<?xml version="1.0" encoding="UTF-8" ?>
<!DOCTYPE svg PUBLIC "-//W3C//DTD SVG 1.1//EN" "http://www.w3.org/Graphics/SVG/1.1/DTD/svg11.dtd">
<svg width="512pt" height="512pt" viewBox="0 0 512 512" version="1.1" xmlns="http://www.w3.org/2000/svg">
<path fill="#ff9408" opacity="1.00" d=" M 0.00 0.00 L 512.00 0.00 L 512.00 512.00 L 0.00 512.00 L 0.00 0.00 M 157.74 123.66 C 157.75 211.95 157.77 300.25 157.72 388.54 C 223.57 388.61 289.42 388.61 355.27 388.54 C 355.25 318.21 355.20 247.88 355.30 177.55 C 353.52 176.91 351.70 176.37 349.89 175.82 C 347.74 175.37 345.59 174.91 343.47 174.35 C 342.15 173.95 340.84 173.57 339.52 173.21 L 339.36 173.62 C 333.65 171.68 327.68 170.12 321.70 169.38 L 322.13 168.95 C 318.87 168.25 315.64 167.41 312.43 166.49 C 310.93 161.04 309.52 155.56 308.36 150.03 C 307.74 148.21 307.61 146.05 306.11 144.68 L 306.95 144.49 C 304.95 137.57 303.51 130.50 301.52 123.58 C 292.85 123.69 284.18 123.62 275.51 123.63 C 275.53 180.86 275.52 238.10 275.51 295.34 C 262.74 295.29 249.97 295.31 237.20 295.33 C 237.24 238.10 237.19 180.88 237.23 123.65 C 210.73 123.63 184.23 123.62 157.74 123.66 M 241.40 125.37 C 241.44 130.51 241.37 135.64 241.47 140.78 C 246.23 140.52 251.02 140.93 255.77 140.73 C 257.51 135.94 256.05 130.44 256.56 125.37 C 251.51 125.38 246.45 125.38 241.40 125.37 M 307.37 128.62 C 308.12 132.57 309.21 136.45 310.02 140.39 L 311.10 139.68 L 310.42 140.81 C 310.96 144.76 312.22 148.57 313.22 152.42 C 313.98 156.02 314.91 159.57 315.86 163.13 C 326.74 165.89 337.73 168.30 348.49 171.52 C 349.09 169.80 347.30 168.69 346.37 167.53 C 334.91 156.21 323.66 144.68 312.14 133.42 C 310.61 131.76 309.00 130.17 307.37 128.62 M 257.21 141.22 C 255.51 145.48 256.98 150.37 256.37 154.88 C 256.97 155.36 257.58 155.82 258.22 156.27 C 262.62 155.29 267.14 155.88 271.60 155.76 C 271.57 150.72 271.60 145.68 271.57 140.64 C 266.81 141.05 261.81 139.90 257.21 141.22 M 241.40 170.80 C 245.85 170.91 250.37 170.32 254.76 171.30 C 255.40 170.84 256.02 170.37 256.64 169.88 C 256.49 165.61 256.43 161.34 256.70 157.09 C 255.68 156.31 254.57 155.27 253.15 155.65 C 249.24 155.65 245.33 155.74 241.43 155.67 C 241.40 160.71 241.42 165.75 241.40 170.80 M 256.30 172.07 C 256.57 176.33 256.51 180.60 256.36 184.87 C 256.97 185.37 257.60 185.85 258.25 186.32 C 262.64 185.40 267.14 185.91 271.59 185.84 C 271.58 180.79 271.60 175.75 271.56 170.70 C 267.68 170.77 263.80 170.69 259.92 170.68 C 258.48 170.29 257.34 171.29 256.30 172.07 M 241.39 200.96 C 246.42 201.00 251.47 200.65 256.49 201.17 C 256.58 196.47 256.42 191.75 256.69 187.05 C 255.67 186.29 254.52 185.35 253.13 185.72 C 249.24 185.73 245.35 185.81 241.46 185.73 C 241.38 190.81 241.43 195.89 241.39 200.96 M 256.50 200.84 C 256.42 205.55 256.58 210.26 256.31 214.96 C 257.35 215.72 258.52 216.59 259.92 216.23 C 263.77 216.17 267.62 216.10 271.46 216.24 C 271.67 211.09 271.60 205.94 271.54 200.79 C 266.52 200.82 261.51 200.78 256.50 200.84 M 241.39 216.05 C 241.44 221.11 241.36 226.18 241.49 231.24 C 245.38 231.15 249.28 231.24 253.17 231.26 C 254.54 231.59 255.68 230.69 256.70 229.95 C 256.45 225.65 256.44 221.33 256.70 217.03 C 255.68 216.28 254.50 215.50 253.15 215.83 C 249.23 215.90 245.30 215.78 241.39 216.05 M 256.36 232.13 C 256.52 236.73 256.55 241.35 256.31 245.95 C 261.38 246.42 266.46 246.20 271.54 246.27 C 271.62 241.22 271.57 236.18 271.60 231.14 C 267.15 231.08 262.66 231.52 258.26 230.66 C 257.61 231.13 256.98 231.62 256.36 232.13 M 241.41 246.17 C 241.42 251.21 241.39 256.25 241.45 261.30 C 246.53 261.23 251.62 261.48 256.69 260.96 C 256.44 256.35 256.48 251.73 256.64 247.12 C 256.02 246.62 255.39 246.15 254.75 245.69 C 250.35 246.60 245.85 246.08 241.41 246.17 M 256.37 262.12 C 256.58 266.28 256.34 270.44 256.49 274.60 C 257.08 275.84 258.34 277.04 259.87 276.60 C 263.78 276.64 267.69 276.54 271.60 276.60 C 271.57 271.46 271.60 266.32 271.57 261.18 C 267.13 261.11 262.62 261.68 258.24 260.70 C 257.60 261.15 256.97 261.63 256.37 262.12 M 241.39 276.52 C 241.43 281.55 241.43 286.58 241.39 291.61 C 246.45 291.60 251.50 291.59 256.56 291.62 C 256.46 287.20 256.65 282.78 256.51 278.36 C 255.93 277.12 254.58 276.10 253.12 276.50 C 249.21 276.48 245.30 276.57 241.39 276.52 Z" />
<path fill="#ffffff" opacity="1.00" d=" M 157.74 123.66 C 184.23 123.62 210.73 123.63 237.23 123.65 C 237.19 180.88 237.24 238.10 237.20 295.33 C 249.97 295.31 262.74 295.29 275.51 295.34 C 275.52 238.10 275.53 180.86 275.51 123.63 C 284.18 123.62 292.85 123.69 301.52 123.58 C 303.51 130.50 304.95 137.57 306.95 144.49 L 306.11 144.68 C 307.61 146.05 307.74 148.21 308.36 150.03 C 309.52 155.56 310.93 161.04 312.43 166.49 C 315.64 167.41 318.87 168.25 322.13 168.95 L 321.70 169.38 C 327.68 170.12 333.65 171.68 339.36 173.62 L 339.52 173.21 C 340.84 173.57 342.15 173.95 343.47 174.35 C 345.59 174.91 347.74 175.37 349.89 175.82 C 351.70 176.37 353.52 176.91 355.30 177.55 C 355.20 247.88 355.25 318.21 355.27 388.54 C 289.42 388.61 223.57 388.61 157.72 388.54 C 157.77 300.25 157.75 211.95 157.74 123.66 M 241.44 299.37 C 241.57 317.92 241.42 336.46 241.52 355.00 C 241.34 357.44 243.38 359.95 245.95 359.71 C 252.97 359.77 260.00 359.76 267.03 359.71 C 269.62 360.00 271.75 357.46 271.50 354.98 C 271.56 336.44 271.46 317.89 271.54 299.35 C 261.51 299.36 251.47 299.31 241.44 299.37 Z" />
<path fill="#ffffff" opacity="1.00" d=" M 241.40 125.37 C 246.45 125.38 251.51 125.38 256.56 125.37 C 256.05 130.44 257.51 135.94 255.77 140.73 C 251.02 140.93 246.23 140.52 241.47 140.78 C 241.37 135.64 241.44 130.51 241.40 125.37 Z" />
<path fill="#ffffff" opacity="1.00" d=" M 307.37 128.62 C 309.00 130.17 310.61 131.76 312.14 133.42 C 323.66 144.68 334.91 156.21 346.37 167.53 C 347.30 168.69 349.09 169.80 348.49 171.52 C 337.73 168.30 326.74 165.89 315.86 163.13 C 314.91 159.57 313.98 156.02 313.22 152.42 C 312.22 148.57 310.96 144.76 310.42 140.81 L 311.10 139.68 L 310.02 140.39 C 309.21 136.45 308.12 132.57 307.37 128.62 Z" />
<path fill="#ffffff" opacity="1.00" d=" M 257.21 141.22 C 261.81 139.90 266.81 141.05 271.57 140.64 C 271.60 145.68 271.57 150.72 271.60 155.76 C 267.14 155.88 262.62 155.29 258.22 156.27 C 257.58 155.82 256.97 155.36 256.37 154.88 C 256.98 150.37 255.51 145.48 257.21 141.22 Z" />
<path fill="#ffffff" opacity="1.00" d=" M 241.40 170.80 C 241.42 165.75 241.40 160.71 241.43 155.67 C 245.33 155.74 249.24 155.65 253.15 155.65 C 254.57 155.27 255.68 156.31 256.70 157.09 C 256.43 161.34 256.49 165.61 256.64 169.88 C 256.02 170.37 255.40 170.84 254.76 171.30 C 250.37 170.32 245.85 170.91 241.40 170.80 Z" />
<path fill="#ffffff" opacity="1.00" d=" M 256.30 172.07 C 257.34 171.29 258.48 170.29 259.92 170.68 C 263.80 170.69 267.68 170.77 271.56 170.70 C 271.60 175.75 271.58 180.79 271.59 185.84 C 267.14 185.91 262.64 185.40 258.25 186.32 C 257.60 185.85 256.97 185.37 256.36 184.87 C 256.51 180.60 256.57 176.33 256.30 172.07 Z" />
<path fill="#ffffff" opacity="1.00" d=" M 241.39 200.96 C 241.43 195.89 241.38 190.81 241.46 185.73 C 245.35 185.81 249.24 185.73 253.13 185.72 C 254.52 185.35 255.67 186.29 256.69 187.05 C 256.42 191.75 256.58 196.47 256.49 201.17 C 251.47 200.65 246.42 201.00 241.39 200.96 Z" />
<path fill="#ffffff" opacity="1.00" d=" M 256.50 200.84 C 261.51 200.78 266.52 200.82 271.54 200.79 C 271.60 205.94 271.67 211.09 271.46 216.24 C 267.62 216.10 263.77 216.17 259.92 216.23 C 258.52 216.59 257.35 215.72 256.31 214.96 C 256.58 210.26 256.42 205.55 256.50 200.84 Z" />
<path fill="#ffffff" opacity="1.00" d=" M 241.39 216.05 C 245.30 215.78 249.23 215.90 253.15 215.83 C 254.50 215.50 255.68 216.28 256.70 217.03 C 256.44 221.33 256.45 225.65 256.70 229.95 C 255.68 230.69 254.54 231.59 253.17 231.26 C 249.28 231.24 245.38 231.15 241.49 231.24 C 241.36 226.18 241.44 221.11 241.39 216.05 Z" />
<path fill="#ffffff" opacity="1.00" d=" M 256.36 232.13 C 256.98 231.62 257.61 231.13 258.26 230.66 C 262.66 231.52 267.15 231.08 271.60 231.14 C 271.57 236.18 271.62 241.22 271.54 246.27 C 266.46 246.20 261.38 246.42 256.31 245.95 C 256.55 241.35 256.52 236.73 256.36 232.13 Z" />
<path fill="#ffffff" opacity="1.00" d=" M 241.41 246.17 C 245.85 246.08 250.35 246.60 254.75 245.69 C 255.39 246.15 256.02 246.62 256.64 247.12 C 256.48 251.73 256.44 256.35 256.69 260.96 C 251.62 261.48 246.53 261.23 241.45 261.30 C 241.39 256.25 241.42 251.21 241.41 246.17 Z" />
<path fill="#ffffff" opacity="1.00" d=" M 256.37 262.12 C 256.97 261.63 257.60 261.15 258.24 260.70 C 262.62 261.68 267.13 261.11 271.57 261.18 C 271.60 266.32 271.57 271.46 271.60 276.60 C 267.69 276.54 263.78 276.64 259.87 276.60 C 258.34 277.04 257.08 275.84 256.49 274.60 C 256.34 270.44 256.58 266.28 256.37 262.12 Z" />
<path fill="#ffffff" opacity="1.00" d=" M 241.39 276.52 C 245.30 276.57 249.21 276.48 253.12 276.50 C 254.58 276.10 255.93 277.12 256.51 278.36 C 256.65 282.78 256.46 287.20 256.56 291.62 C 251.50 291.59 246.45 291.60 241.39 291.61 C 241.43 286.58 241.43 281.55 241.39 276.52 Z" />
<path fill="#ff9408" opacity="1.00" d=" M 241.44 299.37 C 251.47 299.31 261.51 299.36 271.54 299.35 C 271.46 317.89 271.56 336.44 271.50 354.98 C 271.75 357.46 269.62 360.00 267.03 359.71 C 260.00 359.76 252.97 359.77 245.95 359.71 C 243.38 359.95 241.34 357.44 241.52 355.00 C 241.42 336.46 241.57 317.92 241.44 299.37 M 246.50 304.39 C 246.57 311.08 246.52 317.77 246.54 324.46 C 253.20 324.41 259.86 324.41 266.52 324.46 C 266.53 317.75 266.52 311.04 266.53 304.33 C 259.86 304.41 253.18 304.32 246.50 304.39 Z" />
<path fill="#ffffff" opacity="1.00" d=" M 246.50 304.39 C 253.18 304.32 259.86 304.41 266.53 304.33 C 266.52 311.04 266.53 317.75 266.52 324.46 C 259.86 324.41 253.20 324.41 246.54 324.46 C 246.52 317.77 246.57 311.08 246.50 304.39 Z" />
</svg>
