<?xml version="1.0" encoding="UTF-8" ?>
<!DOCTYPE svg PUBLIC "-//W3C//DTD SVG 1.1//EN" "http://www.w3.org/Graphics/SVG/1.1/DTD/svg11.dtd">
<svg width="512pt" height="512pt" viewBox="0 0 512 512" version="1.1" xmlns="http://www.w3.org/2000/svg">
<path fill="#00a8ec" opacity="1.00" d=" M 0.00 0.00 L 512.00 0.00 L 512.00 512.00 L 0.00 512.00 L 0.00 0.00 M 269.14 143.30 C 253.36 148.15 239.28 158.21 229.47 171.48 C 219.36 185.07 213.87 202.05 214.25 218.99 C 214.29 235.75 220.24 252.28 230.37 265.57 C 228.44 267.52 226.55 269.51 224.65 271.49 C 219.78 272.08 215.09 274.12 211.82 277.84 C 190.51 299.19 169.18 320.51 147.87 341.85 C 144.31 345.23 142.02 350.02 142.22 354.99 C 141.97 362.38 147.14 369.43 154.09 371.77 C 160.37 374.00 167.86 372.36 172.52 367.54 C 194.34 345.70 216.17 323.88 237.98 302.04 C 241.32 298.86 242.80 294.34 243.36 289.87 C 245.44 287.63 247.56 285.44 249.71 283.28 C 265.72 293.98 285.86 297.96 304.80 294.86 C 320.73 292.31 335.79 284.60 347.15 273.14 C 358.38 262.09 366.00 247.50 368.85 232.02 C 371.44 217.22 369.95 201.64 364.09 187.77 C 356.22 168.77 340.50 153.18 321.40 145.54 C 304.93 138.80 286.13 138.07 269.14 143.30 M 321.54 301.64 C 321.54 308.24 321.53 314.85 321.55 321.45 C 314.97 321.48 308.38 321.37 301.80 321.51 C 301.82 327.60 301.86 333.70 301.78 339.79 C 308.34 340.51 314.97 339.90 321.56 340.13 C 321.73 346.61 321.11 353.35 321.84 359.66 C 327.94 359.83 334.04 359.68 340.15 359.70 C 340.13 353.17 340.15 346.64 340.13 340.10 C 346.63 340.09 353.13 340.15 359.64 340.07 C 359.70 333.86 359.65 327.65 359.67 321.44 C 353.15 321.44 346.62 321.46 340.10 321.43 C 340.18 314.84 340.13 308.26 340.14 301.67 C 333.94 301.62 327.74 301.66 321.54 301.64 Z" />
<path fill="#ffffff" opacity="1.00" d=" M 269.14 143.30 C 286.13 138.07 304.93 138.80 321.40 145.54 C 340.50 153.18 356.22 168.77 364.09 187.77 C 369.95 201.64 371.44 217.22 368.85 232.02 C 366.00 247.50 358.38 262.09 347.15 273.14 C 335.79 284.60 320.73 292.31 304.80 294.86 C 285.86 297.96 265.72 293.98 249.71 283.28 C 247.56 285.44 245.44 287.63 243.36 289.87 C 242.80 294.34 241.32 298.86 237.98 302.04 C 216.17 323.88 194.34 345.70 172.52 367.54 C 167.86 372.36 160.37 374.00 154.09 371.77 C 147.14 369.43 141.97 362.38 142.22 354.99 C 142.02 350.02 144.31 345.23 147.87 341.85 C 169.18 320.51 190.51 299.19 211.82 277.84 C 215.09 274.12 219.78 272.08 224.65 271.49 C 226.55 269.51 228.44 267.52 230.37 265.57 C 220.24 252.28 214.29 235.75 214.25 218.99 C 213.87 202.05 219.36 185.07 229.47 171.48 C 239.28 158.21 253.36 148.15 269.14 143.30 M 286.36 166.39 C 274.75 167.68 263.62 173.07 255.44 181.42 C 246.32 190.51 240.82 203.15 240.42 216.01 C 239.76 230.89 246.09 245.85 257.02 255.93 C 266.41 264.60 279.10 269.75 291.92 269.68 C 305.49 269.86 319.02 264.26 328.59 254.65 C 338.26 245.12 344.08 231.60 343.84 217.98 C 344.23 200.75 334.86 183.86 320.47 174.52 C 310.49 167.92 298.24 165.11 286.36 166.39 Z" />
<path fill="#00a8ec" opacity="1.00" d=" M 286.36 166.39 C 298.24 165.11 310.49 167.92 320.47 174.52 C 334.86 183.86 344.23 200.75 343.84 217.98 C 344.08 231.60 338.26 245.12 328.59 254.65 C 319.02 264.26 305.49 269.86 291.92 269.68 C 279.10 269.75 266.41 264.60 257.02 255.93 C 246.09 245.85 239.76 230.89 240.42 216.01 C 240.82 203.15 246.32 190.51 255.44 181.42 C 263.62 173.07 274.75 167.68 286.36 166.39 Z" />
<path fill="#ffffff" opacity="1.00" d=" M 321.54 301.64 C 327.74 301.66 333.94 301.62 340.14 301.67 C 340.13 308.26 340.18 314.84 340.10 321.43 C 346.62 321.46 353.15 321.44 359.67 321.44 C 359.65 327.65 359.70 333.86 359.64 340.07 C 353.13 340.15 346.63 340.09 340.13 340.10 C 340.15 346.64 340.13 353.17 340.15 359.70 C 334.04 359.68 327.94 359.83 321.84 359.66 C 321.11 353.35 321.73 346.61 321.56 340.13 C 314.97 339.90 308.34 340.51 301.78 339.79 C 301.86 333.70 301.82 327.60 301.80 321.51 C 308.38 321.37 314.97 321.48 321.55 321.45 C 321.53 314.85 321.54 308.24 321.54 301.64 Z" />
</svg>
