<?xml version="1.0" encoding="UTF-8" ?>
<!DOCTYPE svg PUBLIC "-//W3C//DTD SVG 1.1//EN" "http://www.w3.org/Graphics/SVG/1.1/DTD/svg11.dtd">
<svg width="512pt" height="512pt" viewBox="0 0 512 512" version="1.1" xmlns="http://www.w3.org/2000/svg">
<path fill="#ed1c24" opacity="1.00" d=" M 0.00 0.00 L 512.00 0.00 L 512.00 512.00 L 0.00 512.00 L 0.00 0.00 Z" />
<path fill="#ffffff" opacity="1.00" d=" M 347.38 159.54 C 360.23 159.32 373.10 159.54 385.96 159.44 C 387.57 159.24 389.03 159.89 390.33 160.78 C 390.17 223.53 390.34 286.29 390.24 349.05 C 390.45 350.86 388.76 352.15 387.05 351.81 C 374.01 351.81 360.96 351.86 347.92 351.79 C 345.70 352.13 344.95 349.84 345.20 348.06 C 345.23 286.34 345.21 224.63 345.22 162.92 C 345.09 161.49 345.57 159.48 347.38 159.54 Z" />
<path fill="#ed1c24" opacity="1.00" d=" M 350.12 164.32 C 361.88 164.35 373.63 164.29 385.39 164.35 C 385.32 225.21 385.38 286.06 385.36 346.92 C 373.62 346.89 361.88 346.89 350.14 346.92 C 350.14 286.05 350.17 225.19 350.12 164.32 Z" />
<path fill="#ffffff" opacity="1.00" d=" M 290.34 197.37 C 291.55 196.14 293.50 196.80 295.04 196.58 C 307.05 196.67 319.07 196.55 331.08 196.63 C 332.99 196.33 334.77 197.96 334.32 199.92 C 334.35 249.27 334.29 298.62 334.35 347.97 C 334.54 349.56 334.05 351.96 331.96 351.76 C 319.31 351.93 306.64 351.74 293.99 351.85 C 292.52 351.74 290.44 352.13 289.70 350.47 C 289.24 347.32 289.56 344.11 289.50 340.94 C 289.48 294.31 289.53 247.67 289.47 201.04 C 289.66 199.83 289.16 198.18 290.34 197.37 Z" />
<path fill="#ed1c24" opacity="1.00" d=" M 294.36 346.91 C 294.42 298.43 294.38 249.96 294.39 201.49 C 306.07 201.53 317.76 201.51 329.45 201.50 C 329.40 250.02 329.47 298.53 329.41 347.04 C 317.73 346.73 306.05 346.98 294.36 346.91 Z" />
<path fill="#ffffff" opacity="1.00" d=" M 234.23 234.35 C 246.78 233.87 259.37 234.34 271.94 234.13 C 273.70 234.25 275.64 233.87 277.27 234.72 C 278.10 235.95 277.72 237.58 277.87 238.98 C 277.78 275.66 277.89 312.34 277.81 349.02 C 278.15 350.71 276.83 352.05 275.14 351.79 C 262.44 351.88 249.73 351.77 237.03 351.84 C 235.82 351.63 233.88 352.15 233.31 350.69 C 232.62 349.23 232.91 347.56 232.82 346.01 C 232.90 310.00 232.84 273.99 232.85 237.98 C 232.83 236.67 232.94 235.06 234.23 234.35 Z" />
<path fill="#ed1c24" opacity="1.00" d=" M 237.76 238.83 C 248.88 238.86 260.00 238.81 271.11 238.84 C 273.15 238.29 273.34 240.58 273.19 241.93 C 273.13 276.91 273.16 311.88 273.17 346.86 C 261.37 347.04 249.56 346.71 237.77 347.03 C 237.75 310.97 237.76 274.90 237.76 238.83 Z" />
<path fill="#ffffff" opacity="1.00" d=" M 179.31 271.42 C 192.52 271.11 205.75 271.36 218.97 271.30 C 220.67 271.01 222.52 272.15 222.28 274.05 C 222.36 298.71 222.26 323.37 222.33 348.02 C 222.49 349.54 222.04 351.88 220.05 351.75 C 207.04 351.93 194.02 351.76 181.00 351.83 C 179.28 352.13 177.14 351.11 177.50 349.09 C 177.43 324.38 177.51 299.66 177.46 274.94 C 177.36 273.58 177.63 271.60 179.31 271.42 Z" />
<path fill="#ed1c24" opacity="1.00" d=" M 182.36 276.17 C 194.04 276.21 205.72 276.21 217.40 276.17 C 217.40 299.75 217.41 323.34 217.40 346.93 C 205.72 346.90 194.04 346.86 182.36 346.95 C 182.37 323.36 182.37 299.76 182.36 276.17 Z" />
<path fill="#ffffff" opacity="1.00" d=" M 123.25 307.34 C 136.48 306.80 149.78 307.26 163.03 307.11 C 164.74 306.82 166.95 307.82 166.55 309.86 C 166.59 322.96 166.60 336.06 166.55 349.15 C 166.82 350.64 165.53 351.95 164.04 351.78 C 150.99 351.86 137.94 351.82 124.89 351.80 C 123.20 352.14 121.60 350.80 121.77 349.05 C 121.65 336.72 121.80 324.38 121.70 312.04 C 121.77 310.44 121.41 308.08 123.25 307.34 Z" />
</svg>
