<?xml version="1.0" encoding="UTF-8" ?>
<!DOCTYPE svg PUBLIC "-//W3C//DTD SVG 1.1//EN" "http://www.w3.org/Graphics/SVG/1.1/DTD/svg11.dtd">
<svg width="512pt" height="512pt" viewBox="0 0 512 512" version="1.1" xmlns="http://www.w3.org/2000/svg">
<path fill="#0072bc" opacity="1.00" d=" M 0.00 0.00 L 512.00 0.00 L 512.00 512.00 L 0.00 512.00 L 0.00 0.00 Z" />
<path fill="#ffffff" opacity="1.00" d=" M 345.22 162.99 C 344.89 161.19 346.07 159.20 348.09 159.48 C 361.09 159.44 374.09 159.44 387.09 159.48 C 388.38 159.31 389.32 160.25 390.29 160.92 C 390.18 223.65 390.40 286.37 390.25 349.09 C 390.43 350.84 388.70 352.11 387.05 351.81 C 374.33 351.80 361.59 351.87 348.87 351.78 C 344.60 350.91 340.31 351.97 336.02 351.85 C 322.02 351.83 308.03 351.78 294.03 351.84 C 292.48 351.79 290.37 352.11 289.65 350.31 C 289.13 342.56 289.87 334.76 289.33 327.01 C 283.86 317.99 280.41 307.61 280.54 296.99 C 280.37 286.32 283.78 275.88 289.28 266.82 C 289.84 244.29 289.27 221.68 289.55 199.12 C 289.49 197.38 291.38 196.39 292.93 196.62 C 306.09 196.53 319.25 196.72 332.41 196.54 C 333.48 197.38 334.65 198.29 334.31 199.86 C 334.34 212.85 334.33 225.85 334.31 238.85 C 332.67 239.42 331.10 240.16 329.56 240.94 C 329.41 227.77 329.51 214.61 329.50 201.45 C 317.78 201.46 306.06 201.47 294.34 201.45 C 294.40 221.11 294.29 240.77 294.39 260.44 C 302.93 250.46 315.23 244.09 328.16 242.16 C 323.12 246.71 323.33 255.51 329.00 259.43 C 320.39 261.22 312.26 265.66 306.64 272.49 C 298.67 281.85 295.67 295.24 299.15 307.07 C 302.84 321.10 315.25 331.87 329.42 334.44 C 329.51 309.69 329.59 284.94 329.38 260.19 C 330.92 260.95 332.52 261.57 334.19 262.01 C 334.52 286.26 334.22 310.53 334.33 334.78 C 338.00 334.69 341.71 334.57 345.25 333.48 C 345.19 309.12 345.22 284.76 345.23 260.40 C 344.49 260.14 343.01 259.64 342.27 259.39 C 347.76 255.61 347.94 246.75 343.13 242.33 C 343.66 242.36 344.71 242.42 345.23 242.45 C 345.20 215.96 345.23 189.47 345.22 162.99 Z" />
<path fill="#0072bc" opacity="1.00" d=" M 350.04 164.25 C 361.82 164.31 373.61 164.29 385.39 164.26 C 385.41 200.56 385.37 236.87 385.41 273.18 C 379.48 260.62 368.62 250.49 355.64 245.52 C 353.69 244.79 351.72 244.11 349.79 243.32 C 350.14 216.96 349.61 190.60 350.04 164.25 Z" />
<path fill="#ffffff" opacity="1.00" d=" M 234.31 234.39 C 247.53 233.85 260.82 234.33 274.06 234.15 C 275.91 233.88 278.28 234.65 277.83 236.98 C 277.84 274.34 277.84 311.70 277.83 349.07 C 278.11 350.72 276.73 352.03 275.10 351.80 C 262.03 351.83 248.95 351.82 235.88 351.81 C 233.71 352.18 232.55 349.96 232.85 348.10 C 232.86 311.37 232.86 274.65 232.85 237.92 C 232.82 236.66 232.97 234.95 234.31 234.39 Z" />
<path fill="#0072bc" opacity="1.00" d=" M 237.71 238.79 C 249.54 238.80 261.37 238.77 273.20 238.81 C 273.25 274.80 273.11 310.80 273.27 346.80 C 261.45 347.51 249.57 346.91 237.72 347.11 C 237.69 311.00 237.71 274.90 237.71 238.79 Z" />
<path fill="#0072bc" opacity="1.00" d=" M 349.89 261.90 C 361.81 266.33 370.68 277.57 372.95 290.00 C 376.41 307.06 366.29 325.83 349.88 331.86 C 349.89 308.54 349.86 285.22 349.89 261.90 Z" />
<path fill="#ffffff" opacity="1.00" d=" M 179.30 271.43 C 192.52 271.10 205.77 271.36 219.00 271.30 C 220.60 271.06 222.44 272.13 222.28 273.92 C 222.34 298.96 222.31 324.00 222.29 349.04 C 222.54 350.85 220.76 352.12 219.09 351.81 C 206.08 351.81 193.06 351.86 180.05 351.79 C 178.45 351.98 177.25 350.39 177.48 348.89 C 177.45 324.26 177.49 299.63 177.46 275.00 C 177.34 273.60 177.64 271.73 179.30 271.43 Z" />
<path fill="#0072bc" opacity="1.00" d=" M 182.31 276.17 C 194.03 276.15 205.75 276.18 217.47 276.15 C 217.43 299.81 217.49 323.46 217.44 347.11 C 205.72 347.05 194.00 347.22 182.29 347.02 C 182.37 323.41 182.33 299.79 182.31 276.17 Z" />
<path fill="#ffffff" opacity="1.00" d=" M 123.37 307.34 C 136.56 306.80 149.83 307.26 163.05 307.11 C 164.77 306.84 166.91 307.87 166.56 309.89 C 166.59 322.95 166.60 336.02 166.56 349.08 C 166.82 350.57 165.50 351.95 164.00 351.79 C 150.96 351.85 137.93 351.82 124.90 351.81 C 123.25 352.09 121.61 350.80 121.76 349.08 C 121.67 336.38 121.77 323.68 121.72 310.98 C 121.65 309.65 121.87 307.78 123.37 307.34 Z" />
<path fill="#0072bc" opacity="1.00" d=" M 126.61 311.82 C 138.28 311.76 149.95 311.94 161.61 311.73 C 161.90 323.47 161.56 335.23 161.79 346.98 C 150.07 347.28 138.34 347.02 126.62 347.11 C 126.59 335.35 126.61 323.58 126.61 311.82 Z" />
<path fill="#0072bc" opacity="1.00" d=" M 358.63 346.58 C 370.51 341.96 379.85 331.94 385.37 320.61 C 385.38 329.48 385.50 338.34 385.30 347.20 C 376.41 346.74 367.47 347.74 358.63 346.58 Z" />
<path fill="#0072bc" opacity="1.00" d=" M 294.37 333.35 C 299.43 339.20 305.83 343.72 312.74 347.14 C 306.61 347.06 300.47 347.17 294.33 347.06 C 294.38 342.49 294.33 337.92 294.37 333.35 Z" />
</svg>
