<?xml version="1.0" encoding="UTF-8" ?>
<!DOCTYPE svg PUBLIC "-//W3C//DTD SVG 1.1//EN" "http://www.w3.org/Graphics/SVG/1.1/DTD/svg11.dtd">
<svg width="512pt" height="512pt" viewBox="0 0 512 512" version="1.1" xmlns="http://www.w3.org/2000/svg">
<path fill="#ed1c24" opacity="1.00" d=" M 0.00 0.00 L 512.00 0.00 L 512.00 512.00 L 0.00 512.00 L 0.00 0.00 Z" />
<path fill="#ffffff" opacity="1.00" d=" M 345.22 163.01 C 344.90 161.22 345.96 159.21 348.00 159.49 C 360.67 159.41 373.35 159.50 386.02 159.45 C 387.59 159.26 388.99 159.96 390.32 160.70 C 390.21 198.84 390.28 236.98 390.28 275.12 C 388.50 272.90 384.89 271.30 385.35 267.97 C 385.39 233.43 385.32 198.89 385.39 164.35 C 373.63 164.30 361.87 164.34 350.12 164.32 C 350.15 199.57 350.18 234.82 350.10 270.07 C 348.45 271.68 346.81 273.32 345.17 274.95 C 345.29 237.64 345.18 200.32 345.22 163.01 Z" />
<path fill="#ffffff" opacity="1.00" d=" M 289.51 199.94 C 289.31 198.45 290.19 196.59 291.92 196.69 C 304.63 196.49 317.36 196.68 330.08 196.60 C 331.70 196.48 334.25 196.74 334.26 198.87 C 334.43 221.51 334.26 244.16 334.34 266.80 C 332.69 265.14 331.04 263.47 329.41 261.80 C 329.48 241.70 329.40 221.60 329.45 201.50 C 317.76 201.51 306.07 201.53 294.39 201.49 C 294.40 226.01 294.37 250.53 294.40 275.06 C 294.59 277.48 292.96 279.59 293.07 282.00 C 293.41 284.01 294.51 285.87 294.40 287.96 C 294.43 300.46 294.31 312.97 294.45 325.47 C 294.07 325.91 293.31 326.79 292.92 327.23 C 293.05 329.57 293.61 331.84 294.21 334.10 C 294.67 338.36 294.27 342.66 294.39 346.94 C 299.20 347.06 304.07 346.50 308.84 347.19 C 310.64 348.54 312.10 350.25 313.68 351.84 C 306.44 351.74 299.19 351.93 291.96 351.77 C 289.90 351.99 289.22 349.70 289.49 348.09 C 289.52 298.71 289.48 249.32 289.51 199.94 Z" />
<path fill="#ffffff" opacity="1.00" d=" M 234.32 234.37 C 247.17 233.85 260.07 234.34 272.94 234.13 C 274.97 234.05 278.40 233.94 277.81 236.98 C 277.88 274.01 277.80 311.05 277.85 348.08 C 277.83 349.46 277.96 351.79 275.95 351.71 C 262.63 351.95 249.29 351.78 235.96 351.79 C 233.63 352.27 232.59 350.00 232.85 348.03 C 232.86 311.34 232.85 274.65 232.85 237.96 C 232.86 236.72 232.91 234.84 234.32 234.37 Z" />
<path fill="#ed1c24" opacity="1.00" d=" M 237.76 238.83 C 249.27 238.91 260.78 238.70 272.28 238.92 C 272.48 239.11 272.88 239.48 273.08 239.67 C 273.28 275.40 273.09 311.13 273.17 346.86 C 261.37 346.98 249.56 346.83 237.75 346.95 C 237.76 310.91 237.75 274.87 237.76 238.83 Z" />
<path fill="#ffffff" opacity="1.00" d=" M 297.34 281.33 C 304.97 273.96 312.32 266.32 319.91 258.91 C 327.92 266.88 335.88 274.90 343.90 282.86 C 351.81 274.78 360.00 266.96 367.94 258.90 C 375.39 266.46 382.91 273.95 390.54 281.33 C 382.44 289.27 374.44 297.32 366.38 305.30 C 374.29 313.46 382.41 321.43 390.55 329.38 C 382.94 336.87 375.30 344.33 367.94 352.07 C 360.05 343.90 351.85 336.03 343.92 327.91 C 335.84 335.88 327.84 343.93 319.91 352.05 C 312.42 344.46 304.93 336.87 297.36 329.37 C 305.45 321.49 313.35 313.42 321.37 305.46 C 313.46 297.31 305.33 289.39 297.34 281.33 Z" />
<path fill="#ffffff" opacity="1.00" d=" M 179.36 271.41 C 192.58 271.13 205.82 271.34 219.04 271.31 C 220.68 271.03 222.44 272.10 222.27 273.93 C 222.38 298.27 222.24 322.62 222.34 346.97 C 222.24 348.49 222.62 350.29 221.34 351.45 C 219.94 351.96 218.40 351.77 216.95 351.85 C 204.60 351.74 192.26 351.92 179.92 351.77 C 178.44 351.92 177.25 350.53 177.50 349.10 C 177.42 324.38 177.51 299.65 177.46 274.93 C 177.34 273.56 177.69 271.56 179.36 271.41 Z" />
<path fill="#ed1c24" opacity="1.00" d=" M 182.36 276.17 C 194.04 276.20 205.72 276.22 217.40 276.17 C 217.40 299.75 217.40 323.34 217.40 346.93 C 205.72 346.89 194.04 346.87 182.36 346.94 C 182.36 323.35 182.38 299.76 182.36 276.17 Z" />
<path fill="#ffffff" opacity="1.00" d=" M 385.47 293.27 C 386.51 291.13 388.70 289.72 390.28 287.97 C 390.26 299.55 390.25 311.13 390.29 322.71 C 388.63 321.06 386.98 319.41 385.34 317.74 C 385.48 309.59 385.17 301.42 385.47 293.27 Z" />
<path fill="#ffffff" opacity="1.00" d=" M 123.18 307.35 C 136.44 306.79 149.76 307.26 163.05 307.11 C 164.79 306.81 166.99 307.88 166.56 309.95 C 166.59 322.99 166.60 336.03 166.55 349.07 C 166.84 350.54 165.61 351.94 164.10 351.77 C 151.04 351.87 137.97 351.81 124.91 351.80 C 123.20 352.15 121.60 350.80 121.77 349.04 C 121.65 336.69 121.80 324.33 121.70 311.97 C 121.76 310.38 121.46 308.18 123.18 307.35 Z" />
<path fill="#ed1c24" opacity="1.00" d=" M 126.65 311.86 C 138.30 311.85 149.96 311.90 161.61 311.83 C 161.76 323.53 161.63 335.23 161.68 346.93 C 150.00 346.88 138.32 346.90 126.64 346.92 C 126.64 335.23 126.63 323.55 126.65 311.86 Z" />
<path fill="#ffffff" opacity="1.00" d=" M 345.20 335.77 C 346.86 337.46 348.76 338.98 350.03 341.01 C 350.24 342.97 350.15 344.96 350.17 346.94 C 352.17 346.91 354.17 346.89 356.17 346.86 C 357.89 348.49 359.58 350.15 361.25 351.84 C 357.16 351.79 353.07 351.87 348.98 351.83 C 347.61 351.75 345.41 351.91 345.35 350.01 C 344.99 345.27 345.32 340.51 345.20 335.77 Z" />
<path fill="#ffffff" opacity="1.00" d=" M 385.34 340.42 C 386.89 338.93 388.50 337.51 390.24 336.25 C 390.24 340.51 390.37 344.78 390.24 349.04 C 390.30 350.28 389.51 351.89 388.06 351.73 C 383.39 351.99 378.71 351.72 374.03 351.88 C 375.67 350.20 377.33 348.54 378.99 346.87 C 381.11 346.91 383.23 346.96 385.35 347.06 C 385.35 344.84 385.35 342.63 385.34 340.42 Z" />
<path fill="#ffffff" opacity="1.00" d=" M 326.42 351.87 C 329.03 349.18 331.69 346.53 334.36 343.88 C 334.01 346.36 335.14 349.38 333.37 351.48 C 331.11 352.06 328.73 351.78 326.42 351.87 Z" />
</svg>
