<?xml version="1.0" encoding="UTF-8" ?>
<!DOCTYPE svg PUBLIC "-//W3C//DTD SVG 1.1//EN" "http://www.w3.org/Graphics/SVG/1.1/DTD/svg11.dtd">
<svg width="512pt" height="512pt" viewBox="0 0 512 512" version="1.1" xmlns="http://www.w3.org/2000/svg">
<path fill="#00a651" opacity="1.00" d=" M 0.00 0.00 L 512.00 0.00 L 512.00 512.00 L 0.00 512.00 L 0.00 0.00 Z" />
<path fill="#ffffff" opacity="1.00" d=" M 345.23 162.97 C 344.91 161.14 346.10 159.25 348.12 159.49 C 360.75 159.39 373.39 159.50 386.03 159.44 C 387.59 159.30 388.98 160.07 390.34 160.72 C 390.14 223.50 390.38 286.28 390.22 349.06 C 390.34 350.88 388.77 352.05 387.05 351.80 C 375.03 351.89 363.01 351.73 350.99 351.86 C 349.28 351.75 347.41 352.05 345.86 351.20 C 344.71 348.66 345.35 345.73 345.20 343.03 C 345.26 283.01 345.19 222.99 345.23 162.97 Z" />
<path fill="#ffffff" opacity="1.00" d=" M 290.38 197.37 C 291.62 196.22 293.51 196.77 295.04 196.58 C 307.07 196.68 319.10 196.51 331.13 196.65 C 332.98 196.39 334.69 197.96 334.31 199.86 C 334.35 247.23 334.31 294.60 334.33 341.97 C 334.31 344.68 334.52 347.42 334.16 350.12 C 333.70 352.06 331.54 351.73 330.04 351.84 C 318.03 351.81 306.02 351.79 294.02 351.85 C 292.54 351.71 290.22 352.13 289.71 350.25 C 289.21 347.22 289.57 344.13 289.49 341.08 C 289.49 294.37 289.52 247.66 289.48 200.95 C 289.66 199.78 289.24 198.17 290.38 197.37 Z" />
<path fill="#ffffff" opacity="1.00" d=" M 234.41 234.42 C 245.58 233.78 256.82 234.37 268.02 234.15 C 271.10 234.26 274.32 233.71 277.29 234.71 C 278.28 237.35 277.73 240.27 277.86 243.03 C 277.82 278.03 277.84 313.04 277.85 348.05 C 277.82 349.41 277.91 351.70 275.95 351.68 C 263.31 352.04 250.65 351.67 237.99 351.85 C 236.37 351.61 233.53 352.37 233.14 350.12 C 232.58 347.11 232.89 344.02 232.85 340.98 C 232.86 306.64 232.85 272.29 232.85 237.95 C 232.99 236.77 232.90 234.68 234.41 234.42 Z" />
<path fill="#ffffff" opacity="1.00" d=" M 179.40 271.44 C 191.91 271.05 204.45 271.43 216.97 271.26 C 219.02 271.24 222.35 270.99 222.25 273.95 C 222.39 298.65 222.25 323.35 222.32 348.05 C 222.43 349.56 221.94 351.91 219.97 351.72 C 207.31 351.98 194.64 351.71 181.97 351.85 C 180.51 351.72 178.25 352.10 177.69 350.29 C 177.21 347.56 177.52 344.76 177.46 342.00 C 177.48 319.64 177.47 297.28 177.46 274.92 C 177.37 273.55 177.74 271.60 179.40 271.44 Z" />
<path fill="#ffffff" opacity="1.00" d=" M 123.37 307.37 C 135.88 306.72 148.47 307.33 161.01 307.08 C 163.07 307.05 166.87 306.77 166.55 309.89 C 166.61 322.93 166.60 335.98 166.56 349.03 C 166.79 350.53 165.56 351.90 164.02 351.76 C 152.34 351.94 140.64 351.72 128.95 351.85 C 126.90 351.80 124.80 352.00 122.80 351.45 C 121.39 349.96 121.79 347.80 121.69 345.96 C 121.79 334.30 121.70 322.64 121.72 310.98 C 121.75 309.73 121.87 307.70 123.37 307.37 Z" />
</svg>
