<?xml version="1.0" encoding="UTF-8" ?>
<!DOCTYPE svg PUBLIC "-//W3C//DTD SVG 1.1//EN" "http://www.w3.org/Graphics/SVG/1.1/DTD/svg11.dtd">
<svg width="512pt" height="512pt" viewBox="0 0 512 512" version="1.1" xmlns="http://www.w3.org/2000/svg">
<path fill="#ef9c00" opacity="1.00" d=" M 0.00 0.00 L 512.00 0.00 L 512.00 512.00 L 0.00 512.00 L 0.00 0.00 M 121.58 115.07 C 121.60 207.03 121.59 298.98 121.58 390.94 C 121.70 394.64 121.02 398.63 122.86 402.04 C 124.98 406.66 129.78 410.10 134.97 409.76 C 163.19 409.69 191.41 409.89 219.63 409.65 C 219.00 407.83 218.35 405.97 218.43 404.02 C 218.43 368.66 218.42 333.31 218.44 297.95 C 218.29 290.67 224.18 284.29 231.24 283.12 C 231.27 270.65 234.39 258.24 240.22 247.22 C 249.66 229.20 266.49 215.16 286.03 209.39 C 297.41 205.76 309.67 205.38 321.42 207.22 C 343.41 211.07 363.44 224.94 374.52 244.36 C 381.51 256.12 384.87 269.73 385.29 283.34 C 386.59 283.55 387.91 283.76 389.22 283.96 C 389.26 227.64 389.23 171.32 389.24 115.01 C 389.36 108.31 384.07 101.06 376.94 101.28 C 295.96 101.26 214.97 101.27 133.99 101.27 C 126.86 100.99 121.20 108.28 121.58 115.07 M 258.24 238.32 C 247.31 250.49 240.91 266.81 241.18 283.22 C 249.88 283.15 258.57 283.29 267.26 283.14 C 267.09 267.32 277.05 252.06 291.49 245.68 C 303.60 240.19 318.43 241.12 329.66 248.28 C 339.13 254.11 346.00 263.98 348.22 274.87 C 348.77 277.67 348.54 280.59 349.47 283.32 C 358.09 283.06 366.72 283.27 375.34 283.20 C 375.17 271.22 372.00 259.25 365.86 248.93 C 353.40 227.28 327.98 213.89 303.09 216.10 C 286.01 217.31 269.59 225.51 258.24 238.32 M 290.00 257.86 C 281.95 263.55 277.00 273.29 277.13 283.16 C 297.88 283.26 318.64 283.18 339.39 283.20 C 339.28 270.50 331.10 258.30 319.11 253.91 C 309.56 250.28 298.20 251.69 290.00 257.86 M 231.31 293.37 C 229.03 294.20 228.05 296.71 228.28 298.99 C 228.28 333.32 228.30 367.66 228.27 401.99 C 228.35 403.85 228.12 406.05 229.64 407.46 C 231.25 409.19 233.86 409.09 236.05 409.20 C 284.73 409.11 333.41 409.28 382.09 409.11 C 385.53 409.40 388.55 406.49 388.16 403.00 C 388.18 368.32 388.19 333.64 388.16 298.96 C 388.53 295.50 385.52 292.48 382.07 292.76 C 334.73 292.74 287.38 292.77 240.04 292.74 C 237.13 292.83 234.10 292.37 231.31 293.37 Z" />
<path fill="#ffffff" opacity="1.00" d=" M 121.58 115.07 C 121.20 108.28 126.86 100.99 133.99 101.27 C 214.97 101.27 295.96 101.26 376.94 101.28 C 384.07 101.06 389.36 108.31 389.24 115.01 C 389.23 171.32 389.26 227.64 389.22 283.96 C 387.91 283.76 386.59 283.55 385.29 283.34 C 384.87 269.73 381.51 256.12 374.52 244.36 C 363.44 224.94 343.41 211.07 321.42 207.22 C 309.67 205.38 297.41 205.76 286.03 209.39 C 266.49 215.16 249.66 229.20 240.22 247.22 C 234.39 258.24 231.27 270.65 231.24 283.12 C 224.18 284.29 218.29 290.67 218.44 297.95 C 218.42 333.31 218.43 368.66 218.43 404.02 C 218.35 405.97 219.00 407.83 219.63 409.65 C 191.41 409.89 163.19 409.69 134.97 409.76 C 129.78 410.10 124.98 406.66 122.86 402.04 C 121.02 398.63 121.70 394.64 121.58 390.94 C 121.59 298.98 121.60 207.03 121.58 115.07 M 140.54 112.70 C 136.63 114.20 133.68 117.84 132.97 121.96 C 131.68 128.88 137.90 136.00 144.97 135.54 C 152.58 135.62 158.61 127.08 155.78 119.95 C 153.83 113.77 146.56 110.50 140.54 112.70 M 362.37 112.57 C 356.04 114.63 352.37 122.56 355.44 128.61 C 358.21 135.25 367.50 137.83 373.14 133.21 C 378.82 129.30 379.49 120.23 374.52 115.49 C 371.49 112.15 366.56 111.46 362.37 112.57 M 140.42 375.62 C 136.54 377.18 133.60 380.82 132.95 384.95 C 131.77 391.83 138.00 398.86 145.00 398.44 C 151.71 398.40 157.45 391.71 156.33 385.05 C 155.55 377.84 147.16 372.60 140.42 375.62 Z" />
<path fill="#ef9c00" opacity="1.00" d=" M 140.54 112.70 C 146.56 110.50 153.83 113.77 155.78 119.95 C 158.61 127.08 152.58 135.62 144.97 135.54 C 137.90 136.00 131.68 128.88 132.97 121.96 C 133.68 117.84 136.63 114.20 140.54 112.70 Z" />
<path fill="#ef9c00" opacity="1.00" d=" M 362.37 112.57 C 366.56 111.46 371.49 112.15 374.52 115.49 C 379.49 120.23 378.82 129.30 373.14 133.21 C 367.50 137.83 358.21 135.25 355.44 128.61 C 352.37 122.56 356.04 114.63 362.37 112.57 Z" />
<path fill="#ffffff" opacity="1.00" d=" M 258.24 238.32 C 269.59 225.51 286.01 217.31 303.09 216.10 C 327.98 213.89 353.40 227.28 365.86 248.93 C 372.00 259.25 375.17 271.22 375.34 283.20 C 366.72 283.27 358.09 283.06 349.47 283.32 C 348.54 280.59 348.77 277.67 348.22 274.87 C 346.00 263.98 339.13 254.11 329.66 248.28 C 318.43 241.12 303.60 240.19 291.49 245.68 C 277.05 252.06 267.09 267.32 267.26 283.14 C 258.57 283.29 249.88 283.15 241.18 283.22 C 240.91 266.81 247.31 250.49 258.24 238.32 Z" />
<path fill="#ffffff" opacity="1.00" d=" M 290.00 257.86 C 298.20 251.69 309.56 250.28 319.11 253.91 C 331.10 258.30 339.28 270.50 339.39 283.20 C 318.64 283.18 297.88 283.26 277.13 283.16 C 277.00 273.29 281.95 263.55 290.00 257.86 Z" />
<path fill="#ffffff" opacity="1.00" d=" M 231.31 293.37 C 234.10 292.37 237.13 292.83 240.04 292.74 C 287.38 292.77 334.73 292.74 382.07 292.76 C 385.52 292.48 388.53 295.50 388.16 298.96 C 388.19 333.64 388.18 368.32 388.16 403.00 C 388.55 406.49 385.53 409.40 382.09 409.11 C 333.41 409.28 284.73 409.11 236.05 409.20 C 233.86 409.09 231.25 409.19 229.64 407.46 C 228.12 406.05 228.35 403.85 228.27 401.99 C 228.30 367.66 228.28 333.32 228.28 298.99 C 228.05 296.71 229.03 294.20 231.31 293.37 M 297.88 331.10 C 295.15 337.04 297.68 344.24 302.57 348.23 C 300.83 361.78 298.85 375.31 296.76 388.81 C 306.70 388.82 316.65 388.73 326.59 388.86 C 324.54 375.49 322.93 362.04 320.66 348.71 C 323.51 345.72 326.29 342.23 326.52 337.92 C 327.38 330.71 322.09 323.47 315.01 321.97 C 308.07 320.18 300.30 324.38 297.88 331.10 Z" />
<path fill="#ef9c00" opacity="1.00" d=" M 297.88 331.10 C 300.30 324.38 308.07 320.18 315.01 321.97 C 322.09 323.47 327.38 330.71 326.52 337.92 C 326.29 342.23 323.51 345.72 320.66 348.71 C 322.93 362.04 324.54 375.49 326.59 388.86 C 316.65 388.73 306.70 388.82 296.76 388.81 C 298.85 375.31 300.83 361.78 302.57 348.23 C 297.68 344.24 295.15 337.04 297.88 331.10 Z" />
<path fill="#ef9c00" opacity="1.00" d=" M 140.42 375.62 C 147.16 372.60 155.55 377.84 156.33 385.05 C 157.45 391.71 151.71 398.40 145.00 398.44 C 138.00 398.86 131.77 391.83 132.95 384.95 C 133.60 380.82 136.54 377.18 140.42 375.62 Z" />
</svg>
