<?xml version="1.0" encoding="UTF-8" ?>
<!DOCTYPE svg PUBLIC "-//W3C//DTD SVG 1.1//EN" "http://www.w3.org/Graphics/SVG/1.1/DTD/svg11.dtd">
<svg width="512pt" height="512pt" viewBox="0 0 512 512" version="1.1" xmlns="http://www.w3.org/2000/svg">
<path fill="#009f3c" opacity="1.00" d=" M 0.00 0.00 L 512.00 0.00 L 512.00 512.00 L 0.00 512.00 L 0.00 0.00 M 113.43 134.97 C 113.39 204.64 113.45 274.32 113.40 344.00 C 112.93 349.09 117.86 353.92 122.95 353.38 C 129.74 353.36 136.53 353.33 143.33 353.38 C 143.33 333.01 143.37 312.64 143.31 292.28 C 144.66 291.37 146.11 290.63 147.60 289.97 C 144.19 289.80 140.00 290.70 137.54 287.67 C 137.17 273.33 137.58 258.95 137.35 244.60 C 138.81 243.90 140.27 243.00 141.97 243.19 C 160.77 243.22 179.57 243.18 198.38 243.22 C 198.41 239.59 198.40 235.96 198.37 232.34 C 199.02 231.69 199.66 231.05 200.31 230.42 C 205.72 229.90 212.47 232.26 216.61 227.61 C 222.64 221.59 228.52 215.42 234.77 209.62 C 259.82 209.59 284.87 209.62 309.92 209.60 C 310.13 187.41 310.10 165.21 309.97 143.02 C 310.01 138.72 310.79 133.90 308.09 130.19 C 306.08 127.27 302.48 125.99 299.04 126.20 C 240.36 126.24 181.67 126.16 122.99 126.24 C 118.23 126.06 113.36 130.07 113.43 134.97 M 237.37 213.48 C 229.42 220.07 222.02 227.40 214.27 234.26 C 210.27 234.21 206.27 234.22 202.28 234.23 C 202.28 238.57 202.28 242.91 202.28 247.25 C 181.90 247.25 161.53 247.24 141.15 247.25 C 141.18 260.04 141.21 272.82 141.13 285.61 C 162.54 285.63 183.94 285.65 205.35 285.60 C 205.40 280.78 205.18 275.95 205.40 271.13 C 205.34 269.29 207.36 268.30 208.99 268.49 C 213.65 268.42 218.30 268.50 222.96 268.46 C 224.56 268.28 226.15 268.75 227.23 269.99 C 227.75 275.18 227.31 280.42 227.43 285.63 C 256.86 285.58 286.29 285.72 315.72 285.55 C 315.64 280.31 315.68 275.07 315.69 269.83 C 316.73 269.33 317.66 268.32 318.92 268.46 C 324.49 268.45 330.08 268.30 335.65 268.54 C 337.80 268.53 338.24 271.25 338.07 272.92 C 337.75 277.10 337.80 281.30 337.80 285.49 C 357.99 285.67 378.19 285.50 398.38 285.58 C 398.37 272.84 398.35 260.10 398.39 247.36 C 379.54 247.38 360.68 247.41 341.83 247.35 C 341.84 243.01 341.82 238.67 341.86 234.33 C 337.57 234.37 333.29 234.37 329.00 234.35 C 322.72 227.36 316.26 220.52 310.08 213.44 C 285.85 213.36 261.60 213.28 237.37 213.48 M 210.48 307.17 C 214.41 307.13 218.34 307.13 222.28 307.14 C 222.29 295.97 222.27 284.80 222.29 273.63 C 218.33 273.63 214.37 273.63 210.41 273.62 C 210.46 284.80 210.32 295.99 210.48 307.17 M 321.21 273.70 C 321.17 284.75 321.22 295.80 321.18 306.85 C 324.99 306.82 328.80 306.82 332.61 306.85 C 332.56 295.80 332.63 284.75 332.57 273.71 C 328.78 273.73 325.00 273.73 321.21 273.70 M 147.41 294.37 C 147.34 325.17 147.58 355.97 147.59 386.77 C 229.00 386.81 310.41 386.79 391.82 386.78 C 391.87 355.99 391.79 325.21 391.86 294.42 C 373.84 294.42 355.81 294.30 337.80 294.48 C 337.81 300.13 337.88 305.77 337.74 311.42 C 333.02 313.13 327.87 311.89 322.96 312.29 C 320.56 312.04 316.93 313.24 315.76 310.36 C 315.53 305.05 315.72 299.73 315.72 294.42 C 286.29 294.25 256.86 294.37 227.43 294.35 C 227.42 299.26 227.51 304.17 227.44 309.09 C 227.77 310.64 226.28 311.49 225.32 312.34 C 219.49 312.05 213.65 312.40 207.82 312.18 C 206.56 312.13 205.38 311.05 205.41 309.76 C 205.17 304.63 205.40 299.50 205.35 294.37 C 186.04 294.32 166.72 294.32 147.41 294.37 Z" />
<path fill="#ffffff" opacity="1.00" d=" M 113.43 134.97 C 113.36 130.07 118.23 126.06 122.99 126.24 C 181.67 126.16 240.36 126.24 299.04 126.20 C 302.48 125.99 306.08 127.27 308.09 130.19 C 310.79 133.90 310.01 138.72 309.97 143.02 C 310.10 165.21 310.13 187.41 309.92 209.60 C 284.87 209.62 259.82 209.59 234.77 209.62 C 228.52 215.42 222.64 221.59 216.61 227.61 C 212.47 232.26 205.72 229.90 200.31 230.42 C 199.66 231.05 199.02 231.69 198.37 232.34 C 198.40 235.96 198.41 239.59 198.38 243.22 C 179.57 243.18 160.77 243.22 141.97 243.19 C 140.27 243.00 138.81 243.90 137.35 244.60 C 137.58 258.95 137.17 273.33 137.54 287.67 C 140.00 290.70 144.19 289.80 147.60 289.97 C 146.11 290.63 144.66 291.37 143.31 292.28 C 143.37 312.64 143.33 333.01 143.33 353.38 C 136.53 353.33 129.74 353.36 122.95 353.38 C 117.86 353.92 112.93 349.09 113.40 344.00 C 113.45 274.32 113.39 204.64 113.43 134.97 M 127.38 134.56 C 121.43 136.37 119.07 144.84 123.89 149.08 C 128.44 154.42 138.14 150.98 138.67 144.14 C 139.80 138.06 133.19 132.56 127.38 134.56 M 290.38 134.61 C 284.21 136.54 282.13 145.53 287.47 149.55 C 292.25 154.36 301.45 150.58 301.76 143.93 C 302.79 137.84 296.12 132.54 290.38 134.61 M 127.25 328.23 C 124.02 329.35 121.41 332.43 121.31 335.91 C 120.94 339.66 123.41 343.34 126.89 344.66 C 132.04 347.04 138.77 342.65 138.72 336.99 C 139.42 331.10 132.71 326.01 127.25 328.23 Z" />
<path fill="#009f3c" opacity="1.00" d=" M 127.38 134.56 C 133.19 132.56 139.80 138.06 138.67 144.14 C 138.14 150.98 128.44 154.42 123.89 149.08 C 119.07 144.84 121.43 136.37 127.38 134.56 Z" />
<path fill="#009f3c" opacity="1.00" d=" M 290.38 134.61 C 296.12 132.54 302.79 137.84 301.76 143.93 C 301.45 150.58 292.25 154.36 287.47 149.55 C 282.13 145.53 284.21 136.54 290.38 134.61 Z" />
<path fill="#ffffff" opacity="1.00" d=" M 237.37 213.48 C 261.60 213.28 285.85 213.36 310.08 213.44 C 316.26 220.52 322.72 227.36 329.00 234.35 C 333.29 234.37 337.57 234.37 341.86 234.33 C 341.82 238.67 341.84 243.01 341.83 247.35 C 360.68 247.41 379.54 247.38 398.39 247.36 C 398.35 260.10 398.37 272.84 398.38 285.58 C 378.19 285.50 357.99 285.67 337.80 285.49 C 337.80 281.30 337.75 277.10 338.07 272.92 C 338.24 271.25 337.80 268.53 335.65 268.54 C 330.08 268.30 324.49 268.45 318.92 268.46 C 317.66 268.32 316.73 269.33 315.69 269.83 C 315.68 275.07 315.64 280.31 315.72 285.55 C 286.29 285.72 256.86 285.58 227.43 285.63 C 227.31 280.42 227.75 275.18 227.23 269.99 C 226.15 268.75 224.56 268.28 222.96 268.46 C 218.30 268.50 213.65 268.42 208.99 268.49 C 207.36 268.30 205.34 269.29 205.40 271.13 C 205.18 275.95 205.40 280.78 205.35 285.60 C 183.94 285.65 162.54 285.63 141.13 285.61 C 141.21 272.82 141.18 260.04 141.15 247.25 C 161.53 247.24 181.90 247.25 202.28 247.25 C 202.28 242.91 202.28 238.57 202.28 234.23 C 206.27 234.22 210.27 234.21 214.27 234.26 C 222.02 227.40 229.42 220.07 237.37 213.48 M 233.95 239.32 C 259.64 239.50 285.34 239.36 311.04 239.40 C 307.57 235.99 304.32 232.36 301.00 228.82 C 282.61 228.77 264.22 228.87 245.83 228.76 C 241.67 232.05 238.05 235.96 233.95 239.32 Z" />
<path fill="#009f3c" opacity="1.00" d=" M 233.95 239.32 C 238.05 235.96 241.67 232.05 245.83 228.76 C 264.22 228.87 282.61 228.77 301.00 228.82 C 304.32 232.36 307.57 235.99 311.04 239.40 C 285.34 239.36 259.64 239.50 233.95 239.32 M 243.99 235.88 C 245.25 235.48 246.48 234.83 247.85 234.87 C 265.75 234.77 283.66 234.99 301.56 234.76 C 300.78 234.04 300.00 233.32 299.22 232.60 C 281.87 232.67 264.51 232.57 247.16 232.65 C 246.12 233.74 245.06 234.82 243.99 235.88 Z" />
<path fill="#ffffff" opacity="1.00" d=" M 243.99 235.88 C 245.06 234.82 246.12 233.74 247.16 232.65 C 264.51 232.57 281.87 232.67 299.22 232.60 C 300.00 233.32 300.78 234.04 301.56 234.76 C 283.66 234.99 265.75 234.77 247.85 234.87 C 246.48 234.83 245.25 235.48 243.99 235.88 Z" />
<path fill="#ffffff" opacity="1.00" d=" M 210.48 307.17 C 210.32 295.99 210.46 284.80 210.41 273.62 C 214.37 273.63 218.33 273.63 222.29 273.63 C 222.27 284.80 222.29 295.97 222.28 307.14 C 218.34 307.13 214.41 307.13 210.48 307.17 Z" />
<path fill="#ffffff" opacity="1.00" d=" M 321.21 273.70 C 325.00 273.73 328.78 273.73 332.57 273.71 C 332.63 284.75 332.56 295.80 332.61 306.85 C 328.80 306.82 324.99 306.82 321.18 306.85 C 321.22 295.80 321.17 284.75 321.21 273.70 Z" />
<path fill="#ffffff" opacity="1.00" d=" M 147.41 294.37 C 166.72 294.32 186.04 294.32 205.35 294.37 C 205.40 299.50 205.17 304.63 205.41 309.76 C 205.38 311.05 206.56 312.13 207.82 312.18 C 213.65 312.40 219.49 312.05 225.32 312.34 C 226.28 311.49 227.77 310.64 227.44 309.09 C 227.51 304.17 227.42 299.26 227.43 294.35 C 256.86 294.37 286.29 294.25 315.72 294.42 C 315.72 299.73 315.53 305.05 315.76 310.36 C 316.93 313.24 320.56 312.04 322.96 312.29 C 327.87 311.89 333.02 313.13 337.74 311.42 C 337.88 305.77 337.81 300.13 337.80 294.48 C 355.81 294.30 373.84 294.42 391.86 294.42 C 391.79 325.21 391.87 355.99 391.82 386.78 C 310.41 386.79 229.00 386.81 147.59 386.77 C 147.58 355.97 147.34 325.17 147.41 294.37 Z" />
<path fill="#009f3c" opacity="1.00" d=" M 127.25 328.23 C 132.71 326.01 139.42 331.10 138.72 336.99 C 138.77 342.65 132.04 347.04 126.89 344.66 C 123.41 343.34 120.94 339.66 121.31 335.91 C 121.41 332.43 124.02 329.35 127.25 328.23 Z" />
</svg>
