<?xml version="1.0" encoding="UTF-8" ?>
<!DOCTYPE svg PUBLIC "-//W3C//DTD SVG 1.1//EN" "http://www.w3.org/Graphics/SVG/1.1/DTD/svg11.dtd">
<svg width="512pt" height="512pt" viewBox="0 0 512 512" version="1.1" xmlns="http://www.w3.org/2000/svg">
<path fill="#977014" opacity="1.00" d=" M 0.00 0.00 L 512.00 0.00 L 512.00 512.00 L 0.00 512.00 L 0.00 0.00 M 128.70 103.66 C 124.53 106.24 122.72 111.27 122.80 116.00 C 122.78 206.67 122.80 297.35 122.79 388.02 C 122.81 392.48 122.45 397.06 123.84 401.38 C 125.76 406.22 130.79 409.60 136.01 409.45 C 216.00 409.45 295.99 409.44 375.98 409.45 C 383.22 409.79 389.51 403.20 389.18 396.03 C 389.23 302.35 389.23 208.66 389.18 114.98 C 389.43 108.19 383.97 101.80 377.08 101.53 C 374.07 104.93 371.07 108.33 368.24 111.89 C 375.51 112.75 380.50 120.58 378.34 127.57 C 376.49 134.76 367.47 138.39 361.02 134.91 C 357.99 133.30 355.90 130.42 354.72 127.26 C 349.06 134.41 342.83 141.10 336.98 148.10 C 340.09 151.13 343.18 154.50 344.12 158.89 C 345.41 162.53 344.40 166.35 343.39 169.92 C 348.28 176.46 350.15 184.88 349.43 192.94 C 347.79 208.22 341.12 222.25 336.84 236.85 C 333.48 245.53 330.34 254.30 326.66 262.85 C 322.53 275.37 317.56 288.63 320.58 301.97 C 322.43 312.33 329.63 321.33 338.99 325.98 C 350.35 332.01 363.51 333.23 376.17 332.77 C 375.63 337.13 373.07 340.98 369.87 343.87 C 363.30 349.74 354.35 351.36 345.89 352.40 C 351.95 358.69 359.95 362.45 366.95 367.46 C 356.37 368.80 345.54 369.11 335.02 367.13 C 330.28 365.99 325.80 363.99 321.15 362.57 C 325.50 369.52 330.35 376.13 335.74 382.32 C 318.86 383.80 302.54 377.27 288.37 368.67 C 288.52 376.42 290.51 383.92 293.42 391.05 C 278.32 387.96 263.28 383.71 249.74 376.18 C 244.21 373.42 239.28 369.67 233.84 366.78 C 234.53 374.59 237.30 381.98 240.46 389.09 C 222.60 385.67 207.76 373.43 196.28 359.87 C 195.01 369.03 198.88 377.71 200.78 386.49 C 192.97 385.49 185.70 382.09 178.85 378.37 C 163.76 369.92 152.16 354.48 150.40 337.03 C 150.27 333.65 149.87 330.30 149.64 326.94 C 150.07 306.53 158.89 287.67 167.51 269.59 C 176.76 252.05 188.27 235.83 200.08 219.95 C 206.21 212.44 212.44 205.01 218.70 197.60 C 232.54 184.04 245.78 169.01 263.48 160.36 C 271.35 156.31 279.92 153.86 288.63 152.57 C 290.05 149.49 291.08 146.04 293.87 143.84 C 300.43 138.14 309.87 138.11 317.97 139.63 C 326.95 126.85 336.21 114.28 345.38 101.63 C 277.28 101.75 209.18 101.66 141.07 101.68 C 136.92 101.79 132.25 100.93 128.70 103.66 M 199.55 224.93 C 201.85 234.93 209.20 242.84 217.42 248.52 C 233.26 258.83 252.50 261.72 271.02 262.64 C 289.55 262.83 308.07 260.99 326.24 257.38 C 329.52 250.13 331.92 242.51 334.89 235.14 C 327.60 236.08 320.32 237.09 312.99 237.58 C 303.58 238.00 294.15 239.34 284.74 238.35 C 268.78 237.77 251.89 235.77 238.30 226.69 C 228.87 220.69 222.48 210.71 219.88 199.93 C 213.11 208.26 205.99 216.33 199.55 224.93 Z" />
<path fill="#ffffff" opacity="1.00" d=" M 128.70 103.66 C 132.25 100.93 136.92 101.79 141.07 101.68 C 209.18 101.66 277.28 101.75 345.38 101.63 C 336.21 114.28 326.95 126.85 317.97 139.63 C 309.87 138.11 300.43 138.14 293.87 143.84 C 291.08 146.04 290.05 149.49 288.63 152.57 C 279.92 153.86 271.35 156.31 263.48 160.36 C 245.78 169.01 232.54 184.04 218.70 197.60 C 212.44 205.01 206.21 212.44 200.08 219.95 C 188.27 235.83 176.76 252.05 167.51 269.59 C 158.89 287.67 150.07 306.53 149.64 326.94 C 149.87 330.30 150.27 333.65 150.40 337.03 C 152.16 354.48 163.76 369.92 178.85 378.37 C 185.70 382.09 192.97 385.49 200.78 386.49 C 198.88 377.71 195.01 369.03 196.28 359.87 C 207.76 373.43 222.60 385.67 240.46 389.09 C 237.30 381.98 234.53 374.59 233.84 366.78 C 239.28 369.67 244.21 373.42 249.74 376.18 C 263.28 383.71 278.32 387.96 293.42 391.05 C 290.51 383.92 288.52 376.42 288.37 368.67 C 302.54 377.27 318.86 383.80 335.74 382.32 C 330.35 376.13 325.50 369.52 321.15 362.57 C 325.80 363.99 330.28 365.99 335.02 367.13 C 345.54 369.11 356.37 368.80 366.95 367.46 C 359.95 362.45 351.95 358.69 345.89 352.40 C 354.35 351.36 363.30 349.74 369.87 343.87 C 373.07 340.98 375.63 337.13 376.17 332.77 C 363.51 333.23 350.35 332.01 338.99 325.98 C 329.63 321.33 322.43 312.33 320.58 301.97 C 317.56 288.63 322.53 275.37 326.66 262.85 C 330.34 254.30 333.48 245.53 336.84 236.85 C 341.12 222.25 347.79 208.22 349.43 192.94 C 350.15 184.88 348.28 176.46 343.39 169.92 C 344.40 166.35 345.41 162.53 344.12 158.89 C 343.18 154.50 340.09 151.13 336.98 148.10 C 342.83 141.10 349.06 134.41 354.72 127.26 C 355.90 130.42 357.99 133.30 361.02 134.91 C 367.47 138.39 376.49 134.76 378.34 127.57 C 380.50 120.58 375.51 112.75 368.24 111.89 C 371.07 108.33 374.07 104.93 377.08 101.53 C 383.97 101.80 389.43 108.19 389.18 114.98 C 389.23 208.66 389.23 302.35 389.18 396.03 C 389.51 403.20 383.22 409.79 375.98 409.45 C 295.99 409.44 216.00 409.45 136.01 409.45 C 130.79 409.60 125.76 406.22 123.84 401.38 C 122.45 397.06 122.81 392.48 122.79 388.02 C 122.80 297.35 122.78 206.67 122.80 116.00 C 122.72 111.27 124.53 106.24 128.70 103.66 M 141.45 112.69 C 136.88 114.37 133.23 118.98 133.46 123.98 C 133.12 130.59 139.42 136.57 146.01 135.95 C 153.30 136.01 159.27 128.03 157.13 121.05 C 155.53 114.51 147.84 110.06 141.45 112.69 M 142.05 374.89 C 136.98 376.48 133.01 381.58 133.46 387.00 C 133.46 394.49 141.84 400.51 148.94 398.00 C 155.36 396.20 159.41 388.45 156.71 382.23 C 154.63 376.48 147.93 373.07 142.05 374.89 M 363.08 374.92 C 358.30 376.46 354.77 381.06 354.48 386.07 C 354.41 391.33 357.98 396.47 363.08 397.98 C 370.50 400.68 379.35 393.94 378.56 386.04 C 378.72 378.41 370.26 372.50 363.08 374.92 Z" />
<path fill="#977014" opacity="1.00" d=" M 141.45 112.69 C 147.84 110.06 155.53 114.51 157.13 121.05 C 159.27 128.03 153.30 136.01 146.01 135.95 C 139.42 136.57 133.12 130.59 133.46 123.98 C 133.23 118.98 136.88 114.37 141.45 112.69 Z" />
<path fill="#ffffff" opacity="1.00" d=" M 199.55 224.93 C 205.99 216.33 213.11 208.26 219.88 199.93 C 222.48 210.71 228.87 220.69 238.30 226.69 C 251.89 235.77 268.78 237.77 284.74 238.35 C 294.15 239.34 303.58 238.00 312.99 237.58 C 320.32 237.09 327.60 236.08 334.89 235.14 C 331.92 242.51 329.52 250.13 326.24 257.38 C 308.07 260.99 289.55 262.83 271.02 262.64 C 252.50 261.72 233.26 258.83 217.42 248.52 C 209.20 242.84 201.85 234.93 199.55 224.93 Z" />
<path fill="#977014" opacity="1.00" d=" M 142.05 374.89 C 147.93 373.07 154.63 376.48 156.71 382.23 C 159.41 388.45 155.36 396.20 148.94 398.00 C 141.84 400.51 133.46 394.49 133.46 387.00 C 133.01 381.58 136.98 376.48 142.05 374.89 Z" />
<path fill="#977014" opacity="1.00" d=" M 363.08 374.92 C 370.26 372.50 378.72 378.41 378.56 386.04 C 379.35 393.94 370.50 400.68 363.08 397.98 C 357.98 396.47 354.41 391.33 354.48 386.07 C 354.77 381.06 358.30 376.46 363.08 374.92 Z" />
</svg>
