<?xml version="1.0" encoding="UTF-8" ?>
<!DOCTYPE svg PUBLIC "-//W3C//DTD SVG 1.1//EN" "http://www.w3.org/Graphics/SVG/1.1/DTD/svg11.dtd">
<svg width="512pt" height="512pt" viewBox="0 0 512 512" version="1.1" xmlns="http://www.w3.org/2000/svg">
<path fill="#476dd0" opacity="1.00" d=" M 0.00 0.00 L 512.00 0.00 L 512.00 512.00 L 0.00 512.00 L 0.00 0.00 M 237.44 109.76 C 219.77 111.97 202.51 117.45 186.81 125.85 C 160.16 140.01 138.08 162.60 124.52 189.56 C 114.19 210.05 108.52 233.02 109.04 256.01 C 108.53 279.49 114.48 302.94 125.27 323.74 C 140.27 352.84 165.31 376.60 195.13 390.10 C 213.85 398.55 234.39 403.37 254.98 402.91 C 299.18 404.16 342.90 382.80 370.39 348.40 C 391.15 322.79 403.00 290.00 402.88 256.99 C 403.32 230.55 396.18 204.09 382.76 181.33 C 365.74 152.16 338.35 129.24 306.64 117.62 C 284.63 109.63 260.68 106.59 237.44 109.76 Z" />
<path fill="#ffffff" opacity="1.00" d=" M 237.44 109.76 C 260.68 106.59 284.63 109.63 306.64 117.62 C 338.35 129.24 365.74 152.16 382.76 181.33 C 396.18 204.09 403.32 230.55 402.88 256.99 C 403.00 290.00 391.15 322.79 370.39 348.40 C 342.90 382.80 299.18 404.16 254.98 402.91 C 234.39 403.37 213.85 398.55 195.13 390.10 C 165.31 376.60 140.27 352.84 125.27 323.74 C 114.48 302.94 108.53 279.49 109.04 256.01 C 108.52 233.02 114.19 210.05 124.52 189.56 C 138.08 162.60 160.16 140.01 186.81 125.85 C 202.51 117.45 219.77 111.97 237.44 109.76 M 237.46 122.74 C 223.94 124.66 210.70 128.58 198.38 134.45 C 170.54 147.62 147.56 170.70 134.48 198.57 C 124.00 220.66 119.79 245.67 122.41 269.98 C 125.43 300.60 139.64 329.91 161.53 351.49 C 182.74 372.58 211.19 386.32 240.95 389.48 C 260.03 391.69 279.57 389.64 297.81 383.62 C 327.49 373.94 353.49 353.45 369.88 326.88 C 383.96 304.36 391.07 277.57 390.00 251.04 C 389.28 228.30 382.52 205.82 370.75 186.36 C 354.52 159.38 328.50 138.41 298.61 128.50 C 279.04 121.81 257.92 120.03 237.46 122.74 Z" />
<path fill="#476dd0" opacity="1.00" d=" M 237.46 122.74 C 257.92 120.03 279.04 121.81 298.61 128.50 C 328.50 138.41 354.52 159.38 370.75 186.36 C 382.52 205.82 389.28 228.30 390.00 251.04 C 391.07 277.57 383.96 304.36 369.88 326.88 C 353.49 353.45 327.49 373.94 297.81 383.62 C 279.57 389.64 260.03 391.69 240.95 389.48 C 211.19 386.32 182.74 372.58 161.53 351.49 C 139.64 329.91 125.43 300.60 122.41 269.98 C 119.79 245.67 124.00 220.66 134.48 198.57 C 147.56 170.70 170.54 147.62 198.38 134.45 C 210.70 128.58 223.94 124.66 237.46 122.74 M 247.76 143.57 C 247.77 171.94 247.74 200.31 247.78 228.68 C 243.96 228.67 240.14 228.65 236.33 228.67 C 244.42 236.32 252.59 243.89 260.70 251.53 C 268.85 243.94 276.86 236.21 285.08 228.69 C 281.21 228.64 277.34 228.68 273.48 228.66 C 273.53 200.29 273.48 171.92 273.50 143.55 C 264.92 143.58 256.34 143.54 247.76 143.57 M 189.19 190.03 C 200.25 200.98 211.43 211.80 222.48 222.75 C 228.30 216.95 235.67 213.24 243.27 210.39 C 243.03 194.69 243.21 179.00 243.18 163.30 C 222.83 165.83 203.73 175.68 189.19 190.03 M 162.27 251.64 C 177.92 251.51 193.58 251.89 209.21 251.44 C 209.60 243.37 212.83 235.66 217.30 229.01 C 206.08 218.09 194.99 207.04 183.85 196.03 C 170.83 211.55 163.14 231.40 162.27 251.64 M 341.85 217.54 C 341.80 221.40 341.87 225.26 341.78 229.11 C 334.20 228.86 326.61 228.73 319.03 229.14 C 309.81 228.76 300.54 228.81 291.35 229.33 C 282.58 237.29 274.06 245.54 265.37 253.59 C 290.87 253.61 316.37 253.58 341.87 253.60 C 341.85 257.43 341.71 261.25 341.95 265.07 C 350.73 257.38 359.14 249.26 367.68 241.29 C 359.00 233.45 350.68 225.21 341.85 217.54 M 302.50 258.29 C 301.99 266.98 298.89 275.34 294.11 282.57 C 305.82 292.71 317.50 302.90 329.11 313.15 C 340.31 299.74 346.77 282.66 348.68 265.37 C 344.92 268.95 341.14 272.50 337.29 275.98 C 337.26 270.08 337.36 264.19 337.26 258.29 C 325.67 258.33 314.08 258.34 302.50 258.29 M 162.29 259.65 C 163.06 280.58 171.35 300.99 184.99 316.84 C 195.92 305.59 206.80 294.30 217.81 283.13 C 212.86 276.29 209.67 268.13 209.09 259.68 C 193.49 259.62 177.89 259.69 162.29 259.65 M 259.74 302.45 C 259.87 317.91 259.77 333.38 259.79 348.84 C 283.98 348.04 307.72 337.15 324.00 319.24 C 312.18 309.18 300.60 298.83 288.85 288.67 C 281.09 296.52 270.57 300.96 259.74 302.45 M 191.59 321.62 C 190.18 322.57 191.69 323.78 192.46 324.48 C 208.50 339.13 229.71 348.07 251.46 348.90 C 251.54 333.40 251.36 317.90 251.55 302.41 C 241.00 300.98 230.75 296.73 223.08 289.21 C 212.74 300.16 202.06 310.79 191.59 321.62 Z" />
<path fill="#ffffff" opacity="1.00" d=" M 247.76 143.57 C 256.34 143.54 264.92 143.58 273.50 143.55 C 273.48 171.92 273.53 200.29 273.48 228.66 C 277.34 228.68 281.21 228.64 285.08 228.69 C 276.86 236.21 268.85 243.94 260.70 251.53 C 252.59 243.89 244.42 236.32 236.33 228.67 C 240.14 228.65 243.96 228.67 247.78 228.68 C 247.74 200.31 247.77 171.94 247.76 143.57 Z" />
<path fill="#ffffff" opacity="1.00" d=" M 189.19 190.03 C 203.73 175.68 222.83 165.83 243.18 163.30 C 243.21 179.00 243.03 194.69 243.27 210.39 C 235.67 213.24 228.30 216.95 222.48 222.75 C 211.43 211.80 200.25 200.98 189.19 190.03 Z" />
<path fill="#ffffff" opacity="1.00" d=" M 162.27 251.64 C 163.14 231.40 170.83 211.55 183.85 196.03 C 194.99 207.04 206.08 218.09 217.30 229.01 C 212.83 235.66 209.60 243.37 209.21 251.44 C 193.58 251.89 177.92 251.51 162.27 251.64 Z" />
<path fill="#ffffff" opacity="1.00" d=" M 341.85 217.54 C 350.68 225.21 359.00 233.45 367.68 241.29 C 359.14 249.26 350.73 257.38 341.95 265.07 C 341.71 261.25 341.85 257.43 341.87 253.60 C 316.37 253.58 290.87 253.61 265.37 253.59 C 274.06 245.54 282.58 237.29 291.35 229.33 C 300.54 228.81 309.81 228.76 319.03 229.14 C 326.61 228.73 334.20 228.86 341.78 229.11 C 341.87 225.26 341.80 221.40 341.85 217.54 Z" />
<path fill="#ffffff" opacity="1.00" d=" M 302.50 258.29 C 314.08 258.34 325.67 258.33 337.26 258.29 C 337.36 264.19 337.26 270.08 337.29 275.98 C 341.14 272.50 344.92 268.95 348.68 265.37 C 346.77 282.66 340.31 299.74 329.11 313.15 C 317.50 302.90 305.82 292.71 294.11 282.57 C 298.89 275.34 301.99 266.98 302.50 258.29 Z" />
<path fill="#ffffff" opacity="1.00" d=" M 162.29 259.65 C 177.89 259.69 193.49 259.62 209.09 259.68 C 209.67 268.13 212.86 276.29 217.81 283.13 C 206.80 294.30 195.92 305.59 184.99 316.84 C 171.35 300.99 163.06 280.58 162.29 259.65 Z" />
<path fill="#ffffff" opacity="1.00" d=" M 259.74 302.45 C 270.57 300.96 281.09 296.52 288.85 288.67 C 300.60 298.83 312.18 309.18 324.00 319.24 C 307.72 337.15 283.98 348.04 259.79 348.84 C 259.77 333.38 259.87 317.91 259.74 302.45 Z" />
<path fill="#ffffff" opacity="1.00" d=" M 191.59 321.62 C 202.06 310.79 212.74 300.16 223.08 289.21 C 230.75 296.73 241.00 300.98 251.55 302.41 C 251.36 317.90 251.54 333.40 251.46 348.90 C 229.71 348.07 208.50 339.13 192.46 324.48 C 191.69 323.78 190.18 322.57 191.59 321.62 Z" />
</svg>
