<?xml version="1.0" encoding="UTF-8" ?>
<!DOCTYPE svg PUBLIC "-//W3C//DTD SVG 1.1//EN" "http://www.w3.org/Graphics/SVG/1.1/DTD/svg11.dtd">
<svg width="512pt" height="512pt" viewBox="0 0 512 512" version="1.1" xmlns="http://www.w3.org/2000/svg">
<path fill="#04aeda" opacity="1.00" d=" M 0.00 0.00 L 512.00 0.00 L 512.00 512.00 L 0.00 512.00 L 0.00 0.00 M 270.53 145.44 C 267.99 155.15 265.53 164.88 263.04 174.60 C 308.18 174.64 353.32 174.62 398.46 174.61 C 396.00 164.96 393.30 155.37 391.18 145.65 C 388.13 145.33 385.07 145.48 382.02 145.47 C 344.86 145.44 307.69 145.51 270.53 145.44 M 105.33 183.55 C 98.11 184.12 90.89 190.42 91.48 198.04 C 91.56 250.39 91.42 302.74 91.55 355.09 C 92.60 360.93 97.97 366.15 103.96 366.59 C 204.64 366.62 305.32 366.57 406.00 366.62 C 413.76 367.37 421.58 359.85 420.52 351.98 C 420.45 299.67 420.57 247.37 420.46 195.07 C 419.11 188.10 411.96 183.38 405.06 183.43 C 329.03 183.35 253.01 183.42 176.98 183.40 C 153.10 183.50 129.20 183.19 105.33 183.55 Z" />
<path fill="#ffffff" opacity="1.00" d=" M 270.53 145.44 C 307.69 145.51 344.86 145.44 382.02 145.47 C 385.07 145.48 388.13 145.33 391.18 145.65 C 393.30 155.37 396.00 164.96 398.46 174.61 C 353.32 174.62 308.18 174.64 263.04 174.60 C 265.53 164.88 267.99 155.15 270.53 145.44 Z" />
<path fill="#ffffff" opacity="1.00" d=" M 105.33 183.55 C 129.20 183.19 153.10 183.50 176.98 183.40 C 253.01 183.42 329.03 183.35 405.06 183.43 C 411.96 183.38 419.11 188.10 420.46 195.07 C 420.57 247.37 420.45 299.67 420.52 351.98 C 421.58 359.85 413.76 367.37 406.00 366.62 C 305.32 366.57 204.64 366.62 103.96 366.59 C 97.97 366.15 92.60 360.93 91.55 355.09 C 91.42 302.74 91.56 250.39 91.48 198.04 C 90.89 190.42 98.11 184.12 105.33 183.55 M 206.97 195.81 C 207.02 199.08 206.97 202.34 207.01 205.60 C 274.21 205.59 341.42 205.61 408.63 205.60 C 408.60 202.38 408.54 199.17 408.71 195.96 C 395.80 195.58 382.88 195.91 369.96 195.80 C 315.63 195.81 261.30 195.78 206.97 195.81 M 206.96 212.62 C 207.06 260.15 206.86 307.67 207.12 355.20 C 274.23 355.21 341.34 355.13 408.45 355.24 C 408.82 307.70 408.48 260.15 408.62 212.60 C 341.40 212.62 274.18 212.57 206.96 212.62 Z" />
<path fill="#04aeda" opacity="1.00" d=" M 206.97 195.81 C 261.30 195.78 315.63 195.81 369.96 195.80 C 382.88 195.91 395.80 195.58 408.71 195.96 C 408.54 199.17 408.60 202.38 408.63 205.60 C 341.42 205.61 274.21 205.59 207.01 205.60 C 206.97 202.34 207.02 199.08 206.97 195.81 Z" />
<path fill="#04aeda" opacity="1.00" d=" M 206.96 212.62 C 274.18 212.57 341.40 212.62 408.62 212.60 C 408.48 260.15 408.82 307.70 408.45 355.24 C 341.34 355.13 274.23 355.21 207.12 355.20 C 206.86 307.67 207.06 260.15 206.96 212.62 M 232.90 223.09 C 232.88 227.48 232.94 231.87 232.79 236.26 C 282.49 236.37 332.19 236.36 381.89 236.26 C 381.97 231.87 381.91 227.48 381.95 223.10 C 332.26 223.08 282.58 223.07 232.90 223.09 M 251.17 294.85 C 247.56 291.12 243.54 287.84 239.84 284.22 C 237.55 286.67 234.99 288.88 232.96 291.56 C 239.10 297.25 245.28 302.89 251.45 308.54 C 261.30 298.70 271.10 288.81 280.93 278.95 C 282.20 277.34 284.46 276.20 284.90 274.11 C 282.94 271.80 280.61 269.83 278.55 267.62 C 269.19 276.45 260.41 285.88 251.17 294.85 M 285.40 288.17 C 285.43 293.63 285.40 299.09 285.42 304.56 C 317.57 304.78 349.72 304.63 381.87 304.63 C 382.03 299.14 381.88 293.65 381.96 288.16 C 349.77 288.14 317.59 288.13 285.40 288.17 Z" />
<path fill="#ffffff" opacity="1.00" d=" M 232.90 223.09 C 282.58 223.07 332.26 223.08 381.95 223.10 C 381.91 227.48 381.97 231.87 381.89 236.26 C 332.19 236.36 282.49 236.37 232.79 236.26 C 232.94 231.87 232.88 227.48 232.90 223.09 Z" />
<path fill="#ffffff" opacity="1.00" d=" M 251.17 294.85 C 260.41 285.88 269.19 276.45 278.55 267.62 C 280.61 269.83 282.94 271.80 284.90 274.11 C 284.46 276.20 282.20 277.34 280.93 278.95 C 271.10 288.81 261.30 298.70 251.45 308.54 C 245.28 302.89 239.10 297.25 232.96 291.56 C 234.99 288.88 237.55 286.67 239.84 284.22 C 243.54 287.84 247.56 291.12 251.17 294.85 Z" />
<path fill="#ffffff" opacity="1.00" d=" M 285.40 288.17 C 317.59 288.13 349.77 288.14 381.96 288.16 C 381.88 293.65 382.03 299.14 381.87 304.63 C 349.72 304.63 317.57 304.78 285.42 304.56 C 285.40 299.09 285.43 293.63 285.40 288.17 Z" />
</svg>
