<?xml version="1.0" encoding="UTF-8" ?>
<!DOCTYPE svg PUBLIC "-//W3C//DTD SVG 1.1//EN" "http://www.w3.org/Graphics/SVG/1.1/DTD/svg11.dtd">
<svg width="512pt" height="512pt" viewBox="0 0 512 512" version="1.1" xmlns="http://www.w3.org/2000/svg">
<path fill="#1958b7" opacity="1.00" d=" M 0.00 0.00 L 512.00 0.00 L 512.00 512.00 L 0.00 512.00 L 0.00 0.00 M 233.57 116.94 C 200.83 122.16 170.20 139.45 148.83 164.79 C 129.75 187.15 117.82 215.63 115.81 244.98 C 115.87 256.70 115.07 268.53 117.38 280.10 C 123.22 314.31 142.32 346.03 169.85 367.17 C 190.80 383.61 216.55 393.51 242.99 396.24 C 283.56 400.16 325.53 385.21 354.51 356.53 C 376.27 335.39 390.83 307.00 395.26 276.98 C 398.89 255.70 396.67 233.64 390.19 213.12 C 381.22 184.79 362.93 159.57 338.91 142.11 C 318.26 127.11 293.46 117.60 267.96 115.79 C 256.50 116.00 244.93 114.98 233.57 116.94 Z" />
<path fill="#ffffff" opacity="1.00" d=" M 233.57 116.94 C 244.93 114.98 256.50 116.00 267.96 115.79 C 293.46 117.60 318.26 127.11 338.91 142.11 C 362.93 159.57 381.22 184.79 390.19 213.12 C 396.67 233.64 398.89 255.70 395.26 276.98 C 390.83 307.00 376.27 335.39 354.51 356.53 C 325.53 385.21 283.56 400.16 242.99 396.24 C 216.55 393.51 190.80 383.61 169.85 367.17 C 142.32 346.03 123.22 314.31 117.38 280.10 C 115.07 268.53 115.87 256.70 115.81 244.98 C 117.82 215.63 129.75 187.15 148.83 164.79 C 170.20 139.45 200.83 122.16 233.57 116.94 M 247.02 127.93 C 232.08 128.98 217.34 132.66 203.67 138.77 C 178.02 150.20 156.41 170.36 143.10 195.07 C 125.33 227.61 122.88 267.94 136.46 302.43 C 146.44 328.31 165.19 350.65 188.79 365.20 C 212.56 379.93 241.28 386.53 269.09 383.57 C 296.79 380.88 323.47 368.74 343.70 349.63 C 361.93 332.68 375.06 310.28 380.81 286.05 C 387.27 259.53 384.94 230.94 374.22 205.84 C 363.01 179.23 342.47 156.69 317.04 143.03 C 295.79 131.43 271.15 126.20 247.02 127.93 Z" />
<path fill="#1958b7" opacity="1.00" d=" M 247.02 127.93 C 271.15 126.20 295.79 131.43 317.04 143.03 C 342.47 156.69 363.01 179.23 374.22 205.84 C 384.94 230.94 387.27 259.53 380.81 286.05 C 375.06 310.28 361.93 332.68 343.70 349.63 C 323.47 368.74 296.79 380.88 269.09 383.57 C 241.28 386.53 212.56 379.93 188.79 365.20 C 165.19 350.65 146.44 328.31 136.46 302.43 C 122.88 267.94 125.33 227.61 143.10 195.07 C 156.41 170.36 178.02 150.20 203.67 138.77 C 217.34 132.66 232.08 128.98 247.02 127.93 M 218.28 186.06 C 218.20 192.52 218.16 198.99 218.31 205.45 C 225.27 197.99 234.56 192.25 244.88 191.30 C 253.58 190.05 263.42 191.70 269.83 198.13 C 276.12 204.55 276.91 214.95 272.80 222.74 C 265.33 237.35 249.67 245.43 241.87 259.81 C 236.30 269.18 237.60 280.79 240.43 290.83 C 246.28 290.77 252.13 290.82 257.99 290.79 C 255.96 285.44 254.07 279.85 254.47 274.04 C 254.55 267.35 258.49 261.55 262.68 256.66 C 270.96 247.30 281.59 239.88 287.79 228.79 C 295.19 216.41 294.86 198.99 284.98 188.02 C 276.98 179.17 264.62 175.72 253.01 175.75 C 240.68 175.52 228.74 179.76 218.28 186.06 M 246.42 312.59 C 242.48 314.14 238.97 317.64 238.38 321.96 C 237.06 328.23 241.68 334.74 247.92 335.82 C 255.01 337.51 262.69 331.29 262.38 323.96 C 262.56 316.06 253.84 309.95 246.42 312.59 Z" />
<path fill="#ffffff" opacity="1.00" d=" M 218.28 186.06 C 228.74 179.76 240.68 175.52 253.01 175.75 C 264.62 175.72 276.98 179.17 284.98 188.02 C 294.86 198.99 295.19 216.41 287.79 228.79 C 281.59 239.88 270.96 247.30 262.68 256.66 C 258.49 261.55 254.55 267.35 254.47 274.04 C 254.07 279.85 255.96 285.44 257.99 290.79 C 252.13 290.82 246.28 290.77 240.43 290.83 C 237.60 280.79 236.30 269.18 241.87 259.81 C 249.67 245.43 265.33 237.35 272.80 222.74 C 276.91 214.95 276.12 204.55 269.83 198.13 C 263.42 191.70 253.58 190.05 244.88 191.30 C 234.56 192.25 225.27 197.99 218.31 205.45 C 218.16 198.99 218.20 192.52 218.28 186.06 Z" />
<path fill="#ffffff" opacity="1.00" d=" M 246.42 312.59 C 253.84 309.95 262.56 316.06 262.38 323.96 C 262.69 331.29 255.01 337.51 247.92 335.82 C 241.68 334.74 237.06 328.23 238.38 321.96 C 238.97 317.64 242.48 314.14 246.42 312.59 Z" />
</svg>
