<?xml version="1.0" encoding="UTF-8" ?>
<!DOCTYPE svg PUBLIC "-//W3C//DTD SVG 1.1//EN" "http://www.w3.org/Graphics/SVG/1.1/DTD/svg11.dtd">
<svg width="512pt" height="512pt" viewBox="0 0 512 512" version="1.1" xmlns="http://www.w3.org/2000/svg">
<path fill="#3c90b2" opacity="1.00" d=" M 0.00 0.00 L 512.00 0.00 L 512.00 512.00 L 0.00 512.00 L 0.00 0.00 M 135.47 108.41 C 132.47 112.27 132.86 117.44 132.82 122.04 C 132.88 210.72 132.78 299.40 132.87 388.07 C 132.44 394.92 137.86 401.92 145.02 401.74 C 162.23 401.77 179.45 401.79 196.66 401.72 C 198.09 398.94 199.86 396.34 202.09 394.14 C 223.60 372.62 245.13 351.12 266.63 329.60 C 269.92 326.27 273.86 323.34 278.56 322.47 C 281.29 322.25 282.94 319.98 284.63 318.13 C 270.24 298.56 265.61 272.58 271.62 249.12 C 275.47 234.74 283.12 221.31 293.82 210.92 C 309.28 195.51 331.10 186.48 352.97 187.12 C 366.27 187.02 379.39 190.74 391.12 196.87 C 391.11 169.88 391.21 142.90 391.08 115.91 C 391.23 108.94 384.88 102.93 377.96 103.25 C 300.96 103.19 223.96 103.23 146.96 103.22 C 142.58 103.04 138.11 104.83 135.47 108.41 M 347.15 192.97 C 325.00 194.20 303.76 205.71 290.48 223.46 C 278.47 239.08 272.89 259.54 275.45 279.09 C 276.78 292.15 282.05 304.66 289.71 315.26 C 301.55 331.61 320.08 342.95 340.06 345.94 C 355.57 348.29 371.88 345.99 385.92 338.88 C 401.21 331.38 413.84 318.61 421.22 303.26 C 428.40 288.72 430.41 271.88 427.63 255.96 C 424.22 237.29 413.62 220.02 398.45 208.60 C 383.96 197.46 365.39 191.81 347.15 192.97 M 284.79 326.10 C 289.90 331.00 295.00 335.90 300.10 340.81 C 301.29 339.58 302.50 338.35 303.70 337.13 C 297.79 333.09 292.71 327.98 288.02 322.61 C 286.94 323.77 285.86 324.93 284.79 326.10 M 268.53 335.57 C 247.72 356.41 226.86 377.21 206.06 398.06 C 202.35 401.63 199.97 406.84 200.80 412.05 C 201.53 418.04 206.14 423.22 211.93 424.82 C 217.41 426.62 223.49 424.44 227.46 420.50 C 249.31 398.69 271.12 376.83 292.97 355.01 C 295.35 352.60 297.62 349.78 297.98 346.29 C 292.29 341.24 286.90 335.85 281.40 330.59 C 280.32 329.82 279.57 328.22 278.09 328.30 C 274.25 329.72 271.32 332.68 268.53 335.57 M 308.36 340.26 C 306.88 341.82 305.41 343.39 303.97 344.99 C 303.67 350.93 300.11 356.02 295.89 359.94 C 281.90 373.85 268.02 387.86 254.01 401.75 C 295.68 401.75 337.35 401.78 379.03 401.74 C 385.74 401.91 391.37 395.64 391.10 389.04 C 391.18 373.66 391.13 358.28 391.12 342.90 C 379.35 348.93 366.29 352.64 353.01 352.66 C 337.33 352.98 321.64 348.58 308.36 340.26 Z" />
<path fill="#ffffff" opacity="1.00" d=" M 135.47 108.41 C 138.11 104.83 142.58 103.04 146.96 103.22 C 223.96 103.23 300.96 103.19 377.96 103.25 C 384.88 102.93 391.23 108.94 391.08 115.91 C 391.21 142.90 391.11 169.88 391.12 196.87 C 379.39 190.74 366.27 187.02 352.97 187.12 C 331.10 186.48 309.28 195.51 293.82 210.92 C 283.12 221.31 275.47 234.74 271.62 249.12 C 265.61 272.58 270.24 298.56 284.63 318.13 C 282.94 319.98 281.29 322.25 278.56 322.47 C 273.86 323.34 269.92 326.27 266.63 329.60 C 245.13 351.12 223.60 372.62 202.09 394.14 C 199.86 396.34 198.09 398.94 196.66 401.72 C 179.45 401.79 162.23 401.77 145.02 401.74 C 137.86 401.92 132.44 394.92 132.87 388.07 C 132.78 299.40 132.88 210.72 132.82 122.04 C 132.86 117.44 132.47 112.27 135.47 108.41 M 151.37 114.58 C 146.36 116.31 142.82 121.75 143.73 127.05 C 144.58 132.80 150.25 137.42 156.09 136.70 C 163.15 136.23 168.60 128.09 165.70 121.45 C 163.74 115.77 157.03 112.64 151.37 114.58 M 365.40 114.60 C 360.44 116.34 356.91 121.73 357.75 126.98 C 358.65 132.71 364.21 137.42 370.10 136.70 C 377.35 136.29 382.76 127.81 379.60 121.12 C 377.57 115.57 370.91 112.69 365.40 114.60 M 151.40 368.58 C 147.67 369.93 144.70 373.19 143.86 377.08 C 142.21 383.77 148.08 391.02 154.98 390.73 C 162.21 391.09 168.38 383.12 165.96 376.22 C 164.29 370.15 157.34 366.55 151.40 368.58 Z" />
<path fill="#3c90b2" opacity="1.00" d=" M 151.37 114.58 C 157.03 112.64 163.74 115.77 165.70 121.45 C 168.60 128.09 163.15 136.23 156.09 136.70 C 150.25 137.42 144.58 132.80 143.73 127.05 C 142.82 121.75 146.36 116.31 151.37 114.58 Z" />
<path fill="#3c90b2" opacity="1.00" d=" M 365.40 114.60 C 370.91 112.69 377.57 115.57 379.60 121.12 C 382.76 127.81 377.35 136.29 370.10 136.70 C 364.21 137.42 358.65 132.71 357.75 126.98 C 356.91 121.73 360.44 116.34 365.40 114.60 Z" />
<path fill="#ffffff" opacity="1.00" d=" M 347.15 192.97 C 365.39 191.81 383.96 197.46 398.45 208.60 C 413.62 220.02 424.22 237.29 427.63 255.96 C 430.41 271.88 428.40 288.72 421.22 303.26 C 413.84 318.61 401.21 331.38 385.92 338.88 C 371.88 345.99 355.57 348.29 340.06 345.94 C 320.08 342.95 301.55 331.61 289.71 315.26 C 282.05 304.66 276.78 292.15 275.45 279.09 C 272.89 259.54 278.47 239.08 290.48 223.46 C 303.76 205.71 325.00 194.20 347.15 192.97 M 347.64 214.10 C 329.82 215.20 313.08 225.70 303.95 240.97 C 296.31 253.43 294.06 268.97 297.53 283.13 C 300.90 297.53 310.44 310.30 323.11 317.88 C 336.23 325.86 352.74 327.94 367.46 323.62 C 379.67 320.13 390.58 312.30 397.78 301.84 C 404.72 292.05 408.23 279.94 407.71 267.96 C 407.45 250.63 398.19 233.89 383.99 224.06 C 373.53 216.64 360.40 213.03 347.64 214.10 Z" />
<path fill="#3c90b2" opacity="1.00" d=" M 347.64 214.10 C 360.40 213.03 373.53 216.64 383.99 224.06 C 398.19 233.89 407.45 250.63 407.71 267.96 C 408.23 279.94 404.72 292.05 397.78 301.84 C 390.58 312.30 379.67 320.13 367.46 323.62 C 352.74 327.94 336.23 325.86 323.11 317.88 C 310.44 310.30 300.90 297.53 297.53 283.13 C 294.06 268.97 296.31 253.43 303.95 240.97 C 313.08 225.70 329.82 215.20 347.64 214.10 M 315.91 234.95 C 304.87 246.01 299.74 262.56 302.42 277.93 C 304.40 291.34 312.35 303.68 323.55 311.27 C 332.94 317.80 344.67 320.83 356.04 319.81 C 369.69 318.85 382.70 311.77 391.17 301.06 C 391.14 280.29 391.06 259.52 391.21 238.75 C 383.56 228.97 372.10 222.26 359.83 220.36 C 343.99 217.57 326.97 223.30 315.91 234.95 Z" />
<path fill="#ffffff" opacity="1.00" d=" M 315.91 234.95 C 326.97 223.30 343.99 217.57 359.83 220.36 C 372.10 222.26 383.56 228.97 391.21 238.75 C 391.06 259.52 391.14 280.29 391.17 301.06 C 382.70 311.77 369.69 318.85 356.04 319.81 C 344.67 320.83 332.94 317.80 323.55 311.27 C 312.35 303.68 304.40 291.34 302.42 277.93 C 299.74 262.56 304.87 246.01 315.91 234.95 Z" />
<path fill="#ffffff" opacity="1.00" d=" M 284.79 326.10 C 285.86 324.93 286.94 323.77 288.02 322.61 C 292.71 327.98 297.79 333.09 303.70 337.13 C 302.50 338.35 301.29 339.58 300.10 340.81 C 295.00 335.90 289.90 331.00 284.79 326.10 Z" />
<path fill="#ffffff" opacity="1.00" d=" M 268.53 335.57 C 271.32 332.68 274.25 329.72 278.09 328.30 C 279.57 328.22 280.32 329.82 281.40 330.59 C 286.90 335.85 292.29 341.24 297.98 346.29 C 297.62 349.78 295.35 352.60 292.97 355.01 C 271.12 376.83 249.31 398.69 227.46 420.50 C 223.49 424.44 217.41 426.62 211.93 424.82 C 206.14 423.22 201.53 418.04 200.80 412.05 C 199.97 406.84 202.35 401.63 206.06 398.06 C 226.86 377.21 247.72 356.41 268.53 335.57 Z" />
<path fill="#ffffff" opacity="1.00" d=" M 308.36 340.26 C 321.64 348.58 337.33 352.98 353.01 352.66 C 366.29 352.64 379.35 348.93 391.12 342.90 C 391.13 358.28 391.18 373.66 391.10 389.04 C 391.37 395.64 385.74 401.91 379.03 401.74 C 337.35 401.78 295.68 401.75 254.01 401.75 C 268.02 387.86 281.90 373.85 295.89 359.94 C 300.11 356.02 303.67 350.93 303.97 344.99 C 305.41 343.39 306.88 341.82 308.36 340.26 M 365.41 368.60 C 360.45 370.37 356.89 375.77 357.75 381.05 C 358.67 386.74 364.19 391.42 370.05 390.70 C 377.20 390.38 382.60 382.16 379.75 375.51 C 377.84 369.77 371.08 366.66 365.41 368.60 Z" />
<path fill="#3c90b2" opacity="1.00" d=" M 151.40 368.58 C 157.34 366.55 164.29 370.15 165.96 376.22 C 168.38 383.12 162.21 391.09 154.98 390.73 C 148.08 391.02 142.21 383.77 143.86 377.08 C 144.70 373.19 147.67 369.93 151.40 368.58 Z" />
<path fill="#3c90b2" opacity="1.00" d=" M 365.41 368.60 C 371.08 366.66 377.84 369.77 379.75 375.51 C 382.60 382.16 377.20 390.38 370.05 390.70 C 364.19 391.42 358.67 386.74 357.75 381.05 C 356.89 375.77 360.45 370.37 365.41 368.60 Z" />
</svg>
