<?xml version="1.0" encoding="UTF-8" ?>
<!DOCTYPE svg PUBLIC "-//W3C//DTD SVG 1.1//EN" "http://www.w3.org/Graphics/SVG/1.1/DTD/svg11.dtd">
<svg width="512pt" height="512pt" viewBox="0 0 512 512" version="1.1" xmlns="http://www.w3.org/2000/svg">
<path fill="#009f3c" opacity="1.00" d=" M 0.00 0.00 L 512.00 0.00 L 512.00 512.00 L 0.00 512.00 L 0.00 0.00 M 116.48 151.65 C 111.05 153.22 107.03 157.93 105.38 163.20 C 105.05 165.78 105.25 168.38 105.21 170.97 C 105.23 229.66 105.20 288.35 105.23 347.05 C 105.90 354.74 113.24 361.19 120.97 361.10 C 210.66 361.14 300.35 361.14 390.04 361.11 C 398.59 361.36 406.67 353.61 406.07 344.96 C 406.04 285.63 406.05 226.30 406.07 166.97 C 406.54 158.83 399.18 151.09 391.01 151.14 C 301.33 151.08 211.65 151.17 121.97 151.11 C 120.13 151.14 118.26 151.15 116.48 151.65 Z" />
<path fill="#ffffff" opacity="1.00" d=" M 116.48 151.65 C 118.26 151.15 120.13 151.14 121.97 151.11 C 211.65 151.17 301.33 151.08 391.01 151.14 C 399.18 151.09 406.54 158.83 406.07 166.97 C 406.05 226.30 406.04 285.63 406.07 344.96 C 406.67 353.61 398.59 361.36 390.04 361.11 C 300.35 361.14 210.66 361.14 120.97 361.10 C 113.24 361.19 105.90 354.74 105.23 347.05 C 105.20 288.35 105.23 229.66 105.21 170.97 C 105.25 168.38 105.05 165.78 105.38 163.20 C 107.03 157.93 111.05 153.22 116.48 151.65 M 118.23 161.21 C 114.86 162.75 114.36 166.74 114.68 170.01 C 114.78 228.70 114.58 287.39 114.77 346.07 C 115.21 349.43 118.56 352.03 121.95 351.56 C 211.32 351.55 300.68 351.57 390.05 351.55 C 393.51 351.78 396.86 348.44 396.48 344.96 C 396.47 285.64 396.48 226.33 396.47 167.02 C 396.77 163.57 393.44 160.24 389.98 160.52 C 300.99 160.46 211.99 160.54 122.99 160.48 C 121.40 160.59 119.64 160.32 118.23 161.21 Z" />
<path fill="#009f3c" opacity="1.00" d=" M 118.23 161.21 C 119.64 160.32 121.40 160.59 122.99 160.48 C 211.99 160.54 300.99 160.46 389.98 160.52 C 393.44 160.24 396.77 163.57 396.47 167.02 C 396.48 226.33 396.47 285.64 396.48 344.96 C 396.86 348.44 393.51 351.78 390.05 351.55 C 300.68 351.57 211.32 351.55 121.95 351.56 C 118.56 352.03 115.21 349.43 114.77 346.07 C 114.58 287.39 114.78 228.70 114.68 170.01 C 114.36 166.74 114.86 162.75 118.23 161.21 M 190.87 192.65 C 189.51 195.58 189.16 198.80 188.46 201.92 C 183.02 227.36 177.65 252.80 172.20 278.24 C 169.57 270.92 168.50 263.09 166.16 255.65 C 165.81 254.36 164.31 253.76 163.09 253.83 C 152.67 253.80 142.25 253.83 131.83 253.81 C 130.37 253.73 128.34 254.39 128.27 256.13 C 127.78 258.15 130.08 259.57 131.88 259.29 C 141.78 259.28 151.68 259.33 161.59 259.25 C 164.42 270.15 167.18 281.07 169.89 292.00 C 170.42 292.39 171.48 293.17 172.01 293.56 C 173.26 292.90 174.88 292.39 175.02 290.71 C 180.64 263.67 186.71 236.71 192.11 209.62 C 193.50 214.30 193.90 219.19 194.81 223.97 C 200.16 255.15 205.38 286.35 210.73 317.52 C 211.02 320.66 215.99 320.32 216.10 317.27 C 220.60 299.75 225.40 282.31 229.78 264.77 C 230.35 265.37 230.81 266.05 231.17 266.81 C 234.70 274.71 237.99 282.73 241.71 290.54 C 243.11 292.85 246.65 291.31 246.63 288.79 C 251.38 268.02 256.64 247.36 261.07 226.52 C 267.36 247.08 272.78 267.92 278.83 288.56 C 279.41 290.98 282.93 291.19 283.82 288.85 C 296.97 265.69 309.99 242.44 323.11 219.26 C 328.55 249.15 334.14 279.00 339.63 308.88 C 340.15 311.82 340.52 314.83 341.67 317.61 C 342.88 317.57 344.09 317.58 345.31 317.63 C 351.63 297.52 356.50 276.95 362.52 256.74 C 368.90 256.71 375.29 256.99 381.65 256.64 C 384.23 255.79 383.65 251.75 381.01 251.61 C 374.33 251.39 367.64 251.55 360.96 251.54 C 359.40 251.28 358.02 252.29 357.69 253.80 C 353.10 270.32 348.66 286.88 343.96 303.37 C 338.69 273.86 333.06 244.41 327.73 214.92 C 327.38 213.13 327.20 211.27 326.33 209.65 C 324.81 208.61 322.41 208.90 321.76 210.79 C 308.46 234.16 295.46 257.70 282.04 281.00 C 276.29 259.23 269.83 237.64 263.84 215.94 C 263.71 212.80 258.85 212.22 258.43 215.49 C 253.25 237.23 248.15 258.99 243.07 280.76 C 239.36 272.24 235.69 263.69 231.84 255.24 C 231.11 252.91 227.68 252.87 226.95 255.22 C 222.45 271.48 218.41 287.87 213.98 304.16 C 207.44 267.72 201.57 231.15 195.22 194.68 C 194.91 192.57 192.57 192.32 190.87 192.65 Z" />
<path fill="#ffffff" opacity="1.00" d=" M 190.87 192.65 C 192.57 192.32 194.91 192.57 195.22 194.68 C 201.57 231.15 207.44 267.72 213.98 304.16 C 218.41 287.87 222.45 271.48 226.95 255.22 C 227.68 252.87 231.11 252.91 231.84 255.24 C 235.69 263.69 239.36 272.24 243.07 280.76 C 248.15 258.99 253.25 237.23 258.43 215.49 C 258.85 212.22 263.71 212.80 263.84 215.94 C 269.83 237.64 276.29 259.23 282.04 281.00 C 295.46 257.70 308.46 234.16 321.76 210.79 C 322.41 208.90 324.81 208.61 326.33 209.65 C 327.20 211.27 327.38 213.13 327.73 214.92 C 333.06 244.41 338.69 273.86 343.96 303.37 C 348.66 286.88 353.10 270.32 357.69 253.80 C 358.02 252.29 359.40 251.28 360.96 251.54 C 367.64 251.55 374.33 251.39 381.01 251.61 C 383.65 251.75 384.23 255.79 381.65 256.64 C 375.29 256.99 368.90 256.71 362.52 256.74 C 356.50 276.95 351.63 297.52 345.31 317.63 C 344.09 317.58 342.88 317.57 341.67 317.61 C 340.52 314.83 340.15 311.82 339.63 308.88 C 334.14 279.00 328.55 249.15 323.11 219.26 C 309.99 242.44 296.97 265.69 283.82 288.85 C 282.93 291.19 279.41 290.98 278.83 288.56 C 272.78 267.92 267.36 247.08 261.07 226.52 C 256.64 247.36 251.38 268.02 246.63 288.79 C 246.65 291.31 243.11 292.85 241.71 290.54 C 237.99 282.73 234.70 274.71 231.17 266.81 C 230.81 266.05 230.35 265.37 229.78 264.77 C 225.40 282.31 220.60 299.75 216.10 317.27 C 215.99 320.32 211.02 320.66 210.73 317.52 C 205.38 286.35 200.16 255.15 194.81 223.97 C 193.90 219.19 193.50 214.30 192.11 209.62 C 186.71 236.71 180.64 263.67 175.02 290.71 C 174.88 292.39 173.26 292.90 172.01 293.56 C 171.48 293.17 170.42 292.39 169.89 292.00 C 167.18 281.07 164.42 270.15 161.59 259.25 C 151.68 259.33 141.78 259.28 131.88 259.29 C 130.08 259.57 127.78 258.15 128.27 256.13 C 128.34 254.39 130.37 253.73 131.83 253.81 C 142.25 253.83 152.67 253.80 163.09 253.83 C 164.31 253.76 165.81 254.36 166.16 255.65 C 168.50 263.09 169.57 270.92 172.20 278.24 C 177.65 252.80 183.02 227.36 188.46 201.92 C 189.16 198.80 189.51 195.58 190.87 192.65 Z" />
</svg>
