<?xml version="1.0" encoding="UTF-8" ?>
<!DOCTYPE svg PUBLIC "-//W3C//DTD SVG 1.1//EN" "http://www.w3.org/Graphics/SVG/1.1/DTD/svg11.dtd">
<svg width="512pt" height="512pt" viewBox="0 0 512 512" version="1.1" xmlns="http://www.w3.org/2000/svg">
<path fill="#1e86ea" opacity="1.00" d=" M 0.00 0.00 L 512.00 0.00 L 512.00 512.00 L 0.00 512.00 L 0.00 0.00 M 141.18 110.11 C 138.39 112.07 135.36 113.65 132.41 115.35 C 131.78 117.49 132.20 119.79 132.11 122.00 C 132.11 206.80 132.12 291.61 132.10 376.42 C 176.03 383.02 219.96 389.82 263.90 396.22 C 245.10 387.31 229.87 371.14 222.18 351.80 C 215.28 334.93 214.40 315.79 219.16 298.24 C 224.71 278.00 238.21 260.09 256.15 249.19 C 270.95 239.99 288.67 235.83 306.03 236.89 C 312.29 237.74 318.71 237.68 324.72 239.90 C 324.73 215.59 324.74 191.28 324.71 166.98 C 324.73 160.43 322.11 154.30 319.46 148.45 C 314.17 139.77 305.19 133.13 295.05 131.52 C 246.06 124.12 197.07 116.74 148.08 109.35 C 145.77 109.15 143.14 108.48 141.18 110.11 M 285.55 242.82 C 258.25 247.62 234.50 268.01 225.38 294.15 C 219.36 311.03 219.30 329.95 225.31 346.83 C 230.88 362.78 241.83 376.73 255.81 386.17 C 269.32 395.30 285.72 400.12 302.02 399.64 C 319.85 399.33 337.46 392.64 351.08 381.14 C 365.55 369.08 375.52 351.70 378.38 333.06 C 380.52 318.25 378.92 302.81 372.84 289.07 C 364.66 270.26 348.90 254.87 329.85 247.24 C 315.90 241.62 300.34 240.02 285.55 242.82 Z" />
<path fill="#ffffff" opacity="1.00" d=" M 141.18 110.11 C 143.14 108.48 145.77 109.15 148.08 109.35 C 197.07 116.74 246.06 124.12 295.05 131.52 C 305.19 133.13 314.17 139.77 319.46 148.45 C 322.11 154.30 324.73 160.43 324.71 166.98 C 324.74 191.28 324.73 215.59 324.72 239.90 C 318.71 237.68 312.29 237.74 306.03 236.89 C 288.67 235.83 270.95 239.99 256.15 249.19 C 238.21 260.09 224.71 278.00 219.16 298.24 C 214.40 315.79 215.28 334.93 222.18 351.80 C 229.87 371.14 245.10 387.31 263.90 396.22 C 219.96 389.82 176.03 383.02 132.10 376.42 C 132.12 291.61 132.11 206.80 132.11 122.00 C 132.20 119.79 131.78 117.49 132.41 115.35 C 135.36 113.65 138.39 112.07 141.18 110.11 M 198.69 156.84 C 195.50 165.60 193.56 174.78 190.67 183.64 C 195.93 182.06 201.53 181.82 206.96 182.50 C 211.99 183.42 216.07 186.72 220.10 189.64 C 222.47 180.94 224.79 172.21 227.59 163.63 C 224.84 160.85 221.54 158.59 217.95 157.04 C 211.83 154.33 204.97 155.31 198.69 156.84 M 224.21 192.96 C 225.09 194.90 227.35 195.88 228.98 197.18 C 236.01 202.17 245.41 202.27 253.32 199.51 C 255.60 190.77 258.48 182.18 260.52 173.38 C 256.72 174.12 252.91 174.98 249.02 174.76 C 242.41 174.85 236.35 171.35 231.66 166.94 C 228.99 175.55 226.58 184.26 224.21 192.96 M 189.50 188.33 C 187.07 197.07 184.11 205.71 182.30 214.59 C 187.24 213.25 192.45 212.77 197.53 213.51 C 202.74 214.41 207.23 217.49 211.13 220.91 C 213.69 212.18 215.93 203.36 218.71 194.69 C 215.24 191.65 211.36 188.92 206.89 187.61 C 201.20 185.84 195.11 186.73 189.50 188.33 M 215.13 224.31 C 222.38 232.11 234.70 234.93 244.32 230.49 C 247.08 221.88 249.38 213.11 251.80 204.39 C 247.00 205.80 241.93 206.21 236.97 205.68 C 231.48 204.97 226.70 201.80 222.71 198.14 C 220.09 206.84 217.83 215.64 215.13 224.31 Z" />
<path fill="#1e86ea" opacity="1.00" d=" M 198.69 156.84 C 204.97 155.31 211.83 154.33 217.95 157.04 C 221.54 158.59 224.84 160.85 227.59 163.63 C 224.79 172.21 222.47 180.94 220.10 189.64 C 216.07 186.72 211.99 183.42 206.96 182.50 C 201.53 181.82 195.93 182.06 190.67 183.64 C 193.56 174.78 195.50 165.60 198.69 156.84 Z" />
<path fill="#1e86ea" opacity="1.00" d=" M 224.21 192.96 C 226.58 184.26 228.99 175.55 231.66 166.94 C 236.35 171.35 242.41 174.85 249.02 174.76 C 252.91 174.98 256.72 174.12 260.52 173.38 C 258.48 182.18 255.60 190.77 253.32 199.51 C 245.41 202.27 236.01 202.17 228.98 197.18 C 227.35 195.88 225.09 194.90 224.21 192.96 Z" />
<path fill="#1e86ea" opacity="1.00" d=" M 189.50 188.33 C 195.11 186.73 201.20 185.84 206.89 187.61 C 211.36 188.92 215.24 191.65 218.71 194.69 C 215.93 203.36 213.69 212.18 211.13 220.91 C 207.23 217.49 202.74 214.41 197.53 213.51 C 192.45 212.77 187.24 213.25 182.30 214.59 C 184.11 205.71 187.07 197.07 189.50 188.33 Z" />
<path fill="#1e86ea" opacity="1.00" d=" M 215.13 224.31 C 217.83 215.64 220.09 206.84 222.71 198.14 C 226.70 201.80 231.48 204.97 236.97 205.68 C 241.93 206.21 247.00 205.80 251.80 204.39 C 249.38 213.11 247.08 221.88 244.32 230.49 C 234.70 234.93 222.38 232.11 215.13 224.31 Z" />
<path fill="#ffffff" opacity="1.00" d=" M 285.55 242.82 C 300.34 240.02 315.90 241.62 329.85 247.24 C 348.90 254.87 364.66 270.26 372.84 289.07 C 378.92 302.81 380.52 318.25 378.38 333.06 C 375.52 351.70 365.55 369.08 351.08 381.14 C 337.46 392.64 319.85 399.33 302.02 399.64 C 285.72 400.12 269.32 395.30 255.81 386.17 C 241.83 376.73 230.88 362.78 225.31 346.83 C 219.30 329.95 219.36 311.03 225.38 294.15 C 234.50 268.01 258.25 247.62 285.55 242.82 M 293.32 300.45 C 284.83 303.26 278.50 311.97 279.17 321.01 C 279.20 330.46 286.75 339.03 295.98 340.68 C 307.55 343.40 319.96 333.89 320.67 322.09 C 321.58 313.81 316.80 305.40 309.42 301.67 C 304.52 299.09 298.55 298.72 293.32 300.45 Z" />
<path fill="#1e86ea" opacity="1.00" d=" M 293.32 300.45 C 298.55 298.72 304.52 299.09 309.42 301.67 C 316.80 305.40 321.58 313.81 320.67 322.09 C 319.96 333.89 307.55 343.40 295.98 340.68 C 286.75 339.03 279.20 330.46 279.17 321.01 C 278.50 311.97 284.83 303.26 293.32 300.45 Z" />
</svg>
