<?xml version="1.0" encoding="UTF-8" ?>
<!DOCTYPE svg PUBLIC "-//W3C//DTD SVG 1.1//EN" "http://www.w3.org/Graphics/SVG/1.1/DTD/svg11.dtd">
<svg width="512pt" height="512pt" viewBox="0 0 512 512" version="1.1" xmlns="http://www.w3.org/2000/svg">
<path fill="#008b8e" opacity="1.00" d=" M 0.00 0.00 L 512.00 0.00 L 512.00 512.00 L 0.00 512.00 L 0.00 0.00 M 256.12 145.91 C 267.75 157.16 278.80 169.05 290.67 180.05 C 301.83 168.48 313.28 157.19 324.73 145.89 C 313.25 134.39 301.79 122.87 290.24 111.44 C 279.17 123.22 267.41 134.33 256.12 145.91 M 325.12 173.24 C 336.36 184.86 348.13 195.98 359.26 207.71 C 370.93 196.34 382.25 184.62 393.92 173.25 C 382.24 162.12 370.95 150.55 359.61 139.07 C 347.96 150.30 336.81 162.05 325.12 173.24 M 160.51 198.55 C 157.22 201.79 153.70 204.88 150.85 208.52 C 166.27 208.43 181.68 208.55 197.10 208.46 C 200.30 204.93 203.88 201.78 207.15 198.31 C 191.61 198.48 176.01 197.98 160.51 198.55 M 210.70 200.74 C 208.28 203.39 205.57 205.75 203.20 208.43 C 219.46 208.54 235.72 208.50 251.99 208.46 C 255.27 204.97 258.78 201.72 262.14 198.31 C 246.43 198.30 230.72 198.33 215.00 198.29 C 213.07 197.87 211.90 199.57 210.70 200.74 M 268.25 198.27 C 264.85 201.63 261.47 205.03 258.09 208.42 C 274.47 208.65 290.86 208.32 307.24 208.59 C 310.71 205.25 314.28 201.99 317.39 198.32 C 301.01 198.28 284.63 198.37 268.25 198.27 M 310.34 214.20 C 310.39 229.18 310.35 244.17 310.36 259.15 C 313.36 256.88 315.72 253.91 318.51 251.40 C 319.37 250.37 320.85 249.48 320.71 247.96 C 320.71 233.29 320.68 218.61 320.72 203.94 C 317.01 207.10 313.79 210.77 310.34 214.20 M 146.99 212.28 C 143.39 215.42 139.87 218.79 136.84 222.51 C 151.24 222.45 165.64 222.45 180.04 222.51 C 181.26 222.40 182.78 222.80 183.69 221.72 C 186.91 218.61 190.13 215.49 193.13 212.17 C 177.75 212.29 162.36 212.08 146.99 212.28 M 199.27 212.23 C 195.92 215.67 192.40 218.93 189.11 222.43 C 205.40 222.51 221.69 222.47 237.98 222.45 C 241.34 219.03 244.80 215.70 248.12 212.25 C 231.84 212.16 215.55 212.19 199.27 212.23 M 241.49 224.68 C 241.46 241.42 241.34 258.17 241.55 274.90 C 244.73 271.30 248.20 267.99 251.61 264.61 C 251.68 248.02 251.61 231.43 251.65 214.84 C 248.00 217.84 244.97 221.50 241.49 224.68 M 258.44 215.35 C 258.65 231.36 258.18 247.38 258.60 263.38 C 274.52 263.25 290.44 263.38 306.36 263.28 C 306.67 247.39 306.28 231.50 306.56 215.61 C 290.55 214.97 274.48 215.51 258.44 215.35 M 130.94 227.96 C 128.37 230.63 125.73 233.25 123.04 235.81 C 138.60 235.84 154.16 235.87 169.71 235.80 C 172.87 232.61 176.15 229.56 179.17 226.25 C 164.08 226.24 148.99 226.24 133.91 226.25 C 132.59 226.01 131.80 227.22 130.94 227.96 M 172.47 238.77 C 172.30 255.26 172.51 271.75 172.36 288.24 C 176.18 285.52 179.02 281.69 182.53 278.60 C 182.62 262.04 182.53 245.48 182.58 228.92 C 178.96 231.93 175.92 235.57 172.47 238.77 M 187.00 229.25 C 186.65 245.11 186.91 260.99 186.82 276.85 C 202.69 276.87 218.56 276.78 234.42 276.89 C 234.61 261.07 234.29 245.25 234.59 229.43 C 218.73 229.07 202.86 229.47 187.00 229.25 M 317.17 263.86 C 328.62 275.07 339.79 286.59 351.26 297.77 C 351.59 297.71 352.25 297.60 352.58 297.55 C 363.47 286.76 374.24 275.85 385.12 265.06 C 386.43 264.21 385.30 263.09 384.56 262.39 C 373.37 251.50 362.56 240.24 351.33 229.41 C 340.14 241.09 328.39 252.21 317.17 263.86 M 117.81 243.14 C 117.43 258.93 117.91 274.75 117.57 290.55 C 133.50 290.97 149.45 290.45 165.38 290.81 C 165.60 274.81 165.47 258.79 165.44 242.79 C 152.32 242.88 139.21 242.80 126.09 242.83 C 123.33 242.90 120.52 242.52 117.81 243.14 M 320.31 254.40 C 318.97 256.33 317.50 258.22 315.54 259.56 C 313.19 260.90 312.53 263.78 310.39 265.36 C 310.33 281.63 310.37 297.90 310.37 314.17 C 314.00 310.99 317.56 307.60 320.64 303.90 C 320.75 293.64 320.75 283.35 320.64 273.09 C 318.60 269.99 315.29 267.99 313.12 264.98 C 314.13 260.63 317.98 257.40 321.34 254.71 C 321.08 254.64 320.57 254.48 320.31 254.40 M 253.26 268.31 C 250.08 271.25 247.13 274.43 244.01 277.42 C 259.73 277.57 275.46 277.49 291.19 277.46 C 294.44 273.96 298.02 270.77 301.22 267.22 C 286.49 267.18 271.77 267.24 257.04 267.19 C 255.68 267.13 254.21 267.20 253.26 268.31 M 296.72 279.01 C 296.71 295.31 296.71 311.61 296.72 327.90 C 300.16 324.88 303.15 321.39 306.56 318.32 C 306.55 301.92 306.79 285.51 306.45 269.12 C 303.36 272.57 300.04 275.79 296.72 279.01 M 183.68 282.48 C 180.53 286.04 176.82 289.06 173.80 292.73 C 190.41 292.61 207.03 292.79 223.64 292.64 C 226.94 289.21 230.33 285.87 233.76 282.56 C 217.08 282.23 200.37 282.40 183.68 282.48 M 242.18 284.29 C 242.15 300.24 242.25 316.19 242.13 332.15 C 257.89 332.53 273.67 332.08 289.45 332.36 C 289.73 316.36 289.46 300.34 289.60 284.34 C 273.80 284.31 257.99 284.40 242.18 284.29 M 227.57 296.82 C 227.70 311.50 227.60 326.18 227.62 340.87 C 231.26 338.36 233.35 333.54 237.82 332.42 C 237.82 317.19 237.80 301.96 237.83 286.73 C 234.19 289.86 230.98 293.45 227.57 296.82 M 117.57 298.44 C 117.73 314.15 117.80 329.87 117.53 345.57 C 133.56 345.89 149.62 345.87 165.65 345.58 C 165.34 329.86 165.43 314.12 165.61 298.40 C 149.60 298.22 133.57 298.14 117.57 298.44 M 173.01 298.24 C 172.70 313.99 173.04 329.77 172.72 345.53 C 188.75 346.04 204.82 345.65 220.86 345.72 C 221.53 339.50 221.01 333.22 221.17 326.98 C 220.95 317.42 221.61 307.82 220.81 298.30 C 204.88 298.23 188.94 298.33 173.01 298.24 M 310.36 320.38 C 310.43 336.89 310.17 353.42 310.49 369.93 C 313.80 366.43 317.23 363.05 320.68 359.70 C 320.75 343.15 320.66 326.60 320.73 310.06 C 317.19 313.41 313.87 316.99 310.36 320.38 M 296.71 334.04 C 296.62 350.34 296.90 366.65 296.57 382.95 C 300.55 380.70 303.12 376.58 306.61 373.66 C 306.61 357.15 306.57 340.64 306.64 324.13 C 303.34 327.44 300.08 330.80 296.71 334.04 M 227.88 346.59 C 244.40 346.36 260.92 346.59 277.44 346.47 C 280.68 343.01 284.31 339.93 287.33 336.28 C 270.85 336.29 254.37 336.18 237.90 336.33 C 234.29 339.38 230.61 342.72 227.88 346.59 M 282.78 347.99 C 282.70 364.31 282.90 380.62 282.67 396.93 C 285.39 395.69 286.95 392.95 289.18 391.07 C 290.76 389.29 293.54 387.81 293.09 385.03 C 292.63 369.41 293.36 353.67 292.80 338.15 C 289.27 341.23 286.20 344.79 282.78 347.99 M 117.60 353.45 C 117.82 369.36 117.55 385.28 117.73 401.20 C 133.64 401.25 149.55 401.16 165.45 401.24 C 165.59 385.31 165.32 369.37 165.59 353.44 C 149.60 353.24 133.59 353.22 117.60 353.45 M 173.06 353.25 C 172.57 367.18 173.01 381.13 172.83 395.07 C 172.88 397.06 172.60 399.13 173.26 401.07 C 188.98 401.49 204.74 400.94 220.47 401.34 C 220.94 400.27 221.18 399.17 221.20 398.03 C 221.15 384.33 221.16 370.64 221.19 356.95 C 221.11 355.72 220.96 354.51 220.74 353.30 C 204.84 353.29 188.95 353.39 173.06 353.25 M 228.33 353.31 C 228.51 369.30 228.11 385.32 228.53 401.31 C 244.32 401.09 260.12 401.28 275.91 401.21 C 276.36 385.24 276.18 369.24 276.01 353.27 C 260.12 353.37 244.22 353.30 228.33 353.31 Z" />
<path fill="#ffffff" opacity="1.00" d=" M 256.12 145.91 C 267.41 134.33 279.17 123.22 290.24 111.44 C 301.79 122.87 313.25 134.39 324.73 145.89 C 313.28 157.19 301.83 168.48 290.67 180.05 C 278.80 169.05 267.75 157.16 256.12 145.91 Z" />
<path fill="#ffffff" opacity="1.00" d=" M 325.12 173.24 C 336.81 162.05 347.96 150.30 359.61 139.07 C 370.95 150.55 382.24 162.12 393.92 173.25 C 382.25 184.62 370.93 196.34 359.26 207.71 C 348.13 195.98 336.36 184.86 325.12 173.24 Z" />
<path fill="#ffffff" opacity="1.00" d=" M 160.51 198.55 C 176.01 197.98 191.61 198.48 207.15 198.31 C 203.88 201.78 200.30 204.93 197.10 208.46 C 181.68 208.55 166.27 208.43 150.85 208.52 C 153.70 204.88 157.22 201.79 160.51 198.55 Z" />
<path fill="#ffffff" opacity="1.00" d=" M 210.70 200.74 C 211.90 199.57 213.07 197.87 215.00 198.29 C 230.72 198.33 246.43 198.30 262.14 198.31 C 258.78 201.72 255.27 204.97 251.99 208.46 C 235.72 208.50 219.46 208.54 203.20 208.43 C 205.57 205.75 208.28 203.39 210.70 200.74 Z" />
<path fill="#ffffff" opacity="1.00" d=" M 268.25 198.27 C 284.63 198.37 301.01 198.28 317.39 198.32 C 314.28 201.99 310.71 205.25 307.24 208.59 C 290.86 208.32 274.47 208.65 258.09 208.42 C 261.47 205.03 264.85 201.63 268.25 198.27 Z" />
<path fill="#ffffff" opacity="1.00" d=" M 310.34 214.20 C 313.79 210.77 317.01 207.10 320.72 203.94 C 320.68 218.61 320.71 233.29 320.71 247.96 C 320.85 249.48 319.37 250.37 318.51 251.40 C 315.72 253.91 313.36 256.88 310.36 259.15 C 310.35 244.17 310.39 229.18 310.34 214.20 Z" />
<path fill="#ffffff" opacity="1.00" d=" M 146.99 212.28 C 162.36 212.08 177.75 212.29 193.13 212.17 C 190.13 215.49 186.91 218.61 183.69 221.72 C 182.78 222.80 181.26 222.40 180.04 222.51 C 165.64 222.45 151.24 222.45 136.84 222.51 C 139.87 218.79 143.39 215.42 146.99 212.28 Z" />
<path fill="#ffffff" opacity="1.00" d=" M 199.27 212.23 C 215.55 212.19 231.84 212.16 248.12 212.25 C 244.80 215.70 241.34 219.03 237.98 222.45 C 221.69 222.47 205.40 222.51 189.11 222.43 C 192.40 218.93 195.92 215.67 199.27 212.23 Z" />
<path fill="#ffffff" opacity="1.00" d=" M 241.49 224.68 C 244.97 221.50 248.00 217.84 251.65 214.84 C 251.61 231.43 251.68 248.02 251.61 264.61 C 248.20 267.99 244.73 271.30 241.55 274.90 C 241.34 258.17 241.46 241.42 241.49 224.68 Z" />
<path fill="#ffffff" opacity="1.00" d=" M 258.44 215.35 C 274.48 215.51 290.55 214.97 306.56 215.61 C 306.28 231.50 306.67 247.39 306.36 263.28 C 290.44 263.38 274.52 263.25 258.60 263.38 C 258.18 247.38 258.65 231.36 258.44 215.35 Z" />
<path fill="#ffffff" opacity="1.00" d=" M 130.94 227.96 C 131.80 227.22 132.59 226.01 133.91 226.25 C 148.99 226.24 164.08 226.24 179.17 226.25 C 176.15 229.56 172.87 232.61 169.71 235.80 C 154.16 235.87 138.60 235.84 123.04 235.81 C 125.73 233.25 128.37 230.63 130.94 227.96 Z" />
<path fill="#ffffff" opacity="1.00" d=" M 172.47 238.77 C 175.92 235.57 178.96 231.93 182.58 228.92 C 182.53 245.48 182.62 262.04 182.53 278.60 C 179.02 281.69 176.18 285.52 172.36 288.24 C 172.51 271.75 172.30 255.26 172.47 238.77 Z" />
<path fill="#ffffff" opacity="1.00" d=" M 187.00 229.25 C 202.86 229.47 218.73 229.07 234.59 229.43 C 234.29 245.25 234.61 261.07 234.42 276.89 C 218.56 276.78 202.69 276.87 186.82 276.85 C 186.91 260.99 186.65 245.11 187.00 229.25 Z" />
<path fill="#ffffff" opacity="1.00" d=" M 317.17 263.86 C 328.39 252.21 340.14 241.09 351.33 229.41 C 362.56 240.24 373.37 251.50 384.56 262.39 C 385.30 263.09 386.43 264.21 385.12 265.06 C 374.24 275.85 363.47 286.76 352.58 297.55 C 352.25 297.60 351.59 297.71 351.26 297.77 C 339.79 286.59 328.62 275.07 317.17 263.86 Z" />
<path fill="#ffffff" opacity="1.00" d=" M 117.81 243.14 C 120.52 242.52 123.33 242.90 126.09 242.83 C 139.21 242.80 152.32 242.88 165.44 242.79 C 165.47 258.79 165.60 274.81 165.38 290.81 C 149.45 290.45 133.50 290.97 117.57 290.55 C 117.91 274.75 117.43 258.93 117.81 243.14 Z" />
<path fill="#ffffff" opacity="1.00" d=" M 320.31 254.40 C 320.57 254.48 321.08 254.64 321.34 254.71 C 317.98 257.40 314.13 260.63 313.12 264.98 C 315.29 267.99 318.60 269.99 320.64 273.09 C 320.75 283.35 320.75 293.64 320.64 303.90 C 317.56 307.60 314.00 310.99 310.37 314.17 C 310.37 297.90 310.33 281.63 310.39 265.36 C 312.53 263.78 313.19 260.90 315.54 259.56 C 317.50 258.22 318.97 256.33 320.31 254.40 Z" />
<path fill="#ffffff" opacity="1.00" d=" M 253.26 268.31 C 254.21 267.20 255.68 267.13 257.04 267.19 C 271.77 267.24 286.49 267.18 301.22 267.22 C 298.02 270.77 294.44 273.96 291.19 277.46 C 275.46 277.49 259.73 277.57 244.01 277.42 C 247.13 274.43 250.08 271.25 253.26 268.31 Z" />
<path fill="#ffffff" opacity="1.00" d=" M 296.72 279.01 C 300.04 275.79 303.36 272.57 306.45 269.12 C 306.79 285.51 306.55 301.92 306.56 318.32 C 303.15 321.39 300.16 324.88 296.72 327.90 C 296.71 311.61 296.71 295.31 296.72 279.01 Z" />
<path fill="#ffffff" opacity="1.00" d=" M 183.68 282.48 C 200.37 282.40 217.08 282.23 233.76 282.56 C 230.33 285.87 226.94 289.21 223.64 292.64 C 207.03 292.79 190.41 292.61 173.80 292.73 C 176.82 289.06 180.53 286.04 183.68 282.48 Z" />
<path fill="#ffffff" opacity="1.00" d=" M 242.18 284.29 C 257.99 284.40 273.80 284.31 289.60 284.34 C 289.46 300.34 289.73 316.36 289.45 332.36 C 273.67 332.08 257.89 332.53 242.13 332.15 C 242.25 316.19 242.15 300.24 242.18 284.29 Z" />
<path fill="#ffffff" opacity="1.00" d=" M 227.57 296.82 C 230.98 293.45 234.19 289.86 237.83 286.73 C 237.80 301.96 237.82 317.19 237.82 332.42 C 233.35 333.54 231.26 338.36 227.62 340.87 C 227.60 326.18 227.70 311.50 227.57 296.82 Z" />
<path fill="#ffffff" opacity="1.00" d=" M 117.57 298.44 C 133.57 298.14 149.60 298.22 165.61 298.40 C 165.43 314.12 165.34 329.86 165.65 345.58 C 149.62 345.87 133.56 345.89 117.53 345.57 C 117.80 329.87 117.73 314.15 117.57 298.44 Z" />
<path fill="#ffffff" opacity="1.00" d=" M 173.01 298.24 C 188.94 298.33 204.88 298.23 220.81 298.30 C 221.61 307.82 220.95 317.42 221.17 326.98 C 221.01 333.22 221.53 339.50 220.86 345.72 C 204.82 345.65 188.75 346.04 172.72 345.53 C 173.04 329.77 172.70 313.99 173.01 298.24 Z" />
<path fill="#ffffff" opacity="1.00" d=" M 310.36 320.38 C 313.87 316.99 317.19 313.41 320.73 310.06 C 320.66 326.60 320.75 343.15 320.68 359.70 C 317.23 363.05 313.80 366.43 310.49 369.93 C 310.17 353.42 310.43 336.89 310.36 320.38 Z" />
<path fill="#ffffff" opacity="1.00" d=" M 296.71 334.04 C 300.08 330.80 303.34 327.44 306.64 324.13 C 306.57 340.64 306.61 357.15 306.61 373.66 C 303.12 376.58 300.55 380.70 296.57 382.95 C 296.90 366.65 296.62 350.34 296.71 334.04 Z" />
<path fill="#ffffff" opacity="1.00" d=" M 227.88 346.59 C 230.61 342.72 234.29 339.38 237.90 336.33 C 254.37 336.18 270.85 336.29 287.33 336.28 C 284.31 339.93 280.68 343.01 277.44 346.47 C 260.92 346.59 244.40 346.36 227.88 346.59 Z" />
<path fill="#ffffff" opacity="1.00" d=" M 282.78 347.99 C 286.20 344.79 289.27 341.23 292.80 338.15 C 293.36 353.67 292.63 369.41 293.09 385.03 C 293.54 387.81 290.76 389.29 289.18 391.07 C 286.95 392.95 285.39 395.69 282.67 396.93 C 282.90 380.62 282.70 364.31 282.78 347.99 Z" />
<path fill="#ffffff" opacity="1.00" d=" M 117.60 353.45 C 133.59 353.22 149.60 353.24 165.59 353.44 C 165.32 369.37 165.59 385.31 165.45 401.24 C 149.55 401.16 133.64 401.25 117.73 401.20 C 117.55 385.28 117.82 369.36 117.60 353.45 Z" />
<path fill="#ffffff" opacity="1.00" d=" M 173.06 353.25 C 188.95 353.39 204.84 353.29 220.74 353.30 C 220.96 354.51 221.11 355.72 221.19 356.95 C 221.16 370.64 221.15 384.33 221.20 398.03 C 221.18 399.17 220.94 400.27 220.47 401.34 C 204.74 400.94 188.98 401.49 173.26 401.07 C 172.60 399.13 172.88 397.06 172.83 395.07 C 173.01 381.13 172.57 367.18 173.06 353.25 Z" />
<path fill="#ffffff" opacity="1.00" d=" M 228.33 353.31 C 244.22 353.30 260.12 353.37 276.01 353.27 C 276.18 369.24 276.36 385.24 275.91 401.21 C 260.12 401.28 244.32 401.09 228.53 401.31 C 228.11 385.32 228.51 369.30 228.33 353.31 Z" />
</svg>
