<?xml version="1.0" encoding="UTF-8" ?>
<!DOCTYPE svg PUBLIC "-//W3C//DTD SVG 1.1//EN" "http://www.w3.org/Graphics/SVG/1.1/DTD/svg11.dtd">
<svg width="512pt" height="512pt" viewBox="0 0 512 512" version="1.1" xmlns="http://www.w3.org/2000/svg">
<path fill="#3f79be" opacity="1.00" d=" M 0.00 0.00 L 512.00 0.00 L 512.00 512.00 L 0.00 512.00 L 0.00 0.00 M 217.22 134.30 C 191.03 144.13 168.28 163.05 154.22 187.28 C 144.36 203.42 139.16 222.00 137.36 240.73 C 139.35 237.64 142.22 235.33 144.92 232.91 C 157.94 220.50 175.03 213.17 192.45 209.46 C 193.43 205.94 194.43 202.43 195.46 198.93 C 193.83 195.45 192.94 191.52 190.63 188.41 C 187.35 186.41 183.59 185.38 180.07 183.87 C 178.12 185.41 176.16 186.94 174.20 188.46 C 172.49 185.66 170.78 182.86 169.07 180.05 C 172.10 176.39 174.99 172.62 178.06 168.99 C 179.61 166.85 182.39 166.50 184.75 165.81 C 196.58 162.91 208.23 159.29 220.08 156.49 C 225.64 157.40 230.63 160.37 236.06 161.83 C 239.79 163.05 244.18 158.43 247.34 161.67 C 253.14 166.50 258.62 171.73 264.68 176.23 C 268.76 179.22 271.18 183.79 274.21 187.72 C 277.24 192.12 280.96 195.96 284.48 199.95 C 280.44 205.09 276.44 210.27 272.44 215.44 C 269.51 219.10 269.06 223.93 267.53 228.23 C 272.93 233.22 278.78 237.85 283.06 243.90 C 290.59 253.09 295.97 263.85 300.18 274.91 C 300.55 276.34 300.34 278.13 301.58 279.19 C 306.50 284.30 311.91 288.96 316.56 294.31 C 317.35 298.47 316.72 302.82 316.91 307.06 C 317.35 313.07 314.64 318.59 313.10 324.25 C 310.15 331.82 311.75 340.06 311.39 347.96 C 308.46 350.52 305.93 353.89 302.04 355.04 C 298.65 356.20 295.21 357.23 291.83 358.40 C 291.18 357.47 290.53 356.54 289.89 355.61 C 286.02 361.37 281.48 366.61 276.89 371.79 C 304.89 367.98 331.50 354.50 350.63 333.64 C 369.99 313.35 381.73 286.07 383.52 258.11 C 385.22 233.02 379.24 207.38 366.04 185.94 C 350.68 160.27 325.54 140.80 297.01 131.96 C 271.11 124.01 242.59 124.76 217.22 134.30 M 171.53 231.80 C 172.20 234.04 173.38 237.20 170.63 238.55 C 168.10 239.91 165.99 237.71 164.38 236.03 C 154.68 242.23 146.57 250.68 140.16 260.20 C 141.34 261.11 142.51 262.03 143.69 262.95 C 143.11 264.72 143.12 267.33 140.92 267.93 C 139.25 268.24 137.63 267.36 136.01 267.06 C 131.00 277.25 127.86 288.37 127.23 299.73 C 130.31 299.92 133.64 299.22 136.50 300.62 C 139.16 302.48 138.68 306.65 135.88 308.14 C 133.04 308.76 130.11 308.48 127.23 308.53 C 127.85 319.92 130.98 331.08 136.01 341.30 C 137.71 340.95 139.41 340.44 141.17 340.52 C 142.66 341.46 143.60 343.22 143.12 345.00 C 142.26 346.21 141.15 347.22 140.11 348.28 C 146.43 358.00 154.77 366.33 164.48 372.65 C 165.96 370.79 168.37 368.35 170.84 370.10 C 173.39 371.56 171.77 374.47 171.41 376.66 C 181.62 381.83 192.86 384.85 204.27 385.58 C 204.37 382.67 203.99 379.68 204.69 376.83 C 206.13 373.83 210.84 373.67 212.40 376.64 C 213.23 379.53 212.78 382.60 212.90 385.57 C 224.32 384.84 235.59 381.84 245.79 376.63 C 245.42 374.42 243.95 371.72 246.08 369.95 C 247.36 369.63 248.66 369.39 249.97 369.21 C 250.83 370.36 251.70 371.51 252.56 372.67 C 262.06 366.16 270.46 358.05 276.79 348.39 C 275.74 347.26 274.64 346.19 273.73 344.95 C 273.90 343.43 274.30 341.95 274.65 340.47 C 276.84 340.40 279.01 340.66 281.12 341.27 C 286.16 331.07 289.37 319.91 289.88 308.52 C 286.95 308.42 283.91 308.88 281.07 308.04 C 279.79 306.94 279.10 305.35 278.21 303.97 C 279.20 302.70 280.05 301.27 281.35 300.28 C 284.10 299.43 287.05 299.84 289.90 299.73 C 289.39 288.40 286.15 277.37 281.03 267.30 C 278.68 267.87 275.19 268.93 274.05 265.93 C 272.53 263.41 275.39 261.59 276.88 260.00 C 270.31 250.59 262.41 241.93 252.70 235.70 C 251.23 237.22 249.60 239.59 247.13 238.61 C 243.95 237.80 245.18 233.95 245.74 231.68 C 235.62 226.49 224.44 223.69 213.14 222.71 C 212.92 225.65 213.10 228.66 212.43 231.55 C 210.96 234.59 205.89 234.55 204.62 231.35 C 204.03 228.51 204.34 225.58 204.27 222.71 C 192.89 223.55 181.76 226.75 171.53 231.80 Z" />
<path fill="#ffffff" opacity="1.00" d=" M 217.22 134.30 C 242.59 124.76 271.11 124.01 297.01 131.96 C 325.54 140.80 350.68 160.27 366.04 185.94 C 379.24 207.38 385.22 233.02 383.52 258.11 C 381.73 286.07 369.99 313.35 350.63 333.64 C 331.50 354.50 304.89 367.98 276.89 371.79 C 281.48 366.61 286.02 361.37 289.89 355.61 C 290.53 356.54 291.18 357.47 291.83 358.40 C 295.21 357.23 298.65 356.20 302.04 355.04 C 305.93 353.89 308.46 350.52 311.39 347.96 C 311.75 340.06 310.15 331.82 313.10 324.25 C 314.64 318.59 317.35 313.07 316.91 307.06 C 316.72 302.82 317.35 298.47 316.56 294.31 C 311.91 288.96 306.50 284.30 301.58 279.19 C 300.34 278.13 300.55 276.34 300.18 274.91 C 295.97 263.85 290.59 253.09 283.06 243.90 C 278.78 237.85 272.93 233.22 267.53 228.23 C 269.06 223.93 269.51 219.10 272.44 215.44 C 276.44 210.27 280.44 205.09 284.48 199.95 C 280.96 195.96 277.24 192.12 274.21 187.72 C 271.18 183.79 268.76 179.22 264.68 176.23 C 258.62 171.73 253.14 166.50 247.34 161.67 C 244.18 158.43 239.79 163.05 236.06 161.83 C 230.63 160.37 225.64 157.40 220.08 156.49 C 208.23 159.29 196.58 162.91 184.75 165.81 C 182.39 166.50 179.61 166.85 178.06 168.99 C 174.99 172.62 172.10 176.39 169.07 180.05 C 170.78 182.86 172.49 185.66 174.20 188.46 C 176.16 186.94 178.12 185.41 180.07 183.87 C 183.59 185.38 187.35 186.41 190.63 188.41 C 192.94 191.52 193.83 195.45 195.46 198.93 C 194.43 202.43 193.43 205.94 192.45 209.46 C 175.03 213.17 157.94 220.50 144.92 232.91 C 142.22 235.33 139.35 237.64 137.36 240.73 C 139.16 222.00 144.36 203.42 154.22 187.28 C 168.28 163.05 191.03 144.13 217.22 134.30 M 253.01 134.78 C 245.72 135.35 238.64 137.17 231.55 138.84 C 236.79 142.08 241.99 145.40 247.17 148.76 C 248.64 149.61 250.11 150.81 251.93 150.66 C 261.23 150.54 270.49 149.61 279.78 149.31 C 283.01 145.80 286.22 142.26 289.49 138.79 C 282.81 137.33 276.15 135.78 269.50 134.20 C 264.06 132.65 258.49 134.44 253.01 134.78 M 330.63 170.22 C 330.22 173.85 331.28 177.47 331.58 181.08 C 332.37 186.40 331.37 191.75 330.60 197.01 C 333.04 197.99 335.47 198.99 337.91 199.98 C 340.94 197.99 343.75 195.62 347.05 194.10 C 353.69 196.42 359.66 200.30 366.14 203.03 C 361.02 194.84 355.47 186.93 350.27 178.80 C 346.53 172.48 339.99 168.68 334.80 163.69 C 333.34 165.82 331.77 167.89 330.63 170.22 M 326.03 228.29 C 325.36 231.89 325.86 235.61 325.70 239.25 C 329.87 245.08 333.08 251.70 338.40 256.62 C 341.13 259.25 343.72 262.18 347.23 263.80 C 351.28 266.06 355.85 267.46 359.55 270.31 C 363.25 275.06 365.96 280.50 369.34 285.48 C 371.53 279.15 373.77 272.83 375.57 266.38 C 376.74 257.99 376.56 249.47 376.65 241.01 C 377.00 233.59 374.55 226.48 373.45 219.22 C 369.13 217.41 364.93 215.33 360.53 213.73 C 355.32 212.01 349.95 210.89 344.69 209.39 C 338.51 215.73 331.93 221.70 326.03 228.29 Z" />
<path fill="#3f79be" opacity="1.00" d=" M 253.01 134.78 C 258.49 134.44 264.06 132.65 269.50 134.20 C 276.15 135.78 282.81 137.33 289.49 138.79 C 286.22 142.26 283.01 145.80 279.78 149.31 C 270.49 149.61 261.23 150.54 251.93 150.66 C 250.11 150.81 248.64 149.61 247.17 148.76 C 241.99 145.40 236.79 142.08 231.55 138.84 C 238.64 137.17 245.72 135.35 253.01 134.78 Z" />
<path fill="#3f79be" opacity="1.00" d=" M 330.63 170.22 C 331.77 167.89 333.34 165.82 334.80 163.69 C 339.99 168.68 346.53 172.48 350.27 178.80 C 355.47 186.93 361.02 194.84 366.14 203.03 C 359.66 200.30 353.69 196.42 347.05 194.10 C 343.75 195.62 340.94 197.99 337.91 199.98 C 335.47 198.99 333.04 197.99 330.60 197.01 C 331.37 191.75 332.37 186.40 331.58 181.08 C 331.28 177.47 330.22 173.85 330.63 170.22 Z" />
<path fill="#3f79be" opacity="1.00" d=" M 326.03 228.29 C 331.93 221.70 338.51 215.73 344.69 209.39 C 349.95 210.89 355.32 212.01 360.53 213.73 C 364.93 215.33 369.13 217.41 373.45 219.22 C 374.55 226.48 377.00 233.59 376.65 241.01 C 376.56 249.47 376.74 257.99 375.57 266.38 C 373.77 272.83 371.53 279.15 369.34 285.48 C 365.96 280.50 363.25 275.06 359.55 270.31 C 355.85 267.46 351.28 266.06 347.23 263.80 C 343.72 262.18 341.13 259.25 338.40 256.62 C 333.08 251.70 329.87 245.08 325.70 239.25 C 325.86 235.61 325.36 231.89 326.03 228.29 Z" />
<path fill="#ffffff" opacity="1.00" d=" M 171.53 231.80 C 181.76 226.75 192.89 223.55 204.27 222.71 C 204.34 225.58 204.03 228.51 204.62 231.35 C 205.89 234.55 210.96 234.59 212.43 231.55 C 213.10 228.66 212.92 225.65 213.14 222.71 C 224.44 223.69 235.62 226.49 245.74 231.68 C 245.18 233.95 243.95 237.80 247.13 238.61 C 249.60 239.59 251.23 237.22 252.70 235.70 C 262.41 241.93 270.31 250.59 276.88 260.00 C 275.39 261.59 272.53 263.41 274.05 265.93 C 275.19 268.93 278.68 267.87 281.03 267.30 C 286.15 277.37 289.39 288.40 289.90 299.73 C 287.05 299.84 284.10 299.43 281.35 300.28 C 280.05 301.27 279.20 302.70 278.21 303.97 C 279.10 305.35 279.79 306.94 281.07 308.04 C 283.91 308.88 286.95 308.42 289.88 308.52 C 289.37 319.91 286.16 331.07 281.12 341.27 C 279.01 340.66 276.84 340.40 274.65 340.47 C 274.30 341.95 273.90 343.43 273.73 344.95 C 274.64 346.19 275.74 347.26 276.79 348.39 C 270.46 358.05 262.06 366.16 252.56 372.67 C 251.70 371.51 250.83 370.36 249.97 369.21 C 248.66 369.39 247.36 369.63 246.08 369.95 C 243.95 371.72 245.42 374.42 245.79 376.63 C 235.59 381.84 224.32 384.84 212.90 385.57 C 212.78 382.60 213.23 379.53 212.40 376.64 C 210.84 373.67 206.13 373.83 204.69 376.83 C 203.99 379.68 204.37 382.67 204.27 385.58 C 192.86 384.85 181.62 381.83 171.41 376.66 C 171.77 374.47 173.39 371.56 170.84 370.10 C 168.37 368.35 165.96 370.79 164.48 372.65 C 154.77 366.33 146.43 358.00 140.11 348.28 C 141.15 347.22 142.26 346.21 143.12 345.00 C 143.60 343.22 142.66 341.46 141.17 340.52 C 139.41 340.44 137.71 340.95 136.01 341.30 C 130.98 331.08 127.85 319.92 127.23 308.53 C 130.11 308.48 133.04 308.76 135.88 308.14 C 138.68 306.65 139.16 302.48 136.50 300.62 C 133.64 299.22 130.31 299.92 127.23 299.73 C 127.86 288.37 131.00 277.25 136.01 267.06 C 137.63 267.36 139.25 268.24 140.92 267.93 C 143.12 267.33 143.11 264.72 143.69 262.95 C 142.51 262.03 141.34 261.11 140.16 260.20 C 146.57 250.68 154.68 242.23 164.38 236.03 C 165.99 237.71 168.10 239.91 170.63 238.55 C 173.38 237.20 172.20 234.04 171.53 231.80 M 204.95 242.92 C 204.62 260.75 204.73 278.59 204.73 296.43 C 203.61 297.53 202.51 298.63 201.42 299.74 C 190.93 299.81 180.44 299.71 169.95 299.78 C 168.12 299.82 165.77 299.93 164.89 301.86 C 163.15 304.42 164.87 308.38 168.06 308.51 C 179.01 308.92 189.99 308.48 200.95 308.71 C 202.92 310.24 204.86 312.14 207.45 312.49 C 212.30 313.30 217.30 308.94 216.90 303.97 C 217.17 300.71 214.45 298.51 212.49 296.33 C 212.65 278.88 212.29 261.44 212.36 243.99 C 212.56 241.89 211.26 239.16 208.83 239.35 C 206.72 238.98 204.89 240.84 204.95 242.92 Z" />
<path fill="#3f79be" opacity="1.00" d=" M 204.95 242.92 C 204.89 240.84 206.72 238.98 208.83 239.35 C 211.26 239.16 212.56 241.89 212.36 243.99 C 212.29 261.44 212.65 278.88 212.49 296.33 C 214.45 298.51 217.17 300.71 216.90 303.97 C 217.30 308.94 212.30 313.30 207.45 312.49 C 204.86 312.14 202.92 310.24 200.95 308.71 C 189.99 308.48 179.01 308.92 168.06 308.51 C 164.87 308.38 163.15 304.42 164.89 301.86 C 165.77 299.93 168.12 299.82 169.95 299.78 C 180.44 299.71 190.93 299.81 201.42 299.74 C 202.51 298.63 203.61 297.53 204.73 296.43 C 204.73 278.59 204.62 260.75 204.95 242.92 Z" />
</svg>
