<?xml version="1.0" encoding="UTF-8" ?>
<!DOCTYPE svg PUBLIC "-//W3C//DTD SVG 1.1//EN" "http://www.w3.org/Graphics/SVG/1.1/DTD/svg11.dtd">
<svg width="512pt" height="512pt" viewBox="0 0 512 512" version="1.1" xmlns="http://www.w3.org/2000/svg">
<path fill="#d6b301" opacity="1.00" d=" M 0.00 0.00 L 512.00 0.00 L 512.00 512.00 L 0.00 512.00 L 0.00 0.00 M 113.50 150.94 C 113.48 210.63 113.52 270.32 113.49 330.00 C 113.11 333.52 116.65 336.62 120.04 336.47 C 168.12 336.53 216.20 336.41 264.28 336.53 C 266.37 334.57 268.36 332.50 270.41 330.51 C 267.80 327.84 265.39 324.70 262.28 322.69 C 217.22 322.61 172.16 322.66 127.11 322.67 C 127.12 268.01 127.12 213.35 127.11 158.69 C 206.01 158.67 284.91 158.69 363.82 158.68 C 363.79 188.30 363.83 217.92 363.79 247.54 C 366.93 244.43 369.99 241.22 373.19 238.17 C 374.34 236.90 376.18 237.09 377.74 237.09 C 377.54 210.06 377.69 183.03 377.66 156.00 C 377.56 152.99 378.28 149.44 375.84 147.11 C 373.90 144.81 370.72 145.03 368.02 145.00 C 285.69 145.01 203.36 145.00 121.03 145.00 C 117.52 144.61 113.41 147.14 113.50 150.94 M 324.97 296.00 C 341.84 313.13 358.91 330.09 375.96 347.05 C 383.52 339.31 391.30 331.80 398.83 324.03 C 391.44 316.49 383.92 309.07 376.46 301.60 C 375.07 300.13 373.37 298.86 372.49 297.00 C 371.88 294.58 374.16 293.12 375.56 291.57 C 383.30 283.75 391.28 276.15 398.81 268.12 C 391.13 260.51 383.48 252.87 375.88 245.19 C 358.86 262.08 342.01 279.13 324.97 296.00 M 252.33 302.25 C 260.60 311.11 269.51 319.37 277.89 328.13 C 279.28 329.57 278.77 332.07 277.28 333.27 C 268.94 341.58 260.70 349.98 252.26 358.20 C 259.67 365.66 267.09 373.12 274.58 380.51 C 275.59 381.67 276.62 379.88 277.36 379.32 C 293.51 362.83 310.25 346.88 326.14 330.15 C 309.08 313.33 292.29 296.24 275.25 279.42 C 267.66 287.07 260.10 294.78 252.33 302.25 Z" />
<path fill="#ffffff" opacity="1.00" d=" M 113.50 150.94 C 113.41 147.14 117.52 144.61 121.03 145.00 C 203.36 145.00 285.69 145.01 368.02 145.00 C 370.72 145.03 373.90 144.81 375.84 147.11 C 378.28 149.44 377.56 152.99 377.66 156.00 C 377.69 183.03 377.54 210.06 377.74 237.09 C 376.18 237.09 374.34 236.90 373.19 238.17 C 369.99 241.22 366.93 244.43 363.79 247.54 C 363.83 217.92 363.79 188.30 363.82 158.68 C 284.91 158.69 206.01 158.67 127.11 158.69 C 127.12 213.35 127.12 268.01 127.11 322.67 C 172.16 322.66 217.22 322.61 262.28 322.69 C 265.39 324.70 267.80 327.84 270.41 330.51 C 268.36 332.50 266.37 334.57 264.28 336.53 C 216.20 336.41 168.12 336.53 120.04 336.47 C 116.65 336.62 113.11 333.52 113.49 330.00 C 113.52 270.32 113.48 210.63 113.50 150.94 Z" />
<path fill="#ffffff" opacity="1.00" d=" M 324.97 296.00 C 342.01 279.13 358.86 262.08 375.88 245.19 C 383.48 252.87 391.13 260.51 398.81 268.12 C 391.28 276.15 383.30 283.75 375.56 291.57 C 374.16 293.12 371.88 294.58 372.49 297.00 C 373.37 298.86 375.07 300.13 376.46 301.60 C 383.92 309.07 391.44 316.49 398.83 324.03 C 391.30 331.80 383.52 339.31 375.96 347.05 C 358.91 330.09 341.84 313.13 324.97 296.00 Z" />
<path fill="#ffffff" opacity="1.00" d=" M 252.33 302.25 C 260.10 294.78 267.66 287.07 275.25 279.42 C 292.29 296.24 309.08 313.33 326.14 330.15 C 310.25 346.88 293.51 362.83 277.36 379.32 C 276.62 379.88 275.59 381.67 274.58 380.51 C 267.09 373.12 259.67 365.66 252.26 358.20 C 260.70 349.98 268.94 341.58 277.28 333.27 C 278.77 332.07 279.28 329.57 277.89 328.13 C 269.51 319.37 260.60 311.11 252.33 302.25 Z" />
</svg>
