<?xml version="1.0" encoding="UTF-8" ?>
<!DOCTYPE svg PUBLIC "-//W3C//DTD SVG 1.1//EN" "http://www.w3.org/Graphics/SVG/1.1/DTD/svg11.dtd">
<svg width="512pt" height="512pt" viewBox="0 0 512 512" version="1.1" xmlns="http://www.w3.org/2000/svg">
<path fill="#e4c100" opacity="1.00" d=" M 0.00 0.00 L 512.00 0.00 L 512.00 512.00 L 0.00 512.00 L 0.00 0.00 M 164.16 131.07 C 145.21 181.13 126.15 231.15 107.14 281.19 C 106.70 282.41 106.36 283.67 106.02 284.93 C 126.84 292.67 147.59 300.62 168.33 308.56 C 168.33 266.35 168.33 224.13 168.33 181.92 C 167.80 179.22 170.49 177.46 172.93 177.79 C 208.96 177.82 244.98 177.77 281.01 177.82 C 282.97 177.81 284.93 177.69 286.89 177.56 C 283.58 176.38 280.24 175.27 276.97 174.00 C 239.38 159.66 201.73 145.47 164.16 131.07 M 338.22 179.19 C 294.58 195.03 250.88 210.67 207.30 226.64 C 225.99 278.04 244.67 329.45 263.08 380.94 C 265.63 380.29 268.11 379.37 270.57 378.43 C 309.23 364.40 347.93 350.50 386.57 336.42 C 385.59 328.30 384.88 320.15 383.96 312.02 C 383.41 310.27 384.62 308.84 385.97 307.95 C 392.67 303.29 399.62 299.00 406.20 294.17 C 391.51 253.06 376.42 212.09 361.76 170.97 C 353.75 173.19 346.08 176.51 338.22 179.19 M 174.50 184.20 C 174.51 238.92 174.51 293.64 174.49 348.36 C 197.96 348.34 221.42 348.38 244.88 348.34 C 230.07 307.54 215.30 266.73 200.60 225.89 C 199.17 222.32 203.70 221.24 206.16 220.37 C 239.52 208.48 272.72 196.12 306.14 184.38 C 262.26 184.00 218.37 184.36 174.50 184.20 M 390.13 312.70 C 390.74 317.43 391.23 322.16 391.66 326.91 C 395.72 319.58 398.90 311.76 402.58 304.22 C 398.33 306.89 394.16 309.71 390.13 312.70 Z" />
<path fill="#ffffff" opacity="1.00" d=" M 164.16 131.07 C 201.73 145.47 239.38 159.66 276.97 174.00 C 280.24 175.27 283.58 176.38 286.89 177.56 C 284.93 177.69 282.97 177.81 281.01 177.82 C 244.98 177.77 208.96 177.82 172.93 177.79 C 170.49 177.46 167.80 179.22 168.33 181.92 C 168.33 224.13 168.33 266.35 168.33 308.56 C 147.59 300.62 126.84 292.67 106.02 284.93 C 106.36 283.67 106.70 282.41 107.14 281.19 C 126.15 231.15 145.21 181.13 164.16 131.07 Z" />
<path fill="#ffffff" opacity="1.00" d=" M 338.22 179.19 C 346.08 176.51 353.75 173.19 361.76 170.97 C 376.42 212.09 391.51 253.06 406.20 294.17 C 399.62 299.00 392.67 303.29 385.97 307.95 C 384.62 308.84 383.41 310.27 383.96 312.02 C 384.88 320.15 385.59 328.30 386.57 336.42 C 347.93 350.50 309.23 364.40 270.57 378.43 C 268.11 379.37 265.63 380.29 263.08 380.94 C 244.67 329.45 225.99 278.04 207.30 226.64 C 250.88 210.67 294.58 195.03 338.22 179.19 Z" />
<path fill="#ffffff" opacity="1.00" d=" M 174.50 184.20 C 218.37 184.36 262.26 184.00 306.14 184.38 C 272.72 196.12 239.52 208.48 206.16 220.37 C 203.70 221.24 199.17 222.32 200.60 225.89 C 215.30 266.73 230.07 307.54 244.88 348.34 C 221.42 348.38 197.96 348.34 174.49 348.36 C 174.51 293.64 174.51 238.92 174.50 184.20 Z" />
<path fill="#ffffff" opacity="1.00" d=" M 390.13 312.70 C 394.16 309.71 398.33 306.89 402.58 304.22 C 398.90 311.76 395.72 319.58 391.66 326.91 C 391.23 322.16 390.74 317.43 390.13 312.70 Z" />
</svg>
