<?xml version="1.0" encoding="UTF-8" ?>
<!DOCTYPE svg PUBLIC "-//W3C//DTD SVG 1.1//EN" "http://www.w3.org/Graphics/SVG/1.1/DTD/svg11.dtd">
<svg width="512pt" height="512pt" viewBox="0 0 512 512" version="1.1" xmlns="http://www.w3.org/2000/svg">
<path fill="#df0024" opacity="1.00" d=" M 0.00 0.00 L 512.00 0.00 L 512.00 512.00 L 0.00 512.00 L 0.00 0.00 M 128.14 137.18 C 126.22 137.92 124.81 139.80 125.13 141.93 C 125.14 200.30 125.13 258.68 125.13 317.05 C 124.75 319.77 127.32 322.18 130.00 321.70 C 211.68 321.69 293.35 321.69 375.02 321.70 C 377.87 321.64 380.74 321.91 383.57 321.50 C 385.42 320.97 386.17 318.87 386.04 317.11 C 386.08 258.73 386.04 200.34 386.06 141.96 C 386.43 139.55 384.73 136.94 382.13 137.03 C 339.75 136.93 297.35 137.07 254.97 136.98 C 212.69 137.17 170.39 136.73 128.14 137.18 M 229.34 325.26 C 229.40 336.57 229.30 347.89 229.40 359.21 C 246.83 359.16 264.26 359.17 281.69 359.21 C 281.77 347.89 281.68 336.57 281.73 325.26 C 264.27 325.28 246.81 325.29 229.34 325.26 M 198.22 344.25 C 195.85 354.60 192.76 364.77 190.47 375.13 C 233.80 375.14 277.13 375.12 320.47 375.14 C 317.72 364.93 315.72 354.51 312.77 344.36 C 304.34 344.03 295.88 344.39 287.44 344.19 C 288.74 350.38 290.54 356.45 291.93 362.62 C 267.51 362.61 243.09 362.62 218.67 362.61 C 220.59 356.60 221.66 350.35 223.55 344.33 C 215.11 344.13 206.66 344.28 198.22 344.25 Z" />
<path fill="#ffffff" opacity="1.00" d=" M 128.14 137.18 C 170.39 136.73 212.69 137.17 254.97 136.98 C 297.35 137.07 339.75 136.93 382.13 137.03 C 384.73 136.94 386.43 139.55 386.06 141.96 C 386.04 200.34 386.08 258.73 386.04 317.11 C 386.17 318.87 385.42 320.97 383.57 321.50 C 380.74 321.91 377.87 321.64 375.02 321.70 C 293.35 321.69 211.68 321.69 130.00 321.70 C 127.32 322.18 124.75 319.77 125.13 317.05 C 125.13 258.68 125.14 200.30 125.13 141.93 C 124.81 139.80 126.22 137.92 128.14 137.18 M 133.39 293.45 C 215.01 293.34 296.64 293.50 378.26 293.37 C 378.23 243.85 378.26 194.33 378.25 144.81 C 296.64 144.74 215.04 144.84 133.43 144.76 C 133.28 194.32 133.36 243.88 133.39 293.45 Z" />
<path fill="#df0024" opacity="1.00" d=" M 133.39 293.45 C 133.36 243.88 133.28 194.32 133.43 144.76 C 215.04 144.84 296.64 144.74 378.25 144.81 C 378.26 194.33 378.23 243.85 378.26 293.37 C 296.64 293.50 215.01 293.34 133.39 293.45 M 158.47 149.54 C 158.08 193.02 158.44 236.51 158.28 280.00 C 158.25 282.44 158.34 284.89 158.58 287.33 C 160.36 287.81 162.17 288.29 164.04 288.20 C 225.37 288.11 286.70 288.22 348.04 288.18 C 350.05 288.36 352.98 287.56 352.61 284.98 C 352.64 239.86 352.76 194.72 352.49 149.60 C 351.00 149.20 349.49 148.85 347.95 148.88 C 286.31 148.91 224.67 148.91 163.03 148.88 C 161.48 148.86 159.96 149.18 158.47 149.54 Z" />
<path fill="#ffffff" opacity="1.00" d=" M 158.47 149.54 C 159.96 149.18 161.48 148.86 163.03 148.88 C 224.67 148.91 286.31 148.91 347.95 148.88 C 349.49 148.85 351.00 149.20 352.49 149.60 C 352.76 194.72 352.64 239.86 352.61 284.98 C 352.98 287.56 350.05 288.36 348.04 288.18 C 286.70 288.22 225.37 288.11 164.04 288.20 C 162.17 288.29 160.36 287.81 158.58 287.33 C 158.34 284.89 158.25 282.44 158.28 280.00 C 158.44 236.51 158.08 193.02 158.47 149.54 M 164.37 169.94 C 164.40 207.24 164.39 244.54 164.37 281.84 C 170.58 281.85 176.79 281.77 183.00 281.89 C 214.00 281.82 245.00 281.84 276.01 281.86 C 282.09 282.47 288.19 281.33 294.26 282.20 C 289.20 277.70 284.38 272.72 281.70 266.38 C 262.86 266.31 244.02 266.38 225.18 266.35 C 225.20 263.46 225.20 260.58 225.25 257.70 C 243.29 257.64 261.34 257.89 279.38 257.57 C 278.52 254.20 278.65 250.71 278.91 247.28 C 261.02 247.30 243.14 247.26 225.25 247.30 C 225.20 244.38 225.20 241.47 225.23 238.56 C 243.85 238.57 262.48 238.59 281.11 238.55 C 282.45 234.63 285.01 231.35 286.98 227.76 C 279.68 228.38 272.34 227.92 265.03 227.93 C 251.81 228.54 238.55 227.81 225.34 228.27 C 225.19 225.34 225.19 222.40 225.18 219.47 C 248.44 219.48 271.69 219.45 294.95 219.49 C 298.60 219.61 301.53 216.96 304.99 216.16 C 320.07 211.15 337.71 217.57 346.53 230.67 C 346.54 210.44 346.50 190.20 346.54 169.97 C 285.82 169.78 225.09 169.84 164.37 169.94 M 308.65 223.02 C 297.42 225.65 288.46 235.55 286.66 246.90 C 285.89 252.84 286.48 259.09 289.24 264.49 C 293.33 273.07 301.80 279.39 311.20 280.87 C 325.33 283.50 340.35 273.93 344.18 260.12 C 347.81 248.67 343.41 235.35 333.83 228.16 C 326.81 222.68 317.25 220.91 308.65 223.02 M 337.38 282.22 C 340.41 281.92 343.46 281.78 346.52 281.82 C 346.54 278.76 346.54 275.69 346.51 272.64 C 343.97 276.29 340.70 279.31 337.38 282.22 Z" />
<path fill="#df0024" opacity="1.00" d=" M 164.37 169.94 C 225.09 169.84 285.82 169.78 346.54 169.97 C 346.50 190.20 346.54 210.44 346.53 230.67 C 337.71 217.57 320.07 211.15 304.99 216.16 C 301.53 216.96 298.60 219.61 294.95 219.49 C 271.69 219.45 248.44 219.48 225.18 219.47 C 225.19 222.40 225.19 225.34 225.34 228.27 C 238.55 227.81 251.81 228.54 265.03 227.93 C 272.34 227.92 279.68 228.38 286.98 227.76 C 285.01 231.35 282.45 234.63 281.11 238.55 C 262.48 238.59 243.85 238.57 225.23 238.56 C 225.20 241.47 225.20 244.38 225.25 247.30 C 243.14 247.26 261.02 247.30 278.91 247.28 C 278.65 250.71 278.52 254.20 279.38 257.57 C 261.34 257.89 243.29 257.64 225.25 257.70 C 225.20 260.58 225.20 263.46 225.18 266.35 C 244.02 266.38 262.86 266.31 281.70 266.38 C 284.38 272.72 289.20 277.70 294.26 282.20 C 288.19 281.33 282.09 282.47 276.01 281.86 C 245.00 281.84 214.00 281.82 183.00 281.89 C 176.79 281.77 170.58 281.85 164.37 281.84 C 164.39 244.54 164.40 207.24 164.37 169.94 M 171.74 180.73 C 171.70 211.42 171.74 242.11 171.72 272.79 C 185.98 272.78 200.23 272.77 214.48 272.80 C 214.46 242.11 214.52 211.42 214.46 180.72 C 200.22 180.74 185.98 180.73 171.74 180.73 M 225.28 180.71 C 225.20 183.63 225.20 186.55 225.20 189.48 C 260.86 189.44 296.52 189.52 332.18 189.43 C 332.22 186.49 332.39 183.50 331.63 180.62 C 296.18 180.87 260.73 180.68 225.28 180.71 M 225.19 200.19 C 225.21 202.98 225.21 205.76 225.17 208.55 C 260.85 208.53 296.52 208.66 332.20 208.49 C 332.18 205.76 332.18 203.03 332.21 200.31 C 309.81 199.98 287.40 200.39 265.00 200.11 C 251.73 200.30 238.46 200.14 225.19 200.19 Z" />
<path fill="#ffffff" opacity="1.00" d=" M 171.74 180.73 C 185.98 180.73 200.22 180.74 214.46 180.72 C 214.52 211.42 214.46 242.11 214.48 272.80 C 200.23 272.77 185.98 272.78 171.72 272.79 C 171.74 242.11 171.70 211.42 171.74 180.73 Z" />
<path fill="#ffffff" opacity="1.00" d=" M 225.28 180.71 C 260.73 180.68 296.18 180.87 331.63 180.62 C 332.39 183.50 332.22 186.49 332.18 189.43 C 296.52 189.52 260.86 189.44 225.20 189.48 C 225.20 186.55 225.20 183.63 225.28 180.71 Z" />
<path fill="#ffffff" opacity="1.00" d=" M 225.19 200.19 C 238.46 200.14 251.73 200.30 265.00 200.11 C 287.40 200.39 309.81 199.98 332.21 200.31 C 332.18 203.03 332.18 205.76 332.20 208.49 C 296.52 208.66 260.85 208.53 225.17 208.55 C 225.21 205.76 225.21 202.98 225.19 200.19 Z" />
<path fill="#df0024" opacity="1.00" d=" M 308.65 223.02 C 317.25 220.91 326.81 222.68 333.83 228.16 C 343.41 235.35 347.81 248.67 344.18 260.12 C 340.35 273.93 325.33 283.50 311.20 280.87 C 301.80 279.39 293.33 273.07 289.24 264.49 C 286.48 259.09 285.89 252.84 286.66 246.90 C 288.46 235.55 297.42 225.65 308.65 223.02 M 306.45 234.20 C 306.28 235.83 306.31 237.46 306.28 239.10 C 308.78 237.11 311.59 235.07 314.98 235.43 C 318.95 235.06 322.71 239.09 321.20 243.03 C 319.23 247.55 314.38 249.93 312.28 254.36 C 311.07 256.62 311.73 259.25 311.85 261.67 C 313.41 261.74 314.98 261.81 316.55 261.88 C 316.38 259.54 315.60 256.98 316.68 254.75 C 319.39 250.62 324.35 248.05 325.75 243.06 C 327.26 238.80 324.66 233.87 320.51 232.30 C 315.90 230.60 310.49 231.45 306.45 234.20 M 312.53 268.52 C 310.54 270.04 311.79 273.45 314.11 273.78 C 315.86 274.25 317.92 273.00 317.92 271.07 C 318.46 268.23 314.35 266.10 312.53 268.52 Z" />
<path fill="#ffffff" opacity="1.00" d=" M 306.45 234.20 C 310.49 231.45 315.90 230.60 320.51 232.30 C 324.66 233.87 327.26 238.80 325.75 243.06 C 324.35 248.05 319.39 250.62 316.68 254.75 C 315.60 256.98 316.38 259.54 316.55 261.88 C 314.98 261.81 313.41 261.74 311.85 261.67 C 311.73 259.25 311.07 256.62 312.28 254.36 C 314.38 249.93 319.23 247.55 321.20 243.03 C 322.71 239.09 318.95 235.06 314.98 235.43 C 311.59 235.07 308.78 237.11 306.28 239.10 C 306.31 237.46 306.28 235.83 306.45 234.20 Z" />
<path fill="#ffffff" opacity="1.00" d=" M 312.53 268.52 C 314.35 266.10 318.46 268.23 317.92 271.07 C 317.92 273.00 315.86 274.25 314.11 273.78 C 311.79 273.45 310.54 270.04 312.53 268.52 Z" />
<path fill="#df0024" opacity="1.00" d=" M 337.38 282.22 C 340.70 279.31 343.97 276.29 346.51 272.64 C 346.54 275.69 346.54 278.76 346.52 281.82 C 343.46 281.78 340.41 281.92 337.38 282.22 Z" />
<path fill="#ffffff" opacity="1.00" d=" M 229.34 325.26 C 246.81 325.29 264.27 325.28 281.73 325.26 C 281.68 336.57 281.77 347.89 281.69 359.21 C 264.26 359.17 246.83 359.16 229.40 359.21 C 229.30 347.89 229.40 336.57 229.34 325.26 Z" />
<path fill="#ffffff" opacity="1.00" d=" M 198.22 344.25 C 206.66 344.28 215.11 344.13 223.55 344.33 C 221.66 350.35 220.59 356.60 218.67 362.61 C 243.09 362.62 267.51 362.61 291.93 362.62 C 290.54 356.45 288.74 350.38 287.44 344.19 C 295.88 344.39 304.34 344.03 312.77 344.36 C 315.72 354.51 317.72 364.93 320.47 375.14 C 277.13 375.12 233.80 375.14 190.47 375.13 C 192.76 364.77 195.85 354.60 198.22 344.25 Z" />
</svg>
