<?xml version="1.0" encoding="UTF-8" ?>
<!DOCTYPE svg PUBLIC "-//W3C//DTD SVG 1.1//EN" "http://www.w3.org/Graphics/SVG/1.1/DTD/svg11.dtd">
<svg width="512pt" height="512pt" viewBox="0 0 512 512" version="1.1" xmlns="http://www.w3.org/2000/svg">
<path fill="#d68a3a" opacity="1.00" d=" M 0.00 0.00 L 512.00 0.00 L 512.00 512.00 L 0.00 512.00 L 0.00 0.00 M 183.58 146.66 C 169.37 155.07 159.44 170.53 158.17 187.05 C 156.91 199.21 160.25 211.77 167.24 221.79 C 176.36 235.09 191.84 243.89 208.00 244.51 C 220.76 245.18 233.76 241.06 243.63 232.89 C 244.35 217.27 251.50 202.06 263.35 191.82 C 263.68 169.44 247.96 148.20 226.64 141.63 C 212.45 137.08 196.31 138.85 183.58 146.66 M 289.52 183.80 C 276.70 186.75 265.07 194.73 257.78 205.69 C 250.18 216.71 247.15 230.75 249.46 243.92 C 251.78 258.53 260.79 271.83 273.29 279.68 C 284.59 287.12 298.87 289.40 312.06 286.81 C 325.51 284.10 337.70 275.81 345.28 264.38 C 352.83 253.31 355.71 239.23 353.35 226.06 C 350.88 211.33 341.66 197.89 328.87 190.18 C 317.29 182.96 302.80 180.66 289.52 183.80 M 171.39 255.48 C 160.91 258.88 150.59 263.84 142.86 271.87 C 138.42 276.45 135.01 282.44 134.96 288.98 C 134.82 302.42 134.95 315.87 134.91 329.32 C 163.64 329.35 192.38 329.33 221.11 329.33 C 222.42 321.35 227.03 314.29 233.04 309.01 C 246.30 297.41 263.78 292.06 280.90 289.37 C 265.49 283.07 252.71 270.46 247.02 254.72 C 222.46 247.71 195.79 247.89 171.39 255.48 M 285.03 293.94 C 268.92 295.98 252.56 300.49 239.37 310.31 C 232.26 315.67 225.83 323.64 226.13 333.00 C 225.95 346.20 225.88 359.39 225.97 372.59 C 276.33 372.60 326.70 372.59 377.06 372.60 C 377.14 359.40 377.10 346.20 377.09 333.00 C 377.25 326.13 373.75 319.75 369.04 314.96 C 360.06 305.83 347.89 300.69 335.74 297.29 C 319.25 292.94 301.94 291.96 285.03 293.94 Z" />
<path fill="#ffffff" opacity="1.00" d=" M 183.58 146.66 C 196.31 138.85 212.45 137.08 226.64 141.63 C 247.96 148.20 263.68 169.44 263.35 191.82 C 251.50 202.06 244.35 217.27 243.63 232.89 C 233.76 241.06 220.76 245.18 208.00 244.51 C 191.84 243.89 176.36 235.09 167.24 221.79 C 160.25 211.77 156.91 199.21 158.17 187.05 C 159.44 170.53 169.37 155.07 183.58 146.66 Z" />
<path fill="#ffffff" opacity="1.00" d=" M 289.52 183.80 C 302.80 180.66 317.29 182.96 328.87 190.18 C 341.66 197.89 350.88 211.33 353.35 226.06 C 355.71 239.23 352.83 253.31 345.28 264.38 C 337.70 275.81 325.51 284.10 312.06 286.81 C 298.87 289.40 284.59 287.12 273.29 279.68 C 260.79 271.83 251.78 258.53 249.46 243.92 C 247.15 230.75 250.18 216.71 257.78 205.69 C 265.07 194.73 276.70 186.75 289.52 183.80 Z" />
<path fill="#ffffff" opacity="1.00" d=" M 171.39 255.48 C 195.79 247.89 222.46 247.71 247.02 254.72 C 252.71 270.46 265.49 283.07 280.90 289.37 C 263.78 292.06 246.30 297.41 233.04 309.01 C 227.03 314.29 222.42 321.35 221.11 329.33 C 192.38 329.33 163.64 329.35 134.91 329.32 C 134.95 315.87 134.82 302.42 134.96 288.98 C 135.01 282.44 138.42 276.45 142.86 271.87 C 150.59 263.84 160.91 258.88 171.39 255.48 Z" />
<path fill="#ffffff" opacity="1.00" d=" M 285.03 293.94 C 301.94 291.96 319.25 292.94 335.74 297.29 C 347.89 300.69 360.06 305.83 369.04 314.96 C 373.75 319.75 377.25 326.13 377.09 333.00 C 377.10 346.20 377.14 359.40 377.06 372.60 C 326.70 372.59 276.33 372.60 225.97 372.59 C 225.88 359.39 225.95 346.20 226.13 333.00 C 225.83 323.64 232.26 315.67 239.37 310.31 C 252.56 300.49 268.92 295.98 285.03 293.94 Z" />
</svg>
