<?xml version="1.0" encoding="UTF-8" ?>
<!DOCTYPE svg PUBLIC "-//W3C//DTD SVG 1.1//EN" "http://www.w3.org/Graphics/SVG/1.1/DTD/svg11.dtd">
<svg width="512pt" height="512pt" viewBox="0 0 512 512" version="1.1" xmlns="http://www.w3.org/2000/svg">
<path fill="#226375" opacity="1.00" d=" M 0.00 0.00 L 512.00 0.00 L 512.00 512.00 L 0.00 512.00 L 0.00 0.00 M 114.28 157.79 C 114.29 223.01 114.33 288.23 114.26 353.45 C 208.49 353.45 302.72 353.47 396.95 353.44 C 396.86 288.23 396.91 223.01 396.92 157.79 C 302.71 157.79 208.49 157.79 114.28 157.79 Z" />
<path fill="#ffffff" opacity="1.00" d=" M 114.28 157.79 C 208.49 157.79 302.71 157.79 396.92 157.79 C 396.91 223.01 396.86 288.23 396.95 353.44 C 302.72 353.47 208.49 353.45 114.26 353.45 C 114.33 288.23 114.29 223.01 114.28 157.79 M 131.79 175.51 C 131.81 228.91 131.83 282.31 131.78 335.70 C 214.33 335.79 296.89 335.75 379.44 335.72 C 379.36 329.06 379.40 322.41 379.40 315.76 C 366.31 315.77 353.23 315.76 340.15 315.76 C 340.23 305.77 340.10 295.78 340.22 285.80 C 348.16 286.57 356.11 285.48 364.06 286.01 C 369.19 286.34 374.32 285.86 379.45 285.83 C 379.43 285.18 379.37 283.88 379.35 283.23 C 366.29 283.32 353.24 283.24 340.19 283.27 C 340.15 273.38 340.20 263.48 340.16 253.59 C 353.24 253.60 366.32 253.58 379.41 253.60 C 379.39 227.56 379.38 201.53 379.41 175.49 C 296.87 175.51 214.33 175.47 131.79 175.51 Z" />
<path fill="#226375" opacity="1.00" d=" M 131.79 175.51 C 214.33 175.47 296.87 175.51 379.41 175.49 C 379.38 201.53 379.39 227.56 379.41 253.60 C 366.32 253.58 353.24 253.60 340.16 253.59 C 340.20 263.48 340.15 273.38 340.19 283.27 C 353.24 283.24 366.29 283.32 379.35 283.23 C 379.37 283.88 379.43 285.18 379.45 285.83 C 374.32 285.86 369.19 286.34 364.06 286.01 C 356.11 285.48 348.16 286.57 340.22 285.80 C 340.10 295.78 340.23 305.77 340.15 315.76 C 353.23 315.76 366.31 315.77 379.40 315.76 C 379.40 322.41 379.36 329.06 379.44 335.72 C 296.89 335.75 214.33 335.79 131.78 335.70 C 131.83 282.31 131.81 228.91 131.79 175.51 M 151.15 195.02 C 151.13 199.74 159.92 199.19 158.38 204.18 C 156.12 205.92 153.38 204.61 150.92 204.18 C 151.04 204.77 151.29 205.96 151.41 206.55 C 154.11 206.60 157.42 207.58 159.59 205.43 C 161.39 203.74 160.90 200.43 158.66 199.34 C 156.93 197.76 153.87 197.28 153.13 194.87 C 153.39 191.16 158.37 192.89 160.77 192.70 C 158.73 188.75 150.91 190.36 151.15 195.02 M 163.75 192.48 C 163.36 194.11 162.45 195.41 160.90 196.16 C 161.72 196.63 162.53 197.11 163.35 197.60 C 163.37 200.22 163.07 202.90 163.64 205.49 C 164.60 207.52 167.08 206.63 168.72 206.15 C 167.91 205.73 166.29 204.90 165.47 204.49 C 165.14 202.21 165.26 199.90 165.21 197.62 C 166.41 197.06 167.58 196.44 168.68 195.70 C 167.82 195.57 166.10 195.32 165.24 195.19 C 165.25 194.42 165.28 192.88 165.29 192.12 C 164.91 192.21 164.14 192.39 163.75 192.48 M 191.19 192.60 C 190.47 193.74 189.48 194.74 189.00 196.02 C 189.40 196.49 190.21 197.43 190.61 197.90 C 190.63 200.91 190.65 203.96 191.56 206.87 C 193.21 206.68 194.85 206.44 196.47 206.10 C 195.54 205.72 193.67 204.97 192.73 204.60 C 192.64 202.22 192.60 199.84 192.54 197.46 C 193.80 197.03 195.05 196.59 196.30 196.16 C 195.09 195.72 193.87 195.31 192.65 194.90 C 192.63 194.17 192.59 192.70 192.57 191.97 C 192.22 192.13 191.53 192.44 191.19 192.60 M 170.67 195.62 C 170.59 196.15 170.43 197.21 170.36 197.74 C 171.88 197.38 173.39 196.81 174.98 196.82 C 175.68 197.55 176.31 198.36 176.95 199.16 C 174.18 199.89 169.13 199.78 169.40 203.84 C 169.94 208.42 175.41 206.08 178.42 206.46 C 178.23 203.32 178.90 199.99 177.89 196.97 C 176.56 194.18 173.05 195.39 170.67 195.62 M 181.78 195.06 C 181.49 198.90 181.64 202.76 181.63 206.60 C 182.10 206.62 183.04 206.65 183.52 206.67 C 183.55 204.15 183.37 201.62 183.79 199.13 C 184.22 197.26 186.26 197.31 187.70 196.71 C 188.53 194.34 184.93 195.39 183.99 196.33 C 183.44 196.01 182.33 195.38 181.78 195.06 M 146.12 221.28 C 146.01 231.05 146.47 240.84 145.79 250.60 C 166.60 250.82 187.41 250.67 208.21 250.68 C 208.18 240.89 208.18 231.11 208.21 221.32 C 187.51 221.23 166.81 221.32 146.12 221.28 M 210.83 221.30 C 210.84 231.10 210.84 240.90 210.83 250.70 C 231.45 250.73 252.06 250.67 272.68 250.73 C 272.67 240.91 272.67 231.09 272.68 221.27 C 252.06 221.32 231.45 221.25 210.83 221.30 M 275.49 221.27 C 275.54 231.10 275.49 240.93 275.52 250.75 C 285.40 250.62 295.28 250.80 305.16 250.65 C 305.07 240.86 305.24 231.08 305.05 221.30 C 295.20 221.26 285.34 221.30 275.49 221.27 M 307.77 221.30 C 307.79 231.10 307.80 240.90 307.77 250.70 C 317.70 250.72 327.63 250.69 337.56 250.72 C 337.52 240.90 337.53 231.09 337.55 221.27 C 327.62 221.31 317.69 221.25 307.77 221.30 M 340.15 221.28 C 340.19 231.09 340.20 240.90 340.14 250.71 C 350.02 250.70 359.90 250.70 369.79 250.71 C 369.75 240.90 369.76 231.08 369.78 221.27 C 359.90 221.30 350.02 221.28 340.15 221.28 M 145.90 253.62 C 146.43 263.50 145.97 273.40 146.16 283.29 C 156.01 283.25 165.86 283.26 175.71 283.28 C 175.75 273.38 175.72 263.48 175.73 253.57 C 165.78 253.63 155.84 253.55 145.90 253.62 M 178.32 253.59 C 178.38 263.49 178.31 273.38 178.36 283.28 C 188.30 283.25 198.25 283.28 208.20 283.26 C 208.20 273.37 208.19 263.49 208.20 253.61 C 198.24 253.58 188.28 253.60 178.32 253.59 M 210.84 253.60 C 210.84 263.49 210.83 273.37 210.84 283.26 C 231.44 283.29 252.04 283.24 272.64 283.29 C 272.70 273.38 272.67 263.48 272.66 253.57 C 252.05 253.62 231.45 253.57 210.84 253.60 M 275.52 283.28 C 285.28 283.28 295.03 283.22 304.79 283.31 C 305.51 273.43 305.02 263.49 305.08 253.59 C 295.22 253.58 285.36 253.61 275.50 253.58 C 275.52 263.48 275.50 273.38 275.52 283.28 M 307.78 253.59 C 307.79 263.48 307.78 273.37 307.78 283.27 C 317.70 283.28 327.61 283.25 337.52 283.28 C 337.56 273.38 337.53 263.48 337.54 253.58 C 327.62 253.61 317.70 253.59 307.78 253.59 M 145.82 286.25 C 146.27 296.09 146.11 305.93 146.12 315.77 C 156.00 315.76 165.88 315.76 175.75 315.77 C 175.64 305.77 175.88 295.77 175.62 285.78 C 165.70 286.76 155.74 285.26 145.82 286.25 M 178.32 315.77 C 188.28 315.74 198.24 315.79 208.20 315.73 C 208.19 305.89 208.18 296.05 208.21 286.22 C 198.29 285.65 188.35 285.97 178.41 285.84 C 178.24 295.81 178.40 305.79 178.32 315.77 M 210.80 286.18 C 210.88 296.04 210.80 305.90 210.85 315.76 C 220.70 315.77 230.56 315.75 240.42 315.77 C 240.41 305.88 240.41 295.98 240.42 286.09 C 230.55 285.95 220.67 286.00 210.80 286.18 M 243.27 285.86 C 243.17 295.83 243.28 305.80 243.21 315.77 C 253.03 315.76 262.86 315.75 272.68 315.77 C 272.61 305.78 272.80 295.78 272.57 285.79 C 262.81 286.58 253.04 285.77 243.27 285.86 M 275.53 285.86 C 275.46 295.82 275.58 305.77 275.46 315.73 C 285.36 315.76 295.27 315.84 305.17 315.68 C 305.02 306.05 305.33 296.41 305.03 286.78 C 304.83 286.59 304.42 286.19 304.22 285.99 C 294.67 285.66 285.09 286.00 275.53 285.86 M 307.76 286.06 C 307.80 295.96 307.78 305.86 307.78 315.76 C 317.70 315.76 327.63 315.76 337.56 315.76 C 337.53 305.90 337.52 296.03 337.56 286.16 C 331.69 285.64 325.82 286.27 319.94 286.14 C 315.88 286.07 311.82 285.74 307.76 286.06 Z" />
<path fill="#ffffff" opacity="1.00" d=" M 151.15 195.02 C 150.91 190.36 158.73 188.75 160.77 192.70 C 158.37 192.89 153.39 191.16 153.13 194.87 C 153.87 197.28 156.93 197.76 158.66 199.34 C 160.90 200.43 161.39 203.74 159.59 205.43 C 157.42 207.58 154.11 206.60 151.41 206.55 C 151.29 205.96 151.04 204.77 150.92 204.18 C 153.38 204.61 156.12 205.92 158.38 204.18 C 159.92 199.19 151.13 199.74 151.15 195.02 Z" />
<path fill="#ffffff" opacity="1.00" d=" M 163.75 192.48 C 164.14 192.39 164.91 192.21 165.29 192.12 C 165.28 192.88 165.25 194.42 165.24 195.19 C 166.10 195.32 167.82 195.57 168.68 195.70 C 167.58 196.44 166.41 197.06 165.21 197.62 C 165.26 199.90 165.14 202.21 165.47 204.49 C 166.29 204.90 167.91 205.73 168.72 206.15 C 167.08 206.63 164.60 207.52 163.64 205.49 C 163.07 202.90 163.37 200.22 163.35 197.60 C 162.53 197.11 161.72 196.63 160.90 196.16 C 162.45 195.41 163.36 194.11 163.75 192.48 Z" />
<path fill="#ffffff" opacity="1.00" d=" M 191.19 192.60 C 191.53 192.44 192.22 192.13 192.57 191.97 C 192.59 192.70 192.63 194.17 192.65 194.90 C 193.87 195.31 195.09 195.72 196.30 196.16 C 195.05 196.59 193.80 197.03 192.54 197.46 C 192.60 199.84 192.64 202.22 192.73 204.60 C 193.67 204.97 195.54 205.72 196.47 206.10 C 194.85 206.44 193.21 206.68 191.56 206.87 C 190.65 203.96 190.63 200.91 190.61 197.90 C 190.21 197.43 189.40 196.49 189.00 196.02 C 189.48 194.74 190.47 193.74 191.19 192.60 Z" />
<path fill="#ffffff" opacity="1.00" d=" M 170.67 195.62 C 173.05 195.39 176.56 194.18 177.89 196.97 C 178.90 199.99 178.23 203.32 178.42 206.46 C 175.41 206.08 169.94 208.42 169.40 203.84 C 169.13 199.78 174.18 199.89 176.95 199.16 C 176.31 198.36 175.68 197.55 174.98 196.82 C 173.39 196.81 171.88 197.38 170.36 197.74 C 170.43 197.21 170.59 196.15 170.67 195.62 M 171.89 201.96 C 170.83 203.54 171.18 204.65 172.94 205.30 C 175.51 205.69 176.47 203.01 176.85 201.01 C 175.18 201.27 173.49 201.42 171.89 201.96 Z" />
<path fill="#ffffff" opacity="1.00" d=" M 181.78 195.06 C 182.33 195.38 183.44 196.01 183.99 196.33 C 184.93 195.39 188.53 194.34 187.70 196.71 C 186.26 197.31 184.22 197.26 183.79 199.13 C 183.37 201.62 183.55 204.15 183.52 206.67 C 183.04 206.65 182.10 206.62 181.63 206.60 C 181.64 202.76 181.49 198.90 181.78 195.06 Z" />
<path fill="#226375" opacity="1.00" d=" M 171.89 201.96 C 173.49 201.42 175.18 201.27 176.85 201.01 C 176.47 203.01 175.51 205.69 172.94 205.30 C 171.18 204.65 170.83 203.54 171.89 201.96 Z" />
<path fill="#ffffff" opacity="1.00" d=" M 146.12 221.28 C 166.81 221.32 187.51 221.23 208.21 221.32 C 208.18 231.11 208.18 240.89 208.21 250.68 C 187.41 250.67 166.60 250.82 145.79 250.60 C 146.47 240.84 146.01 231.05 146.12 221.28 Z" />
<path fill="#ffffff" opacity="1.00" d=" M 210.83 221.30 C 231.45 221.25 252.06 221.32 272.68 221.27 C 272.67 231.09 272.67 240.91 272.68 250.73 C 252.06 250.67 231.45 250.73 210.83 250.70 C 210.84 240.90 210.84 231.10 210.83 221.30 Z" />
<path fill="#ffffff" opacity="1.00" d=" M 275.49 221.27 C 285.34 221.30 295.20 221.26 305.05 221.30 C 305.24 231.08 305.07 240.86 305.16 250.65 C 295.28 250.80 285.40 250.62 275.52 250.75 C 275.49 240.93 275.54 231.10 275.49 221.27 Z" />
<path fill="#ffffff" opacity="1.00" d=" M 307.77 221.30 C 317.69 221.25 327.62 221.31 337.55 221.27 C 337.53 231.09 337.52 240.90 337.56 250.72 C 327.63 250.69 317.70 250.72 307.77 250.70 C 307.80 240.90 307.79 231.10 307.77 221.30 Z" />
<path fill="#ffffff" opacity="1.00" d=" M 340.15 221.28 C 350.02 221.28 359.90 221.30 369.78 221.27 C 369.76 231.08 369.75 240.90 369.79 250.71 C 359.90 250.70 350.02 250.70 340.14 250.71 C 340.20 240.90 340.19 231.09 340.15 221.28 Z" />
<path fill="#ffffff" opacity="1.00" d=" M 145.90 253.62 C 155.84 253.55 165.78 253.63 175.73 253.57 C 175.72 263.48 175.75 273.38 175.71 283.28 C 165.86 283.26 156.01 283.25 146.16 283.29 C 145.97 273.40 146.43 263.50 145.90 253.62 Z" />
<path fill="#ffffff" opacity="1.00" d=" M 178.32 253.59 C 188.28 253.60 198.24 253.58 208.20 253.61 C 208.19 263.49 208.20 273.37 208.20 283.26 C 198.25 283.28 188.30 283.25 178.36 283.28 C 178.31 273.38 178.38 263.49 178.32 253.59 Z" />
<path fill="#ffffff" opacity="1.00" d=" M 210.84 253.60 C 231.45 253.57 252.05 253.62 272.66 253.57 C 272.67 263.48 272.70 273.38 272.64 283.29 C 252.04 283.24 231.44 283.29 210.84 283.26 C 210.83 273.37 210.84 263.49 210.84 253.60 Z" />
<path fill="#ffffff" opacity="1.00" d=" M 275.52 283.28 C 275.50 273.38 275.52 263.48 275.50 253.58 C 285.36 253.61 295.22 253.58 305.08 253.59 C 305.02 263.49 305.51 273.43 304.79 283.31 C 295.03 283.22 285.28 283.28 275.52 283.28 Z" />
<path fill="#ffffff" opacity="1.00" d=" M 307.78 253.59 C 317.70 253.59 327.62 253.61 337.54 253.58 C 337.53 263.48 337.56 273.38 337.52 283.28 C 327.61 283.25 317.70 283.28 307.78 283.27 C 307.78 273.37 307.79 263.48 307.78 253.59 Z" />
<path fill="#ffffff" opacity="1.00" d=" M 145.82 286.25 C 155.74 285.26 165.70 286.76 175.62 285.78 C 175.88 295.77 175.64 305.77 175.75 315.77 C 165.88 315.76 156.00 315.76 146.12 315.77 C 146.11 305.93 146.27 296.09 145.82 286.25 Z" />
<path fill="#ffffff" opacity="1.00" d=" M 178.32 315.77 C 178.40 305.79 178.24 295.81 178.41 285.84 C 188.35 285.97 198.29 285.65 208.21 286.22 C 208.18 296.05 208.19 305.89 208.20 315.73 C 198.24 315.79 188.28 315.74 178.32 315.77 Z" />
<path fill="#ffffff" opacity="1.00" d=" M 210.80 286.18 C 220.67 286.00 230.55 285.95 240.42 286.09 C 240.41 295.98 240.41 305.88 240.42 315.77 C 230.56 315.75 220.70 315.77 210.85 315.76 C 210.80 305.90 210.88 296.04 210.80 286.18 Z" />
<path fill="#ffffff" opacity="1.00" d=" M 243.27 285.86 C 253.04 285.77 262.81 286.58 272.57 285.79 C 272.80 295.78 272.61 305.78 272.68 315.77 C 262.86 315.75 253.03 315.76 243.21 315.77 C 243.28 305.80 243.17 295.83 243.27 285.86 Z" />
<path fill="#ffffff" opacity="1.00" d=" M 275.53 285.86 C 285.09 286.00 294.67 285.66 304.22 285.99 C 304.42 286.19 304.83 286.59 305.03 286.78 C 305.33 296.41 305.02 306.05 305.17 315.68 C 295.27 315.84 285.36 315.76 275.46 315.73 C 275.58 305.77 275.46 295.82 275.53 285.86 Z" />
<path fill="#ffffff" opacity="1.00" d=" M 307.76 286.06 C 311.82 285.74 315.88 286.07 319.94 286.14 C 325.82 286.27 331.69 285.64 337.56 286.16 C 337.52 296.03 337.53 305.90 337.56 315.76 C 327.63 315.76 317.70 315.76 307.78 315.76 C 307.78 305.86 307.80 295.96 307.76 286.06 Z" />
</svg>
