<?xml version="1.0" encoding="UTF-8" ?>
<!DOCTYPE svg PUBLIC "-//W3C//DTD SVG 1.1//EN" "http://www.w3.org/Graphics/SVG/1.1/DTD/svg11.dtd">
<svg width="512pt" height="512pt" viewBox="0 0 512 512" version="1.1" xmlns="http://www.w3.org/2000/svg">
<path fill="#1c8d00" opacity="1.00" d=" M 0.00 0.00 L 512.00 0.00 L 512.00 512.00 L 0.00 512.00 L 0.00 0.00 M 247.24 115.26 C 209.61 116.96 173.28 135.30 148.90 163.89 C 129.61 186.17 117.61 214.68 115.40 244.07 C 115.09 252.34 115.02 260.64 115.52 268.90 C 116.89 282.85 120.28 296.62 125.71 309.55 C 137.42 337.72 158.59 361.83 185.01 377.07 C 211.28 392.55 242.74 398.70 272.94 394.89 C 297.82 391.94 321.77 381.93 341.52 366.55 C 362.60 350.27 378.90 327.87 387.85 302.78 C 396.89 277.65 398.31 249.94 392.47 223.93 C 385.84 194.91 369.64 168.21 347.02 148.88 C 324.77 129.62 296.30 117.66 266.95 115.41 C 260.39 115.09 253.81 115.14 247.24 115.26 Z" />
<path fill="#ffffff" opacity="1.00" d=" M 247.24 115.26 C 253.81 115.14 260.39 115.09 266.95 115.41 C 296.30 117.66 324.77 129.62 347.02 148.88 C 369.64 168.21 385.84 194.91 392.47 223.93 C 398.31 249.94 396.89 277.65 387.85 302.78 C 378.90 327.87 362.60 350.27 341.52 366.55 C 321.77 381.93 297.82 391.94 272.94 394.89 C 242.74 398.70 211.28 392.55 185.01 377.07 C 158.59 361.83 137.42 337.72 125.71 309.55 C 120.28 296.62 116.89 282.85 115.52 268.90 C 115.02 260.64 115.09 252.34 115.40 244.07 C 117.61 214.68 129.61 186.17 148.90 163.89 C 173.28 135.30 209.61 116.96 247.24 115.26 M 199.76 179.74 C 193.78 200.73 187.86 221.75 181.54 242.64 C 193.81 238.81 206.19 234.76 219.09 233.77 C 231.11 234.45 242.28 240.04 252.18 246.57 C 258.35 225.70 264.27 204.76 270.48 183.90 C 263.57 178.64 255.57 174.75 247.05 172.99 C 231.15 169.61 214.21 172.52 199.76 179.74 M 261.93 252.98 C 270.88 260.57 282.14 265.71 293.98 266.15 C 307.22 265.90 320.43 262.95 332.39 257.22 C 338.41 236.29 344.45 215.37 350.51 194.45 C 341.71 198.18 332.43 200.87 322.98 202.34 C 307.77 204.70 292.04 199.66 279.94 190.41 C 274.18 211.33 267.49 232.01 261.93 252.98 M 178.62 253.79 C 172.53 274.69 166.69 295.68 160.50 316.56 C 172.15 310.99 185.26 309.79 197.96 308.76 C 209.92 309.21 220.65 315.16 230.93 320.71 C 236.75 299.74 242.98 278.87 249.08 257.97 C 241.46 252.53 232.70 248.70 223.58 246.63 C 208.30 243.15 192.66 247.87 178.62 253.79 M 258.70 263.92 C 252.57 284.71 246.83 305.63 240.52 326.37 C 247.98 331.65 256.06 336.43 265.13 338.25 C 279.46 341.20 294.13 337.41 307.52 332.34 C 308.87 331.60 311.02 331.41 311.43 329.66 C 317.35 309.17 323.06 288.62 329.26 268.22 C 320.44 271.61 311.39 274.68 301.93 275.58 C 296.01 276.10 289.94 276.99 284.10 275.47 C 275.00 273.25 266.62 268.81 258.70 263.92 Z" />
<path fill="#1c8d00" opacity="1.00" d=" M 199.76 179.74 C 214.21 172.52 231.15 169.61 247.05 172.99 C 255.57 174.75 263.57 178.64 270.48 183.90 C 264.27 204.76 258.35 225.70 252.18 246.57 C 242.28 240.04 231.11 234.45 219.09 233.77 C 206.19 234.76 193.81 238.81 181.54 242.64 C 187.86 221.75 193.78 200.73 199.76 179.74 Z" />
<path fill="#1c8d00" opacity="1.00" d=" M 261.93 252.98 C 267.49 232.01 274.18 211.33 279.94 190.41 C 292.04 199.66 307.77 204.70 322.98 202.34 C 332.43 200.87 341.71 198.18 350.51 194.45 C 344.45 215.37 338.41 236.29 332.39 257.22 C 320.43 262.95 307.22 265.90 293.98 266.15 C 282.14 265.71 270.88 260.57 261.93 252.98 Z" />
<path fill="#1c8d00" opacity="1.00" d=" M 178.62 253.79 C 192.66 247.87 208.30 243.15 223.58 246.63 C 232.70 248.70 241.46 252.53 249.08 257.97 C 242.98 278.87 236.75 299.74 230.93 320.71 C 220.65 315.16 209.92 309.21 197.96 308.76 C 185.26 309.79 172.15 310.99 160.50 316.56 C 166.69 295.68 172.53 274.69 178.62 253.79 Z" />
<path fill="#1c8d00" opacity="1.00" d=" M 258.70 263.92 C 266.62 268.81 275.00 273.25 284.10 275.47 C 289.94 276.99 296.01 276.10 301.93 275.58 C 311.39 274.68 320.44 271.61 329.26 268.22 C 323.06 288.62 317.35 309.17 311.43 329.66 C 311.02 331.41 308.87 331.60 307.52 332.34 C 294.13 337.41 279.46 341.20 265.13 338.25 C 256.06 336.43 247.98 331.65 240.52 326.37 C 246.83 305.63 252.57 284.71 258.70 263.92 Z" />
</svg>
