<?xml version="1.0" encoding="UTF-8" ?>
<!DOCTYPE svg PUBLIC "-//W3C//DTD SVG 1.1//EN" "http://www.w3.org/Graphics/SVG/1.1/DTD/svg11.dtd">
<svg width="512pt" height="512pt" viewBox="0 0 512 512" version="1.1" xmlns="http://www.w3.org/2000/svg">
<path fill="#a43ae3" opacity="1.00" d=" M 0.00 0.00 L 512.00 0.00 L 512.00 512.00 L 0.00 512.00 L 0.00 0.00 M 112.26 156.99 C 112.23 203.69 112.23 250.40 112.26 297.10 C 111.91 299.82 114.26 302.52 117.04 302.34 C 122.42 302.50 127.80 302.32 133.18 302.35 C 133.18 261.90 133.17 221.45 133.18 180.99 C 132.65 177.64 135.67 174.69 139.00 175.15 C 174.32 175.11 209.64 175.12 244.95 175.15 C 247.51 175.49 249.51 173.78 251.45 172.42 C 262.91 164.32 279.32 164.14 291.02 171.87 C 293.21 173.17 295.17 175.44 297.96 175.14 C 312.08 175.12 326.20 175.13 340.32 175.12 C 340.23 168.71 340.55 162.29 340.22 155.90 C 340.06 153.29 337.50 151.58 335.02 151.81 C 265.01 151.74 195.00 151.81 124.99 151.78 C 121.97 151.80 118.94 151.58 115.94 151.96 C 113.57 152.29 112.01 154.68 112.26 156.99 M 261.61 174.45 C 268.10 175.87 274.90 174.95 281.50 174.94 C 275.38 171.75 268.02 172.60 261.61 174.45 M 144.41 181.37 C 141.97 182.64 141.83 185.62 141.84 188.03 C 141.90 233.70 141.85 279.37 141.87 325.04 C 141.65 327.71 142.99 330.91 145.97 331.24 C 151.36 331.59 156.77 331.26 162.17 331.34 C 162.16 293.23 162.18 255.12 162.16 217.01 C 162.22 213.80 161.89 210.55 162.45 207.37 C 163.22 205.10 165.66 203.93 167.96 204.15 C 203.64 204.12 239.32 204.15 275.00 204.14 C 277.73 204.39 279.59 202.08 281.74 200.80 C 293.53 192.74 310.19 192.94 321.79 201.27 C 323.70 202.48 325.47 204.44 327.95 204.15 C 340.62 204.16 353.28 204.09 365.95 204.18 C 367.31 203.98 369.18 204.58 370.14 203.26 C 370.38 198.51 370.11 193.76 370.24 189.01 C 370.17 186.53 370.53 183.40 368.26 181.74 C 365.86 180.03 362.71 180.79 359.96 180.62 C 290.97 180.66 221.98 180.65 152.98 180.62 C 150.14 180.78 147.06 180.11 144.41 181.37 M 290.57 203.94 C 297.88 204.27 305.22 204.26 312.53 203.95 C 305.76 200.76 297.31 200.54 290.57 203.94 M 173.39 210.35 C 171.39 211.45 170.78 213.81 170.84 215.94 C 170.82 259.63 170.84 303.31 170.83 347.00 C 170.90 350.30 170.51 353.67 171.21 356.94 C 171.70 359.06 173.89 360.34 175.99 360.20 C 248.33 360.26 320.68 360.18 393.02 360.24 C 395.12 360.34 397.71 359.89 398.60 357.69 C 399.50 354.88 399.08 351.86 399.16 348.96 C 399.13 304.61 399.15 260.26 399.15 215.91 C 399.28 213.52 398.42 210.77 395.92 209.96 C 392.66 209.29 389.28 209.70 385.98 209.62 C 316.32 209.62 246.65 209.63 176.99 209.62 C 175.70 209.52 174.50 209.77 173.39 210.35 Z" />
<path fill="#ffffff" opacity="1.00" d=" M 112.26 156.99 C 112.01 154.68 113.57 152.29 115.94 151.96 C 118.94 151.58 121.97 151.80 124.99 151.78 C 195.00 151.81 265.01 151.74 335.02 151.81 C 337.50 151.58 340.06 153.29 340.22 155.90 C 340.55 162.29 340.23 168.71 340.32 175.12 C 326.20 175.13 312.08 175.12 297.96 175.14 C 295.17 175.44 293.21 173.17 291.02 171.87 C 279.32 164.14 262.91 164.32 251.45 172.42 C 249.51 173.78 247.51 175.49 244.95 175.15 C 209.64 175.12 174.32 175.11 139.00 175.15 C 135.67 174.69 132.65 177.64 133.18 180.99 C 133.17 221.45 133.18 261.90 133.18 302.35 C 127.80 302.32 122.42 302.50 117.04 302.34 C 114.26 302.52 111.91 299.82 112.26 297.10 C 112.23 250.40 112.23 203.69 112.26 156.99 Z" />
<path fill="#ffffff" opacity="1.00" d=" M 261.61 174.45 C 268.02 172.60 275.38 171.75 281.50 174.94 C 274.90 174.95 268.10 175.87 261.61 174.45 Z" />
<path fill="#ffffff" opacity="1.00" d=" M 144.41 181.37 C 147.06 180.11 150.14 180.78 152.98 180.62 C 221.98 180.65 290.97 180.66 359.96 180.62 C 362.71 180.79 365.86 180.03 368.26 181.74 C 370.53 183.40 370.17 186.53 370.24 189.01 C 370.11 193.76 370.38 198.51 370.14 203.26 C 369.18 204.58 367.31 203.98 365.95 204.18 C 353.28 204.09 340.62 204.16 327.95 204.15 C 325.47 204.44 323.70 202.48 321.79 201.27 C 310.19 192.94 293.53 192.74 281.74 200.80 C 279.59 202.08 277.73 204.39 275.00 204.14 C 239.32 204.15 203.64 204.12 167.96 204.15 C 165.66 203.93 163.22 205.10 162.45 207.37 C 161.89 210.55 162.22 213.80 162.16 217.01 C 162.18 255.12 162.16 293.23 162.17 331.34 C 156.77 331.26 151.36 331.59 145.97 331.24 C 142.99 330.91 141.65 327.71 141.87 325.04 C 141.85 279.37 141.90 233.70 141.84 188.03 C 141.83 185.62 141.97 182.64 144.41 181.37 Z" />
<path fill="#ffffff" opacity="1.00" d=" M 290.57 203.94 C 297.31 200.54 305.76 200.76 312.53 203.95 C 305.22 204.26 297.88 204.27 290.57 203.94 Z" />
<path fill="#ffffff" opacity="1.00" d=" M 173.39 210.35 C 174.50 209.77 175.70 209.52 176.99 209.62 C 246.65 209.63 316.32 209.62 385.98 209.62 C 389.28 209.70 392.66 209.29 395.92 209.96 C 398.42 210.77 399.28 213.52 399.15 215.91 C 399.15 260.26 399.13 304.61 399.16 348.96 C 399.08 351.86 399.50 354.88 398.60 357.69 C 397.71 359.89 395.12 360.34 393.02 360.24 C 320.68 360.18 248.33 360.26 175.99 360.20 C 173.89 360.34 171.70 359.06 171.21 356.94 C 170.51 353.67 170.90 350.30 170.83 347.00 C 170.84 303.31 170.82 259.63 170.84 215.94 C 170.78 213.81 171.39 211.45 173.39 210.35 M 303.26 236.20 C 294.76 245.74 291.96 259.95 296.37 271.96 C 299.10 280.05 305.01 286.74 312.18 291.24 C 303.21 293.48 294.08 296.78 287.35 303.39 C 283.32 307.17 280.44 312.41 280.49 318.05 C 280.49 326.37 280.38 334.71 280.53 343.03 C 280.26 345.47 282.87 346.81 284.99 346.48 C 315.35 346.43 345.71 346.50 376.07 346.45 C 378.10 346.76 380.06 345.17 380.05 343.09 C 380.36 335.42 380.05 327.73 380.18 320.06 C 380.41 314.60 378.54 309.11 374.85 305.06 C 368.12 297.49 358.29 293.72 348.69 291.32 C 352.85 288.36 356.89 285.10 359.83 280.87 C 366.75 271.26 368.49 258.17 364.14 247.14 C 360.29 236.88 351.50 228.65 341.02 225.46 C 327.75 221.22 312.31 225.62 303.26 236.20 Z" />
<path fill="#a43ae3" opacity="1.00" d=" M 303.26 236.20 C 312.31 225.62 327.75 221.22 341.02 225.46 C 351.50 228.65 360.29 236.88 364.14 247.14 C 368.49 258.17 366.75 271.26 359.83 280.87 C 356.89 285.10 352.85 288.36 348.69 291.32 C 358.29 293.72 368.12 297.49 374.85 305.06 C 378.54 309.11 380.41 314.60 380.18 320.06 C 380.05 327.73 380.36 335.42 380.05 343.09 C 380.06 345.17 378.10 346.76 376.07 346.45 C 345.71 346.50 315.35 346.43 284.99 346.48 C 282.87 346.81 280.26 345.47 280.53 343.03 C 280.38 334.71 280.49 326.37 280.49 318.05 C 280.44 312.41 283.32 307.17 287.35 303.39 C 294.08 296.78 303.21 293.48 312.18 291.24 C 305.01 286.74 299.10 280.05 296.37 271.96 C 291.96 259.95 294.76 245.74 303.26 236.20 M 322.38 231.64 C 314.47 233.91 307.64 239.59 304.00 246.97 C 301.01 252.78 300.51 259.59 301.60 265.95 C 303.66 276.69 312.35 285.72 322.92 288.43 C 334.36 291.68 347.45 286.89 354.29 277.20 C 360.88 268.27 361.62 255.49 356.21 245.82 C 349.99 234.04 335.16 227.72 322.38 231.64 M 297.80 303.77 C 292.92 306.70 287.73 310.98 287.28 317.07 C 287.08 324.60 287.31 332.14 287.20 339.67 C 315.97 339.60 344.75 339.79 373.52 339.58 C 373.28 332.39 373.54 325.20 373.40 318.01 C 373.40 312.69 369.50 308.48 365.45 305.53 C 357.72 300.11 348.31 297.65 339.04 296.57 C 325.03 295.37 310.21 296.69 297.80 303.77 Z" />
<path fill="#ffffff" opacity="1.00" d=" M 322.38 231.64 C 335.16 227.72 349.99 234.04 356.21 245.82 C 361.62 255.49 360.88 268.27 354.29 277.20 C 347.45 286.89 334.36 291.68 322.92 288.43 C 312.35 285.72 303.66 276.69 301.60 265.95 C 300.51 259.59 301.01 252.78 304.00 246.97 C 307.64 239.59 314.47 233.91 322.38 231.64 Z" />
<path fill="#ffffff" opacity="1.00" d=" M 297.80 303.77 C 310.21 296.69 325.03 295.37 339.04 296.57 C 348.31 297.65 357.72 300.11 365.45 305.53 C 369.50 308.48 373.40 312.69 373.40 318.01 C 373.54 325.20 373.28 332.39 373.52 339.58 C 344.75 339.79 315.97 339.60 287.20 339.67 C 287.31 332.14 287.08 324.60 287.28 317.07 C 287.73 310.98 292.92 306.70 297.80 303.77 Z" />
</svg>
