<?xml version="1.0" encoding="UTF-8" ?>
<!DOCTYPE svg PUBLIC "-//W3C//DTD SVG 1.1//EN" "http://www.w3.org/Graphics/SVG/1.1/DTD/svg11.dtd">
<svg width="512pt" height="512pt" viewBox="0 0 512 512" version="1.1" xmlns="http://www.w3.org/2000/svg">
<path fill="#3554d3" opacity="1.00" d=" M 0.00 0.00 L 512.00 0.00 L 512.00 512.00 L 0.00 512.00 L 0.00 0.00 M 120.14 124.79 C 120.18 127.95 120.19 131.11 120.20 134.27 C 161.19 134.28 202.19 134.24 243.18 134.29 C 242.68 136.03 242.13 137.74 241.56 139.45 C 201.10 139.29 160.63 139.44 120.16 139.38 C 120.20 182.53 120.19 225.68 120.17 268.83 C 130.13 268.83 140.09 268.79 150.04 268.84 C 139.17 274.75 128.12 280.34 117.19 286.15 C 114.57 287.06 114.37 290.78 116.67 292.17 C 152.15 323.88 187.65 355.56 223.14 387.26 C 226.56 387.87 229.22 385.52 231.96 383.90 C 272.95 358.91 313.97 333.96 354.96 308.96 C 357.71 307.93 358.37 303.91 355.38 302.76 C 329.35 291.40 303.22 280.27 277.23 268.82 C 285.72 268.81 294.21 268.81 302.70 268.84 C 302.69 267.35 302.69 265.85 302.68 264.36 C 320.67 271.01 338.57 277.88 356.54 284.56 C 358.34 285.34 361.00 284.94 361.46 282.72 C 372.98 243.78 384.47 204.82 395.94 165.87 C 396.67 164.11 395.38 161.97 393.57 161.62 C 363.30 154.91 332.93 148.61 302.70 141.75 C 302.69 141.15 302.67 139.95 302.66 139.35 C 298.77 139.30 294.86 139.62 290.99 139.22 C 283.41 137.80 275.94 135.74 268.27 134.75 C 279.68 133.67 291.19 134.52 302.64 134.31 C 302.70 131.13 302.71 127.96 302.73 124.78 C 241.87 124.77 181.00 124.76 120.14 124.79 Z" />
<path fill="#ffffff" opacity="1.00" d=" M 120.14 124.79 C 181.00 124.76 241.87 124.77 302.73 124.78 C 302.71 127.96 302.70 131.13 302.64 134.31 C 291.19 134.52 279.68 133.67 268.27 134.75 C 275.94 135.74 283.41 137.80 290.99 139.22 C 294.86 139.62 298.77 139.30 302.66 139.35 C 302.67 139.95 302.69 141.15 302.70 141.75 C 332.93 148.61 363.30 154.91 393.57 161.62 C 395.38 161.97 396.67 164.11 395.94 165.87 C 384.47 204.82 372.98 243.78 361.46 282.72 C 361.00 284.94 358.34 285.34 356.54 284.56 C 338.57 277.88 320.67 271.01 302.68 264.36 C 302.69 265.85 302.69 267.35 302.70 268.84 C 294.21 268.81 285.72 268.81 277.23 268.82 C 303.22 280.27 329.35 291.40 355.38 302.76 C 358.37 303.91 357.71 307.93 354.96 308.96 C 313.97 333.96 272.95 358.91 231.96 383.90 C 229.22 385.52 226.56 387.87 223.14 387.26 C 187.65 355.56 152.15 323.88 116.67 292.17 C 114.37 290.78 114.57 287.06 117.19 286.15 C 128.12 280.34 139.17 274.75 150.04 268.84 C 140.09 268.79 130.13 268.83 120.17 268.83 C 120.19 225.68 120.20 182.53 120.16 139.38 C 160.63 139.44 201.10 139.29 241.56 139.45 C 242.13 137.74 242.68 136.03 243.18 134.29 C 202.19 134.24 161.19 134.28 120.20 134.27 C 120.19 131.11 120.18 127.95 120.14 124.79 M 248.99 137.11 C 240.32 167.19 231.43 197.22 222.46 227.21 C 267.02 244.12 311.70 260.70 356.24 277.67 C 367.16 240.85 377.96 204.01 388.85 167.19 C 345.61 157.75 302.35 148.41 259.11 139.00 C 255.76 138.22 252.42 137.41 248.99 137.11 M 143.74 149.57 C 143.75 153.46 143.74 157.35 143.76 161.25 C 174.24 161.25 204.73 161.23 235.21 161.26 C 236.40 157.36 237.49 153.44 238.72 149.55 C 207.06 149.57 175.40 149.54 143.74 149.57 M 160.29 194.74 C 156.87 191.47 153.31 188.35 149.92 185.05 C 147.93 187.14 145.95 189.26 143.97 191.36 C 149.27 196.65 154.99 201.50 160.38 206.71 C 170.58 196.50 180.72 186.24 190.92 176.03 C 188.91 174.06 186.92 172.07 184.95 170.07 C 176.70 178.26 168.62 186.62 160.29 194.74 M 191.38 188.27 C 191.41 193.27 191.36 198.27 191.42 203.28 C 201.89 203.23 212.36 203.27 222.82 203.25 C 224.37 198.29 225.67 193.24 227.34 188.31 C 215.35 188.27 203.36 188.33 191.38 188.27 M 160.40 241.56 C 156.94 238.29 153.32 235.20 149.90 231.90 C 147.93 234.00 145.95 236.11 143.95 238.19 C 149.30 243.47 155.04 248.34 160.46 253.55 C 170.58 243.31 180.71 233.08 190.91 222.92 C 188.93 220.91 186.94 218.92 184.94 216.93 C 176.74 225.12 168.60 233.37 160.40 241.56 M 191.39 235.19 C 191.39 239.25 191.39 243.30 191.39 247.36 C 196.18 244.81 200.97 242.27 205.78 239.77 C 207.17 238.90 208.82 239.15 210.23 239.83 C 217.43 242.99 224.66 246.08 231.86 249.24 C 233.45 250.01 235.20 250.34 236.96 250.25 C 246.26 250.16 255.56 250.30 264.85 250.18 C 252.55 245.43 240.16 240.91 227.85 236.19 C 226.31 235.57 224.70 235.11 223.04 235.20 C 212.49 235.22 201.94 235.25 191.39 235.19 M 206.74 246.64 C 179.13 261.09 151.51 275.51 123.89 289.94 C 157.67 320.10 191.44 350.26 225.22 380.41 C 265.80 355.59 306.52 330.99 347.06 306.10 C 301.12 286.45 255.33 266.47 209.46 246.65 C 208.55 246.12 207.64 246.12 206.74 246.64 Z" />
<path fill="#3554d3" opacity="1.00" d=" M 248.99 137.11 C 252.42 137.41 255.76 138.22 259.11 139.00 C 302.35 148.41 345.61 157.75 388.85 167.19 C 377.96 204.01 367.16 240.85 356.24 277.67 C 311.70 260.70 267.02 244.12 222.46 227.21 C 231.43 197.22 240.32 167.19 248.99 137.11 Z" />
<path fill="#3554d3" opacity="1.00" d=" M 143.74 149.57 C 175.40 149.54 207.06 149.57 238.72 149.55 C 237.49 153.44 236.40 157.36 235.21 161.26 C 204.73 161.23 174.24 161.25 143.76 161.25 C 143.74 157.35 143.75 153.46 143.74 149.57 Z" />
<path fill="#3554d3" opacity="1.00" d=" M 160.29 194.74 C 168.62 186.62 176.70 178.26 184.95 170.07 C 186.92 172.07 188.91 174.06 190.92 176.03 C 180.72 186.24 170.58 196.50 160.38 206.71 C 154.99 201.50 149.27 196.65 143.97 191.36 C 145.95 189.26 147.93 187.14 149.92 185.05 C 153.31 188.35 156.87 191.47 160.29 194.74 Z" />
<path fill="#3554d3" opacity="1.00" d=" M 191.38 188.27 C 203.36 188.33 215.35 188.27 227.34 188.31 C 225.67 193.24 224.37 198.29 222.82 203.25 C 212.36 203.27 201.89 203.23 191.42 203.28 C 191.36 198.27 191.41 193.27 191.38 188.27 Z" />
<path fill="#3554d3" opacity="1.00" d=" M 160.40 241.56 C 168.60 233.37 176.74 225.12 184.94 216.93 C 186.94 218.92 188.93 220.91 190.91 222.92 C 180.71 233.08 170.58 243.31 160.46 253.55 C 155.04 248.34 149.30 243.47 143.95 238.19 C 145.95 236.11 147.93 234.00 149.90 231.90 C 153.32 235.20 156.94 238.29 160.40 241.56 Z" />
<path fill="#3554d3" opacity="1.00" d=" M 191.39 235.19 C 201.94 235.25 212.49 235.22 223.04 235.20 C 224.70 235.11 226.31 235.57 227.85 236.19 C 240.16 240.91 252.55 245.43 264.85 250.18 C 255.56 250.30 246.26 250.16 236.96 250.25 C 235.20 250.34 233.45 250.01 231.86 249.24 C 224.66 246.08 217.43 242.99 210.23 239.83 C 208.82 239.15 207.17 238.90 205.78 239.77 C 200.97 242.27 196.18 244.81 191.39 247.36 C 191.39 243.30 191.39 239.25 191.39 235.19 Z" />
<path fill="#3554d3" opacity="1.00" d=" M 206.74 246.64 C 207.64 246.12 208.55 246.12 209.46 246.65 C 255.33 266.47 301.12 286.45 347.06 306.10 C 306.52 330.99 265.80 355.59 225.22 380.41 C 191.44 350.26 157.67 320.10 123.89 289.94 C 151.51 275.51 179.13 261.09 206.74 246.64 M 209.39 266.42 C 196.60 272.09 183.86 277.88 171.07 283.56 C 171.13 283.78 171.25 284.23 171.31 284.46 C 197.89 302.92 224.73 321.04 251.26 339.57 C 268.89 329.92 286.34 319.94 303.97 310.28 C 274.05 295.63 243.77 281.67 213.76 267.21 C 212.39 266.64 210.88 265.59 209.39 266.42 M 164.78 314.12 C 173.86 322.85 183.69 330.80 193.09 339.20 C 200.77 335.27 208.44 331.30 216.02 327.19 C 205.24 319.54 194.63 311.66 183.92 303.90 C 177.44 307.12 171.23 310.84 164.78 314.12 Z" />
<path fill="#ffffff" opacity="1.00" d=" M 209.39 266.42 C 210.88 265.59 212.39 266.64 213.76 267.21 C 243.77 281.67 274.05 295.63 303.97 310.28 C 286.34 319.94 268.89 329.92 251.26 339.57 C 224.73 321.04 197.89 302.92 171.31 284.46 C 171.25 284.23 171.13 283.78 171.07 283.56 C 183.86 277.88 196.60 272.09 209.39 266.42 Z" />
<path fill="#ffffff" opacity="1.00" d=" M 164.78 314.12 C 171.23 310.84 177.44 307.12 183.92 303.90 C 194.63 311.66 205.24 319.54 216.02 327.19 C 208.44 331.30 200.77 335.27 193.09 339.20 C 183.69 330.80 173.86 322.85 164.78 314.12 Z" />
</svg>
