<?xml version="1.0" encoding="UTF-8" ?>
<!DOCTYPE svg PUBLIC "-//W3C//DTD SVG 1.1//EN" "http://www.w3.org/Graphics/SVG/1.1/DTD/svg11.dtd">
<svg width="512pt" height="512pt" viewBox="0 0 512 512" version="1.1" xmlns="http://www.w3.org/2000/svg">
<path fill="#04aeda" opacity="1.00" d=" M 0.00 0.00 L 512.00 0.00 L 512.00 512.00 L 0.00 512.00 L 0.00 0.00 M 155.99 110.95 C 155.75 199.30 156.00 287.66 155.86 376.02 C 156.16 377.21 155.19 379.77 156.99 379.96 C 198.28 386.22 239.59 392.41 280.88 398.65 C 301.89 401.99 323.01 404.64 343.93 408.44 C 347.34 405.18 351.54 403.01 355.40 400.36 C 355.29 321.24 355.39 242.11 355.35 162.98 C 354.66 146.19 341.76 130.23 325.03 127.16 C 272.70 119.07 220.27 111.56 167.96 103.27 C 164.19 106.15 159.59 108.01 155.99 110.95 Z" />
<path fill="#ffffff" opacity="1.00" d=" M 155.99 110.95 C 159.59 108.01 164.19 106.15 167.96 103.27 C 220.27 111.56 272.70 119.07 325.03 127.16 C 341.76 130.23 354.66 146.19 355.35 162.98 C 355.39 242.11 355.29 321.24 355.40 400.36 C 351.54 403.01 347.34 405.18 343.93 408.44 C 323.01 404.64 301.89 401.99 280.88 398.65 C 239.59 392.41 198.28 386.22 156.99 379.96 C 155.19 379.77 156.16 377.21 155.86 376.02 C 156.00 287.66 155.75 199.30 155.99 110.95 M 224.52 153.52 C 222.06 162.49 219.38 171.39 216.95 180.36 C 221.57 179.57 226.27 178.31 230.99 179.17 C 236.97 179.66 242.18 183.02 246.57 186.90 C 249.32 177.94 251.75 168.90 254.33 159.89 C 250.74 156.72 246.72 153.75 241.97 152.66 C 236.21 151.02 230.18 151.99 224.52 153.52 M 258.78 163.75 C 256.27 172.81 253.65 181.85 251.11 190.90 C 253.73 192.99 256.34 195.19 259.43 196.58 C 266.13 199.88 274.03 199.12 281.02 197.15 C 283.46 188.23 286.04 179.34 288.62 170.45 C 283.51 171.51 278.24 172.39 273.04 171.45 C 267.56 170.60 262.84 167.36 258.78 163.75 M 215.56 185.69 C 212.82 194.56 210.11 203.48 208.00 212.53 C 212.58 211.43 217.33 210.48 222.05 211.25 C 227.93 211.84 233.12 215.14 237.40 219.04 C 240.16 210.09 242.66 201.07 245.12 192.04 C 242.12 189.50 238.89 187.15 235.20 185.72 C 228.94 183.20 221.94 184.18 215.56 185.69 M 241.94 222.97 C 245.74 226.37 250.14 229.33 255.17 230.49 C 260.65 231.93 266.36 230.71 271.75 229.44 C 274.43 220.51 276.79 211.49 279.50 202.56 C 274.39 203.67 269.10 204.80 263.89 203.64 C 258.42 202.86 253.77 199.58 249.68 196.06 C 247.02 205.01 244.54 214.01 241.94 222.97 M 225.99 305.24 C 229.56 306.01 233.17 306.52 236.80 306.90 C 236.84 327.78 236.99 348.66 236.76 369.53 C 244.15 371.33 251.81 371.79 259.26 373.33 C 259.25 352.34 259.26 331.36 259.25 310.37 C 262.84 310.95 266.42 311.58 270.04 311.93 C 262.93 302.81 255.36 294.06 248.09 285.06 C 240.79 291.87 233.38 298.54 225.99 305.24 Z" />
<path fill="#04aeda" opacity="1.00" d=" M 224.52 153.52 C 230.18 151.99 236.21 151.02 241.97 152.66 C 246.72 153.75 250.74 156.72 254.33 159.89 C 251.75 168.90 249.32 177.94 246.57 186.90 C 242.18 183.02 236.97 179.66 230.99 179.17 C 226.27 178.31 221.57 179.57 216.95 180.36 C 219.38 171.39 222.06 162.49 224.52 153.52 Z" />
<path fill="#04aeda" opacity="1.00" d=" M 258.78 163.75 C 262.84 167.36 267.56 170.60 273.04 171.45 C 278.24 172.39 283.51 171.51 288.62 170.45 C 286.04 179.34 283.46 188.23 281.02 197.15 C 274.03 199.12 266.13 199.88 259.43 196.58 C 256.34 195.19 253.73 192.99 251.11 190.90 C 253.65 181.85 256.27 172.81 258.78 163.75 Z" />
<path fill="#04aeda" opacity="1.00" d=" M 215.56 185.69 C 221.94 184.18 228.94 183.20 235.20 185.72 C 238.89 187.15 242.12 189.50 245.12 192.04 C 242.66 201.07 240.16 210.09 237.40 219.04 C 233.12 215.14 227.93 211.84 222.05 211.25 C 217.33 210.48 212.58 211.43 208.00 212.53 C 210.11 203.48 212.82 194.56 215.56 185.69 Z" />
<path fill="#04aeda" opacity="1.00" d=" M 241.94 222.97 C 244.54 214.01 247.02 205.01 249.68 196.06 C 253.77 199.58 258.42 202.86 263.89 203.64 C 269.10 204.80 274.39 203.67 279.50 202.56 C 276.79 211.49 274.43 220.51 271.75 229.44 C 266.36 230.71 260.65 231.93 255.17 230.49 C 250.14 229.33 245.74 226.37 241.94 222.97 Z" />
<path fill="#04aeda" opacity="1.00" d=" M 225.99 305.24 C 233.38 298.54 240.79 291.87 248.09 285.06 C 255.36 294.06 262.93 302.81 270.04 311.93 C 266.42 311.58 262.84 310.95 259.25 310.37 C 259.26 331.36 259.25 352.34 259.26 373.33 C 251.81 371.79 244.15 371.33 236.76 369.53 C 236.99 348.66 236.84 327.78 236.80 306.90 C 233.17 306.52 229.56 306.01 225.99 305.24 Z" />
</svg>
