<?xml version="1.0" encoding="UTF-8" ?>
<!DOCTYPE svg PUBLIC "-//W3C//DTD SVG 1.1//EN" "http://www.w3.org/Graphics/SVG/1.1/DTD/svg11.dtd">
<svg width="512pt" height="512pt" viewBox="0 0 512 512" version="1.1" xmlns="http://www.w3.org/2000/svg">
<path fill="#10775c" opacity="1.00" d=" M 0.00 0.00 L 512.00 0.00 L 512.00 512.00 L 0.00 512.00 L 0.00 0.00 Z" />
<path fill="#ffffff" opacity="1.00" d=" M 293.70 220.80 C 305.73 217.07 318.99 215.99 331.06 220.13 C 336.36 222.01 341.40 225.68 342.93 231.36 C 344.38 227.88 344.78 224.09 345.84 220.50 C 353.69 220.58 361.55 220.45 369.41 220.57 C 368.10 225.05 367.17 229.63 366.04 234.16 C 371.63 226.67 379.81 221.01 389.12 219.43 C 394.35 218.88 399.64 219.20 404.87 219.72 C 403.36 225.67 401.56 231.55 399.99 237.49 C 391.39 235.76 381.74 235.26 374.01 240.08 C 366.42 244.47 361.89 252.67 359.87 260.99 C 357.00 271.11 354.55 281.36 351.43 291.41 C 343.29 291.23 335.14 291.43 326.99 291.29 C 331.47 274.56 336.05 257.85 340.58 241.13 C 336.94 245.42 332.39 249.05 326.91 250.62 C 311.21 256.04 294.37 253.59 278.18 255.81 C 276.24 256.27 273.53 256.50 272.78 258.70 C 271.43 265.80 271.36 273.99 276.04 279.96 C 280.45 285.74 287.94 288.01 294.95 288.24 C 305.75 288.12 315.89 282.92 323.52 275.50 C 326.09 274.55 326.08 278.30 324.57 279.48 C 314.75 290.85 298.57 295.48 283.95 293.33 C 274.08 292.07 263.41 288.61 257.64 279.92 C 256.28 283.35 255.71 287.04 254.38 290.49 C 249.65 291.56 244.85 292.59 239.98 292.60 C 232.97 292.61 225.85 293.10 218.96 291.45 C 208.38 289.12 197.36 283.66 192.54 273.41 C 190.04 268.82 190.27 263.53 190.15 258.48 C 186.48 269.21 184.15 280.35 181.54 291.37 C 175.76 290.18 169.85 291.03 164.03 291.37 C 154.65 291.52 145.36 292.94 135.96 292.68 C 127.41 293.09 117.70 292.09 111.54 285.46 C 104.19 276.85 107.11 262.38 116.44 256.39 C 125.68 250.23 137.15 248.81 147.98 248.13 C 155.52 247.32 163.11 247.72 170.68 247.65 C 171.56 244.06 172.34 239.55 169.35 236.70 C 164.78 232.38 157.98 232.22 152.05 232.13 C 141.61 232.09 131.26 234.20 121.39 237.50 C 122.27 232.58 123.37 227.70 124.85 222.93 C 132.87 221.52 140.82 219.40 149.02 219.29 C 159.65 218.58 170.75 218.71 180.72 222.94 C 186.35 225.26 191.38 229.93 192.62 236.09 C 193.72 239.65 192.78 243.33 192.52 246.93 C 194.81 242.85 196.86 238.58 200.12 235.15 C 208.80 225.68 221.52 221.04 234.02 219.46 C 245.05 217.90 256.50 218.24 267.18 221.63 C 265.14 226.61 262.66 231.39 260.11 236.12 C 252.22 232.90 243.33 232.45 235.04 234.23 C 226.04 236.36 217.61 242.49 214.27 251.33 C 212.04 257.34 211.84 264.45 214.87 270.23 C 218.08 275.90 224.75 278.29 230.86 279.19 C 239.24 280.10 247.96 279.47 255.87 276.41 C 252.83 268.14 253.96 258.69 257.77 250.85 C 264.59 236.18 278.52 225.71 293.70 220.80 Z" />
<path fill="#10775c" opacity="1.00" d=" M 304.84 222.88 C 311.58 220.87 319.34 220.78 325.63 224.27 C 329.01 226.03 331.23 230.32 329.71 234.03 C 328.17 240.09 322.51 243.99 316.88 245.90 C 303.35 250.61 288.78 249.49 274.84 251.93 C 280.22 238.71 291.09 227.31 304.84 222.88 Z" />
<path fill="#10775c" opacity="1.00" d=" M 140.20 260.30 C 149.28 258.01 158.71 258.36 167.98 258.41 C 166.12 264.42 165.87 271.52 161.07 276.14 C 156.24 280.68 149.18 280.92 142.94 281.36 C 137.63 281.83 131.58 280.23 128.62 275.46 C 126.69 272.71 127.51 268.93 129.53 266.48 C 132.07 263.04 136.24 261.43 140.20 260.30 Z" />
</svg>
