<?xml version="1.0" encoding="UTF-8" ?>
<!DOCTYPE svg PUBLIC "-//W3C//DTD SVG 1.1//EN" "http://www.w3.org/Graphics/SVG/1.1/DTD/svg11.dtd">
<svg width="512pt" height="512pt" viewBox="0 0 512 512" version="1.1" xmlns="http://www.w3.org/2000/svg">
<path fill="#ffa616" opacity="1.00" d=" M 0.00 0.00 L 512.00 0.00 L 512.00 512.00 L 0.00 512.00 L 0.00 0.00 Z" />
<path fill="#ffffff" opacity="1.00" d=" M 207.49 205.68 C 212.51 204.18 219.13 205.24 221.85 210.20 C 223.38 213.06 220.96 216.12 218.49 217.44 C 213.15 220.30 204.86 219.67 201.76 213.89 C 200.13 209.99 204.20 206.79 207.49 205.68 Z" />
<path fill="#ffffff" opacity="1.00" d=" M 100.16 207.14 C 104.86 207.15 109.55 207.15 114.25 207.15 C 114.30 215.43 114.13 223.71 114.34 231.98 C 127.46 223.51 143.75 221.06 159.06 223.05 C 170.80 224.77 182.68 229.30 190.92 238.12 C 196.44 244.01 199.29 252.51 197.18 260.45 C 194.59 269.90 186.55 276.78 178.05 280.98 C 163.70 287.83 146.91 289.07 131.56 285.17 C 121.87 282.64 112.33 277.96 105.91 270.06 C 102.60 265.80 100.03 260.57 100.18 255.07 C 100.17 239.09 100.20 223.12 100.16 207.14 Z" />
<path fill="#ffffff" opacity="1.00" d=" M 384.18 226.21 C 392.45 221.70 401.91 219.65 411.30 219.76 C 411.33 224.08 411.32 228.41 411.32 232.74 C 406.28 232.44 401.13 232.19 396.16 233.23 C 401.58 238.44 405.68 246.16 403.52 253.81 C 401.58 262.24 394.21 267.65 387.18 271.79 C 394.46 275.21 401.31 281.08 403.46 289.11 C 405.52 296.08 402.39 303.53 397.48 308.51 C 390.63 315.29 381.23 318.75 371.89 320.36 C 358.27 322.21 343.58 319.86 332.29 311.66 C 328.47 309.02 325.64 305.26 323.45 301.21 C 328.59 301.20 333.74 301.15 338.89 301.25 C 347.30 314.09 366.20 316.29 378.99 309.07 C 384.73 305.83 389.52 299.83 389.23 292.96 C 388.70 285.48 382.76 279.66 376.16 276.88 C 373.58 275.57 370.64 276.36 367.91 276.47 C 355.60 277.42 342.58 274.92 332.45 267.58 C 326.54 263.31 321.71 256.56 322.13 248.98 C 322.16 240.21 328.87 233.18 336.04 229.03 C 350.55 220.93 368.78 220.28 384.18 226.21 Z" />
<path fill="#ffffff" opacity="1.00" d=" M 249.47 226.71 C 267.88 219.51 289.70 221.11 306.59 231.50 C 313.40 235.49 317.28 243.23 317.43 250.99 C 317.57 262.26 317.46 273.53 317.49 284.79 C 312.78 284.75 308.08 284.76 303.37 284.77 C 303.46 273.51 303.31 262.26 303.35 251.00 C 303.41 246.67 302.35 241.96 298.89 239.05 C 289.65 231.82 277.35 228.59 265.77 230.85 C 259.79 232.05 254.03 234.47 249.02 237.95 C 245.84 240.17 243.49 243.67 243.32 247.63 C 242.71 260.00 243.59 272.41 242.90 284.77 C 238.31 284.76 233.73 284.75 229.14 284.79 C 228.48 276.21 229.02 267.58 228.82 258.98 C 229.00 252.08 228.74 244.61 232.62 238.57 C 236.43 232.57 243.08 229.27 249.47 226.71 Z" />
<path fill="#ffffff" opacity="1.00" d=" M 204.59 226.50 C 209.27 227.66 214.19 227.70 218.88 226.59 C 218.85 245.98 218.88 265.36 218.86 284.75 C 214.11 284.78 209.35 284.75 204.60 284.78 C 204.59 265.35 204.60 245.93 204.59 226.50 Z" />
<path fill="#ffa616" opacity="1.00" d=" M 140.52 230.78 C 151.10 228.83 162.57 230.46 171.73 236.27 C 176.88 239.72 181.48 244.71 182.75 250.94 C 184.40 257.68 181.47 264.84 176.59 269.52 C 169.12 276.83 158.31 279.98 148.02 279.64 C 137.51 279.56 126.50 275.68 119.62 267.47 C 114.49 261.47 113.52 252.28 117.46 245.42 C 122.28 237.21 131.40 232.50 140.52 230.78 Z" />
<path fill="#ffa616" opacity="1.00" d=" M 355.63 230.86 C 364.38 229.15 374.07 230.33 381.39 235.69 C 385.95 238.97 389.37 244.25 389.24 250.01 C 388.84 256.67 384.06 262.29 378.30 265.24 C 367.26 270.89 352.57 270.09 342.97 261.93 C 338.42 257.95 335.44 251.36 337.51 245.38 C 339.91 237.39 347.89 232.58 355.63 230.86 Z" />
</svg>
