<?xml version="1.0" encoding="UTF-8" ?>
<!DOCTYPE svg PUBLIC "-//W3C//DTD SVG 1.1//EN" "http://www.w3.org/Graphics/SVG/1.1/DTD/svg11.dtd">
<svg width="512pt" height="512pt" viewBox="0 0 512 512" version="1.1" xmlns="http://www.w3.org/2000/svg">
<path fill="#d44928" opacity="1.00" d=" M 0.00 0.00 L 512.00 0.00 L 512.00 512.00 L 0.00 512.00 L 0.00 0.00 Z" />
<path fill="#ffffff" opacity="1.00" d=" M 126.01 149.27 C 138.38 149.26 150.75 149.40 163.11 149.20 C 163.41 171.29 163.20 193.40 163.22 215.51 C 185.37 200.76 211.67 193.26 237.99 190.75 C 256.68 189.57 275.62 189.94 293.98 193.98 C 319.29 199.21 344.14 209.94 362.92 228.07 C 375.96 240.85 385.61 258.36 384.97 277.04 C 385.28 294.61 376.45 311.08 364.47 323.45 C 349.55 338.57 330.21 348.72 310.05 354.96 C 286.17 362.40 260.79 364.37 235.94 362.12 C 206.40 358.97 176.66 349.48 153.52 330.32 C 139.61 318.63 127.95 302.59 126.06 284.09 C 125.92 239.15 126.03 194.21 126.01 149.27 Z" />
<path fill="#d44928" opacity="1.00" d=" M 248.20 211.29 C 265.91 210.31 283.90 212.91 300.28 219.82 C 316.76 226.78 332.14 238.34 340.17 254.68 C 346.10 266.51 347.03 280.74 342.38 293.15 C 337.34 307.12 326.51 318.33 314.08 326.10 C 296.79 336.83 276.29 342.03 256.01 341.87 C 232.04 342.25 207.41 335.45 188.47 320.42 C 175.29 310.02 165.08 294.24 165.31 276.99 C 164.84 263.56 170.92 250.62 179.82 240.82 C 197.11 221.86 223.02 212.67 248.20 211.29 Z" />
</svg>
