<?xml version="1.0" encoding="UTF-8" ?>
<!DOCTYPE svg PUBLIC "-//W3C//DTD SVG 1.1//EN" "http://www.w3.org/Graphics/SVG/1.1/DTD/svg11.dtd">
<svg width="512pt" height="512pt" viewBox="0 0 512 512" version="1.1" xmlns="http://www.w3.org/2000/svg">
<path fill="#006dd4" opacity="1.00" d=" M 0.00 0.00 L 512.00 0.00 L 512.00 512.00 L 0.00 512.00 L 0.00 0.00 Z" />
<path fill="#ffffff" opacity="1.00" d=" M 207.49 205.74 C 212.50 204.21 219.09 205.27 221.85 210.17 C 223.45 213.02 221.05 216.17 218.54 217.48 C 213.22 220.41 204.87 219.68 201.80 213.89 C 200.20 210.02 204.27 206.89 207.49 205.74 Z" />
<path fill="#ffffff" opacity="1.00" d=" M 100.28 207.17 C 104.98 207.18 109.67 207.20 114.36 207.15 C 114.40 215.43 114.33 223.71 114.39 232.00 C 129.75 222.32 149.14 220.24 166.59 224.56 C 177.14 227.34 187.78 232.66 193.95 242.00 C 198.46 248.55 199.23 257.55 195.66 264.69 C 191.79 272.59 184.36 278.16 176.50 281.72 C 162.04 288.08 145.37 288.95 130.20 284.74 C 120.62 282.00 111.21 277.04 105.19 268.88 C 102.42 264.82 100.18 260.06 100.30 255.04 C 100.30 239.09 100.33 223.13 100.28 207.17 Z" />
<path fill="#ffffff" opacity="1.00" d=" M 384.05 226.24 C 392.11 221.85 401.34 219.71 410.50 219.83 C 411.49 220.56 411.07 221.89 411.20 222.94 C 411.19 226.20 411.14 229.47 411.18 232.73 C 406.12 232.37 401.03 232.44 395.99 233.11 C 400.00 237.53 403.97 242.74 403.82 249.02 C 404.20 259.30 395.72 267.28 387.11 271.40 C 392.64 274.86 398.43 278.60 401.52 284.59 C 405.28 291.15 404.33 299.79 399.67 305.67 C 393.15 314.23 382.47 318.35 372.19 320.22 C 358.71 322.22 344.20 319.92 332.86 312.08 C 328.77 309.37 325.68 305.46 323.37 301.18 C 328.52 301.17 333.66 301.12 338.81 301.23 C 347.40 314.25 366.75 316.31 379.55 308.60 C 385.26 305.21 389.83 298.87 388.83 291.96 C 388.06 283.70 380.46 278.19 373.14 275.76 C 359.93 278.04 345.61 276.08 334.17 268.83 C 327.74 264.70 322.01 257.97 322.09 249.94 C 321.68 243.65 325.10 237.81 329.62 233.69 C 336.59 227.36 345.83 224.08 355.04 222.81 C 364.79 221.76 374.90 222.50 384.05 226.24 Z" />
<path fill="#ffffff" opacity="1.00" d=" M 240.27 231.27 C 257.60 220.77 279.98 219.56 298.58 227.41 C 304.70 230.04 311.09 233.50 314.35 239.61 C 317.15 244.57 317.57 250.43 317.45 256.02 C 317.44 265.59 317.41 275.15 317.47 284.72 C 312.76 284.76 308.05 284.73 303.34 284.75 C 303.41 273.50 303.29 262.25 303.31 251.00 C 303.35 246.70 302.32 242.01 298.89 239.13 C 289.46 231.69 276.78 228.47 264.99 231.04 C 259.08 232.37 253.35 234.78 248.47 238.40 C 245.36 240.69 243.36 244.33 243.28 248.21 C 242.81 260.39 243.66 272.60 242.80 284.77 C 238.11 284.69 233.42 284.88 228.74 284.56 C 229.75 272.35 228.33 260.09 229.43 247.90 C 230.08 240.99 234.35 234.77 240.27 231.27 Z" />
<path fill="#ffffff" opacity="1.00" d=" M 204.63 226.57 C 209.41 227.69 214.38 227.64 219.18 226.66 C 218.52 235.76 219.35 244.86 218.88 253.97 C 219.32 264.21 218.66 274.46 219.06 284.71 C 214.27 284.77 209.47 284.71 204.68 284.78 C 204.59 265.38 204.70 245.97 204.63 226.57 Z" />
<path fill="#006dd4" opacity="1.00" d=" M 141.40 230.67 C 151.72 229.11 162.81 230.53 171.73 236.23 C 176.93 239.67 181.56 244.70 182.83 250.98 C 184.37 257.23 181.94 263.94 177.60 268.53 C 170.62 276.09 160.06 279.57 149.96 279.62 C 140.40 279.90 130.54 277.10 123.13 270.90 C 118.50 266.99 115.04 261.22 115.16 255.02 C 114.94 249.51 117.61 244.27 121.43 240.45 C 126.73 235.04 134.03 231.98 141.40 230.67 Z" />
<path fill="#006dd4" opacity="1.00" d=" M 355.57 230.88 C 364.06 229.21 373.40 230.31 380.64 235.28 C 384.91 238.17 388.43 242.69 388.90 247.96 C 389.77 254.84 385.16 261.21 379.42 264.51 C 368.70 270.75 354.10 270.37 344.07 262.91 C 338.77 258.92 335.04 251.67 337.51 245.08 C 340.07 237.27 347.90 232.57 355.57 230.88 Z" />
</svg>
