<?xml version="1.0" encoding="UTF-8" ?>
<!DOCTYPE svg PUBLIC "-//W3C//DTD SVG 1.1//EN" "http://www.w3.org/Graphics/SVG/1.1/DTD/svg11.dtd">
<svg width="512pt" height="512pt" viewBox="0 0 512 512" version="1.1" xmlns="http://www.w3.org/2000/svg">
<path fill="#ca0002" opacity="1.00" d=" M 0.00 0.00 L 512.00 0.00 L 512.00 512.00 L 0.00 512.00 L 0.00 0.00 Z" />
<path fill="#ffffff" opacity="1.00" d=" M 211.19 195.23 C 218.07 188.27 229.66 185.69 238.37 190.73 C 245.40 194.81 250.73 201.36 254.64 208.39 C 262.81 222.66 271.09 236.88 279.23 251.17 C 279.36 238.13 279.22 225.08 279.29 212.03 C 279.63 205.40 282.12 198.58 287.13 194.05 C 293.60 188.42 303.31 186.27 311.29 189.85 C 318.03 192.97 323.16 198.69 327.15 204.82 C 336.12 219.96 344.71 235.34 353.76 250.43 C 353.81 229.84 353.78 209.26 353.77 188.67 C 366.43 188.60 379.08 188.65 391.74 188.65 C 391.71 224.77 391.73 260.88 391.73 297.00 C 391.55 304.51 389.53 312.58 383.78 317.81 C 379.56 321.80 373.56 323.01 367.95 323.16 C 358.21 322.73 349.98 316.06 344.90 308.14 C 335.47 292.70 326.28 277.11 316.85 261.68 C 316.78 274.13 316.87 286.58 316.82 299.03 C 316.52 306.37 313.91 314.16 308.00 318.86 C 301.17 323.75 291.62 324.45 284.07 320.82 C 277.57 317.75 272.60 312.16 268.99 306.07 C 260.08 291.33 251.25 276.55 242.33 261.83 C 242.28 273.22 242.38 284.62 242.30 296.01 C 241.87 302.60 240.16 309.58 235.45 314.46 C 230.93 319.06 224.37 321.23 218.01 321.19 C 204.69 321.14 191.37 321.21 178.06 321.16 C 162.15 320.10 145.82 315.87 133.17 305.76 C 121.44 296.49 114.68 282.29 111.55 267.95 C 107.68 249.58 112.36 230.06 122.63 214.55 C 131.03 202.29 144.82 194.65 159.12 191.49 C 172.42 188.09 186.21 188.62 199.81 188.67 C 199.76 194.25 199.76 199.84 199.81 205.42 C 185.07 205.92 169.67 203.55 155.63 209.32 C 144.14 213.61 135.56 223.47 130.66 234.46 C 124.85 248.26 125.01 264.66 131.80 278.09 C 136.11 286.31 142.28 293.94 150.66 298.24 C 159.00 302.83 168.65 304.41 178.06 304.68 C 191.02 304.65 203.98 304.73 216.93 304.64 C 221.97 304.67 225.91 299.93 225.84 295.06 C 226.01 268.00 225.77 240.92 225.95 213.85 C 225.57 210.67 230.34 209.99 231.55 212.49 C 248.86 240.44 266.22 268.38 283.46 296.38 C 285.13 299.00 286.50 302.04 289.24 303.75 C 292.03 305.68 296.37 305.24 298.41 302.40 C 300.16 300.01 300.51 296.91 300.53 294.03 C 300.50 267.68 300.53 241.32 300.51 214.97 C 300.41 213.32 300.89 210.82 303.07 211.07 C 305.45 210.48 306.50 212.93 307.54 214.55 C 324.77 243.19 342.87 271.29 360.24 299.85 C 361.99 302.93 365.28 305.71 369.07 304.77 C 373.24 304.35 375.10 299.71 375.10 296.03 C 375.17 262.70 375.09 229.37 375.14 196.03 C 375.15 193.63 375.05 191.24 374.86 188.85 C 373.34 188.84 371.83 188.82 370.32 188.81 C 370.05 222.87 370.26 256.93 370.21 290.99 C 370.05 294.36 371.12 298.34 368.12 300.78 C 364.71 298.85 363.16 295.15 361.12 292.01 C 344.46 265.28 327.76 238.56 311.39 211.65 C 309.77 209.03 307.47 206.10 304.09 206.10 C 299.63 205.62 295.62 209.66 295.67 214.06 C 295.48 241.67 295.72 269.30 295.56 296.92 C 295.70 298.66 293.99 299.61 293.03 300.79 C 289.91 298.51 288.31 294.91 286.26 291.76 C 269.31 264.65 252.53 237.42 235.80 210.18 C 233.74 206.44 228.71 204.83 224.96 206.98 C 222.23 208.59 220.94 211.85 221.12 214.92 C 221.14 240.95 221.11 266.97 221.14 293.00 C 221.17 295.51 220.94 299.15 217.80 299.63 C 205.21 299.92 192.61 299.64 180.01 299.76 C 168.64 300.05 156.66 297.54 147.58 290.37 C 140.44 284.28 135.06 276.02 132.75 266.91 C 129.56 253.42 131.69 238.33 140.23 227.16 C 145.22 219.82 152.93 214.61 161.49 212.38 C 173.96 208.91 187.03 210.44 199.79 210.10 C 199.77 215.55 199.75 221.01 199.81 226.46 C 187.75 227.15 174.96 224.45 163.56 229.57 C 150.38 235.04 144.67 251.91 149.38 264.88 C 151.79 272.56 158.21 278.64 165.86 281.01 C 176.18 284.70 187.27 282.89 197.98 283.35 C 200.80 283.85 204.77 282.55 204.38 279.06 C 204.42 257.70 204.39 236.34 204.39 214.98 C 204.51 207.94 206.22 200.48 211.19 195.23 Z" />
<path fill="#ffffff" opacity="1.00" d=" M 397.40 309.59 C 399.97 308.81 403.14 309.05 405.14 311.03 C 407.60 313.17 406.75 316.81 406.58 319.66 C 404.46 324.74 396.22 325.15 393.81 320.09 C 391.52 316.44 393.22 310.95 397.40 309.59 Z" />
<path fill="#ca0002" opacity="1.00" d=" M 394.60 318.29 C 392.59 313.58 398.43 308.67 402.82 311.23 C 406.98 313.09 406.25 318.71 403.84 321.72 C 403.39 320.08 402.95 318.44 402.51 316.80 C 403.48 314.72 403.12 312.12 400.13 311.92 C 400.68 313.04 401.25 314.15 401.84 315.26 C 401.03 315.51 400.23 315.77 399.43 316.03 C 399.13 314.57 398.80 313.12 397.96 311.87 C 397.42 315.12 397.42 318.45 398.02 321.69 C 398.67 319.99 399.14 318.23 399.69 316.50 C 400.49 317.68 401.25 318.89 402.00 320.12 C 402.34 320.55 403.01 321.41 403.34 321.85 C 400.03 322.99 395.66 322.02 394.60 318.29 Z" />
</svg>
