<?xml version="1.0" encoding="UTF-8" ?>
<!DOCTYPE svg PUBLIC "-//W3C//DTD SVG 1.1//EN" "http://www.w3.org/Graphics/SVG/1.1/DTD/svg11.dtd">
<svg width="512pt" height="512pt" viewBox="0 0 512 512" version="1.1" xmlns="http://www.w3.org/2000/svg">
<path fill="#c40a27" opacity="1.00" d=" M 0.00 0.00 L 512.00 0.00 L 512.00 512.00 L 0.00 512.00 L 0.00 0.00 Z" />
<path fill="#ffffff" opacity="1.00" d=" M 85.12 228.05 C 88.31 223.79 93.59 221.17 98.92 221.26 C 110.77 221.23 122.62 221.29 134.46 221.24 C 133.08 225.76 131.76 230.30 130.38 234.82 C 122.25 235.22 114.11 235.14 105.98 235.13 C 103.87 235.18 101.35 235.09 99.96 237.00 C 96.47 241.52 95.33 247.29 93.43 252.55 C 92.16 256.99 89.87 261.71 91.58 266.35 C 101.07 269.06 111.19 267.82 120.82 266.45 C 119.19 271.46 117.74 276.52 116.10 281.52 C 107.06 282.66 97.94 282.49 88.85 282.34 C 83.65 282.18 77.92 280.76 74.77 276.28 C 72.32 273.03 73.02 268.75 72.94 264.97 C 72.88 259.79 75.00 254.97 76.25 250.03 C 78.50 242.48 80.10 234.37 85.12 228.05 Z" />
<path fill="#ffffff" opacity="1.00" d=" M 149.42 221.69 C 156.28 221.06 163.18 221.27 170.06 221.29 C 175.15 221.42 180.76 221.75 184.81 225.21 C 188.29 227.91 190.11 232.66 188.94 236.96 C 186.61 247.21 183.58 257.30 180.10 267.22 C 178.15 272.27 175.57 277.93 170.20 280.07 C 162.18 283.24 153.42 282.26 145.01 282.43 C 139.45 282.36 133.05 282.40 128.81 278.22 C 124.45 274.19 124.02 267.59 125.22 262.10 C 127.49 251.54 130.77 241.13 135.32 231.32 C 137.81 225.75 143.26 221.83 149.42 221.69 Z" />
<path fill="#ffffff" opacity="1.00" d=" M 389.94 222.12 C 397.89 220.80 406.01 221.35 414.03 221.31 C 420.14 221.38 427.41 222.58 430.71 228.40 C 433.88 233.23 431.62 239.00 430.41 244.07 C 427.77 253.23 425.29 262.50 421.42 271.25 C 427.27 271.32 433.12 271.27 438.97 271.32 C 437.87 275.05 436.79 278.79 435.51 282.47 C 428.34 282.36 421.17 282.44 414.00 282.41 C 408.93 282.39 403.69 282.82 399.08 285.10 C 396.44 286.38 394.39 288.53 392.12 290.32 C 393.87 278.87 405.94 272.47 416.58 271.75 C 406.81 271.46 396.23 274.58 389.90 282.42 C 383.97 282.35 377.23 282.62 372.42 278.56 C 368.38 275.46 367.54 269.85 368.00 265.09 C 369.63 254.44 373.20 244.19 377.17 234.22 C 379.31 228.58 383.65 223.10 389.94 222.12 Z" />
<path fill="#ffffff" opacity="1.00" d=" M 181.09 281.27 C 187.06 261.32 193.49 241.52 199.52 221.58 C 205.33 221.71 211.16 221.47 216.97 221.69 C 220.54 221.87 224.85 223.13 226.06 226.93 C 227.49 232.00 227.88 237.30 228.81 242.47 C 233.13 236.92 236.98 230.96 241.95 225.96 C 244.78 222.97 248.94 221.64 252.99 221.62 C 257.98 221.56 262.98 221.64 267.98 221.63 C 262.08 241.51 256.28 261.43 250.35 281.30 C 244.35 281.26 238.34 281.30 232.34 281.27 C 236.84 266.88 241.21 252.46 245.68 238.06 C 237.11 248.14 228.94 258.55 220.38 268.65 C 219.55 268.59 217.89 268.49 217.06 268.43 C 215.51 258.17 213.91 247.92 212.15 237.70 C 207.36 252.12 203.57 266.87 198.89 281.33 C 192.96 281.24 187.02 281.31 181.09 281.27 Z" />
<path fill="#ffffff" opacity="1.00" d=" M 256.47 281.29 C 262.49 261.37 268.60 241.47 274.79 221.60 C 285.87 221.67 296.95 221.54 308.03 221.65 C 315.58 221.67 322.96 228.15 322.36 236.00 C 321.51 244.90 318.09 254.12 311.02 259.94 C 306.88 263.44 301.26 264.24 296.03 264.31 C 290.57 264.32 285.12 264.29 279.67 264.30 C 277.91 269.96 276.44 275.71 274.55 281.33 C 268.53 281.24 262.50 281.29 256.47 281.29 Z" />
<path fill="#ffffff" opacity="1.00" d=" M 343.40 222.63 C 350.35 220.58 357.66 222.18 364.77 221.79 C 364.81 241.63 364.83 261.47 364.77 281.31 C 359.41 281.26 354.07 281.29 348.72 281.28 C 348.72 276.93 348.71 272.58 348.76 268.23 C 342.20 268.26 335.63 268.23 329.07 268.25 C 326.64 272.59 324.19 276.91 321.78 281.26 C 315.50 281.29 309.22 281.30 302.94 281.25 C 312.46 265.67 321.77 249.96 331.47 234.48 C 334.52 229.79 337.68 224.33 343.40 222.63 Z" />
<path fill="#c40a27" opacity="1.00" d=" M 289.04 232.28 C 293.31 232.04 297.64 231.97 301.91 232.35 C 304.55 232.69 306.11 235.55 305.64 238.04 C 305.10 242.69 302.88 247.29 299.26 250.32 C 294.66 253.97 288.42 252.37 283.02 252.66 C 285.15 245.90 286.82 239.00 289.04 232.28 Z" />
<path fill="#c40a27" opacity="1.00" d=" M 153.43 233.67 C 158.23 231.85 163.84 231.98 168.71 233.48 C 171.48 234.33 170.86 237.66 170.35 239.82 C 168.22 247.92 166.02 256.04 162.91 263.83 C 161.70 266.64 160.21 270.09 156.84 270.71 C 152.83 271.45 148.51 271.56 144.60 270.23 C 141.54 268.94 142.15 265.15 142.83 262.58 C 144.88 255.13 147.17 247.74 149.66 240.42 C 150.66 238.08 151.32 235.29 153.43 233.67 Z" />
<path fill="#c40a27" opacity="1.00" d=" M 396.44 233.70 C 401.23 231.84 406.85 231.98 411.74 233.44 C 414.81 234.39 413.72 238.19 413.23 240.51 C 410.68 249.58 408.59 258.95 404.19 267.35 C 402.38 271.19 397.65 271.27 394.00 271.20 C 391.05 271.11 387.20 271.11 385.61 268.11 C 385.14 266.09 385.64 264.04 386.16 262.09 C 388.25 254.36 390.71 246.74 393.26 239.16 C 394.04 237.22 394.72 235.02 396.44 233.70 Z" />
<path fill="#c40a27" opacity="1.00" d=" M 334.87 258.15 C 339.11 249.65 344.16 241.58 348.61 233.19 C 348.83 241.52 348.73 249.85 348.66 258.18 C 344.06 258.15 339.46 258.18 334.87 258.15 Z" />
</svg>
