<?xml version="1.0" encoding="UTF-8" ?>
<!DOCTYPE svg PUBLIC "-//W3C//DTD SVG 1.1//EN" "http://www.w3.org/Graphics/SVG/1.1/DTD/svg11.dtd">
<svg width="512pt" height="512pt" viewBox="0 0 512 512" version="1.1" xmlns="http://www.w3.org/2000/svg">
<path fill="#f78b24" opacity="1.00" d=" M 0.00 0.00 L 512.00 0.00 L 512.00 512.00 L 0.00 512.00 L 0.00 0.00 Z" />
<path fill="#ffffff" opacity="1.00" d=" M 132.38 137.34 C 139.36 134.98 146.90 134.47 154.18 135.52 C 154.20 137.37 154.22 139.23 154.27 141.09 C 151.25 144.49 147.38 146.94 143.99 149.93 C 139.13 154.32 132.61 157.05 126.02 156.86 C 123.95 156.33 122.21 155.00 120.33 154.04 C 123.32 147.87 126.42 141.17 132.38 137.34 Z" />
<path fill="#ffffff" opacity="1.00" d=" M 205.94 140.46 C 221.82 138.09 237.97 136.96 254.01 137.88 C 261.36 139.26 269.43 137.99 276.10 141.95 C 298.84 152.54 321.68 162.94 344.44 173.50 C 347.08 174.75 350.33 175.48 351.73 178.34 C 358.60 189.41 369.07 198.44 372.89 211.23 C 375.04 220.31 374.02 229.71 374.24 238.94 C 374.72 256.75 374.33 274.91 369.15 292.11 C 365.83 302.67 360.98 312.74 354.87 321.97 C 350.27 329.17 344.53 335.54 339.50 342.43 C 333.87 349.46 329.04 357.26 322.10 363.14 C 316.95 367.60 310.69 370.67 304.14 372.50 C 293.41 375.81 282.14 376.61 271.01 377.48 C 263.20 377.66 255.36 378.17 247.57 377.49 C 245.22 376.79 241.58 376.55 240.87 373.72 C 251.10 371.43 261.89 374.10 271.89 370.56 C 275.07 369.52 277.73 367.43 280.38 365.47 C 285.78 361.46 291.21 357.50 296.61 353.50 C 299.45 351.43 303.92 352.22 305.87 348.87 C 314.12 337.12 322.57 325.51 330.70 313.68 C 334.87 307.26 339.40 300.91 341.75 293.55 C 343.89 287.26 345.00 280.63 344.74 273.99 C 345.01 253.28 337.80 232.49 324.25 216.76 C 307.46 197.07 283.50 183.57 257.91 179.64 C 244.73 177.40 231.32 178.46 218.03 178.35 C 207.37 178.16 196.63 179.83 186.73 183.86 C 180.74 186.27 175.03 189.82 171.27 195.18 C 164.10 204.30 162.47 216.09 158.74 226.77 C 150.02 251.48 146.69 278.32 150.77 304.29 C 153.98 323.66 162.37 343.42 178.41 355.55 C 183.42 359.77 190.05 360.84 196.02 363.07 C 202.44 365.36 209.48 366.69 214.93 371.03 C 217.01 372.56 218.14 374.93 218.77 377.38 C 214.20 377.30 209.51 377.97 205.07 376.57 C 194.63 373.71 184.20 370.70 173.54 368.72 C 170.50 368.13 167.34 367.84 164.54 366.43 C 158.18 363.50 154.00 357.64 148.99 353.00 C 136.69 341.49 126.83 327.13 121.87 310.95 C 115.78 291.60 117.16 270.84 120.90 251.17 C 123.41 238.61 126.96 226.27 131.16 214.17 C 133.36 207.67 136.25 201.39 137.48 194.60 C 139.82 186.13 140.80 176.68 146.75 169.77 C 162.23 153.38 183.83 143.73 205.94 140.46 Z" />
<path fill="#ffffff" opacity="1.00" d=" M 387.72 155.69 C 389.78 154.87 392.76 154.81 394.02 156.99 C 396.22 160.62 395.66 165.72 392.34 168.50 C 389.98 168.64 386.88 168.96 385.89 166.19 C 384.96 162.80 384.52 158.07 387.72 155.69 Z" />
<path fill="#ffffff" opacity="1.00" d=" M 120.42 168.61 C 123.41 168.21 127.29 167.86 129.24 170.70 C 131.16 173.94 131.00 179.09 127.58 181.31 C 124.11 182.69 118.95 182.78 116.91 179.07 C 115.39 175.45 115.92 169.71 120.42 168.61 Z" />
<path fill="#ffffff" opacity="1.00" d=" M 371.40 170.55 C 375.15 169.51 380.21 169.99 382.04 173.98 C 383.52 177.87 383.44 182.31 382.24 186.26 C 380.31 191.03 373.78 191.87 369.84 189.27 C 366.74 186.90 366.35 182.61 366.55 179.00 C 366.59 175.65 367.94 171.73 371.40 170.55 Z" />
<path fill="#f78b24" opacity="1.00" d=" M 341.36 185.40 C 346.83 182.69 352.99 186.42 355.77 191.23 C 359.49 197.31 357.87 205.95 352.42 210.47 C 347.97 214.19 340.80 213.34 337.18 208.86 C 330.43 202.15 332.69 189.34 341.36 185.40 Z" />
<path fill="#ffffff" opacity="1.00" d=" M 229.58 196.93 C 240.08 195.70 250.94 195.91 261.13 198.97 C 279.99 204.29 298.31 213.72 311.08 228.91 C 320.79 240.39 326.34 255.10 327.27 270.07 C 329.11 292.48 319.85 315.20 303.72 330.71 C 284.97 350.09 256.71 361.13 229.80 356.12 C 207.84 352.43 187.80 339.25 175.38 320.81 C 167.03 308.58 164.35 293.48 163.69 278.95 C 163.16 261.34 166.03 242.86 175.96 227.95 C 188.44 210.66 208.63 199.76 229.58 196.93 Z" />
<path fill="#ffffff" opacity="1.00" d=" M 170.06 213.04 C 171.41 210.11 176.00 209.48 178.04 212.02 C 179.87 214.71 179.88 218.99 177.15 221.11 C 175.23 222.41 172.83 221.70 170.75 221.30 C 169.68 218.73 168.66 215.69 170.06 213.04 Z" />
<path fill="#f78b24" opacity="1.00" d=" M 299.39 280.40 C 303.93 278.27 309.10 277.59 314.07 277.81 C 316.93 278.92 319.47 280.68 322.21 282.04 C 321.00 289.14 318.25 296.94 311.46 300.47 C 307.80 302.16 303.12 303.56 299.37 301.45 C 296.60 298.92 295.31 295.19 294.26 291.70 C 292.71 287.35 295.20 282.20 299.39 280.40 Z" />
<path fill="#ffffff" opacity="1.00" d=" M 348.74 354.92 C 349.29 350.85 353.36 349.11 356.80 348.06 C 358.68 348.80 360.65 349.37 362.39 350.42 C 363.87 353.86 364.04 357.68 364.38 361.37 C 360.02 361.65 355.75 360.63 351.42 360.48 C 349.90 359.01 348.00 357.29 348.74 354.92 Z" />
</svg>
