<?xml version="1.0" encoding="UTF-8" ?>
<!DOCTYPE svg PUBLIC "-//W3C//DTD SVG 1.1//EN" "http://www.w3.org/Graphics/SVG/1.1/DTD/svg11.dtd">
<svg width="512pt" height="512pt" viewBox="0 0 512 512" version="1.1" xmlns="http://www.w3.org/2000/svg">
<path fill="#0075ba" opacity="1.00" d=" M 0.00 0.00 L 512.00 0.00 L 512.00 512.00 L 0.00 512.00 L 0.00 0.00 Z" />
<path fill="#ffffff" opacity="1.00" d=" M 232.68 114.98 C 256.92 111.07 282.16 113.37 305.27 121.71 C 333.02 131.18 356.88 150.39 373.82 174.14 C 400.11 211.02 406.71 260.79 391.67 303.43 C 378.73 340.94 349.24 372.17 312.83 387.78 C 301.70 392.51 290.00 395.90 278.03 397.65 C 272.42 398.61 266.72 398.68 261.10 399.56 C 254.39 400.60 247.76 398.86 241.08 398.48 C 211.99 395.52 183.62 383.84 161.70 364.35 C 148.27 352.56 136.86 338.40 128.51 322.59 C 118.61 303.59 113.25 282.33 112.41 260.95 C 111.76 231.47 119.52 201.53 136.09 176.97 C 153.17 151.50 178.39 131.23 207.57 121.42 C 215.71 118.50 224.15 116.41 232.68 114.98 Z" />
<path fill="#0075ba" opacity="1.00" d=" M 240.57 129.92 C 279.71 124.69 321.02 139.12 348.04 168.01 C 363.11 183.38 374.40 202.61 379.52 223.58 C 384.10 241.97 385.36 261.39 381.62 280.06 C 377.78 298.42 370.48 316.19 359.37 331.37 C 344.85 351.16 324.37 366.35 301.59 375.33 C 274.79 384.97 244.74 386.57 217.51 377.65 C 200.36 372.20 184.29 363.19 170.80 351.28 C 149.10 331.80 133.81 304.84 129.77 275.84 C 129.01 269.60 128.05 263.36 128.19 257.05 C 127.59 234.68 133.82 212.35 145.06 193.06 C 164.25 158.30 201.19 134.22 240.57 129.92 Z" />
<path fill="#ffffff" opacity="1.00" d=" M 210.21 240.15 C 221.05 233.14 231.98 226.27 242.77 219.18 C 247.08 222.22 251.55 225.02 255.84 228.08 C 246.24 234.37 236.35 240.24 226.96 246.85 C 228.98 247.72 231.11 251.05 233.41 249.28 C 242.61 243.29 252.01 237.60 261.17 231.55 C 265.27 234.27 269.43 236.89 273.38 239.83 C 263.75 245.88 254.31 252.23 244.81 258.48 C 246.29 259.92 248.01 261.07 249.84 262.03 C 259.72 255.71 269.74 249.63 279.46 243.07 C 279.43 236.35 279.49 229.62 279.42 222.90 C 286.43 222.72 293.45 222.91 300.47 222.77 C 300.81 236.32 300.54 249.88 300.61 263.44 C 306.95 263.85 313.31 263.65 319.67 263.67 C 319.72 269.94 319.68 276.20 319.70 282.47 C 306.28 282.44 292.87 282.45 279.45 282.46 C 279.43 275.87 279.51 269.28 279.40 262.69 C 267.16 270.27 255.11 278.17 242.99 285.96 C 230.53 277.74 218.26 269.25 205.83 260.98 C 203.55 267.31 200.02 273.46 194.30 277.26 C 188.73 281.15 181.77 282.68 175.04 282.49 C 166.83 282.54 158.61 282.26 150.40 282.49 C 150.40 262.60 150.36 242.71 150.42 222.82 C 162.58 223.64 175.02 220.93 186.94 224.28 C 195.78 226.66 202.35 234.30 205.07 242.83 C 206.90 242.18 208.60 241.23 210.21 240.15 Z" />
<path fill="#ffffff" opacity="1.00" d=" M 325.83 223.18 C 332.83 223.09 339.83 223.19 346.83 223.12 C 346.70 236.58 346.88 250.05 346.73 263.52 C 353.19 263.99 359.68 263.64 366.16 263.74 C 366.17 269.96 366.16 276.19 366.16 282.41 C 352.71 282.41 339.26 282.47 325.80 282.38 C 325.87 277.27 326.32 272.16 325.89 267.05 C 325.78 252.43 325.89 237.80 325.83 223.18 Z" />
<path fill="#0075ba" opacity="1.00" d=" M 170.53 241.32 C 174.46 240.62 178.73 240.93 182.32 242.75 C 189.23 247.00 188.57 258.72 181.54 262.50 C 178.14 264.13 174.22 263.50 170.57 263.72 C 170.55 256.25 170.62 248.78 170.53 241.32 Z" />
</svg>
