<?xml version="1.0" encoding="UTF-8" ?>
<!DOCTYPE svg PUBLIC "-//W3C//DTD SVG 1.1//EN" "http://www.w3.org/Graphics/SVG/1.1/DTD/svg11.dtd">
<svg width="512pt" height="512pt" viewBox="0 0 512 512" version="1.1" xmlns="http://www.w3.org/2000/svg">
<path fill="#4b6b49" opacity="1.00" d=" M 0.00 0.00 L 512.00 0.00 L 512.00 512.00 L 0.00 512.00 L 0.00 0.00 Z" />
<path fill="#ffffff" opacity="1.00" d=" M 133.35 122.47 C 214.24 122.16 295.15 122.45 376.04 122.33 C 383.06 121.80 389.75 127.90 389.63 134.98 C 389.65 215.65 389.65 296.32 389.63 376.99 C 389.74 383.69 383.71 389.72 377.01 389.64 C 296.34 389.67 215.66 389.67 134.98 389.64 C 128.29 389.73 122.25 383.73 122.36 377.03 C 122.33 296.35 122.33 215.66 122.36 134.98 C 122.27 128.85 127.30 123.23 133.35 122.47 Z" />
<path fill="#4b6b49" opacity="1.00" d=" M 132.91 132.89 C 134.12 132.14 135.56 131.89 136.97 131.86 C 215.64 131.85 294.33 131.89 373.00 131.83 C 375.14 131.83 377.26 132.22 379.36 132.64 C 379.58 133.73 379.76 134.83 379.91 135.93 C 379.92 163.08 380.05 190.22 379.89 217.38 C 327.79 199.02 271.11 196.88 216.90 205.69 C 212.72 197.03 208.70 188.28 204.29 179.73 C 189.44 179.83 174.59 179.72 159.74 179.79 C 164.89 192.12 170.48 204.26 175.87 216.49 C 159.93 222.77 144.81 231.33 131.86 242.61 C 131.85 208.76 131.89 174.90 131.83 141.05 C 131.93 138.33 131.42 135.33 132.91 132.89 Z" />
<path fill="#4b6b49" opacity="1.00" d=" M 227.92 227.91 C 254.96 222.97 282.90 220.39 310.12 225.46 C 328.50 229.00 346.95 236.27 360.12 250.00 C 361.60 251.29 362.59 253.50 361.43 255.33 C 358.95 257.48 355.56 257.93 352.51 258.80 C 337.11 262.47 321.78 266.49 306.31 269.84 C 300.28 257.13 293.95 244.56 287.94 231.83 C 272.55 230.96 257.16 232.52 241.97 234.87 C 242.74 236.79 243.55 238.70 244.46 240.57 C 255.62 263.45 266.69 286.38 277.82 309.28 C 311.99 300.18 346.05 290.68 380.19 281.45 C 379.38 296.65 380.57 311.85 379.84 327.05 C 380.46 340.03 379.68 353.01 380.11 365.99 C 379.81 370.31 381.04 375.01 379.11 379.06 C 377.31 380.17 375.07 380.03 373.04 380.15 C 296.71 380.12 220.39 380.17 144.06 380.12 C 140.25 380.25 136.39 380.26 132.65 379.38 C 130.96 369.63 132.27 359.64 131.85 349.78 C 177.29 337.22 222.76 324.81 268.21 312.29 C 257.60 289.56 246.39 267.10 235.60 244.44 C 233.05 238.93 229.99 233.64 227.92 227.91 Z" />
<path fill="#4b6b49" opacity="1.00" d=" M 166.28 258.33 C 171.88 251.01 179.58 245.73 187.42 241.09 C 195.89 258.20 204.14 275.44 212.13 292.79 C 196.54 296.50 180.95 300.25 165.38 304.09 C 163.10 304.57 160.34 305.16 158.39 303.47 C 155.11 301.08 155.75 296.53 155.49 292.99 C 154.93 280.64 158.49 268.02 166.28 258.33 Z" />
</svg>
