<?xml version="1.0" encoding="UTF-8" ?>
<!DOCTYPE svg PUBLIC "-//W3C//DTD SVG 1.1//EN" "http://www.w3.org/Graphics/SVG/1.1/DTD/svg11.dtd">
<svg width="512pt" height="512pt" viewBox="0 0 512 512" version="1.1" xmlns="http://www.w3.org/2000/svg">
<path fill="#4b6b49" opacity="1.00" d=" M 0.00 0.00 L 512.00 0.00 L 512.00 512.00 L 0.00 512.00 L 0.00 0.00 Z" />
<path fill="#ffffff" opacity="1.00" d=" M 179.92 183.50 C 190.17 182.55 200.44 182.01 210.71 181.15 C 213.41 187.73 215.88 194.40 218.69 200.93 C 246.38 200.36 274.31 203.39 300.84 211.52 C 344.03 224.27 382.70 249.96 413.74 282.32 C 419.76 288.49 425.48 294.94 431.10 301.47 C 382.10 305.52 333.08 309.51 284.09 313.53 C 282.65 313.89 282.41 312.12 281.81 311.29 C 268.24 283.74 254.58 256.24 241.00 228.69 C 253.41 227.76 265.97 229.30 277.81 233.06 C 287.80 248.64 297.20 264.63 307.04 280.32 C 316.74 279.68 326.41 278.69 336.12 278.28 C 342.67 277.33 349.34 277.84 355.86 276.62 C 334.48 252.71 307.93 232.40 276.95 222.93 C 260.11 217.48 242.25 215.82 224.62 216.46 C 237.78 249.30 250.43 282.34 263.58 315.19 C 202.74 320.04 141.95 325.31 81.10 329.92 C 81.90 305.57 87.00 280.78 99.85 259.80 C 108.18 246.23 119.69 234.67 133.11 226.12 C 149.44 215.70 168.09 209.38 187.05 205.82 C 184.97 198.30 182.56 190.84 179.92 183.50 Z" />
<path fill="#4b6b49" opacity="1.00" d=" M 155.31 245.37 C 164.18 233.09 178.13 225.58 192.36 221.23 C 198.59 239.78 204.84 258.32 211.04 276.88 C 212.13 280.26 213.65 283.55 214.04 287.12 C 191.09 288.64 168.26 291.45 145.31 292.80 C 143.05 276.56 145.42 258.86 155.31 245.37 Z" />
</svg>
