<?xml version="1.0" encoding="UTF-8" ?>
<!DOCTYPE svg PUBLIC "-//W3C//DTD SVG 1.1//EN" "http://www.w3.org/Graphics/SVG/1.1/DTD/svg11.dtd">
<svg width="512pt" height="512pt" viewBox="0 0 512 512" version="1.1" xmlns="http://www.w3.org/2000/svg">
<path fill="#4c724a" opacity="1.00" d=" M 0.00 0.00 L 512.00 0.00 L 512.00 512.00 L 0.00 512.00 L 0.00 0.00 Z" />
<path fill="#ffffff" opacity="1.00" d=" M 129.68 112.97 C 132.38 112.14 135.19 111.67 138.02 111.72 C 217.36 111.76 296.71 111.71 376.05 111.74 C 386.27 111.93 395.83 118.91 399.43 128.42 C 401.17 132.72 401.25 137.44 401.17 142.02 C 401.12 220.02 401.21 298.03 401.12 376.04 C 400.99 389.25 389.31 400.96 376.10 401.13 C 296.39 401.18 216.69 401.17 136.98 401.14 C 123.69 401.08 111.85 389.31 111.74 376.02 C 111.72 296.36 111.73 216.69 111.73 137.03 C 111.80 126.26 119.51 116.25 129.68 112.97 Z" />
<path fill="#4c724a" opacity="1.00" d=" M 136.31 125.38 C 215.87 125.14 295.44 125.32 375.00 125.28 C 381.81 125.04 387.83 131.23 387.63 137.99 C 387.64 216.99 387.65 295.99 387.63 374.99 C 387.79 381.71 381.79 387.78 375.06 387.64 C 296.02 387.67 216.97 387.66 137.93 387.64 C 131.20 387.82 125.06 381.81 125.28 375.04 C 125.26 296.01 125.26 216.97 125.28 137.94 C 125.05 131.75 130.15 125.94 136.31 125.38 Z" />
<path fill="#ffffff" opacity="1.00" d=" M 134.52 138.07 C 134.31 136.12 136.19 134.32 138.12 134.52 C 216.73 134.48 295.35 134.52 373.96 134.50 C 376.09 134.12 378.50 135.69 378.34 138.00 C 378.42 164.89 378.35 191.78 378.38 218.67 C 345.29 207.08 310.08 201.62 275.03 202.27 C 256.95 202.15 238.91 203.98 221.04 206.63 C 219.80 206.56 217.73 207.58 217.35 205.72 C 213.54 197.71 209.56 189.78 205.87 181.71 C 191.21 181.58 176.55 181.68 161.89 181.66 C 167.17 193.60 172.24 205.64 177.85 217.42 C 162.33 224.08 147.13 232.04 134.50 243.42 C 134.52 208.30 134.48 173.19 134.52 138.07 Z" />
<path fill="#ffffff" opacity="1.00" d=" M 228.41 228.88 C 248.61 225.13 269.21 222.67 289.77 223.94 C 309.55 225.22 329.77 229.50 346.61 240.41 C 351.53 243.69 356.25 247.41 360.05 251.97 C 361.18 253.23 361.04 255.50 359.49 256.37 C 356.25 258.49 352.26 258.87 348.61 259.91 C 334.40 263.49 320.13 266.78 305.91 270.30 C 299.75 257.77 293.91 245.05 287.38 232.70 C 272.38 232.14 257.36 233.38 242.57 235.85 C 254.44 260.12 266.20 284.45 277.95 308.78 C 311.43 299.60 344.92 290.50 378.40 281.34 C 378.35 312.57 378.44 343.79 378.35 375.02 C 378.49 377.24 376.05 378.78 374.01 378.41 C 295.68 378.41 217.34 378.39 139.01 378.41 C 136.88 378.82 134.25 377.27 134.52 374.90 C 134.42 366.11 134.57 357.32 134.45 348.53 C 178.87 336.13 223.40 324.12 267.83 311.78 C 268.11 310.48 267.22 309.36 266.79 308.23 C 253.95 281.80 241.24 255.31 228.41 228.88 Z" />
<path fill="#ffffff" opacity="1.00" d=" M 163.57 265.61 C 169.15 254.98 178.90 247.35 189.20 241.57 C 197.62 258.42 205.33 275.63 213.78 292.47 C 197.92 296.57 181.93 300.22 166.02 304.13 C 162.58 305.28 158.34 302.94 157.99 299.19 C 156.57 287.80 157.92 275.76 163.57 265.61 Z" />
</svg>
