<?xml version="1.0" encoding="UTF-8" ?>
<!DOCTYPE svg PUBLIC "-//W3C//DTD SVG 1.1//EN" "http://www.w3.org/Graphics/SVG/1.1/DTD/svg11.dtd">
<svg width="512pt" height="512pt" viewBox="0 0 512 512" version="1.1" xmlns="http://www.w3.org/2000/svg">
<path fill="#006699" opacity="1.00" d=" M 0.00 0.00 L 512.00 0.00 L 512.00 512.00 L 0.00 512.00 L 0.00 0.00 Z" />
<path fill="#ffffff" opacity="1.00" d=" M 102.03 140.61 C 204.68 140.56 307.32 140.56 409.97 140.61 C 409.86 217.53 409.86 294.47 409.97 371.39 C 307.32 371.44 204.68 371.44 102.03 371.39 C 102.14 294.47 102.14 217.53 102.03 140.61 Z" />
<path fill="#006699" opacity="1.00" d=" M 182.67 197.40 C 189.96 197.36 197.25 197.51 204.54 197.31 C 204.56 229.45 204.49 261.60 204.57 293.75 C 185.23 293.68 165.89 293.73 146.55 293.72 C 146.59 270.11 146.66 246.51 146.52 222.90 C 158.55 222.80 170.60 223.10 182.63 222.76 C 182.92 214.31 182.82 205.85 182.67 197.40 Z" />
<path fill="#006699" opacity="1.00" d=" M 211.94 197.40 C 219.23 197.39 226.52 197.46 233.81 197.36 C 233.70 203.02 233.77 208.68 233.78 214.34 C 226.49 214.29 219.20 214.29 211.91 214.34 C 212.37 208.69 211.71 203.05 211.94 197.40 Z" />
<path fill="#006699" opacity="1.00" d=" M 211.82 222.87 C 219.15 222.89 226.49 223.01 233.83 222.76 C 233.68 246.42 233.75 270.08 233.79 293.74 C 226.51 293.69 219.24 293.74 211.96 293.71 C 212.09 279.79 212.06 265.86 212.10 251.93 C 211.69 242.25 212.46 232.55 211.82 222.87 Z" />
<path fill="#006699" opacity="1.00" d=" M 241.21 222.80 C 260.53 223.03 279.85 222.83 299.17 222.91 C 299.20 253.65 299.26 284.40 299.14 315.15 C 281.42 315.17 263.70 315.11 245.98 315.18 C 244.47 315.03 242.76 315.50 241.39 314.80 C 241.16 309.50 241.41 304.20 241.30 298.90 C 253.28 298.80 265.26 299.05 277.24 298.76 C 276.92 295.08 276.80 291.39 276.84 287.70 C 265.00 287.62 253.14 287.48 241.30 287.78 C 241.26 266.12 241.45 244.46 241.21 222.80 Z" />
<path fill="#006699" opacity="1.00" d=" M 306.32 222.90 C 325.77 222.88 345.23 222.96 364.69 222.85 C 364.54 253.53 364.55 284.20 364.68 314.88 C 346.48 315.52 328.24 314.94 310.03 315.18 C 308.89 314.88 306.11 315.90 306.31 313.91 C 306.17 308.95 306.32 303.99 306.27 299.03 C 318.28 298.71 330.30 298.96 342.32 298.90 C 342.41 295.14 342.43 291.37 342.27 287.61 C 330.30 287.65 318.32 287.58 306.35 287.67 C 306.19 266.08 306.26 244.49 306.32 222.90 Z" />
<path fill="#ffffff" opacity="1.00" d=" M 168.69 239.11 C 173.34 238.81 178.00 238.87 182.65 239.07 C 182.55 251.87 182.79 264.68 182.53 277.48 C 177.96 277.45 173.38 277.53 168.81 277.39 C 168.57 264.63 168.80 251.87 168.69 239.11 Z" />
<path fill="#ffffff" opacity="1.00" d=" M 263.26 238.86 C 267.94 239.10 272.69 238.38 277.32 239.33 C 276.75 250.13 277.93 261.03 276.69 271.77 C 272.25 271.62 267.80 271.69 263.35 271.66 C 263.06 260.73 263.26 249.79 263.26 238.86 Z" />
<path fill="#ffffff" opacity="1.00" d=" M 328.57 238.82 C 333.21 238.85 337.85 238.87 342.50 238.80 C 342.55 249.77 342.41 260.75 342.58 271.73 C 337.87 271.54 333.13 272.01 328.45 271.42 C 328.65 260.56 328.44 249.69 328.57 238.82 Z" />
</svg>
