<?xml version="1.0" encoding="UTF-8" ?>
<!DOCTYPE svg PUBLIC "-//W3C//DTD SVG 1.1//EN" "http://www.w3.org/Graphics/SVG/1.1/DTD/svg11.dtd">
<svg width="512pt" height="512pt" viewBox="0 0 512 512" version="1.1" xmlns="http://www.w3.org/2000/svg">
<path fill="#006699" opacity="1.00" d=" M 0.00 0.00 L 512.00 0.00 L 512.00 512.00 L 0.00 512.00 L 0.00 0.00 Z" />
<path fill="#ffffff" opacity="1.00" d=" M 241.40 136.07 C 241.61 131.59 245.51 128.00 250.02 128.25 C 281.68 128.23 313.35 128.22 345.01 128.26 C 349.78 128.02 353.69 132.30 353.56 136.96 C 353.53 149.92 353.61 162.89 353.51 175.86 C 363.34 175.78 373.18 175.85 383.01 175.81 C 386.35 175.89 390.40 176.67 392.07 179.95 C 393.93 182.97 393.38 186.64 393.44 190.01 C 393.42 209.71 393.45 229.41 393.43 249.11 C 392.71 250.80 391.94 252.48 391.13 254.14 C 388.89 255.24 386.58 256.55 383.99 256.40 C 376.48 256.36 368.96 256.45 361.45 256.33 C 361.65 295.87 361.47 335.41 361.54 374.95 C 361.70 379.63 357.81 383.92 353.04 383.74 C 340.00 383.79 326.97 383.75 313.94 383.76 C 309.76 383.85 305.25 381.00 305.27 376.43 C 305.29 380.88 301.30 383.92 297.05 383.74 C 278.38 383.74 259.71 383.85 241.05 383.68 C 236.54 383.57 233.31 379.41 233.38 375.09 C 233.42 335.51 233.27 295.93 233.45 256.34 C 231.02 256.38 228.58 256.38 226.15 256.35 C 226.13 260.40 226.84 264.89 224.58 268.53 C 222.81 271.42 219.22 272.46 216.00 272.36 C 203.43 272.34 190.85 272.32 178.27 272.36 C 178.29 292.47 178.37 312.57 178.23 332.67 C 184.07 334.81 190.49 335.08 196.05 338.02 C 201.67 340.55 207.14 344.68 208.93 350.85 C 211.87 358.61 207.93 367.76 201.05 372.02 C 190.70 378.64 177.92 380.40 165.87 379.51 C 156.72 378.39 147.28 376.01 140.10 369.92 C 134.94 365.39 132.49 357.65 134.85 351.10 C 137.05 343.13 145.04 338.84 152.25 336.18 C 156.20 334.56 160.92 334.87 164.56 332.73 C 165.02 312.63 164.64 292.48 164.75 272.36 C 152.48 272.32 140.22 272.34 127.96 272.36 C 125.41 272.46 123.13 271.17 120.90 270.13 C 120.08 268.46 119.30 266.77 118.57 265.07 C 118.55 241.72 118.60 218.36 118.54 195.01 C 118.08 187.01 121.50 178.79 127.58 173.57 C 141.42 162.55 159.88 159.64 177.11 160.10 C 191.05 161.07 205.46 164.48 216.64 173.27 C 218.33 174.46 219.77 175.97 220.85 177.74 C 227.07 174.23 234.56 176.39 241.35 175.89 C 241.39 162.61 241.27 149.34 241.40 136.07 Z" />
<path fill="#006699" opacity="1.00" d=" M 250.13 136.67 C 281.66 136.84 313.20 136.77 344.74 136.70 C 344.79 168.38 344.70 200.05 344.83 231.72 C 313.26 231.62 281.69 231.64 250.13 231.71 C 249.69 200.03 250.25 168.36 250.13 136.67 Z" />
<path fill="#006699" opacity="1.00" d=" M 142.53 174.77 C 159.36 167.26 178.97 166.89 196.43 172.45 C 203.88 175.13 211.43 179.12 215.66 186.11 C 218.01 189.99 217.29 194.68 217.39 199.00 C 217.45 220.54 217.30 242.09 217.49 263.63 C 187.42 263.55 157.34 263.52 127.27 263.65 C 127.47 239.41 127.20 215.17 127.42 190.94 C 128.52 183.06 135.86 177.98 142.53 174.77 Z" />
<path fill="#006699" opacity="1.00" d=" M 226.17 184.57 C 231.25 184.66 236.34 184.65 241.43 184.57 C 240.93 199.72 241.36 214.90 241.20 230.06 C 240.91 233.65 242.36 237.23 245.11 239.56 C 247.02 239.97 248.92 240.60 250.91 240.58 C 281.94 240.57 312.98 240.57 344.01 240.58 C 345.96 240.59 347.83 239.99 349.73 239.59 C 352.13 237.43 353.86 234.36 353.70 231.05 C 353.58 215.56 353.99 200.05 353.48 184.56 C 363.88 184.65 374.28 184.69 384.68 184.55 C 384.61 205.59 384.58 226.63 384.73 247.67 C 374.04 247.48 363.36 247.76 352.68 247.53 C 352.83 290.12 352.69 332.72 352.78 375.31 C 339.73 375.20 326.68 375.22 313.63 375.30 C 313.79 348.67 313.57 322.03 313.75 295.40 C 308.21 295.52 302.68 295.49 297.14 295.42 C 297.27 322.04 297.11 348.67 297.23 375.29 C 278.87 375.23 260.51 375.21 242.15 375.30 C 242.17 332.72 242.12 290.13 242.23 247.54 C 236.88 247.69 231.52 247.54 226.17 247.67 C 226.24 226.63 226.26 205.60 226.17 184.57 Z" />
<path fill="#006699" opacity="1.00" d=" M 160.45 342.73 C 171.07 340.41 182.53 341.26 192.47 345.79 C 196.27 347.74 200.04 350.73 201.41 354.92 C 202.41 359.66 198.30 363.41 194.73 365.77 C 183.51 372.08 169.68 372.77 157.42 369.34 C 152.12 367.80 146.67 365.24 143.57 360.46 C 141.78 357.94 141.94 354.34 143.84 351.92 C 147.70 346.57 154.25 344.13 160.45 342.73 Z" />
</svg>
