<?xml version="1.0" encoding="UTF-8" ?>
<!DOCTYPE svg PUBLIC "-//W3C//DTD SVG 1.1//EN" "http://www.w3.org/Graphics/SVG/1.1/DTD/svg11.dtd">
<svg width="512pt" height="512pt" viewBox="0 0 512 512" version="1.1" xmlns="http://www.w3.org/2000/svg">
<path fill="#f874a4" opacity="1.00" d=" M 0.00 0.00 L 512.00 0.00 L 512.00 512.00 L 0.00 512.00 L 0.00 0.00 Z" />
<path fill="#ffffff" opacity="1.00" d=" M 241.39 121.71 C 256.26 119.19 271.37 121.22 286.03 124.09 C 315.82 130.38 343.39 146.74 363.04 170.01 C 383.44 194.00 395.45 225.40 394.73 257.01 C 395.30 284.77 385.91 312.37 369.80 334.86 C 352.03 359.67 325.76 378.21 296.47 386.74 C 285.94 389.95 275.01 391.54 264.07 392.55 C 252.96 393.41 241.84 392.06 230.91 390.21 C 202.81 385.09 176.29 371.19 156.44 350.62 C 134.91 328.90 121.21 299.56 118.51 269.09 C 118.13 261.16 118.18 253.21 118.45 245.28 C 121.10 211.78 137.30 179.75 162.19 157.26 C 183.91 137.34 212.13 124.93 241.39 121.71 Z" />
<path fill="#f874a4" opacity="1.00" d=" M 228.89 144.10 C 265.59 135.35 306.16 144.98 334.57 169.93 C 318.78 189.69 296.29 202.85 272.91 211.71 C 259.81 188.19 244.82 165.78 228.89 144.10 Z" />
<path fill="#f874a4" opacity="1.00" d=" M 140.92 232.69 C 148.23 197.50 173.43 166.96 206.01 152.06 C 221.86 173.37 236.35 195.67 249.83 218.54 C 220.83 226.37 190.91 230.47 160.97 232.34 C 154.29 232.60 147.60 232.78 140.92 232.69 Z" />
<path fill="#f874a4" opacity="1.00" d=" M 282.07 229.04 C 306.95 218.94 330.75 204.35 347.86 183.34 C 364.65 203.44 374.47 229.33 374.60 255.57 C 361.32 252.74 347.78 251.37 334.25 250.54 C 320.34 250.08 306.33 249.87 292.51 251.77 C 289.10 244.16 285.76 236.52 282.07 229.04 Z" />
<path fill="#f874a4" opacity="1.00" d=" M 255.92 237.77 C 257.23 237.45 258.55 237.20 259.88 236.95 C 263.07 243.31 266.25 249.67 269.17 256.16 C 227.35 268.17 191.74 297.55 168.46 333.89 C 148.43 312.33 137.26 282.72 138.42 253.28 C 178.01 253.13 217.72 248.33 255.92 237.77 Z" />
<path fill="#f874a4" opacity="1.00" d=" M 299.85 269.94 C 324.24 266.72 349.27 268.33 372.95 275.07 C 368.42 306.65 348.96 335.10 322.69 352.79 C 318.00 328.03 311.40 303.64 303.12 279.84 C 301.89 276.59 300.76 273.30 299.85 269.94 Z" />
<path fill="#f874a4" opacity="1.00" d=" M 244.15 290.16 C 254.68 284.20 265.89 279.54 277.28 275.49 C 288.40 303.90 296.96 333.33 302.60 363.32 C 280.19 372.80 254.83 375.01 231.07 369.86 C 213.97 366.22 197.75 358.68 183.84 348.10 C 197.52 323.28 219.66 303.94 244.15 290.16 Z" />
</svg>
