<?xml version="1.0" encoding="UTF-8" ?>
<!DOCTYPE svg PUBLIC "-//W3C//DTD SVG 1.1//EN" "http://www.w3.org/Graphics/SVG/1.1/DTD/svg11.dtd">
<svg width="512pt" height="512pt" viewBox="0 0 512 512" version="1.1" xmlns="http://www.w3.org/2000/svg">
<path fill="#ffcc00" opacity="1.00" d=" M 0.00 0.00 L 512.00 0.00 L 512.00 512.00 L 0.00 512.00 L 0.00 0.00 Z" />
<path fill="#ffffff" opacity="1.00" d=" M 295.22 185.74 C 307.21 185.70 319.20 185.76 331.19 185.70 C 339.20 203.75 346.95 221.90 354.89 239.98 C 363.28 221.91 371.71 203.86 380.00 185.75 C 391.24 185.70 402.47 185.72 413.71 185.74 C 399.05 213.81 384.01 241.70 369.60 269.88 C 369.27 284.66 369.80 299.47 369.34 314.26 C 358.42 314.09 347.50 314.22 336.58 314.19 C 336.36 299.28 336.80 284.33 336.36 269.44 C 333.15 262.60 329.73 255.85 326.42 249.06 C 326.35 262.56 325.64 276.15 327.59 289.56 C 319.74 289.64 311.90 289.54 304.05 289.61 C 303.47 285.59 303.39 281.52 303.06 277.48 C 300.36 280.66 298.25 284.42 294.68 286.75 C 288.44 291.49 280.17 291.83 272.67 291.11 C 272.48 300.33 271.29 310.16 265.86 317.90 C 259.19 326.95 245.87 328.23 236.11 323.93 C 231.57 322.03 228.79 317.84 225.90 314.09 C 225.89 317.52 225.93 320.95 225.91 324.38 C 218.09 324.10 209.97 324.84 202.34 324.02 C 202.13 317.99 202.39 311.95 202.24 305.91 C 182.52 313.68 160.87 314.06 139.97 313.21 C 125.89 311.96 110.73 310.62 98.98 301.96 C 89.47 294.90 86.74 282.25 87.22 271.01 C 86.72 260.59 89.78 249.07 98.54 242.63 C 109.00 234.90 122.36 233.01 134.95 231.68 C 144.29 231.33 153.65 230.35 162.99 231.21 C 176.37 231.30 189.77 233.29 202.39 237.77 C 202.13 223.67 202.34 209.56 202.28 195.46 C 210.66 195.51 219.05 195.45 227.43 195.50 C 227.38 211.32 227.42 227.14 227.41 242.97 C 230.42 239.15 233.88 235.31 238.68 233.81 C 247.38 231.03 257.88 231.99 264.68 238.57 C 275.31 230.94 289.13 231.75 301.57 231.57 C 301.20 226.33 302.34 220.75 300.18 215.78 C 297.92 211.01 291.52 210.68 287.09 212.03 C 281.95 214.10 281.75 220.47 281.73 225.17 C 273.54 225.38 265.34 225.23 257.14 225.25 C 256.86 217.14 259.18 208.10 266.18 203.24 C 276.25 196.00 289.38 197.07 301.09 197.74 C 299.22 193.70 297.14 189.76 295.22 185.74 Z" />
<path fill="#ffffff" opacity="1.00" d=" M 417.45 186.59 C 419.62 185.94 422.58 185.81 423.95 188.01 C 426.12 190.45 423.31 193.69 420.86 194.40 C 419.06 194.87 417.62 193.68 416.31 192.67 C 416.41 190.67 415.49 187.93 417.45 186.59 Z" />
<path fill="#ffcc00" opacity="1.00" d=" M 417.48 187.58 C 418.11 187.37 419.39 186.96 420.03 186.75 C 421.13 187.17 422.22 187.58 423.33 188.00 C 424.27 191.37 421.66 194.60 418.05 193.52 C 418.16 191.38 419.51 191.00 421.18 191.79 C 421.44 190.74 421.71 189.70 421.99 188.65 C 420.78 188.50 419.58 188.34 418.38 188.18 C 418.25 189.78 418.10 191.38 417.93 192.97 C 416.69 191.33 416.49 189.38 417.48 187.58 Z" />
<path fill="#ffcc00" opacity="1.00" d=" M 138.08 249.06 C 143.32 244.79 150.54 244.47 157.01 244.66 C 162.51 245.02 168.78 245.91 172.54 250.41 C 175.52 253.99 175.55 258.92 175.53 263.35 C 161.51 263.35 147.49 263.34 133.47 263.35 C 133.34 258.30 133.96 252.54 138.08 249.06 Z" />
<path fill="#ffcc00" opacity="1.00" d=" M 285.12 248.16 C 290.13 245.53 296.04 246.43 301.49 245.68 C 301.44 253.97 302.73 262.95 298.62 270.55 C 296.12 275.28 289.86 276.84 285.06 275.03 C 280.30 272.68 279.66 266.69 279.60 261.98 C 279.51 256.99 280.32 250.87 285.12 248.16 Z" />
<path fill="#ffcc00" opacity="1.00" d=" M 234.36 248.44 C 238.36 246.89 243.57 248.45 245.52 252.42 C 247.79 256.90 247.81 262.08 248.20 266.98 C 248.28 278.04 248.73 289.20 247.00 300.17 C 246.26 303.97 244.92 308.52 240.93 310.06 C 237.88 311.05 233.95 310.84 231.81 308.14 C 228.44 303.89 228.39 298.12 227.74 292.98 C 227.26 282.91 227.28 272.80 227.67 262.72 C 228.30 257.59 228.76 250.65 234.36 248.44 Z" />
<path fill="#ffcc00" opacity="1.00" d=" M 133.52 275.71 C 156.43 275.74 179.35 275.70 202.26 275.72 C 202.28 278.75 202.28 281.77 202.26 284.79 C 192.80 284.79 183.34 284.75 173.88 284.79 C 173.90 288.76 172.64 292.93 169.39 295.44 C 165.05 298.79 159.28 299.33 153.98 299.40 C 148.35 299.32 142.18 298.09 138.26 293.72 C 133.91 288.85 133.40 281.93 133.52 275.71 Z" />
</svg>
