<?xml version="1.0" encoding="UTF-8" ?>
<!DOCTYPE svg PUBLIC "-//W3C//DTD SVG 1.1//EN" "http://www.w3.org/Graphics/SVG/1.1/DTD/svg11.dtd">
<svg width="512pt" height="512pt" viewBox="0 0 512 512" version="1.1" xmlns="http://www.w3.org/2000/svg">
<path fill="#4b4944" opacity="1.00" d=" M 0.00 0.00 L 512.00 0.00 L 512.00 512.00 L 0.00 512.00 L 0.00 0.00 Z" />
<path fill="#0064d2" opacity="1.00" d=" M 159.78 179.18 C 166.32 179.17 172.87 179.21 179.41 179.15 C 179.46 195.12 179.46 211.09 179.41 227.06 C 187.22 217.46 199.87 213.28 211.93 213.16 C 223.60 212.50 235.82 215.52 244.79 223.29 C 256.53 233.03 261.47 249.23 259.56 264.08 C 258.41 271.28 256.92 278.66 252.65 284.75 C 245.80 295.65 233.54 302.41 220.87 303.73 C 205.96 305.55 189.27 301.53 179.28 289.65 C 178.97 293.41 179.48 297.68 178.06 301.12 C 171.82 301.22 165.55 301.41 159.32 300.98 C 159.99 289.35 159.60 277.70 159.79 266.06 C 160.28 258.73 159.98 251.39 159.77 244.06 C 159.73 222.44 159.71 200.81 159.78 179.18 Z" />
<path fill="#4b4944" opacity="1.00" d=" M 205.37 226.59 C 214.82 225.43 225.13 228.20 231.56 235.51 C 243.18 248.72 242.37 271.44 229.32 283.42 C 218.03 293.78 198.54 293.23 188.04 281.98 C 177.46 270.30 176.67 251.35 185.36 238.37 C 189.80 231.66 197.41 227.37 205.37 226.59 Z" />
</svg>
