<?xml version="1.0" encoding="UTF-8" ?>
<!DOCTYPE svg PUBLIC "-//W3C//DTD SVG 1.1//EN" "http://www.w3.org/Graphics/SVG/1.1/DTD/svg11.dtd">
<svg width="512pt" height="512pt" viewBox="0 0 512 512" version="1.1" xmlns="http://www.w3.org/2000/svg">
<path fill="#3b5998" opacity="1.00" d=" M 0.00 0.00 L 512.00 0.00 L 512.00 512.00 L 0.00 512.00 L 0.00 0.00 Z" />
<path fill="#ffffff" opacity="1.00" d=" M 117.91 119.95 C 119.33 118.03 121.52 116.40 124.04 116.72 C 185.05 116.73 246.06 116.69 307.06 116.73 C 311.33 116.75 314.26 121.08 314.22 125.07 C 314.33 138.62 314.26 152.18 314.25 165.73 C 338.49 165.70 362.74 165.73 386.99 165.71 C 391.30 165.37 395.62 168.26 396.60 172.54 C 397.15 175.66 396.83 178.85 396.90 182.00 C 396.90 239.32 396.89 296.64 396.90 353.96 C 397.43 358.97 393.02 363.91 387.92 363.64 C 344.95 363.71 301.97 363.64 258.99 363.67 C 243.96 373.77 228.85 383.74 213.82 393.84 C 211.44 395.27 208.89 397.32 205.93 396.69 C 201.46 395.94 198.40 391.48 198.73 387.04 C 198.73 362.78 198.71 338.52 198.75 314.26 C 191.28 314.42 183.78 313.98 176.33 314.46 C 160.64 324.64 145.21 335.24 129.56 345.50 C 126.07 348.09 120.78 347.46 118.16 343.95 C 116.15 341.79 116.82 338.71 116.70 336.05 C 116.73 266.71 116.72 197.38 116.70 128.04 C 116.87 125.34 116.07 122.24 117.91 119.95 Z" />
<path fill="#3b5998" opacity="1.00" d=" M 132.54 132.54 C 187.75 132.63 242.97 132.51 298.18 132.60 C 298.15 143.70 297.82 154.79 297.79 165.89 C 268.86 165.82 239.93 165.89 211.00 165.85 C 207.92 166.04 204.39 165.84 201.94 168.06 C 199.23 170.14 198.89 173.80 198.84 176.96 C 198.87 217.24 198.83 257.52 198.86 297.79 C 190.90 297.83 182.92 297.68 174.96 297.84 C 170.90 297.82 167.76 300.56 164.57 302.66 C 153.92 309.77 143.28 316.89 132.61 323.95 C 132.49 260.15 132.64 196.35 132.54 132.54 Z" />
<path fill="#3b5998" opacity="1.00" d=" M 214.82 181.58 C 270.10 181.53 325.38 181.63 380.66 181.53 C 380.64 236.95 380.62 292.37 380.67 347.79 C 340.10 347.69 299.54 347.84 258.97 347.74 C 256.42 347.72 253.72 348.05 251.60 349.58 C 239.62 357.63 227.56 365.57 215.59 373.65 C 214.32 370.93 214.92 367.86 214.81 364.97 C 214.83 303.84 214.81 242.71 214.82 181.58 Z" />
<path fill="#ffffff" opacity="1.00" d=" M 285.96 222.93 C 290.09 214.85 299.26 210.89 307.97 210.47 C 315.90 210.13 323.85 210.31 331.79 210.29 C 331.79 218.12 331.79 225.94 331.79 233.77 C 326.28 233.91 320.71 233.37 315.26 234.39 C 312.55 234.76 310.80 237.40 310.70 239.98 C 310.52 244.93 310.71 249.89 310.64 254.84 C 317.71 254.86 324.79 254.83 331.86 254.86 C 331.30 262.77 330.19 270.64 329.39 278.54 C 323.14 278.53 316.89 278.52 310.64 278.53 C 310.65 301.28 310.66 324.03 310.63 346.78 C 301.18 346.77 291.73 346.77 282.28 346.78 C 282.25 324.03 282.26 301.28 282.27 278.53 C 277.59 278.52 272.91 278.54 268.22 278.51 C 268.26 270.63 268.18 262.75 268.28 254.87 C 272.94 254.83 277.60 254.84 282.27 254.85 C 282.50 244.20 281.13 232.83 285.96 222.93 Z" />
</svg>
