<?xml version="1.0" encoding="UTF-8" ?>
<!DOCTYPE svg PUBLIC "-//W3C//DTD SVG 1.1//EN" "http://www.w3.org/Graphics/SVG/1.1/DTD/svg11.dtd">
<svg width="512pt" height="512pt" viewBox="0 0 512 512" version="1.1" xmlns="http://www.w3.org/2000/svg">
<path fill="#3b5998" opacity="1.00" d=" M 0.00 0.00 L 512.00 0.00 L 512.00 512.00 L 0.00 512.00 L 0.00 0.00 Z" />
<path fill="#ffffff" opacity="1.00" d=" M 243.44 137.38 C 252.19 128.41 265.05 124.99 277.25 124.61 C 287.72 124.50 298.19 124.63 308.66 124.55 C 308.58 135.60 308.59 146.65 308.66 157.71 C 301.41 157.57 294.16 157.72 286.91 157.60 C 281.55 157.43 275.97 159.20 272.13 163.05 C 267.96 167.61 266.38 173.97 266.35 180.02 C 266.05 191.77 266.23 203.53 266.22 215.28 C 276.10 215.33 285.99 215.05 295.87 215.44 C 293.78 224.81 291.42 234.11 289.24 243.46 C 281.56 243.37 273.87 243.49 266.19 243.39 C 266.19 278.20 266.21 313.01 266.18 347.82 C 315.27 347.79 364.37 347.84 413.47 347.80 C 413.65 361.00 413.44 374.21 413.58 387.42 C 358.07 387.38 302.56 387.33 247.05 387.48 C 197.51 387.32 147.96 387.38 98.42 387.42 C 98.56 374.21 98.35 361.00 98.53 347.80 C 142.43 347.80 186.34 347.87 230.24 347.76 C 230.21 312.99 230.17 278.22 230.26 243.44 C 222.23 243.38 214.21 243.51 206.18 243.35 C 206.20 234.28 206.22 225.22 206.18 216.15 C 214.17 215.32 222.22 215.98 230.24 215.74 C 230.20 199.83 230.19 183.92 230.25 168.01 C 230.27 156.56 235.15 145.27 243.44 137.38 Z" />
</svg>
