<?xml version="1.0" encoding="UTF-8" ?>
<!DOCTYPE svg PUBLIC "-//W3C//DTD SVG 1.1//EN" "http://www.w3.org/Graphics/SVG/1.1/DTD/svg11.dtd">
<svg width="512pt" height="512pt" viewBox="0 0 512 512" version="1.1" xmlns="http://www.w3.org/2000/svg">
<path fill="#0182c4" opacity="1.00" d=" M 0.00 0.00 L 512.00 0.00 L 512.00 512.00 L 0.00 512.00 L 0.00 0.00 Z" />
<path fill="#ffffff" opacity="1.00" d=" M 265.91 122.49 C 283.06 118.39 300.99 118.71 318.36 121.20 C 318.28 134.99 318.29 148.78 318.35 162.58 C 309.95 161.75 301.16 160.85 293.12 164.11 C 286.19 166.56 281.51 173.62 281.27 180.87 C 281.13 185.45 281.00 190.14 282.30 194.58 C 294.74 194.45 307.18 194.57 319.63 194.52 C 319.48 206.85 319.59 219.18 319.57 231.51 C 307.44 231.57 295.31 231.38 283.18 231.60 C 282.45 243.72 282.32 255.86 282.20 268.00 C 281.46 282.99 281.97 298.01 281.81 313.01 C 282.46 339.10 282.45 365.23 282.19 391.33 C 281.99 391.55 281.60 391.99 281.40 392.22 C 262.73 392.29 244.05 392.17 225.38 392.27 C 225.31 338.70 225.35 285.12 225.36 231.54 C 214.79 231.46 204.21 231.52 193.64 231.52 C 193.64 219.18 193.69 206.85 193.62 194.52 C 203.69 194.56 213.77 194.45 223.85 194.58 C 222.55 179.01 222.61 162.42 230.28 148.33 C 237.34 134.72 251.34 126.07 265.91 122.49 Z" />
</svg>
