<?xml version="1.0" encoding="UTF-8" ?>
<!DOCTYPE svg PUBLIC "-//W3C//DTD SVG 1.1//EN" "http://www.w3.org/Graphics/SVG/1.1/DTD/svg11.dtd">
<svg width="512pt" height="512pt" viewBox="0 0 512 512" version="1.1" xmlns="http://www.w3.org/2000/svg">
<path fill="#5fb30f" opacity="1.00" d=" M 0.00 0.00 L 512.00 0.00 L 512.00 512.00 L 0.00 512.00 L 0.00 0.00 Z" />
<path fill="#ffffff" opacity="1.00" d=" M 246.82 131.78 C 254.05 124.68 264.13 121.67 273.91 120.22 C 279.65 119.02 285.55 119.60 291.23 120.80 C 301.80 122.17 312.84 125.76 320.02 134.04 C 322.81 138.46 324.72 144.06 323.21 149.27 C 321.67 153.81 317.14 156.24 312.85 157.57 C 309.29 158.86 304.48 160.44 304.23 164.95 C 303.08 170.03 308.34 173.83 312.93 173.74 C 337.61 173.69 362.29 173.65 386.97 173.60 C 390.01 173.29 392.48 175.97 392.18 178.96 C 392.28 201.63 392.24 224.31 392.34 246.99 C 392.70 253.36 391.01 260.01 386.89 264.99 C 380.26 272.34 366.51 271.17 361.49 262.52 C 359.03 258.74 358.53 253.94 355.70 250.40 C 352.13 249.89 348.53 251.61 346.43 254.48 C 340.17 262.18 338.90 272.43 337.84 281.96 C 337.74 292.01 339.80 302.77 346.28 310.75 C 348.32 313.62 351.90 314.52 355.23 314.80 C 358.19 310.55 358.80 305.12 361.95 300.99 C 367.55 293.56 380.01 292.76 386.33 299.68 C 390.94 304.92 392.31 312.21 391.87 319.00 C 392.27 341.68 392.53 364.37 392.61 387.06 C 392.84 389.63 390.53 391.92 387.98 391.80 C 363.33 392.04 338.66 391.56 314.02 392.18 C 309.13 392.36 304.19 390.68 300.42 387.59 C 294.10 382.47 293.61 372.39 297.92 365.87 C 301.82 360.20 309.16 359.49 314.68 356.15 C 314.64 352.81 313.68 349.20 310.89 347.11 C 303.66 341.02 293.99 339.46 284.91 338.38 C 276.37 337.69 267.57 339.17 259.84 342.88 C 255.91 344.97 251.42 347.64 250.47 352.37 C 250.22 353.71 249.84 355.81 251.46 356.46 C 256.08 358.89 261.58 359.80 265.45 363.54 C 269.88 367.96 270.81 375.04 269.00 380.86 C 266.29 388.57 257.57 391.91 250.01 392.20 C 226.64 392.33 203.28 392.40 179.91 392.60 C 178.09 392.76 176.47 391.86 174.85 391.21 C 174.27 389.53 173.67 387.83 173.78 386.03 C 173.79 363.01 173.66 339.99 173.64 316.97 C 173.65 313.10 172.69 308.94 169.88 306.13 C 167.25 304.01 163.01 304.35 160.50 306.48 C 156.96 310.49 156.93 316.43 153.43 320.48 C 147.73 327.39 136.75 324.33 131.26 318.71 C 123.98 310.97 120.95 300.29 119.79 289.96 C 118.91 282.92 120.25 275.87 121.52 268.96 C 123.37 260.11 127.18 251.05 134.48 245.35 C 139.61 242.48 146.66 240.49 151.90 244.16 C 156.59 247.49 156.92 253.74 159.72 258.34 C 161.75 262.19 167.82 262.99 170.74 259.75 C 172.40 257.92 173.53 255.50 173.43 253.00 C 173.32 228.64 173.29 204.28 173.23 179.92 C 172.98 177.40 174.38 174.24 177.29 174.29 C 202.16 173.34 227.08 174.04 251.96 173.68 C 255.22 173.08 258.96 171.77 260.61 168.67 C 261.22 165.83 261.32 162.15 258.76 160.21 C 254.53 157.05 248.67 156.94 244.80 153.20 C 241.73 150.43 240.70 145.95 241.69 142.01 C 242.60 138.29 243.81 134.35 246.82 131.78 Z" />
</svg>
