<?xml version="1.0" encoding="UTF-8" ?>
<!DOCTYPE svg PUBLIC "-//W3C//DTD SVG 1.1//EN" "http://www.w3.org/Graphics/SVG/1.1/DTD/svg11.dtd">
<svg width="512pt" height="512pt" viewBox="0 0 512 512" version="1.1" xmlns="http://www.w3.org/2000/svg">
<path fill="#0063db" opacity="1.00" d=" M 0.00 0.00 L 512.00 0.00 L 512.00 512.00 L 0.00 512.00 L 0.00 0.00 Z" />
<path fill="#ffffff" opacity="1.00" d=" M 95.24 205.25 C 105.04 198.83 117.72 199.19 128.79 201.52 C 128.42 207.31 127.83 213.09 127.27 218.86 C 122.73 217.76 116.97 216.48 113.27 220.24 C 109.61 224.16 110.49 229.85 110.22 234.75 C 116.24 235.09 122.28 234.76 128.30 234.88 C 128.33 240.83 128.28 246.78 128.34 252.73 C 122.38 252.74 116.41 252.77 110.45 252.70 C 110.32 271.88 110.70 291.08 110.26 310.25 C 102.07 310.22 93.88 310.21 85.69 310.26 C 85.57 291.08 85.88 271.89 85.54 252.72 C 80.69 252.75 75.85 252.74 71.01 252.74 C 71.08 246.78 70.96 240.82 71.11 234.86 C 75.76 234.80 80.42 234.95 85.07 234.99 C 85.32 234.79 85.82 234.41 86.07 234.21 C 85.99 224.09 86.29 211.90 95.24 205.25 Z" />
<path fill="#ffffff" opacity="1.00" d=" M 141.92 201.73 C 150.15 201.73 158.38 201.74 166.62 201.72 C 166.58 237.88 166.59 274.03 166.61 310.18 C 158.38 310.19 150.15 310.18 141.92 310.18 C 141.93 274.03 141.92 237.88 141.92 201.73 Z" />
<path fill="#ffffff" opacity="1.00" d=" M 302.42 310.23 C 302.41 274.05 302.44 237.87 302.41 201.69 C 310.67 201.72 318.94 201.69 327.20 201.71 C 327.23 223.49 327.10 245.27 327.26 267.05 C 333.95 258.00 339.75 248.32 346.06 238.99 C 347.22 237.62 347.76 235.19 349.81 234.95 C 358.48 235.05 367.17 235.08 375.85 234.84 C 367.47 246.38 359.05 257.89 350.62 269.39 C 359.63 283.07 368.88 296.59 377.94 310.23 C 367.97 310.20 357.99 310.22 348.01 310.23 C 341.00 297.68 334.60 284.79 327.37 272.38 C 326.96 284.98 327.30 297.60 327.20 310.21 C 318.94 310.23 310.68 310.20 302.42 310.23 Z" />
<path fill="#ffffff" opacity="1.00" d=" M 188.68 203.58 C 196.96 203.61 205.24 203.56 213.52 203.61 C 213.44 209.82 213.47 216.03 213.50 222.24 C 205.23 222.26 196.97 222.23 188.71 222.26 C 188.70 216.03 188.73 209.81 188.68 203.58 Z" />
<path fill="#ffffff" opacity="1.00" d=" M 239.77 244.73 C 248.72 235.96 261.79 232.61 274.05 233.29 C 279.88 233.55 285.71 234.75 290.94 237.42 C 290.20 243.58 289.57 249.76 289.19 255.95 C 282.63 252.04 274.45 250.98 267.12 253.07 C 256.28 256.83 251.67 270.75 256.05 280.87 C 258.66 287.39 265.11 291.96 272.01 292.87 C 278.46 293.69 285.03 292.42 290.96 289.84 C 291.15 296.09 291.16 302.34 291.56 308.58 C 280.81 312.00 269.10 313.14 258.08 310.30 C 246.50 307.70 235.99 299.57 231.74 288.31 C 226.27 273.88 228.45 255.80 239.77 244.73 Z" />
<path fill="#ffffff" opacity="1.00" d=" M 423.05 235.15 C 428.52 232.46 434.77 233.36 440.62 233.82 C 440.46 241.00 439.81 248.15 439.43 255.32 C 433.02 254.19 425.52 253.78 420.17 258.16 C 414.58 262.63 412.92 270.19 412.55 276.99 C 412.40 288.07 412.57 299.14 412.48 310.22 C 404.21 309.94 395.89 310.73 387.68 309.78 C 387.93 284.92 387.74 260.05 387.78 235.18 C 395.29 235.07 402.80 235.16 410.32 235.12 C 410.46 239.86 409.87 244.64 410.69 249.33 C 413.48 243.67 417.11 237.91 423.05 235.15 Z" />
<path fill="#ffffff" opacity="1.00" d=" M 188.72 235.15 C 196.97 235.15 205.23 235.15 213.49 235.15 C 213.44 260.16 213.46 285.17 213.49 310.18 C 205.24 310.18 196.99 310.17 188.75 310.19 C 188.71 285.18 188.78 260.16 188.72 235.15 Z" />
</svg>
