<?xml version="1.0" encoding="UTF-8" ?>
<!DOCTYPE svg PUBLIC "-//W3C//DTD SVG 1.1//EN" "http://www.w3.org/Graphics/SVG/1.1/DTD/svg11.dtd">
<svg width="512pt" height="512pt" viewBox="0 0 512 512" version="1.1" xmlns="http://www.w3.org/2000/svg">
<path fill="#ff0084" opacity="1.00" d=" M 0.00 0.00 L 512.00 0.00 L 512.00 512.00 L 0.00 512.00 L 0.00 0.00 Z" />
<path fill="#ffffff" opacity="1.00" d=" M 171.56 184.86 C 186.33 182.81 201.74 185.18 214.98 192.12 C 229.06 199.41 240.63 211.47 247.20 225.91 C 254.56 241.75 255.71 260.33 250.53 277.00 C 245.39 293.83 233.73 308.52 218.59 317.48 C 205.04 325.62 188.72 328.92 173.06 326.93 C 157.16 325.13 142.03 317.56 130.84 306.15 C 117.71 293.02 110.01 274.56 110.23 255.97 C 110.00 239.97 115.55 224.00 125.50 211.49 C 136.67 197.14 153.55 187.37 171.56 184.86 Z" />
<path fill="#ffffff" opacity="1.00" d=" M 320.42 184.64 C 334.16 183.09 348.39 185.19 360.82 191.37 C 375.67 198.61 387.90 211.11 394.66 226.21 C 401.30 240.72 402.80 257.48 398.97 272.95 C 395.37 288.04 386.54 301.77 374.48 311.49 C 361.81 321.88 345.43 327.65 329.04 327.47 C 310.74 327.60 292.59 320.18 279.46 307.46 C 267.99 296.47 260.31 281.56 258.18 265.81 C 255.53 247.51 260.35 228.27 271.35 213.40 C 282.88 197.65 301.00 186.91 320.42 184.64 Z" />
</svg>
