<?xml version="1.0" encoding="UTF-8" ?>
<!DOCTYPE svg PUBLIC "-//W3C//DTD SVG 1.1//EN" "http://www.w3.org/Graphics/SVG/1.1/DTD/svg11.dtd">
<svg width="512pt" height="512pt" viewBox="0 0 512 512" version="1.1" xmlns="http://www.w3.org/2000/svg">
<path fill="#0063db" opacity="1.00" d=" M 0.00 0.00 L 512.00 0.00 L 512.00 512.00 L 0.00 512.00 L 0.00 0.00 Z" />
<path fill="#ffffff" opacity="1.00" d=" M 171.49 184.87 C 186.51 182.77 202.21 185.24 215.60 192.45 C 230.69 200.42 242.76 213.95 248.89 229.89 C 254.73 244.85 255.28 261.81 250.49 277.13 C 245.38 293.71 233.97 308.21 219.12 317.16 C 205.46 325.52 188.93 328.95 173.06 326.93 C 157.18 325.14 142.08 317.58 130.89 306.20 C 117.74 293.07 110.01 274.59 110.23 255.98 C 110.00 239.97 115.55 223.98 125.52 211.46 C 136.68 197.15 153.51 187.39 171.49 184.87 Z" />
<path fill="#ffffff" opacity="1.00" d=" M 320.44 184.63 C 334.92 183.00 349.92 185.45 362.79 192.38 C 380.20 201.47 393.52 218.03 398.54 237.01 C 402.42 251.24 401.76 266.65 396.69 280.50 C 390.56 297.40 377.74 311.71 361.70 319.79 C 349.24 326.19 334.83 328.62 320.94 327.00 C 304.50 325.26 288.87 317.37 277.46 305.46 C 264.81 292.35 257.37 274.26 257.52 256.02 C 257.32 239.37 263.35 222.76 274.03 210.00 C 285.56 196.07 302.47 186.75 320.44 184.63 Z" />
</svg>
