<?xml version="1.0" encoding="UTF-8" ?>
<!DOCTYPE svg PUBLIC "-//W3C//DTD SVG 1.1//EN" "http://www.w3.org/Graphics/SVG/1.1/DTD/svg11.dtd">
<svg width="512pt" height="512pt" viewBox="0 0 512 512" version="1.1" xmlns="http://www.w3.org/2000/svg">
<path fill="#31723e" opacity="1.00" d=" M 0.00 0.00 L 512.00 0.00 L 512.00 512.00 L 0.00 512.00 L 0.00 0.00 Z" />
<path fill="#ffffff" opacity="1.00" d=" M 250.39 127.39 C 251.28 125.01 253.82 124.28 255.98 123.53 C 258.45 124.19 261.14 125.20 262.00 127.87 C 299.00 209.94 335.96 292.02 372.98 374.08 C 374.04 376.88 376.50 379.76 375.23 382.89 C 373.89 386.07 370.25 387.27 367.05 387.20 C 334.47 387.26 301.89 387.14 269.32 387.26 C 269.14 373.93 269.09 360.58 269.32 347.25 C 284.64 339.65 300.01 332.12 315.50 324.87 C 314.44 322.52 313.25 320.25 312.01 318.00 C 297.76 324.87 283.41 331.58 269.36 338.85 C 268.99 331.93 269.29 324.99 269.21 318.07 C 278.11 313.72 287.06 309.44 295.96 305.08 C 294.76 302.80 293.53 300.53 292.23 298.31 C 284.66 302.26 276.80 305.65 269.28 309.70 C 269.09 300.32 269.24 290.95 269.20 281.58 C 260.60 281.30 252.00 281.68 243.40 281.37 C 243.08 295.67 243.34 309.99 243.27 324.30 C 235.73 319.41 228.26 314.40 220.83 309.35 C 219.32 311.38 217.81 313.41 216.24 315.39 C 225.09 321.76 234.43 327.42 243.31 333.73 C 243.28 351.35 243.12 368.97 243.39 386.59 C 238.73 387.87 233.78 387.05 229.00 387.07 C 200.64 387.37 172.28 387.17 143.92 387.18 C 139.11 387.64 134.37 382.57 137.08 377.95 C 174.84 294.42 212.60 210.90 250.39 127.39 Z" />
</svg>
