<?xml version="1.0" encoding="UTF-8" ?>
<!DOCTYPE svg PUBLIC "-//W3C//DTD SVG 1.1//EN" "http://www.w3.org/Graphics/SVG/1.1/DTD/svg11.dtd">
<svg width="512pt" height="512pt" viewBox="0 0 512 512" version="1.1" xmlns="http://www.w3.org/2000/svg">
<path fill="#cb0038" opacity="1.00" d=" M 0.00 0.00 L 512.00 0.00 L 512.00 512.00 L 0.00 512.00 L 0.00 0.00 Z" />
<path fill="#ffffff" opacity="1.00" d=" M 127.55 153.69 C 141.60 153.72 155.65 153.64 169.70 153.73 C 156.27 216.46 143.35 279.30 130.01 342.06 C 129.29 344.98 129.43 348.23 127.70 350.81 C 127.37 285.11 127.66 219.40 127.55 153.69 Z" />
<path fill="#ffffff" opacity="1.00" d=" M 133.64 340.44 C 155.27 278.18 176.83 215.90 198.49 153.66 C 207.56 153.75 216.63 153.62 225.69 153.73 C 213.93 179.14 201.53 204.26 189.56 229.57 C 171.76 266.81 153.92 304.03 136.13 341.27 C 134.48 344.58 133.30 348.23 130.71 350.98 C 130.77 347.26 132.53 343.90 133.64 340.44 Z" />
<path fill="#ffffff" opacity="1.00" d=" M 223.37 208.49 C 234.97 190.25 246.57 172.01 258.04 153.69 C 299.94 153.72 341.84 153.62 383.74 153.74 C 383.63 221.92 383.69 290.11 383.71 358.30 C 298.79 358.28 213.86 358.37 128.95 358.25 C 140.10 339.53 152.33 321.43 163.63 302.79 C 164.28 297.06 163.39 291.24 164.21 285.50 C 167.73 285.55 171.25 285.56 174.77 285.51 C 185.88 267.66 197.22 249.97 208.43 232.19 C 209.75 229.88 211.78 227.80 212.11 225.07 C 212.28 219.54 212.11 213.99 212.13 208.46 C 215.87 208.46 219.62 208.46 223.37 208.49 Z" />
<path fill="#cb0038" opacity="1.00" d=" M 214.68 211.29 C 228.29 211.17 241.89 211.29 255.49 211.22 C 256.23 217.02 256.41 222.85 256.89 228.67 C 249.18 228.74 241.47 228.65 233.76 228.73 C 233.74 231.70 233.74 234.67 233.73 237.64 C 240.03 237.67 246.34 237.66 252.64 237.64 C 252.58 243.55 252.59 249.47 252.64 255.38 C 246.34 255.40 240.03 255.35 233.73 255.41 C 233.75 262.52 233.74 269.62 233.74 276.72 C 227.39 276.71 221.03 276.81 214.68 276.65 C 214.74 254.86 214.73 233.07 214.68 211.29 Z" />
<path fill="#cb0038" opacity="1.00" d=" M 283.50 211.81 C 299.79 208.36 317.40 218.90 322.08 234.87 C 327.77 251.46 316.88 270.77 300.34 275.73 C 284.26 281.56 264.86 272.45 258.67 256.60 C 252.99 243.57 257.53 227.37 268.66 218.71 C 272.95 215.25 278.10 212.92 283.50 211.81 Z" />
<path fill="#cb0038" opacity="1.00" d=" M 315.02 211.33 C 321.96 211.32 328.90 211.36 335.84 211.31 C 338.53 215.92 341.30 220.48 344.06 225.04 C 347.04 220.65 349.17 215.74 352.28 211.44 C 359.13 211.17 366.00 211.38 372.87 211.39 C 366.61 221.75 360.59 232.26 354.53 242.74 C 361.41 253.99 368.10 265.36 374.88 276.67 C 368.02 276.67 361.14 276.95 354.30 276.57 C 350.56 271.41 347.82 265.58 344.19 260.32 C 341.00 265.79 337.82 271.26 334.61 276.72 C 327.79 276.71 320.98 276.79 314.16 276.67 C 320.98 265.57 327.24 254.14 333.88 242.93 C 327.72 232.33 321.41 221.81 315.02 211.33 Z" />
<path fill="#ffffff" opacity="1.00" d=" M 287.23 224.22 C 291.02 222.06 296.35 225.62 295.81 229.95 C 295.78 239.32 295.87 248.69 295.77 258.06 C 296.06 263.02 289.17 265.55 285.81 262.22 C 284.23 260.99 283.61 258.97 283.75 257.04 C 283.85 248.00 283.76 238.97 283.80 229.94 C 283.64 227.55 285.10 225.24 287.23 224.22 Z" />
<path fill="#cb0038" opacity="1.00" d=" M 335.77 295.75 C 341.33 286.87 353.58 284.17 363.09 287.51 C 369.24 289.54 373.47 295.08 375.55 301.02 C 371.35 302.26 367.32 304.05 363.04 304.99 C 361.22 302.95 359.85 300.03 356.86 299.55 C 354.33 299.22 351.02 298.98 349.42 301.44 C 347.71 303.11 348.42 306.41 350.72 307.18 C 357.61 310.02 365.84 310.17 371.64 315.33 C 377.12 320.02 378.03 328.22 375.93 334.78 C 373.51 342.11 366.44 347.24 358.93 348.30 C 350.74 349.50 341.44 347.57 335.87 341.05 C 333.08 338.15 331.72 334.32 330.45 330.59 C 335.21 329.49 339.97 328.43 344.77 327.50 C 345.85 330.52 347.71 333.76 351.14 334.42 C 354.23 334.84 358.38 335.55 360.50 332.62 C 361.08 331.09 361.02 329.25 360.35 327.76 C 357.86 325.58 354.38 325.29 351.35 324.33 C 345.57 322.66 339.38 320.45 335.68 315.41 C 331.87 309.61 332.37 301.63 335.77 295.75 Z" />
<path fill="#cb0038" opacity="1.00" d=" M 293.45 287.76 C 297.49 287.94 301.55 288.27 305.59 287.80 C 308.66 299.08 310.20 310.72 313.24 322.01 C 316.75 311.22 318.09 299.82 320.98 288.85 C 321.19 288.62 321.59 288.14 321.79 287.90 C 325.51 287.98 329.23 288.30 332.94 287.78 C 332.49 292.36 331.06 296.76 330.17 301.26 C 326.36 316.88 322.93 332.59 319.07 348.20 C 314.58 348.18 310.09 348.17 305.60 348.20 C 303.56 337.76 301.38 327.33 299.11 316.94 C 298.85 316.41 298.35 315.35 298.09 314.82 C 295.64 325.90 293.65 337.09 291.23 348.19 C 286.70 348.18 282.17 348.17 277.64 348.20 C 272.63 328.29 268.44 308.17 263.42 288.25 C 268.49 288.03 273.56 288.11 278.63 288.15 C 281.03 299.54 283.34 310.95 285.76 322.34 C 287.25 320.26 287.32 317.61 287.85 315.20 C 289.70 306.05 291.25 296.84 293.45 287.76 Z" />
<path fill="#cb0038" opacity="1.00" d=" M 167.17 288.41 C 172.85 288.45 178.54 288.45 184.23 288.42 C 190.32 298.19 195.76 308.39 202.25 317.90 C 202.65 308.07 202.28 298.24 202.45 288.41 C 207.41 288.46 212.38 288.41 217.34 288.47 C 217.29 308.37 217.39 328.27 217.29 348.17 C 212.90 348.13 208.51 348.30 204.13 348.15 C 202.99 348.24 202.51 346.98 201.95 346.26 C 197.37 338.46 192.75 330.68 188.10 322.92 C 186.18 319.81 184.68 316.37 182.00 313.81 C 182.10 325.08 181.88 336.36 181.89 347.64 C 176.84 347.57 171.83 348.32 166.78 348.23 C 166.83 333.82 166.73 319.41 166.82 305.01 C 167.24 299.48 167.20 293.95 167.17 288.41 Z" />
<path fill="#cb0038" opacity="1.00" d=" M 221.57 287.81 C 229.35 288.42 237.15 287.47 244.95 287.96 C 249.36 288.38 253.77 287.76 258.19 287.85 C 259.49 287.45 260.39 288.87 260.14 289.99 C 260.20 293.90 260.09 297.80 260.16 301.71 C 252.27 301.82 244.38 301.76 236.50 301.75 C 236.44 304.77 236.44 307.79 236.44 310.81 C 243.04 311.03 249.68 310.38 256.25 311.24 C 256.13 315.39 256.15 319.55 256.17 323.71 C 249.59 323.84 243.01 323.75 236.44 323.77 C 236.43 327.28 236.44 330.80 236.51 334.32 C 244.55 334.33 252.60 334.29 260.64 334.33 C 260.64 338.96 260.69 343.59 260.54 348.22 C 247.55 348.14 234.56 348.20 221.57 348.19 C 221.50 328.07 221.49 307.94 221.57 287.81 Z" />
</svg>
