<?xml version="1.0" encoding="UTF-8" ?>
<!DOCTYPE svg PUBLIC "-//W3C//DTD SVG 1.1//EN" "http://www.w3.org/Graphics/SVG/1.1/DTD/svg11.dtd">
<svg width="512pt" height="512pt" viewBox="0 0 512 512" version="1.1" xmlns="http://www.w3.org/2000/svg">
<path fill="#004d8f" opacity="1.00" d=" M 0.00 0.00 L 512.00 0.00 L 512.00 512.00 L 0.00 512.00 L 0.00 0.00 Z" />
<path fill="#ffffff" opacity="1.00" d=" M 250.44 124.26 C 265.44 123.71 280.58 125.37 294.93 129.85 C 325.02 138.87 351.53 159.14 368.23 185.73 C 385.85 213.36 392.46 247.72 386.49 279.92 C 381.73 307.70 367.41 333.60 346.92 352.88 C 321.72 376.58 287.01 389.91 252.39 388.51 C 261.77 363.94 270.33 339.05 279.59 314.44 C 291.38 314.49 303.17 314.42 314.96 314.48 C 322.79 314.90 330.63 309.71 333.09 302.22 C 342.55 276.11 352.09 250.02 361.58 223.91 C 364.12 218.09 364.65 210.70 360.56 205.45 C 357.08 200.49 350.85 198.48 345.02 198.46 C 327.90 198.41 310.78 198.50 293.67 198.42 C 270.92 260.54 248.28 322.69 225.77 384.90 C 207.58 381.02 190.50 372.47 175.73 361.23 C 144.02 337.09 124.21 297.94 124.23 258.02 C 123.53 227.55 134.19 197.08 153.34 173.42 C 170.49 152.25 194.20 136.18 220.59 129.15 C 198.00 190.87 175.49 252.62 153.15 314.43 C 162.48 314.48 171.81 314.46 181.14 314.44 C 192.28 284.40 203.06 254.22 214.13 224.15 C 215.19 221.31 215.99 218.35 217.50 215.70 C 224.33 215.98 231.17 215.67 238.01 215.89 C 226.29 248.81 214.01 281.53 202.29 314.44 C 211.60 314.48 220.91 314.43 230.23 314.47 C 241.48 284.25 252.29 253.87 263.42 223.60 C 265.18 218.96 266.18 213.69 264.16 208.96 C 261.86 202.34 254.78 198.70 248.09 198.52 C 239.87 198.35 231.64 198.48 223.42 198.47 C 232.47 173.75 241.42 148.99 250.44 124.26 Z" />
<path fill="#ffffff" opacity="1.00" d=" M 285.98 296.77 C 295.95 269.79 305.48 242.64 315.68 215.76 C 322.50 215.89 329.33 215.79 336.15 215.82 C 331.35 230.81 325.45 245.45 320.22 260.31 C 315.80 272.47 311.37 284.63 306.91 296.78 C 299.93 296.80 292.96 296.81 285.98 296.77 Z" />
</svg>
