<?xml version="1.0" encoding="UTF-8" ?>
<!DOCTYPE svg PUBLIC "-//W3C//DTD SVG 1.1//EN" "http://www.w3.org/Graphics/SVG/1.1/DTD/svg11.dtd">
<svg width="512pt" height="512pt" viewBox="0 0 512 512" version="1.1" xmlns="http://www.w3.org/2000/svg">
<path fill="#004878" opacity="1.00" d=" M 0.00 0.00 L 512.00 0.00 L 512.00 512.00 L 0.00 512.00 L 0.00 0.00 Z" />
<path fill="#fffffe" opacity="1.00" d=" M 93.11 228.93 C 100.61 228.70 108.12 228.89 115.62 228.81 C 110.06 246.02 104.88 263.36 99.37 280.59 C 91.88 280.54 84.40 280.58 76.92 280.58 C 82.44 263.40 87.68 246.13 93.11 228.93 Z" />
<path fill="#fffffe" opacity="1.00" d=" M 123.21 249.85 C 131.83 245.70 141.62 244.95 151.05 245.16 C 157.22 245.55 164.05 245.93 169.03 250.05 C 172.25 252.65 172.62 257.13 171.86 260.92 C 161.20 263.37 150.51 265.64 139.84 267.98 C 136.36 268.95 132.63 269.13 129.36 270.75 C 130.17 274.20 133.88 275.40 137.00 275.75 C 146.22 276.44 155.09 273.03 163.52 269.72 C 161.90 272.62 160.60 275.68 159.19 278.69 C 149.36 281.22 139.12 282.19 128.98 281.83 C 123.20 281.29 116.94 280.57 112.33 276.69 C 109.27 274.10 108.60 269.64 109.61 265.92 C 110.89 258.59 116.63 252.85 123.21 249.85 Z" />
<path fill="#fffffe" opacity="1.00" d=" M 181.61 247.71 C 192.98 245.93 204.49 244.86 216.00 245.21 C 222.10 245.59 228.35 245.74 234.15 247.87 C 236.43 248.85 238.91 250.38 239.35 253.05 C 236.73 262.35 233.23 271.39 230.49 280.66 C 222.89 280.66 215.28 280.64 207.67 280.68 C 210.46 272.47 213.32 264.27 215.80 255.97 C 216.69 253.41 214.04 251.69 211.93 251.18 C 208.92 250.60 205.86 250.99 202.83 251.13 C 199.55 260.94 196.14 270.71 193.08 280.60 C 185.44 280.71 177.80 280.64 170.17 280.65 C 173.55 271.39 176.50 261.99 179.61 252.65 C 180.24 251.00 180.45 249.10 181.61 247.71 Z" />
<path fill="#fffffe" opacity="1.00" d=" M 273.32 245.34 C 281.68 244.84 290.34 244.91 298.31 247.78 C 302.58 249.39 306.98 252.95 306.68 257.98 C 306.79 267.41 298.98 274.90 290.60 277.89 C 278.09 282.47 264.17 283.10 251.21 280.14 C 246.23 278.78 240.55 275.77 239.84 270.09 C 239.38 263.52 243.08 257.17 248.26 253.32 C 255.50 248.05 264.51 245.93 273.32 245.34 Z" />
<path fill="#fffffe" opacity="1.00" d=" M 400.29 245.33 C 408.85 244.89 417.80 244.85 425.87 248.10 C 430.28 249.80 434.17 253.94 433.55 258.98 C 432.97 268.46 424.89 275.44 416.39 278.28 C 404.43 282.35 391.26 283.06 378.93 280.30 C 373.89 279.15 368.22 276.47 366.78 271.05 C 365.70 265.35 368.68 259.60 372.54 255.57 C 379.89 248.47 390.39 246.05 400.29 245.33 Z" />
<path fill="#fffffe" opacity="1.00" d=" M 309.46 246.23 C 316.40 246.27 323.35 246.18 330.30 246.30 C 331.07 254.54 331.89 262.84 333.57 270.95 C 339.97 262.81 346.00 254.39 352.39 246.24 C 359.65 246.23 366.91 246.27 374.17 246.22 C 365.44 257.55 357.10 269.20 348.27 280.43 C 336.75 280.73 325.20 280.57 313.67 280.50 C 313.68 276.43 313.04 272.42 312.34 268.44 C 311.39 261.03 310.48 253.62 309.46 246.23 Z" />
<path fill="#004878" opacity="1.00" d=" M 134.77 254.76 C 137.86 250.03 144.25 249.36 149.30 250.63 C 152.17 251.60 153.57 254.56 153.70 257.42 C 147.82 260.85 141.36 263.12 135.33 266.26 C 133.82 267.12 132.18 267.67 130.44 267.84 C 131.85 263.48 132.53 258.80 134.77 254.76 Z" />
<path fill="#004878" opacity="1.00" d=" M 272.46 251.60 C 275.74 250.67 280.17 250.42 282.46 253.47 C 284.36 256.54 283.23 260.38 282.45 263.64 C 281.02 268.39 278.71 273.84 273.61 275.56 C 270.51 276.12 266.54 276.48 264.35 273.71 C 262.26 271.11 263.18 267.49 263.78 264.52 C 265.30 259.58 267.18 253.64 272.46 251.60 Z" />
<path fill="#004878" opacity="1.00" d=" M 399.41 251.51 C 402.53 250.81 406.58 250.39 408.95 253.04 C 411.31 255.79 410.28 259.70 409.51 262.86 C 408.16 267.40 406.35 272.51 401.93 274.91 C 397.31 277.55 389.22 275.63 389.71 269.21 C 390.91 262.68 392.70 254.49 399.41 251.51 Z" />
</svg>
