<?xml version="1.0" encoding="UTF-8" ?>
<!DOCTYPE svg PUBLIC "-//W3C//DTD SVG 1.1//EN" "http://www.w3.org/Graphics/SVG/1.1/DTD/svg11.dtd">
<svg width="512pt" height="512pt" viewBox="0 0 512 512" version="1.1" xmlns="http://www.w3.org/2000/svg">
<path fill="#006699" opacity="1.00" d=" M 0.00 0.00 L 512.00 0.00 L 512.00 512.00 L 0.00 512.00 L 0.00 0.00 Z" />
<path fill="#ffffff" opacity="1.00" d=" M 153.12 130.21 C 221.06 129.82 289.02 130.15 356.97 130.05 C 369.70 129.92 380.97 141.33 381.12 153.98 C 381.16 221.66 381.10 289.35 381.14 357.03 C 381.34 367.15 374.58 376.92 365.11 380.41 C 359.69 382.63 353.73 381.81 348.03 381.95 C 286.01 381.96 223.98 381.95 161.95 381.96 C 157.31 381.92 152.50 382.34 148.09 380.59 C 138.73 377.31 131.71 367.99 131.61 358.01 C 131.65 292.00 131.62 225.98 131.63 159.97 C 131.69 156.28 131.27 152.50 132.27 148.89 C 134.59 139.22 143.20 131.36 153.12 130.21 Z" />
<path fill="#006699" opacity="1.00" d=" M 191.39 181.63 C 198.40 179.81 206.56 180.96 212.02 185.99 C 217.42 191.05 218.50 199.70 215.08 206.16 C 208.70 218.15 189.47 219.20 181.36 208.53 C 177.28 203.11 176.75 195.24 180.32 189.42 C 182.59 185.30 187.01 182.91 191.39 181.63 Z" />
<path fill="#006699" opacity="1.00" d=" M 271.78 237.77 C 277.06 232.21 284.43 228.92 291.98 227.99 C 302.84 226.50 314.53 228.87 323.26 235.71 C 331.53 242.30 335.96 252.66 337.33 262.95 C 338.52 273.95 337.56 285.04 338.14 296.08 C 337.57 303.70 337.97 311.34 338.00 318.96 C 337.39 323.12 338.76 327.35 337.66 331.45 C 326.23 331.23 314.80 331.38 303.38 331.37 C 303.34 312.58 303.38 293.80 303.36 275.02 C 303.14 268.50 301.45 261.13 295.90 257.07 C 291.75 253.94 286.27 253.80 281.33 254.43 C 275.17 255.63 269.87 260.23 267.50 266.01 C 265.82 270.12 266.22 274.63 266.18 278.97 C 266.19 296.43 266.21 313.89 266.17 331.34 C 254.65 331.36 243.12 331.32 231.60 331.36 C 231.51 297.52 231.97 263.68 231.59 229.84 C 243.12 229.85 254.64 229.83 266.17 229.85 C 266.22 234.45 266.17 239.04 266.16 243.63 C 268.53 242.20 269.80 239.62 271.78 237.77 Z" />
<path fill="#006699" opacity="1.00" d=" M 180.28 229.85 C 191.77 229.83 203.26 229.85 214.76 229.84 C 214.75 263.69 214.77 297.54 214.75 331.38 C 203.24 331.30 191.73 331.35 180.23 331.35 C 180.24 297.52 180.14 263.68 180.28 229.85 Z" />
</svg>
