<?xml version="1.0" encoding="UTF-8" ?>
<!DOCTYPE svg PUBLIC "-//W3C//DTD SVG 1.1//EN" "http://www.w3.org/Graphics/SVG/1.1/DTD/svg11.dtd">
<svg width="512pt" height="512pt" viewBox="0 0 512 512" version="1.1" xmlns="http://www.w3.org/2000/svg">
<path fill="#00709f" opacity="1.00" d=" M 0.00 0.00 L 512.00 0.00 L 512.00 512.00 L 0.00 512.00 L 0.00 0.00 Z" />
<path fill="#ffffff" opacity="1.00" d=" M 299.46 155.69 C 312.15 152.07 326.46 154.96 336.76 163.19 C 346.99 171.17 352.69 184.51 351.23 197.43 C 359.31 199.79 367.03 204.11 372.27 210.82 C 380.76 221.29 383.85 236.38 378.91 249.08 C 375.88 255.95 372.07 262.64 366.94 268.16 C 360.68 259.93 352.90 252.65 343.36 248.42 C 338.62 246.02 333.37 245.09 328.31 243.67 C 326.50 231.35 321.38 219.37 312.67 210.34 C 299.83 196.36 279.66 189.58 261.00 193.05 C 248.30 195.29 236.69 202.12 227.95 211.52 C 226.08 201.87 228.07 191.28 234.86 183.92 C 244.50 172.52 261.27 169.06 275.13 173.84 C 280.48 164.92 289.42 158.34 299.46 155.69 Z" />
<path fill="#ffffff" opacity="1.00" d=" M 255.26 206.26 C 268.98 202.02 284.56 204.38 296.43 212.46 C 310.02 221.49 318.22 237.82 317.41 254.12 C 330.02 254.83 343.15 258.53 352.15 267.85 C 361.09 276.51 365.10 288.89 366.37 301.00 C 377.33 299.16 389.06 295.19 395.67 285.67 C 398.15 282.47 398.83 278.44 399.81 274.63 C 401.47 273.36 401.35 275.86 401.29 276.91 C 400.29 285.07 396.21 292.72 390.44 298.53 C 384.05 305.03 375.35 308.68 366.51 310.40 C 366.30 316.97 365.34 323.61 362.63 329.65 C 362.12 330.72 361.64 332.34 360.07 331.84 C 355.62 331.46 351.31 330.19 346.99 329.16 C 334.20 326.04 322.76 319.22 311.78 312.19 C 282.49 292.77 254.43 271.42 223.78 254.11 C 207.94 245.27 191.36 236.75 173.21 234.09 C 187.18 220.46 210.45 219.28 226.44 230.02 C 232.46 218.72 242.97 209.93 255.26 206.26 Z" />
<path fill="#ffffff" opacity="1.00" d=" M 127.07 246.19 C 136.70 241.64 147.71 241.76 158.07 242.89 C 175.92 245.78 192.53 253.41 208.55 261.50 C 244.61 280.08 277.30 304.34 312.42 324.54 C 328.50 333.75 346.29 340.74 364.97 341.63 C 373.36 341.98 381.92 341.04 389.74 337.87 C 393.21 336.48 396.18 334.17 399.44 332.38 C 397.92 336.22 394.33 338.65 391.31 341.25 C 379.40 350.45 363.35 351.27 349.00 349.19 C 343.45 353.09 337.08 355.83 330.39 357.00 C 323.65 358.22 316.78 358.11 309.95 358.09 C 267.96 358.08 225.96 358.09 183.96 358.08 C 176.61 358.03 169.22 358.39 161.93 357.32 C 144.88 354.83 129.06 344.00 121.49 328.39 C 115.84 317.50 115.71 303.66 122.30 293.14 C 115.57 284.47 111.62 272.96 114.03 262.01 C 115.50 255.01 120.62 249.15 127.07 246.19 Z" />
<path fill="#00709f" opacity="1.00" d=" M 121.75 271.85 C 122.62 264.24 128.50 257.27 136.06 255.60 C 144.98 253.53 154.22 255.38 162.96 257.47 C 160.96 264.53 160.67 272.08 162.48 279.23 C 150.29 274.80 136.13 278.21 126.92 287.21 C 123.65 282.82 121.11 277.46 121.75 271.85 Z" />
</svg>
