<?xml version="1.0" encoding="UTF-8" ?>
<!DOCTYPE svg PUBLIC "-//W3C//DTD SVG 1.1//EN" "http://www.w3.org/Graphics/SVG/1.1/DTD/svg11.dtd">
<svg width="512pt" height="512pt" viewBox="0 0 512 512" version="1.1" xmlns="http://www.w3.org/2000/svg">
<path fill="#3b9379" opacity="1.00" d=" M 0.00 0.00 L 512.00 0.00 L 512.00 512.00 L 0.00 512.00 L 0.00 0.00 Z" />
<path fill="#ffffff" opacity="1.00" d=" M 233.23 170.33 C 237.44 169.92 242.39 169.13 245.98 171.92 C 248.09 173.64 246.59 176.57 245.39 178.37 C 238.79 188.30 232.17 198.62 229.53 210.40 C 228.05 218.46 227.66 227.16 231.29 234.73 C 235.04 242.52 240.53 250.02 240.71 259.00 C 241.05 267.27 233.59 275.23 225.14 274.43 C 213.94 273.44 204.71 265.60 198.11 257.01 C 190.75 247.72 186.08 236.04 186.60 224.07 C 187.12 207.80 195.96 192.70 208.08 182.22 C 215.13 175.99 223.99 171.95 233.23 170.33 Z" />
<path fill="#ffffff" opacity="1.00" d=" M 294.36 171.52 C 297.94 170.38 303.13 171.64 303.57 176.03 C 302.69 179.76 299.63 182.39 296.85 184.78 C 291.67 188.90 285.88 192.42 279.55 194.41 C 277.80 194.77 274.94 195.47 274.42 193.06 C 274.90 189.38 277.56 186.52 279.73 183.69 C 283.85 178.90 288.30 173.79 294.36 171.52 Z" />
<path fill="#ffffff" opacity="1.00" d=" M 252.47 205.62 C 258.89 203.94 265.60 204.95 272.01 206.13 C 276.91 207.02 281.20 209.92 284.59 213.48 C 287.43 216.56 287.10 221.25 285.72 224.92 C 283.90 229.88 279.60 233.25 275.88 236.77 C 271.13 241.18 265.57 245.25 259.01 246.24 C 255.92 246.38 252.67 245.71 250.10 243.93 C 247.85 242.01 247.16 238.95 245.38 236.67 C 242.18 234.23 237.97 232.69 236.12 228.84 C 234.25 224.68 232.92 219.05 236.50 215.40 C 240.81 210.82 246.37 207.25 252.47 205.62 Z" />
<path fill="#3b9379" opacity="1.00" d=" M 248.46 217.45 C 250.40 213.77 254.95 213.06 258.70 212.93 C 256.31 215.11 253.29 216.67 251.47 219.41 C 250.24 221.65 249.69 224.18 248.58 226.48 C 247.79 223.56 246.84 220.28 248.46 217.45 Z" />
<path fill="#3b9379" opacity="1.00" d=" M 263.31 215.45 C 267.94 213.08 273.57 217.27 274.28 221.99 C 273.98 227.52 268.00 230.76 262.92 229.94 C 259.72 229.75 254.83 228.13 255.81 224.00 C 257.07 220.37 259.75 217.03 263.31 215.45 Z" />
<path fill="#ffffff" opacity="1.00" d=" M 291.57 221.09 C 296.33 218.63 301.85 219.08 307.04 219.01 C 311.68 219.34 316.63 219.13 320.91 221.22 C 323.01 224.81 317.40 226.58 314.84 227.60 C 307.75 229.91 299.71 228.50 293.57 224.35 C 292.41 223.64 292.15 222.21 291.57 221.09 Z" />
<path fill="#3b9379" opacity="1.00" d=" M 254.39 236.35 C 258.67 238.08 263.25 237.96 267.77 237.69 C 265.68 240.18 262.58 242.80 259.08 241.78 C 256.53 241.11 255.11 238.71 254.39 236.35 Z" />
<path fill="#ffffff" opacity="1.00" d=" M 283.20 251.34 C 289.55 251.23 295.18 255.26 299.92 259.12 C 303.70 262.72 308.02 267.34 307.42 272.98 C 305.84 275.11 303.26 273.26 301.40 272.57 C 294.58 268.71 288.62 263.26 284.14 256.84 C 283.26 255.23 281.54 253.01 283.20 251.34 Z" />
<path fill="#ffffff" opacity="1.00" d=" M 238.80 292.94 C 237.91 289.47 242.90 287.51 245.02 289.97 C 246.67 291.80 245.50 294.40 244.14 296.03 C 242.11 295.66 238.65 295.93 238.80 292.94 Z" />
<path fill="#ffffff" opacity="1.00" d=" M 323.03 288.98 C 324.92 289.00 326.81 289.04 328.71 289.11 C 328.76 293.48 328.76 297.85 328.73 302.22 C 333.06 300.43 338.20 299.25 342.59 301.51 C 345.87 303.00 347.64 306.60 347.69 310.09 C 347.83 316.94 347.76 323.81 347.68 330.67 C 345.76 330.73 343.84 330.75 341.93 330.78 C 341.37 323.33 342.19 315.83 341.51 308.40 C 339.61 303.33 332.33 303.96 328.72 306.80 C 328.75 314.76 328.81 322.72 328.68 330.68 C 326.79 330.72 324.91 330.73 323.03 330.75 C 322.98 316.83 322.98 302.90 323.03 288.98 Z" />
<path fill="#ffffff" opacity="1.00" d=" M 156.01 290.74 C 157.98 290.75 159.97 290.76 161.95 290.78 C 162.07 302.52 161.97 314.26 162.00 326.00 C 166.97 326.00 171.94 325.96 176.91 326.06 C 176.94 327.53 176.98 328.99 177.03 330.46 C 170.02 330.54 163.01 330.48 156.01 330.50 C 156.00 317.25 156.00 303.99 156.01 290.74 Z" />
<path fill="#ffffff" opacity="1.00" d=" M 253.28 292.74 C 255.17 292.76 257.06 292.78 258.95 292.83 C 258.98 295.39 259.01 297.95 259.04 300.51 C 262.18 300.49 265.33 300.48 268.48 300.60 C 268.42 302.07 268.37 303.54 268.31 305.01 C 265.20 305.00 262.10 304.99 259.00 305.00 C 259.15 311.33 258.69 317.68 259.21 323.99 C 260.32 328.29 265.64 326.07 268.56 325.42 C 268.48 326.91 268.38 328.41 268.27 329.91 C 264.82 330.75 261.10 331.69 257.61 330.50 C 254.95 329.60 253.12 326.86 253.26 324.07 C 253.18 317.73 253.29 311.39 253.25 305.05 C 251.86 304.99 250.47 304.94 249.08 304.90 C 249.04 303.49 249.00 302.09 248.96 300.69 C 250.38 300.58 251.82 300.50 253.25 300.41 C 253.24 297.85 253.26 295.30 253.28 292.74 Z" />
<path fill="#ffffff" opacity="1.00" d=" M 186.51 300.61 C 192.30 299.38 199.23 301.18 202.26 306.63 C 205.33 312.31 205.27 319.66 202.30 325.38 C 197.17 334.63 181.16 333.87 177.05 324.04 C 173.24 315.58 176.04 302.31 186.51 300.61 Z" />
<path fill="#ffffff" opacity="1.00" d=" M 209.22 306.29 C 213.21 300.29 221.76 298.76 228.05 301.82 C 229.77 300.61 231.89 300.76 233.90 300.71 C 234.09 310.81 234.00 320.92 233.97 331.02 C 234.27 335.71 231.58 340.54 226.97 342.02 C 220.82 343.93 214.06 343.16 208.10 340.92 C 208.05 339.19 208.02 337.47 208.01 335.76 C 213.46 337.98 219.83 340.24 225.49 337.37 C 228.62 335.83 227.89 331.87 228.09 329.02 C 222.59 331.68 215.38 331.54 210.78 327.18 C 205.37 321.81 205.13 312.49 209.22 306.29 Z" />
<path fill="#ffffff" opacity="1.00" d=" M 271.79 304.89 C 276.72 298.33 288.17 298.30 292.82 305.19 C 295.11 308.36 295.24 312.43 295.29 316.20 C 288.23 316.38 281.16 316.06 274.10 316.41 C 274.67 320.21 276.21 324.41 280.11 325.91 C 284.64 327.91 289.19 325.30 293.37 323.69 C 293.19 325.31 294.02 327.28 292.98 328.71 C 289.03 330.87 284.32 331.41 279.90 330.82 C 274.41 330.03 269.81 325.39 269.00 319.91 C 268.27 314.82 268.60 309.14 271.79 304.89 Z" />
<path fill="#ffffff" opacity="1.00" d=" M 299.55 305.41 C 304.72 299.41 313.87 299.20 320.76 302.09 C 320.75 303.79 320.73 305.49 320.70 307.20 C 316.71 305.65 312.32 303.57 308.05 305.42 C 303.42 307.06 302.00 312.58 302.42 317.00 C 302.53 321.32 305.28 325.96 309.83 326.65 C 313.56 327.51 317.13 325.85 320.43 324.33 C 320.61 326.06 320.71 327.80 320.76 329.54 C 314.23 331.82 305.98 332.56 300.48 327.56 C 294.97 321.75 294.84 311.73 299.55 305.41 Z" />
<path fill="#ffffff" opacity="1.00" d=" M 239.51 300.81 C 241.40 300.78 243.30 300.77 245.20 300.78 C 245.23 310.79 245.41 320.81 245.10 330.81 C 243.36 330.53 241.03 331.27 239.64 330.29 C 239.29 320.47 239.60 310.63 239.51 300.81 Z" />
<path fill="#3b9379" opacity="1.00" d=" M 186.35 305.36 C 190.11 303.79 195.37 304.82 197.10 308.87 C 198.76 312.96 198.67 317.68 197.58 321.92 C 196.65 325.61 192.76 328.02 189.03 327.38 C 184.76 327.20 181.82 323.07 181.80 319.03 C 181.52 314.28 181.32 307.78 186.35 305.36 Z" />
<path fill="#3b9379" opacity="1.00" d=" M 218.33 305.36 C 221.35 304.33 225.88 304.24 227.85 307.01 C 228.04 312.90 228.30 318.89 227.69 324.77 C 223.37 327.60 216.57 326.80 214.07 321.93 C 211.18 316.58 212.05 307.85 218.33 305.36 Z" />
<path fill="#3b9379" opacity="1.00" d=" M 274.23 311.96 C 274.66 307.63 278.38 303.71 282.97 304.50 C 287.00 304.64 289.28 308.34 289.73 311.98 C 284.56 312.01 279.40 312.02 274.23 311.96 Z" />
<path fill="#ffffff" opacity="1.00" d=" M 351.07 325.14 C 352.49 325.26 353.94 325.34 355.36 325.59 C 355.68 327.03 355.71 328.51 355.84 329.99 C 354.55 330.33 353.25 330.64 351.98 330.99 C 350.24 329.41 350.00 327.18 351.07 325.14 Z" />
<path fill="#3b9379" opacity="1.00" d=" M 351.33 326.94 C 354.61 327.47 349.48 329.82 351.33 326.94 Z" />
<path fill="#3b9379" opacity="1.00" d=" M 354.13 326.42 C 355.55 326.63 354.97 330.22 353.54 329.85 C 353.12 328.59 353.32 327.44 354.13 326.42 Z" />
</svg>
