<?xml version="1.0" encoding="UTF-8" ?>
<!DOCTYPE svg PUBLIC "-//W3C//DTD SVG 1.1//EN" "http://www.w3.org/Graphics/SVG/1.1/DTD/svg11.dtd">
<svg width="512pt" height="512pt" viewBox="0 0 512 512" version="1.1" xmlns="http://www.w3.org/2000/svg">
<path fill="#f40e43" opacity="1.00" d=" M 0.00 0.00 L 512.00 0.00 L 512.00 512.00 L 0.00 512.00 L 0.00 0.00 Z" />
<path fill="#ffffff" opacity="1.00" d=" M 242.55 111.85 C 258.38 109.30 274.79 111.50 289.75 117.11 C 315.30 126.71 336.13 148.02 345.12 173.79 C 350.01 188.23 352.40 203.92 349.52 219.03 C 346.26 241.98 334.08 263.52 316.12 278.17 C 299.39 292.01 277.73 299.89 255.99 299.61 C 235.95 299.81 215.97 293.04 199.91 281.10 C 182.47 268.22 169.74 249.17 164.53 228.12 C 162.03 217.00 160.26 205.40 162.43 194.07 C 164.88 172.97 174.80 152.86 189.98 138.02 C 204.14 123.99 222.85 114.78 242.55 111.85 Z" />
<path fill="#f40e43" opacity="1.00" d=" M 244.61 153.89 C 256.82 151.02 270.01 152.92 281.03 158.86 C 293.69 165.64 303.48 177.77 307.06 191.72 C 311.13 206.69 308.14 223.41 299.01 235.97 C 291.23 246.93 279.09 254.75 265.85 257.10 C 250.39 260.21 233.67 255.58 221.80 245.26 C 212.26 237.15 205.86 225.50 204.02 213.12 C 202.34 202.04 204.33 190.40 209.66 180.53 C 216.69 167.13 229.83 157.13 244.61 153.89 Z" />
<path fill="#ffffff" opacity="1.00" d=" M 215.49 307.70 C 231.25 304.58 247.99 316.04 250.68 331.89 C 254.25 347.35 243.37 364.16 227.91 367.49 C 214.78 370.98 200.02 364.20 193.78 352.22 C 188.83 343.07 189.02 331.31 194.37 322.38 C 198.82 314.71 206.75 309.20 215.49 307.70 Z" />
<path fill="#ffffff" opacity="1.00" d=" M 183.57 370.82 C 191.89 368.19 201.51 373.53 203.61 381.98 C 206.12 389.95 200.90 399.05 193.01 401.45 C 183.60 405.08 172.37 396.93 172.26 387.00 C 171.59 379.79 176.83 372.95 183.57 370.82 Z" />
</svg>
