<?xml version="1.0" encoding="UTF-8" ?>
<!DOCTYPE svg PUBLIC "-//W3C//DTD SVG 1.1//EN" "http://www.w3.org/Graphics/SVG/1.1/DTD/svg11.dtd">
<svg width="512pt" height="512pt" viewBox="0 0 512 512" version="1.1" xmlns="http://www.w3.org/2000/svg">
<path fill="#01a4ef" opacity="1.00" d=" M 0.00 0.00 L 512.00 0.00 L 512.00 512.00 L 0.00 512.00 L 0.00 0.00 Z" />
<path fill="#ffffff" opacity="1.00" d=" M 53.27 211.29 C 67.01 211.29 80.75 211.30 94.49 211.28 C 94.43 225.23 94.52 239.19 94.44 253.14 C 80.73 252.65 67.02 253.09 53.31 253.07 C 53.25 239.14 53.34 225.22 53.27 211.29 Z" />
<path fill="#ffffff" opacity="1.00" d=" M 99.24 211.34 C 112.95 211.32 126.66 211.33 140.37 211.33 C 140.33 225.18 140.36 239.03 140.35 252.89 C 126.65 252.86 112.95 252.89 99.26 252.87 C 99.26 239.02 99.29 225.18 99.24 211.34 Z" />
<path fill="#ffffff" opacity="1.00" d=" M 232.63 225.82 C 235.63 225.21 239.20 227.68 238.75 230.96 C 238.96 235.36 232.54 237.28 229.82 234.15 C 226.91 231.52 228.80 226.27 232.63 225.82 Z" />
<path fill="#ffffff" opacity="1.00" d=" M 419.42 229.43 C 423.17 224.71 430.03 223.67 435.56 225.38 C 435.48 227.72 435.46 230.06 435.47 232.41 C 432.75 231.45 429.31 230.83 427.07 233.12 C 424.68 235.94 425.59 239.88 425.45 243.26 C 430.07 243.25 434.70 243.25 439.34 243.25 C 439.36 240.38 439.36 237.52 439.34 234.65 C 442.13 233.80 444.94 232.97 447.76 232.18 C 447.77 235.87 447.76 239.55 447.77 243.24 C 450.74 243.25 453.72 243.25 456.70 243.26 C 456.69 245.42 456.69 247.58 456.70 249.75 C 453.73 249.75 450.75 249.74 447.78 249.76 C 447.81 255.87 447.68 261.99 447.80 268.10 C 447.89 270.37 448.39 273.39 451.04 273.96 C 452.95 274.81 454.88 273.65 456.71 273.15 C 456.54 275.43 457.10 277.91 456.29 280.08 C 452.56 281.21 448.45 281.38 444.74 280.15 C 441.39 278.91 439.42 275.38 439.41 271.91 C 439.25 264.52 439.44 257.13 439.33 249.75 C 434.73 249.74 430.13 249.74 425.54 249.75 C 425.44 259.90 425.55 270.04 425.48 280.19 C 422.67 280.18 419.86 280.19 417.06 280.23 C 416.56 270.08 417.00 259.91 416.82 249.75 C 414.75 249.74 412.69 249.75 410.63 249.75 C 410.63 247.58 410.63 245.42 410.63 243.26 C 412.69 243.25 414.75 243.25 416.81 243.25 C 416.94 238.61 416.24 233.29 419.42 229.43 Z" />
<path fill="#ffffff" opacity="1.00" d=" M 164.58 228.43 C 168.74 228.43 172.90 228.41 177.07 228.48 C 182.17 241.81 187.62 255.01 192.74 268.34 C 197.33 254.77 203.28 241.70 208.57 228.40 C 212.53 228.44 216.49 228.44 220.45 228.42 C 220.41 245.69 220.45 262.95 220.43 280.22 C 217.49 280.21 214.55 280.21 211.61 280.22 C 211.64 266.21 211.48 252.20 211.78 238.20 C 207.05 252.47 200.81 266.21 195.36 280.22 C 193.39 280.22 191.42 280.23 189.46 280.26 C 185.47 271.43 182.13 262.32 178.40 253.39 C 176.52 248.16 173.66 243.23 172.81 237.69 C 172.58 251.86 172.83 266.04 172.71 280.22 C 170.00 280.21 167.30 280.21 164.60 280.22 C 164.58 262.95 164.62 245.69 164.58 228.43 Z" />
<path fill="#ffffff" opacity="1.00" d=" M 257.55 242.84 C 262.53 241.86 267.75 242.12 272.56 243.77 C 272.58 246.57 272.58 249.38 272.58 252.18 C 268.64 249.21 263.08 248.12 258.60 250.49 C 250.46 254.71 249.88 268.41 258.08 272.84 C 262.74 275.38 268.35 273.99 272.45 271.00 C 272.47 273.49 272.49 275.98 272.56 278.47 C 267.89 281.12 262.32 281.35 257.13 280.56 C 250.46 279.34 245.00 273.69 243.79 267.05 C 242.96 261.95 243.29 256.45 245.79 251.83 C 248.25 247.40 252.56 243.94 257.55 242.84 Z" />
<path fill="#ffffff" opacity="1.00" d=" M 291.44 243.51 C 293.78 241.79 296.80 242.47 299.48 242.64 C 299.48 245.35 299.49 248.06 299.54 250.78 C 297.36 250.18 294.99 249.13 292.76 250.15 C 288.42 251.83 286.49 256.80 286.41 261.16 C 286.31 267.50 286.44 273.84 286.37 280.18 C 283.50 280.17 280.63 280.17 277.76 280.16 C 277.73 267.87 277.77 255.58 277.74 243.28 C 280.62 243.26 283.51 243.25 286.39 243.26 C 286.39 245.52 286.39 247.79 286.38 250.06 C 287.62 247.59 288.98 244.98 291.44 243.51 Z" />
<path fill="#ffffff" opacity="1.00" d=" M 314.43 242.70 C 320.59 241.80 327.75 241.95 332.58 246.45 C 337.96 251.20 338.95 259.10 337.93 265.84 C 337.06 272.01 332.83 277.69 326.86 279.73 C 319.26 282.27 309.53 281.38 304.15 274.86 C 299.77 269.71 299.60 262.46 300.64 256.10 C 301.91 249.35 307.71 243.88 314.43 242.70 Z" />
<path fill="#ffffff" opacity="1.00" d=" M 351.69 242.74 C 356.51 241.89 361.56 242.18 366.21 243.76 C 366.19 246.21 366.20 248.67 366.21 251.13 C 361.95 249.32 356.90 247.31 352.45 249.64 C 350.40 250.54 349.36 253.25 350.82 255.12 C 353.36 257.59 357.08 258.05 360.16 259.61 C 363.66 261.11 367.46 263.76 367.79 267.90 C 368.52 271.86 366.94 276.23 363.36 278.26 C 356.78 282.05 348.52 281.55 341.54 279.18 C 341.54 276.47 341.54 273.75 341.56 271.04 C 346.11 274.18 352.28 275.92 357.52 273.49 C 359.97 272.27 360.12 268.63 357.75 267.23 C 353.38 264.38 347.60 263.93 343.89 259.99 C 341.53 257.62 341.17 254.00 341.73 250.85 C 342.92 246.35 347.38 243.64 351.69 242.74 Z" />
<path fill="#ffffff" opacity="1.00" d=" M 384.51 242.79 C 389.99 241.92 396.10 241.79 400.97 244.86 C 405.51 247.58 408.12 252.75 408.55 257.93 C 408.96 262.78 408.76 267.97 406.22 272.28 C 399.28 284.54 377.81 284.08 372.18 270.84 C 369.30 263.32 369.85 253.69 375.58 247.61 C 377.99 245.16 381.18 243.56 384.51 242.79 Z" />
<path fill="#ffffff" opacity="1.00" d=" M 229.32 243.28 C 232.13 243.27 234.94 243.27 237.76 243.29 C 237.67 255.57 237.79 267.85 237.69 280.14 C 234.90 280.16 232.12 280.14 229.33 280.04 C 229.36 267.79 229.38 255.54 229.32 243.28 Z" />
<path fill="#01a4ef" opacity="1.00" d=" M 315.58 249.75 C 318.88 248.90 322.95 248.83 325.59 251.33 C 329.12 254.43 329.79 259.53 329.36 263.97 C 329.00 267.91 326.99 272.30 322.93 273.54 C 317.99 275.55 311.80 272.93 309.95 267.90 C 307.35 261.68 308.83 252.63 315.58 249.75 Z" />
<path fill="#01a4ef" opacity="1.00" d=" M 386.48 249.65 C 390.02 248.79 394.35 249.08 396.88 252.04 C 400.03 255.56 400.15 260.62 399.66 265.06 C 399.23 269.18 396.30 273.28 392.02 273.96 C 387.20 275.15 381.89 272.25 380.29 267.54 C 377.99 261.28 379.47 252.14 386.48 249.65 Z" />
<path fill="#ffffff" opacity="1.00" d=" M 53.32 257.13 C 67.02 257.13 80.73 257.12 94.44 257.13 C 94.44 270.97 94.40 284.82 94.46 298.66 C 80.74 298.69 67.02 298.66 53.30 298.67 C 53.35 284.82 53.32 270.98 53.32 257.13 Z" />
<path fill="#ffffff" opacity="1.00" d=" M 99.26 257.13 C 112.96 257.12 126.65 257.15 140.35 257.11 C 140.37 270.96 140.31 284.80 140.38 298.64 C 126.67 298.69 112.95 298.66 99.24 298.66 C 99.30 284.82 99.27 270.98 99.26 257.13 Z" />
</svg>
