<?xml version="1.0" encoding="UTF-8" ?>
<!DOCTYPE svg PUBLIC "-//W3C//DTD SVG 1.1//EN" "http://www.w3.org/Graphics/SVG/1.1/DTD/svg11.dtd">
<svg width="512pt" height="512pt" viewBox="0 0 512 512" version="1.1" xmlns="http://www.w3.org/2000/svg">
<path fill="#ff9000" opacity="1.00" d=" M 0.00 0.00 L 512.00 0.00 L 512.00 512.00 L 0.00 512.00 L 0.00 0.00 Z" />
<path fill="#ffffff" opacity="1.00" d=" M 123.46 123.11 C 165.72 123.11 207.98 123.04 250.25 123.14 C 249.83 165.32 249.75 207.49 249.65 249.69 C 207.44 249.82 165.24 249.59 123.03 249.72 C 123.16 207.51 123.33 165.31 123.46 123.11 Z" />
<path fill="#ffffff" opacity="1.00" d=" M 262.28 123.09 C 304.73 123.11 347.17 123.07 389.62 123.11 C 389.35 165.26 389.36 207.41 389.40 249.56 C 351.59 249.78 313.79 249.59 275.98 249.66 C 271.20 249.58 266.40 249.85 261.63 249.49 C 262.03 227.65 261.42 205.79 262.22 183.97 C 262.19 163.67 262.35 143.38 262.28 123.09 Z" />
<path fill="#ffffff" opacity="1.00" d=" M 123.05 261.61 C 165.19 261.62 207.34 261.70 249.48 261.72 C 249.34 304.00 249.53 346.29 249.32 388.58 C 207.06 388.60 164.81 388.48 122.55 388.64 C 122.75 346.29 122.81 303.95 123.05 261.61 Z" />
<path fill="#ffffff" opacity="1.00" d=" M 261.77 261.73 C 304.28 261.64 346.79 261.48 389.30 261.61 C 389.16 268.06 389.46 274.53 388.77 280.95 C 388.81 316.86 388.50 352.78 388.68 388.69 C 346.25 388.45 303.82 388.55 261.39 388.63 C 261.45 346.33 261.65 304.03 261.77 261.73 Z" />
</svg>
