<?xml version="1.0" encoding="UTF-8" ?>
<!DOCTYPE svg PUBLIC "-//W3C//DTD SVG 1.1//EN" "http://www.w3.org/Graphics/SVG/1.1/DTD/svg11.dtd">
<svg width="512pt" height="512pt" viewBox="0 0 512 512" version="1.1" xmlns="http://www.w3.org/2000/svg">
<path fill="#00b4ec" opacity="1.00" d=" M 0.00 0.00 L 512.00 0.00 L 512.00 512.00 L 0.00 512.00 L 0.00 0.00 Z" />
<path fill="#ffffff" opacity="1.00" d=" M 272.59 124.59 C 283.51 118.53 297.40 117.78 308.67 123.35 C 317.71 127.80 324.63 135.70 329.46 144.41 C 336.99 158.26 340.23 174.31 339.13 190.01 C 336.93 223.30 327.22 255.85 312.96 285.91 C 303.45 276.95 293.04 268.86 281.63 262.47 C 273.98 258.49 265.88 254.15 257.00 254.55 C 251.98 254.30 247.02 257.45 245.08 262.09 C 240.74 271.48 243.54 282.08 243.45 291.93 C 241.93 284.71 239.36 277.77 237.77 270.56 C 232.19 246.48 229.65 221.55 231.60 196.87 C 233.29 182.45 237.90 168.44 244.56 155.56 C 251.12 143.18 260.05 131.38 272.59 124.59 Z" />
<path fill="#ffffff" opacity="1.00" d=" M 155.71 206.47 C 156.55 202.87 158.27 198.77 162.11 197.55 C 168.31 196.02 174.33 199.26 179.20 202.79 C 188.52 209.82 196.09 218.96 202.23 228.85 C 213.48 246.64 222.99 265.54 230.58 285.18 C 232.51 290.42 234.60 295.63 235.88 301.09 C 232.61 294.33 228.77 287.79 223.99 281.98 C 221.95 279.70 219.32 277.16 216.00 277.50 C 211.52 277.05 209.64 281.93 208.56 285.40 C 206.81 293.02 206.76 300.89 206.81 308.67 C 195.68 295.18 184.33 281.78 175.02 266.93 C 168.07 255.77 161.70 244.00 158.55 231.14 C 156.67 223.08 154.43 214.81 155.71 206.47 Z" />
<path fill="#ffffff" opacity="1.00" d=" M 284.83 323.87 C 298.02 314.94 305.93 300.51 312.91 286.61 C 325.64 297.76 337.35 310.32 346.23 324.79 C 353.22 336.56 358.63 350.11 357.48 364.03 C 356.28 373.56 352.43 383.71 343.81 388.90 C 334.90 393.97 323.85 394.24 314.21 391.24 C 301.26 387.27 290.17 378.81 281.38 368.68 C 264.45 349.85 253.41 326.34 247.09 301.97 C 246.75 300.58 246.70 299.13 246.59 297.72 C 248.14 303.43 251.32 308.53 254.59 313.41 C 258.51 318.91 263.25 324.56 270.05 326.38 C 275.03 327.42 280.66 327.07 284.83 323.87 Z" />
<path fill="#ffffff" opacity="1.00" d=" M 237.39 303.61 C 244.61 319.69 252.89 335.56 256.49 352.97 C 258.20 361.68 259.72 371.05 256.50 379.61 C 255.22 383.00 251.92 386.06 248.06 385.46 C 239.19 384.28 232.66 377.28 227.58 370.47 C 214.52 353.08 208.49 331.22 207.61 309.71 C 212.00 314.88 216.96 319.52 222.04 324.01 C 225.86 327.24 229.93 330.83 235.04 331.63 C 237.89 332.24 239.81 329.44 240.09 326.95 C 241.42 319.04 238.35 311.35 237.39 303.61 Z" />
</svg>
