<?xml version="1.0" encoding="UTF-8" ?>
<!DOCTYPE svg PUBLIC "-//W3C//DTD SVG 1.1//EN" "http://www.w3.org/Graphics/SVG/1.1/DTD/svg11.dtd">
<svg width="512pt" height="512pt" viewBox="0 0 512 512" version="1.1" xmlns="http://www.w3.org/2000/svg">
<path fill="#336699" opacity="1.00" d=" M 0.00 0.00 L 512.00 0.00 L 512.00 512.00 L 0.00 512.00 L 0.00 0.00 Z" />
<path fill="#ffffff" opacity="1.00" d=" M 131.19 233.49 C 133.84 235.38 134.50 238.70 135.79 241.49 C 139.53 250.05 143.11 258.67 146.90 267.21 C 147.95 269.36 148.84 271.69 150.54 273.43 C 152.09 274.50 154.04 274.60 155.83 275.00 C 155.83 275.57 155.84 276.71 155.84 277.28 C 148.68 277.25 141.52 277.23 134.36 277.30 C 134.36 276.72 134.37 275.55 134.37 274.97 C 136.56 274.66 138.74 274.26 140.87 273.62 C 140.45 270.06 139.09 266.73 137.46 263.57 C 132.31 263.66 127.15 263.62 122.00 263.62 C 120.66 266.67 119.20 269.71 118.58 273.00 C 120.27 274.97 123.02 274.57 125.32 274.85 C 125.32 275.47 125.33 276.70 125.33 277.31 C 119.27 277.22 113.21 277.25 107.16 277.28 C 107.16 276.69 107.16 275.52 107.16 274.94 C 109.17 274.53 111.65 274.86 113.14 273.17 C 114.78 271.37 115.69 269.07 116.70 266.89 C 121.54 255.76 126.33 244.61 131.19 233.49 Z" />
<path fill="#ffffff" opacity="1.00" d=" M 304.61 234.89 C 312.04 233.05 320.34 234.76 326.11 239.89 C 331.62 244.48 334.66 251.89 333.65 259.04 C 332.48 269.70 322.59 278.20 312.01 278.58 C 300.82 279.46 289.43 271.23 287.70 259.95 C 285.48 248.77 293.79 237.46 304.61 234.89 Z" />
<path fill="#ffffff" opacity="1.00" d=" M 421.17 233.51 C 422.12 234.38 423.21 235.22 423.67 236.50 C 427.67 245.85 431.69 255.18 435.70 264.52 C 437.03 267.40 438.15 270.45 440.10 272.99 C 441.56 274.54 443.89 274.52 445.82 275.00 C 445.83 275.57 445.85 276.71 445.85 277.28 C 438.69 277.26 431.52 277.23 424.36 277.30 C 424.36 276.72 424.37 275.56 424.37 274.97 C 426.56 274.67 428.75 274.25 430.87 273.61 C 430.45 270.06 429.08 266.73 427.47 263.57 C 422.31 263.66 417.15 263.62 412.00 263.62 C 410.67 266.66 409.21 269.69 408.58 272.98 C 410.24 274.99 413.02 274.56 415.32 274.86 C 415.32 275.47 415.33 276.70 415.33 277.31 C 409.27 277.22 403.22 277.25 397.16 277.28 C 397.16 276.69 397.16 275.52 397.16 274.94 C 399.16 274.53 401.64 274.86 403.14 273.18 C 404.80 271.36 405.70 269.03 406.73 266.83 C 411.54 255.73 416.35 244.61 421.17 233.51 Z" />
<path fill="#ffffff" opacity="1.00" d=" M 66.13 235.54 C 72.76 235.56 79.39 235.51 86.02 235.53 C 90.61 235.50 95.55 236.73 98.77 240.20 C 102.74 244.59 102.29 252.05 97.67 255.80 C 92.97 259.84 86.41 259.58 80.59 259.46 C 80.69 263.84 80.17 268.38 81.70 272.59 C 82.89 275.07 86.08 274.54 88.32 274.88 C 88.32 275.49 88.33 276.70 88.34 277.31 C 80.94 277.21 73.55 277.26 66.15 277.28 C 66.15 276.69 66.16 275.52 66.16 274.93 C 68.18 274.54 70.75 274.97 72.15 273.12 C 73.56 270.71 73.51 267.79 73.56 265.09 C 73.54 259.41 73.53 253.73 73.56 248.05 C 73.49 245.31 73.71 242.36 72.31 239.89 C 71.03 237.76 68.21 238.18 66.14 237.55 C 66.13 237.05 66.13 236.04 66.13 235.54 Z" />
<path fill="#ffffff" opacity="1.00" d=" M 165.47 235.56 C 169.39 235.60 173.31 235.59 177.24 235.58 C 185.49 245.64 193.93 255.53 202.20 265.58 C 201.79 257.23 203.09 248.71 201.26 240.50 C 200.25 237.00 194.67 239.42 194.08 235.66 C 200.72 235.56 207.38 235.50 214.02 235.70 C 213.05 239.38 207.15 237.01 206.56 241.06 C 204.75 253.75 206.58 266.68 205.53 279.45 C 204.02 278.25 202.47 277.08 201.27 275.57 C 193.11 265.49 184.69 255.63 176.58 245.52 C 176.61 252.02 176.58 258.52 176.57 265.03 C 176.63 267.74 176.65 270.64 177.95 273.08 C 179.33 275.10 182.11 274.57 184.20 275.00 C 184.21 275.55 184.22 276.66 184.23 277.22 C 177.95 277.18 171.68 277.17 165.40 277.22 C 165.40 276.67 165.41 275.57 165.41 275.02 C 167.85 274.70 171.32 274.82 172.12 271.83 C 173.39 266.65 172.60 261.25 172.81 255.98 C 172.62 251.01 173.36 245.92 172.15 241.04 C 171.58 237.71 167.71 238.20 165.23 237.51 L 165.47 235.56 Z" />
<path fill="#ffffff" opacity="1.00" d=" M 228.17 235.56 C 236.11 235.69 244.07 235.32 252.00 235.73 C 259.31 236.34 267.13 239.93 270.05 247.10 C 273.26 254.90 272.45 265.04 266.18 271.14 C 261.68 275.60 255.12 277.03 248.99 277.21 C 242.05 277.28 235.11 277.17 228.18 277.24 C 228.17 276.67 228.17 275.54 228.17 274.98 C 230.54 274.66 234.00 274.87 234.76 271.93 C 236.39 265.78 235.21 259.29 235.57 253.00 C 235.38 248.80 236.18 244.37 234.62 240.36 C 233.58 237.74 230.35 238.17 228.12 237.53 C 228.13 237.03 228.16 236.05 228.17 235.56 Z" />
<path fill="#ffffff" opacity="1.00" d=" M 349.15 235.53 C 356.09 235.58 363.03 235.46 369.97 235.56 C 375.16 235.65 381.11 237.70 383.40 242.75 C 385.85 247.49 384.04 253.81 379.62 256.72 C 377.71 258.12 375.37 258.63 373.13 259.24 C 378.37 265.33 383.18 272.82 391.42 275.03 C 391.44 275.60 391.50 276.74 391.53 277.31 C 387.36 277.24 383.18 277.26 379.01 277.25 C 375.29 271.92 371.42 266.69 367.56 261.46 C 366.67 260.08 365.17 259.43 363.67 258.97 C 363.66 263.48 363.15 268.17 364.67 272.52 C 365.81 275.07 369.06 274.54 371.32 274.88 C 371.32 275.49 371.33 276.70 371.34 277.31 C 363.94 277.21 356.55 277.26 349.16 277.28 C 349.16 276.69 349.16 275.52 349.16 274.93 C 351.52 274.63 355.01 274.85 355.74 271.89 C 357.27 266.41 356.26 260.62 356.54 255.01 C 356.27 250.19 357.29 245.11 355.61 240.47 C 354.60 237.81 351.38 238.17 349.12 237.54 C 349.13 237.04 349.14 236.04 349.15 235.53 Z" />
<path fill="#336699" opacity="1.00" d=" M 306.39 238.54 C 310.71 237.62 315.68 237.87 319.25 240.77 C 324.42 244.77 326.19 251.81 325.76 258.09 C 325.42 263.82 322.94 269.94 317.75 272.88 C 311.04 276.79 301.28 274.27 297.93 267.07 C 292.88 257.61 295.09 242.22 306.39 238.54 Z" />
<path fill="#336699" opacity="1.00" d=" M 80.59 239.43 C 84.27 239.63 88.63 238.55 91.55 241.44 C 94.38 244.70 94.41 250.31 91.52 253.55 C 88.61 256.39 84.25 255.37 80.59 255.57 C 80.64 250.19 80.64 244.81 80.59 239.43 Z" />
<path fill="#336699" opacity="1.00" d=" M 242.57 239.43 C 247.75 239.55 253.59 238.52 257.98 241.98 C 263.03 245.58 263.94 252.34 263.61 258.09 C 263.50 263.50 261.27 269.72 255.88 271.90 C 252.49 273.20 248.64 273.99 245.07 273.03 C 242.91 272.44 242.63 269.92 242.61 268.05 C 242.54 258.51 242.66 248.97 242.57 239.43 Z" />
<path fill="#336699" opacity="1.00" d=" M 363.59 239.43 C 367.26 239.63 371.63 238.55 374.55 241.45 C 377.27 244.54 377.31 249.67 375.00 253.01 C 372.24 256.45 367.44 255.39 363.59 255.57 C 363.64 250.19 363.64 244.81 363.59 239.43 Z" />
<path fill="#336699" opacity="1.00" d=" M 123.57 259.78 C 125.85 255.16 127.85 250.42 129.86 245.68 C 131.69 250.47 133.78 255.17 135.99 259.80 C 131.85 259.71 127.71 259.72 123.57 259.78 Z" />
<path fill="#336699" opacity="1.00" d=" M 419.86 245.75 C 421.73 250.50 423.79 255.19 425.99 259.80 C 421.85 259.71 417.71 259.72 413.57 259.78 C 415.86 255.19 417.80 250.44 419.86 245.75 Z" />
</svg>
