<?xml version="1.0" encoding="UTF-8" ?>
<!DOCTYPE svg PUBLIC "-//W3C//DTD SVG 1.1//EN" "http://www.w3.org/Graphics/SVG/1.1/DTD/svg11.dtd">
<svg width="512pt" height="512pt" viewBox="0 0 512 512" version="1.1" xmlns="http://www.w3.org/2000/svg">
<path fill="#336699" opacity="1.00" d=" M 0.00 0.00 L 512.00 0.00 L 512.00 512.00 L 0.00 512.00 L 0.00 0.00 Z" />
<path fill="#ffffff" opacity="1.00" d=" M 154.21 136.74 C 193.14 136.82 232.07 136.77 271.00 136.76 C 292.28 137.10 314.40 141.38 331.99 154.01 C 345.75 163.78 355.30 179.32 357.39 196.11 C 358.65 207.88 357.90 220.17 352.92 231.07 C 346.99 245.10 335.37 256.16 321.89 262.96 C 304.41 271.89 284.42 274.45 265.01 274.20 C 255.88 274.17 246.76 274.25 237.64 274.15 C 237.88 290.13 237.27 306.13 238.28 322.09 C 238.66 330.18 239.52 338.35 242.01 346.10 C 243.96 352.28 247.94 358.08 253.87 361.01 C 262.43 365.28 272.27 365.29 281.61 365.48 C 281.54 369.26 281.55 373.06 281.59 376.85 C 239.11 376.85 196.64 376.85 154.17 376.85 C 154.21 373.05 154.22 369.26 154.14 365.47 C 162.87 365.35 171.89 365.18 180.11 361.88 C 186.64 359.19 191.35 353.22 193.51 346.61 C 198.33 331.91 197.22 316.25 198.14 301.04 C 198.11 271.70 198.11 242.37 198.15 213.04 C 197.22 198.04 198.38 182.62 193.90 168.07 C 191.80 161.12 187.14 154.62 180.22 151.90 C 171.95 148.73 162.93 148.38 154.18 148.53 C 154.20 144.60 154.19 140.67 154.21 136.74 Z" />
<path fill="#336699" opacity="1.00" d=" M 237.66 157.40 C 249.12 157.42 260.58 157.40 272.04 157.41 C 283.08 157.77 294.31 161.91 301.89 170.15 C 310.63 179.45 314.19 192.52 314.38 205.03 C 314.42 217.39 311.19 230.34 302.72 239.68 C 295.01 248.37 283.35 252.69 271.92 253.02 C 260.51 253.45 249.07 253.04 237.65 253.23 C 237.71 221.28 237.70 189.34 237.66 157.40 Z" />
</svg>
