<?xml version="1.0" encoding="UTF-8" ?>
<!DOCTYPE svg PUBLIC "-//W3C//DTD SVG 1.1//EN" "http://www.w3.org/Graphics/SVG/1.1/DTD/svg11.dtd">
<svg width="512pt" height="512pt" viewBox="0 0 512 512" version="1.1" xmlns="http://www.w3.org/2000/svg">
<path fill="#cb2027" opacity="1.00" d=" M 0.00 0.00 L 512.00 0.00 L 512.00 512.00 L 0.00 512.00 L 0.00 0.00 Z" />
<path fill="#ffffff" opacity="1.00" d=" M 74.14 209.40 C 82.03 205.38 91.13 204.55 99.84 205.18 C 109.68 205.97 119.19 210.84 125.34 218.61 C 130.32 224.86 132.96 232.97 132.44 240.97 C 131.94 251.75 128.57 262.99 120.71 270.73 C 115.10 276.44 106.98 279.57 98.97 278.83 C 93.81 278.74 89.28 275.73 85.99 271.96 C 84.70 278.21 83.09 284.41 81.21 290.51 C 78.89 296.35 75.72 301.98 71.57 306.73 C 71.21 306.82 70.47 307.00 70.11 307.09 C 69.05 300.30 68.80 293.31 69.82 286.49 C 72.10 275.23 75.30 264.16 77.53 252.89 C 75.83 246.29 74.59 238.70 78.77 232.71 C 81.50 227.96 88.89 225.57 92.96 229.98 C 97.44 235.22 94.30 242.37 92.70 248.13 C 91.59 253.27 88.10 258.90 90.85 264.07 C 93.65 269.46 101.28 270.03 106.00 266.96 C 112.40 262.89 115.44 255.35 117.00 248.23 C 118.19 241.27 119.00 233.70 115.83 227.12 C 113.04 221.28 107.37 217.06 101.06 215.78 C 91.53 213.51 80.65 215.56 73.40 222.38 C 66.15 228.95 62.83 239.66 65.32 249.15 C 66.01 252.07 68.49 254.13 69.42 256.93 C 68.67 259.42 68.88 263.55 66.03 264.47 C 61.23 263.05 57.50 259.12 55.54 254.61 C 53.07 249.12 52.69 242.90 53.39 236.98 C 55.08 225.05 63.39 214.59 74.14 209.40 Z" />
<path fill="#ffffff" opacity="1.00" d=" M 405.76 213.81 C 413.50 204.48 427.86 202.74 438.49 207.71 C 444.99 211.03 450.04 217.60 450.52 225.02 C 450.89 231.66 448.87 238.10 447.12 244.42 C 450.73 244.44 454.34 244.42 457.95 244.46 C 457.83 247.48 458.12 250.94 456.30 253.51 C 452.73 255.05 448.55 253.82 444.77 254.18 C 442.96 261.80 440.77 269.32 439.03 276.96 C 438.60 279.20 437.97 281.67 438.93 283.87 C 440.36 286.24 443.71 286.01 445.91 285.00 C 448.94 283.47 449.72 279.99 451.26 277.28 C 453.10 276.17 455.59 277.03 457.68 276.80 C 456.44 282.81 453.42 288.64 448.40 292.31 C 443.74 295.79 437.50 296.52 431.92 295.36 C 426.68 293.97 424.09 287.95 425.13 282.92 C 426.85 273.24 429.51 263.74 431.99 254.23 C 429.05 254.29 426.10 254.18 423.23 253.53 C 423.91 250.51 424.70 247.52 425.63 244.58 C 428.57 244.44 431.52 244.42 434.47 244.43 C 436.58 236.36 440.57 227.63 437.34 219.36 C 433.51 210.81 421.27 210.43 414.52 215.58 C 407.83 220.66 407.07 230.28 409.25 237.81 C 410.88 243.29 415.97 246.42 419.30 250.74 C 421.81 253.76 420.15 259.46 415.95 259.67 C 411.77 260.34 408.88 256.71 407.21 253.41 C 403.26 252.51 398.59 251.56 395.01 254.04 C 392.45 256.16 393.44 260.39 396.33 261.70 C 403.37 265.47 412.91 266.11 417.43 273.53 C 421.65 281.66 416.06 291.84 407.66 294.39 C 397.05 297.52 383.48 296.51 376.16 287.20 C 369.36 292.66 360.87 296.27 352.03 295.86 C 344.80 296.22 337.13 293.03 333.40 286.60 C 330.30 281.78 330.42 275.83 330.88 270.34 C 328.67 270.01 326.34 268.81 324.15 269.85 C 320.47 271.31 315.82 272.27 312.53 269.41 C 310.07 267.47 310.30 263.58 312.58 261.60 C 314.20 260.12 316.55 260.46 318.56 260.17 C 318.62 257.98 319.18 255.22 316.94 253.87 C 312.50 252.24 308.41 255.70 306.06 259.13 C 298.92 269.67 297.64 282.69 293.59 294.46 C 289.48 295.12 285.28 294.81 281.16 294.46 C 281.77 291.56 282.52 288.71 283.36 285.87 C 277.01 292.32 268.16 296.42 259.00 295.85 C 251.06 296.22 243.22 291.69 239.93 284.41 C 236.47 289.71 231.45 294.57 224.94 295.54 C 221.43 295.96 217.56 296.30 214.34 294.58 C 212.21 293.52 211.19 291.28 210.04 289.34 C 206.27 293.55 200.85 296.44 195.06 295.84 C 190.44 296.16 185.85 292.73 185.35 288.05 C 184.25 278.37 188.76 269.34 190.26 259.97 C 191.06 256.88 188.16 253.69 185.01 254.14 C 179.39 253.86 175.08 258.83 173.62 263.83 C 170.60 274.03 168.59 284.50 165.48 294.67 C 161.41 294.81 157.33 294.82 153.26 294.64 C 153.45 292.88 153.66 291.12 153.91 289.37 C 149.83 293.71 144.02 296.62 137.95 295.79 C 133.65 295.85 129.85 292.27 129.33 288.08 C 128.84 284.34 129.36 280.55 130.30 276.92 C 132.76 267.28 135.06 257.59 137.71 247.99 C 138.17 246.80 138.23 244.97 139.91 244.95 C 143.51 244.70 147.25 244.41 150.79 245.34 C 148.92 257.04 144.57 268.28 142.71 280.02 C 142.39 281.82 142.63 283.80 144.00 285.14 C 147.29 286.82 151.07 284.85 153.22 282.24 C 158.61 276.29 159.34 267.98 161.47 260.58 C 162.96 255.56 163.77 250.33 165.60 245.42 C 168.25 244.33 171.23 244.87 174.03 244.76 C 175.37 244.93 177.28 244.35 177.87 246.01 C 177.69 247.38 177.27 248.70 176.93 250.04 C 181.69 245.56 188.48 242.25 195.10 244.23 C 200.11 245.23 203.59 250.04 203.59 255.05 C 203.67 264.30 198.60 272.78 198.49 282.00 C 198.41 285.68 203.25 286.72 205.67 284.70 C 209.13 281.83 210.70 277.37 211.84 273.16 C 213.40 266.83 214.96 260.49 216.70 254.20 C 213.85 253.76 210.09 255.31 207.92 253.02 C 208.32 250.34 208.95 247.66 209.98 245.14 C 212.67 243.68 216.11 244.72 219.08 244.42 C 220.46 239.38 221.38 234.21 222.93 229.22 C 223.30 227.35 225.31 227.10 226.83 226.70 C 229.58 226.15 232.33 225.48 235.14 225.38 C 236.69 226.65 235.82 228.50 235.48 230.11 C 234.21 234.86 233.02 239.64 231.81 244.41 C 235.40 244.42 239.01 244.37 242.59 244.67 C 242.08 247.73 241.34 250.74 240.50 253.73 C 236.83 254.31 233.10 254.24 229.40 254.18 C 227.60 261.08 225.99 268.02 224.12 274.91 C 223.47 277.72 222.61 280.74 223.45 283.61 C 224.93 286.56 229.11 286.03 231.36 284.31 C 235.55 281.20 237.95 276.14 238.66 271.06 C 239.58 264.61 241.98 258.25 246.25 253.26 C 252.73 245.51 263.88 241.81 273.64 244.58 C 278.50 245.93 282.96 249.69 283.96 254.79 C 285.20 261.64 281.81 269.32 275.37 272.33 C 268.16 275.78 259.74 275.56 252.13 273.66 C 252.11 278.49 253.90 284.22 259.06 285.72 C 268.08 288.28 278.09 283.97 283.85 276.85 C 287.56 272.36 288.06 266.34 289.58 260.93 C 290.96 255.82 291.97 250.60 293.72 245.61 C 295.85 244.19 298.62 244.97 301.04 244.75 C 302.74 244.97 304.99 244.24 306.10 245.96 C 305.75 248.34 305.00 250.64 304.37 252.96 C 307.54 249.19 311.21 245.45 316.14 244.18 C 321.53 242.45 328.36 244.87 330.42 250.39 C 332.14 254.39 330.83 258.73 330.09 262.78 C 330.77 262.94 332.12 263.26 332.80 263.43 C 335.22 256.98 339.27 250.90 345.33 247.40 C 352.01 243.60 360.46 242.35 367.71 245.21 C 371.90 246.86 375.46 250.49 376.35 254.99 C 377.24 260.89 374.86 267.36 369.90 270.83 C 362.50 276.08 352.86 275.30 344.35 274.08 C 344.82 277.77 345.31 282.11 348.65 284.41 C 353.42 287.54 359.61 286.67 364.82 285.29 C 369.26 283.76 374.09 281.58 376.14 277.05 C 377.89 272.87 384.53 272.24 386.74 276.27 C 388.31 278.51 386.83 281.04 385.84 283.16 C 390.74 286.95 397.49 288.39 403.38 286.26 C 405.48 285.48 407.05 283.20 406.35 280.93 C 405.33 278.14 402.31 277.06 399.77 276.12 C 394.81 274.42 389.47 273.09 385.46 269.50 C 379.24 264.15 380.14 253.34 386.26 248.27 C 391.00 244.12 397.55 243.20 403.63 243.49 C 398.16 234.42 398.99 221.97 405.76 213.81 Z" />
<path fill="#ffffff" opacity="1.00" d=" M 146.27 225.23 C 149.96 223.56 154.93 225.95 155.51 230.05 C 156.48 235.90 150.89 241.79 144.98 240.89 C 142.00 240.68 139.54 237.95 139.42 235.01 C 139.05 230.67 142.25 226.59 146.27 225.23 Z" />
<path fill="#cb2027" opacity="1.00" d=" M 260.60 254.54 C 263.53 253.14 267.95 252.92 269.91 255.99 C 271.74 259.44 270.45 264.23 267.00 266.18 C 262.77 268.78 257.50 267.74 252.91 266.83 C 253.67 261.96 255.92 256.77 260.60 254.54 Z" />
<path fill="#cb2027" opacity="1.00" d=" M 352.69 254.72 C 355.76 253.00 360.55 252.94 362.40 256.43 C 363.55 259.64 362.94 263.86 359.90 265.83 C 355.55 268.82 349.83 267.95 345.05 266.62 C 346.27 262.02 348.29 257.11 352.69 254.72 Z" />
</svg>
