<?xml version="1.0" encoding="UTF-8" ?>
<!DOCTYPE svg PUBLIC "-//W3C//DTD SVG 1.1//EN" "http://www.w3.org/Graphics/SVG/1.1/DTD/svg11.dtd">
<svg width="512pt" height="512pt" viewBox="0 0 512 512" version="1.1" xmlns="http://www.w3.org/2000/svg">
<path fill="#ef3e34" opacity="1.00" d=" M 0.00 0.00 L 512.00 0.00 L 512.00 512.00 L 0.00 512.00 L 0.00 0.00 Z" />
<path fill="#ffffff" opacity="1.00" d=" M 254.68 118.13 C 278.40 117.76 302.20 123.61 322.97 135.10 C 349.96 149.94 371.78 174.05 383.65 202.50 C 400.80 242.46 397.25 290.49 374.49 327.55 C 359.53 352.17 336.72 372.03 310.11 383.14 C 291.85 390.97 271.83 394.53 252.00 393.83 C 222.91 393.16 194.20 382.64 171.34 364.66 C 147.22 345.83 129.59 318.78 122.42 289.01 C 115.66 261.64 117.54 232.19 127.82 205.94 C 139.27 176.20 161.51 150.83 189.38 135.41 C 209.24 124.30 231.92 118.30 254.68 118.13 Z" />
<path fill="#ef3e34" opacity="1.00" d=" M 158.61 167.62 C 186.90 136.41 230.53 121.25 272.14 124.80 C 288.05 126.64 303.19 132.56 317.43 139.67 C 341.14 151.67 361.12 171.15 372.82 195.09 C 380.40 210.42 384.95 227.19 386.76 244.17 C 379.87 248.23 373.13 252.60 365.81 255.90 C 358.89 259.07 351.84 263.56 343.89 262.66 C 337.40 243.23 330.58 223.66 319.96 206.03 C 315.42 198.20 309.00 191.43 301.24 186.74 C 297.00 184.11 291.65 183.67 287.95 180.10 C 281.90 174.61 273.95 171.98 266.22 169.86 C 252.38 166.43 237.78 166.63 223.85 169.46 C 216.03 171.21 208.27 173.22 200.48 175.10 C 193.08 177.28 185.25 179.18 179.05 184.01 C 175.58 186.58 174.57 191.18 174.90 195.27 C 175.62 203.12 177.83 210.72 179.47 218.40 C 176.92 222.08 171.90 221.81 167.99 222.68 C 160.82 223.41 153.98 226.79 149.11 232.09 C 146.45 234.93 145.54 239.11 146.67 242.83 C 148.51 249.05 153.14 253.94 157.84 258.21 C 163.47 262.94 169.54 267.64 176.82 269.46 C 181.64 271.03 187.22 271.38 191.18 274.83 C 198.20 289.39 202.09 306.27 214.25 317.75 C 217.61 321.42 222.67 322.55 226.46 325.59 C 230.79 331.04 229.93 338.56 229.29 345.03 C 227.03 357.39 221.95 369.18 215.16 379.72 C 183.94 369.19 156.95 346.65 141.15 317.73 C 114.82 270.68 122.02 207.31 158.61 167.62 Z" />
<path fill="#ef3e34" opacity="1.00" d=" M 225.93 175.97 C 236.48 174.09 247.28 172.49 257.98 173.97 C 267.88 175.47 277.16 179.86 285.22 185.70 C 291.17 190.13 298.64 191.90 304.50 196.45 C 311.49 202.16 315.81 210.34 319.44 218.43 C 325.19 231.91 331.37 245.23 336.02 259.15 C 341.08 274.22 344.00 290.08 343.81 306.01 C 343.66 315.79 344.42 325.90 341.26 335.32 C 340.04 339.19 336.33 343.00 331.94 341.39 C 319.52 337.33 312.69 325.08 308.50 313.53 C 303.33 298.88 301.09 283.39 300.00 267.95 C 298.81 257.30 301.01 246.69 300.75 236.02 C 300.89 229.32 300.03 221.81 294.88 216.95 C 294.34 217.16 293.25 217.58 292.71 217.79 C 291.77 222.74 295.27 226.98 295.18 231.88 C 295.21 238.94 293.40 247.03 287.28 251.32 C 279.68 256.18 270.60 257.66 262.09 260.15 C 246.79 264.70 231.14 268.65 215.12 269.22 C 197.84 269.81 180.27 265.66 165.55 256.50 C 162.30 254.47 159.75 251.57 157.68 248.39 C 157.66 248.18 157.63 247.76 157.62 247.54 C 162.30 249.25 168.69 250.75 172.40 246.38 C 175.45 242.46 180.86 240.85 182.73 235.96 C 180.91 232.29 177.10 230.52 173.50 229.04 C 177.61 227.17 182.89 225.53 184.62 220.92 C 185.69 211.72 180.67 203.16 180.57 194.04 C 180.55 191.85 181.28 189.45 183.19 188.19 C 186.95 185.55 191.43 184.28 195.72 182.80 C 205.60 179.76 215.77 177.82 225.93 175.97 Z" />
<path fill="#ffffff" opacity="1.00" d=" M 185.27 195.31 C 186.00 193.12 187.36 190.39 189.97 190.17 C 194.68 189.46 199.19 193.45 199.53 198.10 C 198.13 198.66 196.71 199.71 195.12 199.23 C 193.89 198.18 192.87 196.93 191.82 195.72 C 189.64 195.56 187.45 195.50 185.27 195.31 Z" />
<path fill="#ffffff" opacity="1.00" d=" M 240.33 200.40 C 244.32 196.93 249.73 195.42 254.89 194.84 C 259.00 194.71 265.08 195.24 265.85 200.33 C 261.90 201.67 257.81 198.52 254.00 200.60 C 250.16 202.20 247.33 206.08 243.00 206.44 C 239.97 206.78 237.68 202.40 240.33 200.40 Z" />
<path fill="#ffffff" opacity="1.00" d=" M 187.03 198.96 C 187.87 198.13 189.17 198.40 190.23 198.19 C 190.70 199.52 191.19 200.84 191.68 202.17 C 193.06 203.18 196.01 203.59 195.33 205.93 C 194.58 209.09 192.53 212.19 189.55 213.61 C 187.22 214.39 185.79 211.77 185.52 209.84 C 185.13 206.20 185.07 202.19 187.03 198.96 Z" />
<path fill="#ffffff" opacity="1.00" d=" M 251.40 206.42 C 256.56 203.25 263.94 207.95 262.85 214.03 C 262.83 220.78 252.92 222.67 249.34 217.57 C 246.43 214.21 247.51 208.52 251.40 206.42 Z" />
<path fill="#ef3e34" opacity="1.00" d=" M 158.15 234.80 C 159.31 233.95 160.25 232.25 161.94 232.60 C 165.56 232.42 165.62 239.06 161.85 238.81 C 159.43 239.21 158.69 236.62 158.15 234.80 Z" />
<path fill="#ef3e34" opacity="1.00" d=" M 348.06 270.88 C 362.46 267.35 375.26 259.63 388.32 252.91 C 387.46 271.78 385.28 291.00 377.39 308.38 C 364.91 337.19 341.37 360.98 312.74 373.85 C 285.22 386.35 253.51 388.58 224.25 381.41 C 229.12 371.61 231.81 360.93 236.11 350.89 C 238.36 345.61 239.91 339.70 238.64 333.98 C 237.48 326.68 233.41 320.36 230.20 313.84 C 226.19 305.26 221.92 296.80 217.79 288.28 C 216.04 284.64 213.74 281.08 213.67 276.90 C 219.01 274.36 225.26 275.16 231.00 274.37 C 248.42 272.38 265.33 267.24 281.75 261.23 C 281.38 270.19 282.82 279.11 285.07 287.76 C 289.36 305.58 295.93 323.22 307.09 337.94 C 311.26 343.17 316.27 348.23 322.87 350.17 C 328.91 352.30 336.21 351.53 341.11 347.19 C 345.15 343.80 347.23 338.74 348.60 333.79 C 351.36 322.75 350.70 311.29 350.80 300.02 C 350.87 290.26 350.96 280.31 348.06 270.88 Z" />
</svg>
