<?xml version="1.0" encoding="UTF-8" ?>
<!DOCTYPE svg PUBLIC "-//W3C//DTD SVG 1.1//EN" "http://www.w3.org/Graphics/SVG/1.1/DTD/svg11.dtd">
<svg width="512pt" height="512pt" viewBox="0 0 512 512" version="1.1" xmlns="http://www.w3.org/2000/svg">
<path fill="#007fc5" opacity="1.00" d=" M 0.00 0.00 L 512.00 0.00 L 512.00 512.00 L 0.00 512.00 L 0.00 0.00 Z" />
<path fill="#ffffff" opacity="1.00" d=" M 227.21 198.55 C 235.56 198.53 243.91 198.54 252.27 198.54 C 252.21 236.73 252.28 274.92 252.24 313.11 C 243.92 313.12 235.60 313.11 227.28 313.12 C 227.24 308.93 227.25 304.74 227.29 300.55 C 222.51 306.48 216.44 311.74 208.88 313.58 C 198.86 315.76 187.86 314.44 179.17 308.77 C 168.20 302.00 161.61 289.61 160.18 277.01 C 158.31 262.48 161.22 246.42 171.51 235.46 C 182.56 223.32 202.04 219.58 216.58 227.40 C 220.72 229.61 224.10 232.93 227.28 236.34 C 227.20 223.74 227.33 211.14 227.21 198.55 Z" />
<path fill="#ffffff" opacity="1.00" d=" M 262.62 198.53 C 271.47 198.54 280.31 198.53 289.15 198.55 C 289.07 204.78 289.32 211.02 288.94 217.25 C 280.17 217.21 271.41 217.24 262.65 217.23 C 262.64 211.00 262.68 204.77 262.62 198.53 Z" />
<path fill="#ffffff" opacity="1.00" d=" M 312.45 235.41 C 324.69 224.38 342.83 220.66 358.55 225.21 C 358.87 234.09 358.52 242.99 358.70 251.89 C 346.72 246.26 331.43 251.71 325.14 263.18 C 321.89 268.51 321.20 275.82 325.05 281.03 C 330.48 288.47 341.10 290.15 349.49 287.54 C 359.44 284.39 368.25 274.92 367.61 264.01 C 367.58 252.10 367.57 240.20 367.60 228.30 C 377.34 234.12 387.01 240.66 398.24 243.20 C 401.31 243.91 404.63 243.42 407.57 244.64 C 409.17 246.29 408.44 248.89 407.69 250.78 C 404.88 257.00 398.84 261.16 392.46 263.11 C 393.67 274.85 390.86 287.10 383.57 296.50 C 374.66 308.26 359.81 315.57 344.99 314.48 C 332.28 315.49 319.54 310.26 310.52 301.42 C 301.99 292.98 297.16 281.03 297.39 269.04 C 297.31 256.35 302.91 243.78 312.45 235.41 Z" />
<path fill="#ffffff" opacity="1.00" d=" M 144.22 225.39 C 151.88 222.57 160.43 223.10 168.26 224.93 C 161.05 231.60 155.66 240.16 152.96 249.63 C 146.29 250.34 139.34 252.61 135.05 258.09 C 130.07 264.20 128.63 272.35 128.51 280.03 C 128.48 291.13 128.52 302.22 128.50 313.32 C 120.21 313.29 111.92 313.29 103.63 313.32 C 103.63 283.94 103.63 254.57 103.63 225.20 C 111.92 225.25 120.21 225.25 128.50 225.20 C 128.52 231.01 128.46 236.82 128.52 242.63 C 131.69 235.41 136.58 228.32 144.22 225.39 Z" />
<path fill="#ffffff" opacity="1.00" d=" M 263.38 313.10 C 263.39 283.67 263.29 254.24 263.43 224.81 C 271.73 224.85 280.04 224.82 288.35 224.83 C 288.37 254.25 288.37 283.68 288.35 313.11 C 280.02 313.11 271.70 313.12 263.38 313.10 Z" />
<path fill="#007fc5" opacity="1.00" d=" M 201.43 250.72 C 210.17 247.85 221.74 249.81 226.71 258.23 C 227.58 263.04 227.29 268.16 226.86 273.03 C 221.57 285.61 205.14 292.38 192.69 286.30 C 186.54 283.62 182.41 276.76 183.64 270.04 C 185.32 260.94 192.74 253.48 201.43 250.72 Z" />
<path fill="#ffffff" opacity="1.00" d=" M 382.54 305.07 C 386.30 303.61 390.38 304.73 394.29 304.40 C 394.90 306.33 395.53 308.26 396.13 310.20 C 396.81 308.26 397.48 306.32 398.14 304.38 C 398.80 304.36 400.14 304.30 400.81 304.28 C 400.83 307.23 400.85 310.18 400.83 313.13 C 400.44 313.13 399.67 313.13 399.28 313.13 C 399.00 311.24 398.73 309.36 398.47 307.48 C 397.95 309.52 397.43 311.56 396.84 313.58 C 394.72 312.17 394.29 309.57 393.42 307.37 C 393.35 309.51 393.27 311.66 393.12 313.80 C 390.12 311.93 391.94 307.88 391.53 305.03 C 390.67 305.37 388.94 306.06 388.08 306.40 C 388.12 308.53 388.14 310.66 388.16 312.80 C 387.58 312.82 386.40 312.87 385.81 312.90 C 385.83 310.72 385.85 308.55 385.88 306.38 C 385.04 306.05 383.37 305.40 382.54 305.07 Z" />
</svg>
