<?xml version="1.0" encoding="UTF-8" ?>
<!DOCTYPE svg PUBLIC "-//W3C//DTD SVG 1.1//EN" "http://www.w3.org/Graphics/SVG/1.1/DTD/svg11.dtd">
<svg width="512pt" height="512pt" viewBox="0 0 512 512" version="1.1" xmlns="http://www.w3.org/2000/svg">
<path fill="#ff4006" opacity="1.00" d=" M 0.00 0.00 L 512.00 0.00 L 512.00 512.00 L 0.00 512.00 L 0.00 0.00 Z" />
<path fill="#ffffff" opacity="1.00" d=" M 323.16 101.34 C 330.43 97.13 340.26 97.91 346.70 103.32 C 351.60 107.33 354.43 113.67 354.18 120.00 C 354.10 128.24 348.48 135.99 340.79 138.86 C 333.82 141.32 325.48 140.09 319.91 135.10 C 315.04 131.14 312.82 124.92 312.44 118.82 C 300.53 116.36 288.77 113.23 276.91 110.58 C 276.42 110.58 275.43 110.57 274.94 110.57 C 274.56 112.86 273.91 115.09 273.15 117.27 C 269.10 129.36 265.64 141.63 261.47 153.68 C 284.34 154.92 307.51 160.38 326.90 172.99 C 333.77 166.46 344.35 164.56 353.19 167.79 C 363.39 171.40 370.28 182.19 369.56 192.94 C 369.15 201.58 363.99 209.58 356.52 213.85 C 357.30 222.39 356.98 231.26 353.34 239.17 C 344.92 259.57 325.21 272.69 305.20 280.11 C 318.43 285.85 327.30 299.01 329.95 312.92 C 332.20 325.21 330.80 338.48 324.54 349.45 C 319.79 357.84 312.37 365.09 303.05 368.11 C 301.79 368.64 299.95 368.81 299.66 370.45 C 298.33 374.43 297.02 378.42 295.19 382.21 C 304.18 381.58 313.82 384.22 320.12 390.92 C 325.47 396.29 328.07 404.89 325.05 412.08 C 324.45 413.67 322.65 414.31 321.07 414.16 C 277.34 414.13 233.61 414.16 189.88 414.15 C 187.95 414.39 186.46 412.68 186.14 410.93 C 183.65 402.61 187.51 393.31 194.39 388.30 C 200.58 383.61 208.53 381.62 216.23 382.25 C 213.99 378.03 213.00 373.27 210.98 368.99 C 201.61 366.24 193.45 359.92 188.41 351.56 C 179.21 336.97 178.32 317.83 185.14 302.11 C 189.25 292.61 196.79 284.76 206.04 280.15 C 189.12 273.73 172.90 263.58 162.74 248.25 C 156.00 238.03 153.05 225.44 154.86 213.30 C 150.36 210.03 146.20 205.91 144.39 200.52 C 140.59 190.67 143.62 178.52 151.98 171.94 C 161.15 164.08 176.13 164.39 184.96 172.64 C 205.38 159.66 229.74 154.25 253.70 153.57 C 258.09 139.74 262.45 125.90 266.84 112.06 C 267.88 109.00 268.46 105.75 270.00 102.88 C 271.96 101.66 274.40 102.27 276.52 102.66 C 289.00 105.77 301.55 108.58 314.06 111.57 C 316.11 107.43 318.97 103.50 323.16 101.34 Z" />
<path fill="#ff4006" opacity="1.00" d=" M 239.62 162.09 C 263.81 159.58 288.94 162.48 311.08 172.90 C 325.06 179.55 338.38 189.46 345.34 203.66 C 350.39 213.56 350.96 225.60 346.63 235.86 C 341.69 247.95 331.87 257.31 320.94 264.10 C 302.15 275.71 279.88 280.59 257.98 281.20 C 236.83 281.37 215.35 277.31 196.47 267.55 C 183.86 260.88 172.04 251.37 165.82 238.25 C 160.76 227.98 160.46 215.58 165.30 205.17 C 172.15 190.09 186.10 179.57 200.74 172.65 C 213.02 167.07 226.22 163.56 239.62 162.09 Z" />
<path fill="#ffffff" opacity="1.00" d=" M 216.36 194.52 C 224.10 191.30 233.58 195.91 236.26 203.75 C 237.54 208.95 236.95 215.04 233.01 219.01 C 226.83 226.20 213.87 225.18 209.04 216.96 C 203.71 209.32 207.57 197.56 216.36 194.52 Z" />
<path fill="#ffffff" opacity="1.00" d=" M 285.31 194.46 C 291.80 191.92 299.72 194.63 303.37 200.54 C 307.38 206.65 306.20 215.77 300.36 220.33 C 293.86 226.15 282.36 224.60 277.84 217.04 C 272.43 209.33 276.34 197.42 285.31 194.46 Z" />
<path fill="#ffffff" opacity="1.00" d=" M 220.23 247.39 C 223.50 245.09 226.03 248.96 228.49 250.56 C 237.50 256.31 248.61 257.11 259.02 256.84 C 269.09 256.66 279.94 254.74 287.56 247.62 C 290.41 244.77 295.19 248.78 293.29 252.18 C 286.38 260.33 275.24 263.03 265.03 264.03 C 254.30 264.75 243.25 264.58 232.95 261.16 C 228.05 259.49 223.39 256.89 219.80 253.13 C 218.13 251.67 218.43 248.60 220.23 247.39 Z" />
<path fill="#ff4006" opacity="1.00" d=" M 216.84 361.39 C 209.94 335.70 209.02 308.62 212.89 282.37 C 240.57 290.76 270.71 290.71 298.42 282.43 C 303.10 314.78 301.12 348.90 288.19 379.23 C 283.31 389.79 277.05 400.70 266.67 406.66 C 260.79 407.13 254.86 406.67 248.96 406.87 C 247.24 406.74 245.30 407.21 243.77 406.20 C 238.11 402.68 233.67 397.52 230.07 391.98 C 223.89 382.66 219.97 372.06 216.84 361.39 Z" />
</svg>
