<?xml version="1.0" encoding="UTF-8" ?>
<!DOCTYPE svg PUBLIC "-//W3C//DTD SVG 1.1//EN" "http://www.w3.org/Graphics/SVG/1.1/DTD/svg11.dtd">
<svg width="512pt" height="512pt" viewBox="0 0 512 512" version="1.1" xmlns="http://www.w3.org/2000/svg">
<path fill="#ce1a00" opacity="1.00" d=" M 0.00 0.00 L 512.00 0.00 L 512.00 512.00 L 0.00 512.00 L 0.00 0.00 Z" />
<path fill="#ffffff" opacity="1.00" d=" M 125.42 155.40 C 205.72 144.86 286.13 135.00 366.46 124.66 C 373.19 172.23 379.53 219.86 386.40 267.40 C 374.60 276.63 362.70 285.73 350.85 294.91 C 328.44 293.91 306.07 292.02 283.68 290.66 C 311.00 314.59 338.68 338.12 366.01 362.03 C 369.43 367.32 371.89 373.20 375.05 378.65 C 363.75 380.26 352.31 380.83 340.95 382.01 C 318.33 384.15 295.70 386.07 273.09 388.28 C 257.66 359.66 242.10 331.10 226.64 302.50 C 225.34 300.16 224.31 297.64 222.56 295.59 C 222.56 296.81 222.76 297.99 223.13 299.15 C 228.64 315.88 233.87 332.69 239.33 349.43 C 242.15 356.04 239.49 363.21 239.40 370.08 C 215.51 365.01 191.59 359.98 167.77 354.60 C 158.77 311.43 149.49 268.31 140.39 225.16 C 135.34 201.92 130.75 178.58 125.42 155.40 Z" />
<path fill="#ce1a00" opacity="1.00" d=" M 205.74 201.76 C 206.02 201.51 206.59 201.03 206.88 200.78 C 228.61 203.65 250.38 206.27 272.06 209.45 C 272.38 220.37 273.52 231.23 273.77 242.16 C 254.77 245.84 235.76 249.52 216.80 253.41 C 213.68 249.72 211.02 245.67 207.99 241.92 C 207.35 240.97 206.35 240.09 206.40 238.86 C 206.07 230.99 206.92 223.06 205.84 215.24 C 205.73 210.75 205.69 206.25 205.74 201.76 Z" />
</svg>
