<?xml version="1.0" encoding="UTF-8" ?>
<!DOCTYPE svg PUBLIC "-//W3C//DTD SVG 1.1//EN" "http://www.w3.org/Graphics/SVG/1.1/DTD/svg11.dtd">
<svg width="512pt" height="512pt" viewBox="0 0 512 512" version="1.1" xmlns="http://www.w3.org/2000/svg">
<path fill="#fd9f13" opacity="1.00" d=" M 0.00 0.00 L 512.00 0.00 L 512.00 512.00 L 0.00 512.00 L 0.00 0.00 Z" />
<path fill="#ffffff" opacity="1.00" d=" M 122.28 122.04 C 160.10 121.88 197.97 129.94 232.42 145.62 C 277.60 166.07 316.95 199.31 344.41 240.63 C 374.40 284.75 390.78 338.05 390.44 391.39 C 373.23 391.39 356.01 391.41 338.79 391.41 C 339.32 339.61 319.84 288.07 285.91 249.02 C 245.56 202.20 184.38 173.47 122.40 174.35 C 122.30 156.91 122.35 139.48 122.28 122.04 Z" />
<path fill="#ffffff" opacity="1.00" d=" M 122.56 213.81 C 153.11 213.07 183.48 221.98 209.97 236.99 C 233.11 250.21 253.20 268.72 268.24 290.72 C 288.43 320.05 299.67 355.62 299.31 391.26 C 282.08 391.25 264.86 391.28 247.63 391.25 C 248.06 368.95 241.75 346.66 230.53 327.44 C 217.79 305.79 198.55 287.96 175.80 277.27 C 159.22 269.43 140.88 265.28 122.54 265.33 C 122.59 248.15 122.57 230.98 122.56 213.81 Z" />
<path fill="#ffffff" opacity="1.00" d=" M 155.51 319.71 C 166.11 318.89 176.97 323.11 184.28 330.84 C 190.22 337.36 194.18 346.09 193.75 355.04 C 194.76 371.83 181.44 387.77 164.96 390.49 C 152.94 393.05 139.84 388.53 131.63 379.45 C 125.52 372.54 121.96 363.29 122.54 354.02 C 122.65 336.34 137.96 320.75 155.51 319.71 Z" />
</svg>
