<?xml version="1.0" encoding="UTF-8" ?>
<!DOCTYPE svg PUBLIC "-//W3C//DTD SVG 1.1//EN" "http://www.w3.org/Graphics/SVG/1.1/DTD/svg11.dtd">
<svg width="512pt" height="512pt" viewBox="0 0 512 512" version="1.1" xmlns="http://www.w3.org/2000/svg">
<path fill="#0479f3" opacity="1.00" d=" M 0.00 0.00 L 512.00 0.00 L 512.00 512.00 L 0.00 512.00 L 0.00 0.00 Z" />
<path fill="#fdfefd" opacity="1.00" d=" M 185.20 165.19 C 200.48 163.14 216.53 166.76 228.99 175.95 C 241.24 184.33 249.94 197.46 253.46 211.82 C 255.19 218.76 254.86 225.99 254.69 233.08 C 252.74 252.24 240.70 269.79 224.16 279.39 C 218.24 282.74 211.77 284.97 205.17 286.54 C 188.58 289.37 170.89 285.68 157.16 275.84 C 145.38 266.86 136.50 253.92 133.30 239.38 C 131.64 232.34 132.08 225.03 132.51 217.87 C 135.52 191.12 158.53 168.37 185.20 165.19 Z" />
<path fill="#fdfefd" opacity="1.00" d=" M 311.99 167.12 C 324.16 165.26 337.06 166.39 348.17 171.93 C 360.09 177.69 369.95 187.78 375.00 200.06 C 376.74 204.24 378.76 208.51 378.65 213.15 C 377.47 213.71 376.45 214.83 375.07 214.79 C 368.97 214.89 362.85 215.08 356.77 214.53 C 354.44 210.67 353.11 206.26 350.24 202.73 C 339.79 188.35 317.67 185.59 303.12 195.16 C 293.78 201.35 287.05 211.70 286.20 222.99 C 283.71 241.93 298.30 261.71 317.49 263.88 C 328.14 265.23 339.72 262.10 347.45 254.43 C 349.18 252.53 350.76 250.48 352.34 248.45 C 354.98 245.08 355.21 240.32 358.48 237.38 C 364.79 237.27 371.11 237.15 377.42 237.45 C 378.61 238.71 380.11 240.04 379.31 241.98 C 375.29 259.53 363.01 275.28 346.35 282.44 C 325.24 292.04 298.21 287.83 281.80 271.18 C 271.97 262.00 265.54 249.37 263.51 236.10 C 261.31 222.67 264.09 208.58 270.69 196.73 C 278.98 181.22 294.77 170.25 311.99 167.12 Z" />
<path fill="#0479f3" opacity="1.00" d=" M 186.42 188.81 C 197.74 186.84 209.73 190.03 218.40 197.61 C 225.22 203.89 230.44 212.47 230.99 221.91 C 232.16 229.96 230.16 238.19 226.17 245.21 C 220.81 254.30 211.50 260.87 201.21 263.11 C 192.12 264.45 182.29 263.74 174.43 258.58 C 165.80 253.61 159.50 245.03 156.79 235.50 C 154.55 225.92 155.71 215.30 160.95 206.86 C 166.38 197.59 175.95 191.01 186.42 188.81 Z" />
<path fill="#fdfefd" opacity="1.00" d=" M 155.44 302.54 C 156.80 302.52 158.26 302.02 159.58 302.56 C 180.67 321.55 206.92 335.27 235.01 340.05 C 242.90 341.79 251.03 341.81 259.07 341.78 C 282.35 342.00 304.99 334.15 325.14 322.94 C 335.52 316.86 345.55 310.15 354.70 302.31 C 356.95 301.67 358.67 303.04 359.69 304.96 C 358.83 306.31 357.95 307.70 356.65 308.68 C 338.93 322.96 319.00 334.87 297.17 341.63 C 266.31 351.62 232.05 349.39 202.22 336.92 C 185.24 329.52 169.13 319.79 155.54 307.12 C 155.38 305.59 155.36 304.06 155.44 302.54 Z" />
</svg>
