<?xml version="1.0" encoding="UTF-8" ?>
<!DOCTYPE svg PUBLIC "-//W3C//DTD SVG 1.1//EN" "http://www.w3.org/Graphics/SVG/1.1/DTD/svg11.dtd">
<svg width="512pt" height="512pt" viewBox="0 0 512 512" version="1.1" xmlns="http://www.w3.org/2000/svg">
<path fill="#004892" opacity="1.00" d=" M 0.00 0.00 L 512.00 0.00 L 512.00 512.00 L 0.00 512.00 L 0.00 0.00 Z" />
<path fill="#ffffff" opacity="1.00" d=" M 344.87 155.93 C 360.01 150.84 375.83 146.24 391.97 147.29 C 397.13 147.70 403.15 149.34 405.67 154.34 C 407.71 158.74 406.89 163.89 405.40 168.33 C 401.59 178.09 395.17 186.52 388.61 194.58 C 376.33 208.93 362.37 221.75 347.82 233.76 C 346.62 234.95 344.30 235.77 344.87 237.86 C 347.27 251.47 347.31 265.58 343.95 279.04 C 338.09 303.30 321.97 324.79 300.52 337.47 C 287.96 344.95 273.61 349.23 259.08 350.46 C 241.78 351.60 224.35 347.67 208.88 339.97 C 190.22 348.25 171.50 356.71 151.66 361.79 C 140.44 364.86 128.75 366.84 117.10 365.43 C 111.33 364.44 105.41 360.45 105.06 354.11 C 104.95 345.84 109.20 338.30 113.61 331.58 C 126.63 312.13 144.32 296.48 161.74 281.10 C 158.69 268.30 156.88 254.84 159.86 241.83 C 165.14 203.89 196.55 171.41 234.18 164.52 C 253.20 160.55 273.40 162.99 291.14 170.83 C 293.91 171.92 296.31 173.82 299.16 174.74 C 301.06 174.53 302.73 173.47 304.46 172.70 C 317.47 166.08 331.20 161.02 344.87 155.93 Z" />
<path fill="#004892" opacity="1.00" d=" M 248.88 202.87 C 272.53 187.53 299.54 178.57 326.11 169.78 C 314.58 176.00 301.92 179.93 290.57 186.55 C 277.92 193.87 265.31 203.30 259.39 217.12 C 256.50 225.71 259.13 234.98 263.54 242.56 C 266.96 249.18 272.69 254.29 275.81 261.08 C 279.14 268.05 280.62 276.12 278.72 283.71 C 276.23 293.69 269.26 302.13 260.84 307.82 C 246.93 317.20 231.46 323.89 215.92 330.03 C 205.44 334.08 194.94 338.13 184.11 341.11 C 202.59 331.50 222.93 323.95 237.67 308.63 C 244.39 301.92 249.72 292.78 248.96 282.98 C 249.31 277.81 247.08 272.95 244.36 268.70 C 240.72 262.81 235.52 258.15 231.13 252.85 C 225.81 246.02 222.98 236.62 226.16 228.24 C 230.29 217.33 239.66 209.51 248.88 202.87 Z" />
<path fill="#004892" opacity="1.00" d=" M 313.02 184.34 C 325.03 179.91 338.00 176.95 350.88 178.01 C 355.39 178.94 360.17 181.11 362.40 185.37 C 363.81 189.65 363.49 194.51 361.69 198.64 C 357.59 209.47 349.80 218.27 342.26 226.84 C 337.29 214.91 331.26 203.17 322.34 193.66 C 319.40 190.38 316.08 187.49 313.02 184.34 Z" />
<path fill="#004892" opacity="1.00" d=" M 150.93 312.97 C 154.42 305.15 159.16 297.73 165.35 291.78 C 171.39 306.75 181.49 319.85 193.86 330.14 C 187.29 332.99 180.13 334.04 173.10 335.04 C 165.79 335.68 157.17 335.96 151.61 330.33 C 147.09 325.57 148.60 318.41 150.93 312.97 Z" />
</svg>
