<?xml version="1.0" encoding="UTF-8" ?>
<!DOCTYPE svg PUBLIC "-//W3C//DTD SVG 1.1//EN" "http://www.w3.org/Graphics/SVG/1.1/DTD/svg11.dtd">
<svg width="512pt" height="512pt" viewBox="0 0 512 512" version="1.1" xmlns="http://www.w3.org/2000/svg">
<path fill="#2b65b5" opacity="1.00" d=" M 0.00 0.00 L 512.00 0.00 L 512.00 512.00 L 0.00 512.00 L 0.00 0.00 Z" />
<path fill="#f5f5f5" opacity="1.00" d=" M 137.38 134.38 C 144.33 127.91 153.66 124.52 162.98 123.45 C 219.76 123.47 276.54 123.43 333.33 123.47 C 333.22 177.98 333.32 232.48 333.29 286.99 C 333.21 291.49 331.53 296.19 327.95 299.09 C 324.62 301.82 320.21 302.87 315.96 302.76 C 311.74 302.91 307.24 301.89 304.13 298.88 C 301.14 295.72 299.80 291.28 299.72 287.00 C 299.72 270.00 299.75 252.99 299.70 235.98 C 299.81 226.83 296.73 217.32 290.01 210.90 C 282.95 203.82 272.74 200.90 262.98 200.55 C 239.00 200.41 215.02 200.64 191.04 200.41 C 180.89 200.23 170.30 202.03 161.71 207.73 C 153.39 213.05 148.52 222.50 146.79 232.01 C 145.37 242.25 145.46 253.25 150.40 262.60 C 154.02 269.87 161.12 275.09 169.00 276.87 C 178.43 278.83 188.17 278.74 197.59 280.79 C 201.76 281.65 205.88 284.64 206.62 289.06 C 207.02 292.60 207.39 296.93 204.52 299.61 C 201.87 302.45 197.70 302.82 194.05 302.75 C 170.61 302.63 147.18 302.89 123.74 302.61 C 123.80 256.40 123.77 210.19 123.76 163.99 C 124.02 152.81 129.00 141.81 137.38 134.38 Z" />
<path fill="#f5f5f5" opacity="1.00" d=" M 363.48 127.09 C 377.05 133.18 387.46 146.85 387.87 161.95 C 387.89 224.28 387.86 286.62 387.89 348.96 C 388.01 357.93 384.26 366.68 378.58 373.51 C 370.04 383.82 356.32 389.28 343.07 388.55 C 283.05 388.54 223.03 388.55 163.01 388.54 C 152.50 387.43 142.05 383.09 134.86 375.14 C 130.07 370.09 126.66 363.76 125.00 357.02 C 122.94 349.12 124.03 340.91 123.79 332.86 C 144.84 332.79 165.88 332.94 186.93 332.87 C 194.32 332.85 201.93 333.23 209.03 330.81 C 220.72 327.40 230.60 318.19 234.62 306.68 C 238.22 296.89 237.59 286.01 234.75 276.12 C 232.32 267.67 226.19 260.30 218.03 256.88 C 207.37 251.69 194.97 253.84 184.06 249.56 C 180.69 248.27 177.44 245.72 176.61 242.04 C 175.97 238.27 177.55 233.96 181.05 232.14 C 183.82 230.78 186.99 230.70 190.02 230.65 C 212.64 230.73 235.28 230.60 257.90 230.71 C 263.41 230.83 269.82 234.85 269.62 240.93 C 269.68 255.61 269.64 270.30 269.64 284.99 C 268.76 305.44 283.13 325.75 302.99 331.14 C 310.13 333.27 317.70 333.01 325.07 332.60 C 335.19 331.84 345.66 328.29 352.59 320.55 C 360.46 312.10 362.94 300.15 363.38 288.95 C 363.47 235.00 363.26 181.04 363.48 127.09 Z" />
</svg>
