<?xml version="1.0" encoding="UTF-8" ?>
<!DOCTYPE svg PUBLIC "-//W3C//DTD SVG 1.1//EN" "http://www.w3.org/Graphics/SVG/1.1/DTD/svg11.dtd">
<svg width="512pt" height="512pt" viewBox="0 0 512 512" version="1.1" xmlns="http://www.w3.org/2000/svg">
<path fill="#35b44a" opacity="1.00" d=" M 0.00 0.00 L 512.00 0.00 L 512.00 512.00 L 0.00 512.00 L 0.00 0.00 Z" />
<path fill="#ffffff" opacity="1.00" d=" M 136.87 134.84 C 143.90 128.07 153.48 124.52 163.05 123.44 C 219.81 123.49 276.58 123.38 333.34 123.50 C 333.21 177.98 333.32 232.46 333.29 286.94 C 333.25 291.90 331.15 297.08 326.90 299.88 C 321.72 303.25 314.94 303.45 309.13 301.85 C 302.83 300.03 299.74 293.16 299.72 287.05 C 299.71 270.04 299.75 253.02 299.70 236.01 C 299.81 226.86 296.75 217.36 290.04 210.92 C 282.98 203.81 272.72 200.92 262.94 200.55 C 238.31 200.42 213.67 200.62 189.03 200.42 C 179.31 200.45 169.25 202.52 161.14 208.12 C 153.15 213.48 148.48 222.71 146.80 231.99 C 145.41 242.25 145.44 253.28 150.43 262.65 C 154.06 269.90 161.15 275.10 169.01 276.88 C 178.36 278.80 188.01 278.75 197.34 280.74 C 201.60 281.55 205.86 284.53 206.61 289.04 C 207.00 292.57 207.39 296.87 204.57 299.56 C 201.63 302.76 196.93 302.82 192.92 302.74 C 169.84 302.55 146.74 303.04 123.68 302.49 C 123.90 255.99 123.69 209.48 123.79 162.98 C 124.32 152.38 129.03 142.03 136.87 134.84 Z" />
<path fill="#ffffff" opacity="1.00" d=" M 363.40 283.00 C 363.46 231.03 363.26 179.05 363.49 127.08 C 377.04 133.20 387.46 146.84 387.87 161.94 C 387.90 223.94 387.86 285.93 387.89 347.93 C 388.29 359.42 382.64 370.63 374.06 378.10 C 367.18 384.27 358.10 387.49 349.04 388.55 C 288.34 388.55 227.64 388.54 166.94 388.56 C 160.54 388.92 154.22 387.06 148.33 384.73 C 134.26 378.70 124.39 364.28 123.79 348.99 C 123.73 343.61 123.79 338.24 123.79 332.86 C 147.88 332.80 171.96 332.94 196.05 332.82 C 206.74 332.75 217.63 328.89 225.25 321.23 C 234.47 312.47 238.48 299.02 236.72 286.56 C 236.02 277.55 232.97 268.16 226.03 262.02 C 218.95 255.60 209.17 253.46 199.91 252.74 C 193.08 251.88 185.60 251.45 179.91 247.17 C 175.49 243.99 175.42 236.94 179.35 233.37 C 181.90 230.96 185.66 230.79 188.97 230.66 C 211.64 230.69 234.30 230.66 256.96 230.67 C 263.18 230.38 270.46 235.09 269.66 241.98 C 269.63 256.67 269.67 271.35 269.64 286.03 C 269.10 308.26 286.72 329.75 309.03 332.43 C 319.70 333.37 330.88 333.14 340.86 328.85 C 348.65 325.58 355.07 319.27 358.56 311.59 C 362.65 302.68 363.61 292.69 363.40 283.00 Z" />
</svg>
