<?xml version="1.0" encoding="UTF-8" ?>
<!DOCTYPE svg PUBLIC "-//W3C//DTD SVG 1.1//EN" "http://www.w3.org/Graphics/SVG/1.1/DTD/svg11.dtd">
<svg width="512pt" height="512pt" viewBox="0 0 512 512" version="1.1" xmlns="http://www.w3.org/2000/svg">
<path fill="#19bfe5" opacity="1.00" d=" M 0.00 0.00 L 512.00 0.00 L 512.00 512.00 L 0.00 512.00 L 0.00 0.00 Z" />
<path fill="#ffffff" opacity="1.00" d=" M 147.54 111.85 C 150.66 111.19 153.82 110.66 157.02 110.63 C 222.34 110.64 287.67 110.61 352.99 110.64 C 374.16 111.33 393.60 126.82 399.52 147.07 C 402.30 155.11 401.50 163.67 401.61 172.01 C 401.61 233.36 401.61 294.71 401.61 356.06 C 401.09 369.77 394.32 382.98 384.00 391.95 C 375.43 399.36 364.37 403.96 353.02 404.45 C 292.01 404.45 231.01 404.45 170.00 404.45 C 161.94 404.32 153.72 405.14 145.88 402.79 C 124.54 397.39 108.24 377.00 107.73 354.99 C 107.74 294.66 107.73 234.33 107.73 174.00 C 107.84 165.24 107.04 156.27 109.76 147.79 C 114.64 130.15 129.70 115.87 147.54 111.85 Z" />
<path fill="#19bfe5" opacity="1.00" d=" M 161.50 128.65 C 165.25 127.69 169.15 127.56 173.00 127.60 C 229.35 127.63 285.70 127.59 342.04 127.63 C 356.90 127.90 371.36 136.20 379.13 148.88 C 383.96 156.32 385.99 165.20 386.36 173.98 C 386.42 208.32 386.31 242.66 386.35 277.00 C 386.31 280.03 385.75 283.03 385.80 286.07 C 385.86 305.40 385.81 324.72 385.82 344.04 C 385.87 348.06 385.38 352.09 384.12 355.93 C 380.46 372.79 365.03 385.47 348.38 388.40 C 334.98 389.95 321.47 389.01 308.01 389.25 C 268.99 389.22 229.97 389.23 190.95 389.27 C 181.28 389.18 171.55 389.78 161.98 388.16 C 151.63 385.84 141.67 380.23 135.60 371.35 C 128.07 362.03 125.29 349.75 125.63 337.97 C 125.64 283.31 125.55 228.66 125.64 174.01 C 125.95 163.26 129.27 152.46 136.25 144.14 C 142.56 136.29 151.70 130.86 161.50 128.65 Z" />
<path fill="#ffffff" opacity="1.00" d=" M 181.49 158.54 C 189.50 151.33 200.16 146.92 211.00 147.16 C 223.46 146.93 235.75 152.74 243.85 162.15 C 251.59 170.96 255.21 182.94 254.33 194.57 C 269.24 194.60 284.15 194.54 299.06 194.62 C 312.57 194.46 325.90 201.19 333.89 212.06 C 339.07 218.94 341.94 227.40 342.52 235.96 C 343.20 250.63 336.04 265.55 323.78 273.75 C 318.31 277.79 311.74 279.84 305.15 281.21 C 316.30 283.32 326.92 289.02 333.72 298.26 C 341.44 308.54 344.29 322.39 341.15 334.88 C 337.85 349.07 326.75 361.14 312.90 365.65 C 308.15 367.37 303.06 367.85 298.05 368.15 C 279.05 368.18 260.05 368.12 241.05 368.18 C 230.37 367.86 219.55 366.53 209.61 362.40 C 194.12 356.21 181.15 343.92 174.22 328.75 C 170.23 320.03 167.81 310.59 167.51 300.99 C 167.51 264.00 167.54 227.01 167.50 190.01 C 167.58 178.17 172.83 166.57 181.49 158.54 Z" />
<path fill="#19bfe5" opacity="1.00" d=" M 197.86 170.86 C 205.15 166.02 215.23 165.70 222.80 170.09 C 230.48 174.39 235.03 183.29 234.69 191.99 C 234.65 199.43 234.67 206.86 234.67 214.30 C 256.11 214.32 277.56 214.27 299.00 214.32 C 305.94 214.30 312.72 217.51 317.11 222.86 C 322.95 229.23 324.07 238.98 320.93 246.86 C 317.46 255.51 308.48 261.92 299.04 261.51 C 277.58 261.49 256.12 261.51 234.66 261.49 C 234.67 274.44 234.68 287.39 234.64 300.34 C 237.38 300.80 240.17 300.82 242.95 300.76 C 261.31 300.73 279.66 300.78 298.02 300.73 C 302.04 300.71 306.08 301.58 309.68 303.40 C 318.02 307.38 323.26 316.79 322.58 325.97 C 322.21 336.89 313.07 346.93 302.10 347.83 C 280.75 348.35 259.40 347.76 238.05 348.12 C 225.13 347.92 211.81 343.85 202.37 334.71 C 195.58 328.40 191.01 319.93 188.86 310.95 C 186.22 301.85 187.77 292.29 187.47 282.97 C 187.19 266.64 187.72 250.29 187.14 233.96 C 187.45 219.39 187.15 204.81 187.38 190.24 C 187.28 182.57 191.51 175.09 197.86 170.86 Z" />
</svg>
