<?xml version="1.0" encoding="UTF-8" ?>
<!DOCTYPE svg PUBLIC "-//W3C//DTD SVG 1.1//EN" "http://www.w3.org/Graphics/SVG/1.1/DTD/svg11.dtd">
<svg width="512pt" height="512pt" viewBox="0 0 512 512" version="1.1" xmlns="http://www.w3.org/2000/svg">
<path fill="#29adde" opacity="1.00" d=" M 0.00 0.00 L 512.00 0.00 L 512.00 512.00 L 0.00 512.00 L 0.00 0.00 Z" />
<path fill="#ffffff" opacity="1.00" d=" M 312.89 138.93 C 326.36 128.87 343.44 124.78 360.06 125.13 C 371.95 124.97 384.76 127.78 393.30 136.63 C 403.19 146.95 406.26 161.79 406.53 175.65 C 407.91 198.90 398.76 221.01 388.28 241.24 C 374.80 266.53 357.84 289.75 340.22 312.28 C 322.99 333.80 304.53 354.81 281.95 370.89 C 269.33 379.61 254.68 387.07 238.96 386.67 C 228.24 386.48 219.07 379.37 212.74 371.24 C 205.03 361.19 199.62 349.55 195.28 337.71 C 188.48 313.46 181.95 289.14 175.34 264.85 C 171.28 249.87 167.59 234.68 161.32 220.43 C 158.25 213.96 155.10 207.18 149.59 202.41 C 146.87 200.07 142.96 198.08 139.39 199.62 C 131.52 203.15 124.88 208.81 117.47 213.12 C 113.06 206.94 108.01 201.25 103.69 195.02 C 118.19 181.75 133.09 168.90 147.56 155.60 C 157.98 146.81 168.61 137.94 180.94 131.94 C 191.18 126.61 204.26 126.85 214.15 132.90 C 221.03 137.40 225.85 144.41 229.10 151.86 C 234.06 162.97 235.60 175.14 237.48 187.04 C 242.08 214.25 245.66 241.79 253.87 268.22 C 256.24 275.29 258.82 282.54 263.56 288.42 C 265.82 291.35 269.92 293.41 273.53 291.68 C 279.02 289.17 282.96 284.35 286.79 279.84 C 295.30 269.05 302.59 257.33 309.19 245.29 C 314.81 234.37 320.46 222.62 319.67 210.01 C 319.93 202.92 316.45 195.11 309.40 192.60 C 298.82 188.51 287.35 191.87 277.08 195.29 C 283.41 173.75 294.49 152.51 312.89 138.93 Z" />
</svg>
