<?xml version="1.0" encoding="UTF-8" ?>
<!DOCTYPE svg PUBLIC "-//W3C//DTD SVG 1.1//EN" "http://www.w3.org/Graphics/SVG/1.1/DTD/svg11.dtd">
<svg width="512pt" height="512pt" viewBox="0 0 512 512" version="1.1" xmlns="http://www.w3.org/2000/svg">
<path fill="#3b3839" opacity="1.00" d=" M 0.00 0.00 L 512.00 0.00 L 512.00 512.00 L 0.00 512.00 L 0.00 0.00 Z" />
<path fill="#ffffff" opacity="1.00" d=" M 96.57 149.51 C 123.68 149.51 150.79 149.47 177.90 149.50 C 177.86 153.11 177.85 156.72 177.90 160.33 C 171.51 161.39 164.58 163.01 160.00 167.96 C 156.75 171.27 156.45 176.59 158.45 180.63 C 178.63 225.33 197.10 270.79 217.04 315.60 C 217.26 315.48 217.69 315.24 217.90 315.12 C 229.08 294.24 240.26 273.36 251.41 252.46 C 252.33 251.27 251.61 249.97 251.07 248.81 C 239.24 224.31 229.79 198.70 217.27 174.52 C 215.27 170.75 213.61 166.33 209.58 164.25 C 202.80 160.45 194.73 160.49 187.18 160.28 C 187.19 156.70 187.19 153.13 187.15 149.55 C 212.84 149.58 238.53 149.61 264.21 149.67 C 264.27 153.15 264.33 156.64 264.39 160.13 C 260.21 160.78 255.55 161.24 252.36 164.32 C 250.15 166.28 249.56 169.70 250.73 172.36 C 257.82 188.10 265.00 203.80 272.03 219.56 C 279.05 204.45 286.90 189.72 293.20 174.29 C 294.37 170.84 294.28 166.29 291.05 163.96 C 286.10 159.94 279.34 160.70 273.43 159.76 C 273.47 156.39 273.43 153.01 273.36 149.64 C 296.32 149.64 319.28 149.56 342.24 149.56 C 342.20 152.90 342.19 156.24 342.33 159.58 C 332.96 160.94 322.33 163.08 316.70 171.57 C 303.35 192.55 293.41 215.46 283.21 238.07 C 291.18 257.93 300.10 277.47 308.95 296.98 C 311.10 301.04 312.37 305.60 315.12 309.32 C 334.48 264.16 354.30 219.20 373.61 174.02 C 369.41 165.72 360.29 162.09 351.72 160.20 C 351.64 156.64 351.54 153.07 351.38 149.52 C 372.47 149.58 393.56 149.68 414.65 149.73 C 414.73 153.43 414.73 157.14 414.65 160.84 C 405.72 162.55 398.15 169.00 394.37 177.17 C 367.64 238.70 340.89 300.23 314.15 361.75 C 309.52 361.72 304.90 361.90 300.28 361.68 C 287.74 331.48 274.73 301.47 262.05 271.33 C 246.59 301.51 230.96 331.60 215.49 361.78 C 210.71 361.80 205.94 361.85 201.17 361.74 C 175.96 308.93 156.91 253.43 131.33 200.80 C 128.41 195.12 125.97 189.13 122.12 183.98 C 115.35 174.77 107.05 166.25 96.56 161.36 C 96.60 157.41 96.60 153.46 96.57 149.51 Z" />
</svg>
