<?xml version="1.0" encoding="UTF-8" ?>
<!DOCTYPE svg PUBLIC "-//W3C//DTD SVG 1.1//EN" "http://www.w3.org/Graphics/SVG/1.1/DTD/svg11.dtd">
<svg width="512pt" height="512pt" viewBox="0 0 512 512" version="1.1" xmlns="http://www.w3.org/2000/svg">
<path fill="#3b3839" opacity="1.00" d=" M 0.00 0.00 L 512.00 0.00 L 512.00 512.00 L 0.00 512.00 L 0.00 0.00 Z" />
<path fill="#ffffff" opacity="1.00" d=" M 325.87 130.90 C 328.89 130.02 332.09 129.78 335.02 128.54 C 339.77 132.01 344.24 135.86 349.02 139.28 C 352.79 138.54 355.80 141.27 358.36 143.60 C 360.46 145.53 362.31 147.88 362.66 150.80 C 365.61 154.99 369.20 158.69 372.06 162.95 C 372.35 161.18 373.36 160.29 375.11 160.31 C 377.74 162.86 379.55 166.09 381.58 169.11 C 389.03 180.49 394.99 192.88 398.97 205.89 C 399.64 210.09 401.53 213.95 402.37 218.11 C 407.13 240.02 407.01 263.00 402.07 284.87 C 393.69 321.31 371.00 354.18 339.95 374.99 C 337.17 376.63 334.75 379.37 331.38 379.64 L 331.60 380.33 C 304.63 395.97 272.77 403.12 241.73 400.02 C 215.77 397.55 190.49 388.13 169.30 372.93 C 169.25 372.74 169.15 372.34 169.09 372.15 C 171.18 372.33 172.92 373.73 174.93 374.28 C 175.55 373.27 176.18 372.27 176.83 371.29 C 180.63 374.87 185.14 377.84 190.13 379.42 C 192.17 380.42 193.77 378.57 195.32 377.56 C 201.98 381.92 208.62 386.32 215.32 390.62 C 215.23 391.24 215.03 392.48 214.93 393.10 C 219.77 396.46 225.76 397.17 231.50 396.84 C 231.38 396.27 231.12 395.14 230.99 394.58 C 226.27 395.94 221.34 394.94 217.10 392.65 C 217.26 391.94 217.57 390.52 217.73 389.81 C 213.32 387.06 208.70 384.65 204.44 381.65 C 201.39 379.59 198.37 377.34 194.87 376.10 C 192.94 376.66 191.19 378.51 189.06 377.65 C 185.37 376.49 182.15 374.22 179.17 371.80 C 177.35 370.26 175.15 368.57 175.25 365.91 C 174.76 366.15 173.78 366.63 173.29 366.87 C 174.03 367.98 174.78 369.06 175.56 370.15 C 175.05 370.54 174.54 370.92 174.04 371.31 C 171.41 368.23 168.25 365.57 164.60 363.80 C 166.77 367.36 170.80 369.25 172.88 372.88 C 168.09 370.64 164.30 366.82 160.57 363.19 C 161.12 367.04 165.56 367.71 167.06 370.80 L 167.34 371.40 C 153.08 361.27 141.03 348.16 131.23 333.70 C 126.48 326.70 122.72 319.11 118.84 311.62 C 119.54 311.61 120.93 311.59 121.63 311.58 C 120.97 307.57 119.53 303.74 118.13 299.95 C 116.99 297.16 116.03 294.10 113.60 292.14 C 111.11 285.24 110.23 277.91 109.19 270.69 C 108.86 270.76 108.19 270.88 107.85 270.95 C 105.92 261.93 106.16 252.70 106.11 243.54 C 108.21 244.13 108.12 242.09 108.34 240.89 C 108.68 237.54 108.63 234.17 108.85 230.82 C 109.61 228.12 110.02 225.34 110.41 222.56 C 114.58 222.06 118.03 226.65 122.25 224.22 C 126.39 220.71 125.29 214.91 125.81 210.15 C 126.56 206.70 130.52 207.02 133.19 207.50 C 133.45 209.05 133.74 210.60 134.05 212.15 C 134.87 210.03 135.10 207.38 133.15 205.79 C 130.61 204.67 127.11 205.07 125.38 207.43 C 123.01 210.07 123.93 213.87 123.56 217.09 C 123.42 219.89 121.21 223.07 118.10 222.74 C 115.74 222.00 113.54 220.85 111.22 219.98 C 112.12 216.66 113.06 213.35 114.09 210.06 C 117.67 209.33 118.03 205.08 119.51 202.37 C 119.02 201.60 118.53 200.83 118.04 200.07 C 117.66 201.49 117.29 202.92 116.91 204.35 C 112.31 205.66 112.75 211.47 111.15 215.12 C 111.47 208.63 114.25 202.64 116.37 196.60 C 119.33 188.53 123.44 180.98 127.47 173.42 C 128.71 172.35 130.16 171.57 131.67 170.95 C 134.13 167.81 135.21 162.94 139.69 162.14 C 143.43 159.22 143.41 154.01 146.87 150.96 C 149.06 148.78 151.12 146.44 153.51 144.47 C 156.89 142.55 160.60 141.10 163.54 138.46 C 165.75 136.67 166.75 133.71 169.25 132.23 C 171.27 130.94 173.64 130.42 175.97 130.05 C 176.60 130.91 177.23 131.78 177.86 132.65 C 180.13 131.67 182.45 130.80 184.80 130.03 C 185.73 131.60 186.63 133.18 187.51 134.78 C 185.21 138.68 183.73 143.21 180.36 146.36 C 178.58 148.06 175.95 147.23 173.76 147.42 C 174.94 149.19 176.33 150.84 177.26 152.77 C 176.89 158.16 173.69 162.72 171.33 167.40 C 169.06 171.38 167.91 175.84 166.07 180.01 C 165.22 179.06 164.38 178.11 163.55 177.15 C 164.35 174.27 165.22 171.42 166.05 168.56 C 164.81 169.23 163.57 169.92 162.34 170.59 C 161.63 173.60 160.11 177.21 161.92 180.05 C 164.12 182.75 167.53 179.94 170.29 180.64 C 171.29 184.16 171.48 188.75 168.43 191.34 C 166.27 193.23 163.44 192.00 160.96 191.74 C 157.88 190.97 155.60 193.79 153.88 195.89 C 148.75 202.82 148.86 211.88 149.83 220.05 C 143.30 220.76 135.61 223.71 129.94 219.02 C 130.87 220.66 131.64 222.78 133.78 223.14 C 139.66 224.40 145.69 222.79 151.40 221.38 C 149.25 228.00 152.31 235.32 149.82 241.98 C 149.32 243.16 148.61 244.74 147.12 244.78 C 144.57 243.98 141.90 241.59 139.18 243.21 C 135.49 244.87 135.23 249.49 135.08 252.99 C 134.76 257.15 135.53 262.12 139.49 264.39 C 142.62 265.60 144.59 261.93 147.24 261.01 C 148.92 262.06 149.37 264.12 149.74 265.92 C 151.05 273.43 151.51 281.07 151.57 288.69 C 143.57 289.74 134.95 288.13 128.36 283.32 C 128.32 283.67 128.23 284.38 128.19 284.73 C 135.01 290.05 144.08 291.44 152.49 290.39 C 148.55 295.72 150.59 302.87 152.22 308.68 C 153.26 312.85 156.50 316.38 160.88 316.99 C 164.38 318.11 167.43 315.93 170.25 314.21 C 175.23 315.95 177.28 321.48 178.50 326.17 C 177.68 327.53 177.07 329.86 174.99 329.55 C 171.02 329.85 167.76 327.19 164.06 326.32 C 160.71 325.69 157.34 328.58 157.48 331.99 C 157.59 336.91 160.21 341.29 162.34 345.60 C 158.10 344.69 153.99 343.26 149.77 342.31 C 153.65 345.75 159.21 346.08 164.09 347.03 C 164.79 350.91 167.85 353.67 170.43 356.42 C 174.25 360.10 177.15 364.61 180.91 368.33 L 182.92 368.57 C 178.54 360.52 171.05 354.90 165.76 347.57 C 173.80 348.54 181.90 348.97 189.98 349.37 C 195.00 349.66 200.14 349.30 205.01 350.81 C 204.90 353.94 203.03 356.88 203.54 360.02 C 206.69 364.17 212.38 363.78 217.02 363.83 C 223.16 363.79 230.28 363.75 234.86 358.97 C 232.78 356.59 229.87 355.22 227.59 353.09 C 226.98 351.50 228.82 350.62 229.77 349.75 C 235.02 346.57 241.19 345.50 247.06 344.01 C 253.28 342.40 259.65 341.49 266.01 340.61 C 265.79 346.47 270.84 350.85 275.81 352.96 C 277.38 353.91 280.45 354.30 279.91 356.81 C 278.80 359.59 275.79 361.00 272.99 361.42 C 268.73 362.33 264.23 362.02 260.12 363.59 C 264.46 363.85 268.78 363.21 273.07 362.60 C 276.18 362.16 279.38 360.83 281.16 358.11 C 282.12 356.66 282.39 354.29 280.80 353.19 C 277.69 350.90 273.61 350.08 270.99 347.10 C 268.16 344.48 267.65 340.45 265.56 337.34 C 263.53 334.02 261.58 330.02 262.96 326.08 C 264.99 320.68 270.05 316.08 275.98 315.78 C 279.49 315.42 282.95 316.52 286.46 316.34 C 289.64 315.56 290.34 311.77 290.34 308.99 C 290.27 305.16 289.92 300.81 287.16 297.88 C 283.82 294.28 277.51 294.72 274.36 298.34 C 271.40 301.57 267.59 303.94 263.52 305.49 C 261.27 306.27 259.61 304.00 258.40 302.47 C 253.49 295.52 254.46 286.55 254.49 278.52 C 264.89 277.90 275.70 277.95 285.42 273.69 C 289.08 272.04 292.83 270.44 296.03 267.98 C 297.94 266.67 298.34 263.88 297.25 261.93 C 294.95 259.40 291.42 258.34 289.32 255.62 C 289.17 250.85 294.29 248.00 298.03 246.10 C 303.98 243.91 310.55 241.26 316.94 242.85 C 321.27 247.21 314.17 251.81 315.42 256.60 C 324.36 255.23 332.65 251.32 340.93 247.84 C 349.46 244.31 357.04 238.94 364.28 233.28 C 368.87 229.57 372.81 224.96 378.18 222.30 C 382.19 226.01 381.47 231.95 383.01 236.74 C 384.33 239.61 387.86 238.34 389.52 236.52 C 393.85 233.21 393.09 226.76 390.51 222.59 C 389.52 226.47 389.75 230.48 389.73 234.44 C 388.13 235.09 386.52 235.72 384.90 236.30 C 384.51 231.21 384.19 225.49 380.58 221.52 C 378.84 219.45 376.11 221.13 374.39 222.34 C 368.59 226.88 363.49 232.28 357.39 236.45 C 354.42 238.54 350.50 239.38 348.53 242.71 C 348.80 233.48 345.73 224.18 340.17 216.84 C 338.97 214.94 336.43 214.75 334.54 215.58 C 333.13 217.80 332.69 220.76 330.39 222.31 C 327.87 223.81 324.43 225.18 321.73 223.31 C 318.40 220.98 316.71 216.92 315.96 213.05 C 315.49 210.54 315.80 207.37 318.09 205.82 C 321.07 204.82 324.27 205.09 327.31 204.39 C 329.67 202.37 328.18 198.85 327.42 196.39 C 325.50 190.26 320.18 186.37 316.32 181.54 C 312.15 176.54 307.87 171.57 304.44 166.02 C 305.33 164.33 305.94 161.91 308.09 161.42 C 311.03 161.04 314.66 163.69 316.93 160.83 C 319.68 156.62 315.95 151.79 312.83 148.97 C 313.66 152.18 316.73 154.64 316.49 158.11 C 315.10 161.20 311.47 159.16 308.94 159.30 C 305.77 158.77 303.27 162.08 303.30 165.00 C 303.02 167.12 304.54 168.77 305.68 170.36 C 309.42 175.15 313.11 179.97 317.20 184.47 C 309.53 187.05 302.03 190.48 293.94 191.47 C 292.21 191.85 290.63 191.00 289.08 190.41 C 289.83 187.92 290.63 185.45 291.34 182.96 C 291.09 182.35 290.60 181.15 290.35 180.55 C 284.04 177.70 276.56 178.25 270.49 181.42 C 267.25 183.24 263.64 185.21 262.48 189.02 C 263.46 191.03 264.45 193.24 266.50 194.40 C 268.73 195.59 271.32 195.79 273.60 196.87 C 273.89 199.26 271.10 200.48 269.26 201.25 C 259.68 204.24 249.68 205.54 239.84 207.39 C 239.15 208.56 238.45 209.73 237.74 210.89 C 239.37 217.26 241.61 223.52 242.35 230.08 C 242.74 231.88 240.59 232.76 239.28 233.35 C 235.20 234.57 231.09 231.68 226.92 232.79 C 221.89 233.24 218.36 238.17 218.52 243.03 C 217.93 249.28 220.20 257.38 226.90 259.35 C 231.03 260.08 232.91 255.88 235.61 253.75 C 239.22 252.61 243.47 253.06 246.25 255.80 C 252.48 260.88 252.75 269.62 252.56 276.99 C 238.31 277.93 224.19 280.96 210.79 285.89 C 208.57 286.90 204.98 287.90 205.46 291.02 C 207.00 294.52 210.54 296.48 213.05 299.21 C 208.10 303.48 201.22 304.13 195.02 305.19 C 191.71 305.78 186.62 305.20 186.34 300.96 C 188.11 298.79 191.46 296.89 190.30 293.57 C 188.17 288.46 182.25 285.83 176.94 286.24 C 169.09 286.66 161.22 287.32 153.46 288.62 C 153.61 281.36 152.87 274.11 151.85 266.93 C 151.32 264.16 150.82 260.59 147.87 259.35 C 145.29 259.27 143.63 261.67 141.74 263.04 C 138.27 261.99 136.54 258.46 136.80 255.01 C 137.02 251.59 136.58 246.92 140.12 245.02 C 143.11 243.16 145.91 247.48 148.89 246.25 C 151.50 244.45 152.31 241.11 152.56 238.13 C 152.98 232.58 152.49 227.01 152.65 221.46 C 152.97 221.41 153.62 221.33 153.95 221.28 C 152.72 220.53 152.16 219.43 152.25 217.98 C 151.77 210.50 151.73 202.01 157.13 196.13 C 158.79 194.16 161.51 194.61 163.79 194.49 C 163.99 194.97 164.40 195.93 164.60 196.41 C 163.15 196.64 161.74 197.02 160.38 197.54 C 161.72 197.53 163.07 197.49 164.42 197.41 C 164.91 196.71 165.42 196.02 165.94 195.34 C 173.38 194.27 175.40 184.89 172.81 178.86 C 178.80 182.86 177.47 191.44 173.04 196.06 C 181.05 195.48 189.26 194.20 196.25 189.97 C 194.75 187.99 192.20 186.02 193.26 183.21 C 196.33 179.42 201.27 177.31 206.01 176.67 C 210.02 175.81 213.24 179.95 212.72 183.70 C 221.38 182.20 229.72 179.38 238.12 176.83 C 236.20 175.76 233.99 175.62 231.92 175.05 C 230.41 173.75 230.18 171.64 229.65 169.85 C 228.69 165.08 227.98 160.26 227.16 155.47 C 233.75 154.45 240.26 152.83 246.38 150.17 C 245.07 146.85 244.49 142.13 247.90 139.86 C 252.22 137.01 258.13 136.67 262.94 138.40 C 265.54 139.65 263.54 143.29 264.92 145.23 C 270.43 146.59 275.85 144.32 281.08 142.86 C 288.45 140.58 295.94 138.72 303.23 136.18 C 308.04 134.46 313.38 133.40 318.42 134.66 C 320.10 136.33 321.02 138.70 323.02 140.05 C 324.57 140.74 326.33 140.73 327.99 141.00 C 325.97 139.45 323.95 137.90 322.08 136.18 C 323.29 134.39 324.28 132.40 325.87 130.90 Z" />
<path fill="#3b3839" opacity="1.00" d=" M 153.53 150.97 C 160.08 150.04 160.81 141.11 166.91 139.35 C 162.63 144.92 158.25 150.40 154.26 156.18 C 155.06 156.19 156.65 156.20 157.44 156.20 C 156.66 159.74 152.49 161.21 152.30 164.83 C 149.49 161.31 145.00 164.82 143.99 168.10 C 142.85 170.59 142.12 174.06 139.06 174.84 C 135.99 176.39 132.21 174.71 129.29 176.29 C 126.42 180.01 124.47 184.35 122.43 188.55 C 120.39 192.42 121.18 196.97 119.93 201.08 C 118.68 199.00 117.99 196.41 118.73 194.04 C 120.30 188.67 123.18 183.82 125.68 178.85 C 126.55 177.30 126.69 175.26 128.23 174.17 C 131.62 171.50 136.39 174.84 139.62 171.65 C 141.27 167.93 142.63 163.60 146.55 161.64 C 148.28 160.40 150.30 160.80 152.17 161.48 C 153.17 160.23 154.11 158.93 155.08 157.64 C 154.16 157.82 152.31 158.17 151.39 158.35 C 152.82 155.98 154.39 153.70 156.00 151.45 C 154.76 151.78 152.27 152.43 151.02 152.75 C 152.20 150.66 153.50 148.64 154.80 146.62 C 155.34 146.49 156.40 146.23 156.94 146.10 C 155.79 147.71 154.63 149.32 153.53 150.97 Z" />
<path fill="#3b3839" opacity="1.00" d=" M 330.79 152.08 C 329.47 148.48 332.25 144.54 335.94 144.20 C 339.80 143.26 342.69 146.44 345.33 148.67 C 346.27 147.79 347.22 146.91 348.17 146.03 C 350.11 148.16 352.08 150.27 354.10 152.33 C 350.92 154.67 348.91 150.64 346.68 149.02 C 347.82 151.58 349.87 153.58 351.11 156.08 C 352.25 159.11 348.45 160.13 346.61 161.49 L 347.42 162.74 C 346.97 162.75 346.07 162.79 345.62 162.80 C 344.52 165.21 341.72 166.36 339.56 164.49 C 335.68 161.23 332.50 156.86 330.79 152.08 Z" />
<path fill="#ffffff" opacity="1.00" d=" M 335.35 144.68 C 340.35 146.58 343.86 150.85 347.08 154.92 C 348.28 156.28 348.87 158.01 349.27 159.76 C 346.99 158.78 345.67 156.64 344.15 154.81 C 341.42 151.26 338.05 148.26 335.35 144.68 Z" />
<path fill="#ffffff" opacity="1.00" d=" M 332.33 146.04 C 337.24 150.44 340.93 155.96 345.28 160.88 C 344.85 161.61 344.42 162.33 343.99 163.06 C 340.42 160.96 338.20 157.41 336.03 154.03 C 334.48 151.53 332.52 149.10 332.33 146.04 Z" />
<path fill="#3b3839" opacity="1.00" d=" M 258.94 154.84 C 260.49 154.59 262.06 154.41 263.63 154.24 C 263.71 155.07 263.89 156.74 263.97 157.58 C 266.27 157.24 268.53 156.59 270.41 155.16 C 271.70 155.61 272.99 156.08 274.27 156.56 C 273.79 160.28 274.25 164.22 272.54 167.69 C 271.34 170.50 269.29 172.88 266.83 174.67 C 269.15 169.41 271.76 163.93 270.45 158.01 C 266.14 158.45 262.06 159.96 258.00 161.39 C 259.16 163.46 260.26 165.56 261.05 167.80 C 256.38 167.97 256.21 162.40 253.31 159.90 C 256.36 159.94 259.39 159.51 262.21 158.28 C 261.13 157.12 260.04 155.97 258.94 154.84 Z" />
<path fill="#3b3839" opacity="1.00" d=" M 280.90 158.11 C 281.80 158.23 283.61 158.48 284.51 158.61 C 283.96 160.72 282.52 162.90 283.33 165.15 C 284.24 167.78 285.78 170.21 286.02 173.06 C 282.46 172.53 282.53 168.28 281.06 165.73 C 279.76 166.85 278.46 167.98 277.06 168.99 C 278.31 165.31 281.46 162.30 280.90 158.11 Z" />
<path fill="#3b3839" opacity="1.00" d=" M 237.15 175.17 C 240.35 174.06 241.81 170.52 244.99 169.47 C 247.31 169.43 248.65 171.58 250.00 173.13 C 246.40 174.11 242.80 175.09 239.35 176.51 C 238.61 176.06 237.88 175.62 237.15 175.17 Z" />
<path fill="#3b3839" opacity="1.00" d=" M 145.28 181.13 C 146.46 181.22 147.64 181.32 148.82 181.44 C 148.26 184.22 147.07 186.79 145.98 189.39 C 145.50 188.95 145.03 188.51 144.57 188.07 C 145.44 186.50 146.22 184.87 146.89 183.20 C 144.00 184.62 144.07 188.32 141.95 190.42 C 142.79 190.12 144.47 189.53 145.32 189.24 C 144.11 190.75 142.85 192.23 141.57 193.68 C 142.49 196.43 140.06 198.56 137.87 199.66 C 136.40 199.65 135.02 198.58 135.21 196.99 C 134.92 194.16 137.55 192.31 138.67 189.99 C 136.80 191.14 135.24 192.69 133.75 194.29 C 130.99 194.46 128.23 194.67 125.48 194.87 C 126.51 191.51 128.60 188.63 131.56 186.72 C 131.68 187.35 131.91 188.61 132.03 189.24 C 130.19 189.66 128.55 190.47 127.09 191.67 C 129.69 191.61 132.29 191.56 134.89 191.43 C 136.25 190.04 137.71 188.73 139.36 187.68 C 139.85 191.45 137.71 194.53 136.07 197.69 C 138.31 197.95 139.72 196.45 141.03 194.95 C 140.86 194.57 140.53 193.80 140.36 193.42 C 141.78 189.24 143.36 185.11 145.28 181.13 Z" />
<path fill="#ffffff" opacity="1.00" d=" M 275.45 181.52 C 279.67 180.57 284.40 179.90 288.50 181.61 C 291.30 184.23 286.95 187.94 287.92 190.98 C 288.88 193.36 291.90 193.36 294.06 193.31 C 303.01 192.68 311.24 188.78 319.72 186.19 C 322.93 191.02 327.10 195.91 327.13 202.01 C 323.72 204.14 317.47 201.56 315.24 206.13 C 312.81 212.23 315.63 219.39 319.97 223.92 C 323.36 227.48 328.99 226.19 332.45 223.44 C 334.45 221.85 335.10 219.25 336.02 216.98 C 337.27 217.28 339.03 216.85 339.65 218.33 C 344.25 225.35 347.50 233.48 347.46 241.97 C 337.57 246.81 327.66 251.77 317.08 254.92 C 319.01 251.65 321.11 247.95 320.35 244.00 C 318.95 240.89 315.17 239.31 311.92 239.86 C 305.66 240.78 299.44 242.66 293.96 245.86 C 290.64 248.13 286.82 251.57 287.55 256.03 C 288.88 259.79 293.38 260.53 295.73 263.38 C 296.28 264.88 295.21 266.18 294.00 266.93 C 286.77 271.51 278.65 274.96 270.04 275.54 C 264.89 276.18 259.61 275.93 254.58 277.28 C 254.78 269.51 254.54 260.32 248.11 254.85 C 244.96 251.37 239.86 250.52 235.49 251.75 C 232.81 252.92 231.78 256.19 229.06 257.27 C 225.94 258.16 223.60 255.18 222.18 252.83 C 220.20 248.52 219.69 243.28 221.56 238.85 C 222.72 235.87 226.04 234.47 229.06 234.53 C 232.79 234.38 236.52 236.76 240.17 235.19 C 242.42 234.49 244.58 232.69 244.31 230.09 C 243.92 222.79 240.81 216.06 239.10 209.04 C 249.15 207.87 259.13 206.06 268.95 203.64 C 272.17 202.94 275.59 200.48 275.37 196.83 C 274.11 194.62 271.20 194.68 269.11 193.73 C 266.62 193.14 263.94 190.84 264.81 188.04 C 267.03 184.29 271.54 182.82 275.45 181.52 Z" />
<path fill="#3b3839" opacity="1.00" d=" M 370.33 188.89 C 370.37 186.65 372.80 183.87 374.82 186.11 C 378.74 191.14 380.33 197.70 380.55 203.99 C 380.56 207.01 380.42 210.76 377.66 212.64 C 376.13 213.85 374.06 213.24 372.52 212.41 C 366.99 209.44 362.94 204.05 361.20 198.05 C 365.31 201.42 367.98 207.79 374.02 207.83 C 376.29 208.05 377.33 205.88 378.43 204.33 C 374.47 200.12 369.84 195.09 370.33 188.89 Z" />
<path fill="#ffffff" opacity="1.00" d=" M 373.13 190.78 C 376.06 192.13 377.46 195.25 377.72 198.32 C 375.61 196.23 373.11 194.02 373.13 190.78 Z" />
<path fill="#3b3839" opacity="1.00" d=" M 264.73 215.30 C 278.00 211.04 291.65 208.14 305.10 204.48 C 304.22 205.91 302.71 207.07 302.52 208.82 C 301.27 217.20 300.81 225.68 299.33 234.03 C 296.19 230.86 293.23 227.51 290.54 223.95 C 289.31 228.36 288.54 232.89 287.28 237.30 C 281.79 230.91 276.69 224.18 271.08 217.89 C 269.58 215.89 266.90 215.95 264.73 215.30 Z" />
<path fill="#ffffff" opacity="1.00" d=" M 291.49 219.12 C 292.33 214.93 292.42 210.02 296.02 207.09 C 297.44 207.39 298.86 207.69 300.29 207.98 C 300.29 214.63 299.19 221.24 298.71 227.87 C 296.32 224.97 292.98 222.59 291.49 219.12 Z" />
<path fill="#3b3839" opacity="1.00" d=" M 388.14 215.46 C 389.65 210.78 394.68 209.60 398.80 208.29 C 398.89 208.71 399.06 209.56 399.14 209.98 C 399.02 211.68 397.09 211.24 395.96 211.67 C 393.01 212.08 390.61 213.94 388.14 215.46 Z" />
<path fill="#ffffff" opacity="1.00" d=" M 284.29 211.94 C 285.42 211.08 286.55 210.22 287.67 209.35 C 288.82 209.85 289.96 210.34 291.12 210.83 C 290.76 213.26 290.40 215.69 290.06 218.12 C 288.12 216.07 286.17 214.04 284.29 211.94 Z" />
<path fill="#ffffff" opacity="1.00" d=" M 275.03 212.83 C 276.64 212.79 278.26 212.69 279.88 212.78 C 283.29 215.56 285.99 219.11 288.99 222.32 C 288.53 225.30 287.86 228.25 287.27 231.21 C 282.63 225.85 278.06 220.44 273.71 214.85 C 274.21 214.57 275.21 214.01 275.72 213.73 L 275.03 212.83 Z" />
<path fill="#3b3839" opacity="1.00" d=" M 119.78 234.20 C 118.65 232.44 119.32 230.34 119.80 228.50 C 120.09 229.75 120.37 231.00 120.63 232.26 C 122.50 232.74 124.42 233.08 126.24 233.75 C 128.11 234.58 128.15 237.08 129.15 238.60 C 128.34 238.40 126.73 238.00 125.93 237.80 L 127.09 237.10 C 124.64 236.29 121.33 236.63 119.78 234.20 Z" />
<path fill="#3b3839" opacity="1.00" d=" M 116.60 237.29 C 119.97 238.06 123.26 239.13 126.61 239.96 L 126.73 238.41 C 128.39 240.61 132.39 240.56 132.53 243.76 C 129.39 243.26 126.36 242.28 123.34 241.31 C 122.99 244.24 122.71 247.19 122.81 250.14 C 124.00 248.83 125.16 247.50 126.33 246.18 C 128.96 250.36 129.71 256.38 126.39 260.38 C 123.74 263.34 119.85 259.77 119.23 256.82 C 117.93 251.89 117.20 246.54 118.29 241.51 C 118.98 246.87 118.24 253.71 123.00 257.43 C 127.13 258.23 127.32 252.81 127.28 250.04 C 126.20 251.08 125.14 252.15 124.07 253.22 C 123.62 253.29 122.72 253.45 122.27 253.53 C 120.51 249.56 121.54 245.17 121.81 241.02 C 119.76 240.20 116.74 240.19 116.60 237.29 Z" />
<path fill="#3b3839" opacity="1.00" d=" M 391.99 240.53 C 393.11 240.49 394.22 240.45 395.35 240.42 C 396.01 245.95 396.76 251.49 396.73 257.07 C 396.92 262.51 397.87 268.32 395.72 273.50 C 395.29 268.15 395.73 262.78 395.49 257.43 C 394.20 259.03 392.95 260.65 391.67 262.25 C 391.56 266.33 392.12 270.62 390.59 274.51 C 390.11 270.73 390.27 266.91 390.22 263.12 C 389.04 264.25 387.88 265.40 386.73 266.56 C 385.72 265.92 384.73 265.29 383.75 264.63 C 388.76 263.15 392.69 259.47 395.64 255.28 C 395.21 251.38 394.78 247.48 394.34 243.59 C 393.54 242.57 392.76 241.56 391.99 240.53 Z" />
<path fill="#3b3839" opacity="1.00" d=" M 177.70 254.91 C 180.29 244.23 195.76 239.89 203.73 247.29 C 207.94 251.11 208.76 258.00 205.96 262.86 C 204.36 265.77 201.03 267.03 199.19 269.73 C 203.09 268.90 208.94 269.70 210.16 264.72 C 210.79 267.19 211.35 269.68 211.82 272.19 C 207.38 272.63 202.98 273.39 198.62 274.32 C 198.32 272.17 198.02 270.02 197.70 267.88 C 204.20 263.48 203.30 253.72 198.49 248.43 C 195.43 245.11 189.94 244.45 186.45 247.51 C 181.01 251.90 181.84 260.25 185.33 265.62 C 186.42 267.51 188.64 268.11 190.52 268.92 C 190.05 269.49 189.58 270.07 189.11 270.64 C 181.75 269.64 176.14 262.29 177.70 254.91 Z" />
<path fill="#3b3839" opacity="1.00" d=" M 389.12 244.09 C 391.28 245.83 393.91 247.80 393.44 250.98 C 393.87 253.90 391.43 259.58 387.86 257.25 C 384.52 253.16 387.56 248.19 389.12 244.09 Z" />
<path fill="#ffffff" opacity="1.00" d=" M 387.99 253.12 C 387.31 250.83 388.82 248.77 390.03 246.99 C 392.36 249.15 392.42 253.08 390.60 255.57 C 388.93 256.42 388.29 254.36 387.99 253.12 Z" />
<path fill="#3b3839" opacity="1.00" d=" M 115.71 262.48 C 119.76 261.09 123.76 263.86 125.97 267.09 C 123.27 265.75 120.62 264.29 117.75 263.35 C 114.42 267.22 117.69 272.29 116.58 276.74 C 115.90 276.29 114.52 275.41 113.84 274.97 C 114.25 274.80 115.09 274.47 115.51 274.31 C 115.08 270.45 113.44 266.05 115.71 262.48 Z" />
<path fill="#3b3839" opacity="1.00" d=" M 324.13 269.39 C 326.94 268.47 329.60 267.17 332.38 266.16 C 331.39 267.71 329.93 268.85 328.52 269.99 C 329.24 274.90 330.81 279.63 331.72 284.51 C 332.60 288.09 332.78 291.92 334.62 295.20 C 336.12 294.86 337.63 294.55 339.16 294.34 C 334.80 297.19 329.72 298.79 324.84 300.54 C 326.13 299.23 327.65 298.18 328.86 296.80 C 328.65 290.30 326.47 284.04 325.20 277.70 C 321.98 283.76 319.65 290.26 316.15 296.18 C 315.27 297.82 313.78 299.83 315.16 301.66 C 316.91 302.05 318.73 301.67 320.51 301.71 C 315.75 304.30 310.39 305.79 305.13 307.01 C 306.64 305.92 308.24 304.97 309.84 304.01 C 309.35 296.14 306.86 288.53 305.04 280.89 C 304.63 277.60 300.94 278.87 298.68 278.66 C 303.66 276.44 308.95 274.96 314.13 273.30 C 312.70 274.57 311.11 275.64 309.75 276.99 C 310.23 283.81 313.03 290.27 313.93 297.06 C 317.48 290.13 320.70 283.02 324.04 275.98 C 324.97 274.52 323.50 273.00 323.24 271.55 C 321.71 271.85 320.18 272.17 318.65 272.42 C 319.90 270.57 322.17 270.13 324.13 269.39 Z" />
<path fill="#3b3839" opacity="1.00" d=" M 178.37 270.16 C 181.02 274.07 185.71 272.02 189.54 271.69 C 190.03 271.26 190.51 270.83 191.00 270.40 C 191.36 272.04 191.76 273.68 192.18 275.32 C 188.05 276.05 183.93 276.74 179.81 277.49 C 179.38 275.03 178.89 272.59 178.37 270.16 Z" />
<path fill="#ffffff" opacity="1.00" d=" M 208.67 288.78 C 222.98 282.56 238.46 279.72 253.93 278.33 C 251.68 281.41 252.53 285.36 252.52 288.90 C 252.93 295.21 254.12 302.39 259.44 306.52 C 262.72 309.03 266.67 306.38 269.73 304.80 C 273.05 303.22 275.12 300.03 278.15 298.09 C 281.90 296.05 286.74 298.54 287.72 302.58 C 288.74 306.44 289.64 311.56 286.72 314.77 C 280.66 314.79 273.92 312.92 268.51 316.58 C 264.30 319.71 260.23 324.41 260.56 329.99 C 260.50 333.43 262.51 336.37 264.07 339.27 C 253.81 340.55 243.69 342.89 233.84 346.00 C 230.63 347.32 226.48 348.57 225.24 352.17 C 225.10 355.91 229.45 357.40 231.89 359.36 C 226.21 362.64 219.40 362.61 213.03 362.47 C 210.14 362.48 207.37 361.61 204.90 360.14 C 205.46 357.28 207.09 354.44 206.38 351.46 C 205.13 348.70 201.65 348.60 199.06 348.39 C 187.66 347.98 176.27 347.28 164.91 346.17 C 162.98 342.15 160.52 338.29 159.48 333.92 C 158.62 330.93 161.01 327.70 164.02 327.40 C 168.35 328.35 172.35 331.59 177.00 330.57 C 179.84 329.95 180.67 326.34 180.01 323.88 C 178.90 319.21 175.85 314.80 171.57 312.52 C 168.74 311.38 166.80 314.88 164.06 314.87 C 160.62 315.37 156.66 314.22 155.20 310.79 C 152.42 304.42 151.21 297.05 153.65 290.36 C 162.05 289.26 170.49 288.17 178.98 288.13 C 183.14 288.06 187.42 290.14 189.32 293.96 C 189.71 297.13 184.87 297.85 185.14 301.00 C 185.34 304.36 188.70 306.79 191.92 306.78 C 198.40 306.80 204.93 305.47 210.88 302.87 C 212.64 302.01 215.48 300.49 214.17 298.11 C 212.16 295.16 209.17 293.10 206.62 290.66 C 207.21 289.91 207.89 289.28 208.67 288.78 Z" />
<path fill="#3b3839" opacity="1.00" d=" M 120.38 291.26 C 126.16 290.90 129.51 296.62 132.65 300.57 C 132.56 300.87 132.37 301.46 132.27 301.76 C 129.43 298.25 126.50 294.04 121.66 293.39 C 122.08 295.65 121.98 298.37 123.65 300.17 C 127.98 302.73 133.08 303.28 137.68 305.14 C 137.98 305.74 138.59 306.94 138.89 307.54 C 137.99 307.30 136.18 306.81 135.27 306.56 C 136.76 312.89 139.18 318.93 141.35 325.04 C 138.83 323.34 137.96 320.39 137.07 317.66 C 135.08 318.69 133.44 317.28 131.91 316.16 C 133.22 315.57 136.41 315.13 135.29 312.95 C 135.02 311.73 134.74 310.53 134.47 309.32 C 134.12 308.32 133.78 307.32 133.44 306.32 C 130.36 305.24 127.28 304.12 124.22 302.99 C 125.49 308.54 128.22 313.71 128.97 319.37 C 124.95 313.50 125.35 305.55 120.74 300.08 C 121.91 297.27 120.00 294.22 120.38 291.26 Z" />
<path fill="#ffffff" opacity="1.00" d=" M 112.60 294.12 C 113.59 295.52 114.58 296.98 115.97 298.04 C 117.17 300.83 118.10 303.74 118.87 306.68 C 118.37 306.64 117.35 306.55 116.85 306.51 C 115.33 302.41 113.86 298.30 112.60 294.12 Z" />
<path fill="#3b3839" opacity="1.00" d=" M 380.28 315.57 C 382.59 311.01 385.38 304.95 391.11 304.37 C 391.14 305.31 391.18 307.19 391.20 308.13 C 388.04 311.24 384.35 313.80 380.28 315.57 Z" />
<path fill="#3b3839" opacity="1.00" d=" M 129.97 313.81 C 129.64 312.01 128.83 310.14 129.64 308.36 C 130.61 308.43 132.56 308.58 133.53 308.65 C 132.34 310.37 131.11 312.05 129.97 313.81 Z" />
<path fill="#3b3839" opacity="1.00" d=" M 198.86 310.25 C 200.21 311.28 201.56 312.34 202.87 313.45 C 200.41 315.94 198.36 318.78 196.48 321.73 C 197.60 322.46 198.73 323.19 199.85 323.92 C 201.35 321.40 202.82 318.78 202.98 315.78 C 204.50 316.59 205.96 317.51 207.34 318.54 C 203.81 321.52 201.38 325.50 198.41 328.99 C 200.62 328.42 202.79 327.74 204.97 327.08 C 204.52 326.42 203.62 325.08 203.17 324.42 L 206.24 325.58 C 206.26 325.13 206.30 324.23 206.32 323.78 C 209.88 320.62 211.45 315.91 211.74 311.28 C 213.36 312.33 214.95 313.42 216.52 314.55 C 214.32 316.54 212.51 318.89 210.89 321.36 C 213.42 322.12 215.91 321.17 218.29 320.33 C 218.98 317.97 219.42 315.55 219.55 313.10 C 221.00 313.62 222.44 314.18 223.87 314.76 C 222.86 316.03 221.84 317.31 220.83 318.59 C 222.64 318.44 224.45 318.33 226.26 318.27 C 225.06 320.37 222.52 320.68 220.46 321.47 C 220.77 322.21 221.39 323.69 221.70 324.43 C 223.39 324.32 225.10 324.27 226.74 324.79 C 225.20 325.47 223.63 326.06 222.05 326.64 C 222.28 327.73 222.51 328.83 222.75 329.93 C 224.82 329.80 226.90 329.76 228.98 329.86 C 227.84 332.00 225.26 331.49 223.32 331.98 C 223.73 333.66 224.16 335.34 224.59 337.03 C 227.37 336.70 231.59 334.76 233.11 338.24 C 228.15 338.37 223.02 338.43 218.29 340.06 C 217.87 340.50 217.02 341.38 216.60 341.82 C 213.67 339.32 214.28 335.26 213.47 331.88 C 212.69 328.51 212.62 324.76 210.38 321.95 C 209.10 323.27 207.84 324.62 206.56 325.94 C 208.70 326.44 209.82 328.10 209.81 330.24 C 208.50 329.58 207.22 328.86 205.96 328.13 C 204.57 328.75 203.19 329.39 201.81 330.01 C 202.43 330.59 203.68 331.74 204.30 332.31 L 203.38 333.27 C 204.39 332.87 205.39 332.45 206.42 332.08 C 208.27 333.65 211.86 334.68 210.49 337.77 C 208.46 336.87 206.90 333.70 204.40 334.55 C 205.52 337.17 205.99 340.00 205.95 342.85 C 201.62 340.29 203.36 334.65 201.09 330.79 C 199.42 331.38 197.89 332.87 196.06 332.72 C 195.17 331.81 194.44 330.74 193.67 329.74 C 194.25 329.66 195.43 329.49 196.02 329.41 C 197.10 328.01 198.17 326.60 199.21 325.17 C 196.68 324.08 194.23 322.80 191.96 321.23 C 192.85 321.06 194.62 320.74 195.51 320.57 C 197.18 317.34 198.37 313.85 198.86 310.25 Z" />
<path fill="#3b3839" opacity="1.00" d=" M 379.60 317.65 C 382.42 315.49 384.99 312.71 388.62 311.97 C 388.25 316.97 385.62 321.34 383.77 325.89 C 382.50 328.99 380.00 331.27 377.67 333.58 C 377.42 333.25 376.93 332.59 376.68 332.26 C 378.08 329.54 379.85 327.01 382.20 325.04 C 383.60 322.11 384.97 319.14 385.60 315.93 C 382.99 317.64 380.70 319.76 378.35 321.79 C 378.74 320.40 379.17 319.02 379.60 317.65 Z" />
<path fill="#ffffff" opacity="1.00" d=" M 214.09 322.66 C 215.39 322.62 216.69 322.60 217.99 322.58 C 218.16 323.48 218.52 325.27 218.69 326.17 C 217.44 326.59 216.19 327.01 214.94 327.43 C 214.66 325.83 214.38 324.24 214.09 322.66 Z" />
<path fill="#ffffff" opacity="1.00" d=" M 215.24 328.94 C 216.56 328.45 217.89 327.97 219.22 327.48 C 219.43 328.81 219.66 330.14 219.88 331.48 C 218.55 331.84 217.21 332.20 215.88 332.56 C 215.72 331.66 215.40 329.84 215.24 328.94 Z" />
<path fill="#ffffff" opacity="1.00" d=" M 216.18 333.86 C 217.54 333.46 218.89 333.05 220.24 332.63 C 220.70 334.29 221.17 335.95 221.66 337.61 C 220.26 337.93 218.87 338.25 217.49 338.57 C 217.04 337.00 216.60 335.43 216.18 333.86 Z" />
<path fill="#3b3839" opacity="1.00" d=" M 199.03 333.74 C 200.49 335.80 200.91 338.54 199.89 340.90 C 196.22 340.54 198.28 335.82 199.03 333.74 Z" />
<path fill="#3b3839" opacity="1.00" d=" M 317.33 341.59 C 316.96 339.00 317.10 335.77 319.82 334.47 C 323.63 335.76 327.53 334.35 331.40 334.27 C 333.52 338.55 332.00 343.39 331.60 347.89 C 330.62 352.52 331.48 358.89 326.15 361.02 C 326.63 354.47 328.62 348.06 328.34 341.45 C 324.67 341.55 320.99 342.18 317.33 341.59 Z" />
<path fill="#3b3839" opacity="1.00" d=" M 150.22 352.40 C 156.43 352.82 162.32 357.61 163.70 363.74 C 162.94 363.49 161.43 363.00 160.68 362.76 C 160.51 358.37 156.27 354.91 152.23 353.85 C 153.68 356.30 155.85 358.16 157.86 360.13 C 154.31 358.75 151.80 355.78 150.22 352.40 Z" />
<path fill="#3b3839" opacity="1.00" d=" M 251.51 368.40 C 252.41 366.18 254.77 365.24 256.78 364.31 C 255.35 366.07 252.79 367.45 253.12 370.05 C 253.07 372.75 255.14 375.45 257.90 375.73 C 266.68 377.04 274.05 369.67 282.73 370.38 C 285.91 372.93 287.85 377.08 288.47 381.05 C 289.04 383.60 284.18 387.05 287.91 388.43 C 293.07 388.39 297.59 385.01 302.81 385.20 C 302.52 386.00 302.23 386.80 301.94 387.61 C 296.00 386.84 290.45 391.79 284.46 389.31 C 284.86 386.43 286.36 383.91 287.32 381.21 C 284.87 378.63 284.33 374.76 281.71 372.34 C 273.47 372.44 266.38 379.21 257.86 377.64 C 253.46 377.38 250.42 372.50 251.51 368.40 Z" />
<path fill="#3b3839" opacity="1.00" d=" M 217.36 369.66 C 226.82 368.57 236.18 372.17 243.96 377.33 C 246.57 379.15 249.54 381.84 248.61 385.38 C 243.84 387.01 238.60 386.79 234.18 384.25 C 233.36 385.80 232.03 387.30 230.11 387.25 C 226.34 387.28 222.30 386.40 219.57 383.62 C 223.40 384.94 227.40 385.50 231.38 384.53 C 231.64 383.87 232.16 382.53 232.42 381.86 C 236.37 384.52 241.38 385.24 245.79 383.23 C 245.34 378.72 241.06 376.28 237.45 374.39 C 231.33 371.23 224.22 370.84 217.49 371.55 C 215.56 373.82 221.29 375.54 222.89 374.19 C 223.11 373.58 223.55 372.38 223.77 371.78 C 224.45 372.97 225.15 374.18 225.82 375.40 C 221.94 376.44 217.12 375.60 215.05 371.81 C 215.03 370.50 216.10 369.65 217.36 369.66 Z" />
<path fill="#3b3839" opacity="1.00" d=" M 332.39 375.69 C 334.61 374.64 336.73 373.37 338.92 372.27 C 338.55 375.15 335.82 377.26 333.45 378.48 L 332.91 377.82 C 331.41 377.26 329.93 376.87 328.98 375.45 C 328.30 377.07 327.49 378.63 326.63 380.17 C 325.69 380.03 324.75 379.89 323.81 379.79 C 322.18 383.18 317.96 383.34 314.87 384.69 C 315.54 383.66 316.22 382.64 316.90 381.63 C 316.01 381.67 314.23 381.74 313.33 381.78 C 313.40 382.54 313.53 384.08 313.59 384.84 C 311.43 385.89 309.14 386.67 306.73 386.76 C 307.75 384.44 309.86 383.09 312.05 382.03 C 314.16 380.61 316.74 380.43 319.20 380.22 C 319.31 380.87 319.51 382.18 319.62 382.83 C 321.22 381.16 322.88 379.36 322.27 376.83 C 324.32 374.96 326.83 373.73 329.50 373.02 C 330.43 373.93 331.38 374.84 332.39 375.69 Z" />
<path fill="#ffffff" opacity="1.00" d=" M 324.10 376.55 C 325.54 375.86 326.99 375.19 328.45 374.54 C 327.64 376.31 326.77 378.05 325.95 379.83 C 325.31 378.74 324.69 377.64 324.10 376.55 Z" />
<path fill="#3b3839" opacity="1.00" d=" M 284.65 392.21 C 287.67 392.91 290.71 393.59 293.68 394.47 C 290.38 395.44 286.99 394.99 283.76 394.02 C 283.98 393.57 284.42 392.66 284.65 392.21 Z" />
<path fill="#3b3839" opacity="1.00" d=" M 251.98 395.03 C 254.48 393.90 257.34 394.53 260.00 394.46 C 263.17 394.27 265.78 396.31 268.53 397.57 C 265.16 397.62 261.81 397.85 258.49 398.41 C 258.47 397.85 258.42 396.74 258.40 396.18 C 257.03 396.56 255.68 396.98 254.33 397.42 C 253.54 396.62 252.75 395.83 251.98 395.03 Z" />
<path fill="#3b3839" opacity="1.00" d=" M 231.92 397.52 C 231.85 396.48 231.78 395.45 231.70 394.42 C 233.44 395.73 235.72 395.99 237.71 396.79 C 235.88 397.62 233.86 397.43 231.92 397.52 Z" />
<path fill="#ffffff" opacity="1.00" d=" M 259.32 395.37 C 262.28 393.79 259.57 398.73 259.32 395.37 Z" />
</svg>
