<?xml version="1.0" encoding="UTF-8" ?>
<!DOCTYPE svg PUBLIC "-//W3C//DTD SVG 1.1//EN" "http://www.w3.org/Graphics/SVG/1.1/DTD/svg11.dtd">
<svg width="512pt" height="512pt" viewBox="0 0 512 512" version="1.1" xmlns="http://www.w3.org/2000/svg">
<path fill="#3b3839" opacity="1.00" d=" M 0.00 0.00 L 512.00 0.00 L 512.00 512.00 L 0.00 512.00 L 0.00 0.00 Z" />
<path fill="#fdfdfd" opacity="1.00" d=" M 430.24 196.30 C 430.74 195.40 431.50 191.94 432.83 194.05 C 437.95 208.84 442.47 223.86 447.38 238.73 C 449.16 243.87 450.20 249.34 452.98 254.07 C 455.04 257.59 459.22 258.63 462.84 259.75 C 462.72 260.18 462.47 261.03 462.35 261.45 C 459.26 261.34 456.17 261.24 453.10 260.91 C 447.73 260.24 442.37 261.74 437.00 261.27 C 436.52 260.93 435.55 260.26 435.07 259.92 C 437.30 259.25 439.61 258.83 441.81 258.04 C 443.70 257.25 444.20 254.94 443.57 253.15 C 441.80 246.95 439.76 240.82 438.09 234.59 C 431.96 234.50 425.82 234.58 419.69 234.53 C 417.80 241.38 414.62 247.95 413.80 255.05 C 414.80 258.67 419.08 258.79 422.00 259.89 C 420.51 262.44 417.31 260.99 415.00 261.12 C 409.72 260.14 404.44 261.60 399.15 261.23 C 400.77 258.45 404.59 258.87 406.68 256.65 C 409.59 253.56 410.74 249.35 412.29 245.51 C 418.25 229.10 424.25 212.70 430.24 196.30 Z" />
<path fill="#fdfdfd" opacity="1.00" d=" M 49.72 195.26 C 54.15 194.37 58.56 195.83 63.01 195.66 C 67.17 195.59 71.28 194.86 75.45 194.74 C 75.45 195.51 75.46 196.28 75.46 197.06 C 73.22 197.55 70.57 198.15 69.50 200.45 C 68.79 202.78 69.50 205.22 70.42 207.38 C 76.25 221.94 81.92 236.57 87.88 251.09 C 91.41 243.78 94.88 236.44 98.32 229.09 C 94.79 221.12 91.53 213.05 87.98 205.10 C 86.94 202.88 85.97 200.51 84.07 198.88 C 82.12 197.67 79.89 197.01 77.86 195.96 C 80.90 193.81 84.57 195.69 87.91 195.62 C 92.74 196.28 97.73 193.69 102.35 195.85 C 99.68 197.40 96.19 197.81 94.47 200.66 C 96.83 207.31 99.81 213.73 102.92 220.05 C 105.26 215.02 107.95 210.13 110.02 204.98 C 111.08 202.63 110.88 198.93 108.03 198.01 C 106.50 197.25 103.34 197.47 104.47 194.84 C 108.33 194.80 112.14 195.88 116.02 195.59 C 118.98 195.36 121.92 194.89 124.90 194.80 C 123.97 198.48 119.04 197.17 117.18 200.07 C 111.69 207.33 108.84 216.17 104.46 224.09 C 108.39 232.77 111.99 241.61 116.06 250.23 C 121.67 236.06 126.98 221.77 132.60 207.60 C 133.57 205.33 133.93 202.78 133.47 200.34 C 132.51 197.04 127.40 198.41 126.97 194.79 C 129.63 194.90 132.27 195.22 134.92 195.51 C 139.15 195.99 143.34 194.89 147.57 194.83 C 146.42 197.91 142.51 197.35 140.54 199.55 C 138.73 201.51 137.58 203.98 136.55 206.42 C 130.36 222.23 123.95 237.96 117.76 253.78 C 116.49 257.07 115.43 260.55 113.11 263.30 C 108.63 253.67 104.73 243.78 100.39 234.09 C 100.15 234.09 99.67 234.07 99.43 234.07 C 94.45 243.60 90.04 253.44 84.96 262.92 C 83.42 262.50 83.03 260.84 82.42 259.58 C 75.75 242.01 68.71 224.58 61.99 207.03 C 60.83 204.36 59.58 201.60 57.45 199.56 C 55.26 197.39 51.31 198.18 49.72 195.26 Z" />
<path fill="#3b3839" opacity="1.00" d=" M 420.77 231.84 C 423.46 223.39 426.13 214.93 429.17 206.61 C 432.19 214.88 434.42 223.43 437.12 231.81 C 431.67 231.94 426.22 231.91 420.77 231.84 Z" />
<path fill="#fdfdfd" opacity="1.00" d=" M 150.23 215.98 C 153.02 214.75 156.10 215.58 159.03 215.51 C 162.83 215.78 166.75 214.68 170.44 215.92 C 168.24 216.93 165.45 216.95 163.70 218.76 C 162.48 223.37 163.36 228.26 163.11 232.98 C 163.37 241.34 162.51 249.76 163.66 258.07 C 165.88 258.97 168.47 259.31 170.19 261.15 C 165.99 261.46 161.82 260.36 157.62 260.86 C 155.23 261.12 152.83 261.27 150.43 261.17 C 152.22 258.77 156.69 259.53 157.32 256.15 C 157.61 244.42 157.45 232.66 157.40 220.92 C 157.70 217.06 152.65 217.25 150.23 215.98 Z" />
<path fill="#fdfdfd" opacity="1.00" d=" M 174.55 215.83 C 178.32 214.88 182.21 215.67 186.03 215.51 C 189.07 215.51 192.19 214.94 195.15 215.87 C 192.77 217.21 188.70 216.74 187.83 219.91 C 187.38 226.00 187.69 232.13 187.71 238.23 C 191.79 237.25 193.86 233.33 196.64 230.57 C 200.12 226.42 204.63 222.99 206.99 218.00 C 205.17 217.31 203.35 216.62 201.55 215.88 C 204.27 214.97 207.15 215.55 209.95 215.49 C 212.48 215.53 215.09 215.04 217.54 215.91 C 214.60 217.04 211.24 217.61 209.06 220.10 C 203.96 225.27 199.20 230.78 194.10 235.95 C 200.38 242.66 206.13 249.84 212.44 256.52 C 214.70 259.18 218.51 259.09 221.22 261.06 C 216.88 261.62 212.56 260.33 208.22 260.87 C 205.44 261.20 202.65 261.29 199.86 261.08 C 201.47 259.53 205.81 259.15 204.58 256.13 C 201.81 252.38 198.42 249.13 195.46 245.52 C 193.16 243.07 191.21 239.94 187.72 239.12 C 187.72 245.06 187.29 251.05 187.93 256.96 C 189.58 259.34 192.91 259.25 194.99 261.11 C 190.72 261.55 186.49 260.34 182.23 260.87 C 179.78 261.15 177.31 261.26 174.86 261.11 C 176.60 259.41 179.07 259.03 181.26 258.20 C 181.86 256.20 182.36 254.15 182.27 252.04 C 182.23 242.69 182.23 233.35 182.27 224.00 C 182.22 222.15 182.40 220.16 181.36 218.52 C 179.33 217.12 176.79 216.78 174.55 215.83 Z" />
<path fill="#fdfdfd" opacity="1.00" d=" M 223.72 215.95 C 226.71 214.79 229.96 215.58 233.08 215.52 C 236.83 215.68 240.65 214.85 244.33 215.84 C 242.04 216.72 239.69 217.44 237.38 218.28 C 236.17 223.44 236.84 228.76 236.69 234.00 C 236.80 241.35 236.45 248.72 236.84 256.06 C 237.49 259.39 241.82 258.84 243.68 261.15 C 241.23 261.28 238.78 261.09 236.35 260.84 C 232.17 260.42 228.01 261.57 223.83 261.09 C 226.20 258.97 231.34 259.25 231.25 255.06 C 231.46 244.73 231.24 234.39 231.35 224.05 C 231.24 222.04 231.60 219.54 229.88 218.10 C 227.94 217.09 225.75 216.71 223.72 215.95 Z" />
<path fill="#fdfdfd" opacity="1.00" d=" M 248.25 215.80 C 252.77 214.82 257.40 215.84 261.96 215.46 C 267.12 215.39 272.90 214.44 277.44 217.50 C 285.37 222.72 284.04 236.58 275.46 240.49 C 271.21 242.97 266.17 242.51 261.52 241.78 C 261.58 246.71 261.24 251.67 261.65 256.59 C 262.84 259.46 266.63 259.02 268.60 261.12 C 266.20 261.27 263.80 261.14 261.41 260.88 C 257.17 260.36 252.96 261.49 248.72 261.15 C 250.48 259.06 253.75 259.40 255.36 257.19 C 255.94 255.55 255.86 253.78 255.91 252.07 C 255.86 242.36 255.90 232.66 255.89 222.96 C 255.75 221.24 256.01 218.83 254.17 217.91 C 252.25 217.06 250.20 216.57 248.25 215.80 Z" />
<path fill="#fdfdfd" opacity="1.00" d=" M 286.04 215.81 C 287.66 215.37 289.35 215.28 291.03 215.36 C 299.86 215.67 308.69 215.58 317.52 215.28 C 318.04 218.96 319.65 222.51 319.37 226.28 C 317.61 223.10 316.35 218.96 312.49 217.76 C 309.04 216.89 305.41 217.11 301.90 217.33 C 299.53 217.32 298.81 220.03 298.80 221.93 C 298.69 226.77 298.83 231.61 298.77 236.45 C 302.29 236.49 305.88 236.90 309.36 236.24 C 312.46 234.92 312.12 230.96 313.28 228.31 C 314.11 234.35 313.40 240.53 313.66 246.63 C 312.24 243.94 311.82 240.77 309.75 238.44 C 306.09 238.22 302.42 238.19 298.76 238.37 C 299.09 245.03 298.02 251.81 299.63 258.36 C 305.17 259.80 311.77 260.12 316.57 256.47 C 319.19 254.58 320.72 251.65 322.67 249.14 C 321.94 253.27 320.52 257.59 318.38 261.13 C 311.90 261.62 305.44 260.32 298.95 260.77 C 294.78 261.10 290.59 261.43 286.40 261.08 C 288.30 258.83 292.78 259.52 293.26 256.04 C 293.70 245.03 293.33 233.99 293.45 222.97 C 293.21 221.31 293.81 218.93 291.95 218.04 C 290.04 217.13 287.97 216.64 286.04 215.81 Z" />
<path fill="#fdfdfd" opacity="1.00" d=" M 324.72 215.92 C 328.08 215.11 331.56 215.60 334.98 215.55 C 340.43 215.66 345.89 215.16 351.33 215.58 C 360.40 216.46 368.29 223.93 369.70 232.93 C 371.71 241.69 369.02 252.12 361.27 257.30 C 355.68 261.22 348.58 261.50 342.00 261.20 C 336.33 261.10 330.64 261.37 324.98 261.05 C 327.05 258.83 331.81 259.62 332.24 256.00 C 332.44 243.63 332.39 231.24 332.24 218.86 C 329.86 217.58 327.25 216.83 324.72 215.92 Z" />
<path fill="#fdfdfd" opacity="1.00" d=" M 376.37 215.97 C 379.42 214.68 382.78 215.65 385.97 215.52 C 389.51 215.77 393.23 214.64 396.65 215.94 C 394.13 217.15 389.74 216.92 389.47 220.61 C 388.94 230.71 389.43 240.87 389.23 250.99 C 389.35 253.40 388.91 256.26 390.64 258.22 C 392.53 259.28 394.91 259.45 396.41 261.18 C 390.05 260.96 383.70 260.43 377.36 261.38 L 377.18 259.89 C 379.59 259.46 383.29 258.97 383.47 255.86 C 383.61 244.91 383.45 233.95 383.54 223.00 C 383.41 221.27 383.97 218.96 382.12 217.94 C 380.27 217.12 378.26 216.68 376.37 215.97 Z" />
<path fill="#3b3839" opacity="1.00" d=" M 261.67 219.46 C 262.71 216.40 266.54 217.30 269.02 217.25 C 272.94 217.20 275.31 221.11 276.18 224.48 C 276.97 228.91 276.72 234.04 273.54 237.54 C 270.50 240.81 265.45 241.27 261.48 239.60 C 261.63 232.89 261.22 226.15 261.67 219.46 Z" />
<path fill="#3b3839" opacity="1.00" d=" M 340.34 217.51 C 345.54 217.37 351.68 216.23 356.02 219.91 C 360.53 223.17 363.17 228.58 363.81 234.03 C 365.12 242.25 362.86 251.75 355.75 256.75 C 351.53 260.06 345.88 259.71 340.85 259.22 C 338.52 258.69 337.80 256.08 337.82 254.00 C 338.22 242.97 337.61 231.92 337.99 220.89 C 338.13 219.43 338.86 217.99 340.34 217.51 Z" />
<path fill="#fdfdfd" opacity="1.00" d=" M 102.25 273.10 C 104.76 272.46 107.15 271.48 109.48 270.36 C 107.91 277.17 105.14 283.65 103.94 290.56 C 106.58 287.85 109.01 284.12 113.10 283.63 C 115.88 284.32 117.11 287.45 116.42 290.06 C 115.17 295.43 112.60 300.79 108.13 304.20 C 106.82 305.26 104.95 305.03 103.55 304.30 C 103.02 302.71 104.32 301.75 105.40 300.87 C 106.09 301.48 107.49 302.69 108.19 303.29 C 111.87 298.80 113.23 292.68 112.26 287.01 C 110.69 285.11 108.65 287.15 107.42 288.37 C 102.90 292.56 101.11 298.60 98.92 304.15 C 98.22 304.31 96.83 304.62 96.13 304.78 C 98.61 294.77 102.55 285.07 104.37 274.94 C 103.84 274.48 102.78 273.56 102.25 273.10 Z" />
<path fill="#fdfdfd" opacity="1.00" d=" M 72.72 271.72 C 81.54 272.50 90.43 272.57 99.25 271.71 C 98.98 274.55 98.80 277.41 98.99 280.27 C 98.18 278.37 97.52 276.38 96.32 274.68 C 93.95 272.79 90.68 273.57 87.90 273.60 C 86.13 283.22 82.98 292.61 82.08 302.38 C 83.56 302.93 85.04 303.50 86.51 304.10 C 82.07 304.53 77.61 303.98 73.17 304.47 C 73.14 304.29 73.07 303.93 73.04 303.74 C 74.43 303.23 75.93 302.93 77.20 302.14 C 78.34 300.36 78.49 298.17 78.97 296.16 C 80.63 288.67 82.21 281.17 83.97 273.70 C 80.89 273.47 77.43 272.80 74.71 274.68 C 72.87 276.16 71.69 278.25 70.26 280.10 C 70.99 277.28 71.87 274.50 72.72 271.72 Z" />
<path fill="#fdfdfd" opacity="1.00" d=" M 333.07 273.19 C 335.73 272.49 338.32 271.54 340.84 270.42 C 337.63 279.92 334.03 289.29 330.66 298.73 C 330.06 300.06 330.10 301.50 330.56 302.87 C 332.16 301.26 333.66 299.53 335.33 297.99 C 334.05 301.28 331.51 304.33 328.04 305.38 C 325.37 304.30 326.63 301.28 327.21 299.25 C 330.11 291.17 333.02 283.08 335.86 274.97 C 335.16 274.52 333.76 273.63 333.07 273.19 Z" />
<path fill="#fdfdfd" opacity="1.00" d=" M 409.77 273.33 C 412.29 272.42 414.80 271.46 417.26 270.37 C 413.94 281.22 409.63 291.75 406.64 302.69 C 409.08 302.19 410.31 299.96 411.68 298.13 C 411.69 298.57 411.72 299.47 411.74 299.92 C 409.89 302.28 407.75 304.46 404.96 305.69 C 402.98 304.00 403.11 301.46 403.65 299.12 C 401.46 301.32 399.53 305.00 395.98 304.92 C 393.47 305.19 392.28 302.03 392.61 299.97 C 393.74 293.54 397.90 287.73 403.46 284.35 C 405.24 282.93 407.36 284.25 409.20 284.83 C 410.19 281.51 411.22 278.20 412.28 274.91 C 411.65 274.51 410.39 273.72 409.77 273.33 Z" />
<path fill="#fdfdfd" opacity="1.00" d=" M 148.07 272.00 C 155.54 272.31 163.03 272.50 170.49 271.98 C 170.48 274.74 170.60 277.50 170.68 280.26 C 169.69 278.05 169.22 275.29 167.02 273.90 C 164.11 273.16 160.96 273.14 158.03 273.85 C 155.85 278.01 155.79 282.92 154.39 287.37 C 156.89 287.33 159.44 287.53 161.91 287.05 C 163.79 286.05 164.41 283.89 165.33 282.13 C 165.40 282.49 165.52 283.21 165.58 283.57 C 164.44 287.26 163.94 291.10 163.00 294.85 C 162.65 292.93 162.69 290.92 161.95 289.11 C 159.61 287.61 156.66 288.44 154.05 288.37 C 153.66 293.00 151.30 297.41 151.59 302.06 C 153.09 302.92 154.70 303.57 156.24 304.34 C 151.40 304.26 146.57 304.19 141.73 304.36 C 143.93 303.15 147.40 302.90 147.76 299.86 C 149.39 291.91 151.51 284.04 152.79 276.02 C 153.43 273.27 149.61 273.25 148.07 272.00 Z" />
<path fill="#fdfdfd" opacity="1.00" d=" M 231.49 272.26 C 238.85 272.07 246.22 272.58 253.57 272.02 C 253.58 274.65 253.59 277.28 253.48 279.90 C 252.31 277.63 252.19 273.85 248.99 273.60 C 246.34 273.57 242.70 272.43 240.85 274.88 C 239.42 278.85 238.89 283.09 237.99 287.21 C 240.81 287.05 243.88 287.69 246.52 286.45 C 247.96 285.18 248.80 283.39 249.93 281.85 C 248.78 286.00 248.12 290.26 246.90 294.39 C 246.66 292.54 246.55 290.67 246.14 288.86 C 243.46 287.69 240.43 288.38 237.60 288.23 C 236.75 292.72 235.87 297.21 234.50 301.58 C 237.06 303.99 240.86 303.04 244.02 302.90 C 248.01 302.72 249.94 298.85 251.91 295.96 C 251.42 298.79 250.72 301.57 250.16 304.38 C 241.82 304.07 233.49 304.27 225.15 304.29 C 226.87 303.54 228.63 302.88 230.39 302.22 C 232.73 292.93 235.23 283.62 236.45 274.11 C 234.79 273.51 233.13 272.91 231.49 272.26 Z" />
<path fill="#fdfdfd" opacity="1.00" d=" M 424.34 272.43 C 426.14 271.47 427.94 273.78 427.25 275.46 C 426.82 277.30 423.97 277.36 423.06 275.85 C 421.79 274.87 423.32 272.89 424.34 272.43 Z" />
<path fill="#fdfdfd" opacity="1.00" d=" M 364.56 279.34 C 365.70 279.24 366.85 279.15 368.00 279.08 C 367.55 280.76 367.06 282.44 366.56 284.12 C 368.69 283.82 371.17 283.36 372.96 284.94 C 375.63 287.60 375.09 291.88 374.04 295.16 C 372.26 299.64 369.08 304.50 363.94 305.30 C 362.59 304.93 361.37 304.22 360.10 303.65 C 359.45 307.14 357.80 310.35 357.19 313.84 C 357.69 315.31 359.52 315.78 360.61 316.80 C 356.86 316.49 353.10 316.30 349.35 316.16 C 354.68 314.88 355.01 309.15 356.55 304.89 C 358.27 299.20 360.45 293.64 361.75 287.83 C 360.45 288.38 359.14 288.93 357.83 289.47 C 359.40 288.16 361.14 287.05 362.59 285.61 C 363.52 283.62 363.95 281.44 364.56 279.34 Z" />
<path fill="#fdfdfd" opacity="1.00" d=" M 169.44 290.31 C 171.40 287.48 174.35 282.22 178.45 284.48 C 178.27 285.96 178.09 287.44 177.91 288.92 C 178.65 288.83 180.14 288.64 180.89 288.54 C 176.32 292.66 175.11 299.06 172.08 304.21 C 171.44 304.37 170.17 304.69 169.53 304.85 C 170.80 298.37 174.03 292.40 174.60 285.78 C 172.87 287.28 171.25 288.90 169.44 290.31 Z" />
<path fill="#fdfdfd" opacity="1.00" d=" M 179.58 287.02 C 181.09 285.92 182.42 284.49 184.18 283.78 C 185.25 283.99 186.26 284.38 187.29 284.70 C 187.06 285.99 186.66 287.21 186.09 288.38 C 184.36 288.33 181.88 285.72 180.90 288.31 C 180.45 287.88 180.01 287.45 179.58 287.02 Z" />
<path fill="#fdfdfd" opacity="1.00" d=" M 211.89 283.96 C 214.27 282.82 216.88 285.65 216.06 288.01 C 215.22 292.75 210.34 294.97 206.10 295.80 C 206.52 298.00 205.27 301.22 207.86 302.37 C 210.55 302.64 212.33 300.30 214.37 298.97 C 212.76 301.34 211.14 304.51 207.97 304.90 C 203.90 305.81 201.57 300.70 202.63 297.39 C 203.93 292.08 206.48 286.15 211.89 283.96 Z" />
<path fill="#fdfdfd" opacity="1.00" d=" M 284.59 284.49 C 286.85 282.61 291.77 284.36 290.65 287.67 C 288.50 288.36 287.25 286.05 285.71 285.06 C 282.03 287.35 280.72 291.78 279.99 295.80 C 279.75 297.98 279.29 300.55 280.89 302.36 C 283.68 303.08 285.39 300.27 287.51 299.01 C 286.05 301.68 284.08 304.40 280.99 305.27 C 278.58 305.19 276.72 303.21 276.45 300.89 C 275.72 294.47 279.44 288.10 284.59 284.49 Z" />
<path fill="#fdfdfd" opacity="1.00" d=" M 311.27 297.97 C 312.25 291.90 315.84 285.70 321.86 283.51 C 323.10 283.98 324.35 284.45 325.60 284.92 C 325.54 286.01 325.58 287.14 325.11 288.16 C 323.33 287.31 321.83 285.91 319.94 285.30 C 315.73 288.95 314.71 294.91 314.49 300.21 C 314.89 300.84 315.70 302.11 316.10 302.74 C 318.69 302.13 320.75 300.45 322.80 298.86 C 320.88 301.57 318.87 304.92 315.20 305.26 C 312.09 304.47 310.71 300.89 311.27 297.97 Z" />
<path fill="#fdfdfd" opacity="1.00" d=" M 348.52 283.75 C 351.52 283.11 353.86 286.27 354.33 288.90 C 355.21 295.61 351.10 303.28 344.40 305.20 C 340.60 305.70 338.31 301.32 338.49 298.03 C 338.86 292.02 342.49 285.57 348.52 283.75 Z" />
<path fill="#fdfdfd" opacity="1.00" d=" M 127.28 284.42 C 129.32 282.75 133.01 284.19 132.70 287.00 C 132.70 292.38 126.90 294.99 122.37 295.86 C 122.46 298.17 122.80 300.47 123.71 302.61 C 126.57 302.45 128.75 300.65 130.90 298.98 C 129.20 301.43 127.47 304.95 124.04 304.92 C 120.78 305.50 118.84 301.82 119.20 299.02 C 119.47 293.32 122.40 287.51 127.28 284.42 Z" />
<path fill="#fdfdfd" opacity="1.00" d=" M 194.59 284.71 C 196.18 283.44 198.64 283.26 199.99 284.98 C 201.09 287.22 200.28 289.92 198.59 291.63 C 196.56 294.16 193.27 294.85 190.40 295.96 C 190.30 297.67 190.40 299.39 190.48 301.11 C 191.13 301.49 192.44 302.27 193.10 302.65 C 195.08 301.53 196.94 300.21 198.83 298.94 C 197.00 301.95 194.50 304.61 191.01 305.61 C 188.64 304.25 186.53 301.94 186.83 299.02 C 187.36 293.50 189.99 287.96 194.59 284.71 Z" />
<path fill="#fdfdfd" opacity="1.00" d=" M 254.40 290.38 C 256.26 287.27 258.83 284.49 262.32 283.24 C 264.03 286.06 262.40 289.16 262.06 292.12 C 264.65 288.74 267.15 285.10 271.16 283.28 C 272.25 284.33 274.16 285.20 273.77 287.05 C 272.68 292.61 269.43 297.48 268.31 303.05 C 270.30 301.79 272.11 300.28 274.09 299.00 C 271.84 301.93 269.23 305.50 265.04 304.98 C 265.05 299.75 268.06 295.29 269.49 290.41 C 270.17 288.95 269.83 287.39 269.27 285.96 C 263.76 289.94 260.69 296.41 258.34 302.60 C 258.03 304.55 256.02 304.59 254.46 304.73 C 256.03 298.37 258.95 292.36 259.82 285.83 C 257.94 287.26 256.26 288.92 254.40 290.38 Z" />
<path fill="#fdfdfd" opacity="1.00" d=" M 291.29 291.38 C 292.58 288.51 293.98 282.60 298.27 284.50 C 301.89 289.35 301.07 295.77 301.37 301.46 C 305.22 296.54 305.80 290.09 306.69 284.13 C 307.26 284.17 308.40 284.25 308.97 284.29 C 307.63 292.91 303.52 300.74 299.24 308.23 C 297.25 311.79 294.49 314.83 291.43 317.51 C 289.78 317.48 288.06 317.28 287.12 315.72 C 287.49 314.92 287.93 314.17 288.38 313.42 C 289.88 313.85 291.36 315.41 293.00 314.65 C 297.05 311.35 298.09 305.83 298.21 300.89 C 297.95 296.08 297.69 291.19 296.02 286.63 C 294.27 288.04 292.81 289.74 291.29 291.38 Z" />
<path fill="#fdfdfd" opacity="1.00" d=" M 377.42 299.05 C 377.97 292.51 381.71 285.72 388.10 283.29 C 389.33 284.30 391.33 285.07 390.90 287.05 C 391.18 292.34 385.47 294.90 381.11 295.78 C 381.44 297.97 380.25 301.34 382.93 302.38 C 385.57 302.48 387.34 300.16 389.44 298.94 C 387.61 301.81 385.23 304.40 381.97 305.64 C 379.51 304.34 376.97 302.15 377.42 299.05 Z" />
<path fill="#fdfdfd" opacity="1.00" d=" M 415.60 290.49 C 417.00 287.31 419.77 284.88 422.94 283.56 C 425.76 284.17 424.50 287.00 423.82 288.85 C 421.99 293.59 418.85 297.86 418.08 302.96 C 420.32 301.72 422.00 299.78 423.85 298.06 C 422.16 301.75 418.75 305.03 414.53 305.32 C 414.61 298.35 419.58 292.75 421.46 286.24 C 418.77 286.40 417.49 288.98 415.60 290.49 Z" />
<path fill="#fdfdfd" opacity="1.00" d=" M 442.02 285.09 C 443.28 283.86 444.82 283.21 446.61 283.25 C 444.42 289.92 440.43 296.04 439.47 303.07 C 441.38 301.59 443.07 299.84 444.91 298.28 C 442.89 301.27 440.42 305.65 436.18 304.84 C 435.88 303.24 435.88 301.60 435.84 299.99 C 433.46 302.15 430.93 305.79 427.24 304.72 C 425.70 303.56 426.21 301.07 426.59 299.41 C 428.44 293.99 432.28 289.25 437.08 286.15 C 438.51 285.08 440.35 285.28 442.02 285.09 Z" />
<path fill="#3b3839" opacity="1.00" d=" M 404.11 285.14 C 406.01 283.33 409.04 285.78 408.24 288.08 C 407.03 292.10 404.86 295.80 402.31 299.11 C 400.84 300.69 399.29 302.97 396.82 302.47 C 394.82 296.04 399.09 289.02 404.11 285.14 Z" />
<path fill="#3b3839" opacity="1.00" d=" M 122.75 294.51 C 123.37 290.76 124.97 287.14 128.19 284.95 C 132.94 288.51 127.27 294.68 122.75 294.51 Z" />
<path fill="#3b3839" opacity="1.00" d=" M 195.00 285.90 C 196.69 284.08 198.58 287.45 197.72 288.98 C 197.11 291.81 194.36 294.03 191.53 294.41 L 190.55 293.39 C 191.39 290.61 192.35 287.47 195.00 285.90 Z" />
<path fill="#3b3839" opacity="1.00" d=" M 210.20 286.05 C 211.53 284.50 214.00 286.14 213.47 287.94 C 213.53 291.11 210.60 293.41 207.89 294.44 C 205.37 294.17 206.70 291.76 207.25 290.31 C 208.00 288.76 208.81 287.12 210.20 286.05 Z" />
<path fill="#3b3839" opacity="1.00" d=" M 342.08 304.33 C 340.58 297.04 343.49 288.92 349.22 284.16 C 352.89 286.37 351.38 290.77 350.50 294.11 C 349.12 298.34 347.30 303.88 342.08 304.33 Z" />
<path fill="#3b3839" opacity="1.00" d=" M 366.17 285.82 C 368.45 284.82 371.18 286.48 371.21 288.98 C 371.30 294.85 369.55 301.43 364.20 304.64 C 363.51 304.27 362.13 303.52 361.44 303.14 C 361.72 297.11 364.07 291.41 366.17 285.82 Z" />
<path fill="#3b3839" opacity="1.00" d=" M 381.24 294.60 C 381.78 291.01 382.97 286.41 386.98 285.35 C 389.62 286.72 388.43 290.12 386.81 291.84 C 385.48 293.61 383.23 294.03 381.24 294.60 Z" />
<path fill="#3b3839" opacity="1.00" d=" M 431.16 294.24 C 433.48 290.47 436.53 285.83 441.56 286.09 C 441.46 290.20 439.15 293.72 436.89 296.97 C 435.28 299.13 433.47 301.30 430.99 302.49 C 428.42 300.39 429.83 296.67 431.16 294.24 Z" />
</svg>
