<?xml version="1.0" encoding="UTF-8" ?>
<!DOCTYPE svg PUBLIC "-//W3C//DTD SVG 1.1//EN" "http://www.w3.org/Graphics/SVG/1.1/DTD/svg11.dtd">
<svg width="512pt" height="512pt" viewBox="0 0 512 512" version="1.1" xmlns="http://www.w3.org/2000/svg">
<path fill="#1c70ef" opacity="1.00" d=" M 0.00 0.00 L 512.00 0.00 L 512.00 512.00 L 0.00 512.00 L 0.00 0.00 Z" />
<path fill="#fbfcff" opacity="1.00" d=" M 250.12 126.01 C 255.91 117.09 266.54 112.01 277.03 111.74 C 285.91 111.86 294.90 115.32 300.98 121.92 C 306.86 128.07 310.34 136.46 310.19 145.00 C 310.07 157.25 310.33 169.50 310.05 181.75 C 307.52 181.67 304.99 181.61 302.46 181.56 C 302.11 168.35 302.52 155.12 302.19 141.92 C 301.10 135.02 297.63 128.19 291.69 124.25 C 285.71 120.19 277.87 118.11 270.84 120.53 C 260.29 122.84 252.17 133.17 252.27 143.94 C 252.30 156.48 252.15 169.02 252.32 181.56 C 249.69 181.66 247.06 181.66 244.44 181.60 C 244.38 169.38 244.43 157.16 244.40 144.94 C 244.25 138.27 245.98 131.34 250.12 126.01 Z" />
<path fill="#fbfcff" opacity="1.00" d=" M 213.17 141.18 C 217.75 128.95 230.11 119.99 243.29 120.25 C 241.52 122.65 240.43 125.45 238.86 127.96 C 231.61 130.49 224.51 134.95 221.33 142.24 C 219.16 146.49 218.93 151.33 218.79 156.00 C 218.74 164.56 218.92 173.11 218.71 181.66 C 216.22 181.67 213.73 181.65 211.24 181.61 C 211.21 173.08 211.25 164.55 211.23 156.01 C 211.27 151.02 210.77 145.77 213.17 141.18 Z" />
<path fill="#fbfcff" opacity="1.00" d=" M 263.37 136.04 C 264.64 134.11 266.17 131.19 268.78 131.18 C 273.32 135.57 275.60 141.95 276.64 148.07 C 276.87 159.25 276.74 170.43 276.69 181.61 C 274.21 181.64 271.74 181.65 269.28 181.66 C 268.33 176.14 269.55 170.55 268.91 165.01 C 268.18 157.39 270.47 149.16 266.58 142.13 C 265.74 139.98 263.79 138.31 263.37 136.04 Z" />
<path fill="#fbfcff" opacity="1.00" d=" M 202.17 190.77 C 250.59 190.43 299.02 190.76 347.44 190.62 C 348.26 193.00 348.37 195.52 348.42 198.02 C 354.60 252.64 360.55 307.29 366.68 361.92 C 367.72 366.74 367.15 371.74 368.40 376.52 C 363.70 378.67 358.33 378.06 353.36 379.09 C 348.90 379.59 344.51 380.50 340.09 381.23 C 328.42 382.38 316.92 384.70 305.26 385.90 C 297.73 387.49 290.05 388.07 282.45 389.18 C 277.22 390.23 271.93 391.03 266.61 391.47 C 259.32 392.10 252.23 394.21 244.91 394.59 C 239.08 395.16 233.34 396.39 227.56 397.27 C 216.61 398.29 205.85 400.74 194.89 401.63 C 192.05 401.74 189.86 399.68 187.41 398.59 C 173.07 391.52 158.80 384.26 144.49 377.14 C 149.78 328.40 155.69 279.71 160.96 230.96 C 162.71 218.85 163.40 206.64 165.35 194.57 C 168.01 194.60 170.68 194.59 173.34 194.55 C 177.34 202.34 181.16 210.22 185.11 218.02 C 185.82 220.24 188.37 219.32 190.10 219.47 C 193.98 209.85 198.43 200.46 202.17 190.77 Z" />
</svg>
