<?xml version="1.0" encoding="UTF-8" ?>
<!DOCTYPE svg PUBLIC "-//W3C//DTD SVG 1.1//EN" "http://www.w3.org/Graphics/SVG/1.1/DTD/svg11.dtd">
<svg width="512pt" height="512pt" viewBox="0 0 512 512" version="1.1" xmlns="http://www.w3.org/2000/svg">
<path fill="#640f6c" opacity="1.00" d=" M 0.00 0.00 L 512.00 0.00 L 512.00 512.00 L 0.00 512.00 L 0.00 0.00 Z" />
<path fill="#ffffff" opacity="1.00" d=" M 362.20 159.16 C 381.15 161.12 399.99 164.04 418.95 166.01 C 408.08 208.56 397.39 251.16 386.88 293.81 C 378.74 293.01 370.66 291.69 362.50 291.08 C 362.08 247.11 362.33 203.13 362.20 159.16 Z" />
<path fill="#ffffff" opacity="1.00" d=" M 198.52 163.79 C 226.29 161.71 254.95 164.20 280.76 175.25 C 299.30 183.15 316.32 195.82 326.90 213.21 C 336.71 229.07 340.32 248.45 337.59 266.84 C 334.90 286.68 323.96 304.92 308.61 317.60 C 287.22 335.50 259.35 343.86 231.91 346.05 C 202.99 348.18 173.01 345.00 146.57 332.49 C 128.16 323.82 111.56 310.07 102.20 291.75 C 93.34 274.61 90.62 254.17 95.63 235.46 C 100.11 216.33 112.43 199.66 128.18 188.20 C 148.53 173.25 173.62 166.03 198.52 163.79 Z" />
<path fill="#640f6c" opacity="1.00" d=" M 139.56 212.34 C 147.70 212.00 155.85 212.36 164.00 212.35 C 179.97 212.12 195.96 211.87 211.93 212.47 C 211.31 214.46 212.32 218.40 209.18 218.28 C 202.37 218.69 195.58 219.29 188.79 219.85 C 198.36 234.78 210.11 248.16 220.45 262.55 C 228.61 255.32 237.46 248.89 245.36 241.35 C 247.32 239.51 248.86 237.28 250.09 234.91 C 243.64 234.02 237.24 232.73 230.73 232.25 C 230.28 229.93 229.80 227.62 229.34 225.31 C 250.23 225.15 271.12 225.24 292.01 225.61 C 290.44 227.85 288.87 230.10 287.23 232.29 C 282.10 233.04 277.07 234.29 271.99 235.31 C 267.87 236.08 264.71 239.05 261.35 241.33 C 251.26 248.80 241.34 256.60 232.39 265.43 C 230.05 267.84 227.21 270.33 226.97 273.93 C 226.08 282.80 226.22 291.76 227.86 300.55 C 235.47 301.09 243.12 300.34 250.72 301.13 C 250.62 303.51 250.52 305.90 250.43 308.29 C 232.26 308.22 214.09 308.08 195.93 308.44 C 190.50 308.70 185.07 308.79 179.65 308.62 C 180.12 306.32 180.52 304.02 180.90 301.71 C 187.30 301.42 193.97 302.37 200.13 300.16 C 203.27 299.19 202.79 295.58 202.81 293.01 C 202.53 286.15 203.07 279.24 202.34 272.40 C 200.93 268.87 198.24 266.02 196.08 262.93 C 186.11 249.99 175.89 237.19 164.63 225.34 C 162.97 223.81 161.50 221.63 159.07 221.38 C 152.65 220.16 146.06 219.97 139.67 218.56 C 139.63 216.49 139.59 214.41 139.56 212.34 Z" />
<path fill="#ffffff" opacity="1.00" d=" M 352.30 339.11 C 353.37 329.20 354.66 319.32 355.84 309.43 C 366.86 310.96 377.92 312.09 388.95 313.56 C 388.32 323.42 386.79 333.19 385.52 342.98 C 374.42 341.94 363.37 340.38 352.30 339.11 Z" />
<path fill="#ffffff" opacity="1.00" d=" M 404.40 311.63 C 404.88 311.64 405.84 311.67 406.32 311.68 C 407.19 313.04 408.04 314.41 408.90 315.79 C 410.11 314.03 411.02 311.72 413.42 311.28 C 413.49 314.71 413.53 318.15 413.33 321.58 C 410.34 321.06 412.00 317.41 411.41 315.42 C 410.57 316.63 409.73 317.84 408.91 319.07 C 408.07 317.75 407.25 316.44 406.43 315.12 C 406.37 317.05 406.34 318.98 406.31 320.92 C 405.81 320.90 404.80 320.87 404.30 320.85 C 404.32 317.77 404.33 314.70 404.40 311.63 Z" />
<path fill="#ffffff" opacity="1.00" d=" M 395.55 311.83 C 397.50 311.81 399.45 311.79 401.41 311.76 C 401.82 312.10 402.65 312.79 403.07 313.13 C 401.97 313.37 400.88 313.61 399.79 313.84 C 399.79 316.15 399.80 318.46 399.82 320.77 C 399.40 320.79 398.56 320.82 398.14 320.84 C 398.15 318.47 398.16 316.10 398.17 313.73 C 397.47 313.67 396.06 313.55 395.36 313.49 L 395.55 311.83 Z" />
</svg>
