<?xml version="1.0" encoding="UTF-8" ?>
<!DOCTYPE svg PUBLIC "-//W3C//DTD SVG 1.1//EN" "http://www.w3.org/Graphics/SVG/1.1/DTD/svg11.dtd">
<svg width="512pt" height="512pt" viewBox="0 0 512 512" version="1.1" xmlns="http://www.w3.org/2000/svg">
<path fill="#00aeef" opacity="1.00" d=" M 0.00 0.00 L 512.00 0.00 L 512.00 512.00 L 0.00 512.00 L 0.00 0.00 Z" />
<path fill="#ffffff" opacity="1.00" d=" M 161.56 122.82 C 214.79 122.85 268.03 122.82 321.27 122.84 C 323.75 132.54 326.15 142.27 328.55 151.99 C 328.79 152.99 329.23 154.15 330.40 154.35 C 340.22 156.93 350.15 159.14 359.93 161.86 C 360.45 164.53 360.12 167.27 360.18 169.97 C 360.19 233.78 360.16 297.60 360.19 361.42 C 293.97 361.49 227.74 361.42 161.51 361.45 C 161.52 358.67 161.52 355.89 161.54 353.12 C 222.01 353.17 282.47 353.15 342.94 353.14 C 346.37 352.92 350.00 353.73 353.24 352.26 C 353.27 301.51 353.26 250.75 353.24 200.00 C 353.54 198.12 351.73 197.04 350.09 197.38 C 287.23 197.37 224.37 197.38 161.51 197.37 C 161.57 172.52 161.48 147.67 161.56 122.82 Z" />
<path fill="#ffffff" opacity="1.00" d=" M 325.07 126.13 C 335.66 136.80 346.46 147.28 356.89 158.12 C 348.90 156.28 340.99 154.15 333.02 152.24 C 330.77 152.19 330.90 149.61 330.34 148.07 C 328.71 140.72 326.52 133.51 325.07 126.13 Z" />
<path fill="#ffffff" opacity="1.00" d=" M 152.24 201.42 C 217.93 201.49 283.63 201.35 349.32 201.49 C 349.23 250.63 349.27 299.77 349.30 348.92 C 329.53 349.34 309.74 348.95 289.97 349.11 C 244.05 349.00 198.13 349.29 152.22 348.96 C 152.30 299.78 152.26 250.60 152.24 201.42 Z" />
<path fill="#00aeef" opacity="1.00" d=" M 167.20 218.98 C 166.93 217.21 168.29 216.08 169.99 216.39 C 223.98 216.38 277.98 216.34 331.97 216.41 C 333.42 216.11 334.52 217.65 334.30 219.00 C 334.32 257.09 334.30 295.19 334.31 333.29 C 332.92 333.83 331.48 334.29 329.98 334.21 C 276.66 334.14 223.35 334.23 170.03 334.17 C 168.76 334.26 166.92 333.58 167.22 331.98 C 167.13 294.32 167.18 256.64 167.20 218.98 Z" />
<path fill="#ffffff" opacity="1.00" d=" M 151.58 373.82 C 220.80 373.86 290.03 373.77 359.25 373.87 C 359.48 374.10 359.92 374.55 360.14 374.77 C 360.32 380.02 360.03 385.27 360.27 390.52 C 336.18 390.93 312.08 390.58 287.98 390.69 C 242.48 390.62 196.98 390.83 151.48 390.59 C 151.65 385.00 151.51 379.41 151.58 373.82 Z" />
</svg>
