<?xml version="1.0" encoding="UTF-8" ?>
<!DOCTYPE svg PUBLIC "-//W3C//DTD SVG 1.1//EN" "http://www.w3.org/Graphics/SVG/1.1/DTD/svg11.dtd">
<svg width="512pt" height="512pt" viewBox="0 0 512 512" version="1.1" xmlns="http://www.w3.org/2000/svg">
<path fill="#6b6b6b" opacity="1.00" d=" M 0.00 0.00 L 512.00 0.00 L 512.00 512.00 L 0.00 512.00 L 0.00 0.00 Z" />
<path fill="#ffffff" opacity="1.00" d=" M 318.94 127.59 C 328.11 126.10 337.47 128.11 346.25 130.78 C 334.54 142.22 323.10 153.93 311.48 165.45 C 306.17 170.49 306.05 179.70 311.19 184.91 C 316.31 190.06 321.46 195.19 326.61 200.33 C 331.82 205.50 341.11 205.47 346.19 200.13 C 357.25 188.85 368.68 177.93 379.58 166.49 C 380.22 165.82 380.98 165.34 381.86 165.05 C 384.21 171.83 385.81 178.86 386.23 186.04 C 386.41 200.77 381.35 215.57 371.80 226.84 C 361.47 239.15 345.99 246.80 329.99 247.99 C 324.66 248.80 319.35 247.59 314.04 247.27 C 294.62 267.44 274.52 286.95 254.81 306.83 C 232.15 329.50 209.52 352.17 186.82 374.79 C 180.30 381.41 171.09 384.70 161.98 385.42 C 153.82 384.86 145.55 382.13 139.28 376.74 C 130.59 369.63 125.80 358.13 126.63 346.97 C 127.43 338.73 130.89 330.67 136.85 324.84 C 179.79 281.92 222.68 238.97 265.65 196.07 C 263.99 181.82 266.88 166.95 274.81 154.88 C 284.42 139.75 301.08 129.35 318.94 127.59 Z" />
<path fill="#6b6b6b" opacity="1.00" d=" M 155.42 332.76 C 160.40 331.59 166.00 331.83 170.43 334.62 C 176.14 337.91 179.72 344.43 179.58 351.01 C 179.58 357.81 175.48 364.40 169.44 367.49 C 163.35 370.50 155.48 370.22 149.98 366.06 C 145.23 362.62 141.89 356.95 142.19 350.97 C 141.78 342.84 147.59 334.92 155.42 332.76 Z" />
</svg>
