<?xml version="1.0" encoding="UTF-8" ?>
<!DOCTYPE svg PUBLIC "-//W3C//DTD SVG 1.1//EN" "http://www.w3.org/Graphics/SVG/1.1/DTD/svg11.dtd">
<svg width="512pt" height="512pt" viewBox="0 0 512 512" version="1.1" xmlns="http://www.w3.org/2000/svg">
<path fill="#6b6b6b" opacity="1.00" d=" M 0.00 0.00 L 512.00 0.00 L 512.00 512.00 L 0.00 512.00 L 0.00 0.00 Z" />
<path fill="#ffffff" opacity="1.00" d=" M 165.95 132.48 C 179.25 127.25 194.40 126.82 207.94 131.42 C 223.81 136.99 237.48 149.29 243.60 165.09 C 247.97 175.81 249.27 187.72 247.16 199.11 C 289.39 241.11 331.44 283.29 373.55 325.41 C 384.95 336.51 386.78 355.78 377.86 368.92 C 371.66 378.51 360.47 384.79 348.99 384.67 C 339.83 384.93 330.72 381.17 324.19 374.79 C 282.00 332.65 239.85 290.45 197.68 248.29 C 196.33 246.45 193.88 247.58 192.00 247.50 C 169.51 249.18 146.84 236.75 136.05 216.98 C 127.75 202.21 126.53 183.91 132.06 167.97 C 141.62 176.72 150.40 186.28 159.73 195.27 C 163.50 198.76 166.66 203.19 171.48 205.32 C 176.23 206.49 181.84 206.10 185.45 202.43 C 190.65 197.30 195.79 192.11 200.95 186.95 C 205.86 182.15 205.98 173.53 201.49 168.44 C 189.88 156.22 177.43 144.80 165.95 132.48 Z" />
<path fill="#ffffff" opacity="1.00" d=" M 335.33 135.38 C 345.93 125.45 363.99 125.61 374.53 135.55 C 380.30 140.41 383.22 147.71 384.44 154.98 C 385.02 159.54 383.59 163.99 382.18 168.26 C 379.97 174.16 375.34 178.60 370.91 182.88 C 350.64 203.24 330.25 223.48 309.99 243.87 C 307.11 240.84 303.90 238.11 301.18 234.94 C 300.86 233.63 302.46 233.02 303.08 232.11 C 324.69 210.67 346.13 189.08 367.68 167.59 C 368.79 166.21 370.71 164.96 370.47 162.96 C 370.64 159.24 365.25 156.68 362.76 159.79 C 345.92 176.58 329.04 193.34 312.33 210.26 C 306.18 216.11 300.47 222.46 294.12 228.10 C 290.89 224.59 287.38 221.35 284.03 217.94 C 306.82 195.09 329.76 172.39 352.42 149.43 C 355.56 146.83 352.85 141.25 348.98 141.69 C 347.31 141.67 346.13 143.03 345.01 144.07 C 322.61 166.60 300.03 188.95 277.67 211.52 C 274.45 208.47 271.33 205.34 268.29 202.13 C 290.83 180.08 312.84 157.48 335.33 135.38 Z" />
<path fill="#ffffff" opacity="1.00" d=" M 177.06 321.12 C 189.61 308.43 202.30 295.89 214.90 283.26 C 219.45 288.01 224.06 292.72 228.85 297.23 C 215.89 310.24 202.81 323.15 189.94 336.24 C 188.48 341.90 187.18 347.63 186.27 353.41 C 170.67 364.20 154.53 374.20 138.86 384.89 C 134.97 381.01 131.01 377.21 127.24 373.21 C 138.05 357.60 147.87 341.30 158.87 325.82 C 163.30 325.25 167.62 324.11 172.00 323.23 C 173.78 322.79 175.84 322.68 177.06 321.12 Z" />
<path fill="#6b6b6b" opacity="1.00" d=" M 343.38 333.42 C 348.45 331.57 354.32 332.02 358.99 334.77 C 364.41 337.82 368.04 343.75 368.34 349.97 C 369.36 359.78 360.72 369.24 350.97 369.58 C 342.30 370.35 333.66 363.98 331.58 355.57 C 329.26 346.52 334.46 336.40 343.38 333.42 Z" />
</svg>
