<?xml version="1.0" encoding="UTF-8" ?>
<!DOCTYPE svg PUBLIC "-//W3C//DTD SVG 1.1//EN" "http://www.w3.org/Graphics/SVG/1.1/DTD/svg11.dtd">
<svg width="512pt" height="512pt" viewBox="0 0 512 512" version="1.1" xmlns="http://www.w3.org/2000/svg">
<path fill="#00a8ec" opacity="1.00" d=" M 0.00 0.00 L 512.00 0.00 L 512.00 512.00 L 0.00 512.00 L 0.00 0.00 Z" />
<path fill="#ffffff" opacity="1.00" d=" M 112.50 150.64 C 115.31 150.23 118.16 150.50 120.99 150.45 C 213.01 150.45 305.04 150.45 397.06 150.45 C 399.30 150.03 400.79 151.78 402.28 153.12 C 402.30 221.54 402.16 289.96 402.35 358.37 C 400.02 361.95 395.53 360.69 391.95 360.87 C 299.28 360.85 206.62 360.86 113.95 360.86 C 111.31 361.19 108.83 358.67 109.20 356.04 C 109.20 289.32 109.21 222.59 109.19 155.86 C 108.79 153.49 110.61 151.70 112.50 150.64 Z" />
<path fill="#00a8ec" opacity="1.00" d=" M 117.36 320.02 C 117.36 266.20 117.38 212.39 117.35 158.58 C 209.69 158.60 302.02 158.58 394.36 158.58 C 394.31 223.45 394.37 288.32 394.37 353.18 C 389.58 353.44 384.78 353.47 380.00 353.07 C 367.36 352.94 354.72 353.12 342.08 353.12 C 325.72 352.40 309.34 353.64 292.98 352.91 C 245.29 353.01 197.65 352.92 149.97 353.12 C 139.62 352.73 129.25 352.71 118.90 353.11 C 117.13 353.48 116.60 351.45 116.84 350.13 C 117.01 340.09 116.47 330.03 117.36 320.02 Z" />
<path fill="#ffffff" opacity="1.00" d=" M 118.44 324.13 C 122.14 324.12 125.84 324.15 129.54 324.13 C 123.59 326.48 119.16 332.48 119.73 339.02 C 120.01 344.43 123.65 349.13 128.47 351.41 C 125.12 351.48 121.77 351.50 118.42 351.45 C 118.44 342.34 118.42 333.23 118.44 324.13 Z" />
<path fill="#ffffff" opacity="1.00" d=" M 138.96 324.18 C 219.47 324.03 299.97 324.26 380.47 324.07 C 379.78 333.17 380.32 342.33 380.18 351.45 C 300.17 351.52 220.16 351.37 140.15 351.53 C 145.15 348.94 149.05 343.76 148.75 337.95 C 148.99 331.77 144.56 326.35 138.96 324.18 Z" />
<path fill="#ffffff" opacity="1.00" d=" M 131.43 328.67 C 134.97 327.65 139.08 328.64 141.52 331.47 C 144.01 334.08 144.44 338.07 143.45 341.42 C 142.07 345.25 138.10 348.02 133.99 347.76 C 128.85 347.86 124.33 343.15 124.48 338.05 C 124.37 333.82 127.40 329.83 131.43 328.67 Z" />
<path fill="#ffffff" opacity="1.00" d=" M 384.81 328.25 C 386.46 328.22 388.12 328.21 389.79 328.20 C 389.77 334.98 389.75 341.76 389.79 348.54 C 388.13 348.53 386.46 348.51 384.80 348.50 C 384.84 341.75 384.83 335.00 384.81 328.25 Z" />
</svg>
