<?xml version="1.0" encoding="UTF-8" ?>
<!DOCTYPE svg PUBLIC "-//W3C//DTD SVG 1.1//EN" "http://www.w3.org/Graphics/SVG/1.1/DTD/svg11.dtd">
<svg width="512pt" height="512pt" viewBox="0 0 512 512" version="1.1" xmlns="http://www.w3.org/2000/svg">
<path fill="#00a8ec" opacity="1.00" d=" M 0.00 0.00 L 512.00 0.00 L 512.00 512.00 L 0.00 512.00 L 0.00 0.00 Z" />
<path fill="#ffffff" opacity="1.00" d=" M 112.50 150.65 C 115.63 150.21 118.81 150.51 121.97 150.45 C 213.69 150.46 305.42 150.45 397.15 150.45 C 399.30 150.11 400.77 151.81 402.27 153.03 C 402.31 221.50 402.14 289.97 402.36 358.44 C 400.93 359.88 399.29 361.26 397.10 360.87 C 302.71 360.84 208.31 360.88 113.92 360.85 C 111.29 361.17 108.86 358.68 109.20 356.06 C 109.19 289.36 109.21 222.65 109.20 155.95 C 108.79 153.56 110.54 151.70 112.50 150.65 Z" />
<path fill="#00a8ec" opacity="1.00" d=" M 117.37 319.01 C 117.35 265.53 117.38 212.05 117.35 158.57 C 209.69 158.60 302.02 158.58 394.36 158.58 C 394.31 223.45 394.37 288.33 394.37 353.20 C 384.59 353.81 374.82 352.48 365.03 353.09 C 339.00 352.73 312.97 353.33 286.93 352.97 C 233.96 352.97 180.98 353.04 127.99 352.86 C 124.26 352.96 120.51 353.32 116.82 352.63 C 117.01 341.42 116.51 330.20 117.37 319.01 Z" />
<path fill="#ffffff" opacity="1.00" d=" M 128.62 174.05 C 128.25 171.91 129.57 169.62 131.97 169.94 C 188.97 169.80 245.98 169.95 302.98 169.87 C 305.15 169.72 308.42 170.03 308.25 172.97 C 308.39 184.82 308.28 196.68 308.28 208.53 C 329.85 208.49 351.43 208.56 373.00 208.49 C 374.83 208.58 377.12 208.24 378.21 210.11 C 378.70 213.05 378.44 216.05 378.48 219.02 C 378.45 248.37 378.50 277.74 378.46 307.09 C 378.82 309.15 377.20 311.00 375.10 310.58 C 337.73 310.62 300.36 310.59 262.99 310.60 C 256.82 310.43 250.61 310.94 244.46 310.37 C 241.93 308.00 243.67 303.92 243.12 300.85 C 243.58 298.88 241.36 298.61 240.00 298.80 C 224.42 298.85 208.83 298.80 193.24 298.83 C 193.22 301.47 193.22 304.11 193.22 306.76 C 184.57 306.78 175.93 306.75 167.28 306.77 C 167.30 304.13 167.31 301.48 167.31 298.84 C 164.34 298.83 161.38 298.82 158.41 298.82 C 158.38 301.48 158.36 304.14 158.34 306.81 C 149.71 306.72 141.09 306.77 132.46 306.78 C 132.48 304.33 132.49 301.88 132.50 299.43 C 131.19 298.76 129.44 298.47 128.82 296.96 C 128.43 293.99 128.65 290.98 128.62 287.99 C 128.63 250.01 128.62 212.03 128.62 174.05 Z" />
<path fill="#00a8ec" opacity="1.00" d=" M 158.39 199.59 C 158.37 191.66 158.34 183.73 158.41 175.80 C 161.37 175.80 164.34 175.80 167.30 175.82 C 167.30 183.74 167.33 191.67 167.28 199.60 C 175.93 199.56 184.58 199.61 193.23 199.56 C 193.21 191.65 193.20 183.73 193.23 175.81 C 229.56 175.79 265.89 175.80 302.21 175.80 C 302.23 186.70 302.20 197.60 302.23 208.50 C 283.80 208.56 265.36 208.47 246.93 208.54 C 245.34 208.39 243.17 209.14 243.27 211.06 C 242.93 217.70 243.11 224.36 242.84 231.01 C 243.51 251.57 242.91 272.15 242.89 292.72 C 226.32 292.70 209.75 292.74 193.18 292.70 C 193.22 288.73 193.22 284.77 193.21 280.81 C 184.58 280.79 175.95 280.82 167.33 280.79 C 167.29 284.76 167.30 288.72 167.34 292.69 C 164.34 292.71 161.34 292.71 158.35 292.70 C 158.38 288.73 158.38 284.77 158.36 280.80 C 150.45 280.81 142.53 280.79 134.61 280.82 C 134.60 277.65 134.60 274.49 134.61 271.34 C 142.53 271.35 150.46 271.34 158.38 271.35 C 158.37 262.70 158.35 254.06 158.40 245.42 C 150.47 245.42 142.54 245.41 134.61 245.43 C 134.59 242.20 134.60 238.98 134.63 235.76 C 142.55 235.77 150.46 235.75 158.38 235.77 C 158.36 227.13 158.38 218.48 158.37 209.84 C 150.45 209.85 142.54 209.83 134.62 209.85 C 134.59 206.43 134.59 203.00 134.61 199.58 C 142.54 199.59 150.46 199.58 158.39 199.59 Z" />
<path fill="#ffffff" opacity="1.00" d=" M 167.32 209.83 C 175.95 209.86 184.58 209.84 193.21 209.85 C 193.22 218.48 193.21 227.11 193.22 235.75 C 184.57 235.78 175.93 235.75 167.28 235.77 C 167.34 227.12 167.28 218.48 167.32 209.83 Z" />
<path fill="#00a8ec" opacity="1.00" d=" M 249.09 214.61 C 266.80 214.59 284.51 214.59 302.23 214.61 C 302.22 240.64 302.21 266.68 302.23 292.72 C 284.52 292.71 266.81 292.72 249.10 292.72 C 249.14 266.68 249.15 240.64 249.09 214.61 Z" />
<path fill="#00a8ec" opacity="1.00" d=" M 308.32 288.96 C 308.28 264.17 308.33 239.38 308.29 214.59 C 329.69 214.62 351.10 214.59 372.51 214.60 C 372.48 244.60 372.46 274.60 372.51 304.59 C 331.37 304.60 290.23 304.59 249.09 304.60 C 249.11 302.67 249.14 300.74 249.17 298.82 C 267.13 298.85 285.08 298.79 303.04 298.85 C 304.86 298.75 307.50 299.15 308.11 296.84 C 308.49 294.23 308.28 291.58 308.32 288.96 Z" />
<path fill="#ffffff" opacity="1.00" d=" M 167.28 245.41 C 175.93 245.44 184.58 245.39 193.23 245.44 C 193.20 254.07 193.22 262.70 193.22 271.34 C 184.58 271.36 175.94 271.32 167.30 271.36 C 167.30 262.71 167.33 254.06 167.28 245.41 Z" />
<path fill="#ffffff" opacity="1.00" d=" M 118.44 324.12 C 122.13 324.14 125.82 324.15 129.51 324.10 C 124.95 326.16 120.91 329.97 120.03 335.08 C 118.41 341.74 122.42 348.58 128.42 351.47 C 125.09 351.47 121.76 351.47 118.42 351.46 C 118.44 342.35 118.42 333.23 118.44 324.12 Z" />
<path fill="#ffffff" opacity="1.00" d=" M 139.00 324.13 C 219.48 324.10 299.96 324.22 380.44 324.07 C 379.84 333.18 380.30 342.33 380.18 351.46 C 300.18 351.53 220.18 351.35 140.18 351.55 C 145.11 348.90 149.03 343.82 148.75 338.02 C 149.04 331.78 144.55 326.43 139.00 324.13 Z" />
<path fill="#ffffff" opacity="1.00" d=" M 131.40 328.68 C 136.98 326.81 143.66 331.03 143.88 337.01 C 144.73 342.31 140.31 347.59 134.97 347.74 C 130.53 348.21 126.12 345.17 124.89 340.90 C 123.22 335.92 126.36 330.08 131.40 328.68 Z" />
<path fill="#ffffff" opacity="1.00" d=" M 384.81 328.24 C 386.46 328.22 388.12 328.21 389.79 328.20 C 389.77 334.98 389.75 341.76 389.80 348.54 C 388.13 348.53 386.46 348.51 384.80 348.50 C 384.84 341.75 384.83 335.00 384.81 328.24 Z" />
</svg>
