<?xml version="1.0" encoding="UTF-8" ?>
<!DOCTYPE svg PUBLIC "-//W3C//DTD SVG 1.1//EN" "http://www.w3.org/Graphics/SVG/1.1/DTD/svg11.dtd">
<svg width="512pt" height="512pt" viewBox="0 0 512 512" version="1.1" xmlns="http://www.w3.org/2000/svg">
<path fill="#04aeda" opacity="1.00" d=" M 0.00 0.00 L 512.00 0.00 L 512.00 512.00 L 0.00 512.00 L 0.00 0.00 Z" />
<path fill="#ffffff" opacity="1.00" d=" M 270.57 145.45 C 310.75 145.60 350.94 145.25 391.12 145.62 C 393.28 155.33 395.92 164.94 398.44 174.57 C 353.32 174.64 308.20 174.60 263.08 174.59 C 265.58 164.88 268.00 155.14 270.57 145.45 Z" />
<path fill="#ffffff" opacity="1.00" d=" M 101.36 184.60 C 103.47 183.86 105.72 183.64 107.94 183.63 C 206.94 183.66 305.93 183.63 404.93 183.65 C 410.99 183.43 416.96 187.02 419.47 192.56 C 420.83 195.17 420.44 198.20 420.51 201.05 C 420.49 251.38 420.50 301.72 420.51 352.06 C 421.13 359.84 413.74 366.94 406.07 366.61 C 306.02 366.60 205.97 366.60 105.91 366.61 C 98.22 366.84 91.05 359.73 91.51 351.98 C 91.52 300.67 91.50 249.35 91.53 198.03 C 91.33 192.00 95.84 186.57 101.36 184.60 Z" />
<path fill="#04aeda" opacity="1.00" d=" M 280.23 201.25 C 314.95 201.24 349.67 201.31 384.40 201.21 C 386.45 208.28 387.44 215.69 390.19 222.53 C 374.69 222.39 359.20 222.48 343.70 222.49 C 343.72 238.20 343.84 253.92 343.64 269.63 C 359.37 269.94 375.13 269.68 390.87 269.76 C 390.82 255.18 390.82 240.59 390.87 226.00 C 390.88 224.38 390.64 222.79 390.14 221.24 C 396.40 223.87 403.28 224.69 409.78 226.63 C 409.71 270.01 409.74 313.38 409.77 356.75 C 366.59 356.74 323.41 356.74 280.24 356.76 C 280.27 304.92 280.27 253.08 280.23 201.25 Z" />
<path fill="#04aeda" opacity="1.00" d=" M 387.06 203.30 C 393.83 210.35 400.89 217.10 407.74 224.07 C 402.26 222.64 396.57 221.71 391.26 219.82 C 389.45 214.45 388.31 208.83 387.06 203.30 Z" />
<path fill="#ffffff" opacity="1.00" d=" M 298.79 222.55 C 311.79 222.36 324.79 222.53 337.80 222.46 C 337.79 224.46 337.78 226.47 337.79 228.48 C 324.80 228.46 311.81 228.51 298.82 228.46 C 298.81 226.48 298.80 224.51 298.79 222.55 Z" />
<path fill="#ffffff" opacity="1.00" d=" M 298.81 236.33 C 311.81 236.27 324.80 236.35 337.79 236.28 C 337.77 238.29 337.76 240.29 337.75 242.30 C 324.77 242.30 311.80 242.33 298.82 242.29 C 298.82 240.30 298.82 238.31 298.81 236.33 Z" />
<path fill="#ffffff" opacity="1.00" d=" M 298.82 250.25 C 311.81 250.20 324.81 250.26 337.81 250.23 C 337.77 252.15 337.76 254.07 337.80 256.00 C 325.50 256.34 313.18 256.04 300.87 256.16 C 297.55 256.46 299.12 252.23 298.82 250.25 Z" />
<path fill="#ffffff" opacity="1.00" d=" M 298.84 264.17 C 311.74 264.15 324.64 264.14 337.51 263.66 C 337.77 265.69 337.85 267.73 337.82 269.77 C 324.78 269.63 311.72 270.03 298.69 269.57 C 298.76 267.77 298.81 265.97 298.84 264.17 Z" />
<path fill="#ffffff" opacity="1.00" d=" M 298.83 277.72 C 329.49 277.66 360.15 277.71 390.82 277.69 C 390.82 279.69 390.84 281.70 390.85 283.70 C 360.16 283.63 329.46 283.82 298.77 283.61 C 298.79 281.64 298.82 279.68 298.83 277.72 Z" />
<path fill="#ffffff" opacity="1.00" d=" M 298.77 291.51 C 329.46 291.27 360.16 291.50 390.86 291.40 C 390.84 293.39 390.83 295.38 390.82 297.38 C 360.16 297.36 329.50 297.41 298.83 297.35 C 298.82 295.40 298.80 293.46 298.77 291.51 Z" />
<path fill="#ffffff" opacity="1.00" d=" M 298.79 305.35 C 329.48 305.21 360.18 305.34 390.88 305.28 C 390.85 307.26 390.82 309.23 390.80 311.22 C 360.14 311.22 329.49 311.23 298.84 311.21 C 298.82 309.25 298.80 307.30 298.79 305.35 Z" />
<path fill="#ffffff" opacity="1.00" d=" M 298.71 319.37 C 300.73 318.68 302.87 318.83 304.97 318.85 C 333.57 318.89 362.17 318.90 390.77 318.85 C 390.81 320.83 390.85 322.81 390.90 324.79 C 360.21 324.79 329.52 324.76 298.83 324.80 C 298.81 322.99 298.77 321.18 298.71 319.37 Z" />
<path fill="#ffffff" opacity="1.00" d=" M 298.84 332.73 C 329.50 332.69 360.16 332.72 390.81 332.71 C 390.82 334.70 390.84 336.69 390.86 338.69 C 360.16 338.58 329.45 338.84 298.76 338.56 C 298.79 336.61 298.82 334.67 298.84 332.73 Z" />
</svg>
