<?xml version="1.0" encoding="UTF-8" ?>
<!DOCTYPE svg PUBLIC "-//W3C//DTD SVG 1.1//EN" "http://www.w3.org/Graphics/SVG/1.1/DTD/svg11.dtd">
<svg width="512pt" height="512pt" viewBox="0 0 512 512" version="1.1" xmlns="http://www.w3.org/2000/svg">
<path fill="#04aeda" opacity="1.00" d=" M 0.00 0.00 L 512.00 0.00 L 512.00 512.00 L 0.00 512.00 L 0.00 0.00 Z" />
<path fill="#ffffff" opacity="1.00" d=" M 270.55 145.45 C 310.71 145.53 350.87 145.37 391.03 145.53 C 393.32 155.26 395.91 164.92 398.43 174.60 C 353.31 174.60 308.19 174.61 263.08 174.59 C 265.58 164.88 268.01 155.15 270.55 145.45 Z" />
<path fill="#ffffff" opacity="1.00" d=" M 101.36 184.60 C 103.50 183.86 105.77 183.65 108.02 183.63 C 207.01 183.66 306.01 183.62 405.00 183.65 C 412.83 183.30 420.84 189.86 420.51 197.99 C 420.51 249.35 420.49 300.71 420.52 352.06 C 421.11 359.86 413.74 366.94 406.06 366.61 C 306.03 366.60 206.01 366.60 105.99 366.61 C 98.27 366.87 91.06 359.77 91.52 351.99 C 91.52 300.67 91.50 249.35 91.53 198.03 C 91.34 191.99 95.83 186.56 101.36 184.60 Z" />
<path fill="#04aeda" opacity="1.00" d=" M 305.49 197.55 C 328.98 197.10 352.52 197.54 376.03 197.34 C 390.31 196.81 403.84 207.96 406.47 221.93 C 407.15 225.56 407.23 229.27 407.18 232.95 C 407.13 264.34 407.21 295.73 407.14 327.12 C 407.90 332.32 400.11 334.86 397.63 330.32 C 396.19 324.99 397.26 319.36 397.11 313.91 C 397.08 285.24 397.25 256.57 397.06 227.90 C 396.96 217.33 387.79 207.51 377.05 207.63 C 354.34 207.64 331.63 207.61 308.92 207.65 C 307.13 207.61 305.12 207.62 303.77 206.25 C 300.77 203.94 301.98 198.70 305.49 197.55 Z" />
<path fill="#04aeda" opacity="1.00" d=" M 295.33 215.38 C 321.55 215.15 347.78 215.34 374.00 215.29 C 382.40 214.96 389.56 222.75 389.28 231.01 C 389.26 266.68 389.33 302.35 389.24 338.02 C 389.22 346.47 381.36 353.43 373.06 353.19 C 348.03 353.17 323.00 353.18 297.97 353.18 C 289.76 353.37 281.84 346.52 281.93 338.09 C 281.86 302.38 281.92 266.67 281.90 230.96 C 281.54 223.33 287.66 216.02 295.33 215.38 Z" />
<path fill="#ffffff" opacity="1.00" d=" M 296.29 225.41 C 321.85 225.06 347.45 225.35 373.03 225.27 C 376.25 224.85 379.47 227.44 379.16 230.81 C 379.19 266.25 379.17 301.69 379.17 337.13 C 379.45 340.05 377.08 343.03 374.02 342.78 C 348.33 342.83 322.63 342.84 296.94 342.77 C 293.90 342.95 291.68 339.97 291.87 337.11 C 291.80 302.04 291.87 266.97 291.83 231.89 C 291.54 229.02 293.15 225.72 296.29 225.41 Z" />
<path fill="#04aeda" opacity="1.00" d=" M 318.38 242.44 C 319.77 240.35 322.63 242.70 321.66 244.64 C 314.57 263.83 307.36 282.99 300.17 302.14 C 299.89 305.00 294.95 304.09 296.17 301.29 C 302.81 282.97 309.87 264.80 316.55 246.49 C 317.08 245.11 317.55 243.67 318.38 242.44 Z" />
<path fill="#04aeda" opacity="1.00" d=" M 326.29 242.21 C 330.60 242.19 334.90 242.20 339.21 242.18 C 344.87 257.27 350.53 272.37 356.12 287.49 C 357.59 283.82 358.97 280.13 360.38 276.44 C 362.31 276.45 364.25 276.46 366.19 276.47 C 369.46 285.69 373.33 294.71 376.18 304.07 C 374.58 304.13 372.97 304.20 371.38 304.27 C 370.40 302.10 369.55 299.87 368.89 297.58 C 365.88 297.49 362.87 297.50 359.86 297.55 C 360.68 299.63 361.50 301.72 362.35 303.80 C 356.76 304.07 351.16 304.19 345.57 304.17 C 344.11 300.42 342.94 296.56 341.44 292.82 C 334.46 292.90 327.47 292.91 320.48 292.81 C 318.88 296.42 317.65 300.16 316.44 303.91 C 312.04 304.20 307.63 304.07 303.22 304.15 C 310.80 283.46 318.66 262.88 326.29 242.21 Z" />
<path fill="#ffffff" opacity="1.00" d=" M 324.00 280.76 C 326.46 273.73 328.40 266.51 331.07 259.56 C 333.24 266.64 335.46 273.70 337.74 280.75 C 333.16 280.77 328.58 280.77 324.00 280.76 Z" />
<path fill="#ffffff" opacity="1.00" d=" M 358.83 294.12 C 360.09 289.80 361.70 285.59 363.15 281.33 C 364.74 285.54 366.17 289.82 367.56 294.11 C 364.64 294.12 361.73 294.13 358.83 294.12 Z" />
<path fill="#04aeda" opacity="1.00" d=" M 304.35 338.81 C 304.40 330.47 304.33 322.13 304.40 313.79 C 308.74 313.87 313.10 313.64 317.44 313.85 C 318.72 315.03 317.95 317.00 318.28 318.52 C 315.35 318.56 312.42 318.56 309.50 318.57 C 309.50 320.47 309.51 322.36 309.52 324.27 C 312.20 324.25 314.88 324.25 317.56 324.24 C 317.54 325.77 317.52 327.31 317.52 328.86 C 314.85 328.84 312.19 328.84 309.53 328.84 C 309.50 332.15 309.51 335.46 309.53 338.78 C 307.80 338.79 306.07 338.80 304.35 338.81 Z" />
<path fill="#04aeda" opacity="1.00" d=" M 359.44 317.53 C 361.13 316.93 362.84 316.35 364.55 315.78 C 364.54 317.41 364.54 319.05 364.54 320.69 C 365.76 320.69 367.00 320.69 368.23 320.69 C 368.22 322.08 368.22 323.47 368.23 324.86 C 367.30 324.83 365.44 324.77 364.51 324.74 C 364.49 327.91 364.53 331.08 364.76 334.25 C 365.88 334.35 367.01 334.47 368.13 334.63 C 368.16 335.62 368.23 337.61 368.26 338.60 C 365.57 339.60 361.69 339.70 360.29 336.68 C 358.91 333.08 359.68 329.09 359.59 325.32 C 359.00 325.13 357.81 324.74 357.22 324.54 C 357.38 322.70 356.94 320.20 359.60 320.31 C 359.56 319.62 359.48 318.22 359.44 317.53 Z" />
<path fill="#04aeda" opacity="1.00" d=" M 325.53 320.68 C 328.30 319.94 331.62 320.11 333.80 322.21 C 339.65 327.34 336.66 339.88 327.96 339.33 C 318.15 339.44 316.71 323.45 325.53 320.68 Z" />
<path fill="#04aeda" opacity="1.00" d=" M 344.52 322.62 C 345.86 321.59 347.19 320.15 349.06 320.31 C 352.28 319.89 354.71 322.97 354.99 325.92 C 355.49 330.18 355.12 334.48 355.22 338.76 C 353.43 338.76 351.65 338.77 349.87 338.75 C 349.81 334.87 350.10 330.97 349.73 327.11 C 349.88 324.26 345.15 324.53 344.98 327.17 C 344.55 331.02 344.88 334.90 344.83 338.77 C 343.14 338.78 341.45 338.78 339.77 338.80 C 339.84 332.72 339.77 326.64 339.51 320.57 C 341.39 320.84 344.32 319.86 344.52 322.62 Z" />
<path fill="#ffffff" opacity="1.00" d=" M 325.67 326.46 C 326.28 325.05 327.55 324.21 329.11 324.44 C 332.74 327.14 332.30 333.81 328.02 335.71 C 324.92 333.72 324.52 329.68 325.67 326.46 Z" />
</svg>
