<?xml version="1.0" encoding="UTF-8" ?>
<!DOCTYPE svg PUBLIC "-//W3C//DTD SVG 1.1//EN" "http://www.w3.org/Graphics/SVG/1.1/DTD/svg11.dtd">
<svg width="512pt" height="512pt" viewBox="0 0 512 512" version="1.1" xmlns="http://www.w3.org/2000/svg">
<path fill="#00a8ec" opacity="1.00" d=" M 0.00 0.00 L 512.00 0.00 L 512.00 512.00 L 0.00 512.00 L 0.00 0.00 Z" />
<path fill="#ffffff" opacity="1.00" d=" M 112.53 150.64 C 115.67 150.22 118.86 150.51 122.02 150.45 C 213.70 150.45 305.39 150.45 397.07 150.45 C 399.58 150.09 402.40 152.22 402.25 154.84 C 402.34 222.70 402.13 290.55 402.36 358.40 C 401.10 359.47 399.95 361.09 398.08 360.84 C 303.37 360.89 208.65 360.85 113.94 360.85 C 111.35 361.18 108.87 358.71 109.20 356.12 C 109.19 289.42 109.21 222.73 109.19 156.03 C 108.76 153.60 110.54 151.69 112.53 150.64 Z" />
<path fill="#00a8ec" opacity="1.00" d=" M 117.37 304.96 C 117.40 256.15 117.30 207.33 117.41 158.52 C 209.73 158.67 302.04 158.54 394.36 158.58 C 394.31 223.45 394.37 288.32 394.37 353.19 C 386.26 353.80 378.17 352.75 370.06 352.86 C 348.38 353.36 326.71 352.80 305.03 353.11 C 280.35 352.77 255.66 353.16 230.98 353.01 C 202.99 353.23 175.01 352.64 147.03 353.07 C 136.97 352.40 126.85 353.37 116.82 352.63 C 116.96 344.08 116.75 335.52 116.91 326.97 C 117.64 319.65 117.29 312.30 117.37 304.96 Z" />
<path fill="#ffffff" opacity="1.00" d=" M 359.22 162.22 C 370.50 159.15 383.27 165.33 387.93 176.03 C 391.47 183.44 390.80 192.52 386.40 199.42 C 381.46 207.60 371.44 212.37 361.98 210.89 C 353.56 209.88 345.99 204.08 342.62 196.34 C 340.49 191.88 340.36 186.76 340.91 181.94 C 342.43 172.52 349.99 164.53 359.22 162.22 Z" />
<path fill="#00a8ec" opacity="1.00" d=" M 365.16 171.39 C 366.54 171.40 367.94 171.41 369.33 171.42 C 369.30 176.83 369.34 182.24 369.28 187.65 C 373.99 187.65 378.70 187.65 383.41 187.65 C 383.39 188.27 383.34 189.53 383.31 190.16 C 377.28 189.59 371.24 190.24 365.21 190.08 C 365.16 183.85 365.22 177.62 365.16 171.39 Z" />
<path fill="#ffffff" opacity="1.00" d=" M 370.37 228.11 C 373.43 225.11 377.81 222.70 382.18 224.28 C 388.25 225.76 391.64 233.27 388.84 238.84 C 387.22 242.69 383.20 244.81 379.18 245.08 C 379.34 238.27 375.85 232.02 370.37 228.11 Z" />
<path fill="#ffffff" opacity="1.00" d=" M 356.24 228.25 C 364.88 224.96 375.16 231.04 377.02 239.95 C 379.48 248.71 373.02 258.52 364.06 259.86 C 355.06 261.70 345.74 254.16 345.29 245.07 C 344.51 237.80 349.36 230.56 356.24 228.25 Z" />
<path fill="#00a8ec" opacity="1.00" d=" M 365.16 234.23 C 365.83 234.22 367.15 234.22 367.82 234.22 C 367.79 238.01 367.78 241.81 367.84 245.61 C 363.47 245.62 359.10 245.63 354.74 245.58 C 354.75 244.73 354.77 243.04 354.78 242.19 C 358.25 242.19 361.72 242.19 365.19 242.19 C 365.19 239.53 365.18 236.88 365.16 234.23 Z" />
<path fill="#ffffff" opacity="1.00" d=" M 342.69 272.70 C 343.94 271.80 345.53 271.87 346.99 271.82 C 360.01 271.85 373.02 271.86 386.03 271.82 C 387.77 271.76 389.46 272.21 391.13 272.66 C 391.07 286.14 391.15 299.62 391.10 313.10 C 391.27 317.38 387.24 321.19 383.01 321.08 C 372.32 321.15 361.62 321.11 350.93 321.10 C 346.41 321.45 342.23 317.54 342.21 313.03 C 341.97 301.34 342.40 289.63 341.95 277.94 C 342.00 276.19 341.77 274.27 342.69 272.70 Z" />
<path fill="#00a8ec" opacity="1.00" d=" M 343.73 273.68 C 358.98 273.37 374.24 273.67 389.50 273.52 C 389.68 276.27 389.72 279.02 389.71 281.78 C 374.36 281.74 359.01 281.75 343.66 281.77 C 343.67 279.07 343.68 276.37 343.73 273.68 Z" />
<path fill="#00a8ec" opacity="1.00" d=" M 354.77 292.27 C 357.40 292.27 360.04 292.27 362.67 292.27 C 362.65 295.01 362.64 297.76 362.65 300.51 C 360.02 300.49 357.40 300.48 354.77 300.48 C 354.78 297.74 354.78 295.00 354.77 292.27 Z" />
<path fill="#00a8ec" opacity="1.00" d=" M 375.12 304.52 C 377.87 304.51 380.62 304.51 383.37 304.50 C 383.36 307.26 383.35 310.02 383.35 312.78 C 380.61 312.76 377.87 312.76 375.13 312.76 C 375.14 310.01 375.14 307.26 375.12 304.52 Z" />
<path fill="#ffffff" opacity="1.00" d=" M 118.44 324.12 C 122.14 324.13 125.83 324.15 129.52 324.11 C 124.64 326.22 120.51 330.50 119.87 335.95 C 118.73 342.38 122.71 348.55 128.29 351.48 C 125.00 351.47 121.71 351.47 118.42 351.46 C 118.44 342.34 118.41 333.23 118.44 324.12 Z" />
<path fill="#ffffff" opacity="1.00" d=" M 138.98 324.14 C 219.47 324.09 299.97 324.23 380.46 324.07 C 379.81 333.18 380.30 342.33 380.18 351.46 C 300.18 351.53 220.17 351.36 140.17 351.54 C 145.12 348.91 149.04 343.82 148.75 338.02 C 149.03 331.79 144.55 326.41 138.98 324.14 Z" />
<path fill="#ffffff" opacity="1.00" d=" M 131.41 328.67 C 138.54 326.15 146.23 333.85 143.59 340.95 C 141.79 347.87 131.95 350.12 127.21 344.85 C 122.12 339.98 124.59 330.43 131.41 328.67 Z" />
<path fill="#ffffff" opacity="1.00" d=" M 385.02 328.31 C 386.60 328.18 388.19 328.18 389.78 328.15 C 389.77 334.95 389.75 341.75 389.79 348.55 C 388.12 348.53 386.46 348.51 384.80 348.50 C 384.99 341.77 384.53 335.02 385.02 328.31 Z" />
</svg>
