<?xml version="1.0" encoding="UTF-8" ?>
<!DOCTYPE svg PUBLIC "-//W3C//DTD SVG 1.1//EN" "http://www.w3.org/Graphics/SVG/1.1/DTD/svg11.dtd">
<svg width="512pt" height="512pt" viewBox="0 0 512 512" version="1.1" xmlns="http://www.w3.org/2000/svg">
<path fill="#00de00" opacity="1.00" d=" M 0.00 0.00 L 512.00 0.00 L 512.00 512.00 L 0.00 512.00 L 0.00 0.00 Z" />
<path fill="#ffffff" opacity="1.00" d=" M 188.23 159.15 C 192.07 157.84 195.99 159.22 199.78 159.98 C 201.74 161.08 202.93 163.35 205.29 163.76 C 209.65 165.02 213.23 167.93 217.36 169.72 C 228.49 174.75 240.92 175.47 252.95 175.41 C 268.79 175.62 285.75 175.26 299.56 166.49 C 303.26 163.78 308.39 163.96 311.45 160.32 C 315.73 158.79 320.49 157.98 324.93 159.39 C 334.14 160.66 343.09 163.96 350.75 169.27 C 353.84 170.85 352.52 175.02 354.65 177.34 C 357.32 180.62 358.82 184.60 360.21 188.54 C 370.07 216.11 378.63 244.25 384.14 273.03 C 386.69 286.46 388.00 300.19 386.91 313.84 C 386.23 323.13 385.72 332.91 381.25 341.30 C 378.62 346.08 373.14 348.08 367.97 348.43 C 360.78 347.02 353.40 345.74 346.93 342.12 C 337.42 336.97 330.85 328.13 323.46 320.51 C 313.10 310.17 300.57 301.01 285.89 298.29 C 272.40 295.75 258.63 296.58 244.99 296.38 C 236.25 296.83 227.37 297.14 218.95 299.72 C 208.57 302.89 199.48 309.24 191.48 316.42 C 182.33 324.60 175.39 335.34 164.64 341.64 C 158.06 345.62 150.38 346.91 142.96 348.44 C 137.24 348.15 131.25 345.53 128.88 339.98 C 124.52 330.30 124.44 319.44 123.44 309.05 C 122.62 294.29 125.55 279.64 128.23 265.19 C 133.76 239.64 141.34 214.56 150.12 189.94 C 151.91 185.08 153.53 179.97 157.23 176.15 C 159.01 174.56 158.55 171.77 160.06 170.09 C 168.21 163.89 178.17 160.56 188.23 159.15 Z" />
<path fill="#00de00" opacity="1.00" d=" M 328.49 174.71 C 334.35 172.15 341.61 177.63 340.54 184.00 C 340.06 190.70 331.00 194.52 325.98 189.92 C 320.46 186.10 321.98 176.52 328.49 174.71 Z" />
<path fill="#00de00" opacity="1.00" d=" M 175.53 182.88 C 181.54 181.11 188.61 182.32 193.14 186.84 C 198.29 191.69 199.92 199.72 197.11 206.20 C 194.03 213.92 185.05 218.50 177.01 216.39 C 167.53 214.69 161.45 203.94 164.13 194.84 C 165.71 189.36 169.98 184.51 175.53 182.88 Z" />
<path fill="#00de00" opacity="1.00" d=" M 252.24 189.23 C 260.02 186.39 269.32 191.47 271.49 199.39 C 274.75 208.52 266.78 219.41 257.04 218.90 C 248.95 219.46 241.48 212.07 241.64 204.03 C 241.29 197.45 246.01 191.14 252.24 189.23 Z" />
<path fill="#00de00" opacity="1.00" d=" M 310.40 193.47 C 315.26 192.26 320.60 196.06 321.28 200.99 C 322.10 205.95 317.94 210.80 313.04 211.26 C 307.13 211.85 301.60 205.37 303.74 199.66 C 304.59 196.54 307.35 194.29 310.40 193.47 Z" />
<path fill="#00de00" opacity="1.00" d=" M 347.25 194.23 C 353.41 190.80 361.54 197.44 359.61 204.16 C 358.49 210.23 350.32 213.61 345.49 209.41 C 339.96 205.81 340.94 196.42 347.25 194.23 Z" />
<path fill="#00de00" opacity="1.00" d=" M 328.22 213.25 C 333.92 210.54 341.18 215.67 340.54 221.94 C 340.60 228.73 331.59 233.20 326.32 228.74 C 320.63 225.06 321.82 215.47 328.22 213.25 Z" />
<path fill="#00de00" opacity="1.00" d=" M 211.48 223.88 C 217.86 222.13 225.17 223.41 230.25 227.76 C 235.15 231.63 238.10 237.78 238.24 244.00 C 238.15 251.19 234.24 258.29 228.03 261.99 C 223.10 265.20 216.80 265.57 211.20 264.23 C 202.20 261.62 195.39 252.40 196.19 242.95 C 196.44 234.21 203.09 226.13 211.48 223.88 Z" />
<path fill="#00de00" opacity="1.00" d=" M 289.37 227.56 C 299.48 224.42 310.96 232.43 311.78 242.91 C 312.99 251.95 306.14 261.10 297.10 262.42 C 287.12 264.54 276.46 256.32 276.19 246.07 C 275.34 237.75 281.36 229.62 289.37 227.56 Z" />
</svg>
