<?xml version="1.0" encoding="UTF-8" ?>
<!DOCTYPE svg PUBLIC "-//W3C//DTD SVG 1.1//EN" "http://www.w3.org/Graphics/SVG/1.1/DTD/svg11.dtd">
<svg width="512pt" height="512pt" viewBox="0 0 512 512" version="1.1" xmlns="http://www.w3.org/2000/svg">
<path fill="#db532d" opacity="1.00" d=" M 0.00 0.00 L 512.00 0.00 L 512.00 512.00 L 0.00 512.00 L 0.00 0.00 Z" />
<path fill="#ffffff" opacity="1.00" d=" M 117.43 349.44 C 117.41 287.48 117.41 225.52 117.43 163.56 C 209.91 163.59 302.40 163.50 394.88 163.61 C 394.80 225.53 394.80 287.47 394.88 349.39 C 302.40 349.50 209.91 349.41 117.43 349.44 Z" />
<path fill="#db532d" opacity="1.00" d=" M 157.43 326.38 C 157.41 279.86 157.33 233.34 157.47 186.82 C 223.16 186.83 288.85 186.84 354.55 186.82 C 354.77 233.32 354.60 279.86 354.63 326.37 C 288.90 326.37 223.16 326.36 157.43 326.38 Z" />
<path fill="#ffffff" opacity="1.00" d=" M 225.62 212.20 C 250.63 226.99 275.85 241.42 300.95 256.06 C 302.26 257.07 304.30 257.38 305.02 259.00 C 278.40 274.04 252.05 289.62 225.61 304.98 C 225.56 274.06 225.54 243.13 225.62 212.20 Z" />
</svg>
