<?xml version="1.0" encoding="UTF-8" ?>
<!DOCTYPE svg PUBLIC "-//W3C//DTD SVG 1.1//EN" "http://www.w3.org/Graphics/SVG/1.1/DTD/svg11.dtd">
<svg width="512pt" height="512pt" viewBox="0 0 512 512" version="1.1" xmlns="http://www.w3.org/2000/svg">
<path fill="#ff6309" opacity="1.00" d=" M 0.00 0.00 L 512.00 0.00 L 512.00 512.00 L 0.00 512.00 L 0.00 0.00 Z" />
<path fill="#ffffff" opacity="1.00" d=" M 323.07 112.13 C 336.23 109.29 350.79 117.35 354.81 130.30 C 358.60 141.00 354.98 153.89 345.98 160.86 C 336.55 168.61 322.06 168.99 312.26 161.72 C 305.52 156.99 301.40 149.08 300.68 140.95 C 299.80 127.57 309.82 114.50 323.07 112.13 Z" />
<path fill="#ffffff" opacity="1.00" d=" M 211.21 149.68 C 234.86 138.58 262.24 135.88 287.67 141.77 C 288.31 154.35 295.20 166.43 305.79 173.27 C 317.72 181.59 334.00 182.12 346.99 175.99 C 361.90 192.16 372.57 212.41 376.48 234.12 C 377.44 237.87 377.25 241.82 378.48 245.52 C 362.56 245.97 346.62 245.59 330.69 245.71 C 328.05 229.07 319.37 213.45 306.47 202.58 C 294.67 192.61 279.47 186.45 263.99 186.03 C 254.08 185.40 244.27 187.44 234.95 190.65 C 227.12 176.94 219.28 163.24 211.21 149.68 Z" />
<path fill="#ffffff" opacity="1.00" d=" M 183.71 167.73 C 186.76 165.02 190.10 162.68 193.19 160.02 C 201.18 173.70 209.15 187.40 216.98 201.17 C 203.74 211.92 194.35 227.34 191.47 244.20 C 187.02 268.91 197.04 295.59 216.91 311.00 C 209.53 324.91 201.08 338.22 193.54 352.04 C 190.96 350.93 188.95 348.93 186.75 347.23 C 168.81 332.76 155.22 312.93 148.51 290.85 C 148.91 289.59 150.32 289.09 151.21 288.22 C 161.63 280.32 167.48 266.98 166.57 253.97 C 166.32 241.06 158.87 229.05 148.28 221.95 C 154.82 201.09 167.05 181.95 183.71 167.73 Z" />
<path fill="#ffffff" opacity="1.00" d=" M 117.41 229.77 C 130.11 225.44 145.16 232.10 150.74 244.23 C 154.21 251.59 154.35 260.39 150.87 267.78 C 146.53 277.68 135.79 284.35 124.97 283.78 C 110.82 283.96 97.82 271.24 98.15 257.00 C 97.23 244.90 105.91 233.18 117.41 229.77 Z" />
<path fill="#ffffff" opacity="1.00" d=" M 317.30 298.26 C 324.36 289.06 328.76 277.99 330.69 266.60 C 346.59 266.62 362.48 266.55 378.37 266.63 C 376.75 277.25 375.14 288.00 370.96 297.99 C 365.44 311.98 357.71 325.38 346.98 336.00 C 344.93 335.62 343.02 334.74 341.04 334.15 C 329.43 330.32 316.07 332.14 305.94 339.00 C 295.40 345.93 288.23 357.90 287.74 370.57 C 262.33 376.62 234.83 373.85 211.20 362.70 C 219.25 349.15 227.00 335.44 234.94 321.83 C 245.56 325.37 256.81 327.48 268.03 326.15 C 287.41 324.32 305.68 313.84 317.30 298.26 Z" />
<path fill="#ffffff" opacity="1.00" d=" M 320.46 346.68 C 332.46 342.75 346.57 348.38 352.65 359.43 C 357.64 368.11 357.35 379.56 351.89 387.97 C 347.58 394.88 339.99 399.49 331.94 400.45 C 318.30 402.49 304.17 392.55 301.52 379.00 C 298.08 365.48 307.09 350.44 320.46 346.68 Z" />
</svg>
