<?xml version="1.0" encoding="UTF-8" ?>
<!DOCTYPE svg PUBLIC "-//W3C//DTD SVG 1.1//EN" "http://www.w3.org/Graphics/SVG/1.1/DTD/svg11.dtd">
<svg width="512pt" height="512pt" viewBox="0 0 512 512" version="1.1" xmlns="http://www.w3.org/2000/svg">
<path fill="#f47421" opacity="1.00" d=" M 0.00 0.00 L 512.00 0.00 L 512.00 512.00 L 0.00 512.00 L 0.00 0.00 Z" />
<path fill="#ffffff" opacity="1.00" d=" M 248.28 110.37 C 277.65 108.59 307.47 116.01 332.54 131.41 C 357.80 146.71 378.18 169.88 390.16 196.87 C 400.66 220.32 404.69 246.58 401.92 272.11 C 399.14 299.39 388.28 325.76 371.24 347.22 C 354.92 367.94 332.85 384.07 308.18 393.36 C 286.59 401.58 263.01 404.42 240.07 401.87 C 214.02 399.04 188.84 388.93 168.00 373.06 C 144.13 355.04 126.01 329.49 116.99 300.96 C 107.83 272.33 107.80 240.79 116.92 212.14 C 126.10 182.89 144.86 156.78 169.56 138.64 C 192.29 121.81 220.02 111.71 248.28 110.37 Z" />
<path fill="#f47421" opacity="1.00" d=" M 302.42 150.56 C 308.26 149.58 314.50 150.99 319.02 154.92 C 324.87 159.68 327.47 167.99 325.46 175.25 C 323.71 182.11 317.96 187.88 311.02 189.45 C 306.42 190.20 301.41 190.13 297.22 187.86 C 290.67 184.55 286.12 177.42 286.45 170.01 C 286.14 160.72 293.41 152.28 302.42 150.56 Z" />
<path fill="#f47421" opacity="1.00" d=" M 218.33 180.03 C 237.08 170.85 259.36 168.42 279.44 174.47 C 281.14 185.04 289.52 194.16 299.99 196.52 C 305.36 198.15 310.99 197.23 316.19 195.44 C 331.00 210.21 340.54 230.37 341.54 251.34 C 333.01 251.45 324.48 251.54 315.95 251.65 C 314.93 251.46 312.72 252.13 312.88 250.37 C 311.47 236.43 304.60 223.16 294.07 213.93 C 278.37 199.67 254.31 195.48 234.83 203.98 C 233.75 204.31 231.95 205.44 231.46 203.71 C 227.10 195.80 222.58 187.99 218.33 180.03 Z" />
<path fill="#f47421" opacity="1.00" d=" M 174.29 233.58 C 179.47 213.85 192.47 196.63 209.24 185.18 C 214.26 193.34 219.28 201.52 223.93 209.89 C 210.77 219.03 201.71 233.92 200.03 249.89 C 197.36 270.26 207.09 291.41 223.95 303.02 C 219.23 311.35 214.27 319.56 209.23 327.71 C 193.68 317.03 181.41 301.50 175.49 283.51 C 174.95 281.49 173.85 279.38 174.31 277.27 C 177.85 273.72 181.21 269.76 182.60 264.82 C 185.50 255.77 183.49 245.10 176.79 238.21 C 175.69 236.85 173.43 235.65 174.29 233.58 Z" />
<path fill="#f47421" opacity="1.00" d=" M 153.04 236.96 C 163.57 234.64 174.84 242.35 176.39 253.01 C 177.55 259.87 175.03 267.19 169.62 271.63 C 163.54 276.93 154.17 277.60 147.13 273.86 C 141.03 270.58 137.13 263.87 136.90 256.99 C 136.55 247.60 143.60 238.36 153.04 236.96 Z" />
<path fill="#f47421" opacity="1.00" d=" M 313.13 261.26 C 322.61 261.26 332.09 261.42 341.57 261.59 C 340.44 282.52 331.06 302.76 316.11 317.42 C 308.87 314.53 300.51 315.01 293.67 318.74 C 286.16 322.60 280.86 330.13 279.42 338.43 C 259.34 344.51 237.15 341.96 218.36 332.91 C 222.76 324.57 227.39 316.34 232.13 308.19 C 234.49 308.51 236.61 309.69 238.85 310.41 C 253.62 315.47 270.44 313.72 284.02 306.08 C 300.39 297.17 311.45 279.78 313.13 261.26 Z" />
<path fill="#f47421" opacity="1.00" d=" M 303.61 322.98 C 313.38 321.42 323.51 328.43 325.58 338.10 C 328.12 347.75 322.12 358.54 312.64 361.58 C 301.22 365.91 287.34 357.17 286.55 344.93 C 285.00 334.51 293.25 324.19 303.61 322.98 Z" />
</svg>
