<?xml version="1.0" encoding="UTF-8" ?>
<!DOCTYPE svg PUBLIC "-//W3C//DTD SVG 1.1//EN" "http://www.w3.org/Graphics/SVG/1.1/DTD/svg11.dtd">
<svg width="512pt" height="512pt" viewBox="0 0 512 512" version="1.1" xmlns="http://www.w3.org/2000/svg">
<path fill="#04aeda" opacity="1.00" d=" M 0.00 0.00 L 512.00 0.00 L 512.00 512.00 L 0.00 512.00 L 0.00 0.00 Z" />
<path fill="#ffffff" opacity="1.00" d=" M 177.66 147.92 C 192.91 141.35 209.23 136.24 226.02 137.03 C 244.75 136.09 262.95 143.28 278.01 154.00 C 269.68 184.04 260.51 213.84 252.08 243.85 C 238.96 234.95 223.89 228.35 207.91 227.34 C 188.49 225.38 169.21 230.91 151.52 238.56 C 158.40 214.38 165.27 190.19 172.18 166.02 C 174.05 160.00 175.45 153.83 177.66 147.92 Z" />
<path fill="#ffffff" opacity="1.00" d=" M 264.84 248.68 C 273.18 219.84 281.35 190.95 289.80 162.15 C 297.89 168.20 306.53 173.85 316.28 176.84 C 330.14 181.26 345.03 180.55 359.17 178.03 C 369.72 176.18 379.91 172.83 390.07 169.55 C 381.91 198.78 373.18 227.84 364.55 256.93 C 364.06 258.39 363.77 260.42 361.91 260.66 C 342.92 267.20 322.70 272.35 302.48 269.89 C 288.29 268.34 275.39 261.29 264.37 252.54 C 263.74 251.31 264.67 249.93 264.84 248.68 Z" />
<path fill="#ffffff" opacity="1.00" d=" M 149.98 251.95 C 168.40 243.99 188.87 239.39 208.92 242.51 C 223.01 244.45 236.23 250.48 247.91 258.45 C 239.69 288.30 230.35 317.83 222.05 347.66 C 211.30 340.26 199.44 334.18 186.52 331.75 C 166.39 327.86 145.42 331.67 126.75 339.69 C 125.09 340.47 123.39 341.15 121.59 341.53 C 130.35 312.45 138.49 283.18 147.13 254.07 C 147.48 252.77 148.96 252.50 149.98 251.95 Z" />
<path fill="#ffffff" opacity="1.00" d=" M 234.32 356.26 C 243.25 326.65 251.35 296.80 259.90 267.07 C 269.27 273.82 279.09 280.46 290.52 283.08 C 308.54 287.47 327.33 284.18 344.89 279.28 C 349.78 277.96 354.47 275.92 359.43 274.81 C 350.72 303.77 342.23 332.80 333.82 361.85 C 333.60 364.10 331.15 364.43 329.45 365.09 C 310.41 371.40 290.11 376.33 269.96 373.25 C 256.67 371.37 244.66 364.54 234.32 356.26 Z" />
</svg>
