<?xml version="1.0" encoding="UTF-8" ?>
<!DOCTYPE svg PUBLIC "-//W3C//DTD SVG 1.1//EN" "http://www.w3.org/Graphics/SVG/1.1/DTD/svg11.dtd">
<svg width="512pt" height="512pt" viewBox="0 0 512 512" version="1.1" xmlns="http://www.w3.org/2000/svg">
<path fill="#0cb3ee" opacity="1.00" d=" M 0.00 0.00 L 512.00 0.00 L 512.00 512.00 L 0.00 512.00 L 0.00 0.00 Z" />
<path fill="#ffffff" opacity="1.00" d=" M 235.56 152.27 C 282.15 142.90 328.80 133.80 375.41 124.47 C 375.44 165.77 375.41 207.07 375.42 248.37 C 328.80 248.68 282.20 249.54 235.58 249.81 C 235.58 217.29 235.63 184.78 235.56 152.27 Z" />
<path fill="#ffffff" opacity="1.00" d=" M 136.59 171.83 C 165.66 166.09 194.73 160.35 223.78 154.52 C 223.70 186.40 223.95 218.30 223.66 250.18 C 194.63 250.26 165.61 250.67 136.58 250.88 C 136.58 224.53 136.57 198.18 136.59 171.83 Z" />
<path fill="#ffffff" opacity="1.00" d=" M 136.57 260.34 C 165.65 260.56 194.73 260.96 223.80 261.32 C 223.78 293.13 223.75 324.94 223.82 356.74 C 194.73 350.96 165.63 345.25 136.56 339.40 C 136.60 313.05 136.58 286.69 136.57 260.34 Z" />
<path fill="#ffffff" opacity="1.00" d=" M 235.58 261.43 C 282.19 261.85 328.78 262.62 375.39 262.85 C 375.45 304.17 375.41 345.49 375.41 386.81 C 328.81 377.58 282.22 368.26 235.60 359.13 C 235.57 326.56 235.61 293.99 235.58 261.43 Z" />
</svg>
