<?xml version="1.0" encoding="UTF-8" ?>
<!DOCTYPE svg PUBLIC "-//W3C//DTD SVG 1.1//EN" "http://www.w3.org/Graphics/SVG/1.1/DTD/svg11.dtd">
<svg width="512pt" height="512pt" viewBox="0 0 512 512" version="1.1" xmlns="http://www.w3.org/2000/svg">
<path fill="#00aeef" opacity="1.00" d=" M 0.00 0.00 L 512.00 0.00 L 512.00 512.00 L 0.00 512.00 L 0.00 0.00 Z" />
<path fill="#ffffff" opacity="1.00" d=" M 132.77 147.95 C 132.44 145.58 134.56 143.15 137.01 143.56 C 149.38 143.54 161.74 143.51 174.10 143.57 C 175.95 143.38 177.80 145.06 177.66 146.93 C 177.77 152.77 177.65 158.61 177.68 164.45 C 244.79 164.48 311.91 164.44 379.03 164.47 C 387.78 164.24 395.84 172.19 395.46 181.00 C 395.44 227.99 395.48 274.98 395.44 321.96 C 395.43 330.46 387.50 337.99 379.02 337.66 C 296.98 337.65 214.94 337.65 132.91 337.66 C 124.08 337.94 116.10 329.77 116.54 320.95 C 116.54 276.30 116.55 231.65 116.54 187.01 C 116.63 183.36 116.17 179.61 117.24 176.08 C 119.29 169.39 125.85 164.57 132.82 164.36 C 132.77 158.89 132.74 153.41 132.77 147.95 Z" />
<path fill="#00aeef" opacity="1.00" d=" M 342.69 184.96 C 343.03 184.68 343.69 184.12 344.03 183.84 C 351.33 183.49 358.67 183.84 365.98 183.69 C 368.51 183.76 371.25 183.28 373.54 184.67 C 373.39 191.53 373.74 198.41 373.40 205.26 C 373.12 205.51 372.56 206.02 372.29 206.28 C 362.82 206.42 353.33 206.43 343.86 206.27 C 343.56 205.98 342.96 205.39 342.66 205.09 C 342.46 198.39 342.41 191.66 342.69 184.96 Z" />
<path fill="#00aeef" opacity="1.00" d=" M 257.32 188.45 C 272.40 186.96 288.02 190.79 300.30 199.75 C 313.27 208.87 322.57 223.04 325.67 238.60 C 328.39 252.75 326.48 267.88 319.57 280.61 C 310.76 297.16 294.31 309.57 275.80 312.92 C 261.32 315.92 245.86 313.23 233.00 306.04 C 218.63 297.90 207.49 284.05 203.09 268.09 C 199.02 253.72 200.30 237.93 206.70 224.44 C 215.84 204.77 235.66 190.44 257.32 188.45 Z" />
<path fill="#ffffff" opacity="1.00" d=" M 116.61 348.24 C 209.49 348.47 302.38 348.20 395.26 348.37 C 395.21 355.31 395.25 362.26 395.23 369.20 C 302.34 369.23 209.44 369.20 116.54 369.21 C 116.58 362.22 116.46 355.23 116.61 348.24 Z" />
</svg>
