<?xml version="1.0" encoding="UTF-8" ?>
<!DOCTYPE svg PUBLIC "-//W3C//DTD SVG 1.1//EN" "http://www.w3.org/Graphics/SVG/1.1/DTD/svg11.dtd">
<svg width="512pt" height="512pt" viewBox="0 0 512 512" version="1.1" xmlns="http://www.w3.org/2000/svg">
<path fill="#00aeef" opacity="1.00" d=" M 0.00 0.00 L 512.00 0.00 L 512.00 512.00 L 0.00 512.00 L 0.00 0.00 Z" />
<path fill="#ffffff" opacity="1.00" d=" M 224.39 92.43 C 231.30 89.83 238.70 88.97 246.01 88.36 C 259.18 87.76 272.64 87.79 285.44 91.35 C 288.68 92.43 292.43 93.42 294.46 96.41 C 294.76 98.92 294.58 101.46 294.60 103.98 C 269.21 104.02 243.81 104.01 218.42 103.98 C 218.44 101.45 218.22 98.89 218.58 96.37 C 219.90 94.34 222.22 93.31 224.39 92.43 Z" />
<path fill="#ffffff" opacity="1.00" d=" M 218.40 111.02 C 243.80 110.99 269.20 110.98 294.60 111.02 C 294.57 128.68 294.58 146.33 294.59 163.98 C 269.19 164.00 243.80 164.02 218.40 163.98 C 218.43 146.32 218.42 128.67 218.40 111.02 Z" />
<path fill="#ffffff" opacity="1.00" d=" M 218.40 171.03 C 243.80 170.97 269.20 170.99 294.60 171.02 C 294.57 188.34 294.58 205.66 294.59 222.98 C 269.20 223.01 243.80 223.01 218.40 222.98 C 218.42 205.66 218.43 188.35 218.40 171.03 Z" />
<path fill="#ffffff" opacity="1.00" d=" M 218.40 230.01 C 243.80 230.00 269.20 229.99 294.61 230.01 C 294.47 233.17 294.86 236.37 294.39 239.50 C 292.62 241.89 289.67 242.92 286.99 243.91 C 280.49 245.90 273.72 246.85 266.97 247.42 C 254.27 248.08 241.37 247.90 228.98 244.75 C 226.05 244.00 223.12 243.03 220.58 241.36 C 216.63 239.01 219.08 233.70 218.40 230.01 Z" />
<path fill="#ffffff" opacity="1.00" d=" M 244.19 249.60 C 252.34 249.46 260.49 249.63 268.63 249.51 C 268.65 251.95 268.65 254.40 268.67 256.84 C 260.63 257.09 252.53 256.27 244.55 257.32 C 244.12 254.77 244.19 252.17 244.19 249.60 Z" />
<path fill="#ffffff" opacity="1.00" d=" M 251.24 258.83 C 254.74 258.81 258.25 258.81 261.76 258.83 C 261.76 300.07 261.74 341.30 261.77 382.53 C 258.25 382.51 254.74 382.51 251.23 382.53 C 251.26 341.30 251.24 300.07 251.24 258.83 Z" />
<path fill="#ffffff" opacity="1.00" d=" M 244.24 384.28 C 252.37 384.37 260.50 384.34 268.64 384.30 C 268.64 385.77 268.65 387.24 268.66 388.72 C 260.51 388.68 252.37 388.68 244.23 388.72 C 244.23 387.24 244.23 385.76 244.24 384.28 Z" />
<path fill="#ffffff" opacity="1.00" d=" M 200.03 394.79 C 216.13 391.58 232.62 391.44 248.97 390.76 C 269.02 390.76 289.18 391.02 309.04 394.04 C 312.61 394.79 316.51 395.09 319.58 397.24 C 319.87 399.57 319.71 401.93 319.54 404.27 C 277.51 404.15 235.48 404.17 193.45 404.26 C 193.30 401.93 193.11 399.59 193.43 397.28 C 195.30 395.78 197.76 395.36 200.03 394.79 Z" />
<path fill="#ffffff" opacity="1.00" d=" M 193.29 412.20 C 235.43 412.20 277.57 412.20 319.71 412.20 C 319.70 415.87 319.65 419.55 319.76 423.22 C 277.63 423.47 235.50 423.21 193.37 423.35 C 193.26 419.64 193.31 415.92 193.29 412.20 Z" />
</svg>
