<?xml version="1.0" encoding="UTF-8" ?>
<!DOCTYPE svg PUBLIC "-//W3C//DTD SVG 1.1//EN" "http://www.w3.org/Graphics/SVG/1.1/DTD/svg11.dtd">
<svg width="512pt" height="512pt" viewBox="0 0 512 512" version="1.1" xmlns="http://www.w3.org/2000/svg">
<path fill="#009f3c" opacity="1.00" d=" M 0.00 0.00 L 512.00 0.00 L 512.00 512.00 L 0.00 512.00 L 0.00 0.00 Z" />
<path fill="#ffffff" opacity="1.00" d=" M 242.34 107.08 C 248.87 106.12 255.47 103.04 262.07 105.48 C 299.98 113.07 338.01 120.08 375.96 127.46 C 375.94 181.31 375.98 235.16 375.97 289.01 C 376.04 293.46 375.00 297.82 373.74 302.06 C 368.15 321.33 355.87 337.89 341.79 351.86 C 317.20 375.61 287.22 393.15 255.98 406.59 C 241.30 400.27 226.95 393.08 213.30 384.73 C 191.30 371.16 170.34 355.04 154.76 334.20 C 148.10 325.30 142.60 315.47 139.15 304.89 C 137.50 299.74 135.95 294.46 136.03 289.01 C 136.08 235.15 135.97 181.29 136.08 127.43 C 171.50 120.67 206.92 113.86 242.34 107.08 Z" />
<path fill="#009f3c" opacity="1.00" d=" M 224.28 283.69 C 260.77 247.39 296.97 210.78 333.14 174.16 C 341.76 182.47 350.10 191.06 358.69 199.39 C 359.52 200.07 360.55 201.40 359.28 202.27 C 330.87 230.85 302.47 259.45 274.04 288.01 C 257.72 304.67 240.89 320.85 224.90 337.82 C 200.70 315.81 176.72 293.56 152.54 271.53 C 151.66 270.83 150.45 269.71 151.80 268.73 C 160.27 259.43 168.97 250.33 177.25 240.85 C 180.46 242.82 182.85 245.82 185.78 248.16 C 198.56 260.06 211.59 271.70 224.28 283.69 Z" />
</svg>
