<?xml version="1.0" encoding="UTF-8" ?>
<!DOCTYPE svg PUBLIC "-//W3C//DTD SVG 1.1//EN" "http://www.w3.org/Graphics/SVG/1.1/DTD/svg11.dtd">
<svg width="512pt" height="512pt" viewBox="0 0 512 512" version="1.1" xmlns="http://www.w3.org/2000/svg">
<path fill="#00709f" opacity="1.00" d=" M 0.00 0.00 L 512.00 0.00 L 512.00 512.00 L 0.00 512.00 L 0.00 0.00 Z" />
<path fill="#ffffff" opacity="1.00" d=" M 270.46 145.34 C 310.68 145.39 350.89 145.26 391.10 145.41 C 393.46 155.18 395.98 164.92 398.55 174.64 C 353.37 174.72 308.18 174.71 262.99 174.65 C 265.44 164.87 267.93 155.10 270.46 145.34 Z" />
<path fill="#ffffff" opacity="1.00" d=" M 101.29 184.49 C 105.05 183.18 109.09 183.60 112.99 183.54 C 210.33 183.56 307.68 183.53 405.03 183.55 C 412.59 183.22 420.48 189.28 420.57 197.15 C 420.59 249.11 420.57 301.07 420.58 353.03 C 420.72 360.19 414.07 366.55 407.01 366.66 C 306.68 366.69 206.34 366.64 106.00 366.68 C 98.52 367.05 91.40 360.42 91.44 352.90 C 91.41 301.26 91.43 249.61 91.43 197.96 C 91.24 191.90 95.75 186.47 101.29 184.49 Z" />
<path fill="#00709f" opacity="1.00" d=" M 324.92 193.03 C 339.08 188.14 356.34 194.14 363.68 207.37 C 366.92 212.80 368.08 219.23 367.55 225.50 C 373.82 227.52 379.88 230.78 384.03 236.02 C 391.40 244.92 393.63 258.14 388.54 268.66 C 386.15 273.35 383.41 277.90 379.90 281.83 C 372.67 271.63 361.55 264.34 349.15 262.33 C 347.64 249.51 340.66 237.34 330.03 229.94 C 318.96 222.06 304.19 219.34 291.17 223.49 C 282.99 225.85 275.94 230.90 269.90 236.78 C 267.81 227.33 271.38 216.96 279.25 211.22 C 287.03 205.04 297.73 204.04 307.07 206.74 C 311.52 200.55 317.48 195.22 324.92 193.03 Z" />
<path fill="#00709f" opacity="1.00" d=" M 287.81 233.92 C 300.01 228.62 314.91 230.46 325.54 238.43 C 335.51 245.69 341.40 258.07 340.77 270.40 C 350.18 270.95 359.89 273.53 367.00 280.04 C 374.83 286.96 378.51 297.35 379.50 307.53 C 387.65 305.98 396.27 303.27 401.64 296.53 C 404.49 293.51 404.78 289.20 406.58 285.62 C 407.78 290.92 405.34 296.14 402.66 300.57 C 397.62 308.53 388.83 313.44 379.68 315.04 C 379.36 321.03 378.46 327.12 375.41 332.40 C 368.07 330.96 360.65 329.47 353.79 326.39 C 342.05 321.01 331.55 313.40 320.95 306.13 C 298.64 290.75 276.54 274.75 252.05 262.96 C 244.01 259.07 235.50 256.19 226.71 254.58 C 237.69 243.76 256.13 242.89 268.76 251.32 C 272.91 243.60 279.68 237.26 287.81 233.92 Z" />
<path fill="#00709f" opacity="1.00" d=" M 195.05 262.35 C 208.94 258.88 223.38 262.52 236.33 267.76 C 265.35 279.68 291.13 297.83 317.55 314.43 C 331.24 322.83 344.85 331.95 360.44 336.47 C 371.99 339.81 384.68 341.23 396.26 337.23 C 399.73 336.11 402.64 333.86 405.82 332.16 C 403.47 336.87 398.85 339.99 394.39 342.51 C 385.64 346.81 375.40 347.25 365.91 345.67 C 357.33 351.99 346.38 353.23 336.03 352.71 C 298.70 352.70 261.36 352.72 224.03 352.70 C 209.28 352.62 194.67 344.75 187.15 331.95 C 181.43 322.86 180.56 310.67 186.27 301.36 C 180.94 294.18 177.55 284.76 179.98 275.85 C 181.87 268.88 188.21 263.96 195.05 262.35 Z" />
<path fill="#ffffff" opacity="1.00" d=" M 186.60 282.10 C 188.21 276.58 193.15 272.07 198.93 271.42 C 205.48 270.70 212.13 271.42 218.45 273.24 C 216.89 278.75 217.03 284.54 217.86 290.16 C 211.93 288.23 205.39 288.22 199.55 290.51 C 195.98 291.69 193.18 294.30 189.98 296.17 C 186.68 292.37 185.34 286.99 186.60 282.10 Z" />
</svg>
