<?xml version="1.0" encoding="UTF-8" ?>
<!DOCTYPE svg PUBLIC "-//W3C//DTD SVG 1.1//EN" "http://www.w3.org/Graphics/SVG/1.1/DTD/svg11.dtd">
<svg width="512pt" height="512pt" viewBox="0 0 512 512" version="1.1" xmlns="http://www.w3.org/2000/svg">
<path fill="#0e5d30" opacity="1.00" d=" M 0.00 0.00 L 512.00 0.00 L 512.00 512.00 L 0.00 512.00 L 0.00 0.00 Z" />
<path fill="#ffffff" opacity="1.00" d=" M 270.48 145.34 C 310.70 145.41 350.93 145.21 391.15 145.44 C 393.45 155.19 395.93 164.90 398.58 174.56 C 353.40 174.83 308.21 174.64 263.02 174.66 C 265.42 164.86 267.92 155.09 270.48 145.34 Z" />
<path fill="#ffffff" opacity="1.00" d=" M 100.56 184.76 C 104.16 183.23 108.14 183.57 111.96 183.54 C 209.63 183.55 307.31 183.54 404.98 183.55 C 412.53 183.18 420.46 189.25 420.57 197.09 C 420.58 249.08 420.57 301.07 420.58 353.06 C 420.72 360.57 413.40 367.11 406.00 366.68 C 305.65 366.64 205.30 366.69 104.95 366.66 C 99.52 366.56 94.61 362.71 92.43 357.85 C 91.10 355.11 91.48 351.98 91.41 349.03 C 91.44 298.68 91.42 248.33 91.42 197.97 C 91.21 192.17 95.39 186.97 100.56 184.76 Z" />
<path fill="#0e5d30" opacity="1.00" d=" M 340.00 193.79 C 351.43 192.29 363.24 196.59 371.59 204.41 C 388.88 219.94 392.08 248.59 378.55 267.48 C 372.62 276.04 363.16 282.23 352.80 283.64 C 340.00 285.83 326.65 280.41 317.92 271.02 C 302.07 254.60 300.16 226.45 314.47 208.47 C 320.61 200.46 329.97 195.02 340.00 193.79 Z" />
<path fill="#0e5d30" opacity="1.00" d=" M 295.91 289.01 C 302.88 287.05 310.36 288.23 316.81 291.34 C 327.89 295.83 338.07 302.82 349.97 305.08 C 358.68 306.62 366.60 301.32 373.22 296.32 C 376.53 294.02 379.33 289.49 383.95 290.44 C 388.67 292.58 392.30 296.49 395.52 300.46 C 408.78 317.14 412.76 339.01 413.82 359.77 C 362.62 359.67 311.40 360.01 260.20 359.60 C 261.40 341.75 265.07 323.63 274.18 308.01 C 279.17 299.69 286.30 291.79 295.91 289.01 Z" />
</svg>
