<?xml version="1.0" encoding="UTF-8" ?>
<!DOCTYPE svg PUBLIC "-//W3C//DTD SVG 1.1//EN" "http://www.w3.org/Graphics/SVG/1.1/DTD/svg11.dtd">
<svg width="512pt" height="512pt" viewBox="0 0 512 512" version="1.1" xmlns="http://www.w3.org/2000/svg">
<path fill="#00aeef" opacity="1.00" d=" M 0.00 0.00 L 512.00 0.00 L 512.00 512.00 L 0.00 512.00 L 0.00 0.00 Z" />
<path fill="#ffffff" opacity="1.00" d=" M 113.17 138.19 C 114.39 137.79 115.65 137.61 116.95 137.64 C 209.61 137.66 302.28 137.65 394.94 137.65 C 398.12 137.34 401.56 139.20 402.50 142.36 C 402.97 145.22 402.73 148.14 402.77 151.03 C 402.74 212.37 402.79 273.71 402.74 335.05 C 403.01 338.67 399.76 342.05 396.11 341.78 C 303.08 341.84 210.05 341.76 117.02 341.82 C 111.91 342.80 107.99 337.87 108.82 333.04 C 108.85 270.68 108.84 208.33 108.82 145.97 C 108.56 142.80 110.04 139.36 113.17 138.19 Z" />
<path fill="#00aeef" opacity="1.00" d=" M 179.33 156.48 C 181.12 155.72 183.09 155.68 185.00 155.65 C 233.01 155.70 281.02 155.65 329.03 155.67 C 334.25 155.14 339.52 159.57 338.85 165.01 C 338.86 215.03 338.86 265.05 338.85 315.06 C 339.37 320.01 334.87 324.35 330.01 324.17 C 281.34 324.25 232.67 324.17 184.00 324.22 C 179.61 324.55 174.75 321.61 174.29 316.98 C 174.09 311.32 173.74 305.65 174.13 299.99 C 174.02 277.65 173.90 255.31 174.10 232.97 C 173.39 219.98 174.43 207.00 174.08 194.01 C 174.27 185.31 173.90 176.62 174.05 167.92 C 173.44 163.53 174.78 158.21 179.33 156.48 Z" />
<path fill="#00aeef" opacity="1.00" d=" M 128.35 160.34 C 131.03 159.10 134.13 159.79 136.99 159.63 C 142.01 159.74 147.04 159.46 152.06 159.72 C 154.73 159.76 156.86 162.35 156.56 164.97 C 156.55 171.28 156.66 177.60 156.51 183.91 C 156.52 186.66 153.63 188.58 151.05 188.29 C 144.36 188.27 137.66 188.33 130.97 188.26 C 128.15 188.48 125.73 185.90 125.86 183.13 C 125.68 177.75 125.87 172.36 125.78 166.97 C 125.75 164.57 125.91 161.57 128.35 160.34 Z" />
<path fill="#00aeef" opacity="1.00" d=" M 358.15 160.17 C 364.95 158.95 372.03 159.98 378.94 159.61 C 381.91 159.22 385.78 160.42 386.07 163.90 C 386.36 170.25 386.17 176.63 386.17 182.99 C 386.39 185.81 383.97 188.46 381.11 188.26 C 374.43 188.33 367.74 188.27 361.06 188.29 C 358.43 188.61 355.54 186.69 355.51 183.90 C 355.33 177.56 355.43 171.21 355.46 164.87 C 355.33 162.93 356.37 161.00 358.15 160.17 Z" />
<path fill="#00aeef" opacity="1.00" d=" M 129.46 204.63 C 137.45 204.32 145.54 204.15 153.51 204.73 C 158.50 207.14 155.99 213.60 156.56 217.95 C 155.81 222.62 158.53 228.91 154.32 232.36 C 150.66 233.45 146.77 232.97 143.01 233.07 C 138.68 233.00 134.32 233.48 130.01 232.96 C 127.19 232.62 125.60 229.68 125.81 227.05 C 125.79 221.33 125.74 215.62 125.84 209.91 C 125.80 207.62 127.02 205.07 129.46 204.63 Z" />
<path fill="#00aeef" opacity="1.00" d=" M 359.32 204.56 C 366.21 204.22 373.13 204.51 380.03 204.41 C 382.48 204.17 385.41 205.28 385.91 207.96 C 386.60 213.26 385.98 218.64 386.23 223.97 C 386.07 226.52 386.75 229.67 384.65 231.62 C 382.65 233.64 379.53 233.05 376.97 233.19 C 371.29 233.01 365.60 233.38 359.94 233.02 C 357.42 232.93 355.34 230.58 355.47 228.08 C 355.37 222.01 355.43 215.95 355.44 209.88 C 355.22 207.48 356.84 204.91 359.32 204.56 Z" />
<path fill="#00aeef" opacity="1.00" d=" M 129.17 246.28 C 133.99 245.11 139.07 246.04 144.00 245.75 C 147.46 245.97 151.26 245.02 154.47 246.67 C 156.70 247.96 156.63 250.77 156.60 253.01 C 156.49 258.65 156.68 264.30 156.52 269.94 C 156.55 272.25 154.42 274.44 152.10 274.39 C 145.05 274.48 137.99 274.45 130.95 274.40 C 128.61 274.50 126.30 272.44 126.38 270.05 C 126.22 263.68 126.31 257.31 126.33 250.94 C 126.16 248.95 127.27 246.98 129.17 246.28 Z" />
<path fill="#00aeef" opacity="1.00" d=" M 358.34 246.41 C 360.43 245.44 362.81 245.81 365.04 245.72 C 370.74 245.89 376.46 245.52 382.15 245.88 C 384.66 246.10 386.66 248.46 386.39 250.99 C 386.41 257.36 386.48 263.74 386.35 270.11 C 386.37 272.84 383.51 274.81 380.94 274.43 C 373.95 274.38 366.96 274.55 359.97 274.35 C 357.26 274.34 355.61 271.52 355.76 269.05 C 355.68 263.36 355.76 257.67 355.73 251.99 C 355.59 249.84 356.31 247.46 358.34 246.41 Z" />
<path fill="#00aeef" opacity="1.00" d=" M 130.27 290.38 C 137.17 290.15 144.09 290.31 151.00 290.30 C 153.71 289.93 156.57 292.05 156.52 294.88 C 156.63 301.29 156.60 307.72 156.53 314.14 C 156.64 316.54 154.54 318.89 152.08 318.72 C 144.76 318.79 137.42 318.85 130.10 318.69 C 127.24 318.70 125.66 315.62 125.82 313.08 C 125.78 307.38 125.76 301.67 125.82 295.97 C 125.68 293.36 127.37 290.36 130.27 290.38 Z" />
<path fill="#00aeef" opacity="1.00" d=" M 359.26 290.44 C 366.51 290.09 373.79 290.32 381.05 290.32 C 383.64 290.08 385.98 292.19 386.10 294.77 C 386.33 300.88 386.16 307.00 386.19 313.11 C 386.38 315.64 384.77 318.69 381.94 318.69 C 374.61 318.84 367.28 318.80 359.95 318.72 C 357.44 318.89 355.39 316.45 355.48 314.05 C 355.35 308.01 355.44 301.97 355.44 295.94 C 355.17 293.51 356.73 290.81 359.26 290.44 Z" />
<path fill="#ffffff" opacity="1.00" d=" M 109.49 352.14 C 207.38 352.22 305.27 352.17 403.17 352.17 C 403.16 359.03 403.17 365.89 403.16 372.76 C 305.27 372.77 207.39 372.69 109.50 372.79 C 109.46 365.91 109.48 359.02 109.49 352.14 Z" />
</svg>
