<?xml version="1.0" encoding="UTF-8" ?>
<!DOCTYPE svg PUBLIC "-//W3C//DTD SVG 1.1//EN" "http://www.w3.org/Graphics/SVG/1.1/DTD/svg11.dtd">
<svg width="512pt" height="512pt" viewBox="0 0 512 512" version="1.1" xmlns="http://www.w3.org/2000/svg">
<path fill="#00aeef" opacity="1.00" d=" M 0.00 0.00 L 512.00 0.00 L 512.00 512.00 L 0.00 512.00 L 0.00 0.00 Z" />
<path fill="#ffffff" opacity="1.00" d=" M 113.22 154.16 C 116.39 153.25 119.74 153.75 122.99 153.65 C 213.66 153.65 304.32 153.66 394.99 153.65 C 399.12 153.14 403.29 156.68 402.76 160.97 C 402.77 223.99 402.74 287.01 402.77 350.04 C 403.36 353.99 400.19 358.14 396.02 357.78 C 302.66 357.82 209.29 357.80 115.93 357.79 C 111.65 358.27 108.37 354.03 108.84 349.98 C 108.82 287.33 108.86 224.68 108.82 162.03 C 108.54 158.81 110.05 155.33 113.22 154.16 Z" />
<path fill="#00aeef" opacity="1.00" d=" M 179.35 172.47 C 182.42 171.28 185.78 171.74 189.00 171.66 C 235.66 171.69 282.32 171.66 328.98 171.67 C 332.92 171.41 337.08 173.55 338.44 177.40 C 339.15 180.55 338.79 183.82 338.86 187.03 C 338.84 235.04 338.86 283.05 338.85 331.05 C 339.38 336.00 334.89 340.34 330.04 340.17 C 282.68 340.26 235.31 340.15 187.95 340.22 C 184.04 340.24 179.42 340.66 176.51 337.49 C 173.32 334.52 174.28 329.86 174.16 325.99 C 173.65 314.34 174.64 302.68 173.90 291.04 C 174.33 278.70 174.13 266.35 174.12 254.01 C 173.34 243.34 174.73 232.65 173.95 221.96 C 174.35 208.32 174.02 194.66 174.11 181.01 C 173.88 177.41 175.95 173.81 179.35 172.47 Z" />
<path fill="#00aeef" opacity="1.00" d=" M 128.31 176.36 C 130.99 175.08 134.12 175.79 136.99 175.63 C 142.00 175.74 147.02 175.46 152.03 175.72 C 154.74 175.74 156.88 178.38 156.56 181.03 C 156.54 187.33 156.66 193.64 156.50 199.95 C 156.49 202.69 153.61 204.58 151.05 204.29 C 144.36 204.27 137.66 204.32 130.97 204.27 C 128.10 204.48 125.69 201.84 125.85 199.02 C 125.69 193.68 125.87 188.33 125.78 182.99 C 125.75 180.60 125.89 177.61 128.31 176.36 Z" />
<path fill="#00aeef" opacity="1.00" d=" M 358.18 176.17 C 365.00 174.94 372.12 175.99 379.06 175.61 C 382.00 175.24 385.80 176.48 386.07 179.91 C 386.36 186.28 386.17 192.68 386.17 199.05 C 386.37 201.86 383.93 204.46 381.09 204.27 C 374.37 204.32 367.64 204.28 360.92 204.29 C 358.31 204.57 355.51 202.60 355.51 199.86 C 355.33 193.58 355.44 187.28 355.45 180.99 C 355.32 179.01 356.32 176.99 358.18 176.17 Z" />
<path fill="#00aeef" opacity="1.00" d=" M 129.47 220.63 C 136.66 220.14 143.89 220.52 151.10 220.43 C 153.79 220.09 156.58 222.25 156.53 225.04 C 156.62 231.38 156.58 237.73 156.55 244.07 C 156.74 246.60 154.59 248.95 152.06 249.04 C 146.39 249.39 140.70 248.72 135.02 249.11 C 132.45 249.18 129.38 249.60 127.37 247.62 C 125.59 245.91 125.82 243.24 125.77 240.99 C 125.88 235.99 125.70 230.98 125.83 225.98 C 125.79 223.68 126.99 221.06 129.47 220.63 Z" />
<path fill="#00aeef" opacity="1.00" d=" M 359.36 220.55 C 366.25 220.22 373.17 220.51 380.08 220.41 C 382.54 220.18 385.44 221.31 385.92 224.01 C 386.60 229.28 385.97 234.65 386.23 239.96 C 386.09 242.52 386.75 245.69 384.63 247.64 C 383.19 249.16 380.96 249.20 379.03 249.09 C 372.69 248.77 366.34 249.53 360.01 249.03 C 357.46 248.97 355.34 246.61 355.47 244.09 C 355.41 237.77 355.36 231.44 355.49 225.13 C 355.45 222.95 357.20 220.84 359.36 220.55 Z" />
<path fill="#00aeef" opacity="1.00" d=" M 129.22 262.26 C 135.03 261.06 141.11 262.11 147.03 261.72 C 150.36 261.65 155.43 261.24 156.40 265.43 C 156.80 271.95 156.47 278.50 156.57 285.04 C 156.90 287.67 154.79 290.46 152.04 290.40 C 145.02 290.46 138.00 290.45 130.99 290.41 C 128.65 290.51 126.31 288.48 126.38 286.09 C 126.22 279.70 126.31 273.31 126.33 266.92 C 126.15 264.92 127.30 262.95 129.22 262.26 Z" />
<path fill="#00aeef" opacity="1.00" d=" M 358.37 262.40 C 360.11 261.55 362.10 261.79 363.98 261.72 C 369.66 261.84 375.35 261.65 381.04 261.78 C 383.89 261.59 386.72 263.95 386.39 266.93 C 386.42 273.28 386.47 279.64 386.37 285.99 C 386.43 288.71 383.65 290.79 381.05 290.44 C 374.02 290.37 366.99 290.56 359.97 290.35 C 357.25 290.34 355.59 287.48 355.76 285.02 C 355.69 279.34 355.76 273.65 355.73 267.97 C 355.59 265.82 356.32 263.42 358.37 262.40 Z" />
<path fill="#00aeef" opacity="1.00" d=" M 130.24 306.38 C 137.18 306.15 144.14 306.32 151.09 306.30 C 153.80 305.95 156.59 308.12 156.53 310.93 C 156.62 317.29 156.59 323.66 156.54 330.02 C 156.69 332.46 154.59 334.90 152.07 334.72 C 145.03 334.83 137.97 334.76 130.92 334.75 C 128.24 335.07 125.96 332.74 125.89 330.13 C 125.68 324.10 125.81 318.05 125.83 312.02 C 125.67 309.40 127.33 306.37 130.24 306.38 Z" />
<path fill="#00aeef" opacity="1.00" d=" M 359.32 306.43 C 366.54 306.11 373.79 306.32 381.03 306.32 C 384.14 305.99 386.47 308.99 386.19 311.93 C 386.17 318.00 386.31 324.07 386.12 330.13 C 386.12 332.76 383.77 335.05 381.11 334.75 C 374.06 334.76 367.01 334.83 359.97 334.72 C 357.45 334.90 355.40 332.47 355.48 330.06 C 355.36 324.00 355.44 317.94 355.44 311.88 C 355.18 309.44 356.78 306.77 359.32 306.43 Z" />
</svg>
