<?xml version="1.0" encoding="UTF-8" ?>
<!DOCTYPE svg PUBLIC "-//W3C//DTD SVG 1.1//EN" "http://www.w3.org/Graphics/SVG/1.1/DTD/svg11.dtd">
<svg width="512pt" height="512pt" viewBox="0 0 512 512" version="1.1" xmlns="http://www.w3.org/2000/svg">
<path fill="#04aeda" opacity="1.00" d=" M 0.00 0.00 L 512.00 0.00 L 512.00 512.00 L 0.00 512.00 L 0.00 0.00 Z" />
<path fill="#ffffff" opacity="1.00" d=" M 270.48 145.35 C 310.71 145.44 350.95 145.15 391.18 145.49 C 393.44 155.23 395.95 164.91 398.58 174.56 C 353.40 174.84 308.20 174.64 263.02 174.65 C 265.41 164.86 267.92 155.10 270.48 145.35 Z" />
<path fill="#ffffff" opacity="1.00" d=" M 101.37 184.47 C 104.78 183.24 108.46 183.58 112.01 183.54 C 208.02 183.55 304.04 183.55 400.05 183.54 C 404.29 183.55 408.82 183.16 412.67 185.30 C 416.92 187.59 420.60 191.94 420.56 196.97 C 420.61 248.68 420.54 300.39 420.60 352.10 C 421.23 359.59 414.40 366.57 407.01 366.66 C 306.68 366.69 206.35 366.65 106.02 366.68 C 98.24 367.10 90.92 359.89 91.42 352.07 C 91.43 300.69 91.41 249.31 91.42 197.93 C 91.23 191.86 95.81 186.43 101.37 184.47 Z" />
<path fill="#04aeda" opacity="1.00" d=" M 319.12 213.33 C 348.31 207.50 377.50 201.65 406.72 195.98 C 406.75 221.86 406.70 247.74 406.75 273.63 C 377.53 273.79 348.32 274.45 319.10 274.55 C 319.19 254.14 319.16 233.73 319.12 213.33 Z" />
<path fill="#04aeda" opacity="1.00" d=" M 256.82 225.72 C 275.10 221.88 293.47 218.48 311.76 214.70 C 311.81 234.68 311.74 254.67 311.79 274.65 C 293.71 274.67 275.65 275.31 257.57 275.29 C 256.23 273.48 257.43 271.06 257.16 269.00 C 257.00 254.57 257.45 240.12 256.82 225.72 Z" />
<path fill="#04aeda" opacity="1.00" d=" M 257.14 281.13 C 275.36 281.22 293.58 281.41 311.80 281.61 C 311.68 301.61 311.91 321.62 311.69 341.63 C 293.54 337.78 275.28 334.45 257.12 330.66 C 257.14 314.14 257.10 297.65 257.14 281.13 Z" />
<path fill="#04aeda" opacity="1.00" d=" M 319.13 281.68 C 348.29 282.00 377.46 282.58 406.63 282.56 C 406.73 308.51 406.93 334.49 406.53 360.44 C 377.46 354.47 348.32 348.77 319.19 343.10 C 319.08 322.62 319.20 302.15 319.13 281.68 Z" />
</svg>
