<?xml version="1.0" encoding="UTF-8" ?>
<!DOCTYPE svg PUBLIC "-//W3C//DTD SVG 1.1//EN" "http://www.w3.org/Graphics/SVG/1.1/DTD/svg11.dtd">
<svg width="512pt" height="512pt" viewBox="0 0 512 512" version="1.1" xmlns="http://www.w3.org/2000/svg">
<path fill="#e2b300" opacity="1.00" d=" M 0.00 0.00 L 512.00 0.00 L 512.00 512.00 L 0.00 512.00 L 0.00 0.00 Z" />
<path fill="#ffffff" opacity="1.00" d=" M 195.01 135.97 C 210.23 133.42 225.82 136.29 240.17 141.58 C 251.85 145.68 262.96 151.17 274.31 156.07 C 274.36 195.86 274.42 235.65 274.28 275.44 C 257.85 268.29 241.67 260.05 224.03 256.25 C 211.21 253.22 197.42 253.28 185.02 258.00 C 177.88 260.54 171.42 264.62 165.43 269.20 C 165.30 229.42 165.34 189.63 165.41 149.85 C 174.17 143.25 184.08 137.81 195.01 135.97 Z" />
<path fill="#ffffff" opacity="1.00" d=" M 136.76 138.88 C 143.43 138.89 150.10 138.67 156.77 139.00 C 156.83 218.27 156.75 297.54 156.81 376.80 C 150.11 376.83 143.42 376.81 136.72 376.81 C 136.75 297.50 136.67 218.19 136.76 138.88 Z" />
<path fill="#ffffff" opacity="1.00" d=" M 370.84 153.78 C 372.21 152.58 373.71 151.55 375.32 150.71 C 375.59 190.46 375.39 230.21 375.43 269.96 C 364.59 279.50 351.48 287.23 336.88 288.73 C 331.29 277.63 325.74 266.52 320.21 255.40 C 317.92 251.88 311.67 252.58 310.37 256.66 C 306.09 265.44 301.45 274.06 297.41 282.95 C 292.53 282.11 288.23 279.51 283.53 278.10 C 283.37 238.17 283.41 198.23 283.51 158.30 C 300.32 165.26 318.42 171.53 336.89 169.22 C 349.44 167.63 361.23 161.91 370.84 153.78 Z" />
<path fill="#ffffff" opacity="1.00" d=" M 315.40 257.52 C 324.84 275.55 333.66 293.90 342.85 312.05 C 353.59 333.58 364.42 355.07 375.10 376.63 C 335.38 376.68 295.66 376.69 255.94 376.63 C 275.73 336.91 295.72 297.29 315.40 257.52 Z" />
<path fill="#e2b300" opacity="1.00" d=" M 306.21 291.59 C 312.21 291.59 318.22 291.57 324.22 291.60 C 323.49 309.55 322.58 327.48 322.18 345.44 C 317.51 345.52 312.83 345.49 308.15 345.47 C 307.45 327.51 306.59 309.56 306.21 291.59 Z" />
<path fill="#e2b300" opacity="1.00" d=" M 311.42 353.61 C 314.87 352.74 318.94 352.82 321.87 355.11 C 325.16 357.62 326.28 362.57 324.13 366.17 C 320.32 373.49 307.24 372.17 305.46 363.90 C 304.32 359.49 307.17 354.92 311.42 353.61 Z" />
</svg>
