<?xml version="1.0" encoding="UTF-8" ?>
<!DOCTYPE svg PUBLIC "-//W3C//DTD SVG 1.1//EN" "http://www.w3.org/Graphics/SVG/1.1/DTD/svg11.dtd">
<svg width="512pt" height="512pt" viewBox="0 0 512 512" version="1.1" xmlns="http://www.w3.org/2000/svg">
<path fill="#04aeda" opacity="1.00" d=" M 0.00 0.00 L 512.00 0.00 L 512.00 512.00 L 0.00 512.00 L 0.00 0.00 Z" />
<path fill="#ffffff" opacity="1.00" d=" M 270.56 145.45 C 310.72 145.54 350.89 145.36 391.04 145.54 C 393.31 155.27 395.91 164.92 398.43 174.59 C 353.32 174.61 308.20 174.61 263.08 174.59 C 265.58 164.87 268.01 155.14 270.56 145.45 Z" />
<path fill="#ffffff" opacity="1.00" d=" M 101.35 184.60 C 103.48 183.85 105.76 183.64 108.01 183.63 C 207.01 183.66 306.00 183.62 405.00 183.65 C 412.80 183.30 420.82 189.83 420.51 197.94 C 420.50 249.31 420.49 300.69 420.51 352.06 C 421.13 359.85 413.74 366.95 406.05 366.61 C 306.05 366.60 206.05 366.59 106.04 366.61 C 98.31 366.91 91.06 359.79 91.51 352.00 C 91.52 300.68 91.50 249.35 91.53 198.03 C 91.33 192.00 95.83 186.57 101.35 184.60 Z" />
<path fill="#04aeda" opacity="1.00" d=" M 350.10 225.91 C 367.40 225.88 384.70 226.00 401.99 225.89 C 403.30 225.97 405.08 225.65 405.83 227.08 C 411.69 234.68 414.39 244.43 413.35 253.97 C 411.64 269.85 403.26 283.88 398.93 299.06 C 396.39 307.43 395.32 316.55 397.93 325.04 C 399.38 329.81 401.90 334.16 404.88 338.13 C 404.40 345.32 403.59 352.48 402.99 359.65 C 395.45 352.53 387.77 345.57 380.34 338.35 C 378.43 338.33 376.53 338.32 374.64 338.32 C 374.68 345.41 374.66 352.50 374.66 359.59 C 366.82 352.67 358.77 345.97 350.94 339.05 C 343.39 330.81 340.07 318.93 342.07 307.96 C 344.97 288.85 356.85 272.28 358.60 252.91 C 359.55 243.18 356.05 233.52 350.10 225.91 Z" />
</svg>
