<?xml version="1.0" encoding="UTF-8" ?>
<!DOCTYPE svg PUBLIC "-//W3C//DTD SVG 1.1//EN" "http://www.w3.org/Graphics/SVG/1.1/DTD/svg11.dtd">
<svg width="512pt" height="512pt" viewBox="0 0 512 512" version="1.1" xmlns="http://www.w3.org/2000/svg">
<path fill="#b13a3a" opacity="1.00" d=" M 0.00 0.00 L 512.00 0.00 L 512.00 512.00 L 0.00 512.00 L 0.00 0.00 Z" />
<path fill="#ffffff" opacity="1.00" d=" M 205.49 131.16 C 239.62 131.07 273.75 131.12 307.88 131.13 C 319.61 145.49 325.57 164.41 323.50 182.90 C 319.72 218.71 297.90 249.46 292.56 284.91 C 289.21 304.76 294.82 325.74 307.70 341.21 C 306.54 354.47 305.19 367.72 304.11 380.98 C 290.03 367.67 275.85 354.48 261.73 341.21 C 258.24 341.20 254.74 341.20 251.25 341.19 C 251.29 354.45 251.30 367.71 251.25 380.97 C 236.21 367.97 221.09 355.04 206.08 342.01 C 196.90 331.05 190.76 317.37 189.68 303.05 C 187.88 281.08 196.15 260.05 203.95 239.96 C 211.84 219.70 220.93 199.12 221.49 177.03 C 222.09 160.43 216.05 143.90 205.49 131.16 Z" />
</svg>
