<?xml version="1.0" encoding="UTF-8" ?>
<!DOCTYPE svg PUBLIC "-//W3C//DTD SVG 1.1//EN" "http://www.w3.org/Graphics/SVG/1.1/DTD/svg11.dtd">
<svg width="512pt" height="512pt" viewBox="0 0 512 512" version="1.1" xmlns="http://www.w3.org/2000/svg">
<path fill="#00acdc" opacity="1.00" d=" M 0.00 0.00 L 512.00 0.00 L 512.00 512.00 L 0.00 512.00 L 0.00 0.00 Z" />
<path fill="#ffffff" opacity="1.00" d=" M 229.46 122.00 C 229.84 117.75 233.77 114.09 238.10 114.34 C 250.29 114.28 262.49 114.23 274.68 114.36 C 278.95 114.26 282.52 117.86 282.94 122.01 C 284.49 132.82 286.04 143.64 287.52 154.46 C 293.84 156.51 299.96 159.13 305.94 162.02 C 314.75 155.45 323.49 148.79 332.33 142.26 C 335.67 139.58 340.93 140.02 343.86 143.10 C 352.24 151.43 360.58 159.80 368.93 168.16 C 372.25 171.12 372.87 176.61 370.09 180.13 C 363.54 189.05 356.71 197.77 350.26 206.75 C 353.51 212.37 355.84 218.47 357.70 224.66 C 368.96 226.69 380.40 227.74 391.67 229.72 C 395.88 230.50 398.31 234.95 398.22 238.96 C 398.21 250.67 398.28 262.38 398.19 274.08 C 398.16 278.11 395.25 282.27 391.08 282.78 C 380.04 284.54 368.94 285.89 357.88 287.53 C 355.84 293.88 353.31 300.05 350.26 305.98 C 356.96 314.54 363.34 323.34 369.90 332.01 C 372.79 335.46 372.44 341.04 369.07 344.06 C 360.75 352.42 352.41 360.77 344.05 369.08 C 341.05 372.42 335.49 372.78 332.05 369.92 C 323.35 363.36 314.55 356.94 305.96 350.24 C 300.06 353.33 293.86 355.82 287.53 357.88 C 285.90 368.97 284.52 380.10 282.76 391.17 C 282.22 395.27 278.10 398.20 274.08 398.11 C 262.38 398.18 250.68 398.09 238.98 398.15 C 234.93 398.37 230.49 395.85 229.71 391.65 C 227.74 380.37 226.73 368.94 224.65 357.69 C 218.42 355.89 212.40 353.38 206.71 350.27 C 197.95 356.63 189.37 363.23 180.69 369.71 C 177.34 372.61 171.83 372.58 168.67 369.40 C 160.11 360.94 151.61 352.40 143.12 343.86 C 140.04 340.92 139.59 335.68 142.25 332.33 C 148.79 323.48 155.47 314.74 162.03 305.90 C 159.09 299.94 156.53 293.80 154.47 287.48 C 143.64 286.06 132.83 284.49 122.02 282.94 C 117.83 282.54 114.28 278.88 114.35 274.62 C 114.24 262.45 114.28 250.28 114.34 238.12 C 114.09 233.81 117.70 229.87 121.94 229.47 C 132.77 227.96 143.57 226.19 154.44 224.98 C 156.35 218.45 159.52 212.43 161.93 206.10 C 155.26 197.68 149.00 188.92 142.47 180.39 C 139.56 176.93 139.96 171.39 143.31 168.36 C 150.95 160.64 158.69 153.02 166.32 145.30 C 168.26 143.42 170.19 141.13 173.00 140.66 C 175.88 140.05 178.82 141.06 181.03 142.91 C 189.37 149.27 197.88 155.41 206.10 161.93 C 212.42 159.48 218.49 156.36 225.02 154.40 C 226.22 143.57 227.93 132.80 229.46 122.00 Z" />
<path fill="#00acdc" opacity="1.00" d=" M 246.55 212.00 C 257.75 209.51 269.92 211.40 279.75 217.35 C 289.86 223.42 297.61 233.51 300.44 245.00 C 303.70 257.25 301.46 270.86 294.43 281.42 C 287.80 291.51 277.04 298.87 265.13 301.04 C 250.60 304.05 234.76 299.24 224.34 288.67 C 213.93 278.53 209.03 263.16 211.57 248.86 C 214.27 230.97 228.86 215.67 246.55 212.00 Z" />
</svg>
