<?xml version="1.0" encoding="UTF-8" ?>
<!DOCTYPE svg PUBLIC "-//W3C//DTD SVG 1.1//EN" "http://www.w3.org/Graphics/SVG/1.1/DTD/svg11.dtd">
<svg width="512pt" height="512pt" viewBox="0 0 512 512" version="1.1" xmlns="http://www.w3.org/2000/svg">
<path fill="#04aeda" opacity="1.00" d=" M 0.00 0.00 L 512.00 0.00 L 512.00 512.00 L 0.00 512.00 L 0.00 0.00 Z" />
<path fill="#ffffff" opacity="1.00" d=" M 270.55 145.45 C 310.70 145.53 350.86 145.38 391.02 145.52 C 393.33 155.25 395.91 164.92 398.42 174.61 C 353.30 174.59 308.18 174.62 263.07 174.59 C 265.58 164.88 268.02 155.15 270.55 145.45 Z" />
<path fill="#ffffff" opacity="1.00" d=" M 101.35 184.60 C 103.50 183.88 105.77 183.66 108.03 183.63 C 207.02 183.67 306.00 183.61 404.99 183.66 C 412.82 183.30 420.81 189.82 420.50 197.96 C 420.49 249.65 420.52 301.34 420.49 353.03 C 420.55 360.48 413.40 366.89 406.07 366.61 C 306.02 366.60 205.98 366.60 105.94 366.61 C 99.30 366.78 93.01 361.60 91.76 355.12 C 91.29 351.44 91.55 347.72 91.51 344.02 C 91.51 297.36 91.53 250.70 91.50 204.03 C 91.60 200.16 91.03 196.06 92.69 192.42 C 94.41 188.82 97.60 185.94 101.35 184.60 Z" />
<path fill="#04aeda" opacity="1.00" d=" M 197.16 205.28 C 200.76 204.82 204.41 205.14 208.03 205.08 C 272.68 205.07 337.34 205.11 401.99 205.06 C 403.40 205.14 404.94 205.04 406.22 205.78 C 407.45 208.32 406.77 211.31 406.94 214.04 C 406.90 260.03 406.90 306.02 406.95 352.01 C 406.85 353.44 407.03 355.03 406.21 356.30 C 404.94 356.98 403.44 356.86 402.06 356.94 C 334.34 356.88 266.62 356.94 198.91 356.91 C 197.79 356.70 195.82 357.04 195.46 355.59 C 194.71 352.47 195.17 349.20 195.07 346.03 C 195.10 303.03 195.08 260.03 195.08 217.03 C 195.12 213.73 194.85 210.41 195.27 207.13 C 195.42 206.02 196.04 205.40 197.16 205.28 Z" />
<path fill="#ffffff" opacity="1.00" d=" M 200.67 210.67 C 267.56 210.68 334.44 210.68 401.33 210.67 C 401.32 257.60 401.24 304.52 401.47 351.44 C 334.48 351.29 267.49 351.42 200.50 351.36 C 200.76 304.47 200.68 257.57 200.67 210.67 Z" />
<path fill="#04aeda" opacity="1.00" d=" M 207.51 218.64 C 208.60 217.26 210.43 217.50 211.98 217.42 C 254.36 217.49 296.74 217.43 339.11 217.45 C 340.59 217.49 342.00 217.96 343.41 218.35 C 343.31 227.80 343.43 237.26 343.34 246.71 C 358.89 246.70 374.44 246.76 390.00 246.67 C 392.21 246.67 394.39 247.08 396.58 247.40 C 396.80 270.61 396.56 293.83 396.70 317.04 C 396.68 319.12 396.73 321.22 396.42 323.28 C 395.11 324.12 393.54 324.21 392.04 324.22 C 361.02 324.18 330.00 324.17 298.99 324.22 C 297.51 324.13 295.91 324.31 294.59 323.51 C 293.23 320.99 293.92 318.01 293.77 315.27 C 281.23 315.30 268.70 315.25 256.17 315.30 C 256.19 317.28 256.22 319.27 256.24 321.26 C 249.66 321.26 243.07 321.26 236.49 321.26 C 236.50 319.26 236.51 317.27 236.53 315.28 C 234.27 315.28 232.01 315.28 229.76 315.30 C 229.76 317.28 229.77 319.27 229.77 321.26 C 223.24 321.26 216.71 321.26 210.19 321.26 C 210.21 319.39 210.23 317.53 210.26 315.67 C 209.29 315.19 208.32 314.72 207.35 314.25 C 207.09 284.18 207.36 254.11 207.21 224.04 C 207.24 222.23 207.16 220.41 207.51 218.64 Z" />
<path fill="#ffffff" opacity="1.00" d=" M 229.76 222.19 C 232.01 222.17 234.26 222.16 236.51 222.15 C 236.50 228.15 236.49 234.15 236.52 240.16 C 242.75 240.02 249.01 240.50 255.23 239.98 C 255.45 239.84 255.90 239.57 256.12 239.43 C 256.43 233.69 256.13 227.93 256.20 222.18 C 283.70 222.12 311.19 222.20 338.69 222.14 C 338.69 230.34 338.67 238.53 338.70 246.73 C 325.78 246.68 312.85 246.77 299.93 246.68 C 298.12 246.72 296.20 246.60 294.55 247.48 C 293.74 249.22 293.74 251.16 293.74 253.04 C 293.83 272.22 293.74 291.40 293.79 310.58 C 281.26 310.55 268.72 310.60 256.19 310.55 C 256.21 307.57 256.23 304.59 256.24 301.61 C 249.65 301.59 243.06 301.59 236.48 301.60 C 236.49 304.59 236.51 307.59 236.52 310.58 C 234.26 310.57 232.00 310.56 229.75 310.54 C 229.76 307.56 229.78 304.58 229.81 301.60 C 223.81 301.61 217.81 301.60 211.81 301.56 C 211.81 299.15 211.82 296.73 211.85 294.32 C 217.83 294.33 223.82 294.32 229.80 294.33 C 229.74 287.76 229.79 281.19 229.75 274.63 C 223.77 274.66 217.79 274.64 211.82 274.62 C 211.82 272.24 211.82 269.87 211.83 267.50 C 217.81 267.49 223.79 267.48 229.77 267.50 C 229.76 260.92 229.80 254.34 229.72 247.77 C 223.76 247.79 217.79 247.79 211.83 247.78 C 211.82 245.24 211.83 242.70 211.83 240.17 C 217.81 240.15 223.80 240.32 229.78 239.93 C 229.77 234.01 229.76 228.10 229.76 222.19 Z" />
<path fill="#04aeda" opacity="1.00" d=" M 236.51 247.78 C 243.08 247.79 249.65 247.78 256.22 247.78 C 256.23 254.35 256.22 260.92 256.23 267.48 C 249.65 267.49 243.07 267.49 236.49 267.48 C 236.51 260.91 236.49 254.35 236.51 247.78 Z" />
<path fill="#ffffff" opacity="1.00" d=" M 298.49 251.44 C 311.89 251.40 325.29 251.45 338.69 251.41 C 338.68 271.14 338.68 290.86 338.69 310.59 C 325.29 310.55 311.89 310.60 298.49 310.56 C 298.53 290.85 298.53 271.15 298.49 251.44 Z" />
<path fill="#ffffff" opacity="1.00" d=" M 343.35 251.43 C 359.60 251.42 375.85 251.42 392.10 251.44 C 392.14 274.12 392.09 296.80 392.13 319.49 C 360.92 319.58 329.71 319.52 298.50 319.52 C 298.49 318.46 298.48 316.36 298.47 315.30 C 311.32 315.28 324.17 315.24 337.02 315.33 C 339.15 315.34 341.26 314.90 343.36 314.58 C 343.37 293.53 343.40 272.48 343.35 251.43 Z" />
<path fill="#04aeda" opacity="1.00" d=" M 236.50 274.64 C 243.07 274.64 249.65 274.64 256.23 274.64 C 256.22 281.20 256.21 287.76 256.23 294.32 C 249.65 294.33 243.07 294.33 236.48 294.32 C 236.52 287.76 236.50 281.20 236.50 274.64 Z" />
<path fill="#04aeda" opacity="1.00" d=" M 201.56 330.40 C 204.19 330.44 206.81 330.45 209.44 330.40 C 207.50 331.76 205.22 332.89 203.99 335.00 C 202.98 337.12 202.50 339.44 201.72 341.66 C 201.59 337.90 201.57 334.16 201.56 330.40 Z" />
<path fill="#04aeda" opacity="1.00" d=" M 216.50 330.40 C 274.74 330.44 332.98 330.44 391.22 330.40 C 390.91 337.03 390.87 343.66 390.94 350.29 C 333.15 350.36 275.36 350.14 217.57 350.40 C 220.72 347.82 223.96 344.44 223.49 340.00 C 223.51 335.56 220.11 332.36 216.50 330.40 Z" />
<path fill="#04aeda" opacity="1.00" d=" M 394.49 333.36 C 395.73 333.40 396.97 333.45 398.22 333.50 C 398.13 338.07 398.41 342.66 398.11 347.23 C 397.01 347.89 395.84 348.38 394.59 348.71 C 394.45 343.60 394.53 338.48 394.49 333.36 Z" />
<path fill="#04aeda" opacity="1.00" d=" M 209.40 334.35 C 213.56 331.61 219.94 334.91 219.88 339.95 C 220.75 345.41 213.90 349.71 209.36 346.59 C 204.86 344.18 204.89 336.73 209.40 334.35 Z" />
<path fill="#04aeda" opacity="1.00" d=" M 201.78 338.68 C 202.34 343.41 204.40 347.66 208.38 350.39 C 206.11 350.33 203.85 350.29 201.59 350.25 C 201.55 346.39 201.59 342.52 201.78 338.68 Z" />
</svg>
