<?xml version="1.0" encoding="UTF-8" ?>
<!DOCTYPE svg PUBLIC "-//W3C//DTD SVG 1.1//EN" "http://www.w3.org/Graphics/SVG/1.1/DTD/svg11.dtd">
<svg width="512pt" height="512pt" viewBox="0 0 512 512" version="1.1" xmlns="http://www.w3.org/2000/svg">
<path fill="#00aeef" opacity="1.00" d=" M 0.00 0.00 L 512.00 0.00 L 512.00 512.00 L 0.00 512.00 L 0.00 0.00 Z" />
<path fill="#ffffff" opacity="1.00" d=" M 141.58 101.69 C 202.76 101.70 263.94 101.69 325.12 101.70 C 328.00 113.55 331.12 125.35 333.90 137.23 C 345.71 140.70 357.79 143.21 369.66 146.47 C 369.56 222.91 369.62 299.35 369.63 375.78 C 293.61 375.77 217.59 375.77 141.57 375.79 C 141.60 284.42 141.59 193.06 141.58 101.69 Z" />
<path fill="#ffffff" opacity="1.00" d=" M 329.28 105.45 C 341.72 117.54 353.91 129.89 366.10 142.23 C 356.29 139.95 346.61 137.18 336.77 135.05 C 334.05 125.24 331.73 115.33 329.28 105.45 Z" />
<path fill="#00aeef" opacity="1.00" d=" M 174.51 139.33 C 197.39 139.32 220.27 139.34 243.15 139.32 C 243.17 142.76 243.17 146.21 243.18 149.65 C 220.29 149.66 197.40 149.64 174.51 149.66 C 174.53 146.22 174.53 142.77 174.51 139.33 Z" />
<path fill="#00aeef" opacity="1.00" d=" M 253.49 139.31 C 281.12 139.35 308.75 139.32 336.38 139.33 C 336.43 167.09 336.35 194.86 336.42 222.62 C 308.77 222.61 281.12 222.62 253.46 222.62 C 253.54 194.85 253.48 167.08 253.49 139.31 Z" />
<path fill="#00aeef" opacity="1.00" d=" M 174.52 163.60 C 197.41 163.63 220.29 163.60 243.17 163.62 C 243.17 167.04 243.17 170.47 243.20 173.89 C 229.12 174.42 215.02 173.90 200.93 174.12 C 192.13 174.05 183.31 174.37 174.52 173.88 C 174.53 170.45 174.53 167.03 174.52 163.60 Z" />
<path fill="#00aeef" opacity="1.00" d=" M 174.56 187.82 C 179.71 187.69 184.85 188.19 190.00 188.10 C 197.97 187.50 205.94 188.66 213.91 187.93 C 223.67 188.20 233.42 187.71 243.18 188.19 C 243.17 191.58 243.17 194.96 243.17 198.34 C 220.29 198.36 197.40 198.33 174.51 198.36 C 174.53 194.84 174.53 191.33 174.56 187.82 Z" />
<path fill="#00aeef" opacity="1.00" d=" M 174.51 212.37 C 197.38 212.37 220.26 212.40 243.13 212.36 C 243.17 215.76 243.17 219.17 243.21 222.58 C 220.31 222.67 197.41 222.58 174.51 222.62 C 174.53 219.20 174.53 215.79 174.51 212.37 Z" />
<path fill="#00aeef" opacity="1.00" d=" M 174.52 236.64 C 228.48 236.65 282.44 236.65 336.41 236.64 C 336.39 240.03 336.39 243.41 336.41 246.80 C 330.96 247.25 325.48 247.23 320.02 246.96 C 307.03 247.32 294.03 247.09 281.04 247.14 C 275.36 246.85 269.68 246.74 264.01 247.14 C 241.69 247.20 219.38 247.12 197.06 247.16 C 189.54 247.07 182.01 247.39 174.51 246.80 C 174.53 243.41 174.53 240.03 174.52 236.64 Z" />
<path fill="#00aeef" opacity="1.00" d=" M 174.52 260.60 C 228.48 260.62 282.44 260.63 336.41 260.60 C 336.40 264.10 336.40 267.60 336.38 271.11 C 282.43 270.72 228.48 271.16 174.53 270.90 C 174.53 267.47 174.53 264.03 174.52 260.60 Z" />
<path fill="#00aeef" opacity="1.00" d=" M 174.55 284.85 C 213.02 284.92 251.49 284.91 289.96 284.86 C 305.43 285.33 320.90 284.63 336.38 284.86 C 336.40 288.36 336.39 291.85 336.41 295.36 C 282.44 295.34 228.48 295.34 174.51 295.35 C 174.53 291.85 174.53 288.35 174.55 284.85 Z" />
<path fill="#00aeef" opacity="1.00" d=" M 174.51 309.35 C 228.48 309.33 282.44 309.35 336.41 309.34 C 336.39 312.77 336.39 316.20 336.42 319.64 C 282.45 319.61 228.48 319.63 174.51 319.63 C 174.53 316.20 174.53 312.77 174.51 309.35 Z" />
<path fill="#00aeef" opacity="1.00" d=" M 174.52 333.61 C 228.48 333.64 282.44 333.63 336.41 333.62 C 336.40 337.13 336.40 340.65 336.37 344.18 C 282.43 344.17 228.50 344.15 174.56 344.18 C 174.52 340.66 174.52 337.13 174.52 333.61 Z" />
<path fill="#ffffff" opacity="1.00" d=" M 141.57 390.24 C 217.59 390.25 293.61 390.25 369.63 390.24 C 369.60 396.66 369.60 403.09 369.63 409.52 C 293.61 409.50 217.59 409.52 141.57 409.51 C 141.60 403.08 141.59 396.66 141.57 390.24 Z" />
</svg>
