<?xml version="1.0" encoding="UTF-8" ?>
<!DOCTYPE svg PUBLIC "-//W3C//DTD SVG 1.1//EN" "http://www.w3.org/Graphics/SVG/1.1/DTD/svg11.dtd">
<svg width="512pt" height="512pt" viewBox="0 0 512 512" version="1.1" xmlns="http://www.w3.org/2000/svg">
<path fill="#00aeef" opacity="1.00" d=" M 0.00 0.00 L 512.00 0.00 L 512.00 512.00 L 0.00 512.00 L 0.00 0.00 Z" />
<path fill="#ffffff" opacity="1.00" d=" M 209.75 123.14 C 240.58 123.07 271.42 123.07 302.25 123.14 C 302.27 180.39 302.26 237.65 302.26 294.90 L 302.62 295.31 C 317.88 295.21 333.15 295.21 348.41 295.31 C 317.57 326.10 286.80 356.97 256.00 387.81 C 225.21 356.97 194.42 326.12 163.61 295.30 C 178.85 295.22 194.09 295.23 209.33 295.29 L 209.75 294.97 C 209.73 237.70 209.73 180.42 209.75 123.14 Z" />
</svg>
