<?xml version="1.0" encoding="UTF-8" ?>
<!DOCTYPE svg PUBLIC "-//W3C//DTD SVG 1.1//EN" "http://www.w3.org/Graphics/SVG/1.1/DTD/svg11.dtd">
<svg width="512pt" height="512pt" viewBox="0 0 512 512" version="1.1" xmlns="http://www.w3.org/2000/svg">
<path fill="#00aeef" opacity="1.00" d=" M 0.00 0.00 L 512.00 0.00 L 512.00 512.00 L 0.00 512.00 L 0.00 0.00 Z" />
<path fill="#ffffff" opacity="1.00" d=" M 209.76 111.85 C 240.59 111.81 271.41 111.81 302.24 111.85 C 302.33 169.21 302.17 226.56 302.32 283.91 C 317.59 284.40 333.02 283.93 348.35 284.15 C 317.50 314.90 286.74 345.76 256.00 376.63 C 230.98 351.45 205.85 326.38 180.79 301.24 C 175.20 295.38 169.04 290.00 163.82 283.84 C 179.07 284.39 194.40 284.06 209.67 284.03 C 209.85 226.64 209.66 169.24 209.76 111.85 Z" />
<path fill="#ffffff" opacity="1.00" d=" M 163.78 384.25 C 225.14 384.33 286.50 384.27 347.87 384.27 L 348.41 384.50 C 348.28 389.72 348.41 394.94 348.34 400.16 C 286.78 400.18 225.22 400.17 163.66 400.17 C 163.71 394.86 163.47 389.51 163.78 384.25 Z" />
</svg>
