<?xml version="1.0" encoding="UTF-8" ?>
<!DOCTYPE svg PUBLIC "-//W3C//DTD SVG 1.1//EN" "http://www.w3.org/Graphics/SVG/1.1/DTD/svg11.dtd">
<svg width="512pt" height="512pt" viewBox="0 0 512 512" version="1.1" xmlns="http://www.w3.org/2000/svg">
<path fill="#00a9ec" opacity="1.00" d=" M 0.00 0.00 L 512.00 0.00 L 512.00 512.00 L 0.00 512.00 L 0.00 0.00 Z" />
<path fill="#ffffff" opacity="1.00" d=" M 117.61 149.05 C 117.57 145.74 120.50 142.25 123.99 142.62 C 180.31 142.60 236.64 142.59 292.96 142.62 C 296.39 142.29 299.40 145.65 298.86 149.03 C 298.84 188.98 298.88 228.93 298.88 268.87 C 294.87 264.96 290.75 261.17 286.76 257.23 C 286.89 223.02 286.71 188.81 286.85 154.60 C 234.52 154.56 182.19 154.54 129.86 154.61 C 129.90 195.99 129.82 237.38 129.90 278.76 C 175.94 278.82 221.98 278.80 268.02 278.77 C 269.24 278.62 270.25 279.01 271.05 279.92 C 274.81 283.60 278.65 287.18 282.50 290.77 C 279.65 291.19 276.78 291.08 273.93 290.91 C 225.92 290.84 177.93 290.98 129.93 290.91 C 126.35 290.96 121.70 292.03 119.21 288.68 C 116.95 286.34 117.71 282.92 117.60 279.98 C 117.62 236.34 117.59 192.69 117.61 149.05 Z" />
<path fill="#ffffff" opacity="1.00" d=" M 227.68 229.69 C 231.72 225.59 235.60 221.31 239.71 217.27 C 263.51 240.14 287.45 262.87 311.31 285.69 C 312.41 286.77 313.58 287.78 314.81 288.72 C 319.88 282.86 325.53 277.55 330.76 271.83 C 333.41 269.17 335.74 266.19 338.65 263.80 C 339.81 285.46 340.93 307.13 341.89 328.80 C 320.18 328.65 298.47 328.70 276.76 328.54 C 284.63 319.99 292.78 311.69 300.73 303.22 C 275.92 279.75 251.32 256.07 226.57 232.55 C 225.28 231.54 227.08 230.47 227.68 229.69 Z" />
<path fill="#ffffff" opacity="1.00" d=" M 315.56 220.46 C 339.72 220.22 363.88 220.38 388.04 220.37 C 391.55 220.13 395.07 223.47 394.55 227.05 C 394.52 272.38 394.54 317.71 394.54 363.04 C 394.82 365.98 392.01 369.10 388.98 368.72 C 332.29 368.71 275.61 368.70 218.93 368.72 C 215.82 369.21 213.17 366.00 213.38 363.06 C 213.34 343.52 213.30 323.98 213.40 304.45 C 217.42 304.53 221.44 304.49 225.46 304.50 C 225.41 321.99 225.52 339.47 225.40 356.96 C 277.69 357.39 330.00 357.02 382.30 357.15 C 382.39 315.59 382.26 274.03 382.36 232.47 C 360.12 232.39 337.88 232.46 315.64 232.43 C 315.65 228.44 315.72 224.45 315.56 220.46 Z" />
</svg>
