<?xml version="1.0" encoding="UTF-8" ?>
<!DOCTYPE svg PUBLIC "-//W3C//DTD SVG 1.1//EN" "http://www.w3.org/Graphics/SVG/1.1/DTD/svg11.dtd">
<svg width="512pt" height="512pt" viewBox="0 0 512 512" version="1.1" xmlns="http://www.w3.org/2000/svg">
<path fill="#04aeda" opacity="1.00" d=" M 0.00 0.00 L 512.00 0.00 L 512.00 512.00 L 0.00 512.00 L 0.00 0.00 Z" />
<path fill="#ffffff" opacity="1.00" d=" M 124.27 143.34 C 126.51 142.95 128.79 143.16 131.06 143.13 C 172.05 143.14 213.05 143.14 254.04 143.13 C 257.22 142.72 260.06 145.82 259.64 148.94 C 259.63 157.42 259.66 165.89 259.62 174.37 C 213.31 174.33 167.00 174.33 120.70 174.37 C 120.70 165.92 120.69 157.48 120.69 149.03 C 120.39 146.59 121.99 144.17 124.27 143.34 Z" />
<path fill="#ffffff" opacity="1.00" d=" M 104.71 193.06 C 104.42 186.53 110.44 180.34 116.97 180.43 C 210.01 180.46 303.05 180.45 396.09 180.44 C 403.17 180.20 408.99 187.04 408.85 193.90 C 408.93 252.75 408.85 311.61 408.89 370.47 C 383.06 370.50 357.22 370.42 331.39 370.51 C 331.35 334.74 331.37 298.96 331.38 263.19 C 281.48 263.28 231.57 263.00 181.69 263.34 C 181.76 299.06 181.73 334.79 181.70 370.52 C 156.05 370.45 130.39 370.42 104.74 370.54 C 104.72 311.38 104.77 252.22 104.71 193.06 Z" />
<path fill="#ffffff" opacity="1.00" d=" M 188.55 370.34 C 188.25 336.76 188.58 303.17 188.38 269.58 C 233.52 269.64 278.66 269.64 323.80 269.58 C 323.64 303.14 323.76 336.70 323.74 370.26 C 278.68 370.37 233.61 370.22 188.55 370.34 Z" />
</svg>
