<?xml version="1.0" encoding="UTF-8" ?>
<!DOCTYPE svg PUBLIC "-//W3C//DTD SVG 1.1//EN" "http://www.w3.org/Graphics/SVG/1.1/DTD/svg11.dtd">
<svg width="512pt" height="512pt" viewBox="0 0 512 512" version="1.1" xmlns="http://www.w3.org/2000/svg">
<path fill="#f2a115" opacity="1.00" d=" M 0.00 0.00 L 512.00 0.00 L 512.00 512.00 L 0.00 512.00 L 0.00 0.00 Z" />
<path fill="#ffffff" opacity="1.00" d=" M 147.27 140.18 C 180.57 139.97 213.88 140.17 247.18 140.09 C 249.40 148.32 251.24 156.65 253.49 164.88 C 216.03 164.74 178.55 165.12 141.10 164.69 C 143.32 156.56 145.34 148.38 147.27 140.18 Z" />
<path fill="#ffffff" opacity="1.00" d=" M 132.84 176.07 C 132.55 172.92 134.69 169.43 138.05 169.24 C 166.35 168.63 194.65 169.36 222.96 168.88 C 234.96 169.35 246.97 169.03 258.97 168.90 C 294.00 169.29 329.04 168.90 364.07 169.04 C 367.88 169.04 371.82 168.41 375.53 169.61 C 378.03 170.66 379.37 173.39 379.17 176.03 C 379.16 239.48 379.16 302.94 379.17 366.39 C 371.72 366.38 364.27 366.41 356.83 366.37 C 356.83 326.99 356.82 287.61 356.83 248.23 C 306.58 248.29 256.34 248.24 206.09 248.26 C 188.95 248.37 171.80 248.04 154.67 248.42 C 154.96 287.71 154.57 327.00 154.86 366.29 C 147.52 366.51 140.18 366.33 132.83 366.39 C 132.85 302.95 132.83 239.51 132.84 176.07 Z" />
<path fill="#ffffff" opacity="1.00" d=" M 159.19 256.94 C 158.79 254.64 160.63 252.50 163.00 252.75 C 224.99 252.72 286.99 252.73 348.98 252.75 C 350.83 252.60 352.95 253.93 352.77 255.99 C 352.88 294.62 352.77 333.26 352.82 371.90 C 340.59 371.90 328.36 371.90 316.12 371.90 C 316.21 344.43 316.01 316.97 316.22 289.50 C 276.15 289.13 236.07 289.54 196.00 289.30 C 195.69 316.83 195.95 344.37 195.87 371.91 C 183.64 371.90 171.41 371.90 159.19 371.91 C 159.20 333.59 159.18 295.26 159.19 256.94 Z" />
<path fill="#ffffff" opacity="1.00" d=" M 200.00 294.20 C 237.35 294.23 274.71 294.17 312.06 294.23 C 312.22 318.27 312.07 342.31 312.14 366.35 C 274.71 366.41 237.29 366.42 199.86 366.35 C 199.96 342.30 199.70 318.24 200.00 294.20 Z" />
</svg>
