<?xml version="1.0" encoding="UTF-8" ?>
<!DOCTYPE svg PUBLIC "-//W3C//DTD SVG 1.1//EN" "http://www.w3.org/Graphics/SVG/1.1/DTD/svg11.dtd">
<svg width="512pt" height="512pt" viewBox="0 0 512 512" version="1.1" xmlns="http://www.w3.org/2000/svg">
<path fill="#00a9ec" opacity="1.00" d=" M 0.00 0.00 L 512.00 0.00 L 512.00 512.00 L 0.00 512.00 L 0.00 0.00 Z" />
<path fill="#ffffff" opacity="1.00" d=" M 213.38 148.95 C 213.21 145.99 215.76 142.84 218.90 143.29 C 275.60 143.29 332.31 143.28 389.01 143.29 C 392.04 142.94 394.74 145.98 394.53 148.92 C 394.55 194.30 394.52 239.68 394.55 285.06 C 394.98 288.64 391.50 291.86 388.00 291.62 C 363.88 291.69 339.76 291.65 315.63 291.64 C 315.66 287.61 315.66 283.59 315.64 279.56 C 337.87 279.57 360.10 279.55 382.33 279.57 C 382.30 238.00 382.36 196.43 382.31 154.86 C 330.83 154.85 279.35 154.87 227.87 154.84 C 227.29 154.91 226.13 155.05 225.54 155.11 C 225.32 172.57 225.51 190.04 225.46 207.50 C 221.42 207.50 217.38 207.49 213.34 207.51 C 213.39 187.99 213.29 168.47 213.38 148.95 Z" />
<path fill="#ffffff" opacity="1.00" d=" M 276.54 183.46 C 298.32 183.31 320.12 183.33 341.90 183.21 C 340.88 204.93 339.88 226.66 338.59 248.37 C 330.62 239.99 322.58 231.67 314.65 223.24 C 289.54 246.94 264.66 270.90 239.66 294.73 C 235.00 289.91 230.26 285.14 225.80 280.13 C 250.86 256.43 275.68 232.48 300.72 208.76 C 292.64 200.34 284.72 191.78 276.54 183.46 Z" />
<path fill="#ffffff" opacity="1.00" d=" M 117.61 227.99 C 117.35 224.48 120.33 220.85 123.99 221.06 C 164.65 221.17 205.31 221.07 245.97 221.13 C 258.23 220.98 270.49 221.35 282.74 220.84 C 278.53 225.04 274.11 229.03 269.86 233.20 C 223.19 233.24 176.52 233.15 129.85 233.25 C 129.89 274.63 129.86 316.02 129.86 357.40 C 182.19 357.46 234.51 357.42 286.84 357.42 C 286.74 323.19 286.86 288.95 286.77 254.72 C 290.79 250.84 294.88 247.02 298.87 243.11 C 298.84 283.08 298.87 323.04 298.85 363.01 C 299.17 365.68 297.56 368.31 294.99 369.15 C 292.03 369.60 289.03 369.36 286.05 369.40 C 232.04 369.37 178.03 369.43 124.02 369.38 C 120.06 369.74 117.18 365.59 117.59 361.93 C 117.62 317.28 117.59 272.64 117.61 227.99 Z" />
</svg>
