<?xml version="1.0" encoding="UTF-8" ?>
<!DOCTYPE svg PUBLIC "-//W3C//DTD SVG 1.1//EN" "http://www.w3.org/Graphics/SVG/1.1/DTD/svg11.dtd">
<svg width="512pt" height="512pt" viewBox="0 0 512 512" version="1.1" xmlns="http://www.w3.org/2000/svg">
<path fill="#1ba0e1" opacity="1.00" d=" M 0.00 0.00 L 512.00 0.00 L 512.00 512.00 L 0.00 512.00 L 0.00 0.00 Z" />
<path fill="#ffffff" opacity="1.00" d=" M 165.52 168.45 C 166.98 163.90 168.10 159.25 168.93 154.54 C 181.42 163.74 195.88 169.82 210.53 174.65 C 228.86 180.71 247.83 184.64 266.04 191.09 C 276.48 194.86 286.81 199.49 295.41 206.64 C 297.89 208.81 300.21 211.16 302.68 213.36 C 306.43 204.03 311.79 195.13 319.49 188.53 C 321.23 186.71 323.79 185.30 324.61 182.83 C 324.13 179.39 321.09 176.64 321.38 172.98 C 321.14 166.71 326.61 161.85 332.18 160.10 C 340.51 157.45 352.35 160.43 354.79 169.82 C 356.47 175.12 352.96 179.98 350.27 184.21 C 354.45 189.51 359.86 193.77 363.40 199.60 C 365.99 203.88 369.43 207.97 370.76 212.82 C 360.73 227.43 350.25 241.77 339.95 256.19 C 342.55 260.20 345.15 264.27 348.66 267.56 C 358.45 255.76 365.84 242.09 376.24 230.80 C 382.53 253.58 382.01 277.80 377.79 300.91 C 375.63 312.88 371.31 324.32 366.01 335.23 C 373.03 335.26 380.08 335.04 387.10 335.48 C 391.53 335.74 396.14 337.44 398.93 341.04 C 400.84 343.60 399.95 347.51 397.39 349.30 C 391.77 354.18 383.85 353.22 376.97 353.50 C 362.31 354.04 347.65 353.89 332.98 353.90 C 320.98 353.87 308.98 354.09 296.99 353.48 C 290.99 353.46 284.12 352.99 279.93 348.08 C 277.11 345.62 278.08 340.92 281.20 339.20 C 288.81 334.04 298.49 335.46 307.17 335.21 C 301.24 322.56 296.23 309.37 294.38 295.44 C 283.67 301.64 271.47 306.12 258.93 305.57 C 250.43 305.31 242.26 302.03 235.42 297.08 C 243.62 313.66 251.65 330.93 265.34 343.80 C 253.39 348.47 241.50 353.26 229.61 358.08 C 230.93 339.29 224.64 321.21 219.13 303.56 C 217.19 316.54 208.65 327.88 197.38 334.36 C 184.91 341.53 170.33 345.86 155.86 344.47 C 145.19 343.42 135.10 337.97 128.31 329.69 C 122.75 322.90 118.61 314.90 116.37 306.41 C 113.94 297.89 111.95 288.93 113.29 280.05 C 114.54 268.24 119.22 257.14 124.56 246.65 C 138.14 220.56 156.53 196.77 165.52 168.45 Z" />
</svg>
