<?xml version="1.0" encoding="UTF-8" ?>
<!DOCTYPE svg PUBLIC "-//W3C//DTD SVG 1.1//EN" "http://www.w3.org/Graphics/SVG/1.1/DTD/svg11.dtd">
<svg width="512pt" height="512pt" viewBox="0 0 512 512" version="1.1" xmlns="http://www.w3.org/2000/svg">
<path fill="#00a9ec" opacity="1.00" d=" M 0.00 0.00 L 512.00 0.00 L 512.00 512.00 L 0.00 512.00 L 0.00 0.00 Z" />
<path fill="#ffffff" opacity="1.00" d=" M 124.19 124.22 C 151.41 124.19 178.62 124.23 205.84 124.20 C 205.75 151.40 205.81 178.60 205.81 205.80 C 178.61 205.82 151.41 205.77 124.20 205.82 C 124.20 178.62 124.23 151.42 124.19 124.22 Z" />
<path fill="#ffffff" opacity="1.00" d=" M 214.55 124.20 C 241.92 124.11 269.30 124.18 296.68 124.17 C 296.55 151.37 296.60 178.58 296.65 205.78 C 269.30 205.80 241.95 205.79 214.61 205.78 C 214.58 178.59 214.69 151.40 214.55 124.20 Z" />
<path fill="#ffffff" opacity="1.00" d=" M 305.20 124.22 C 332.74 124.20 360.27 124.20 387.81 124.22 C 387.74 151.42 387.79 178.62 387.79 205.81 C 360.27 205.79 332.75 205.79 305.23 205.82 C 305.21 178.62 305.26 151.42 305.20 124.22 Z" />
<path fill="#ffffff" opacity="1.00" d=" M 124.18 214.60 C 151.38 214.63 178.59 214.60 205.79 214.61 C 205.78 241.95 205.81 269.29 205.78 296.63 C 178.57 296.61 151.37 296.58 124.17 296.64 C 124.16 269.29 124.15 241.95 124.18 214.60 Z" />
<path fill="#ffffff" opacity="1.00" d=" M 214.66 214.69 C 241.99 214.66 269.32 214.67 296.65 214.69 C 296.54 241.99 296.64 269.29 296.60 296.59 C 269.29 296.62 241.98 296.60 214.67 296.60 C 214.67 269.30 214.69 241.99 214.66 214.69 Z" />
<path fill="#ffffff" opacity="1.00" d=" M 305.26 214.55 C 332.76 214.59 360.26 214.60 387.76 214.55 C 387.80 241.90 387.78 269.25 387.77 296.60 C 360.26 296.66 332.75 296.56 305.25 296.65 C 305.22 269.28 305.20 241.92 305.26 214.55 Z" />
<path fill="#ffffff" opacity="1.00" d=" M 124.18 305.25 C 151.39 305.21 178.61 305.23 205.82 305.24 C 205.79 332.75 205.77 360.26 205.83 387.77 C 178.62 387.78 151.40 387.78 124.18 387.77 C 124.22 360.26 124.23 332.76 124.18 305.25 Z" />
<path fill="#ffffff" opacity="1.00" d=" M 214.56 305.24 C 241.91 305.22 269.25 305.22 296.60 305.24 C 296.63 332.75 296.63 360.26 296.60 387.76 C 269.29 387.83 241.97 387.69 214.66 387.83 C 214.45 360.31 214.65 332.77 214.56 305.24 Z" />
<path fill="#ffffff" opacity="1.00" d=" M 305.21 305.24 C 332.74 305.22 360.27 305.22 387.81 305.24 C 387.75 332.75 387.76 360.26 387.80 387.77 C 360.27 387.78 332.74 387.78 305.21 387.77 C 305.24 360.26 305.24 332.75 305.21 305.24 Z" />
</svg>
