<?xml version="1.0" encoding="UTF-8" ?>
<!DOCTYPE svg PUBLIC "-//W3C//DTD SVG 1.1//EN" "http://www.w3.org/Graphics/SVG/1.1/DTD/svg11.dtd">
<svg width="512pt" height="512pt" viewBox="0 0 512 512" version="1.1" xmlns="http://www.w3.org/2000/svg">
<path fill="#009aff" opacity="1.00" d=" M 0.00 0.00 L 512.00 0.00 L 512.00 512.00 L 0.00 512.00 L 0.00 0.00 Z" />
<path fill="#ffffff" opacity="1.00" d=" M 135.98 170.16 C 175.97 146.83 216.08 123.72 256.01 100.30 C 287.07 118.52 318.27 136.51 349.39 154.65 C 360.36 161.14 371.56 167.28 382.38 174.01 C 379.95 174.43 377.48 174.31 375.03 174.28 C 293.29 174.28 211.55 174.28 129.81 174.28 C 131.39 172.29 133.90 171.49 135.98 170.16 Z" />
<path fill="#ffffff" opacity="1.00" d=" M 128.51 179.67 C 213.50 179.72 298.49 179.73 383.48 179.67 C 383.50 186.63 383.38 193.58 383.55 200.54 C 345.39 200.87 307.22 200.59 269.05 200.68 C 222.20 200.63 175.35 200.78 128.50 200.61 C 128.56 193.63 128.54 186.65 128.51 179.67 Z" />
<path fill="#ffffff" opacity="1.00" d=" M 165.36 206.54 C 173.37 206.25 181.42 206.48 189.44 206.45 C 193.11 210.19 196.87 213.84 200.51 217.61 C 200.44 252.48 200.39 287.36 200.54 322.23 C 197.15 325.87 193.55 329.31 190.04 332.84 C 182.00 332.80 173.95 332.86 165.90 332.83 C 164.59 333.06 163.74 331.94 162.91 331.17 C 159.98 328.14 156.92 325.23 154.02 322.17 C 154.21 287.42 153.98 252.66 154.13 217.91 C 157.46 213.81 161.45 210.12 165.36 206.54 Z" />
<path fill="#ffffff" opacity="1.00" d=" M 243.75 206.45 C 251.92 206.53 260.15 206.14 268.29 206.62 C 272.16 210.13 275.74 213.97 279.42 217.68 C 279.33 252.53 279.35 287.38 279.41 322.23 C 275.84 325.69 272.55 329.47 268.76 332.69 C 260.23 333.01 251.68 332.75 243.14 332.80 C 239.61 329.29 236.08 325.78 232.59 322.23 C 232.65 287.39 232.67 252.55 232.58 217.71 C 236.25 213.90 240.05 210.22 243.75 206.45 Z" />
<path fill="#ffffff" opacity="1.00" d=" M 322.42 206.44 C 330.50 206.39 338.58 206.44 346.66 206.41 C 350.48 210.19 354.33 213.94 358.02 217.85 C 357.80 252.62 357.91 287.40 357.96 322.17 C 354.49 325.64 351.12 329.23 347.52 332.57 C 339.30 333.56 330.90 332.06 322.68 333.26 C 318.56 329.95 314.76 326.08 311.36 322.08 C 311.22 287.22 311.30 252.34 311.33 217.48 C 315.10 213.87 318.73 210.12 322.42 206.44 Z" />
<path fill="#ffffff" opacity="1.00" d=" M 128.50 348.75 C 131.86 345.30 135.25 341.87 138.73 338.54 C 216.93 338.59 295.12 338.60 373.31 338.53 C 376.79 341.84 380.17 345.26 383.51 348.72 C 383.45 358.08 383.46 367.45 383.51 376.81 C 298.49 376.73 213.48 376.82 128.46 376.77 C 128.58 367.43 128.52 358.09 128.50 348.75 Z" />
<path fill="#ffffff" opacity="1.00" d=" M 111.84 390.55 C 207.95 390.59 304.05 390.59 400.16 390.56 C 400.21 397.52 400.04 404.50 400.26 411.46 C 304.16 411.82 208.05 411.41 111.95 411.67 C 111.70 404.63 111.90 397.59 111.84 390.55 Z" />
</svg>
