<?xml version="1.0" encoding="UTF-8" ?>
<!DOCTYPE svg PUBLIC "-//W3C//DTD SVG 1.1//EN" "http://www.w3.org/Graphics/SVG/1.1/DTD/svg11.dtd">
<svg width="512pt" height="512pt" viewBox="0 0 512 512" version="1.1" xmlns="http://www.w3.org/2000/svg">
<path fill="#009aff" opacity="1.00" d=" M 0.00 0.00 L 512.00 0.00 L 512.00 512.00 L 0.00 512.00 L 0.00 0.00 Z" />
<path fill="#ffffff" opacity="1.00" d=" M 197.54 143.40 C 217.22 133.98 237.12 125.01 256.63 115.27 C 257.86 116.05 259.10 116.82 260.42 117.45 C 303.17 137.51 345.80 157.83 388.58 177.84 C 388.59 181.16 388.60 184.47 388.61 187.78 C 300.54 187.76 212.46 187.76 124.39 187.78 C 124.40 184.47 124.40 181.16 124.42 177.85 C 148.85 166.48 173.16 154.85 197.54 143.40 Z" />
<path fill="#ffffff" opacity="1.00" d=" M 149.84 193.74 C 150.04 193.49 150.44 193.00 150.63 192.75 C 221.21 192.73 291.79 192.73 362.36 192.75 C 362.56 193.00 362.96 193.48 363.16 193.72 C 363.29 198.87 363.13 204.02 363.20 209.17 C 292.07 209.19 220.93 209.19 149.80 209.17 C 149.87 204.03 149.71 198.88 149.84 193.74 Z" />
<path fill="#ffffff" opacity="1.00" d=" M 159.62 214.28 C 167.55 214.26 175.48 214.31 183.40 214.25 C 184.19 235.18 184.55 256.12 185.34 277.05 C 185.67 286.03 185.35 295.04 186.16 303.99 C 186.48 317.17 186.47 330.38 187.35 343.54 C 177.03 343.65 166.70 343.58 156.37 343.58 C 156.82 333.71 156.40 323.81 157.24 313.96 C 157.48 302.31 157.37 290.64 158.18 279.01 C 158.27 257.42 159.34 235.86 159.62 214.28 Z" />
<path fill="#ffffff" opacity="1.00" d=" M 216.06 214.28 C 224.10 214.40 232.17 214.01 240.20 214.49 C 240.43 227.33 240.26 240.20 241.21 253.02 C 241.22 274.70 242.65 296.35 242.85 318.02 C 243.52 326.53 243.33 335.07 243.68 343.59 C 233.32 343.57 222.97 343.65 212.62 343.55 C 213.99 328.43 213.05 313.18 214.16 298.04 C 214.53 270.11 215.40 242.20 216.06 214.28 Z" />
<path fill="#ffffff" opacity="1.00" d=" M 272.64 214.21 C 280.54 214.33 288.45 214.27 296.36 214.25 C 297.77 251.47 298.41 288.70 299.63 325.93 C 299.82 331.79 299.37 337.72 300.40 343.53 C 290.04 343.67 279.68 343.57 269.32 343.60 C 270.35 300.47 271.55 257.34 272.64 214.21 Z" />
<path fill="#ffffff" opacity="1.00" d=" M 328.97 214.27 C 336.92 214.27 344.88 214.30 352.83 214.26 C 353.44 218.12 353.26 222.04 353.31 225.94 C 353.50 246.29 354.71 266.62 354.82 286.98 C 355.88 299.31 355.19 311.71 356.22 324.03 C 356.33 330.55 356.38 337.07 356.64 343.58 C 346.31 343.58 335.98 343.65 325.66 343.54 C 326.76 326.06 326.24 308.51 327.29 291.03 C 327.51 265.43 328.61 239.87 328.97 214.27 Z" />
<path fill="#ffffff" opacity="1.00" d=" M 136.72 348.64 C 216.57 348.60 296.43 348.60 376.28 348.64 C 376.29 354.25 376.18 359.85 376.34 365.46 C 381.06 365.41 385.79 365.42 390.51 365.44 C 390.50 371.01 390.39 376.59 390.57 382.16 C 395.27 382.17 399.98 382.15 404.69 382.17 C 404.65 387.66 404.64 393.14 404.70 398.63 C 305.90 398.65 207.10 398.64 108.30 398.63 C 108.36 393.14 108.35 387.66 108.31 382.17 C 113.02 382.15 117.72 382.17 122.43 382.16 C 122.60 376.59 122.50 371.01 122.49 365.44 C 127.21 365.42 131.94 365.42 136.67 365.46 C 136.81 359.85 136.71 354.25 136.72 348.64 Z" />
</svg>
