<?xml version="1.0" encoding="UTF-8" ?>
<!DOCTYPE svg PUBLIC "-//W3C//DTD SVG 1.1//EN" "http://www.w3.org/Graphics/SVG/1.1/DTD/svg11.dtd">
<svg width="512pt" height="512pt" viewBox="0 0 512 512" version="1.1" xmlns="http://www.w3.org/2000/svg">
<path fill="#36729e" opacity="1.00" d=" M 0.00 0.00 L 512.00 0.00 L 512.00 512.00 L 0.00 512.00 L 0.00 0.00 Z" />
<path fill="#ffffff" opacity="1.00" d=" M 122.21 160.96 C 121.75 154.10 128.12 147.80 134.95 148.20 C 171.95 148.18 208.96 148.19 245.96 148.19 C 253.28 148.29 260.62 147.97 267.93 148.37 C 259.98 161.82 251.92 175.26 245.63 189.60 C 233.01 216.75 225.50 246.44 225.29 276.46 C 240.37 276.43 255.45 276.41 270.53 276.45 C 267.18 287.40 266.08 298.93 265.48 310.32 C 235.75 311.43 205.74 307.04 177.77 296.80 C 176.54 296.40 175.28 296.17 173.99 296.09 C 173.01 299.39 171.54 302.56 171.06 306.00 C 194.14 314.19 218.32 319.50 242.82 320.63 C 250.41 320.84 258.01 320.84 265.61 320.69 C 266.02 335.54 269.47 350.04 272.67 364.47 C 226.44 364.53 180.20 364.48 133.97 364.50 C 127.19 364.23 122.01 357.60 122.35 351.01 C 122.02 287.66 122.30 224.31 122.21 160.96 Z" />
<path fill="#ffffff" opacity="1.00" d=" M 282.20 148.31 C 313.81 148.03 345.45 148.26 377.08 148.20 C 383.89 147.81 390.23 154.08 389.79 160.92 C 389.70 224.28 389.99 287.64 389.64 351.00 C 390.16 357.65 384.74 364.20 378.02 364.50 C 346.86 364.52 315.70 364.44 284.54 364.54 C 282.23 359.63 281.32 354.24 280.00 349.02 C 278.20 339.38 276.12 329.71 276.21 319.85 C 297.53 318.19 318.66 313.33 338.56 305.47 C 337.31 302.34 336.16 299.16 335.11 295.96 C 331.49 296.91 328.02 298.37 324.46 299.52 C 308.80 304.67 292.54 308.03 276.12 309.55 C 276.22 294.64 280.07 280.15 283.91 265.85 C 268.00 266.02 252.13 266.20 236.24 265.89 C 238.18 230.98 251.45 197.71 268.69 167.66 C 272.82 161.00 276.34 153.65 282.20 148.31 Z" />
<path fill="#36729e" opacity="1.00" d=" M 189.48 186.19 C 193.27 186.18 197.07 186.18 200.87 186.19 C 200.69 195.05 201.36 203.89 201.05 212.75 C 197.18 212.75 193.30 212.78 189.42 212.77 C 189.41 203.91 189.50 195.05 189.48 186.19 Z" />
<path fill="#36729e" opacity="1.00" d=" M 297.68 186.16 C 301.55 186.16 305.41 186.15 309.28 186.19 C 309.29 195.02 309.25 203.85 309.34 212.68 C 305.45 212.80 301.56 212.75 297.67 212.75 C 297.67 203.89 297.67 195.03 297.68 186.16 Z" />
</svg>
