<?xml version="1.0" encoding="UTF-8" ?>
<!DOCTYPE svg PUBLIC "-//W3C//DTD SVG 1.1//EN" "http://www.w3.org/Graphics/SVG/1.1/DTD/svg11.dtd">
<svg width="512pt" height="512pt" viewBox="0 0 512 512" version="1.1" xmlns="http://www.w3.org/2000/svg">
<path fill="#00aeef" opacity="1.00" d=" M 0.00 0.00 L 512.00 0.00 L 512.00 512.00 L 0.00 512.00 L 0.00 0.00 Z" />
<path fill="#ffffff" opacity="1.00" d=" M 349.17 122.31 C 351.38 121.95 353.73 121.31 355.92 122.21 C 358.88 122.97 360.78 126.02 360.65 129.00 C 360.65 197.67 360.65 266.35 360.65 335.02 C 360.15 347.88 351.13 359.23 340.03 365.08 C 325.76 372.47 306.97 372.13 294.05 362.07 C 286.86 356.58 282.56 347.19 284.10 338.16 C 285.67 327.23 293.54 317.95 303.15 312.93 C 314.82 306.55 329.24 306.10 341.66 310.49 C 341.76 270.33 341.69 230.18 341.70 190.03 C 303.63 195.94 265.69 202.79 227.63 208.82 C 227.54 257.91 227.63 307.00 227.59 356.08 C 226.62 367.01 219.53 376.65 210.59 382.64 C 195.47 392.53 173.42 392.60 159.52 380.43 C 153.50 375.20 150.07 366.98 150.95 359.03 C 152.02 349.00 158.46 340.18 166.73 334.71 C 178.85 326.29 194.87 325.52 208.63 329.95 C 208.65 269.91 208.58 209.88 208.67 149.84 C 208.60 146.15 212.52 144.44 215.60 143.86 C 260.12 136.69 304.65 129.53 349.17 122.31 Z" />
</svg>
