<?xml version="1.0" encoding="UTF-8" ?>
<!DOCTYPE svg PUBLIC "-//W3C//DTD SVG 1.1//EN" "http://www.w3.org/Graphics/SVG/1.1/DTD/svg11.dtd">
<svg width="512pt" height="512pt" viewBox="0 0 512 512" version="1.1" xmlns="http://www.w3.org/2000/svg">
<path fill="#00aeef" opacity="1.00" d=" M 0.00 0.00 L 512.00 0.00 L 512.00 512.00 L 0.00 512.00 L 0.00 0.00 Z" />
<path fill="#ffffff" opacity="1.00" d=" M 352.04 106.85 C 356.34 105.97 361.02 109.45 360.65 114.01 C 360.67 181.99 360.63 249.97 360.67 317.96 C 361.12 330.57 353.00 342.16 342.58 348.62 C 327.84 357.64 307.14 357.73 293.46 346.59 C 286.34 340.87 282.31 331.18 284.28 322.14 C 286.39 310.37 295.67 300.87 306.46 296.33 C 317.52 291.27 330.21 291.99 341.70 295.12 C 341.71 255.09 341.71 215.06 341.70 175.03 C 303.63 180.95 265.69 187.78 227.63 193.82 C 227.54 242.89 227.63 291.97 227.60 341.04 C 226.70 351.48 220.16 360.76 211.82 366.78 C 196.68 377.57 173.82 377.90 159.52 365.44 C 153.50 360.20 150.07 351.98 150.95 344.02 C 152.03 334.01 158.44 325.20 166.69 319.73 C 178.82 311.28 194.85 310.55 208.64 314.93 C 208.63 254.94 208.60 194.95 208.66 134.96 C 208.54 131.05 212.76 129.31 216.00 128.79 C 261.35 121.51 306.69 114.18 352.04 106.85 Z" />
<path fill="#ffffff" opacity="1.00" d=" M 149.49 385.43 C 220.24 385.37 291.00 385.42 361.75 385.40 C 361.75 392.01 361.72 398.61 361.77 405.22 C 291.02 405.24 220.26 405.22 149.51 405.23 C 149.51 398.63 149.54 392.03 149.49 385.43 Z" />
</svg>
