<?xml version="1.0" encoding="UTF-8" ?>
<!DOCTYPE svg PUBLIC "-//W3C//DTD SVG 1.1//EN" "http://www.w3.org/Graphics/SVG/1.1/DTD/svg11.dtd">
<svg width="512pt" height="512pt" viewBox="0 0 512 512" version="1.1" xmlns="http://www.w3.org/2000/svg">
<path fill="#3c78c3" opacity="1.00" d=" M 0.00 0.00 L 512.00 0.00 L 512.00 512.00 L 0.00 512.00 L 0.00 0.00 Z" />
<path fill="#ffffff" opacity="1.00" d=" M 196.25 155.45 C 200.38 155.29 204.54 155.25 208.68 155.49 C 220.87 157.53 231.58 166.46 236.01 177.98 C 242.14 192.60 236.82 210.80 224.07 220.10 C 216.15 226.12 205.71 228.76 195.91 226.89 C 185.26 224.94 175.63 217.98 170.54 208.41 C 166.33 201.07 165.51 192.23 166.87 184.00 C 169.58 169.66 181.82 157.70 196.25 155.45 Z" />
<path fill="#ffffff" opacity="1.00" d=" M 276.43 155.50 C 280.92 155.28 285.47 155.17 289.95 155.60 C 299.72 157.56 308.66 163.72 313.75 172.33 C 319.76 181.83 320.58 194.21 316.51 204.61 C 311.47 217.38 298.72 226.73 284.96 227.40 C 274.53 228.09 263.97 223.75 256.80 216.19 C 248.69 207.85 244.93 195.38 247.44 183.98 C 250.14 169.78 262.18 157.94 276.43 155.50 Z" />
<path fill="#ffffff" opacity="1.00" d=" M 347.91 267.41 C 364.26 252.13 380.84 237.08 397.25 221.85 C 397.31 266.65 397.35 311.46 397.23 356.26 C 383.26 343.40 369.32 330.52 355.34 317.67 C 352.22 315.14 349.66 311.93 346.31 309.68 C 344.72 309.61 343.14 309.61 341.56 309.68 C 341.58 325.28 341.53 340.89 341.58 356.49 C 275.51 356.46 209.44 356.48 143.37 356.48 C 143.41 315.53 143.42 274.57 143.37 233.62 C 209.44 233.67 275.51 233.63 341.58 233.63 C 341.55 244.90 341.56 256.16 341.57 267.43 C 343.68 267.47 345.79 267.47 347.91 267.41 Z" />
<path fill="#ffffff" opacity="1.00" d=" M 113.41 239.75 C 121.11 239.74 128.82 239.80 136.53 239.72 C 136.68 257.00 136.52 274.29 136.61 291.58 C 128.84 291.54 121.08 291.64 113.32 291.53 C 114.02 280.71 113.44 269.83 113.63 258.99 C 113.53 252.58 113.85 246.15 113.41 239.75 Z" />
</svg>
