<?xml version="1.0" encoding="UTF-8" ?>
<!DOCTYPE svg PUBLIC "-//W3C//DTD SVG 1.1//EN" "http://www.w3.org/Graphics/SVG/1.1/DTD/svg11.dtd">
<svg width="512pt" height="512pt" viewBox="0 0 512 512" version="1.1" xmlns="http://www.w3.org/2000/svg">
<path fill="#97c024" opacity="1.00" d=" M 0.00 0.00 L 512.00 0.00 L 512.00 512.00 L 0.00 512.00 L 0.00 0.00 Z" />
<path fill="#ffffff" opacity="1.00" d=" M 206.46 122.58 C 205.21 120.96 208.11 119.17 209.03 120.90 C 213.87 128.70 218.20 136.81 222.91 144.69 C 242.89 134.93 267.35 134.70 287.37 144.47 C 292.09 136.75 296.34 128.75 301.03 121.02 C 301.79 119.44 303.60 120.66 304.45 121.44 C 299.72 129.59 295.02 137.76 290.34 145.94 C 307.26 154.94 320.39 170.74 326.03 189.06 C 327.79 194.34 328.58 199.86 329.32 205.36 C 280.05 205.38 230.78 205.40 181.50 205.35 C 183.20 189.50 189.37 174.03 200.09 162.12 C 205.75 155.65 212.66 150.43 220.05 146.10 C 215.45 138.30 210.94 130.45 206.46 122.58 Z" />
<path fill="#97c024" opacity="1.00" d=" M 217.29 166.18 C 221.45 163.72 227.37 167.07 227.45 171.89 C 228.17 177.29 221.21 181.54 216.79 178.20 C 212.32 175.62 212.69 168.40 217.29 166.18 Z" />
<path fill="#97c024" opacity="1.00" d=" M 285.29 166.30 C 289.52 163.53 295.66 167.12 295.68 172.07 C 296.13 177.40 289.31 181.52 284.93 178.17 C 280.55 175.56 280.79 168.66 285.29 166.30 Z" />
<path fill="#ffffff" opacity="1.00" d=" M 153.43 209.60 C 158.50 208.50 164.16 209.27 168.16 212.78 C 172.49 216.10 174.52 221.64 174.36 226.99 C 174.19 250.34 174.66 273.70 174.50 297.05 C 174.26 302.22 171.54 307.35 167.14 310.17 C 160.41 314.93 150.13 313.45 145.06 306.90 C 142.57 303.87 141.31 299.93 141.37 296.02 C 141.39 272.32 141.39 248.61 141.37 224.90 C 141.24 217.82 146.68 211.35 153.43 209.60 Z" />
<path fill="#ffffff" opacity="1.00" d=" M 348.48 209.71 C 352.85 208.74 357.76 208.88 361.63 211.37 C 366.45 214.17 369.50 219.53 369.69 225.08 C 369.77 249.04 369.86 273.01 369.83 296.98 C 369.85 303.38 365.52 309.28 359.72 311.75 C 353.27 314.33 345.26 312.69 340.80 307.23 C 337.57 303.65 336.52 298.70 336.70 294.00 C 336.85 273.98 336.44 253.97 336.58 233.95 C 336.74 228.99 335.84 223.75 337.97 219.07 C 339.85 214.59 343.80 211.05 348.48 209.71 Z" />
<path fill="#ffffff" opacity="1.00" d=" M 181.43 211.48 C 230.92 211.47 280.40 211.46 329.89 211.48 C 329.74 248.34 329.90 285.20 329.81 322.06 C 329.89 328.92 325.09 335.31 318.67 337.54 C 312.37 339.38 305.65 338.01 299.18 338.44 C 299.35 350.95 299.32 363.46 299.30 375.96 C 299.27 381.76 295.89 387.36 290.75 390.06 C 287.20 392.19 282.85 391.93 278.89 391.55 C 271.86 390.07 266.24 383.27 266.37 376.04 C 266.33 363.51 266.19 350.98 266.26 338.45 C 258.63 338.41 251.01 338.43 243.38 338.44 C 243.41 350.97 243.38 363.49 243.41 376.01 C 243.59 383.19 238.08 389.91 231.15 391.50 C 227.07 391.95 222.58 392.22 218.94 389.99 C 213.83 387.28 210.51 381.64 210.45 375.88 C 210.40 363.39 210.54 350.91 210.26 338.42 C 203.66 337.95 196.50 339.83 190.41 336.52 C 185.18 333.73 181.47 328.04 181.48 322.06 C 181.45 285.20 181.55 248.34 181.43 211.48 Z" />
</svg>
