<?xml version="1.0" encoding="UTF-8" ?>
<!DOCTYPE svg PUBLIC "-//W3C//DTD SVG 1.1//EN" "http://www.w3.org/Graphics/SVG/1.1/DTD/svg11.dtd">
<svg width="512pt" height="512pt" viewBox="0 0 512 512" version="1.1" xmlns="http://www.w3.org/2000/svg">
<path fill="#6d6e71" opacity="1.00" d=" M 0.00 0.00 L 512.00 0.00 L 512.00 512.00 L 0.00 512.00 L 0.00 0.00 Z" />
<path fill="#ffffff" opacity="1.00" d=" M 257.14 159.27 C 266.14 140.57 285.23 127.68 305.66 125.04 C 308.21 138.70 303.70 152.82 296.23 164.23 C 286.78 178.96 270.10 189.14 252.43 189.39 C 249.75 179.31 252.59 168.44 257.14 159.27 Z" />
<path fill="#ffffff" opacity="1.00" d=" M 157.64 216.60 C 170.71 198.14 192.79 184.42 216.02 186.67 C 231.64 187.61 245.24 197.58 261.00 197.49 C 270.13 197.64 278.42 193.42 286.86 190.55 C 300.65 185.63 316.32 184.63 330.10 190.09 C 341.95 194.66 352.06 203.02 359.88 212.93 C 349.19 221.29 339.44 231.69 334.79 244.66 C 327.94 262.50 332.18 283.45 343.61 298.46 C 349.87 306.86 358.70 313.15 368.47 316.83 C 360.81 333.56 351.46 349.54 340.21 364.13 C 332.18 374.35 322.17 384.55 308.80 386.85 C 299.24 388.44 290.35 383.51 281.87 379.87 C 267.41 373.84 250.46 374.79 236.39 381.47 C 228.28 385.17 219.09 388.92 210.09 386.36 C 202.46 384.63 195.65 380.35 189.99 375.05 C 181.25 366.94 174.42 357.04 168.09 347.00 C 152.88 322.49 143.99 293.96 143.55 265.06 C 144.22 248.15 147.41 230.53 157.64 216.60 Z" />
</svg>
