<?xml version="1.0" encoding="UTF-8" ?>
<!DOCTYPE svg PUBLIC "-//W3C//DTD SVG 1.1//EN" "http://www.w3.org/Graphics/SVG/1.1/DTD/svg11.dtd">
<svg width="512pt" height="512pt" viewBox="0 0 512 512" version="1.1" xmlns="http://www.w3.org/2000/svg">
<path fill="#f3bf00" opacity="1.00" d=" M 0.00 0.00 L 512.00 0.00 L 512.00 512.00 L 0.00 512.00 L 0.00 0.00 Z" />
<path fill="#ffffff" opacity="1.00" d=" M 225.62 126.57 C 233.61 118.94 245.29 116.60 255.99 116.70 C 267.63 116.71 278.51 122.34 286.87 130.12 C 290.75 134.53 293.32 139.95 295.53 145.35 C 299.88 156.39 299.05 168.43 300.28 180.00 C 300.74 188.31 301.41 196.98 305.66 204.34 C 310.95 213.59 316.26 222.87 322.64 231.43 C 326.94 237.46 331.79 243.12 335.36 249.64 C 340.49 258.64 343.48 268.61 346.88 278.34 C 350.19 288.18 350.23 298.76 349.33 309.00 C 349.38 311.51 347.49 313.32 346.01 315.10 C 347.74 315.92 350.20 315.89 351.26 317.72 C 352.23 322.41 350.40 327.63 353.11 331.93 C 357.37 338.84 363.81 344.07 370.44 348.59 C 373.09 350.32 375.06 354.05 373.23 357.04 C 369.20 363.40 361.73 365.98 355.29 369.16 C 345.98 373.24 337.99 379.74 330.67 386.69 C 326.54 390.54 321.86 394.45 316.03 395.11 C 310.85 395.67 305.34 396.42 300.39 394.33 C 296.01 392.20 293.03 387.98 292.06 383.26 C 281.60 380.48 270.68 381.71 260.00 380.95 C 251.33 381.57 242.53 380.79 233.97 382.55 C 231.64 382.94 229.69 384.37 227.78 385.65 C 227.17 385.67 225.95 385.72 225.34 385.75 C 221.14 391.59 214.45 396.30 206.97 395.72 C 198.61 395.46 191.75 390.03 183.86 387.95 C 171.73 384.68 159.56 381.58 147.32 378.71 C 144.28 377.78 140.65 377.12 138.74 374.30 C 136.45 370.70 138.87 366.57 139.13 362.76 C 139.45 357.51 139.81 352.23 139.75 346.97 C 139.73 342.82 137.25 338.39 139.66 334.50 C 140.86 332.11 143.49 331.03 145.98 330.58 C 151.42 329.42 157.37 328.63 161.62 324.69 C 166.53 320.80 168.61 314.59 173.13 310.33 C 172.12 309.28 170.42 308.56 170.36 306.90 C 170.02 303.14 169.91 299.24 170.85 295.57 C 172.42 292.10 175.14 289.31 176.90 285.94 C 181.78 275.96 185.52 265.48 189.03 254.95 C 190.82 249.30 194.14 244.32 197.78 239.72 C 203.27 232.80 208.10 225.40 213.31 218.28 C 215.71 214.93 218.43 211.33 218.19 206.97 C 217.00 187.66 214.75 168.35 215.60 148.98 C 215.83 140.56 219.81 132.55 225.62 126.57 Z" />
<path fill="#f3bf00" opacity="1.00" d=" M 256.08 159.97 C 258.62 156.65 262.81 154.76 266.99 155.12 C 272.35 154.81 275.78 159.78 277.90 164.03 C 281.07 171.35 281.80 181.89 274.14 186.71 C 271.11 186.10 268.23 184.95 265.31 183.98 C 268.06 182.45 271.83 181.36 272.68 177.90 C 274.88 172.42 269.59 163.78 263.23 167.07 C 258.62 170.32 259.16 177.21 261.07 181.90 C 258.40 180.42 254.32 179.94 253.49 176.45 C 251.60 171.01 252.17 164.41 256.08 159.97 Z" />
<path fill="#f3bf00" opacity="1.00" d=" M 222.38 164.04 C 223.50 159.66 228.02 154.81 232.86 157.32 C 240.54 160.53 241.99 170.37 240.70 177.70 C 239.14 178.43 237.57 179.12 235.97 179.75 C 235.64 176.08 236.31 172.00 234.35 168.69 C 232.56 165.76 227.50 165.81 226.16 169.12 C 223.89 174.36 226.45 181.60 232.09 183.42 C 230.63 184.68 229.20 185.96 227.77 187.26 C 221.30 181.51 220.69 171.98 222.38 164.04 Z" />
<path fill="#f3bf00" opacity="1.00" d=" M 266.36 207.38 C 270.18 205.25 274.03 203.14 278.07 201.46 C 279.81 205.29 280.70 209.47 282.62 213.23 C 285.57 219.16 288.53 225.10 290.81 231.33 C 293.10 237.33 294.19 243.83 297.70 249.32 C 303.58 258.92 308.04 269.67 308.57 281.04 C 308.95 291.53 310.98 302.37 307.34 312.54 C 303.64 312.96 297.46 311.62 296.42 316.52 C 295.76 324.66 296.46 332.87 296.13 341.04 C 295.84 344.08 293.42 346.32 291.43 348.41 C 285.01 354.18 278.21 359.75 270.24 363.24 C 261.75 367.27 252.20 367.89 242.97 368.42 C 236.01 368.33 228.59 366.58 223.43 361.65 C 220.68 359.11 218.59 355.98 216.32 353.03 C 220.15 352.23 224.62 351.51 227.03 348.06 C 229.80 343.87 227.66 337.93 223.63 335.38 C 217.68 331.44 212.73 326.24 206.90 322.14 C 202.48 318.93 197.87 315.79 194.37 311.53 C 192.24 308.84 192.32 305.22 192.34 301.98 C 192.57 292.87 193.43 283.50 197.35 275.15 C 201.03 266.07 206.23 257.62 208.95 248.16 C 211.53 239.45 214.41 230.43 220.68 223.61 C 225.43 218.52 222.81 211.06 223.57 204.87 C 223.87 204.51 224.49 203.79 224.79 203.43 C 230.21 207.18 233.78 213.36 239.99 215.96 C 244.85 217.24 250.18 216.86 254.88 215.08 C 259.30 213.47 262.30 209.61 266.36 207.38 Z" />
</svg>
