<?xml version="1.0" encoding="UTF-8" ?>
<!DOCTYPE svg PUBLIC "-//W3C//DTD SVG 1.1//EN" "http://www.w3.org/Graphics/SVG/1.1/DTD/svg11.dtd">
<svg width="512pt" height="512pt" viewBox="0 0 512 512" version="1.1" xmlns="http://www.w3.org/2000/svg">
<path fill="#164089" opacity="1.00" d=" M 0.00 0.00 L 512.00 0.00 L 512.00 512.00 L 0.00 512.00 L 0.00 0.00 Z" />
<path fill="#ffffff" opacity="1.00" d=" M 177.80 150.70 C 193.52 143.49 210.69 139.04 228.04 139.15 C 245.28 139.32 262.46 145.45 275.70 156.51 C 267.31 185.39 258.93 214.27 250.69 243.20 C 245.50 240.12 240.58 236.58 235.11 233.99 C 227.20 230.25 218.70 227.69 210.02 226.63 C 194.01 225.13 177.83 228.08 162.83 233.65 C 159.56 234.84 156.36 236.24 152.95 236.98 C 161.19 208.20 169.53 179.46 177.80 150.70 Z" />
<path fill="#ffffff" opacity="1.00" d=" M 289.14 165.77 C 300.16 172.84 311.91 179.50 325.05 181.55 C 338.96 184.28 353.31 182.40 366.83 178.63 C 373.36 176.86 379.47 173.55 386.30 172.97 C 384.81 180.62 382.04 187.96 380.24 195.55 C 373.99 216.37 368.03 237.29 362.10 258.21 C 355.18 261.54 347.67 263.35 340.37 265.64 C 324.92 270.29 308.17 270.87 292.53 266.79 C 282.16 264.09 273.07 258.31 263.99 252.87 C 272.16 223.77 280.97 194.86 289.14 165.77 Z" />
<path fill="#ffffff" opacity="1.00" d=" M 152.37 251.66 C 165.28 247.48 178.22 242.28 191.98 242.12 C 198.27 242.11 204.63 241.77 210.83 243.01 C 223.46 245.99 235.18 251.88 245.97 258.99 C 238.30 286.50 229.98 313.83 222.25 341.33 C 221.82 342.92 221.18 344.45 220.45 345.93 C 207.34 336.12 191.41 329.73 174.99 328.87 C 160.74 328.64 146.54 331.45 133.17 336.27 C 130.27 337.15 127.48 339.41 124.32 338.55 C 123.66 335.64 125.35 332.80 125.97 330.00 C 133.07 305.03 140.38 280.11 147.57 255.16 C 147.83 252.73 150.53 252.41 152.37 251.66 Z" />
<path fill="#ffffff" opacity="1.00" d=" M 234.23 355.28 C 242.69 326.26 250.94 297.17 259.71 268.24 C 269.55 275.61 280.74 281.49 292.84 284.02 C 306.85 286.76 321.47 285.85 335.20 282.06 C 342.65 280.45 349.46 276.95 356.64 274.54 C 356.67 275.97 356.47 277.37 356.06 278.74 C 348.12 306.23 340.03 333.67 332.17 361.17 C 322.64 364.95 312.95 368.58 302.81 370.34 C 298.58 371.16 294.29 371.66 290.05 372.47 C 282.40 373.39 274.76 371.99 267.23 370.79 C 255.09 368.52 244.24 362.25 234.23 355.28 Z" />
<path fill="#ffffff" opacity="1.00" d=" M 366.45 333.78 C 374.10 331.71 382.93 335.38 386.38 342.62 C 390.36 350.04 387.80 360.14 380.71 364.71 C 372.64 370.53 359.92 367.38 355.62 358.36 C 350.38 349.09 356.16 336.25 366.45 333.78 Z" />
<path fill="#164089" opacity="1.00" d=" M 366.27 336.16 C 375.27 332.66 386.12 340.37 385.84 349.99 C 386.54 358.19 379.07 365.76 370.93 365.54 C 362.78 365.65 355.45 358.06 356.08 349.88 C 356.10 343.75 360.54 338.10 366.27 336.16 Z" />
<path fill="#ffffff" opacity="1.00" d=" M 364.23 339.36 C 368.73 339.65 374.71 338.02 377.70 342.44 C 380.00 346.13 377.48 350.96 373.38 351.88 C 376.71 353.99 377.56 358.14 379.48 361.34 C 378.51 361.43 376.56 361.60 375.59 361.68 C 373.54 358.20 372.70 352.31 367.53 352.45 C 367.52 355.48 367.54 358.52 367.55 361.55 C 366.44 361.55 365.34 361.56 364.24 361.56 C 364.24 354.16 364.25 346.76 364.23 339.36 Z" />
<path fill="#164089" opacity="1.00" d=" M 367.52 342.29 C 369.85 342.47 372.51 342.08 374.44 343.74 C 375.05 345.14 375.08 346.77 374.45 348.18 C 372.67 350.12 369.84 349.45 367.51 349.71 C 367.52 347.23 367.52 344.76 367.52 342.29 Z" />
</svg>
