<?xml version="1.0" encoding="UTF-8" ?>
<!DOCTYPE svg PUBLIC "-//W3C//DTD SVG 1.1//EN" "http://www.w3.org/Graphics/SVG/1.1/DTD/svg11.dtd">
<svg width="512pt" height="512pt" viewBox="0 0 512 512" version="1.1" xmlns="http://www.w3.org/2000/svg">
<path fill="#00a8ec" opacity="1.00" d=" M 0.00 0.00 L 512.00 0.00 L 512.00 512.00 L 0.00 512.00 L 0.00 0.00 Z" />
<path fill="#ffffff" opacity="1.00" d=" M 248.53 134.78 C 260.79 132.57 273.69 133.99 285.07 139.07 C 300.39 145.72 312.88 158.68 318.78 174.31 C 326.17 192.51 324.11 214.08 313.79 230.75 C 304.38 246.37 287.90 257.54 269.86 260.31 C 243.46 265.11 215.28 250.36 203.54 226.36 C 195.00 209.90 194.33 189.62 201.67 172.61 C 209.65 153.19 227.89 138.52 248.53 134.78 Z" />
<path fill="#ffffff" opacity="1.00" d=" M 213.11 293.92 C 237.61 291.46 262.35 290.93 286.90 292.99 C 313.81 295.15 341.06 299.29 366.02 310.03 C 376.55 314.96 388.69 321.57 391.30 333.97 C 391.58 348.74 391.24 363.53 391.47 378.31 C 300.85 378.31 210.23 378.31 119.61 378.30 C 119.79 363.14 119.45 347.97 119.78 332.81 C 122.66 321.46 133.85 315.28 143.64 310.56 C 165.52 300.75 189.42 296.55 213.11 293.92 Z" />
</svg>
