<?xml version="1.0" encoding="UTF-8" ?>
<!DOCTYPE svg PUBLIC "-//W3C//DTD SVG 1.1//EN" "http://www.w3.org/Graphics/SVG/1.1/DTD/svg11.dtd">
<svg width="512pt" height="512pt" viewBox="0 0 512 512" version="1.1" xmlns="http://www.w3.org/2000/svg">
<path fill="#00a8ec" opacity="1.00" d=" M 0.00 0.00 L 512.00 0.00 L 512.00 512.00 L 0.00 512.00 L 0.00 0.00 Z" />
<path fill="#ffffff" opacity="1.00" d=" M 112.47 150.67 C 115.61 150.20 118.81 150.50 121.98 150.45 C 213.69 150.46 305.39 150.44 397.10 150.46 C 399.24 150.13 400.73 151.79 402.27 152.96 C 402.32 221.46 402.14 289.97 402.36 358.48 C 399.84 361.80 395.52 360.75 391.92 360.87 C 299.25 360.83 206.57 360.88 113.90 360.85 C 111.91 361.09 110.09 359.70 109.38 357.92 C 108.98 354.62 109.25 351.28 109.20 347.96 C 109.20 283.96 109.20 219.96 109.20 155.96 C 108.80 153.58 110.52 151.70 112.47 150.67 Z" />
<path fill="#00a8ec" opacity="1.00" d=" M 117.35 320.03 C 117.39 266.21 117.36 212.39 117.36 158.57 C 209.69 158.60 302.02 158.58 394.36 158.58 C 394.32 223.46 394.36 288.33 394.38 353.20 C 378.26 353.57 362.13 352.46 346.01 353.06 C 336.34 352.56 326.67 353.49 317.00 352.89 C 287.01 353.42 257.01 352.62 227.01 353.12 C 195.67 352.75 164.33 353.32 132.99 352.83 C 127.59 352.71 122.16 353.62 116.80 352.61 C 117.06 341.75 116.47 330.87 117.35 320.03 Z" />
<path fill="#ffffff" opacity="1.00" d=" M 130.42 172.13 C 190.22 172.16 250.02 172.16 309.82 172.13 C 309.82 181.77 309.76 191.41 309.86 201.05 C 292.50 215.38 275.10 229.66 257.70 243.94 C 262.15 248.28 266.43 252.79 270.90 257.10 C 283.73 241.38 296.96 225.98 309.80 210.26 C 309.84 239.71 309.76 269.15 309.84 298.59 C 250.03 298.59 190.22 298.58 130.41 298.60 C 130.49 265.63 130.38 232.65 130.46 199.68 C 132.11 200.89 134.04 201.84 135.30 203.49 C 138.65 210.61 141.45 217.99 145.18 224.93 C 147.40 229.48 149.41 234.35 153.12 237.91 C 159.43 244.53 165.39 251.79 173.43 256.38 C 176.16 257.30 179.11 257.23 181.96 257.29 C 186.65 257.74 190.19 252.41 194.91 253.99 C 198.45 256.30 202.48 257.71 206.02 259.99 C 209.89 263.85 212.01 269.24 216.43 272.60 C 219.50 274.99 222.98 276.78 226.41 278.61 C 228.46 279.67 231.00 280.26 233.20 279.27 C 241.30 275.82 249.28 272.09 257.40 268.65 C 253.84 264.43 249.69 260.77 245.93 256.74 C 243.23 262.49 240.93 268.44 237.93 274.05 C 235.73 276.51 232.47 279.27 228.93 278.07 C 225.64 276.92 222.74 274.91 219.73 273.21 C 214.26 270.02 211.54 264.06 207.56 259.41 C 205.00 257.09 201.51 256.26 198.62 254.44 C 196.84 253.48 195.12 251.86 192.93 252.28 C 188.90 252.15 186.06 256.05 182.02 255.74 C 179.14 255.56 175.97 256.05 173.35 254.60 C 164.96 249.54 158.77 241.72 152.15 234.65 C 145.70 224.55 141.49 213.22 136.35 202.45 C 134.69 200.56 132.24 199.57 130.55 197.72 C 130.23 189.20 130.55 180.66 130.42 172.13 Z" />
<path fill="#ffffff" opacity="1.00" d=" M 312.12 212.57 C 335.91 212.55 359.69 212.58 383.48 212.55 C 383.46 245.32 383.45 278.09 383.49 310.86 C 339.05 310.82 294.62 310.85 250.19 310.85 C 250.21 307.48 250.21 304.11 250.21 300.75 C 270.86 300.62 291.53 301.03 312.18 300.54 C 312.09 271.22 312.20 241.89 312.12 212.57 Z" />
<path fill="#00a8ec" opacity="1.00" d=" M 246.75 255.10 C 250.02 251.92 253.24 248.70 256.41 245.43 C 260.69 249.65 264.88 253.97 269.21 258.14 C 266.11 261.48 262.83 264.65 259.65 267.91 C 255.30 263.69 251.07 259.35 246.75 255.10 Z" />
<path fill="#ffffff" opacity="1.00" d=" M 118.44 324.12 C 122.12 324.14 125.80 324.15 129.47 324.08 C 124.66 326.29 120.49 330.48 119.87 335.94 C 118.71 342.40 122.73 348.57 128.34 351.50 C 125.03 351.47 121.73 351.46 118.43 351.46 C 118.44 342.35 118.42 333.23 118.44 324.12 Z" />
<path fill="#ffffff" opacity="1.00" d=" M 139.03 324.09 C 219.50 324.16 299.97 324.19 380.43 324.08 C 379.85 333.19 380.29 342.33 380.18 351.46 C 300.19 351.54 220.20 351.34 140.21 351.56 C 145.45 348.74 149.42 343.13 148.72 337.00 C 148.60 331.10 144.16 326.39 139.03 324.09 Z" />
<path fill="#ffffff" opacity="1.00" d=" M 131.42 328.67 C 136.97 326.82 143.60 331.00 143.88 336.94 C 144.76 342.23 140.38 347.54 135.05 347.74 C 130.26 348.29 125.54 344.72 124.66 340.01 C 123.57 335.21 126.70 330.00 131.42 328.67 Z" />
<path fill="#ffffff" opacity="1.00" d=" M 384.81 328.24 C 386.46 328.22 388.12 328.21 389.79 328.20 C 389.77 334.98 389.76 341.76 389.79 348.55 C 388.12 348.53 386.46 348.51 384.80 348.50 C 384.84 341.75 384.83 334.99 384.81 328.24 Z" />
</svg>
