<?xml version="1.0" encoding="UTF-8" ?>
<!DOCTYPE svg PUBLIC "-//W3C//DTD SVG 1.1//EN" "http://www.w3.org/Graphics/SVG/1.1/DTD/svg11.dtd">
<svg width="512pt" height="512pt" viewBox="0 0 512 512" version="1.1" xmlns="http://www.w3.org/2000/svg">
<path fill="#ce2b2b" opacity="1.00" d=" M 0.00 0.00 L 512.00 0.00 L 512.00 512.00 L 0.00 512.00 L 0.00 0.00 Z" />
<path fill="#ffffff" opacity="1.00" d=" M 196.09 129.99 C 197.51 128.16 200.00 128.34 202.05 128.60 C 204.83 129.47 205.89 132.40 207.26 134.67 C 213.35 145.26 219.50 155.82 225.63 166.39 C 226.53 168.59 229.86 169.45 230.98 166.97 C 238.01 155.02 244.86 142.95 251.91 131.01 C 253.89 127.44 259.84 127.61 261.61 131.29 C 268.53 143.12 275.37 155.01 282.24 166.86 C 283.30 169.32 286.66 168.76 287.62 166.53 C 294.52 154.76 301.27 142.89 308.16 131.11 C 309.89 127.90 315.50 127.27 317.52 130.46 C 327.06 148.64 334.42 168.39 335.57 189.06 C 335.80 198.40 336.45 207.98 333.62 217.03 C 328.25 236.44 315.12 253.81 297.36 263.48 C 291.33 266.51 284.83 268.87 278.08 269.58 C 275.63 269.97 272.76 269.07 270.66 270.74 C 269.72 271.96 269.67 273.54 269.71 275.02 C 269.79 300.09 269.67 325.17 269.77 350.24 C 303.04 315.00 336.84 280.25 371.00 245.88 C 373.60 242.93 379.16 244.10 379.57 248.28 C 379.74 268.51 379.60 288.76 379.64 308.99 C 378.59 326.97 371.03 344.52 358.65 357.61 C 344.26 373.28 323.26 382.51 302.01 382.74 C 282.53 382.75 263.05 382.71 243.57 382.77 C 243.55 346.22 243.60 309.67 243.54 273.12 C 243.69 269.06 238.68 269.74 235.97 269.62 C 219.94 268.07 205.55 258.65 195.34 246.53 C 183.32 232.32 176.19 213.67 177.47 194.95 C 177.71 172.07 185.38 149.97 196.09 129.99 Z" />
<path fill="#ffffff" opacity="1.00" d=" M 135.43 244.58 C 137.66 243.84 140.22 244.37 141.87 246.07 C 173.19 278.22 204.82 310.06 236.27 342.09 C 236.30 355.65 236.12 369.21 235.76 382.77 C 221.78 382.33 207.57 383.98 193.82 380.69 C 172.42 375.83 153.33 361.53 142.76 342.27 C 136.34 330.95 133.14 318.00 132.73 305.04 C 132.76 287.04 132.64 269.05 132.62 251.05 C 132.49 248.62 133.40 246.04 135.43 244.58 Z" />
</svg>
