<?xml version="1.0" encoding="UTF-8" ?>
<!DOCTYPE svg PUBLIC "-//W3C//DTD SVG 1.1//EN" "http://www.w3.org/Graphics/SVG/1.1/DTD/svg11.dtd">
<svg width="512pt" height="512pt" viewBox="0 0 512 512" version="1.1" xmlns="http://www.w3.org/2000/svg">
<path fill="#00aeef" opacity="1.00" d=" M 0.00 0.00 L 512.00 0.00 L 512.00 512.00 L 0.00 512.00 L 0.00 0.00 Z" />
<path fill="#ffffff" opacity="1.00" d=" M 106.13 153.19 C 206.64 153.18 307.15 153.21 407.67 153.17 C 407.67 205.58 407.63 258.00 407.69 310.41 C 359.91 310.41 312.13 310.39 264.34 310.42 C 264.35 310.98 264.37 312.10 264.38 312.66 C 275.24 317.47 286.17 322.15 297.01 327.00 C 299.21 327.73 299.37 330.24 299.42 332.20 C 297.98 332.69 296.52 333.29 294.97 333.21 C 269.29 333.13 243.61 333.21 217.93 333.17 C 214.50 333.74 213.39 328.62 216.34 327.30 C 227.33 322.20 238.56 317.58 249.60 312.59 C 249.59 312.04 249.56 310.95 249.54 310.40 C 201.73 310.41 153.92 310.41 106.11 310.40 C 106.17 257.99 106.14 205.59 106.13 153.19 Z" />
<path fill="#00aeef" opacity="1.00" d=" M 114.46 301.90 C 114.47 255.11 114.48 208.31 114.46 161.51 C 209.45 161.54 304.45 161.52 399.45 161.53 C 399.41 208.32 399.44 255.11 399.43 301.90 C 304.44 301.90 209.46 301.87 114.46 301.90 Z" />
<path fill="#ffffff" opacity="1.00" d=" M 241.42 202.63 C 247.78 200.37 255.28 205.20 255.56 211.97 C 256.34 218.69 249.52 224.80 242.92 223.30 C 236.76 222.33 232.59 215.33 234.74 209.45 C 235.80 206.34 238.33 203.75 241.42 202.63 Z" />
<path fill="#ffffff" opacity="1.00" d=" M 264.62 202.79 C 269.79 200.86 276.22 203.16 278.34 208.42 C 281.52 214.60 276.73 222.76 269.94 223.40 C 263.12 224.54 256.61 217.68 257.99 210.95 C 258.71 207.36 261.23 204.20 264.62 202.79 Z" />
<path fill="#ffffff" opacity="1.00" d=" M 286.69 235.92 C 292.04 231.29 297.27 226.53 302.42 221.66 C 302.43 234.94 302.39 248.22 302.44 261.50 C 298.49 257.81 294.36 254.31 290.50 250.53 C 289.22 249.27 287.85 248.05 286.15 247.41 C 286.20 252.09 286.18 256.77 286.19 261.45 C 266.61 261.53 247.02 261.46 227.44 261.49 C 227.46 249.43 227.50 237.37 227.43 225.31 C 247.03 225.35 266.62 225.23 286.22 225.36 C 286.28 228.88 285.77 232.47 286.69 235.92 Z" />
<path fill="#ffffff" opacity="1.00" d=" M 218.72 227.18 C 220.99 227.18 223.27 227.17 225.55 227.16 C 225.53 232.25 225.54 237.34 225.54 242.42 C 223.26 242.41 220.99 242.40 218.72 242.39 C 218.74 237.32 218.74 232.25 218.72 227.18 Z" />
<path fill="#ffffff" opacity="1.00" d=" M 106.12 342.55 C 206.64 342.54 307.16 342.57 407.68 342.54 C 407.65 348.06 407.67 353.57 407.65 359.09 C 307.15 359.10 206.66 359.09 106.16 359.10 C 106.12 353.58 106.16 348.07 106.12 342.55 Z" />
</svg>
