<?xml version="1.0" encoding="UTF-8" ?>
<!DOCTYPE svg PUBLIC "-//W3C//DTD SVG 1.1//EN" "http://www.w3.org/Graphics/SVG/1.1/DTD/svg11.dtd">
<svg width="512pt" height="512pt" viewBox="0 0 512 512" version="1.1" xmlns="http://www.w3.org/2000/svg">
<path fill="#0e5d30" opacity="1.00" d=" M 0.00 0.00 L 512.00 0.00 L 512.00 512.00 L 0.00 512.00 L 0.00 0.00 Z" />
<path fill="#ffffff" opacity="1.00" d=" M 107.47 107.52 C 206.49 107.48 305.51 107.49 404.53 107.52 C 404.49 206.50 404.47 305.49 404.54 404.48 C 305.51 404.51 206.49 404.52 107.47 404.48 C 107.52 305.49 107.51 206.50 107.47 107.52 Z" />
<path fill="#0e5d30" opacity="1.00" d=" M 111.21 111.22 C 207.73 111.22 304.25 111.23 400.77 111.21 C 400.78 207.73 400.76 304.26 400.78 400.78 C 389.63 400.79 378.48 400.75 367.33 400.80 C 366.50 379.42 362.61 357.88 353.48 338.41 C 348.67 328.22 342.35 318.62 334.14 310.84 C 331.09 308.17 327.98 305.24 324.00 304.11 C 319.69 303.40 316.18 306.61 313.27 309.30 C 305.25 316.08 296.42 322.52 286.08 325.13 C 279.59 326.75 272.88 325.13 266.66 323.18 C 250.27 317.62 235.66 307.90 219.23 302.44 C 208.96 298.87 197.31 300.61 188.01 306.04 C 173.27 314.86 164.14 330.34 157.80 345.85 C 151.04 363.33 146.51 381.94 146.33 400.75 C 134.63 400.81 122.92 400.77 111.21 400.77 C 111.23 304.25 111.23 207.74 111.21 111.22 Z" />
<path fill="#ffffff" opacity="1.00" d=" M 262.99 163.93 C 279.60 162.40 296.37 169.20 308.09 180.89 C 328.20 200.22 334.39 232.12 323.76 257.78 C 317.99 272.02 306.89 284.38 292.58 290.35 C 277.79 296.86 260.16 295.88 245.89 288.43 C 230.45 280.54 218.89 265.98 213.66 249.55 C 205.63 225.44 211.25 196.55 230.01 178.88 C 238.89 170.35 250.72 165.00 262.99 163.93 Z" />
</svg>
