<?xml version="1.0" encoding="UTF-8" ?>
<!DOCTYPE svg PUBLIC "-//W3C//DTD SVG 1.1//EN" "http://www.w3.org/Graphics/SVG/1.1/DTD/svg11.dtd">
<svg width="512pt" height="512pt" viewBox="0 0 512 512" version="1.1" xmlns="http://www.w3.org/2000/svg">
<path fill="#0e5d30" opacity="1.00" d=" M 0.00 0.00 L 512.00 0.00 L 512.00 512.00 L 0.00 512.00 L 0.00 0.00 Z" />
<path fill="#ffffff" opacity="1.00" d=" M 263.01 163.93 C 278.67 162.49 294.47 168.47 306.05 178.94 C 327.23 197.68 334.52 229.87 324.41 256.13 C 318.90 270.87 307.76 283.79 293.20 290.08 C 280.46 295.87 265.50 296.10 252.43 291.31 C 236.80 285.59 224.10 273.12 217.07 258.15 C 205.60 234.36 208.27 203.83 225.60 183.51 C 234.90 172.44 248.57 165.12 263.01 163.93 Z" />
<path fill="#ffffff" opacity="1.00" d=" M 186.76 306.80 C 196.09 300.91 208.05 298.75 218.66 302.27 C 235.06 307.57 249.61 317.25 265.88 322.92 C 272.38 325.04 279.41 326.82 286.22 325.09 C 296.53 322.45 305.33 316.02 313.34 309.25 C 316.22 306.56 319.72 303.40 323.99 304.11 C 328.20 305.32 331.46 308.48 334.66 311.32 C 347.88 324.20 356.08 341.36 361.07 358.93 C 365.51 373.72 366.54 389.18 367.89 404.48 C 293.82 404.53 219.74 404.50 145.66 404.49 C 146.07 400.62 146.55 396.77 146.53 392.88 C 148.31 375.00 152.62 357.30 159.93 340.86 C 165.94 327.62 174.29 314.75 186.76 306.80 Z" />
</svg>
