<?xml version="1.0" encoding="UTF-8" ?>
<!DOCTYPE svg PUBLIC "-//W3C//DTD SVG 1.1//EN" "http://www.w3.org/Graphics/SVG/1.1/DTD/svg11.dtd">
<svg width="512pt" height="512pt" viewBox="0 0 512 512" version="1.1" xmlns="http://www.w3.org/2000/svg">
<path fill="#04aeda" opacity="1.00" d=" M 0.00 0.00 L 512.00 0.00 L 512.00 512.00 L 0.00 512.00 L 0.00 0.00 Z" />
<path fill="#ffffff" opacity="1.00" d=" M 270.56 145.44 C 310.73 145.57 350.91 145.30 391.09 145.58 C 393.29 155.30 395.92 164.93 398.44 174.58 C 353.32 174.62 308.20 174.61 263.08 174.59 C 265.58 164.88 268.01 155.14 270.56 145.44 Z" />
<path fill="#ffffff" opacity="1.00" d=" M 101.41 184.58 C 103.52 183.85 105.78 183.65 108.01 183.63 C 206.99 183.66 305.98 183.62 404.96 183.65 C 410.79 183.46 416.53 186.76 419.18 191.96 C 420.95 195.03 420.43 198.68 420.52 202.07 C 420.49 252.06 420.49 302.05 420.52 352.05 C 421.12 359.86 413.73 366.95 406.02 366.61 C 306.03 366.60 206.03 366.60 106.04 366.61 C 100.45 366.83 95.20 363.18 92.78 358.25 C 91.13 355.11 91.58 351.46 91.50 348.05 C 91.55 298.04 91.49 248.03 91.53 198.02 C 91.34 191.97 95.86 186.54 101.41 184.58 Z" />
<path fill="#04aeda" opacity="1.00" d=" M 197.22 206.24 C 265.80 205.86 334.41 206.22 403.01 206.06 C 405.17 206.16 407.78 205.77 409.43 207.54 C 411.00 208.88 410.92 211.07 410.94 212.95 C 410.85 259.33 410.99 305.73 410.87 352.11 C 410.97 355.15 407.91 357.36 405.02 356.92 C 336.33 356.91 267.64 356.91 198.95 356.92 C 195.56 357.48 192.60 354.36 193.08 351.02 C 193.09 304.65 193.08 258.27 193.09 211.90 C 192.83 209.33 194.50 206.52 197.22 206.24 Z" />
<path fill="#ffffff" opacity="1.00" d=" M 247.21 219.30 C 283.46 219.05 319.72 219.25 355.97 219.20 C 359.91 218.59 364.06 221.80 363.62 225.95 C 363.61 262.97 363.60 299.99 363.62 337.01 C 364.05 340.68 360.73 344.11 357.05 343.78 C 320.67 343.82 284.29 343.83 247.92 343.77 C 245.13 343.99 242.51 342.09 241.62 339.49 C 241.06 336.35 241.44 333.14 241.37 329.98 C 241.36 295.32 241.39 260.65 241.35 225.99 C 241.03 222.64 243.84 219.38 247.21 219.30 Z" />
<path fill="#ffffff" opacity="1.00" d=" M 207.34 222.58 C 213.15 221.50 219.15 222.43 225.03 222.25 C 227.10 221.97 228.61 224.10 228.51 226.00 C 228.55 230.68 228.66 235.36 228.44 240.03 C 228.40 242.20 226.08 243.60 224.08 243.41 C 219.38 243.46 214.69 243.44 210.00 243.42 C 207.99 243.65 205.75 242.14 205.72 240.02 C 205.52 235.30 205.59 230.57 205.67 225.85 C 205.57 224.55 206.35 223.34 207.34 222.58 Z" />
<path fill="#ffffff" opacity="1.00" d=" M 375.89 225.05 C 376.90 220.48 382.70 222.73 386.00 222.10 C 389.54 222.28 393.11 221.99 396.64 222.40 C 397.85 223.13 398.67 224.45 398.54 225.89 C 398.61 230.56 398.64 235.24 398.52 239.92 C 398.67 241.82 396.79 243.42 394.98 243.38 C 389.97 243.49 384.95 243.45 379.93 243.41 C 377.52 243.69 375.51 241.43 375.75 239.09 C 375.72 234.41 375.50 229.71 375.89 225.05 Z" />
<path fill="#ffffff" opacity="1.00" d=" M 208.23 255.39 C 213.83 255.12 219.46 255.26 225.07 255.32 C 227.13 255.09 228.61 257.23 228.51 259.12 C 228.56 263.71 228.61 268.32 228.48 272.91 C 228.47 274.71 226.90 276.55 225.02 276.44 C 219.69 276.53 214.35 276.55 209.02 276.43 C 207.24 276.46 205.66 274.71 205.70 272.97 C 205.54 268.28 205.57 263.58 205.68 258.89 C 205.65 257.42 206.67 255.58 208.23 255.39 Z" />
<path fill="#ffffff" opacity="1.00" d=" M 375.79 258.97 C 375.81 257.20 377.03 255.12 379.03 255.32 C 384.37 255.20 389.71 255.25 395.05 255.29 C 397.01 255.05 398.67 257.00 398.54 258.88 C 398.61 263.55 398.62 268.24 398.54 272.92 C 398.71 274.53 397.23 275.45 396.35 276.55 C 390.55 276.32 384.75 276.68 378.97 276.40 C 376.85 276.25 375.54 274.00 375.74 272.03 C 375.68 267.68 375.61 263.32 375.79 258.97 Z" />
<path fill="#ffffff" opacity="1.00" d=" M 205.80 291.95 C 205.64 289.74 206.12 286.15 209.06 286.31 C 214.36 286.13 219.67 286.18 224.96 286.28 C 227.04 286.00 228.63 288.08 228.51 290.03 C 228.59 294.36 228.58 298.69 228.51 303.03 C 228.78 305.48 226.48 307.56 224.08 307.25 C 218.31 307.02 212.39 308.00 206.76 306.46 C 205.11 301.79 206.04 296.78 205.80 291.95 Z" />
<path fill="#ffffff" opacity="1.00" d=" M 378.30 286.42 C 383.85 286.00 389.45 286.26 395.02 286.26 C 396.76 286.04 398.64 287.14 398.69 289.03 C 398.90 294.00 398.86 299.00 398.72 303.97 C 398.82 306.45 396.07 307.40 394.02 307.27 C 389.05 307.20 384.06 307.47 379.10 307.11 C 374.46 306.14 376.57 300.36 376.10 297.04 C 376.69 293.65 374.47 288.25 378.30 286.42 Z" />
<path fill="#ffffff" opacity="1.00" d=" M 207.32 319.35 C 210.93 317.79 215.12 318.97 218.96 318.60 C 222.09 318.84 226.67 317.51 228.28 321.14 C 228.86 325.05 228.40 329.03 228.56 332.97 C 228.46 335.18 229.03 338.18 226.72 339.48 C 222.29 341.12 217.53 339.35 212.96 340.03 C 210.39 340.12 206.48 340.45 205.76 337.20 C 205.43 333.13 205.70 329.04 205.60 324.96 C 205.67 323.02 205.36 320.50 207.32 319.35 Z" />
<path fill="#ffffff" opacity="1.00" d=" M 377.39 319.38 C 380.94 317.78 385.18 318.97 389.00 318.60 C 392.09 318.87 396.40 317.54 398.30 320.79 C 398.93 325.52 398.42 330.34 398.59 335.11 C 398.75 336.93 398.21 339.64 395.93 339.73 C 390.30 339.83 384.66 340.02 379.03 339.78 C 376.93 340.01 375.69 337.84 375.77 335.99 C 375.60 332.32 375.74 328.64 375.69 324.96 C 375.73 323.03 375.53 320.59 377.39 319.38 Z" />
</svg>
