<?xml version="1.0" encoding="UTF-8" ?>
<!DOCTYPE svg PUBLIC "-//W3C//DTD SVG 1.1//EN" "http://www.w3.org/Graphics/SVG/1.1/DTD/svg11.dtd">
<svg width="512pt" height="512pt" viewBox="0 0 512 512" version="1.1" xmlns="http://www.w3.org/2000/svg">
<path fill="#04aeda" opacity="1.00" d=" M 0.00 0.00 L 512.00 0.00 L 512.00 512.00 L 0.00 512.00 L 0.00 0.00 Z" />
<path fill="#ffffff" opacity="1.00" d=" M 270.48 145.34 C 310.69 145.39 350.91 145.24 391.12 145.42 C 393.46 155.19 395.97 164.92 398.56 174.63 C 353.37 174.74 308.19 174.70 263.01 174.65 C 265.43 164.86 267.92 155.10 270.48 145.34 Z" />
<path fill="#ffffff" opacity="1.00" d=" M 101.35 184.47 C 103.47 183.70 105.75 183.55 107.99 183.53 C 204.98 183.56 301.98 183.54 398.97 183.54 C 403.33 183.63 407.95 183.02 412.01 184.98 C 416.90 187.27 420.97 192.30 420.59 197.92 C 420.57 249.62 420.58 301.32 420.58 353.02 C 420.73 360.54 413.44 367.09 406.04 366.69 C 305.70 366.64 205.36 366.69 105.02 366.66 C 97.88 366.51 91.33 360.00 91.43 352.80 C 91.41 301.20 91.43 249.61 91.42 198.02 C 91.20 191.92 95.77 186.45 101.35 184.47 Z" />
<path fill="#04aeda" opacity="1.00" d=" M 266.47 203.40 C 274.58 199.78 283.13 196.87 292.00 195.97 C 301.39 195.53 311.11 195.29 320.00 198.85 C 325.86 201.00 331.43 203.98 336.42 207.72 C 330.08 228.35 324.30 249.16 318.17 269.86 C 307.69 262.43 294.99 257.77 282.03 258.17 C 270.39 257.99 259.10 261.58 248.52 266.16 C 254.41 245.21 260.32 224.26 266.47 203.40 Z" />
<path fill="#04aeda" opacity="1.00" d=" M 326.35 275.45 C 332.60 254.75 338.17 233.83 344.48 213.15 C 351.75 218.78 360.04 223.52 369.27 224.86 C 384.51 227.27 399.74 223.01 414.10 218.24 C 407.89 239.21 402.02 260.28 395.48 281.15 C 381.89 285.80 367.45 289.71 352.98 287.84 C 343.04 286.71 333.99 281.69 326.35 275.45 Z" />
<path fill="#04aeda" opacity="1.00" d=" M 245.74 276.08 C 259.98 269.77 275.98 266.20 291.47 269.42 C 300.13 271.17 308.26 275.00 315.47 280.06 C 309.35 300.65 303.37 321.27 297.30 341.86 C 288.20 335.14 277.37 330.70 266.05 329.82 C 252.87 328.72 239.85 332.46 227.86 337.63 C 233.73 317.09 239.63 296.56 245.74 276.08 Z" />
<path fill="#04aeda" opacity="1.00" d=" M 306.03 348.02 C 311.91 327.30 317.77 306.58 323.73 285.89 C 330.49 290.94 337.81 295.65 346.21 297.31 C 361.90 300.58 377.86 296.21 392.67 291.16 C 386.57 311.80 380.61 332.48 374.40 353.09 C 359.75 358.04 344.00 362.29 328.50 359.18 C 320.12 357.62 312.77 353.01 306.03 348.02 Z" />
</svg>
