<?xml version="1.0" encoding="UTF-8" ?>
<!DOCTYPE svg PUBLIC "-//W3C//DTD SVG 1.1//EN" "http://www.w3.org/Graphics/SVG/1.1/DTD/svg11.dtd">
<svg width="512pt" height="512pt" viewBox="0 0 512 512" version="1.1" xmlns="http://www.w3.org/2000/svg">
<path fill="#ff9900" opacity="1.00" d=" M 0.00 0.00 L 512.00 0.00 L 512.00 512.00 L 0.00 512.00 L 0.00 0.00 Z" />
<path fill="#ffffff" opacity="1.00" d=" M 77.84 229.77 C 81.27 222.96 90.00 221.36 96.86 222.71 C 101.04 223.56 105.24 226.50 105.95 230.95 C 106.86 237.55 105.86 244.26 106.47 250.89 C 106.79 253.03 108.45 254.62 109.57 256.38 C 107.53 258.51 105.45 260.68 102.94 262.27 C 100.48 262.11 99.34 259.18 97.77 257.58 C 93.40 262.38 85.78 264.30 80.03 260.91 C 73.95 256.81 74.13 247.13 79.43 242.45 C 84.05 238.19 90.74 238.52 96.55 237.55 C 96.44 234.75 96.52 230.64 92.99 229.97 C 89.19 228.72 86.07 232.01 85.13 235.38 C 82.55 235.12 79.94 234.93 77.41 234.37 C 75.71 233.17 77.39 231.22 77.84 229.77 Z" />
<path fill="#ffffff" opacity="1.00" d=" M 174.25 225.16 C 178.88 222.10 184.88 221.68 190.18 222.95 C 194.27 223.94 198.10 227.16 198.45 231.58 C 198.94 237.36 198.46 243.18 198.66 248.98 C 198.58 251.97 200.65 254.36 201.92 256.90 C 199.54 258.80 197.24 260.79 194.91 262.76 C 193.15 261.20 191.55 259.46 190.11 257.59 C 187.36 260.28 183.94 262.59 179.94 262.54 C 175.44 263.03 170.38 260.90 168.78 256.41 C 167.46 251.77 167.82 246.04 171.63 242.63 C 176.26 238.29 182.99 238.49 188.87 237.57 C 188.72 234.91 189.08 231.22 185.95 230.13 C 181.92 228.37 178.52 231.93 177.36 235.47 C 174.63 235.08 171.90 234.72 169.17 234.39 C 169.23 230.70 171.16 227.18 174.25 225.16 Z" />
<path fill="#ffffff" opacity="1.00" d=" M 114.54 223.54 C 117.54 223.40 120.54 223.39 123.54 223.58 C 123.56 225.43 123.58 227.29 123.59 229.14 C 125.50 225.65 128.66 222.27 133.02 222.58 C 137.23 222.26 140.47 225.55 142.12 229.09 C 143.53 226.67 145.28 224.20 148.09 223.32 C 153.96 220.64 162.06 225.16 161.71 231.93 C 161.66 242.01 162.12 252.14 161.42 262.21 C 158.47 262.16 155.53 262.16 152.58 262.20 C 151.38 252.40 153.46 242.35 151.41 232.66 C 148.69 231.12 144.76 231.43 143.63 234.77 C 141.74 243.81 143.85 253.18 142.43 262.24 C 139.38 262.26 136.32 262.21 133.31 261.70 C 133.38 254.11 133.30 246.53 133.37 238.94 C 133.43 236.81 132.85 234.75 132.31 232.71 C 129.44 230.65 124.98 231.67 124.51 235.52 C 123.62 243.98 124.55 252.53 124.05 261.01 C 121.67 263.47 117.46 261.84 114.40 261.65 C 114.58 248.95 114.30 236.24 114.54 223.54 Z" />
<path fill="#ffffff" opacity="1.00" d=" M 207.42 223.42 C 216.02 223.44 224.66 223.03 233.25 223.65 C 233.18 226.40 233.63 229.46 231.73 231.75 C 227.57 237.60 223.59 243.59 219.25 249.31 C 223.31 249.44 227.47 249.82 231.19 251.59 C 235.30 252.83 233.28 257.90 233.63 261.04 C 228.48 259.63 223.40 257.49 217.93 258.18 C 213.65 257.96 209.97 260.85 205.74 260.65 C 205.98 257.20 205.15 253.30 207.31 250.30 C 211.74 243.92 216.19 237.54 220.69 231.20 C 216.22 231.18 211.73 231.54 207.29 230.83 C 207.29 228.36 207.33 225.89 207.42 223.42 Z" />
<path fill="#ffffff" opacity="1.00" d=" M 247.47 223.66 C 253.18 221.28 260.30 222.93 264.30 227.68 C 270.76 236.06 270.99 249.10 264.44 257.51 C 259.25 264.11 248.21 264.65 242.49 258.46 C 237.48 253.00 236.58 245.02 237.52 237.95 C 238.33 232.01 241.64 225.92 247.47 223.66 Z" />
<path fill="#ffffff" opacity="1.00" d=" M 274.50 223.55 C 277.50 223.38 280.52 223.39 283.53 223.61 C 283.55 225.74 283.58 227.88 283.61 230.02 C 285.22 226.21 288.35 222.37 292.90 222.59 C 298.54 222.07 303.19 227.06 303.19 232.53 C 303.53 242.38 303.48 252.27 303.21 262.12 C 300.00 262.18 296.72 262.48 293.60 261.58 C 293.69 253.43 293.73 245.28 293.62 237.13 C 293.69 234.77 292.62 232.07 290.07 231.52 C 286.74 231.02 284.60 234.41 284.41 237.33 C 283.80 245.21 284.51 253.13 284.08 261.01 C 281.68 263.48 277.45 261.86 274.37 261.64 C 274.54 248.94 274.29 236.24 274.50 223.55 Z" />
<path fill="#ffffff" opacity="1.00" d=" M 320.19 227.16 C 324.08 221.93 332.18 220.80 337.40 224.64 C 341.26 227.32 342.69 232.09 343.66 236.45 C 341.91 236.62 340.12 237.04 338.39 236.57 C 337.19 233.67 336.56 230.13 333.62 228.41 C 330.20 226.07 325.44 228.23 323.84 231.77 C 321.12 237.39 321.06 244.02 322.53 250.00 C 323.21 252.94 324.81 255.95 327.66 257.29 C 329.82 258.09 332.42 257.73 334.18 256.21 C 336.62 254.32 337.06 251.07 338.40 248.47 C 340.13 248.24 341.89 248.44 343.64 248.56 C 342.74 252.75 341.36 257.15 337.99 260.03 C 334.39 263.26 328.84 263.55 324.53 261.72 C 319.27 259.20 316.87 253.32 315.95 247.89 C 314.89 240.81 315.87 233.04 320.19 227.16 Z" />
<path fill="#ffffff" opacity="1.00" d=" M 356.37 223.60 C 360.96 221.58 366.84 221.94 370.69 225.35 C 374.94 228.93 376.71 234.58 377.27 239.93 C 377.79 246.74 376.27 254.32 371.15 259.20 C 365.60 264.65 355.03 264.02 350.77 257.27 C 346.52 250.70 345.77 242.19 347.76 234.72 C 348.93 230.06 351.93 225.66 356.37 223.60 Z" />
<path fill="#ffffff" opacity="1.00" d=" M 381.41 223.40 C 383.05 223.46 384.69 223.53 386.33 223.62 C 386.36 225.63 386.39 227.63 386.41 229.65 C 388.50 225.72 392.14 221.78 397.04 222.41 C 401.56 222.51 404.29 226.65 405.91 230.37 C 407.66 226.29 411.25 222.41 415.99 222.39 C 421.95 221.96 426.51 227.81 426.54 233.40 C 426.84 242.83 426.55 252.27 426.69 261.70 C 424.97 261.93 423.24 262.16 421.53 262.40 C 420.51 252.96 421.85 243.41 420.82 233.97 C 420.56 230.39 417.31 226.47 413.42 227.51 C 409.23 229.06 406.86 233.69 406.78 238.00 C 406.63 245.92 406.76 253.85 406.74 261.78 C 404.90 262.11 403.04 262.12 401.21 261.82 C 401.07 252.88 401.45 243.92 401.01 234.99 C 400.99 230.92 397.37 226.12 392.90 227.64 C 388.99 229.48 386.93 233.79 386.82 237.97 C 386.61 245.90 386.80 253.85 386.75 261.79 C 384.92 262.11 383.07 262.12 381.24 261.80 C 381.35 249.00 381.02 236.19 381.41 223.40 Z" />
<path fill="#ffffff" opacity="1.00" d=" M 433.17 225.44 C 434.55 224.34 436.60 226.65 434.86 227.63 C 433.45 228.73 431.42 226.44 433.17 225.44 Z" />
<path fill="#ff9900" opacity="1.00" d=" M 360.34 227.53 C 364.79 226.39 368.77 230.19 369.95 234.20 C 371.43 239.26 371.44 244.71 370.28 249.84 C 369.43 253.13 367.44 256.57 363.97 257.56 C 360.34 258.67 356.44 256.38 354.94 253.06 C 352.70 248.34 353.03 242.91 353.36 237.85 C 353.68 233.57 355.92 228.77 360.34 227.53 Z" />
<path fill="#ff9900" opacity="1.00" d=" M 251.35 230.39 C 253.52 229.69 256.36 230.22 257.29 232.54 C 259.18 237.09 258.70 242.19 258.62 247.01 C 258.48 250.21 257.54 254.22 254.11 255.37 C 251.53 256.03 249.30 253.93 248.63 251.60 C 247.21 246.88 247.43 241.85 247.76 236.99 C 248.10 234.54 248.78 231.39 251.35 230.39 Z" />
<path fill="#ff9900" opacity="1.00" d=" M 178.37 249.19 C 178.90 244.21 184.75 243.18 188.83 243.24 C 188.94 247.60 188.82 253.36 184.06 255.33 C 180.36 256.65 177.46 252.56 178.37 249.19 Z" />
<path fill="#ff9900" opacity="1.00" d=" M 88.80 244.81 C 91.10 243.40 93.89 243.49 96.48 243.23 C 96.36 246.42 96.66 249.94 94.75 252.72 C 93.36 255.16 89.63 256.66 87.38 254.46 C 84.69 251.79 85.53 246.65 88.80 244.81 Z" />
<path fill="#ffffff" opacity="1.00" d=" M 307.15 258.89 C 308.32 257.60 309.58 256.42 310.95 255.36 C 313.30 256.15 316.03 258.44 314.17 261.07 C 311.85 264.07 308.09 261.87 307.15 258.89 Z" />
<path fill="#ffffff" opacity="1.00" d=" M 212.46 264.71 C 217.72 263.40 223.68 262.92 228.61 265.60 C 228.56 270.58 227.53 275.61 225.03 279.97 C 223.50 282.56 221.71 285.41 218.59 286.20 C 219.96 280.73 223.53 275.49 222.55 269.67 C 217.35 267.06 211.17 269.11 205.60 269.15 C 206.76 266.37 209.85 265.53 212.46 264.71 Z" />
<path fill="#ffffff" opacity="1.00" d=" M 106.98 266.44 C 109.93 265.84 112.26 267.99 114.75 269.16 C 141.14 282.65 172.66 285.94 201.18 277.70 C 206.27 276.48 211.02 274.19 216.00 272.65 C 217.37 272.18 218.62 274.67 217.45 275.39 C 214.33 278.17 210.56 280.07 206.88 281.98 C 187.38 291.38 164.42 293.55 143.58 287.59 C 132.23 284.48 121.57 278.95 112.34 271.66 C 110.34 270.15 108.46 268.46 106.98 266.44 Z" />
</svg>
