<?xml version="1.0" encoding="UTF-8" ?>
<!DOCTYPE svg PUBLIC "-//W3C//DTD SVG 1.1//EN" "http://www.w3.org/Graphics/SVG/1.1/DTD/svg11.dtd">
<svg width="512pt" height="512pt" viewBox="0 0 512 512" version="1.1" xmlns="http://www.w3.org/2000/svg">
<path fill="#ff9900" opacity="1.00" d=" M 0.00 0.00 L 512.00 0.00 L 512.00 512.00 L 0.00 512.00 L 0.00 0.00 Z" />
<path fill="#ffffff" opacity="1.00" d=" M 204.91 142.90 C 223.58 132.24 246.07 129.95 267.07 133.05 C 282.07 135.59 297.57 141.49 307.31 153.71 C 315.22 163.62 316.97 176.72 317.27 188.99 C 317.32 213.01 317.21 237.03 317.31 261.04 C 317.31 270.96 322.16 280.10 328.50 287.46 C 330.98 290.12 332.99 294.87 329.77 297.77 C 321.53 305.22 313.07 312.44 304.57 319.60 C 302.36 321.74 298.91 322.15 296.15 320.94 C 288.03 315.19 282.19 306.97 276.67 298.84 C 269.41 305.63 262.18 312.78 253.04 317.04 C 244.72 321.29 235.26 322.45 226.05 322.97 C 211.04 324.10 194.83 319.92 184.32 308.61 C 172.25 295.90 169.52 276.98 172.10 260.23 C 174.31 245.16 182.99 231.13 195.80 222.80 C 212.43 211.89 232.54 208.72 251.94 206.64 C 257.99 205.91 264.06 205.50 270.14 205.15 C 270.06 196.76 270.94 188.04 268.05 179.99 C 265.26 172.20 256.93 167.65 248.97 167.38 C 239.00 166.75 228.28 171.23 223.09 180.04 C 221.10 183.15 220.48 186.84 219.19 190.24 C 218.11 192.80 215.22 194.36 212.48 193.81 C 202.60 192.51 192.71 191.37 182.83 190.08 C 180.90 189.80 178.78 189.15 177.62 187.45 C 175.83 184.81 177.47 181.68 177.97 178.89 C 181.48 163.82 191.45 150.51 204.91 142.90 Z" />
<path fill="#ff9900" opacity="1.00" d=" M 245.28 234.15 C 253.42 232.31 261.83 231.86 270.16 231.89 C 269.97 243.69 271.21 255.93 267.12 267.26 C 263.99 275.02 259.40 282.84 251.73 286.84 C 246.84 289.67 240.97 290.43 235.44 289.46 C 228.68 287.90 223.38 282.32 221.55 275.71 C 219.13 267.21 219.61 257.64 223.67 249.70 C 227.98 241.49 236.61 236.56 245.28 234.15 Z" />
<path fill="#ffffff" opacity="1.00" d=" M 333.44 313.46 C 343.22 304.54 357.17 302.38 369.96 302.79 C 375.16 303.27 380.99 303.35 385.25 306.75 C 388.53 310.35 387.68 315.62 387.50 320.07 C 386.00 332.36 381.28 344.58 372.76 353.72 C 370.74 355.86 368.31 358.30 365.07 357.84 C 361.58 358.04 358.89 354.06 360.06 350.86 C 363.14 341.34 367.68 331.99 367.91 321.80 C 357.67 319.21 347.17 322.34 336.91 322.98 C 332.22 322.84 330.09 316.63 333.44 313.46 Z" />
<path fill="#ffffff" opacity="1.00" d=" M 128.20 313.19 C 130.42 312.09 132.93 313.01 134.98 314.06 C 151.87 323.42 168.80 332.84 186.67 340.25 C 206.09 348.30 226.91 353.44 248.02 353.45 C 281.56 353.23 314.58 344.48 345.20 331.17 C 348.48 329.65 352.83 329.72 355.46 332.46 C 358.23 335.09 358.40 339.92 355.69 342.65 C 353.03 345.44 349.72 347.49 346.53 349.61 C 320.68 366.36 290.68 376.54 260.05 379.50 C 242.52 381.14 224.63 379.71 207.79 374.41 C 178.55 365.56 153.53 347.03 130.64 327.35 C 128.14 324.99 124.22 322.96 124.28 319.05 C 124.02 316.43 125.86 314.11 128.20 313.19 Z" />
</svg>
