<?xml version="1.0" encoding="UTF-8" ?>
<!DOCTYPE svg PUBLIC "-//W3C//DTD SVG 1.1//EN" "http://www.w3.org/Graphics/SVG/1.1/DTD/svg11.dtd">
<svg width="512pt" height="512pt" viewBox="0 0 512 512" version="1.1" xmlns="http://www.w3.org/2000/svg">
<path fill="#0083d7" opacity="1.00" d=" M 0.00 0.00 L 512.00 0.00 L 512.00 512.00 L 0.00 512.00 L 0.00 0.00 Z" />
<path fill="#ffffff" opacity="1.00" d=" M 137.94 141.90 C 145.04 135.52 154.47 132.01 163.99 131.83 C 225.00 131.83 286.01 131.83 347.01 131.83 C 355.11 132.03 363.24 134.37 369.85 139.15 C 379.83 145.93 386.26 157.89 385.90 170.01 C 385.85 208.66 385.89 247.31 385.88 285.97 C 385.75 292.14 386.50 298.49 384.51 304.46 C 380.15 320.34 364.38 331.78 348.07 332.03 C 332.71 331.78 317.36 331.96 302.00 331.86 C 279.66 332.56 257.31 331.41 234.97 332.13 C 224.60 331.74 214.20 331.83 203.85 332.20 C 192.80 353.28 181.36 374.16 170.14 395.15 C 158.32 369.91 146.19 344.82 134.33 319.60 C 132.61 315.81 129.87 312.58 128.31 308.72 C 126.52 304.38 125.29 299.75 125.25 295.04 C 125.24 253.36 125.26 211.68 125.24 170.00 C 125.17 159.39 129.99 148.89 137.94 141.90 Z" />
<path fill="#0083d7" opacity="1.00" d=" M 204.43 179.40 C 208.85 178.87 213.33 179.33 217.77 179.20 C 217.71 208.34 217.79 237.48 217.73 266.61 C 222.58 266.80 227.43 266.68 232.27 266.73 C 232.29 271.07 232.24 275.40 232.36 279.73 C 230.89 279.93 229.42 280.12 227.95 280.15 C 213.54 280.11 199.12 280.14 184.71 280.13 C 184.65 275.66 184.66 271.19 184.69 266.73 C 189.90 266.69 195.11 266.76 200.32 266.66 C 200.29 243.42 200.33 220.19 200.30 196.95 C 194.74 199.47 189.59 202.78 184.19 205.60 C 184.34 200.57 183.89 195.50 184.37 190.49 C 190.95 186.61 197.70 182.99 204.43 179.40 Z" />
<path fill="#0083d7" opacity="1.00" d=" M 299.36 179.46 C 303.92 178.73 308.61 179.37 313.23 179.16 C 313.17 208.33 313.25 237.49 313.18 266.65 C 317.94 266.61 322.70 266.63 327.46 266.61 C 327.45 271.12 327.47 275.63 327.42 280.14 C 311.54 280.13 295.66 280.15 279.78 280.12 C 279.73 275.63 279.74 271.13 279.76 266.64 C 285.01 266.62 290.26 266.61 295.52 266.65 C 295.46 243.40 295.51 220.15 295.50 196.89 C 290.04 199.74 284.74 202.87 279.28 205.71 C 279.41 200.62 278.95 195.50 279.47 190.43 C 285.99 186.60 292.67 183.00 299.36 179.46 Z" />
<path fill="#0083d7" opacity="1.00" d=" M 250.12 201.06 C 255.86 197.83 263.85 202.22 263.61 208.99 C 264.45 215.83 256.24 221.28 250.31 217.72 C 244.00 214.48 243.93 204.49 250.12 201.06 Z" />
<path fill="#0083d7" opacity="1.00" d=" M 250.50 253.66 C 256.27 250.38 264.09 255.41 263.61 261.99 C 264.38 269.04 255.56 274.31 249.80 270.14 C 243.73 266.61 244.24 256.74 250.50 253.66 Z" />
</svg>
