<?xml version="1.0" encoding="UTF-8" ?>
<!DOCTYPE svg PUBLIC "-//W3C//DTD SVG 1.1//EN" "http://www.w3.org/Graphics/SVG/1.1/DTD/svg11.dtd">
<svg width="512pt" height="512pt" viewBox="0 0 512 512" version="1.1" xmlns="http://www.w3.org/2000/svg">
<path fill="#163592" opacity="1.00" d=" M 0.00 0.00 L 512.00 0.00 L 512.00 512.00 L 0.00 512.00 L 0.00 0.00 Z" />
<path fill="#ffffff" opacity="1.00" d=" M 141.97 227.99 C 143.50 225.69 146.27 224.71 148.95 224.81 C 158.77 224.78 168.58 224.83 178.40 224.80 C 178.53 229.66 178.14 234.53 178.53 239.38 C 180.46 234.75 182.85 230.00 187.45 227.48 C 191.43 224.88 196.32 224.55 200.94 224.72 C 218.48 224.74 236.03 224.77 253.58 224.71 C 253.64 230.29 253.58 235.88 253.63 241.47 C 213.52 241.37 173.40 241.61 133.28 241.35 C 136.25 236.94 138.82 232.27 141.97 227.99 Z" />
<path fill="#ffffff" opacity="1.00" d=" M 257.21 224.80 C 262.72 224.83 268.23 224.83 273.74 224.81 C 273.77 230.35 273.70 235.90 273.80 241.44 C 268.24 241.44 262.69 241.46 257.14 241.39 C 257.18 238.26 257.16 235.13 257.11 232.00 C 257.14 229.60 257.16 227.20 257.21 224.80 Z" />
<path fill="#ffffff" opacity="1.00" d=" M 313.38 241.48 C 313.28 235.91 313.21 230.33 313.43 224.77 C 319.04 225.10 324.70 224.36 330.27 225.28 C 330.27 229.85 330.21 234.42 329.91 238.98 C 330.19 238.90 330.75 238.74 331.03 238.66 C 333.18 230.73 340.74 224.73 349.00 224.76 C 369.25 224.75 389.49 224.77 409.74 224.75 C 409.74 230.31 409.68 235.87 409.79 241.43 C 377.65 241.52 345.51 241.35 313.38 241.48 Z" />
<path fill="#ffffff" opacity="1.00" d=" M 103.05 288.29 C 112.93 273.08 122.67 257.77 132.65 242.62 C 138.79 243.56 145.01 243.86 151.17 244.72 C 141.89 259.32 132.39 273.77 122.95 288.27 C 116.32 288.27 109.68 288.23 103.05 288.29 Z" />
<path fill="#ffffff" opacity="1.00" d=" M 257.18 243.03 C 262.72 243.59 268.33 243.30 273.84 244.29 C 273.83 251.86 273.66 259.44 273.89 267.01 C 274.00 270.08 277.03 272.18 279.93 272.14 C 288.99 272.23 298.05 272.16 307.10 272.17 C 310.25 272.38 313.55 269.98 313.58 266.67 C 313.81 260.16 313.63 253.64 313.62 247.13 C 318.99 247.16 324.34 247.59 329.71 247.61 C 330.80 255.60 329.89 263.72 330.22 271.76 C 349.14 271.78 368.06 271.74 386.98 271.78 C 388.97 271.78 390.96 271.59 392.94 271.32 C 393.51 270.21 394.08 269.09 394.65 267.98 C 394.32 267.35 393.65 266.11 393.32 265.48 C 389.70 264.23 385.82 264.55 382.08 264.01 C 370.43 263.11 358.79 262.20 347.16 261.10 C 339.94 260.23 333.68 255.08 331.50 248.13 C 352.70 248.83 373.85 250.43 395.02 251.75 C 401.58 253.29 407.11 258.47 408.96 264.96 C 410.39 271.51 408.63 279.03 403.53 283.60 C 399.95 287.01 394.90 288.45 390.05 288.45 C 370.24 288.43 350.43 288.42 330.62 288.45 C 330.53 283.51 330.85 278.57 330.56 273.64 C 329.06 276.21 328.80 279.40 326.74 281.65 C 322.87 286.11 316.79 288.38 310.96 288.33 C 299.30 288.29 287.65 288.30 276.00 288.32 C 269.99 288.36 263.74 285.69 260.35 280.58 C 258.53 278.04 257.79 274.97 256.99 272.00 C 255.47 280.28 248.71 287.73 240.01 288.20 C 213.80 288.29 187.58 288.15 161.36 288.27 C 161.15 274.01 161.45 259.76 161.21 245.50 C 166.62 246.04 172.03 246.53 177.47 246.67 C 177.51 255.04 177.48 263.41 177.48 271.78 C 197.65 271.86 217.83 271.88 238.00 271.78 C 241.96 272.03 242.84 265.57 238.84 264.84 C 224.23 263.43 209.56 262.66 194.97 261.10 C 190.55 260.33 185.99 258.53 183.13 254.92 C 181.20 252.53 180.22 249.57 179.28 246.69 C 200.12 248.80 221.08 249.92 241.94 251.93 C 246.42 252.56 250.43 255.25 253.06 258.87 C 254.59 260.95 255.55 263.41 257.24 265.38 C 257.15 257.93 257.19 250.48 257.18 243.03 Z" />
</svg>
