<?xml version="1.0" encoding="UTF-8" ?>
<!DOCTYPE svg PUBLIC "-//W3C//DTD SVG 1.1//EN" "http://www.w3.org/Graphics/SVG/1.1/DTD/svg11.dtd">
<svg width="512pt" height="512pt" viewBox="0 0 512 512" version="1.1" xmlns="http://www.w3.org/2000/svg">
<path fill="#ff001a" opacity="1.00" d=" M 0.00 0.00 L 512.00 0.00 L 512.00 512.00 L 0.00 512.00 L 0.00 0.00 Z" />
<path fill="#ffffff" opacity="1.00" d=" M 242.57 120.06 C 271.87 116.92 302.19 123.48 327.45 138.71 C 354.48 154.73 375.72 180.34 386.36 209.92 C 393.40 229.05 395.97 249.78 394.04 270.06 C 391.54 296.93 380.85 322.96 363.75 343.85 C 347.37 363.99 325.21 379.48 300.51 387.57 C 281.10 394.11 260.21 396.12 239.91 393.57 C 206.47 389.58 174.80 372.62 152.89 347.05 C 137.80 329.71 127.16 308.53 122.37 286.04 C 115.58 254.89 120.03 221.40 134.93 193.20 C 149.85 164.53 175.19 141.48 205.16 129.38 C 217.12 124.60 229.73 121.34 242.57 120.06 Z" />
<path fill="#ff001a" opacity="1.00" d=" M 190.45 164.69 C 196.65 161.89 204.72 163.77 208.64 169.44 C 210.69 172.18 211.41 175.67 211.28 179.04 C 211.21 207.35 211.33 235.66 211.30 263.96 C 211.35 270.03 210.95 276.17 212.30 282.14 C 215.19 296.81 225.48 309.74 239.13 315.84 C 249.32 320.71 260.94 320.70 271.97 319.97 C 284.00 319.25 295.46 313.35 303.54 304.48 C 312.18 294.95 316.71 281.80 315.64 268.96 C 314.48 250.63 301.63 233.70 284.22 227.77 C 275.87 224.62 266.82 224.75 258.03 224.80 C 250.17 225.12 243.10 217.82 243.45 210.00 C 243.27 202.34 250.31 195.54 257.89 195.51 C 267.70 195.27 277.65 195.36 287.19 197.95 C 309.57 203.87 329.01 220.14 338.45 241.33 C 349.00 263.98 347.05 291.78 333.64 312.84 C 322.14 331.41 302.51 344.99 280.87 348.48 C 273.33 349.95 265.62 349.47 257.99 349.53 C 242.04 349.50 226.26 344.04 213.50 334.51 C 197.09 322.62 185.74 303.99 182.69 283.96 C 182.12 278.98 181.66 273.98 181.77 268.97 C 181.81 238.64 181.74 208.31 181.80 177.99 C 181.87 172.38 185.32 166.99 190.45 164.69 Z" />
</svg>
