<?xml version="1.0" encoding="UTF-8" ?>
<!DOCTYPE svg PUBLIC "-//W3C//DTD SVG 1.1//EN" "http://www.w3.org/Graphics/SVG/1.1/DTD/svg11.dtd">
<svg width="512pt" height="512pt" viewBox="0 0 512 512" version="1.1" xmlns="http://www.w3.org/2000/svg">
<path fill="#2d9ad2" opacity="1.00" d=" M 0.00 0.00 L 512.00 0.00 L 512.00 512.00 L 0.00 512.00 L 0.00 0.00 Z" />
<path fill="#ffffff" opacity="1.00" d=" M 130.81 176.77 C 154.52 177.50 178.27 177.21 201.99 177.68 C 214.65 177.58 228.44 178.28 238.96 186.19 C 252.40 196.15 255.83 215.77 249.88 230.82 C 246.79 238.87 239.52 244.10 232.16 247.97 C 244.20 251.93 254.19 261.74 258.15 273.81 C 264.09 293.14 255.17 316.63 236.58 325.50 C 221.71 332.24 204.97 331.61 189.02 331.66 C 169.78 331.66 150.54 331.68 131.31 331.66 C 131.35 302.14 131.16 272.61 131.17 243.09 C 130.56 220.99 130.94 198.87 130.81 176.77 Z" />
<path fill="#ffffff" opacity="1.00" d=" M 293.83 186.72 C 314.98 186.74 336.14 186.69 357.29 186.74 C 357.33 192.04 357.29 197.33 357.33 202.63 C 336.17 202.78 315.01 202.61 293.84 202.71 C 293.79 197.38 293.81 192.05 293.83 186.72 Z" />
<path fill="#2d9ad2" opacity="1.00" d=" M 164.45 203.67 C 175.65 203.50 186.86 203.46 198.06 203.29 C 203.68 203.39 209.88 203.83 214.29 207.74 C 218.61 211.45 219.61 217.58 219.41 222.99 C 219.26 227.94 217.23 233.22 212.73 235.77 C 207.08 239.19 200.27 238.67 193.95 238.76 C 184.21 238.69 174.47 238.89 164.73 238.66 C 164.69 227.00 164.49 215.34 164.45 203.67 Z" />
<path fill="#ffffff" opacity="1.00" d=" M 316.11 218.08 C 332.03 215.89 349.72 217.87 362.55 228.34 C 373.56 237.17 378.84 251.18 380.38 264.86 C 381.00 270.97 381.38 277.11 381.17 283.26 C 354.49 283.28 327.80 283.27 301.11 283.27 C 301.38 291.05 303.55 299.24 309.06 304.99 C 315.36 311.30 325.09 312.79 333.54 311.04 C 340.87 308.90 348.52 304.76 351.53 297.31 C 360.67 297.34 369.81 297.31 378.95 297.33 C 375.43 310.67 366.51 322.79 354.07 329.06 C 340.27 336.30 323.83 335.72 309.00 332.41 C 294.17 329.22 280.54 319.34 274.60 305.13 C 265.90 284.14 267.25 258.47 280.48 239.62 C 288.55 227.73 301.94 219.97 316.11 218.08 Z" />
<path fill="#2d9ad2" opacity="1.00" d=" M 310.09 246.17 C 318.93 238.68 333.56 237.71 342.49 245.55 C 347.65 250.15 349.67 257.09 350.58 263.72 C 334.13 263.80 317.67 263.83 301.22 263.71 C 302.41 257.20 304.83 250.48 310.09 246.17 Z" />
<path fill="#2d9ad2" opacity="1.00" d=" M 164.21 264.18 C 177.77 264.49 191.35 264.14 204.92 264.59 C 211.59 265.09 218.95 267.38 222.82 273.24 C 225.97 277.81 226.02 283.69 225.10 288.97 C 224.23 293.87 221.66 298.60 217.42 301.36 C 212.55 304.45 206.62 305.40 200.94 305.44 C 188.69 305.42 176.43 305.45 164.18 305.42 C 164.23 291.67 164.18 277.93 164.21 264.18 Z" />
</svg>
