<?xml version="1.0" encoding="UTF-8" ?>
<!DOCTYPE svg PUBLIC "-//W3C//DTD SVG 1.1//EN" "http://www.w3.org/Graphics/SVG/1.1/DTD/svg11.dtd">
<svg width="512pt" height="512pt" viewBox="0 0 512 512" version="1.1" xmlns="http://www.w3.org/2000/svg">
<path fill="#3274d1" opacity="1.00" d=" M 0.00 0.00 L 512.00 0.00 L 512.00 512.00 L 0.00 512.00 L 0.00 0.00 Z" />
<path fill="#ffffff" opacity="1.00" d=" M 127.15 126.21 C 129.64 125.37 132.38 125.91 134.97 125.78 C 216.31 125.79 297.64 125.81 378.98 125.77 C 381.88 125.90 385.36 125.11 387.62 127.46 C 389.31 128.78 389.64 130.99 389.54 133.00 C 389.49 215.68 389.57 298.36 389.50 381.04 C 389.64 383.69 387.60 386.25 384.96 386.64 C 381.98 386.97 378.98 386.77 376.00 386.80 C 293.99 386.80 211.99 386.80 129.99 386.80 C 126.65 387.23 123.13 384.53 123.47 381.01 C 123.47 298.02 123.48 215.02 123.46 132.03 C 123.12 129.46 124.95 127.27 127.15 126.21 Z" />
<path fill="#3274d1" opacity="1.00" d=" M 134.39 136.76 C 175.10 136.79 215.80 136.77 256.51 136.76 C 256.54 175.92 256.53 215.07 256.52 254.23 C 256.34 254.62 255.99 255.42 255.81 255.82 C 255.40 255.99 254.57 256.33 254.16 256.50 C 214.26 256.54 174.35 256.50 134.44 256.52 C 134.44 216.60 134.55 176.68 134.39 136.76 Z" />
<path fill="#3274d1" opacity="1.00" d=" M 256.87 257.01 C 257.51 255.25 259.66 256.58 260.98 256.27 C 300.18 256.37 339.38 256.30 378.58 256.31 C 378.51 296.19 378.50 336.08 378.58 375.96 C 337.91 376.43 297.22 375.99 256.54 376.16 C 256.39 338.10 256.55 300.05 256.46 261.99 C 256.43 260.32 256.57 258.65 256.87 257.01 Z" />
</svg>
