<?xml version="1.0" encoding="UTF-8" ?>
<!DOCTYPE svg PUBLIC "-//W3C//DTD SVG 1.1//EN" "http://www.w3.org/Graphics/SVG/1.1/DTD/svg11.dtd">
<svg width="512pt" height="512pt" viewBox="0 0 512 512" version="1.1" xmlns="http://www.w3.org/2000/svg">
<path fill="#0075ba" opacity="1.00" d=" M 0.00 0.00 L 512.00 0.00 L 512.00 512.00 L 0.00 512.00 L 0.00 0.00 Z" />
<path fill="#ffffff" opacity="1.00" d=" M 184.03 238.10 C 200.61 228.29 216.54 217.31 233.02 207.32 C 239.83 211.34 246.24 216.03 253.07 220.04 C 238.46 229.40 223.78 238.65 209.23 248.07 C 210.58 250.54 214.00 252.57 216.85 252.85 C 230.91 244.31 244.77 235.42 258.77 226.76 C 260.25 225.57 261.78 227.07 263.04 227.83 C 268.35 231.61 274.09 234.76 279.21 238.80 C 264.80 247.65 250.46 256.66 236.28 265.89 C 238.74 267.54 241.26 269.09 243.84 270.54 C 258.35 261.34 272.98 252.31 287.69 243.45 C 287.85 233.37 287.75 223.29 287.74 213.21 C 298.25 213.27 308.79 212.93 319.30 213.38 C 318.41 223.19 319.36 233.11 318.90 242.96 C 318.78 248.63 318.75 254.31 319.12 259.96 C 319.32 264.51 318.46 269.10 319.29 273.60 C 328.38 273.44 337.48 273.57 346.57 273.53 C 346.69 282.83 346.64 292.14 346.60 301.45 C 326.96 301.40 307.33 301.46 287.69 301.41 C 287.59 291.36 288.03 281.27 287.48 271.24 C 269.80 282.89 251.74 293.98 233.96 305.48 L 233.07 305.57 C 217.37 295.73 201.70 285.81 186.02 275.92 C 185.34 275.28 183.72 274.84 183.59 276.24 C 178.24 291.20 162.62 301.20 146.97 301.44 C 131.92 301.40 116.86 301.47 101.81 301.40 C 101.83 272.00 101.85 242.59 101.80 213.19 C 114.85 213.17 127.89 213.16 140.94 213.20 C 153.79 212.89 167.23 217.25 176.18 226.76 C 179.45 230.05 181.85 234.04 184.03 238.10 Z" />
<path fill="#ffffff" opacity="1.00" d=" M 352.45 213.18 C 362.84 213.17 373.24 213.19 383.63 213.17 C 383.57 233.24 383.59 253.31 383.61 273.38 C 392.94 273.62 402.26 273.44 411.59 273.48 C 411.59 282.81 411.51 292.14 411.63 301.47 C 391.91 301.49 372.20 301.48 352.48 301.47 C 352.48 272.04 352.54 242.61 352.45 213.18 Z" />
<path fill="#0075ba" opacity="1.00" d=" M 133.34 240.27 C 137.81 240.26 142.76 239.52 146.65 242.31 C 157.07 248.48 157.49 265.77 147.45 272.48 C 143.35 275.39 138.10 274.66 133.38 274.65 C 133.31 263.19 133.37 251.73 133.34 240.27 Z" />
</svg>
