<?xml version="1.0" encoding="UTF-8" ?>
<!DOCTYPE svg PUBLIC "-//W3C//DTD SVG 1.1//EN" "http://www.w3.org/Graphics/SVG/1.1/DTD/svg11.dtd">
<svg width="512pt" height="512pt" viewBox="0 0 512 512" version="1.1" xmlns="http://www.w3.org/2000/svg">
<path fill="#ff0084" opacity="1.00" d=" M 0.00 0.00 L 512.00 0.00 L 512.00 512.00 L 0.00 512.00 L 0.00 0.00 Z" />
<path fill="#ffffff" opacity="1.00" d=" M 92.04 208.01 C 97.88 201.20 107.50 199.82 115.97 200.01 C 120.33 199.98 124.71 200.27 128.93 201.39 C 128.62 207.29 127.88 213.15 127.48 219.04 C 123.49 218.20 119.02 217.35 115.14 218.98 C 109.81 222.27 110.42 229.34 110.55 234.76 C 116.52 234.72 122.50 234.74 128.48 234.75 C 128.48 240.88 128.53 247.01 128.45 253.14 C 122.47 253.16 116.49 253.12 110.50 253.16 C 110.48 272.22 110.43 291.28 110.53 310.35 C 102.17 310.35 93.82 310.32 85.46 310.36 C 85.44 291.30 85.46 272.24 85.46 253.17 C 80.68 253.00 75.90 253.14 71.13 253.16 C 70.94 247.02 71.05 240.87 71.06 234.73 C 75.97 234.75 80.88 234.75 85.79 234.73 C 85.70 225.61 85.87 215.38 92.04 208.01 Z" />
<path fill="#ffffff" opacity="1.00" d=" M 141.84 201.65 C 150.11 201.63 158.38 201.69 166.65 201.61 C 166.73 237.83 166.65 274.05 166.70 310.26 C 158.41 310.29 150.12 310.28 141.84 310.27 C 141.83 274.06 141.81 237.86 141.84 201.65 Z" />
<path fill="#ffffff" opacity="1.00" d=" M 302.25 201.62 C 310.61 201.59 318.98 201.61 327.35 201.62 C 327.31 223.35 327.36 245.08 327.32 266.81 C 334.79 256.35 341.47 245.32 348.78 234.75 C 357.88 234.79 366.98 234.75 376.07 234.77 C 367.72 246.39 359.19 257.89 350.79 269.47 C 359.96 283.07 369.05 296.72 378.21 310.33 C 368.09 310.33 357.97 310.31 347.84 310.34 C 340.96 297.87 334.56 285.10 327.41 272.79 C 327.24 285.30 327.38 297.81 327.34 310.32 C 318.98 310.33 310.62 310.33 302.26 310.32 C 302.28 274.08 302.30 237.85 302.25 201.62 Z" />
<path fill="#ffffff" opacity="1.00" d=" M 188.50 203.46 C 196.85 203.36 205.20 203.42 213.55 203.43 C 213.51 209.74 213.54 216.06 213.54 222.38 C 205.21 222.38 196.88 222.38 188.55 222.38 C 188.50 216.07 188.56 209.76 188.50 203.46 Z" />
<path fill="#ffffff" opacity="1.00" d=" M 253.22 236.09 C 265.28 231.84 279.11 231.84 290.91 237.00 C 290.73 243.48 289.73 249.90 289.31 256.37 C 282.81 252.27 274.45 251.03 267.11 253.32 C 254.94 257.54 250.98 274.53 258.34 284.56 C 262.70 290.71 270.59 293.62 277.97 292.85 C 282.54 292.80 286.76 291.02 291.11 289.87 C 291.36 296.17 291.44 302.48 291.69 308.78 C 280.60 312.37 268.42 313.13 257.08 310.31 C 248.05 307.88 239.61 302.44 234.61 294.41 C 227.98 283.92 227.19 270.42 230.83 258.73 C 234.19 248.18 242.84 239.76 253.22 236.09 Z" />
<path fill="#ffffff" opacity="1.00" d=" M 421.70 235.72 C 427.47 232.28 434.46 233.00 440.81 233.84 C 440.58 241.09 439.98 248.31 439.60 255.55 C 432.99 254.10 425.09 253.92 419.73 258.71 C 414.35 263.50 412.88 271.12 412.69 278.00 C 412.63 288.78 412.73 299.55 412.65 310.32 C 404.34 310.29 396.03 310.33 387.72 310.30 C 387.75 285.13 387.71 259.97 387.75 234.81 C 395.32 234.79 402.89 234.79 410.47 234.81 C 410.76 239.52 410.02 244.30 410.81 248.96 C 413.32 243.79 416.50 238.55 421.70 235.72 Z" />
<path fill="#ffffff" opacity="1.00" d=" M 188.59 234.87 C 196.90 234.89 205.21 234.80 213.53 234.93 C 213.53 260.04 213.52 285.16 213.53 310.28 C 205.22 310.26 196.91 310.28 188.60 310.26 C 188.56 285.13 188.58 260.00 188.59 234.87 Z" />
</svg>
