<?xml version="1.0" encoding="UTF-8" ?>
<!DOCTYPE svg PUBLIC "-//W3C//DTD SVG 1.1//EN" "http://www.w3.org/Graphics/SVG/1.1/DTD/svg11.dtd">
<svg width="512pt" height="512pt" viewBox="0 0 512 512" version="1.1" xmlns="http://www.w3.org/2000/svg">
<path fill="#006e9e" opacity="1.00" d=" M 0.00 0.00 L 512.00 0.00 L 512.00 512.00 L 0.00 512.00 L 0.00 0.00 Z" />
<path fill="#ffffff" opacity="1.00" d=" M 267.42 176.35 C 280.76 171.72 294.90 169.41 309.02 169.32 C 322.45 169.12 335.60 172.56 348.31 176.58 C 368.75 183.45 388.41 194.95 401.29 212.63 C 413.16 228.61 418.17 249.39 414.88 269.02 C 411.93 288.07 401.86 305.74 387.63 318.65 C 370.55 334.42 347.67 343.03 324.63 344.45 C 308.79 345.19 292.59 343.77 277.67 338.13 C 261.87 332.35 247.03 324.38 231.93 317.06 C 213.57 308.72 194.01 302.78 173.99 300.28 C 174.84 296.82 178.15 294.82 180.86 292.88 C 186.74 289.36 193.08 286.36 199.85 285.05 C 193.99 275.22 183.87 268.46 172.98 265.38 C 162.65 262.28 151.73 261.89 141.04 262.71 C 128.42 264.07 115.72 266.64 104.26 272.28 C 101.91 273.40 99.77 274.91 97.72 276.51 C 96.04 270.48 99.56 264.70 103.17 260.17 C 108.77 253.43 116.21 248.05 124.60 245.36 C 133.42 242.72 142.39 240.04 150.41 235.41 C 152.62 233.82 155.91 232.25 155.90 229.11 C 155.70 226.99 153.28 226.24 151.58 225.61 C 142.05 223.01 132.14 225.74 123.13 229.02 C 124.21 222.67 129.45 218.04 134.62 214.73 C 146.69 207.41 161.12 205.45 174.98 205.00 C 192.47 204.62 209.94 207.02 227.05 210.54 C 238.11 213.76 249.43 216.86 261.04 216.75 C 265.28 216.65 269.96 216.17 273.29 213.25 C 275.32 211.66 275.12 208.68 274.44 206.47 C 272.49 202.52 268.66 199.92 264.75 198.14 C 257.25 194.65 248.57 194.76 240.64 196.56 C 245.56 185.83 256.91 180.28 267.42 176.35 Z" />
<path fill="#006e9e" opacity="1.00" d=" M 317.99 231.19 C 326.84 227.65 336.61 225.69 346.09 227.44 C 357.74 229.14 368.30 236.87 373.36 247.50 C 376.74 254.08 377.46 261.75 376.36 268.99 C 374.76 277.86 368.64 285.48 360.84 289.80 C 352.10 294.66 341.87 296.02 332.00 295.68 C 322.94 295.85 314.12 293.23 305.69 290.18 C 290.37 284.34 276.20 276.01 261.98 267.95 C 257.46 265.47 252.95 262.93 248.19 260.93 C 261.80 258.75 275.33 254.58 286.95 247.01 C 296.64 240.56 307.16 235.43 317.99 231.19 Z" />
</svg>
