<?xml version="1.0" encoding="UTF-8" ?>
<!DOCTYPE svg PUBLIC "-//W3C//DTD SVG 1.1//EN" "http://www.w3.org/Graphics/SVG/1.1/DTD/svg11.dtd">
<svg width="512pt" height="512pt" viewBox="0 0 512 512" version="1.1" xmlns="http://www.w3.org/2000/svg">
<path fill="#00bef2" opacity="1.00" d=" M 0.00 0.00 L 512.00 0.00 L 512.00 512.00 L 0.00 512.00 L 0.00 0.00 Z" />
<path fill="#ffffff" opacity="1.00" d=" M 80.30 224.81 C 88.43 224.79 96.55 224.79 104.67 224.81 C 105.08 236.00 105.48 247.18 105.93 258.37 C 111.32 247.20 116.63 235.98 122.00 224.80 C 130.03 224.80 138.06 224.79 146.09 224.81 C 141.58 245.06 137.12 265.32 132.54 285.55 C 126.83 285.51 121.13 285.55 115.42 285.53 C 117.80 274.62 120.24 263.72 122.58 252.81 C 117.12 263.70 111.71 274.62 106.28 285.52 C 102.06 285.54 97.85 285.54 93.63 285.52 C 93.28 274.62 93.53 263.70 92.72 252.82 C 90.48 263.82 87.38 274.63 84.76 285.54 C 78.79 285.53 72.82 285.54 66.86 285.53 C 71.34 265.29 75.84 245.05 80.30 224.81 Z" />
<path fill="#ffffff" opacity="1.00" d=" M 147.41 234.00 C 148.11 230.93 148.80 227.85 149.53 224.79 C 154.79 224.81 160.05 224.79 165.31 224.81 C 164.71 227.87 164.11 230.92 163.52 233.99 C 158.15 234.01 152.78 234.00 147.41 234.00 Z" />
<path fill="#ffffff" opacity="1.00" d=" M 391.28 227.28 C 396.28 225.24 401.83 225.80 407.10 225.92 C 406.53 228.66 405.95 231.40 405.34 234.13 C 403.77 234.77 401.24 234.44 400.63 236.40 C 400.07 237.85 399.79 239.38 399.41 240.88 C 401.54 240.87 403.67 240.86 405.80 240.86 C 406.62 237.30 407.45 233.76 408.28 230.21 C 413.53 230.19 418.78 230.20 424.03 230.20 C 423.28 233.75 422.52 237.30 421.76 240.86 C 423.63 240.86 425.50 240.87 427.38 240.88 C 426.55 244.32 425.72 247.76 424.88 251.19 C 422.98 251.20 421.09 251.20 419.20 251.20 C 417.79 258.84 414.97 266.28 414.60 274.07 C 416.79 274.10 418.98 274.11 421.18 274.09 C 420.27 277.90 419.39 281.72 418.50 285.53 C 413.93 285.44 409.34 285.75 404.78 285.37 C 399.93 284.92 397.13 279.26 398.33 274.84 C 399.98 266.82 401.84 258.83 403.57 250.82 C 401.57 250.80 399.58 250.78 397.59 250.77 C 394.89 262.33 392.37 273.94 389.76 285.52 C 384.31 285.54 378.86 285.53 373.41 285.53 C 376.17 273.95 378.96 262.38 381.72 250.80 C 379.59 250.80 377.47 250.79 375.36 250.78 C 379.47 262.94 373.04 276.99 361.89 282.86 C 354.90 286.58 346.38 287.41 338.81 285.12 C 332.88 283.30 328.22 278.11 327.04 272.01 C 324.04 257.31 335.04 241.41 349.89 239.11 C 359.32 237.30 370.56 240.57 374.93 249.76 C 375.64 246.70 376.43 243.65 377.22 240.61 C 379.34 240.60 381.47 240.60 383.60 240.61 C 384.75 235.61 386.45 229.90 391.28 227.28 Z" />
<path fill="#ffffff" opacity="1.00" d=" M 172.42 243.38 C 178.29 239.68 185.54 238.45 192.37 239.43 C 197.07 240.12 201.47 242.98 203.64 247.27 C 205.39 250.35 205.78 253.93 206.18 257.39 C 201.27 257.41 196.37 257.39 191.47 257.42 C 191.10 254.96 191.30 251.59 188.61 250.39 C 185.26 249.24 182.15 251.84 180.33 254.40 C 177.20 258.90 175.28 264.50 175.75 270.02 C 175.91 272.69 178.01 275.56 180.96 275.13 C 184.70 275.03 186.92 271.65 188.75 268.85 C 193.63 268.88 198.51 268.85 203.39 268.89 C 201.77 275.18 197.90 281.06 191.98 284.02 C 186.00 287.09 178.88 287.86 172.34 286.45 C 166.57 285.06 161.91 280.35 160.28 274.68 C 156.82 263.11 162.22 249.71 172.42 243.38 Z" />
<path fill="#ffffff" opacity="1.00" d=" M 237.79 252.03 C 242.22 245.53 249.02 240.44 256.91 239.19 C 264.06 237.97 272.46 238.85 277.68 244.42 C 282.71 249.81 283.25 257.87 281.59 264.75 C 276.83 266.36 272.04 267.89 267.28 269.52 C 276.38 269.53 285.48 269.56 294.59 269.50 C 294.56 271.80 294.48 274.92 297.11 275.89 C 300.51 277.21 306.00 277.02 307.44 272.99 C 307.62 269.05 303.07 267.92 300.04 267.22 C 295.11 266.06 289.80 264.57 286.37 260.58 C 282.18 255.67 283.49 247.46 288.63 243.71 C 294.41 239.42 301.97 238.61 308.96 238.77 C 314.24 239.03 320.25 239.82 323.95 244.03 C 326.31 246.60 326.17 250.28 326.08 253.54 C 320.92 253.53 315.75 253.51 310.59 253.56 C 311.73 247.70 303.93 245.85 300.45 249.40 C 298.80 250.98 300.05 253.48 301.93 254.15 C 307.86 256.48 314.84 255.99 320.18 259.85 C 325.30 263.68 325.76 271.38 322.67 276.65 C 318.77 284.08 309.91 286.99 302.00 287.16 C 295.09 287.27 287.41 286.80 281.85 282.21 C 278.87 279.86 277.87 276.04 277.72 272.41 C 273.91 280.77 265.26 286.52 256.10 286.93 C 248.72 287.56 240.27 285.45 236.10 278.83 C 231.39 271.54 232.75 262.10 236.26 254.60 C 230.86 255.10 224.95 257.51 223.12 263.08 C 220.81 270.38 219.96 278.06 218.27 285.52 C 212.65 285.54 207.04 285.53 201.43 285.53 C 204.88 270.69 208.36 255.85 211.82 241.01 C 217.07 240.79 222.33 240.58 227.59 240.38 C 227.26 241.59 226.61 244.02 226.29 245.24 C 230.07 241.42 235.32 239.71 240.60 239.52 C 239.70 243.70 238.78 247.87 237.79 252.03 Z" />
<path fill="#ffffff" opacity="1.00" d=" M 145.88 240.20 C 151.30 240.20 156.71 240.20 162.13 240.20 C 158.90 255.34 155.66 270.46 152.42 285.59 C 146.87 285.60 141.32 285.60 135.77 285.60 C 139.13 270.46 142.51 255.33 145.88 240.20 Z" />
<path fill="#ffffff" opacity="1.00" d=" M 435.45 240.59 C 439.66 238.80 444.86 242.39 444.11 247.07 C 443.95 251.74 438.11 254.12 434.39 251.73 C 430.20 249.33 430.79 242.10 435.45 240.59 Z" />
<path fill="#00bef2" opacity="1.00" d=" M 435.08 241.96 C 438.59 239.80 443.88 242.72 443.12 247.02 C 442.85 251.07 437.52 252.80 434.51 250.45 C 431.75 248.41 432.02 243.58 435.08 241.96 Z" />
<path fill="#ffffff" opacity="1.00" d=" M 436.28 242.99 C 437.81 243.26 439.74 242.82 440.80 244.26 C 441.08 245.61 440.01 246.55 439.28 247.52 C 439.55 248.40 439.82 249.28 440.10 250.17 C 438.78 249.19 437.84 247.85 437.09 246.42 C 436.78 247.81 436.44 249.19 436.04 250.56 C 434.84 248.14 436.05 245.48 436.28 242.99 Z" />
<path fill="#00bef2" opacity="1.00" d=" M 437.54 244.31 C 439.21 243.80 439.78 244.34 439.25 245.93 C 437.57 246.43 437.00 245.89 437.54 244.31 Z" />
<path fill="#00bef2" opacity="1.00" d=" M 259.48 249.65 C 262.58 248.16 265.82 250.93 266.15 254.03 C 267.15 260.38 265.09 267.13 261.18 272.18 C 259.32 274.68 255.48 276.56 252.75 274.24 C 249.21 271.25 249.87 265.96 250.88 261.94 C 252.33 257.15 254.70 251.88 259.48 249.65 Z" />
<path fill="#00bef2" opacity="1.00" d=" M 352.39 249.64 C 354.78 248.40 357.79 249.77 358.74 252.20 C 360.57 256.90 359.37 262.16 357.65 266.71 C 356.03 270.45 353.52 275.02 348.96 275.33 C 344.43 275.07 343.38 269.62 343.83 265.98 C 344.56 259.88 346.73 252.87 352.39 249.64 Z" />
</svg>
