<?xml version="1.0" encoding="UTF-8" ?>
<!DOCTYPE svg PUBLIC "-//W3C//DTD SVG 1.1//EN" "http://www.w3.org/Graphics/SVG/1.1/DTD/svg11.dtd">
<svg width="512pt" height="512pt" viewBox="0 0 512 512" version="1.1" xmlns="http://www.w3.org/2000/svg">
<path fill="#424c50" opacity="1.00" d=" M 0.00 0.00 L 512.00 0.00 L 512.00 512.00 L 0.00 512.00 L 0.00 0.00 Z" />
<path fill="#d0960c" opacity="1.00" d=" M 132.04 132.04 C 171.35 132.07 210.65 132.07 249.96 132.04 C 249.92 171.35 249.93 210.65 249.95 249.96 C 210.65 249.92 171.35 249.93 132.04 249.95 C 132.08 210.65 132.07 171.35 132.04 132.04 Z" />
<path fill="#d0960c" opacity="1.00" d=" M 262.19 132.19 C 301.40 132.32 340.61 132.31 379.81 132.19 C 379.68 171.40 379.69 210.61 379.81 249.81 C 340.60 249.68 301.39 249.68 262.19 249.81 C 262.32 210.61 262.32 171.39 262.19 132.19 Z" />
<path fill="#d0960c" opacity="1.00" d=" M 261.98 261.98 C 301.33 261.97 340.67 261.97 380.02 261.98 C 380.03 301.33 380.03 340.67 380.02 380.02 C 340.67 380.03 301.33 380.03 261.98 380.02 C 261.97 340.67 261.97 301.33 261.98 261.98 Z" />
</svg>
