<?xml version="1.0" encoding="UTF-8" ?>
<!DOCTYPE svg PUBLIC "-//W3C//DTD SVG 1.1//EN" "http://www.w3.org/Graphics/SVG/1.1/DTD/svg11.dtd">
<svg width="512pt" height="512pt" viewBox="0 0 512 512" version="1.1" xmlns="http://www.w3.org/2000/svg">
<path fill="#003399" opacity="1.00" d=" M 0.00 0.00 L 512.00 0.00 L 512.00 512.00 L 0.00 512.00 L 0.00 0.00 Z" />
<path fill="#ffffff" opacity="1.00" d=" M 454.16 207.96 C 459.22 206.13 464.73 207.37 469.99 207.04 C 469.86 211.28 470.31 215.56 469.78 219.78 C 466.44 228.01 453.38 228.41 449.01 220.87 C 445.86 216.15 449.18 209.71 454.16 207.96 Z" />
<path fill="#003399" opacity="1.00" d=" M 456.27 209.23 C 461.78 207.15 469.51 211.76 468.26 218.09 C 466.14 225.57 454.62 226.57 450.93 219.88 C 448.41 215.59 451.77 210.26 456.27 209.23 Z" />
<path fill="#ffffff" opacity="1.00" d=" M 454.07 211.61 C 457.29 211.44 460.62 211.19 463.63 212.59 C 463.58 213.80 463.52 215.02 463.45 216.24 C 462.86 216.45 461.68 216.87 461.08 217.08 C 462.25 218.62 463.40 220.16 464.54 221.72 C 463.79 221.71 462.29 221.69 461.53 221.67 C 460.31 219.75 459.05 217.52 456.49 217.31 C 456.48 218.77 456.48 220.22 456.50 221.68 C 455.90 221.70 454.71 221.74 454.11 221.76 C 454.12 218.37 454.12 214.99 454.07 211.61 Z" />
<path fill="#003399" opacity="1.00" d=" M 456.49 213.09 C 458.44 213.26 460.85 212.93 461.78 215.15 C 460.02 215.62 458.22 215.85 456.42 215.97 C 456.44 215.25 456.47 213.81 456.49 213.09 Z" />
<path fill="#ffffff" opacity="1.00" d=" M 102.35 216.50 C 110.77 213.09 122.24 216.88 125.07 225.98 C 127.39 233.50 121.12 241.08 113.91 242.58 C 105.70 244.98 95.17 240.83 92.96 232.06 C 91.16 225.30 96.20 218.74 102.35 216.50 Z" />
<path fill="#ffffff" opacity="1.00" d=" M 74.21 221.27 C 80.58 218.55 89.68 221.80 91.04 229.06 C 92.31 235.43 86.01 240.85 79.99 240.78 C 74.44 241.37 68.34 237.75 67.26 232.07 C 66.37 227.32 69.93 222.88 74.21 221.27 Z" />
<path fill="#ffffff" opacity="1.00" d=" M 151.13 226.55 C 156.88 220.66 167.77 219.77 173.21 226.54 C 177.12 222.86 182.69 220.84 188.02 222.15 C 192.09 222.76 196.23 225.76 196.49 230.16 C 196.79 237.06 196.68 243.99 196.58 250.90 C 196.45 256.15 187.40 256.12 186.87 251.04 C 186.26 244.29 187.30 237.45 186.33 230.74 C 183.75 225.78 175.51 228.39 174.73 233.46 C 173.92 239.30 174.78 245.24 174.27 251.10 C 173.70 255.86 165.65 256.20 164.66 251.54 C 163.96 244.80 164.96 237.96 164.16 231.21 C 162.42 226.18 153.69 227.43 152.57 232.37 C 150.80 238.73 152.27 245.41 151.48 251.88 C 150.23 255.66 145.14 255.39 142.53 253.21 C 141.30 247.91 141.99 242.44 141.83 237.06 C 141.97 232.32 141.26 227.46 142.73 222.86 C 146.01 220.62 151.29 221.96 151.13 226.55 Z" />
<path fill="#ffffff" opacity="1.00" d=" M 292.00 226.95 C 297.38 221.48 306.27 220.08 312.87 224.19 C 322.50 229.82 322.71 245.52 313.83 251.92 C 309.72 254.97 304.27 255.29 299.40 254.35 C 296.47 253.58 294.17 251.49 291.78 249.74 C 291.68 254.50 292.10 259.28 291.56 264.02 C 290.48 268.29 282.63 267.87 282.83 263.05 C 282.63 250.69 282.74 238.32 282.78 225.96 C 282.62 222.51 286.95 220.61 289.68 222.34 C 291.55 223.10 291.64 225.27 292.00 226.95 Z" />
<path fill="#ffffff" opacity="1.00" d=" M 203.34 224.09 C 205.03 221.02 210.34 220.89 211.68 224.36 C 215.05 231.43 217.31 239.00 220.83 246.01 C 223.81 238.71 226.56 231.29 229.95 224.17 C 231.54 219.59 239.86 222.11 237.59 226.90 C 233.61 236.95 228.77 246.65 224.51 256.58 C 222.79 260.38 220.74 264.76 216.44 266.14 C 212.54 267.21 208.34 267.14 204.39 266.37 C 202.60 266.06 200.88 263.80 202.12 262.10 C 204.69 258.38 210.46 262.88 213.06 259.10 C 214.20 257.28 216.33 255.08 215.19 252.80 C 211.46 244.91 207.82 236.96 204.06 229.08 C 203.37 227.54 202.69 225.77 203.34 224.09 Z" />
<path fill="#ffffff" opacity="1.00" d=" M 249.77 222.91 C 255.22 221.18 261.23 221.43 266.64 223.21 C 269.27 224.27 272.55 225.91 272.96 229.05 C 273.30 232.13 269.31 233.10 267.01 232.20 C 264.26 230.63 262.46 227.20 258.99 227.15 C 256.51 226.97 253.62 226.97 251.74 228.86 C 250.77 230.31 251.56 232.26 253.20 232.76 C 259.45 235.46 267.09 234.87 272.53 239.43 C 275.27 241.41 275.21 245.29 274.16 248.18 C 272.20 252.36 267.42 254.11 263.12 254.57 C 257.37 255.04 251.07 255.24 245.99 252.05 C 243.96 250.73 241.86 248.66 242.19 246.01 C 241.96 243.74 244.59 243.34 246.04 242.41 C 249.53 243.62 250.68 247.75 254.15 248.96 C 257.99 250.29 262.55 249.98 265.71 247.21 C 265.49 245.44 265.28 243.38 263.31 242.75 C 257.78 240.67 251.58 240.54 246.41 237.47 C 244.19 236.12 242.13 233.80 242.39 231.02 C 242.60 226.99 246.21 224.12 249.77 222.91 Z" />
<path fill="#ffffff" opacity="1.00" d=" M 327.82 228.91 C 330.20 223.56 336.72 222.17 342.00 221.79 C 347.37 221.68 353.47 221.56 357.88 225.12 C 361.99 229.32 360.59 235.71 360.76 241.01 C 360.43 244.90 361.62 248.63 362.91 252.23 C 361.56 253.56 360.07 255.10 357.98 254.84 C 355.23 254.81 353.71 252.19 352.04 250.42 C 346.49 254.30 339.38 255.94 332.78 254.16 C 328.99 252.97 325.56 249.45 325.75 245.29 C 326.12 241.02 330.05 237.96 334.02 237.13 C 339.99 235.93 346.07 235.22 351.90 233.43 C 351.00 231.37 350.71 228.32 348.02 227.83 C 343.89 227.02 338.60 226.99 335.89 230.79 C 334.69 231.81 333.87 233.84 332.05 233.70 C 329.41 234.18 326.53 231.64 327.82 228.91 Z" />
<path fill="#ffffff" opacity="1.00" d=" M 380.52 222.75 C 388.34 220.55 398.40 221.63 403.54 228.58 C 405.56 230.85 403.97 234.59 400.95 234.69 C 398.16 235.40 396.68 232.60 394.95 231.04 C 390.86 226.28 381.93 227.25 379.39 233.15 C 377.71 237.47 377.82 243.27 381.49 246.59 C 384.15 249.01 388.11 249.05 391.44 248.30 C 394.87 247.36 396.32 243.82 398.88 241.72 C 400.65 241.05 402.93 241.22 404.16 242.83 C 405.72 244.74 404.57 247.44 403.13 249.06 C 398.98 253.96 392.08 255.04 386.00 254.74 C 381.33 254.70 376.52 253.22 373.12 249.92 C 366.22 243.14 367.53 229.94 375.86 224.88 C 377.31 223.97 378.88 223.26 380.52 222.75 Z" />
<path fill="#ffffff" opacity="1.00" d=" M 418.80 224.63 C 425.61 220.81 434.59 220.60 441.37 224.60 C 445.76 227.17 448.90 232.49 447.60 237.62 C 446.79 239.84 444.06 240.15 442.04 240.32 C 435.05 240.56 428.06 240.28 421.07 240.45 C 421.46 245.14 425.07 249.58 430.05 249.54 C 434.89 250.19 438.66 246.82 442.30 244.23 C 443.90 242.91 445.83 244.35 447.48 244.79 C 447.73 250.14 442.20 253.00 437.76 254.16 C 430.85 255.40 422.91 255.37 417.11 250.87 C 408.98 244.46 409.77 229.89 418.80 224.63 Z" />
<path fill="#ffffff" opacity="1.00" d=" M 51.42 223.61 C 57.30 220.96 66.00 225.44 65.21 232.39 C 63.39 240.64 50.87 242.23 46.60 235.19 C 43.60 230.89 46.81 225.04 51.42 223.61 Z" />
<path fill="#003399" opacity="1.00" d=" M 299.28 228.13 C 303.65 226.81 308.66 229.52 309.96 233.88 C 311.04 237.88 310.91 242.76 307.99 245.99 C 305.42 248.90 300.85 249.29 297.45 247.75 C 289.72 244.02 290.61 230.11 299.28 228.13 Z" />
<path fill="#003399" opacity="1.00" d=" M 425.47 228.55 C 429.00 226.63 434.13 227.02 436.78 230.28 C 438.08 231.80 438.41 233.84 438.98 235.69 C 433.01 235.78 427.04 235.78 421.08 235.69 C 421.80 232.96 422.84 230.01 425.47 228.55 Z" />
<path fill="#003399" opacity="1.00" d=" M 337.74 241.79 C 342.20 240.05 347.11 239.96 351.66 238.48 C 351.62 241.94 351.31 246.22 347.79 247.99 C 344.40 249.79 339.23 250.77 336.38 247.55 C 334.51 245.84 335.42 242.59 337.74 241.79 Z" />
<path fill="#ffffff" opacity="1.00" d=" M 48.81 242.60 C 55.02 239.83 63.05 241.37 67.14 247.03 C 74.99 240.22 88.49 241.49 94.04 250.58 C 101.24 245.39 111.10 244.34 119.24 247.85 C 125.99 250.71 131.73 257.35 131.43 265.00 C 131.41 276.38 131.43 287.77 131.41 299.16 C 116.49 299.16 101.56 299.15 86.64 299.16 C 86.61 293.35 86.68 287.55 86.59 281.74 C 78.63 281.77 70.68 281.76 62.72 281.75 C 62.72 278.92 62.74 276.09 62.76 273.27 C 55.85 273.26 48.94 273.26 42.03 273.27 C 42.03 266.15 41.91 259.02 42.05 251.90 C 42.06 247.75 45.22 244.29 48.81 242.60 Z" />
<path fill="#ffffff" opacity="1.00" d=" M 336.55 275.53 C 339.17 273.58 342.61 274.59 345.60 274.76 C 345.47 275.67 345.21 277.47 345.08 278.38 C 343.30 277.74 341.44 278.01 339.64 278.37 C 339.61 279.51 339.58 280.65 339.56 281.80 C 341.30 281.82 343.05 281.84 344.81 281.89 C 344.98 285.07 342.16 285.57 339.62 285.28 C 339.64 289.66 339.62 294.04 339.66 298.42 C 337.97 298.42 336.29 298.43 334.61 298.44 C 334.61 294.01 334.60 289.59 334.63 285.16 C 333.85 285.21 332.29 285.30 331.51 285.34 C 331.16 284.37 330.83 283.39 330.50 282.42 C 331.84 282.19 333.17 281.95 334.52 281.73 C 334.71 279.58 334.60 276.95 336.55 275.53 Z" />
<path fill="#ffffff" opacity="1.00" d=" M 362.26 276.99 C 363.34 275.91 364.20 274.10 366.02 274.39 C 367.81 274.15 368.66 275.92 369.71 277.02 C 368.70 278.22 367.80 279.98 365.95 279.77 C 364.10 279.99 363.26 278.17 362.26 276.99 Z" />
<path fill="#ffffff" opacity="1.00" d=" M 205.49 295.73 C 205.25 288.77 205.22 281.77 205.54 274.80 C 207.12 274.66 208.70 274.50 210.28 274.35 C 210.38 281.14 210.03 287.95 210.42 294.73 C 211.42 295.20 212.48 295.41 213.59 295.36 C 213.70 296.43 213.80 297.51 213.90 298.60 C 210.98 299.33 206.11 299.64 205.49 295.73 Z" />
<path fill="#ffffff" opacity="1.00" d=" M 280.98 275.96 C 283.52 273.40 287.46 274.60 290.61 274.80 C 290.31 276.00 290.00 277.20 289.68 278.40 C 287.97 277.94 286.25 277.90 284.55 278.31 C 284.54 279.49 284.53 280.67 284.53 281.85 C 286.27 281.85 288.00 281.85 289.74 281.87 C 289.34 283.02 288.94 284.18 288.52 285.33 C 287.19 285.27 285.86 285.21 284.54 285.16 C 284.55 289.58 284.54 293.99 284.57 298.41 C 282.87 298.42 281.18 298.43 279.50 298.44 C 279.51 294.07 279.49 289.70 279.54 285.34 C 278.23 285.17 276.92 284.99 275.62 284.81 C 275.64 284.18 275.67 282.93 275.69 282.30 C 276.93 282.11 278.17 281.92 279.43 281.74 C 279.67 279.77 279.27 277.38 280.98 275.96 Z" />
<path fill="#ffffff" opacity="1.00" d=" M 424.30 274.83 C 425.82 274.67 427.35 274.52 428.88 274.37 C 429.21 282.18 427.90 290.18 429.72 297.84 C 427.89 298.21 425.69 299.48 424.26 297.59 C 421.33 299.16 417.29 300.04 414.84 297.16 C 411.51 292.73 411.90 284.78 417.18 281.96 C 419.41 280.93 421.92 281.74 424.25 281.89 C 424.23 279.53 424.23 277.18 424.30 274.83 Z" />
<path fill="#ffffff" opacity="1.00" d=" M 360.35 281.72 C 363.05 281.99 365.78 281.93 368.49 281.80 C 368.60 287.34 368.51 292.89 368.57 298.43 C 366.90 298.43 365.23 298.43 363.57 298.43 C 363.59 294.01 363.58 289.59 363.60 285.18 C 362.42 285.20 361.25 285.22 360.08 285.25 C 360.15 284.07 360.25 282.89 360.35 281.72 Z" />
<path fill="#ffffff" opacity="1.00" d=" M 157.99 282.60 C 161.22 281.55 164.69 281.01 168.05 281.74 C 169.84 282.31 171.62 283.88 171.51 285.92 C 171.70 290.00 171.08 294.19 172.48 298.13 C 170.67 298.34 168.38 299.65 167.35 297.38 C 163.85 300.05 156.76 299.35 156.64 293.98 C 156.66 288.63 163.12 288.21 167.10 288.13 C 166.80 286.92 166.50 285.72 166.19 284.53 C 163.81 284.74 161.47 285.24 159.09 285.45 C 158.81 284.74 158.27 283.31 157.99 282.60 Z" />
<path fill="#ffffff" opacity="1.00" d=" M 184.55 282.87 C 185.85 282.36 187.15 281.84 188.45 281.31 C 188.77 281.70 189.41 282.48 189.74 282.87 C 192.89 281.04 197.71 280.48 199.97 283.96 C 202.12 287.55 201.98 292.43 200.12 296.11 C 198.05 299.52 193.56 299.51 190.21 298.29 C 190.23 300.46 190.23 302.64 190.22 304.82 C 188.60 304.89 186.99 304.95 185.38 305.01 C 184.99 297.64 186.29 290.10 184.55 282.87 Z" />
<path fill="#ffffff" opacity="1.00" d=" M 216.32 282.66 C 220.49 281.36 226.79 279.89 229.59 284.30 C 230.11 288.90 229.41 293.63 230.75 298.15 C 229.04 298.27 226.72 299.73 225.83 297.45 C 223.14 298.87 219.73 299.62 217.00 297.91 C 214.84 296.58 214.69 293.54 215.57 291.41 C 217.79 288.20 222.14 288.40 225.59 288.10 C 225.19 286.83 225.02 284.28 223.08 284.65 C 221.21 284.55 219.45 285.28 217.67 285.71 C 217.33 284.94 216.66 283.42 216.32 282.66 Z" />
<path fill="#ffffff" opacity="1.00" d=" M 236.22 296.86 C 232.36 292.61 233.44 284.25 239.11 282.05 C 242.28 280.79 245.79 281.55 248.83 282.85 C 248.22 283.91 247.61 284.97 247.00 286.04 C 244.84 285.00 241.82 283.72 240.05 286.12 C 238.79 288.49 238.81 291.63 239.85 294.09 C 241.53 296.81 244.94 295.42 247.28 294.57 C 247.44 295.77 247.60 296.98 247.74 298.20 C 243.93 299.15 239.33 299.85 236.22 296.86 Z" />
<path fill="#ffffff" opacity="1.00" d=" M 253.30 297.68 C 248.00 293.94 248.97 284.34 255.11 281.95 C 258.14 281.02 262.10 281.03 264.31 283.66 C 266.17 285.79 266.25 288.74 266.42 291.41 C 262.51 291.43 258.61 291.41 254.71 291.47 C 255.04 296.56 261.00 296.23 264.34 294.34 C 264.75 295.09 265.57 296.60 265.98 297.36 C 262.03 299.06 257.19 300.10 253.30 297.68 Z" />
<path fill="#ffffff" opacity="1.00" d=" M 295.23 282.12 C 298.91 280.61 303.85 281.29 306.15 284.84 C 308.43 288.50 308.19 293.99 304.93 297.02 C 301.61 299.80 296.33 299.79 293.03 297.01 C 288.93 292.92 289.69 284.61 295.23 282.12 Z" />
<path fill="#ffffff" opacity="1.00" d=" M 310.33 282.58 C 312.46 281.90 315.65 280.36 316.02 283.85 C 317.97 281.73 320.65 281.05 323.44 281.64 C 322.92 282.86 322.40 284.08 321.88 285.30 C 320.03 285.27 318.15 285.45 316.65 286.64 C 316.80 290.57 316.74 294.50 316.78 298.43 C 315.09 298.42 313.40 298.42 311.72 298.43 C 311.32 293.17 312.89 287.46 310.33 282.58 Z" />
<path fill="#ffffff" opacity="1.00" d=" M 346.24 282.63 C 347.63 282.15 349.03 281.68 350.43 281.22 C 350.79 281.87 351.50 283.18 351.86 283.83 C 353.71 281.82 356.21 281.13 358.89 281.39 C 358.47 282.72 358.03 284.05 357.57 285.37 C 355.75 285.27 353.95 285.47 352.43 286.54 C 352.58 290.50 352.52 294.46 352.55 298.43 C 350.85 298.43 349.16 298.43 347.47 298.43 C 347.21 293.16 348.42 287.62 346.24 282.63 Z" />
<path fill="#ffffff" opacity="1.00" d=" M 378.15 281.92 C 380.98 281.10 384.54 281.01 386.79 283.23 C 389.00 285.31 389.18 288.56 389.47 291.40 C 385.40 291.46 381.33 291.31 377.27 291.60 C 378.18 292.93 378.65 295.03 380.47 295.46 C 382.80 296.09 385.10 295.08 387.28 294.36 C 387.69 295.09 388.51 296.57 388.92 297.30 C 384.80 299.20 379.57 300.15 375.65 297.30 C 370.98 293.16 372.11 284.17 378.15 281.92 Z" />
<path fill="#ffffff" opacity="1.00" d=" M 392.45 282.43 C 394.53 282.02 397.63 279.97 398.01 283.40 C 400.95 281.42 406.07 279.96 408.39 283.53 C 409.37 288.41 408.60 293.47 408.88 298.42 C 407.21 298.42 405.55 298.41 403.89 298.40 C 403.99 294.30 404.54 290.13 403.77 286.08 C 402.81 283.60 400.14 285.32 398.40 285.77 C 398.35 289.99 398.36 294.21 398.39 298.43 C 396.69 298.43 394.99 298.42 393.31 298.41 C 393.08 293.09 394.04 287.61 392.45 282.43 Z" />
<path fill="#ffffff" opacity="1.00" d=" M 433.48 287.02 C 434.78 280.71 442.35 280.46 447.17 282.66 C 446.71 283.41 445.80 284.89 445.35 285.63 C 442.98 284.65 438.78 283.30 438.36 287.13 C 441.00 288.21 444.00 288.80 446.22 290.70 C 448.51 293.03 447.17 297.12 444.34 298.31 C 440.68 300.07 436.63 298.52 433.08 297.29 C 433.38 296.52 434.00 294.96 434.31 294.19 C 436.88 295.16 439.84 296.57 442.54 295.14 C 443.27 292.01 439.39 292.27 437.50 291.19 C 435.43 290.67 434.39 288.76 433.48 287.02 Z" />
<path fill="#003399" opacity="1.00" d=" M 256.72 284.62 C 257.91 284.48 259.11 284.56 260.31 284.59 C 260.54 285.78 261.09 286.97 260.90 288.22 C 258.89 288.36 256.87 288.30 254.87 288.27 C 255.32 286.99 255.43 285.39 256.72 284.62 Z" />
<path fill="#003399" opacity="1.00" d=" M 377.49 288.18 C 378.39 286.71 378.90 283.97 381.21 284.44 C 383.51 284.12 383.84 286.61 384.10 288.31 C 381.89 288.29 379.69 288.26 377.49 288.18 Z" />
<path fill="#003399" opacity="1.00" d=" M 190.18 285.90 C 191.80 285.18 193.98 283.81 195.40 285.65 C 197.06 287.98 196.70 291.30 196.04 293.93 C 195.34 296.53 192.28 295.55 190.32 295.64 C 190.24 292.39 190.25 289.14 190.18 285.90 Z" />
<path fill="#003399" opacity="1.00" d=" M 297.32 285.31 C 299.18 283.59 302.08 285.54 302.17 287.79 C 302.45 290.22 302.61 292.99 301.11 295.09 C 299.60 296.20 296.73 295.95 296.29 293.83 C 295.44 291.16 295.03 287.33 297.32 285.31 Z" />
<path fill="#003399" opacity="1.00" d=" M 418.77 285.79 C 420.20 283.99 422.55 284.88 424.32 285.54 C 424.20 288.51 424.19 291.48 424.35 294.45 C 422.73 295.80 420.69 295.85 418.73 295.47 C 417.85 292.38 416.88 288.70 418.77 285.79 Z" />
<path fill="#003399" opacity="1.00" d=" M 161.64 291.75 C 163.41 291.47 165.19 291.23 166.98 291.03 C 166.94 292.31 166.84 293.59 166.70 294.87 C 165.40 296.46 163.19 295.63 161.49 295.45 C 161.52 294.21 161.57 292.98 161.64 291.75 Z" />
<path fill="#003399" opacity="1.00" d=" M 219.67 293.81 C 219.65 290.86 223.32 291.32 225.36 291.09 C 225.33 292.45 225.31 293.82 225.29 295.18 C 223.44 295.82 219.87 296.70 219.67 293.81 Z" />
</svg>
