<?xml version="1.0" encoding="UTF-8" ?>
<!DOCTYPE svg PUBLIC "-//W3C//DTD SVG 1.1//EN" "http://www.w3.org/Graphics/SVG/1.1/DTD/svg11.dtd">
<svg width="512pt" height="512pt" viewBox="0 0 512 512" version="1.1" xmlns="http://www.w3.org/2000/svg">
<path fill="#a60809" opacity="1.00" d=" M 0.00 0.00 L 512.00 0.00 L 512.00 512.00 L 0.00 512.00 L 0.00 0.00 Z" />
<path fill="#ffffff" opacity="1.00" d=" M 47.65 199.17 C 53.79 199.12 59.92 199.08 66.06 199.20 C 70.09 228.55 75.08 257.77 79.20 287.11 C 79.24 288.36 79.72 289.51 80.63 290.38 C 80.92 276.61 80.48 262.80 80.50 249.02 C 80.71 232.39 80.44 215.76 80.48 199.13 C 84.28 199.13 88.08 199.13 91.88 199.13 C 91.88 235.37 91.84 271.61 91.90 307.85 C 85.39 308.50 78.88 309.07 72.40 309.91 C 68.29 283.27 64.18 256.62 60.10 229.96 C 59.76 228.08 59.87 225.92 58.35 224.52 C 58.27 253.41 58.72 282.34 59.08 311.25 C 55.25 311.68 51.49 312.57 47.65 312.99 C 47.65 275.05 47.65 237.11 47.65 199.17 Z" />
<path fill="#ffffff" opacity="1.00" d=" M 129.73 199.17 C 138.41 199.10 147.09 199.11 155.77 199.16 C 155.75 202.67 155.74 206.17 155.75 209.68 C 150.88 209.69 146.01 209.69 141.14 209.66 C 141.17 222.20 141.07 234.73 141.19 247.26 C 145.98 246.59 150.82 246.80 155.65 246.75 C 155.76 250.33 155.78 253.91 155.68 257.49 C 150.84 257.41 146.01 257.43 141.18 257.45 C 141.28 269.57 141.29 281.70 141.18 293.82 C 146.00 293.56 150.84 293.47 155.62 292.71 C 155.70 296.20 155.82 299.69 155.77 303.18 C 147.08 303.57 138.41 304.28 129.74 304.89 C 129.72 269.65 129.76 234.41 129.73 199.17 Z" />
<path fill="#ffffff" opacity="1.00" d=" M 184.64 199.15 C 196.65 199.12 208.66 199.11 220.67 199.15 C 220.64 202.66 220.64 206.18 220.67 209.69 C 216.56 209.71 212.46 209.71 208.36 209.63 C 208.54 240.00 208.12 270.36 208.26 300.74 C 204.44 300.64 200.63 300.84 196.85 301.37 C 196.86 270.80 196.80 240.22 196.88 209.65 C 192.79 209.73 188.70 209.71 184.61 209.64 C 184.64 206.14 184.64 202.65 184.64 199.15 Z" />
<path fill="#ffffff" opacity="1.00" d=" M 255.09 199.15 C 263.77 199.15 272.44 199.06 281.12 199.20 C 281.17 202.70 281.11 206.20 281.07 209.70 C 276.12 209.70 271.16 209.69 266.20 209.68 C 266.23 222.08 266.28 234.48 266.18 246.88 C 271.04 246.76 275.91 246.74 280.78 246.85 C 280.79 250.40 280.76 253.96 280.72 257.52 C 275.92 257.42 271.12 257.47 266.32 257.43 C 266.52 271.65 266.40 285.88 266.38 300.11 C 262.63 300.16 258.89 300.14 255.14 300.12 C 255.04 266.47 255.15 232.81 255.09 199.15 Z" />
<path fill="#ffffff" opacity="1.00" d=" M 317.31 199.13 C 320.98 199.13 324.65 199.13 328.32 199.14 C 328.26 229.80 328.35 260.46 328.27 291.11 C 333.30 291.38 338.32 291.57 343.35 291.67 C 343.35 295.02 343.35 298.36 343.37 301.71 C 334.67 301.34 325.96 301.36 317.28 300.65 C 317.38 266.81 317.32 232.97 317.31 199.13 Z" />
<path fill="#ffffff" opacity="1.00" d=" M 375.47 199.20 C 379.13 199.16 382.79 199.17 386.46 199.18 C 386.48 234.22 386.45 269.27 386.48 304.32 C 382.78 304.04 379.10 303.73 375.41 303.51 C 375.46 268.74 375.34 233.97 375.47 199.20 Z" />
<path fill="#ffffff" opacity="1.00" d=" M 424.38 199.12 C 428.42 199.13 432.47 199.14 436.52 199.11 C 438.77 212.84 440.96 226.59 443.38 240.29 C 444.12 239.72 444.54 239.00 444.64 238.10 C 446.50 225.08 448.81 212.13 450.74 199.13 C 454.88 199.14 459.02 199.11 463.16 199.17 C 459.99 215.72 457.04 232.30 453.77 248.83 C 453.42 250.56 453.56 252.34 453.86 254.07 C 457.10 273.30 459.83 292.61 462.98 311.85 C 458.59 311.54 454.23 311.06 449.88 310.45 C 448.21 294.23 445.81 278.08 444.03 261.87 C 443.72 261.55 443.11 260.90 442.80 260.57 C 440.89 276.78 438.51 292.92 436.56 309.12 C 432.60 308.57 428.61 308.27 424.63 308.06 C 427.27 293.41 429.25 278.65 431.85 264.00 C 432.52 259.02 433.76 254.09 433.85 249.04 C 433.48 244.45 432.25 239.98 431.45 235.45 C 428.98 223.36 426.75 211.23 424.38 199.12 Z" />
</svg>
