<?xml version="1.0" encoding="UTF-8" ?>
<!DOCTYPE svg PUBLIC "-//W3C//DTD SVG 1.1//EN" "http://www.w3.org/Graphics/SVG/1.1/DTD/svg11.dtd">
<svg width="512pt" height="512pt" viewBox="0 0 512 512" version="1.1" xmlns="http://www.w3.org/2000/svg">
<path fill="#006492" opacity="1.00" d=" M 0.00 0.00 L 512.00 0.00 L 512.00 512.00 L 0.00 512.00 L 0.00 0.00 Z" />
<path fill="#ffffff" opacity="1.00" d=" M 170.64 117.47 C 210.45 117.48 250.25 117.45 290.05 117.49 C 309.28 118.29 328.59 125.92 342.08 139.87 C 350.46 148.19 356.10 159.05 358.80 170.50 C 369.02 176.41 378.29 184.38 384.41 194.59 C 391.36 205.72 394.36 218.99 394.20 232.03 C 393.27 254.63 384.99 277.03 370.26 294.28 C 354.86 312.52 332.39 324.24 308.87 327.73 C 294.01 330.17 278.92 328.88 263.94 329.36 C 259.35 350.81 254.51 372.21 249.65 393.60 C 216.82 393.53 183.98 393.57 151.15 393.58 C 154.40 379.13 157.74 364.69 161.00 350.24 C 148.00 350.15 134.99 350.18 121.99 350.22 C 120.48 350.24 119.00 350.06 117.54 349.70 C 124.54 321.24 130.61 292.53 137.29 263.98 C 148.39 215.14 159.55 166.31 170.64 117.47 Z" />
<path fill="#006492" opacity="1.00" d=" M 142.10 330.65 C 156.95 265.99 171.49 201.25 186.41 136.61 C 216.26 136.74 246.12 136.63 275.97 136.67 C 282.96 136.75 290.02 136.24 296.94 137.61 C 310.75 139.94 324.23 146.98 332.44 158.58 C 339.97 168.98 342.32 182.49 340.56 195.05 C 338.10 215.64 327.65 235.31 311.33 248.24 C 295.83 260.68 275.75 266.62 256.01 266.35 C 242.27 266.37 228.54 266.27 214.81 266.40 C 210.20 287.88 205.29 309.29 200.54 330.73 C 181.06 330.62 161.58 330.77 142.10 330.65 Z" />
<path fill="#ffffff" opacity="1.00" d=" M 235.80 176.16 C 245.54 176.15 255.29 176.15 265.04 176.16 C 271.89 176.08 278.99 179.43 282.53 185.44 C 285.57 190.34 286.19 196.52 284.61 202.03 C 280.96 217.90 265.27 230.03 248.98 229.46 C 240.40 229.42 231.81 229.45 223.23 229.44 C 227.37 211.67 231.63 193.93 235.80 176.16 Z" />
<path fill="#006492" opacity="1.00" d=" M 251.38 195.41 C 256.25 195.46 261.12 195.36 266.00 195.51 C 265.03 204.11 256.67 210.89 248.06 210.24 C 248.76 205.21 250.20 200.34 251.38 195.41 Z" />
<path fill="#006492" opacity="1.00" d=" M 360.00 195.83 C 362.80 197.30 364.45 200.10 366.30 202.55 C 373.70 213.03 375.78 226.51 373.99 239.03 C 371.65 256.84 363.61 274.06 350.63 286.60 C 338.13 298.99 321.30 306.48 303.98 308.96 C 297.36 310.02 290.64 309.70 283.96 309.75 C 272.14 309.72 260.32 309.80 248.50 309.70 C 243.56 331.18 238.77 352.69 234.09 374.22 C 214.57 374.26 195.04 374.22 175.52 374.24 C 177.45 366.29 179.32 358.31 180.90 350.29 C 192.72 349.89 204.58 350.61 216.38 349.91 C 220.98 328.49 225.88 307.13 230.61 285.74 C 240.08 285.73 249.55 285.79 259.01 285.72 C 280.68 285.40 302.50 279.03 320.11 266.21 C 342.76 249.99 357.41 223.46 360.00 195.83 Z" />
</svg>
