<?xml version="1.0" encoding="UTF-8" ?>
<!DOCTYPE svg PUBLIC "-//W3C//DTD SVG 1.1//EN" "http://www.w3.org/Graphics/SVG/1.1/DTD/svg11.dtd">
<svg width="512pt" height="512pt" viewBox="0 0 512 512" version="1.1" xmlns="http://www.w3.org/2000/svg">
<path fill="#006492" opacity="1.00" d=" M 0.00 0.00 L 512.00 0.00 L 512.00 512.00 L 0.00 512.00 L 0.00 0.00 Z" />
<path fill="#ffffff" opacity="1.00" d=" M 175.62 124.15 C 213.74 124.16 251.86 124.11 289.99 124.17 C 307.80 124.86 325.97 132.65 336.98 147.00 C 345.36 157.64 348.52 171.61 347.56 184.95 C 345.88 204.92 337.88 224.50 324.26 239.32 C 306.86 258.56 280.72 268.64 255.02 268.64 C 239.17 268.56 223.31 268.77 207.46 268.53 C 204.19 280.23 202.14 292.29 199.27 304.11 C 196.62 316.28 193.90 328.43 191.17 340.58 C 169.61 340.58 148.05 340.65 126.49 340.55 C 142.85 268.41 159.27 196.29 175.62 124.15 Z" />
<path fill="#006492" opacity="1.00" d=" M 216.29 227.61 C 221.13 207.64 225.60 187.58 230.57 167.65 C 241.38 167.74 252.19 167.69 263.00 167.67 C 268.91 167.72 274.92 169.70 279.29 173.78 C 285.24 179.25 287.37 188.14 285.45 195.87 C 282.15 212.52 267.01 226.06 250.13 227.54 C 238.85 227.75 227.57 227.62 216.29 227.61 Z" />
<path fill="#ffffff" opacity="1.00" d=" M 247.94 189.73 C 253.27 189.47 258.61 189.57 263.95 189.68 C 262.99 198.96 253.73 206.72 244.38 205.63 C 245.49 200.31 247.02 195.09 247.94 189.73 Z" />
<path fill="#ffffff" opacity="1.00" d=" M 369.59 189.74 C 371.77 192.76 374.44 195.41 376.44 198.57 C 382.80 208.04 385.33 219.66 384.98 230.95 C 383.92 252.00 375.63 272.77 361.29 288.30 C 343.57 307.68 317.00 317.49 291.02 317.26 C 275.53 317.21 260.04 317.32 244.55 317.21 C 239.00 341.18 233.90 365.27 228.39 389.25 C 206.93 389.21 185.47 389.22 164.01 389.24 C 165.48 380.26 168.02 371.48 169.78 362.55 C 182.91 362.43 196.05 362.64 209.18 362.44 C 214.05 338.42 219.89 314.59 224.88 290.59 C 235.25 290.58 245.62 290.59 256.00 290.59 C 282.01 290.38 308.28 282.17 328.64 265.72 C 348.87 249.70 362.50 226.10 367.59 200.91 C 368.54 197.23 368.48 193.38 369.59 189.74 Z" />
</svg>
