<?xml version="1.0" encoding="UTF-8" ?>
<!DOCTYPE svg PUBLIC "-//W3C//DTD SVG 1.1//EN" "http://www.w3.org/Graphics/SVG/1.1/DTD/svg11.dtd">
<svg width="512pt" height="512pt" viewBox="0 0 512 512" version="1.1" xmlns="http://www.w3.org/2000/svg">
<path fill="#007fc5" opacity="1.00" d=" M 0.00 0.00 L 512.00 0.00 L 512.00 512.00 L 0.00 512.00 L 0.00 0.00 Z" />
<path fill="#ffffff" opacity="1.00" d=" M 195.26 144.16 C 219.73 136.41 246.49 135.76 271.22 142.69 C 271.17 165.90 271.20 189.10 271.21 212.31 C 256.43 205.17 238.93 204.27 223.39 209.44 C 206.78 214.79 192.28 226.53 183.78 241.81 C 177.74 252.35 175.12 265.35 178.77 277.14 C 181.80 287.51 189.78 295.92 199.27 300.78 C 208.72 305.59 219.47 307.80 230.05 307.41 C 248.14 306.56 265.68 298.25 277.95 284.95 C 287.21 274.90 294.09 261.91 294.24 248.00 C 294.26 215.74 294.20 183.49 294.27 151.23 C 297.88 153.09 301.51 154.94 304.93 157.14 C 321.57 167.75 338.77 177.73 357.34 184.58 C 368.44 188.57 380.10 191.63 391.97 191.43 C 395.15 191.18 398.52 192.96 399.56 196.08 C 401.22 201.11 399.39 206.50 397.18 211.06 C 389.43 226.11 374.48 236.64 358.32 240.96 C 360.36 257.69 359.08 274.84 354.21 291.00 C 346.84 315.80 330.79 337.83 309.65 352.70 C 264.45 384.78 198.01 383.28 154.91 348.15 C 132.28 329.94 116.97 302.88 113.27 274.05 C 109.38 246.50 115.12 217.52 130.14 194.01 C 144.98 170.31 168.66 152.56 195.26 144.16 Z" />
</svg>
