<?xml version="1.0" encoding="UTF-8" ?>
<!DOCTYPE svg PUBLIC "-//W3C//DTD SVG 1.1//EN" "http://www.w3.org/Graphics/SVG/1.1/DTD/svg11.dtd">
<svg width="512pt" height="512pt" viewBox="0 0 512 512" version="1.1" xmlns="http://www.w3.org/2000/svg">
<path fill="#002e9d" opacity="1.00" d=" M 0.00 0.00 L 512.00 0.00 L 512.00 512.00 L 0.00 512.00 L 0.00 0.00 Z" />
<path fill="#ffffff" opacity="1.00" d=" M 121.83 186.74 C 127.76 186.69 133.68 186.76 139.61 186.69 C 139.70 196.85 139.61 207.01 139.66 217.18 C 150.58 217.17 161.50 217.20 172.43 217.16 C 172.45 222.21 172.41 227.26 172.46 232.31 C 161.51 232.35 150.57 232.28 139.62 232.35 C 139.76 252.55 139.41 272.77 139.91 292.97 C 140.11 298.54 141.72 305.19 147.25 307.78 C 155.43 311.27 164.44 308.86 172.38 305.92 C 172.50 311.36 172.41 316.80 172.44 322.25 C 163.06 324.81 153.08 326.41 143.45 324.30 C 136.10 322.66 129.18 318.08 125.82 311.20 C 122.81 305.28 121.96 298.56 121.81 292.00 C 121.87 272.11 121.77 252.22 121.86 232.33 C 117.84 232.31 113.81 232.32 109.79 232.31 C 109.80 227.27 109.80 222.23 109.79 217.19 C 113.80 217.17 117.80 217.17 121.81 217.18 C 121.86 207.04 121.81 196.89 121.83 186.74 Z" />
<path fill="#ffffff" opacity="1.00" d=" M 334.89 230.90 C 343.68 219.87 358.14 214.56 371.98 214.71 C 383.02 214.41 393.72 218.02 403.54 222.76 C 403.55 229.55 403.59 236.34 403.52 243.12 C 400.60 242.11 398.44 239.79 395.81 238.26 C 386.82 232.58 375.84 228.88 365.16 231.10 C 356.88 232.74 349.93 238.71 346.17 246.15 C 341.02 256.00 340.85 267.46 341.57 278.29 C 342.53 286.98 345.42 295.89 351.76 302.19 C 357.00 307.52 364.60 310.05 371.99 309.80 C 381.10 309.99 389.92 306.45 397.25 301.23 C 399.32 299.77 401.10 297.84 403.50 296.91 C 403.63 303.69 403.51 310.48 403.58 317.27 C 396.16 320.98 388.30 323.86 380.09 325.17 C 365.70 326.73 349.84 324.31 338.78 314.28 C 326.69 303.55 322.59 286.61 322.70 271.01 C 322.33 256.84 325.85 242.09 334.89 230.90 Z" />
<path fill="#ffffff" opacity="1.00" d=" M 175.83 217.19 C 182.00 217.16 188.16 217.20 194.33 217.16 C 200.56 244.36 207.02 271.51 213.00 298.76 C 221.68 271.69 229.77 244.42 238.09 217.24 C 243.08 217.13 248.08 217.15 253.07 217.23 C 261.07 243.24 269.41 269.15 277.47 295.14 C 277.75 296.19 278.33 297.13 278.94 298.03 C 284.42 271.04 290.49 244.16 296.11 217.19 C 302.18 217.17 308.26 217.16 314.33 217.20 C 305.31 252.52 296.55 287.90 287.40 323.18 C 281.86 323.12 276.33 323.16 270.79 323.15 C 262.20 296.10 253.64 269.03 245.06 241.98 C 236.45 269.04 228.15 296.20 219.39 323.21 C 213.88 323.08 208.38 323.18 202.87 323.14 C 193.91 287.81 184.75 252.53 175.83 217.19 Z" />
</svg>
