<?xml version="1.0" encoding="UTF-8" ?>
<!DOCTYPE svg PUBLIC "-//W3C//DTD SVG 1.1//EN" "http://www.w3.org/Graphics/SVG/1.1/DTD/svg11.dtd">
<svg width="512pt" height="512pt" viewBox="0 0 512 512" version="1.1" xmlns="http://www.w3.org/2000/svg">
<path fill="#454442" opacity="1.00" d=" M 0.00 0.00 L 512.00 0.00 L 512.00 512.00 L 0.00 512.00 L 0.00 0.00 Z" />
<path fill="#ffffff" opacity="1.00" d=" M 243.85 130.26 C 247.74 130.32 252.03 131.31 254.52 134.56 C 257.11 137.97 256.46 142.84 254.24 146.26 C 252.06 149.29 248.32 150.62 244.72 150.94 C 244.65 155.23 244.69 159.53 244.67 163.82 C 246.40 165.46 249.52 166.45 249.97 168.96 C 248.41 170.61 246.50 171.84 244.68 173.17 C 244.53 178.87 244.90 184.57 244.54 190.26 C 244.05 184.59 244.43 178.90 244.23 173.22 C 242.24 171.67 240.26 170.13 238.25 168.61 C 240.22 166.80 242.69 165.46 244.23 163.23 C 244.43 159.09 244.24 154.94 244.32 150.80 C 235.66 149.57 227.39 146.54 218.88 144.63 C 216.31 144.15 212.93 143.81 211.27 146.33 C 209.51 148.37 210.48 151.08 211.54 153.20 C 208.84 151.29 206.28 148.53 206.45 144.99 C 205.94 137.39 213.85 131.53 221.01 132.55 C 228.82 133.82 236.07 137.39 243.87 138.63 C 246.32 139.18 249.89 138.03 249.75 135.01 C 249.79 131.91 246.06 131.30 243.85 130.26 Z" />
<path fill="#ffffff" opacity="1.00" d=" M 260.24 144.03 C 264.71 140.87 268.91 137.35 273.30 134.09 C 273.26 144.55 273.21 155.00 273.33 165.46 C 277.21 162.80 280.67 159.59 284.19 156.48 C 287.02 159.70 289.81 162.97 292.88 165.98 C 294.16 164.92 295.46 163.87 296.85 162.94 C 295.35 164.84 292.31 166.12 292.83 168.97 C 292.77 178.02 293.01 187.07 292.65 196.11 C 292.55 202.27 289.04 208.55 283.21 210.97 C 280.01 212.62 276.35 212.82 272.82 212.75 C 277.23 210.72 281.41 207.10 281.68 201.90 C 283.05 191.32 282.01 180.59 282.34 169.94 C 280.58 167.77 278.79 165.61 277.03 163.43 C 275.83 164.22 274.64 165.03 273.44 165.81 C 273.07 174.44 273.34 183.09 273.29 191.73 C 274.24 192.67 275.19 193.62 276.15 194.58 C 277.34 193.82 278.53 193.07 279.75 192.34 C 275.78 195.85 271.58 199.11 267.29 202.22 C 264.89 199.83 262.44 197.50 259.96 195.20 C 258.96 195.80 257.95 196.39 256.93 196.95 C 258.55 195.37 260.37 194.04 262.29 192.85 C 262.52 177.91 262.37 162.95 262.37 148.01 C 262.62 146.29 261.22 145.19 260.24 144.03 Z" />
<path fill="#ffffff" opacity="1.00" d=" M 204.66 170.46 C 207.04 160.37 215.31 152.31 225.07 149.23 C 221.47 152.39 217.04 155.67 216.31 160.75 C 222.58 157.79 228.96 155.05 235.28 152.21 C 235.22 161.14 235.28 170.06 235.25 178.98 C 229.99 181.53 224.75 184.12 219.58 186.84 C 225.55 194.11 236.98 196.25 244.76 190.70 C 249.65 188.15 252.50 183.30 255.46 178.88 C 255.01 187.80 250.48 197.18 242.02 201.01 C 231.05 207.00 216.14 202.97 209.17 192.75 C 204.50 186.40 203.24 178.09 204.66 170.46 Z" />
<path fill="#ffffff" opacity="1.00" d=" M 302.57 167.77 C 309.15 164.64 315.21 160.56 321.57 157.02 C 324.35 162.03 327.27 166.97 330.08 171.97 C 324.43 175.77 319.35 180.43 313.34 183.69 C 313.13 185.29 311.91 187.24 313.58 188.44 C 316.32 190.87 318.75 194.13 322.06 195.60 C 325.47 193.16 328.48 190.19 332.04 187.95 C 326.44 193.47 319.63 197.58 313.83 202.88 C 310.08 199.76 306.48 196.47 302.96 193.10 C 301.67 194.07 300.37 195.02 299.02 195.89 C 300.30 194.36 302.76 193.32 302.56 191.01 C 302.61 183.26 302.55 175.51 302.57 167.77 Z" />
<path fill="#454442" opacity="1.00" d=" M 215.62 161.68 C 218.20 160.28 220.86 159.00 223.60 157.92 C 223.76 166.70 223.68 175.49 223.65 184.28 C 222.15 184.92 220.64 185.56 219.13 186.17 C 214.33 179.04 212.61 169.86 215.62 161.68 Z" />
<path fill="#454442" opacity="1.00" d=" M 313.23 163.00 C 316.48 167.56 318.94 172.62 321.96 177.33 C 319.07 179.42 316.42 182.12 312.90 183.13 C 312.81 176.43 312.35 169.66 313.23 163.00 Z" />
<path fill="#ffffff" opacity="1.00" d=" M 147.00 216.15 C 147.74 219.40 147.66 222.95 145.74 225.79 C 143.74 229.44 139.69 231.14 135.78 231.83 C 135.52 250.03 135.92 268.22 135.80 286.42 C 134.66 285.83 133.53 285.13 133.04 283.88 C 124.22 267.73 115.39 251.58 106.52 235.46 C 103.97 232.52 103.29 227.52 99.02 226.51 C 96.15 225.92 95.34 229.18 94.22 231.09 C 94.00 226.65 94.90 221.64 98.94 219.06 C 103.82 215.30 110.84 218.44 113.44 223.44 C 119.14 233.48 124.54 243.69 130.18 253.76 C 131.81 256.57 133.04 259.63 135.12 262.16 C 135.42 252.02 135.19 241.86 135.36 231.72 C 131.48 231.42 128.13 229.37 124.97 227.28 C 127.76 224.39 130.43 221.38 132.97 218.26 C 135.75 220.32 139.36 222.48 142.89 221.05 C 145.03 220.21 145.98 218.03 147.00 216.15 Z" />
<path fill="#ffffff" opacity="1.00" d=" M 379.24 225.08 C 383.62 222.02 387.95 218.88 392.43 215.97 C 392.42 235.18 392.42 254.40 392.42 273.61 C 393.76 274.94 395.11 276.27 396.47 277.59 C 397.53 276.67 398.64 275.78 399.78 274.96 C 396.11 278.70 391.98 281.98 388.02 285.41 C 385.28 283.11 382.81 280.50 380.11 278.14 C 378.85 279.13 377.59 280.12 376.24 280.99 C 377.95 278.78 380.99 277.61 382.09 274.99 C 382.20 268.67 382.16 262.33 381.87 256.01 C 382.18 247.67 382.42 239.29 381.92 230.96 C 381.98 228.64 380.33 226.94 379.24 225.08 Z" />
<path fill="#ffffff" opacity="1.00" d=" M 259.38 219.55 C 262.76 218.76 266.90 218.83 269.53 221.42 C 271.76 223.25 272.66 226.19 272.59 229.00 C 272.70 247.11 272.47 265.22 272.71 283.33 C 268.63 282.45 264.42 282.61 260.46 283.95 C 260.94 274.96 260.53 265.94 260.69 256.94 C 259.01 256.87 257.35 257.10 255.71 257.37 C 255.38 258.04 254.72 259.37 254.39 260.04 C 254.89 261.00 255.38 261.97 255.87 262.95 C 251.07 261.49 248.46 254.97 251.88 250.98 C 253.81 247.99 257.46 247.23 260.70 246.58 C 260.58 241.01 260.82 235.45 260.59 229.89 C 260.47 227.87 259.33 225.27 256.96 225.29 C 253.97 224.57 252.66 227.73 251.34 229.75 C 252.42 225.39 255.05 221.24 259.38 219.55 Z" />
<path fill="#ffffff" opacity="1.00" d=" M 280.62 227.57 C 284.69 225.08 288.03 221.59 292.04 219.05 C 295.22 221.06 297.62 224.07 300.71 226.22 C 302.06 225.01 303.43 223.82 304.98 222.88 C 303.65 224.30 302.17 225.57 300.69 226.82 C 300.67 243.21 300.69 259.59 300.68 275.98 C 300.71 279.27 300.11 283.08 297.10 285.00 C 292.43 288.07 286.48 286.58 281.53 285.06 C 284.79 284.47 288.45 282.68 288.68 278.94 C 288.83 271.72 289.02 264.45 288.59 257.24 C 286.24 254.54 281.82 254.96 280.10 258.10 C 280.71 245.33 279.90 232.52 280.49 219.74 C 280.80 222.34 280.68 224.96 280.62 227.57 Z" />
<path fill="#454442" opacity="1.00" d=" M 280.91 227.62 C 284.31 226.77 286.96 229.36 288.74 231.92 C 288.82 237.26 288.98 242.63 288.61 247.97 C 286.82 249.97 284.06 249.53 281.68 249.47 C 281.18 248.01 280.63 246.52 280.70 244.95 C 280.75 239.17 280.47 233.39 280.91 227.62 Z" />
<path fill="#ffffff" opacity="1.00" d=" M 173.72 242.06 C 172.91 236.13 178.47 231.54 183.78 230.37 C 182.21 232.19 180.49 234.43 181.55 236.97 C 183.74 241.67 191.00 242.52 191.66 248.21 C 192.00 256.52 191.57 264.85 191.83 273.16 C 193.51 275.46 196.02 277.02 198.27 278.72 C 198.67 278.50 199.45 278.06 199.84 277.84 C 199.99 277.43 200.29 276.62 200.44 276.21 C 200.56 267.76 200.39 259.30 200.51 250.85 C 199.39 249.64 198.33 248.39 197.20 247.21 C 200.28 244.77 203.14 242.05 206.05 239.40 C 208.57 241.78 211.30 243.95 213.77 246.39 C 213.69 248.20 211.28 249.11 211.26 250.97 C 211.15 258.62 211.28 266.29 211.22 273.95 C 213.68 276.28 217.14 277.97 218.85 280.85 C 216.44 282.75 213.78 284.54 210.90 285.59 C 207.44 283.50 204.83 279.57 200.92 278.58 C 197.06 280.09 194.24 283.36 190.97 285.80 C 187.96 283.26 184.87 280.81 181.91 278.22 C 180.31 279.18 178.71 280.16 177.01 280.94 C 178.36 279.83 179.82 278.87 181.32 277.97 C 181.54 270.34 181.43 262.70 181.42 255.07 C 181.57 249.32 174.47 247.49 173.72 242.06 Z" />
<path fill="#ffffff" opacity="1.00" d=" M 145.37 250.43 C 152.14 247.57 157.95 242.93 164.62 239.92 C 167.27 244.89 170.19 249.70 172.93 254.62 C 167.67 258.42 162.70 262.63 157.08 265.91 C 159.57 263.83 162.33 262.11 165.00 260.28 C 161.90 255.38 159.64 249.88 155.83 245.48 C 155.36 253.69 156.07 261.93 155.73 270.13 C 158.24 273.29 161.61 275.65 164.34 278.62 C 168.08 276.00 171.56 273.05 175.17 270.28 C 171.64 274.43 166.78 277.15 162.68 280.68 C 160.52 282.12 158.80 284.58 156.12 285.00 C 152.46 282.16 149.24 278.79 145.65 275.87 C 144.36 276.85 143.09 277.86 141.75 278.78 C 142.65 277.50 143.87 276.52 145.23 275.76 C 145.51 267.32 145.25 258.87 145.37 250.43 Z" />
<path fill="#ffffff" opacity="1.00" d=" M 226.23 239.44 C 229.06 241.81 231.92 244.16 234.80 246.48 C 236.08 245.40 237.38 244.33 238.75 243.36 C 236.39 246.15 233.15 248.06 230.91 250.95 C 230.59 258.55 230.95 266.16 230.75 273.77 C 227.32 275.84 223.93 277.95 220.54 280.07 C 220.76 270.29 220.72 260.50 220.58 250.72 C 219.50 249.62 218.46 248.50 217.50 247.31 C 220.48 244.77 223.36 242.12 226.23 239.44 Z" />
<path fill="#ffffff" opacity="1.00" d=" M 309.71 249.66 C 315.90 246.31 322.24 243.20 328.19 239.40 C 332.09 242.94 336.21 246.23 340.05 249.85 C 341.32 248.83 342.58 247.79 343.95 246.89 C 342.93 248.01 341.85 249.06 340.76 250.11 C 340.56 258.31 340.71 266.51 340.68 274.71 C 334.32 278.28 327.74 281.50 321.73 285.64 C 317.66 282.64 314.06 279.08 310.00 276.07 C 308.97 277.03 307.94 277.98 306.86 278.88 C 307.74 277.71 308.72 276.62 309.72 275.55 C 309.83 266.92 309.85 258.29 309.71 249.66 Z" />
<path fill="#ffffff" opacity="1.00" d=" M 345.01 250.00 C 348.49 246.45 352.20 243.11 356.07 239.98 C 358.71 241.93 359.92 245.79 362.96 246.97 C 365.38 244.88 367.45 242.42 369.79 240.24 C 372.47 242.36 376.20 242.36 378.83 240.15 C 378.63 244.73 376.36 249.31 372.04 251.29 C 368.53 252.45 365.64 249.83 362.97 248.00 C 362.60 256.71 362.94 265.43 362.78 274.14 C 364.37 275.61 365.97 277.07 367.62 278.49 C 368.97 277.33 370.35 276.19 371.86 275.23 C 368.99 278.29 365.52 280.70 362.39 283.50 C 361.50 283.98 360.48 285.59 359.37 284.70 C 356.34 282.46 353.82 279.62 350.96 277.18 C 349.66 278.38 348.36 279.58 346.98 280.68 C 348.49 278.62 350.43 276.94 352.40 275.32 C 352.18 267.83 352.48 260.33 352.27 252.84 C 351.34 250.89 349.95 249.22 348.77 247.43 C 347.48 248.24 346.32 249.23 345.01 250.00 Z" />
<path fill="#ffffff" opacity="1.00" d=" M 399.58 248.44 C 401.99 245.57 404.07 242.46 406.07 239.30 C 409.58 242.43 414.77 242.66 418.52 239.79 C 417.60 244.65 414.67 250.56 409.03 250.69 C 406.18 251.32 403.85 248.22 401.17 249.16 C 401.04 249.50 400.78 250.19 400.65 250.53 C 406.45 259.41 412.48 268.14 418.14 277.11 C 419.70 276.07 421.29 275.06 422.88 274.04 C 418.57 277.66 414.61 281.75 410.04 285.04 C 404.26 276.18 398.63 267.19 393.21 258.09 C 395.46 254.96 397.72 251.83 399.58 248.44 Z" />
<path fill="#ffffff" opacity="1.00" d=" M 93.83 247.82 C 95.68 243.74 100.68 243.41 104.45 242.34 C 104.31 246.10 104.31 249.86 104.43 253.62 C 101.74 253.28 98.52 253.70 97.56 256.68 C 98.03 257.73 98.49 258.80 98.93 259.87 C 94.26 258.06 91.64 252.47 93.83 247.82 Z" />
<path fill="#454442" opacity="1.00" d=" M 320.42 244.83 C 323.38 246.69 325.78 249.26 328.40 251.55 C 329.29 252.50 330.70 253.43 330.35 254.97 C 330.30 263.40 330.40 271.83 330.27 280.25 C 326.79 277.60 323.72 274.47 320.42 271.62 C 320.38 262.69 320.36 253.76 320.42 244.83 Z" />
<path fill="#454442" opacity="1.00" d=" M 280.67 249.26 C 283.27 250.71 286.33 250.58 288.82 248.93 C 288.80 251.30 288.80 253.67 288.81 256.05 C 286.18 254.59 283.31 254.33 280.69 255.93 C 280.71 253.71 280.71 251.48 280.67 249.26 Z" />
<path fill="#ffffff" opacity="1.00" d=" M 98.23 271.20 C 104.71 268.80 111.71 272.08 116.22 276.80 C 117.46 275.58 118.70 274.36 120.01 273.22 C 116.69 277.75 112.32 281.38 108.93 285.86 C 106.60 284.07 104.13 281.82 100.95 282.23 C 97.83 281.86 95.18 285.14 95.66 288.10 C 96.43 290.62 98.89 291.94 100.87 293.44 C 96.68 292.82 92.32 290.96 90.39 286.94 C 87.36 280.73 91.64 272.74 98.23 271.20 Z" />
<path fill="#ffffff" opacity="1.00" d=" M 254.64 287.67 C 255.99 285.76 258.10 284.64 260.21 283.78 C 259.20 285.47 258.26 287.20 257.37 288.96 C 258.35 291.29 260.09 293.84 262.99 293.59 C 272.40 293.44 281.46 290.03 290.88 289.82 C 296.39 290.16 302.41 295.06 300.95 301.05 C 300.38 305.74 296.21 308.61 292.07 309.99 C 293.61 307.81 294.10 305.22 293.50 302.62 C 292.03 302.18 290.57 301.49 289.00 301.65 C 279.93 302.20 271.19 306.29 262.02 305.19 C 254.26 304.42 249.48 293.71 254.64 287.67 Z" />
<path fill="#ffffff" opacity="1.00" d=" M 203.96 305.40 C 207.56 305.33 211.32 306.35 213.90 308.96 C 217.95 313.40 216.22 321.34 211.03 324.13 C 209.09 325.49 206.69 325.69 204.43 326.06 C 204.38 330.10 204.22 334.16 204.40 338.20 C 205.77 340.29 208.18 341.40 209.91 343.17 C 209.54 345.65 206.35 346.59 204.67 348.21 C 204.71 354.07 204.53 359.94 204.87 365.80 C 209.59 363.06 212.49 358.36 215.41 353.93 C 214.88 362.53 210.86 371.59 202.84 375.62 C 192.02 382.07 176.87 378.59 169.53 368.48 C 164.37 361.93 163.12 353.04 164.72 345.02 C 167.16 335.08 175.53 327.43 185.05 324.25 C 181.34 327.45 177.16 330.78 176.11 335.86 C 182.46 332.93 188.87 330.12 195.28 327.31 C 195.21 336.21 195.29 345.11 195.23 354.01 C 190.02 356.51 184.83 359.05 179.76 361.83 C 185.22 369.56 196.65 370.88 204.48 366.14 C 204.26 360.37 204.27 354.60 204.37 348.83 C 202.39 347.02 200.34 345.31 198.22 343.68 C 200.07 342.13 202.04 340.70 203.74 338.97 C 204.06 334.61 203.80 330.23 203.79 325.86 C 195.00 324.47 186.58 321.43 177.89 319.55 C 175.60 319.15 172.70 319.15 171.26 321.33 C 169.57 323.22 170.43 325.82 170.72 328.03 C 168.56 325.83 166.07 323.35 166.35 319.98 C 165.93 312.75 173.10 307.21 179.92 307.57 C 188.54 308.48 196.37 313.08 205.00 313.77 C 207.75 314.30 210.43 311.68 209.57 308.92 C 208.46 306.77 205.96 306.33 203.96 305.40 Z" />
<path fill="#ffffff" opacity="1.00" d=" M 221.29 322.45 C 223.66 319.99 226.30 317.81 228.73 315.41 C 230.83 317.81 232.98 320.16 235.05 322.58 C 232.37 324.90 229.74 327.29 227.16 329.73 C 225.45 327.17 222.31 325.26 221.29 322.45 Z" />
<path fill="#ffffff" opacity="1.00" d=" M 365.13 334.83 C 367.55 334.85 368.59 332.50 369.91 330.88 C 370.43 336.81 366.73 341.84 363.07 346.10 C 365.55 348.20 368.10 350.23 370.63 352.29 C 370.61 357.36 370.62 362.42 370.62 367.49 C 364.87 370.53 359.42 374.06 354.09 377.78 C 351.79 375.07 347.14 372.55 344.29 375.92 C 343.32 378.32 345.25 380.18 346.79 381.72 C 344.15 380.49 341.34 378.94 340.39 375.97 C 338.68 372.77 340.35 369.36 341.92 366.51 C 345.21 367.12 347.62 363.63 350.98 364.44 C 355.52 364.72 358.31 368.56 360.74 371.91 C 360.60 366.77 361.08 361.57 360.51 356.47 C 359.18 355.00 357.56 353.85 356.00 352.67 C 359.71 349.21 363.52 345.75 366.17 341.37 C 363.35 341.92 360.35 343.45 357.49 342.19 C 354.96 341.02 353.21 338.76 351.34 336.79 C 351.32 340.84 351.08 344.91 351.38 348.96 C 352.30 350.78 354.40 351.71 355.91 353.02 C 353.47 355.40 351.06 357.83 348.39 359.96 C 346.30 357.46 343.46 355.65 341.51 353.06 C 341.26 349.25 341.48 345.43 341.45 341.62 C 347.27 338.96 352.44 335.14 357.99 332.01 C 360.22 333.24 362.30 335.54 365.13 334.83 Z" />
<path fill="#ffffff" opacity="1.00" d=" M 307.70 342.90 C 314.25 339.70 320.43 335.82 326.67 332.07 C 329.45 337.03 332.58 341.83 335.04 346.96 C 332.67 349.28 329.78 350.98 327.12 352.94 C 324.56 347.68 321.55 342.64 318.31 337.78 C 318.07 346.18 318.26 354.60 318.31 363.00 C 320.86 365.97 324.01 368.36 326.91 370.99 C 330.53 368.32 333.72 365.01 337.79 363.00 C 331.56 367.97 325.25 372.86 318.97 377.77 C 315.02 374.98 311.67 371.39 308.06 368.17 C 306.78 369.15 305.52 370.17 304.08 370.90 C 305.19 369.85 306.37 368.89 307.57 367.94 C 307.85 359.60 307.61 351.25 307.70 342.90 Z" />
<path fill="#ffffff" opacity="1.00" d=" M 214.24 341.79 C 218.19 338.95 221.66 335.53 225.25 332.27 C 227.96 335.34 230.57 338.50 233.21 341.63 C 234.49 340.54 235.78 339.45 237.06 338.36 C 237.15 338.51 237.32 338.81 237.41 338.96 C 235.79 340.32 233.09 341.41 233.52 344.00 C 233.44 351.07 233.60 358.14 233.46 365.21 C 234.98 367.03 236.54 368.80 238.05 370.63 C 239.30 369.68 240.56 368.74 241.90 367.90 C 238.39 371.35 234.40 374.26 230.96 377.79 C 228.44 374.77 225.90 371.76 223.11 368.98 C 222.23 369.82 221.34 370.66 220.46 371.51 C 220.15 371.56 219.53 371.66 219.22 371.70 C 220.35 370.78 221.48 369.85 222.62 368.94 C 222.79 360.90 222.63 352.86 222.71 344.82 C 221.22 343.16 219.93 341.25 218.10 339.96 C 216.79 340.53 215.52 341.18 214.24 341.79 Z" />
<path fill="#ffffff" opacity="1.00" d=" M 238.02 342.71 C 241.36 338.86 245.72 336.05 249.34 332.47 C 251.97 335.22 254.54 338.03 257.10 340.85 C 260.84 338.12 264.56 335.38 268.07 332.36 C 270.59 335.33 273.22 338.21 275.99 340.96 C 279.62 337.91 283.51 335.18 287.10 332.07 C 289.74 335.01 292.26 338.04 294.95 340.93 C 296.26 339.86 297.57 338.79 298.98 337.87 C 297.85 339.16 296.57 340.31 295.29 341.44 C 295.20 349.23 295.29 357.01 295.24 364.80 C 296.69 366.37 298.12 367.97 299.61 369.51 C 300.68 368.62 301.75 367.75 302.85 366.92 C 299.38 370.87 295.21 374.12 291.32 377.65 C 288.78 374.64 286.06 371.77 283.32 368.95 C 285.63 366.49 284.76 363.00 284.90 359.97 C 284.68 355.31 285.26 350.62 284.77 345.99 C 283.04 343.49 280.78 341.41 278.81 339.10 C 277.69 340.21 276.09 341.22 276.46 343.06 C 276.34 350.78 276.64 358.50 276.47 366.21 C 277.40 367.38 278.35 368.53 279.32 369.68 C 276.45 371.88 274.45 375.72 271.07 376.90 C 268.37 374.60 266.29 371.67 263.95 369.02 C 264.59 368.35 265.22 367.67 265.86 367.00 C 265.78 359.98 265.84 352.96 265.82 345.94 C 263.85 343.72 261.93 341.45 260.02 339.18 C 259.45 339.63 258.30 340.53 257.73 340.98 C 257.60 349.36 257.72 357.74 257.66 366.13 C 258.79 367.37 259.91 368.61 261.04 369.87 C 258.28 372.46 255.59 375.14 252.96 377.87 C 250.44 374.84 247.67 372.01 245.18 368.96 C 245.90 367.67 247.43 366.69 247.35 365.07 C 247.49 358.63 247.24 352.19 247.45 345.76 C 245.67 343.66 243.81 341.61 241.97 339.57 C 240.70 340.67 239.40 341.75 238.02 342.71 Z" />
<path fill="#454442" opacity="1.00" d=" M 175.43 336.72 C 178.08 335.34 180.76 334.03 183.54 332.93 C 183.71 341.70 183.56 350.48 183.62 359.25 C 182.32 360.05 181.02 360.86 179.73 361.68 C 173.76 354.97 172.84 345.06 175.43 336.72 Z" />
</svg>
