<?xml version="1.0" encoding="UTF-8" ?>
<!DOCTYPE svg PUBLIC "-//W3C//DTD SVG 1.1//EN" "http://www.w3.org/Graphics/SVG/1.1/DTD/svg11.dtd">
<svg width="512pt" height="512pt" viewBox="0 0 512 512" version="1.1" xmlns="http://www.w3.org/2000/svg">
<path fill="#304e6c" opacity="1.00" d=" M 0.00 0.00 L 512.00 0.00 L 512.00 512.00 L 0.00 512.00 L 0.00 0.00 Z" />
<path fill="#ffffff" opacity="1.00" d=" M 228.49 117.08 C 241.88 116.81 255.28 116.95 268.67 117.01 C 268.63 138.55 268.75 160.09 268.61 181.63 C 290.46 181.89 312.32 181.64 334.17 181.75 C 334.17 198.25 334.20 214.76 334.16 231.26 C 333.92 231.47 333.44 231.89 333.21 232.10 C 311.69 232.21 290.17 232.08 268.66 232.17 C 268.69 260.12 268.66 288.06 268.68 316.01 C 268.75 321.68 268.71 327.43 269.94 333.00 C 273.61 343.48 284.54 349.52 295.03 351.14 C 312.74 353.65 330.40 347.31 345.19 337.90 C 345.24 352.65 345.19 367.40 345.21 382.16 C 331.51 388.68 317.07 393.95 301.98 396.07 C 285.54 398.27 268.40 398.66 252.44 393.46 C 236.88 388.84 222.04 379.72 213.20 365.80 C 207.06 356.08 206.36 344.23 206.18 333.05 C 206.17 299.44 206.15 265.84 206.19 232.23 C 193.38 232.03 180.57 232.19 167.77 232.15 C 167.72 218.76 167.71 205.36 167.77 191.97 C 182.81 187.41 198.13 180.77 208.17 168.16 C 220.70 154.11 226.28 135.43 228.49 117.08 Z" />
</svg>
