<?xml version="1.0" encoding="UTF-8" ?>
<!DOCTYPE svg PUBLIC "-//W3C//DTD SVG 1.1//EN" "http://www.w3.org/Graphics/SVG/1.1/DTD/svg11.dtd">
<svg width="512pt" height="512pt" viewBox="0 0 512 512" version="1.1" xmlns="http://www.w3.org/2000/svg">
<path fill="#20b8ff" opacity="1.00" d=" M 0.00 0.00 L 512.00 0.00 L 512.00 512.00 L 0.00 512.00 L 0.00 0.00 Z" />
<path fill="#ffffff" opacity="1.00" d=" M 167.46 112.62 C 179.91 107.74 194.86 108.37 206.21 115.78 C 209.68 118.22 214.29 119.85 216.01 124.06 C 218.93 129.95 219.65 136.57 220.22 143.03 C 221.23 155.87 220.10 168.74 220.40 181.59 C 228.07 183.75 236.10 183.82 243.98 184.46 C 267.98 184.74 292.00 184.21 315.95 182.63 C 326.34 182.63 337.18 182.04 347.00 186.01 C 356.01 189.81 361.48 198.96 363.68 208.15 C 365.97 218.37 365.54 229.46 361.29 239.13 C 358.39 245.72 353.17 251.62 346.25 254.03 C 341.02 255.90 335.48 256.68 329.95 256.74 C 316.95 257.07 303.95 256.50 290.98 255.82 C 268.58 255.85 246.15 255.28 223.79 256.87 C 223.58 257.07 223.15 257.47 222.94 257.67 C 221.52 273.04 219.90 288.85 223.76 304.01 C 226.08 313.35 232.44 321.70 241.23 325.81 C 254.12 332.21 269.06 331.08 282.96 329.86 C 303.02 328.04 323.84 323.37 343.58 329.59 C 350.93 331.54 356.71 337.27 359.80 344.09 C 364.90 355.14 365.92 368.06 362.72 379.80 C 360.62 387.47 355.82 394.93 348.27 398.11 C 338.08 402.38 326.80 401.67 316.00 401.73 C 292.28 401.18 268.46 402.57 244.82 400.12 C 233.56 399.02 222.26 396.91 211.84 392.38 C 190.52 382.44 172.44 365.71 160.75 345.31 C 153.75 332.98 149.21 319.16 148.29 304.98 C 146.47 289.05 146.71 273.00 146.82 256.98 C 147.83 241.01 147.50 225.00 147.53 209.00 C 147.65 202.30 146.67 195.64 146.72 188.94 C 146.40 171.13 145.13 152.95 149.71 135.53 C 152.22 125.96 158.02 116.59 167.46 112.62 Z" />
</svg>
