<?xml version="1.0" encoding="UTF-8" ?>
<!DOCTYPE svg PUBLIC "-//W3C//DTD SVG 1.1//EN" "http://www.w3.org/Graphics/SVG/1.1/DTD/svg11.dtd">
<svg width="512pt" height="512pt" viewBox="0 0 512 512" version="1.1" xmlns="http://www.w3.org/2000/svg">
<path fill="#ff9000" opacity="1.00" d=" M 0.00 0.00 L 512.00 0.00 L 512.00 512.00 L 0.00 512.00 L 0.00 0.00 Z" />
<path fill="#ffffff" opacity="1.00" d=" M 224.20 111.13 C 232.54 103.85 243.37 99.09 254.59 99.51 C 263.93 99.37 273.40 102.24 280.36 108.65 C 285.34 113.14 289.22 118.82 291.99 124.90 C 293.03 130.38 295.79 135.28 297.29 140.64 C 299.76 146.77 301.39 153.19 303.22 159.54 C 306.40 158.70 309.69 158.85 312.94 158.89 C 335.42 158.93 357.91 158.85 380.39 158.93 C 379.21 161.24 377.96 163.51 376.73 165.79 C 381.32 169.15 385.75 172.73 390.29 176.16 C 389.39 196.14 387.28 216.07 386.09 236.04 C 385.17 245.33 385.40 254.72 386.06 264.02 C 387.38 298.69 389.32 333.34 390.52 368.00 C 391.54 381.98 391.51 396.01 392.70 409.98 C 393.01 411.39 391.07 411.88 390.06 412.17 C 378.11 414.21 365.99 412.41 353.96 412.81 C 330.36 414.40 306.68 414.27 283.04 414.56 C 256.36 415.09 229.67 414.47 202.99 414.29 C 190.00 413.84 176.98 414.07 164.02 412.90 C 149.49 412.37 134.92 413.97 120.43 412.18 C 119.79 403.77 121.28 395.40 121.14 386.99 C 121.87 373.33 122.46 359.65 122.90 345.98 C 123.95 338.00 123.05 329.93 123.97 321.95 C 124.65 308.65 124.96 295.32 125.78 282.02 C 125.64 273.33 126.98 264.70 126.68 255.99 C 127.91 246.33 126.30 236.65 125.69 226.99 C 124.30 211.36 123.35 195.71 121.98 180.09 C 122.00 178.67 121.37 176.82 122.88 175.93 C 127.30 172.71 132.14 170.10 136.65 167.00 C 135.89 164.34 135.24 161.66 134.95 158.91 C 156.64 158.86 178.33 158.94 200.02 158.87 C 201.79 158.88 203.54 159.18 205.29 159.49 C 206.36 151.57 208.89 143.96 211.16 136.33 C 211.90 133.61 212.05 130.73 213.17 128.13 C 216.15 122.06 219.38 115.98 224.20 111.13 Z" />
<path fill="#ff9000" opacity="1.00" d=" M 231.49 115.55 C 235.88 110.52 242.64 108.35 249.01 107.20 C 259.75 105.68 272.31 108.06 279.09 117.29 C 275.48 117.12 272.78 114.48 269.41 113.58 C 259.33 110.67 248.23 110.43 238.41 114.46 C 236.26 115.53 233.86 115.72 231.49 115.55 Z" />
<path fill="#ff9000" opacity="1.00" d=" M 226.78 130.77 C 232.98 125.23 240.57 120.92 248.90 119.81 C 255.94 119.31 263.34 119.19 269.93 122.12 C 277.58 125.14 283.60 131.44 287.17 138.76 C 290.42 145.21 293.89 151.69 295.23 158.86 C 267.89 158.98 240.54 158.88 213.20 158.90 C 214.97 148.54 219.42 138.41 226.78 130.77 Z" />
<path fill="#ff9000" opacity="1.00" d=" M 209.78 231.62 C 222.37 226.28 236.47 222.57 250.12 225.53 C 257.78 227.06 264.51 231.20 270.95 235.43 C 265.23 253.68 260.44 272.22 254.89 290.52 C 246.24 284.87 236.53 279.97 225.94 280.07 C 214.84 279.56 204.25 283.44 194.02 287.19 C 198.95 268.58 204.53 250.14 209.78 231.62 Z" />
<path fill="#ff9000" opacity="1.00" d=" M 274.18 258.83 C 275.71 253.25 276.41 247.29 279.38 242.22 C 290.14 249.88 303.67 254.50 316.92 252.05 C 324.01 251.26 330.70 248.70 337.40 246.37 C 338.35 248.11 337.90 250.09 337.42 251.90 C 333.68 265.26 329.72 278.57 326.01 291.94 C 325.19 294.68 324.68 297.57 323.34 300.12 C 313.16 304.40 302.24 307.63 291.08 307.09 C 281.05 307.03 271.49 302.72 263.67 296.66 C 263.74 292.27 265.66 288.28 266.78 284.13 C 269.08 275.64 271.59 267.22 274.18 258.83 Z" />
<path fill="#ff9000" opacity="1.00" d=" M 194.98 295.07 C 206.42 290.60 218.89 288.13 231.14 290.04 C 238.74 291.68 245.75 295.41 252.02 299.92 C 251.59 304.71 249.57 309.15 248.55 313.83 C 244.43 327.46 240.84 341.24 236.74 354.88 C 229.03 349.79 220.58 344.99 211.15 344.40 C 200.11 343.07 189.23 346.33 178.96 350.06 C 176.20 350.80 177.23 347.45 177.61 345.92 C 181.96 330.50 186.41 315.10 190.70 299.66 C 191.16 297.45 192.87 295.75 194.98 295.07 Z" />
<path fill="#ff9000" opacity="1.00" d=" M 260.17 306.20 C 262.17 306.39 263.73 307.78 265.41 308.75 C 274.71 314.65 286.07 317.52 297.01 315.67 C 305.31 315.01 313.02 311.70 320.86 309.22 C 318.04 321.51 313.83 333.44 310.74 345.67 C 308.62 351.68 307.63 358.15 305.10 363.97 C 297.67 367.92 289.28 369.85 281.00 371.06 C 267.98 372.95 254.68 368.16 244.47 360.22 C 248.76 345.49 252.80 330.70 257.15 315.99 C 258.17 312.73 258.63 309.27 260.17 306.20 Z" />
</svg>
