<?xml version="1.0" encoding="UTF-8" ?>
<!DOCTYPE svg PUBLIC "-//W3C//DTD SVG 1.1//EN" "http://www.w3.org/Graphics/SVG/1.1/DTD/svg11.dtd">
<svg width="512pt" height="512pt" viewBox="0 0 512 512" version="1.1" xmlns="http://www.w3.org/2000/svg">
<path fill="#e83032" opacity="1.00" d=" M 0.00 0.00 L 512.00 0.00 L 512.00 512.00 L 0.00 512.00 L 0.00 0.00 Z" />
<path fill="#ffffff" opacity="1.00" d=" M 421.63 220.06 C 428.31 220.27 434.92 221.20 441.56 221.84 C 436.62 236.08 433.82 250.93 430.25 265.54 C 427.58 265.29 424.92 264.98 422.27 264.65 C 422.69 256.12 422.50 247.57 422.43 239.03 C 422.26 232.70 422.59 226.34 421.63 220.06 Z" />
<path fill="#ffffff" opacity="1.00" d=" M 67.36 224.23 C 76.57 224.03 85.79 224.61 94.98 223.95 C 102.64 223.44 110.29 224.33 117.94 224.31 C 117.78 225.65 117.62 227.00 117.45 228.34 C 112.25 228.61 107.07 229.07 101.89 229.60 C 108.81 239.76 116.70 249.21 123.96 259.12 C 126.46 256.88 129.04 254.74 131.64 252.62 C 136.28 248.74 141.34 245.13 144.65 239.97 C 140.12 239.21 135.52 238.86 131.03 237.88 C 130.57 236.35 130.38 234.75 130.08 233.19 C 144.69 233.20 159.31 233.11 173.91 233.49 C 172.73 235.06 171.54 236.63 170.34 238.19 C 165.09 239.39 159.23 239.39 154.77 242.77 C 146.88 248.43 139.23 254.48 132.24 261.23 C 130.69 262.92 128.70 264.63 128.54 267.08 C 127.92 273.25 128.05 279.50 129.11 285.62 C 134.60 285.95 140.16 285.16 145.57 286.39 C 145.16 287.96 144.86 289.57 144.31 291.10 C 128.00 290.20 111.69 291.42 95.38 291.32 C 95.72 289.68 96.08 288.05 96.44 286.42 C 100.91 286.28 105.62 286.95 109.87 285.22 C 112.65 284.00 111.26 280.38 111.62 278.01 C 111.12 272.95 112.93 267.03 109.35 262.76 C 102.01 252.84 94.16 243.28 85.89 234.12 C 84.44 232.72 83.05 230.86 80.92 230.55 C 76.44 229.71 71.87 229.47 67.39 228.64 C 67.38 227.17 67.37 225.70 67.36 224.23 Z" />
<path fill="#ffffff" opacity="1.00" d=" M 377.24 228.27 C 387.21 227.76 398.17 228.22 406.39 234.62 C 412.22 238.75 415.16 246.05 415.01 253.04 C 414.23 261.92 406.86 268.56 399.18 272.05 C 383.43 278.93 363.16 277.88 350.20 265.74 C 343.33 259.72 341.91 248.07 347.95 240.99 C 355.02 232.39 366.51 228.99 377.24 228.27 Z" />
<path fill="#ffffff" opacity="1.00" d=" M 248.32 233.74 C 248.42 232.40 248.53 231.06 248.64 229.72 C 258.26 229.58 267.86 230.28 277.48 230.21 C 277.19 231.25 276.91 232.29 276.63 233.34 C 273.87 233.94 271.03 234.29 268.38 235.28 C 267.16 238.36 267.98 241.77 268.12 244.98 C 268.64 253.95 268.28 262.97 268.96 271.93 C 271.41 272.41 273.91 272.51 276.40 272.74 C 276.53 274.10 276.66 275.46 276.79 276.83 C 267.48 276.93 258.20 277.26 248.91 276.72 C 248.81 275.31 248.73 273.91 248.64 272.50 C 252.23 272.26 255.81 271.84 259.39 271.42 C 259.49 266.99 259.41 262.57 259.29 258.15 C 248.27 258.27 237.28 258.92 226.29 259.61 C 226.33 263.53 226.51 267.45 226.88 271.36 C 230.73 271.81 234.58 272.29 238.46 272.55 C 238.42 274.17 238.38 275.79 238.35 277.42 C 226.93 277.43 215.51 277.38 204.09 277.46 C 204.13 275.81 204.18 274.16 204.23 272.51 C 207.95 272.16 211.65 271.67 215.38 271.34 C 215.74 261.07 215.65 250.78 215.47 240.50 C 211.61 240.20 207.77 239.77 203.91 239.48 C 203.85 238.54 203.73 236.68 203.67 235.74 C 215.36 235.57 227.06 235.68 238.76 235.56 C 238.70 236.89 238.65 238.22 238.60 239.55 C 234.65 239.80 230.72 240.28 226.79 240.65 C 226.39 244.71 226.31 248.79 226.22 252.86 C 237.22 252.76 248.23 252.86 259.22 252.41 C 259.14 246.74 259.46 241.08 259.62 235.42 C 255.89 234.64 252.09 234.27 248.32 233.74 Z" />
<path fill="#e83032" opacity="1.00" d=" M 378.05 234.69 C 380.78 234.70 383.51 234.75 386.24 234.87 C 390.99 235.80 396.03 236.91 399.67 240.34 C 405.73 245.68 405.68 255.74 401.02 261.94 C 396.87 267.52 389.62 269.32 383.03 269.69 C 375.93 270.14 368.11 269.30 362.49 264.53 C 355.95 259.22 355.13 248.19 361.03 242.12 C 365.45 237.46 371.90 235.67 378.05 234.69 Z" />
<path fill="#ffffff" opacity="1.00" d=" M 299.52 237.80 C 310.88 235.65 324.26 235.49 333.57 243.37 C 342.30 249.77 342.29 264.24 334.29 271.23 C 327.23 277.61 317.20 279.09 308.02 278.87 C 299.55 278.87 290.90 276.91 283.77 272.22 C 277.50 268.17 276.51 259.29 278.93 252.76 C 282.27 244.34 291.07 239.62 299.52 237.80 Z" />
<path fill="#e83032" opacity="1.00" d=" M 306.08 242.87 C 312.68 242.12 320.21 241.99 325.77 246.19 C 330.47 249.91 330.72 256.53 329.70 261.96 C 329.39 266.84 324.91 270.07 320.64 271.49 C 314.06 273.49 306.84 274.03 300.22 271.86 C 295.45 270.37 291.14 266.73 289.69 261.83 C 288.79 258.02 288.84 253.60 291.39 250.41 C 294.86 245.82 300.62 243.82 306.08 242.87 Z" />
<path fill="#ffffff" opacity="1.00" d=" M 166.30 245.39 C 175.11 245.41 183.93 245.58 192.75 245.38 C 192.56 246.39 192.38 247.40 192.20 248.42 C 190.11 248.90 188.02 249.38 185.93 249.85 C 189.70 260.21 194.05 270.38 198.65 280.40 C 200.16 284.48 205.31 283.87 208.77 284.92 C 208.74 286.22 208.70 287.53 208.67 288.84 C 199.54 288.73 190.42 288.82 181.29 288.72 C 181.40 287.68 181.61 285.61 181.71 284.57 C 184.59 284.05 187.48 283.54 190.37 283.08 C 188.30 278.49 186.24 273.90 184.06 269.37 C 179.71 269.52 175.31 269.33 171.01 270.05 C 168.23 271.97 167.14 275.37 165.91 278.36 C 168.17 278.87 170.44 279.36 172.73 279.81 C 172.54 281.29 172.35 282.78 172.17 284.27 C 164.38 284.39 156.59 284.25 148.80 284.45 C 149.34 282.88 149.88 281.31 150.44 279.75 C 153.05 279.07 155.85 278.75 158.23 277.38 C 163.69 268.79 167.80 259.39 172.74 250.49 C 170.20 249.28 166.25 249.09 166.30 245.39 Z" />
<path fill="#e83032" opacity="1.00" d=" M 171.86 265.56 C 173.86 260.94 175.85 256.30 178.04 251.76 C 179.62 256.39 181.30 260.99 183.04 265.57 C 179.31 265.59 175.58 265.58 171.86 265.56 Z" />
<path fill="#ffffff" opacity="1.00" d=" M 420.27 272.20 C 423.73 272.52 427.20 272.76 430.67 272.86 C 430.32 275.83 430.00 278.82 429.33 281.74 C 426.40 282.45 423.32 281.48 420.34 281.44 C 420.35 278.36 420.32 275.28 420.27 272.20 Z" />
<path fill="#ffffff" opacity="1.00" d=" M 437.37 273.31 C 439.15 273.21 440.94 273.12 442.73 273.12 C 444.33 275.02 444.85 277.38 444.84 279.82 C 442.38 282.01 437.22 283.06 435.63 279.42 C 434.69 277.15 436.15 275.09 437.37 273.31 Z" />
<path fill="#e83032" opacity="1.00" d=" M 436.57 279.15 C 435.77 276.91 437.57 275.12 438.54 273.31 C 438.44 275.09 438.32 276.88 438.18 278.67 C 439.15 278.64 440.12 278.61 441.10 278.59 C 441.63 277.08 442.08 275.50 443.10 274.23 C 442.92 276.14 444.55 279.11 442.24 280.35 C 440.42 281.47 437.69 281.05 436.57 279.15 Z" />
<path fill="#e83032" opacity="1.00" d=" M 439.34 276.00 C 442.25 274.35 439.57 279.40 439.34 276.00 Z" />
</svg>
