<?xml version="1.0" encoding="UTF-8" ?>
<!DOCTYPE svg PUBLIC "-//W3C//DTD SVG 1.1//EN" "http://www.w3.org/Graphics/SVG/1.1/DTD/svg11.dtd">
<svg width="512pt" height="512pt" viewBox="0 0 512 512" version="1.1" xmlns="http://www.w3.org/2000/svg">
<path fill="#e83032" opacity="1.00" d=" M 0.00 0.00 L 512.00 0.00 L 512.00 512.00 L 0.00 512.00 L 0.00 0.00 Z" />
<path fill="#ffffff" opacity="1.00" d=" M 102.74 167.51 C 147.50 167.40 192.26 167.54 237.01 167.44 C 238.14 167.38 239.24 167.50 240.32 167.81 C 240.31 173.80 240.13 179.79 240.22 185.78 C 226.43 185.82 212.63 185.75 198.84 185.81 C 216.43 210.86 236.32 234.16 254.97 258.40 C 269.81 245.43 284.63 232.44 299.48 219.48 C 303.01 216.28 306.80 213.36 310.11 209.92 C 299.19 209.81 288.26 209.93 277.34 209.86 C 275.87 203.81 274.36 197.77 272.71 191.77 C 312.80 191.79 352.89 191.78 392.98 191.77 C 389.58 198.37 384.55 203.98 380.21 209.96 C 370.29 210.16 360.08 208.73 350.44 211.76 C 346.02 213.63 342.23 216.66 338.22 219.24 C 323.54 229.39 309.40 240.32 295.65 251.70 C 287.93 258.26 280.18 264.86 273.48 272.48 C 271.71 274.66 269.54 276.98 269.60 279.98 C 269.17 296.72 269.87 313.47 270.81 330.18 C 271.07 330.42 271.59 330.91 271.85 331.15 C 286.01 332.12 300.27 330.75 314.41 332.08 C 314.28 336.50 313.66 340.89 313.49 345.31 C 308.70 344.49 303.83 344.81 299.00 344.65 C 277.98 344.65 256.95 344.60 235.93 344.67 C 217.14 345.45 198.32 345.68 179.51 345.75 C 180.33 341.63 181.03 337.49 181.69 333.34 C 192.83 333.22 204.12 333.71 215.06 331.30 C 217.87 330.60 221.61 329.55 222.18 326.20 C 223.79 317.24 223.33 308.09 223.40 299.02 C 223.45 292.36 223.06 285.69 222.51 279.05 C 221.94 276.51 220.09 274.50 218.71 272.37 C 208.34 258.18 197.08 244.67 185.79 231.21 C 176.28 220.05 166.73 208.91 156.61 198.29 C 152.42 193.88 148.20 189.46 143.39 185.70 C 129.84 185.85 116.29 185.82 102.74 185.72 C 102.77 179.65 102.77 173.58 102.74 167.51 Z" />
<path fill="#ffffff" opacity="1.00" d=" M 370.59 229.16 C 384.00 230.46 397.39 232.00 410.85 232.79 C 403.68 259.66 396.56 286.54 389.30 313.39 C 383.18 312.34 376.93 312.54 370.80 311.57 C 370.99 284.10 370.60 256.63 370.59 229.16 Z" />
<path fill="#ffffff" opacity="1.00" d=" M 367.73 325.07 C 375.30 325.46 382.80 326.69 390.40 326.58 C 389.16 332.97 388.24 339.41 387.29 345.84 C 380.90 345.49 374.54 344.59 368.14 344.42 C 367.31 338.00 367.95 331.52 367.73 325.07 Z" />
</svg>
