<?xml version="1.0" encoding="UTF-8" ?>
<!DOCTYPE svg PUBLIC "-//W3C//DTD SVG 1.1//EN" "http://www.w3.org/Graphics/SVG/1.1/DTD/svg11.dtd">
<svg width="512pt" height="512pt" viewBox="0 0 512 512" version="1.1" xmlns="http://www.w3.org/2000/svg">
<path fill="#04aeda" opacity="1.00" d=" M 0.00 0.00 L 512.00 0.00 L 512.00 512.00 L 0.00 512.00 L 0.00 0.00 Z" />
<path fill="#ffffff" opacity="1.00" d=" M 223.21 171.16 C 224.43 170.86 225.68 170.73 226.94 170.75 C 278.32 170.82 329.70 170.71 381.07 170.81 C 390.75 171.86 400.20 180.83 399.21 191.04 C 399.10 229.69 399.28 268.34 399.12 306.99 C 397.03 316.80 387.01 324.21 377.01 323.41 C 327.01 323.35 277.01 323.40 227.01 323.39 C 216.56 322.94 206.86 313.66 206.80 303.01 C 206.80 265.66 206.79 228.31 206.81 190.97 C 206.93 181.63 214.30 173.32 223.21 171.16 Z" />
<path fill="#ffffff" opacity="1.00" d=" M 113.12 184.92 C 113.31 177.87 120.07 171.92 127.04 172.11 C 144.72 172.15 162.41 172.09 180.09 172.14 C 187.04 172.09 193.58 177.86 193.84 184.91 C 193.90 223.09 193.82 261.27 193.88 299.46 C 166.95 299.46 140.02 299.47 113.10 299.45 C 113.16 261.28 113.11 223.10 113.12 184.92 Z" />
<path fill="#04aeda" opacity="1.00" d=" M 226.54 182.65 C 229.33 182.15 232.19 182.45 235.01 182.40 C 282.67 182.41 330.32 182.40 377.98 182.40 C 381.40 182.56 385.07 184.20 386.64 187.41 C 388.16 189.98 388.28 193.06 388.27 195.97 C 388.17 230.69 388.33 265.40 388.19 300.11 C 388.52 305.87 384.12 311.69 378.11 311.67 C 328.38 311.67 278.66 311.66 228.94 311.68 C 223.21 311.97 218.33 306.71 218.44 301.09 C 218.44 265.02 218.41 228.94 218.46 192.87 C 218.48 188.09 221.68 183.50 226.54 182.65 Z" />
<path fill="#04aeda" opacity="1.00" d=" M 124.83 187.10 C 125.30 184.72 128.15 184.83 130.03 184.79 C 145.34 184.82 160.65 184.84 175.96 184.79 C 177.88 184.77 179.79 185.09 181.68 185.44 C 181.64 189.55 181.64 193.66 181.70 197.77 C 177.86 198.69 173.91 198.30 170.02 198.34 C 156.31 198.35 142.61 198.34 128.90 198.36 C 127.31 198.43 125.12 198.04 124.81 196.15 C 124.55 193.15 124.52 190.10 124.83 187.10 Z" />
<path fill="#ffffff" opacity="1.00" d=" M 229.47 200.97 C 229.04 197.46 232.39 193.90 235.91 194.15 C 278.60 194.16 321.30 194.16 363.99 194.15 C 368.31 194.24 373.41 193.10 376.42 197.07 C 376.80 199.03 377.21 201.00 377.21 203.02 C 377.13 233.02 377.25 263.03 377.15 293.04 C 377.42 296.91 373.82 300.33 370.03 300.16 C 325.68 300.16 281.33 300.14 236.98 300.17 C 232.95 300.69 229.12 297.01 229.49 292.97 C 229.50 262.31 229.52 231.64 229.47 200.97 Z" />
<path fill="#04aeda" opacity="1.00" d=" M 126.23 211.22 C 142.14 211.21 158.05 211.24 173.96 211.20 C 176.46 211.23 178.99 211.00 181.45 211.53 C 181.91 215.52 181.57 219.55 181.66 223.56 C 179.48 223.94 177.28 224.18 175.07 224.15 C 159.31 224.04 143.54 224.18 127.78 224.08 C 126.48 224.28 125.59 223.24 124.57 222.68 C 124.71 219.39 124.71 216.10 124.67 212.82 C 125.06 212.42 125.84 211.62 126.23 211.22 Z" />
<path fill="#ffffff" opacity="1.00" d=" M 113.10 304.34 C 140.02 304.33 166.95 304.34 193.87 304.34 C 193.85 312.56 193.85 320.78 193.89 329.01 C 194.30 336.40 187.41 343.17 180.07 342.90 C 162.36 342.91 144.66 342.87 126.95 342.92 C 119.56 343.32 112.72 336.47 113.10 329.09 C 113.12 320.84 113.15 312.59 113.10 304.34 Z" />
<path fill="#04aeda" opacity="1.00" d=" M 150.21 316.38 C 154.02 314.71 158.96 316.26 160.58 320.24 C 163.27 324.86 159.25 331.64 153.93 331.52 C 149.32 332.07 145.00 327.56 145.50 323.00 C 145.64 320.12 147.76 317.67 150.21 316.38 Z" />
<path fill="#ffffff" opacity="1.00" d=" M 272.25 337.77 C 271.80 334.34 273.15 329.98 277.08 329.48 C 296.06 329.36 315.04 329.46 334.02 329.43 C 337.85 329.20 341.52 333.28 340.09 337.06 C 339.45 339.68 336.76 341.34 334.14 341.16 C 315.38 341.16 296.62 341.20 277.87 341.14 C 275.47 341.24 273.95 339.09 272.25 337.77 Z" />
</svg>
