<?xml version="1.0" encoding="UTF-8" ?>
<!DOCTYPE svg PUBLIC "-//W3C//DTD SVG 1.1//EN" "http://www.w3.org/Graphics/SVG/1.1/DTD/svg11.dtd">
<svg width="512pt" height="512pt" viewBox="0 0 512 512" version="1.1" xmlns="http://www.w3.org/2000/svg">
<path fill="#00a9ec" opacity="1.00" d=" M 0.00 0.00 L 512.00 0.00 L 512.00 512.00 L 0.00 512.00 L 0.00 0.00 Z" />
<path fill="#ffffff" opacity="1.00" d=" M 128.08 137.25 C 157.70 136.84 187.36 137.19 216.99 137.07 C 272.01 137.10 327.04 137.02 382.06 137.11 C 384.69 136.84 386.38 139.52 386.15 141.90 C 386.13 200.27 386.18 258.64 386.14 317.00 C 386.34 319.31 384.68 322.03 382.10 321.69 C 298.05 321.73 214.00 321.68 129.95 321.71 C 127.29 322.18 124.74 319.77 125.23 317.07 C 125.22 258.69 125.24 200.31 125.22 141.93 C 124.86 139.87 126.12 137.88 128.08 137.25 Z" />
<path fill="#00a9ec" opacity="1.00" d=" M 133.33 293.47 C 133.35 243.90 133.25 194.32 133.39 144.75 C 215.00 144.82 296.62 144.74 378.23 144.79 C 378.25 194.33 378.21 243.88 378.25 293.42 C 296.61 293.48 214.97 293.39 133.33 293.47 Z" />
<path fill="#ffffff" opacity="1.00" d=" M 229.43 325.35 C 246.84 325.37 264.25 325.36 281.66 325.36 C 281.63 336.53 281.65 347.70 281.65 358.88 C 264.25 358.85 246.84 358.85 229.44 358.88 C 229.43 347.70 229.46 336.53 229.43 325.35 Z" />
<path fill="#ffffff" opacity="1.00" d=" M 198.40 344.33 C 206.74 344.45 215.08 344.27 223.42 344.43 C 221.54 350.46 220.22 356.64 218.66 362.75 C 243.13 362.64 267.59 362.78 292.05 362.68 C 290.66 356.56 289.14 350.47 287.41 344.43 C 295.86 344.28 304.31 344.41 312.76 344.37 C 315.48 354.50 317.54 364.80 320.32 374.91 C 277.05 374.93 233.78 374.94 190.51 374.91 C 193.13 364.72 195.85 354.55 198.40 344.33 Z" />
</svg>
