<?xml version="1.0" encoding="UTF-8" ?>
<!DOCTYPE svg PUBLIC "-//W3C//DTD SVG 1.1//EN" "http://www.w3.org/Graphics/SVG/1.1/DTD/svg11.dtd">
<svg width="512pt" height="512pt" viewBox="0 0 512 512" version="1.1" xmlns="http://www.w3.org/2000/svg">
<path fill="#0074c0" opacity="1.00" d=" M 0.00 0.00 L 512.00 0.00 L 512.00 512.00 L 0.00 512.00 L 0.00 0.00 Z" />
<path fill="#ffffff" opacity="1.00" d=" M 352.29 156.28 C 363.56 149.92 374.63 143.18 386.00 137.00 C 400.67 162.70 415.63 188.23 430.34 213.91 C 418.51 220.46 406.94 227.48 395.12 234.04 C 397.39 238.99 400.79 243.34 402.95 248.34 C 368.23 268.11 333.73 288.28 299.06 308.15 C 297.34 309.04 295.45 309.49 293.60 310.02 C 273.97 315.56 254.37 321.22 234.75 326.81 C 231.85 327.62 229.01 328.76 225.97 328.88 C 221.94 321.31 217.49 313.96 213.18 306.55 C 176.34 328.03 139.30 349.17 102.41 370.57 C 100.82 371.54 99.18 372.43 97.43 373.05 C 92.26 363.59 86.59 354.43 81.40 344.99 C 119.93 322.93 158.27 300.56 196.81 278.53 C 193.05 270.62 187.70 263.50 184.11 255.53 C 200.03 240.31 215.85 224.98 231.65 209.64 C 233.92 207.58 235.93 205.21 238.42 203.41 C 272.99 183.26 307.82 163.56 342.31 143.28 C 345.26 147.67 347.73 152.36 350.31 156.96 C 350.81 156.79 351.80 156.45 352.29 156.28 Z" />
<path fill="#0074c0" opacity="1.00" d=" M 319.48 175.09 C 326.50 171.35 333.35 167.28 340.18 163.22 C 355.03 188.83 369.73 214.53 384.67 240.09 C 377.75 244.22 370.67 248.08 363.78 252.25 C 350.33 229.04 336.94 205.80 323.50 182.58 C 322.16 180.09 320.46 177.77 319.48 175.09 Z" />
</svg>
