<?xml version="1.0" encoding="UTF-8" ?>
<!DOCTYPE svg PUBLIC "-//W3C//DTD SVG 1.1//EN" "http://www.w3.org/Graphics/SVG/1.1/DTD/svg11.dtd">
<svg width="512pt" height="512pt" viewBox="0 0 512 512" version="1.1" xmlns="http://www.w3.org/2000/svg">
<path fill="#04aeda" opacity="1.00" d=" M 0.00 0.00 L 512.00 0.00 L 512.00 512.00 L 0.00 512.00 L 0.00 0.00 Z" />
<path fill="#ffffff" opacity="1.00" d=" M 135.30 101.41 C 215.49 101.31 295.69 101.35 375.89 101.39 C 383.26 101.05 389.76 107.78 389.60 115.06 C 389.58 209.05 389.61 303.05 389.59 397.04 C 389.54 403.59 383.93 410.34 377.04 409.93 C 296.34 409.93 215.64 409.91 134.94 409.93 C 128.09 410.45 121.77 403.75 122.32 397.00 C 122.35 302.65 122.33 208.30 122.33 113.95 C 122.19 107.18 128.65 101.33 135.30 101.41 Z" />
<path fill="#04aeda" opacity="1.00" d=" M 140.39 113.42 C 147.27 109.99 156.27 115.39 156.76 122.97 C 157.81 129.68 151.79 136.38 144.98 135.90 C 138.64 136.20 133.08 130.27 133.33 124.02 C 133.27 119.47 136.37 115.32 140.39 113.42 Z" />
<path fill="#04aeda" opacity="1.00" d=" M 361.43 113.64 C 367.56 110.28 375.89 114.09 377.79 120.71 C 380.36 127.66 374.46 135.97 367.08 135.89 C 360.47 136.55 354.56 130.44 354.67 123.97 C 354.91 119.67 357.48 115.48 361.43 113.64 Z" />
<path fill="#04aeda" opacity="1.00" d=" M 196.38 199.40 C 207.96 194.68 220.92 194.82 233.08 196.87 C 237.39 197.67 241.57 199.08 245.60 200.80 C 245.68 205.33 245.61 209.85 245.65 214.38 C 234.86 207.73 221.62 205.25 209.12 207.11 C 197.56 208.82 187.41 216.69 182.18 227.03 C 177.80 235.39 176.79 245.07 177.53 254.36 C 178.28 265.30 182.84 276.52 191.85 283.19 C 204.35 292.38 222.10 292.28 235.70 285.56 C 235.73 276.09 235.69 266.63 235.72 257.17 C 228.29 257.19 220.86 257.12 213.43 257.22 C 213.20 253.52 213.29 249.82 213.29 246.13 C 224.77 246.13 236.25 246.12 247.73 246.13 C 247.71 261.61 247.73 277.09 247.72 292.58 C 233.96 300.20 217.48 303.04 202.00 300.11 C 189.05 297.76 177.50 289.26 171.18 277.75 C 164.57 265.79 163.38 251.42 165.59 238.12 C 168.28 221.05 180.35 205.85 196.38 199.40 Z" />
<path fill="#04aeda" opacity="1.00" d=" M 288.25 197.20 C 292.03 197.18 295.81 197.17 299.59 197.24 C 315.43 237.02 331.39 276.75 347.22 316.54 C 343.57 316.54 339.93 316.54 336.29 316.56 C 320.22 276.80 304.31 236.97 288.25 197.20 Z" />
<path fill="#04aeda" opacity="1.00" d=" M 271.22 225.26 C 276.89 222.81 283.79 228.79 281.90 234.76 C 280.69 240.59 272.51 242.93 268.43 238.61 C 264.21 234.88 265.76 226.96 271.22 225.26 Z" />
<path fill="#04aeda" opacity="1.00" d=" M 270.46 285.66 C 274.60 283.29 280.23 285.89 281.68 290.29 C 283.34 294.36 280.76 299.22 276.73 300.65 C 273.57 301.42 269.84 300.90 267.79 298.13 C 264.39 294.35 265.91 287.78 270.46 285.66 Z" />
<path fill="#04aeda" opacity="1.00" d=" M 141.53 375.76 C 148.35 373.38 156.47 378.68 156.77 385.95 C 157.70 392.61 151.73 399.02 145.06 398.75 C 138.82 398.93 133.17 393.23 133.33 387.01 C 133.18 381.97 136.86 377.36 141.53 375.76 Z" />
<path fill="#04aeda" opacity="1.00" d=" M 363.44 375.62 C 369.56 373.80 376.36 377.86 377.94 383.96 C 380.26 391.26 373.59 399.45 365.99 398.74 C 358.64 398.73 352.70 390.41 355.32 383.49 C 356.49 379.73 359.65 376.68 363.44 375.62 Z" />
</svg>
