<?xml version="1.0" encoding="UTF-8" ?>
<!DOCTYPE svg PUBLIC "-//W3C//DTD SVG 1.1//EN" "http://www.w3.org/Graphics/SVG/1.1/DTD/svg11.dtd">
<svg width="512pt" height="512pt" viewBox="0 0 512 512" version="1.1" xmlns="http://www.w3.org/2000/svg">
<path fill="#04aeda" opacity="1.00" d=" M 0.00 0.00 L 512.00 0.00 L 512.00 512.00 L 0.00 512.00 L 0.00 0.00 Z" />
<path fill="#ffffff" opacity="1.00" d=" M 158.15 152.20 C 184.01 127.90 219.29 113.00 254.98 114.06 C 295.17 112.56 334.96 131.03 361.60 160.83 C 335.34 181.84 309.19 202.97 283.00 224.05 C 281.28 225.32 279.11 228.29 276.95 225.99 C 264.56 216.70 246.48 217.04 234.02 226.05 C 208.26 202.04 182.71 177.79 156.85 153.89 C 157.17 153.47 157.83 152.62 158.15 152.20 Z" />
<path fill="#ffffff" opacity="1.00" d=" M 286.96 236.76 C 314.12 214.28 341.98 192.62 369.20 170.20 C 381.94 187.06 390.99 206.82 394.93 227.60 C 360.52 234.55 326.06 241.38 291.58 247.99 C 290.53 244.06 289.07 240.24 286.96 236.76 Z" />
<path fill="#ffffff" opacity="1.00" d=" M 128.46 192.08 C 158.91 210.08 189.32 228.19 219.61 246.47 C 219.92 249.75 219.18 253.16 218.75 256.45 C 192.82 261.17 167.01 266.63 141.12 271.59 C 132.38 273.28 123.70 275.31 114.89 276.60 C 114.07 269.09 113.95 261.54 114.06 253.99 C 113.39 232.54 119.12 211.26 128.46 192.08 Z" />
<path fill="#ffffff" opacity="1.00" d=" M 368.05 245.59 C 377.75 243.81 387.36 241.37 397.16 240.16 C 397.06 244.47 398.03 248.70 397.95 253.00 C 398.04 277.59 392.36 302.43 380.27 323.94 C 350.20 305.56 319.99 287.41 289.90 269.07 C 290.82 266.36 291.59 263.59 291.86 260.73 C 317.21 255.45 342.66 250.67 368.05 245.59 Z" />
<path fill="#ffffff" opacity="1.00" d=" M 117.37 288.83 C 152.01 281.98 186.68 275.25 221.28 268.23 C 221.48 268.90 221.87 270.23 222.07 270.89 C 197.21 290.74 172.48 310.77 147.66 330.68 C 144.84 332.87 142.24 335.38 139.16 337.24 C 129.01 322.61 121.54 306.14 117.37 288.83 Z" />
<path fill="#ffffff" opacity="1.00" d=" M 146.86 347.04 C 174.27 325.05 201.59 302.94 229.03 280.98 C 234.51 286.22 241.28 290.31 248.83 291.64 C 256.62 293.36 264.85 291.91 271.98 288.48 C 298.21 312.76 324.45 337.03 350.76 361.23 C 324.53 385.47 288.64 398.43 253.05 397.95 C 230.05 397.20 207.05 391.46 186.93 380.12 C 171.72 371.67 157.89 360.52 146.86 347.04 Z" />
<path fill="#ffffff" opacity="1.00" d=" M 118.40 412.39 C 119.87 412.39 121.35 412.40 122.82 412.41 C 122.72 424.58 122.80 436.76 122.78 448.93 C 121.33 448.93 119.87 448.93 118.43 448.94 C 118.42 443.56 118.42 438.19 118.44 432.82 C 112.15 432.77 105.87 432.90 99.58 432.74 C 99.35 438.15 99.55 443.57 99.48 448.99 C 97.93 448.92 96.38 448.85 94.83 448.78 C 95.11 436.70 95.57 424.56 94.80 412.49 C 96.37 412.44 97.94 412.40 99.51 412.37 C 99.46 417.76 99.51 423.16 99.46 428.55 C 105.79 428.57 112.12 428.57 118.45 428.55 C 118.40 423.16 118.45 417.78 118.40 412.39 Z" />
<path fill="#ffffff" opacity="1.00" d=" M 132.42 412.41 C 140.93 412.67 150.97 410.69 157.77 417.18 C 165.33 425.46 163.56 441.01 153.35 446.42 C 146.99 450.08 139.43 448.67 132.45 448.94 C 132.43 436.76 132.48 424.58 132.42 412.41 Z" />
<path fill="#ffffff" opacity="1.00" d=" M 184.30 412.41 C 192.83 412.66 202.97 410.67 209.72 417.30 C 217.07 425.57 215.37 440.78 205.42 446.31 C 199.02 450.09 191.37 448.69 184.32 448.93 C 184.32 436.75 184.37 424.58 184.30 412.41 Z" />
<path fill="#ffffff" opacity="1.00" d=" M 217.24 412.39 C 218.92 412.39 220.62 412.38 222.31 412.39 C 225.72 423.01 230.09 433.33 233.08 444.08 C 236.75 433.48 240.64 422.95 244.42 412.39 C 246.04 412.39 247.67 412.38 249.30 412.39 C 244.84 424.54 240.03 436.57 235.77 448.80 C 234.06 448.89 232.34 448.92 230.63 448.90 C 226.16 436.73 221.74 424.55 217.24 412.39 Z" />
<path fill="#ffffff" opacity="1.00" d=" M 254.71 412.45 C 263.39 412.59 273.72 410.67 280.52 417.51 C 287.37 425.84 285.89 440.52 276.25 446.17 C 269.75 450.10 261.92 448.74 254.73 448.89 C 254.73 436.74 254.77 424.60 254.71 412.45 Z" />
<path fill="#ffffff" opacity="1.00" d=" M 312.58 412.40 C 317.08 412.44 321.59 412.24 326.09 412.48 C 330.93 412.76 335.38 417.02 334.93 422.05 C 335.38 426.92 331.45 430.88 327.05 432.20 C 328.56 433.25 330.04 434.41 331.01 436.02 C 333.73 440.30 336.43 444.60 339.18 448.87 C 337.42 448.90 335.67 448.93 333.91 448.98 C 331.15 444.74 328.86 440.18 325.81 436.14 C 323.75 433.42 320.13 433.51 317.07 433.68 C 317.19 438.74 317.12 443.80 317.14 448.87 C 315.63 448.90 314.12 448.93 312.61 448.97 C 312.58 436.78 312.63 424.59 312.58 412.40 Z" />
<path fill="#ffffff" opacity="1.00" d=" M 354.79 412.42 C 356.34 412.40 357.89 412.39 359.45 412.37 C 364.15 424.56 368.92 436.73 373.65 448.91 C 371.99 448.92 370.34 448.93 368.70 448.95 C 367.33 445.60 366.11 442.20 364.91 438.79 C 359.85 438.82 354.79 438.66 349.74 438.82 C 347.50 441.60 347.15 445.65 345.61 448.90 C 343.95 448.91 342.29 448.91 340.64 448.93 C 345.34 436.75 350.05 424.58 354.79 412.42 Z" />
<path fill="#ffffff" opacity="1.00" d=" M 378.68 412.43 C 380.72 412.40 382.77 412.39 384.82 412.43 C 389.15 422.34 393.71 432.15 397.89 442.12 C 401.92 432.03 406.67 422.25 411.18 412.37 C 412.99 412.38 414.81 412.39 416.63 412.41 C 416.57 424.58 416.62 436.76 416.60 448.94 C 415.15 448.93 413.71 448.93 412.27 448.94 C 412.24 438.81 412.31 428.68 412.27 418.56 C 408.34 428.89 403.23 438.73 399.04 448.96 C 397.56 449.16 396.08 448.85 395.82 447.15 C 391.55 437.37 386.92 427.75 382.79 417.92 C 383.95 428.19 383.03 438.60 383.33 448.93 C 381.78 448.91 380.24 448.90 378.70 448.89 C 378.70 436.74 378.74 424.58 378.68 412.43 Z" />
<path fill="#04aeda" opacity="1.00" d=" M 136.81 416.69 C 143.15 416.59 151.12 416.03 155.32 421.80 C 159.26 428.19 158.39 438.39 151.45 442.43 C 147.09 445.20 141.76 444.76 136.84 444.71 C 136.78 435.37 136.84 426.03 136.81 416.69 Z" />
<path fill="#04aeda" opacity="1.00" d=" M 188.69 416.68 C 194.84 416.62 202.33 416.03 206.73 421.22 C 211.39 427.71 210.30 438.82 202.75 442.74 C 198.49 445.20 193.42 444.72 188.70 444.72 C 188.70 435.37 188.72 426.03 188.69 416.68 Z" />
<path fill="#04aeda" opacity="1.00" d=" M 259.25 416.69 C 265.65 416.57 273.78 416.02 277.87 422.04 C 281.65 428.51 280.66 438.73 273.60 442.61 C 269.25 445.14 264.10 444.79 259.28 444.71 C 259.29 435.37 259.34 426.03 259.25 416.69 Z" />
<path fill="#04aeda" opacity="1.00" d=" M 317.07 416.71 C 320.70 416.84 324.73 415.91 328.00 417.97 C 331.63 420.31 330.93 426.35 327.21 428.24 C 324.14 430.05 320.44 429.25 317.07 429.35 C 317.17 425.13 317.17 420.92 317.07 416.71 Z" />
<path fill="#04aeda" opacity="1.00" d=" M 356.92 417.02 C 358.88 422.90 361.13 428.69 363.24 434.52 C 359.07 434.48 354.91 434.51 350.75 434.47 C 352.92 428.70 355.27 422.97 356.92 417.02 Z" />
<path fill="#ffffff" opacity="1.00" d=" M 290.25 432.81 C 294.97 432.82 299.68 432.81 304.40 432.82 C 304.40 433.66 304.40 435.34 304.41 436.18 C 299.68 436.19 294.96 436.18 290.25 436.19 C 290.25 435.34 290.25 433.66 290.25 432.81 Z" />
</svg>
