<?xml version="1.0" encoding="UTF-8" ?>
<!DOCTYPE svg PUBLIC "-//W3C//DTD SVG 1.1//EN" "http://www.w3.org/Graphics/SVG/1.1/DTD/svg11.dtd">
<svg width="512pt" height="512pt" viewBox="0 0 512 512" version="1.1" xmlns="http://www.w3.org/2000/svg">
<path fill="#04aeda" opacity="1.00" d=" M 0.00 0.00 L 512.00 0.00 L 512.00 512.00 L 0.00 512.00 L 0.00 0.00 Z" />
<path fill="#ffffff" opacity="1.00" d=" M 158.13 152.21 C 183.99 127.92 219.26 113.01 254.95 114.06 C 295.16 112.54 334.93 131.04 361.60 160.81 C 334.42 182.59 307.32 204.47 280.19 226.31 C 278.72 227.87 277.07 225.94 275.77 225.19 C 263.45 216.66 246.09 217.36 234.03 226.05 C 208.26 202.04 182.72 177.79 156.85 153.90 C 157.17 153.47 157.81 152.63 158.13 152.21 Z" />
<path fill="#ffffff" opacity="1.00" d=" M 286.96 236.81 C 314.06 214.25 341.99 192.64 369.20 170.20 C 381.95 187.05 390.97 206.82 394.94 227.59 C 373.97 232.04 352.86 235.84 331.87 240.20 C 318.37 242.53 305.05 245.81 291.52 247.94 C 290.54 244.03 289.09 240.24 286.96 236.81 Z" />
<path fill="#ffffff" opacity="1.00" d=" M 128.43 192.10 C 158.94 210.04 189.35 228.23 219.66 246.51 C 219.82 249.81 219.24 253.17 218.74 256.45 C 184.06 262.79 149.58 270.29 114.89 276.61 C 114.06 269.10 113.96 261.56 114.06 254.01 C 113.37 232.57 119.13 211.30 128.43 192.10 Z" />
<path fill="#ffffff" opacity="1.00" d=" M 379.01 243.40 C 385.04 242.31 391.00 240.78 397.10 240.12 C 400.12 268.86 394.35 298.65 380.27 323.94 C 350.20 305.54 319.96 287.42 289.89 269.04 C 290.83 266.35 291.60 263.58 291.85 260.73 C 320.85 254.70 349.98 249.28 379.01 243.40 Z" />
<path fill="#ffffff" opacity="1.00" d=" M 117.38 288.82 C 152.04 282.00 186.70 275.21 221.33 268.25 C 221.51 268.91 221.88 270.24 222.06 270.90 C 197.02 290.90 172.11 311.06 147.11 331.12 C 144.46 333.17 142.06 335.58 139.10 337.20 C 129.03 322.55 121.51 306.13 117.38 288.82 Z" />
<path fill="#ffffff" opacity="1.00" d=" M 146.88 346.98 C 174.33 325.06 201.59 302.91 229.04 280.98 C 234.54 286.27 241.37 290.34 248.95 291.68 C 256.71 293.34 264.89 291.90 271.98 288.48 C 298.21 312.75 324.45 337.03 350.76 361.22 C 319.58 389.94 274.77 403.16 233.01 395.99 C 199.67 390.80 168.28 373.10 146.88 346.98 Z" />
<path fill="#ffffff" opacity="1.00" d=" M 159.22 412.40 C 160.70 412.39 162.17 412.39 163.65 412.40 C 163.59 424.58 163.63 436.75 163.63 448.93 C 162.17 448.92 160.71 448.92 159.25 448.93 C 159.26 443.56 159.25 438.19 159.26 432.82 C 152.93 432.81 146.59 432.80 140.26 432.83 C 140.32 438.20 140.29 443.58 140.29 448.95 C 138.77 448.93 137.25 448.90 135.73 448.89 C 135.74 436.73 135.75 424.58 135.72 412.43 C 137.25 412.41 138.78 412.39 140.31 412.39 C 140.27 417.76 140.35 423.13 140.23 428.51 C 146.57 428.62 152.92 428.54 159.27 428.55 C 159.24 423.17 159.28 417.78 159.22 412.40 Z" />
<path fill="#ffffff" opacity="1.00" d=" M 173.27 412.41 C 181.20 412.72 190.15 410.86 197.03 415.92 C 202.22 419.51 203.31 426.31 202.86 432.19 C 202.81 438.82 198.27 445.01 192.14 447.37 C 186.18 449.89 179.57 448.66 173.29 448.93 C 173.29 436.75 173.34 424.58 173.27 412.41 Z" />
<path fill="#ffffff" opacity="1.00" d=" M 225.15 412.41 C 232.91 412.72 241.54 410.93 248.39 415.57 C 253.84 419.02 255.28 426.04 254.77 432.04 C 254.64 438.63 250.30 444.88 244.18 447.31 C 238.17 449.89 231.51 448.67 225.19 448.93 C 225.18 436.75 225.24 424.58 225.15 412.41 Z" />
<path fill="#ffffff" opacity="1.00" d=" M 258.07 412.39 C 259.77 412.40 261.48 412.41 263.19 412.43 C 266.56 423.06 270.73 433.42 274.06 444.06 C 277.42 433.37 281.46 422.90 285.29 412.37 C 286.88 412.38 288.47 412.40 290.07 412.42 C 285.57 424.56 280.92 436.65 276.49 448.82 C 274.77 448.82 272.96 449.27 271.32 448.61 C 266.93 436.53 262.45 424.48 258.07 412.39 Z" />
<path fill="#ffffff" opacity="1.00" d=" M 295.56 412.44 C 304.09 412.62 314.06 410.72 320.94 417.11 C 328.51 425.48 326.76 441.15 316.40 446.52 C 310.04 450.07 302.55 448.67 295.61 448.94 C 295.56 436.77 295.66 424.61 295.56 412.44 Z" />
<path fill="#ffffff" opacity="1.00" d=" M 354.30 412.41 C 359.76 412.74 365.46 411.53 370.75 413.21 C 376.14 415.05 378.15 421.83 375.71 426.71 C 374.28 429.49 371.52 431.35 368.54 432.12 C 369.97 433.06 371.44 434.06 372.34 435.57 C 375.22 440.00 378.04 444.48 380.84 448.97 C 378.99 448.95 377.15 448.89 375.32 448.78 C 372.65 444.43 370.40 439.76 367.11 435.84 C 365.05 433.36 361.59 433.57 358.69 433.66 C 358.71 438.75 358.70 443.84 358.71 448.93 C 357.24 448.93 355.78 448.92 354.32 448.93 C 354.32 436.75 354.37 424.58 354.30 412.41 Z" />
<path fill="#04aeda" opacity="1.00" d=" M 177.65 416.69 C 183.82 416.61 191.36 416.03 195.74 421.30 C 200.32 427.80 199.20 438.80 191.73 442.73 C 187.45 445.16 182.40 444.74 177.68 444.73 C 177.63 435.38 177.69 426.03 177.65 416.69 Z" />
<path fill="#04aeda" opacity="1.00" d=" M 229.51 416.68 C 235.50 416.64 242.70 416.00 247.17 420.84 C 252.49 427.39 251.12 439.37 242.98 443.04 C 238.79 445.13 234.01 444.79 229.49 444.66 C 229.58 435.33 229.53 426.01 229.51 416.68 Z" />
<path fill="#04aeda" opacity="1.00" d=" M 300.07 416.71 C 306.15 416.61 313.52 416.03 317.95 421.06 C 322.89 427.62 321.68 439.17 313.77 442.93 C 309.57 445.18 304.70 444.74 300.11 444.70 C 300.13 435.37 300.20 426.04 300.07 416.71 Z" />
<path fill="#04aeda" opacity="1.00" d=" M 358.69 416.69 C 362.40 416.82 366.52 415.95 369.84 418.08 C 372.42 419.75 372.28 423.57 371.14 426.06 C 368.46 430.26 362.94 429.37 358.69 429.38 C 358.71 425.14 358.71 420.91 358.69 416.69 Z" />
<path fill="#ffffff" opacity="1.00" d=" M 331.80 432.83 C 336.56 432.80 341.32 432.81 346.08 432.83 C 346.08 433.66 346.09 435.33 346.09 436.17 C 341.32 436.19 336.55 436.19 331.79 436.16 C 331.79 435.33 331.79 433.67 331.80 432.83 Z" />
</svg>
