<?xml version="1.0" encoding="UTF-8" ?>
<!DOCTYPE svg PUBLIC "-//W3C//DTD SVG 1.1//EN" "http://www.w3.org/Graphics/SVG/1.1/DTD/svg11.dtd">
<svg width="512pt" height="512pt" viewBox="0 0 512 512" version="1.1" xmlns="http://www.w3.org/2000/svg">
<path fill="#04aeda" opacity="1.00" d=" M 0.00 0.00 L 512.00 0.00 L 512.00 512.00 L 0.00 512.00 L 0.00 0.00 Z" />
<path fill="#ffffff" opacity="1.00" d=" M 129.01 155.71 C 203.01 155.62 277.01 155.27 351.01 155.11 C 359.00 154.55 367.03 154.82 375.04 154.84 C 379.94 155.55 385.04 156.86 389.06 159.88 C 393.07 162.89 394.31 168.15 394.42 172.91 C 394.47 192.60 394.78 212.29 394.81 231.99 C 395.61 259.29 395.37 286.63 395.75 313.95 C 395.90 319.00 395.50 324.84 391.56 328.51 C 388.55 330.81 384.77 332.27 380.97 332.39 C 362.97 332.44 344.98 332.82 326.98 332.77 C 317.77 333.65 308.50 332.98 299.27 333.43 C 291.12 341.60 283.23 350.07 275.09 358.26 C 266.67 357.23 258.16 357.46 249.73 356.48 C 249.63 353.90 250.18 351.20 249.42 348.70 C 247.83 346.87 245.62 345.22 243.09 345.26 C 237.43 345.14 231.77 345.28 226.11 345.22 C 222.23 349.01 218.45 352.90 214.60 356.72 C 213.74 357.82 212.23 357.44 211.04 357.59 C 187.35 357.82 163.65 357.56 139.98 358.18 C 134.20 358.35 127.96 358.58 122.99 355.08 C 120.19 353.43 119.18 350.03 119.19 346.96 C 118.14 310.33 118.73 273.64 117.77 237.02 C 117.63 212.97 117.33 188.93 117.23 164.89 C 117.05 161.66 118.74 158.23 121.71 156.81 C 124.07 156.09 126.55 155.85 129.01 155.71 Z" />
</svg>
