<?xml version="1.0" encoding="UTF-8" ?>
<!DOCTYPE svg PUBLIC "-//W3C//DTD SVG 1.1//EN" "http://www.w3.org/Graphics/SVG/1.1/DTD/svg11.dtd">
<svg width="512pt" height="512pt" viewBox="0 0 512 512" version="1.1" xmlns="http://www.w3.org/2000/svg">
<path fill="#04aeda" opacity="1.00" d=" M 0.00 0.00 L 512.00 0.00 L 512.00 512.00 L 0.00 512.00 L 0.00 0.00 Z" />
<path fill="#ffffff" opacity="1.00" d=" M 135.35 101.41 C 215.52 101.31 295.70 101.35 375.87 101.39 C 383.24 101.05 389.72 107.73 389.61 114.99 C 389.58 209.02 389.61 303.06 389.59 397.09 C 389.51 403.63 383.91 410.35 377.03 409.93 C 296.00 409.91 214.98 409.95 133.96 409.91 C 129.55 410.03 125.80 406.86 123.72 403.22 C 121.66 400.21 122.48 396.42 122.33 393.01 C 122.34 300.00 122.34 206.99 122.32 113.99 C 122.17 107.18 128.66 101.31 135.35 101.41 Z" />
<path fill="#04aeda" opacity="1.00" d=" M 140.37 113.43 C 147.24 109.99 156.25 115.36 156.75 122.94 C 157.82 129.66 151.81 136.36 145.00 135.90 C 138.64 136.21 133.06 130.25 133.33 123.99 C 133.29 119.45 136.37 115.32 140.37 113.43 Z" />
<path fill="#04aeda" opacity="1.00" d=" M 361.45 113.62 C 367.63 110.28 375.96 114.14 377.83 120.81 C 380.31 127.75 374.41 135.99 367.06 135.89 C 360.46 136.54 354.56 130.43 354.67 123.97 C 354.91 119.66 357.49 115.47 361.45 113.62 Z" />
<path fill="#04aeda" opacity="1.00" d=" M 175.23 202.28 C 186.63 191.24 203.70 188.29 218.93 190.70 C 231.10 192.59 241.89 200.29 248.39 210.64 C 256.12 222.88 257.56 238.09 255.69 252.17 C 254.20 263.90 249.47 275.62 240.59 283.69 C 235.16 288.93 228.10 292.14 220.84 293.94 C 226.63 299.67 232.25 306.25 240.24 308.87 C 246.27 310.97 252.84 310.28 258.83 308.41 C 258.80 312.34 258.81 316.27 258.79 320.21 C 249.45 322.23 239.18 322.20 230.67 317.36 C 220.94 312.28 214.15 303.41 206.74 295.60 C 192.49 295.57 177.95 289.15 169.55 277.42 C 161.80 267.05 159.24 253.70 159.71 240.99 C 160.10 226.85 164.62 212.13 175.23 202.28 Z" />
<path fill="#04aeda" opacity="1.00" d=" M 293.13 191.62 C 296.88 191.60 300.64 191.60 304.40 191.58 C 320.39 231.29 336.17 271.08 352.10 310.81 C 348.41 310.86 344.72 310.86 341.03 310.77 C 325.14 271.02 309.17 231.31 293.13 191.62 Z" />
<path fill="#ffffff" opacity="1.00" d=" M 200.46 201.74 C 209.24 199.96 218.82 200.93 226.65 205.46 C 234.96 210.36 240.24 219.21 242.20 228.50 C 244.16 237.70 244.22 247.37 242.34 256.60 C 240.35 265.89 235.14 274.84 226.82 279.76 C 218.38 284.77 207.85 285.89 198.39 283.53 C 188.03 280.99 179.84 272.64 175.96 262.90 C 171.74 252.19 171.47 240.14 174.01 229.01 C 177.08 216.10 187.09 204.36 200.46 201.74 Z" />
<path fill="#04aeda" opacity="1.00" d=" M 276.32 219.57 C 281.60 217.75 287.95 222.33 286.90 228.07 C 286.68 234.27 278.24 237.59 273.73 233.41 C 268.86 229.70 270.51 221.31 276.32 219.57 Z" />
<path fill="#04aeda" opacity="1.00" d=" M 276.37 279.61 C 281.60 277.72 287.77 282.44 286.91 288.04 C 286.96 294.53 278.04 297.88 273.52 293.44 C 268.84 289.61 270.67 281.35 276.37 279.61 Z" />
<path fill="#04aeda" opacity="1.00" d=" M 141.54 375.75 C 148.35 373.38 156.44 378.67 156.77 385.91 C 157.64 392.19 152.42 398.34 146.15 398.72 C 139.54 399.54 133.14 393.63 133.32 387.00 C 133.19 381.95 136.87 377.35 141.54 375.75 Z" />
<path fill="#04aeda" opacity="1.00" d=" M 363.42 375.62 C 369.53 373.80 376.34 377.84 377.92 383.93 C 380.15 390.85 374.25 398.76 367.03 398.74 C 360.14 399.32 354.05 392.67 354.73 385.92 C 355.32 381.18 358.78 376.89 363.42 375.62 Z" />
</svg>
