<?xml version="1.0" encoding="UTF-8" ?>
<!DOCTYPE svg PUBLIC "-//W3C//DTD SVG 1.1//EN" "http://www.w3.org/Graphics/SVG/1.1/DTD/svg11.dtd">
<svg width="512pt" height="512pt" viewBox="0 0 512 512" version="1.1" xmlns="http://www.w3.org/2000/svg">
<path fill="#00a9ec" opacity="1.00" d=" M 0.00 0.00 L 512.00 0.00 L 512.00 512.00 L 0.00 512.00 L 0.00 0.00 Z" />
<path fill="#ffffff" opacity="1.00" d=" M 113.51 176.18 C 124.55 162.63 135.09 148.66 145.83 134.86 C 157.67 144.51 169.85 153.74 181.92 163.11 C 171.29 176.92 160.49 190.60 149.86 204.41 C 137.76 194.98 125.69 185.50 113.51 176.18 Z" />
<path fill="#ffffff" opacity="1.00" d=" M 142.03 225.04 C 161.39 200.21 180.72 175.37 200.04 150.51 C 250.96 190.39 302.23 229.83 353.04 269.83 C 333.62 294.52 314.44 319.40 295.09 344.14 C 244.07 304.45 193.09 264.69 142.03 225.04 Z" />
<path fill="#00a9ec" opacity="1.00" d=" M 223.22 207.74 C 226.36 203.50 229.75 199.46 232.95 195.27 C 237.02 198.60 241.19 201.81 245.31 205.07 C 244.21 206.44 243.10 207.80 242.00 209.17 C 247.21 214.04 255.15 217.24 256.60 224.98 C 257.81 233.28 258.01 241.69 259.04 250.01 C 259.21 252.31 260.66 254.22 262.42 255.60 C 269.63 261.42 277.05 266.99 284.19 272.90 C 287.76 270.84 291.96 268.81 296.16 270.24 C 303.56 271.81 308.38 280.56 305.43 287.60 C 302.97 294.70 293.79 298.62 287.15 294.79 C 280.68 291.73 278.01 283.31 281.23 276.98 C 277.64 274.46 274.63 270.54 270.09 269.81 C 261.03 270.58 252.09 272.65 243.03 273.38 C 235.25 273.35 230.58 266.23 224.44 262.59 C 219.53 265.89 212.30 261.91 212.43 256.03 C 212.10 250.26 219.00 246.12 223.99 248.93 C 227.61 250.74 228.78 255.08 228.13 258.83 C 232.80 261.86 236.47 266.75 241.97 268.27 C 249.95 267.45 257.93 266.20 265.84 264.83 C 249.55 251.90 233.19 239.06 216.89 226.15 C 211.94 222.42 207.31 218.28 202.17 214.81 C 200.95 216.52 199.63 218.15 198.20 219.69 C 196.09 214.12 193.90 208.58 191.60 203.09 C 197.62 203.71 203.62 204.63 209.58 205.70 C 208.19 207.33 206.84 208.98 205.53 210.68 C 221.55 223.30 237.53 235.98 253.58 248.57 C 252.99 241.35 252.38 234.13 251.66 226.93 C 251.58 224.70 250.58 222.56 248.83 221.17 C 245.58 218.43 242.14 215.92 238.88 213.20 C 237.83 214.53 236.80 215.87 235.79 217.23 C 231.27 214.53 227.49 210.79 223.22 207.74 Z" />
<path fill="#ffffff" opacity="1.00" d=" M 358.20 273.67 C 367.61 280.99 377.02 288.31 386.41 295.65 C 395.64 302.89 399.25 315.55 397.67 326.88 C 394.38 349.68 376.75 370.55 353.90 375.44 C 344.85 377.76 334.82 375.32 327.61 369.45 C 318.48 362.33 309.34 355.22 300.21 348.12 C 319.64 323.39 338.92 298.53 358.20 273.67 Z" />
</svg>
