<?xml version="1.0" encoding="UTF-8" ?>
<!DOCTYPE svg PUBLIC "-//W3C//DTD SVG 1.1//EN" "http://www.w3.org/Graphics/SVG/1.1/DTD/svg11.dtd">
<svg width="512pt" height="512pt" viewBox="0 0 512 512" version="1.1" xmlns="http://www.w3.org/2000/svg">
<path fill="#00a9ec" opacity="1.00" d=" M 0.00 0.00 L 512.00 0.00 L 512.00 512.00 L 0.00 512.00 L 0.00 0.00 Z" />
<path fill="#ffffff" opacity="1.00" d=" M 113.48 176.16 C 124.58 162.65 135.08 148.63 145.84 134.84 C 157.64 144.53 169.85 153.73 181.91 163.10 C 171.30 176.92 160.50 190.60 149.86 204.40 C 137.74 194.98 125.68 185.48 113.48 176.16 Z" />
<path fill="#ffffff" opacity="1.00" d=" M 142.03 225.04 C 161.39 200.21 180.72 175.36 200.05 150.50 C 248.77 188.60 297.66 226.49 346.44 264.52 C 348.62 266.30 351.04 267.83 353.01 269.88 C 333.60 294.54 314.44 319.41 295.10 344.13 C 244.06 304.46 193.10 264.68 142.03 225.04 Z" />
<path fill="#ffffff" opacity="1.00" d=" M 358.20 273.67 C 367.60 280.98 377.00 288.30 386.39 295.62 C 395.42 302.70 399.11 314.99 397.75 326.10 C 394.71 350.18 375.44 372.21 351.06 376.00 C 341.20 377.61 331.37 373.36 324.19 366.78 C 316.19 360.56 308.20 354.33 300.20 348.11 C 319.66 323.40 338.92 298.52 358.20 273.67 Z" />
</svg>
