<?xml version="1.0" encoding="UTF-8" ?>
<!DOCTYPE svg PUBLIC "-//W3C//DTD SVG 1.1//EN" "http://www.w3.org/Graphics/SVG/1.1/DTD/svg11.dtd">
<svg width="512pt" height="512pt" viewBox="0 0 512 512" version="1.1" xmlns="http://www.w3.org/2000/svg">
<path fill="#54c104" opacity="1.00" d=" M 0.00 0.00 L 512.00 0.00 L 512.00 512.00 L 0.00 512.00 L 0.00 0.00 Z" />
<path fill="#ffffff" opacity="1.00" d=" M 180.75 140.00 C 219.48 113.40 272.47 109.68 314.56 130.54 C 320.16 133.33 325.62 136.40 330.88 139.79 C 331.58 140.05 331.53 140.76 331.54 141.38 L 330.43 140.06 C 319.71 136.71 308.21 138.93 297.83 142.44 C 282.62 147.75 268.74 156.28 255.93 165.93 C 241.39 155.11 225.56 145.40 207.93 140.61 C 199.10 138.06 189.67 137.65 180.75 140.00 Z" />
<path fill="#ffffff" opacity="1.00" d=" M 161.83 156.77 C 164.59 154.71 168.25 155.88 171.19 156.88 C 180.46 160.60 188.51 166.64 196.43 172.59 C 205.56 179.75 214.56 187.11 223.05 195.01 C 221.68 197.80 218.90 199.60 216.88 201.91 C 196.12 223.19 178.58 247.65 165.18 274.20 C 156.88 290.93 149.94 308.54 146.91 327.05 C 146.11 331.75 146.13 336.54 146.15 341.30 C 129.95 320.99 119.66 295.93 117.39 270.04 C 112.99 228.09 130.10 184.55 161.83 156.77 Z" />
<path fill="#ffffff" opacity="1.00" d=" M 341.47 156.57 C 344.41 155.57 348.21 154.82 350.64 157.33 C 373.50 177.85 388.91 206.45 393.48 236.84 C 395.18 247.44 395.05 258.23 394.54 268.92 C 392.36 295.21 382.02 320.64 365.69 341.31 C 366.35 327.62 362.48 314.29 358.28 301.42 C 343.78 261.15 318.87 225.00 288.31 195.21 C 300.96 184.13 313.74 173.10 327.73 163.74 C 332.10 160.98 336.61 158.37 341.47 156.57 Z" />
<path fill="#ffffff" opacity="1.00" d=" M 207.14 272.19 C 223.12 255.92 239.56 240.10 255.93 224.22 C 275.57 243.54 295.57 262.51 314.59 282.45 C 325.47 295.42 335.98 308.84 344.59 323.45 C 348.52 330.12 351.94 337.30 352.97 345.05 C 353.62 349.89 351.87 354.95 348.37 358.37 C 322.35 383.25 285.89 396.79 249.96 394.99 C 218.24 393.85 187.23 380.64 164.05 359.03 C 159.69 355.18 157.88 349.05 159.08 343.41 C 161.30 331.63 168.21 321.50 174.70 311.68 C 184.49 297.74 194.83 284.04 207.14 272.19 Z" />
</svg>
