<?xml version="1.0" encoding="UTF-8" ?>
<!DOCTYPE svg PUBLIC "-//W3C//DTD SVG 1.1//EN" "http://www.w3.org/Graphics/SVG/1.1/DTD/svg11.dtd">
<svg width="512pt" height="512pt" viewBox="0 0 512 512" version="1.1" xmlns="http://www.w3.org/2000/svg">
<path fill="#00a8ec" opacity="1.00" d=" M 0.00 0.00 L 512.00 0.00 L 512.00 512.00 L 0.00 512.00 L 0.00 0.00 Z" />
<path fill="#ffffff" opacity="1.00" d=" M 237.52 122.90 C 257.42 120.41 277.92 121.93 297.01 128.22 C 328.44 138.20 355.73 160.35 372.17 188.92 C 394.48 226.89 396.05 275.97 376.36 315.34 C 363.22 342.07 340.94 364.20 314.04 377.05 C 293.05 387.33 269.32 391.62 246.04 389.98 C 219.39 388.28 193.41 378.12 172.47 361.59 C 149.07 343.25 132.00 316.98 125.01 288.07 C 119.81 266.75 119.92 244.14 125.29 222.86 C 132.59 193.94 149.95 167.74 173.61 149.60 C 192.08 135.29 214.37 126.06 237.52 122.90 Z" />
<path fill="#00a8ec" opacity="1.00" d=" M 262.40 140.72 C 284.74 142.11 306.68 149.92 324.61 163.37 C 347.25 180.07 363.42 205.31 368.95 232.91 C 373.45 254.58 371.44 277.53 363.35 298.13 C 354.32 321.32 337.50 341.34 316.31 354.37 C 294.27 368.02 267.51 373.90 241.78 370.66 C 213.82 367.48 187.31 353.43 168.81 332.26 C 150.41 311.48 139.75 283.82 140.17 256.01 C 139.83 232.73 147.28 209.54 160.50 190.44 C 176.94 166.58 202.63 149.25 231.00 143.24 C 241.28 140.92 251.88 140.21 262.40 140.72 Z" />
<path fill="#ffffff" opacity="1.00" d=" M 246.69 166.96 C 246.66 162.13 250.98 157.57 255.95 158.11 C 260.65 157.89 264.66 162.39 264.53 166.96 C 264.56 196.30 264.53 225.64 264.54 254.98 C 264.92 259.79 260.86 264.37 256.00 264.40 C 226.65 264.46 197.29 264.38 167.94 264.44 C 163.69 264.91 159.40 262.16 158.13 258.08 C 156.09 252.49 161.08 246.02 166.96 246.35 C 193.51 246.29 220.06 246.30 246.62 246.35 C 246.74 219.89 246.59 193.42 246.69 166.96 Z" />
</svg>
