<?xml version="1.0" encoding="UTF-8" ?>
<!DOCTYPE svg PUBLIC "-//W3C//DTD SVG 1.1//EN" "http://www.w3.org/Graphics/SVG/1.1/DTD/svg11.dtd">
<svg width="512pt" height="512pt" viewBox="0 0 512 512" version="1.1" xmlns="http://www.w3.org/2000/svg">
<path fill="#231f20" opacity="1.00" d=" M 0.00 0.00 L 512.00 0.00 L 512.00 512.00 L 0.00 512.00 L 0.00 0.00 Z" />
<path fill="#ffffff" opacity="1.00" d=" M 255.11 110.78 C 263.47 112.54 271.59 115.45 279.90 117.46 C 308.59 125.46 337.28 133.43 365.98 141.39 C 369.48 142.49 373.26 142.94 376.40 144.98 C 363.09 150.99 349.42 156.18 336.00 161.95 C 332.73 163.71 329.15 161.97 325.89 161.16 C 308.58 156.40 291.23 151.82 273.91 147.11 C 271.14 141.61 264.34 141.33 258.99 140.82 C 253.37 141.00 246.87 141.04 242.53 145.19 C 242.17 146.15 241.80 147.12 241.42 148.08 C 242.52 149.98 243.51 152.30 245.82 152.97 C 253.42 155.70 261.92 155.38 269.61 153.11 C 271.48 152.50 273.35 153.49 275.20 153.78 C 288.80 157.69 302.51 161.23 316.18 164.90 C 318.45 165.46 320.71 166.10 322.87 167.03 C 319.20 169.22 315.10 170.50 311.19 172.18 C 294.30 179.22 277.37 186.18 260.50 193.25 C 258.57 194.22 256.60 192.91 254.74 192.42 C 221.83 181.58 188.90 170.81 155.94 160.14 C 153.90 159.44 151.86 158.76 149.81 158.10 C 145.60 156.74 141.40 155.32 137.14 154.08 C 137.16 153.81 137.18 153.28 137.20 153.01 C 171.85 140.79 206.40 128.30 240.96 115.83 C 245.72 114.28 250.38 112.43 255.11 110.78 Z" />
<path fill="#ffffff" opacity="1.00" d=" M 335.79 168.62 C 336.75 168.29 337.70 167.97 338.67 167.65 C 338.71 187.93 338.62 208.21 338.71 228.49 C 337.99 228.74 336.54 229.24 335.82 229.49 C 335.81 209.20 335.86 188.91 335.79 168.62 Z" />
<path fill="#ffffff" opacity="1.00" d=" M 272.13 195.05 C 291.23 187.04 310.42 179.26 329.51 171.22 C 329.61 192.01 329.72 212.81 329.45 233.59 C 327.66 234.82 325.68 235.75 323.79 236.80 C 296.72 250.58 265.39 256.65 235.28 251.71 C 216.23 248.71 197.72 241.92 181.35 231.72 C 181.47 212.86 181.33 194.01 181.42 175.16 C 196.86 179.54 211.90 185.22 227.27 189.82 C 238.09 193.30 248.79 197.18 259.67 200.43 C 263.63 198.22 267.98 196.86 272.13 195.05 Z" />
<path fill="#ffffff" opacity="1.00" d=" M 327.74 272.24 C 327.24 268.72 330.15 264.61 334.00 265.28 C 339.32 265.66 340.81 273.72 336.57 276.56 C 335.10 278.01 332.90 277.29 331.07 277.47 C 329.73 275.91 327.97 274.42 327.74 272.24 Z" />
<path fill="#ffffff" opacity="1.00" d=" M 331.59 288.30 C 332.59 288.30 333.60 288.30 334.61 288.31 C 339.18 326.68 343.61 365.06 348.32 403.41 C 338.38 403.43 328.45 403.42 318.51 403.41 C 322.94 365.05 327.31 326.68 331.59 288.30 Z" />
</svg>
