<?xml version="1.0" encoding="UTF-8" ?>
<!DOCTYPE svg PUBLIC "-//W3C//DTD SVG 1.1//EN" "http://www.w3.org/Graphics/SVG/1.1/DTD/svg11.dtd">
<svg width="512pt" height="512pt" viewBox="0 0 512 512" version="1.1" xmlns="http://www.w3.org/2000/svg">
<path fill="#0097d3" opacity="1.00" d=" M 0.00 0.00 L 512.00 0.00 L 512.00 512.00 L 0.00 512.00 L 0.00 0.00 Z" />
<path fill="#ffffff" opacity="1.00" d=" M 344.51 165.09 C 357.46 165.12 370.42 165.15 383.38 165.08 C 383.39 225.69 383.39 286.31 383.38 346.92 C 370.42 346.85 357.46 346.88 344.51 346.91 C 344.52 286.30 344.52 225.70 344.51 165.09 Z" />
<path fill="#ffffff" opacity="1.00" d=" M 290.45 201.20 C 303.41 201.20 316.37 201.21 329.33 201.20 C 329.31 249.76 329.31 298.33 329.33 346.89 C 316.38 346.89 303.42 346.87 290.47 346.90 C 290.48 298.33 290.52 249.77 290.45 201.20 Z" />
<path fill="#ffffff" opacity="1.00" d=" M 235.57 237.43 C 248.57 237.43 261.57 237.44 274.57 237.43 C 274.53 273.92 274.55 310.41 274.56 346.90 C 261.57 346.88 248.58 346.86 235.59 346.91 C 235.57 310.42 235.61 273.93 235.57 237.43 Z" />
<path fill="#ffffff" opacity="1.00" d=" M 181.74 273.50 C 194.70 273.44 207.65 273.50 220.61 273.47 C 220.57 297.94 220.58 322.42 220.60 346.90 C 207.65 346.86 194.70 346.92 181.74 346.87 C 181.76 322.41 181.77 297.95 181.74 273.50 Z" />
<path fill="#ffffff" opacity="1.00" d=" M 127.90 308.27 C 140.79 308.27 153.68 308.27 166.57 308.27 C 166.53 321.15 166.56 334.03 166.56 346.91 C 153.67 346.86 140.78 346.89 127.90 346.89 C 127.89 334.02 127.89 321.14 127.90 308.27 Z" />
</svg>
