<?xml version="1.0" encoding="UTF-8" ?>
<!DOCTYPE svg PUBLIC "-//W3C//DTD SVG 1.1//EN" "http://www.w3.org/Graphics/SVG/1.1/DTD/svg11.dtd">
<svg width="512pt" height="512pt" viewBox="0 0 512 512" version="1.1" xmlns="http://www.w3.org/2000/svg">
<path fill="#43b51f" opacity="1.00" d=" M 0.00 0.00 L 512.00 0.00 L 512.00 512.00 L 0.00 512.00 L 0.00 0.00 Z" />
<path fill="#ffffff" opacity="1.00" d=" M 158.52 138.41 C 168.24 138.72 178.01 138.77 187.69 139.57 C 189.42 141.25 190.37 143.54 191.51 145.62 C 197.91 158.60 203.29 172.05 208.68 185.47 C 210.85 191.02 213.29 196.48 214.96 202.20 C 214.07 206.29 211.33 209.67 209.21 213.20 C 204.83 219.41 200.60 225.86 194.93 230.99 C 193.47 232.23 192.39 234.15 193.19 236.08 C 195.02 242.97 199.74 248.58 203.71 254.34 C 224.65 282.38 252.39 306.77 286.10 317.79 C 288.75 318.94 291.68 317.38 293.14 315.12 C 300.14 305.57 307.06 295.92 315.14 287.24 C 316.32 286.10 317.67 285.16 318.98 284.18 C 335.87 289.96 351.58 298.64 367.54 306.52 C 372.33 309.28 377.72 311.38 381.68 315.31 C 383.31 318.98 381.45 323.10 381.42 326.96 C 380.43 332.80 381.20 339.43 377.50 344.45 C 367.63 359.04 351.55 368.88 334.38 372.29 C 316.69 375.97 298.32 373.17 281.39 367.42 C 256.10 358.82 233.22 344.26 212.69 327.36 C 193.25 311.15 175.91 292.45 160.99 272.01 C 147.61 253.56 135.25 233.58 130.27 211.07 C 126.54 194.76 128.75 176.92 137.71 162.64 C 143.04 153.32 150.66 145.61 158.52 138.41 Z" />
</svg>
