<?xml version="1.0" encoding="UTF-8" ?>
<!DOCTYPE svg PUBLIC "-//W3C//DTD SVG 1.1//EN" "http://www.w3.org/Graphics/SVG/1.1/DTD/svg11.dtd">
<svg width="512pt" height="512pt" viewBox="0 0 512 512" version="1.1" xmlns="http://www.w3.org/2000/svg">
<path fill="#ffc500" opacity="1.00" d=" M 0.00 0.00 L 512.00 0.00 L 512.00 512.00 L 0.00 512.00 L 0.00 0.00 Z" />
<path fill="#ffffff" opacity="1.00" d=" M 223.87 101.07 C 244.91 94.83 267.70 94.83 288.71 101.17 C 315.17 108.83 338.51 126.53 353.27 149.75 C 365.70 169.13 372.00 192.30 371.32 215.29 C 352.11 215.29 332.91 215.29 313.71 215.29 C 314.91 198.29 308.05 181.03 295.52 169.49 C 278.49 153.09 251.07 149.15 230.12 160.12 C 209.82 170.08 196.86 192.74 198.47 215.29 C 179.37 215.30 160.27 215.27 141.16 215.31 C 139.92 188.06 149.23 160.61 166.39 139.46 C 181.02 121.19 201.37 107.55 223.87 101.07 Z" />
<path fill="#ffffff" opacity="1.00" d=" M 134.27 224.14 C 137.10 223.38 140.08 223.71 142.98 223.65 C 220.32 223.66 297.67 223.66 375.01 223.65 C 380.58 223.41 386.00 227.47 387.19 232.94 C 387.51 235.62 387.33 238.34 387.36 241.04 C 387.36 295.68 387.35 350.33 387.36 404.98 C 387.51 411.43 381.25 416.78 374.98 416.49 C 296.01 416.46 217.04 416.49 138.07 416.47 C 133.32 416.68 128.63 413.76 126.68 409.43 C 125.21 406.52 125.72 403.17 125.64 400.03 C 125.66 345.36 125.66 290.70 125.64 236.03 C 125.30 230.66 129.16 225.59 134.27 224.14 Z" />
<path fill="#ffc500" opacity="1.00" d=" M 238.53 295.99 C 238.51 282.08 252.90 270.33 266.51 273.37 C 279.10 275.22 288.46 288.65 285.78 301.11 C 284.77 306.93 281.34 312.00 276.99 315.87 C 279.92 337.47 283.04 359.05 286.22 380.61 C 270.30 380.64 254.38 380.60 238.46 380.63 C 241.63 359.08 244.57 337.49 247.83 315.95 C 242.09 311.01 238.00 303.75 238.53 295.99 Z" />
</svg>
