<?xml version="1.0" encoding="UTF-8" ?>
<!DOCTYPE svg PUBLIC "-//W3C//DTD SVG 1.1//EN" "http://www.w3.org/Graphics/SVG/1.1/DTD/svg11.dtd">
<svg width="512pt" height="512pt" viewBox="0 0 512 512" version="1.1" xmlns="http://www.w3.org/2000/svg">
<path fill="#0081b5" opacity="1.00" d=" M 0.00 0.00 L 512.00 0.00 L 512.00 512.00 L 0.00 512.00 L 0.00 0.00 Z" />
<path fill="#ffffff" opacity="1.00" d=" M 186.33 149.23 C 205.52 138.01 227.84 132.60 250.00 132.77 C 250.65 132.88 251.95 133.10 252.60 133.22 C 252.81 143.72 252.60 154.24 252.70 164.76 C 236.31 163.94 219.69 167.45 205.17 175.16 C 186.83 184.75 171.97 200.82 163.83 219.85 C 155.13 239.93 154.07 263.18 160.88 283.97 C 167.12 303.40 180.16 320.53 197.18 331.79 C 213.35 342.59 233.06 348.03 252.49 346.72 C 252.95 357.39 252.53 368.09 252.70 378.77 C 228.48 379.69 203.98 373.43 183.34 360.67 C 157.48 344.92 137.85 319.26 129.51 290.15 C 122.84 267.42 123.01 242.79 129.92 220.13 C 138.79 190.46 159.46 164.59 186.33 149.23 Z" />
<path fill="#ffffff" opacity="1.00" d=" M 323.21 193.36 C 344.60 214.80 365.97 236.25 387.46 257.58 C 366.02 279.00 344.60 300.43 323.17 321.86 C 323.26 308.43 323.13 295.01 323.24 281.58 C 298.02 281.36 272.79 281.59 247.56 281.46 C 247.58 265.56 247.54 249.66 247.58 233.75 C 272.76 233.72 297.94 233.71 323.12 233.76 C 323.32 220.30 323.13 206.83 323.21 193.36 Z" />
</svg>
