<?xml version="1.0" encoding="UTF-8" ?>
<!DOCTYPE svg PUBLIC "-//W3C//DTD SVG 1.1//EN" "http://www.w3.org/Graphics/SVG/1.1/DTD/svg11.dtd">
<svg width="512pt" height="512pt" viewBox="0 0 512 512" version="1.1" xmlns="http://www.w3.org/2000/svg">
<path fill="#df0024" opacity="1.00" d=" M 0.00 0.00 L 512.00 0.00 L 512.00 512.00 L 0.00 512.00 L 0.00 0.00 Z" />
<path fill="#ffffff" opacity="1.00" d=" M 240.55 108.89 C 264.41 106.47 288.87 109.56 311.14 118.52 C 340.10 129.99 365.17 150.95 381.67 177.36 C 402.19 209.80 409.03 250.39 400.65 287.81 C 395.56 310.59 385.03 332.12 370.06 350.04 C 351.48 372.43 326.14 389.24 298.16 397.28 C 258.72 409.15 214.42 403.30 179.40 381.64 C 155.95 367.37 136.69 346.38 124.40 321.85 C 107.70 288.82 104.18 249.43 114.78 213.96 C 124.01 182.11 144.54 153.70 171.75 134.76 C 191.99 120.46 215.93 111.56 240.55 108.89 Z" />
<path fill="#df0024" opacity="1.00" d=" M 242.62 132.91 C 264.17 130.72 286.38 133.66 306.18 142.63 C 334.57 154.99 357.91 178.54 370.03 207.05 C 385.26 241.92 382.93 283.89 363.82 316.82 C 350.63 340.02 329.73 358.77 305.15 369.20 C 289.97 375.87 273.40 379.04 256.86 379.30 C 232.19 379.27 207.51 371.88 187.13 357.91 C 162.77 341.51 144.65 316.11 137.10 287.73 C 131.40 266.74 131.45 244.23 137.22 223.26 C 144.42 196.33 161.26 172.19 183.79 155.82 C 200.96 143.23 221.47 135.30 242.62 132.91 Z" />
<path fill="#ffffff" opacity="1.00" d=" M 240.57 188.08 C 250.92 188.14 261.28 188.04 271.63 188.07 C 271.65 233.14 271.58 278.20 271.67 323.26 C 261.30 323.27 250.93 323.25 240.56 323.27 C 240.59 278.21 240.57 233.14 240.57 188.08 Z" />
</svg>
