<?xml version="1.0" encoding="UTF-8" ?>
<!DOCTYPE svg PUBLIC "-//W3C//DTD SVG 1.1//EN" "http://www.w3.org/Graphics/SVG/1.1/DTD/svg11.dtd">
<svg width="512pt" height="512pt" viewBox="0 0 512 512" version="1.1" xmlns="http://www.w3.org/2000/svg">
<path fill="#009f3c" opacity="1.00" d=" M 0.00 0.00 L 512.00 0.00 L 512.00 512.00 L 0.00 512.00 L 0.00 0.00 Z" />
<path fill="#ffffff" opacity="1.00" d=" M 232.30 141.34 C 247.32 123.38 270.73 113.27 294.01 113.46 C 309.29 114.33 324.54 118.93 337.11 127.84 C 354.18 139.63 366.24 158.45 369.66 178.93 C 372.15 193.85 370.55 209.54 364.47 223.44 C 356.54 242.19 340.97 257.50 322.14 265.20 C 298.61 275.10 270.48 272.38 249.15 258.42 C 247.05 260.78 244.82 263.02 242.68 265.35 C 242.52 269.86 240.55 274.20 237.40 277.40 C 215.58 299.25 193.72 321.07 171.90 342.92 C 168.11 346.88 162.55 349.14 157.06 348.56 C 148.92 347.99 141.90 341.13 140.86 333.08 C 140.08 327.61 142.08 321.88 145.97 317.99 C 167.97 295.98 189.98 273.98 211.99 251.97 C 215.17 248.62 219.67 247.11 224.13 246.47 C 226.01 244.41 227.94 242.39 229.78 240.29 C 219.45 227.23 213.76 210.63 213.48 194.01 C 212.97 174.93 219.84 155.79 232.30 141.34 Z" />
<path fill="#009f3c" opacity="1.00" d=" M 283.56 140.85 C 293.54 139.30 303.98 140.46 313.22 144.63 C 329.15 151.50 341.01 166.84 343.72 183.97 C 345.69 195.48 343.50 207.61 337.81 217.78 C 330.85 230.46 318.37 239.97 304.27 243.25 C 289.65 246.93 273.56 243.57 261.42 234.69 C 250.13 226.53 242.38 213.69 240.43 199.89 C 238.21 185.67 242.51 170.64 251.59 159.52 C 259.53 149.69 271.11 142.97 283.56 140.85 Z" />
<path fill="#ffffff" opacity="1.00" d=" M 144.83 355.80 C 220.13 355.78 295.43 355.81 370.73 355.79 C 370.80 369.81 370.71 383.83 370.78 397.86 C 295.46 397.82 220.13 397.91 144.81 397.81 C 144.84 383.81 144.79 369.81 144.83 355.80 Z" />
<path fill="#009f3c" opacity="1.00" d=" M 162.24 360.33 C 165.05 360.33 167.86 360.33 170.67 360.32 C 170.64 371.38 170.60 382.45 170.69 393.51 C 167.89 393.49 165.10 393.51 162.30 393.56 C 162.19 382.48 162.32 371.41 162.24 360.33 Z" />
</svg>
