<?xml version="1.0" encoding="UTF-8" ?>
<!DOCTYPE svg PUBLIC "-//W3C//DTD SVG 1.1//EN" "http://www.w3.org/Graphics/SVG/1.1/DTD/svg11.dtd">
<svg width="512pt" height="512pt" viewBox="0 0 512 512" version="1.1" xmlns="http://www.w3.org/2000/svg">
<path fill="#008853" opacity="1.00" d=" M 0.00 0.00 L 512.00 0.00 L 512.00 512.00 L 0.00 512.00 L 0.00 0.00 Z" />
<path fill="#ffffff" opacity="1.00" d=" M 304.06 142.97 C 312.46 131.44 326.67 124.06 341.03 124.77 C 355.55 124.30 369.77 132.14 377.94 144.01 C 382.93 151.02 385.47 159.51 386.21 168.03 C 386.68 184.09 378.36 200.25 364.50 208.60 C 349.21 218.27 328.34 217.35 313.78 206.69 C 281.42 222.85 249.13 239.16 216.66 255.10 C 216.57 256.37 216.49 257.64 216.42 258.92 C 247.39 274.70 278.26 290.69 309.19 306.54 C 310.42 307.30 311.42 305.88 312.36 305.32 C 322.44 297.18 336.24 294.04 348.90 296.59 C 362.12 299.04 373.86 307.93 380.12 319.78 C 384.93 328.94 386.63 339.75 384.55 349.92 C 382.23 362.21 374.49 373.28 363.86 379.81 C 354.17 385.93 342.12 387.84 330.94 385.59 C 318.00 383.01 306.48 374.36 300.30 362.72 C 296.41 355.84 295.06 347.90 294.58 340.11 C 262.72 323.96 231.05 307.42 199.21 291.23 C 190.14 298.87 177.73 302.13 166.02 300.79 C 153.10 299.39 140.97 292.05 133.77 281.23 C 128.63 273.85 126.15 264.86 125.67 255.94 C 126.05 244.65 130.05 233.30 137.85 224.98 C 146.43 215.51 159.22 209.91 172.02 210.30 C 182.25 210.36 192.37 214.25 200.18 220.83 C 201.61 222.68 203.56 220.78 205.07 220.14 C 235.12 205.05 265.23 190.08 295.31 175.06 C 294.36 163.78 297.18 152.07 304.06 142.97 Z" />
</svg>
