<?xml version="1.0" encoding="UTF-8" ?>
<!DOCTYPE svg PUBLIC "-//W3C//DTD SVG 1.1//EN" "http://www.w3.org/Graphics/SVG/1.1/DTD/svg11.dtd">
<svg width="512pt" height="512pt" viewBox="0 0 512 512" version="1.1" xmlns="http://www.w3.org/2000/svg">
<path fill="#5a9139" opacity="1.00" d=" M 0.00 0.00 L 512.00 0.00 L 512.00 512.00 L 0.00 512.00 L 0.00 0.00 Z" />
<path fill="#ffffff" opacity="1.00" d=" M 190.88 160.84 C 209.08 148.17 230.94 141.34 252.97 139.82 C 285.49 137.96 319.21 149.55 341.92 173.33 C 330.37 182.36 318.48 190.95 306.82 199.84 C 298.02 192.55 287.52 187.22 276.26 185.08 C 254.71 180.74 231.20 185.15 213.44 198.33 C 201.27 207.27 191.62 220.73 190.12 236.05 C 189.02 241.97 190.86 247.87 190.40 253.81 C 161.39 253.81 132.37 253.80 103.36 253.82 C 103.42 241.04 103.40 228.26 103.37 215.49 C 118.93 215.39 134.49 215.69 150.03 215.34 C 156.47 193.02 171.83 173.85 190.88 160.84 Z" />
<path fill="#ffffff" opacity="1.00" d=" M 247.26 202.39 C 258.75 201.17 270.67 203.23 280.53 209.43 C 293.76 217.45 303.26 231.64 304.94 247.10 C 307.13 262.49 301.52 278.66 290.58 289.66 C 281.07 299.27 267.66 305.40 254.01 304.82 C 241.26 305.44 228.67 300.20 219.30 291.72 C 208.76 282.23 202.25 268.23 202.35 254.00 C 202.04 240.39 207.67 226.82 217.33 217.26 C 225.26 209.15 236.00 203.79 247.26 202.39 Z" />
<path fill="#ffffff" opacity="1.00" d=" M 317.16 255.15 C 339.46 255.08 361.73 254.75 384.02 255.12 C 391.85 254.24 399.72 255.61 407.54 254.70 C 407.98 267.63 407.56 280.57 407.75 293.51 C 391.84 293.57 375.92 293.37 360.01 293.60 C 355.80 309.69 346.58 324.21 334.97 336.00 C 311.39 359.87 277.20 372.00 243.89 370.47 C 221.56 369.23 199.32 362.17 181.29 348.73 C 175.67 344.47 170.11 339.93 165.80 334.31 C 178.64 325.53 191.25 316.39 203.98 307.44 C 213.62 316.62 226.55 321.71 239.60 323.50 C 255.43 325.48 271.92 322.67 286.03 315.12 C 299.63 307.92 311.39 295.89 315.59 280.79 C 318.05 272.45 316.93 263.70 317.16 255.15 Z" />
</svg>
