<?xml version="1.0" encoding="UTF-8" ?>
<!DOCTYPE svg PUBLIC "-//W3C//DTD SVG 1.1//EN" "http://www.w3.org/Graphics/SVG/1.1/DTD/svg11.dtd">
<svg width="512pt" height="512pt" viewBox="0 0 512 512" version="1.1" xmlns="http://www.w3.org/2000/svg">
<path fill="#009f3c" opacity="1.00" d=" M 0.00 0.00 L 512.00 0.00 L 512.00 512.00 L 0.00 512.00 L 0.00 0.00 M 253.68 151.71 C 232.25 170.37 210.63 188.81 189.27 207.54 C 168.87 207.67 148.47 207.54 128.07 207.60 C 122.67 207.53 117.80 212.52 118.22 217.96 C 118.20 241.65 118.24 265.34 118.21 289.03 C 118.24 291.48 118.06 293.97 118.55 296.39 C 119.65 300.56 123.79 303.58 128.07 303.60 C 148.07 303.65 168.07 303.57 188.06 303.63 C 210.33 322.78 232.48 342.06 254.73 361.23 C 257.25 363.51 260.82 363.52 264.00 363.09 C 268.42 361.98 271.24 357.45 271.14 353.02 C 271.18 288.68 271.13 224.33 271.17 159.99 C 271.28 156.55 270.18 152.83 267.34 150.69 C 263.37 147.57 257.17 148.11 253.68 151.71 M 345.41 150.43 C 341.48 152.24 339.06 156.81 339.80 161.08 C 340.31 163.55 341.83 165.62 343.36 167.57 C 362.85 192.61 373.66 224.23 373.64 255.96 C 373.90 287.79 363.25 319.62 343.81 344.84 C 341.99 347.20 339.98 349.81 340.21 352.98 C 339.91 358.23 344.66 363.18 349.96 362.90 C 353.12 363.13 356.12 361.49 358.04 359.05 C 374.88 337.63 386.41 312.04 391.08 285.18 C 394.68 264.29 394.33 242.71 389.94 221.96 C 384.63 197.01 373.47 173.33 357.56 153.40 C 354.83 149.73 349.51 148.30 345.41 150.43 M 319.38 176.46 C 313.87 178.89 311.89 186.58 315.67 191.32 C 333.32 214.99 340.76 245.99 335.57 275.06 C 332.81 291.64 325.99 307.48 316.10 321.05 C 313.22 324.82 313.55 330.69 316.98 334.01 C 320.77 338.02 328.03 337.84 331.53 333.53 C 351.88 306.58 360.69 271.33 355.72 237.96 C 352.72 216.85 344.33 196.54 331.58 179.45 C 328.87 175.74 323.50 174.31 319.38 176.46 M 291.43 204.47 C 285.82 206.85 284.00 214.48 287.48 219.36 C 301.53 241.02 301.74 270.53 288.21 292.49 C 285.32 296.44 285.28 302.53 288.96 306.01 C 292.95 310.19 300.68 309.66 303.96 304.84 C 308.50 297.91 311.90 290.26 314.28 282.33 C 321.92 257.65 317.96 229.73 303.92 208.06 C 301.35 204.00 295.75 202.26 291.43 204.47 Z" />
<path fill="#ffffff" opacity="1.00" d=" M 253.68 151.71 C 257.17 148.11 263.37 147.57 267.34 150.69 C 270.18 152.83 271.28 156.55 271.17 159.99 C 271.13 224.33 271.18 288.68 271.14 353.02 C 271.24 357.45 268.42 361.98 264.00 363.09 C 260.82 363.52 257.25 363.51 254.73 361.23 C 232.48 342.06 210.33 322.78 188.06 303.63 C 168.07 303.57 148.07 303.65 128.07 303.60 C 123.79 303.58 119.65 300.56 118.55 296.39 C 118.06 293.97 118.24 291.48 118.21 289.03 C 118.24 265.34 118.20 241.65 118.22 217.96 C 117.80 212.52 122.67 207.53 128.07 207.60 C 148.47 207.54 168.87 207.67 189.27 207.54 C 210.63 188.81 232.25 170.37 253.68 151.71 Z" />
<path fill="#ffffff" opacity="1.00" d=" M 345.41 150.43 C 349.51 148.30 354.83 149.73 357.56 153.40 C 373.47 173.33 384.63 197.01 389.94 221.96 C 394.33 242.71 394.68 264.29 391.08 285.18 C 386.41 312.04 374.88 337.63 358.04 359.05 C 356.12 361.49 353.12 363.13 349.96 362.90 C 344.66 363.18 339.91 358.23 340.21 352.98 C 339.98 349.81 341.99 347.20 343.81 344.84 C 363.25 319.62 373.90 287.79 373.64 255.96 C 373.66 224.23 362.85 192.61 343.36 167.57 C 341.83 165.62 340.31 163.55 339.80 161.08 C 339.06 156.81 341.48 152.24 345.41 150.43 Z" />
<path fill="#ffffff" opacity="1.00" d=" M 319.38 176.46 C 323.50 174.31 328.87 175.74 331.58 179.45 C 344.33 196.54 352.72 216.85 355.72 237.96 C 360.69 271.33 351.88 306.58 331.53 333.53 C 328.03 337.84 320.77 338.02 316.98 334.01 C 313.55 330.69 313.22 324.82 316.10 321.05 C 325.99 307.48 332.81 291.64 335.57 275.06 C 340.76 245.99 333.32 214.99 315.67 191.32 C 311.89 186.58 313.87 178.89 319.38 176.46 Z" />
<path fill="#ffffff" opacity="1.00" d=" M 291.43 204.47 C 295.75 202.26 301.35 204.00 303.92 208.06 C 317.96 229.73 321.92 257.65 314.28 282.33 C 311.90 290.26 308.50 297.91 303.96 304.84 C 300.68 309.66 292.95 310.19 288.96 306.01 C 285.28 302.53 285.32 296.44 288.21 292.49 C 301.74 270.53 301.53 241.02 287.48 219.36 C 284.00 214.48 285.82 206.85 291.43 204.47 Z" />
</svg>
