<?xml version="1.0" encoding="UTF-8" ?>
<!DOCTYPE svg PUBLIC "-//W3C//DTD SVG 1.1//EN" "http://www.w3.org/Graphics/SVG/1.1/DTD/svg11.dtd">
<svg width="512pt" height="512pt" viewBox="0 0 512 512" version="1.1" xmlns="http://www.w3.org/2000/svg">
<path fill="#0081b5" opacity="1.00" d=" M 0.00 0.00 L 512.00 0.00 L 512.00 512.00 L 0.00 512.00 L 0.00 0.00 M 219.20 110.47 C 219.12 152.97 219.20 195.48 219.16 237.98 C 219.16 240.31 218.94 242.68 219.51 244.97 C 244.19 222.53 268.94 200.16 293.78 177.89 C 268.97 155.37 244.05 132.95 219.20 110.47 M 250.98 129.69 C 265.42 143.36 280.50 156.39 295.14 169.87 C 297.53 172.20 300.53 174.04 302.30 176.93 C 302.83 179.81 299.79 181.30 298.13 183.08 C 293.01 188.05 287.23 192.34 282.48 197.66 C 303.04 207.74 317.44 229.93 316.83 253.00 C 317.33 269.11 310.48 284.96 299.34 296.46 C 299.51 320.56 299.21 344.66 299.49 368.76 C 333.51 355.62 361.17 326.90 372.39 292.14 C 384.58 255.75 378.70 213.76 356.46 182.40 C 333.21 148.52 292.11 127.63 250.98 129.69 M 141.44 205.44 C 131.27 229.41 129.46 256.61 135.22 281.92 C 141.94 310.37 159.15 336.15 182.84 353.28 C 203.65 368.48 229.36 376.98 255.16 376.77 C 241.39 363.86 227.17 351.43 213.19 338.75 C 211.30 337.07 207.95 334.80 209.79 331.92 C 217.22 324.67 225.19 317.97 232.80 310.91 C 225.13 307.57 217.85 303.13 211.97 297.11 C 199.97 285.46 193.17 268.73 193.56 252.02 C 193.75 235.86 200.80 220.14 212.24 208.81 C 212.26 184.96 212.24 161.11 212.25 137.27 C 180.58 148.90 154.33 174.27 141.44 205.44 M 217.79 333.87 C 242.82 356.03 267.37 378.73 292.42 400.84 C 292.54 355.99 292.52 311.14 292.43 266.29 C 267.63 288.90 242.38 311.04 217.79 333.87 Z" />
<path fill="#ffffff" opacity="1.00" d=" M 219.20 110.47 C 244.05 132.95 268.97 155.37 293.78 177.89 C 268.94 200.16 244.19 222.53 219.51 244.97 C 218.94 242.68 219.16 240.31 219.16 237.98 C 219.20 195.48 219.12 152.97 219.20 110.47 Z" />
<path fill="#ffffff" opacity="1.00" d=" M 250.98 129.69 C 292.11 127.63 333.21 148.52 356.46 182.40 C 378.70 213.76 384.58 255.75 372.39 292.14 C 361.17 326.90 333.51 355.62 299.49 368.76 C 299.21 344.66 299.51 320.56 299.34 296.46 C 310.48 284.96 317.33 269.11 316.83 253.00 C 317.44 229.93 303.04 207.74 282.48 197.66 C 287.23 192.34 293.01 188.05 298.13 183.08 C 299.79 181.30 302.83 179.81 302.30 176.93 C 300.53 174.04 297.53 172.20 295.14 169.87 C 280.50 156.39 265.42 143.36 250.98 129.69 Z" />
<path fill="#ffffff" opacity="1.00" d=" M 141.44 205.44 C 154.33 174.27 180.58 148.90 212.25 137.27 C 212.24 161.11 212.26 184.96 212.24 208.81 C 200.80 220.14 193.75 235.86 193.56 252.02 C 193.17 268.73 199.97 285.46 211.97 297.11 C 217.85 303.13 225.13 307.57 232.80 310.91 C 225.19 317.97 217.22 324.67 209.79 331.92 C 207.95 334.80 211.30 337.07 213.19 338.75 C 227.17 351.43 241.39 363.86 255.16 376.77 C 229.36 376.98 203.65 368.48 182.84 353.28 C 159.15 336.15 141.94 310.37 135.22 281.92 C 129.46 256.61 131.27 229.41 141.44 205.44 Z" />
<path fill="#ffffff" opacity="1.00" d=" M 217.79 333.87 C 242.38 311.04 267.63 288.90 292.43 266.29 C 292.52 311.14 292.54 355.99 292.42 400.84 C 267.37 378.73 242.82 356.03 217.79 333.87 Z" />
</svg>
