<?xml version="1.0" encoding="UTF-8" ?>
<!DOCTYPE svg PUBLIC "-//W3C//DTD SVG 1.1//EN" "http://www.w3.org/Graphics/SVG/1.1/DTD/svg11.dtd">
<svg width="512pt" height="512pt" viewBox="0 0 512 512" version="1.1" xmlns="http://www.w3.org/2000/svg">
<path fill="#00a8ec" opacity="1.00" d=" M 0.00 0.00 L 512.00 0.00 L 512.00 512.00 L 0.00 512.00 L 0.00 0.00 M 271.15 142.72 C 254.77 147.25 240.06 157.39 229.86 170.96 C 219.49 184.65 213.85 201.86 214.25 219.04 C 214.30 235.78 220.25 252.29 230.37 265.57 C 228.44 267.52 226.55 269.51 224.65 271.49 C 220.33 272.11 215.98 273.58 212.89 276.80 C 191.02 298.64 169.18 320.50 147.37 342.38 C 140.83 348.59 140.44 359.91 146.48 366.58 C 153.30 375.06 167.42 374.53 174.03 366.06 C 195.49 344.49 217.07 323.05 238.51 301.46 C 241.65 298.39 242.57 294.05 243.48 289.95 C 245.28 287.49 247.63 285.49 249.71 283.28 C 265.73 293.97 285.86 297.97 304.81 294.86 C 320.72 292.31 335.78 284.61 347.13 273.17 C 358.38 262.10 366.02 247.47 368.86 231.95 C 371.48 216.94 369.89 201.13 363.81 187.11 C 355.85 168.41 340.27 153.08 321.39 145.53 C 305.56 139.07 287.60 138.14 271.15 142.72 M 301.82 322.24 C 301.89 327.60 301.71 332.95 301.87 338.31 C 302.11 338.50 302.60 338.87 302.85 339.06 C 321.63 339.01 340.38 339.00 359.16 339.11 L 359.55 338.77 C 359.86 333.25 359.56 327.72 359.68 322.19 C 340.39 322.22 321.10 322.13 301.82 322.24 Z" />
<path fill="#ffffff" opacity="1.00" d=" M 271.15 142.72 C 287.60 138.14 305.56 139.07 321.39 145.53 C 340.27 153.08 355.85 168.41 363.81 187.11 C 369.89 201.13 371.48 216.94 368.86 231.95 C 366.02 247.47 358.38 262.10 347.13 273.17 C 335.78 284.61 320.72 292.31 304.81 294.86 C 285.86 297.97 265.73 293.97 249.71 283.28 C 247.63 285.49 245.28 287.49 243.48 289.95 C 242.57 294.05 241.65 298.39 238.51 301.46 C 217.07 323.05 195.49 344.49 174.03 366.06 C 167.42 374.53 153.30 375.06 146.48 366.58 C 140.44 359.91 140.83 348.59 147.37 342.38 C 169.18 320.50 191.02 298.64 212.89 276.80 C 215.98 273.58 220.33 272.11 224.65 271.49 C 226.55 269.51 228.44 267.52 230.37 265.57 C 220.25 252.29 214.30 235.78 214.25 219.04 C 213.85 201.86 219.49 184.65 229.86 170.96 C 240.06 157.39 254.77 147.25 271.15 142.72 M 286.32 166.39 C 274.71 167.69 263.59 173.09 255.41 181.45 C 245.15 191.68 239.54 206.40 240.47 220.87 C 241.24 235.29 248.43 249.25 259.73 258.26 C 268.79 265.53 280.36 269.77 292.01 269.68 C 305.59 269.83 319.10 264.21 328.65 254.59 C 338.28 245.06 344.08 231.58 343.84 218.00 C 344.23 200.74 334.85 183.83 320.43 174.49 C 310.44 167.91 298.20 165.11 286.32 166.39 Z" />
<path fill="#00a8ec" opacity="1.00" d=" M 286.32 166.39 C 298.20 165.11 310.44 167.91 320.43 174.49 C 334.85 183.83 344.23 200.74 343.84 218.00 C 344.08 231.58 338.28 245.06 328.65 254.59 C 319.10 264.21 305.59 269.83 292.01 269.68 C 280.36 269.77 268.79 265.53 259.73 258.26 C 248.43 249.25 241.24 235.29 240.47 220.87 C 239.54 206.40 245.15 191.68 255.41 181.45 C 263.59 173.09 274.71 167.69 286.32 166.39 Z" />
<path fill="#ffffff" opacity="1.00" d=" M 301.82 322.24 C 321.10 322.13 340.39 322.22 359.68 322.19 C 359.56 327.72 359.86 333.25 359.55 338.77 L 359.16 339.11 C 340.38 339.00 321.63 339.01 302.85 339.06 C 302.60 338.87 302.11 338.50 301.87 338.31 C 301.71 332.95 301.89 327.60 301.82 322.24 Z" />
</svg>
