<?xml version="1.0" encoding="UTF-8" ?>
<!DOCTYPE svg PUBLIC "-//W3C//DTD SVG 1.1//EN" "http://www.w3.org/Graphics/SVG/1.1/DTD/svg11.dtd">
<svg width="512pt" height="512pt" viewBox="0 0 512 512" version="1.1" xmlns="http://www.w3.org/2000/svg">
<path fill="#009f3c" opacity="1.00" d=" M 0.00 0.00 L 512.00 0.00 L 512.00 512.00 L 0.00 512.00 L 0.00 0.00 Z" />
<path fill="#ffffff" opacity="1.00" d=" M 214.78 134.86 C 228.76 121.97 243.04 109.41 256.97 96.47 C 277.34 115.30 298.11 133.71 318.59 152.43 C 341.66 173.11 364.41 194.18 387.64 214.67 C 346.77 214.96 305.89 214.71 265.01 214.79 C 218.70 214.72 172.38 214.93 126.06 214.69 C 131.17 210.99 135.47 206.28 140.30 202.23 C 150.57 192.78 161.07 183.58 171.27 174.05 C 171.29 150.94 171.43 127.82 171.19 104.71 C 185.65 104.61 200.11 104.68 214.57 104.67 C 214.61 114.72 214.19 124.88 214.78 134.86 Z" />
<path fill="#ffffff" opacity="1.00" d=" M 125.78 223.24 C 213.18 223.28 300.58 223.20 387.97 223.28 C 388.53 236.11 388.07 249.11 388.22 262.00 C 388.18 312.81 388.31 363.62 388.15 414.42 C 352.31 414.52 316.44 414.59 280.60 414.39 C 280.64 389.58 280.61 364.76 280.62 339.95 C 280.58 338.54 280.80 337.11 280.37 335.75 C 264.81 335.75 249.25 335.85 233.69 335.70 C 233.44 335.95 232.94 336.46 232.68 336.71 C 232.84 362.62 232.71 388.54 232.75 414.45 C 197.09 414.53 161.41 414.51 125.75 414.47 C 125.77 350.72 125.70 286.98 125.78 223.24 Z" />
</svg>
