<?xml version="1.0" encoding="UTF-8" ?>
<!DOCTYPE svg PUBLIC "-//W3C//DTD SVG 1.1//EN" "http://www.w3.org/Graphics/SVG/1.1/DTD/svg11.dtd">
<svg width="512pt" height="512pt" viewBox="0 0 512 512" version="1.1" xmlns="http://www.w3.org/2000/svg">
<path fill="#009f3c" opacity="1.00" d=" M 0.00 0.00 L 512.00 0.00 L 512.00 512.00 L 0.00 512.00 L 0.00 0.00 Z" />
<path fill="#ffffff" opacity="1.00" d=" M 96.81 161.62 C 202.94 161.61 309.07 161.61 415.19 161.62 C 415.24 224.24 415.06 286.88 415.28 349.50 C 351.52 349.76 287.75 349.54 223.98 349.61 C 181.57 349.56 139.16 349.71 96.76 349.54 C 96.89 286.90 96.79 224.26 96.81 161.62 Z" />
<path fill="#009f3c" opacity="1.00" d=" M 138.85 201.61 C 204.08 201.54 269.31 201.64 334.53 201.56 C 334.45 206.45 334.71 211.35 334.37 216.24 C 269.50 215.96 204.61 216.27 139.74 216.08 C 139.54 215.87 139.13 215.46 138.92 215.25 C 138.86 210.71 139.09 206.16 138.85 201.61 Z" />
<path fill="#009f3c" opacity="1.00" d=" M 137.30 246.22 C 189.39 246.23 241.49 246.23 293.59 246.22 C 293.54 251.00 293.53 255.78 293.59 260.56 C 241.50 260.54 189.41 260.52 137.31 260.57 C 137.33 255.79 137.34 251.00 137.30 246.22 Z" />
<path fill="#009f3c" opacity="1.00" d=" M 136.45 304.26 C 136.15 299.38 136.37 294.49 136.30 289.61 C 201.47 289.70 266.65 289.56 331.82 289.69 C 331.64 294.51 331.77 299.34 331.70 304.17 C 266.62 304.22 201.53 304.03 136.45 304.26 Z" />
</svg>
