<?xml version="1.0" encoding="UTF-8" ?>
<!DOCTYPE svg PUBLIC "-//W3C//DTD SVG 1.1//EN" "http://www.w3.org/Graphics/SVG/1.1/DTD/svg11.dtd">
<svg width="512pt" height="512pt" viewBox="0 0 512 512" version="1.1" xmlns="http://www.w3.org/2000/svg">
<path fill="#ef9c00" opacity="1.00" d=" M 0.00 0.00 L 512.00 0.00 L 512.00 512.00 L 0.00 512.00 L 0.00 0.00 Z" />
<path fill="#ffffff" opacity="1.00" d=" M 241.21 114.69 C 250.97 114.70 260.73 114.72 270.49 114.68 C 270.53 156.18 270.53 197.69 270.49 239.19 C 260.73 239.16 250.97 239.17 241.21 239.18 C 241.18 197.69 241.18 156.19 241.21 114.69 Z" />
<path fill="#ffffff" opacity="1.00" d=" M 162.46 169.39 C 180.02 151.94 202.58 139.59 226.73 134.17 C 226.70 150.27 226.68 166.37 226.74 182.46 C 207.83 189.34 191.41 202.87 181.21 220.23 C 171.28 236.85 167.36 256.86 169.95 276.02 C 172.38 294.87 181.31 312.82 194.88 326.14 C 207.79 339.12 224.97 347.78 243.08 350.46 C 260.26 353.15 278.23 350.44 293.88 342.87 C 311.23 334.57 325.67 320.32 334.16 303.06 C 341.83 287.68 344.79 269.96 342.44 252.93 C 339.61 230.69 327.64 209.80 309.97 196.04 C 302.43 190.01 293.82 185.45 284.77 182.15 C 284.78 166.12 284.78 150.10 284.77 134.07 C 316.43 140.69 345.17 159.75 364.13 185.90 C 380.61 208.36 389.70 236.15 389.62 264.01 C 389.89 290.76 381.64 317.49 366.54 339.55 C 351.37 361.79 329.40 379.36 304.24 389.01 C 287.33 395.48 269.12 398.62 251.02 397.88 C 223.57 396.82 196.50 387.08 174.78 370.23 C 151.42 352.35 134.24 326.53 126.94 298.02 C 121.72 277.87 121.29 256.48 125.68 236.14 C 131.06 210.93 144.05 187.42 162.46 169.39 Z" />
</svg>
