<?xml version="1.0" encoding="UTF-8" ?>
<!DOCTYPE svg PUBLIC "-//W3C//DTD SVG 1.1//EN" "http://www.w3.org/Graphics/SVG/1.1/DTD/svg11.dtd">
<svg width="512pt" height="512pt" viewBox="0 0 512 512" version="1.1" xmlns="http://www.w3.org/2000/svg">
<path fill="#208ade" opacity="1.00" d=" M 0.00 0.00 L 512.00 0.00 L 512.00 512.00 L 0.00 512.00 L 0.00 0.00 M 236.35 138.04 C 236.36 146.47 236.36 154.90 236.41 163.33 C 223.66 163.60 210.98 166.32 199.10 170.91 C 180.13 178.18 163.93 192.15 153.54 209.56 C 146.96 220.45 143.08 232.73 140.33 245.08 C 133.97 273.94 137.33 304.70 149.23 331.70 C 156.54 348.16 166.15 364.29 180.75 375.30 C 188.38 380.93 196.61 386.33 206.01 388.36 C 209.82 389.30 214.34 387.71 215.95 383.96 C 218.58 378.55 216.85 372.19 213.48 367.54 C 205.44 356.03 192.17 349.33 184.60 337.42 C 178.42 327.82 175.90 316.14 176.63 304.82 C 180.40 298.75 185.83 293.72 191.84 289.88 C 205.12 281.57 220.94 278.58 236.37 277.77 C 236.49 287.38 236.18 296.99 236.47 306.60 C 238.07 316.88 252.55 321.96 260.55 315.59 C 295.54 289.58 330.60 263.66 365.55 237.60 C 372.40 232.50 376.34 223.08 373.27 214.80 C 371.32 208.66 366.22 204.40 361.09 200.90 C 327.41 175.88 293.71 150.88 260.02 125.89 C 251.22 119.30 235.37 126.51 236.35 138.04 Z" />
<path fill="#ffffff" opacity="1.00" d=" M 236.35 138.04 C 235.37 126.51 251.22 119.30 260.02 125.89 C 293.71 150.88 327.41 175.88 361.09 200.90 C 366.22 204.40 371.32 208.66 373.27 214.80 C 376.34 223.08 372.40 232.50 365.55 237.60 C 330.60 263.66 295.54 289.58 260.55 315.59 C 252.55 321.96 238.07 316.88 236.47 306.60 C 236.18 296.99 236.49 287.38 236.37 277.77 C 220.94 278.58 205.12 281.57 191.84 289.88 C 185.83 293.72 180.40 298.75 176.63 304.82 C 175.90 316.14 178.42 327.82 184.60 337.42 C 192.17 349.33 205.44 356.03 213.48 367.54 C 216.85 372.19 218.58 378.55 215.95 383.96 C 214.34 387.71 209.82 389.30 206.01 388.36 C 196.61 386.33 188.38 380.93 180.75 375.30 C 166.15 364.29 156.54 348.16 149.23 331.70 C 137.33 304.70 133.97 273.94 140.33 245.08 C 143.08 232.73 146.96 220.45 153.54 209.56 C 163.93 192.15 180.13 178.18 199.10 170.91 C 210.98 166.32 223.66 163.60 236.41 163.33 C 236.36 154.90 236.36 146.47 236.35 138.04 Z" />
</svg>
