<?xml version="1.0" encoding="UTF-8" ?>
<!DOCTYPE svg PUBLIC "-//W3C//DTD SVG 1.1//EN" "http://www.w3.org/Graphics/SVG/1.1/DTD/svg11.dtd">
<svg width="512pt" height="512pt" viewBox="0 0 512 512" version="1.1" xmlns="http://www.w3.org/2000/svg">
<path fill="#97c024" opacity="1.00" d=" M 0.00 0.00 L 512.00 0.00 L 512.00 512.00 L 0.00 512.00 L 0.00 0.00 Z" />
<path fill="#ffffff" opacity="1.00" d=" M 236.79 131.85 C 251.30 124.15 269.37 123.68 284.17 130.88 C 301.13 138.65 313.07 154.40 319.92 171.37 C 335.85 171.53 351.77 171.43 367.70 171.42 C 368.77 176.05 367.25 182.14 371.74 185.24 C 377.75 190.64 383.70 196.09 389.69 201.51 C 388.73 222.92 386.75 244.29 385.16 265.67 C 378.31 265.64 372.19 271.03 371.42 277.82 C 370.96 281.18 371.69 284.61 373.43 287.51 C 376.50 292.90 379.50 298.33 382.52 303.75 C 382.24 306.30 381.99 308.86 381.73 311.42 C 375.50 300.71 369.80 289.70 363.47 279.05 C 327.58 299.10 291.64 319.06 255.66 338.93 C 265.07 355.28 274.24 371.77 283.71 388.08 C 284.37 389.93 286.44 389.67 288.02 389.73 C 318.34 389.66 348.66 389.72 378.98 389.70 C 381.20 389.72 383.26 388.82 385.35 388.21 C 384.02 389.96 382.68 392.32 380.06 391.77 C 297.04 391.78 214.01 391.73 130.99 391.76 C 129.11 391.92 126.49 391.30 126.27 389.04 C 125.72 380.71 126.72 372.37 126.71 364.04 C 127.38 345.71 128.09 327.38 128.57 309.05 C 126.21 273.38 122.91 237.76 120.88 202.07 C 127.30 196.45 133.47 190.56 139.88 184.94 C 144.05 181.83 142.48 175.90 143.55 171.43 C 163.38 171.41 183.21 171.55 203.05 171.36 C 209.61 155.05 220.82 139.88 236.79 131.85 Z" />
<path fill="#97c024" opacity="1.00" d=" M 250.03 132.45 C 261.04 130.04 272.90 131.08 283.15 135.90 C 296.79 142.14 307.72 154.10 313.09 168.05 C 300.95 159.30 287.02 152.62 272.02 150.88 C 254.10 148.38 235.45 152.38 219.90 161.54 C 216.47 163.53 213.30 165.93 209.91 167.97 C 210.90 163.79 213.41 160.24 215.69 156.68 C 223.56 144.71 235.96 135.58 250.03 132.45 Z" />
<path fill="#97c024" opacity="1.00" d=" M 213.47 171.51 C 226.18 161.09 242.74 156.21 258.99 155.55 C 276.88 155.19 295.40 160.12 309.46 171.50 C 277.47 171.45 245.46 171.42 213.47 171.51 Z" />
<path fill="#97c024" opacity="1.00" d=" M 305.24 225.25 C 306.42 225.25 307.61 225.26 308.79 225.27 C 308.69 232.38 309.56 239.47 309.21 246.58 C 323.44 246.58 337.98 250.66 348.93 260.03 C 353.95 264.19 357.88 269.43 361.48 274.81 C 325.29 294.74 289.21 314.86 253.00 334.76 C 245.28 320.87 244.30 303.67 249.80 288.83 C 251.30 284.37 253.97 280.46 255.82 276.18 C 250.06 272.31 243.98 268.93 238.18 265.12 C 238.27 264.33 238.46 262.74 238.55 261.95 C 239.93 262.31 241.41 262.51 242.64 263.30 C 247.82 266.43 252.75 269.97 258.06 272.88 C 260.99 270.24 263.28 266.98 266.27 264.38 C 271.70 259.09 278.20 254.99 285.15 252.00 C 291.64 249.30 298.59 248.05 305.44 246.64 C 305.27 239.51 305.23 232.38 305.24 225.25 Z" />
<path fill="#ffffff" opacity="1.00" d=" M 313.23 265.17 C 313.83 263.14 316.11 262.49 317.67 261.38 C 318.91 261.87 320.15 262.35 321.41 262.83 C 322.22 264.51 323.73 266.11 323.48 268.11 C 322.41 270.45 319.99 273.40 317.10 272.32 C 313.96 271.76 311.89 268.11 313.23 265.17 Z" />
<path fill="#ffffff" opacity="1.00" d=" M 263.35 292.61 C 264.95 291.15 266.44 288.83 268.93 289.11 C 273.09 289.12 276.15 294.88 272.97 297.98 C 270.70 300.87 265.84 300.07 264.17 297.00 C 263.81 295.55 263.54 294.09 263.35 292.61 Z" />
<path fill="#97c024" opacity="1.00" d=" M 232.59 363.37 C 228.32 355.79 233.98 344.38 242.97 344.30 C 247.97 343.47 253.23 345.73 255.98 350.00 C 259.11 354.94 261.76 360.17 264.77 365.19 C 269.25 373.46 274.68 381.18 278.98 389.57 C 270.01 389.88 261.02 389.60 252.04 389.75 C 250.27 389.55 247.70 390.32 246.88 388.17 C 242.14 379.89 237.20 371.72 232.59 363.37 Z" />
</svg>
