<?xml version="1.0" encoding="UTF-8" ?>
<!DOCTYPE svg PUBLIC "-//W3C//DTD SVG 1.1//EN" "http://www.w3.org/Graphics/SVG/1.1/DTD/svg11.dtd">
<svg width="512pt" height="512pt" viewBox="0 0 512 512" version="1.1" xmlns="http://www.w3.org/2000/svg">
<path fill="#1ca966" opacity="1.00" d=" M 0.00 0.00 L 512.00 0.00 L 512.00 512.00 L 0.00 512.00 L 0.00 0.00 Z" />
<path fill="#ffffff" opacity="1.00" d=" M 141.22 123.34 C 163.78 122.98 186.37 123.29 208.94 123.18 C 262.62 123.24 316.30 123.07 369.97 123.27 C 378.69 125.81 386.28 133.16 388.75 141.94 C 388.90 217.66 388.78 293.39 388.81 369.11 C 388.17 374.72 384.14 379.40 380.13 383.12 C 376.91 385.69 373.27 388.37 369.06 388.80 C 294.70 388.85 220.34 388.77 145.98 388.84 C 139.17 389.51 133.29 384.84 128.88 380.17 C 126.08 376.71 122.96 372.70 123.16 368.01 C 123.25 292.66 123.09 217.30 123.24 141.94 C 125.61 133.36 132.89 126.29 141.22 123.34 Z" />
<path fill="#1ca966" opacity="1.00" d=" M 156.15 176.16 C 173.94 176.16 191.74 176.21 209.54 176.14 C 209.51 234.95 209.49 293.77 209.55 352.59 C 191.74 352.52 173.94 352.57 156.14 352.56 C 156.18 293.76 156.16 234.96 156.15 176.16 Z" />
<path fill="#1ca966" opacity="1.00" d=" M 302.45 352.59 C 302.51 305.92 302.47 259.25 302.47 212.59 C 320.26 212.63 338.04 212.58 355.82 212.61 C 355.88 259.26 355.81 305.91 355.86 352.57 C 338.06 352.57 320.25 352.52 302.45 352.59 Z" />
<path fill="#1ca966" opacity="1.00" d=" M 229.32 265.08 C 247.11 265.24 264.90 265.24 282.70 265.09 C 282.68 294.25 282.67 323.42 282.70 352.59 C 264.91 352.54 247.11 352.54 229.31 352.59 C 229.34 323.42 229.33 294.25 229.32 265.08 Z" />
</svg>
