<?xml version="1.0" encoding="UTF-8" ?>
<!DOCTYPE svg PUBLIC "-//W3C//DTD SVG 1.1//EN" "http://www.w3.org/Graphics/SVG/1.1/DTD/svg11.dtd">
<svg width="512pt" height="512pt" viewBox="0 0 512 512" version="1.1" xmlns="http://www.w3.org/2000/svg">
<path fill="#12a664" opacity="1.00" d=" M 0.00 0.00 L 512.00 0.00 L 512.00 512.00 L 0.00 512.00 L 0.00 0.00 Z" />
<path fill="#ffffff" opacity="1.00" d=" M 154.61 132.48 C 170.58 132.46 186.55 132.43 202.52 132.49 C 220.53 159.27 237.92 186.46 256.07 213.14 C 256.43 212.71 257.15 211.87 257.51 211.44 C 274.83 185.06 292.08 158.62 309.75 132.48 C 325.69 132.45 341.62 132.46 357.56 132.47 C 331.35 169.87 305.33 207.40 279.62 245.14 C 309.52 288.05 338.99 331.26 368.53 374.42 C 369.68 376.15 370.88 377.85 372.19 379.47 C 356.74 379.60 341.29 379.53 325.84 379.51 C 302.69 345.54 279.25 311.77 255.98 277.89 C 239.89 300.71 223.71 323.47 207.64 346.30 C 229.36 346.54 251.09 346.45 272.81 346.55 C 272.86 357.53 272.73 368.52 272.84 379.51 C 228.47 379.53 184.10 379.59 139.73 379.49 C 151.77 362.48 163.23 345.06 175.16 327.98 C 194.28 300.28 213.33 272.52 232.60 244.93 C 206.64 207.43 180.86 169.78 154.61 132.48 Z" />
</svg>
