<?xml version="1.0" encoding="UTF-8" ?>
<!DOCTYPE svg PUBLIC "-//W3C//DTD SVG 1.1//EN" "http://www.w3.org/Graphics/SVG/1.1/DTD/svg11.dtd">
<svg width="512pt" height="512pt" viewBox="0 0 512 512" version="1.1" xmlns="http://www.w3.org/2000/svg">
<path fill="#df4c40" opacity="1.00" d=" M 0.00 0.00 L 512.00 0.00 L 512.00 512.00 L 0.00 512.00 L 0.00 0.00 Z" />
<path fill="#ffffff" opacity="1.00" d=" M 131.36 117.50 C 132.86 116.91 134.47 116.61 136.09 116.56 C 216.73 116.58 297.37 116.59 378.00 116.55 C 388.70 117.62 398.79 127.86 397.34 139.01 C 397.32 217.68 397.32 296.35 397.34 375.01 C 398.65 385.46 389.91 395.38 379.96 397.29 C 299.62 397.39 219.27 397.28 138.93 397.34 C 126.50 398.73 115.14 386.22 116.54 374.05 C 116.62 297.01 116.54 219.98 116.58 142.95 C 116.68 139.31 116.09 135.53 117.37 132.03 C 119.55 125.41 124.84 119.95 131.36 117.50 Z" />
<path fill="#df4c40" opacity="1.00" d=" M 145.28 168.41 C 156.83 168.64 168.36 167.04 179.90 168.12 C 184.93 168.88 190.06 168.15 195.07 169.09 C 226.41 172.41 256.58 185.13 281.27 204.66 C 312.99 229.67 335.13 266.40 342.71 306.06 C 347.25 326.60 344.57 347.72 345.26 368.55 C 331.32 368.71 317.37 368.58 303.43 368.64 C 303.68 350.07 303.68 331.39 300.27 313.09 C 296.28 294.65 288.41 277.00 276.76 262.12 C 258.42 238.13 231.47 220.72 201.84 214.59 C 183.20 210.76 164.06 211.29 145.13 211.35 C 144.37 201.25 145.18 191.08 144.83 180.96 C 145.02 176.78 144.39 172.54 145.28 168.41 Z" />
<path fill="#df4c40" opacity="1.00" d=" M 145.41 239.18 C 151.62 239.15 157.84 239.33 164.04 239.11 C 172.37 238.15 180.72 239.23 189.06 239.53 C 232.05 244.37 269.06 281.02 274.38 323.96 C 276.00 338.87 274.90 353.89 275.19 368.85 C 261.22 368.87 247.26 368.88 233.30 368.85 C 233.02 353.24 234.62 337.23 230.09 322.05 C 223.69 300.29 203.06 283.76 180.51 281.86 C 168.90 281.02 157.22 281.26 145.58 281.28 C 145.32 267.25 145.56 253.21 145.41 239.18 Z" />
<path fill="#df4c40" opacity="1.00" d=" M 167.46 309.63 C 182.60 305.52 200.28 315.13 204.32 330.45 C 206.08 338.86 205.66 348.33 200.66 355.61 C 191.62 369.42 170.63 373.91 157.28 363.72 C 141.20 353.10 141.28 326.81 156.01 315.08 C 159.35 312.42 163.36 310.72 167.46 309.63 Z" />
</svg>
