<?xml version="1.0" encoding="UTF-8" ?>
<!DOCTYPE svg PUBLIC "-//W3C//DTD SVG 1.1//EN" "http://www.w3.org/Graphics/SVG/1.1/DTD/svg11.dtd">
<svg width="512pt" height="512pt" viewBox="0 0 512 512" version="1.1" xmlns="http://www.w3.org/2000/svg">
<path fill="#eb6796" opacity="1.00" d=" M 0.00 0.00 L 512.00 0.00 L 512.00 512.00 L 0.00 512.00 L 0.00 0.00 Z" />
<path fill="#ffffff" opacity="1.00" d=" M 243.25 104.41 C 253.61 103.04 264.08 103.92 274.43 104.93 C 307.16 108.87 338.45 123.86 362.04 146.89 C 385.03 169.02 400.85 198.54 406.28 230.00 C 408.63 244.20 409.83 258.75 407.74 273.07 C 403.32 320.98 374.11 365.52 332.47 389.43 C 291.20 413.77 238.22 416.80 194.42 397.38 C 159.57 382.38 130.85 353.79 115.58 319.07 C 106.68 299.30 102.49 277.60 102.30 255.98 C 102.81 235.75 106.61 215.47 114.71 196.85 C 129.84 160.99 159.28 131.49 195.07 116.21 C 210.34 109.72 226.64 105.39 243.25 104.41 Z" />
<path fill="#eb6796" opacity="1.00" d=" M 248.41 180.53 C 264.02 179.18 280.10 182.35 293.67 190.31 C 309.06 199.08 321.21 213.36 327.43 229.94 C 333.78 246.82 333.90 265.94 327.81 282.92 C 322.18 298.58 311.33 312.35 297.32 321.34 C 281.25 331.96 261.03 335.95 242.11 332.51 C 223.52 329.36 206.38 318.85 194.89 303.95 C 186.64 293.29 181.20 280.46 179.52 267.07 C 176.97 248.64 181.49 229.30 192.02 213.95 C 204.57 195.14 225.85 182.45 248.41 180.53 Z" />
</svg>
