<?xml version="1.0" encoding="UTF-8" ?>
<!DOCTYPE svg PUBLIC "-//W3C//DTD SVG 1.1//EN" "http://www.w3.org/Graphics/SVG/1.1/DTD/svg11.dtd">
<svg width="512pt" height="512pt" viewBox="0 0 512 512" version="1.1" xmlns="http://www.w3.org/2000/svg">
<path fill="#d64136" opacity="1.00" d=" M 0.00 0.00 L 512.00 0.00 L 512.00 512.00 L 0.00 512.00 L 0.00 0.00 Z" />
<path fill="#ffffff" opacity="1.00" d=" M 121.96 124.96 C 126.15 122.38 131.19 121.71 136.03 121.71 C 149.27 121.76 162.50 121.72 175.74 121.74 C 175.72 135.99 175.68 150.25 175.76 164.51 C 154.30 164.51 132.84 164.51 111.38 164.51 C 111.48 157.34 111.32 150.17 111.44 143.00 C 111.44 135.68 115.67 128.64 121.96 124.96 Z" />
<path fill="#ffffff" opacity="1.00" d=" M 181.64 121.74 C 205.64 121.71 229.64 121.76 253.64 121.71 C 253.68 135.98 253.60 150.25 253.68 164.52 C 229.66 164.49 205.63 164.53 181.61 164.50 C 181.66 150.25 181.61 135.99 181.64 121.74 Z" />
<path fill="#ffffff" opacity="1.00" d=" M 258.97 122.76 C 259.12 122.53 259.43 122.05 259.59 121.81 C 283.25 121.61 306.92 121.80 330.59 121.73 C 330.58 135.98 330.54 150.24 330.61 164.49 C 306.65 164.46 282.68 164.58 258.72 164.43 C 259.84 150.56 258.31 136.65 258.97 122.76 Z" />
<path fill="#ffffff" opacity="1.00" d=" M 336.43 164.49 C 336.52 150.25 336.44 136.00 336.47 121.76 C 350.66 121.76 364.85 121.62 379.03 121.81 C 389.74 121.88 399.76 130.54 400.51 141.38 C 400.74 149.08 400.47 156.79 400.62 164.49 C 379.22 164.50 357.83 164.50 336.43 164.49 Z" />
<path fill="#ffffff" opacity="1.00" d=" M 111.40 357.99 C 111.46 295.26 111.31 232.52 111.47 169.79 C 115.96 169.81 120.44 169.81 124.93 169.81 C 130.97 169.80 137.01 169.81 143.05 169.80 C 146.02 169.83 148.99 169.83 151.96 169.80 C 155.97 169.81 159.98 169.82 164.00 169.80 C 172.35 169.82 180.70 169.80 189.05 169.82 C 191.05 169.81 193.06 169.80 195.06 169.80 C 198.36 169.83 201.66 169.81 204.96 169.81 C 214.64 169.81 224.32 169.80 234.00 169.81 C 251.33 169.80 268.67 169.83 286.01 169.80 C 288.99 169.81 291.97 169.83 294.95 169.81 C 299.98 169.81 305.01 169.81 310.04 169.81 C 320.35 169.80 330.65 169.83 340.95 169.79 C 348.97 169.98 356.98 169.85 365.00 169.80 C 368.00 169.82 371.00 169.83 374.00 169.80 C 382.84 169.74 391.68 170.06 400.52 169.75 C 400.70 232.48 400.53 295.22 400.61 357.95 C 401.01 368.03 396.33 378.21 388.28 384.32 C 382.50 388.82 375.19 391.03 367.92 391.14 C 294.28 391.17 220.64 391.11 147.00 391.17 C 139.47 391.39 131.70 389.82 125.42 385.49 C 116.40 379.56 111.04 368.74 111.40 357.99 Z" />
<path fill="#d64136" opacity="1.00" d=" M 184.69 213.73 C 194.15 204.90 207.34 201.10 220.03 200.49 C 234.97 200.63 249.92 200.22 264.84 200.71 C 263.54 202.37 262.32 204.42 260.10 204.92 C 254.74 206.54 249.00 206.37 243.66 208.15 C 247.08 210.37 250.78 212.53 252.92 216.13 C 256.26 221.77 256.46 228.57 256.65 234.95 C 257.19 243.72 254.35 252.82 247.98 259.03 C 243.15 264.40 235.70 267.71 233.37 275.03 C 234.53 277.57 235.80 280.15 237.94 282.03 C 244.18 287.84 251.52 292.52 256.75 299.35 C 268.97 313.85 265.41 338.19 250.22 349.24 C 238.74 357.79 223.93 360.28 209.92 360.28 C 197.55 359.85 184.35 357.58 174.57 349.43 C 161.78 338.93 161.20 316.78 174.07 306.09 C 186.73 295.71 203.91 293.83 219.71 293.52 C 218.88 289.78 216.02 287.29 213.64 284.53 C 213.18 281.14 213.52 277.71 213.52 274.30 C 203.27 274.39 192.20 272.74 184.23 265.74 C 176.85 259.45 173.98 249.40 174.20 239.98 C 173.93 230.29 177.53 220.39 184.69 213.73 Z" />
<path fill="#d64136" opacity="1.00" d=" M 306.72 200.55 C 309.98 200.51 313.23 200.51 316.49 200.52 C 316.48 210.84 316.52 221.15 316.46 231.47 C 326.77 231.45 337.07 231.42 347.38 231.48 C 347.39 234.72 347.38 237.96 347.35 241.21 C 337.06 241.19 326.77 241.26 316.47 241.17 C 316.52 251.39 316.45 261.61 316.51 271.84 C 313.25 272.19 309.96 272.15 306.70 271.78 C 306.77 261.58 306.70 251.38 306.75 241.17 C 296.58 241.27 286.42 241.16 276.27 241.24 C 275.85 237.99 275.75 234.71 276.09 231.45 C 286.32 231.46 296.54 231.43 306.76 231.47 C 306.68 221.16 306.75 210.85 306.72 200.55 Z" />
<path fill="#ffffff" opacity="1.00" d=" M 209.56 208.92 C 215.27 208.25 220.86 211.13 224.92 214.96 C 232.55 222.42 236.46 233.38 235.72 243.99 C 235.50 250.84 232.69 257.96 227.01 262.08 C 222.25 265.61 215.46 265.51 210.43 262.59 C 202.09 258.03 197.03 249.12 195.01 240.07 C 193.34 231.93 193.92 222.82 198.77 215.82 C 201.19 212.13 205.24 209.66 209.56 208.92 Z" />
<path fill="#ffffff" opacity="1.00" d=" M 207.55 301.70 C 217.50 299.30 228.45 300.39 237.39 305.53 C 242.59 308.48 247.10 313.15 248.68 319.04 C 250.86 326.02 247.49 333.59 242.47 338.48 C 232.09 348.26 216.32 350.88 202.84 347.06 C 195.42 344.79 188.08 340.18 184.90 332.82 C 182.31 327.24 183.17 320.49 186.50 315.41 C 191.17 308.10 199.34 303.80 207.55 301.70 Z" />
</svg>
