<?xml version="1.0" encoding="UTF-8" ?>
<!DOCTYPE svg PUBLIC "-//W3C//DTD SVG 1.1//EN" "http://www.w3.org/Graphics/SVG/1.1/DTD/svg11.dtd">
<svg width="512pt" height="512pt" viewBox="0 0 512 512" version="1.1" xmlns="http://www.w3.org/2000/svg">
<path fill="#d44132" opacity="1.00" d=" M 0.00 0.00 L 512.00 0.00 L 512.00 512.00 L 0.00 512.00 L 0.00 0.00 Z" />
<path fill="#ffffff" opacity="1.00" d=" M 115.35 133.32 C 115.73 123.20 125.07 114.89 135.01 114.79 C 215.99 114.80 296.97 114.81 377.95 114.78 C 387.78 114.92 397.29 122.95 397.69 133.04 C 397.74 151.91 397.63 170.78 397.73 189.65 C 382.23 189.66 366.74 189.57 351.24 189.70 C 351.23 172.41 351.26 155.11 351.24 137.82 C 343.36 137.76 335.49 137.79 327.61 137.80 C 327.54 155.10 327.61 172.40 327.61 189.70 C 312.08 189.55 296.55 189.72 281.03 189.61 C 279.49 189.69 277.85 189.42 276.40 189.96 C 276.23 197.74 276.23 205.53 276.45 213.31 C 293.50 213.11 310.56 213.29 327.62 213.21 C 327.61 230.42 327.54 247.63 327.67 264.83 C 335.45 264.77 343.24 265.02 351.02 264.73 C 351.53 247.59 351.12 230.40 351.22 213.24 C 366.71 213.22 382.20 213.21 397.69 213.24 C 397.67 268.51 397.73 323.78 397.66 379.05 C 397.36 389.18 388.08 397.69 378.02 397.54 C 341.36 397.66 304.70 397.59 268.04 397.57 C 275.54 382.18 274.89 362.91 265.79 348.30 C 258.74 336.64 247.80 328.20 237.49 319.60 C 230.80 313.87 223.54 308.85 216.82 303.18 C 212.09 299.19 208.10 293.48 208.56 287.01 C 208.93 278.40 215.31 271.72 221.49 266.41 C 231.11 258.79 240.74 250.64 246.84 239.79 C 254.44 227.32 255.65 212.05 253.90 197.85 C 251.73 181.52 242.56 166.71 230.10 156.17 C 237.10 156.13 244.09 156.21 251.09 156.16 C 253.25 156.29 254.81 154.50 256.50 153.43 C 263.40 148.12 270.76 143.39 277.43 137.79 C 251.95 137.58 226.46 137.76 200.98 137.70 C 182.47 137.59 163.46 138.21 145.95 144.90 C 134.58 148.77 124.27 155.28 115.23 163.13 C 115.30 153.20 115.08 143.25 115.35 133.32 Z" />
<path fill="#ffffff" opacity="1.00" d=" M 164.67 152.05 C 174.75 150.87 185.09 154.64 192.60 161.36 C 204.76 172.10 211.46 187.62 215.34 203.06 C 218.09 215.38 220.51 228.65 216.10 240.89 C 212.94 250.98 205.25 259.42 195.44 263.40 C 184.05 268.69 170.28 266.83 159.89 260.12 C 147.70 252.28 140.27 239.01 135.66 225.62 C 131.21 211.84 129.03 196.93 131.85 182.58 C 133.28 175.28 136.61 168.25 141.90 162.95 C 147.96 156.86 156.16 153.07 164.67 152.05 Z" />
<path fill="#ffffff" opacity="1.00" d=" M 115.22 266.30 C 125.90 274.20 138.52 279.65 151.82 280.87 C 158.98 282.07 166.18 280.98 173.33 280.50 C 168.74 289.08 168.02 299.59 171.56 308.67 C 173.78 314.42 177.79 319.16 181.24 324.19 C 158.92 325.63 136.15 328.05 115.37 336.87 C 115.07 313.35 115.35 289.82 115.22 266.30 Z" />
<path fill="#ffffff" opacity="1.00" d=" M 156.65 339.43 C 168.94 336.89 181.53 335.82 194.08 336.40 C 195.80 336.34 197.11 337.56 198.45 338.45 C 209.96 346.92 222.08 354.67 232.46 364.56 C 238.62 370.60 243.95 378.26 244.77 387.08 C 245.34 390.54 244.86 394.04 244.66 397.51 C 208.43 397.67 172.20 397.58 135.98 397.55 C 128.42 397.76 120.67 393.54 117.46 386.57 C 113.48 378.79 116.08 369.89 115.34 361.58 C 125.32 348.79 141.11 342.36 156.65 339.43 Z" />
</svg>
