<?xml version="1.0" encoding="UTF-8" ?>
<!DOCTYPE svg PUBLIC "-//W3C//DTD SVG 1.1//EN" "http://www.w3.org/Graphics/SVG/1.1/DTD/svg11.dtd">
<svg width="512pt" height="512pt" viewBox="0 0 512 512" version="1.1" xmlns="http://www.w3.org/2000/svg">
<path fill="#ff3636" opacity="1.00" d=" M 0.00 0.00 L 512.00 0.00 L 512.00 512.00 L 0.00 512.00 L 0.00 0.00 Z" />
<path fill="#ffffff" opacity="1.00" d=" M 99.37 243.34 C 141.93 205.56 184.52 167.81 227.03 129.98 C 261.19 160.18 295.33 190.40 329.29 220.82 C 342.90 204.23 355.85 187.09 369.24 170.32 C 373.21 165.42 376.89 158.77 383.94 158.32 C 391.21 157.35 396.16 163.62 401.51 167.38 C 406.68 171.95 414.42 175.37 415.31 183.05 C 416.31 188.37 413.06 193.02 409.77 196.82 C 380.88 233.59 352.00 270.36 323.10 307.13 C 321.82 308.81 320.30 310.34 319.35 312.25 C 319.27 332.85 319.36 353.46 319.31 374.07 C 319.42 376.85 316.94 379.57 314.09 379.44 C 294.90 379.48 275.69 379.43 256.50 379.46 C 256.51 377.02 256.52 374.57 256.50 372.13 C 249.81 375.17 243.17 378.30 236.60 381.58 C 234.70 382.48 233.02 379.75 233.64 378.08 C 236.73 362.38 240.27 346.76 243.35 331.06 C 244.85 327.89 247.64 325.51 249.52 322.56 C 234.35 322.48 219.17 322.53 203.99 322.53 C 200.44 322.17 197.33 325.51 197.64 329.01 C 197.59 345.84 197.68 362.69 197.60 379.53 C 178.39 379.33 159.17 379.55 139.96 379.42 C 137.07 379.55 134.91 376.69 134.85 373.99 C 134.68 335.18 134.96 296.37 134.71 257.56 C 165.24 229.85 196.40 202.82 227.08 175.26 C 252.43 197.75 277.78 220.26 303.12 242.77 C 304.95 244.40 306.73 246.09 308.78 247.45 C 311.32 243.81 314.19 240.43 316.89 236.93 C 286.92 210.40 257.04 183.77 227.08 157.22 C 187.86 192.10 148.67 227.03 109.29 261.73 C 104.94 256.68 100.40 251.79 96.10 246.70 C 96.56 245.22 98.33 244.46 99.37 243.34 Z" />
<path fill="#ffffff" opacity="1.00" d=" M 135.15 147.25 C 145.93 147.22 156.71 147.36 167.48 147.17 C 167.51 153.56 167.38 159.95 167.50 166.34 C 156.64 176.23 145.80 186.15 134.80 195.88 C 135.77 186.26 134.64 176.58 135.21 166.94 C 134.90 160.38 135.30 153.81 135.15 147.25 Z" />
<path fill="#ff3636" opacity="1.00" d=" M 378.57 166.48 C 381.21 162.98 386.70 162.04 390.20 164.81 C 396.07 169.25 401.83 173.84 407.55 178.48 C 410.89 181.17 411.68 186.50 408.89 189.87 C 404.29 195.94 399.47 201.84 394.83 207.89 C 384.71 200.05 374.66 192.10 364.65 184.12 C 369.35 178.29 373.88 172.31 378.57 166.48 Z" />
<path fill="#ff3636" opacity="1.00" d=" M 356.79 194.10 C 358.35 192.06 359.96 190.07 361.68 188.17 C 371.53 196.24 381.68 203.95 391.61 211.92 C 390.06 213.89 388.51 215.86 386.97 217.84 C 376.87 209.98 366.86 202.01 356.79 194.10 Z" />
<path fill="#ff3636" opacity="1.00" d=" M 249.31 330.96 C 284.17 286.70 318.84 242.30 353.76 198.09 C 363.71 206.11 373.82 213.93 383.82 221.89 C 348.90 266.08 314.31 310.54 279.34 354.71 C 269.41 346.69 259.28 338.93 249.31 330.96 Z" />
<path fill="#ff3636" opacity="1.00" d=" M 243.59 354.10 C 245.09 348.09 245.71 341.88 247.57 335.97 C 256.60 343.41 266.07 350.32 275.01 357.86 C 269.31 360.33 263.83 363.28 258.10 365.70 C 253.34 361.73 248.38 358.02 243.59 354.10 Z" />
</svg>
