<?xml version="1.0" encoding="UTF-8" ?>
<!DOCTYPE svg PUBLIC "-//W3C//DTD SVG 1.1//EN" "http://www.w3.org/Graphics/SVG/1.1/DTD/svg11.dtd">
<svg width="512pt" height="512pt" viewBox="0 0 512 512" version="1.1" xmlns="http://www.w3.org/2000/svg">
<path fill="#3669ee" opacity="1.00" d=" M 0.00 0.00 L 512.00 0.00 L 512.00 512.00 L 0.00 512.00 L 0.00 0.00 Z" />
<path fill="#ffffff" opacity="1.00" d=" M 244.18 125.99 C 264.56 124.10 285.41 126.83 304.49 134.32 C 330.38 144.32 352.89 162.82 367.75 186.26 C 382.63 209.45 389.81 237.46 388.02 264.94 C 386.59 289.53 377.98 313.62 363.55 333.57 C 346.74 356.78 322.52 374.85 294.89 382.89 C 271.18 389.97 245.43 390.33 221.59 383.66 C 196.35 377.00 173.68 361.95 156.85 342.10 C 137.14 319.19 125.78 289.25 125.46 259.02 C 124.85 231.69 133.21 204.28 148.85 181.88 C 170.45 150.51 206.22 129.42 244.18 125.99 Z" />
<path fill="#3669ee" opacity="1.00" d=" M 218.59 137.29 C 236.67 131.49 256.10 129.68 274.87 132.69 C 305.57 137.47 334.64 153.57 354.15 177.85 C 365.09 189.82 372.22 204.80 377.18 220.12 C 378.67 223.18 375.95 225.89 374.06 228.02 C 370.95 231.53 365.47 231.61 361.65 229.25 C 356.18 225.95 351.77 221.19 347.68 216.36 C 332.59 198.11 321.10 176.64 302.55 161.44 C 287.41 147.57 267.34 140.02 247.08 138.09 C 237.62 136.96 228.09 137.24 218.59 137.29 Z" />
<path fill="#3669ee" opacity="1.00" d=" M 171.63 164.77 C 190.82 158.49 213.07 156.81 231.42 166.58 C 241.83 171.58 250.13 179.79 258.89 187.13 C 271.38 198.27 283.32 210.02 295.99 220.96 C 308.81 232.60 321.92 243.98 336.15 253.88 C 349.85 263.58 364.79 272.49 381.48 275.70 C 380.07 282.41 379.15 289.29 376.71 295.74 C 373.93 296.07 371.15 295.30 368.43 294.83 C 336.91 287.12 307.71 272.05 280.80 254.18 C 262.20 241.98 244.52 228.42 226.02 216.06 C 214.27 208.38 201.98 200.80 188.12 197.74 C 180.81 196.08 173.10 196.66 166.11 199.33 C 154.19 203.74 144.23 212.08 135.58 221.18 C 139.26 209.04 144.56 197.33 151.76 186.87 C 158.26 179.42 163.81 170.92 171.63 164.77 Z" />
<path fill="#3669ee" opacity="1.00" d=" M 151.20 300.17 C 155.68 297.98 160.88 298.36 165.53 299.77 C 173.09 302.01 180.28 305.32 187.53 308.39 C 221.00 322.98 256.23 335.27 293.02 336.94 C 316.01 339.17 338.99 334.41 360.96 327.97 C 355.29 336.39 348.58 344.17 340.94 350.84 C 323.83 357.61 305.30 360.06 286.99 360.47 C 266.55 360.52 246.14 357.85 226.40 352.53 C 221.07 351.12 215.60 349.72 210.05 350.02 C 206.34 350.16 202.49 352.32 201.49 356.10 C 200.37 361.36 201.72 366.75 203.49 371.72 C 176.93 359.26 154.97 337.46 142.38 310.95 C 144.33 306.74 146.65 302.04 151.20 300.17 Z" />
</svg>
