<?xml version="1.0" encoding="UTF-8" ?>
<!DOCTYPE svg PUBLIC "-//W3C//DTD SVG 1.1//EN" "http://www.w3.org/Graphics/SVG/1.1/DTD/svg11.dtd">
<svg width="512pt" height="512pt" viewBox="0 0 512 512" version="1.1" xmlns="http://www.w3.org/2000/svg">
<path fill="#22afc2" opacity="1.00" d=" M 0.00 0.00 L 512.00 0.00 L 512.00 512.00 L 0.00 512.00 L 0.00 0.00 Z" />
<path fill="#ffffff" opacity="1.00" d=" M 149.11 124.54 C 151.93 124.15 154.59 125.57 157.00 126.85 C 209.34 156.18 261.68 185.51 314.03 214.82 C 315.05 215.54 316.54 215.77 317.15 216.99 C 304.07 229.94 291.05 242.97 277.99 255.95 C 235.98 213.32 194.13 170.53 152.09 127.94 C 151.11 126.78 149.67 125.99 149.11 124.54 Z" />
<path fill="#ffffff" opacity="1.00" d=" M 134.39 141.01 C 134.11 135.83 136.15 129.96 140.85 127.31 C 184.75 171.93 228.62 216.60 272.66 261.10 C 229.98 303.66 187.29 346.22 144.51 388.67 C 138.20 387.15 134.04 380.33 134.39 374.00 C 134.31 296.33 134.21 218.67 134.39 141.01 Z" />
<path fill="#ffffff" opacity="1.00" d=" M 324.08 221.07 C 325.42 220.93 326.51 221.71 327.60 222.35 C 341.27 230.04 354.98 237.68 368.66 245.35 C 372.02 247.16 375.57 249.11 377.63 252.46 C 379.72 255.58 379.84 259.69 378.02 262.97 C 375.93 267.21 371.54 269.45 367.58 271.61 C 351.92 280.25 336.25 288.85 320.59 297.50 C 320.21 297.56 319.45 297.68 319.06 297.74 C 307.16 285.69 295.24 273.62 283.51 261.42 C 297.13 248.07 310.51 234.46 324.08 221.07 Z" />
<path fill="#ffffff" opacity="1.00" d=" M 161.41 383.20 C 200.34 344.56 239.17 305.82 277.97 267.05 L 278.70 267.23 C 288.88 277.72 299.22 288.08 309.47 298.51 C 310.47 299.62 311.84 300.49 312.38 301.96 C 262.14 329.41 211.94 356.94 161.79 384.54 L 161.41 383.20 Z" />
</svg>
