<?xml version="1.0" encoding="UTF-8" ?>
<!DOCTYPE svg PUBLIC "-//W3C//DTD SVG 1.1//EN" "http://www.w3.org/Graphics/SVG/1.1/DTD/svg11.dtd">
<svg width="512pt" height="512pt" viewBox="0 0 512 512" version="1.1" xmlns="http://www.w3.org/2000/svg">
<path fill="#00a94f" opacity="1.00" d=" M 0.00 0.00 L 512.00 0.00 L 512.00 512.00 L 0.00 512.00 L 0.00 0.00 Z" />
<path fill="#ffffff" opacity="1.00" d=" M 354.37 204.63 C 359.82 204.29 365.30 204.58 370.75 204.55 C 368.42 206.20 365.89 208.14 365.90 211.32 C 364.39 229.84 364.92 248.45 364.81 267.02 C 364.94 272.14 364.34 277.34 365.51 282.39 C 368.74 283.45 372.14 283.62 375.51 283.82 C 373.49 284.98 371.55 286.79 369.05 286.46 C 362.90 286.48 356.75 286.41 350.61 286.47 C 351.93 284.52 354.03 282.68 353.70 280.08 C 353.48 256.28 353.96 232.50 354.84 208.71 C 351.88 208.74 348.91 208.77 345.96 208.51 C 348.81 207.32 351.52 205.81 354.37 204.63 Z" />
<path fill="#ffffff" opacity="1.00" d=" M 103.76 218.70 C 111.45 212.59 121.29 209.53 131.05 209.35 C 142.49 209.05 154.26 211.70 163.79 218.22 C 159.67 221.60 156.63 227.30 150.81 227.74 C 151.76 226.34 152.73 224.96 153.71 223.59 C 147.92 217.29 139.62 213.01 130.93 213.32 C 120.39 212.71 109.85 218.50 104.68 227.70 C 96.21 242.89 100.24 263.48 112.92 275.13 C 123.24 285.01 139.53 287.62 152.65 282.30 C 152.60 276.43 152.65 270.56 152.61 264.69 C 147.29 265.04 141.98 265.51 136.65 265.58 C 139.30 263.93 141.94 262.01 145.00 261.25 C 152.58 261.02 160.17 261.26 167.76 261.16 C 166.24 262.89 163.56 264.24 163.78 266.90 C 163.48 272.61 163.80 278.33 163.61 284.04 C 150.52 286.90 137.22 290.56 123.70 288.99 C 114.22 287.93 104.86 283.76 98.54 276.48 C 92.38 269.49 89.21 260.23 88.67 251.01 C 88.53 238.74 94.00 226.30 103.76 218.70 Z" />
<path fill="#ffffff" opacity="1.00" d=" M 191.48 233.79 C 200.57 231.03 211.17 232.19 218.69 238.29 C 229.92 246.90 232.11 264.44 223.85 275.81 C 213.99 290.60 189.82 292.23 178.10 278.87 C 170.16 270.13 168.91 256.14 175.21 246.15 C 178.89 240.22 184.82 235.81 191.48 233.79 Z" />
<path fill="#ffffff" opacity="1.00" d=" M 253.43 233.70 C 262.74 230.98 273.63 232.32 281.09 238.86 C 291.35 247.29 293.58 263.34 286.45 274.45 C 278.72 287.82 259.77 291.58 246.64 284.37 C 237.33 279.24 231.82 268.20 232.96 257.70 C 234.05 246.44 242.63 236.74 253.43 233.70 Z" />
<path fill="#ffffff" opacity="1.00" d=" M 378.19 244.18 C 385.13 233.61 400.50 228.92 411.74 235.24 C 416.26 237.76 419.15 242.30 420.70 247.12 C 412.14 250.47 403.66 253.99 395.14 257.41 C 391.68 258.75 387.89 258.47 384.26 258.74 C 386.15 268.57 392.38 278.47 402.45 281.36 C 409.09 283.69 416.10 281.29 422.09 278.28 C 419.18 281.32 416.16 284.47 412.19 286.10 C 402.55 290.15 390.35 288.76 382.78 281.23 C 373.29 271.82 370.76 255.55 378.19 244.18 Z" />
<path fill="#ffffff" opacity="1.00" d=" M 306.14 238.08 C 311.47 234.87 317.82 233.92 323.95 233.84 C 331.85 233.86 339.75 233.85 347.66 233.84 C 344.26 235.63 341.01 238.74 336.89 238.08 C 335.59 238.01 334.31 237.89 333.03 237.78 C 335.81 240.52 338.81 243.31 340.12 247.12 C 342.52 253.04 341.48 260.28 337.22 265.10 C 334.77 268.04 331.23 269.93 329.08 273.13 C 327.82 275.02 328.03 277.76 329.73 279.32 C 334.43 283.92 340.84 287.11 343.75 293.31 C 346.98 299.83 344.95 307.94 340.05 313.06 C 334.68 318.95 326.63 321.34 318.96 322.31 C 311.92 323.01 304.57 321.95 298.26 318.68 C 293.50 316.26 289.95 311.40 289.73 305.99 C 289.82 300.80 292.60 295.78 296.84 292.82 C 303.73 287.78 312.54 286.77 320.81 286.24 C 317.74 282.82 316.33 278.00 318.50 273.72 C 313.79 274.26 308.75 273.93 304.59 271.44 C 297.61 267.56 293.93 258.62 296.25 250.96 C 297.71 245.59 301.30 240.84 306.14 238.08 Z" />
<path fill="#00a94f" opacity="1.00" d=" M 193.51 236.75 C 198.03 235.47 203.26 235.98 206.98 239.05 C 212.73 243.67 215.30 251.06 216.67 258.08 C 217.76 264.31 218.08 271.21 214.95 276.94 C 211.61 283.20 203.29 286.24 196.74 283.42 C 191.28 281.13 187.77 275.85 185.63 270.55 C 182.99 263.71 181.71 256.20 182.81 248.91 C 183.70 243.24 188.05 238.41 193.51 236.75 Z" />
<path fill="#00a94f" opacity="1.00" d=" M 255.38 236.69 C 259.93 235.46 265.11 236.08 268.83 239.13 C 273.95 243.27 276.44 249.73 277.95 255.95 C 279.47 262.75 280.13 270.33 276.77 276.72 C 273.58 282.90 265.61 286.12 259.06 283.65 C 254.51 282.04 251.19 278.18 248.97 274.03 C 245.00 266.38 243.45 257.49 244.54 248.94 C 245.41 243.21 249.81 238.28 255.38 236.69 Z" />
<path fill="#00a94f" opacity="1.00" d=" M 388.25 240.22 C 392.10 236.06 398.96 234.89 403.69 238.26 C 406.72 240.22 409.83 244.18 408.13 247.90 C 400.37 251.69 392.31 254.89 384.37 258.31 C 383.33 252.16 383.59 244.91 388.25 240.22 Z" />
<path fill="#00a94f" opacity="1.00" d=" M 312.43 238.61 C 317.25 236.20 322.97 238.85 325.87 242.98 C 329.82 248.72 332.11 256.17 330.61 263.09 C 329.16 269.74 320.32 272.85 314.76 269.23 C 309.94 266.18 307.51 260.54 306.38 255.16 C 304.77 249.21 306.03 241.14 312.43 238.61 Z" />
<path fill="#00a94f" opacity="1.00" d=" M 311.59 290.88 C 315.88 289.88 320.37 289.09 324.77 289.72 C 328.47 292.04 332.03 294.71 334.94 297.99 C 338.58 302.04 338.25 308.72 334.49 312.57 C 330.54 316.65 324.49 317.61 319.06 317.41 C 313.25 317.16 306.98 315.56 302.99 311.05 C 299.98 307.83 299.37 302.86 300.90 298.82 C 302.80 294.53 307.22 292.02 311.59 290.88 Z" />
</svg>
