<?xml version="1.0" encoding="UTF-8" ?>
<!DOCTYPE svg PUBLIC "-//W3C//DTD SVG 1.1//EN" "http://www.w3.org/Graphics/SVG/1.1/DTD/svg11.dtd">
<svg width="512pt" height="512pt" viewBox="0 0 512 512" version="1.1" xmlns="http://www.w3.org/2000/svg">
<path fill="#8a66a3" opacity="1.00" d=" M 0.00 0.00 L 512.00 0.00 L 512.00 512.00 L 0.00 512.00 L 0.00 0.00 Z" />
<path fill="#ffffff" opacity="1.00" d=" M 217.04 136.47 C 249.80 125.00 287.33 128.71 317.74 145.28 C 318.61 171.09 319.36 196.90 319.86 222.72 C 285.58 193.98 251.34 165.19 217.04 136.47 Z" />
<path fill="#ffffff" opacity="1.00" d=" M 135.64 218.42 C 145.42 186.96 168.18 160.03 197.19 144.53 C 213.42 158.73 230.09 172.42 246.13 186.81 C 208.04 218.40 170.35 250.48 132.28 282.10 C 127.99 261.06 129.15 238.90 135.64 218.42 Z" />
<path fill="#ffffff" opacity="1.00" d=" M 336.66 157.97 C 358.83 175.77 374.79 201.19 380.94 228.97 C 385.84 251.56 384.84 275.56 377.32 297.47 C 364.12 297.38 350.92 297.50 337.73 297.41 C 337.56 266.60 337.25 235.79 337.20 204.98 C 336.49 189.33 336.77 173.64 336.66 157.97 Z" />
<path fill="#ffffff" opacity="1.00" d=" M 137.90 301.93 C 152.96 288.09 168.55 274.83 183.84 261.25 C 184.30 294.67 184.72 328.09 184.86 361.51 C 163.68 346.92 147.24 325.86 137.90 301.93 Z" />
<path fill="#ffffff" opacity="1.00" d=" M 207.51 313.15 C 208.68 313.00 209.85 312.90 211.03 312.86 C 254.35 312.90 297.68 312.85 341.01 312.86 C 350.99 313.00 360.98 312.57 370.94 313.08 C 357.73 339.82 334.81 361.62 307.39 373.38 C 275.78 387.09 238.28 387.42 206.75 373.35 C 207.53 353.30 207.32 333.22 207.51 313.15 Z" />
</svg>
