<?xml version="1.0" encoding="UTF-8" ?>
<!DOCTYPE svg PUBLIC "-//W3C//DTD SVG 1.1//EN" "http://www.w3.org/Graphics/SVG/1.1/DTD/svg11.dtd">
<svg width="512pt" height="512pt" viewBox="0 0 512 512" version="1.1" xmlns="http://www.w3.org/2000/svg">
<path fill="#009f3c" opacity="1.00" d=" M 0.00 0.00 L 512.00 0.00 L 512.00 512.00 L 0.00 512.00 L 0.00 0.00 Z" />
<path fill="#ffffff" opacity="1.00" d=" M 197.03 151.01 C 224.37 135.28 256.87 130.24 288.03 132.74 C 316.27 135.13 344.74 143.97 367.08 161.89 C 358.74 169.91 350.79 178.33 342.43 186.31 C 337.21 188.25 331.70 189.52 326.31 190.99 C 329.18 185.98 331.96 180.92 334.86 175.93 C 317.43 158.62 293.85 146.63 269.00 146.07 C 254.07 145.60 239.21 149.30 225.83 155.81 C 206.73 164.91 191.25 180.87 181.84 199.73 C 172.31 218.85 168.77 240.88 171.75 262.02 C 175.41 289.33 188.56 315.41 208.82 334.17 C 226.93 351.28 251.06 361.81 275.91 363.50 C 292.38 364.26 309.26 364.06 325.10 358.98 C 328.31 357.85 332.81 356.19 332.45 352.00 C 332.48 336.20 332.47 320.39 332.45 304.60 C 315.21 305.15 297.95 305.47 280.71 306.19 C 289.27 300.92 298.22 296.19 307.09 291.50 C 330.06 291.33 353.05 291.52 376.02 291.40 C 377.20 291.40 378.38 291.48 379.56 291.67 C 375.93 296.21 371.52 300.21 368.30 305.01 C 368.38 323.18 368.18 341.36 368.39 359.53 C 349.84 369.04 329.42 374.46 308.95 377.96 C 296.70 379.99 284.28 380.83 271.88 380.96 C 257.86 380.91 243.72 380.13 230.02 376.93 C 211.17 373.13 192.87 365.45 177.96 353.15 C 149.65 330.29 130.58 294.87 131.23 258.07 C 130.95 245.06 133.42 232.07 137.83 219.85 C 148.41 190.73 170.25 166.31 197.03 151.01 Z" />
</svg>
