<?xml version="1.0" encoding="UTF-8" ?>
<!DOCTYPE svg PUBLIC "-//W3C//DTD SVG 1.1//EN" "http://www.w3.org/Graphics/SVG/1.1/DTD/svg11.dtd">
<svg width="512pt" height="512pt" viewBox="0 0 512 512" version="1.1" xmlns="http://www.w3.org/2000/svg">
<path fill="#ffbc0e" opacity="1.00" d=" M 0.00 0.00 L 512.00 0.00 L 512.00 512.00 L 0.00 512.00 L 0.00 0.00 Z" />
<path fill="#ffffff" opacity="1.00" d=" M 210.62 127.81 C 243.39 127.74 276.16 127.73 308.93 127.81 C 340.52 181.23 371.81 234.83 403.46 288.21 C 370.63 288.18 337.80 288.20 304.97 288.20 C 273.48 234.76 242.13 181.23 210.62 127.81 Z" />
<path fill="#ffffff" opacity="1.00" d=" M 197.83 139.79 C 198.93 138.10 199.58 136.00 201.31 134.82 C 217.37 162.56 233.73 190.14 250.01 217.76 C 218.85 271.41 187.57 324.99 156.18 378.51 C 139.84 350.39 123.20 322.46 106.78 294.40 C 137.20 242.91 167.46 191.31 197.83 139.79 Z" />
<path fill="#ffffff" opacity="1.00" d=" M 216.06 299.46 C 278.76 299.53 341.46 299.34 404.17 299.55 C 387.57 327.38 371.23 355.37 354.80 383.30 C 329.57 383.61 304.32 383.34 279.07 383.43 C 241.72 383.38 204.36 383.54 167.01 383.35 C 183.42 355.42 199.64 327.38 216.06 299.46 Z" />
</svg>
