<?xml version="1.0" encoding="UTF-8" ?>
<!DOCTYPE svg PUBLIC "-//W3C//DTD SVG 1.1//EN" "http://www.w3.org/Graphics/SVG/1.1/DTD/svg11.dtd">
<svg width="512pt" height="512pt" viewBox="0 0 512 512" version="1.1" xmlns="http://www.w3.org/2000/svg">
<path fill="#808081" opacity="1.00" d=" M 0.00 0.00 L 512.00 0.00 L 512.00 512.00 L 0.00 512.00 L 0.00 0.00 Z" />
<path fill="#ffffff" opacity="1.00" d=" M 140.48 125.71 C 143.47 124.38 146.81 124.88 149.98 124.80 C 222.68 124.83 295.39 124.80 368.09 124.82 C 372.61 125.22 376.43 128.26 379.79 131.10 C 383.81 135.06 387.37 140.24 387.83 145.99 C 387.84 218.32 387.79 290.65 387.85 362.97 C 388.59 369.85 384.50 376.16 379.91 380.89 C 376.03 384.26 371.32 387.49 366.06 387.83 C 296.72 387.82 227.37 387.83 158.03 387.83 C 153.34 387.71 148.65 388.07 143.98 387.67 C 135.03 384.82 126.65 377.57 124.85 368.06 C 124.75 294.71 124.87 221.36 124.79 148.01 C 123.76 137.99 131.84 129.45 140.48 125.71 Z" />
<path fill="#808081" opacity="1.00" d=" M 159.63 304.98 C 179.62 281.63 200.42 259.01 220.89 236.09 C 238.05 255.67 255.59 274.94 273.04 294.28 C 285.62 281.38 296.37 266.80 308.78 253.75 C 323.00 270.69 338.16 286.85 351.66 304.40 C 352.88 314.48 352.08 324.66 351.78 334.77 C 287.95 334.77 224.12 334.71 160.29 334.80 C 159.16 324.91 159.96 314.92 159.63 304.98 Z" />
</svg>
