<?xml version="1.0" encoding="UTF-8" ?>
<!DOCTYPE svg PUBLIC "-//W3C//DTD SVG 1.1//EN" "http://www.w3.org/Graphics/SVG/1.1/DTD/svg11.dtd">
<svg width="512pt" height="512pt" viewBox="0 0 512 512" version="1.1" xmlns="http://www.w3.org/2000/svg">
<path fill="#ff6621" opacity="1.00" d=" M 0.00 0.00 L 512.00 0.00 L 512.00 512.00 L 0.00 512.00 L 0.00 0.00 Z" />
<path fill="#ffffff" opacity="1.00" d=" M 159.64 135.78 C 200.43 135.81 241.22 135.71 282.00 135.82 C 295.71 137.47 308.91 142.96 320.05 151.07 C 336.32 162.95 347.70 181.20 351.16 201.05 C 355.22 220.94 350.76 242.10 340.24 259.33 C 322.71 287.61 286.23 302.46 253.93 294.55 C 249.43 293.55 245.19 291.73 240.86 290.23 C 240.73 295.80 241.42 301.37 240.96 306.93 C 240.90 330.03 241.30 353.14 240.85 376.23 C 224.80 376.22 208.76 376.23 192.71 376.22 C 192.72 309.14 192.72 242.07 192.71 174.99 C 181.69 174.74 170.67 174.95 159.64 174.89 C 159.65 161.85 159.66 148.81 159.64 135.78 Z" />
<path fill="#ff6621" opacity="1.00" d=" M 241.15 175.11 C 255.84 175.23 271.04 173.04 285.27 177.84 C 304.00 184.10 316.47 205.58 311.48 224.91 C 307.61 240.02 294.37 252.31 278.93 254.81 C 266.45 256.81 253.77 255.82 241.20 255.73 C 240.29 249.56 241.25 243.26 241.14 237.04 C 240.88 216.39 241.06 195.76 241.15 175.11 Z" />
</svg>
