<?xml version="1.0" encoding="UTF-8" ?>
<!DOCTYPE svg PUBLIC "-//W3C//DTD SVG 1.1//EN" "http://www.w3.org/Graphics/SVG/1.1/DTD/svg11.dtd">
<svg width="512pt" height="512pt" viewBox="0 0 512 512" version="1.1" xmlns="http://www.w3.org/2000/svg">
<path fill="#0076a3" opacity="1.00" d=" M 0.00 0.00 L 512.00 0.00 L 512.00 512.00 L 0.00 512.00 L 0.00 0.00 Z" />
<path fill="#ffffff" opacity="1.00" d=" M 208.32 122.90 C 208.00 117.23 214.06 114.17 219.05 115.05 C 221.60 115.07 224.18 114.95 226.72 115.36 C 230.14 116.03 232.69 119.43 232.55 122.89 C 232.63 132.35 232.53 141.81 232.57 151.27 C 257.06 151.30 281.54 151.19 306.03 151.31 C 318.45 151.45 329.40 162.61 329.44 175.01 C 329.46 241.34 329.46 307.66 329.44 373.99 C 329.43 386.40 318.46 397.52 306.05 397.69 C 272.69 397.74 239.32 397.70 205.95 397.71 C 194.76 397.85 184.32 389.08 182.33 378.10 C 181.53 374.11 181.82 370.02 181.78 365.97 C 181.80 302.63 181.77 239.28 181.80 175.94 C 181.69 166.91 186.99 158.16 195.01 154.02 C 199.04 151.74 203.75 151.21 208.31 151.15 C 208.33 141.74 208.24 132.32 208.32 122.90 Z" />
<path fill="#0076a3" opacity="1.00" d=" M 214.24 178.12 C 216.80 177.59 219.43 177.64 222.03 177.64 C 245.69 177.72 269.36 177.56 293.02 177.71 C 302.75 177.73 311.52 186.19 311.56 195.97 C 311.62 211.33 311.58 226.70 311.57 242.06 C 311.75 251.91 302.91 260.86 293.02 260.62 C 268.02 260.62 243.01 260.61 218.01 260.62 C 210.44 260.90 203.14 255.92 200.39 248.91 C 198.36 243.52 198.96 237.64 198.86 232.01 C 199.00 219.99 198.63 207.97 199.05 195.96 C 199.19 187.42 205.84 179.61 214.24 178.12 Z" />
<path fill="#0076a3" opacity="1.00" d=" M 218.00 284.14 C 218.65 280.32 223.31 281.64 226.02 281.37 C 229.37 281.81 233.58 280.23 236.26 282.86 C 236.95 285.51 236.56 288.29 236.69 291.01 C 236.55 294.10 237.26 297.66 235.14 300.26 C 230.37 300.19 225.60 300.44 220.84 300.19 C 218.75 300.18 217.70 298.01 217.84 296.17 C 217.77 292.16 217.59 288.13 218.00 284.14 Z" />
<path fill="#0076a3" opacity="1.00" d=" M 246.27 284.04 C 246.27 282.20 248.26 281.33 249.86 281.44 C 254.11 281.38 258.38 281.22 262.63 281.55 C 264.23 281.65 265.25 283.39 265.19 284.87 C 265.33 288.93 265.35 293.01 265.18 297.07 C 265.26 298.78 263.72 300.29 262.02 300.21 C 257.28 300.41 252.53 300.19 247.78 300.28 C 246.97 299.01 245.96 297.72 246.15 296.11 C 246.11 292.09 245.99 288.05 246.27 284.04 Z" />
<path fill="#0076a3" opacity="1.00" d=" M 276.36 281.57 C 280.57 281.20 284.82 281.40 289.04 281.43 C 290.47 281.38 292.27 281.76 292.73 283.36 C 293.56 286.14 293.11 289.11 293.23 291.98 C 293.08 294.38 293.58 297.02 292.33 299.21 C 290.87 300.58 288.79 300.19 286.97 300.30 C 283.35 300.23 279.71 300.48 276.11 300.09 C 272.58 298.58 274.13 293.97 273.75 290.98 C 274.15 287.93 272.50 282.79 276.36 281.57 Z" />
<path fill="#0076a3" opacity="1.00" d=" M 220.31 307.46 C 225.05 307.09 229.88 307.02 234.61 307.51 C 237.93 308.89 236.23 313.24 236.68 316.01 C 236.14 319.34 238.05 323.86 234.92 326.21 C 230.27 326.65 225.58 326.46 220.92 326.36 C 219.15 326.51 217.96 324.76 217.90 323.16 C 217.69 319.09 217.71 314.99 217.88 310.92 C 218.03 309.48 218.50 307.44 220.31 307.46 Z" />
<path fill="#0076a3" opacity="1.00" d=" M 276.31 307.45 C 280.20 307.00 284.13 307.28 288.04 307.24 C 289.74 307.27 292.23 307.19 292.74 309.30 C 293.61 312.76 293.09 316.40 293.22 319.93 C 293.11 322.11 293.50 325.20 291.02 326.24 C 286.02 326.59 280.96 326.57 275.96 326.25 C 272.42 324.21 274.22 319.33 273.75 316.00 C 274.06 313.21 272.74 308.43 276.31 307.45 Z" />
<path fill="#0076a3" opacity="1.00" d=" M 247.32 308.32 C 250.58 306.78 254.48 307.82 258.00 307.51 C 260.43 307.66 264.20 306.86 265.07 309.96 C 265.44 314.31 265.31 318.71 265.18 323.07 C 265.28 324.74 263.92 326.57 262.12 326.38 C 257.74 326.49 253.35 326.53 248.97 326.35 C 247.20 326.37 245.99 324.74 246.20 323.05 C 246.25 318.33 245.60 313.46 246.65 308.83 L 247.32 308.32 Z" />
<path fill="#0076a3" opacity="1.00" d=" M 217.98 336.12 C 218.16 334.52 219.57 333.41 221.14 333.47 C 225.60 333.36 230.12 333.11 234.55 333.65 C 237.65 334.73 236.36 338.53 236.68 341.01 C 236.40 344.75 237.61 349.11 235.08 352.31 C 230.12 352.20 225.14 352.61 220.20 352.15 C 218.44 351.70 217.84 349.84 217.85 348.22 C 217.76 344.19 217.60 340.13 217.98 336.12 Z" />
<path fill="#0076a3" opacity="1.00" d=" M 248.42 333.60 C 252.87 333.15 257.39 333.36 261.86 333.45 C 263.73 333.31 265.33 334.98 265.19 336.84 C 265.33 340.90 265.35 344.97 265.18 349.03 C 265.24 350.72 263.72 352.35 262.01 352.26 C 257.98 352.44 253.94 352.36 249.91 352.31 C 248.03 352.59 246.00 351.07 246.20 349.08 C 246.08 344.76 246.00 340.42 246.26 336.10 C 246.17 334.81 247.27 333.89 248.42 333.60 Z" />
<path fill="#0076a3" opacity="1.00" d=" M 276.35 333.56 C 280.24 333.17 284.17 333.41 288.07 333.38 C 289.75 333.39 292.11 333.37 292.73 335.35 C 293.62 338.49 293.08 341.84 293.23 345.07 C 293.09 347.50 293.71 350.99 290.88 352.14 C 286.27 352.53 281.62 352.37 277.00 352.26 C 275.31 352.29 273.94 350.68 273.90 349.07 C 273.67 345.03 273.70 340.98 273.87 336.95 C 273.89 335.47 274.75 333.77 276.35 333.56 Z" />
<path fill="#0076a3" opacity="1.00" d=" M 217.90 362.92 C 217.93 361.26 219.18 359.61 220.94 359.63 C 225.61 359.38 230.29 359.58 234.97 359.57 C 235.53 360.64 236.56 361.58 236.59 362.86 C 236.74 366.92 236.71 370.99 236.61 375.05 C 236.76 376.51 235.67 378.27 234.12 378.34 C 229.73 378.54 225.32 378.52 220.93 378.36 C 219.11 378.50 217.90 376.70 217.89 375.05 C 217.70 371.01 217.69 366.96 217.90 362.92 Z" />
<path fill="#0076a3" opacity="1.00" d=" M 247.26 360.37 C 250.19 358.77 253.85 359.81 257.07 359.50 C 259.77 359.75 263.98 358.56 265.07 361.97 C 265.44 366.33 265.30 370.73 265.19 375.10 C 265.28 376.74 263.89 378.54 262.15 378.38 C 257.46 378.45 252.75 378.65 248.08 378.24 C 245.01 376.78 246.50 372.76 246.11 370.08 C 246.55 366.95 245.10 362.91 247.26 360.37 Z" />
<path fill="#0076a3" opacity="1.00" d=" M 275.30 360.23 C 279.57 358.76 284.48 359.79 289.01 359.56 C 291.46 359.17 293.40 361.41 293.15 363.77 C 292.95 368.25 294.03 373.07 292.35 377.32 C 292.02 377.55 291.34 378.02 291.01 378.25 C 286.33 378.63 281.61 378.47 276.92 378.37 C 275.15 378.50 273.87 376.68 273.88 375.06 C 273.67 371.34 273.73 367.62 273.82 363.90 C 273.86 362.59 274.03 360.97 275.30 360.23 Z" />
</svg>
