<?xml version="1.0" encoding="UTF-8" ?>
<!DOCTYPE svg PUBLIC "-//W3C//DTD SVG 1.1//EN" "http://www.w3.org/Graphics/SVG/1.1/DTD/svg11.dtd">
<svg width="512pt" height="512pt" viewBox="0 0 512 512" version="1.1" xmlns="http://www.w3.org/2000/svg">
<path fill="#0072bc" opacity="1.00" d=" M 0.00 0.00 L 512.00 0.00 L 512.00 512.00 L 0.00 512.00 L 0.00 0.00 Z" />
<path fill="#ffffff" opacity="1.00" d=" M 244.17 138.14 C 249.24 132.44 259.06 132.20 264.48 137.55 C 267.22 140.29 268.53 144.22 268.47 148.06 C 268.49 173.13 268.49 198.21 268.46 223.28 C 303.77 244.56 339.15 265.71 374.50 286.92 C 374.52 296.28 374.55 305.64 374.49 315.00 C 339.18 303.73 304.05 291.87 268.79 280.45 C 268.85 299.05 268.72 317.66 268.85 336.26 C 269.05 336.52 269.45 337.05 269.65 337.31 C 277.50 343.62 285.56 349.69 293.44 355.99 C 293.27 363.20 293.08 370.43 293.54 377.64 C 290.64 377.73 287.98 376.44 285.25 375.66 C 276.51 372.84 267.68 370.34 258.98 367.44 C 257.70 367.10 256.42 366.48 255.07 366.65 C 242.62 370.27 230.37 374.64 217.83 377.89 C 217.83 370.59 217.85 363.28 217.83 355.97 C 225.38 349.77 233.17 343.87 240.78 337.73 C 242.99 336.22 241.94 333.24 242.20 331.01 C 241.75 323.65 242.20 316.29 242.13 308.93 C 241.26 299.44 242.71 289.87 241.77 280.41 C 213.23 290.08 184.51 299.23 155.91 308.73 C 149.36 310.71 142.97 313.21 136.36 314.97 C 136.31 305.62 136.29 296.26 136.37 286.91 C 170.27 266.35 204.10 245.67 238.02 225.14 C 239.14 224.31 241.15 223.86 240.83 222.05 C 240.84 198.05 240.85 174.04 240.82 150.03 C 240.85 145.89 241.28 141.36 244.17 138.14 Z" />
</svg>
