<?xml version="1.0" encoding="UTF-8" ?>
<!DOCTYPE svg PUBLIC "-//W3C//DTD SVG 1.1//EN" "http://www.w3.org/Graphics/SVG/1.1/DTD/svg11.dtd">
<svg width="512pt" height="512pt" viewBox="0 0 512 512" version="1.1" xmlns="http://www.w3.org/2000/svg">
<path fill="#ed1c24" opacity="1.00" d=" M 0.00 0.00 L 512.00 0.00 L 512.00 512.00 L 0.00 512.00 L 0.00 0.00 Z" />
<path fill="#ffffff" opacity="1.00" d=" M 240.48 122.73 C 247.42 120.24 254.83 127.93 252.04 134.78 C 249.94 141.61 239.75 143.12 235.73 137.26 C 231.71 132.39 234.48 124.37 240.48 122.73 Z" />
<path fill="#ffffff" opacity="1.00" d=" M 265.48 122.70 C 272.78 120.15 280.30 128.85 276.55 135.66 C 273.86 142.08 263.81 142.75 260.29 136.77 C 256.69 131.82 259.69 124.25 265.48 122.70 Z" />
<path fill="#ffffff" opacity="1.00" d=" M 180.24 175.92 C 180.60 158.92 196.25 144.56 213.06 144.56 C 241.67 144.51 270.28 144.47 298.89 144.58 C 315.58 144.91 330.57 159.21 331.19 175.99 C 331.34 216.33 331.20 256.68 331.26 297.02 C 331.44 312.14 320.34 327.19 305.20 329.92 C 318.24 349.33 331.16 368.83 344.19 388.25 C 336.73 388.30 329.26 388.22 321.80 388.30 C 312.38 374.79 303.17 361.13 293.88 347.54 C 268.48 347.39 243.07 347.65 217.67 347.41 C 208.64 360.19 199.95 373.22 191.09 386.14 C 190.32 387.06 189.70 388.75 188.14 388.29 C 181.11 388.25 174.09 388.28 167.07 388.26 C 180.14 368.86 193.08 349.37 206.06 329.91 C 190.99 327.14 179.65 312.12 180.20 296.96 C 180.23 256.62 180.15 216.27 180.24 175.92 Z" />
<path fill="#ed1c24" opacity="1.00" d=" M 236.44 152.37 C 236.80 152.19 237.53 151.82 237.90 151.64 C 248.93 151.30 259.98 151.60 271.03 151.49 C 274.21 151.07 277.69 153.65 277.55 156.99 C 277.60 160.29 277.64 163.60 277.51 166.90 C 277.44 170.14 274.05 172.35 271.01 172.12 C 260.62 172.13 250.24 172.20 239.86 172.09 C 236.91 172.20 233.99 170.06 233.76 167.01 C 233.57 163.64 233.66 160.26 233.70 156.89 C 233.61 155.01 234.96 153.37 236.44 152.37 Z" />
<path fill="#ed1c24" opacity="1.00" d=" M 210.30 179.15 C 212.48 178.57 214.76 178.51 217.01 178.50 C 243.33 178.53 269.65 178.48 295.98 178.52 C 301.28 178.48 306.84 180.63 309.91 185.12 C 313.46 189.96 313.14 196.28 313.16 201.98 C 312.99 208.22 313.56 214.51 312.66 220.71 C 311.92 226.16 307.89 230.89 302.75 232.76 C 299.97 233.93 296.90 233.83 293.94 233.85 C 267.27 233.80 240.61 233.91 213.94 233.80 C 205.83 233.88 198.45 226.84 198.38 218.68 C 198.26 210.43 198.25 202.17 198.39 193.91 C 198.55 187.07 203.52 180.62 210.30 179.15 Z" />
<path fill="#ed1c24" opacity="1.00" d=" M 210.96 282.86 C 218.57 281.56 226.60 287.17 227.78 294.84 C 229.59 302.90 223.22 311.34 215.08 312.20 C 207.13 313.40 199.13 306.94 198.54 298.95 C 197.61 291.37 203.50 284.01 210.96 282.86 Z" />
<path fill="#ed1c24" opacity="1.00" d=" M 294.28 283.13 C 302.96 280.68 312.55 288.11 312.48 297.11 C 313.06 306.12 303.87 314.01 295.05 312.06 C 286.93 310.79 281.01 301.87 283.37 293.93 C 284.58 288.62 289.03 284.40 294.28 283.13 Z" />
</svg>
