<?xml version="1.0" encoding="UTF-8" ?>
<!DOCTYPE svg PUBLIC "-//W3C//DTD SVG 1.1//EN" "http://www.w3.org/Graphics/SVG/1.1/DTD/svg11.dtd">
<svg width="512pt" height="512pt" viewBox="0 0 512 512" version="1.1" xmlns="http://www.w3.org/2000/svg">
<path fill="#c74000" opacity="1.00" d=" M 0.00 0.00 L 512.00 0.00 L 512.00 512.00 L 0.00 512.00 L 0.00 0.00 Z" />
<path fill="#ffffff" opacity="1.00" d=" M 119.24 162.75 C 175.35 149.36 231.30 135.23 287.37 121.64 C 287.41 135.84 287.33 150.04 287.42 164.24 C 277.82 169.50 268.08 174.49 258.46 179.70 C 258.43 191.45 258.34 203.20 258.50 214.95 C 267.94 208.61 277.76 202.86 287.20 196.54 C 296.04 201.63 304.78 206.90 313.71 211.84 C 313.73 212.16 313.78 212.79 313.80 213.10 C 294.41 216.42 275.12 220.33 255.80 224.04 C 251.51 224.46 249.13 228.99 249.39 232.95 C 249.45 250.41 249.33 267.88 249.45 285.34 C 231.59 301.21 213.50 316.83 195.77 332.85 C 195.51 344.76 194.48 356.63 194.19 368.55 C 187.98 368.74 181.78 368.91 175.58 369.25 C 175.61 354.49 175.93 339.74 176.24 324.99 C 165.31 318.03 154.24 311.31 143.33 304.32 C 143.47 317.47 142.64 330.59 142.77 343.73 C 136.62 343.66 130.47 343.46 124.33 343.32 C 124.37 326.69 125.13 310.09 125.43 293.48 C 137.05 286.08 148.87 279.00 160.36 271.42 C 159.97 257.61 159.68 243.80 159.60 229.99 C 146.26 237.66 132.95 245.37 119.54 252.94 C 119.33 226.29 119.27 199.64 119.11 172.99 C 119.07 169.57 118.47 166.12 119.24 162.75 Z" />
<path fill="#c74000" opacity="1.00" d=" M 175.31 221.74 C 197.08 210.30 218.93 199.03 240.68 187.55 C 240.64 200.19 241.28 212.80 241.43 225.44 C 219.65 237.78 197.78 250.00 175.82 262.02 C 175.67 248.60 175.49 235.17 175.31 221.74 Z" />
<path fill="#ffffff" opacity="1.00" d=" M 322.36 218.07 C 323.93 217.68 325.54 217.96 327.11 218.25 C 348.82 222.45 370.54 226.58 392.26 230.74 C 392.25 259.81 392.24 288.88 392.26 317.95 C 392.93 329.52 387.28 340.40 380.36 349.30 C 365.71 367.34 345.17 379.64 324.02 388.63 C 308.93 382.01 294.38 373.87 281.72 363.24 C 270.73 353.96 260.87 342.32 257.11 328.15 C 255.94 324.53 256.25 320.70 256.23 316.96 C 256.26 288.21 256.22 259.46 256.25 230.71 C 278.29 226.54 300.32 222.29 322.36 218.07 Z" />
</svg>
