<?xml version="1.0" encoding="UTF-8" ?>
<!DOCTYPE svg PUBLIC "-//W3C//DTD SVG 1.1//EN" "http://www.w3.org/Graphics/SVG/1.1/DTD/svg11.dtd">
<svg width="512pt" height="512pt" viewBox="0 0 512 512" version="1.1" xmlns="http://www.w3.org/2000/svg">
<path fill="#008d44" opacity="1.00" d=" M 0.00 0.00 L 512.00 0.00 L 512.00 512.00 L 0.00 512.00 L 0.00 0.00 Z" />
<path fill="#ffffff" opacity="1.00" d=" M 158.35 134.00 C 158.28 128.95 162.99 124.62 168.00 124.86 C 227.01 124.81 286.02 124.84 345.03 124.84 C 350.26 124.40 355.32 128.62 355.29 133.96 C 355.36 166.98 355.29 200.01 355.33 233.04 C 323.79 272.93 292.35 312.92 260.87 352.87 C 258.68 357.81 258.64 363.47 257.16 368.67 L 256.40 369.16 C 226.91 369.24 197.40 369.19 167.91 369.18 C 163.03 369.25 158.35 365.07 158.36 360.10 C 158.31 352.86 158.23 345.61 158.43 338.37 C 150.23 338.03 142.02 338.43 133.82 338.18 C 129.73 337.90 126.22 334.14 126.45 330.01 C 126.49 327.24 125.98 324.12 127.74 321.74 C 129.08 319.67 131.44 318.12 133.96 318.21 C 142.07 317.94 150.18 318.27 158.29 318.16 C 158.34 306.73 158.33 295.30 158.30 283.87 C 150.17 283.85 142.04 283.92 133.92 283.85 C 129.85 283.90 126.29 280.12 126.45 276.08 C 126.50 273.49 126.01 270.64 127.40 268.30 C 128.82 265.56 131.96 264.02 134.99 264.19 C 142.77 264.14 150.54 264.20 158.31 264.17 C 158.34 252.52 158.30 240.87 158.33 229.22 C 150.54 229.22 142.75 229.24 134.96 229.22 C 130.88 229.38 126.77 226.18 126.51 221.99 C 126.45 218.67 125.83 214.86 128.14 212.10 C 129.92 209.64 133.12 208.92 136.00 208.89 C 143.44 208.83 150.88 208.90 158.32 208.87 C 158.33 197.36 158.29 185.85 158.34 174.33 C 150.21 174.28 142.08 174.38 133.95 174.30 C 129.30 174.19 125.78 169.51 126.41 165.00 C 125.64 160.46 128.25 155.27 133.09 154.58 C 141.49 154.22 149.92 154.53 158.33 154.43 C 158.34 147.62 158.27 140.81 158.35 134.00 Z" />
<path fill="#008d44" opacity="1.00" d=" M 175.33 153.55 C 180.87 151.76 187.41 154.49 189.55 160.01 C 192.36 165.90 188.63 173.36 182.54 175.26 C 176.96 177.25 170.40 174.00 168.30 168.54 C 165.72 162.73 169.40 155.45 175.33 153.55 Z" />
<path fill="#008d44" opacity="1.00" d=" M 174.50 208.73 C 181.19 205.44 189.86 210.67 190.43 218.01 C 191.17 224.42 185.46 230.52 179.04 230.39 C 173.29 230.54 168.00 225.71 167.52 220.00 C 167.11 215.28 170.10 210.49 174.50 208.73 Z" />
<path fill="#ffffff" opacity="1.00" d=" M 361.91 230.94 C 363.86 228.57 367.67 227.85 370.17 229.79 C 374.04 232.55 377.64 235.66 381.44 238.52 C 384.52 240.42 386.94 244.35 384.81 247.84 C 381.42 252.74 377.41 257.18 373.92 262.01 C 366.26 256.20 358.73 250.20 351.20 244.22 C 354.97 239.95 358.20 235.24 361.91 230.94 Z" />
<path fill="#ffffff" opacity="1.00" d=" M 345.39 251.82 C 346.55 250.31 347.72 248.80 348.90 247.30 C 356.32 253.34 363.92 259.16 371.44 265.07 C 370.26 266.54 369.08 268.02 367.93 269.51 C 360.46 263.55 352.97 257.64 345.39 251.82 Z" />
<path fill="#ffffff" opacity="1.00" d=" M 264.80 354.05 C 290.86 320.96 316.95 287.89 342.99 254.78 C 350.51 260.66 357.95 266.65 365.54 272.44 C 339.48 305.60 313.40 338.75 287.23 371.83 C 279.89 365.73 272.24 360.02 264.80 354.05 Z" />
<path fill="#008d44" opacity="1.00" d=" M 174.41 263.61 C 181.16 260.16 189.90 265.64 190.42 273.02 C 191.18 279.46 185.47 285.66 179.01 285.55 C 173.22 285.66 167.96 280.70 167.51 274.97 C 167.11 270.24 170.07 265.48 174.41 263.61 Z" />
<path fill="#ffffff" opacity="1.00" d=" M 294.23 369.19 C 314.58 343.34 334.98 317.53 355.29 291.66 C 355.34 314.45 355.34 337.25 355.29 360.05 C 355.30 365.81 349.46 369.92 343.98 369.22 C 327.40 369.16 310.82 369.22 294.23 369.19 Z" />
<path fill="#008d44" opacity="1.00" d=" M 174.35 317.53 C 180.10 314.65 187.62 318.05 189.71 324.01 C 192.11 329.67 188.68 336.70 182.96 338.68 C 177.31 341.10 170.32 337.65 168.27 331.99 C 165.90 326.55 169.04 319.83 174.35 317.53 Z" />
<path fill="#ffffff" opacity="1.00" d=" M 263.34 357.95 C 270.35 363.17 277.06 368.79 284.04 374.06 C 279.71 375.95 275.61 378.36 271.13 379.89 C 267.70 376.88 263.98 374.24 260.47 371.34 C 261.64 366.92 262.18 362.37 263.34 357.95 Z" />
<path fill="#ffffff" opacity="1.00" d=" M 259.63 375.63 C 262.33 377.67 264.98 379.76 267.58 381.92 C 264.15 383.29 260.89 385.02 257.55 386.61 C 258.00 382.90 258.95 379.29 259.63 375.63 Z" />
</svg>
