<?xml version="1.0" encoding="UTF-8" ?>
<!DOCTYPE svg PUBLIC "-//W3C//DTD SVG 1.1//EN" "http://www.w3.org/Graphics/SVG/1.1/DTD/svg11.dtd">
<svg width="512pt" height="512pt" viewBox="0 0 512 512" version="1.1" xmlns="http://www.w3.org/2000/svg">
<path fill="#c74000" opacity="1.00" d=" M 0.00 0.00 L 512.00 0.00 L 512.00 512.00 L 0.00 512.00 L 0.00 0.00 Z" />
<path fill="#ffffff" opacity="1.00" d=" M 318.99 116.76 C 323.18 115.79 327.30 114.42 331.60 113.96 C 331.53 130.12 331.57 146.27 331.58 162.43 C 320.54 168.39 309.41 174.16 298.37 180.11 C 298.46 193.68 298.30 207.26 298.46 220.83 C 308.61 214.13 319.02 207.81 329.24 201.21 C 330.25 200.71 331.47 199.45 332.62 200.37 C 346.31 208.18 359.85 216.25 373.55 224.03 C 373.08 241.65 372.26 259.25 371.60 276.87 C 364.81 276.67 358.00 277.19 351.23 276.83 C 351.62 266.03 352.23 255.24 352.64 244.44 C 310.59 281.47 268.63 318.60 226.54 355.58 C 225.90 369.33 225.14 383.07 224.62 396.82 C 217.61 397.64 210.52 397.26 203.48 397.59 C 203.65 380.69 203.88 363.79 204.25 346.90 C 191.68 338.88 178.89 331.19 166.38 323.08 C 165.96 338.22 165.60 353.36 165.58 368.51 C 158.55 368.41 151.54 368.08 144.52 367.75 C 144.96 348.82 145.61 329.90 145.80 310.97 C 159.10 302.57 172.44 294.26 185.76 285.90 C 185.71 269.84 185.38 253.78 185.27 237.73 C 169.90 246.41 154.59 255.21 139.32 264.09 C 138.44 229.74 138.70 195.35 138.53 160.99 C 198.71 146.40 258.82 131.45 318.99 116.76 Z" />
<path fill="#c74000" opacity="1.00" d=" M 207.05 226.16 C 230.83 213.88 254.47 201.30 278.29 189.10 C 278.48 203.76 278.66 218.42 278.82 233.08 C 253.73 247.01 228.70 261.05 203.61 274.98 C 203.21 259.56 203.68 244.10 202.72 228.71 C 204.12 227.78 205.55 226.91 207.05 226.16 Z" />
</svg>
