<?xml version="1.0" encoding="UTF-8" ?>
<!DOCTYPE svg PUBLIC "-//W3C//DTD SVG 1.1//EN" "http://www.w3.org/Graphics/SVG/1.1/DTD/svg11.dtd">
<svg width="512pt" height="512pt" viewBox="0 0 512 512" version="1.1" xmlns="http://www.w3.org/2000/svg">
<path fill="#bc3885" opacity="1.00" d=" M 0.00 0.00 L 512.00 0.00 L 512.00 512.00 L 0.00 512.00 L 0.00 0.00 Z" />
<path fill="#ffffff" opacity="1.00" d=" M 261.42 131.59 C 272.27 130.95 283.13 131.58 293.97 131.88 C 305.47 132.72 317.20 135.46 326.76 142.18 C 333.84 147.36 338.54 155.09 341.59 163.20 C 358.17 206.06 366.47 251.48 374.91 296.48 C 376.50 305.05 377.73 314.28 374.46 322.62 C 371.39 328.73 364.69 332.42 358.06 333.25 C 344.39 334.93 331.28 324.61 328.41 311.40 C 323.87 294.64 319.17 277.92 315.33 260.98 C 310.71 241.95 305.86 222.99 301.04 204.02 C 298.39 195.21 293.90 186.16 285.85 181.16 C 280.84 177.90 274.65 178.12 268.93 177.82 C 255.73 177.88 242.09 177.33 229.42 181.67 C 222.25 184.62 214.61 188.84 211.25 196.21 C 209.25 202.88 209.96 210.03 210.89 216.83 C 214.81 239.53 221.81 261.58 229.80 283.14 C 235.74 301.45 241.82 319.76 246.24 338.50 C 248.68 348.59 250.12 360.07 244.43 369.37 C 241.18 374.63 235.62 378.08 229.65 379.42 C 216.88 383.49 201.77 382.40 190.99 373.90 C 181.47 366.39 176.21 355.09 171.64 344.17 C 164.97 328.45 159.29 312.32 154.23 296.02 C 149.06 279.64 144.48 263.04 141.37 246.14 C 136.15 224.58 132.42 201.95 136.46 179.86 C 139.33 163.11 153.14 150.50 168.17 144.04 C 184.12 136.93 201.79 136.44 218.86 134.62 C 233.03 133.36 247.20 132.07 261.42 131.59 Z" />
<path fill="#ffffff" opacity="1.00" d=" M 264.56 248.81 C 273.05 247.81 282.18 246.42 290.35 249.70 C 302.60 255.34 304.95 273.49 295.80 282.88 C 291.88 286.14 286.88 287.59 282.05 288.91 C 272.28 291.16 261.84 293.01 252.08 289.70 C 246.46 287.92 242.03 282.99 241.08 277.14 C 239.37 270.56 240.38 263.12 244.78 257.79 C 249.54 251.87 257.52 250.30 264.56 248.81 Z" />
</svg>
