<?xml version="1.0" encoding="UTF-8" ?>
<!DOCTYPE svg PUBLIC "-//W3C//DTD SVG 1.1//EN" "http://www.w3.org/Graphics/SVG/1.1/DTD/svg11.dtd">
<svg width="512pt" height="512pt" viewBox="0 0 512 512" version="1.1" xmlns="http://www.w3.org/2000/svg">
<path fill="#8a6ba6" opacity="1.00" d=" M 0.00 0.00 L 512.00 0.00 L 512.00 512.00 L 0.00 512.00 L 0.00 0.00 Z" />
<path fill="#ffffff" opacity="1.00" d=" M 186.49 133.75 C 195.21 131.95 204.19 132.43 213.03 132.73 C 231.83 134.71 250.11 139.76 268.57 143.63 C 282.08 146.38 295.36 150.18 308.94 152.58 C 321.38 155.00 334.36 156.96 345.33 163.73 C 364.46 175.25 377.55 195.02 383.83 216.17 C 388.82 233.49 390.10 252.86 382.63 269.67 C 377.46 281.58 367.08 291.31 354.41 294.64 C 335.66 299.58 316.06 298.84 297.02 301.93 C 292.16 302.65 286.78 303.28 282.33 300.72 C 273.02 294.97 267.67 280.45 275.30 271.35 C 277.75 268.55 281.41 267.20 284.99 266.55 C 296.21 264.57 307.67 266.85 318.92 265.23 C 325.96 264.27 332.16 259.34 334.72 252.72 C 338.86 242.26 337.43 230.52 334.45 219.95 C 331.19 209.21 325.95 198.00 315.82 192.19 C 305.17 186.20 292.69 185.29 280.86 183.47 C 271.34 182.19 261.33 179.84 252.01 183.37 C 242.31 186.82 232.84 194.36 230.88 204.96 C 229.86 213.60 233.63 221.80 235.32 230.12 C 240.54 254.30 244.21 278.79 249.12 303.03 C 249.36 304.23 249.73 305.44 250.46 306.45 C 257.45 316.41 266.79 325.64 278.93 328.70 C 292.57 332.56 306.60 328.37 320.00 325.54 C 331.47 322.60 343.42 322.33 354.88 319.35 C 359.29 318.49 364.01 316.89 368.41 318.57 C 377.81 322.87 381.07 336.99 373.53 344.44 C 368.93 348.23 362.62 348.35 357.09 349.88 C 332.31 356.28 307.68 363.27 282.90 369.69 C 271.18 372.68 259.19 375.15 247.03 374.97 C 225.28 374.45 204.35 365.12 187.90 351.16 C 177.38 342.15 168.21 331.11 163.12 318.11 C 158.81 307.42 156.34 296.14 153.49 285.01 C 149.57 269.68 145.18 254.49 141.39 239.13 C 137.36 223.05 133.39 206.63 134.25 189.92 C 134.61 178.34 138.51 166.83 145.76 157.74 C 155.75 145.03 170.75 136.84 186.49 133.75 Z" />
</svg>
