<?xml version="1.0" encoding="UTF-8" ?>
<!DOCTYPE svg PUBLIC "-//W3C//DTD SVG 1.1//EN" "http://www.w3.org/Graphics/SVG/1.1/DTD/svg11.dtd">
<svg width="512pt" height="512pt" viewBox="0 0 512 512" version="1.1" xmlns="http://www.w3.org/2000/svg">
<path fill="#8a6ba6" opacity="1.00" d=" M 0.00 0.00 L 512.00 0.00 L 512.00 512.00 L 0.00 512.00 L 0.00 0.00 Z" />
<path fill="#ffffff" opacity="1.00" d=" M 160.22 129.30 C 162.15 128.88 164.12 128.68 166.10 128.64 C 235.74 128.62 305.37 128.65 375.01 128.62 C 378.49 128.17 381.51 131.55 381.23 134.93 C 381.24 215.61 381.23 296.29 381.24 376.97 C 381.59 380.42 378.53 383.96 374.94 383.39 C 295.30 383.34 215.66 383.37 136.03 383.37 C 133.56 383.69 131.27 381.92 130.45 379.67 C 129.94 376.81 130.21 373.88 130.18 371.00 C 130.21 302.34 130.14 233.68 130.22 165.02 C 130.34 148.03 143.57 132.46 160.22 129.30 Z" />
<path fill="#8a6ba6" opacity="1.00" d=" M 160.05 141.26 C 164.54 139.83 169.30 140.23 173.94 140.16 C 239.16 140.16 304.38 140.20 369.59 140.14 C 369.59 207.04 369.58 273.93 369.60 340.82 C 293.62 340.79 217.64 340.80 141.65 340.82 C 141.71 285.22 141.66 229.63 141.68 174.04 C 141.72 169.31 141.32 164.49 142.48 159.86 C 144.55 151.15 151.48 143.83 160.05 141.26 Z" />
<path fill="#ffffff" opacity="1.00" d=" M 219.17 195.87 C 218.77 191.62 223.35 189.30 227.05 189.64 C 247.03 189.63 267.01 189.64 286.99 189.63 C 288.84 189.48 291.11 190.25 291.52 192.29 C 292.46 195.76 292.65 199.74 291.09 203.06 C 290.36 204.65 288.49 204.52 287.04 204.56 C 270.26 204.54 253.48 204.53 236.70 204.56 C 236.71 218.43 236.71 232.31 236.70 246.18 C 251.49 246.25 266.29 246.12 281.08 246.23 C 284.93 246.38 284.84 251.21 284.77 254.01 C 284.84 256.46 284.48 260.69 281.07 260.32 C 266.28 260.46 251.48 260.29 236.69 260.40 C 236.78 276.21 236.58 292.03 236.79 307.85 C 254.22 307.77 271.66 307.79 289.08 307.83 C 291.31 307.60 292.82 309.83 292.77 311.86 C 292.94 315.48 293.58 319.73 290.70 322.52 C 268.77 322.44 246.83 322.58 224.90 322.46 C 221.55 322.48 218.69 319.42 219.15 316.04 C 219.15 275.99 219.10 235.93 219.17 195.87 Z" />
</svg>
