<?xml version="1.0" encoding="UTF-8" ?>
<!DOCTYPE svg PUBLIC "-//W3C//DTD SVG 1.1//EN" "http://www.w3.org/Graphics/SVG/1.1/DTD/svg11.dtd">
<svg width="512pt" height="512pt" viewBox="0 0 512 512" version="1.1" xmlns="http://www.w3.org/2000/svg">
<path fill="#549f3b" opacity="1.00" d=" M 0.00 0.00 L 512.00 0.00 L 512.00 512.00 L 0.00 512.00 L 0.00 0.00 Z" />
<path fill="#ffffff" opacity="1.00" d=" M 153.56 134.87 C 169.50 131.65 186.21 136.46 199.36 145.64 C 211.35 154.03 221.55 165.69 226.19 179.74 C 232.11 196.55 232.57 214.64 237.72 231.64 C 240.30 240.16 244.95 248.51 252.60 253.43 C 260.30 258.66 269.98 259.87 279.07 259.07 C 296.68 257.84 314.10 252.47 331.86 254.66 C 359.36 258.95 381.22 284.45 382.73 311.98 C 383.23 320.04 381.42 328.65 375.89 334.78 C 371.02 340.20 362.85 341.92 356.04 339.62 C 351.03 337.89 347.09 333.92 344.46 329.43 C 340.15 322.09 340.64 313.01 336.42 305.63 C 332.72 299.22 327.13 293.72 320.30 290.77 C 314.77 288.75 308.72 288.67 302.92 289.24 C 293.90 289.86 285.02 291.63 276.05 292.60 C 260.53 294.59 244.86 298.03 229.18 295.75 C 194.49 291.34 164.05 266.24 150.93 234.15 C 143.41 215.93 139.69 196.48 134.90 177.44 C 132.81 167.57 130.93 156.67 135.41 147.16 C 138.68 140.09 146.23 136.26 153.56 134.87 Z" />
<path fill="#ffffff" opacity="1.00" d=" M 325.33 170.58 C 333.53 167.88 342.55 170.69 349.21 175.77 C 364.31 187.44 372.64 208.68 366.37 227.20 C 364.12 234.47 357.99 241.18 350.03 241.68 C 341.02 242.62 332.84 237.38 326.73 231.26 C 316.15 220.46 309.38 205.23 310.73 189.96 C 311.33 181.42 316.99 173.15 325.33 170.58 Z" />
<path fill="#ffffff" opacity="1.00" d=" M 202.47 305.76 C 215.79 302.89 230.52 305.19 241.62 313.33 C 248.98 318.58 254.21 326.93 255.14 335.99 C 256.04 344.77 254.37 354.04 249.36 361.42 C 245.19 367.69 238.74 372.20 231.72 374.74 C 218.58 379.41 203.33 377.88 191.45 370.53 C 176.55 361.51 169.45 341.25 176.06 325.04 C 180.59 314.40 191.52 308.01 202.47 305.76 Z" />
</svg>
