<?xml version="1.0" encoding="UTF-8" ?>
<!DOCTYPE svg PUBLIC "-//W3C//DTD SVG 1.1//EN" "http://www.w3.org/Graphics/SVG/1.1/DTD/svg11.dtd">
<svg width="512pt" height="512pt" viewBox="0 0 512 512" version="1.1" xmlns="http://www.w3.org/2000/svg">
<path fill="#549f3b" opacity="1.00" d=" M 0.00 0.00 L 512.00 0.00 L 512.00 512.00 L 0.00 512.00 L 0.00 0.00 Z" />
<path fill="#ffffff" opacity="1.00" d=" M 138.01 146.94 C 149.02 135.39 164.04 127.75 179.85 125.62 C 184.89 125.05 189.97 125.13 195.03 125.11 C 261.07 125.13 327.11 125.07 393.16 125.14 C 393.15 212.15 393.16 299.16 393.15 386.17 C 301.49 386.19 209.83 386.18 118.17 386.17 C 118.20 322.80 118.17 259.42 118.19 196.05 C 118.01 177.92 125.45 159.95 138.01 146.94 Z" />
<path fill="#549f3b" opacity="1.00" d=" M 193.36 133.56 C 254.93 133.31 316.50 133.53 378.06 133.44 C 381.33 132.87 384.76 135.50 384.30 138.98 C 384.30 217.01 384.29 295.05 384.31 373.09 C 384.56 375.98 381.94 378.63 379.03 378.33 C 296.67 378.31 214.30 378.35 131.94 378.32 C 129.27 378.36 126.97 375.71 127.28 373.08 C 127.28 316.38 127.28 259.68 127.28 202.97 C 127.05 186.12 133.40 169.28 144.70 156.78 C 156.87 142.84 174.88 134.26 193.36 133.56 Z" />
<path fill="#ffffff" opacity="1.00" d=" M 153.45 161.44 C 164.36 149.88 180.14 143.05 196.04 143.18 C 255.57 143.14 315.10 143.19 374.63 143.16 C 374.60 218.32 374.59 293.48 374.64 368.64 C 295.34 368.59 216.03 368.67 136.73 368.60 C 136.80 313.07 136.74 257.54 136.76 202.01 C 137.08 187.05 142.88 172.13 153.45 161.44 Z" />
<path fill="#549f3b" opacity="1.00" d=" M 195.68 176.37 C 203.40 176.36 211.13 176.36 218.85 176.37 C 229.75 195.10 240.63 213.83 251.52 232.56 C 253.59 236.18 255.53 239.89 257.13 243.75 C 261.94 233.99 267.98 224.92 273.56 215.60 C 281.54 202.52 289.52 189.45 297.49 176.37 C 304.72 176.37 311.95 176.35 319.18 176.38 C 302.69 202.48 286.12 228.54 269.59 254.61 C 268.63 255.64 269.91 256.68 270.34 257.60 C 286.89 283.58 303.18 309.73 319.81 335.67 C 312.19 336.04 304.56 335.60 296.94 335.89 C 284.69 316.07 272.89 295.96 260.81 276.02 C 258.99 273.15 257.68 270.00 256.36 266.88 C 254.71 270.06 253.37 273.39 251.48 276.44 C 239.23 296.21 226.99 316.00 214.73 335.77 C 206.99 335.84 199.25 335.80 191.51 335.79 C 209.34 309.07 227.20 282.35 244.88 255.53 C 228.30 229.26 212.12 202.74 195.68 176.37 Z" />
</svg>
