<?xml version="1.0" encoding="UTF-8" ?>
<!DOCTYPE svg PUBLIC "-//W3C//DTD SVG 1.1//EN" "http://www.w3.org/Graphics/SVG/1.1/DTD/svg11.dtd">
<svg width="512pt" height="512pt" viewBox="0 0 512 512" version="1.1" xmlns="http://www.w3.org/2000/svg">
<path fill="#2727f7" opacity="1.00" d=" M 0.00 0.00 L 512.00 0.00 L 512.00 512.00 L 0.00 512.00 L 0.00 0.00 Z" />
<path fill="#ffffff" opacity="1.00" d=" M 194.53 133.60 C 208.36 132.38 222.19 133.95 235.97 135.04 C 271.84 137.83 307.71 140.59 343.56 143.59 C 351.11 144.18 357.84 148.99 361.62 155.43 C 364.08 159.11 366.01 163.80 364.33 168.19 C 362.73 171.14 359.24 172.45 356.03 172.43 C 342.34 172.57 328.68 171.50 315.00 171.73 C 304.01 171.18 293.00 171.32 282.00 171.18 C 274.36 170.49 266.68 170.59 259.02 170.66 C 253.19 171.17 246.76 172.05 242.47 176.46 C 238.55 179.77 238.60 185.58 239.92 190.12 C 255.42 230.82 271.12 271.46 286.41 312.25 C 290.42 322.60 293.58 334.28 289.99 345.21 C 286.51 356.02 279.58 365.59 270.89 372.83 C 258.97 381.46 242.95 381.52 229.33 377.44 C 213.84 372.02 202.88 358.17 196.90 343.35 C 182.30 298.37 167.44 253.48 152.81 208.50 C 149.63 199.33 147.09 189.79 146.96 180.03 C 146.92 175.77 146.86 171.36 148.51 167.35 C 151.41 160.48 154.78 153.54 160.38 148.44 C 169.49 139.48 181.84 134.44 194.53 133.60 Z" />
<path fill="#ffffff" opacity="1.00" d=" M 288.57 208.87 C 295.92 207.12 303.60 209.21 310.17 212.57 C 321.70 218.38 330.91 228.95 334.13 241.55 C 335.65 249.12 335.43 257.46 331.28 264.21 C 326.78 270.84 319.23 275.96 310.97 275.62 C 299.51 275.28 288.63 269.31 281.32 260.61 C 274.90 253.52 271.18 244.31 269.45 235.00 C 267.37 222.87 277.23 211.65 288.57 208.87 Z" />
</svg>
