<?xml version="1.0" encoding="UTF-8" ?>
<!DOCTYPE svg PUBLIC "-//W3C//DTD SVG 1.1//EN" "http://www.w3.org/Graphics/SVG/1.1/DTD/svg11.dtd">
<svg width="512pt" height="512pt" viewBox="0 0 512 512" version="1.1" xmlns="http://www.w3.org/2000/svg">
<path fill="#7013a6" opacity="1.00" d=" M 0.00 0.00 L 512.00 0.00 L 512.00 512.00 L 0.00 512.00 L 0.00 0.00 Z" />
<path fill="#ffffff" opacity="1.00" d=" M 134.65 178.39 C 155.24 161.76 175.52 144.74 196.02 127.99 C 210.21 145.20 224.39 162.42 238.80 179.45 C 229.41 179.44 220.01 179.35 210.62 179.18 C 209.59 186.03 208.47 192.87 207.51 199.73 C 219.02 199.54 230.51 200.25 242.02 200.20 C 277.75 200.39 313.48 200.77 349.21 201.26 C 348.53 212.50 348.42 223.76 348.22 235.02 C 347.30 249.68 347.75 264.38 346.86 279.05 C 346.82 290.28 346.21 301.50 346.13 312.74 C 356.63 312.74 367.13 312.87 377.63 312.88 C 363.04 328.58 349.31 345.04 335.10 361.07 C 328.55 368.40 322.38 376.11 315.54 383.14 C 302.21 365.21 288.47 347.59 275.04 329.73 C 270.44 323.70 265.79 317.70 261.03 311.80 C 271.50 311.68 281.96 312.18 292.43 312.17 C 293.34 303.86 293.25 295.46 294.47 287.19 C 273.30 287.32 252.14 286.45 230.98 286.50 C 215.67 286.45 200.37 286.31 185.07 286.28 C 170.48 285.44 155.85 285.84 141.24 285.75 C 148.66 250.13 155.43 214.36 162.90 178.75 C 153.49 178.31 144.07 178.38 134.65 178.39 Z" />
<path fill="#7013a6" opacity="1.00" d=" M 171.55 211.15 C 225.86 211.44 280.15 212.44 334.45 212.69 C 333.41 223.42 333.56 234.23 333.03 244.99 C 332.48 253.24 332.39 261.52 332.26 269.79 C 304.51 269.63 276.76 269.18 249.01 269.18 C 219.68 268.48 190.33 268.53 160.99 268.35 C 164.19 249.22 168.25 230.25 171.55 211.15 Z" />
</svg>
