<?xml version="1.0" encoding="UTF-8" ?>
<!DOCTYPE svg PUBLIC "-//W3C//DTD SVG 1.1//EN" "http://www.w3.org/Graphics/SVG/1.1/DTD/svg11.dtd">
<svg width="512pt" height="512pt" viewBox="0 0 512 512" version="1.1" xmlns="http://www.w3.org/2000/svg">
<path fill="#7013a6" opacity="1.00" d=" M 0.00 0.00 L 512.00 0.00 L 512.00 512.00 L 0.00 512.00 L 0.00 0.00 Z" />
<path fill="#ffffff" opacity="1.00" d=" M 158.42 129.74 C 163.16 128.29 168.15 128.65 173.04 128.64 C 240.36 128.62 307.69 128.66 375.01 128.62 C 378.54 128.14 381.58 131.66 381.25 135.06 C 381.23 215.73 381.23 296.41 381.24 377.09 C 381.49 380.00 379.19 383.29 376.13 383.35 C 296.08 383.39 216.02 383.34 135.97 383.37 C 133.48 383.72 131.25 381.84 130.42 379.61 C 129.99 377.11 130.20 374.55 130.17 372.03 C 130.21 303.02 130.14 234.01 130.21 165.01 C 130.38 148.68 142.57 133.54 158.42 129.74 Z" />
<path fill="#7013a6" opacity="1.00" d=" M 143.28 157.18 C 146.87 147.08 157.19 139.77 167.97 140.19 C 235.18 140.12 302.39 140.22 369.59 140.14 C 369.59 207.04 369.58 273.93 369.60 340.83 C 293.62 340.79 217.65 340.80 141.67 340.82 C 141.68 284.21 141.68 227.60 141.67 170.99 C 141.58 166.35 141.60 161.58 143.28 157.18 Z" />
<path fill="#ffffff" opacity="1.00" d=" M 248.23 190.29 C 251.89 188.68 256.07 189.24 259.96 189.31 C 262.07 189.34 265.20 190.28 264.70 192.98 C 264.68 235.82 264.76 278.65 264.66 321.49 C 260.50 323.89 255.46 323.33 250.88 322.92 C 249.34 322.68 246.94 322.06 247.18 320.02 C 247.07 278.00 247.19 235.98 247.12 193.96 C 247.35 192.77 246.76 190.84 248.23 190.29 Z" />
</svg>
