<?xml version="1.0" encoding="UTF-8" ?>
<!DOCTYPE svg PUBLIC "-//W3C//DTD SVG 1.1//EN" "http://www.w3.org/Graphics/SVG/1.1/DTD/svg11.dtd">
<svg width="512pt" height="512pt" viewBox="0 0 512 512" version="1.1" xmlns="http://www.w3.org/2000/svg">
<path fill="#693885" opacity="1.00" d=" M 0.00 0.00 L 512.00 0.00 L 512.00 512.00 L 0.00 512.00 L 0.00 0.00 Z" />
<path fill="#ffffff" opacity="1.00" d=" M 112.62 148.79 C 166.89 139.00 221.16 129.14 275.42 119.25 C 275.40 210.44 275.41 301.63 275.41 392.82 C 221.14 382.99 166.87 373.10 112.60 363.25 C 112.62 291.77 112.59 220.28 112.62 148.79 Z" />
<path fill="#ffffff" opacity="1.00" d=" M 341.36 183.66 C 350.97 172.88 360.60 162.13 370.08 151.26 C 379.61 162.07 389.16 172.86 398.81 183.58 C 392.33 183.72 385.84 183.69 379.37 183.57 C 379.17 226.24 379.29 268.91 379.31 311.57 C 356.04 311.63 332.77 311.61 309.50 311.58 C 309.57 305.52 309.56 299.47 309.51 293.41 C 326.61 293.36 343.72 293.43 360.83 293.38 C 360.77 256.80 360.82 220.23 360.81 183.65 C 354.32 183.65 347.84 183.66 341.36 183.66 Z" />
<path fill="#693885" opacity="1.00" d=" M 173.73 201.65 C 187.94 199.33 202.30 197.87 216.49 195.49 C 216.86 202.63 216.54 209.79 216.66 216.94 C 213.37 217.37 210.07 217.61 206.77 217.88 C 206.71 244.43 206.83 270.98 206.71 297.53 C 210.01 298.08 213.35 298.41 216.70 298.52 C 216.60 305.61 216.66 312.69 216.66 319.78 C 206.08 318.51 195.51 317.18 184.92 315.99 C 181.19 315.43 177.37 315.50 173.71 314.51 C 173.80 308.12 173.75 301.73 173.75 295.34 C 176.62 295.55 179.50 295.77 182.38 295.98 C 182.35 270.70 182.44 245.42 182.34 220.14 C 179.47 220.40 176.61 220.61 173.74 220.82 C 173.77 214.43 173.78 208.04 173.73 201.65 Z" />
<path fill="#ffffff" opacity="1.00" d=" M 285.23 201.10 C 308.41 201.21 331.60 201.13 354.79 201.15 C 354.67 207.08 354.91 213.02 354.68 218.95 L 354.27 219.17 C 337.28 219.28 320.29 219.21 303.31 219.20 C 303.37 255.91 303.23 292.63 303.38 329.35 C 309.43 329.25 315.48 329.26 321.53 329.34 C 312.19 339.76 303.44 350.70 294.04 361.06 C 291.29 357.47 288.20 354.17 285.28 350.73 C 285.21 300.85 285.33 250.98 285.23 201.10 Z" />
</svg>
