<?xml version="1.0" encoding="UTF-8" ?>
<!DOCTYPE svg PUBLIC "-//W3C//DTD SVG 1.1//EN" "http://www.w3.org/Graphics/SVG/1.1/DTD/svg11.dtd">
<svg width="512pt" height="512pt" viewBox="0 0 512 512" version="1.1" xmlns="http://www.w3.org/2000/svg">
<path fill="#7013a6" opacity="1.00" d=" M 0.00 0.00 L 512.00 0.00 L 512.00 512.00 L 0.00 512.00 L 0.00 0.00 Z" />
<path fill="#ffffff" opacity="1.00" d=" M 139.47 145.46 C 150.15 134.89 164.27 127.90 179.13 125.72 C 184.07 125.07 189.06 125.13 194.04 125.11 C 260.41 125.13 326.78 125.07 393.16 125.14 C 393.14 212.15 393.15 299.16 393.15 386.17 C 301.49 386.18 209.83 386.18 118.17 386.17 C 118.20 322.80 118.17 259.42 118.19 196.05 C 117.99 177.22 126.03 158.58 139.47 145.46 Z" />
<path fill="#7013a6" opacity="1.00" d=" M 193.41 133.55 C 254.95 133.31 316.49 133.53 378.02 133.44 C 381.31 132.86 384.74 135.47 384.30 138.97 C 384.30 216.98 384.31 295.00 384.29 373.01 C 384.60 375.95 381.96 378.64 379.01 378.32 C 297.01 378.34 215.01 378.30 133.02 378.34 C 129.99 378.84 126.92 376.19 127.28 373.08 C 127.27 316.37 127.28 259.66 127.28 202.95 C 127.06 186.10 133.41 169.28 144.70 156.77 C 156.89 142.84 174.90 134.23 193.41 133.55 Z" />
<path fill="#ffffff" opacity="1.00" d=" M 152.97 161.93 C 163.91 150.11 179.88 143.04 196.01 143.18 C 255.55 143.14 315.09 143.19 374.63 143.16 C 374.60 218.32 374.60 293.48 374.64 368.64 C 295.34 368.59 216.03 368.67 136.73 368.60 C 136.80 313.09 136.73 257.58 136.77 202.07 C 137.05 187.31 142.69 172.60 152.97 161.93 Z" />
<path fill="#7013a6" opacity="1.00" d=" M 231.22 176.36 C 247.81 176.37 264.41 176.37 281.00 176.36 C 281.21 181.78 281.19 187.21 281.02 192.63 C 275.83 192.62 270.65 192.63 265.47 192.62 C 265.43 234.98 265.50 277.33 265.43 319.69 C 270.66 319.73 275.90 319.68 281.13 319.73 C 281.11 325.08 281.17 330.42 281.09 335.77 C 264.46 335.85 247.84 335.78 231.21 335.81 C 231.22 330.45 231.26 325.09 231.18 319.73 C 236.37 319.68 241.56 319.73 246.74 319.69 C 246.69 277.34 246.72 234.99 246.73 192.64 C 241.56 192.61 236.39 192.63 231.22 192.63 C 231.23 187.21 231.22 181.78 231.22 176.36 Z" />
</svg>
