<?xml version="1.0" encoding="UTF-8" ?>
<!DOCTYPE svg PUBLIC "-//W3C//DTD SVG 1.1//EN" "http://www.w3.org/Graphics/SVG/1.1/DTD/svg11.dtd">
<svg width="512pt" height="512pt" viewBox="0 0 512 512" version="1.1" xmlns="http://www.w3.org/2000/svg">
<path fill="#f6961b" opacity="1.00" d=" M 0.00 0.00 L 512.00 0.00 L 512.00 512.00 L 0.00 512.00 L 0.00 0.00 Z" />
<path fill="#ffffff" opacity="1.00" d=" M 242.59 106.89 C 255.11 105.92 267.79 105.94 280.23 107.86 C 302.49 111.20 324.00 119.59 342.57 132.32 C 370.81 151.40 392.31 180.33 402.16 212.98 C 406.92 227.49 408.48 242.81 409.23 257.99 C 408.61 267.70 407.89 277.43 406.02 287.00 C 401.03 312.24 389.47 336.15 372.73 355.70 C 346.52 386.73 307.35 406.35 266.78 408.63 C 261.53 409.09 256.25 409.59 251.01 408.83 C 229.14 407.74 207.40 402.22 187.99 391.99 C 162.46 378.92 140.96 358.27 126.52 333.51 C 113.72 311.28 106.30 285.73 106.35 260.03 C 105.40 229.04 114.86 197.91 132.36 172.36 C 157.03 135.67 198.54 110.93 242.59 106.89 Z" />
<path fill="#f6961b" opacity="1.00" d=" M 254.52 154.61 C 255.26 153.94 256.44 152.24 257.46 153.55 C 279.98 176.03 302.47 198.55 324.97 221.05 C 334.53 230.77 344.43 240.19 353.79 250.10 C 335.68 250.17 317.57 250.11 299.47 250.12 C 299.49 285.21 299.51 320.30 299.46 355.39 C 270.89 355.45 242.32 355.45 213.75 355.39 C 213.84 320.30 213.78 285.21 213.78 250.12 C 195.61 250.11 177.44 250.17 159.26 250.09 C 190.81 218.07 222.84 186.51 254.52 154.61 Z" />
</svg>
