<?xml version="1.0" encoding="UTF-8" ?>
<!DOCTYPE svg PUBLIC "-//W3C//DTD SVG 1.1//EN" "http://www.w3.org/Graphics/SVG/1.1/DTD/svg11.dtd">
<svg width="512pt" height="512pt" viewBox="0 0 512 512" version="1.1" xmlns="http://www.w3.org/2000/svg">
<path fill="#7f1c76" opacity="1.00" d=" M 0.00 0.00 L 512.00 0.00 L 512.00 512.00 L 0.00 512.00 L 0.00 0.00 Z" />
<path fill="#ffffff" opacity="1.00" d=" M 108.88 145.72 C 165.33 135.35 221.80 125.10 278.30 114.97 C 278.29 209.04 278.28 303.12 278.30 397.19 C 221.83 386.91 165.32 376.81 108.88 366.38 C 108.89 292.83 108.89 219.27 108.88 145.72 Z" />
<path fill="#ffffff" opacity="1.00" d=" M 285.46 176.57 C 285.54 167.24 285.50 157.91 285.48 148.59 C 317.90 148.64 350.32 148.59 382.75 148.62 C 382.70 152.83 382.71 157.04 382.70 161.25 C 388.13 161.32 393.56 161.12 398.99 161.30 C 400.56 161.13 401.34 162.63 402.37 163.50 C 402.04 180.69 402.36 197.89 402.21 215.09 C 402.38 216.78 400.77 218.49 399.07 218.36 C 393.60 218.48 388.13 218.29 382.66 218.41 C 382.80 266.84 382.65 315.27 382.74 363.69 C 350.31 363.67 317.89 363.69 285.47 363.68 C 285.51 354.53 285.53 345.37 285.46 336.22 C 309.90 336.31 334.34 336.05 358.77 336.35 C 359.34 332.70 359.21 329.00 359.25 325.31 C 334.67 324.96 310.08 325.24 285.50 325.17 C 285.49 319.03 285.51 312.88 285.48 306.74 C 310.08 306.65 334.68 306.91 359.27 306.61 C 359.15 302.91 359.15 299.21 359.24 295.52 C 334.65 295.31 310.06 295.49 285.47 295.43 C 285.51 289.12 285.53 282.82 285.45 276.51 C 310.05 276.49 334.64 276.58 359.24 276.46 C 359.16 272.76 359.15 269.06 359.26 265.36 C 334.68 265.04 310.08 265.30 285.50 265.23 C 285.50 259.07 285.50 252.92 285.50 246.77 C 310.08 246.70 334.67 246.96 359.24 246.65 C 359.22 243.00 359.15 239.35 359.11 235.71 C 334.57 235.80 310.03 235.66 285.49 235.77 C 285.48 229.63 285.55 223.49 285.44 217.35 C 310.02 217.29 334.60 217.36 359.19 217.32 C 359.18 213.42 359.41 209.50 358.78 205.63 C 334.34 205.89 309.89 205.67 285.45 205.75 C 285.54 199.70 285.50 193.65 285.47 187.60 C 310.07 187.59 334.66 187.73 359.25 187.53 C 359.16 183.87 359.16 180.22 359.21 176.57 C 334.62 176.55 310.04 176.56 285.46 176.57 Z" />
<path fill="#7f1c76" opacity="1.00" d=" M 214.34 213.14 C 221.06 212.33 227.85 212.48 234.61 212.12 C 234.58 241.31 234.62 270.51 234.59 299.70 C 227.34 299.23 220.10 298.67 212.85 298.29 C 199.35 278.51 185.73 258.82 172.37 238.95 C 173.07 257.80 172.42 276.69 172.72 295.55 C 167.00 295.48 161.31 294.90 155.61 294.46 C 155.66 268.42 155.63 242.38 155.62 216.35 C 162.15 215.58 168.72 215.58 175.27 215.17 C 188.45 233.88 201.74 252.51 214.50 271.50 C 214.17 252.05 214.47 232.60 214.34 213.14 Z" />
<path fill="#ffffff" opacity="1.00" d=" M 389.18 226.09 C 393.53 226.13 397.88 226.13 402.24 226.12 C 402.23 245.51 402.23 264.89 402.24 284.28 C 397.88 284.27 393.52 284.27 389.16 284.28 C 389.21 264.88 389.18 245.48 389.18 226.09 Z" />
<path fill="#ffffff" opacity="1.00" d=" M 389.17 289.74 C 393.52 289.71 397.88 289.71 402.23 289.72 C 402.24 309.27 402.22 328.83 402.24 348.39 C 397.88 348.38 393.51 348.38 389.15 348.38 C 389.22 328.83 389.18 309.29 389.17 289.74 Z" />
</svg>
