<?xml version="1.0" encoding="UTF-8" ?>
<!DOCTYPE svg PUBLIC "-//W3C//DTD SVG 1.1//EN" "http://www.w3.org/Graphics/SVG/1.1/DTD/svg11.dtd">
<svg width="512pt" height="512pt" viewBox="0 0 512 512" version="1.1" xmlns="http://www.w3.org/2000/svg">
<path fill="#b62896" opacity="1.00" d=" M 0.00 0.00 L 512.00 0.00 L 512.00 512.00 L 0.00 512.00 L 0.00 0.00 Z" />
<path fill="#ffffff" opacity="1.00" d=" M 121.28 175.27 C 129.77 146.64 157.91 125.02 187.92 125.15 C 256.33 125.08 324.74 125.10 393.15 125.14 C 393.15 212.15 393.15 299.16 393.15 386.17 C 301.49 386.19 209.83 386.18 118.17 386.17 C 118.19 328.44 118.18 270.70 118.18 212.97 C 118.34 200.37 117.14 187.43 121.28 175.27 Z" />
<path fill="#b62896" opacity="1.00" d=" M 193.36 133.56 C 254.95 133.31 316.54 133.53 378.12 133.45 C 381.37 132.88 384.73 135.52 384.30 138.95 C 384.30 216.97 384.30 294.98 384.30 373.00 C 384.61 375.95 381.97 378.65 379.00 378.33 C 296.64 378.31 214.28 378.34 131.92 378.31 C 129.24 378.34 126.95 375.67 127.28 373.02 C 127.28 316.33 127.28 259.64 127.28 202.95 C 127.07 186.09 133.42 169.23 144.74 156.73 C 156.91 142.83 174.90 134.24 193.36 133.56 Z" />
<path fill="#ffffff" opacity="1.00" d=" M 153.42 161.47 C 164.31 149.91 180.09 143.06 195.99 143.18 C 255.54 143.14 315.09 143.18 374.64 143.16 C 374.60 218.32 374.60 293.48 374.63 368.64 C 295.34 368.59 216.04 368.67 136.74 368.60 C 136.79 313.09 136.74 257.57 136.76 202.06 C 137.06 187.10 142.85 172.17 153.42 161.47 Z" />
<path fill="#b62896" opacity="1.00" d=" M 191.45 176.35 C 199.55 176.39 207.64 176.36 215.74 176.37 C 237.82 210.90 259.85 245.47 281.91 280.02 C 288.55 290.75 295.85 301.09 301.95 312.14 C 301.42 304.43 301.16 296.70 301.22 288.97 C 301.22 251.43 301.23 213.90 301.22 176.36 C 307.55 176.46 313.89 176.17 320.22 176.52 C 320.13 229.56 320.14 282.60 320.22 335.63 C 312.46 336.04 304.68 335.66 296.92 335.84 C 269.56 293.58 242.30 251.26 214.98 208.98 C 212.77 205.74 211.20 202.14 209.59 198.57 C 209.61 202.72 210.08 206.85 210.23 210.99 C 210.23 252.58 210.22 294.17 210.24 335.76 C 203.97 335.85 197.71 335.77 191.45 335.82 C 191.45 282.67 191.44 229.51 191.45 176.35 Z" />
</svg>
