<?xml version="1.0" encoding="UTF-8" ?>
<!DOCTYPE svg PUBLIC "-//W3C//DTD SVG 1.1//EN" "http://www.w3.org/Graphics/SVG/1.1/DTD/svg11.dtd">
<svg width="512pt" height="512pt" viewBox="0 0 512 512" version="1.1" xmlns="http://www.w3.org/2000/svg">
<path fill="#b62896" opacity="1.00" d=" M 0.00 0.00 L 512.00 0.00 L 512.00 512.00 L 0.00 512.00 L 0.00 0.00 Z" />
<path fill="#ffffff" opacity="1.00" d=" M 153.32 147.40 C 156.53 147.26 159.75 147.50 162.96 147.22 C 169.34 146.41 175.76 147.40 182.05 148.48 C 189.14 149.91 196.78 152.84 200.65 159.37 C 204.66 166.65 205.97 174.98 208.42 182.84 C 220.06 219.50 231.57 256.21 242.84 292.99 C 247.43 307.59 251.49 322.35 256.48 336.81 C 258.17 342.04 259.64 347.73 258.15 353.18 C 256.17 358.56 250.77 361.43 245.96 363.88 C 237.66 368.22 228.29 369.96 219.05 370.75 C 203.55 371.17 186.86 366.77 176.06 355.04 C 167.56 345.90 164.82 333.28 162.18 321.49 C 154.67 283.99 145.31 246.89 135.88 209.84 C 133.46 200.16 131.14 190.40 130.26 180.44 C 129.75 173.20 130.38 165.50 134.16 159.14 C 138.50 152.83 145.40 147.60 153.32 147.40 Z" />
<path fill="#ffffff" opacity="1.00" d=" M 222.30 158.44 C 226.35 156.77 230.83 157.37 235.05 157.87 C 255.36 161.05 276.07 161.48 296.18 165.96 C 312.21 169.17 326.06 179.62 335.16 193.00 C 345.76 208.20 352.32 225.68 358.85 242.89 C 364.76 260.00 373.26 276.32 376.57 294.24 C 378.57 302.08 377.52 310.60 373.85 317.79 C 370.32 323.95 362.56 325.28 356.07 325.54 C 346.27 325.99 335.80 324.47 327.90 318.23 C 319.33 311.66 314.96 301.32 311.41 291.45 C 304.25 270.22 297.25 248.95 290.60 227.56 C 286.73 216.26 281.53 203.53 269.87 198.37 C 255.54 192.95 239.85 195.60 225.03 192.89 C 221.31 190.88 217.20 188.48 215.58 184.34 C 213.03 179.05 211.46 172.88 213.18 167.09 C 214.40 162.81 218.39 160.07 222.30 158.44 Z" />
</svg>
