<?xml version="1.0" encoding="UTF-8" ?>
<!DOCTYPE svg PUBLIC "-//W3C//DTD SVG 1.1//EN" "http://www.w3.org/Graphics/SVG/1.1/DTD/svg11.dtd">
<svg width="512pt" height="512pt" viewBox="0 0 512 512" version="1.1" xmlns="http://www.w3.org/2000/svg">
<path fill="#690c86" opacity="1.00" d=" M 0.00 0.00 L 512.00 0.00 L 512.00 512.00 L 0.00 512.00 L 0.00 0.00 Z" />
<path fill="#ffffff" opacity="1.00" d=" M 159.39 129.45 C 162.19 128.75 165.10 128.67 167.98 128.64 C 236.99 128.67 306.00 128.63 375.01 128.66 C 378.53 128.20 381.65 131.45 381.14 134.93 C 381.10 215.96 381.17 297.00 381.10 378.03 C 381.26 381.22 378.14 383.81 375.02 383.35 C 297.36 383.35 219.69 383.33 142.02 383.36 C 139.09 383.25 136.06 383.71 133.21 382.90 C 131.23 381.70 129.82 379.45 130.00 377.09 C 130.00 307.07 130.01 237.04 129.99 167.02 C 130.05 158.95 132.40 150.78 137.18 144.22 C 142.39 136.73 150.56 131.54 159.39 129.45 Z" />
<path fill="#690c86" opacity="1.00" d=" M 160.34 141.25 C 164.11 140.14 168.08 139.98 171.99 140.02 C 237.84 140.10 303.69 139.93 369.55 140.10 C 369.53 206.96 369.68 273.84 369.47 340.70 C 354.33 341.23 339.13 340.76 323.97 340.92 C 263.28 340.93 202.60 340.90 141.91 340.94 C 141.83 282.95 141.90 224.97 141.88 166.98 C 141.11 155.47 149.32 144.34 160.34 141.25 Z" />
<path fill="#ffffff" opacity="1.00" d=" M 290.25 189.98 C 295.48 189.25 301.18 188.56 306.05 191.12 C 306.01 232.75 306.05 274.39 306.03 316.03 C 306.28 320.17 301.97 323.37 298.05 323.01 C 293.86 322.93 289.34 323.63 285.47 321.61 C 281.21 319.14 278.61 314.76 276.32 310.56 C 265.07 289.51 253.82 268.47 242.54 247.44 C 237.13 237.17 231.44 227.05 226.49 216.55 C 225.65 214.68 224.64 212.89 223.29 211.35 C 223.79 244.89 223.39 278.46 223.53 312.01 C 223.55 315.35 223.60 318.71 223.15 322.02 C 218.56 323.51 213.64 323.23 208.91 322.87 C 206.91 322.71 205.39 321.04 205.78 318.99 C 205.74 278.31 205.79 237.63 205.76 196.95 C 205.25 193.26 208.42 190.01 212.00 189.86 C 217.00 189.43 222.08 189.53 227.06 190.17 C 232.54 191.43 235.28 196.84 237.77 201.35 C 253.36 231.06 269.67 260.39 284.69 290.40 C 285.77 292.57 286.79 294.82 288.43 296.65 C 287.91 261.83 288.35 227.00 288.19 192.18 C 288.88 191.44 289.56 190.71 290.25 189.98 Z" />
</svg>
