<?xml version="1.0" encoding="UTF-8" ?>
<!DOCTYPE svg PUBLIC "-//W3C//DTD SVG 1.1//EN" "http://www.w3.org/Graphics/SVG/1.1/DTD/svg11.dtd">
<svg width="512pt" height="512pt" viewBox="0 0 512 512" version="1.1" xmlns="http://www.w3.org/2000/svg">
<path fill="#3678c0" opacity="1.00" d=" M 0.00 0.00 L 512.00 0.00 L 512.00 512.00 L 0.00 512.00 L 0.00 0.00 Z" />
<path fill="#ffffff" opacity="1.00" d=" M 212.93 192.91 C 228.82 183.25 247.50 178.62 266.03 178.87 C 284.58 179.78 302.83 184.19 320.16 190.77 C 322.93 192.37 325.65 189.95 328.33 189.30 C 348.95 182.67 371.20 184.95 391.97 189.67 C 402.59 191.98 412.83 195.67 423.26 198.67 C 418.35 198.76 413.55 197.58 408.66 197.49 C 395.83 197.06 382.94 197.08 370.18 198.74 C 354.23 200.71 338.05 204.04 323.92 212.01 C 305.41 198.01 281.95 192.39 259.12 191.31 C 243.72 190.08 228.28 191.63 212.93 192.91 Z" />
<path fill="#ffffff" opacity="1.00" d=" M 258.43 300.65 C 293.73 288.21 333.19 293.83 366.60 309.37 C 352.44 307.49 338.12 308.90 324.09 311.12 C 304.61 314.38 285.44 320.01 267.68 328.72 C 256.81 334.24 246.38 340.93 237.80 349.66 C 219.93 334.61 197.07 326.13 173.88 324.37 C 145.95 321.82 118.07 327.53 91.28 334.98 C 97.66 326.80 106.62 321.10 116.03 317.00 C 136.48 308.23 158.93 305.18 181.05 304.83 C 199.10 305.33 217.87 307.00 234.13 315.52 C 240.61 308.34 249.49 303.95 258.43 300.65 Z" />
</svg>
