<?xml version="1.0" encoding="UTF-8" ?>
<!DOCTYPE svg PUBLIC "-//W3C//DTD SVG 1.1//EN" "http://www.w3.org/Graphics/SVG/1.1/DTD/svg11.dtd">
<svg width="512pt" height="512pt" viewBox="0 0 512 512" version="1.1" xmlns="http://www.w3.org/2000/svg">
<path fill="#ffbc00" opacity="1.00" d=" M 0.00 0.00 L 512.00 0.00 L 512.00 512.00 L 0.00 512.00 L 0.00 0.00 Z" />
<path fill="#ffffff" opacity="1.00" d=" M 112.92 148.78 C 167.74 138.76 222.58 128.84 277.43 118.99 C 277.45 210.10 277.42 301.20 277.45 392.31 C 224.00 382.60 170.53 372.97 117.08 363.28 C 115.70 362.97 114.18 362.97 112.97 362.18 C 113.20 311.13 113.00 260.07 113.07 209.02 C 112.97 188.94 113.26 168.85 112.92 148.78 Z" />
<path fill="#ffffff" opacity="1.00" d=" M 284.57 185.72 C 320.06 185.75 355.56 185.70 391.05 185.74 C 394.17 185.68 397.27 187.84 397.98 190.94 C 398.66 194.94 397.75 198.98 397.74 203.00 C 397.80 234.99 397.72 266.99 397.79 298.98 C 397.90 301.13 397.58 303.48 395.85 304.98 C 392.76 307.78 388.29 306.36 384.54 306.67 C 384.67 270.83 384.51 234.99 384.61 199.15 C 351.26 199.20 317.92 199.16 284.58 199.17 C 284.55 194.69 284.56 190.20 284.57 185.72 Z" />
<path fill="#ffffff" opacity="1.00" d=" M 284.56 203.67 C 311.38 203.68 338.21 203.69 365.04 203.67 C 368.12 203.71 371.41 203.32 374.27 204.76 C 376.23 205.69 377.52 207.51 378.96 209.07 C 355.99 226.67 333.28 244.61 310.16 262.00 C 301.75 255.43 293.14 249.13 284.59 242.74 C 284.52 229.72 284.59 216.69 284.56 203.67 Z" />
<path fill="#ffbc00" opacity="1.00" d=" M 187.21 209.31 C 194.42 208.15 202.01 207.79 209.03 210.17 C 221.79 213.94 231.15 225.35 234.85 237.82 C 237.51 246.29 237.56 255.28 237.04 264.05 C 235.90 276.93 230.20 289.86 219.66 297.73 C 213.16 302.68 205.03 304.95 196.95 305.16 C 192.01 304.50 186.91 304.76 182.21 302.86 C 168.18 298.25 158.12 285.17 155.22 270.95 C 152.93 258.53 153.39 245.25 158.32 233.49 C 163.35 221.43 174.16 211.64 187.21 209.31 Z" />
<path fill="#ffffff" opacity="1.00" d=" M 316.45 272.44 C 337.46 256.06 358.70 239.98 379.62 223.48 C 379.55 257.67 379.62 291.85 379.58 326.04 C 379.89 331.13 375.12 335.73 370.09 335.55 C 341.57 335.54 313.05 335.56 284.53 335.54 C 284.55 309.52 284.67 283.50 284.47 257.48 C 291.30 262.63 298.13 267.76 304.98 272.88 C 307.02 274.40 309.44 276.04 312.14 275.28 C 313.73 274.59 315.08 273.48 316.45 272.44 Z" />
<path fill="#ffffff" opacity="1.00" d=" M 190.30 227.35 C 196.18 225.85 202.78 227.54 207.03 231.93 C 212.70 237.34 214.46 245.47 215.13 252.99 C 215.52 261.55 215.02 270.80 210.08 278.14 C 206.73 283.48 200.41 287.09 194.04 286.54 C 186.63 286.76 179.94 281.75 176.75 275.30 C 172.01 266.03 171.90 255.01 174.07 245.02 C 176.08 237.02 181.58 228.71 190.30 227.35 Z" />
</svg>
