<?xml version="1.0" encoding="UTF-8" ?>
<!DOCTYPE svg PUBLIC "-//W3C//DTD SVG 1.1//EN" "http://www.w3.org/Graphics/SVG/1.1/DTD/svg11.dtd">
<svg width="512pt" height="512pt" viewBox="0 0 512 512" version="1.1" xmlns="http://www.w3.org/2000/svg">
<path fill="#f1c11e" opacity="1.00" d=" M 0.00 0.00 L 512.00 0.00 L 512.00 512.00 L 0.00 512.00 L 0.00 0.00 Z" />
<path fill="#ffffff" opacity="1.00" d=" M 133.99 139.10 C 138.16 135.23 143.91 134.17 149.20 132.70 C 154.45 132.27 159.75 132.46 165.01 132.58 C 174.08 134.29 183.10 137.00 190.86 142.16 C 199.36 147.01 206.43 153.89 212.70 161.31 C 222.81 173.75 226.04 189.88 229.96 205.01 C 233.62 225.02 237.56 244.99 241.71 264.90 C 244.43 284.01 247.86 303.21 254.87 321.28 C 257.37 325.82 260.20 330.47 264.40 333.64 C 271.00 337.29 278.94 338.05 286.21 336.16 C 297.65 334.82 308.33 329.01 320.04 329.67 C 326.29 329.59 332.77 332.53 336.27 337.81 C 338.24 341.48 339.24 346.22 336.97 349.99 C 334.36 354.40 329.71 357.25 324.87 358.65 C 317.04 361.26 308.94 362.93 300.93 364.88 C 286.54 368.83 272.60 374.28 258.22 378.28 C 249.35 380.94 240.05 380.05 230.94 380.15 C 220.80 379.75 211.66 374.79 203.02 369.92 C 190.83 362.61 182.01 350.83 175.79 338.25 C 171.49 327.26 167.23 316.21 164.01 304.85 C 160.62 290.55 154.54 277.10 150.89 262.88 C 147.69 252.73 144.53 242.55 141.86 232.24 C 139.16 218.85 134.85 205.88 130.96 192.80 C 129.48 185.81 127.51 178.90 126.54 171.81 C 126.24 171.64 125.63 171.31 125.32 171.15 C 125.45 165.29 125.30 159.43 125.45 153.58 C 127.70 148.46 129.47 142.76 133.99 139.10 Z" />
<path fill="#ffffff" opacity="1.00" d=" M 249.47 155.62 C 254.98 153.21 260.73 155.68 266.13 157.09 C 280.46 161.47 294.96 165.27 309.66 168.20 C 320.95 170.05 331.93 173.71 342.17 178.79 C 347.10 180.85 351.18 184.43 355.05 188.02 C 363.50 195.88 367.85 206.99 371.03 217.84 C 374.87 230.59 375.83 243.93 377.94 257.02 C 379.62 270.98 383.19 284.61 385.50 298.47 C 387.38 306.17 386.35 314.13 386.66 321.97 C 387.10 332.63 379.24 344.23 368.04 345.08 C 360.41 345.34 354.34 339.76 350.08 334.03 C 341.97 320.05 341.63 303.49 339.35 287.91 C 337.28 267.72 335.41 247.29 329.09 227.89 C 325.07 218.22 319.15 208.16 309.09 203.87 C 289.43 197.00 267.56 199.99 248.36 191.50 C 237.72 186.60 233.92 171.76 240.03 162.00 C 242.16 158.67 245.76 156.69 249.47 155.62 Z" />
</svg>
