<?xml version="1.0" encoding="UTF-8" ?>
<!DOCTYPE svg PUBLIC "-//W3C//DTD SVG 1.1//EN" "http://www.w3.org/Graphics/SVG/1.1/DTD/svg11.dtd">
<svg width="512pt" height="512pt" viewBox="0 0 512 512" version="1.1" xmlns="http://www.w3.org/2000/svg">
<path fill="#2e7237" opacity="1.00" d=" M 0.00 0.00 L 512.00 0.00 L 512.00 512.00 L 0.00 512.00 L 0.00 0.00 Z" />
<path fill="#ffffff" opacity="1.00" d=" M 111.47 146.83 C 167.19 136.88 222.89 126.70 278.58 116.52 C 278.57 209.58 278.58 302.64 278.57 395.70 C 222.87 385.51 167.14 375.45 111.43 365.34 C 111.48 292.50 111.40 219.67 111.47 146.83 Z" />
<path fill="#ffffff" opacity="1.00" d=" M 286.16 155.32 C 324.63 155.37 363.11 155.34 401.58 155.34 C 401.52 223.19 401.57 291.04 401.56 358.89 C 363.11 358.85 324.67 358.84 286.22 358.89 C 285.96 348.61 285.93 338.34 286.18 328.06 C 285.52 319.18 286.37 310.29 286.19 301.40 C 295.65 311.13 305.39 320.59 314.91 330.27 C 325.50 319.52 336.28 308.94 346.88 298.19 C 336.15 287.62 325.53 276.95 314.93 266.25 C 305.21 275.86 295.69 285.70 285.85 295.19 C 286.75 287.13 285.48 279.05 286.12 270.98 C 285.69 249.62 286.61 228.22 285.91 206.85 C 286.05 206.34 286.34 205.30 286.48 204.78 C 308.09 204.87 329.70 204.80 351.31 204.81 C 351.34 218.92 351.34 233.03 351.31 247.14 C 344.63 247.13 337.94 247.14 331.26 247.12 C 340.58 257.92 349.87 268.73 359.08 279.62 C 368.30 268.75 377.63 257.97 386.86 247.10 C 380.16 247.08 373.45 247.37 366.77 246.85 C 366.82 227.67 366.77 208.48 366.80 189.30 C 339.93 189.36 313.06 189.28 286.19 189.34 C 285.61 180.24 286.27 171.11 286.19 162.00 C 286.15 159.77 286.14 157.55 286.16 155.32 Z" />
<path fill="#2e7237" opacity="1.00" d=" M 171.28 216.49 C 180.50 215.18 189.77 214.23 198.99 212.93 C 207.26 211.87 216.51 212.24 223.42 217.47 C 229.71 222.21 232.10 230.37 232.46 237.94 C 232.94 245.12 231.53 252.53 227.77 258.73 C 222.90 266.77 214.29 272.31 205.04 273.75 C 199.61 274.77 194.07 274.30 188.59 274.40 C 188.66 284.77 188.57 295.14 188.64 305.51 C 182.84 305.18 177.06 304.72 171.27 304.26 C 171.39 275.00 171.36 245.74 171.28 216.49 Z" />
<path fill="#ffffff" opacity="1.00" d=" M 188.61 229.86 C 194.33 229.47 200.77 227.87 205.95 231.11 C 210.53 234.11 211.14 240.10 210.71 245.08 C 210.62 249.63 208.28 254.23 204.19 256.42 C 199.43 259.00 193.81 258.41 188.60 258.68 C 188.64 249.07 188.61 239.46 188.61 229.86 Z" />
</svg>
