<?xml version="1.0" encoding="UTF-8" ?>
<!DOCTYPE svg PUBLIC "-//W3C//DTD SVG 1.1//EN" "http://www.w3.org/Graphics/SVG/1.1/DTD/svg11.dtd">
<svg width="512pt" height="512pt" viewBox="0 0 512 512" version="1.1" xmlns="http://www.w3.org/2000/svg">
<path fill="#6da929" opacity="1.00" d=" M 0.00 0.00 L 512.00 0.00 L 512.00 512.00 L 0.00 512.00 L 0.00 0.00 Z" />
<path fill="#ffffff" opacity="1.00" d=" M 158.42 129.74 C 162.83 128.39 167.48 128.61 172.03 128.64 C 239.71 128.63 307.39 128.66 375.07 128.62 C 378.53 128.17 381.54 131.61 381.24 134.95 C 381.23 215.65 381.22 296.35 381.24 377.04 C 381.51 379.97 379.20 383.30 376.13 383.35 C 296.06 383.39 215.99 383.34 135.91 383.37 C 133.46 383.70 131.30 381.85 130.44 379.69 C 129.97 377.15 130.20 374.56 130.17 372.00 C 130.20 303.31 130.15 234.63 130.20 165.94 C 129.94 149.29 142.25 133.60 158.42 129.74 Z" />
<path fill="#6da929" opacity="1.00" d=" M 141.68 166.02 C 141.46 152.49 153.33 140.07 166.96 140.22 C 234.50 140.09 302.05 140.24 369.59 140.14 C 369.59 207.04 369.58 273.93 369.60 340.83 C 293.62 340.78 217.64 340.80 141.67 340.82 C 141.69 282.55 141.65 224.28 141.68 166.02 Z" />
<path fill="#ffffff" opacity="1.00" d=" M 216.87 190.92 C 219.01 188.77 222.29 189.07 225.07 188.87 C 235.05 188.96 245.04 188.60 255.01 189.28 C 266.01 189.45 277.50 192.56 285.61 200.36 C 293.16 207.33 296.69 217.85 296.49 227.98 C 296.76 239.44 292.75 251.28 284.31 259.26 C 275.71 267.48 263.62 271.01 251.95 271.39 C 245.47 271.42 239.00 271.38 232.52 271.40 C 232.45 287.71 232.75 304.04 232.38 320.33 C 229.91 323.32 225.45 322.31 222.03 322.53 C 219.48 322.41 215.07 322.47 214.82 319.07 C 214.75 278.38 214.85 237.68 214.77 196.99 C 214.72 194.81 215.11 192.40 216.87 190.92 Z" />
<path fill="#6da929" opacity="1.00" d=" M 232.54 203.64 C 242.03 203.87 251.70 202.88 261.02 205.12 C 269.05 207.12 275.33 214.00 277.03 222.04 C 278.71 230.32 277.72 239.58 272.65 246.55 C 268.07 252.84 260.32 256.17 252.71 256.63 C 245.99 256.94 239.26 256.74 232.54 256.81 C 232.54 239.09 232.54 221.36 232.54 203.64 Z" />
</svg>
