<?xml version="1.0" encoding="UTF-8" ?>
<!DOCTYPE svg PUBLIC "-//W3C//DTD SVG 1.1//EN" "http://www.w3.org/Graphics/SVG/1.1/DTD/svg11.dtd">
<svg width="512pt" height="512pt" viewBox="0 0 512 512" version="1.1" xmlns="http://www.w3.org/2000/svg">
<path fill="#04a693" opacity="1.00" d=" M 0.00 0.00 L 512.00 0.00 L 512.00 512.00 L 0.00 512.00 L 0.00 0.00 Z" />
<path fill="#ffffff" opacity="1.00" d=" M 170.12 127.66 C 176.87 125.63 183.92 125.03 190.94 125.12 C 258.34 125.12 325.75 125.09 393.16 125.13 C 393.14 212.15 393.15 299.16 393.15 386.17 C 301.49 386.19 209.83 386.17 118.17 386.18 C 118.20 327.78 118.17 269.38 118.18 210.98 C 118.40 201.01 117.38 190.87 119.77 181.08 C 125.03 155.79 145.22 134.44 170.12 127.66 Z" />
<path fill="#04a693" opacity="1.00" d=" M 188.59 133.90 C 192.71 133.44 196.86 133.47 201.01 133.44 C 260.37 133.48 319.73 133.41 379.09 133.48 C 382.07 133.19 384.65 136.02 384.30 138.96 C 384.30 216.99 384.30 295.02 384.30 373.05 C 384.58 375.99 381.92 378.66 378.98 378.33 C 296.65 378.32 214.31 378.35 131.98 378.31 C 129.27 378.38 126.96 375.71 127.28 373.04 C 127.27 318.69 127.28 264.34 127.28 209.99 C 127.31 203.99 127.05 197.95 128.06 192.01 C 130.46 175.91 138.92 160.84 151.29 150.28 C 161.65 141.16 174.90 135.49 188.59 133.90 Z" />
<path fill="#ffffff" opacity="1.00" d=" M 152.98 161.93 C 163.89 150.12 179.83 143.07 195.93 143.18 C 255.50 143.14 315.07 143.19 374.63 143.16 C 374.60 218.32 374.60 293.48 374.64 368.64 C 295.34 368.60 216.04 368.66 136.74 368.61 C 136.80 313.08 136.73 257.55 136.77 202.02 C 137.08 187.28 142.69 172.58 152.98 161.93 Z" />
<path fill="#04a693" opacity="1.00" d=" M 220.78 183.40 C 235.85 183.34 250.93 183.35 266.00 183.39 C 279.30 183.60 293.32 186.41 303.68 195.29 C 313.89 203.65 318.49 217.15 318.37 230.06 C 318.83 243.15 314.36 256.59 305.07 266.00 C 294.84 276.95 279.71 282.10 264.98 282.58 C 256.49 282.65 248.01 282.56 239.52 282.61 C 239.58 302.68 239.52 322.74 239.55 342.80 C 233.30 342.81 227.04 342.81 220.79 342.80 C 220.78 289.67 220.81 236.53 220.78 183.40 Z" />
<path fill="#ffffff" opacity="1.00" d=" M 239.53 200.55 C 250.96 200.91 262.52 199.64 273.84 201.57 C 282.22 203.02 290.70 207.32 294.84 215.08 C 299.34 223.57 299.66 233.88 297.19 243.04 C 294.70 252.44 286.92 259.89 277.76 262.85 C 265.46 267.06 252.26 265.24 239.52 265.61 C 239.56 243.92 239.55 222.24 239.53 200.55 Z" />
</svg>
