<?xml version="1.0" encoding="UTF-8" ?>
<!DOCTYPE svg PUBLIC "-//W3C//DTD SVG 1.1//EN" "http://www.w3.org/Graphics/SVG/1.1/DTD/svg11.dtd">
<svg width="512pt" height="512pt" viewBox="0 0 512 512" version="1.1" xmlns="http://www.w3.org/2000/svg">
<path fill="#0d9787" opacity="1.00" d=" M 0.00 0.00 L 512.00 0.00 L 512.00 512.00 L 0.00 512.00 L 0.00 0.00 Z" />
<path fill="#ffffff" opacity="1.00" d=" M 159.37 129.44 C 161.85 128.80 164.42 128.67 166.97 128.65 C 236.31 128.64 305.65 128.66 374.99 128.64 C 377.57 128.33 379.99 129.97 380.93 132.34 C 381.39 135.20 381.11 138.12 381.17 141.01 C 381.17 219.69 381.16 298.36 381.17 377.03 C 381.59 380.07 379.23 383.44 376.01 383.33 C 295.99 383.38 215.98 383.33 135.96 383.36 C 132.55 383.77 129.74 380.29 129.99 377.07 C 130.00 307.05 130.01 237.03 129.99 167.01 C 130.03 158.19 132.88 149.31 138.50 142.46 C 143.71 135.90 151.25 131.38 159.37 129.44 Z" />
<path fill="#0d9787" opacity="1.00" d=" M 161.98 140.88 C 166.57 139.82 171.30 140.08 175.97 140.07 C 232.99 140.07 290.01 140.07 347.03 140.07 C 354.54 140.19 362.07 139.82 369.57 140.26 C 369.31 207.15 369.76 274.06 369.35 340.95 C 293.56 340.80 217.77 340.89 141.97 340.90 C 141.88 283.27 141.96 225.63 141.93 168.00 C 140.66 155.60 149.83 143.36 161.98 140.88 Z" />
<path fill="#ffffff" opacity="1.00" d=" M 214.91 194.99 C 214.77 191.35 218.60 188.69 222.00 188.98 C 233.00 189.03 243.99 188.97 254.99 189.01 C 264.15 189.58 273.64 191.34 281.28 196.76 C 291.04 202.99 296.32 214.61 296.56 225.97 C 297.11 237.61 293.74 249.92 285.32 258.31 C 276.52 267.50 263.43 271.33 250.99 271.45 C 244.97 271.48 238.94 271.51 232.92 271.41 C 232.42 287.24 232.88 303.11 232.70 318.96 C 232.79 320.24 231.49 320.98 230.89 321.97 C 225.63 322.73 219.71 323.65 214.91 320.80 C 214.86 278.86 214.86 236.93 214.91 194.99 Z" />
<path fill="#0d9787" opacity="1.00" d=" M 232.49 256.90 C 232.43 239.12 232.46 221.34 232.48 203.57 C 241.51 203.76 250.66 202.95 259.58 204.68 C 267.03 206.10 273.45 211.54 276.10 218.64 C 278.98 226.91 278.45 236.53 274.24 244.26 C 270.14 251.76 261.75 256.02 253.44 256.67 C 246.46 257.10 239.47 256.88 232.49 256.90 Z" />
</svg>
