<?xml version="1.0" encoding="UTF-8" ?>
<!DOCTYPE svg PUBLIC "-//W3C//DTD SVG 1.1//EN" "http://www.w3.org/Graphics/SVG/1.1/DTD/svg11.dtd">
<svg width="512pt" height="512pt" viewBox="0 0 512 512" version="1.1" xmlns="http://www.w3.org/2000/svg">
<path fill="#dd5a04" opacity="1.00" d=" M 0.00 0.00 L 512.00 0.00 L 512.00 512.00 L 0.00 512.00 L 0.00 0.00 Z" />
<path fill="#ffffff" opacity="1.00" d=" M 161.33 129.37 C 163.53 128.92 165.77 128.80 168.00 128.79 C 237.01 128.80 306.02 128.80 375.03 128.79 C 378.31 128.47 381.22 131.71 380.83 134.94 C 380.82 215.64 380.82 296.34 380.83 377.05 C 381.25 380.31 378.35 383.61 375.01 383.21 C 295.30 383.19 215.60 383.20 135.89 383.21 C 132.74 383.34 130.09 380.07 130.41 377.02 C 130.45 309.69 130.42 242.35 130.43 175.02 C 130.52 168.65 129.88 162.12 131.91 155.97 C 135.60 142.43 147.54 131.75 161.33 129.37 Z" />
<path fill="#dd5a04" opacity="1.00" d=" M 142.83 157.79 C 146.25 147.22 156.87 139.61 168.01 139.87 C 235.25 139.81 302.49 139.85 369.73 139.85 C 369.71 206.98 369.90 274.12 369.64 341.24 C 293.60 341.15 217.57 341.22 141.54 341.21 C 141.41 284.15 141.52 227.08 141.48 170.02 C 141.39 165.90 141.46 161.71 142.83 157.79 Z" />
<path fill="#ffffff" opacity="1.00" d=" M 248.42 188.71 C 261.09 186.45 274.76 188.54 285.80 195.24 C 289.93 197.65 289.16 203.03 289.10 207.08 C 288.93 208.96 288.69 212.19 286.07 211.99 C 283.51 211.74 281.51 209.85 279.27 208.77 C 271.66 204.38 262.80 201.87 253.98 202.95 C 248.25 203.56 242.43 206.23 239.22 211.18 C 235.22 217.61 235.49 226.72 240.52 232.53 C 245.85 238.98 253.73 242.39 261.14 245.84 C 269.54 249.81 278.29 253.51 285.38 259.69 C 292.58 265.93 297.06 275.37 296.63 284.97 C 297.07 295.18 293.11 305.58 285.61 312.58 C 278.03 320.04 267.38 323.43 256.99 324.34 C 243.73 325.22 229.77 322.81 218.58 315.34 C 215.44 313.36 214.93 309.42 215.12 306.04 C 215.31 303.52 214.66 300.43 216.72 298.52 C 218.65 297.54 220.69 298.70 222.31 299.74 C 231.14 305.36 241.36 309.44 251.98 309.24 C 259.47 309.40 267.41 307.28 272.76 301.79 C 279.49 294.57 280.30 281.99 273.30 274.66 C 267.26 268.10 258.65 264.97 250.79 261.21 C 240.81 256.58 230.26 251.46 223.91 242.06 C 217.33 232.67 216.84 219.97 220.60 209.40 C 224.89 197.77 236.57 190.55 248.42 188.71 Z" />
</svg>
