<?xml version="1.0" encoding="UTF-8" ?>
<!DOCTYPE svg PUBLIC "-//W3C//DTD SVG 1.1//EN" "http://www.w3.org/Graphics/SVG/1.1/DTD/svg11.dtd">
<svg width="512pt" height="512pt" viewBox="0 0 512 512" version="1.1" xmlns="http://www.w3.org/2000/svg">
<path fill="#0070c0" opacity="1.00" d=" M 0.00 0.00 L 512.00 0.00 L 512.00 512.00 L 0.00 512.00 L 0.00 0.00 Z" />
<path fill="#ffffff" opacity="1.00" d=" M 137.06 144.93 C 143.97 135.01 155.87 128.43 168.07 128.89 C 237.06 128.92 306.05 128.90 375.04 128.91 C 378.38 128.40 381.14 131.76 380.99 134.91 C 381.01 215.63 381.00 296.36 381.00 377.08 C 381.16 380.25 378.44 383.67 375.05 383.10 C 294.60 383.09 214.16 383.07 133.71 383.11 C 132.00 381.48 130.05 379.61 130.34 377.01 C 130.34 307.01 130.34 237.00 130.34 167.00 C 130.25 159.18 132.66 151.39 137.06 144.93 Z" />
<path fill="#0070c0" opacity="1.00" d=" M 141.38 165.99 C 141.10 154.39 149.70 143.43 160.89 140.61 C 166.16 139.31 171.62 139.74 176.99 139.69 C 241.28 139.68 305.56 139.69 369.84 139.68 C 369.87 206.90 369.89 274.13 369.83 341.35 C 293.69 341.34 217.54 341.32 141.39 341.36 C 141.36 282.91 141.38 224.45 141.38 165.99 Z" />
<path fill="#ffffff" opacity="1.00" d=" M 199.18 190.75 C 202.84 188.88 207.04 189.40 211.00 189.36 C 213.07 189.48 215.61 189.14 217.10 190.96 C 218.45 193.12 219.05 195.65 219.89 198.04 C 231.55 232.44 243.32 266.79 254.95 301.19 C 255.34 302.10 255.94 302.88 256.75 303.52 C 268.96 266.71 281.19 229.90 293.36 193.07 C 293.84 191.55 294.73 189.98 296.45 189.69 C 300.29 189.14 304.20 189.30 308.06 189.49 C 309.32 189.44 310.46 190.04 311.30 190.97 C 311.34 194.43 309.70 197.61 308.66 200.83 C 294.89 240.07 281.12 279.30 267.38 318.54 C 266.78 320.21 265.82 322.13 263.87 322.43 C 258.34 323.33 252.62 323.34 247.10 322.43 C 244.81 322.11 243.73 319.90 243.12 317.93 C 228.90 277.42 214.66 236.92 200.41 196.42 C 199.79 194.58 199.47 192.66 199.18 190.75 Z" />
</svg>
