<?xml version="1.0" encoding="UTF-8" ?>
<!DOCTYPE svg PUBLIC "-//W3C//DTD SVG 1.1//EN" "http://www.w3.org/Graphics/SVG/1.1/DTD/svg11.dtd">
<svg width="512pt" height="512pt" viewBox="0 0 512 512" version="1.1" xmlns="http://www.w3.org/2000/svg">
<path fill="#2a52bd" opacity="1.00" d=" M 0.00 0.00 L 512.00 0.00 L 512.00 512.00 L 0.00 512.00 L 0.00 0.00 Z" />
<path fill="#ffffff" opacity="1.00" d=" M 139.26 146.27 C 152.39 132.83 171.15 124.96 189.97 125.37 C 257.58 125.31 325.19 125.41 392.80 125.32 C 392.72 212.16 392.73 299.00 392.79 385.84 C 301.32 385.80 209.85 385.81 118.39 385.84 C 118.50 322.89 118.40 259.94 118.43 196.99 C 118.07 178.20 125.85 159.41 139.26 146.27 Z" />
<path fill="#2a52bd" opacity="1.00" d=" M 193.27 133.42 C 255.19 133.17 317.12 133.36 379.04 133.32 C 382.13 132.98 384.92 135.98 384.46 139.04 C 384.44 217.02 384.46 295.01 384.45 372.99 C 384.85 376.00 382.02 378.92 378.98 378.46 C 296.64 378.44 214.30 378.46 131.96 378.45 C 129.15 378.57 126.75 375.81 127.14 373.04 C 127.15 318.33 127.14 263.63 127.14 208.93 C 127.17 202.98 126.93 196.99 128.02 191.11 C 130.62 175.07 139.22 160.17 151.64 149.72 C 163.18 139.88 178.08 133.92 193.27 133.42 Z" />
<path fill="#ffffff" opacity="1.00" d=" M 150.71 164.74 C 161.65 151.36 178.71 143.32 195.98 143.26 C 255.47 143.22 314.95 143.29 374.44 143.23 C 374.46 218.31 374.42 293.39 374.46 368.47 C 295.27 368.42 216.09 368.49 136.90 368.44 C 136.93 313.29 136.89 258.14 136.92 202.99 C 137.05 189.17 141.72 175.32 150.71 164.74 Z" />
<path fill="#2a52bd" opacity="1.00" d=" M 191.96 179.60 C 199.27 179.48 206.58 179.55 213.90 179.57 C 227.87 221.76 242.06 263.88 256.10 306.05 C 270.26 263.88 284.23 221.63 298.48 179.49 C 305.43 179.62 312.39 179.49 319.34 179.57 C 301.85 230.46 284.23 281.32 266.83 332.25 C 259.42 332.36 252.00 332.22 244.59 332.33 C 226.99 281.44 209.53 230.50 191.96 179.60 Z" />
</svg>
