<?xml version="1.0" encoding="UTF-8" ?>
<!DOCTYPE svg PUBLIC "-//W3C//DTD SVG 1.1//EN" "http://www.w3.org/Graphics/SVG/1.1/DTD/svg11.dtd">
<svg width="512pt" height="512pt" viewBox="0 0 512 512" version="1.1" xmlns="http://www.w3.org/2000/svg">
<path fill="#0e5171" opacity="1.00" d=" M 0.00 0.00 L 512.00 0.00 L 512.00 512.00 L 0.00 512.00 L 0.00 0.00 Z" />
<path fill="#ffffff" opacity="1.00" d=" M 159.42 129.42 C 162.22 128.72 165.12 128.68 167.99 128.65 C 237.00 128.65 306.01 128.65 375.02 128.65 C 377.57 128.38 380.04 129.93 380.92 132.34 C 381.35 135.20 381.10 138.12 381.15 141.00 C 381.14 219.67 381.14 298.35 381.15 377.02 C 381.70 380.53 378.61 383.94 375.01 383.36 C 295.31 383.34 215.61 383.36 135.91 383.35 C 132.52 383.73 129.74 380.28 129.99 377.07 C 130.01 306.71 129.99 236.34 130.00 165.98 C 130.24 158.22 132.61 150.44 137.23 144.15 C 142.42 136.66 150.61 131.52 159.42 129.42 Z" />
<path fill="#0e5171" opacity="1.00" d=" M 143.21 157.22 C 146.81 147.02 157.21 139.76 168.05 140.06 C 235.25 140.03 302.45 140.01 369.66 140.07 C 369.70 206.99 369.63 273.92 369.69 340.85 C 293.69 341.05 217.69 340.85 141.69 340.95 C 141.63 284.31 141.70 227.66 141.66 171.02 C 141.64 166.39 141.50 161.61 143.21 157.22 Z" />
<path fill="#ffffff" opacity="1.00" d=" M 168.58 191.22 C 169.33 189.45 171.44 189.37 173.06 189.25 C 176.78 189.18 180.54 188.96 184.23 189.51 C 185.94 189.79 186.98 191.37 187.23 192.98 C 196.92 229.45 206.88 265.85 216.45 302.35 C 217.41 301.91 217.95 301.15 218.06 300.07 C 227.01 264.70 236.07 229.36 245.06 194.01 C 245.40 191.97 246.55 189.84 248.82 189.56 C 253.17 189.02 257.68 188.89 262.01 189.67 C 265.26 190.49 265.32 194.36 266.20 196.97 C 275.93 232.47 285.57 267.99 295.46 303.45 C 296.63 301.01 297.18 298.34 297.85 295.74 C 306.77 261.76 315.74 227.79 324.64 193.80 C 324.96 191.77 326.18 189.53 328.50 189.46 C 332.86 189.20 337.56 188.53 341.74 190.14 C 343.52 191.95 342.26 194.66 341.90 196.80 C 330.24 237.50 318.59 278.21 306.85 318.90 C 306.20 321.97 302.78 322.85 300.07 322.97 C 295.70 323.12 291.28 323.30 286.94 322.71 C 284.78 322.49 282.79 321.04 282.39 318.84 C 273.04 285.49 263.97 252.06 254.55 218.74 C 245.48 252.25 237.37 286.04 228.51 319.62 C 227.87 321.94 225.27 322.75 223.14 322.91 C 219.07 323.20 214.99 323.14 210.92 322.97 C 208.52 322.79 205.29 322.34 204.48 319.62 C 192.99 279.68 181.62 239.70 170.17 199.74 C 169.43 196.96 168.29 194.15 168.58 191.22 Z" />
</svg>
