<?xml version="1.0" encoding="UTF-8" ?>
<!DOCTYPE svg PUBLIC "-//W3C//DTD SVG 1.1//EN" "http://www.w3.org/Graphics/SVG/1.1/DTD/svg11.dtd">
<svg width="512pt" height="512pt" viewBox="0 0 512 512" version="1.1" xmlns="http://www.w3.org/2000/svg">
<path fill="#2564a9" opacity="1.00" d=" M 0.00 0.00 L 512.00 0.00 L 512.00 512.00 L 0.00 512.00 L 0.00 0.00 Z" />
<path fill="#ffffff" opacity="1.00" d=" M 127.57 165.54 C 134.18 160.47 142.83 158.66 151.03 159.26 C 166.98 160.78 182.63 168.86 191.72 182.30 C 198.14 191.61 198.88 203.25 201.33 213.98 C 207.24 239.49 213.23 264.98 219.16 290.49 C 221.07 298.37 223.00 307.08 229.41 312.63 C 236.34 318.77 246.27 319.00 255.01 318.30 C 264.02 317.33 273.01 316.03 281.95 314.58 C 275.89 309.25 272.47 301.67 269.84 294.21 C 265.34 280.81 263.33 266.78 260.56 252.97 C 258.33 242.51 256.57 231.95 254.18 221.52 C 252.59 214.13 250.38 206.54 251.76 198.94 C 252.98 192.54 258.28 187.51 264.41 185.73 C 275.82 182.19 290.01 186.08 296.46 196.55 C 300.22 202.27 302.16 208.94 303.82 215.51 C 306.51 227.16 307.86 239.07 310.08 250.81 C 312.20 262.46 312.92 274.39 316.23 285.80 C 318.27 292.74 321.92 299.94 328.71 303.26 C 335.63 306.84 343.78 304.46 350.95 307.10 C 357.69 309.43 357.74 320.44 351.56 323.48 C 345.55 326.76 338.58 327.32 332.01 328.84 C 302.28 335.57 272.65 342.74 242.89 349.32 C 232.03 351.43 221.01 353.57 209.90 352.56 C 200.74 351.29 191.48 349.25 183.44 344.48 C 167.75 335.71 154.86 321.56 148.72 304.56 C 142.30 287.32 139.51 269.05 134.81 251.32 C 131.78 240.18 128.96 228.98 125.93 217.83 C 123.27 208.24 119.52 198.87 118.44 188.91 C 117.60 180.30 120.60 170.98 127.57 165.54 Z" />
<path fill="#ffffff" opacity="1.00" d=" M 354.39 202.56 C 360.16 201.86 366.37 202.44 371.30 205.76 C 377.20 209.64 380.14 216.48 381.94 223.05 C 384.96 234.52 385.58 246.42 387.47 258.09 C 389.19 269.47 392.48 280.60 393.52 292.09 C 393.88 298.48 393.89 305.53 389.84 310.89 C 384.64 318.07 373.57 319.84 366.45 314.49 C 361.70 311.15 359.39 305.54 357.93 300.13 C 355.39 290.44 354.41 280.44 353.16 270.52 C 350.64 251.27 344.40 232.49 344.49 212.93 C 346.28 208.47 349.27 203.51 354.39 202.56 Z" />
</svg>
