<?xml version="1.0" encoding="UTF-8" ?>
<!DOCTYPE svg PUBLIC "-//W3C//DTD SVG 1.1//EN" "http://www.w3.org/Graphics/SVG/1.1/DTD/svg11.dtd">
<svg width="512pt" height="512pt" viewBox="0 0 512 512" version="1.1" xmlns="http://www.w3.org/2000/svg">
<path fill="#2b5796" opacity="1.00" d=" M 0.00 0.00 L 512.00 0.00 L 512.00 512.00 L 0.00 512.00 L 0.00 0.00 Z" />
<path fill="#ffffff" opacity="1.00" d=" M 116.34 151.41 C 169.68 141.65 223.06 132.08 276.41 122.32 C 276.39 211.18 276.42 300.03 276.39 388.88 C 223.05 379.20 169.70 369.56 116.36 359.85 C 116.39 290.37 116.43 220.89 116.34 151.41 Z" />
<path fill="#ffffff" opacity="1.00" d=" M 284.31 180.85 C 284.38 172.12 284.25 163.40 284.38 154.67 C 321.44 154.72 358.50 154.73 395.56 154.66 C 395.67 221.93 395.59 289.19 395.60 356.46 C 358.49 356.35 321.37 356.53 284.26 356.36 C 284.40 347.00 284.33 337.64 284.29 328.28 C 313.01 328.23 341.72 328.25 370.44 328.27 C 370.44 324.07 370.44 319.86 370.45 315.67 C 341.73 315.68 313.01 315.68 284.30 315.67 C 284.34 310.91 284.34 306.16 284.31 301.40 C 313.03 301.43 341.74 301.39 370.45 301.42 C 370.43 297.20 370.45 292.97 370.42 288.75 C 341.71 288.79 313.00 288.77 284.29 288.76 C 284.37 283.69 284.29 278.61 284.35 273.54 C 313.05 273.61 341.76 273.55 370.46 273.57 C 370.42 269.42 370.44 265.27 370.44 261.12 C 341.79 261.25 313.14 261.03 284.50 261.23 C 284.16 256.39 284.33 251.52 284.40 246.68 C 313.06 246.82 341.73 246.61 370.40 246.78 C 370.48 242.63 370.40 238.49 370.49 234.34 C 341.80 234.33 313.11 234.26 284.42 234.38 C 284.30 229.84 284.20 225.30 284.48 220.76 C 313.13 220.93 341.79 220.75 370.44 220.85 C 370.44 216.71 370.43 212.56 370.46 208.42 C 341.76 208.47 313.06 208.37 284.36 208.46 C 284.28 203.47 284.38 198.47 284.29 193.47 C 313.01 193.51 341.73 193.45 370.45 193.50 C 370.43 189.28 370.45 185.05 370.42 180.83 C 341.71 180.87 313.01 180.84 284.31 180.85 Z" />
<path fill="#2b5796" opacity="1.00" d=" M 231.56 206.39 C 238.02 206.31 244.43 205.36 250.91 205.41 C 248.19 218.61 245.20 231.75 242.13 244.88 C 237.54 265.05 233.39 285.34 228.46 305.43 C 221.58 305.23 214.71 304.72 207.84 304.39 C 203.89 283.03 198.69 261.89 194.64 240.54 C 194.34 237.69 194.28 234.82 193.60 232.02 C 193.73 239.12 191.50 246.01 190.19 252.94 C 186.46 269.80 182.99 286.71 179.31 303.58 C 172.81 303.37 166.32 302.76 159.81 302.80 C 153.73 272.30 147.22 241.89 141.17 211.38 C 147.15 211.17 153.10 210.24 159.10 210.53 C 162.20 234.17 167.64 257.51 170.12 281.23 C 171.00 274.41 172.55 267.71 174.01 261.00 C 178.10 243.61 181.41 226.04 185.62 208.70 C 191.85 208.41 198.15 208.77 204.31 207.63 C 207.62 222.71 210.40 237.91 213.52 253.03 C 215.31 262.72 217.94 272.27 218.79 282.11 C 219.83 274.72 220.81 267.32 222.25 259.99 C 225.34 242.12 228.19 224.21 231.56 206.39 Z" />
</svg>
