<?xml version="1.0" encoding="UTF-8" ?>
<!DOCTYPE svg PUBLIC "-//W3C//DTD SVG 1.1//EN" "http://www.w3.org/Graphics/SVG/1.1/DTD/svg11.dtd">
<svg width="512pt" height="512pt" viewBox="0 0 512 512" version="1.1" xmlns="http://www.w3.org/2000/svg">
<path fill="#bc2030" opacity="1.00" d=" M 0.00 0.00 L 512.00 0.00 L 512.00 512.00 L 0.00 512.00 L 0.00 0.00 Z" />
<path fill="#ffffff" opacity="1.00" d=" M 241.44 121.80 C 257.75 120.60 274.37 121.10 290.21 125.51 C 321.06 133.52 348.67 153.03 366.73 179.26 C 380.19 198.58 388.23 221.51 390.24 244.94 C 392.25 268.61 387.56 292.77 377.34 314.19 C 365.31 339.29 345.28 360.46 320.90 373.88 C 299.66 385.64 275.19 391.42 250.94 390.67 C 230.81 389.68 210.79 384.60 192.98 375.07 C 167.50 361.69 146.54 339.92 134.19 313.93 C 125.81 296.22 120.92 276.63 121.34 256.98 C 120.45 229.08 129.53 201.21 145.50 178.42 C 167.39 146.93 203.27 125.70 241.44 121.80 Z" />
<path fill="#bc2030" opacity="1.00" d=" M 216.87 168.80 C 238.34 159.12 263.46 157.82 285.79 165.30 C 289.43 166.45 292.90 168.08 296.55 169.20 C 291.61 170.62 286.52 171.62 281.78 173.67 C 265.25 180.50 249.19 188.42 232.42 194.64 C 218.70 199.66 204.76 204.49 192.40 212.45 C 183.26 217.73 176.83 226.32 170.49 234.52 C 166.11 241.67 162.85 249.49 160.71 257.60 C 159.95 244.84 162.72 232.00 167.37 220.16 C 176.45 197.52 194.58 178.70 216.87 168.80 Z" />
<path fill="#bc2030" opacity="1.00" d=" M 301.10 171.66 C 317.94 181.24 332.28 195.40 340.95 212.83 C 351.29 233.15 353.98 257.25 348.25 279.32 C 343.10 300.04 330.61 318.78 313.63 331.68 C 311.54 333.20 309.57 334.96 307.17 335.97 C 305.15 335.18 303.43 333.68 301.33 333.12 C 290.51 337.35 279.71 342.41 267.99 343.46 C 264.39 343.72 260.72 344.71 257.15 343.72 C 248.97 341.71 240.43 340.19 233.03 335.97 C 228.48 332.64 223.54 329.48 220.42 324.63 C 214.63 316.35 210.04 306.27 211.47 295.94 C 212.10 287.44 216.66 279.44 223.00 273.91 C 230.53 269.00 238.84 265.40 246.94 261.55 C 250.57 272.16 255.52 282.60 255.86 294.02 C 255.83 302.49 255.68 311.18 252.48 319.16 C 253.54 321.84 257.51 323.16 259.26 320.46 C 264.13 312.35 267.45 303.41 272.13 295.19 C 275.29 289.59 276.58 283.22 277.94 276.99 C 279.78 267.69 281.61 257.90 278.55 248.63 C 284.77 246.28 291.30 243.96 296.08 239.11 C 304.38 231.44 309.84 220.38 309.61 208.96 C 308.76 202.23 307.97 195.50 306.60 188.85 C 305.38 182.98 305.09 176.47 301.10 171.66 Z" />
</svg>
