<?xml version="1.0" encoding="UTF-8" ?>
<!DOCTYPE svg PUBLIC "-//W3C//DTD SVG 1.1//EN" "http://www.w3.org/Graphics/SVG/1.1/DTD/svg11.dtd">
<svg width="512pt" height="512pt" viewBox="0 0 512 512" version="1.1" xmlns="http://www.w3.org/2000/svg">
<path fill="#d94343" opacity="1.00" d=" M 0.00 0.00 L 512.00 0.00 L 512.00 512.00 L 0.00 512.00 L 0.00 0.00 Z" />
<path fill="#ffffff" opacity="1.00" d=" M 201.23 125.23 C 220.05 117.37 240.59 113.58 260.99 114.38 C 291.71 115.32 322.02 126.70 345.75 146.26 C 358.37 156.69 369.37 169.17 377.71 183.29 C 379.35 186.22 381.52 188.97 382.09 192.37 C 339.04 192.35 295.99 192.32 252.94 192.39 C 221.20 192.91 192.92 221.17 192.41 252.92 C 176.65 224.74 159.94 197.09 143.99 169.02 C 159.00 149.94 178.75 134.51 201.23 125.23 Z" />
<path fill="#ffffff" opacity="1.00" d=" M 115.25 273.23 C 111.17 240.32 119.19 206.24 137.16 178.41 C 157.07 212.62 176.93 246.85 196.83 281.07 C 200.16 286.71 203.19 292.60 207.61 297.49 C 217.34 308.84 231.10 316.72 245.89 319.02 C 258.98 320.88 272.65 319.14 284.51 313.12 C 267.91 340.48 252.03 368.30 235.79 395.89 C 226.11 395.26 216.68 392.42 207.56 389.25 C 178.05 378.67 152.43 357.81 135.82 331.26 C 124.73 313.77 117.87 293.74 115.25 273.23 Z" />
<path fill="#ffffff" opacity="1.00" d=" M 290.99 202.67 C 323.12 202.65 355.24 202.73 387.36 202.63 C 400.16 234.08 401.18 270.14 390.01 302.21 C 381.12 328.56 363.99 351.94 341.91 368.78 C 315.09 389.44 280.67 399.64 246.93 397.49 C 265.98 365.30 284.78 332.98 303.72 300.73 C 309.17 291.24 315.59 282.01 318.02 271.16 C 320.98 257.97 320.27 243.70 314.79 231.24 C 309.93 219.63 301.46 209.63 290.99 202.67 Z" />
<path fill="#ffffff" opacity="1.00" d=" M 245.35 204.62 C 258.60 201.84 272.91 204.41 284.30 211.75 C 295.88 219.16 304.51 231.25 307.24 244.78 C 310.24 258.18 307.70 272.76 300.25 284.30 C 292.65 296.20 280.09 304.94 266.16 307.46 C 253.33 310.07 239.54 307.60 228.41 300.70 C 216.48 293.34 207.56 281.05 204.77 267.26 C 201.76 253.86 204.29 239.27 211.74 227.72 C 219.25 215.95 231.60 207.28 245.35 204.62 Z" />
</svg>
