<?xml version="1.0" encoding="UTF-8" ?>
<!DOCTYPE svg PUBLIC "-//W3C//DTD SVG 1.1//EN" "http://www.w3.org/Graphics/SVG/1.1/DTD/svg11.dtd">
<svg width="512pt" height="512pt" viewBox="0 0 512 512" version="1.1" xmlns="http://www.w3.org/2000/svg">
<path fill="#2b82ee" opacity="1.00" d=" M 0.00 0.00 L 512.00 0.00 L 512.00 512.00 L 0.00 512.00 L 0.00 0.00 Z" />
<path fill="#ffffff" opacity="1.00" d=" M 274.47 132.48 C 291.20 125.23 308.77 119.56 326.93 117.39 C 338.30 115.68 350.35 116.44 360.94 121.20 C 370.62 126.10 376.02 136.65 378.08 146.92 C 380.47 162.18 377.31 177.67 372.10 192.01 C 371.67 193.10 371.08 194.09 370.34 195.00 C 377.93 208.32 383.01 223.03 385.38 238.16 C 387.08 248.93 386.89 259.90 386.13 270.74 C 328.54 270.85 270.95 270.85 213.36 270.75 C 212.55 284.23 218.54 297.55 227.81 307.15 C 239.20 319.20 256.55 325.21 272.96 322.87 C 289.61 320.82 304.83 310.16 312.68 295.35 C 335.24 295.16 357.80 295.30 380.37 295.28 C 368.22 334.17 334.55 365.10 295.25 375.25 C 268.19 382.41 238.68 380.15 213.14 368.60 C 211.46 367.97 209.96 366.61 208.13 366.56 C 190.62 374.90 171.68 381.91 152.02 381.62 C 141.29 380.95 130.19 377.41 122.64 369.41 C 117.59 363.88 115.58 356.36 114.72 349.09 C 113.52 336.70 115.11 324.20 118.05 312.16 C 122.72 292.32 130.90 273.48 140.56 255.61 C 141.01 251.42 141.18 247.21 141.53 243.02 C 144.46 215.27 157.16 188.66 177.01 169.02 C 200.75 145.24 234.49 131.93 268.08 133.31 C 270.25 133.47 272.49 133.55 274.47 132.48 Z" />
<path fill="#2b82ee" opacity="1.00" d=" M 321.66 136.65 C 332.78 133.09 344.89 130.40 356.45 133.37 C 365.03 135.43 371.55 142.93 373.19 151.49 C 375.39 164.36 372.14 177.38 367.63 189.39 C 368.56 191.00 369.48 192.62 370.30 194.29 C 369.61 193.49 368.98 192.65 368.42 191.77 C 354.56 169.39 333.45 151.40 308.86 141.91 C 312.81 139.47 317.35 138.28 321.66 136.65 Z" />
<path fill="#2b82ee" opacity="1.00" d=" M 230.13 203.11 C 241.81 192.46 258.76 187.96 274.19 191.43 C 295.66 195.73 313.16 215.24 314.44 237.21 C 280.73 237.28 247.03 237.24 213.32 237.23 C 214.05 224.21 220.51 211.81 230.13 203.11 Z" />
<path fill="#2b82ee" opacity="1.00" d=" M 147.30 298.19 C 147.52 298.19 147.96 298.18 148.18 298.17 C 158.27 326.60 179.25 351.13 206.11 364.95 C 204.18 364.17 202.46 362.63 200.38 362.38 C 186.77 368.51 172.04 373.73 156.90 372.66 C 148.69 372.16 140.39 367.97 136.54 360.46 C 131.85 351.33 132.79 340.54 134.92 330.83 C 137.49 319.44 141.97 308.55 147.30 298.19 Z" />
</svg>
