<?xml version="1.0" encoding="UTF-8" ?>
<!DOCTYPE svg PUBLIC "-//W3C//DTD SVG 1.1//EN" "http://www.w3.org/Graphics/SVG/1.1/DTD/svg11.dtd">
<svg width="512pt" height="512pt" viewBox="0 0 512 512" version="1.1" xmlns="http://www.w3.org/2000/svg">
<path fill="#e81616" opacity="1.00" d=" M 0.00 0.00 L 512.00 0.00 L 512.00 512.00 L 0.00 512.00 L 0.00 0.00 Z" />
<path fill="#ffffff" opacity="1.00" d=" M 246.09 121.08 C 268.50 118.97 291.73 123.38 311.20 134.87 C 331.18 146.59 347.20 164.31 358.86 184.17 C 372.64 207.86 376.92 235.85 376.18 262.93 C 375.47 286.85 370.21 311.07 357.65 331.68 C 344.69 352.98 326.56 371.83 303.86 382.67 C 270.69 398.12 229.55 396.16 198.56 376.42 C 188.80 370.13 179.87 362.50 172.31 353.67 C 160.74 340.82 151.31 325.90 145.52 309.57 C 137.71 288.03 136.29 264.73 137.68 242.03 C 138.76 230.78 140.42 219.50 144.02 208.75 C 149.87 189.79 160.69 172.64 174.09 158.11 C 192.48 137.52 218.35 123.24 246.09 121.08 Z" />
<path fill="#e81616" opacity="1.00" d=" M 243.65 139.90 C 257.02 137.22 272.37 137.70 283.59 146.36 C 292.95 153.60 296.84 165.40 299.13 176.56 C 304.36 203.38 304.60 230.81 304.84 258.03 C 304.69 268.34 304.52 278.64 304.34 288.95 C 302.99 308.60 302.21 328.60 296.43 347.58 C 293.38 357.84 286.57 367.41 276.50 371.71 C 266.28 375.98 254.67 376.20 243.94 373.94 C 233.82 371.80 225.00 364.89 220.38 355.65 C 213.91 342.41 212.55 327.50 210.79 313.07 C 208.45 286.48 208.02 259.74 208.83 233.05 C 209.59 213.94 210.58 194.71 214.46 175.92 C 216.76 165.35 220.49 154.31 229.08 147.15 C 233.29 143.66 238.33 141.15 243.65 139.90 Z" />
</svg>
