<?xml version="1.0" encoding="UTF-8" ?>
<!DOCTYPE svg PUBLIC "-//W3C//DTD SVG 1.1//EN" "http://www.w3.org/Graphics/SVG/1.1/DTD/svg11.dtd">
<svg width="512pt" height="512pt" viewBox="0 0 512 512" version="1.1" xmlns="http://www.w3.org/2000/svg">
<path fill="#e81919" opacity="1.00" d=" M 0.00 0.00 L 512.00 0.00 L 512.00 512.00 L 0.00 512.00 L 0.00 0.00 Z" />
<path fill="#ffffff" opacity="1.00" d=" M 248.25 121.24 C 256.37 120.36 264.54 121.31 272.63 121.97 C 299.34 125.00 325.29 136.47 344.43 155.52 C 364.61 175.27 376.76 202.30 380.67 230.08 C 384.26 251.28 383.01 273.14 377.76 293.95 C 370.19 323.06 353.53 350.08 329.49 368.39 C 320.65 374.30 311.51 379.86 301.60 383.80 C 279.70 392.59 255.22 395.03 232.06 390.39 C 213.61 387.08 196.42 378.64 181.28 367.78 C 157.78 349.44 141.62 322.66 134.22 293.95 C 128.53 271.60 127.73 248.05 132.08 225.39 C 136.72 197.38 150.02 170.35 171.38 151.35 C 192.24 132.39 220.26 122.21 248.25 121.24 Z" />
<path fill="#e81919" opacity="1.00" d=" M 251.26 150.23 C 262.02 148.99 273.48 152.04 281.49 159.53 C 290.41 167.72 294.98 179.44 297.94 190.92 C 304.58 219.14 303.71 248.31 303.29 277.09 C 302.28 293.67 300.99 310.45 296.18 326.46 C 292.69 337.29 287.56 348.24 278.33 355.35 C 267.25 363.80 251.35 364.97 238.86 359.06 C 230.54 355.08 224.54 347.54 220.53 339.42 C 213.32 324.67 211.25 308.14 209.62 291.99 C 208.03 267.07 207.97 241.97 209.66 217.05 C 211.47 199.94 213.69 182.03 223.09 167.18 C 229.07 157.47 239.79 150.73 251.26 150.23 Z" />
</svg>
