<?xml version="1.0" encoding="UTF-8" ?>
<!DOCTYPE svg PUBLIC "-//W3C//DTD SVG 1.1//EN" "http://www.w3.org/Graphics/SVG/1.1/DTD/svg11.dtd">
<svg width="512pt" height="512pt" viewBox="0 0 512 512" version="1.1" xmlns="http://www.w3.org/2000/svg">
<path fill="#215a8e" opacity="1.00" d=" M 0.00 0.00 L 512.00 0.00 L 512.00 512.00 L 0.00 512.00 L 0.00 0.00 Z" />
<path fill="#ffffff" opacity="1.00" d=" M 231.85 130.48 C 248.08 127.46 264.88 127.53 281.08 130.72 C 268.59 140.51 256.29 150.54 243.99 160.57 C 235.26 157.08 224.83 160.53 219.75 168.40 C 201.77 167.24 183.77 166.21 165.77 165.35 C 183.81 147.64 206.97 135.13 231.85 130.48 Z" />
<path fill="#ffffff" opacity="1.00" d=" M 254.58 170.20 C 268.97 158.46 283.49 146.86 297.95 135.20 C 321.99 143.74 343.30 159.50 358.58 179.93 C 351.26 197.97 344.71 216.34 337.15 234.27 C 310.19 215.83 283.08 197.59 256.14 179.11 C 256.20 176.04 254.99 173.13 254.58 170.20 Z" />
<path fill="#ffffff" opacity="1.00" d=" M 128.59 265.18 C 126.23 234.66 135.43 203.50 153.88 179.09 C 165.25 179.09 176.56 180.46 187.92 180.67 C 197.65 181.55 207.43 181.51 217.16 182.42 C 217.78 185.75 219.28 188.80 221.34 191.47 C 208.63 220.46 196.19 249.57 183.56 278.60 C 182.63 280.60 182.03 282.80 180.73 284.61 C 178.15 285.72 175.26 286.25 173.04 288.10 C 171.96 288.65 170.85 290.38 169.51 289.46 C 155.84 281.41 142.22 273.28 128.59 265.18 Z" />
<path fill="#ffffff" opacity="1.00" d=" M 233.77 198.39 C 239.99 199.21 246.30 196.96 250.73 192.55 C 277.73 211.12 304.95 229.39 332.00 247.89 C 317.29 265.28 302.49 282.60 287.85 300.05 C 283.38 298.64 278.53 297.72 273.96 299.22 C 266.15 301.39 260.36 308.71 259.66 316.74 C 240.98 313.39 222.40 309.43 203.71 306.13 C 204.57 298.97 201.00 291.79 195.08 287.80 C 207.92 257.97 220.83 228.17 233.77 198.39 Z" />
<path fill="#ffffff" opacity="1.00" d=" M 348.12 246.20 C 354.45 228.92 361.47 211.86 367.97 194.64 C 378.66 214.55 384.28 237.21 383.37 259.83 C 375.83 266.08 368.66 272.78 360.97 278.84 C 356.73 267.95 352.00 257.21 348.12 246.20 Z" />
<path fill="#ffffff" opacity="1.00" d=" M 302.00 305.10 C 314.38 290.70 326.51 276.09 338.92 261.71 C 341.72 269.49 345.19 277.01 347.92 284.82 C 332.24 291.98 316.68 299.44 301.05 306.70 C 301.29 306.30 301.76 305.50 302.00 305.10 Z" />
<path fill="#ffffff" opacity="1.00" d=" M 364.59 292.72 C 371.30 290.17 375.85 284.42 381.48 280.25 C 378.65 291.55 375.66 303.03 369.86 313.22 C 368.20 306.37 366.61 299.48 364.59 292.72 Z" />
<path fill="#ffffff" opacity="1.00" d=" M 131.06 283.13 C 142.16 289.73 153.23 296.39 164.40 302.90 C 163.96 312.22 170.61 320.80 179.53 323.19 C 181.27 336.28 183.29 349.34 184.88 362.45 C 157.74 344.08 137.83 315.27 131.06 283.13 Z" />
<path fill="#ffffff" opacity="1.00" d=" M 299.87 322.91 C 317.13 314.89 334.30 306.67 351.62 298.78 C 354.20 308.87 356.77 318.96 359.29 329.07 C 360.10 330.55 358.60 331.75 357.92 332.89 C 343.68 351.74 324.22 366.67 302.15 375.17 C 269.69 387.93 231.96 386.52 200.59 371.26 C 200.12 367.50 199.40 363.76 199.09 359.98 C 221.32 350.86 243.37 341.26 265.63 332.21 C 269.25 335.53 273.97 337.85 278.97 337.68 C 286.18 338.12 293.16 333.80 296.60 327.57 C 297.58 325.94 297.75 323.52 299.87 322.91 Z" />
<path fill="#ffffff" opacity="1.00" d=" M 193.56 321.19 C 194.67 320.50 195.78 319.82 196.90 319.14 C 211.01 322.14 225.31 324.28 239.34 327.63 C 225.25 333.79 210.97 339.51 196.86 345.62 C 196.03 337.44 194.66 329.33 193.56 321.19 Z" />
</svg>
