<?xml version="1.0" encoding="UTF-8" ?>
<!DOCTYPE svg PUBLIC "-//W3C//DTD SVG 1.1//EN" "http://www.w3.org/Graphics/SVG/1.1/DTD/svg11.dtd">
<svg width="512pt" height="512pt" viewBox="0 0 512 512" version="1.1" xmlns="http://www.w3.org/2000/svg">
<path fill="#00a9ec" opacity="1.00" d=" M 0.00 0.00 L 512.00 0.00 L 512.00 512.00 L 0.00 512.00 L 0.00 0.00 Z" />
<path fill="#ffffff" opacity="1.00" d=" M 252.97 138.75 C 253.51 136.26 253.15 133.31 255.16 131.39 C 261.68 153.71 268.09 176.07 274.69 198.36 C 281.92 200.57 289.19 203.13 295.32 207.70 C 296.67 208.42 298.22 210.31 299.81 208.98 C 323.13 194.71 346.04 179.76 369.22 165.25 C 379.38 158.95 389.17 151.97 399.73 146.37 C 396.63 151.26 391.82 154.73 388.16 159.17 C 364.97 184.33 341.34 209.09 318.16 234.25 C 318.22 236.11 318.98 237.86 319.50 239.63 C 339.30 243.49 359.31 246.17 379.13 249.95 C 381.66 250.41 384.24 250.63 386.81 250.91 C 386.80 251.43 386.79 252.47 386.78 252.98 C 364.93 258.76 343.42 265.79 321.67 271.92 C 319.71 279.09 317.21 286.20 313.03 292.41 C 318.78 300.44 324.93 308.19 330.98 316.00 C 331.92 317.27 332.58 318.71 333.22 320.16 C 322.12 316.60 312.13 310.32 301.31 306.03 C 295.26 311.32 288.14 315.34 280.54 317.94 C 277.36 333.24 274.86 348.68 271.88 364.02 C 270.84 369.84 269.49 375.62 269.06 381.53 C 268.38 381.52 267.72 381.51 267.05 381.50 C 262.59 365.72 257.20 350.21 252.34 334.55 C 250.83 329.59 249.23 324.67 247.41 319.82 C 239.80 318.02 232.48 315.03 226.04 310.57 C 189.92 333.59 153.51 356.17 117.49 379.35 C 116.11 380.02 114.68 380.57 113.21 381.01 C 114.84 376.98 118.68 374.64 121.50 371.54 C 149.32 342.96 176.89 314.13 204.47 285.33 C 203.51 283.13 202.64 280.89 201.86 278.63 C 190.87 277.59 180.11 274.95 169.21 273.30 C 159.40 271.80 149.71 269.67 139.88 268.29 C 137.05 267.77 133.98 267.72 131.58 265.93 C 134.96 264.62 138.47 263.66 141.95 262.64 C 161.41 257.01 180.77 251.05 200.18 245.24 C 201.91 236.80 205.95 229.13 210.67 222.02 C 204.76 212.02 197.67 202.73 191.94 192.61 C 202.63 197.67 212.56 204.18 223.01 209.69 C 229.04 205.00 236.05 201.89 243.17 199.23 C 246.11 179.02 249.87 158.94 252.97 138.75 Z" />
<path fill="#00a9ec" opacity="1.00" d=" M 230.94 210.00 C 243.15 202.82 258.12 199.75 272.02 203.07 C 279.96 204.59 287.48 207.95 294.01 212.68 C 278.49 222.64 262.85 232.43 247.32 242.38 C 243.89 244.52 240.75 247.10 238.10 250.15 C 228.17 260.95 217.72 271.26 207.74 282.01 C 202.29 269.41 201.67 254.86 205.74 241.78 C 209.94 228.60 219.11 217.13 230.94 210.00 Z" />
<path fill="#00a9ec" opacity="1.00" d=" M 312.89 239.60 C 313.26 239.46 313.99 239.18 314.36 239.03 C 319.91 254.23 319.10 271.86 311.21 286.10 C 305.06 297.81 294.79 307.38 282.46 312.29 C 265.68 319.58 245.59 317.75 230.11 308.11 C 241.62 300.95 253.07 293.71 264.53 286.47 C 269.74 283.14 275.34 280.19 279.52 275.52 C 290.53 263.45 301.95 251.74 312.89 239.60 Z" />
</svg>
