<?xml version="1.0" encoding="UTF-8" ?>
<!DOCTYPE svg PUBLIC "-//W3C//DTD SVG 1.1//EN" "http://www.w3.org/Graphics/SVG/1.1/DTD/svg11.dtd">
<svg width="512pt" height="512pt" viewBox="0 0 512 512" version="1.1" xmlns="http://www.w3.org/2000/svg">
<path fill="#3089e3" opacity="1.00" d=" M 0.00 0.00 L 512.00 0.00 L 512.00 512.00 L 0.00 512.00 L 0.00 0.00 Z" />
<path fill="#ffffff" opacity="1.00" d=" M 205.65 135.71 C 222.21 129.00 240.18 125.80 258.04 126.45 C 292.87 127.06 326.95 143.01 350.20 168.86 C 368.09 188.45 379.78 213.67 382.92 240.03 C 383.62 244.87 383.97 249.77 383.57 254.65 C 381.19 251.45 379.67 247.74 377.62 244.33 C 369.84 230.96 359.95 218.74 348.02 208.86 C 333.75 196.87 316.81 188.30 298.98 183.02 C 270.23 174.57 239.69 173.81 210.09 177.42 C 191.89 179.47 173.92 183.32 156.31 188.33 C 151.15 189.73 146.16 191.74 140.95 192.97 C 155.08 167.21 178.42 146.68 205.65 135.71 Z" />
<path fill="#ffffff" opacity="1.00" d=" M 135.15 201.30 C 175.60 187.52 218.56 179.36 261.39 182.41 C 285.33 184.29 309.32 190.39 330.03 202.85 C 358.51 219.71 378.48 248.81 387.32 280.38 C 383.39 277.44 380.14 273.68 376.04 270.96 C 356.15 256.57 331.28 250.53 306.99 250.53 C 287.61 251.07 268.38 254.84 250.06 261.13 C 213.47 273.64 180.21 294.21 149.43 317.32 C 146.77 319.12 144.57 321.87 141.25 322.44 C 143.96 318.20 147.47 314.55 150.43 310.50 C 161.77 295.48 172.26 279.52 178.88 261.81 C 182.45 251.74 185.17 240.54 181.93 230.01 C 179.69 221.95 173.31 215.65 165.95 212.01 C 153.60 206.02 139.59 204.84 126.06 205.33 C 128.48 202.88 132.04 202.42 135.15 201.30 Z" />
<path fill="#ffffff" opacity="1.00" d=" M 125.93 236.62 C 127.26 227.66 129.77 218.90 132.99 210.45 C 143.69 210.48 154.70 212.58 163.98 218.09 C 171.96 222.78 177.64 231.51 177.66 240.89 C 178.22 249.92 175.52 258.75 172.01 266.96 C 164.08 285.06 152.03 300.90 139.74 316.22 C 126.13 292.29 122.07 263.69 125.93 236.62 Z" />
<path fill="#ffffff" opacity="1.00" d=" M 231.83 274.59 C 261.30 262.04 293.65 253.51 325.86 257.58 C 346.17 260.09 365.81 268.46 381.37 281.80 C 375.30 310.52 359.39 337.05 336.66 355.67 C 316.94 372.00 292.27 382.33 266.75 384.63 C 258.85 384.90 250.95 384.80 243.05 384.70 C 203.99 381.89 167.27 359.54 145.85 326.90 C 172.10 305.88 200.97 288.00 231.83 274.59 Z" />
</svg>
