<?xml version="1.0" encoding="UTF-8" ?>
<!DOCTYPE svg PUBLIC "-//W3C//DTD SVG 1.1//EN" "http://www.w3.org/Graphics/SVG/1.1/DTD/svg11.dtd">
<svg width="512pt" height="512pt" viewBox="0 0 512 512" version="1.1" xmlns="http://www.w3.org/2000/svg">
<path fill="#0072bc" opacity="1.00" d=" M 0.00 0.00 L 512.00 0.00 L 512.00 512.00 L 0.00 512.00 L 0.00 0.00 Z" />
<path fill="#ffffff" opacity="1.00" d=" M 134.65 141.63 C 141.04 141.60 147.43 141.59 153.82 141.64 C 153.80 142.43 153.75 144.03 153.73 144.83 C 147.38 144.80 141.02 144.84 134.67 144.80 C 134.66 144.00 134.65 142.42 134.65 141.63 Z" />
<path fill="#ffffff" opacity="1.00" d=" M 162.31 141.61 C 238.29 141.62 314.27 141.59 390.26 141.63 C 390.18 189.16 390.28 236.68 390.21 284.21 C 387.92 276.10 381.78 269.80 376.56 263.38 C 374.45 261.84 372.33 260.29 370.75 258.17 C 370.90 225.62 370.72 193.06 370.84 160.50 C 307.79 160.49 244.74 160.50 181.69 160.50 C 181.73 203.72 181.67 246.94 181.72 290.17 C 210.61 290.19 239.50 290.15 268.38 290.19 C 266.38 296.25 265.13 302.59 265.62 309.00 C 264.60 325.89 272.01 342.45 283.28 354.77 C 289.18 360.78 296.33 365.48 303.66 369.61 C 264.81 369.61 225.96 369.63 187.11 369.59 C 187.21 363.47 187.16 357.36 187.14 351.24 C 209.83 351.23 232.51 351.25 255.19 351.23 C 255.24 337.28 255.10 323.32 255.26 309.37 C 224.33 309.20 193.40 309.34 162.48 309.30 C 162.48 275.90 162.44 242.50 162.49 209.10 C 166.03 208.65 169.27 205.77 169.22 202.03 C 169.32 185.35 169.20 168.67 169.28 151.99 C 169.48 149.11 168.31 145.84 165.58 144.53 C 164.39 143.63 161.58 143.89 162.31 141.61 Z" />
<path fill="#ffffff" opacity="1.00" d=" M 125.32 146.44 C 137.54 146.11 149.79 146.37 162.02 146.31 C 164.56 146.06 166.77 148.49 166.45 150.99 C 166.46 168.03 166.51 185.07 166.42 202.11 C 166.54 204.38 164.32 206.36 162.11 206.28 C 150.35 206.35 138.59 206.30 126.83 206.30 C 124.48 206.45 121.99 204.53 122.24 202.03 C 122.17 185.01 122.22 167.98 122.22 150.96 C 121.96 148.95 123.30 146.82 125.32 146.44 Z" />
<path fill="#0072bc" opacity="1.00" d=" M 126.17 150.46 C 127.72 149.96 129.33 149.68 130.96 149.78 C 140.30 149.85 149.65 149.80 158.99 149.79 C 160.22 149.80 161.39 150.07 162.51 150.60 C 162.37 167.88 162.44 185.16 162.47 202.43 C 150.44 203.02 138.35 202.65 126.30 202.62 C 126.07 185.23 126.33 167.85 126.17 150.46 Z" />
<path fill="#ffffff" opacity="1.00" d=" M 133.16 167.75 C 140.60 167.76 148.05 167.75 155.49 167.75 C 155.49 177.11 155.49 186.46 155.49 195.82 C 148.04 195.79 140.59 195.82 133.14 195.81 C 133.18 186.45 133.15 177.10 133.16 167.75 Z" />
<path fill="#ffffff" opacity="1.00" d=" M 134.70 208.87 C 141.03 208.86 147.36 208.87 153.70 208.86 C 153.82 262.44 153.65 316.02 153.78 369.59 C 147.40 369.62 141.03 369.63 134.65 369.58 C 134.74 316.01 134.65 262.44 134.70 208.87 Z" />
<path fill="#ffffff" opacity="1.00" d=" M 288.94 266.90 C 299.04 256.88 312.93 250.84 327.12 250.05 C 351.61 248.31 376.39 263.42 385.79 286.18 C 388.99 293.68 390.85 301.84 390.31 310.02 C 390.82 322.96 385.78 335.42 378.66 346.00 C 378.43 338.86 372.27 332.22 364.81 333.35 C 376.25 317.04 373.52 292.69 358.68 279.41 C 349.10 270.27 334.91 266.57 322.02 269.31 C 312.16 271.28 303.24 277.19 297.26 285.24 C 289.91 295.43 287.52 308.96 290.89 321.06 C 293.69 330.38 299.38 339.04 307.68 344.32 C 321.36 353.69 340.57 353.34 354.18 344.00 C 352.95 351.42 359.88 357.35 366.80 357.79 C 359.87 362.88 351.96 366.62 343.54 368.45 C 337.16 370.17 330.50 369.50 323.98 369.52 C 307.60 367.70 292.07 358.86 282.36 345.50 C 274.88 335.60 270.94 323.28 270.47 310.93 C 270.26 294.56 277.13 278.24 288.94 266.90 Z" />
<path fill="#ffffff" opacity="1.00" d=" M 300.40 290.34 C 320.65 289.96 340.94 290.25 361.21 290.20 C 364.20 296.12 366.95 302.52 366.37 309.32 C 343.32 309.27 320.27 309.31 297.22 309.30 C 297.24 313.90 297.26 318.51 297.27 323.12 C 295.09 319.40 295.24 315.07 294.39 310.99 C 294.04 309.37 294.49 307.77 295.07 306.28 C 295.21 300.66 297.05 294.83 300.40 290.34 Z" />
<path fill="#ffffff" opacity="1.00" d=" M 357.06 369.61 C 359.80 367.77 363.13 366.91 365.58 364.62 C 365.54 366.27 365.53 367.94 365.52 369.60 C 362.70 369.61 359.88 369.63 357.06 369.61 Z" />
</svg>
