<?xml version="1.0" encoding="UTF-8" ?>
<!DOCTYPE svg PUBLIC "-//W3C//DTD SVG 1.1//EN" "http://www.w3.org/Graphics/SVG/1.1/DTD/svg11.dtd">
<svg width="512pt" height="512pt" viewBox="0 0 512 512" version="1.1" xmlns="http://www.w3.org/2000/svg">
<path fill="#0072bc" opacity="1.00" d=" M 0.00 0.00 L 512.00 0.00 L 512.00 512.00 L 0.00 512.00 L 0.00 0.00 Z" />
<path fill="#ffffff" opacity="1.00" d=" M 134.57 141.63 C 140.94 141.57 147.32 141.68 153.70 141.56 C 153.73 142.64 153.76 143.73 153.78 144.82 C 147.44 144.59 140.98 145.25 134.70 144.51 C 134.67 143.79 134.60 142.35 134.57 141.63 Z" />
<path fill="#ffffff" opacity="1.00" d=" M 162.27 141.62 C 238.26 141.61 314.26 141.59 390.25 141.63 C 390.25 188.93 390.14 236.22 390.31 283.52 C 388.86 280.93 387.55 278.26 386.15 275.65 C 383.62 271.35 380.03 267.83 377.03 263.88 C 374.73 261.49 370.26 259.99 370.78 255.98 C 370.86 224.15 370.74 192.33 370.84 160.51 C 307.79 160.48 244.74 160.50 181.69 160.50 C 181.73 203.72 181.67 246.95 181.72 290.17 C 210.54 290.18 239.36 290.17 268.18 290.17 C 264.83 298.76 265.66 308.02 265.61 317.02 C 267.82 337.54 280.54 356.46 298.52 366.47 C 300.54 367.41 302.57 368.34 304.45 369.57 C 265.34 369.66 226.22 369.61 187.11 369.59 C 187.21 363.47 187.16 357.35 187.15 351.24 C 209.83 351.23 232.51 351.24 255.19 351.23 C 255.20 337.25 255.18 323.28 255.20 309.30 C 224.29 309.30 193.38 309.29 162.47 309.30 C 162.47 275.92 162.45 242.54 162.49 209.16 C 165.99 208.59 169.27 205.82 169.22 202.04 C 169.30 185.02 169.24 167.99 169.24 150.96 C 169.50 146.88 166.01 144.20 162.49 143.13 L 162.27 141.62 Z" />
<path fill="#ffffff" opacity="1.00" d=" M 125.35 146.43 C 137.26 146.08 149.20 146.42 161.12 146.27 C 163.94 145.79 166.86 148.05 166.45 151.04 C 166.46 168.04 166.50 185.05 166.43 202.06 C 166.56 204.36 164.33 206.37 162.08 206.27 C 150.35 206.36 138.62 206.30 126.90 206.30 C 124.52 206.47 121.98 204.55 122.25 202.02 C 122.17 185.00 122.22 167.97 122.22 150.95 C 121.97 148.93 123.32 146.78 125.35 146.43 Z" />
<path fill="#0072bc" opacity="1.00" d=" M 126.18 150.41 C 129.39 149.45 132.76 149.87 136.06 149.81 C 142.38 149.80 148.69 149.83 155.01 149.80 C 157.53 149.80 160.13 149.53 162.51 150.56 C 162.36 167.86 162.45 185.16 162.46 202.46 C 150.43 202.98 138.35 202.66 126.31 202.62 C 126.07 185.22 126.32 167.81 126.18 150.41 Z" />
<path fill="#ffffff" opacity="1.00" d=" M 133.16 167.75 C 140.60 167.76 148.05 167.76 155.49 167.75 C 155.49 177.11 155.49 186.47 155.49 195.83 C 148.04 195.79 140.59 195.82 133.14 195.81 C 133.17 186.45 133.15 177.10 133.16 167.75 Z" />
<path fill="#ffffff" opacity="1.00" d=" M 134.70 208.88 C 141.04 208.87 147.38 208.84 153.71 208.89 C 153.79 262.46 153.67 316.03 153.78 369.59 C 147.40 369.62 141.03 369.63 134.65 369.58 C 134.74 316.01 134.65 262.44 134.70 208.88 Z" />
<path fill="#ffffff" opacity="1.00" d=" M 275.39 286.21 C 283.35 267.18 301.73 253.13 322.15 250.33 C 320.35 252.56 318.58 255.01 318.37 257.97 C 317.78 262.25 320.02 266.29 323.05 269.14 C 309.07 271.21 296.71 281.66 291.99 294.95 C 285.56 311.26 290.94 331.40 304.83 342.16 C 314.05 349.55 326.52 352.56 338.11 350.35 C 358.44 347.02 374.23 326.50 371.50 305.94 C 370.27 287.98 355.82 271.74 337.91 269.13 C 343.61 264.52 344.19 255.32 338.74 250.29 C 356.40 252.93 372.98 263.49 382.05 278.99 C 387.37 288.02 390.61 298.47 390.34 309.01 C 390.68 326.78 382.44 344.49 368.70 355.74 C 353.55 369.00 331.25 373.11 312.22 366.85 C 297.13 362.15 284.19 351.11 277.05 337.02 C 268.97 321.46 268.07 302.23 275.39 286.21 Z" />
<path fill="#ffffff" opacity="1.00" d=" M 300.22 290.13 C 320.34 290.22 340.46 290.16 360.58 290.16 C 363.04 293.20 364.23 296.95 365.51 300.59 C 365.61 303.52 366.45 306.37 366.45 309.32 C 343.37 309.27 320.30 309.31 297.22 309.30 C 297.22 313.70 297.35 318.11 297.14 322.52 C 292.33 312.17 294.20 299.62 300.22 290.13 Z" />
<path fill="#ffffff" opacity="1.00" d=" M 356.40 369.56 C 359.61 368.31 362.41 366.25 365.59 364.92 C 365.56 366.47 365.53 368.03 365.51 369.60 C 362.47 369.61 359.43 369.68 356.40 369.56 Z" />
</svg>
