<?xml version="1.0" encoding="UTF-8" ?>
<!DOCTYPE svg PUBLIC "-//W3C//DTD SVG 1.1//EN" "http://www.w3.org/Graphics/SVG/1.1/DTD/svg11.dtd">
<svg width="512pt" height="512pt" viewBox="0 0 512 512" version="1.1" xmlns="http://www.w3.org/2000/svg">
<path fill="#00a651" opacity="1.00" d=" M 0.00 0.00 L 512.00 0.00 L 512.00 512.00 L 0.00 512.00 L 0.00 0.00 Z" />
<path fill="#ffffff" opacity="1.00" d=" M 134.65 141.63 C 141.04 141.61 147.43 141.60 153.82 141.63 C 153.80 142.43 153.75 144.03 153.73 144.83 C 147.38 144.80 141.02 144.83 134.67 144.80 C 134.66 144.01 134.65 142.42 134.65 141.63 Z" />
<path fill="#ffffff" opacity="1.00" d=" M 162.08 141.67 C 238.14 141.55 314.20 141.63 390.25 141.63 C 390.20 197.51 390.24 253.40 390.24 309.28 C 359.23 309.31 328.22 309.29 297.22 309.30 C 297.28 323.28 297.24 337.26 297.24 351.24 C 319.99 351.22 342.75 351.25 365.50 351.22 C 365.51 357.35 365.46 363.48 365.54 369.61 C 306.06 369.61 246.59 369.63 187.11 369.60 C 187.20 363.48 187.16 357.35 187.15 351.23 C 209.83 351.23 232.51 351.24 255.19 351.23 C 255.21 337.26 255.16 323.30 255.22 309.33 C 224.30 309.26 193.39 309.31 162.47 309.30 C 162.48 275.93 162.45 242.56 162.49 209.19 C 165.96 208.52 169.29 205.86 169.21 202.04 C 169.32 185.37 169.20 168.69 169.27 152.02 C 169.47 149.10 168.32 145.76 165.45 144.54 C 164.23 143.70 162.17 143.56 162.08 141.67 Z" />
<path fill="#ffffff" opacity="1.00" d=" M 125.28 146.45 C 137.17 146.05 149.11 146.44 161.01 146.27 C 163.85 145.78 166.85 147.96 166.44 151.01 C 166.46 168.03 166.51 185.05 166.42 202.07 C 166.57 204.92 163.51 206.69 160.95 206.32 C 149.60 206.29 138.24 206.35 126.89 206.29 C 124.54 206.47 122.03 204.59 122.26 202.09 C 122.16 185.05 122.22 168.00 122.22 150.95 C 122.00 148.96 123.26 146.83 125.28 146.45 Z" />
<path fill="#00a651" opacity="1.00" d=" M 126.18 150.36 C 133.73 149.19 141.41 150.09 149.02 149.81 C 153.51 149.97 158.10 149.29 162.50 150.45 C 162.36 167.80 162.48 185.16 162.44 202.51 C 150.41 202.93 138.36 202.66 126.32 202.65 C 126.05 185.22 126.33 167.79 126.18 150.36 Z" />
<path fill="#00a651" opacity="1.00" d=" M 181.69 160.49 C 244.74 160.49 307.79 160.49 370.83 160.50 C 370.73 203.72 370.88 246.95 370.76 290.17 C 307.75 290.17 244.73 290.17 181.72 290.18 C 181.67 246.95 181.73 203.72 181.69 160.49 Z" />
<path fill="#ffffff" opacity="1.00" d=" M 133.16 167.74 C 140.60 167.76 148.05 167.76 155.49 167.75 C 155.49 177.11 155.49 186.46 155.50 195.82 C 148.04 195.79 140.59 195.81 133.14 195.81 C 133.17 186.46 133.15 177.10 133.16 167.74 Z" />
<path fill="#ffffff" opacity="1.00" d=" M 134.64 209.08 C 141.00 208.67 147.37 208.91 153.73 208.91 C 153.77 262.47 153.68 316.04 153.78 369.60 C 147.40 369.62 141.03 369.63 134.66 369.59 C 134.69 316.09 134.73 262.58 134.64 209.08 Z" />
</svg>
