<?xml version="1.0" encoding="UTF-8" ?>
<!DOCTYPE svg PUBLIC "-//W3C//DTD SVG 1.1//EN" "http://www.w3.org/Graphics/SVG/1.1/DTD/svg11.dtd">
<svg width="512pt" height="512pt" viewBox="0 0 512 512" version="1.1" xmlns="http://www.w3.org/2000/svg">
<path fill="#0072bc" opacity="1.00" d=" M 0.00 0.00 L 512.00 0.00 L 512.00 512.00 L 0.00 512.00 L 0.00 0.00 Z" />
<path fill="#ffffff" opacity="1.00" d=" M 134.65 141.62 C 141.04 141.61 147.43 141.60 153.82 141.63 C 153.80 142.43 153.76 144.03 153.73 144.83 C 147.38 144.80 141.03 144.83 134.67 144.81 C 134.67 144.01 134.65 142.42 134.65 141.62 Z" />
<path fill="#ffffff" opacity="1.00" d=" M 161.67 142.73 C 162.99 141.85 164.43 141.47 166.01 141.59 C 240.76 141.65 315.50 141.58 390.25 141.62 C 390.27 188.62 390.12 235.62 390.33 282.61 C 385.30 273.47 379.21 264.64 370.74 258.36 C 370.90 225.74 370.72 193.12 370.83 160.50 C 307.79 160.49 244.74 160.50 181.69 160.49 C 181.73 203.72 181.68 246.95 181.71 290.17 C 210.59 290.18 239.47 290.16 268.35 290.18 C 266.81 295.32 265.34 300.61 265.59 306.03 C 265.76 311.33 265.11 316.72 266.30 321.94 C 269.03 335.57 276.17 348.15 286.19 357.74 C 291.57 362.33 297.42 366.35 303.70 369.60 C 264.84 369.62 225.98 369.62 187.12 369.60 C 187.20 363.48 187.17 357.36 187.15 351.23 C 209.83 351.24 232.51 351.24 255.19 351.24 C 255.19 337.25 255.18 323.27 255.20 309.29 C 224.29 309.31 193.38 309.28 162.47 309.31 C 162.46 275.98 162.48 242.65 162.46 209.33 C 165.87 208.37 169.35 205.92 169.20 201.97 C 169.31 184.97 169.25 167.96 169.23 150.96 C 169.56 146.45 165.35 143.99 161.67 142.73 Z" />
<path fill="#ffffff" opacity="1.00" d=" M 125.28 146.46 C 137.17 146.03 149.11 146.44 161.01 146.27 C 163.84 145.80 166.83 147.94 166.44 151.00 C 166.46 168.01 166.52 185.02 166.41 202.03 C 166.60 204.91 163.54 206.65 160.97 206.31 C 149.62 206.29 138.26 206.36 126.90 206.28 C 124.53 206.47 122.01 204.58 122.26 202.05 C 122.15 185.03 122.22 168.00 122.23 150.98 C 122.01 148.99 123.23 146.83 125.28 146.46 Z" />
<path fill="#0072bc" opacity="1.00" d=" M 126.23 150.29 C 133.44 149.35 140.74 149.99 148.00 149.81 C 152.82 149.86 157.68 149.49 162.46 150.35 C 162.40 167.75 162.48 185.15 162.42 202.56 C 150.39 202.87 138.35 202.69 126.31 202.65 C 126.10 185.20 126.26 167.74 126.23 150.29 Z" />
<path fill="#ffffff" opacity="1.00" d=" M 133.15 167.75 C 140.60 167.76 148.05 167.76 155.49 167.75 C 155.49 177.11 155.49 186.46 155.49 195.82 C 148.04 195.79 140.59 195.81 133.14 195.81 C 133.17 186.46 133.15 177.10 133.15 167.75 Z" />
<path fill="#ffffff" opacity="1.00" d=" M 134.68 208.94 C 141.03 208.81 147.38 208.86 153.73 208.90 C 153.77 262.46 153.68 316.03 153.77 369.60 C 147.40 369.61 141.03 369.62 134.66 369.59 C 134.71 316.04 134.68 262.49 134.68 208.94 Z" />
<path fill="#ffffff" opacity="1.00" d=" M 289.86 265.90 C 303.08 253.48 322.21 247.55 340.12 250.62 C 352.91 252.59 364.72 259.10 373.94 268.09 C 382.90 277.58 389.00 289.95 390.27 303.00 C 390.37 309.98 390.73 317.10 388.88 323.91 C 385.03 340.15 373.95 354.34 359.47 362.51 C 352.96 366.24 345.64 368.12 338.37 369.70 C 340.60 366.94 342.91 363.76 342.53 360.00 C 342.88 356.29 340.57 353.22 338.22 350.65 C 350.15 348.30 360.99 340.69 366.83 329.98 C 373.21 318.95 373.49 304.99 368.53 293.38 C 362.92 279.48 348.89 269.48 333.96 268.53 C 317.47 266.93 300.42 276.40 293.56 291.54 C 288.05 302.66 287.92 316.38 293.33 327.56 C 298.66 339.58 310.20 348.14 322.99 350.68 C 320.38 353.43 318.15 356.95 318.56 360.92 C 318.74 364.33 320.87 367.10 322.92 369.65 C 308.66 367.31 294.98 360.53 285.50 349.49 C 275.95 338.69 270.59 324.41 270.44 310.02 C 270.41 293.47 277.73 277.12 289.86 265.90 Z" />
<path fill="#ffffff" opacity="1.00" d=" M 300.35 290.37 C 320.59 289.90 340.88 290.30 361.15 290.18 C 364.41 296.05 366.91 302.46 366.47 309.31 C 343.38 309.28 320.30 309.31 297.21 309.29 C 297.26 313.71 297.33 318.13 297.10 322.55 C 296.34 320.87 295.74 319.15 295.17 317.42 C 295.12 316.53 295.03 314.75 294.99 313.86 C 293.68 309.80 294.97 305.61 295.31 301.52 C 296.80 297.74 297.69 293.54 300.35 290.37 Z" />
<path fill="#ffffff" opacity="1.00" d=" M 357.03 369.61 C 359.89 368.00 362.87 366.61 365.61 364.78 C 365.55 366.39 365.52 368.00 365.50 369.62 C 362.67 369.61 359.85 369.62 357.03 369.61 Z" />
</svg>
