<?xml version="1.0" encoding="UTF-8" ?>
<!DOCTYPE svg PUBLIC "-//W3C//DTD SVG 1.1//EN" "http://www.w3.org/Graphics/SVG/1.1/DTD/svg11.dtd">
<svg width="512pt" height="512pt" viewBox="0 0 512 512" version="1.1" xmlns="http://www.w3.org/2000/svg">
<path fill="#0072bc" opacity="1.00" d=" M 0.00 0.00 L 512.00 0.00 L 512.00 512.00 L 0.00 512.00 L 0.00 0.00 Z" />
<path fill="#ffffff" opacity="1.00" d=" M 134.63 141.62 C 141.03 141.61 147.44 141.59 153.84 141.64 C 153.81 142.44 153.75 144.03 153.72 144.83 C 147.38 144.80 141.04 144.82 134.71 144.82 C 134.69 144.02 134.65 142.42 134.63 141.62 Z" />
<path fill="#ffffff" opacity="1.00" d=" M 161.68 141.81 C 188.44 141.35 215.22 141.74 241.98 141.61 C 291.41 141.62 340.83 141.60 390.25 141.62 C 390.27 188.62 390.10 235.62 390.34 282.62 C 386.11 275.44 381.71 268.19 375.52 262.51 C 373.59 260.67 370.23 259.27 370.79 256.05 C 370.83 224.20 370.76 192.35 370.84 160.50 C 307.79 160.49 244.74 160.50 181.69 160.49 C 181.72 203.72 181.68 246.95 181.71 290.17 C 210.59 290.17 239.47 290.17 268.34 290.17 C 266.95 295.00 265.48 299.91 265.59 304.99 C 265.71 310.62 265.12 316.35 266.44 321.89 C 268.36 331.42 272.23 340.56 278.03 348.38 C 279.21 353.36 282.18 357.65 286.48 360.42 C 293.19 362.03 298.14 367.21 304.49 369.66 C 265.37 369.54 226.24 369.65 187.12 369.60 C 187.19 363.48 187.17 357.36 187.15 351.23 C 209.83 351.24 232.51 351.24 255.19 351.24 C 255.19 337.25 255.19 323.27 255.20 309.29 C 224.29 309.31 193.38 309.28 162.47 309.31 C 162.47 275.98 162.47 242.66 162.47 209.33 C 165.86 208.35 169.34 205.95 169.20 201.99 C 169.36 185.99 169.17 169.97 169.29 153.96 C 169.29 151.15 169.44 147.91 167.26 145.78 C 165.39 144.47 163.29 143.47 161.68 141.81 Z" />
<path fill="#ffffff" opacity="1.00" d=" M 125.26 146.47 C 137.19 146.03 149.15 146.44 161.09 146.28 C 163.89 145.83 166.81 147.96 166.43 150.97 C 166.46 168.01 166.53 185.06 166.40 202.10 C 166.56 204.93 163.54 206.62 161.02 206.31 C 149.66 206.30 138.30 206.36 126.95 206.28 C 124.54 206.49 122.00 204.58 122.26 202.01 C 122.15 185.00 122.22 167.98 122.23 150.97 C 122.03 149.00 123.21 146.84 125.26 146.47 Z" />
<path fill="#0072bc" opacity="1.00" d=" M 126.24 150.23 C 135.14 149.35 144.10 150.04 153.03 149.78 C 156.19 149.61 159.32 149.99 162.45 150.29 C 162.40 167.72 162.49 185.15 162.41 202.59 C 150.38 202.82 138.34 202.71 126.30 202.65 C 126.12 185.18 126.24 167.70 126.24 150.23 Z" />
<path fill="#ffffff" opacity="1.00" d=" M 133.15 167.75 C 140.60 167.76 148.05 167.76 155.49 167.75 C 155.49 177.11 155.49 186.47 155.49 195.83 C 148.04 195.79 140.59 195.81 133.14 195.81 C 133.17 186.46 133.15 177.10 133.15 167.75 Z" />
<path fill="#ffffff" opacity="1.00" d=" M 134.69 208.87 C 141.03 208.86 147.37 208.87 153.71 208.87 C 153.79 262.44 153.67 316.02 153.77 369.60 C 147.40 369.61 141.03 369.62 134.66 369.59 C 134.72 316.02 134.66 262.44 134.69 208.87 Z" />
<path fill="#ffffff" opacity="1.00" d=" M 288.91 266.93 C 301.86 254.10 321.02 247.76 339.05 250.53 C 352.44 252.35 364.89 259.09 374.35 268.64 C 384.87 279.93 391.30 295.38 390.33 310.93 C 390.78 341.82 363.07 370.18 332.03 369.61 C 318.44 370.51 305.16 365.47 294.17 357.75 C 297.85 357.13 301.77 356.17 304.22 353.09 C 306.71 350.76 306.98 347.26 307.39 344.09 C 315.68 349.79 326.09 352.18 336.04 350.81 C 349.39 349.31 361.53 340.55 367.54 328.60 C 371.95 320.14 373.04 310.10 370.87 300.84 C 368.39 288.58 359.87 277.84 348.60 272.49 C 341.05 268.75 332.35 267.71 324.06 268.91 C 311.34 270.88 299.62 279.19 293.95 290.81 C 286.98 304.13 288.13 321.10 296.73 333.43 C 289.18 332.30 282.58 339.00 282.92 346.42 C 274.94 335.69 270.41 322.42 270.49 309.02 C 270.82 293.31 277.61 277.84 288.91 266.93 Z" />
<path fill="#ffffff" opacity="1.00" d=" M 300.33 290.37 C 320.58 289.91 340.88 290.28 361.15 290.20 C 364.45 296.05 366.84 302.48 366.50 309.31 C 343.40 309.28 320.31 309.31 297.21 309.29 C 297.27 313.72 297.35 318.15 297.04 322.58 C 292.67 312.25 294.18 299.63 300.33 290.37 Z" />
<path fill="#ffffff" opacity="1.00" d=" M 357.02 369.59 C 359.94 368.11 362.78 366.48 365.62 364.84 C 365.56 366.42 365.53 368.02 365.49 369.62 C 362.66 369.61 359.84 369.62 357.02 369.59 Z" />
</svg>
