<?xml version="1.0" encoding="UTF-8" ?>
<!DOCTYPE svg PUBLIC "-//W3C//DTD SVG 1.1//EN" "http://www.w3.org/Graphics/SVG/1.1/DTD/svg11.dtd">
<svg width="512pt" height="512pt" viewBox="0 0 512 512" version="1.1" xmlns="http://www.w3.org/2000/svg">
<path fill="#0072bc" opacity="1.00" d=" M 0.00 0.00 L 512.00 0.00 L 512.00 512.00 L 0.00 512.00 L 0.00 0.00 Z" />
<path fill="#ffffff" opacity="1.00" d=" M 134.65 141.62 C 141.04 141.61 147.43 141.59 153.83 141.63 C 153.80 142.43 153.75 144.03 153.73 144.83 C 147.38 144.80 141.03 144.83 134.68 144.81 C 134.67 144.01 134.65 142.42 134.65 141.62 Z" />
<path fill="#ffffff" opacity="1.00" d=" M 161.88 141.72 C 238.00 141.47 314.13 141.67 390.25 141.62 C 390.24 188.93 390.17 236.24 390.29 283.55 C 385.87 273.71 379.01 265.15 370.72 258.31 C 370.94 225.71 370.70 193.10 370.84 160.50 C 307.79 160.49 244.74 160.50 181.69 160.49 C 181.73 203.72 181.68 246.95 181.71 290.17 C 210.52 290.17 239.34 290.16 268.15 290.18 C 266.60 294.53 266.40 299.27 264.40 303.47 C 262.12 308.26 262.89 313.94 265.21 318.57 C 266.92 325.30 268.93 331.97 271.65 338.38 C 275.24 345.13 279.79 351.39 285.14 356.85 C 290.66 361.98 297.00 366.17 303.71 369.58 C 264.85 369.67 226.00 369.56 187.15 369.63 C 187.17 363.50 187.17 357.36 187.14 351.23 C 209.83 351.24 232.51 351.24 255.19 351.23 C 255.19 337.25 255.19 323.27 255.19 309.29 C 224.29 309.31 193.38 309.28 162.47 309.31 C 162.46 275.98 162.49 242.66 162.46 209.33 C 165.85 208.39 169.32 205.95 169.20 202.03 C 169.35 186.00 169.17 169.97 169.29 153.94 C 169.23 151.58 169.47 149.03 168.15 146.94 C 166.80 144.36 163.21 144.33 161.88 141.72 Z" />
<path fill="#ffffff" opacity="1.00" d=" M 125.28 146.47 C 137.20 146.03 149.16 146.44 161.10 146.28 C 163.93 145.81 166.85 148.03 166.44 151.05 C 166.52 167.36 166.41 183.67 166.49 199.99 C 166.35 201.52 166.69 203.33 165.56 204.59 C 164.08 206.65 161.28 206.27 159.06 206.34 C 148.37 206.24 137.68 206.39 127.00 206.28 C 124.61 206.51 122.02 204.63 122.26 202.08 C 122.15 185.06 122.22 168.04 122.23 151.02 C 122.01 149.02 123.21 146.83 125.28 146.47 Z" />
<path fill="#0072bc" opacity="1.00" d=" M 126.26 150.21 C 133.47 149.42 140.74 149.96 147.98 149.81 C 152.82 149.90 157.70 149.41 162.49 150.38 C 162.37 167.77 162.49 185.17 162.42 202.57 C 150.38 202.84 138.34 202.71 126.29 202.64 C 126.14 185.16 126.21 167.68 126.26 150.21 Z" />
<path fill="#ffffff" opacity="1.00" d=" M 133.15 167.75 C 140.60 167.76 148.05 167.76 155.49 167.75 C 155.49 177.11 155.49 186.47 155.49 195.83 C 148.04 195.79 140.59 195.81 133.14 195.81 C 133.17 186.46 133.15 177.10 133.15 167.75 Z" />
<path fill="#ffffff" opacity="1.00" d=" M 134.69 208.87 C 141.03 208.86 147.37 208.87 153.71 208.87 C 153.79 262.45 153.67 316.02 153.77 369.60 C 147.40 369.61 141.03 369.62 134.66 369.59 C 134.73 316.02 134.66 262.44 134.69 208.87 Z" />
<path fill="#ffffff" opacity="1.00" d=" M 290.91 264.82 C 303.84 253.31 322.01 247.79 339.14 250.49 C 352.49 252.35 364.91 259.11 374.33 268.67 C 384.58 279.75 390.98 294.78 390.35 310.01 C 390.61 327.48 382.29 344.67 368.92 355.81 C 360.54 363.24 349.82 367.75 338.80 369.41 C 333.26 369.72 327.68 369.71 322.13 369.41 C 309.47 367.56 297.40 361.68 288.32 352.64 C 278.88 343.41 272.72 330.98 270.89 317.91 C 273.62 319.74 276.47 322.04 279.97 321.72 C 283.90 322.16 287.15 319.65 289.98 317.30 C 292.03 329.38 299.81 340.47 310.68 346.23 C 319.52 351.13 330.19 352.36 340.00 350.14 C 351.78 347.45 362.17 339.26 367.51 328.41 C 375.84 312.30 371.73 290.82 358.05 278.92 C 348.08 269.73 333.43 266.37 320.35 269.62 C 304.92 273.30 292.37 286.68 289.96 302.40 C 286.97 299.72 283.26 297.25 279.04 297.81 C 275.90 298.11 273.32 300.03 270.83 301.79 C 272.99 287.65 280.11 274.25 290.91 264.82 Z" />
<path fill="#ffffff" opacity="1.00" d=" M 300.18 290.15 C 320.34 290.20 340.51 290.18 360.68 290.16 C 364.58 295.75 366.41 302.54 366.52 309.31 C 343.65 309.29 320.78 309.29 297.91 309.31 C 297.33 306.64 296.12 304.16 295.44 301.54 C 296.02 297.40 298.32 293.80 300.18 290.15 Z" />
<path fill="#ffffff" opacity="1.00" d=" M 297.55 312.56 C 297.15 316.48 297.10 320.43 297.61 324.35 C 296.80 322.38 295.99 320.42 295.18 318.46 C 295.98 316.49 296.77 314.53 297.55 312.56 Z" />
<path fill="#ffffff" opacity="1.00" d=" M 357.02 369.57 C 359.97 368.16 362.78 366.49 365.60 364.83 C 365.56 366.42 365.52 368.01 365.51 369.60 C 362.67 369.63 359.84 369.62 357.02 369.57 Z" />
</svg>
