<?xml version="1.0" encoding="UTF-8" ?>
<!DOCTYPE svg PUBLIC "-//W3C//DTD SVG 1.1//EN" "http://www.w3.org/Graphics/SVG/1.1/DTD/svg11.dtd">
<svg width="512pt" height="512pt" viewBox="0 0 512 512" version="1.1" xmlns="http://www.w3.org/2000/svg">
<path fill="#0072bc" opacity="1.00" d=" M 0.00 0.00 L 512.00 0.00 L 512.00 512.00 L 0.00 512.00 L 0.00 0.00 Z" />
<path fill="#ffffff" opacity="1.00" d=" M 134.65 141.63 C 141.04 141.60 147.43 141.59 153.82 141.64 C 153.80 142.43 153.75 144.03 153.73 144.83 C 147.38 144.80 141.02 144.84 134.67 144.79 C 134.66 144.00 134.65 142.42 134.65 141.63 Z" />
<path fill="#ffffff" opacity="1.00" d=" M 162.30 141.62 C 238.29 141.62 314.27 141.59 390.26 141.63 C 390.27 188.64 390.11 235.66 390.34 282.68 C 385.41 273.39 378.98 264.78 370.72 258.25 C 370.94 225.67 370.70 193.08 370.84 160.50 C 307.79 160.49 244.74 160.50 181.69 160.50 C 181.73 203.72 181.67 246.94 181.72 290.17 C 210.60 290.18 239.48 290.16 268.37 290.18 C 264.96 299.16 265.51 308.80 265.67 318.22 C 267.80 333.23 275.19 347.36 286.19 357.76 C 291.57 362.33 297.40 366.33 303.66 369.59 C 264.81 369.63 225.96 369.62 187.11 369.59 C 187.21 363.47 187.16 357.36 187.14 351.24 C 209.83 351.23 232.51 351.25 255.19 351.23 C 255.20 337.26 255.17 323.28 255.21 309.31 C 224.30 309.28 193.39 309.30 162.48 309.31 C 162.46 275.93 162.47 242.55 162.48 209.17 C 166.00 208.60 169.29 205.80 169.22 202.01 C 169.31 185.35 169.20 168.68 169.28 152.01 C 169.48 149.14 168.34 145.88 165.62 144.56 C 164.42 143.64 161.63 143.89 162.30 141.62 Z" />
<path fill="#ffffff" opacity="1.00" d=" M 125.28 146.44 C 137.52 146.10 149.80 146.37 162.05 146.31 C 164.58 146.07 166.76 148.50 166.45 150.98 C 166.46 168.02 166.51 185.06 166.42 202.09 C 166.56 204.41 164.26 206.40 162.02 206.28 C 150.30 206.35 138.58 206.31 126.87 206.30 C 124.54 206.46 122.01 204.58 122.25 202.09 C 122.17 185.04 122.23 167.98 122.22 150.93 C 121.97 148.94 123.29 146.84 125.28 146.44 Z" />
<path fill="#0072bc" opacity="1.00" d=" M 126.18 150.44 C 129.04 149.45 132.09 149.85 135.06 149.81 C 142.70 149.80 150.35 149.84 157.99 149.78 C 159.55 149.68 161.08 149.96 162.51 150.60 C 162.36 167.88 162.45 185.16 162.46 202.45 C 150.46 203.03 138.40 202.58 126.38 202.68 C 125.98 185.27 126.37 167.85 126.18 150.44 Z" />
<path fill="#ffffff" opacity="1.00" d=" M 133.16 167.75 C 140.60 167.76 148.05 167.75 155.49 167.75 C 155.49 177.11 155.49 186.46 155.49 195.82 C 148.04 195.79 140.59 195.82 133.14 195.81 C 133.17 186.45 133.15 177.10 133.16 167.75 Z" />
<path fill="#ffffff" opacity="1.00" d=" M 134.70 208.87 C 141.03 208.86 147.37 208.85 153.70 208.88 C 153.81 262.45 153.66 316.02 153.78 369.59 C 147.40 369.62 141.03 369.63 134.65 369.58 C 134.74 316.01 134.65 262.44 134.70 208.87 Z" />
<path fill="#ffffff" opacity="1.00" d=" M 314.07 252.23 C 339.79 244.27 369.87 256.64 382.85 280.16 C 386.81 286.90 389.04 294.50 390.36 302.17 C 387.57 299.54 383.92 297.33 379.93 297.84 C 376.53 298.05 373.57 300.00 371.40 302.52 C 369.28 292.11 363.62 282.40 354.88 276.21 C 345.80 269.54 333.98 267.06 322.94 269.09 C 309.64 271.51 297.55 280.89 292.67 293.60 C 285.08 310.53 290.87 332.22 305.88 343.11 C 314.96 350.02 326.98 352.60 338.15 350.56 C 354.70 347.82 368.53 333.87 371.39 317.38 C 375.72 323.20 385.12 323.38 389.92 318.06 C 386.54 346.51 359.93 370.84 330.95 369.59 C 304.87 370.93 279.95 351.78 273.02 326.86 C 268.92 313.64 269.76 298.99 275.45 286.37 C 282.36 269.99 296.92 257.03 314.07 252.23 Z" />
<path fill="#ffffff" opacity="1.00" d=" M 300.43 290.33 C 320.67 289.99 340.95 290.23 361.20 290.21 C 362.49 293.40 364.42 296.32 365.46 299.61 C 366.07 301.67 364.78 303.61 364.18 305.52 C 364.01 306.92 363.49 308.21 362.72 309.39 C 340.89 309.17 319.05 309.36 297.22 309.30 C 297.24 313.91 297.26 318.51 297.27 323.13 C 295.38 319.69 295.11 315.76 294.45 311.98 C 293.79 308.45 295.42 305.06 295.25 301.54 C 296.91 297.80 297.61 293.42 300.43 290.33 Z" />
<path fill="#ffffff" opacity="1.00" d=" M 357.08 369.63 C 359.83 367.82 363.07 366.83 365.59 364.64 C 365.54 366.28 365.53 367.94 365.52 369.60 C 362.70 369.61 359.89 369.64 357.08 369.63 Z" />
</svg>
