<?xml version="1.0" encoding="UTF-8" ?>
<!DOCTYPE svg PUBLIC "-//W3C//DTD SVG 1.1//EN" "http://www.w3.org/Graphics/SVG/1.1/DTD/svg11.dtd">
<svg width="512pt" height="512pt" viewBox="0 0 512 512" version="1.1" xmlns="http://www.w3.org/2000/svg">
<path fill="#0072bc" opacity="1.00" d=" M 0.00 0.00 L 512.00 0.00 L 512.00 512.00 L 0.00 512.00 L 0.00 0.00 Z" />
<path fill="#ffffff" opacity="1.00" d=" M 134.65 141.63 C 141.04 141.61 147.43 141.59 153.82 141.64 C 153.80 142.44 153.75 144.03 153.73 144.83 C 147.38 144.80 141.02 144.84 134.67 144.80 C 134.67 144.00 134.65 142.42 134.65 141.63 Z" />
<path fill="#ffffff" opacity="1.00" d=" M 162.28 141.62 C 238.27 141.61 314.26 141.59 390.25 141.63 C 390.30 188.63 390.05 235.64 390.38 282.63 C 387.94 278.98 386.00 275.02 383.33 271.52 C 382.10 269.76 382.66 267.31 381.14 265.69 C 378.60 262.30 375.38 258.62 370.91 258.09 C 370.68 225.57 370.83 193.03 370.84 160.50 C 307.79 160.49 244.74 160.50 181.69 160.50 C 181.73 203.72 181.67 246.95 181.72 290.17 C 210.61 290.18 239.50 290.16 268.38 290.18 C 265.09 298.82 265.44 308.10 265.67 317.17 C 267.73 333.88 276.28 350.04 289.61 360.43 C 293.78 364.20 298.94 366.61 303.64 369.61 C 264.80 369.60 225.96 369.63 187.11 369.60 C 187.20 363.47 187.16 357.36 187.15 351.24 C 209.83 351.23 232.51 351.24 255.19 351.23 C 255.16 337.23 255.26 323.23 255.14 309.24 C 224.25 309.38 193.37 309.24 162.48 309.31 C 162.45 275.93 162.48 242.56 162.46 209.19 C 165.96 208.60 169.26 205.84 169.22 202.07 C 169.30 185.02 169.24 167.96 169.25 150.91 C 169.47 146.85 166.00 144.18 162.48 143.15 L 162.28 141.62 Z" />
<path fill="#ffffff" opacity="1.00" d=" M 125.29 146.44 C 137.22 146.06 149.18 146.43 161.12 146.27 C 163.91 145.80 166.84 148.01 166.45 150.98 C 166.49 167.68 166.44 184.38 166.47 201.07 C 166.91 203.69 164.79 206.41 162.07 206.28 C 150.36 206.35 138.65 206.31 126.94 206.30 C 124.53 206.51 121.97 204.54 122.24 201.98 C 122.17 184.98 122.22 167.97 122.22 150.96 C 121.97 148.96 123.28 146.83 125.29 146.44 Z" />
<path fill="#0072bc" opacity="1.00" d=" M 126.76 149.77 C 137.52 149.87 148.27 149.79 159.03 149.80 C 160.24 149.82 161.40 150.09 162.52 150.61 C 162.36 167.88 162.44 185.16 162.48 202.43 C 150.46 203.04 138.38 202.60 126.34 202.65 C 126.02 186.43 126.35 170.19 126.18 153.97 C 126.11 152.54 126.36 151.13 126.76 149.77 Z" />
<path fill="#ffffff" opacity="1.00" d=" M 133.16 167.75 C 140.60 167.76 148.05 167.76 155.49 167.75 C 155.49 177.11 155.49 186.47 155.49 195.83 C 148.04 195.79 140.59 195.82 133.14 195.81 C 133.17 186.46 133.15 177.10 133.16 167.75 Z" />
<path fill="#ffffff" opacity="1.00" d=" M 134.70 208.88 C 141.03 208.86 147.36 208.87 153.70 208.86 C 153.82 262.44 153.66 316.02 153.78 369.60 C 147.40 369.61 141.03 369.64 134.65 369.58 C 134.74 316.01 134.65 262.44 134.70 208.88 Z" />
<path fill="#ffffff" opacity="1.00" d=" M 323.53 250.43 C 338.89 248.31 354.68 253.10 367.10 262.18 C 359.73 261.45 352.87 268.37 354.22 275.79 C 347.16 270.93 338.60 268.22 330.01 268.49 C 317.24 268.40 304.82 275.01 297.28 285.24 C 289.32 296.29 287.11 311.33 291.92 324.12 C 294.69 331.31 299.09 338.08 305.38 342.70 C 314.07 349.48 325.56 352.39 336.45 350.79 C 350.14 349.09 362.48 339.77 368.20 327.26 C 374.36 314.31 372.66 298.30 364.77 286.46 C 372.21 287.26 378.35 280.58 378.53 273.43 C 384.52 281.85 388.86 291.57 390.13 301.88 C 390.78 311.34 390.44 321.09 386.96 330.03 C 378.93 353.00 355.67 370.52 331.02 369.59 C 318.14 370.28 305.28 365.69 294.96 358.11 C 282.02 348.71 273.28 333.85 271.16 318.01 C 268.89 303.94 272.65 289.29 280.31 277.39 C 289.79 262.61 306.04 252.30 323.53 250.43 Z" />
<path fill="#ffffff" opacity="1.00" d=" M 300.37 290.35 C 320.67 290.07 341.02 290.00 361.33 290.40 C 364.27 296.27 366.93 302.60 366.37 309.32 C 343.32 309.27 320.27 309.31 297.22 309.30 C 297.21 313.60 297.34 317.92 297.15 322.22 C 294.92 319.43 295.41 315.64 294.63 312.36 C 293.74 308.93 295.38 305.55 295.44 302.11 C 296.49 298.02 297.65 293.67 300.37 290.35 Z" />
<path fill="#ffffff" opacity="1.00" d=" M 357.11 369.63 C 359.83 367.77 363.11 366.87 365.58 364.64 C 365.54 366.28 365.53 367.94 365.52 369.60 C 362.71 369.61 359.91 369.64 357.11 369.63 Z" />
</svg>
