<?xml version="1.0" encoding="UTF-8" ?>
<!DOCTYPE svg PUBLIC "-//W3C//DTD SVG 1.1//EN" "http://www.w3.org/Graphics/SVG/1.1/DTD/svg11.dtd">
<svg width="512pt" height="512pt" viewBox="0 0 512 512" version="1.1" xmlns="http://www.w3.org/2000/svg">
<path fill="#0072bc" opacity="1.00" d=" M 0.00 0.00 L 512.00 0.00 L 512.00 512.00 L 0.00 512.00 L 0.00 0.00 Z" />
<path fill="#ffffff" opacity="1.00" d=" M 134.65 141.63 C 141.04 141.61 147.43 141.59 153.83 141.64 C 153.80 142.44 153.75 144.03 153.73 144.83 C 147.38 144.80 141.03 144.84 134.67 144.80 C 134.67 144.01 134.65 142.42 134.65 141.63 Z" />
<path fill="#ffffff" opacity="1.00" d=" M 162.26 141.62 C 238.26 141.61 314.26 141.59 390.26 141.63 C 390.30 188.62 390.05 235.63 390.38 282.62 C 387.69 278.58 385.54 274.20 382.56 270.36 C 381.04 268.57 379.30 266.96 377.96 265.02 C 376.06 262.21 372.74 260.89 370.72 258.19 C 370.94 225.63 370.70 193.06 370.84 160.51 C 307.79 160.48 244.74 160.50 181.69 160.50 C 181.73 203.72 181.67 246.95 181.72 290.17 C 210.60 290.18 239.48 290.17 268.36 290.17 C 266.82 295.30 265.36 300.58 265.59 305.98 C 265.82 310.96 265.07 316.03 266.29 320.93 C 267.78 328.81 270.47 336.50 274.69 343.35 C 277.15 348.02 280.99 351.69 284.18 355.85 C 290.11 361.17 296.65 365.77 303.65 369.61 C 264.81 369.60 225.96 369.63 187.12 369.60 C 187.20 363.48 187.16 357.36 187.15 351.24 C 209.83 351.23 232.51 351.24 255.19 351.23 C 255.25 337.28 255.08 323.33 255.28 309.39 C 224.35 309.19 193.41 309.35 162.48 309.31 C 162.40 275.97 162.59 242.63 162.38 209.30 C 165.87 208.57 169.30 205.88 169.22 202.03 C 169.32 185.36 169.19 168.70 169.28 152.03 C 169.47 149.15 168.35 145.86 165.60 144.56 C 164.40 143.65 161.73 143.85 162.26 141.62 Z" />
<path fill="#ffffff" opacity="1.00" d=" M 125.31 146.44 C 137.54 146.10 149.80 146.36 162.04 146.31 C 164.56 146.07 166.74 148.47 166.44 150.94 C 166.47 167.97 166.50 185.01 166.43 202.04 C 166.56 204.36 164.31 206.40 162.03 206.28 C 150.34 206.35 138.64 206.30 126.95 206.30 C 124.60 206.49 122.02 204.62 122.25 202.10 C 122.16 185.04 122.22 167.98 122.22 150.92 C 121.98 148.93 123.30 146.82 125.31 146.44 Z" />
<path fill="#0072bc" opacity="1.00" d=" M 126.20 150.37 C 127.78 150.02 129.37 149.71 130.99 149.78 C 140.00 149.83 149.01 149.83 158.02 149.78 C 159.57 149.67 161.07 150.05 162.52 150.57 C 162.36 167.86 162.45 185.16 162.47 202.45 C 150.46 203.04 138.41 202.57 126.38 202.69 C 125.99 185.26 126.34 167.81 126.20 150.37 Z" />
<path fill="#ffffff" opacity="1.00" d=" M 133.16 167.75 C 140.60 167.76 148.04 167.76 155.49 167.75 C 155.49 177.11 155.49 186.47 155.49 195.83 C 148.04 195.78 140.59 195.82 133.14 195.81 C 133.17 186.45 133.15 177.10 133.16 167.75 Z" />
<path fill="#ffffff" opacity="1.00" d=" M 134.64 209.10 C 140.99 208.62 147.37 208.93 153.74 208.92 C 153.75 262.48 153.68 316.03 153.78 369.59 C 147.40 369.62 141.03 369.64 134.65 369.58 C 134.70 316.09 134.73 262.59 134.64 209.10 Z" />
<path fill="#ffffff" opacity="1.00" d=" M 294.14 262.20 C 306.64 252.99 322.64 248.24 338.11 250.45 C 351.86 252.01 364.66 258.90 374.36 268.65 C 384.86 279.97 391.37 295.43 390.31 311.01 C 390.73 340.54 365.49 367.69 336.03 369.57 C 331.69 369.56 327.34 369.72 323.01 369.45 C 307.25 367.34 292.35 358.89 282.83 346.10 C 275.28 336.36 271.22 324.20 270.54 311.95 C 270.04 298.16 274.81 284.47 283.02 273.46 C 282.31 280.82 289.21 287.24 296.48 286.50 C 288.99 297.58 287.24 312.36 292.21 324.81 C 294.92 331.50 299.01 337.84 304.84 342.24 C 313.59 349.34 325.35 352.44 336.48 350.77 C 350.41 349.06 362.91 339.43 368.51 326.62 C 376.71 308.65 369.83 285.33 352.97 274.94 C 339.41 266.09 320.53 266.24 307.31 275.66 C 307.99 268.32 301.65 261.35 294.14 262.20 Z" />
<path fill="#ffffff" opacity="1.00" d=" M 300.11 290.36 C 320.46 289.95 340.83 290.26 361.19 290.20 C 364.31 296.11 367.05 302.45 366.38 309.32 C 343.33 309.27 320.27 309.31 297.22 309.30 C 297.21 313.60 297.35 317.90 297.15 322.20 C 294.76 319.00 295.31 314.73 294.42 311.02 C 294.67 303.87 296.24 296.51 300.11 290.36 Z" />
<path fill="#ffffff" opacity="1.00" d=" M 357.07 369.63 C 359.82 367.82 363.07 366.85 365.58 364.67 C 365.54 366.30 365.53 367.95 365.52 369.60 C 362.70 369.61 359.89 369.64 357.07 369.63 Z" />
</svg>
