<?xml version="1.0" encoding="UTF-8" ?>
<!DOCTYPE svg PUBLIC "-//W3C//DTD SVG 1.1//EN" "http://www.w3.org/Graphics/SVG/1.1/DTD/svg11.dtd">
<svg width="512pt" height="512pt" viewBox="0 0 512 512" version="1.1" xmlns="http://www.w3.org/2000/svg">
<path fill="#c00000" opacity="1.00" d=" M 0.00 0.00 L 512.00 0.00 L 512.00 512.00 L 0.00 512.00 L 0.00 0.00 Z" />
<path fill="#ffffff" opacity="1.00" d=" M 134.65 141.64 C 141.04 141.61 147.43 141.55 153.81 141.67 C 153.79 142.46 153.74 144.03 153.72 144.82 C 147.37 144.79 141.03 144.87 134.68 144.77 C 134.68 143.99 134.66 142.43 134.65 141.64 Z" />
<path fill="#ffffff" opacity="1.00" d=" M 162.24 143.27 C 162.31 142.85 162.45 142.02 162.52 141.60 C 238.44 141.65 314.35 141.56 390.27 141.65 C 390.23 183.04 390.16 224.43 390.30 265.81 C 383.75 259.31 377.01 252.92 370.79 246.13 C 370.84 217.59 370.77 189.05 370.82 160.51 C 307.77 160.50 244.72 160.45 181.68 160.53 C 181.76 203.72 181.64 246.91 181.74 290.10 C 210.96 290.25 240.58 290.14 270.01 290.17 C 271.31 290.30 273.05 289.69 273.90 291.05 C 278.57 295.83 283.37 300.48 288.04 305.25 L 288.05 305.93 C 278.18 315.76 268.43 325.73 258.43 335.43 C 258.53 336.77 258.15 337.98 257.28 339.06 C 258.64 339.79 258.06 341.69 259.49 342.33 C 268.62 351.27 277.43 360.56 286.75 369.33 L 285.78 369.62 C 252.89 369.57 220.00 369.67 187.11 369.57 C 187.23 363.47 187.13 357.36 187.16 351.26 C 209.83 351.18 232.51 351.28 255.18 351.22 C 255.24 337.35 255.11 323.48 255.25 309.61 L 254.86 309.30 C 224.08 309.30 193.29 309.29 162.51 309.31 C 162.42 275.95 162.50 242.59 162.46 209.23 C 165.63 208.63 168.58 206.41 169.22 203.04 C 169.31 185.31 169.20 167.57 169.27 149.84 C 168.71 146.29 165.68 143.81 162.24 143.27 Z" />
<path fill="#ffffff" opacity="1.00" d=" M 125.29 146.42 C 137.51 146.11 149.77 146.41 162.00 146.28 C 164.55 146.06 166.82 148.52 166.47 151.04 C 166.45 168.05 166.49 185.06 166.45 202.07 C 166.63 204.09 164.87 205.60 163.15 206.27 C 150.68 206.37 138.21 206.27 125.74 206.32 C 123.84 205.74 121.99 204.20 122.22 202.03 C 122.22 184.68 122.19 167.33 122.23 149.99 C 122.26 148.32 123.73 146.78 125.29 146.42 Z" />
<path fill="#c00000" opacity="1.00" d=" M 126.20 151.95 C 125.64 150.32 127.71 149.52 128.95 149.80 C 139.64 149.83 150.32 149.79 161.01 149.82 C 161.37 150.06 162.10 150.54 162.46 150.79 C 162.38 167.93 162.51 185.08 162.40 202.22 C 161.13 203.14 159.47 202.55 158.03 202.71 C 147.53 202.58 136.97 202.96 126.50 202.52 L 126.23 201.86 C 126.19 185.22 126.24 168.58 126.20 151.95 Z" />
<path fill="#ffffff" opacity="1.00" d=" M 133.16 167.76 C 140.60 167.74 148.04 167.76 155.48 167.75 C 155.47 177.11 155.54 186.48 155.45 195.84 C 148.02 195.75 140.58 195.85 133.15 195.79 C 133.16 186.45 133.15 177.10 133.16 167.76 Z" />
<path fill="#ffffff" opacity="1.00" d=" M 134.63 209.32 C 140.67 208.25 147.11 209.21 153.30 208.83 L 153.69 209.25 C 153.82 262.69 153.65 316.13 153.78 369.57 C 147.40 369.63 141.01 369.67 134.63 369.55 C 134.72 316.14 134.72 262.73 134.63 209.32 Z" />
<path fill="#ffffff" opacity="1.00" d=" M 357.10 244.20 C 357.93 243.59 358.38 242.22 359.55 242.22 C 369.69 252.58 380.39 262.36 390.36 272.89 C 379.35 283.84 368.23 294.72 357.46 305.90 C 368.34 316.48 378.90 327.47 389.78 338.08 C 389.72 338.37 389.61 338.94 389.55 339.23 C 379.25 349.21 369.30 359.54 359.17 369.67 C 349.29 359.30 339.07 349.23 329.00 339.02 C 328.08 338.25 327.44 337.05 326.24 336.70 C 315.38 347.65 304.47 358.56 293.75 369.64 C 283.25 359.38 272.93 348.91 262.55 338.52 C 273.54 327.71 284.29 316.65 295.34 305.89 L 295.01 305.22 C 284.26 294.60 273.82 283.68 263.04 273.08 C 263.11 271.76 264.60 271.25 265.31 270.30 C 273.80 261.80 282.29 253.31 290.79 244.82 C 291.95 244.09 292.42 242.13 294.00 242.26 C 304.52 253.14 315.41 263.66 326.01 274.46 L 327.00 274.32 C 337.00 264.25 347.06 254.24 357.10 244.20 Z" />
<path fill="#ffffff" opacity="1.00" d=" M 364.57 305.76 C 372.82 296.84 381.65 288.37 390.31 279.84 C 390.13 289.64 390.28 299.45 390.23 309.25 C 382.85 309.33 375.46 309.32 368.09 309.25 C 366.89 308.11 365.75 306.91 364.57 305.76 Z" />
<path fill="#ffffff" opacity="1.00" d=" M 318.51 351.48 C 323.49 350.86 328.81 351.48 333.92 351.18 C 340.04 357.30 346.41 363.28 352.21 369.65 C 335.00 369.57 317.79 369.61 300.57 369.64 C 306.31 363.38 312.59 357.58 318.51 351.48 Z" />
</svg>
