<?xml version="1.0" encoding="UTF-8" ?>
<!DOCTYPE svg PUBLIC "-//W3C//DTD SVG 1.1//EN" "http://www.w3.org/Graphics/SVG/1.1/DTD/svg11.dtd">
<svg width="512pt" height="512pt" viewBox="0 0 512 512" version="1.1" xmlns="http://www.w3.org/2000/svg">
<path fill="#c00000" opacity="1.00" d=" M 0.00 0.00 L 512.00 0.00 L 512.00 512.00 L 0.00 512.00 L 0.00 0.00 Z" />
<path fill="#ffffff" opacity="1.00" d=" M 134.64 141.63 C 141.04 141.61 147.43 141.58 153.82 141.65 C 153.80 142.44 153.75 144.03 153.73 144.82 C 147.38 144.80 141.02 144.84 134.67 144.80 C 134.67 144.00 134.65 142.42 134.64 141.63 Z" />
<path fill="#ffffff" opacity="1.00" d=" M 162.34 143.31 C 162.36 142.88 162.40 142.04 162.42 141.62 C 238.37 141.61 314.31 141.59 390.26 141.63 C 390.22 183.03 390.19 224.43 390.28 265.83 C 383.73 259.33 377.13 252.89 370.76 246.23 C 370.88 217.65 370.74 189.07 370.83 160.49 C 307.78 160.51 244.73 160.48 181.68 160.51 C 181.74 203.73 181.66 246.95 181.72 290.17 C 212.09 290.23 242.47 290.05 272.84 290.26 C 278.21 295.01 283.01 300.45 288.26 305.38 C 278.73 315.73 268.41 325.39 258.54 335.43 C 258.35 336.70 257.97 337.91 257.38 339.06 C 258.10 340.46 258.88 341.87 260.08 342.93 C 269.02 351.73 277.75 360.74 286.77 369.46 C 253.55 369.80 220.32 369.54 187.10 369.59 C 187.22 363.47 187.16 357.36 187.14 351.24 C 209.83 351.22 232.51 351.25 255.19 351.23 C 255.23 337.28 255.12 323.34 255.25 309.39 C 224.33 309.18 193.40 309.35 162.48 309.31 C 162.44 275.94 162.51 242.56 162.44 209.19 C 165.96 208.65 169.24 205.82 169.23 202.07 C 169.28 185.03 169.23 167.98 169.25 150.93 C 169.42 146.98 166.08 143.87 162.34 143.31 Z" />
<path fill="#ffffff" opacity="1.00" d=" M 125.33 146.42 C 136.52 146.07 147.74 146.46 158.94 146.26 C 161.06 146.42 163.76 145.73 165.30 147.63 C 166.59 148.73 166.44 150.47 166.48 152.01 C 166.43 168.69 166.51 185.37 166.44 202.05 C 166.59 204.36 164.28 206.40 162.03 206.29 C 150.32 206.34 138.61 206.30 126.90 206.31 C 124.55 206.50 122.00 204.57 122.24 202.07 C 122.17 185.06 122.23 168.05 122.21 151.03 C 121.92 148.99 123.29 146.82 125.33 146.42 Z" />
<path fill="#c00000" opacity="1.00" d=" M 126.19 150.52 C 128.30 149.46 130.71 149.86 132.99 149.80 C 142.31 149.92 151.65 149.61 160.95 149.95 C 161.34 150.13 162.11 150.49 162.50 150.68 C 162.37 167.92 162.46 185.16 162.46 202.40 C 150.47 203.08 138.40 202.59 126.38 202.64 C 125.98 185.28 126.36 167.90 126.19 150.52 Z" />
<path fill="#ffffff" opacity="1.00" d=" M 133.16 167.75 C 140.60 167.76 148.05 167.76 155.49 167.75 C 155.49 177.11 155.49 186.47 155.49 195.83 C 148.04 195.78 140.59 195.82 133.14 195.81 C 133.18 186.45 133.15 177.10 133.16 167.75 Z" />
<path fill="#ffffff" opacity="1.00" d=" M 134.70 208.88 C 140.98 208.82 147.27 208.95 153.55 208.80 C 154.02 262.38 153.55 315.99 153.78 369.59 C 147.40 369.62 141.03 369.64 134.65 369.58 C 134.75 316.01 134.64 262.44 134.70 208.88 Z" />
<path fill="#ffffff" opacity="1.00" d=" M 332.66 268.62 C 341.65 259.81 350.31 250.65 359.48 242.05 C 369.56 252.53 380.33 262.32 390.38 272.84 C 379.38 283.78 368.36 294.72 357.48 305.78 C 368.18 316.61 379.03 327.31 389.72 338.15 L 389.79 338.82 C 379.63 349.10 369.35 359.29 359.25 369.65 C 348.42 358.56 337.50 347.55 326.55 336.57 C 315.36 347.36 304.64 358.63 293.66 369.63 C 283.25 359.30 272.92 348.90 262.54 338.54 C 273.55 327.67 284.37 316.61 295.43 305.79 C 284.61 294.80 273.86 283.75 262.85 272.95 C 270.29 265.04 278.18 257.56 285.79 249.81 C 288.51 247.26 290.88 244.34 293.85 242.07 C 304.40 253.12 315.51 263.62 326.10 274.63 C 328.71 273.14 330.47 270.61 332.66 268.62 Z" />
<path fill="#ffffff" opacity="1.00" d=" M 364.52 305.73 C 372.86 296.87 381.64 288.40 390.27 279.82 C 390.19 289.64 390.25 299.45 390.24 309.27 C 382.86 309.32 375.48 309.30 368.10 309.28 C 366.91 308.09 365.72 306.90 364.52 305.73 Z" />
<path fill="#ffffff" opacity="1.00" d=" M 318.56 351.52 C 323.56 350.78 328.83 351.51 333.94 351.18 C 340.10 357.28 346.30 363.36 352.32 369.60 C 335.04 369.61 317.77 369.63 300.49 369.60 C 306.44 363.50 312.47 357.47 318.56 351.52 Z" />
</svg>
