<?xml version="1.0" encoding="UTF-8" ?>
<!DOCTYPE svg PUBLIC "-//W3C//DTD SVG 1.1//EN" "http://www.w3.org/Graphics/SVG/1.1/DTD/svg11.dtd">
<svg width="512pt" height="512pt" viewBox="0 0 512 512" version="1.1" xmlns="http://www.w3.org/2000/svg">
<path fill="#e2b300" opacity="1.00" d=" M 0.00 0.00 L 512.00 0.00 L 512.00 512.00 L 0.00 512.00 L 0.00 0.00 Z" />
<path fill="#ffffff" opacity="1.00" d=" M 134.65 141.63 C 141.04 141.61 147.43 141.59 153.82 141.64 C 153.80 142.44 153.75 144.03 153.73 144.82 C 147.38 144.80 141.03 144.84 134.67 144.80 C 134.67 144.01 134.66 142.42 134.65 141.63 Z" />
<path fill="#ffffff" opacity="1.00" d=" M 162.22 141.64 C 238.23 141.59 314.24 141.60 390.25 141.63 C 390.20 197.51 390.24 253.39 390.23 309.28 C 382.16 309.23 374.09 309.49 366.03 309.13 C 363.17 302.60 359.53 296.44 356.69 289.90 C 361.37 290.37 366.07 290.14 370.77 290.14 C 370.87 246.93 370.75 203.71 370.83 160.49 C 307.78 160.51 244.73 160.47 181.68 160.51 C 181.74 203.73 181.66 246.95 181.72 290.17 C 221.85 290.26 261.98 289.99 302.11 290.30 C 294.30 305.42 287.10 320.85 278.87 335.74 C 276.57 341.86 272.90 347.29 270.19 353.23 C 267.65 358.65 264.36 363.77 262.84 369.61 C 237.60 369.60 212.36 369.64 187.12 369.60 C 187.20 363.48 187.16 357.35 187.15 351.24 C 209.83 351.23 232.51 351.24 255.19 351.23 C 255.18 337.25 255.21 323.27 255.17 309.29 C 224.28 309.32 193.38 309.28 162.48 309.31 C 162.45 275.94 162.48 242.58 162.47 209.21 C 165.94 208.54 169.28 205.87 169.21 202.07 C 169.32 185.38 169.20 168.68 169.27 151.99 C 169.46 149.10 168.32 145.80 165.53 144.54 C 164.33 143.66 161.84 143.78 162.22 141.64 Z" />
<path fill="#ffffff" opacity="1.00" d=" M 125.37 146.43 C 137.25 146.08 149.17 146.43 161.07 146.27 C 163.89 145.79 166.86 147.99 166.44 151.01 C 166.46 168.03 166.50 185.05 166.42 202.07 C 166.56 204.38 164.30 206.38 162.05 206.27 C 150.36 206.35 138.66 206.31 126.97 206.30 C 124.61 206.51 122.02 204.63 122.25 202.10 C 122.16 185.06 122.23 168.01 122.22 150.96 C 121.97 148.94 123.31 146.77 125.37 146.43 Z" />
<path fill="#e2b300" opacity="1.00" d=" M 126.23 150.31 C 133.77 149.21 141.46 150.09 149.07 149.81 C 153.54 150.10 158.20 149.07 162.52 150.56 C 162.36 167.85 162.45 185.15 162.48 202.44 C 150.45 203.03 138.38 202.61 126.34 202.65 C 126.06 185.21 126.29 167.76 126.23 150.31 Z" />
<path fill="#ffffff" opacity="1.00" d=" M 133.16 167.75 C 140.60 167.75 148.05 167.75 155.49 167.75 C 155.49 177.11 155.50 186.47 155.49 195.83 C 148.04 195.79 140.59 195.82 133.14 195.81 C 133.17 186.46 133.15 177.10 133.16 167.75 Z" />
<path fill="#ffffff" opacity="1.00" d=" M 134.70 208.87 C 141.04 208.87 147.38 208.84 153.71 208.90 C 153.80 262.46 153.67 316.03 153.78 369.59 C 147.40 369.62 141.03 369.64 134.65 369.58 C 134.74 316.01 134.64 262.44 134.70 208.87 Z" />
<path fill="#ffffff" opacity="1.00" d=" M 329.20 247.48 C 335.87 260.26 342.12 273.25 348.63 286.11 C 356.77 301.31 363.85 317.05 371.76 332.37 C 377.95 344.75 384.14 357.13 390.34 369.51 C 349.56 369.58 308.77 369.60 267.99 369.59 C 288.32 328.85 308.94 288.25 329.20 247.48 Z" />
<path fill="#e2b300" opacity="1.00" d=" M 319.38 282.27 C 325.71 282.17 332.04 282.24 338.38 282.22 C 337.39 300.70 336.89 319.23 336.28 337.74 C 331.34 337.72 326.41 337.75 321.48 337.71 C 321.58 330.43 320.86 323.19 320.64 315.93 C 320.74 304.69 319.83 293.49 319.38 282.27 Z" />
<path fill="#e2b300" opacity="1.00" d=" M 323.41 346.60 C 328.01 344.34 334.61 344.92 337.73 349.38 C 340.39 353.43 339.27 359.54 335.07 362.12 C 330.10 365.39 322.39 363.87 319.64 358.41 C 317.44 354.30 319.17 348.63 323.41 346.60 Z" />
</svg>
