<?xml version="1.0" encoding="UTF-8" ?>
<!DOCTYPE svg PUBLIC "-//W3C//DTD SVG 1.1//EN" "http://www.w3.org/Graphics/SVG/1.1/DTD/svg11.dtd">
<svg width="512pt" height="512pt" viewBox="0 0 512 512" version="1.1" xmlns="http://www.w3.org/2000/svg">
<path fill="#0072bc" opacity="1.00" d=" M 0.00 0.00 L 512.00 0.00 L 512.00 512.00 L 0.00 512.00 L 0.00 0.00 Z" />
<path fill="#ffffff" opacity="1.00" d=" M 134.65 141.63 C 141.04 141.61 147.43 141.59 153.83 141.64 C 153.80 142.44 153.75 144.03 153.73 144.83 C 147.37 144.80 141.02 144.84 134.67 144.80 C 134.66 144.00 134.65 142.42 134.65 141.63 Z" />
<path fill="#ffffff" opacity="1.00" d=" M 162.30 141.62 C 238.28 141.62 314.27 141.59 390.25 141.63 C 390.26 188.94 390.13 236.25 390.32 283.55 C 386.37 275.37 381.28 267.63 374.59 261.44 C 373.29 260.03 370.59 259.36 370.81 257.05 C 370.82 224.87 370.76 192.68 370.84 160.50 C 307.79 160.49 244.74 160.50 181.69 160.50 C 181.73 203.72 181.67 246.95 181.72 290.17 C 206.49 290.17 231.27 290.17 256.04 290.17 C 260.04 290.13 264.05 290.39 268.04 289.87 C 265.18 298.90 263.67 308.66 265.60 318.03 C 265.74 320.36 265.94 322.86 264.80 325.01 C 265.98 328.70 266.27 332.93 269.11 335.86 C 273.66 340.19 275.63 346.42 279.97 350.93 C 283.63 356.30 289.14 359.88 294.16 363.84 C 297.24 366.33 301.19 367.33 304.42 369.58 C 265.32 369.65 226.21 369.61 187.11 369.59 C 187.20 363.47 187.16 357.36 187.14 351.24 C 209.83 351.23 232.51 351.25 255.19 351.23 C 255.20 337.25 255.18 323.28 255.20 309.30 C 224.29 309.30 193.39 309.29 162.48 309.31 C 162.46 275.93 162.47 242.55 162.47 209.18 C 165.98 208.60 169.28 205.81 169.22 202.02 C 169.32 185.36 169.20 168.68 169.28 152.01 C 169.48 149.12 168.32 145.83 165.56 144.53 C 164.37 143.63 161.64 143.86 162.30 141.62 Z" />
<path fill="#ffffff" opacity="1.00" d=" M 125.32 146.44 C 137.56 146.11 149.83 146.36 162.08 146.32 C 164.63 146.08 166.78 148.56 166.45 151.05 C 166.46 168.03 166.50 185.02 166.43 202.00 C 166.59 204.34 164.34 206.38 162.06 206.28 C 150.37 206.35 138.66 206.31 126.96 206.30 C 124.60 206.52 122.02 204.62 122.25 202.09 C 122.17 185.03 122.22 167.97 122.22 150.91 C 121.97 148.91 123.32 146.81 125.32 146.44 Z" />
<path fill="#0072bc" opacity="1.00" d=" M 126.17 150.44 C 129.02 149.48 132.04 149.83 134.99 149.81 C 142.67 149.80 150.35 149.84 158.03 149.78 C 159.58 149.67 161.09 149.99 162.52 150.59 C 162.36 167.87 162.45 185.16 162.47 202.44 C 150.46 203.04 138.40 202.58 126.37 202.67 C 125.98 185.27 126.37 167.85 126.17 150.44 Z" />
<path fill="#ffffff" opacity="1.00" d=" M 133.16 167.75 C 140.60 167.76 148.05 167.75 155.49 167.75 C 155.49 177.11 155.49 186.46 155.49 195.82 C 148.04 195.79 140.59 195.81 133.14 195.81 C 133.17 186.45 133.15 177.10 133.16 167.75 Z" />
<path fill="#ffffff" opacity="1.00" d=" M 134.70 208.87 C 141.05 208.90 147.41 208.77 153.77 208.95 C 153.72 262.50 153.70 316.05 153.78 369.59 C 147.40 369.62 141.03 369.63 134.65 369.58 C 134.74 316.01 134.65 262.44 134.70 208.87 Z" />
<path fill="#ffffff" opacity="1.00" d=" M 301.00 257.01 C 314.91 249.19 331.99 247.23 347.27 251.90 C 361.33 256.25 374.14 265.50 381.63 278.30 C 388.48 289.84 391.74 303.73 389.61 317.07 C 387.80 330.97 380.98 344.22 370.55 353.61 C 360.04 363.78 345.45 369.11 330.97 369.56 C 317.24 369.58 303.46 364.96 292.72 356.36 C 285.55 350.81 280.01 343.42 275.88 335.41 C 282.35 339.43 291.25 336.13 293.92 329.13 C 299.74 340.54 311.39 348.46 323.98 350.35 C 330.74 351.04 337.77 350.84 344.17 348.35 C 356.96 343.91 367.06 332.71 370.34 319.60 C 373.10 308.37 370.83 296.13 364.70 286.38 C 358.87 277.82 349.92 271.35 339.78 269.03 C 329.12 266.71 317.45 268.25 308.19 274.21 C 294.52 282.49 286.89 299.36 289.33 315.10 C 285.89 313.30 281.73 312.76 278.03 314.00 C 274.85 315.16 272.84 318.00 270.93 320.62 C 270.06 313.71 269.86 306.68 270.77 299.77 C 273.96 282.05 285.06 265.64 301.00 257.01 Z" />
<path fill="#ffffff" opacity="1.00" d=" M 298.69 291.32 C 299.31 290.09 300.81 290.17 301.98 290.15 C 321.53 290.19 341.08 290.16 360.63 290.17 C 364.82 295.69 365.64 302.68 366.50 309.32 C 343.40 309.27 320.30 309.31 297.20 309.30 C 297.24 311.54 297.26 313.78 297.28 316.02 C 296.32 315.18 295.40 314.29 294.54 313.36 C 293.45 305.75 295.19 298.10 298.69 291.32 Z" />
<path fill="#ffffff" opacity="1.00" d=" M 355.51 369.54 C 358.84 367.96 362.10 366.27 365.30 364.44 C 365.47 366.15 365.53 367.87 365.58 369.60 C 362.22 369.59 358.86 369.71 355.51 369.54 Z" />
</svg>
