<?xml version="1.0" encoding="UTF-8" ?>
<!DOCTYPE svg PUBLIC "-//W3C//DTD SVG 1.1//EN" "http://www.w3.org/Graphics/SVG/1.1/DTD/svg11.dtd">
<svg width="512pt" height="512pt" viewBox="0 0 512 512" version="1.1" xmlns="http://www.w3.org/2000/svg">
<path fill="#e2b300" opacity="1.00" d=" M 0.00 0.00 L 512.00 0.00 L 512.00 512.00 L 0.00 512.00 L 0.00 0.00 Z" />
<path fill="#ffffff" opacity="1.00" d=" M 134.65 141.62 C 141.04 141.61 147.43 141.59 153.83 141.64 C 153.80 142.43 153.75 144.03 153.73 144.83 C 147.38 144.80 141.03 144.83 134.67 144.81 C 134.67 144.01 134.65 142.42 134.65 141.62 Z" />
<path fill="#ffffff" opacity="1.00" d=" M 161.71 141.83 C 189.81 141.33 217.93 141.75 246.04 141.61 C 294.11 141.62 342.18 141.60 390.25 141.62 C 390.21 197.51 390.24 253.40 390.24 309.28 C 382.18 309.24 374.12 309.45 366.07 309.16 C 363.10 302.73 359.76 296.49 356.65 290.13 C 361.33 290.19 366.02 290.16 370.70 290.20 C 370.95 246.97 370.70 203.73 370.83 160.49 C 307.78 160.50 244.73 160.49 181.69 160.50 C 181.73 203.72 181.68 246.95 181.71 290.17 C 221.85 290.24 262.00 290.04 302.14 290.27 C 294.44 305.15 287.34 320.34 279.27 335.03 C 274.23 346.77 266.92 357.49 262.79 369.61 C 237.57 369.60 212.34 369.63 187.12 369.60 C 187.19 363.48 187.17 357.36 187.15 351.23 C 209.83 351.24 232.51 351.24 255.19 351.23 C 255.19 337.25 255.18 323.28 255.20 309.30 C 224.29 309.31 193.38 309.29 162.47 309.31 C 162.47 275.98 162.48 242.66 162.47 209.34 C 164.42 208.46 166.73 207.84 167.96 205.94 C 169.57 203.64 169.21 200.69 169.28 198.05 C 169.13 182.01 169.43 165.96 169.15 149.93 C 169.07 145.52 164.27 144.45 161.71 141.83 Z" />
<path fill="#ffffff" opacity="1.00" d=" M 125.28 146.47 C 137.18 146.02 149.14 146.44 161.06 146.28 C 163.88 145.81 166.81 147.96 166.43 150.98 C 166.53 167.31 166.41 183.65 166.49 199.99 C 166.36 201.54 166.67 203.36 165.54 204.63 C 164.02 206.65 161.22 206.25 159.00 206.34 C 148.31 206.23 137.63 206.40 126.95 206.28 C 124.55 206.49 122.02 204.60 122.27 202.05 C 122.15 185.04 122.22 168.03 122.23 151.02 C 122.02 149.03 123.19 146.83 125.28 146.47 Z" />
<path fill="#e2b300" opacity="1.00" d=" M 126.25 150.23 C 132.48 149.48 138.76 149.92 145.01 149.81 C 150.83 149.93 156.69 149.39 162.46 150.34 C 162.40 167.74 162.47 185.14 162.43 202.55 C 150.39 202.87 138.34 202.70 126.30 202.64 C 126.13 185.17 126.22 167.70 126.25 150.23 Z" />
<path fill="#ffffff" opacity="1.00" d=" M 133.15 167.75 C 140.60 167.76 148.05 167.75 155.49 167.75 C 155.49 177.11 155.49 186.46 155.49 195.82 C 148.04 195.79 140.59 195.81 133.14 195.81 C 133.17 186.46 133.15 177.10 133.15 167.75 Z" />
<path fill="#ffffff" opacity="1.00" d=" M 134.69 208.87 C 141.03 208.86 147.37 208.87 153.71 208.86 C 153.80 262.44 153.67 316.02 153.77 369.60 C 147.40 369.61 141.03 369.63 134.66 369.59 C 134.73 316.02 134.66 262.45 134.69 208.87 Z" />
<path fill="#ffffff" opacity="1.00" d=" M 329.24 247.38 C 337.50 263.61 345.39 280.02 353.85 296.15 C 365.84 320.69 378.09 345.11 390.39 369.51 C 349.59 369.58 308.79 369.60 267.99 369.59 C 288.32 328.81 308.99 288.20 329.24 247.38 Z" />
<path fill="#e2b300" opacity="1.00" d=" M 319.40 282.24 C 325.74 282.21 332.08 282.23 338.42 282.22 C 337.34 300.70 336.92 319.23 336.28 337.73 C 331.35 337.72 326.42 337.74 321.48 337.72 C 321.56 327.80 320.33 317.92 320.60 307.99 C 320.21 299.41 319.81 290.82 319.40 282.24 Z" />
<path fill="#e2b300" opacity="1.00" d=" M 323.47 346.56 C 327.44 344.70 332.80 344.77 336.24 347.76 C 340.23 351.04 340.09 357.94 336.18 361.25 C 331.54 365.44 323.16 364.42 319.94 358.95 C 317.29 354.80 318.99 348.67 323.47 346.56 Z" />
</svg>
