<?xml version="1.0" encoding="UTF-8" ?>
<!DOCTYPE svg PUBLIC "-//W3C//DTD SVG 1.1//EN" "http://www.w3.org/Graphics/SVG/1.1/DTD/svg11.dtd">
<svg width="512pt" height="512pt" viewBox="0 0 512 512" version="1.1" xmlns="http://www.w3.org/2000/svg">
<path fill="#f58d00" opacity="1.00" d=" M 0.00 0.00 L 512.00 0.00 L 512.00 512.00 L 0.00 512.00 L 0.00 0.00 Z" />
<path fill="#ffffff" opacity="1.00" d=" M 290.07 131.64 C 294.65 130.26 299.39 131.02 304.06 131.32 C 314.29 131.66 324.20 134.55 333.98 137.34 C 343.44 139.93 352.25 144.94 359.28 151.80 C 365.91 158.76 371.31 166.84 375.32 175.57 C 375.86 167.69 373.06 160.25 370.89 152.84 C 373.92 155.36 375.92 158.82 377.57 162.35 C 381.14 170.01 384.69 177.79 386.36 186.13 C 388.29 195.77 390.25 205.41 391.51 215.16 C 392.29 219.15 392.27 223.29 393.56 227.17 C 395.11 222.22 394.60 216.83 396.46 211.96 C 398.02 230.42 395.23 248.97 391.87 267.11 C 385.35 297.65 371.22 327.54 347.38 348.33 C 326.34 366.90 298.82 376.83 271.16 379.67 C 265.49 380.59 259.71 380.24 254.02 381.03 C 234.14 380.26 214.17 376.55 196.13 367.88 C 181.48 360.31 167.54 350.80 156.85 338.11 C 138.90 317.33 129.08 290.26 127.13 263.05 C 126.75 260.17 126.80 257.26 126.99 254.37 C 123.56 259.32 121.20 264.88 118.42 270.19 C 118.44 253.45 122.70 237.13 125.79 220.78 C 122.17 225.09 119.59 230.14 116.12 234.56 C 118.31 221.87 121.89 209.40 126.71 197.45 C 128.59 192.69 131.11 188.17 134.32 184.18 C 133.47 177.57 134.23 170.97 134.65 164.36 C 136.46 153.63 140.00 142.59 148.19 134.96 C 149.01 144.84 154.76 153.63 161.91 160.18 C 165.18 161.53 168.91 160.62 172.33 160.24 C 180.32 159.02 188.58 159.59 196.40 161.63 C 203.99 152.99 215.09 148.54 226.10 146.20 C 228.75 145.53 231.50 145.53 234.23 145.64 C 224.18 151.32 216.19 161.41 214.80 173.01 C 217.49 178.37 221.70 183.95 227.93 185.18 C 235.56 186.07 243.30 184.89 250.93 185.89 C 253.23 186.52 252.92 189.27 252.72 191.11 C 252.45 194.83 250.20 198.13 247.11 200.13 C 239.42 205.37 230.49 209.23 224.57 216.69 C 226.35 222.85 227.76 229.22 227.13 235.68 C 223.07 234.36 219.19 232.40 214.96 231.65 C 208.93 232.84 203.58 238.64 204.42 245.03 C 205.27 251.12 209.70 255.99 214.56 259.43 C 221.71 264.69 230.71 268.86 239.78 266.88 C 248.20 265.49 255.31 259.69 263.95 259.27 C 271.61 258.57 279.22 262.03 284.65 267.29 C 286.66 269.05 287.96 272.65 285.78 274.75 C 282.90 277.85 278.38 275.11 274.98 276.95 C 266.69 280.58 260.49 287.86 251.82 290.78 C 241.65 294.13 230.64 295.70 220.02 293.72 C 230.55 301.60 242.07 308.39 254.57 312.59 C 266.83 316.61 280.55 316.77 292.49 311.59 C 303.70 307.02 312.77 298.49 320.20 289.13 C 323.29 285.34 325.67 281.03 328.75 277.23 C 328.11 284.30 325.67 291.05 324.34 297.98 C 324.41 298.46 324.55 299.42 324.62 299.90 C 332.73 293.33 336.08 282.89 337.80 272.96 C 340.30 261.64 339.57 249.97 339.12 238.48 C 343.46 241.21 346.68 245.32 348.26 250.22 C 351.25 243.18 351.62 235.40 352.40 227.88 C 352.78 216.87 352.96 205.60 349.70 194.94 C 355.50 197.53 358.96 203.14 362.39 208.19 C 359.42 194.43 352.83 181.25 342.59 171.45 C 331.09 160.21 316.11 152.76 300.34 149.80 C 309.31 146.64 318.92 146.76 328.23 145.46 C 323.43 140.60 316.52 138.89 310.25 136.75 C 303.68 134.44 296.73 133.59 290.07 131.64 Z" />
</svg>
