<?xml version="1.0" encoding="UTF-8" ?>
<!DOCTYPE svg PUBLIC "-//W3C//DTD SVG 1.1//EN" "http://www.w3.org/Graphics/SVG/1.1/DTD/svg11.dtd">
<svg width="512pt" height="512pt" viewBox="0 0 512 512" version="1.1" xmlns="http://www.w3.org/2000/svg">
<path fill="#5fadf5" opacity="1.00" d=" M 0.00 0.00 L 512.00 0.00 L 512.00 512.00 L 0.00 512.00 L 0.00 0.00 Z" />
<path fill="#ffffff" opacity="1.00" d=" M 168.93 150.32 C 190.67 132.52 217.92 121.39 246.01 119.56 C 253.01 119.42 260.02 119.37 267.02 119.61 C 297.21 121.92 326.51 134.70 348.68 155.33 C 362.71 168.14 373.84 183.96 381.59 201.28 C 342.07 201.29 302.55 201.29 263.03 201.29 C 257.01 201.32 250.92 200.96 245.01 202.37 C 231.18 205.11 218.74 213.58 210.75 225.17 C 197.56 202.23 184.96 178.96 171.85 155.97 C 170.79 154.13 169.84 152.23 168.93 150.32 Z" />
<path fill="#ffffff" opacity="1.00" d=" M 119.47 258.06 C 118.05 218.43 135.97 178.76 166.05 153.05 C 178.19 191.98 190.26 230.94 202.20 269.93 C 203.32 274.57 206.20 278.45 208.23 282.70 C 216.27 297.52 231.54 307.54 248.01 310.42 C 233.25 334.42 218.72 358.56 204.08 382.63 C 172.59 369.85 146.34 344.79 132.01 313.99 C 123.98 296.52 119.12 277.35 119.47 258.06 Z" />
<path fill="#ffffff" opacity="1.00" d=" M 298.27 221.04 C 326.61 215.99 354.91 210.75 383.24 205.62 C 388.19 217.86 391.08 230.83 392.40 243.94 C 394.52 255.62 392.62 267.43 390.93 279.02 C 386.01 308.14 371.37 335.52 349.75 355.66 C 330.70 373.75 306.27 386.02 280.42 390.65 C 270.71 392.14 260.92 393.84 251.05 393.21 C 237.45 391.88 223.78 389.89 210.88 385.19 C 236.57 357.44 262.19 329.62 287.87 301.87 C 291.51 297.85 295.62 294.26 298.94 289.95 C 306.96 279.87 311.27 266.89 310.72 254.01 C 310.42 242.01 305.69 230.40 298.27 221.04 Z" />
<path fill="#ffffff" opacity="1.00" d=" M 247.54 213.68 C 254.98 212.93 262.83 212.54 269.96 215.27 C 282.47 219.55 292.66 229.93 296.74 242.50 C 299.38 252.61 299.86 263.83 295.28 273.48 C 289.69 286.13 277.50 295.74 263.90 298.25 C 251.41 300.85 237.90 297.07 228.20 288.86 C 220.49 282.96 215.87 273.74 213.80 264.41 C 212.59 254.78 213.13 244.42 218.06 235.81 C 223.71 224.36 235.13 216.23 247.54 213.68 Z" />
</svg>
