<?xml version="1.0" encoding="UTF-8" ?>
<!DOCTYPE svg PUBLIC "-//W3C//DTD SVG 1.1//EN" "http://www.w3.org/Graphics/SVG/1.1/DTD/svg11.dtd">
<svg width="512pt" height="512pt" viewBox="0 0 512 512" version="1.1" xmlns="http://www.w3.org/2000/svg">
<path fill="#ce4e4e" opacity="1.00" d=" M 0.00 0.00 L 512.00 0.00 L 512.00 512.00 L 0.00 512.00 L 0.00 0.00 Z" />
<path fill="#ffffff" opacity="1.00" d=" M 168.14 149.72 C 191.17 130.33 220.90 119.09 250.98 118.16 C 275.87 117.16 301.00 123.11 322.77 135.25 C 349.18 149.73 370.36 173.23 382.56 200.73 C 340.04 200.70 297.52 200.72 255.01 200.72 C 237.31 201.06 220.19 210.36 210.21 224.97 C 196.33 199.81 182.21 174.77 168.14 149.72 Z" />
<path fill="#ffffff" opacity="1.00" d=" M 129.34 201.23 C 137.38 182.41 149.88 165.64 165.16 152.08 C 177.40 190.27 188.91 228.70 200.84 266.99 C 201.90 272.06 204.80 276.38 206.85 281.06 C 214.63 296.93 230.62 308.04 247.99 310.72 C 234.76 332.28 221.73 353.96 208.58 375.58 C 206.86 378.33 205.39 381.25 203.28 383.74 C 187.16 376.60 171.96 367.07 159.46 354.54 C 137.27 333.00 122.73 303.72 119.06 273.01 C 116.17 248.74 119.46 223.64 129.34 201.23 Z" />
<path fill="#ffffff" opacity="1.00" d=" M 298.48 220.91 C 327.08 215.60 355.73 210.52 384.34 205.23 C 393.42 227.84 395.98 252.89 392.41 276.95 C 388.14 305.27 374.70 332.16 354.55 352.52 C 337.75 369.84 316.23 382.50 292.99 388.97 C 266.06 396.38 236.82 395.59 210.46 386.24 C 237.60 357.11 264.45 327.70 291.59 298.57 C 301.03 290.03 308.06 278.62 310.30 266.00 C 313.37 250.24 308.89 233.13 298.48 220.91 Z" />
<path fill="#ffffff" opacity="1.00" d=" M 254.19 213.10 C 262.44 212.61 270.86 214.81 278.01 218.95 C 291.32 226.51 300.20 241.58 299.63 256.96 C 299.60 275.89 285.38 293.50 267.05 297.95 C 254.14 301.37 239.73 298.12 229.48 289.58 C 221.57 283.21 215.93 274.00 214.16 263.98 C 211.31 250.18 216.29 235.11 226.55 225.51 C 233.77 218.05 243.88 213.76 254.19 213.10 Z" />
</svg>
