<?xml version="1.0" encoding="UTF-8" ?>
<!DOCTYPE svg PUBLIC "-//W3C//DTD SVG 1.1//EN" "http://www.w3.org/Graphics/SVG/1.1/DTD/svg11.dtd">
<svg width="512pt" height="512pt" viewBox="0 0 512 512" version="1.1" xmlns="http://www.w3.org/2000/svg">
<path fill="#086ba6" opacity="1.00" d=" M 0.00 0.00 L 512.00 0.00 L 512.00 512.00 L 0.00 512.00 L 0.00 0.00 Z" />
<path fill="#ffffff" opacity="1.00" d=" M 129.28 157.07 C 213.50 157.10 297.71 157.07 381.92 157.08 C 381.92 223.03 381.92 288.97 381.92 354.92 C 360.18 354.93 338.44 354.90 316.70 354.93 C 316.69 311.62 316.70 268.31 316.69 225.00 C 316.67 223.92 316.61 222.85 316.50 221.78 C 279.00 221.99 241.51 221.79 204.01 221.86 C 200.88 221.99 197.66 221.42 194.61 222.38 C 194.88 266.56 194.65 310.75 194.73 354.94 C 172.92 354.90 151.10 354.91 129.28 354.93 C 129.28 288.98 129.27 223.02 129.28 157.07 Z" />
<path fill="#ffffff" opacity="1.00" d=" M 222.65 251.49 C 244.53 251.45 266.41 251.45 288.30 251.49 C 288.27 285.95 288.27 320.42 288.30 354.89 C 266.42 354.94 244.54 354.92 222.66 354.90 C 222.68 320.43 222.70 285.96 222.65 251.49 Z" />
</svg>
