<?xml version="1.0" encoding="UTF-8" ?>
<!DOCTYPE svg PUBLIC "-//W3C//DTD SVG 1.1//EN" "http://www.w3.org/Graphics/SVG/1.1/DTD/svg11.dtd">
<svg width="512pt" height="512pt" viewBox="0 0 512 512" version="1.1" xmlns="http://www.w3.org/2000/svg">
<path fill="#00a9ec" opacity="1.00" d=" M 0.00 0.00 L 512.00 0.00 L 512.00 512.00 L 0.00 512.00 L 0.00 0.00 Z" />
<path fill="#ffffff" opacity="1.00" d=" M 207.23 116.22 C 216.09 108.53 229.77 107.24 239.92 113.13 C 246.09 116.65 250.93 122.47 253.11 129.26 C 270.24 128.95 287.45 131.64 303.54 137.59 C 333.70 148.56 359.67 170.58 375.40 198.56 C 387.54 219.56 393.16 243.90 393.31 268.03 C 392.55 275.37 392.33 282.76 390.84 290.01 C 386.07 316.65 372.99 341.68 354.02 360.95 C 333.75 381.64 306.76 395.67 278.12 400.11 C 256.00 403.53 232.99 401.77 211.81 394.39 C 184.96 385.19 161.17 367.33 144.81 344.13 C 129.89 323.10 121.07 297.75 120.05 271.97 C 119.34 267.68 119.42 263.35 120.07 259.06 C 121.18 229.94 132.36 201.41 150.94 178.99 C 163.50 163.58 179.65 151.29 197.44 142.48 C 195.94 132.79 199.64 122.49 207.23 116.22 Z" />
<path fill="#00a9ec" opacity="1.00" d=" M 208.13 137.92 C 208.21 130.63 213.17 123.73 220.10 121.44 C 227.70 118.55 236.87 122.16 240.87 129.12 C 240.85 129.38 240.82 129.89 240.80 130.15 C 229.64 131.41 218.70 134.17 208.13 137.92 Z" />
<path fill="#00a9ec" opacity="1.00" d=" M 241.23 166.81 C 262.43 163.34 284.69 167.26 303.61 177.36 C 328.58 190.60 347.66 214.85 353.84 242.50 C 349.78 244.36 345.61 246.03 341.81 248.41 C 346.27 249.33 350.83 249.42 355.36 249.59 C 358.53 269.56 355.70 290.52 346.81 308.72 C 334.04 335.64 308.60 356.25 279.49 362.80 C 277.72 358.70 275.89 354.63 273.80 350.69 C 272.85 355.16 272.64 359.73 272.41 364.28 C 256.24 366.79 239.41 365.55 223.95 360.11 C 197.90 351.38 175.95 331.27 164.88 306.13 C 162.50 300.42 159.88 294.47 159.26 288.32 C 163.13 286.01 167.68 285.02 171.37 282.38 C 166.76 282.07 162.12 282.54 157.52 281.93 C 154.60 262.75 156.79 242.63 164.92 224.92 C 177.44 196.50 204.03 174.40 234.55 168.18 C 236.85 172.59 238.42 177.41 241.30 181.50 C 241.40 176.60 241.35 171.70 241.23 166.81 Z" />
<path fill="#ffffff" opacity="1.00" d=" M 314.23 201.23 C 315.23 200.37 316.36 199.71 317.60 199.25 C 317.10 200.50 316.50 201.69 315.78 202.82 C 305.57 217.48 295.37 232.16 285.22 246.86 C 286.16 248.48 287.01 250.17 288.14 251.67 C 299.92 252.13 311.73 251.39 323.50 251.77 C 312.67 257.01 301.73 262.02 290.84 267.15 C 290.70 271.54 289.31 275.72 287.92 279.84 C 291.97 284.22 296.33 288.33 300.12 292.95 C 294.29 291.46 288.97 288.53 283.15 287.02 C 279.72 291.11 275.41 294.37 270.61 296.70 C 270.14 306.69 270.33 316.71 270.14 326.71 C 269.80 326.74 269.11 326.81 268.76 326.84 C 264.67 317.70 260.25 308.72 256.04 299.65 C 251.70 299.22 247.33 298.58 243.31 296.81 C 242.18 296.49 240.73 295.48 239.71 296.58 C 225.92 308.18 212.11 319.76 198.33 331.37 C 197.45 332.04 196.55 332.65 195.60 333.22 C 195.74 332.75 196.01 331.81 196.15 331.34 C 207.00 315.94 218.06 300.67 228.80 285.19 C 227.50 283.33 226.30 281.41 225.18 279.44 C 214.03 279.31 202.87 279.50 191.71 279.32 C 193.45 277.29 196.10 276.54 198.38 275.32 C 206.38 271.28 214.49 267.45 222.42 263.28 C 222.98 257.93 224.47 252.65 227.25 248.02 C 224.43 245.20 221.54 242.46 218.82 239.55 C 223.16 239.08 227.06 241.73 231.16 242.77 C 234.06 239.45 237.96 237.33 241.41 234.73 C 242.89 224.02 243.68 213.20 244.92 202.45 C 245.78 203.46 246.64 204.50 247.23 205.70 C 251.35 213.94 255.63 222.10 259.77 230.32 C 260.23 231.96 262.09 231.96 263.45 232.34 C 267.13 232.91 270.49 234.54 273.88 236.00 C 287.25 224.32 300.85 212.90 314.23 201.23 Z" />
<path fill="#00a9ec" opacity="1.00" d=" M 238.88 243.78 C 247.17 236.88 259.14 235.90 268.91 240.06 C 262.17 246.29 254.87 251.90 248.17 258.17 C 242.87 265.38 237.71 272.70 232.64 280.07 C 224.87 268.79 228.10 251.99 238.88 243.78 Z" />
<path fill="#00a9ec" opacity="1.00" d=" M 265.63 274.62 C 271.44 267.49 275.96 259.37 281.74 252.20 C 285.66 260.41 286.10 270.51 281.66 278.60 C 275.33 291.11 258.68 297.33 245.91 291.28 C 252.51 285.77 259.24 280.38 265.63 274.62 Z" />
</svg>
