<?xml version="1.0" encoding="UTF-8" ?>
<!DOCTYPE svg PUBLIC "-//W3C//DTD SVG 1.1//EN" "http://www.w3.org/Graphics/SVG/1.1/DTD/svg11.dtd">
<svg width="512pt" height="512pt" viewBox="0 0 512 512" version="1.1" xmlns="http://www.w3.org/2000/svg">
<path fill="#4c4344" opacity="1.00" d=" M 0.00 0.00 L 512.00 0.00 L 512.00 512.00 L 0.00 512.00 L 0.00 0.00 Z" />
<path fill="#ffffff" opacity="1.00" d=" M 141.61 168.61 C 176.50 168.64 211.39 168.60 246.28 168.63 C 246.28 175.61 246.24 182.59 246.30 189.56 C 219.16 189.70 192.01 189.54 164.87 189.65 C 165.04 205.87 164.56 222.13 165.21 238.34 C 191.05 238.18 216.90 238.29 242.75 238.29 C 242.71 245.25 242.70 252.21 242.75 259.17 C 216.83 259.21 190.91 259.17 165.00 259.19 C 164.83 275.80 164.79 292.42 165.11 309.02 C 164.78 315.67 164.78 322.33 165.06 328.98 C 164.96 333.71 164.70 338.44 165.16 343.17 C 157.31 343.20 149.45 343.18 141.60 343.18 C 141.63 284.99 141.61 226.80 141.61 168.61 Z" />
<path fill="#ffffff" opacity="1.00" d=" M 264.34 343.10 C 264.52 291.61 264.39 240.11 264.41 188.62 C 283.94 188.74 303.49 188.26 323.00 189.18 C 333.35 189.40 343.94 192.31 352.01 199.01 C 359.17 205.08 362.21 214.85 361.76 224.03 C 362.05 233.69 357.49 243.10 350.46 249.58 C 347.37 252.65 343.40 254.51 339.92 257.07 C 349.67 259.52 358.72 265.44 363.83 274.24 C 369.26 283.22 369.63 294.18 368.48 304.33 C 366.52 317.44 357.91 328.98 346.36 335.31 C 334.31 342.61 319.78 343.45 306.05 343.18 C 292.15 343.13 278.24 343.30 264.34 343.10 Z" />
<path fill="#4c4344" opacity="1.00" d=" M 284.96 206.39 C 292.62 206.40 300.28 206.31 307.94 206.54 C 316.63 206.59 326.06 206.31 333.63 211.27 C 338.79 214.60 340.41 221.21 340.27 226.99 C 340.16 233.10 339.03 239.95 334.13 244.15 C 329.90 247.79 324.50 250.24 318.89 250.60 C 307.58 251.65 296.21 251.02 284.87 251.17 C 284.96 236.25 284.79 221.31 284.96 206.39 Z" />
<path fill="#4c4344" opacity="1.00" d=" M 284.85 268.83 C 298.57 268.92 312.34 268.35 326.01 269.83 C 333.63 271.37 341.73 275.34 345.17 282.72 C 347.76 289.49 348.11 297.06 346.80 304.15 C 345.55 311.48 339.95 317.21 333.65 320.68 C 327.04 324.25 319.39 324.89 312.03 325.34 C 303.02 325.56 294.00 325.67 284.99 325.62 C 284.75 306.69 285.02 287.76 284.85 268.83 Z" />
</svg>
