<?xml version="1.0" encoding="UTF-8" ?>
<!DOCTYPE svg PUBLIC "-//W3C//DTD SVG 1.1//EN" "http://www.w3.org/Graphics/SVG/1.1/DTD/svg11.dtd">
<svg width="512pt" height="512pt" viewBox="0 0 512 512" version="1.1" xmlns="http://www.w3.org/2000/svg">
<path fill="#8d8183" opacity="1.00" d=" M 0.00 0.00 L 512.00 0.00 L 512.00 512.00 L 0.00 512.00 L 0.00 0.00 Z" />
<path fill="#ffffff" opacity="1.00" d=" M 148.82 167.11 C 157.19 166.91 165.56 167.20 173.93 166.90 C 200.44 167.48 226.97 166.83 253.47 167.05 C 253.41 174.05 253.48 181.05 253.43 188.05 C 226.37 188.00 199.31 187.97 172.25 187.98 C 172.20 204.19 172.24 220.40 172.22 236.62 C 198.09 236.62 223.95 236.63 249.81 236.61 C 250.37 243.42 249.65 250.22 250.11 257.03 C 249.19 258.13 247.32 257.37 246.05 257.64 C 221.43 257.58 196.81 257.61 172.19 257.63 C 172.33 285.58 172.11 313.54 172.30 341.50 C 164.51 341.79 156.70 341.48 148.91 341.66 C 148.70 283.48 148.87 225.30 148.82 167.11 Z" />
<path fill="#ffffff" opacity="1.00" d=" M 312.95 208.76 C 330.04 205.88 347.46 210.32 362.73 217.97 C 362.76 226.42 362.62 234.88 362.81 243.34 C 361.22 243.14 359.90 242.24 358.69 241.27 C 349.61 234.05 338.69 228.75 327.07 227.46 C 316.23 226.33 304.79 230.21 297.60 238.57 C 289.00 248.17 286.28 261.40 285.82 273.92 C 285.64 286.08 287.13 298.87 293.68 309.41 C 297.99 316.54 304.97 322.08 313.09 324.16 C 325.32 327.43 338.60 324.64 349.37 318.28 C 354.06 315.75 358.03 312.17 362.28 309.00 C 363.29 317.46 362.46 326.07 362.70 334.59 C 353.13 339.36 342.96 342.97 332.36 344.54 C 315.57 346.03 297.34 343.19 284.05 332.11 C 271.20 321.52 264.96 304.94 263.39 288.75 C 261.34 269.32 263.70 248.45 274.91 231.95 C 283.34 219.03 297.83 210.89 312.95 208.76 Z" />
</svg>
