<?xml version="1.0" encoding="UTF-8" ?>
<!DOCTYPE svg PUBLIC "-//W3C//DTD SVG 1.1//EN" "http://www.w3.org/Graphics/SVG/1.1/DTD/svg11.dtd">
<svg width="512pt" height="512pt" viewBox="0 0 512 512" version="1.1" xmlns="http://www.w3.org/2000/svg">
<path fill="#7b9905" opacity="1.00" d=" M 0.00 0.00 L 512.00 0.00 L 512.00 512.00 L 0.00 512.00 L 0.00 0.00 Z" />
<path fill="#ffffff" opacity="1.00" d=" M 95.97 168.63 C 114.48 168.75 133.03 168.23 151.51 169.18 C 170.19 169.88 189.41 174.81 204.17 186.72 C 219.37 198.75 229.08 216.88 232.16 235.90 C 235.31 255.47 234.25 276.20 226.34 294.57 C 219.14 311.63 206.17 326.62 189.14 334.35 C 175.21 341.39 159.36 342.77 144.01 343.20 C 127.99 343.16 111.98 343.20 95.96 343.18 C 96.03 284.99 96.03 226.81 95.97 168.63 Z" />
<path fill="#7b9905" opacity="1.00" d=" M 119.36 188.82 C 131.20 188.77 143.08 188.71 154.88 189.88 C 171.57 191.93 188.49 199.57 198.23 213.75 C 208.44 228.59 210.38 247.44 209.14 264.98 C 208.03 279.73 203.37 294.95 192.52 305.50 C 184.28 313.59 173.51 318.89 162.20 321.04 C 148.11 323.62 133.71 323.07 119.46 323.24 C 119.27 278.44 119.47 233.63 119.36 188.82 Z" />
<path fill="#ffffff" opacity="1.00" d=" M 277.74 343.18 C 266.48 299.40 255.28 255.60 244.18 211.77 C 251.88 211.76 259.59 211.77 267.29 211.76 C 273.51 238.47 279.44 265.25 285.60 291.98 C 286.93 299.04 289.21 305.92 290.04 313.08 C 294.09 302.45 296.80 291.37 300.35 280.57 C 307.41 257.64 314.24 234.62 321.48 211.75 C 327.51 211.79 333.54 211.77 339.57 211.76 C 350.23 245.47 360.93 279.18 371.26 312.99 C 379.03 279.35 385.66 245.43 393.28 211.75 C 400.71 211.79 408.15 211.76 415.58 211.77 C 404.53 255.58 393.47 299.39 382.35 343.19 C 375.48 343.18 368.61 343.19 361.75 343.18 C 351.13 309.58 340.30 276.05 329.98 242.37 C 319.25 275.93 308.87 309.59 298.22 343.18 C 291.39 343.19 284.57 343.19 277.74 343.18 Z" />
</svg>
