<?xml version="1.0" encoding="UTF-8" ?>
<!DOCTYPE svg PUBLIC "-//W3C//DTD SVG 1.1//EN" "http://www.w3.org/Graphics/SVG/1.1/DTD/svg11.dtd">
<svg width="512pt" height="512pt" viewBox="0 0 512 512" version="1.1" xmlns="http://www.w3.org/2000/svg">
<path fill="#5143a9" opacity="1.00" d=" M 0.00 0.00 L 512.00 0.00 L 512.00 512.00 L 0.00 512.00 L 0.00 0.00 Z" />
<path fill="#ffffff" opacity="1.00" d=" M 167.36 191.39 C 179.07 176.52 197.13 167.05 215.92 165.28 C 238.19 162.84 261.01 168.15 280.29 179.47 C 280.15 188.77 280.28 198.06 280.22 207.36 C 277.64 207.39 275.96 205.30 274.12 203.83 C 262.21 193.29 247.02 185.90 230.98 185.06 C 214.58 183.42 197.61 190.39 187.37 203.37 C 176.83 216.60 172.90 233.86 172.12 250.45 C 171.16 270.24 174.35 291.29 186.57 307.48 C 194.55 318.47 207.41 325.66 220.94 326.81 C 239.85 328.64 258.94 321.56 273.22 309.27 C 275.52 307.67 277.14 304.66 280.22 304.64 C 280.25 313.88 280.20 323.12 280.25 332.36 C 263.73 340.70 245.78 347.83 226.96 347.20 C 208.66 347.73 189.78 342.35 175.76 330.29 C 162.39 319.07 154.46 302.63 150.62 285.86 C 147.36 270.19 146.71 253.98 148.69 238.10 C 150.54 221.25 156.62 204.63 167.36 191.39 Z" />
<path fill="#ffffff" opacity="1.00" d=" M 301.25 174.28 C 308.64 174.27 316.02 174.24 323.41 174.30 C 323.35 186.79 323.40 199.28 323.38 211.77 C 336.91 211.77 350.43 211.77 363.96 211.77 C 364.05 217.97 363.96 224.17 364.04 230.37 C 350.48 230.41 336.92 230.36 323.36 230.40 C 323.43 252.29 323.33 274.18 323.41 296.07 C 323.76 304.10 322.85 312.77 327.14 319.99 C 330.02 324.72 335.69 326.61 340.97 326.90 C 348.88 328.05 356.49 325.25 363.89 322.91 C 364.04 329.58 364.09 336.26 363.86 342.93 C 352.84 345.79 341.27 347.57 329.93 345.71 C 320.77 344.13 311.91 338.98 307.21 330.79 C 301.95 321.83 301.14 311.17 301.27 301.01 C 301.31 277.48 301.24 253.96 301.31 230.44 C 296.33 230.33 291.35 230.41 286.37 230.38 C 286.42 224.17 286.32 217.96 286.44 211.75 C 291.38 211.78 296.33 211.79 301.28 211.74 C 301.26 199.25 301.31 186.77 301.25 174.28 Z" />
</svg>
