<?xml version="1.0" encoding="UTF-8" ?>
<!DOCTYPE svg PUBLIC "-//W3C//DTD SVG 1.1//EN" "http://www.w3.org/Graphics/SVG/1.1/DTD/svg11.dtd">
<svg width="512pt" height="512pt" viewBox="0 0 512 512" version="1.1" xmlns="http://www.w3.org/2000/svg">
<path fill="#da7a28" opacity="1.00" d=" M 0.00 0.00 L 512.00 0.00 L 512.00 512.00 L 0.00 512.00 L 0.00 0.00 Z" />
<path fill="#ffffff" opacity="1.00" d=" M 323.59 167.78 C 331.99 167.77 340.39 167.77 348.80 167.78 C 348.85 175.57 348.77 183.37 348.84 191.17 C 340.42 191.20 331.99 191.19 323.56 191.18 C 323.59 183.38 323.55 175.58 323.59 167.78 Z" />
<path fill="#ffffff" opacity="1.00" d=" M 222.39 169.43 C 231.99 169.54 241.60 169.28 251.19 169.56 C 270.76 227.69 290.38 285.79 310.00 343.89 C 301.74 344.14 293.46 344.04 285.20 343.89 C 279.98 327.66 274.62 311.47 269.48 295.22 C 247.32 295.16 225.16 295.18 203.01 295.21 C 197.74 311.47 192.49 327.74 187.14 343.98 C 179.26 344.14 171.37 343.85 163.49 344.04 C 183.11 285.83 202.73 227.63 222.39 169.43 Z" />
<path fill="#da7a28" opacity="1.00" d=" M 236.12 193.75 C 245.14 220.85 254.02 248.01 262.87 275.17 C 245.06 275.21 227.26 275.17 209.46 275.19 C 218.46 248.08 227.25 220.90 236.12 193.75 Z" />
<path fill="#ffffff" opacity="1.00" d=" M 325.18 212.75 C 332.58 212.45 339.98 212.70 347.38 212.62 C 347.36 256.43 347.41 300.23 347.36 344.04 C 339.99 343.87 332.63 344.11 325.26 343.95 C 325.23 300.22 325.40 256.48 325.18 212.75 Z" />
</svg>
