<?xml version="1.0" encoding="UTF-8" ?>
<!DOCTYPE svg PUBLIC "-//W3C//DTD SVG 1.1//EN" "http://www.w3.org/Graphics/SVG/1.1/DTD/svg11.dtd">
<svg width="512pt" height="512pt" viewBox="0 0 512 512" version="1.1" xmlns="http://www.w3.org/2000/svg">
<path fill="#276388" opacity="1.00" d=" M 0.00 0.00 L 512.00 0.00 L 512.00 512.00 L 0.00 512.00 L 0.00 0.00 Z" />
<path fill="#ffffff" opacity="1.00" d=" M 221.30 132.11 C 234.02 127.58 247.89 126.36 261.16 128.96 C 258.91 131.48 255.94 133.16 253.36 135.30 C 228.48 155.05 209.59 181.66 196.69 210.53 C 183.34 240.76 176.22 273.92 177.28 307.02 C 177.53 326.57 181.41 345.96 187.76 364.42 C 172.41 357.88 159.88 345.76 151.67 331.36 C 139.56 310.50 135.38 285.86 136.46 261.98 C 138.24 228.27 150.47 195.00 171.67 168.65 C 184.79 152.60 201.59 139.04 221.30 132.11 Z" />
<path fill="#ffffff" opacity="1.00" d=" M 320.93 241.90 C 323.81 204.88 312.53 167.12 290.23 137.47 C 316.89 146.01 340.46 163.88 355.51 187.54 C 368.79 208.07 375.98 232.52 375.73 256.98 C 375.79 286.21 365.39 315.30 346.98 337.98 C 327.90 361.70 299.92 378.19 269.81 382.90 C 251.46 385.97 232.45 384.39 214.71 378.91 C 231.61 373.14 247.73 364.90 261.75 353.78 C 263.91 352.16 265.76 349.89 268.55 349.37 C 278.61 346.67 288.48 342.30 296.30 335.29 C 303.31 328.57 301.60 317.67 300.33 309.03 C 312.19 288.61 319.19 265.43 320.93 241.90 Z" />
<path fill="#ffffff" opacity="1.00" d=" M 215.44 198.42 C 230.08 189.53 248.22 187.43 264.86 190.66 C 273.70 192.51 282.36 195.95 289.47 201.61 C 292.02 203.67 294.55 206.41 294.54 209.90 C 294.66 214.52 295.27 219.46 293.19 223.76 C 289.96 223.18 287.80 220.57 285.25 218.77 C 275.47 211.29 263.56 205.85 251.03 206.24 C 239.52 205.73 227.66 210.29 220.37 219.40 C 209.87 231.99 207.43 249.03 206.94 264.89 C 206.79 278.33 207.88 292.17 213.39 304.61 C 216.93 312.77 222.94 320.10 230.97 324.14 C 239.48 328.61 249.45 329.31 258.85 328.15 C 268.48 326.60 277.26 321.76 285.06 316.10 C 288.06 313.88 290.89 311.41 294.11 309.52 C 295.84 314.51 295.50 319.88 295.18 325.06 C 294.90 328.98 291.75 331.67 288.79 333.79 C 277.42 341.56 263.73 345.61 250.04 346.29 C 233.92 346.76 216.79 342.63 204.99 331.05 C 191.66 318.07 186.44 299.09 185.02 281.03 C 183.94 274.66 185.46 268.32 186.60 262.08 C 189.82 244.67 195.25 227.70 202.48 211.55 C 204.63 205.48 210.34 201.83 215.44 198.42 Z" />
</svg>
