<?xml version="1.0" encoding="UTF-8" ?>
<!DOCTYPE svg PUBLIC "-//W3C//DTD SVG 1.1//EN" "http://www.w3.org/Graphics/SVG/1.1/DTD/svg11.dtd">
<svg width="512pt" height="512pt" viewBox="0 0 512 512" version="1.1" xmlns="http://www.w3.org/2000/svg">
<path fill="#ffd600" opacity="1.00" d=" M 0.00 0.00 L 512.00 0.00 L 512.00 512.00 L 0.00 512.00 L 0.00 0.00 Z" />
<path fill="#ffffff" opacity="1.00" d=" M 180.68 154.77 C 204.38 139.61 231.93 130.68 259.95 128.52 C 275.64 126.57 291.50 128.97 306.92 131.93 C 317.61 134.57 328.14 138.05 337.93 143.15 C 358.78 153.45 376.74 170.47 386.20 191.91 C 391.21 202.91 393.58 214.94 394.12 226.97 C 394.25 246.91 388.19 266.74 377.56 283.57 C 361.00 310.20 335.04 330.27 306.16 342.03 C 285.31 350.93 262.57 355.07 239.96 355.14 C 231.74 354.84 223.53 354.29 215.37 353.35 C 203.28 363.56 191.62 374.30 179.58 384.59 C 177.29 369.32 174.98 354.06 172.51 338.82 C 152.56 328.18 135.42 311.42 126.49 290.45 C 116.57 267.97 116.93 241.65 125.86 218.92 C 136.27 192.16 156.65 170.08 180.68 154.77 Z" />
<path fill="#ffd600" opacity="1.00" d=" M 233.94 169.95 C 239.46 166.93 246.10 166.76 252.15 167.95 C 267.79 172.33 275.71 192.73 267.70 206.69 C 265.32 210.90 261.19 213.61 257.19 216.11 C 259.33 218.37 262.75 217.35 265.18 216.19 C 270.21 214.01 273.76 209.73 277.81 206.22 C 282.09 209.18 285.61 213.04 289.32 216.65 C 291.25 218.88 294.24 220.93 294.51 224.04 C 290.12 234.08 280.20 240.03 270.78 244.71 C 286.11 251.04 301.69 258.30 313.46 270.32 C 306.91 277.86 299.78 284.95 292.26 291.54 C 281.54 284.44 270.33 277.20 257.42 275.00 C 251.12 288.03 242.26 299.81 231.39 309.38 C 228.53 311.69 225.57 313.96 222.17 315.43 C 221.10 315.80 219.72 316.44 219.01 315.13 C 212.51 306.79 205.90 298.53 199.51 290.10 C 208.04 285.51 217.68 281.49 223.16 273.03 C 226.26 268.32 227.06 262.52 226.30 257.01 C 225.29 246.51 224.18 235.64 227.13 225.34 C 227.96 222.06 229.69 219.11 230.63 215.88 C 231.24 214.31 229.40 213.46 228.60 212.44 C 222.44 206.89 218.99 198.35 220.08 190.07 C 221.02 181.66 226.24 173.66 233.94 169.95 Z" />
</svg>
