<?xml version="1.0" encoding="UTF-8" ?>
<!DOCTYPE svg PUBLIC "-//W3C//DTD SVG 1.1//EN" "http://www.w3.org/Graphics/SVG/1.1/DTD/svg11.dtd">
<svg width="512pt" height="512pt" viewBox="0 0 512 512" version="1.1" xmlns="http://www.w3.org/2000/svg">
<path fill="#d5002c" opacity="1.00" d=" M 0.00 0.00 L 512.00 0.00 L 512.00 512.00 L 0.00 512.00 L 0.00 0.00 Z" />
<path fill="#ffffff" opacity="1.00" d=" M 247.93 127.87 C 250.83 124.65 254.25 120.94 258.94 120.93 C 264.81 120.32 270.39 122.75 275.27 125.76 C 284.95 131.78 293.09 139.87 300.90 148.09 C 307.46 155.25 313.73 162.68 319.54 170.47 C 321.94 173.89 326.05 175.33 329.29 177.78 C 352.12 193.39 373.37 212.39 387.63 236.36 C 396.99 251.60 399.91 270.15 398.15 287.76 C 395.63 310.63 388.19 333.38 374.42 351.98 C 367.26 342.12 358.98 333.03 349.53 325.32 C 341.95 319.03 333.04 312.97 322.83 312.87 C 308.75 315.10 298.10 325.77 288.76 335.72 C 286.22 339.40 282.32 342.33 280.93 346.67 C 284.63 347.78 288.34 348.81 292.07 349.84 C 297.88 359.29 305.01 369.00 315.71 373.18 C 325.95 376.54 337.78 372.99 345.21 365.35 C 349.78 366.51 354.25 368.01 358.83 369.10 C 352.67 374.55 345.48 378.79 337.83 381.81 C 327.87 385.20 317.51 387.38 307.05 388.58 C 293.46 390.75 279.67 390.06 265.97 390.18 C 252.31 389.45 238.64 387.63 225.51 383.72 C 206.09 378.29 187.33 368.37 174.27 352.71 C 160.89 336.80 154.96 315.58 155.46 295.02 C 155.44 291.41 155.50 287.81 155.74 284.22 C 150.18 289.10 144.31 293.61 138.74 298.48 C 136.91 292.95 134.75 287.53 133.16 281.92 C 139.22 280.08 145.01 277.41 151.16 275.89 C 151.00 275.60 150.69 275.04 150.53 274.76 C 138.70 271.74 126.89 268.62 115.03 265.76 C 117.64 259.06 119.68 252.17 122.02 245.38 C 133.87 251.07 145.23 257.78 156.99 263.66 C 150.78 255.86 143.67 248.77 137.25 241.13 C 142.27 237.46 147.45 234.00 152.31 230.12 C 156.02 237.59 159.80 245.04 163.08 252.72 C 164.99 251.14 165.33 248.48 166.52 246.41 C 179.76 218.98 202.71 197.34 228.25 181.32 C 232.38 178.61 236.91 176.55 240.95 173.69 C 234.74 175.41 228.51 177.38 222.02 177.61 C 216.28 177.76 210.05 178.17 205.01 174.91 C 198.96 171.39 196.98 163.05 199.58 156.82 C 202.45 150.53 209.84 148.44 216.10 147.41 C 228.41 145.71 241.00 146.88 253.13 149.27 C 250.10 146.64 246.02 144.88 244.44 140.91 C 242.28 136.32 244.91 131.35 247.93 127.87 Z" />
<path fill="#d5002c" opacity="1.00" d=" M 261.18 238.88 C 262.16 239.20 263.12 239.57 264.06 239.99 C 284.68 250.96 305.29 261.98 325.92 272.95 C 342.61 264.29 359.48 255.96 376.21 247.36 C 380.53 256.54 384.91 265.73 388.66 275.15 C 385.30 276.27 381.90 277.23 378.58 278.43 C 368.09 282.61 357.22 285.72 346.58 289.46 C 340.29 291.67 333.69 292.90 327.48 295.32 C 325.12 296.36 322.64 295.42 320.46 294.43 C 309.86 289.89 298.73 286.77 288.11 282.27 C 274.45 277.15 261.20 271.00 247.48 266.04 C 252.08 257.00 256.66 247.96 261.18 238.88 Z" />
<path fill="#d5002c" opacity="1.00" d=" M 270.52 309.51 C 264.10 304.28 263.20 293.78 268.57 287.50 C 277.48 293.30 286.80 298.48 295.65 304.36 C 292.35 314.00 277.75 316.63 270.52 309.51 Z" />
<path fill="#d5002c" opacity="1.00" d=" M 345.90 302.98 C 353.92 297.69 361.84 292.22 370.00 287.13 C 374.38 292.79 374.84 301.52 369.91 307.00 C 364.37 313.61 353.25 313.97 347.42 307.56 C 346.41 306.43 343.93 304.33 345.90 302.98 Z" />
</svg>
