<?xml version="1.0" encoding="UTF-8" ?>
<!DOCTYPE svg PUBLIC "-//W3C//DTD SVG 1.1//EN" "http://www.w3.org/Graphics/SVG/1.1/DTD/svg11.dtd">
<svg width="512pt" height="512pt" viewBox="0 0 512 512" version="1.1" xmlns="http://www.w3.org/2000/svg">
<path fill="#0ea913" opacity="1.00" d=" M 0.00 0.00 L 512.00 0.00 L 512.00 512.00 L 0.00 512.00 L 0.00 0.00 Z" />
<path fill="#d2ead3" opacity="1.00" d=" M 213.01 144.35 C 225.16 139.89 238.09 138.00 250.99 138.00 C 254.23 138.31 257.48 138.34 260.74 138.45 C 259.98 144.30 259.48 150.17 258.68 156.01 C 258.39 158.55 258.76 161.24 257.55 163.59 C 251.18 161.66 244.42 163.17 237.94 163.73 C 218.59 166.51 200.63 176.17 186.52 189.53 C 171.25 203.89 160.28 222.65 154.80 242.86 C 151.37 256.25 150.47 270.25 152.13 283.96 C 154.77 303.91 163.07 322.88 175.12 338.91 C 185.67 353.23 198.98 365.32 213.33 375.72 C 197.34 375.14 181.43 370.96 167.17 363.69 C 164.24 362.09 160.93 360.93 158.60 358.47 C 143.04 339.00 131.84 315.71 128.04 290.98 C 125.29 273.77 126.07 256.06 130.09 239.11 C 140.24 196.69 171.57 159.08 213.01 144.35 Z" />
<path fill="#d2ead3" opacity="1.00" d=" M 239.94 169.95 C 264.67 165.06 290.60 170.15 312.95 181.33 C 309.31 188.91 305.43 196.38 301.74 203.95 C 291.05 199.04 279.78 194.96 267.99 193.87 C 245.81 191.29 222.55 198.83 206.45 214.38 C 193.71 226.25 185.32 242.69 183.27 259.98 C 181.74 270.71 183.54 281.59 186.17 292.01 C 191.84 314.02 206.65 333.24 225.97 345.06 C 248.65 359.20 275.66 364.45 302.03 365.62 C 316.49 366.32 330.94 365.37 345.34 364.18 C 330.22 372.17 312.98 375.75 295.96 376.24 C 274.36 376.14 252.73 376.47 231.14 376.08 C 210.13 367.64 191.56 353.06 178.42 334.61 C 166.61 317.65 159.59 297.53 157.84 276.97 C 155.32 249.91 164.86 222.11 183.11 202.02 C 197.81 185.44 218.13 173.92 239.94 169.95 Z" />
<path fill="#d2ead3" opacity="1.00" d=" M 228.87 206.77 C 244.27 199.27 262.26 196.91 278.99 200.79 C 299.60 205.10 317.47 219.33 327.45 237.74 C 320.01 241.94 312.55 246.08 305.05 250.17 C 299.22 239.27 289.32 230.44 277.43 226.77 C 264.20 222.70 249.27 224.30 237.27 231.23 C 228.71 236.00 221.70 243.75 218.52 253.08 C 212.55 268.57 214.49 287.12 224.49 300.52 C 234.66 314.46 250.98 322.35 267.20 327.00 C 284.27 332.23 302.27 333.02 320.01 333.18 C 342.58 333.27 365.12 331.64 387.60 329.66 C 379.33 340.57 369.25 350.26 357.57 357.45 C 348.44 358.50 339.22 358.36 330.04 358.62 C 314.29 358.73 298.47 358.76 282.84 356.61 C 267.74 354.09 252.70 350.34 238.91 343.58 C 220.70 335.18 204.50 321.11 196.24 302.57 C 187.55 283.53 187.67 260.91 195.50 241.61 C 201.63 226.26 214.08 213.89 228.87 206.77 Z" />
</svg>
