<?xml version="1.0" encoding="UTF-8" ?>
<!DOCTYPE svg PUBLIC "-//W3C//DTD SVG 1.1//EN" "http://www.w3.org/Graphics/SVG/1.1/DTD/svg11.dtd">
<svg width="512pt" height="512pt" viewBox="0 0 512 512" version="1.1" xmlns="http://www.w3.org/2000/svg">
<path fill="#004b9b" opacity="1.00" d=" M 0.00 0.00 L 512.00 0.00 L 512.00 512.00 L 0.00 512.00 L 0.00 0.00 Z" />
<path fill="#ffffff" opacity="1.00" d=" M 156.82 119.40 C 223.25 112.85 289.73 106.68 356.19 100.20 C 356.20 204.08 356.20 307.96 356.19 411.84 C 289.72 407.35 223.26 402.66 156.80 398.31 C 156.81 305.34 156.76 212.37 156.82 119.40 Z" />
<path fill="#004b9b" opacity="1.00" d=" M 173.47 136.59 C 227.58 132.30 281.63 127.18 335.76 123.09 C 335.76 143.23 335.76 163.37 335.76 183.50 C 281.64 186.08 227.56 189.33 173.44 191.82 C 173.51 173.41 173.44 155.00 173.47 136.59 Z" />
<path fill="#004b9b" opacity="1.00" d=" M 288.40 215.74 C 304.21 215.62 319.97 214.51 335.77 214.24 C 335.72 230.60 335.82 246.96 335.72 263.31 C 319.91 263.34 304.10 263.50 288.30 263.63 C 288.42 247.67 288.22 231.71 288.40 215.74 Z" />
<path fill="#004b9b" opacity="1.00" d=" M 228.73 218.36 C 238.41 217.01 248.26 217.81 257.99 217.02 C 263.17 216.53 268.39 216.67 273.59 216.43 C 273.54 232.20 273.51 247.96 273.60 263.73 C 258.66 263.70 243.74 264.51 228.80 264.32 C 228.85 255.55 228.71 246.77 228.88 238.00 C 228.69 231.45 228.91 224.90 228.73 218.36 Z" />
<path fill="#004b9b" opacity="1.00" d=" M 173.40 220.21 C 179.27 219.44 185.20 219.76 191.10 219.45 C 199.17 219.43 207.20 218.58 215.27 218.53 C 215.25 233.83 215.25 249.13 215.28 264.43 C 201.33 264.55 187.39 264.61 173.45 264.77 C 173.45 249.92 173.54 235.06 173.40 220.21 Z" />
<path fill="#004b9b" opacity="1.00" d=" M 173.43 278.32 C 187.39 278.32 201.34 278.22 215.29 278.28 C 215.22 293.66 215.27 309.04 215.26 324.41 C 201.33 324.17 187.42 323.37 173.48 323.44 C 173.42 308.40 173.51 293.36 173.43 278.32 Z" />
<path fill="#004b9b" opacity="1.00" d=" M 228.77 278.32 C 243.70 278.14 258.57 277.87 273.49 277.77 C 273.66 293.73 273.46 309.69 273.60 325.66 C 258.64 325.56 243.71 325.01 228.77 324.54 C 228.82 309.14 228.83 293.73 228.77 278.32 Z" />
<path fill="#004b9b" opacity="1.00" d=" M 288.40 326.26 C 288.28 310.09 288.29 293.92 288.40 277.75 C 304.17 277.77 319.95 277.78 335.72 277.69 C 335.77 294.25 335.81 310.81 335.70 327.37 C 319.95 326.57 304.17 326.45 288.40 326.26 Z" />
<path fill="#004b9b" opacity="1.00" d=" M 173.43 381.45 C 173.53 366.51 173.41 351.56 173.49 336.62 C 187.41 337.41 201.36 337.37 215.28 338.15 C 215.26 353.35 215.21 368.55 215.31 383.75 C 201.33 383.40 187.39 382.17 173.43 381.45 Z" />
<path fill="#004b9b" opacity="1.00" d=" M 228.78 338.55 C 243.70 338.82 258.60 339.66 273.53 339.78 C 273.57 355.66 273.56 371.54 273.54 387.42 C 258.63 386.18 243.67 385.82 228.77 384.52 C 228.84 369.20 228.81 353.87 228.78 338.55 Z" />
<path fill="#004b9b" opacity="1.00" d=" M 288.30 340.37 C 304.13 340.74 319.94 341.57 335.77 341.82 C 335.76 358.14 335.75 374.46 335.77 390.79 C 319.97 390.22 304.21 388.77 288.40 388.24 C 288.22 372.29 288.42 356.33 288.30 340.37 Z" />
</svg>
