<?xml version="1.0" encoding="UTF-8" ?>
<!DOCTYPE svg PUBLIC "-//W3C//DTD SVG 1.1//EN" "http://www.w3.org/Graphics/SVG/1.1/DTD/svg11.dtd">
<svg width="512pt" height="512pt" viewBox="0 0 512 512" version="1.1" xmlns="http://www.w3.org/2000/svg">
<path fill="#662d91" opacity="1.00" d=" M 0.00 0.00 L 512.00 0.00 L 512.00 512.00 L 0.00 512.00 L 0.00 0.00 Z" />
<path fill="#ffffff" opacity="1.00" d=" M 120.06 120.06 C 211.06 120.05 302.06 120.02 393.06 120.10 C 392.78 188.06 393.05 256.02 392.93 323.99 C 392.99 346.71 392.84 369.44 393.04 392.16 C 302.04 392.18 211.03 392.15 120.03 392.17 C 120.10 301.47 120.02 210.77 120.06 120.06 Z" />
<path fill="#662d91" opacity="1.00" d=" M 146.53 185.14 C 219.86 185.16 293.18 185.16 366.50 185.14 C 366.50 245.31 366.47 305.49 366.52 365.66 C 293.19 365.67 219.85 365.67 146.52 365.67 C 146.56 305.49 146.53 245.32 146.53 185.14 Z" />
<path fill="#ffffff" opacity="1.00" d=" M 200.43 226.28 C 200.39 216.03 200.45 205.78 200.40 195.53 C 210.67 195.54 220.95 195.50 231.22 195.55 C 231.19 205.79 231.22 216.03 231.21 226.27 C 220.95 226.29 210.69 226.26 200.43 226.28 Z" />
<path fill="#ffffff" opacity="1.00" d=" M 241.60 195.54 C 251.88 195.53 262.16 195.52 272.44 195.54 C 272.38 205.78 272.42 216.03 272.42 226.27 C 262.15 226.27 251.88 226.27 241.62 226.28 C 241.60 216.03 241.63 205.78 241.60 195.54 Z" />
<path fill="#ffffff" opacity="1.00" d=" M 282.53 195.53 C 292.80 195.54 303.07 195.51 313.34 195.54 C 313.30 205.78 313.34 216.03 313.32 226.27 C 303.06 226.28 292.81 226.26 282.55 226.28 C 282.52 216.03 282.57 205.78 282.53 195.53 Z" />
<path fill="#ffffff" opacity="1.00" d=" M 323.48 226.28 C 323.43 216.03 323.49 205.78 323.45 195.53 C 333.72 195.54 344.00 195.50 354.28 195.55 C 354.24 205.79 354.27 216.03 354.27 226.27 C 344.00 226.28 333.74 226.26 323.48 226.28 Z" />
<path fill="#ffffff" opacity="1.00" d=" M 159.44 236.39 C 169.74 236.40 180.03 236.36 190.32 236.41 C 190.32 246.53 190.21 256.65 190.38 266.77 C 180.14 267.66 169.84 266.85 159.57 267.22 C 159.32 256.95 159.55 246.67 159.44 236.39 Z" />
<path fill="#ffffff" opacity="1.00" d=" M 200.40 236.39 C 210.67 236.41 220.95 236.36 231.23 236.42 C 231.17 246.02 231.24 255.63 231.21 265.24 C 231.73 267.20 229.32 267.25 228.08 267.18 C 218.88 267.16 209.68 267.13 200.48 267.18 C 200.33 256.92 200.48 246.65 200.40 236.39 Z" />
<path fill="#ffffff" opacity="1.00" d=" M 241.59 236.39 C 251.87 236.39 262.16 236.38 272.44 236.40 C 272.42 246.55 272.35 256.70 272.48 266.85 C 262.22 267.54 251.91 266.96 241.64 267.17 C 241.57 256.91 241.65 246.65 241.59 236.39 Z" />
<path fill="#ffffff" opacity="1.00" d=" M 282.52 236.39 C 292.80 236.40 303.07 236.37 313.34 236.41 C 313.33 246.57 313.27 256.72 313.38 266.88 C 303.13 267.50 292.84 266.98 282.58 267.17 C 282.49 256.91 282.58 246.65 282.52 236.39 Z" />
<path fill="#ffffff" opacity="1.00" d=" M 323.44 236.39 C 333.72 236.41 344.01 236.35 354.29 236.42 C 354.29 246.53 354.17 256.64 354.36 266.74 C 344.13 267.70 333.83 266.83 323.57 267.23 C 323.31 256.95 323.56 246.67 323.44 236.39 Z" />
<path fill="#ffffff" opacity="1.00" d=" M 159.45 277.22 C 169.74 277.25 180.02 277.21 190.31 277.24 C 190.29 287.42 190.29 297.60 190.31 307.77 C 180.02 307.81 169.74 307.77 159.45 307.79 C 159.47 297.60 159.47 287.41 159.45 277.22 Z" />
<path fill="#ffffff" opacity="1.00" d=" M 200.41 277.21 C 210.69 277.28 220.97 277.15 231.24 277.29 C 231.17 287.45 231.22 297.61 231.22 307.77 C 220.94 307.81 210.67 307.77 200.40 307.79 C 200.43 297.60 200.42 287.41 200.41 277.21 Z" />
<path fill="#ffffff" opacity="1.00" d=" M 241.61 277.21 C 251.88 277.26 262.16 277.20 272.43 277.24 C 272.41 287.41 272.37 297.57 272.46 307.74 C 262.17 307.85 251.89 307.75 241.60 307.80 C 241.62 297.60 241.62 287.41 241.61 277.21 Z" />
<path fill="#ffffff" opacity="1.00" d=" M 282.55 277.20 C 292.79 277.23 303.03 277.28 313.28 277.18 C 313.39 287.38 313.29 297.58 313.33 307.78 C 303.07 307.81 292.81 307.76 282.54 307.81 C 282.54 297.60 282.54 287.40 282.55 277.20 Z" />
<path fill="#ffffff" opacity="1.00" d=" M 323.45 277.22 C 333.73 277.25 344.00 277.21 354.28 277.24 C 354.27 287.40 354.23 297.57 354.30 307.73 C 344.01 307.86 333.73 307.75 323.45 307.80 C 323.47 297.60 323.47 287.41 323.45 277.22 Z" />
<path fill="#ffffff" opacity="1.00" d=" M 159.45 318.37 C 169.74 318.39 180.03 318.34 190.32 318.40 C 190.31 328.55 190.23 338.69 190.36 348.84 C 180.12 349.59 169.84 348.89 159.58 349.23 C 159.31 338.95 159.56 328.66 159.45 318.37 Z" />
<path fill="#ffffff" opacity="1.00" d=" M 200.40 318.36 C 210.67 318.40 220.95 318.33 231.22 318.40 C 231.17 327.99 231.24 337.58 231.21 347.17 C 231.73 349.19 229.30 349.28 228.00 349.19 C 218.82 349.17 209.65 349.14 200.48 349.19 C 200.34 338.91 200.48 328.64 200.40 318.36 Z" />
<path fill="#ffffff" opacity="1.00" d=" M 241.59 318.37 C 251.87 318.38 262.15 318.36 272.44 318.39 C 272.37 328.65 272.45 338.91 272.39 349.17 C 262.14 349.17 251.89 349.16 241.64 349.18 C 241.57 338.91 241.66 328.64 241.59 318.37 Z" />
<path fill="#ffffff" opacity="1.00" d=" M 282.53 318.37 C 292.80 318.38 303.07 318.35 313.34 318.39 C 313.35 328.52 313.23 338.65 313.41 348.78 C 303.16 349.64 292.84 348.94 282.57 349.17 C 282.50 338.90 282.58 328.64 282.53 318.37 Z" />
</svg>
