<?xml version="1.0" encoding="UTF-8" ?>
<!DOCTYPE svg PUBLIC "-//W3C//DTD SVG 1.1//EN" "http://www.w3.org/Graphics/SVG/1.1/DTD/svg11.dtd">
<svg width="512pt" height="512pt" viewBox="0 0 512 512" version="1.1" xmlns="http://www.w3.org/2000/svg">
<path fill="#d20808" opacity="1.00" d=" M 0.00 0.00 L 512.00 0.00 L 512.00 512.00 L 0.00 512.00 L 0.00 0.00 Z" />
<path fill="#ffffff" opacity="1.00" d=" M 231.87 117.57 C 264.15 112.52 297.81 114.28 328.76 125.22 C 335.92 128.04 343.25 130.92 349.36 135.70 C 351.93 137.73 354.27 140.24 355.33 143.40 C 358.12 151.64 357.91 160.50 357.55 169.08 C 357.02 174.62 356.23 180.95 351.67 184.73 C 347.60 188.12 341.65 187.11 337.35 184.72 C 328.12 179.69 318.89 174.46 308.82 171.25 C 291.84 165.11 273.32 163.20 255.44 165.72 C 239.01 167.91 223.14 175.52 212.02 187.94 C 198.73 202.58 193.00 222.51 191.88 241.90 C 190.90 260.78 192.87 280.43 201.53 297.50 C 207.61 309.44 217.59 319.40 229.72 325.17 C 240.14 330.34 251.77 332.67 263.32 333.43 C 261.69 324.55 261.04 315.50 261.34 306.48 C 258.33 308.46 254.13 309.56 251.10 306.99 C 248.47 304.30 246.86 300.78 245.29 297.41 C 243.75 294.21 246.13 290.88 248.50 288.86 C 242.79 284.40 235.36 281.95 231.07 275.85 C 236.16 271.22 242.76 268.67 248.56 265.05 C 238.87 251.55 229.31 237.96 219.70 224.40 C 216.18 219.43 215.90 213.01 216.66 207.17 C 217.63 202.20 220.32 197.22 224.95 194.81 C 234.93 189.76 248.57 194.61 253.30 204.70 C 260.06 220.06 266.68 235.50 273.66 250.77 C 278.01 248.01 282.60 245.65 287.01 243.00 C 288.32 242.05 289.95 242.12 291.48 242.18 C 294.08 248.68 292.56 255.94 294.57 262.52 C 297.83 260.58 302.52 261.16 304.52 264.61 C 306.72 268.48 310.61 272.65 308.69 277.41 C 317.33 280.68 324.81 286.23 331.74 292.23 C 349.40 307.62 365.63 324.92 385.62 337.41 C 389.91 340.19 394.58 342.32 399.00 344.88 C 377.21 367.22 349.66 383.93 319.85 393.12 C 311.57 395.57 303.03 397.28 294.37 397.40 C 289.76 392.99 286.18 387.71 282.17 382.80 C 251.68 385.30 220.22 383.04 191.37 372.27 C 176.72 366.95 163.27 358.63 151.49 348.48 C 133.49 331.88 122.08 308.94 117.68 285.01 C 115.75 275.78 115.36 266.36 114.67 257.00 C 114.38 248.95 115.22 240.93 115.88 232.93 C 118.71 205.82 129.69 179.33 148.29 159.23 C 169.90 135.69 200.72 122.48 231.87 117.57 Z" />
<path fill="#d20808" opacity="1.00" d=" M 220.77 206.62 C 223.08 199.31 231.78 195.25 238.95 197.59 C 244.28 199.15 248.18 203.70 250.27 208.69 C 256.24 222.52 262.75 236.10 268.69 249.95 C 269.21 251.12 269.92 252.17 270.84 253.09 C 265.54 256.03 260.28 259.05 255.06 262.13 C 253.87 262.75 251.76 263.72 251.11 261.89 C 246.40 254.13 240.26 247.35 235.48 239.64 C 231.48 234.20 227.78 228.55 223.83 223.07 C 220.49 218.35 219.52 212.22 220.77 206.62 Z" />
<path fill="#ffffff" opacity="1.00" d=" M 231.22 202.34 C 234.22 200.89 237.59 202.26 240.04 204.14 C 241.81 206.76 242.23 210.23 241.30 213.24 C 240.11 216.27 236.92 217.61 234.01 218.44 C 229.92 217.75 227.38 214.64 225.40 211.27 C 225.78 207.60 227.49 203.66 231.22 202.34 Z" />
<path fill="#d20808" opacity="1.00" d=" M 230.15 210.03 C 229.76 207.58 232.29 206.52 234.02 205.56 C 236.09 206.37 237.75 207.77 238.48 209.92 C 238.02 210.96 237.58 212.01 237.15 213.07 C 234.58 215.24 229.70 213.82 230.15 210.03 Z" />
<path fill="#d20808" opacity="1.00" d=" M 290.17 269.96 C 293.15 268.48 295.86 266.15 299.18 265.56 C 302.06 268.24 304.80 272.09 304.67 276.20 C 301.67 278.07 298.67 279.95 295.61 281.73 C 284.60 287.45 274.15 294.18 263.32 300.24 C 260.33 301.82 257.44 304.50 253.80 303.78 C 252.30 301.15 250.44 298.69 249.38 295.83 C 248.83 293.31 251.79 292.36 253.43 291.26 C 265.59 284.02 278.18 277.49 290.17 269.96 Z" />
<path fill="#d20808" opacity="1.00" d=" M 297.59 287.54 C 303.35 283.81 310.35 287.28 315.35 290.72 C 330.37 301.48 342.95 315.15 357.08 326.98 C 365.55 334.15 374.41 340.88 383.68 346.98 C 381.78 348.37 380.25 350.25 378.25 351.48 C 374.89 349.34 372.22 345.67 368.13 345.00 C 356.71 336.45 346.13 326.87 335.37 317.52 C 333.77 316.55 333.81 319.71 334.47 320.48 C 346.89 332.42 359.54 344.32 373.87 353.99 C 371.56 357.36 367.47 358.69 364.58 361.43 C 361.95 363.99 358.30 365.12 355.70 367.72 C 344.71 355.69 335.22 342.39 325.82 329.11 C 325.13 330.14 323.28 331.17 324.51 332.54 C 332.48 344.82 341.16 356.64 350.18 368.16 C 350.68 368.35 351.67 368.72 352.17 368.91 C 352.29 369.23 352.54 369.87 352.66 370.19 C 348.21 370.24 344.71 373.41 340.98 375.43 C 339.36 376.29 338.77 374.08 337.93 373.23 C 328.02 356.97 318.76 340.33 308.94 324.02 C 308.70 325.25 308.44 326.48 308.18 327.72 C 309.77 330.75 311.44 333.74 313.20 336.68 C 313.42 337.99 313.60 339.39 314.42 340.52 C 321.93 352.65 329.05 365.02 336.46 377.22 C 331.50 379.59 326.47 382.35 321.03 383.22 C 312.80 373.71 306.30 362.72 302.17 350.83 C 301.29 348.22 300.24 345.67 299.17 343.13 C 298.65 343.33 297.63 343.73 297.12 343.94 C 297.52 346.62 297.97 349.32 298.93 351.88 C 303.18 363.69 309.38 374.90 317.73 384.31 C 312.98 385.67 308.12 387.50 303.14 387.19 C 296.10 376.71 290.47 365.22 287.08 353.03 C 285.83 352.36 284.58 351.70 283.31 351.07 C 286.73 363.17 291.06 375.21 297.94 385.81 C 296.84 385.91 295.96 385.55 295.30 384.73 C 290.89 379.95 287.95 374.10 284.09 368.92 C 276.90 353.89 272.44 337.48 270.87 320.87 C 270.86 315.15 269.30 308.94 271.59 303.54 C 280.38 298.42 289.14 293.22 297.59 287.54 Z" />
</svg>
