<?xml version="1.0" encoding="UTF-8" ?>
<!DOCTYPE svg PUBLIC "-//W3C//DTD SVG 1.1//EN" "http://www.w3.org/Graphics/SVG/1.1/DTD/svg11.dtd">
<svg width="512pt" height="512pt" viewBox="0 0 512 512" version="1.1" xmlns="http://www.w3.org/2000/svg">
<path fill="#008bd3" opacity="1.00" d=" M 0.00 0.00 L 512.00 0.00 L 512.00 512.00 L 0.00 512.00 L 0.00 0.00 Z" />
<path fill="#ffffff" opacity="1.00" d=" M 314.43 130.97 C 340.96 147.79 367.29 164.96 393.75 181.90 C 376.13 196.62 358.76 211.66 341.24 226.51 C 315.01 209.45 288.66 192.56 262.30 175.67 C 279.55 160.63 297.26 146.11 314.43 130.97 Z" />
<path fill="#ffffff" opacity="1.00" d=" M 118.98 181.28 C 145.40 164.68 171.83 148.07 198.12 131.26 C 214.08 145.19 230.14 158.98 246.10 172.91 C 247.37 174.12 249.03 174.98 249.97 176.51 C 223.57 193.21 197.08 209.76 170.78 226.61 C 156.02 213.94 141.40 201.10 126.65 188.41 C 124.21 185.92 121.02 184.11 118.98 181.28 Z" />
<path fill="#ffffff" opacity="1.00" d=" M 168.59 235.63 C 169.40 235.08 170.39 233.54 171.49 234.48 C 197.54 251.31 223.68 267.99 249.70 284.86 C 232.13 299.61 214.76 314.61 197.28 329.46 C 171.03 312.40 144.66 295.52 118.32 278.61 C 134.99 264.19 151.92 250.06 168.59 235.63 Z" />
<path fill="#ffffff" opacity="1.00" d=" M 262.94 284.17 C 289.35 267.69 315.61 250.96 341.94 234.35 C 359.16 249.45 376.46 264.45 393.86 279.35 C 367.40 296.22 340.86 312.99 314.26 329.62 C 298.49 315.75 282.55 302.08 266.71 288.30 C 265.45 286.96 263.27 286.13 262.94 284.17 Z" />
<path fill="#ffffff" opacity="1.00" d=" M 198.92 337.93 C 216.69 321.90 234.76 306.20 252.66 290.31 C 252.55 320.50 252.77 350.69 252.56 380.88 C 249.19 378.30 245.36 376.42 241.76 374.21 C 219.20 360.82 196.43 347.79 174.02 334.16 C 174.21 330.60 174.35 327.04 174.56 323.48 C 182.67 328.31 190.67 333.35 198.92 337.93 Z" />
<path fill="#ffffff" opacity="1.00" d=" M 260.60 290.80 C 278.39 306.10 296.49 321.03 314.33 336.27 C 322.10 331.62 329.90 327.02 337.62 322.29 C 337.72 325.85 338.22 329.39 338.35 332.95 C 315.89 346.16 293.88 360.10 271.69 373.75 C 268.00 376.16 264.04 378.16 260.61 380.96 C 260.51 350.91 260.53 320.86 260.60 290.80 Z" />
</svg>
