<?xml version="1.0" encoding="UTF-8" ?>
<!DOCTYPE svg PUBLIC "-//W3C//DTD SVG 1.1//EN" "http://www.w3.org/Graphics/SVG/1.1/DTD/svg11.dtd">
<svg width="512pt" height="512pt" viewBox="0 0 512 512" version="1.1" xmlns="http://www.w3.org/2000/svg">
<path fill="#525592" opacity="1.00" d=" M 0.00 0.00 L 512.00 0.00 L 512.00 512.00 L 0.00 512.00 L 0.00 0.00 Z" />
<path fill="#ffffff" opacity="1.00" d=" M 249.90 129.26 C 277.85 125.46 307.01 130.71 331.77 144.31 C 361.39 160.32 384.45 188.24 393.82 220.65 C 309.74 220.71 225.65 220.68 141.56 220.67 C 149.41 196.31 164.90 174.71 184.93 158.88 C 203.74 143.92 226.31 133.78 249.90 129.26 Z" />
<path fill="#ffffff" opacity="1.00" d=" M 213.76 133.77 C 217.93 132.73 222.06 131.18 226.42 131.26 C 209.99 137.26 194.37 145.66 180.86 156.82 C 158.39 175.11 141.43 200.60 135.11 229.03 C 128.71 257.01 132.97 287.16 146.53 312.43 C 161.70 341.27 187.89 363.55 217.78 376.08 C 220.55 377.25 223.47 378.10 226.09 379.62 C 222.66 379.55 219.39 378.49 216.11 377.64 C 188.77 370.52 163.21 355.75 144.35 334.58 C 125.54 313.73 113.82 286.23 113.38 258.02 C 112.62 232.38 121.15 206.80 136.27 186.18 C 155.00 160.41 183.20 142.21 213.76 133.77 Z" />
<path fill="#ffffff" opacity="1.00" d=" M 138.77 231.50 C 224.65 231.44 310.53 231.49 396.40 231.48 C 397.00 234.35 397.46 237.25 397.73 240.17 C 310.96 240.17 224.19 240.16 137.41 240.18 C 137.80 237.27 138.30 234.39 138.77 231.50 Z" />
<path fill="#ffffff" opacity="1.00" d=" M 136.48 259.49 C 136.37 256.57 136.34 253.65 136.61 250.74 C 223.89 250.86 311.18 250.89 398.47 250.72 C 398.79 253.64 398.73 256.57 398.67 259.50 C 311.27 259.47 223.88 259.48 136.48 259.49 Z" />
<path fill="#ffffff" opacity="1.00" d=" M 137.31 270.31 C 224.15 270.28 310.99 270.27 397.82 270.31 C 397.51 273.31 397.01 276.28 396.39 279.23 C 310.53 279.21 224.66 279.25 138.80 279.21 C 138.33 276.24 137.81 273.27 137.31 270.31 Z" />
<path fill="#ffffff" opacity="1.00" d=" M 141.90 289.91 C 225.87 289.88 309.85 289.91 393.82 289.89 C 385.52 319.15 365.95 344.86 340.43 361.29 C 318.20 375.82 291.52 383.33 264.98 382.67 C 247.27 382.79 230.09 377.14 214.12 369.91 C 185.14 356.47 160.25 333.26 146.99 303.97 C 145.03 299.39 142.86 294.82 141.90 289.91 Z" />
</svg>
