<?xml version="1.0" encoding="UTF-8" ?>
<!DOCTYPE svg PUBLIC "-//W3C//DTD SVG 1.1//EN" "http://www.w3.org/Graphics/SVG/1.1/DTD/svg11.dtd">
<svg width="512pt" height="512pt" viewBox="0 0 512 512" version="1.1" xmlns="http://www.w3.org/2000/svg">
<path fill="#c21111" opacity="1.00" d=" M 0.00 0.00 L 512.00 0.00 L 512.00 512.00 L 0.00 512.00 L 0.00 0.00 Z" />
<path fill="#ffffff" opacity="1.00" d=" M 112.78 112.79 C 122.81 112.81 132.84 112.75 142.87 112.82 C 144.02 121.03 152.96 127.15 161.00 124.81 C 166.85 123.51 171.13 118.46 172.45 112.76 C 178.49 112.83 184.53 112.77 190.57 112.80 C 192.03 120.97 200.76 127.22 208.94 124.80 C 214.82 123.48 218.91 118.35 220.42 112.72 C 226.57 112.89 232.72 112.70 238.86 112.84 C 241.45 121.44 251.25 127.19 259.98 124.76 C 266.02 123.35 271.00 118.64 273.03 112.82 C 279.36 112.77 285.69 112.77 292.02 112.82 C 293.35 120.95 302.13 127.01 310.18 124.90 C 316.04 123.60 320.52 118.57 321.80 112.80 C 327.74 112.79 333.68 112.78 339.62 112.80 C 340.86 118.86 345.73 123.96 351.89 125.03 C 359.73 126.71 368.00 120.72 369.13 112.82 C 379.40 112.75 389.67 112.81 399.95 112.79 C 399.81 122.71 399.88 132.64 399.91 142.56 C 391.79 143.74 385.19 151.84 386.97 160.10 C 388.05 166.56 393.60 171.45 399.93 172.58 C 399.84 178.52 399.85 184.46 399.92 190.40 C 391.75 191.59 385.10 199.83 386.99 208.13 C 388.14 214.52 393.68 219.29 399.92 220.45 C 399.79 226.52 400.00 232.60 399.79 238.67 C 393.87 240.31 388.99 245.17 387.39 251.11 C 384.56 260.13 390.61 270.74 399.75 273.05 C 399.97 279.36 399.94 285.68 399.77 292.00 C 391.41 292.85 385.00 301.86 387.08 310.03 C 388.34 316.18 393.78 320.90 399.90 321.89 C 399.88 327.73 399.83 333.58 399.93 339.42 C 391.45 340.68 384.78 349.56 387.18 358.04 C 388.52 364.09 393.95 368.37 399.90 369.42 C 399.87 379.57 399.85 389.71 399.91 399.86 C 389.73 399.90 379.56 399.88 369.38 399.87 C 368.29 391.75 360.12 385.22 351.92 386.96 C 345.47 388.05 340.55 393.56 339.45 399.90 C 333.59 399.85 327.74 399.89 321.88 399.88 C 320.87 393.39 315.59 387.83 309.04 386.85 C 301.05 385.53 292.89 391.78 291.93 399.80 C 285.64 399.90 279.35 399.99 273.06 399.75 C 271.38 393.23 265.53 388.25 258.99 387.00 C 250.25 385.19 240.92 391.21 238.67 399.79 C 232.59 400.00 226.52 399.80 220.44 399.91 C 219.16 391.66 210.74 385.05 202.38 387.04 C 196.08 388.20 191.51 393.77 190.41 399.91 C 184.46 399.85 178.50 399.87 172.55 399.90 C 171.34 391.75 163.12 385.27 154.88 386.96 C 148.48 388.03 143.61 393.57 142.62 399.87 C 132.68 399.91 122.74 399.84 112.79 399.90 C 112.81 389.64 112.74 379.38 112.83 369.12 C 121.39 367.96 127.54 358.31 124.56 350.10 C 123.01 344.64 118.14 340.85 112.76 339.53 C 112.81 333.63 112.78 327.73 112.78 321.84 C 119.28 320.39 124.73 314.83 125.27 308.08 C 125.94 300.59 120.23 293.27 112.82 292.02 C 112.77 285.69 112.77 279.35 112.82 273.02 C 121.57 270.15 127.42 260.04 124.61 251.10 C 123.11 245.14 118.20 240.84 112.71 238.53 C 112.84 232.51 112.83 226.49 112.72 220.47 C 118.28 218.87 123.44 214.89 124.78 209.03 C 127.28 200.78 120.95 192.07 112.77 190.51 C 112.82 184.48 112.77 178.45 112.79 172.43 C 118.87 171.11 124.02 166.23 125.05 160.01 C 126.65 152.21 120.70 143.98 112.83 142.89 C 112.73 132.86 112.83 122.82 112.78 112.79 Z" />
<path fill="#c21111" opacity="1.00" d=" M 190.83 159.48 C 230.77 159.50 270.70 160.09 310.63 160.23 C 309.30 171.71 307.54 183.15 306.25 194.63 C 277.78 194.75 249.30 194.62 220.82 194.70 C 219.13 206.20 216.66 217.57 215.06 229.08 C 259.61 229.22 304.15 229.62 348.70 229.74 C 349.17 236.23 349.37 242.73 349.58 249.23 C 324.40 274.44 298.81 299.23 273.68 324.49 C 283.08 325.65 292.57 325.44 302.02 325.48 C 314.42 325.29 327.23 324.03 338.39 318.20 C 337.45 327.84 336.82 337.52 336.20 347.20 C 317.21 355.90 295.58 358.06 275.02 355.04 C 263.35 352.92 251.29 349.84 239.46 352.71 C 236.92 353.22 234.84 354.81 233.24 356.80 C 228.53 349.24 223.34 341.99 218.55 334.47 C 243.09 309.96 267.23 285.05 291.84 260.61 C 275.23 260.79 258.61 260.86 241.99 260.85 C 229.92 261.59 217.81 260.90 205.73 261.49 C 201.76 284.69 196.92 307.74 192.77 330.92 C 192.44 332.70 192.00 334.47 191.52 336.23 C 178.67 336.10 165.82 336.20 152.97 336.17 C 155.68 320.71 159.51 305.45 162.66 290.07 C 172.03 246.53 181.52 203.02 190.83 159.48 Z" />
</svg>
