<?xml version="1.0" encoding="UTF-8" ?>
<!DOCTYPE svg PUBLIC "-//W3C//DTD SVG 1.1//EN" "http://www.w3.org/Graphics/SVG/1.1/DTD/svg11.dtd">
<svg width="512pt" height="512pt" viewBox="0 0 512 512" version="1.1" xmlns="http://www.w3.org/2000/svg">
<path fill="#be1a19" opacity="1.00" d=" M 0.00 0.00 L 512.00 0.00 L 512.00 512.00 L 0.00 512.00 L 0.00 0.00 Z" />
<path fill="#f9efef" opacity="1.00" d=" M 129.09 129.10 C 214.26 129.03 299.42 129.29 384.59 129.14 C 384.56 157.54 384.61 185.95 384.57 214.36 C 356.14 214.32 327.72 214.32 299.30 214.36 C 299.43 242.70 299.30 271.04 299.37 299.37 C 271.04 299.30 242.71 299.41 214.38 299.32 C 214.40 327.75 214.35 356.17 214.40 384.60 C 185.97 384.73 157.55 384.61 129.12 384.66 C 129.02 299.48 129.08 214.29 129.09 129.10 Z" />
</svg>
