<?xml version="1.0" encoding="UTF-8" ?>
<!DOCTYPE svg PUBLIC "-//W3C//DTD SVG 1.1//EN" "http://www.w3.org/Graphics/SVG/1.1/DTD/svg11.dtd">
<svg width="512pt" height="512pt" viewBox="0 0 512 512" version="1.1" xmlns="http://www.w3.org/2000/svg">
<path fill="#5f5f5f" opacity="1.00" d=" M 0.00 0.00 L 512.00 0.00 L 512.00 512.00 L 0.00 512.00 L 0.00 0.00 Z" />
<path fill="#ffffff" opacity="1.00" d=" M 173.27 160.50 C 181.52 143.04 191.17 126.28 200.93 109.63 C 213.43 127.29 225.93 144.95 238.71 162.40 C 250.30 160.61 262.21 161.05 273.84 162.34 C 286.16 144.56 299.12 127.23 311.38 109.41 C 325.39 132.15 338.28 155.68 348.61 180.34 C 355.76 197.91 361.82 216.14 363.95 235.08 C 365.34 240.67 365.40 246.43 364.76 252.14 C 364.04 260.93 362.32 269.72 358.68 277.80 C 350.23 301.76 335.62 323.02 319.16 342.17 C 300.01 364.60 277.87 384.18 255.87 403.72 C 231.89 382.95 208.18 361.59 188.03 336.99 C 173.57 319.22 160.91 299.71 152.81 278.19 C 147.82 266.20 145.60 252.89 147.18 239.96 C 151.85 212.36 161.25 185.72 173.27 160.50 Z" />
<path fill="#5f5f5f" opacity="1.00" d=" M 169.38 218.55 C 174.34 216.79 179.75 217.82 184.60 219.44 C 195.35 223.30 204.65 230.34 212.69 238.32 C 222.96 248.61 231.60 260.87 236.15 274.77 C 237.86 279.65 238.05 284.91 237.63 290.02 C 237.12 294.83 233.60 299.25 228.91 300.57 C 221.19 302.93 213.06 300.16 206.03 296.93 C 189.23 288.58 175.77 274.24 167.27 257.63 C 163.49 249.98 160.68 241.61 160.73 233.00 C 160.82 227.18 163.46 220.57 169.38 218.55 Z" />
<path fill="#5f5f5f" opacity="1.00" d=" M 330.46 218.70 C 335.33 217.42 340.94 216.82 345.45 219.54 C 349.79 221.99 351.83 227.20 351.79 232.00 C 352.53 244.42 346.97 256.14 340.48 266.38 C 331.36 280.04 318.82 291.92 303.55 298.35 C 296.68 301.08 288.45 303.19 281.52 299.54 C 275.94 296.75 274.21 289.78 274.76 284.01 C 275.91 273.11 280.89 263.00 286.97 254.03 C 293.97 243.89 302.52 234.75 312.64 227.68 C 318.09 223.84 324.02 220.52 330.46 218.70 Z" />
</svg>
