<?xml version="1.0" encoding="UTF-8" ?>
<!DOCTYPE svg PUBLIC "-//W3C//DTD SVG 1.1//EN" "http://www.w3.org/Graphics/SVG/1.1/DTD/svg11.dtd">
<svg width="512pt" height="512pt" viewBox="0 0 512 512" version="1.1" xmlns="http://www.w3.org/2000/svg">
<path fill="#0340a8" opacity="1.00" d=" M 0.00 0.00 L 512.00 0.00 L 512.00 512.00 L 0.00 512.00 L 0.00 0.00 Z" />
<path fill="#ffffff" opacity="1.00" d=" M 284.86 135.44 C 307.88 132.34 331.03 129.89 354.27 129.30 C 354.26 192.54 354.21 255.77 354.28 319.00 C 355.40 329.50 350.39 339.80 342.95 346.96 C 332.27 357.33 316.66 361.76 302.03 360.15 C 292.45 358.91 282.81 355.05 276.34 347.64 C 268.71 340.05 266.78 328.05 269.94 318.01 C 272.16 310.44 277.65 304.38 283.61 299.45 C 294.35 291.51 308.24 288.05 321.47 289.74 C 325.51 290.28 329.31 291.77 333.24 292.77 C 333.28 262.42 333.31 232.08 333.23 201.74 C 313.93 203.74 294.76 206.76 275.59 209.74 C 255.68 213.47 235.88 217.89 216.29 223.05 C 215.81 264.02 216.23 305.02 216.09 346.01 C 217.22 353.98 215.30 362.16 210.88 368.88 C 202.17 382.36 185.77 389.66 170.00 389.44 C 157.22 389.68 143.87 384.40 136.11 373.97 C 131.30 367.18 129.36 358.38 131.19 350.23 C 132.72 343.94 135.72 337.92 140.40 333.39 C 151.07 321.81 167.69 317.05 183.07 318.78 C 187.26 319.27 191.22 320.80 195.32 321.70 C 195.36 267.18 195.31 212.67 195.33 158.16 C 224.44 148.06 254.36 140.01 284.86 135.44 Z" />
</svg>
