<?xml version="1.0" encoding="UTF-8" ?>
<!DOCTYPE svg PUBLIC "-//W3C//DTD SVG 1.1//EN" "http://www.w3.org/Graphics/SVG/1.1/DTD/svg11.dtd">
<svg width="512pt" height="512pt" viewBox="0 0 512 512" version="1.1" xmlns="http://www.w3.org/2000/svg">
<path fill="#ffb500" opacity="1.00" d=" M 0.00 0.00 L 512.00 0.00 L 512.00 512.00 L 0.00 512.00 L 0.00 0.00 Z" />
<path fill="#ffffff" opacity="1.00" d=" M 153.33 108.51 C 221.22 108.20 289.13 108.46 357.03 108.38 C 372.61 109.19 387.36 118.16 396.07 131.00 C 401.75 139.25 404.47 149.16 405.38 159.03 C 405.39 223.67 405.35 288.30 405.40 352.93 C 404.70 368.15 398.01 383.37 385.97 393.01 C 377.03 400.56 365.55 404.30 354.04 405.39 C 291.38 405.36 228.71 405.39 166.05 405.38 C 154.31 405.86 142.23 403.15 132.27 396.78 C 117.27 387.41 107.29 369.83 108.37 352.01 C 108.38 290.66 108.37 229.32 108.38 167.98 C 108.53 160.62 107.64 153.06 110.01 145.94 C 115.33 126.31 133.16 110.95 153.33 108.51 Z" />
<path fill="#ffb500" opacity="1.00" d=" M 182.19 145.38 C 231.73 145.44 281.27 145.42 330.80 145.40 C 332.05 150.83 331.36 156.44 331.53 161.96 C 331.41 171.40 331.76 180.85 331.34 190.29 C 281.45 190.59 231.56 190.68 181.68 190.27 C 181.30 180.51 181.59 170.73 181.50 160.96 C 181.64 155.77 181.02 150.50 182.19 145.38 Z" />
<path fill="#ffb500" opacity="1.00" d=" M 182.21 205.12 C 210.45 204.50 238.72 204.70 266.97 204.66 C 288.26 204.68 309.56 204.68 330.84 205.18 C 330.90 210.24 330.87 215.31 330.87 220.38 C 281.29 220.54 231.72 220.54 182.14 220.39 C 182.46 215.29 181.39 210.18 182.21 205.12 Z" />
<path fill="#ffb500" opacity="1.00" d=" M 182.35 250.54 C 181.57 245.31 181.62 239.82 182.52 234.63 C 217.21 234.86 251.91 234.71 286.61 234.71 C 286.84 240.02 286.81 245.34 286.62 250.65 C 251.87 251.00 217.11 250.60 182.35 250.54 Z" />
<path fill="#ffb500" opacity="1.00" d=" M 182.27 264.34 C 231.79 264.36 281.32 264.20 330.84 264.43 C 330.75 269.52 331.14 274.63 330.79 279.72 C 281.27 279.75 231.75 279.84 182.23 279.71 C 181.62 274.63 181.86 269.43 182.27 264.34 Z" />
<path fill="#ffb500" opacity="1.00" d=" M 181.73 294.50 C 182.83 294.37 183.93 294.28 185.03 294.23 C 233.65 294.23 282.28 294.20 330.90 294.24 C 330.63 299.32 331.44 304.41 330.80 309.47 C 301.87 309.26 272.94 309.30 244.00 309.34 C 223.39 309.44 202.76 309.03 182.15 309.44 C 181.67 304.48 182.10 299.48 181.73 294.50 Z" />
<path fill="#ffb500" opacity="1.00" d=" M 182.14 324.32 C 211.97 324.17 241.80 324.19 271.62 324.29 C 271.60 329.29 271.84 334.31 271.49 339.31 C 244.32 339.44 217.15 339.24 189.97 339.19 C 187.21 339.07 184.26 339.69 181.69 338.40 C 182.41 333.74 182.07 329.02 182.14 324.32 Z" />
</svg>
