<?xml version="1.0" encoding="UTF-8" ?>
<!DOCTYPE svg PUBLIC "-//W3C//DTD SVG 1.1//EN" "http://www.w3.org/Graphics/SVG/1.1/DTD/svg11.dtd">
<svg width="512pt" height="512pt" viewBox="0 0 512 512" version="1.1" xmlns="http://www.w3.org/2000/svg">
<path fill="#0e4877" opacity="1.00" d=" M 0.00 0.00 L 512.00 0.00 L 512.00 512.00 L 0.00 512.00 L 0.00 0.00 Z" />
<path fill="#ffffff" opacity="1.00" d=" M 166.00 119.13 C 169.14 113.49 175.78 110.71 182.01 110.66 C 193.85 110.12 205.20 114.40 215.86 119.10 C 227.85 124.65 239.26 131.41 250.07 138.99 C 261.71 131.91 276.23 131.95 289.01 135.53 C 308.84 141.25 326.06 154.18 338.92 170.12 C 349.03 182.75 356.61 197.86 358.42 214.09 C 359.50 223.61 357.93 233.69 352.76 241.88 C 362.10 255.55 370.54 269.94 376.50 285.42 C 379.49 293.91 382.12 302.84 381.50 311.93 C 381.09 318.34 378.02 325.05 371.95 327.88 C 363.36 332.09 353.39 330.08 344.61 327.60 C 332.82 324.23 321.84 318.59 311.24 312.50 C 311.34 335.67 311.27 358.85 311.28 382.02 C 311.37 391.99 303.24 401.71 293.06 402.17 C 246.69 402.20 200.31 402.16 153.94 402.19 C 150.67 402.13 147.30 402.52 144.15 401.41 C 136.03 398.77 130.22 390.56 130.33 382.03 C 130.31 335.32 130.30 288.60 130.33 241.88 C 130.25 231.70 138.79 222.46 148.93 221.71 C 168.93 221.47 188.94 221.88 208.93 221.51 C 198.92 209.45 189.87 196.60 181.81 183.16 C 173.95 169.82 167.00 155.69 163.83 140.44 C 162.64 133.37 162.14 125.51 166.00 119.13 Z" />
<path fill="#0e4877" opacity="1.00" d=" M 140.37 241.94 C 140.17 237.09 144.23 232.75 148.85 231.81 C 153.37 231.37 157.92 231.70 162.45 231.59 C 158.17 236.36 155.55 242.55 155.55 248.99 C 155.54 275.98 155.52 302.97 155.55 329.96 C 155.48 342.64 166.35 354.14 179.05 354.59 C 206.41 354.67 233.76 354.63 261.11 354.61 C 273.74 354.57 284.80 343.54 285.33 331.00 C 285.55 319.08 285.20 307.14 285.49 295.22 C 290.50 299.15 295.76 302.77 301.15 306.16 C 301.29 331.47 301.20 356.78 301.20 382.09 C 301.30 387.92 295.79 393.01 290.00 392.62 C 243.71 392.62 197.42 392.66 151.12 392.60 C 145.53 392.79 140.06 387.76 140.36 382.06 C 140.35 335.35 140.34 288.64 140.37 241.94 Z" />
<path fill="#0e4877" opacity="1.00" d=" M 165.59 248.99 C 165.41 241.15 172.23 233.96 180.14 234.03 C 192.87 233.75 205.61 233.82 218.34 233.90 C 221.07 235.07 222.68 237.96 224.77 240.00 C 222.05 239.04 219.47 237.75 216.75 236.82 C 216.43 240.04 216.14 243.27 215.81 246.49 C 212.50 246.67 209.20 246.95 205.94 247.48 C 207.27 250.53 208.80 253.49 209.95 256.62 C 207.23 258.46 204.56 260.34 201.82 262.14 C 203.46 263.34 205.09 264.56 206.75 265.75 C 197.39 281.29 188.56 297.14 179.37 312.78 C 181.70 312.14 183.81 310.96 185.94 309.86 C 200.30 302.64 214.63 295.38 229.01 288.21 C 229.80 289.44 230.60 290.67 231.41 291.89 C 233.53 289.39 235.39 286.68 237.14 283.92 C 240.34 284.98 243.31 286.60 246.40 287.94 C 246.68 284.56 247.11 281.19 247.57 277.82 C 250.77 277.70 253.96 277.46 257.14 277.14 C 256.26 274.64 255.05 272.27 253.98 269.85 C 255.98 270.76 257.44 272.44 259.04 273.89 C 264.37 278.63 269.90 283.14 275.40 287.69 C 275.31 299.79 275.38 311.90 275.37 324.01 C 275.30 327.56 275.75 331.24 274.51 334.65 C 272.34 340.51 266.35 345.01 259.98 344.57 C 233.29 344.55 206.60 344.61 179.91 344.54 C 172.25 344.59 165.61 337.55 165.60 329.98 C 165.56 302.99 165.58 275.99 165.59 248.99 Z" />
</svg>
