<?xml version="1.0" encoding="UTF-8" ?>
<!DOCTYPE svg PUBLIC "-//W3C//DTD SVG 1.1//EN" "http://www.w3.org/Graphics/SVG/1.1/DTD/svg11.dtd">
<svg width="512pt" height="512pt" viewBox="0 0 512 512" version="1.1" xmlns="http://www.w3.org/2000/svg">
<path fill="#e3961a" opacity="1.00" d=" M 0.00 0.00 L 512.00 0.00 L 512.00 512.00 L 0.00 512.00 L 0.00 0.00 Z" />
<path fill="#ffffff" opacity="1.00" d=" M 165.98 119.16 C 168.60 114.42 173.79 111.61 179.05 110.91 C 188.79 109.71 198.52 112.21 207.56 115.65 C 222.74 121.45 236.79 129.83 250.15 138.99 C 262.02 131.68 276.95 131.99 289.95 135.80 C 308.94 141.54 325.49 153.86 338.04 169.04 C 348.39 181.62 356.21 196.74 358.30 213.04 C 359.62 222.90 358.08 233.37 352.78 241.91 C 362.94 256.89 372.28 272.68 378.04 289.91 C 380.99 299.69 383.75 310.77 379.26 320.53 C 375.59 328.37 366.04 331.02 358.02 330.22 C 341.18 328.54 325.75 320.77 311.25 312.51 C 311.33 335.67 311.28 358.83 311.28 382.00 C 311.38 392.00 303.21 401.76 292.99 402.16 C 244.99 402.21 196.99 402.16 148.99 402.18 C 138.64 402.04 130.14 392.17 130.33 382.04 C 130.29 337.03 130.34 292.02 130.30 247.01 C 130.20 242.30 130.19 237.37 132.44 233.09 C 135.63 226.47 142.63 221.87 149.99 221.66 C 169.64 221.55 189.29 221.82 208.93 221.53 C 196.17 206.02 184.70 189.38 175.37 171.57 C 170.28 161.53 165.88 151.01 163.76 139.91 C 162.63 133.01 162.22 125.38 165.98 119.16 Z" />
<path fill="#e3961a" opacity="1.00" d=" M 140.37 241.91 C 140.20 236.71 144.87 232.01 149.99 231.70 C 154.13 231.45 158.28 231.66 162.43 231.61 C 158.18 236.38 155.54 242.56 155.55 249.00 C 155.55 276.01 155.52 303.03 155.56 330.05 C 155.53 342.65 166.31 354.07 178.93 354.58 C 205.29 354.71 231.65 354.57 258.01 354.65 C 268.88 355.60 280.01 348.88 283.66 338.50 C 285.96 332.97 285.34 326.89 285.39 321.06 C 285.44 312.45 285.29 303.84 285.47 295.23 C 290.40 299.44 296.34 302.42 301.14 306.70 C 301.30 331.81 301.19 356.93 301.19 382.04 C 301.33 387.91 295.80 393.00 290.00 392.62 C 243.97 392.64 197.95 392.64 151.93 392.62 C 146.05 393.16 140.06 388.08 140.36 382.05 C 140.35 335.34 140.33 288.62 140.37 241.91 Z" />
<path fill="#e3961a" opacity="1.00" d=" M 172.40 236.40 C 175.46 234.24 179.33 233.96 182.96 233.88 C 194.73 233.92 206.48 234.02 218.26 233.88 C 221.06 235.01 222.68 237.95 224.78 240.03 C 222.09 238.99 219.45 237.81 216.74 236.83 C 216.43 240.04 216.14 243.25 215.83 246.46 C 212.51 246.69 209.20 246.99 205.91 247.48 C 207.31 250.50 208.75 253.50 209.96 256.61 C 207.25 258.46 204.56 260.32 201.83 262.14 C 203.46 263.35 205.10 264.54 206.74 265.74 C 197.42 281.32 188.49 297.14 179.38 312.85 C 180.69 312.35 181.98 311.81 183.25 311.23 C 198.46 303.54 213.68 295.87 228.92 288.25 C 229.83 289.47 230.74 290.68 231.67 291.89 C 233.53 289.24 235.40 286.59 237.20 283.89 C 240.32 285.10 243.35 286.54 246.39 287.94 C 246.69 284.55 247.09 281.18 247.59 277.82 C 250.77 277.69 253.94 277.45 257.12 277.16 C 256.11 274.52 254.93 271.95 253.94 269.30 C 260.90 275.65 268.11 281.73 275.40 287.69 C 275.29 301.79 275.42 315.88 275.35 329.97 C 275.35 337.91 267.99 345.10 260.01 344.57 C 233.34 344.56 206.67 344.60 180.00 344.55 C 172.30 344.63 165.62 337.60 165.61 330.00 C 165.53 303.35 165.62 276.69 165.57 250.04 C 165.32 244.73 167.83 239.24 172.40 236.40 Z" />
</svg>
