<?xml version="1.0" encoding="UTF-8" ?>
<!DOCTYPE svg PUBLIC "-//W3C//DTD SVG 1.1//EN" "http://www.w3.org/Graphics/SVG/1.1/DTD/svg11.dtd">
<svg width="512pt" height="512pt" viewBox="0 0 512 512" version="1.1" xmlns="http://www.w3.org/2000/svg">
<path fill="#14ac5f" opacity="1.00" d=" M 0.00 0.00 L 512.00 0.00 L 512.00 512.00 L 0.00 512.00 L 0.00 0.00 Z" />
<path fill="#ffffff" opacity="1.00" d=" M 248.24 114.36 C 287.40 112.47 327.14 127.34 355.01 155.03 C 376.57 176.10 391.16 204.23 395.70 234.06 C 397.42 243.95 397.21 254.02 397.09 264.01 C 395.80 293.43 384.47 322.17 365.96 345.00 C 348.12 367.14 323.45 383.72 296.17 391.78 C 281.22 396.11 265.60 398.45 250.01 397.76 C 223.44 396.41 197.13 387.94 175.24 372.72 C 147.81 353.96 127.34 325.25 118.76 293.14 C 114.01 276.86 113.47 259.74 114.43 242.91 C 117.01 213.96 128.92 185.96 147.91 163.96 C 170.33 137.61 202.74 119.95 237.08 115.63 C 240.81 115.25 244.49 114.45 248.24 114.36 Z" />
<path fill="#14ac5f" opacity="1.00" d=" M 247.52 166.79 C 260.38 162.14 275.88 169.85 280.04 182.85 C 284.57 194.87 278.06 209.36 266.38 214.41 C 258.74 217.95 249.23 217.46 242.10 212.93 C 235.40 208.95 230.84 201.69 229.98 193.97 C 228.43 182.24 236.29 170.33 247.52 166.79 Z" />
<path fill="#14ac5f" opacity="1.00" d=" M 188.40 170.59 C 201.78 166.17 217.29 175.29 220.41 188.91 C 224.52 202.77 214.35 218.64 200.06 220.73 C 186.55 223.60 172.28 213.29 170.38 199.69 C 167.88 187.24 176.26 174.02 188.40 170.59 Z" />
<path fill="#14ac5f" opacity="1.00" d=" M 310.28 170.21 C 322.06 167.17 335.18 173.97 339.82 185.14 C 343.14 192.73 342.48 201.97 338.03 208.98 C 332.43 218.30 320.44 223.25 309.92 220.37 C 298.56 217.78 289.99 206.67 290.34 195.02 C 290.29 183.45 299.01 172.70 310.28 170.21 Z" />
<path fill="#14ac5f" opacity="1.00" d=" M 181.51 230.82 C 190.52 227.91 200.92 230.85 207.39 237.66 C 214.54 245.07 216.62 256.84 212.11 266.16 C 208.02 274.88 198.75 281.27 188.97 280.85 C 175.83 281.51 163.83 270.07 163.29 257.04 C 162.31 245.46 170.34 233.96 181.51 230.82 Z" />
<path fill="#14ac5f" opacity="1.00" d=" M 320.16 230.04 C 334.15 227.40 348.63 238.74 349.59 252.90 C 350.76 263.03 345.06 273.38 336.03 278.03 C 330.85 280.98 324.64 281.33 318.87 280.46 C 307.18 278.22 298.06 266.93 298.46 255.01 C 298.39 242.86 308.13 231.70 320.16 230.04 Z" />
<path fill="#14ac5f" opacity="1.00" d=" M 191.96 291.81 C 203.78 290.02 216.02 297.81 219.59 309.17 C 223.04 319.30 219.41 331.37 210.71 337.68 C 203.96 342.96 194.46 344.21 186.46 341.30 C 175.82 337.53 168.52 326.17 169.72 314.91 C 170.67 303.28 180.34 293.16 191.96 291.81 Z" />
<path fill="#14ac5f" opacity="1.00" d=" M 308.35 292.68 C 315.81 290.41 324.25 291.76 330.61 296.27 C 339.98 302.55 344.18 315.48 340.04 326.01 C 336.39 336.15 325.84 343.44 315.01 342.78 C 301.88 342.87 290.04 331.14 290.10 317.99 C 289.40 306.65 297.57 295.83 308.35 292.68 Z" />
<path fill="#14ac5f" opacity="1.00" d=" M 247.55 296.79 C 254.49 294.55 262.33 295.62 268.51 299.46 C 276.49 304.26 281.46 313.72 280.67 323.04 C 280.13 336.04 268.10 347.43 255.01 346.81 C 243.03 347.25 231.92 337.65 229.92 325.95 C 227.31 313.59 235.47 300.31 247.55 296.79 Z" />
</svg>
