<?xml version="1.0" encoding="UTF-8" ?>
<!DOCTYPE svg PUBLIC "-//W3C//DTD SVG 1.1//EN" "http://www.w3.org/Graphics/SVG/1.1/DTD/svg11.dtd">
<svg width="512pt" height="512pt" viewBox="0 0 512 512" version="1.1" xmlns="http://www.w3.org/2000/svg">
<path fill="#04aeda" opacity="1.00" d=" M 0.00 0.00 L 512.00 0.00 L 512.00 512.00 L 0.00 512.00 L 0.00 0.00 Z" />
<path fill="#ffffff" opacity="1.00" d=" M 293.88 111.25 C 311.41 106.91 330.84 111.71 344.55 123.41 C 355.84 132.71 363.34 146.51 365.05 161.04 C 368.06 183.46 356.61 207.07 336.93 218.31 C 339.30 219.85 342.16 220.26 344.76 221.28 C 363.32 228.13 379.45 241.49 389.40 258.61 C 399.83 276.42 403.62 298.10 399.65 318.36 C 397.19 332.17 391.09 345.29 382.28 356.19 C 379.25 359.92 375.65 363.28 371.33 365.45 C 369.78 371.35 370.81 378.07 367.30 383.40 C 364.92 387.11 360.77 388.99 356.85 390.63 C 325.86 404.33 288.77 403.78 258.33 388.83 C 253.86 387.01 250.83 382.86 249.78 378.23 C 248.51 371.04 248.53 363.71 248.57 356.43 C 245.72 353.39 243.65 349.77 241.33 346.35 C 240.94 346.31 240.16 346.22 239.77 346.18 C 239.41 351.96 238.98 359.12 233.26 362.29 C 222.29 367.81 210.26 371.10 198.08 372.50 C 192.04 372.79 186.00 372.76 179.96 372.54 C 167.27 371.22 154.79 367.47 143.58 361.38 C 137.96 357.41 137.98 349.92 137.23 343.78 C 131.70 340.43 127.24 335.61 123.82 330.17 C 108.23 307.01 108.08 274.69 123.29 251.30 C 132.91 235.92 148.71 224.84 166.14 220.11 C 153.66 212.58 144.40 199.53 142.56 184.96 C 139.04 164.89 150.06 143.34 168.28 134.24 C 179.26 128.24 192.65 126.99 204.63 130.50 C 215.53 133.81 225.48 140.75 231.70 150.38 C 243.41 167.27 242.58 191.65 229.77 207.73 C 224.96 214.45 217.91 218.93 210.86 222.97 C 224.91 228.50 237.11 238.55 245.20 251.32 C 255.14 238.50 268.11 227.90 283.30 221.97 C 279.79 219.68 275.91 218.00 272.57 215.44 C 260.09 206.42 251.50 192.26 249.26 177.02 C 246.81 161.25 251.07 144.50 261.08 132.03 C 269.18 121.59 280.99 114.13 293.88 111.25 Z" />
</svg>
