<?xml version="1.0" encoding="UTF-8" ?>
<!DOCTYPE svg PUBLIC "-//W3C//DTD SVG 1.1//EN" "http://www.w3.org/Graphics/SVG/1.1/DTD/svg11.dtd">
<svg width="512pt" height="512pt" viewBox="0 0 512 512" version="1.1" xmlns="http://www.w3.org/2000/svg">
<path fill="#1e86ea" opacity="1.00" d=" M 0.00 0.00 L 512.00 0.00 L 512.00 512.00 L 0.00 512.00 L 0.00 0.00 Z" />
<path fill="#ffffff" opacity="1.00" d=" M 277.16 132.93 C 288.10 131.81 299.43 134.45 308.78 140.26 C 320.73 147.60 329.45 160.06 331.98 173.88 C 333.86 185.28 332.42 197.42 326.63 207.55 C 319.41 220.78 306.01 230.43 291.15 233.03 C 278.28 235.47 264.53 232.57 253.69 225.22 C 242.35 217.76 234.27 205.48 232.00 192.09 C 229.41 178.84 232.88 164.70 240.72 153.79 C 249.15 142.07 262.75 134.19 277.16 132.93 Z" />
<path fill="#ffffff" opacity="1.00" d=" M 181.66 164.85 C 189.43 163.15 197.83 164.31 204.74 168.32 C 212.83 172.83 218.69 181.09 220.37 190.19 C 221.21 196.52 221.03 203.27 218.20 209.12 C 214.02 218.92 204.57 226.27 194.02 227.84 C 179.88 230.49 164.58 222.19 159.18 208.83 C 152.89 195.22 158.19 177.83 170.64 169.64 C 173.96 167.35 177.74 165.79 181.66 164.85 Z" />
<path fill="#ffffff" opacity="1.00" d=" M 155.65 232.64 C 159.67 229.89 164.18 227.92 168.97 226.99 C 177.28 232.10 187.44 234.03 196.99 231.81 C 201.03 231.01 204.65 228.98 208.32 227.20 C 216.48 226.65 223.60 231.52 229.76 236.29 C 211.68 248.34 197.57 265.76 187.96 285.14 C 182.67 296.12 178.80 307.95 178.18 320.20 C 164.98 320.25 151.77 320.09 138.56 320.28 C 138.13 313.29 138.46 306.27 138.40 299.27 C 133.87 299.13 129.02 297.17 127.17 292.73 C 123.62 284.74 125.87 275.68 128.66 267.81 C 134.06 253.88 143.33 241.21 155.65 232.64 Z" />
<path fill="#ffffff" opacity="1.00" d=" M 250.88 231.42 C 269.09 243.82 294.73 243.75 313.04 231.57 C 323.75 231.66 333.68 236.53 342.12 242.80 C 354.46 251.84 364.39 263.83 372.34 276.82 C 379.71 289.09 385.39 302.70 386.83 317.05 C 387.65 325.62 386.55 335.64 379.80 341.74 C 374.82 346.26 367.64 346.22 361.38 345.29 C 361.29 356.44 361.38 367.60 361.34 378.76 C 308.30 378.74 255.26 378.75 202.22 378.75 C 202.32 366.80 202.28 354.84 202.23 342.89 C 196.84 343.02 190.94 340.78 188.32 335.79 C 183.75 327.75 184.66 318.07 186.48 309.37 C 191.21 289.59 201.91 271.50 215.85 256.81 C 226.07 246.60 237.14 236.55 250.88 231.42 Z" />
</svg>
