<?xml version="1.0" encoding="UTF-8" ?>
<!DOCTYPE svg PUBLIC "-//W3C//DTD SVG 1.1//EN" "http://www.w3.org/Graphics/SVG/1.1/DTD/svg11.dtd">
<svg width="512pt" height="512pt" viewBox="0 0 512 512" version="1.1" xmlns="http://www.w3.org/2000/svg">
<path fill="#0269e2" opacity="1.00" d=" M 0.00 0.00 L 512.00 0.00 L 512.00 512.00 L 0.00 512.00 L 0.00 0.00 Z" />
<path fill="#ffffff" opacity="1.00" d=" M 250.32 142.37 C 253.34 142.51 255.23 145.86 257.14 147.94 C 267.38 161.71 275.51 176.90 284.67 191.38 C 304.19 221.19 320.61 252.85 337.87 283.98 C 339.14 286.02 340.09 288.54 339.12 290.92 C 337.13 295.56 332.37 298.19 327.81 299.77 C 323.63 301.48 318.17 300.08 315.75 296.15 C 311.90 290.51 308.83 284.38 305.67 278.35 C 293.63 254.65 282.74 230.39 271.87 206.14 C 266.61 194.77 261.26 183.44 256.46 171.87 C 253.33 164.08 250.12 156.22 248.66 147.92 C 248.33 146.05 248.32 143.23 250.32 142.37 Z" />
<path fill="#ffffff" opacity="1.00" d=" M 229.65 202.58 C 230.94 199.96 234.09 198.43 236.91 199.52 C 240.40 201.04 243.58 203.19 246.97 204.92 C 250.56 207.06 255.39 208.41 256.50 213.01 C 255.06 217.11 252.51 220.65 250.35 224.38 C 228.55 260.90 206.73 297.41 184.96 333.94 C 183.53 336.69 179.95 338.42 177.07 336.77 C 171.67 333.96 166.35 330.97 161.06 327.94 C 158.05 326.34 157.74 322.18 159.74 319.65 C 183.04 280.63 206.35 241.61 229.65 202.58 Z" />
<path fill="#ffffff" opacity="1.00" d=" M 129.64 246.96 C 129.23 243.92 131.96 241.06 135.00 241.30 C 154.75 241.30 174.50 241.22 194.24 241.34 C 185.40 255.59 177.08 270.15 168.32 284.44 C 157.21 284.34 146.10 284.45 134.99 284.39 C 132.14 284.54 129.36 281.99 129.66 279.07 C 129.63 268.36 129.67 257.66 129.64 246.96 Z" />
<path fill="#ffffff" opacity="1.00" d=" M 252.58 241.33 C 260.39 241.26 268.21 241.26 276.02 241.33 C 282.63 255.84 289.31 270.34 296.85 284.39 C 273.53 284.39 250.21 284.42 226.90 284.38 C 235.47 270.03 244.07 255.70 252.58 241.33 Z" />
<path fill="#ffffff" opacity="1.00" d=" M 326.49 241.26 C 343.70 241.34 360.91 241.23 378.12 241.31 C 381.10 241.16 383.63 243.96 383.33 246.91 C 383.36 257.62 383.37 268.34 383.33 279.06 C 383.52 281.93 380.90 284.48 378.07 284.38 C 368.65 284.44 359.23 284.37 349.81 284.40 C 348.91 282.30 347.98 280.22 346.86 278.23 C 340.04 265.92 333.44 253.49 326.49 241.26 Z" />
<path fill="#ffffff" opacity="1.00" d=" M 340.44 303.61 C 343.10 302.48 346.56 303.33 348.13 305.84 C 350.41 309.33 352.07 313.17 354.19 316.76 C 355.47 319.15 357.38 321.74 356.44 324.61 C 355.34 328.25 351.28 329.51 348.38 331.40 C 345.46 333.40 340.83 333.45 338.63 330.35 C 335.47 325.82 332.54 321.12 329.46 316.53 C 327.56 314.16 327.72 310.11 330.57 308.54 C 333.75 306.70 337.10 305.15 340.44 303.61 Z" />
<path fill="#ffffff" opacity="1.00" d=" M 150.74 335.95 C 152.22 334.40 154.41 333.55 156.36 334.84 C 161.68 337.81 167.15 340.55 172.31 343.79 C 174.42 344.85 173.91 347.89 171.99 348.89 C 166.22 352.88 160.22 356.53 154.43 360.49 C 152.80 361.48 151.21 362.90 149.18 362.84 C 147.71 362.09 148.24 360.29 148.18 358.99 C 148.69 351.27 150.23 343.66 150.74 335.95 Z" />
<path fill="#ffffff" opacity="1.00" d=" M 349.73 344.88 C 351.55 338.98 358.33 336.44 363.99 336.53 C 369.45 337.00 372.69 342.19 374.00 347.01 C 376.22 354.21 375.89 361.86 375.71 369.29 C 370.23 363.72 361.75 363.22 355.87 358.19 C 351.99 355.07 348.61 350.07 349.73 344.88 Z" />
</svg>
