<?xml version="1.0" encoding="UTF-8" ?>
<!DOCTYPE svg PUBLIC "-//W3C//DTD SVG 1.1//EN" "http://www.w3.org/Graphics/SVG/1.1/DTD/svg11.dtd">
<svg width="512pt" height="512pt" viewBox="0 0 512 512" version="1.1" xmlns="http://www.w3.org/2000/svg">
<path fill="#a10606" opacity="1.00" d=" M 0.00 0.00 L 512.00 0.00 L 512.00 512.00 L 0.00 512.00 L 0.00 0.00 Z" />
<path fill="#ffffff" opacity="1.00" d=" M 155.11 130.88 C 219.84 130.88 284.56 130.88 349.29 130.88 C 349.25 157.05 349.34 183.22 349.24 209.38 C 367.79 216.25 386.45 222.81 405.00 229.68 C 387.88 276.36 371.08 323.15 354.10 369.88 C 352.44 374.71 350.45 379.43 349.04 384.35 C 284.38 384.37 219.72 384.37 155.06 384.34 C 155.19 299.86 155.08 215.37 155.11 130.88 Z" />
<path fill="#a10606" opacity="1.00" d=" M 173.58 155.11 C 225.96 155.16 278.34 155.16 330.71 155.12 C 330.67 170.76 330.74 186.41 330.68 202.05 C 329.62 202.66 329.00 203.67 328.69 204.83 C 326.57 210.75 324.32 216.63 322.45 222.63 C 321.89 202.57 322.34 182.47 322.23 162.40 C 318.06 162.36 313.90 162.37 309.74 162.39 C 309.79 193.26 309.72 224.13 309.77 255.00 C 309.96 257.62 308.69 259.98 307.82 262.37 C 307.74 229.04 307.77 195.70 307.80 162.36 C 303.69 162.38 299.58 162.39 295.47 162.36 C 295.52 205.58 295.45 248.81 295.51 292.03 C 295.74 295.22 295.25 298.43 293.65 301.24 C 293.42 254.95 293.60 208.65 293.56 162.36 C 289.45 162.38 285.34 162.37 281.23 162.38 C 281.30 216.25 281.25 270.11 281.26 323.98 C 281.11 329.70 282.07 335.69 279.53 341.05 C 279.23 337.72 279.27 334.38 279.30 331.05 C 279.32 274.82 279.27 218.60 279.32 162.38 C 275.14 162.38 270.96 162.30 266.79 162.49 C 266.94 223.56 266.80 284.63 266.86 345.70 C 270.47 345.73 274.09 345.72 277.70 345.72 C 275.82 350.57 274.00 355.44 272.13 360.29 C 239.28 360.28 206.43 360.27 173.58 360.30 C 173.59 291.90 173.59 223.51 173.58 155.11 Z" />
<path fill="#ffffff" opacity="1.00" d=" M 181.42 162.36 C 185.52 162.39 189.63 162.38 193.74 162.36 C 193.71 223.49 193.72 284.62 193.73 345.75 C 189.63 345.71 185.53 345.71 181.42 345.75 C 181.44 284.62 181.45 223.49 181.42 162.36 Z" />
<path fill="#ffffff" opacity="1.00" d=" M 195.48 162.36 C 199.58 162.38 203.68 162.38 207.78 162.36 C 207.74 224.80 207.73 287.23 207.79 349.66 C 203.67 349.67 199.56 349.67 195.45 349.66 C 195.55 287.23 195.48 224.79 195.48 162.36 Z" />
<path fill="#ffffff" opacity="1.00" d=" M 209.71 162.39 C 213.86 162.37 218.02 162.38 222.18 162.38 C 222.25 223.46 222.10 284.55 222.25 345.63 C 218.08 345.79 213.90 345.71 209.73 345.73 C 209.71 284.62 209.75 223.50 209.71 162.39 Z" />
<path fill="#ffffff" opacity="1.00" d=" M 224.12 162.37 C 228.23 162.38 232.33 162.37 236.44 162.38 C 236.41 224.80 236.38 287.23 236.46 349.65 C 232.34 349.68 228.22 349.67 224.11 349.65 C 224.19 287.23 224.16 224.80 224.12 162.37 Z" />
<path fill="#ffffff" opacity="1.00" d=" M 238.35 162.36 C 242.45 162.38 246.56 162.38 250.67 162.36 C 250.64 223.49 250.65 284.62 250.67 345.74 C 246.56 345.71 242.46 345.71 238.36 345.75 C 238.36 284.62 238.38 223.49 238.35 162.36 Z" />
<path fill="#ffffff" opacity="1.00" d=" M 252.60 162.37 C 256.73 162.38 260.86 162.38 264.98 162.36 C 264.72 208.91 264.96 255.47 264.87 302.03 C 264.92 317.91 264.73 333.79 265.07 349.65 C 260.91 349.67 256.75 349.67 252.59 349.66 C 252.64 287.23 252.62 224.80 252.60 162.37 Z" />
<path fill="#a10606" opacity="1.00" d=" M 332.25 207.96 C 333.35 208.20 334.44 208.47 335.52 208.79 C 356.96 216.51 378.34 224.37 399.80 232.02 C 394.64 246.54 389.28 261.00 384.11 275.52 C 361.65 267.31 339.16 259.16 316.67 251.04 C 321.98 236.72 327.00 222.30 332.25 207.96 Z" />
<path fill="#a10606" opacity="1.00" d=" M 313.61 259.02 C 336.05 267.23 358.59 275.18 380.98 283.54 C 375.65 297.92 370.45 312.34 365.29 326.78 C 342.83 318.67 320.39 310.52 297.94 302.39 C 303.03 287.89 308.35 273.46 313.61 259.02 Z" />
<path fill="#a10606" opacity="1.00" d=" M 295.03 310.42 C 317.65 318.32 340.10 326.70 362.65 334.80 C 357.37 349.20 352.11 363.60 347.00 378.06 C 324.41 370.25 302.08 361.68 279.51 353.84 C 284.58 339.34 290.20 325.02 295.03 310.42 Z" />
</svg>
