<?xml version="1.0" encoding="UTF-8" ?>
<!DOCTYPE svg PUBLIC "-//W3C//DTD SVG 1.1//EN" "http://www.w3.org/Graphics/SVG/1.1/DTD/svg11.dtd">
<svg width="512pt" height="512pt" viewBox="0 0 512 512" version="1.1" xmlns="http://www.w3.org/2000/svg">
<path fill="#aa3f41" opacity="1.00" d=" M 0.00 0.00 L 512.00 0.00 L 512.00 512.00 L 0.00 512.00 L 0.00 0.00 Z" />
<path fill="#ffffff" opacity="1.00" d=" M 181.24 128.22 C 187.66 125.34 195.95 130.90 195.64 137.95 C 195.64 153.31 195.66 168.67 195.63 184.03 C 195.75 190.74 188.25 196.14 181.92 193.89 C 177.63 192.65 174.26 188.57 174.34 184.03 C 174.30 168.70 174.31 153.38 174.34 138.05 C 174.23 133.71 177.25 129.73 181.24 128.22 Z" />
<path fill="#ffffff" opacity="1.00" d=" M 305.35 128.48 C 311.87 125.00 320.63 130.74 320.40 138.02 C 320.39 153.36 320.44 168.70 320.38 184.03 C 320.33 190.56 313.22 196.05 306.91 193.96 C 302.05 192.75 298.68 187.98 298.88 183.02 C 298.84 168.67 298.90 154.32 298.86 139.97 C 298.52 135.28 300.89 130.36 305.35 128.48 Z" />
<path fill="#ffffff" opacity="1.00" d=" M 136.20 164.18 C 141.24 162.30 146.71 162.94 151.97 162.85 C 155.76 162.97 159.62 162.42 163.36 163.32 C 163.12 170.84 163.12 178.38 163.25 185.90 C 163.96 197.11 174.81 206.21 185.93 205.49 C 196.39 205.30 205.91 196.43 206.72 185.97 C 207.06 178.57 206.64 171.14 206.89 163.74 C 207.11 163.53 207.53 163.11 207.74 162.90 C 234.34 162.69 260.95 163.03 287.55 162.74 C 288.29 170.83 287.26 178.99 288.07 187.08 C 289.44 197.91 300.14 206.33 310.96 205.48 C 321.99 205.13 331.72 195.09 331.56 184.03 C 331.59 176.97 331.51 169.90 331.58 162.84 C 338.07 162.97 344.58 162.60 351.06 163.02 C 358.28 163.65 365.04 168.34 367.92 175.03 C 369.82 179.08 369.80 183.65 369.79 188.03 C 369.72 240.36 369.87 292.70 369.71 345.03 C 369.84 355.65 360.54 365.06 349.97 365.30 C 281.00 365.35 212.02 365.31 143.05 365.32 C 132.25 365.41 122.46 355.90 122.55 345.04 C 122.53 291.35 122.57 237.66 122.54 183.97 C 122.31 175.36 128.07 167.01 136.20 164.18 Z" />
<path fill="#ffffff" opacity="1.00" d=" M 380.32 183.06 C 380.35 178.83 386.81 177.90 388.46 181.60 C 389.04 184.35 388.66 187.20 388.74 189.99 C 388.72 241.68 388.74 293.37 388.73 345.06 C 388.82 354.04 385.46 362.92 379.81 369.86 C 372.43 379.04 360.75 384.45 349.01 384.49 C 282.66 384.50 216.32 384.49 149.98 384.50 C 147.25 384.44 144.50 384.73 141.79 384.34 C 139.89 383.67 139.27 381.64 138.46 380.02 C 139.34 377.68 141.17 375.38 143.96 375.73 C 211.30 375.72 278.64 375.71 345.98 375.73 C 351.68 376.00 357.55 375.39 362.66 372.71 C 372.84 367.93 379.77 357.23 380.23 346.03 C 380.33 291.71 380.14 237.38 380.32 183.06 Z" />
<path fill="#aa3f41" opacity="1.00" d=" M 142.25 224.35 C 211.17 224.21 280.11 224.32 349.04 224.30 C 353.68 223.94 357.88 228.36 357.50 232.96 C 357.43 270.31 357.54 307.67 357.44 345.02 C 357.55 349.48 353.38 353.21 349.04 353.24 C 282.36 353.29 215.67 353.23 148.99 353.26 C 145.71 353.15 142.16 353.78 139.17 352.11 C 136.26 350.57 134.53 347.26 134.78 344.00 C 134.81 306.99 134.78 269.99 134.79 232.99 C 134.55 228.77 137.97 224.61 142.25 224.35 Z" />
<path fill="#ffffff" opacity="1.00" d=" M 184.89 254.94 C 190.61 248.45 199.38 245.27 207.90 245.27 C 217.59 244.87 227.69 248.45 234.08 255.92 C 240.63 263.31 242.00 274.13 239.59 283.45 C 237.67 290.62 232.51 296.27 227.12 301.12 C 222.95 305.00 218.85 308.96 214.56 312.71 C 223.57 312.85 232.59 312.66 241.60 312.69 C 241.68 318.77 241.45 324.86 241.58 330.94 C 219.46 330.97 197.35 330.85 175.23 331.13 C 186.63 318.53 198.26 306.14 209.68 293.55 C 214.97 287.42 219.68 279.37 218.07 270.98 C 216.85 264.92 209.22 261.00 203.96 264.86 C 199.99 267.46 199.83 272.57 200.28 276.81 C 192.39 276.77 184.51 276.78 176.63 276.84 C 177.14 268.97 179.36 260.81 184.89 254.94 Z" />
<path fill="#ffffff" opacity="1.00" d=" M 271.07 249.10 C 277.72 245.42 285.62 244.67 293.06 245.61 C 300.48 246.69 307.87 250.75 311.31 257.65 C 315.93 266.90 314.64 279.85 305.74 286.10 C 317.67 290.55 321.37 305.95 316.88 316.93 C 313.56 325.15 305.67 330.84 297.23 332.91 C 285.87 335.87 272.61 334.32 263.57 326.37 C 257.34 320.73 253.13 312.80 252.42 304.38 C 259.76 304.11 267.12 304.34 274.47 304.25 C 274.81 306.70 275.23 309.24 276.73 311.29 C 280.88 317.33 291.14 317.39 295.45 311.49 C 298.45 307.41 298.29 301.10 294.61 297.48 C 291.61 294.09 286.65 292.86 282.41 294.46 C 282.44 289.72 282.43 284.99 282.42 280.26 C 286.52 280.38 291.38 279.35 293.22 275.20 C 294.27 271.94 294.46 267.76 291.86 265.15 C 288.54 261.80 282.49 261.77 279.29 265.30 C 277.36 267.11 277.04 269.84 276.51 272.28 C 270.01 272.23 263.51 272.27 257.02 272.32 C 257.49 262.91 262.79 253.74 271.07 249.10 Z" />
</svg>
