<?xml version="1.0" encoding="UTF-8" ?>
<!DOCTYPE svg PUBLIC "-//W3C//DTD SVG 1.1//EN" "http://www.w3.org/Graphics/SVG/1.1/DTD/svg11.dtd">
<svg width="512pt" height="512pt" viewBox="0 0 512 512" version="1.1" xmlns="http://www.w3.org/2000/svg">
<path fill="#00aeef" opacity="1.00" d=" M 0.00 0.00 L 512.00 0.00 L 512.00 512.00 L 0.00 512.00 L 0.00 0.00 Z" />
<path fill="#ffffff" opacity="1.00" d=" M 125.64 159.11 C 127.79 151.15 135.63 145.04 143.95 145.32 C 218.32 145.33 292.70 145.33 367.08 145.32 C 374.97 145.16 382.40 150.76 384.84 158.19 C 385.91 160.99 385.72 164.03 385.75 166.98 C 385.70 201.02 385.78 235.06 385.70 269.11 C 382.79 264.24 379.31 259.69 375.05 255.93 C 374.04 254.85 372.31 253.93 372.70 252.16 C 372.75 223.10 372.69 194.04 372.73 164.98 C 373.08 162.18 371.27 159.35 368.57 158.54 C 366.07 158.17 363.53 158.38 361.01 158.34 C 288.64 158.36 216.27 158.32 143.90 158.36 C 140.92 158.18 137.95 160.91 138.17 163.95 C 138.12 216.98 138.19 270.02 138.13 323.06 C 138.21 325.47 137.65 328.43 139.82 330.16 C 141.10 331.64 143.08 331.90 144.92 331.82 C 192.94 331.79 240.95 331.82 288.97 331.80 C 292.66 336.74 296.98 341.19 302.00 344.79 C 248.97 344.77 195.95 344.81 142.93 344.77 C 133.17 344.79 124.73 335.74 125.00 326.05 C 124.82 273.36 124.99 220.67 124.90 167.98 C 124.90 165.01 124.95 162.01 125.64 159.11 Z" />
<path fill="#ffffff" opacity="1.00" d=" M 329.26 247.38 C 340.76 246.11 352.70 248.24 362.55 254.47 C 375.72 262.48 385.07 276.69 386.66 292.07 C 388.70 307.34 383.11 323.38 372.12 334.16 C 364.16 342.30 353.34 347.61 342.02 348.90 C 324.99 351.22 307.14 343.93 296.34 330.62 C 288.78 321.57 284.57 309.82 284.61 298.04 C 284.59 285.07 289.80 272.19 298.81 262.87 C 306.78 254.44 317.73 248.80 329.26 247.38 Z" />
<path fill="#00aeef" opacity="1.00" d=" M 326.51 261.83 C 336.06 259.29 346.58 260.92 355.00 266.06 C 363.92 271.47 370.49 280.70 372.35 291.01 C 373.68 299.08 372.79 307.68 368.91 314.96 C 363.53 325.58 352.82 333.24 341.04 334.88 C 325.80 337.35 309.65 329.02 302.65 315.30 C 297.17 305.09 296.93 292.27 302.03 281.87 C 306.71 272.03 315.91 264.43 326.51 261.83 Z" />
<path fill="#ffffff" opacity="1.00" d=" M 363.77 348.83 C 372.73 343.31 380.78 336.02 385.94 326.74 C 396.56 338.47 407.44 349.97 417.91 361.84 C 410.12 368.68 402.53 375.74 394.92 382.79 C 384.56 371.45 374.23 360.08 363.77 348.83 Z" />
</svg>
