<?xml version="1.0" encoding="UTF-8" ?>
<!DOCTYPE svg PUBLIC "-//W3C//DTD SVG 1.1//EN" "http://www.w3.org/Graphics/SVG/1.1/DTD/svg11.dtd">
<svg width="512pt" height="512pt" viewBox="0 0 512 512" version="1.1" xmlns="http://www.w3.org/2000/svg">
<path fill="#3da1e8" opacity="1.00" d=" M 0.00 0.00 L 512.00 0.00 L 512.00 512.00 L 0.00 512.00 L 0.00 0.00 Z" />
<path fill="#ffffff" opacity="1.00" d=" M 249.69 130.39 C 253.72 130.35 257.74 130.36 261.77 130.36 C 261.70 150.21 261.79 170.06 261.73 189.91 C 259.85 188.93 258.03 187.83 256.00 187.20 C 253.82 187.94 251.80 189.06 249.73 190.06 C 249.67 170.17 249.75 150.28 249.69 130.39 Z" />
<path fill="#ffffff" opacity="1.00" d=" M 264.66 130.46 C 270.77 129.31 277.03 129.64 283.13 130.62 C 301.44 133.64 318.37 142.65 337.02 143.94 C 346.87 144.73 356.85 142.14 365.22 136.93 C 365.30 151.76 365.14 166.60 365.30 181.43 C 354.28 189.16 339.95 190.12 327.11 187.36 C 306.35 183.07 286.44 171.96 264.67 174.93 C 264.68 160.11 264.71 145.28 264.66 130.46 Z" />
<path fill="#ffffff" opacity="1.00" d=" M 208.37 188.40 C 215.03 188.42 221.68 188.38 228.34 188.43 C 228.30 194.62 228.32 200.82 228.32 207.02 C 233.09 206.15 237.82 205.02 242.53 203.87 C 242.52 201.56 242.52 199.26 242.54 196.95 C 247.02 194.71 251.51 192.46 255.99 190.21 C 260.46 192.46 264.94 194.70 269.41 196.94 C 269.42 199.28 269.42 201.63 269.39 203.97 C 273.91 205.09 278.43 206.26 283.04 206.96 C 282.76 202.49 282.88 198.00 282.80 193.52 C 289.47 193.17 296.16 193.45 302.85 193.37 C 302.78 199.39 302.84 205.42 302.80 211.44 C 311.06 213.42 319.35 215.29 327.68 216.99 C 327.69 212.47 327.73 207.94 327.61 203.42 C 334.27 203.19 340.93 203.37 347.59 203.32 C 347.56 209.35 347.61 215.38 347.54 221.42 C 355.77 223.45 364.09 225.11 372.34 227.07 C 372.65 221.81 372.42 216.55 372.47 211.30 C 379.16 211.30 385.85 211.32 392.53 211.29 C 392.51 258.12 392.47 304.95 392.55 351.79 C 380.13 354.58 367.72 357.46 355.25 360.03 C 355.32 345.47 355.13 330.90 355.35 316.34 C 345.99 315.44 336.46 316.49 327.02 316.07 C 324.83 315.93 322.63 315.89 320.44 316.06 C 320.48 333.37 320.53 350.68 320.42 367.99 C 298.90 372.49 277.51 377.63 256.00 382.15 C 234.35 377.97 212.91 372.49 191.29 368.08 C 191.15 350.79 191.21 333.49 191.26 316.20 C 179.65 315.85 168.01 316.16 156.39 316.02 C 156.42 330.78 156.39 345.54 156.40 360.30 C 143.89 357.29 131.27 354.71 118.73 351.79 C 118.74 304.96 118.74 258.12 118.73 211.29 C 125.40 211.32 132.07 211.31 138.74 211.29 C 138.72 216.52 138.72 221.74 138.72 226.96 C 147.09 225.35 155.38 223.37 163.69 221.45 C 163.58 213.75 163.67 206.05 163.62 198.35 C 170.27 198.33 176.91 198.36 183.55 198.34 C 183.54 204.56 183.51 210.79 183.56 217.02 C 191.88 215.31 200.16 213.42 208.43 211.48 C 208.35 203.79 208.44 196.09 208.37 188.40 Z" />
</svg>
