<?xml version="1.0" encoding="UTF-8" ?>
<!DOCTYPE svg PUBLIC "-//W3C//DTD SVG 1.1//EN" "http://www.w3.org/Graphics/SVG/1.1/DTD/svg11.dtd">
<svg width="512pt" height="512pt" viewBox="0 0 512 512" version="1.1" xmlns="http://www.w3.org/2000/svg">
<path fill="#14429c" opacity="1.00" d=" M 0.00 0.00 L 512.00 0.00 L 512.00 512.00 L 0.00 512.00 L 0.00 0.00 Z" />
<path fill="#ffffff" opacity="1.00" d=" M 218.67 130.01 C 223.07 129.30 227.55 129.26 231.99 128.88 C 247.34 128.78 262.69 128.89 278.04 128.82 C 299.47 128.84 320.84 135.38 338.41 147.70 C 365.99 166.69 383.35 199.54 383.17 233.06 C 383.14 247.71 383.16 262.35 383.17 277.00 C 383.41 296.03 378.23 315.09 368.42 331.41 C 349.87 363.04 313.69 383.36 277.00 382.37 C 261.97 382.38 246.94 382.36 231.91 382.38 C 212.14 382.13 192.51 375.97 176.05 365.02 C 148.08 346.80 129.87 314.43 129.27 281.00 C 129.08 264.65 129.18 248.29 129.21 231.93 C 129.38 210.56 136.50 189.36 149.09 172.11 C 165.43 149.53 191.04 133.87 218.67 130.01 Z" />
<path fill="#14429c" opacity="1.00" d=" M 252.40 141.36 C 262.66 141.33 272.91 141.18 283.16 141.47 C 310.50 142.60 336.80 156.95 352.86 179.06 C 364.09 194.29 370.62 213.06 370.69 232.02 C 370.69 243.13 370.59 254.23 370.75 265.34 C 356.09 265.44 341.43 265.47 326.78 265.32 C 326.71 257.19 326.83 249.06 326.72 240.94 C 326.69 225.66 319.77 210.70 308.62 200.35 C 298.08 190.29 283.59 184.72 269.05 184.70 C 263.52 184.70 257.98 184.73 252.45 184.69 C 252.34 170.25 252.43 155.81 252.40 141.36 Z" />
<path fill="#14429c" opacity="1.00" d=" M 168.51 168.51 C 184.56 152.33 206.74 142.38 229.54 141.42 C 229.68 156.38 229.53 171.33 229.61 186.29 C 214.56 189.97 201.10 199.86 193.34 213.30 C 188.74 221.12 186.04 230.05 185.52 239.11 C 185.40 248.73 185.47 258.35 185.47 267.97 C 185.12 285.49 193.49 302.91 207.31 313.66 C 214.95 319.77 224.20 323.81 233.84 325.42 C 245.84 326.79 257.95 326.04 270.00 326.16 C 285.13 325.92 300.15 319.62 310.58 308.58 C 317.30 302.00 321.72 293.50 324.78 284.69 C 340.01 284.73 355.23 284.67 370.46 284.72 C 369.16 304.83 360.66 324.30 347.19 339.24 C 334.03 354.02 315.98 364.40 296.55 368.20 C 287.85 370.23 278.87 369.78 270.02 369.83 C 258.02 369.84 246.03 369.81 234.03 369.84 C 209.89 370.30 185.86 360.22 168.89 343.10 C 154.71 329.25 145.30 310.62 142.53 291.00 C 141.07 282.42 141.66 273.67 141.52 265.00 C 141.56 254.00 141.44 243.00 141.58 232.00 C 141.85 208.40 151.81 185.17 168.51 168.51 Z" />
</svg>
