<?xml version="1.0" encoding="UTF-8" ?>
<!DOCTYPE svg PUBLIC "-//W3C//DTD SVG 1.1//EN" "http://www.w3.org/Graphics/SVG/1.1/DTD/svg11.dtd">
<svg width="512pt" height="512pt" viewBox="0 0 512 512" version="1.1" xmlns="http://www.w3.org/2000/svg">
<path fill="#00709f" opacity="1.00" d=" M 0.00 0.00 L 512.00 0.00 L 512.00 512.00 L 0.00 512.00 L 0.00 0.00 Z" />
<path fill="#ffffff" opacity="1.00" d=" M 254.10 118.17 C 254.75 117.48 255.00 115.52 256.28 116.32 C 264.24 129.68 271.85 143.25 279.90 156.56 C 263.83 156.64 247.76 156.60 231.69 156.58 C 239.21 143.80 246.68 131.00 254.10 118.17 Z" />
<path fill="#ffffff" opacity="1.00" d=" M 225.98 175.07 C 227.11 170.95 227.95 166.73 229.56 162.77 C 247.05 163.22 264.58 162.31 282.04 163.24 C 286.67 181.65 291.76 199.97 296.69 218.31 C 269.25 218.30 241.81 218.31 214.37 218.31 C 218.28 203.90 222.10 189.48 225.98 175.07 Z" />
<path fill="#ffffff" opacity="1.00" d=" M 213.43 275.45 C 213.45 258.50 213.44 241.55 213.43 224.60 C 241.47 224.63 269.51 224.63 297.56 224.60 C 297.53 241.55 297.52 258.50 297.56 275.45 C 269.52 275.43 241.47 275.41 213.43 275.45 Z" />
<path fill="#ffffff" opacity="1.00" d=" M 214.94 281.74 C 242.20 281.74 269.46 281.74 296.72 281.74 C 296.11 283.97 295.51 286.21 294.89 288.45 C 292.17 288.48 289.47 288.83 286.87 289.66 C 286.54 290.19 285.87 291.25 285.54 291.78 C 286.07 297.50 286.53 303.23 286.85 308.97 C 287.35 309.47 288.36 310.46 288.86 310.96 C 286.37 319.72 284.48 328.66 281.54 337.29 C 264.28 337.06 247.01 337.24 229.74 337.20 C 227.30 328.59 225.15 319.91 222.72 311.30 C 226.92 308.59 224.98 303.09 225.91 298.94 C 225.89 295.95 227.63 292.09 225.06 289.81 C 222.51 288.37 219.46 288.62 216.63 288.49 C 216.03 286.24 215.46 284.00 214.94 281.74 Z" />
<path fill="#ffffff" opacity="1.00" d=" M 199.66 308.62 C 203.85 301.34 210.86 294.62 219.78 294.57 C 219.64 297.55 219.46 300.53 219.28 303.51 C 212.82 303.76 208.09 308.93 205.45 314.39 C 199.39 326.76 198.04 340.81 198.15 354.41 C 195.90 356.48 192.13 356.29 189.33 357.54 C 188.55 340.79 191.13 323.29 199.66 308.62 Z" />
<path fill="#ffffff" opacity="1.00" d=" M 292.29 294.57 C 300.92 294.64 307.90 300.94 312.04 308.02 C 320.93 322.79 323.42 340.55 322.76 357.54 C 319.93 356.67 317.08 355.87 314.22 355.14 C 313.76 341.31 312.90 326.97 306.60 314.37 C 303.93 308.94 299.23 303.74 292.76 303.51 C 292.57 300.53 292.40 297.55 292.29 294.57 Z" />
<path fill="#ffffff" opacity="1.00" d=" M 109.67 334.20 C 134.56 334.18 159.46 334.23 184.36 334.17 C 182.89 343.31 182.00 352.70 183.24 361.91 C 183.30 363.73 185.18 365.12 186.96 364.54 C 191.67 363.45 196.33 362.10 201.00 360.84 C 202.81 360.48 204.75 359.12 204.40 357.03 C 204.31 349.40 204.55 341.77 205.80 334.23 C 211.32 334.17 216.84 334.21 222.36 334.19 C 223.47 337.20 223.25 341.23 226.06 343.30 C 245.38 343.67 264.74 343.37 284.07 343.45 C 288.53 343.14 287.86 337.36 289.12 334.22 C 294.83 334.18 300.55 334.19 306.27 334.21 C 307.56 342.18 307.90 350.28 307.49 358.34 C 309.42 361.15 313.05 361.25 316.02 362.18 C 319.38 362.94 322.63 364.28 326.07 364.62 C 328.25 364.74 329.01 362.27 329.12 360.53 C 329.67 351.73 329.31 342.85 327.65 334.19 C 352.39 334.25 377.14 334.10 401.89 334.26 C 406.73 354.85 412.46 375.25 416.98 395.90 C 309.42 395.98 201.87 395.88 94.31 395.95 C 99.28 375.33 104.57 354.79 109.67 334.20 Z" />
<path fill="#00709f" opacity="1.00" d=" M 293.30 365.21 C 294.09 365.03 295.69 364.66 296.49 364.48 C 297.53 367.24 297.18 370.21 296.90 373.08 C 299.77 371.49 304.14 370.39 306.03 373.96 C 307.46 378.25 306.50 382.98 306.70 387.45 C 305.38 387.40 304.07 387.34 302.76 387.28 C 302.78 383.45 302.88 379.61 302.51 375.80 C 301.90 375.49 300.69 374.87 300.09 374.56 C 299.05 375.27 298.11 376.08 297.27 377.00 C 297.00 380.41 297.20 383.84 297.17 387.26 C 295.86 387.34 294.55 387.41 293.25 387.49 C 293.19 380.06 293.02 372.62 293.30 365.21 Z" />
<path fill="#00709f" opacity="1.00" d=" M 176.39 366.44 C 180.64 366.80 186.00 365.15 189.24 368.76 C 191.83 371.79 189.88 376.20 186.60 377.76 C 189.39 380.24 190.36 383.96 191.67 387.31 C 190.64 387.37 188.58 387.49 187.56 387.54 C 185.57 384.22 185.17 378.57 180.33 378.31 C 180.16 381.33 180.18 384.36 180.20 387.39 C 178.88 386.95 176.09 388.41 175.98 386.24 C 175.85 379.65 175.67 372.98 176.39 366.44 Z" />
<path fill="#00709f" opacity="1.00" d=" M 205.80 366.38 C 207.21 366.40 208.62 366.44 210.03 366.50 C 208.35 370.05 205.55 372.87 203.25 376.01 C 205.72 379.72 208.27 383.38 210.54 387.21 C 209.02 387.30 207.51 387.38 205.99 387.45 C 203.62 383.93 201.64 380.13 198.91 376.86 C 198.80 380.37 198.86 383.89 198.86 387.41 C 197.84 387.38 195.80 387.32 194.79 387.29 C 194.77 380.40 194.79 373.50 194.77 366.61 C 195.76 366.51 197.74 366.32 198.73 366.23 C 198.97 369.51 198.83 372.81 198.88 376.11 C 201.40 373.03 203.50 369.63 205.80 366.38 Z" />
<path fill="#00709f" opacity="1.00" d=" M 213.40 366.40 C 214.74 366.41 216.09 366.43 217.44 366.47 C 217.41 372.27 217.43 378.07 217.42 383.88 C 219.76 383.85 222.11 383.84 224.46 383.82 C 224.52 384.99 224.58 386.16 224.64 387.34 C 220.94 387.33 217.24 387.33 213.55 387.30 C 213.12 380.34 213.37 373.36 213.40 366.40 Z" />
<path fill="#ffffff" opacity="1.00" d=" M 180.27 369.36 C 182.87 369.35 185.86 369.75 186.47 372.80 C 186.10 373.41 185.37 374.63 185.01 375.24 C 183.39 375.43 181.78 375.59 180.17 375.73 C 180.18 373.60 180.20 371.48 180.27 369.36 Z" />
<path fill="#00709f" opacity="1.00" d=" M 226.43 375.71 C 227.05 370.53 234.77 370.44 237.99 373.13 C 240.40 377.44 238.77 382.74 239.23 387.47 C 237.71 387.62 236.38 387.21 235.25 386.23 C 233.21 387.73 230.36 388.29 228.11 386.90 C 225.88 385.77 225.85 382.73 226.64 380.68 C 228.70 377.92 232.47 378.42 235.48 378.13 C 235.11 376.86 234.73 375.61 234.35 374.35 C 231.67 374.57 229.06 375.19 226.43 375.71 Z" />
<path fill="#00709f" opacity="1.00" d=" M 243.40 371.76 C 244.36 371.77 246.27 371.80 247.23 371.81 C 247.29 375.20 247.06 378.59 247.35 381.97 C 247.30 383.55 249.09 383.93 250.06 384.76 C 251.07 383.84 252.21 383.02 253.04 381.92 C 253.48 378.59 252.93 375.20 253.35 371.86 C 254.21 371.81 255.91 371.70 256.77 371.65 C 256.90 376.95 256.83 382.24 256.83 387.54 C 254.86 387.86 253.66 387.14 253.23 385.36 C 250.84 388.22 245.54 388.78 243.88 384.87 C 242.75 380.63 243.58 376.10 243.40 371.76 Z" />
<path fill="#00709f" opacity="1.00" d=" M 261.35 387.42 C 261.58 382.26 260.76 376.88 261.73 371.86 C 262.40 371.79 263.75 371.66 264.42 371.60 C 264.48 372.23 264.60 373.50 264.67 374.14 C 267.10 371.20 272.22 370.23 274.34 374.06 C 275.23 378.51 274.97 383.16 274.67 387.68 C 273.90 387.58 272.36 387.38 271.59 387.28 C 269.99 383.63 271.85 379.22 270.49 375.32 C 268.72 375.09 266.59 374.94 265.53 376.74 C 264.98 380.22 265.42 383.79 265.31 387.32 C 263.98 387.35 262.66 387.39 261.35 387.42 Z" />
<path fill="#00709f" opacity="1.00" d=" M 279.74 385.26 C 277.09 381.08 277.81 373.66 283.08 371.86 C 285.27 370.94 287.56 371.88 289.67 372.56 C 289.73 373.73 289.80 374.90 289.87 376.08 C 287.73 375.26 284.68 373.46 283.11 376.14 C 281.98 378.58 281.82 382.21 284.10 384.11 C 286.18 385.15 288.16 383.59 289.94 382.66 C 291.49 388.69 282.32 389.11 279.74 385.26 Z" />
<path fill="#00709f" opacity="1.00" d=" M 311.54 374.51 C 314.01 370.67 320.56 370.32 323.15 374.21 C 324.37 376.01 324.23 378.26 324.40 380.34 C 320.92 380.72 317.41 380.61 313.93 380.64 C 314.30 385.86 320.14 385.08 323.57 383.65 C 324.74 387.19 320.56 387.71 318.06 387.69 C 315.07 387.94 311.62 386.57 310.70 383.47 C 309.96 380.56 309.80 377.11 311.54 374.51 Z" />
<path fill="#00709f" opacity="1.00" d=" M 327.65 372.25 C 328.79 372.02 329.92 371.80 331.06 371.60 C 331.17 372.26 331.38 373.58 331.49 374.24 C 332.62 373.30 333.33 371.41 335.04 371.50 C 337.28 370.64 337.20 373.89 337.33 375.24 C 334.95 374.92 332.89 375.78 331.67 377.87 C 331.79 381.07 331.77 384.29 331.68 387.50 C 330.40 387.21 328.43 388.06 327.82 386.50 C 327.61 381.75 327.92 377.00 327.65 372.25 Z" />
<path fill="#ffffff" opacity="1.00" d=" M 314.09 378.21 C 314.32 376.25 315.45 373.72 317.88 374.33 C 319.92 374.33 320.18 376.71 320.66 378.21 C 318.47 378.23 316.28 378.23 314.09 378.21 Z" />
<path fill="#ffffff" opacity="1.00" d=" M 231.15 381.07 C 232.50 380.53 234.00 380.65 235.43 380.47 C 236.13 383.74 233.14 385.52 230.22 384.76 C 230.34 383.49 229.64 381.74 231.15 381.07 Z" />
</svg>
