<?xml version="1.0" encoding="UTF-8" ?>
<!DOCTYPE svg PUBLIC "-//W3C//DTD SVG 1.1//EN" "http://www.w3.org/Graphics/SVG/1.1/DTD/svg11.dtd">
<svg width="512pt" height="512pt" viewBox="0 0 512 512" version="1.1" xmlns="http://www.w3.org/2000/svg">
<path fill="#e7c23f" opacity="1.00" d=" M 0.00 0.00 L 512.00 0.00 L 512.00 512.00 L 0.00 512.00 L 0.00 0.00 Z" />
<path fill="#ffffff" opacity="1.00" d=" M 146.29 115.38 C 147.06 114.79 147.84 114.20 148.61 113.61 C 164.58 124.17 182.21 132.23 200.59 137.54 C 214.89 141.77 229.79 143.32 244.60 144.55 C 252.20 144.92 259.84 144.92 267.44 144.55 C 282.32 143.31 297.31 141.75 311.67 137.47 C 329.96 132.15 347.50 124.12 363.39 113.61 C 364.16 114.21 364.94 114.81 365.72 115.42 C 366.56 123.52 367.90 132.84 362.76 139.86 C 360.68 143.00 358.60 146.15 357.05 149.60 C 362.30 147.60 367.16 144.74 372.07 142.06 C 375.72 140.07 378.97 137.31 382.93 135.94 C 384.83 138.17 384.54 141.28 384.77 144.00 C 384.82 149.85 385.20 156.01 382.64 161.45 C 374.11 180.55 368.33 201.04 367.22 221.99 C 366.51 229.08 365.94 236.24 366.67 243.35 C 367.98 253.66 369.01 264.02 371.41 274.15 C 375.15 289.96 380.85 305.28 387.96 319.88 C 392.21 328.06 390.28 337.59 390.41 346.41 C 382.73 342.22 375.51 337.18 367.62 333.38 C 365.52 332.34 363.19 331.94 360.93 331.47 C 363.53 338.78 370.14 343.89 372.33 351.41 C 374.06 358.02 373.67 364.96 372.86 371.68 C 363.26 366.09 353.91 360.06 343.86 355.28 C 330.49 349.04 316.60 343.65 302.06 340.92 C 283.10 337.12 263.71 335.75 244.40 336.52 C 225.95 337.96 207.31 340.12 189.79 346.39 C 178.04 350.47 166.62 355.57 155.86 361.82 C 150.05 364.79 144.81 368.74 138.98 371.69 C 138.48 364.76 137.80 357.58 139.85 350.82 C 142.18 343.59 148.60 338.63 150.97 331.43 C 145.13 332.15 140.46 335.86 135.37 338.43 C 130.67 340.90 126.43 344.19 121.57 346.38 C 121.39 340.26 121.11 334.12 121.56 328.01 C 121.91 323.14 124.63 318.97 126.56 314.62 C 134.93 296.03 141.39 276.40 143.73 256.08 C 144.50 249.06 145.89 242.07 145.65 234.98 C 145.00 217.23 142.94 199.39 137.40 182.44 C 135.11 175.59 132.62 168.79 129.68 162.19 C 128.37 159.31 127.42 156.23 127.35 153.05 C 127.08 147.19 126.77 141.14 128.74 135.53 C 137.45 140.25 145.66 145.98 154.95 149.60 C 152.75 144.19 148.46 139.92 146.46 134.43 C 145.02 128.19 145.42 121.68 146.29 115.38 Z" />
<path fill="#e7c23f" opacity="1.00" d=" M 209.36 165.53 C 212.55 164.98 215.81 165.56 219.03 165.50 C 235.68 165.45 252.33 165.45 268.98 165.50 C 276.16 165.34 283.41 166.22 290.17 168.74 C 292.26 169.64 294.29 170.71 296.21 171.97 C 304.93 176.04 308.79 186.04 310.30 194.95 C 310.44 203.31 311.53 212.11 308.08 220.01 C 304.70 228.36 297.30 234.38 289.17 237.84 C 298.41 247.21 305.15 258.61 312.57 269.39 C 314.97 273.33 318.14 276.83 320.01 281.07 C 320.61 284.91 320.30 288.82 320.39 292.69 C 313.42 294.53 306.12 293.25 299.01 293.65 C 295.51 293.41 291.09 294.55 288.52 291.48 C 277.98 277.91 269.25 262.96 258.02 249.93 C 252.23 243.10 242.59 242.74 234.34 243.34 C 233.96 257.57 234.34 271.82 234.10 286.05 C 233.85 288.87 233.32 293.05 229.85 293.53 C 222.40 293.98 214.90 293.79 207.45 293.47 C 207.06 287.00 207.16 280.53 207.25 274.07 C 207.26 247.03 207.25 220.00 207.25 192.96 C 207.20 185.62 207.52 178.26 206.80 170.94 C 206.76 168.96 207.06 166.12 209.36 165.53 Z" />
<path fill="#ffffff" opacity="1.00" d=" M 235.81 194.48 C 247.29 194.51 258.76 194.38 270.23 194.56 C 274.40 197.03 280.18 198.57 281.37 203.98 C 281.22 207.93 277.87 211.05 274.30 212.28 C 268.73 214.03 262.82 214.38 257.01 214.22 C 249.75 214.16 242.49 214.26 235.24 214.15 C 235.43 207.59 234.76 200.99 235.81 194.48 Z" />
<path fill="#ffffff" opacity="1.00" d=" M 100.41 331.18 C 105.05 331.20 109.69 331.22 114.33 331.13 C 113.63 337.03 114.41 342.95 114.69 348.85 C 114.85 351.50 117.40 353.38 119.95 353.41 C 124.31 353.91 127.87 350.77 132.05 350.17 C 131.15 356.41 131.48 362.72 131.45 369.00 C 131.34 372.52 132.47 376.69 135.94 378.29 C 139.41 379.48 143.01 377.80 145.97 376.04 C 168.65 361.29 193.93 349.65 220.92 345.91 C 230.85 344.03 240.96 343.85 250.97 342.71 C 259.60 342.01 268.12 343.75 276.72 344.01 C 287.91 345.34 299.14 346.84 310.03 349.80 C 328.51 355.12 346.09 363.37 362.30 373.68 C 366.14 376.07 370.22 379.26 375.02 378.58 C 378.80 377.79 380.50 373.55 380.51 370.06 C 380.54 363.43 380.86 356.75 379.95 350.16 C 383.11 350.63 385.94 352.15 388.96 353.10 C 391.43 353.92 393.96 352.80 396.37 352.26 C 398.16 345.39 397.79 338.17 397.69 331.13 C 402.34 331.21 406.98 331.19 411.63 331.19 C 417.11 353.30 422.73 375.36 428.15 397.48 C 313.39 397.51 198.63 397.51 83.87 397.48 C 89.32 375.37 94.91 353.29 100.41 331.18 Z" />
<path fill="#e7c23f" opacity="1.00" d=" M 225.58 363.43 C 226.89 363.69 228.20 363.97 229.50 364.29 C 229.90 368.91 229.55 373.55 229.69 378.18 C 231.42 375.99 232.95 373.61 234.99 371.69 C 236.48 371.29 238.03 371.33 239.56 371.20 C 237.95 373.67 236.05 375.94 234.09 378.16 C 236.10 381.35 238.19 384.51 240.12 387.76 C 238.57 387.70 237.02 387.77 235.49 387.52 C 233.30 384.96 231.74 381.94 229.76 379.23 C 229.67 382.08 229.65 384.94 229.61 387.80 C 228.22 387.76 226.83 387.71 225.44 387.67 C 225.54 379.59 225.34 371.51 225.58 363.43 Z" />
<path fill="#e7c23f" opacity="1.00" d=" M 327.71 363.78 C 329.07 363.81 330.43 363.85 331.80 363.90 C 331.83 368.65 331.79 373.39 331.87 378.14 C 333.70 375.89 335.47 373.60 337.26 371.32 C 338.71 371.35 340.17 371.40 341.63 371.46 C 340.02 373.81 338.18 375.99 336.32 378.16 C 338.37 381.36 340.47 384.55 342.30 387.89 C 340.76 387.77 339.20 387.81 337.69 387.47 C 335.55 384.94 333.99 381.98 331.95 379.38 C 331.84 382.18 331.81 385.00 331.76 387.82 C 330.38 387.76 329.01 387.71 327.64 387.65 C 327.70 379.69 327.61 371.74 327.71 363.78 Z" />
<path fill="#e7c23f" opacity="1.00" d=" M 172.31 387.74 C 172.30 380.33 172.11 372.90 172.46 365.49 C 177.13 365.81 183.29 364.13 186.61 368.38 C 188.97 371.65 186.74 375.47 183.89 377.48 C 186.07 380.61 187.64 384.09 189.06 387.62 C 187.45 387.69 185.85 387.75 184.25 387.80 C 182.60 383.96 181.75 378.64 176.71 378.07 C 176.62 381.29 176.62 384.51 176.62 387.74 C 175.18 387.74 173.74 387.74 172.31 387.74 Z" />
<path fill="#e7c23f" opacity="1.00" d=" M 271.83 365.60 C 277.07 365.59 283.35 364.45 287.51 368.46 C 292.32 373.75 291.22 384.41 283.96 387.01 C 280.01 388.20 275.80 387.71 271.75 387.51 C 271.77 380.20 271.68 372.90 271.83 365.60 Z" />
<path fill="#e7c23f" opacity="1.00" d=" M 260.29 367.19 C 261.64 367.23 263.00 367.27 264.36 367.32 C 264.38 368.52 264.39 369.73 264.41 370.94 C 266.70 371.16 268.96 371.63 268.81 374.48 C 267.33 374.55 265.84 374.62 264.36 374.69 C 264.38 377.92 264.41 381.15 264.52 384.38 C 266.02 384.49 267.53 384.60 269.04 384.71 C 268.67 385.42 267.93 386.85 267.57 387.57 C 265.70 388.77 263.39 387.63 261.36 387.58 C 259.97 383.69 260.15 379.53 260.10 375.47 C 258.76 374.50 257.70 373.23 256.93 371.78 C 257.74 371.62 259.35 371.30 260.15 371.14 C 260.19 369.82 260.24 368.51 260.29 367.19 Z" />
<path fill="#ffffff" opacity="1.00" d=" M 176.65 368.60 C 178.69 368.92 180.74 369.25 182.78 369.61 C 182.70 371.17 182.66 372.75 182.38 374.30 C 180.58 375.14 178.59 375.38 176.66 375.76 C 176.63 373.37 176.63 370.99 176.65 368.60 Z" />
<path fill="#ffffff" opacity="1.00" d=" M 276.30 368.85 C 279.05 369.36 282.72 368.77 284.42 371.56 C 286.19 374.50 286.19 378.57 284.54 381.57 C 282.82 384.42 279.14 384.18 276.26 384.56 C 276.27 379.32 276.27 374.08 276.30 368.85 Z" />
<path fill="#e7c23f" opacity="1.00" d=" M 195.33 371.61 C 199.18 369.86 205.00 370.98 206.43 375.41 C 207.11 378.66 207.39 382.53 205.30 385.34 C 201.93 389.53 194.19 389.36 191.60 384.41 C 189.53 380.12 190.52 373.59 195.33 371.61 Z" />
<path fill="#e7c23f" opacity="1.00" d=" M 211.55 373.54 C 213.44 370.96 217.04 370.74 219.91 371.39 C 221.98 371.59 221.87 374.22 222.80 375.59 C 220.28 375.39 216.65 372.98 214.87 375.87 C 213.85 378.09 213.82 380.94 214.89 383.15 C 216.65 386.08 220.25 383.65 222.67 383.14 C 222.74 389.13 214.30 389.79 211.36 385.63 C 208.96 382.12 209.11 377.00 211.55 373.54 Z" />
<path fill="#e7c23f" opacity="1.00" d=" M 241.72 374.47 C 244.19 370.06 251.34 369.50 254.28 373.68 C 255.38 375.74 255.32 378.15 255.67 380.41 C 251.83 380.53 247.99 380.51 244.15 380.67 C 245.22 382.11 245.66 384.81 247.92 384.80 C 250.23 384.95 252.52 384.50 254.80 384.19 C 254.69 385.24 254.58 386.29 254.47 387.34 C 251.03 387.94 247.17 389.15 243.96 387.12 C 239.75 384.58 239.70 378.43 241.72 374.47 Z" />
<path fill="#e7c23f" opacity="1.00" d=" M 297.44 371.67 C 301.08 369.98 306.33 370.76 308.30 374.58 C 310.01 378.17 309.78 382.97 306.99 385.96 C 303.49 389.34 296.74 389.15 294.07 384.85 C 291.78 380.54 292.58 373.84 297.44 371.67 Z" />
<path fill="#e7c23f" opacity="1.00" d=" M 315.22 372.20 C 318.02 370.29 321.57 371.23 324.48 372.33 C 324.43 373.19 324.32 374.91 324.26 375.76 C 322.26 375.24 320.00 373.64 317.98 374.86 C 315.82 376.88 315.98 380.47 317.02 383.01 C 318.60 385.99 322.11 383.97 324.36 383.10 C 324.40 383.97 324.49 385.70 324.54 386.56 C 322.18 387.45 319.64 388.93 317.07 387.97 C 314.43 387.26 312.33 384.85 312.24 382.08 C 311.85 378.63 312.03 374.35 315.22 372.20 Z" />
<path fill="#ffffff" opacity="1.00" d=" M 197.36 374.53 C 202.46 372.67 203.84 379.62 202.02 383.00 C 200.81 385.56 196.32 385.41 195.50 382.61 C 194.88 379.94 194.53 376.07 197.36 374.53 Z" />
<path fill="#ffffff" opacity="1.00" d=" M 244.19 377.77 C 245.29 376.41 245.78 373.85 247.99 374.08 C 250.27 373.56 250.99 376.21 252.23 377.50 C 249.56 377.72 246.87 377.79 244.19 377.77 Z" />
<path fill="#ffffff" opacity="1.00" d=" M 299.45 374.59 C 306.39 371.71 307.07 386.18 300.17 384.72 C 296.24 383.51 296.26 376.70 299.45 374.59 Z" />
</svg>
