<?xml version="1.0" encoding="UTF-8" ?>
<!DOCTYPE svg PUBLIC "-//W3C//DTD SVG 1.1//EN" "http://www.w3.org/Graphics/SVG/1.1/DTD/svg11.dtd">
<svg width="512pt" height="512pt" viewBox="0 0 512 512" version="1.1" xmlns="http://www.w3.org/2000/svg">
<path fill="#f26522" opacity="1.00" d=" M 0.00 0.00 L 512.00 0.00 L 512.00 512.00 L 0.00 512.00 L 0.00 0.00 Z" />
<path fill="#ffffff" opacity="1.00" d=" M 217.72 130.71 C 227.64 122.93 240.76 121.21 253.00 121.11 C 264.77 120.99 277.58 122.21 287.10 129.84 C 294.08 135.34 297.18 144.38 297.32 153.04 C 297.39 164.43 297.34 175.82 297.34 187.21 C 284.77 187.21 272.19 187.21 259.62 187.20 C 259.58 175.46 259.68 163.71 259.58 151.97 C 259.96 146.08 251.06 145.00 248.10 149.08 C 245.62 152.51 246.06 157.00 246.23 161.00 C 246.75 166.54 246.17 172.36 248.44 177.59 C 251.29 184.23 256.16 189.75 261.19 194.83 C 269.55 202.78 277.84 210.83 285.60 219.38 C 291.11 225.31 296.65 231.65 299.09 239.53 C 301.70 247.44 300.61 255.85 300.84 264.02 C 300.77 274.76 301.90 286.42 295.92 295.95 C 289.95 306.07 278.19 310.76 267.06 312.36 C 253.80 314.16 239.92 313.93 227.15 309.59 C 219.93 307.05 213.28 302.17 209.81 295.22 C 207.23 290.22 206.35 284.53 206.38 278.96 C 206.35 264.69 206.41 250.42 206.36 236.15 C 219.01 236.39 231.71 235.70 244.33 236.50 C 243.53 239.96 243.95 243.49 244.06 246.99 C 243.63 256.64 243.96 266.30 243.83 275.95 C 243.95 278.30 243.74 280.87 244.93 283.00 C 247.40 286.38 252.41 286.23 256.01 285.07 C 260.80 283.08 259.12 277.06 259.40 273.01 C 258.81 264.45 261.15 255.16 256.78 247.29 C 253.47 240.93 248.58 235.55 243.44 230.61 C 235.33 222.72 227.32 214.72 219.60 206.45 C 213.29 199.74 207.19 191.90 206.53 182.35 C 206.21 173.55 206.40 164.73 206.43 155.92 C 206.51 146.48 210.09 136.64 217.72 130.71 Z" />
<path fill="#ffffff" opacity="1.00" d=" M 86.60 350.27 C 121.10 350.28 155.61 350.16 190.10 350.33 C 192.49 357.27 193.87 364.75 195.71 371.93 C 195.51 377.63 193.00 383.02 192.12 388.66 C 153.76 388.76 115.40 388.69 77.03 388.70 C 80.20 375.89 83.47 363.09 86.60 350.27 Z" />
<path fill="#ffffff" opacity="1.00" d=" M 319.66 350.26 C 354.24 350.24 388.82 350.25 423.40 350.26 C 426.56 363.08 429.80 375.88 432.98 388.70 C 394.74 388.72 356.49 388.71 318.24 388.70 C 317.11 383.06 315.12 377.58 314.32 371.90 C 315.95 364.66 317.90 357.48 319.66 350.26 Z" />
<path fill="#ffffff" opacity="1.00" d=" M 204.61 352.16 C 206.96 351.48 209.54 351.99 211.98 351.86 C 243.13 351.81 274.29 351.98 305.44 351.77 C 308.92 363.47 311.46 375.47 314.56 387.29 C 275.02 387.27 235.48 387.29 195.94 387.28 C 198.51 375.50 201.64 363.84 204.61 352.16 Z" />
</svg>
