<?xml version="1.0" encoding="UTF-8" ?>
<!DOCTYPE svg PUBLIC "-//W3C//DTD SVG 1.1//EN" "http://www.w3.org/Graphics/SVG/1.1/DTD/svg11.dtd">
<svg width="512pt" height="512pt" viewBox="0 0 512 512" version="1.1" xmlns="http://www.w3.org/2000/svg">
<path fill="#275fb2" opacity="1.00" d=" M 0.00 0.00 L 512.00 0.00 L 512.00 512.00 L 0.00 512.00 L 0.00 0.00 Z" />
<path fill="#ffffff" opacity="1.00" d=" M 225.18 110.19 C 227.93 108.93 230.97 108.63 233.96 108.64 C 226.93 114.39 220.79 121.16 215.40 128.45 C 215.06 129.35 213.38 130.62 214.77 131.43 C 223.47 128.49 228.92 119.69 238.01 117.59 C 235.51 121.43 231.99 124.43 229.28 128.09 C 231.62 127.62 233.92 126.94 236.21 126.23 C 241.97 124.42 248.08 124.80 254.04 124.60 C 269.69 124.51 285.57 124.00 300.90 127.70 C 315.88 130.87 329.74 137.68 343.17 144.81 C 354.03 150.41 363.40 158.59 371.12 168.00 C 386.03 185.74 396.24 207.83 397.92 231.09 C 398.98 244.35 398.98 257.70 398.43 270.98 C 397.40 284.54 394.41 297.87 391.02 311.00 C 388.21 320.63 384.94 330.20 380.12 339.03 C 373.53 351.82 364.07 362.83 354.11 373.10 C 352.21 375.07 350.12 376.85 347.95 378.50 C 347.25 378.36 345.85 378.09 345.16 377.95 C 338.01 383.15 332.12 390.13 324.02 393.98 C 313.83 398.87 302.85 402.37 291.57 403.51 C 296.47 399.07 303.33 397.28 308.07 392.50 C 303.88 392.77 300.16 394.93 296.19 396.08 C 287.64 398.62 278.90 400.48 270.07 401.71 C 266.06 402.16 261.39 403.15 258.08 400.12 C 267.87 394.48 277.53 388.49 286.21 381.22 C 290.84 377.41 295.38 373.31 298.40 368.05 C 271.46 358.90 244.50 349.84 217.53 340.79 C 212.86 339.48 208.29 337.42 203.35 337.51 C 204.98 341.70 208.40 344.78 210.73 348.56 C 209.65 349.25 208.53 350.21 207.18 349.56 C 196.45 346.87 187.75 339.78 179.42 332.89 C 179.09 335.67 180.19 338.28 181.10 340.85 C 183.43 347.08 185.71 353.62 190.53 358.43 C 194.61 363.29 200.26 366.38 204.82 370.71 C 200.47 369.80 196.91 366.50 192.40 366.34 C 192.39 367.26 192.36 369.12 192.35 370.04 C 187.64 369.30 183.41 367.02 179.26 364.80 C 155.65 352.11 137.79 330.32 127.43 305.83 C 121.96 293.17 118.19 279.71 116.59 266.01 C 115.83 251.67 114.62 237.18 117.03 222.92 C 120.00 208.65 125.26 194.71 133.70 182.74 C 144.12 167.58 158.85 155.83 174.87 147.01 C 179.85 144.26 185.02 141.83 189.82 138.76 C 193.51 136.49 195.60 132.56 198.59 129.55 C 206.17 121.58 214.96 114.47 225.18 110.19 Z" />
<path fill="#275fb2" opacity="1.00" d=" M 156.18 196.91 C 154.75 194.44 156.66 191.22 159.03 190.28 C 163.11 189.99 167.38 190.84 170.97 192.81 C 174.75 195.63 174.68 200.75 174.75 204.99 C 174.55 210.04 175.76 215.86 171.99 219.95 C 168.21 216.88 166.02 212.46 163.28 208.55 C 160.85 204.71 158.20 200.98 156.18 196.91 Z" />
<path fill="#275fb2" opacity="1.00" d=" M 197.86 192.84 C 200.05 190.91 203.15 191.44 205.60 192.50 C 206.15 195.81 206.58 199.67 204.31 202.46 C 201.81 205.03 197.97 204.61 194.73 204.35 C 194.68 200.42 193.99 195.29 197.86 192.84 Z" />
<path fill="#275fb2" opacity="1.00" d=" M 144.98 224.10 C 146.18 216.44 148.20 208.81 151.96 201.98 C 153.68 203.25 155.22 204.75 156.45 206.50 C 160.88 212.49 165.13 218.62 168.95 225.01 C 171.60 229.24 172.04 234.32 173.78 238.93 C 174.61 238.77 176.27 238.45 177.09 238.29 C 188.48 251.77 197.33 267.16 207.71 281.40 C 208.88 282.98 210.29 284.35 211.73 285.69 C 227.81 280.25 243.32 273.33 259.16 267.23 C 275.35 260.91 291.55 254.59 307.99 248.94 C 310.04 248.28 313.49 247.17 314.02 250.26 C 315.11 260.70 314.44 271.44 311.29 281.49 C 310.05 285.64 307.43 289.33 307.07 293.73 C 313.05 291.74 318.88 288.94 323.54 284.60 C 327.22 281.42 329.97 277.39 333.10 273.71 C 334.90 275.78 333.77 278.55 333.73 280.99 C 333.16 290.93 330.30 300.55 327.12 309.93 C 322.40 327.16 315.05 343.62 305.99 359.00 C 305.21 360.21 304.49 361.56 303.23 362.34 C 298.83 361.95 294.65 360.46 290.43 359.27 C 267.89 352.46 245.65 344.69 223.22 337.56 C 197.13 328.70 170.86 320.35 144.90 311.11 C 138.67 297.13 135.61 281.92 133.84 266.78 C 133.53 262.83 132.85 258.83 133.56 254.89 C 138.28 260.32 143.28 266.85 151.04 267.50 C 144.22 254.20 142.89 238.74 144.98 224.10 Z" />
<path fill="#275fb2" opacity="1.00" d=" M 201.95 216.96 C 210.00 211.68 219.32 208.98 228.26 205.70 C 242.86 203.35 257.49 207.29 271.83 209.72 C 282.66 211.83 293.62 213.49 304.23 216.55 C 307.00 223.66 309.64 230.86 311.39 238.29 C 311.98 240.43 309.50 241.29 308.08 242.16 C 301.66 245.24 295.04 247.87 288.43 250.50 C 267.18 258.82 245.95 267.20 224.81 275.78 C 220.61 277.10 216.71 279.82 212.19 279.83 C 203.70 269.10 196.40 257.46 189.01 245.95 C 186.52 241.65 183.58 237.56 181.72 232.93 C 180.59 230.21 183.74 228.75 185.69 227.79 C 191.80 225.26 196.26 220.18 201.95 216.96 Z" />
</svg>
