<?xml version="1.0" encoding="UTF-8" ?>
<!DOCTYPE svg PUBLIC "-//W3C//DTD SVG 1.1//EN" "http://www.w3.org/Graphics/SVG/1.1/DTD/svg11.dtd">
<svg width="512pt" height="512pt" viewBox="0 0 512 512" version="1.1" xmlns="http://www.w3.org/2000/svg">
<path fill="#813f89" opacity="1.00" d=" M 0.00 0.00 L 512.00 0.00 L 512.00 512.00 L 0.00 512.00 L 0.00 0.00 Z" />
<path fill="#ffffff" opacity="1.00" d=" M 249.25 124.44 C 272.37 123.10 295.82 127.99 316.42 138.58 C 343.46 152.25 365.46 175.57 377.55 203.35 C 387.34 225.70 390.86 250.82 387.31 274.97 C 383.06 306.92 366.30 336.91 341.61 357.57 C 322.51 373.73 298.70 384.35 273.86 387.48 C 247.62 391.12 220.31 386.45 196.70 374.44 C 169.41 360.71 147.19 337.19 135.10 309.12 C 125.22 286.58 122.05 261.24 125.62 236.92 C 129.67 209.08 142.98 182.69 162.96 162.90 C 185.66 140.03 217.04 125.92 249.25 124.44 Z" />
<path fill="#813f89" opacity="1.00" d=" M 243.50 132.80 C 266.61 130.56 290.38 134.45 311.19 144.87 C 338.79 158.32 360.96 182.43 372.12 211.03 C 381.38 234.24 383.01 260.27 377.51 284.59 C 371.59 310.06 357.39 333.53 337.54 350.55 C 319.73 365.98 297.41 376.23 274.06 379.45 C 252.81 382.45 230.75 380.03 210.80 372.06 C 182.49 360.98 158.65 339.08 145.16 311.84 C 133.83 289.48 129.94 263.64 133.38 238.87 C 137.48 208.88 153.24 180.77 176.41 161.34 C 195.24 145.40 218.95 135.30 243.50 132.80 Z" />
<path fill="#ffffff" opacity="1.00" d=" M 250.71 144.15 C 285.65 141.98 321.07 157.74 343.19 184.85 C 360.30 205.42 369.62 232.31 368.82 259.06 C 368.41 283.16 359.82 307.03 344.87 325.93 C 323.14 353.97 287.47 370.54 252.01 368.80 C 227.35 368.00 203.12 358.58 184.24 342.72 C 156.19 319.58 140.71 282.14 144.43 245.98 C 146.75 220.35 158.20 195.61 176.42 177.41 C 195.85 157.55 222.94 145.34 250.71 144.15 Z" />
<path fill="#813f89" opacity="1.00" d=" M 247.51 216.84 C 265.88 212.20 286.28 222.79 293.60 240.13 C 299.22 252.58 297.84 267.79 290.12 279.05 C 281.08 292.87 263.09 300.03 247.05 295.96 C 232.00 292.51 219.57 279.78 216.65 264.59 C 215.37 259.05 215.44 253.27 216.76 247.75 C 219.89 232.67 232.44 220.02 247.51 216.84 Z" />
<path fill="#ffffff" opacity="1.00" d=" M 248.49 225.72 C 264.26 221.20 282.38 231.29 286.73 247.13 C 291.60 261.60 283.99 278.85 270.08 285.09 C 256.59 291.88 238.75 287.12 230.37 274.60 C 223.01 264.24 222.80 249.50 229.91 238.96 C 234.15 232.42 240.95 227.65 248.49 225.72 Z" />
<path fill="#813f89" opacity="1.00" d=" M 251.21 233.17 C 262.77 230.26 275.61 237.73 279.03 249.09 C 281.81 257.15 279.64 266.61 273.72 272.73 C 267.65 279.35 257.64 281.99 249.13 279.07 C 237.51 275.64 229.99 262.32 233.31 250.61 C 235.43 242.05 242.60 235.07 251.21 233.17 Z" />
<path fill="#ffffff" opacity="1.00" d=" M 252.30 238.36 C 262.78 235.56 274.48 244.02 274.84 254.91 C 275.69 262.48 271.19 270.20 264.25 273.27 C 260.76 275.03 256.72 275.12 252.92 274.66 C 245.31 273.36 239.05 266.74 238.05 259.09 C 236.48 249.85 243.12 240.22 252.30 238.36 Z" />
<path fill="#813f89" opacity="1.00" d=" M 252.22 242.15 C 259.76 239.58 268.54 244.54 270.72 252.09 C 273.37 259.58 268.45 268.45 260.93 270.67 C 253.08 273.60 243.68 268.05 241.93 259.97 C 239.80 252.54 244.84 244.15 252.22 242.15 Z" />
</svg>
