<?xml version="1.0" encoding="UTF-8" ?>
<!DOCTYPE svg PUBLIC "-//W3C//DTD SVG 1.1//EN" "http://www.w3.org/Graphics/SVG/1.1/DTD/svg11.dtd">
<svg width="512pt" height="512pt" viewBox="0 0 512 512" version="1.1" xmlns="http://www.w3.org/2000/svg">
<path fill="#c60000" opacity="1.00" d=" M 0.00 0.00 L 512.00 0.00 L 512.00 512.00 L 0.00 512.00 L 0.00 0.00 Z" />
<path fill="#ffffff" opacity="1.00" d=" M 151.23 105.36 C 218.83 105.07 286.44 105.32 354.05 105.23 C 367.21 104.67 380.16 110.48 389.66 119.40 C 400.00 129.03 406.01 142.95 406.67 156.97 C 406.69 222.98 406.73 288.98 406.65 354.99 C 405.80 367.06 401.29 379.05 393.21 388.17 C 383.72 399.30 369.38 405.72 354.92 406.67 C 292.29 406.71 229.66 406.68 167.03 406.69 C 160.07 406.62 152.95 407.23 146.21 405.06 C 122.78 400.05 103.87 377.30 105.23 353.05 C 105.27 286.36 105.18 219.68 105.27 153.00 C 106.71 128.94 127.36 107.92 151.23 105.36 Z" />
<path fill="#c60000" opacity="1.00" d=" M 144.17 116.35 C 149.87 114.18 156.03 114.24 162.03 113.86 C 223.35 113.84 284.68 113.88 346.00 113.85 C 350.38 113.74 354.75 114.16 359.12 114.52 C 374.31 116.45 388.00 127.07 393.74 141.25 C 396.31 147.13 397.20 153.60 397.26 159.97 C 397.20 224.65 397.31 289.34 397.20 354.03 C 396.92 371.42 385.44 387.94 369.17 394.12 C 360.93 397.57 351.84 397.38 343.07 397.27 C 281.70 397.27 220.33 397.28 158.96 397.27 C 146.61 397.30 134.23 392.29 125.89 383.09 C 117.70 374.57 113.77 362.70 113.90 351.00 C 113.83 310.99 113.82 270.99 113.91 230.99 C 113.77 213.00 113.94 195.00 113.85 177.01 C 113.92 168.63 113.55 160.23 114.52 151.88 C 116.65 135.70 128.66 121.39 144.17 116.35 Z" />
<path fill="#ffffff" opacity="1.00" d=" M 247.03 128.92 C 271.56 127.26 296.57 132.87 317.97 145.01 C 343.71 159.49 364.11 183.22 374.43 210.90 C 383.56 235.05 385.06 261.99 378.64 287.00 C 372.12 312.85 357.14 336.49 336.56 353.43 C 319.00 368.02 297.44 377.74 274.85 381.10 C 247.13 385.45 218.00 380.21 193.57 366.41 C 167.86 352.09 147.45 328.52 136.99 301.01 C 128.86 279.75 126.54 256.30 130.50 233.88 C 135.61 203.51 152.42 175.43 176.50 156.30 C 196.50 140.27 221.46 130.64 247.03 128.92 Z" />
<path fill="#c60000" opacity="1.00" d=" M 172.10 212.12 C 185.82 199.00 198.79 185.06 212.63 172.08 C 226.78 186.35 241.01 200.55 255.25 214.72 C 269.72 200.69 283.88 186.27 298.12 171.97 C 311.01 184.39 323.43 197.28 336.21 209.82 C 337.16 210.72 337.97 211.76 338.77 212.81 C 324.29 226.85 310.04 241.16 295.96 255.59 C 310.38 269.65 324.38 284.15 338.81 298.20 C 325.36 311.84 311.77 325.36 298.18 338.86 C 284.25 324.73 270.13 310.79 256.14 296.73 C 255.39 295.47 254.34 297.00 253.75 297.51 C 240.15 311.37 226.18 324.88 212.66 338.83 C 199.48 326.20 186.83 313.00 173.78 300.23 C 173.25 299.52 171.51 298.58 172.59 297.61 C 186.62 283.43 200.92 269.49 214.83 255.19 C 201.28 242.10 188.19 228.55 174.75 215.35 C 173.73 214.39 172.87 213.28 172.10 212.12 Z" />
<path fill="#ffffff" opacity="1.00" d=" M 248.37 233.62 C 260.46 229.28 274.69 237.50 277.56 249.87 C 280.96 261.62 272.73 274.78 260.98 277.58 C 248.86 281.11 235.32 272.27 232.96 260.03 C 230.36 248.93 237.68 237.05 248.37 233.62 Z" />
</svg>
