<?xml version="1.0" encoding="UTF-8" ?>
<!DOCTYPE svg PUBLIC "-//W3C//DTD SVG 1.1//EN" "http://www.w3.org/Graphics/SVG/1.1/DTD/svg11.dtd">
<svg width="512pt" height="512pt" viewBox="0 0 512 512" version="1.1" xmlns="http://www.w3.org/2000/svg">
<path fill="#68217a" opacity="1.00" d=" M 0.00 0.00 L 512.00 0.00 L 512.00 512.00 L 0.00 512.00 L 0.00 0.00 Z" />
<path fill="#ffffff" opacity="1.00" d=" M 315.19 138.07 C 335.19 145.49 354.84 153.88 374.73 161.64 C 374.71 224.87 374.83 288.10 374.66 351.33 C 354.80 358.97 335.20 367.28 315.32 374.85 C 284.19 343.50 252.81 312.41 221.71 281.03 C 201.68 296.44 181.70 311.94 161.88 327.62 C 153.97 323.74 146.13 319.73 138.23 315.83 C 138.14 276.22 138.14 236.62 138.23 197.01 C 146.15 193.15 153.97 189.08 161.90 185.25 C 181.68 200.96 201.70 216.39 221.68 231.84 C 252.72 200.46 284.13 169.44 315.19 138.07 Z" />
<path fill="#68217a" opacity="1.00" d=" M 253.21 256.34 C 273.99 240.30 294.68 224.13 315.39 207.99 C 315.44 240.29 315.45 272.61 315.38 304.92 C 294.74 288.61 273.79 272.70 253.21 256.34 Z" />
<path fill="#68217a" opacity="1.00" d=" M 161.82 221.10 C 173.47 232.90 185.18 244.64 196.99 256.27 C 185.46 268.30 173.37 279.78 161.81 291.78 C 161.79 268.22 161.77 244.66 161.82 221.10 Z" />
</svg>
