<?xml version="1.0" encoding="UTF-8" ?>
<!DOCTYPE svg PUBLIC "-//W3C//DTD SVG 1.1//EN" "http://www.w3.org/Graphics/SVG/1.1/DTD/svg11.dtd">
<svg width="512pt" height="512pt" viewBox="0 0 512 512" version="1.1" xmlns="http://www.w3.org/2000/svg">
<path fill="#9a0f0f" opacity="1.00" d=" M 0.00 0.00 L 512.00 0.00 L 512.00 512.00 L 0.00 512.00 L 0.00 0.00 Z" />
<path fill="#ffffff" opacity="1.00" d=" M 142.99 133.01 C 149.30 129.27 156.50 126.23 163.97 126.66 C 192.31 126.70 220.66 126.69 249.00 126.92 C 253.65 127.02 258.33 126.66 262.97 127.11 C 270.99 127.70 279.21 126.27 287.07 128.44 C 296.12 130.53 303.41 137.49 307.56 145.61 C 309.55 149.80 311.79 154.17 311.56 158.96 C 311.52 173.16 311.68 187.36 311.67 201.56 C 323.75 201.63 335.84 201.49 347.93 201.63 C 355.96 202.17 364.18 204.27 370.66 209.24 C 377.01 213.72 380.71 220.95 382.93 228.21 C 384.27 232.66 383.71 237.36 383.81 241.93 C 383.88 247.62 383.71 253.31 383.95 259.00 C 384.06 286.65 384.27 314.34 384.18 342.02 C 383.50 349.07 383.97 356.28 381.59 363.08 C 378.94 372.17 372.18 380.27 363.02 383.25 C 358.75 384.36 354.44 385.65 349.98 385.43 C 310.28 385.33 270.58 385.39 230.89 385.21 C 221.33 383.63 212.21 378.34 206.43 370.50 C 202.60 365.50 201.08 359.17 200.23 353.04 C 200.33 339.09 199.77 325.14 199.84 311.19 C 189.21 311.23 178.57 311.18 167.94 311.30 C 159.19 311.54 149.96 310.23 142.57 305.24 C 136.71 301.36 132.30 295.50 129.70 289.02 C 127.64 281.58 127.74 273.74 127.76 266.07 C 127.87 229.38 127.65 192.68 127.81 155.99 C 129.47 146.74 134.80 137.90 142.99 133.01 Z" />
<path fill="#9a0f0f" opacity="1.00" d=" M 176.88 177.65 C 177.06 177.45 177.40 177.04 177.58 176.84 C 201.69 176.66 225.81 176.76 249.92 176.64 C 254.30 176.56 259.93 177.57 261.56 182.28 C 262.01 188.70 261.61 195.16 261.74 201.59 C 255.50 201.56 249.26 201.61 243.02 201.51 C 239.08 201.60 234.57 203.10 232.91 207.03 C 230.95 211.50 232.98 216.50 236.00 219.95 C 248.33 234.57 263.08 246.86 276.23 260.69 C 279.91 264.71 283.77 268.56 287.63 272.40 C 291.52 276.11 296.32 279.87 301.99 279.58 C 306.59 279.19 310.13 275.39 310.85 270.96 C 313.17 264.26 311.36 257.23 311.75 250.35 C 315.83 250.23 319.91 250.25 323.99 250.20 C 328.12 249.83 332.20 252.24 334.31 255.73 C 335.09 258.37 334.67 261.20 334.80 263.92 C 334.64 287.86 334.56 311.79 334.73 335.73 C 309.80 335.70 284.88 335.73 259.96 335.71 C 255.95 335.81 251.51 334.06 249.71 330.27 C 249.30 323.80 249.44 317.30 249.49 310.82 C 255.80 310.79 262.13 310.96 268.43 310.57 C 275.96 309.91 279.70 300.60 276.70 294.25 C 274.85 290.35 271.35 287.65 268.38 284.65 C 253.46 270.23 238.74 255.60 224.21 240.78 C 221.40 237.93 218.26 234.87 214.09 234.38 C 207.73 233.43 201.52 238.45 200.58 244.70 C 199.79 250.27 200.42 255.94 200.33 261.55 C 194.66 261.44 188.97 261.89 183.31 261.57 C 179.73 259.84 176.54 256.32 176.85 252.09 C 176.87 227.28 176.80 202.46 176.88 177.65 Z" />
</svg>
