<?xml version="1.0" encoding="UTF-8" ?>
<!DOCTYPE svg PUBLIC "-//W3C//DTD SVG 1.1//EN" "http://www.w3.org/Graphics/SVG/1.1/DTD/svg11.dtd">
<svg width="512pt" height="512pt" viewBox="0 0 512 512" version="1.1" xmlns="http://www.w3.org/2000/svg">
<path fill="#ffb308" opacity="1.00" d=" M 0.00 0.00 L 512.00 0.00 L 512.00 512.00 L 0.00 512.00 L 0.00 0.00 Z" />
<path fill="#ffffff" opacity="1.00" d=" M 256.19 106.25 L 256.85 106.04 C 278.93 128.13 301.05 150.19 323.10 172.31 L 323.93 172.71 C 325.38 171.89 326.90 171.18 328.33 170.31 C 339.23 163.14 350.34 156.28 361.27 149.16 C 361.68 149.06 362.48 148.87 362.88 148.78 C 353.19 160.05 341.65 169.72 331.95 181.01 C 356.17 205.49 380.63 229.75 404.96 254.12 C 405.67 255.02 407.09 255.66 406.97 257.01 C 357.18 306.86 307.33 356.64 257.54 406.48 C 256.56 407.79 255.28 406.16 254.59 405.44 C 232.73 383.46 210.70 361.65 188.89 339.62 C 175.25 348.90 161.59 358.17 147.95 367.42 C 148.18 367.05 148.65 366.30 148.89 365.93 C 159.84 354.91 170.63 343.71 181.76 332.86 C 156.80 307.26 131.20 282.22 106.01 256.82 C 106.17 256.54 106.50 255.99 106.66 255.72 C 156.54 205.93 206.31 156.03 256.19 106.25 Z" />
<path fill="#ffb308" opacity="1.00" d=" M 120.28 256.38 C 165.45 210.97 210.91 165.80 256.10 120.41 L 257.00 120.24 C 276.15 139.61 295.49 158.81 314.76 178.06 L 314.25 179.03 C 268.98 207.93 223.93 237.18 178.74 266.22 L 177.83 267.34 C 200.52 267.48 223.13 266.37 245.83 266.83 C 245.72 267.18 245.52 267.90 245.42 268.26 C 226.84 287.33 207.91 306.09 189.07 324.90 C 188.68 324.77 187.91 324.51 187.52 324.38 C 165.11 301.89 142.64 279.45 120.18 257.02 L 120.28 256.38 Z" />
<path fill="#ffb308" opacity="1.00" d=" M 321.85 190.98 C 322.84 190.06 323.65 188.89 324.92 188.32 C 346.44 209.72 367.84 231.23 389.32 252.67 C 390.46 254.17 392.58 255.07 392.94 257.05 C 347.65 302.33 302.38 347.63 257.08 392.90 C 256.70 392.78 255.95 392.55 255.57 392.43 C 236.48 373.19 217.21 354.13 198.13 334.89 C 198.19 334.52 198.31 333.77 198.37 333.39 C 244.86 302.23 290.94 270.45 337.34 239.18 C 337.55 238.82 337.96 238.10 338.17 237.75 C 322.40 237.61 306.63 237.82 290.87 237.81 C 285.81 238.74 280.61 238.02 275.54 237.71 C 290.76 221.93 306.41 206.55 321.85 190.98 Z" />
</svg>
