<?xml version="1.0" encoding="UTF-8" ?>
<!DOCTYPE svg PUBLIC "-//W3C//DTD SVG 1.1//EN" "http://www.w3.org/Graphics/SVG/1.1/DTD/svg11.dtd">
<svg width="512pt" height="512pt" viewBox="0 0 512 512" version="1.1" xmlns="http://www.w3.org/2000/svg">
<path fill="#8c0095" opacity="1.00" d=" M 0.00 0.00 L 512.00 0.00 L 512.00 512.00 L 0.00 512.00 L 0.00 0.00 Z" />
<path fill="#ffffff" opacity="1.00" d=" M 297.17 194.12 C 317.74 186.45 338.35 178.89 358.95 171.30 C 358.64 174.34 359.32 177.59 358.54 180.51 C 348.98 189.63 339.13 198.46 329.55 207.57 C 319.53 215.97 308.75 223.54 297.20 229.69 C 297.16 217.83 297.22 205.98 297.17 194.12 Z" />
<path fill="#ffffff" opacity="1.00" d=" M 223.04 172.37 C 245.08 180.08 266.93 188.36 288.92 196.24 C 288.80 208.60 288.94 220.96 288.85 233.32 C 266.82 230.38 244.98 226.27 223.17 222.05 C 223.01 205.49 223.27 188.93 223.04 172.37 Z" />
<path fill="#ffffff" opacity="1.00" d=" M 153.09 196.22 C 173.68 188.77 194.25 181.25 214.80 173.68 C 214.81 190.08 214.84 206.47 214.78 222.87 C 203.70 228.17 193.88 235.69 184.47 243.50 C 173.05 253.12 162.39 263.68 153.11 275.39 C 153.13 249.00 153.16 222.61 153.09 196.22 Z" />
<path fill="#ffffff" opacity="1.00" d=" M 338.77 218.79 C 345.27 212.50 352.18 206.65 358.88 200.57 C 358.84 208.49 358.94 216.40 358.83 224.32 C 338.30 234.84 317.70 245.19 297.19 255.74 C 297.18 252.96 297.18 250.17 297.18 247.39 C 311.86 239.15 326.10 229.92 338.77 218.79 Z" />
<path fill="#ffffff" opacity="1.00" d=" M 338.24 244.39 C 345.18 240.79 352.01 237.00 358.90 233.30 C 358.87 250.12 358.84 266.94 358.91 283.76 C 352.02 286.56 345.13 289.37 338.27 292.23 C 338.23 276.28 338.29 260.33 338.24 244.39 Z" />
<path fill="#ffffff" opacity="1.00" d=" M 223.13 238.86 C 244.89 243.43 266.84 247.03 288.87 250.03 C 288.88 253.45 288.88 256.87 288.87 260.29 C 270.17 257.60 251.86 252.68 233.10 250.38 C 229.78 249.92 226.44 249.72 223.14 249.13 C 223.12 245.70 223.11 242.28 223.13 238.86 Z" />
<path fill="#ffffff" opacity="1.00" d=" M 190.91 258.92 C 198.47 252.08 206.19 245.32 214.86 239.89 C 214.79 243.57 214.82 247.25 214.80 250.93 C 210.12 254.89 206.11 259.55 201.88 263.97 C 193.15 273.24 184.80 282.86 177.00 292.92 C 169.35 302.66 161.19 311.97 153.08 321.32 C 153.19 313.65 153.07 305.98 153.15 298.31 C 165.06 284.56 177.66 271.40 190.91 258.92 Z" />
<path fill="#ffffff" opacity="1.00" d=" M 298.18 264.53 C 309.48 259.03 320.69 253.34 331.87 247.59 C 331.89 263.67 331.85 279.75 331.89 295.83 C 320.64 299.72 309.45 303.80 298.20 307.70 C 298.19 293.31 298.21 278.92 298.18 264.53 Z" />
<path fill="#ffffff" opacity="1.00" d=" M 223.11 257.45 C 236.44 259.05 249.94 260.16 262.85 263.98 C 262.94 277.22 262.78 290.47 262.94 303.71 C 249.69 300.09 236.38 296.67 223.13 293.06 C 223.11 281.19 223.15 269.32 223.11 257.45 Z" />
<path fill="#ffffff" opacity="1.00" d=" M 183.48 297.15 C 193.29 284.42 204.81 273.14 214.87 260.64 C 214.70 279.22 214.92 297.81 214.76 316.40 C 208.88 318.56 203.06 320.91 197.17 323.07 C 192.54 314.47 187.98 305.82 183.48 297.15 Z" />
<path fill="#ffffff" opacity="1.00" d=" M 270.16 265.73 C 276.46 266.32 282.71 267.25 288.95 268.26 C 288.77 282.31 288.93 296.36 288.87 310.42 C 282.64 308.92 276.38 307.52 270.15 306.03 C 270.15 292.60 270.12 279.16 270.16 265.73 Z" />
<path fill="#ffffff" opacity="1.00" d=" M 338.44 300.74 C 345.36 298.23 352.11 295.28 358.89 292.41 C 358.87 300.16 358.86 307.91 358.90 315.66 C 351.95 318.06 345.22 321.03 338.27 323.40 C 338.36 315.85 338.02 308.28 338.44 300.74 Z" />
<path fill="#ffffff" opacity="1.00" d=" M 223.12 301.99 C 236.50 304.70 249.53 308.98 262.83 312.12 C 262.93 318.54 262.86 324.96 262.87 331.37 C 249.65 326.45 236.54 321.27 223.27 316.51 C 222.96 311.67 223.19 306.82 223.12 301.99 Z" />
<path fill="#ffffff" opacity="1.00" d=" M 158.45 328.53 C 164.80 320.13 171.38 311.93 177.97 303.71 C 181.65 311.25 185.20 318.85 189.02 326.32 C 177.02 330.98 165.12 335.85 153.10 340.44 C 152.00 335.54 155.94 332.15 158.45 328.53 Z" />
<path fill="#ffffff" opacity="1.00" d=" M 298.20 316.59 C 309.44 312.63 320.65 308.58 331.86 304.53 C 331.89 311.99 331.86 319.45 331.88 326.91 C 320.66 331.20 309.39 335.36 298.19 339.71 C 298.20 332.00 298.19 324.30 298.20 316.59 Z" />
<path fill="#ffffff" opacity="1.00" d=" M 270.22 314.72 C 276.48 316.04 282.62 317.81 288.86 319.24 C 288.92 326.44 288.80 333.65 288.93 340.86 C 282.73 338.61 276.40 336.75 270.11 334.77 C 270.22 328.09 270.04 321.41 270.22 314.72 Z" />
</svg>
