<?xml version="1.0" encoding="UTF-8" ?>
<!DOCTYPE svg PUBLIC "-//W3C//DTD SVG 1.1//EN" "http://www.w3.org/Graphics/SVG/1.1/DTD/svg11.dtd">
<svg width="512pt" height="512pt" viewBox="0 0 512 512" version="1.1" xmlns="http://www.w3.org/2000/svg">
<path fill="#008299" opacity="1.00" d=" M 0.00 0.00 L 512.00 0.00 L 512.00 512.00 L 0.00 512.00 L 0.00 0.00 Z" />
<path fill="#ffffff" opacity="1.00" d=" M 146.08 146.08 C 219.36 146.16 292.64 146.16 365.92 146.08 C 365.84 219.36 365.84 292.64 365.92 365.92 C 292.64 365.84 219.36 365.84 146.08 365.92 C 146.16 292.64 146.16 219.36 146.08 146.08 Z" />
<path fill="#008299" opacity="1.00" d=" M 161.86 161.86 C 224.62 161.88 287.38 161.88 350.14 161.86 C 350.12 218.29 350.12 274.71 350.14 331.14 C 287.38 331.12 224.62 331.12 161.86 331.14 C 161.88 274.71 161.88 218.29 161.86 161.86 Z" />
<path fill="#ffffff" opacity="1.00" d=" M 288.79 180.03 C 289.38 180.08 290.55 180.17 291.14 180.22 C 291.89 182.72 292.07 185.34 292.53 187.90 C 290.84 187.90 289.15 187.90 287.47 187.90 C 287.86 185.27 288.30 182.64 288.79 180.03 Z" />
<path fill="#ffffff" opacity="1.00" d=" M 270.15 188.97 C 270.63 188.55 271.57 187.72 272.04 187.31 C 274.28 188.67 276.32 190.32 278.47 191.81 C 277.25 193.03 276.02 194.25 274.80 195.47 C 273.26 193.30 271.71 191.13 270.15 188.97 Z" />
<path fill="#ffffff" opacity="1.00" d=" M 301.53 191.81 C 303.68 190.32 305.72 188.66 307.96 187.31 C 308.43 187.72 309.37 188.55 309.85 188.96 C 308.29 191.13 306.74 193.29 305.20 195.47 C 303.98 194.25 302.75 193.03 301.53 191.81 Z" />
<path fill="#ffffff" opacity="1.00" d=" M 287.23 194.35 C 295.37 192.26 303.92 199.74 302.89 208.09 C 302.51 216.16 293.47 222.12 285.90 219.26 C 279.27 217.28 275.35 209.37 277.75 202.89 C 279.09 198.59 282.86 195.31 287.23 194.35 Z" />
<path fill="#ffffff" opacity="1.00" d=" M 263.03 205.79 C 265.64 205.30 268.26 204.86 270.90 204.46 C 270.89 206.15 270.89 207.84 270.90 209.53 C 268.33 209.07 265.72 208.89 263.22 208.14 C 263.17 207.55 263.08 206.38 263.03 205.79 Z" />
<path fill="#ffffff" opacity="1.00" d=" M 309.10 204.47 C 311.73 204.86 314.36 205.30 316.98 205.79 C 316.93 206.38 316.83 207.56 316.78 208.14 C 314.28 208.90 311.65 209.06 309.10 209.53 C 309.10 207.84 309.10 206.15 309.10 204.47 Z" />
<path fill="#ffffff" opacity="1.00" d=" M 270.31 224.96 C 271.66 222.72 273.32 220.68 274.81 218.53 C 276.03 219.75 277.25 220.97 278.47 222.20 C 276.30 223.74 274.13 225.29 271.97 226.85 C 271.55 226.37 270.72 225.43 270.31 224.96 Z" />
<path fill="#ffffff" opacity="1.00" d=" M 301.53 222.20 C 302.75 220.97 303.97 219.75 305.20 218.53 C 306.74 220.70 308.29 222.87 309.85 225.04 C 309.37 225.45 308.43 226.28 307.96 226.69 C 305.72 225.33 303.68 223.68 301.53 222.20 Z" />
<path fill="#ffffff" opacity="1.00" d=" M 287.47 226.10 C 289.15 226.10 290.84 226.10 292.53 226.10 C 292.06 228.66 291.90 231.28 291.14 233.78 C 290.56 233.83 289.38 233.93 288.79 233.98 C 288.30 231.36 287.86 228.73 287.47 226.10 Z" />
<path fill="#ffffff" opacity="1.00" d=" M 171.12 273.11 C 184.62 259.69 198.40 246.55 211.85 233.08 C 217.22 238.45 222.53 243.87 227.98 249.16 C 231.30 247.49 234.63 245.85 237.93 244.15 C 250.91 257.15 263.85 270.18 276.91 283.09 C 285.98 278.51 294.96 273.76 304.00 269.12 C 316.28 275.28 328.53 281.49 340.88 287.52 C 340.89 298.98 340.82 310.45 340.92 321.92 C 284.31 321.84 227.69 321.84 171.08 321.92 C 171.19 305.65 171.10 289.38 171.12 273.11 Z" />
</svg>
