<?xml version="1.0" encoding="UTF-8" ?>
<!DOCTYPE svg PUBLIC "-//W3C//DTD SVG 1.1//EN" "http://www.w3.org/Graphics/SVG/1.1/DTD/svg11.dtd">
<svg width="512pt" height="512pt" viewBox="0 0 512 512" version="1.1" xmlns="http://www.w3.org/2000/svg">
<path fill="#3c8fff" opacity="1.00" d=" M 0.00 0.00 L 512.00 0.00 L 512.00 512.00 L 0.00 512.00 L 0.00 0.00 Z" />
<path fill="#ffffff" opacity="1.00" d=" M 267.62 162.43 C 270.46 162.43 273.29 162.44 276.12 162.47 C 271.94 175.86 267.75 189.25 263.52 202.63 C 261.59 202.62 259.67 202.61 257.74 202.61 C 260.90 189.18 264.44 175.85 267.62 162.43 Z" />
<path fill="#ffffff" opacity="1.00" d=" M 130.63 164.96 C 134.88 165.14 139.14 165.13 143.39 165.18 C 151.60 182.15 160.11 198.96 168.44 215.86 C 172.53 224.24 177.15 232.43 179.94 241.37 C 181.80 242.10 184.50 242.95 185.56 240.58 C 190.53 228.89 196.89 217.87 202.62 206.54 C 208.37 195.36 214.20 184.21 219.97 173.04 C 221.37 170.44 222.43 167.60 224.32 165.31 C 227.96 164.87 231.66 165.17 235.33 165.02 C 221.58 192.18 207.14 219.00 193.14 246.03 C 191.19 250.22 187.81 254.14 188.09 259.02 C 188.16 275.61 188.12 292.19 188.14 308.78 C 184.39 308.84 180.62 309.05 176.87 308.73 C 176.53 294.16 176.81 279.57 176.74 264.99 C 176.59 261.65 177.26 258.12 176.08 254.92 C 161.06 224.87 145.44 195.11 130.63 164.96 Z" />
<path fill="#ffffff" opacity="1.00" d=" M 303.65 207.83 C 329.30 207.86 354.95 207.81 380.61 207.85 C 359.84 236.95 338.69 265.78 317.79 294.78 C 316.93 296.01 316.12 297.44 316.76 298.99 C 317.65 301.11 320.14 300.61 321.98 300.75 C 341.14 300.66 360.31 300.75 379.47 300.70 C 379.47 303.42 379.47 306.14 379.47 308.86 C 352.05 308.74 324.63 309.08 297.22 308.68 C 316.47 282.06 335.87 255.55 355.17 228.97 C 357.20 226.01 359.70 223.33 361.25 220.07 C 362.05 217.71 359.19 215.89 357.08 216.27 C 339.27 216.23 321.45 216.28 303.64 216.26 C 303.64 213.45 303.64 210.64 303.65 207.83 Z" />
<path fill="#ffffff" opacity="1.00" d=" M 104.55 285.41 C 126.50 285.44 148.45 285.41 170.40 285.43 C 170.61 294.98 169.87 304.60 170.74 314.11 C 174.22 316.72 179.00 315.08 183.05 315.53 C 186.69 315.11 191.16 316.69 194.14 313.98 C 194.86 304.49 194.25 294.93 194.41 285.42 C 231.65 285.46 268.88 285.36 306.11 285.47 C 301.61 291.52 297.17 297.62 292.73 303.72 C 290.56 306.29 291.12 309.90 291.35 312.99 C 291.53 315.26 294.24 315.57 296.04 315.52 C 324.68 315.48 353.32 315.56 381.95 315.48 C 384.01 315.78 386.00 314.28 386.02 312.15 C 386.30 307.13 386.51 302.02 385.85 297.03 C 385.59 294.64 383.02 294.15 381.06 294.28 C 362.76 294.23 344.47 294.31 326.18 294.24 C 328.29 291.30 330.42 288.37 332.52 285.42 C 357.56 285.42 382.60 285.44 407.65 285.41 C 411.01 298.62 414.24 311.86 417.59 325.07 C 419.73 333.27 421.41 341.60 424.09 349.64 C 312.12 349.66 200.15 349.63 88.17 349.66 C 89.15 346.74 89.98 343.78 90.72 340.81 C 95.30 322.34 99.94 303.88 104.55 285.41 Z" />
<path fill="#3c8fff" opacity="1.00" d=" M 217.92 317.31 C 219.14 317.28 220.36 317.24 221.57 317.38 C 223.53 320.60 219.82 323.83 218.32 326.56 C 217.38 326.56 216.44 326.57 215.51 326.58 C 216.95 323.68 217.89 320.57 217.92 317.31 Z" />
<path fill="#3c8fff" opacity="1.00" d=" M 301.44 317.36 C 302.79 317.36 304.15 317.37 305.50 317.38 C 305.51 322.01 305.46 326.63 305.58 331.25 C 307.28 328.96 308.98 326.67 310.70 324.39 C 312.15 324.49 313.60 324.59 315.06 324.72 C 313.32 326.90 311.54 329.04 309.73 331.16 C 311.79 334.27 313.81 337.43 315.46 340.79 C 314.06 340.72 312.68 340.58 311.30 340.38 C 308.98 337.89 307.50 334.75 305.55 331.98 C 305.50 334.83 305.50 337.68 305.49 340.53 C 304.15 340.56 302.81 340.59 301.47 340.62 C 301.37 332.87 301.41 325.12 301.44 317.36 Z" />
<path fill="#3c8fff" opacity="1.00" d=" M 196.77 318.52 C 197.84 318.63 199.98 318.85 201.05 318.96 C 202.97 321.81 204.10 325.09 205.70 328.12 C 207.02 324.95 208.42 321.82 209.88 318.72 C 210.94 318.72 213.05 318.73 214.11 318.73 C 212.51 322.80 210.37 326.62 208.46 330.55 C 206.89 333.63 207.64 337.22 207.48 340.53 C 206.12 340.57 204.75 340.60 203.39 340.64 C 203.21 337.05 203.90 333.21 202.16 329.90 C 200.30 326.13 198.24 322.46 196.77 318.52 Z" />
<path fill="#3c8fff" opacity="1.00" d=" M 246.94 319.90 C 248.68 317.93 251.71 318.95 254.03 318.80 C 258.41 318.71 263.13 320.99 264.39 325.46 C 265.28 329.83 265.17 335.29 261.35 338.31 C 257.34 341.36 251.96 340.42 247.27 340.61 C 246.49 333.74 246.68 326.79 246.94 319.90 Z" />
<path fill="#ffffff" opacity="1.00" d=" M 251.23 322.10 C 253.80 322.43 257.06 321.81 258.85 324.19 C 260.95 327.08 261.03 331.31 259.41 334.44 C 257.84 337.34 254.11 337.00 251.35 337.62 C 251.14 332.45 251.19 327.27 251.23 322.10 Z" />
<path fill="#3c8fff" opacity="1.00" d=" M 225.50 324.61 C 228.90 324.18 232.34 324.47 235.76 324.61 C 234.99 329.51 231.63 333.27 229.09 337.31 C 231.32 337.35 233.57 337.39 235.81 337.43 C 235.80 338.47 235.78 339.52 235.78 340.58 C 231.93 340.59 228.08 340.61 224.24 340.45 C 225.09 335.63 228.38 331.89 230.92 327.88 C 228.79 327.34 225.15 328.90 224.47 325.92 C 224.73 325.59 225.24 324.94 225.50 324.61 Z" />
<path fill="#3c8fff" opacity="1.00" d=" M 273.28 324.41 C 276.67 323.62 281.11 324.46 282.57 328.03 C 284.29 332.26 283.48 338.66 278.63 340.39 C 275.55 341.07 271.56 341.33 269.34 338.62 C 265.66 334.26 267.13 325.61 273.28 324.41 Z" />
<path fill="#3c8fff" opacity="1.00" d=" M 287.79 326.75 C 290.58 322.98 298.15 323.04 298.81 328.54 C 296.23 328.44 292.79 326.19 290.94 328.99 C 289.90 331.08 289.96 333.85 290.90 335.98 C 292.64 338.90 296.21 336.57 298.66 336.08 C 297.97 337.48 298.15 339.73 296.37 340.32 C 292.99 341.47 288.31 340.92 286.84 337.17 C 285.81 333.85 285.58 329.65 287.79 326.75 Z" />
<path fill="#ffffff" opacity="1.00" d=" M 274.39 327.45 C 281.01 325.90 280.88 339.16 274.38 337.58 C 270.50 336.18 270.62 328.94 274.39 327.45 Z" />
</svg>
