<?xml version="1.0" encoding="UTF-8" ?>
<!DOCTYPE svg PUBLIC "-//W3C//DTD SVG 1.1//EN" "http://www.w3.org/Graphics/SVG/1.1/DTD/svg11.dtd">
<svg width="512pt" height="512pt" viewBox="0 0 512 512" version="1.1" xmlns="http://www.w3.org/2000/svg">
<path fill="#ef9f1d" opacity="1.00" d=" M 0.00 0.00 L 512.00 0.00 L 512.00 512.00 L 0.00 512.00 L 0.00 0.00 Z" />
<path fill="#ffffff" opacity="1.00" d=" M 238.48 118.75 C 258.83 115.57 279.77 118.48 299.30 124.63 C 328.66 134.13 354.51 153.84 371.53 179.57 C 386.71 202.27 395.22 229.63 394.54 257.00 C 394.86 280.35 388.34 303.61 376.93 323.92 C 363.06 348.52 341.47 368.64 316.00 380.82 C 291.02 392.76 262.41 397.26 235.03 392.92 C 203.94 388.42 174.59 372.85 153.40 349.67 C 135.00 329.88 122.68 304.53 118.50 277.84 C 114.73 254.28 117.20 229.74 125.62 207.41 C 135.82 180.42 154.66 156.75 178.71 140.82 C 196.57 128.96 217.20 121.32 238.48 118.75 Z" />
<path fill="#ef9f1d" opacity="1.00" d=" M 285.54 182.74 C 289.19 181.74 293.53 181.95 296.50 184.55 C 304.23 190.52 304.42 203.62 297.04 209.94 C 292.90 213.61 286.03 213.76 281.93 209.95 C 273.42 202.95 274.97 186.93 285.54 182.74 Z" />
<path fill="#ef9f1d" opacity="1.00" d=" M 218.05 183.01 C 226.33 179.98 234.51 187.84 234.71 195.95 C 235.66 203.08 231.54 211.47 224.00 212.87 C 217.12 214.41 210.79 208.57 209.42 202.13 C 207.43 194.86 210.69 185.82 218.05 183.01 Z" />
<path fill="#ef9f1d" opacity="1.00" d=" M 172.38 270.82 C 179.24 270.90 186.10 270.90 192.96 270.90 C 204.30 271.81 215.64 270.13 226.97 271.19 C 266.84 271.17 306.72 271.45 346.59 270.83 C 345.51 282.92 343.21 295.07 338.26 306.22 C 333.76 318.00 327.25 329.28 317.75 337.74 C 302.99 351.17 282.64 356.80 263.02 356.90 C 246.05 357.53 228.49 355.04 213.50 346.65 C 202.82 341.13 194.27 332.19 188.04 322.03 C 178.86 306.51 173.87 288.70 172.38 270.82 Z" />
</svg>
