<?xml version="1.0" encoding="UTF-8" ?>
<!DOCTYPE svg PUBLIC "-//W3C//DTD SVG 1.1//EN" "http://www.w3.org/Graphics/SVG/1.1/DTD/svg11.dtd">
<svg width="512pt" height="512pt" viewBox="0 0 512 512" version="1.1" xmlns="http://www.w3.org/2000/svg">
<path fill="#438c00" opacity="1.00" d=" M 0.00 0.00 L 512.00 0.00 L 512.00 512.00 L 0.00 512.00 L 0.00 0.00 Z" />
<path fill="#ffffff" opacity="1.00" d=" M 233.07 104.16 C 239.57 102.64 246.27 102.36 252.92 102.25 C 263.23 102.20 273.69 102.35 283.68 105.18 C 317.60 114.17 349.20 131.32 375.81 154.13 C 381.94 159.44 387.89 166.45 387.73 175.04 C 387.56 184.54 385.20 194.54 378.72 201.80 C 375.97 205.33 372.06 207.95 370.07 212.04 C 376.72 212.67 383.39 213.86 390.09 213.18 C 394.83 212.69 399.24 209.37 404.13 210.73 C 409.57 212.75 410.92 221.56 405.37 224.28 C 402.24 226.77 394.89 224.62 395.41 230.47 C 398.73 229.49 402.38 227.43 405.84 228.86 C 410.15 231.66 410.36 237.69 409.17 242.18 C 408.32 245.56 405.29 247.50 402.25 248.68 C 401.38 252.41 403.83 256.83 401.04 260.01 C 398.54 262.80 395.82 266.06 391.97 266.83 C 387.20 267.45 383.64 263.33 381.93 259.37 C 380.69 260.50 379.33 261.54 378.39 262.95 C 378.35 265.66 381.63 267.14 381.75 269.90 C 382.50 274.41 379.57 279.36 375.03 280.41 C 371.41 280.95 367.03 280.17 364.95 276.84 C 362.71 273.52 364.44 269.09 362.25 265.77 C 360.34 262.75 357.49 260.51 354.85 258.17 C 353.63 260.68 352.37 263.74 353.71 266.46 C 355.83 269.89 358.96 272.59 360.89 276.16 C 363.45 280.08 363.67 284.99 366.10 288.97 C 367.78 291.83 370.32 294.03 372.28 296.68 C 375.78 301.46 378.68 306.67 380.93 312.14 C 382.81 316.87 382.40 322.05 382.54 327.03 C 382.38 332.61 382.95 338.43 380.76 343.71 C 376.94 353.23 371.18 361.81 365.14 370.03 C 361.60 375.27 358.34 380.85 356.67 386.99 C 355.56 390.60 357.83 393.93 358.95 397.23 C 360.59 401.49 358.36 407.10 353.90 408.53 C 348.95 409.22 343.35 407.38 340.46 403.16 C 340.94 398.73 343.20 394.67 343.52 390.18 C 343.55 387.64 344.76 384.18 342.12 382.53 C 337.73 388.33 341.03 396.64 336.14 402.17 C 334.39 404.50 331.08 403.85 328.66 403.18 C 324.70 401.72 320.07 398.79 320.26 394.00 C 320.60 387.85 326.96 384.50 328.79 378.96 C 327.87 376.55 325.52 378.32 324.20 379.24 C 320.47 381.68 319.50 386.41 316.46 389.41 C 311.88 391.97 304.92 390.55 302.50 385.62 C 300.80 382.43 301.20 378.20 303.65 375.51 C 306.18 372.64 310.05 371.49 312.69 368.75 C 317.87 363.54 322.50 357.64 325.66 350.97 C 314.51 353.47 304.00 360.10 298.24 370.16 C 294.26 377.52 288.48 383.96 281.24 388.23 C 277.16 390.57 272.96 393.16 268.15 393.55 C 263.10 393.99 258.03 393.73 252.97 393.81 C 248.30 393.72 243.39 393.99 239.07 391.92 C 231.46 388.36 224.43 383.30 219.31 376.58 C 213.37 369.32 208.93 360.06 200.05 355.89 C 195.98 354.01 191.97 351.46 187.37 351.28 C 189.45 355.53 192.23 359.42 193.98 363.85 C 195.61 367.94 198.87 371.36 202.87 373.20 C 206.08 373.95 211.05 373.58 211.46 378.03 C 213.24 384.45 207.10 390.34 201.02 390.61 C 197.25 390.64 196.34 386.44 194.11 384.30 C 192.50 384.38 191.19 385.42 189.77 386.04 C 190.89 388.76 193.85 390.89 193.38 394.10 C 192.13 397.59 189.29 400.26 186.28 402.29 C 183.41 403.80 179.98 402.23 177.93 400.05 C 175.76 398.28 176.90 394.45 174.04 393.30 C 172.77 393.52 171.58 393.98 170.47 394.66 C 171.55 396.97 173.07 399.42 172.27 402.08 C 170.03 408.39 160.70 410.96 155.82 406.18 C 153.98 404.26 152.04 401.74 152.64 398.91 C 153.66 395.02 158.14 393.02 158.72 388.98 C 157.79 384.57 155.75 380.47 153.52 376.59 C 148.18 367.15 139.30 360.29 134.36 350.59 C 124.80 333.43 128.53 311.31 139.96 295.98 C 142.40 292.37 147.18 290.42 148.23 285.93 C 149.10 280.46 151.88 275.50 155.19 271.15 C 157.09 268.63 159.82 266.79 161.27 263.94 C 161.72 261.81 160.79 259.70 159.92 257.82 C 157.87 256.83 156.38 258.72 155.02 259.95 C 152.57 262.50 150.08 265.23 148.86 268.61 C 148.16 272.29 148.79 276.81 145.46 279.40 C 140.12 284.13 130.65 278.94 131.14 272.01 C 130.70 268.45 133.19 265.68 134.90 262.87 C 133.70 261.61 132.44 260.42 131.10 259.32 C 129.20 261.61 128.13 264.75 125.47 266.32 C 119.57 268.41 113.43 264.02 111.24 258.64 C 109.53 255.01 111.13 250.06 107.66 247.29 C 104.34 244.18 102.04 239.57 102.57 234.96 C 103.76 231.36 106.38 226.33 111.00 227.74 C 113.12 227.77 114.12 230.12 116.09 230.42 C 116.55 229.06 116.59 227.61 116.70 226.20 C 112.88 226.61 108.61 226.20 106.03 222.99 C 100.97 218.15 107.02 207.90 113.83 210.65 C 122.07 213.85 130.98 213.55 139.67 213.42 C 134.61 205.32 128.41 197.56 126.30 188.04 C 125.21 182.73 123.55 177.23 124.77 171.79 C 125.81 167.62 127.14 163.34 129.94 159.98 C 136.99 151.85 146.04 145.88 154.87 139.87 C 177.96 122.52 204.89 110.41 233.07 104.16 Z" />
<path fill="#438c00" opacity="1.00" d=" M 241.73 121.96 C 244.21 121.53 246.74 121.92 249.15 122.57 C 250.86 126.72 252.21 131.03 252.87 135.48 C 255.77 137.12 259.20 136.71 262.36 136.29 C 262.81 133.79 263.05 131.23 263.90 128.81 C 265.39 127.21 268.22 128.27 268.48 130.40 C 269.39 134.84 268.03 139.30 267.35 143.67 C 260.16 143.67 252.96 143.72 245.77 143.64 C 246.02 137.58 244.00 131.82 241.96 126.21 C 241.68 124.85 240.47 123.16 241.73 121.96 Z" />
<path fill="#438c00" opacity="1.00" d=" M 165.20 154.11 C 170.82 148.03 176.52 141.91 182.92 136.64 C 180.71 140.17 180.14 144.70 176.70 147.37 C 174.79 153.86 169.74 158.64 166.46 164.40 C 163.29 169.94 159.67 175.80 153.73 178.69 C 149.86 180.10 145.39 179.68 141.69 177.93 C 145.81 177.29 150.54 177.97 153.80 174.77 C 158.55 171.28 157.61 162.76 151.91 160.80 C 148.06 159.56 144.79 162.87 143.34 166.08 C 144.60 167.98 146.27 169.63 148.63 169.92 C 149.43 168.97 150.24 168.04 151.05 167.10 C 151.27 167.55 151.72 168.44 151.95 168.89 C 151.79 169.49 151.47 170.69 151.32 171.29 C 146.75 174.50 139.09 168.22 142.17 163.30 C 144.48 158.43 148.73 154.97 152.86 151.71 C 152.62 153.84 152.23 155.97 152.31 158.13 C 153.98 159.62 156.34 160.39 157.44 162.46 C 158.66 164.14 159.26 166.66 161.60 167.08 C 162.96 162.76 161.57 157.55 165.20 154.11 Z" />
<path fill="#438c00" opacity="1.00" d=" M 208.25 151.60 C 215.43 151.93 223.57 152.21 229.36 156.99 C 228.38 165.87 226.52 175.67 230.85 184.04 C 236.26 192.98 246.03 199.39 248.30 210.11 C 250.28 221.55 252.50 233.34 250.51 244.93 C 253.05 244.70 254.42 242.40 254.46 240.05 C 255.20 229.38 254.36 218.65 255.22 207.98 C 255.50 204.85 254.79 201.28 257.06 198.71 C 259.09 202.84 258.61 207.56 258.83 212.01 C 258.75 221.98 259.20 231.94 259.52 241.91 C 259.26 244.64 262.42 245.21 264.47 245.40 C 262.42 238.75 263.42 231.71 263.76 224.89 C 264.67 218.05 264.76 210.87 267.70 204.52 C 273.20 195.07 282.77 188.25 286.34 177.63 C 287.14 175.77 286.74 172.82 289.09 172.10 C 290.51 171.07 293.06 172.11 292.77 173.99 C 292.94 177.47 292.47 180.94 292.34 184.42 C 295.05 186.22 298.81 185.32 301.18 187.75 C 302.76 189.37 305.45 189.06 306.79 190.97 C 306.12 191.17 304.79 191.58 304.12 191.78 C 305.59 193.65 305.89 195.94 305.49 198.23 C 300.41 199.38 295.25 200.74 291.00 203.91 C 286.46 206.67 283.55 211.21 279.68 214.71 C 276.42 217.01 272.37 218.98 271.19 223.16 C 268.24 232.63 265.19 242.51 265.83 252.54 C 262.87 251.20 261.72 247.64 258.67 246.29 C 257.30 249.12 257.26 252.64 258.62 255.47 C 260.19 257.33 262.78 257.90 265.04 258.50 C 265.25 257.54 265.67 255.63 265.88 254.68 C 266.24 257.48 266.54 260.30 266.75 263.12 C 263.86 262.09 261.13 260.68 258.42 259.27 C 257.52 262.32 257.26 265.49 257.11 268.66 C 256.91 265.53 256.67 262.40 256.22 259.30 C 248.66 262.37 243.97 270.06 241.97 277.65 C 246.86 276.56 251.90 275.53 256.33 273.09 C 256.45 272.58 256.68 271.57 256.80 271.06 C 257.78 272.75 259.16 274.19 261.05 274.85 C 266.18 276.96 271.87 278.78 275.36 283.40 C 274.97 284.95 273.36 284.68 272.14 284.53 C 269.60 284.04 267.18 283.06 264.69 282.39 C 263.81 284.14 263.31 286.22 264.51 287.96 C 267.22 292.62 272.19 295.43 277.28 296.80 C 277.79 295.81 278.31 294.83 278.83 293.85 C 281.53 296.88 285.93 298.98 289.90 297.18 C 291.62 297.37 293.34 297.67 295.08 297.73 C 297.12 297.16 298.78 295.47 301.01 295.53 C 306.73 295.33 312.51 295.77 318.12 296.97 C 319.99 297.28 321.47 298.47 322.69 299.86 C 319.62 303.80 314.97 306.53 310.05 307.34 C 303.44 308.26 297.54 304.37 291.11 303.84 C 286.20 303.83 281.97 300.78 277.08 300.54 C 267.76 299.86 258.42 297.93 249.06 299.15 C 234.30 299.84 220.28 304.93 205.87 307.66 C 200.40 309.04 194.61 306.71 190.64 302.94 C 192.98 297.86 198.81 295.94 204.04 296.00 C 205.18 294.43 205.91 292.55 207.48 291.30 C 207.31 292.50 207.13 293.71 206.95 294.92 C 210.63 294.41 214.44 294.01 217.88 292.52 C 220.48 290.79 222.99 288.86 226.11 288.14 C 222.79 287.69 221.64 284.58 221.39 281.68 C 222.05 280.78 222.72 279.89 223.41 279.02 C 223.15 280.15 222.80 281.24 222.49 282.36 C 224.14 282.31 225.80 282.27 227.46 282.25 C 227.49 284.09 227.51 285.93 227.54 287.77 C 232.53 281.31 239.13 275.80 241.78 267.82 C 244.87 258.97 247.61 249.07 244.45 239.86 C 242.32 233.55 240.85 226.76 236.44 221.56 C 233.87 216.94 229.91 213.36 225.50 210.55 C 221.60 208.19 219.32 203.72 214.95 202.10 C 211.62 200.67 207.99 200.22 204.53 199.25 C 200.85 197.91 198.98 194.15 197.01 191.04 C 196.32 190.02 195.35 187.97 197.29 187.67 C 204.89 185.60 212.87 185.61 220.69 185.21 C 220.60 177.38 220.20 169.55 219.14 161.79 C 215.22 158.98 210.33 162.59 206.34 160.28 C 207.03 158.87 207.74 157.47 208.48 156.09 C 208.40 154.59 208.31 153.10 208.25 151.60 Z" />
<path fill="#438c00" opacity="1.00" d=" M 252.49 153.68 C 259.69 151.26 268.86 155.14 271.58 162.39 C 272.49 164.93 270.37 167.10 268.94 168.93 C 263.51 175.34 253.72 175.57 246.52 172.32 C 243.37 170.99 241.19 167.53 242.38 164.12 C 244.04 159.44 247.84 155.46 252.49 153.68 Z" />
<path fill="#438c00" opacity="1.00" d=" M 194.08 217.84 C 201.36 216.78 209.01 217.91 215.58 221.28 C 222.80 224.88 227.14 232.49 229.05 240.07 C 231.37 250.34 225.36 260.33 218.01 267.01 C 215.38 269.55 211.46 270.01 208.06 268.98 C 198.57 266.27 188.95 263.49 179.01 263.23 C 177.96 263.08 176.48 263.32 175.93 262.14 C 172.76 256.31 169.95 249.87 170.49 243.07 C 171.18 230.51 181.91 219.89 194.08 217.84 Z" />
<path fill="#438c00" opacity="1.00" d=" M 305.46 219.71 C 314.41 218.13 324.35 219.63 331.50 225.56 C 335.69 229.21 339.78 234.04 339.71 239.93 C 339.77 244.12 340.09 248.38 339.32 252.53 C 337.79 256.22 334.53 258.89 331.51 261.37 C 328.55 263.86 324.48 263.46 320.98 264.58 C 314.32 266.11 307.90 268.87 301.04 269.42 C 295.35 269.61 291.47 264.79 288.15 260.85 C 283.01 254.66 279.47 246.16 282.20 238.15 C 285.87 228.37 295.53 221.89 305.46 219.71 Z" />
<path fill="#ffffff" opacity="1.00" d=" M 305.44 231.66 C 314.27 227.45 325.90 234.28 326.76 243.94 C 327.84 252.07 321.32 260.46 313.10 261.17 C 307.31 261.61 301.21 258.86 298.27 253.74 C 293.65 246.21 297.15 234.96 305.44 231.66 Z" />
<path fill="#ffffff" opacity="1.00" d=" M 196.58 232.70 C 202.57 231.30 209.76 232.03 214.01 236.95 C 220.33 243.71 218.30 255.77 210.56 260.57 C 204.15 264.80 194.84 262.67 190.27 256.71 C 184.65 249.05 187.69 236.43 196.58 232.70 Z" />
<path fill="#438c00" opacity="1.00" d=" M 306.94 273.32 C 312.20 267.84 320.52 268.91 327.05 266.13 C 329.42 265.08 331.75 266.58 333.85 267.54 C 335.38 267.03 336.93 265.64 338.63 266.39 C 341.68 268.12 343.74 271.12 345.66 273.97 C 341.31 278.33 335.13 279.49 329.88 282.35 C 327.02 281.02 323.98 280.14 321.12 278.85 C 320.06 277.48 319.19 275.98 318.06 274.67 C 317.42 273.67 317.11 272.39 316.06 271.73 C 314.56 271.50 313.55 272.78 312.31 273.33 C 310.66 274.33 308.69 273.52 306.94 273.32 Z" />
<path fill="#438c00" opacity="1.00" d=" M 160.65 275.92 C 162.48 271.92 165.96 268.51 169.91 266.61 C 174.26 266.32 178.58 267.50 182.96 267.23 C 190.06 266.92 196.96 268.80 203.67 270.90 C 201.41 271.78 199.15 272.65 196.88 273.48 C 195.16 272.76 193.61 270.53 191.61 271.35 C 190.61 273.33 191.57 275.21 193.10 276.57 C 192.10 278.76 190.21 280.27 188.21 281.51 C 185.96 280.46 183.64 279.21 181.07 279.34 C 176.14 279.02 171.81 282.04 166.94 282.10 C 163.55 282.11 161.16 279.01 160.65 275.92 Z" />
</svg>
