<?xml version="1.0" encoding="UTF-8" ?>
<!DOCTYPE svg PUBLIC "-//W3C//DTD SVG 1.1//EN" "http://www.w3.org/Graphics/SVG/1.1/DTD/svg11.dtd">
<svg width="512pt" height="512pt" viewBox="0 0 512 512" version="1.1" xmlns="http://www.w3.org/2000/svg">
<path fill="#f98c25" opacity="1.00" d=" M 0.00 0.00 L 512.00 0.00 L 512.00 512.00 L 0.00 512.00 L 0.00 0.00 Z" />
<path fill="#ffffff" opacity="1.00" d=" M 250.36 118.48 C 259.61 116.83 268.42 121.32 276.05 126.03 C 306.86 144.27 337.75 162.35 368.70 180.34 C 371.89 182.28 375.21 184.97 375.79 188.90 C 376.46 193.27 374.18 197.37 372.10 201.04 C 357.48 226.06 342.68 250.98 328.12 276.04 C 326.42 279.14 324.32 282.46 324.80 286.15 C 325.77 289.52 328.92 291.48 331.68 293.30 C 343.06 300.52 354.31 307.96 365.70 315.20 C 370.97 318.35 372.82 326.77 368.19 331.23 C 366.39 333.17 363.99 334.38 361.76 335.75 C 330.48 354.21 299.26 372.79 267.73 390.83 C 259.43 395.88 248.92 393.79 240.97 389.09 C 209.89 371.20 178.80 353.31 147.83 335.23 C 143.29 332.73 138.48 329.30 137.36 323.90 C 136.05 319.42 137.41 314.63 139.56 310.65 C 154.55 285.50 169.01 260.05 183.72 234.74 C 185.60 231.85 186.57 228.09 185.20 224.79 C 183.33 221.11 179.81 218.70 176.46 216.48 C 166.90 210.33 157.14 204.49 147.40 198.62 C 144.02 196.65 141.15 193.09 141.34 189.00 C 140.93 183.75 145.28 179.82 149.36 177.31 C 179.14 159.78 208.99 142.38 238.60 124.58 C 242.41 122.37 245.96 119.43 250.36 118.48 Z" />
<path fill="#f98c25" opacity="1.00" d=" M 266.45 135.63 C 269.79 134.48 273.18 136.20 276.04 137.83 C 300.35 152.22 324.88 166.25 349.05 180.87 C 351.96 182.53 354.95 185.52 354.28 189.17 C 353.19 193.01 349.90 195.68 346.63 197.67 C 323.90 210.46 301.36 223.60 278.81 236.72 C 274.83 238.95 270.70 242.20 265.84 241.32 C 262.92 240.21 261.44 236.99 261.59 234.02 C 261.62 216.68 261.78 199.34 261.72 182.00 C 262.52 171.00 261.88 159.98 262.15 148.97 C 261.82 144.35 261.38 137.90 266.45 135.63 Z" />
<path fill="#f98c25" opacity="1.00" d=" M 224.30 147.35 C 226.73 145.76 230.22 146.76 231.45 149.38 C 232.64 151.98 231.22 154.73 229.92 156.97 C 220.73 172.71 211.43 188.39 202.18 204.09 C 200.72 206.55 198.90 209.00 196.23 210.22 C 192.60 211.58 188.55 210.56 185.29 208.71 C 177.86 204.53 170.49 200.25 163.18 195.85 C 160.87 194.24 158.01 192.22 158.13 189.06 C 157.59 185.51 160.33 182.68 163.26 181.23 C 183.68 170.07 203.73 158.23 224.30 147.35 Z" />
<path fill="#f98c25" opacity="1.00" d=" M 244.36 157.44 C 248.13 156.51 250.77 160.62 250.41 163.98 C 250.67 186.98 250.31 209.97 250.39 232.97 C 250.70 236.51 248.42 240.05 245.05 241.19 C 242.13 241.99 239.37 240.51 236.91 239.12 C 230.15 235.26 223.46 231.26 216.80 227.23 C 213.72 225.36 210.54 223.06 209.38 219.48 C 208.10 216.29 209.59 212.84 211.12 210.02 C 220.35 194.34 229.54 178.63 238.81 162.97 C 240.16 160.75 241.70 158.18 244.36 157.44 Z" />
<path fill="#f98c25" opacity="1.00" d=" M 340.30 214.46 C 342.72 212.93 346.51 213.36 347.74 216.20 C 349.09 218.60 347.74 221.27 346.58 223.44 C 337.51 239.41 328.32 255.30 319.18 271.23 C 317.43 274.40 314.82 277.43 311.13 278.23 C 307.40 278.84 303.96 276.88 300.77 275.25 C 293.95 271.46 287.16 267.61 280.42 263.68 C 277.58 262.07 274.74 259.48 274.64 255.99 C 274.88 252.83 277.20 250.22 279.96 248.86 C 300.15 237.53 319.98 225.54 340.30 214.46 Z" />
<path fill="#f98c25" opacity="1.00" d=" M 199.27 235.40 C 203.09 233.47 207.27 235.53 210.73 237.27 C 218.03 241.27 225.31 245.33 232.47 249.59 C 235.08 251.16 237.80 253.71 237.57 257.04 C 237.55 259.98 235.27 262.33 232.89 263.75 C 213.10 274.93 193.60 286.61 173.73 297.66 C 171.50 298.86 168.63 300.39 166.27 298.61 C 163.39 296.91 163.87 292.89 165.33 290.38 C 174.44 274.19 183.77 258.12 192.98 241.98 C 194.48 239.32 196.42 236.70 199.27 235.40 Z" />
<path fill="#f98c25" opacity="1.00" d=" M 241.43 271.63 C 243.91 270.87 246.75 271.53 248.37 273.62 C 250.89 276.84 250.43 281.18 250.41 285.01 C 250.26 310.00 250.55 335.00 250.23 359.99 C 250.21 363.50 250.48 367.09 249.63 370.54 C 248.90 373.49 246.11 375.90 242.99 375.77 C 238.02 375.81 233.81 372.76 229.67 370.42 C 207.22 357.42 184.62 344.70 162.03 331.96 C 159.04 330.23 155.92 327.70 155.57 324.02 C 156.11 320.89 158.76 318.81 161.33 317.29 C 184.63 304.04 207.85 290.64 231.02 277.14 C 234.43 275.20 237.65 272.80 241.43 271.63 Z" />
<path fill="#f98c25" opacity="1.00" d=" M 266.23 272.16 C 268.99 270.61 272.17 271.94 274.67 273.37 C 281.82 277.48 288.94 281.66 295.96 285.99 C 298.98 287.87 302.13 290.29 303.04 293.92 C 303.93 297.06 302.68 300.28 301.10 302.97 C 291.68 318.95 282.32 334.95 272.83 350.89 C 271.39 353.25 269.13 356.07 266.00 355.47 C 263.11 354.88 261.69 351.70 261.75 348.98 C 261.54 334.01 261.83 319.04 261.72 304.07 C 261.55 297.05 262.70 290.05 261.93 283.03 C 261.43 279.01 262.14 274.06 266.23 272.16 Z" />
<path fill="#f98c25" opacity="1.00" d=" M 316.40 302.56 C 319.87 301.22 323.70 302.47 326.82 304.18 C 333.42 307.83 339.89 311.72 346.41 315.52 C 349.51 317.33 353.07 319.27 354.21 322.95 C 355.03 326.52 352.49 329.92 349.44 331.49 C 329.46 342.45 309.74 353.86 289.69 364.68 C 287.54 365.84 284.77 367.13 282.50 365.49 C 279.39 363.65 280.05 359.39 281.79 356.81 C 290.87 341.25 300.09 325.77 309.24 310.26 C 310.98 307.21 313.02 303.97 316.40 302.56 Z" />
</svg>
