<?xml version="1.0" encoding="UTF-8" ?>
<!DOCTYPE svg PUBLIC "-//W3C//DTD SVG 1.1//EN" "http://www.w3.org/Graphics/SVG/1.1/DTD/svg11.dtd">
<svg width="512pt" height="512pt" viewBox="0 0 512 512" version="1.1" xmlns="http://www.w3.org/2000/svg">
<path fill="#05b95c" opacity="1.00" d=" M 0.00 0.00 L 512.00 0.00 L 512.00 512.00 L 0.00 512.00 L 0.00 0.00 Z" />
<path fill="#ffffff" opacity="1.00" d=" M 118.07 134.47 C 143.39 125.28 168.75 116.16 193.99 106.72 C 231.57 118.41 269.38 129.39 307.03 140.84 C 336.26 149.56 365.45 158.40 394.67 167.12 C 394.78 227.76 394.68 288.41 394.72 349.05 C 394.63 351.70 394.83 354.42 394.26 357.03 C 371.02 372.55 347.56 387.77 324.18 403.08 C 324.22 336.93 324.09 270.78 324.28 204.63 C 309.77 199.24 294.93 194.82 280.33 189.70 C 241.95 176.90 203.60 164.00 165.19 151.31 C 149.53 145.84 133.82 140.56 118.08 135.33 C 118.08 135.12 118.07 134.68 118.07 134.47 Z" />
<path fill="#05b95c" opacity="1.00" d=" M 260.49 142.67 C 262.30 141.59 264.40 142.46 266.27 142.91 C 278.25 146.61 290.26 150.18 302.28 153.76 C 305.86 154.68 309.14 158.06 308.73 161.96 C 308.65 164.63 305.66 166.59 303.16 165.56 C 289.90 161.56 276.61 157.65 263.39 153.54 C 259.29 152.19 256.14 145.42 260.49 142.67 Z" />
<path fill="#ffffff" opacity="1.00" d=" M 195.33 181.23 C 196.99 179.95 199.11 180.85 200.86 181.39 C 213.82 185.63 226.76 189.93 239.70 194.24 C 243.44 195.28 246.46 199.01 245.80 203.02 C 245.81 205.73 242.41 207.01 240.21 205.90 C 226.40 201.32 212.56 196.80 198.77 192.17 C 194.98 190.52 191.27 184.40 195.33 181.23 Z" />
<path fill="#ffffff" opacity="1.00" d=" M 168.03 288.09 C 177.36 281.85 189.86 282.52 199.64 287.35 C 209.92 292.19 217.64 301.04 223.37 310.65 C 229.55 322.89 231.57 337.97 225.85 350.76 C 223.64 356.03 219.55 360.21 215.08 363.65 C 197.17 357.03 179.23 350.50 161.35 343.79 C 155.51 333.37 152.20 320.99 154.55 309.08 C 156.34 300.81 160.71 292.69 168.03 288.09 Z" />
</svg>
