<?xml version="1.0" encoding="UTF-8" ?>
<!DOCTYPE svg PUBLIC "-//W3C//DTD SVG 1.1//EN" "http://www.w3.org/Graphics/SVG/1.1/DTD/svg11.dtd">
<svg width="512pt" height="512pt" viewBox="0 0 512 512" version="1.1" xmlns="http://www.w3.org/2000/svg">
<path fill="#4679c7" opacity="1.00" d=" M 0.00 0.00 L 512.00 0.00 L 512.00 512.00 L 0.00 512.00 L 0.00 0.00 Z" />
<path fill="#ffffff" opacity="1.00" d=" M 141.33 123.42 C 141.97 123.35 143.27 123.22 143.91 123.16 C 218.96 123.22 294.00 123.14 369.05 123.20 C 375.53 124.35 380.99 129.01 384.87 134.17 C 386.71 137.12 388.94 140.26 388.84 143.90 C 388.79 216.95 388.83 290.00 388.82 363.05 C 388.76 365.60 389.08 368.21 388.56 370.73 C 385.82 378.50 379.63 384.91 372.04 388.08 C 370.78 388.69 369.38 388.85 368.01 388.84 C 292.98 388.78 217.96 388.86 142.93 388.80 C 136.70 387.70 131.43 383.29 127.57 378.43 C 125.67 375.60 123.55 372.58 123.20 369.10 C 123.14 294.07 123.22 219.03 123.16 144.00 C 123.10 139.83 125.73 136.22 128.04 132.95 C 131.50 128.65 136.10 125.23 141.33 123.42 Z" />
<path fill="#4679c7" opacity="1.00" d=" M 176.15 176.15 C 229.38 176.17 282.62 176.17 335.85 176.15 C 335.83 181.69 335.82 187.24 335.86 192.78 C 282.62 192.78 229.38 192.78 176.14 192.78 C 176.18 187.24 176.17 181.69 176.15 176.15 Z" />
<path fill="#4679c7" opacity="1.00" d=" M 176.13 209.44 C 229.37 209.45 282.62 209.45 335.87 209.44 C 335.81 215.04 335.86 220.64 335.82 226.24 C 282.61 226.24 229.39 226.24 176.18 226.24 C 176.14 220.64 176.20 215.04 176.13 209.44 Z" />
<path fill="#4679c7" opacity="1.00" d=" M 176.14 242.60 C 229.38 242.59 282.62 242.60 335.85 242.59 C 335.83 248.19 335.81 253.79 335.87 259.39 C 282.62 259.38 229.38 259.38 176.13 259.39 C 176.19 253.79 176.17 248.19 176.14 242.60 Z" />
<path fill="#4679c7" opacity="1.00" d=" M 176.20 275.88 C 229.40 275.90 282.60 275.90 335.80 275.88 C 335.87 281.48 335.81 287.09 335.85 292.70 C 282.62 292.70 229.38 292.70 176.15 292.70 C 176.19 287.09 176.12 281.48 176.20 275.88 Z" />
<path fill="#4679c7" opacity="1.00" d=" M 176.13 309.28 C 206.19 309.40 236.25 309.09 266.30 309.44 C 266.15 314.88 266.25 320.33 266.23 325.78 C 252.17 326.24 238.08 325.52 224.01 325.95 C 208.05 325.88 192.10 325.99 176.14 325.84 C 176.17 320.32 176.18 314.80 176.13 309.28 Z" />
</svg>
