<?xml version="1.0" encoding="UTF-8" ?>
<!DOCTYPE svg PUBLIC "-//W3C//DTD SVG 1.1//EN" "http://www.w3.org/Graphics/SVG/1.1/DTD/svg11.dtd">
<svg width="512pt" height="512pt" viewBox="0 0 512 512" version="1.1" xmlns="http://www.w3.org/2000/svg">
<path fill="#808081" opacity="1.00" d=" M 0.00 0.00 L 512.00 0.00 L 512.00 512.00 L 0.00 512.00 L 0.00 0.00 Z" />
<path fill="#ffffff" opacity="1.00" d=" M 145.40 395.47 C 145.32 302.50 145.43 209.52 145.35 116.55 C 192.29 116.60 239.23 116.57 286.16 116.57 C 311.89 142.58 338.61 167.62 363.46 194.48 C 365.27 195.74 365.13 198.07 365.15 200.04 C 365.61 265.16 365.10 330.28 365.45 395.40 C 292.10 395.48 218.75 395.35 145.40 395.47 Z" />
<path fill="#808081" opacity="1.00" d=" M 264.72 128.40 C 264.97 128.37 265.47 128.31 265.72 128.29 C 291.75 154.59 317.94 180.73 344.08 206.93 C 347.62 210.68 351.53 214.13 354.77 218.14 C 324.68 218.28 294.58 218.10 264.49 218.24 C 264.55 188.30 264.69 158.35 264.72 128.40 Z" />
</svg>
