<?xml version="1.0" encoding="UTF-8" ?>
<!DOCTYPE svg PUBLIC "-//W3C//DTD SVG 1.1//EN" "http://www.w3.org/Graphics/SVG/1.1/DTD/svg11.dtd">
<svg width="512pt" height="512pt" viewBox="0 0 512 512" version="1.1" xmlns="http://www.w3.org/2000/svg">
<path fill="#d32c2c" opacity="1.00" d=" M 0.00 0.00 L 512.00 0.00 L 512.00 512.00 L 0.00 512.00 L 0.00 0.00 Z" />
<path fill="#ffffff" opacity="1.00" d=" M 254.33 132.35 C 255.17 131.81 256.34 130.51 257.29 131.71 C 266.95 139.13 276.34 146.92 286.13 154.14 C 312.59 154.54 339.09 154.11 365.57 154.35 C 365.47 175.05 365.39 195.77 365.60 216.46 C 372.79 222.53 380.44 228.08 387.75 234.02 C 387.59 285.00 387.73 335.99 387.68 386.97 C 306.09 387.20 224.53 386.88 142.95 387.10 C 135.91 386.82 128.86 387.32 121.82 386.86 C 121.85 335.88 121.86 284.91 121.82 233.94 C 129.06 228.43 136.27 222.87 143.50 217.35 C 145.19 216.52 144.64 214.48 144.77 212.98 C 144.68 193.43 144.81 173.88 144.70 154.33 C 171.18 154.24 197.65 154.32 224.12 154.30 C 225.59 154.54 226.73 153.50 227.84 152.74 C 236.62 145.89 245.52 139.18 254.33 132.35 Z" />
<path fill="#d32c2c" opacity="1.00" d=" M 147.65 156.72 C 161.21 156.60 174.77 156.80 188.33 156.62 C 210.15 178.17 231.81 199.89 253.48 221.59 C 275.17 199.91 296.82 178.21 318.62 156.65 C 333.26 156.71 347.90 156.72 362.55 156.65 C 362.85 187.34 362.58 218.04 362.67 248.74 C 352.18 254.42 341.95 260.58 331.40 266.15 C 331.33 240.07 331.35 213.99 331.39 187.92 C 307.24 212.27 282.88 236.41 258.68 260.71 C 257.14 262.21 255.62 263.78 253.78 264.93 C 252.49 265.23 251.76 263.80 250.87 263.17 C 226.87 239.18 202.89 215.18 178.83 191.26 C 179.40 216.06 178.24 240.88 179.30 265.69 C 168.66 259.96 158.18 253.93 147.59 248.11 C 147.69 217.65 147.60 187.18 147.65 156.72 Z" />
<path fill="#d32c2c" opacity="1.00" d=" M 266.83 305.00 C 269.68 302.80 272.94 301.26 276.03 299.46 C 280.18 301.65 283.59 304.92 287.42 307.59 C 319.06 331.29 350.69 355.02 382.24 378.83 C 383.31 379.48 383.68 380.67 384.07 381.79 C 382.97 381.78 381.94 381.56 380.98 381.13 C 348.19 359.18 315.24 337.48 282.40 315.63 C 277.25 312.02 271.80 308.86 266.83 305.00 Z" />
<path fill="#d32c2c" opacity="1.00" d=" M 134.96 377.06 C 168.93 351.47 202.98 325.96 236.98 300.39 C 240.54 301.78 243.90 303.64 246.96 305.93 C 211.23 329.89 175.31 353.56 139.48 377.36 C 136.82 379.15 134.27 381.30 131.08 382.03 C 130.74 379.44 133.23 378.32 134.96 377.06 Z" />
</svg>
