<?xml version="1.0" encoding="UTF-8" ?>
<!DOCTYPE svg PUBLIC "-//W3C//DTD SVG 1.1//EN" "http://www.w3.org/Graphics/SVG/1.1/DTD/svg11.dtd">
<svg width="512pt" height="512pt" viewBox="0 0 512 512" version="1.1" xmlns="http://www.w3.org/2000/svg">
<path fill="#5f5f5f" opacity="1.00" d=" M 0.00 0.00 L 512.00 0.00 L 512.00 512.00 L 0.00 512.00 L 0.00 0.00 Z" />
<path fill="#ffffff" opacity="1.00" d=" M 242.04 135.97 C 261.36 134.12 281.30 135.94 299.38 143.35 C 325.02 153.45 346.78 172.97 359.50 197.43 C 367.99 213.57 372.69 231.75 372.64 250.01 C 372.61 270.67 372.68 291.35 372.54 312.02 C 373.87 327.04 370.24 342.79 360.82 354.77 C 353.07 364.25 341.83 370.89 329.71 372.78 C 327.84 372.73 327.67 374.80 327.08 376.07 C 323.48 378.44 319.03 377.27 315.01 377.51 C 312.19 377.32 309.01 378.15 306.53 376.40 C 304.94 375.57 305.36 373.50 305.24 372.04 C 305.21 336.36 305.15 300.67 305.23 264.99 C 304.61 261.68 308.31 260.16 311.04 260.53 C 316.35 260.98 322.15 259.28 327.07 261.91 C 327.53 263.02 328.02 264.12 328.52 265.23 C 340.15 266.18 351.00 272.27 358.83 280.79 C 358.87 271.25 358.82 261.71 358.86 252.16 C 357.28 251.85 354.03 253.24 353.80 250.88 C 354.27 232.53 348.35 214.40 338.64 198.95 C 333.96 201.69 329.42 204.67 324.92 207.70 C 321.87 205.59 319.12 203.07 316.81 200.16 C 303.74 184.49 284.41 174.15 264.07 172.25 C 238.37 169.41 211.66 180.19 195.25 200.18 C 192.96 203.17 190.08 205.61 186.98 207.71 C 182.63 204.68 178.14 201.87 173.75 198.90 C 163.40 214.57 157.78 233.42 158.23 252.22 C 156.57 252.24 154.92 252.24 153.27 252.25 C 153.32 261.70 153.22 271.14 153.33 280.58 C 161.35 271.80 172.52 266.40 184.19 264.54 C 184.29 263.88 184.50 262.55 184.60 261.89 C 189.34 259.30 194.88 260.92 200.01 260.53 C 202.45 260.38 206.70 260.64 206.65 263.94 C 206.78 270.95 206.94 277.97 207.17 284.98 C 206.53 292.96 207.61 300.95 206.97 308.94 C 207.39 326.97 206.76 345.00 207.20 363.01 C 206.93 367.16 207.04 371.36 206.48 375.49 C 204.72 377.82 201.54 377.54 198.96 377.51 C 195.22 377.36 191.43 377.86 187.73 377.28 C 185.63 376.99 184.81 375.03 184.27 373.26 C 169.54 371.28 155.74 362.77 147.93 350.04 C 142.37 341.44 139.38 331.24 139.47 320.99 C 139.58 296.00 139.46 271.01 139.49 246.01 C 140.44 219.04 151.58 192.67 169.89 172.88 C 188.41 152.38 214.56 138.93 242.04 135.97 Z" />
</svg>
