<?xml version="1.0" encoding="UTF-8" ?>
<!DOCTYPE svg PUBLIC "-//W3C//DTD SVG 1.1//EN" "http://www.w3.org/Graphics/SVG/1.1/DTD/svg11.dtd">
<svg width="512pt" height="512pt" viewBox="0 0 512 512" version="1.1" xmlns="http://www.w3.org/2000/svg">
<path fill="#369300" opacity="1.00" d=" M 0.00 0.00 L 512.00 0.00 L 512.00 512.00 L 0.00 512.00 L 0.00 0.00 Z" />
<path fill="#ffffff" opacity="1.00" d=" M 224.30 127.52 C 236.79 122.87 249.55 118.52 262.86 117.03 C 267.02 116.65 271.47 116.91 275.23 118.90 C 279.33 121.14 280.38 126.42 279.49 130.68 C 278.55 133.60 275.98 135.75 273.23 136.93 C 262.99 141.30 252.49 145.18 242.77 150.68 C 210.92 168.10 187.43 198.68 175.76 232.77 C 174.09 237.78 172.52 242.87 172.08 248.17 C 171.28 254.66 171.25 261.39 172.08 267.88 C 173.67 278.27 176.83 288.94 183.88 297.00 C 186.74 300.82 190.74 303.54 194.48 306.43 C 198.12 308.84 201.63 312.00 206.15 312.51 C 215.47 312.95 225.13 312.44 233.83 308.76 C 248.12 302.44 259.62 291.47 269.86 279.93 C 283.02 264.56 291.06 245.45 295.56 225.88 C 296.28 222.25 298.54 218.97 302.02 217.51 C 303.36 217.52 304.71 217.51 306.06 217.50 C 311.03 219.36 312.01 225.17 312.21 229.84 C 311.34 236.26 311.25 242.80 309.74 249.13 C 303.44 276.56 291.92 303.35 273.04 324.52 C 270.32 328.26 266.62 331.07 263.16 334.08 C 252.19 343.82 238.53 350.30 224.17 353.16 C 217.47 354.10 210.74 354.84 203.99 355.13 C 195.68 354.49 187.23 354.04 179.26 351.39 C 165.50 347.47 153.07 338.99 144.33 327.67 C 135.77 317.62 130.01 305.53 125.80 293.11 C 121.29 275.64 122.63 257.20 126.76 239.80 C 131.38 221.57 141.03 205.26 150.06 188.96 C 163.19 167.46 181.93 149.57 203.60 136.80 C 210.16 133.00 217.26 130.26 224.30 127.52 Z" />
<path fill="#ffffff" opacity="1.00" d=" M 292.44 157.14 C 308.89 155.18 326.22 155.82 341.52 162.77 C 357.88 169.90 370.31 183.88 378.55 199.41 C 384.63 211.71 388.34 225.26 388.61 239.01 C 388.77 255.37 385.91 271.88 379.48 286.97 C 376.03 295.45 372.01 303.72 367.26 311.54 C 360.41 325.18 351.83 338.15 340.68 348.66 C 329.55 360.43 316.33 370.25 301.88 377.55 C 287.16 384.15 271.90 389.72 256.09 393.05 C 250.18 394.02 243.91 395.20 238.15 392.90 C 236.01 392.41 234.62 390.69 233.39 389.02 C 232.37 385.58 231.57 381.54 233.62 378.31 C 237.09 374.39 242.44 373.23 247.00 371.05 C 264.54 364.32 281.14 354.89 295.08 342.21 C 307.53 330.97 317.76 317.39 325.54 302.56 C 332.92 288.36 339.68 273.18 340.32 256.96 C 340.90 245.93 338.62 234.86 334.24 224.75 C 329.40 213.93 319.74 206.25 309.80 200.32 C 307.79 199.02 305.31 199.22 303.03 199.11 C 297.91 199.05 292.73 198.99 287.67 199.93 C 274.99 202.38 264.29 210.39 254.70 218.64 C 250.84 222.16 247.12 225.86 243.81 229.92 C 230.85 244.18 222.80 262.20 217.74 280.63 C 216.79 284.21 216.32 288.13 214.01 291.16 C 211.72 294.17 207.05 295.32 203.87 293.05 C 200.48 290.93 199.84 286.60 199.62 282.95 C 199.72 267.22 203.76 251.82 209.15 237.14 C 215.62 219.38 224.71 202.40 237.12 188.07 C 251.15 171.73 270.78 159.55 292.44 157.14 Z" />
</svg>
