<?xml version="1.0" encoding="UTF-8" ?>
<!DOCTYPE svg PUBLIC "-//W3C//DTD SVG 1.1//EN" "http://www.w3.org/Graphics/SVG/1.1/DTD/svg11.dtd">
<svg width="512pt" height="512pt" viewBox="0 0 512 512" version="1.1" xmlns="http://www.w3.org/2000/svg">
<path fill="#00a94f" opacity="1.00" d=" M 0.00 0.00 L 512.00 0.00 L 512.00 512.00 L 0.00 512.00 L 0.00 0.00 Z" />
<path fill="#ffffff" opacity="1.00" d=" M 164.39 111.25 C 166.82 110.05 169.16 108.12 172.00 108.20 C 181.01 108.23 190.03 108.25 199.04 108.20 C 205.38 111.87 211.94 115.56 216.79 121.18 C 228.64 134.54 235.50 151.61 239.17 168.91 C 241.04 179.82 242.43 191.08 239.97 202.01 C 238.16 210.95 233.66 219.74 226.07 225.08 C 214.77 233.43 199.34 237.31 185.87 232.17 C 170.67 227.01 160.18 213.57 153.51 199.56 C 148.42 188.26 144.73 176.23 143.47 163.88 C 141.54 149.82 143.14 134.33 151.49 122.43 C 154.63 117.57 159.53 114.21 164.39 111.25 Z" />
<path fill="#ffffff" opacity="1.00" d=" M 253.08 108.18 C 283.39 108.25 313.70 108.21 344.01 108.22 C 359.35 107.84 374.82 113.44 386.20 123.77 C 398.97 135.05 406.37 151.97 406.40 168.97 C 406.37 220.64 406.13 272.32 406.22 324.00 C 406.01 334.31 406.81 344.68 405.38 354.93 C 402.52 371.41 392.75 386.64 378.58 395.65 C 368.37 402.27 356.15 405.88 343.97 405.53 C 320.35 405.52 296.72 405.48 273.09 405.54 C 284.77 393.59 294.25 378.70 296.70 361.92 C 298.97 346.79 296.91 330.48 288.57 317.40 C 282.39 307.25 273.53 299.13 264.63 291.41 C 256.62 284.34 247.80 278.27 239.63 271.40 C 234.60 267.13 230.69 260.84 231.27 254.02 C 231.55 244.81 238.62 237.93 244.99 232.13 C 256.48 223.01 268.06 213.17 275.04 200.01 C 283.89 182.27 284.69 160.91 277.89 142.35 C 273.23 128.79 263.61 117.59 253.08 108.18 Z" />
<path fill="#ffffff" opacity="1.00" d=" M 107.63 205.49 C 113.43 216.99 121.62 227.51 132.40 234.75 C 146.19 244.44 163.31 248.44 179.99 248.22 C 183.94 248.02 187.85 247.30 191.82 247.37 C 187.26 256.00 186.23 266.42 189.19 275.74 C 191.35 283.16 196.17 289.37 200.94 295.30 C 183.01 295.76 165.11 298.24 147.65 302.39 C 133.47 306.22 119.56 311.77 107.54 320.32 C 107.78 282.04 107.45 243.76 107.63 205.49 Z" />
<path fill="#ffffff" opacity="1.00" d=" M 192.14 309.48 C 199.75 308.54 207.45 308.42 215.11 308.76 C 217.44 308.84 219.11 310.73 220.98 311.90 C 233.93 321.45 247.63 330.56 257.73 343.29 C 271.34 360.04 268.68 387.37 252.05 401.14 C 249.62 402.99 247.46 406.17 244.04 405.73 C 219.03 405.66 194.02 405.69 169.01 405.70 C 154.32 405.90 139.70 400.37 128.55 390.85 C 128.41 387.54 125.78 385.16 124.64 382.19 C 121.75 376.60 120.63 370.37 119.90 364.19 C 119.35 350.99 124.79 337.52 135.05 329.01 C 150.83 315.54 172.04 311.33 192.14 309.48 Z" />
</svg>
