<?xml version="1.0" encoding="UTF-8" ?>
<!DOCTYPE svg PUBLIC "-//W3C//DTD SVG 1.1//EN" "http://www.w3.org/Graphics/SVG/1.1/DTD/svg11.dtd">
<svg width="512pt" height="512pt" viewBox="0 0 512 512" version="1.1" xmlns="http://www.w3.org/2000/svg">
<path fill="#d94234" opacity="1.00" d=" M 0.00 0.00 L 512.00 0.00 L 512.00 512.00 L 0.00 512.00 L 0.00 0.00 Z" />
<path fill="#ffffff" opacity="1.00" d=" M 247.23 125.27 C 255.83 125.04 264.59 124.58 273.02 126.72 C 289.27 130.21 303.78 139.87 314.27 152.63 C 325.05 166.19 331.06 183.64 330.20 200.99 C 330.68 211.65 327.62 222.09 323.56 231.83 C 316.47 248.76 305.64 263.70 296.38 279.45 C 278.59 308.79 266.74 341.83 262.99 375.99 C 262.46 379.29 263.08 383.05 260.83 385.85 C 259.19 388.48 255.70 387.50 253.13 387.52 C 250.07 386.55 248.89 383.04 248.81 380.10 C 245.75 344.61 233.78 310.15 215.14 279.85 C 206.64 265.56 197.40 251.68 189.91 236.81 C 180.59 218.01 178.16 195.54 184.63 175.46 C 193.52 148.61 218.94 127.79 247.23 125.27 Z" />
<path fill="#d94234" opacity="1.00" d=" M 248.30 169.20 C 263.42 165.16 280.70 174.34 285.63 189.24 C 287.64 196.15 287.97 203.73 285.38 210.55 C 282.26 219.01 275.41 226.09 266.91 229.19 C 261.61 231.32 255.76 230.80 250.19 230.56 C 235.69 228.49 224.16 214.59 224.51 199.98 C 223.88 185.78 234.42 172.20 248.30 169.20 Z" />
</svg>
