<?xml version="1.0" encoding="UTF-8" ?>
<!DOCTYPE svg PUBLIC "-//W3C//DTD SVG 1.1//EN" "http://www.w3.org/Graphics/SVG/1.1/DTD/svg11.dtd">
<svg width="512pt" height="512pt" viewBox="0 0 512 512" version="1.1" xmlns="http://www.w3.org/2000/svg">
<path fill="#ffc100" opacity="1.00" d=" M 0.00 0.00 L 512.00 0.00 L 512.00 512.00 L 0.00 512.00 L 0.00 0.00 Z" />
<path fill="#ffffff" opacity="1.00" d=" M 122.69 144.04 C 121.88 133.73 130.59 123.33 140.97 122.72 C 201.65 122.72 262.33 122.71 323.00 122.72 C 345.21 144.74 367.23 166.96 389.25 189.17 C 389.30 249.10 389.24 309.03 389.28 368.96 C 388.25 379.30 379.30 387.92 369.07 389.21 C 293.72 389.24 218.36 389.17 143.01 389.24 C 132.76 388.30 122.76 379.82 122.71 369.04 C 122.71 294.04 122.75 219.04 122.69 144.04 Z" />
<path fill="#ffc100" opacity="1.00" d=" M 201.49 198.37 C 216.14 184.19 236.69 176.60 257.01 177.18 C 277.12 177.09 296.67 185.70 311.18 199.44 C 309.18 202.30 306.50 204.56 304.08 207.03 C 288.60 222.56 273.05 238.01 257.59 253.57 C 256.78 254.50 255.65 255.29 254.53 254.30 C 240.78 246.84 227.33 238.83 213.65 231.23 C 213.61 234.80 213.28 238.39 213.57 241.96 C 213.75 245.18 216.49 247.22 218.44 249.46 C 230.91 263.56 242.76 278.23 255.79 291.83 C 278.41 266.44 300.45 240.53 322.85 214.93 C 324.27 216.59 325.43 218.45 326.27 220.47 C 340.21 249.92 334.81 288.19 311.27 311.21 C 291.66 331.35 260.82 338.33 234.01 331.02 C 213.27 325.44 195.46 310.50 185.74 291.43 C 178.37 277.23 176.29 260.77 177.91 245.00 C 179.96 227.32 188.48 210.50 201.49 198.37 Z" />
</svg>
