<?xml version="1.0" encoding="UTF-8" ?>
<!DOCTYPE svg PUBLIC "-//W3C//DTD SVG 1.1//EN" "http://www.w3.org/Graphics/SVG/1.1/DTD/svg11.dtd">
<svg width="512pt" height="512pt" viewBox="0 0 512 512" version="1.1" xmlns="http://www.w3.org/2000/svg">
<path fill="#15aa64" opacity="1.00" d=" M 0.00 0.00 L 512.00 0.00 L 512.00 512.00 L 0.00 512.00 L 0.00 0.00 Z" />
<path fill="#ffffff" opacity="1.00" d=" M 210.19 127.64 C 243.16 127.57 276.13 127.65 309.11 127.59 C 340.83 181.11 372.12 234.89 403.91 288.37 C 370.88 288.42 337.86 288.33 304.83 288.40 C 273.16 234.89 241.83 181.17 210.19 127.64 Z" />
<path fill="#ffffff" opacity="1.00" d=" M 106.45 294.21 C 138.20 240.89 169.47 187.26 201.00 133.80 C 217.36 161.88 233.86 189.87 250.39 217.83 C 218.92 271.55 187.76 325.45 156.13 379.07 C 139.81 350.65 122.80 322.61 106.45 294.21 Z" />
<path fill="#ffffff" opacity="1.00" d=" M 215.83 299.27 C 278.75 299.34 341.69 299.14 404.62 299.38 C 393.27 318.15 382.33 337.18 371.13 356.04 C 365.61 365.14 360.55 374.66 354.71 383.48 C 292.02 383.55 229.32 383.49 166.62 383.51 C 183.04 355.44 199.40 327.33 215.83 299.27 Z" />
</svg>
