<?xml version="1.0" encoding="UTF-8" ?>
<!DOCTYPE svg PUBLIC "-//W3C//DTD SVG 1.1//EN" "http://www.w3.org/Graphics/SVG/1.1/DTD/svg11.dtd">
<svg width="512pt" height="512pt" viewBox="0 0 512 512" version="1.1" xmlns="http://www.w3.org/2000/svg">
<path fill="#4679c7" opacity="1.00" d=" M 0.00 0.00 L 512.00 0.00 L 512.00 512.00 L 0.00 512.00 L 0.00 0.00 Z" />
<path fill="#ffffff" opacity="1.00" d=" M 145.66 145.72 C 158.18 145.74 170.70 145.71 183.21 145.74 C 192.95 195.91 202.17 246.19 212.02 296.33 C 216.65 276.38 220.19 256.16 224.10 236.05 C 229.88 205.94 235.31 175.75 241.51 145.72 C 251.62 145.73 261.72 145.73 271.83 145.72 C 281.70 196.08 290.35 246.69 301.03 296.89 C 310.61 256.82 319.24 216.51 328.43 176.34 C 316.43 176.31 304.43 176.31 292.44 176.34 C 292.42 166.13 292.44 155.93 292.43 145.72 C 317.41 145.73 342.38 145.73 367.36 145.73 C 367.33 147.21 367.18 148.68 366.92 150.14 C 349.60 222.42 333.18 294.92 316.11 367.27 C 305.92 367.29 295.73 367.24 285.54 367.30 C 278.06 330.24 270.91 293.11 263.40 256.06 C 261.32 245.12 258.62 234.30 256.86 223.31 C 255.62 225.87 255.24 228.70 254.68 231.46 C 245.23 276.68 236.80 322.09 227.21 367.28 C 217.10 367.27 206.99 367.28 196.89 367.27 C 180.45 297.55 164.76 227.66 147.89 158.04 C 146.98 153.97 145.51 149.96 145.66 145.72 Z" />
</svg>
