<?xml version="1.0" encoding="UTF-8" ?>
<!DOCTYPE svg PUBLIC "-//W3C//DTD SVG 1.1//EN" "http://www.w3.org/Graphics/SVG/1.1/DTD/svg11.dtd">
<svg width="512pt" height="512pt" viewBox="0 0 512 512" version="1.1" xmlns="http://www.w3.org/2000/svg">
<path fill="#3447b8" opacity="1.00" d=" M 0.00 0.00 L 512.00 0.00 L 512.00 512.00 L 0.00 512.00 L 0.00 0.00 M 197.00 135.84 C 185.38 137.51 174.57 142.91 165.47 150.21 C 165.55 189.82 165.41 229.42 165.54 269.03 C 175.42 260.87 187.70 255.31 200.54 254.31 C 208.76 253.26 217.10 254.50 225.14 256.27 C 242.35 260.09 258.09 268.31 274.24 275.07 C 274.26 235.57 274.13 196.07 274.30 156.57 C 265.34 152.10 256.11 148.14 246.84 144.33 C 231.13 138.01 214.04 133.36 197.00 135.84 M 136.62 138.80 C 136.58 218.13 136.63 297.46 136.60 376.79 C 143.27 376.83 149.94 376.82 156.62 376.80 C 156.53 297.46 156.69 218.11 156.54 138.77 C 149.90 138.82 143.26 138.77 136.62 138.80 M 370.00 154.93 C 361.08 162.13 350.44 167.41 339.06 169.22 C 319.98 171.97 300.93 166.23 283.64 158.57 C 283.61 198.20 283.73 237.83 283.58 277.47 C 299.13 284.26 315.90 289.76 333.09 288.74 C 347.83 288.14 361.70 281.27 372.71 271.72 C 373.71 270.71 375.49 269.87 375.14 268.14 C 375.09 229.07 375.18 190.00 375.09 150.94 C 373.26 152.09 371.62 153.51 370.00 154.93 Z" />
<path fill="#ffffff" opacity="1.00" d=" M 197.00 135.84 C 214.04 133.36 231.13 138.01 246.84 144.33 C 256.11 148.14 265.34 152.10 274.30 156.57 C 274.13 196.07 274.26 235.57 274.24 275.07 C 258.09 268.31 242.35 260.09 225.14 256.27 C 217.10 254.50 208.76 253.26 200.54 254.31 C 187.70 255.31 175.42 260.87 165.54 269.03 C 165.41 229.42 165.55 189.82 165.47 150.21 C 174.57 142.91 185.38 137.51 197.00 135.84 Z" />
<path fill="#ffffff" opacity="1.00" d=" M 136.62 138.80 C 143.26 138.77 149.90 138.82 156.54 138.77 C 156.69 218.11 156.53 297.46 156.62 376.80 C 149.94 376.82 143.27 376.83 136.60 376.79 C 136.63 297.46 136.58 218.13 136.62 138.80 Z" />
<path fill="#ffffff" opacity="1.00" d=" M 370.00 154.93 C 371.62 153.51 373.26 152.09 375.09 150.94 C 375.18 190.00 375.09 229.07 375.14 268.14 C 375.49 269.87 373.71 270.71 372.71 271.72 C 361.70 281.27 347.83 288.14 333.09 288.74 C 315.90 289.76 299.13 284.26 283.58 277.47 C 283.73 237.83 283.61 198.20 283.64 158.57 C 300.93 166.23 319.98 171.97 339.06 169.22 C 350.44 167.41 361.08 162.13 370.00 154.93 Z" />
</svg>
