<?xml version="1.0" encoding="UTF-8" ?>
<!DOCTYPE svg PUBLIC "-//W3C//DTD SVG 1.1//EN" "http://www.w3.org/Graphics/SVG/1.1/DTD/svg11.dtd">
<svg width="512pt" height="512pt" viewBox="0 0 512 512" version="1.1" xmlns="http://www.w3.org/2000/svg">
<path fill="#e10052" opacity="1.00" d=" M 0.00 0.00 L 512.00 0.00 L 512.00 512.00 L 0.00 512.00 L 0.00 0.00 M 127.39 137.44 C 126.16 138.17 124.93 139.37 125.11 140.94 C 125.07 199.65 125.13 258.37 125.09 317.09 C 124.60 319.83 127.30 322.23 129.97 321.80 C 213.99 321.78 298.01 321.83 382.04 321.77 C 384.11 321.97 386.18 320.21 386.04 318.08 C 386.07 259.04 386.07 199.99 386.05 140.95 C 386.28 138.79 384.24 136.76 382.09 137.02 C 299.39 136.98 216.68 137.03 133.98 136.99 C 131.80 137.12 129.44 136.55 127.39 137.44 M 229.22 325.12 C 229.20 336.52 229.19 347.93 229.23 359.35 C 246.72 359.34 264.21 359.22 281.70 359.41 C 282.09 347.98 281.76 336.48 281.81 325.03 C 264.29 325.10 246.75 325.14 229.22 325.12 M 197.81 344.48 C 195.98 354.89 192.22 364.85 190.43 375.25 C 233.82 375.26 277.22 375.24 320.61 375.27 C 318.14 365.10 315.77 354.90 313.17 344.78 C 312.91 344.56 312.37 344.13 312.10 343.91 C 303.88 343.61 295.65 344.10 287.43 343.79 C 288.17 350.14 290.39 356.21 291.76 362.45 C 267.51 362.44 243.26 362.47 219.01 362.43 C 220.53 356.23 222.33 350.09 223.60 343.83 C 218.05 343.66 212.52 344.20 206.98 343.84 C 203.92 343.84 200.76 343.48 197.81 344.48 Z" />
<path fill="#ffffff" opacity="1.00" d=" M 127.39 137.44 C 129.44 136.55 131.80 137.12 133.98 136.99 C 216.68 137.03 299.39 136.98 382.09 137.02 C 384.24 136.76 386.28 138.79 386.05 140.95 C 386.07 199.99 386.07 259.04 386.04 318.08 C 386.18 320.21 384.11 321.97 382.04 321.77 C 298.01 321.83 213.99 321.78 129.97 321.80 C 127.30 322.23 124.60 319.83 125.09 317.09 C 125.13 258.37 125.07 199.65 125.11 140.94 C 124.93 139.37 126.16 138.17 127.39 137.44 M 133.47 293.38 C 215.05 293.35 296.63 293.48 378.20 293.32 C 378.27 244.05 378.05 194.77 378.32 145.50 C 376.92 145.00 375.47 144.71 373.99 144.81 C 319.99 144.93 265.99 144.71 211.99 144.91 C 185.87 144.70 159.74 144.96 133.62 144.78 C 133.29 194.31 133.59 243.85 133.47 293.38 Z" />
<path fill="#e10052" opacity="1.00" d=" M 133.47 293.38 C 133.59 243.85 133.29 194.31 133.62 144.78 C 159.74 144.96 185.87 144.70 211.99 144.91 C 265.99 144.71 319.99 144.93 373.99 144.81 C 375.47 144.71 376.92 145.00 378.32 145.50 C 378.05 194.77 378.27 244.05 378.20 293.32 C 296.63 293.48 215.05 293.35 133.47 293.38 M 242.79 169.84 C 228.97 174.58 215.21 179.53 201.30 183.98 C 201.32 184.25 201.37 184.78 201.40 185.05 C 221.35 190.90 240.97 197.90 260.88 203.92 C 275.57 194.84 290.11 185.55 304.93 176.70 C 288.01 173.56 271.02 170.77 254.09 167.70 C 250.14 166.51 246.45 168.71 242.79 169.84 M 262.73 207.24 C 262.70 229.78 262.66 252.33 262.76 274.87 C 274.98 261.46 287.17 248.02 299.37 234.60 C 301.90 216.27 304.72 197.98 306.95 179.61 C 292.41 189.13 277.49 198.06 262.73 207.24 M 198.34 187.82 C 203.49 205.91 208.64 223.99 213.73 242.09 C 225.60 250.61 237.59 258.96 249.49 267.44 C 252.69 269.73 255.75 272.22 259.19 274.15 C 259.34 251.98 259.13 229.81 259.30 207.65 C 239.13 200.62 218.61 194.56 198.34 187.82 Z" />
<path fill="#ffffff" opacity="1.00" d=" M 242.79 169.84 C 246.45 168.71 250.14 166.51 254.09 167.70 C 271.02 170.77 288.01 173.56 304.93 176.70 C 290.11 185.55 275.57 194.84 260.88 203.92 C 240.97 197.90 221.35 190.90 201.40 185.05 C 201.37 184.78 201.32 184.25 201.30 183.98 C 215.21 179.53 228.97 174.58 242.79 169.84 Z" />
<path fill="#ffffff" opacity="1.00" d=" M 262.73 207.24 C 277.49 198.06 292.41 189.13 306.95 179.61 C 304.72 197.98 301.90 216.27 299.37 234.60 C 287.17 248.02 274.98 261.46 262.76 274.87 C 262.66 252.33 262.70 229.78 262.73 207.24 Z" />
<path fill="#ffffff" opacity="1.00" d=" M 198.34 187.82 C 218.61 194.56 239.13 200.62 259.30 207.65 C 259.13 229.81 259.34 251.98 259.19 274.15 C 255.75 272.22 252.69 269.73 249.49 267.44 C 237.59 258.96 225.60 250.61 213.73 242.09 C 208.64 223.99 203.49 205.91 198.34 187.82 Z" />
<path fill="#ffffff" opacity="1.00" d=" M 229.22 325.12 C 246.75 325.14 264.29 325.10 281.81 325.03 C 281.76 336.48 282.09 347.98 281.70 359.41 C 264.21 359.22 246.72 359.34 229.23 359.35 C 229.19 347.93 229.20 336.52 229.22 325.12 Z" />
<path fill="#ffffff" opacity="1.00" d=" M 197.81 344.48 C 200.76 343.48 203.92 343.84 206.98 343.84 C 212.52 344.20 218.05 343.66 223.60 343.83 C 222.33 350.09 220.53 356.23 219.01 362.43 C 243.26 362.47 267.51 362.44 291.76 362.45 C 290.39 356.21 288.17 350.14 287.43 343.79 C 295.65 344.10 303.88 343.61 312.10 343.91 C 312.37 344.13 312.91 344.56 313.17 344.78 C 315.77 354.90 318.14 365.10 320.61 375.27 C 277.22 375.24 233.82 375.26 190.43 375.25 C 192.22 364.85 195.98 354.89 197.81 344.48 Z" />
</svg>
