<?xml version="1.0" encoding="UTF-8" ?>
<!DOCTYPE svg PUBLIC "-//W3C//DTD SVG 1.1//EN" "http://www.w3.org/Graphics/SVG/1.1/DTD/svg11.dtd">
<svg width="512pt" height="512pt" viewBox="0 0 512 512" version="1.1" xmlns="http://www.w3.org/2000/svg">
<path fill="#5d8ab6" opacity="1.00" d=" M 0.00 0.00 L 512.00 0.00 L 512.00 512.00 L 0.00 512.00 L 0.00 0.00 M 147.49 190.78 C 122.18 194.11 99.99 213.56 93.35 238.19 C 91.18 246.94 89.31 256.14 91.48 265.09 C 93.39 278.55 99.46 291.40 108.88 301.23 C 121.13 314.33 138.99 322.22 156.99 321.77 C 223.67 321.75 290.36 321.78 357.04 321.76 C 378.88 321.34 399.83 308.69 410.94 289.96 C 417.53 278.87 421.00 265.82 420.61 252.92 C 419.34 238.81 414.39 224.79 405.11 213.92 C 392.97 199.18 374.12 190.06 354.97 190.24 C 288.96 190.23 222.95 190.24 156.95 190.23 C 153.79 190.24 150.62 190.29 147.49 190.78 Z" />
<path fill="#ffffff" opacity="1.00" d=" M 147.49 190.78 C 150.62 190.29 153.79 190.24 156.95 190.23 C 222.95 190.24 288.96 190.23 354.97 190.24 C 374.12 190.06 392.97 199.18 405.11 213.92 C 414.39 224.79 419.34 238.81 420.61 252.92 C 421.00 265.82 417.53 278.87 410.94 289.96 C 399.83 308.69 378.88 321.34 357.04 321.76 C 290.36 321.78 223.67 321.75 156.99 321.77 C 138.99 322.22 121.13 314.33 108.88 301.23 C 99.46 291.40 93.39 278.55 91.48 265.09 C 89.31 256.14 91.18 246.94 93.35 238.19 C 99.99 213.56 122.18 194.11 147.49 190.78 M 178.35 211.43 C 159.95 213.36 143.81 227.93 139.88 245.98 C 137.27 256.85 139.07 268.66 144.69 278.30 C 152.47 292.10 168.04 301.41 183.98 300.81 C 196.24 301.10 208.30 295.48 216.56 286.54 C 224.94 277.64 229.35 265.20 228.49 253.01 C 227.60 238.28 218.83 224.39 206.02 217.10 C 197.74 212.16 187.88 210.44 178.35 211.43 M 255.73 215.68 C 255.71 224.61 255.77 233.54 255.70 242.47 C 288.61 242.61 321.53 242.53 354.44 242.51 C 354.38 233.56 354.43 224.62 354.41 215.67 C 321.52 215.68 288.62 215.66 255.73 215.68 M 255.71 269.50 C 255.75 278.44 255.71 287.38 255.73 296.32 C 288.62 296.34 321.52 296.32 354.41 296.33 C 354.44 287.38 354.37 278.44 354.44 269.49 C 321.53 269.45 288.62 269.44 255.71 269.50 Z" />
<path fill="#5d8ab6" opacity="1.00" d=" M 178.35 211.43 C 187.88 210.44 197.74 212.16 206.02 217.10 C 218.83 224.39 227.60 238.28 228.49 253.01 C 229.35 265.20 224.94 277.64 216.56 286.54 C 208.30 295.48 196.24 301.10 183.98 300.81 C 168.04 301.41 152.47 292.10 144.69 278.30 C 139.07 268.66 137.27 256.85 139.88 245.98 C 143.81 227.93 159.95 213.36 178.35 211.43 Z" />
<path fill="#5d8ab6" opacity="1.00" d=" M 255.73 215.68 C 288.62 215.66 321.52 215.68 354.41 215.67 C 354.43 224.62 354.38 233.56 354.44 242.51 C 321.53 242.53 288.61 242.61 255.70 242.47 C 255.77 233.54 255.71 224.61 255.73 215.68 Z" />
<path fill="#5d8ab6" opacity="1.00" d=" M 255.71 269.50 C 288.62 269.44 321.53 269.45 354.44 269.49 C 354.37 278.44 354.44 287.38 354.41 296.33 C 321.52 296.32 288.62 296.34 255.73 296.32 C 255.71 287.38 255.75 278.44 255.71 269.50 Z" />
</svg>
