<?xml version="1.0" encoding="UTF-8" ?>
<!DOCTYPE svg PUBLIC "-//W3C//DTD SVG 1.1//EN" "http://www.w3.org/Graphics/SVG/1.1/DTD/svg11.dtd">
<svg width="512pt" height="512pt" viewBox="0 0 512 512" version="1.1" xmlns="http://www.w3.org/2000/svg">
<path fill="#209efe" opacity="1.00" d=" M 0.00 0.00 L 512.00 0.00 L 512.00 512.00 L 0.00 512.00 L 0.00 0.00 M 144.20 172.32 C 125.25 174.11 107.86 186.40 99.27 203.31 C 92.63 216.01 91.10 231.21 94.92 245.01 C 99.04 260.40 109.88 273.82 124.06 281.09 C 136.51 287.67 151.39 289.32 165.01 285.84 C 179.26 282.28 191.93 273.00 199.72 260.56 C 207.31 248.70 210.17 234.02 207.84 220.16 C 205.19 204.04 195.34 189.25 181.42 180.67 C 170.46 173.67 157.09 170.89 144.20 172.32 M 244.18 179.20 C 244.21 188.92 244.21 198.64 244.18 208.36 C 285.65 208.43 327.13 208.31 368.61 208.43 C 368.74 198.68 368.59 188.94 368.69 179.19 C 327.18 179.18 285.68 179.17 244.18 179.20 M 375.80 179.22 C 375.80 188.93 375.81 198.64 375.80 208.36 C 390.82 208.41 405.84 208.38 420.86 208.37 C 420.82 198.65 420.81 188.92 420.87 179.20 C 405.85 179.19 390.82 179.15 375.80 179.22 M 244.17 235.80 C 244.21 245.54 244.20 255.29 244.18 265.03 C 275.91 265.39 307.67 265.08 339.41 265.19 C 339.46 255.37 339.43 245.55 339.42 235.73 C 307.67 235.78 275.92 235.64 244.17 235.80 M 346.61 235.74 C 346.60 245.56 346.54 255.37 346.64 265.19 C 371.36 265.18 396.07 265.18 420.78 265.19 C 420.90 255.38 420.81 245.56 420.83 235.74 C 396.09 235.72 371.35 235.73 346.61 235.74 M 244.16 292.55 C 244.23 302.26 244.21 311.97 244.17 321.69 C 292.99 321.72 341.82 321.69 390.64 321.70 C 390.57 311.95 390.69 302.20 390.58 292.46 C 341.78 292.62 292.97 292.44 244.16 292.55 M 397.82 292.54 C 397.86 302.26 397.78 311.98 397.86 321.70 C 405.53 321.70 413.20 321.71 420.87 321.69 C 420.82 311.97 420.79 302.26 420.89 292.54 C 413.20 292.50 405.51 292.51 397.82 292.54 M 98.39 318.61 C 94.24 320.18 90.91 324.38 91.18 328.95 C 90.70 335.24 96.83 340.81 103.03 340.06 C 110.21 339.92 115.54 331.53 112.53 324.99 C 110.54 319.52 103.82 316.47 98.39 318.61 M 148.25 318.30 C 141.76 319.60 137.63 327.61 140.71 333.58 C 142.88 338.86 149.33 341.37 154.63 339.51 C 161.55 337.40 164.29 327.86 159.70 322.35 C 157.14 318.75 152.47 317.38 148.25 318.30 M 195.42 318.64 C 191.31 320.27 188.02 324.43 188.24 328.98 C 187.86 335.60 194.62 341.32 201.11 339.96 C 208.11 339.20 212.68 330.62 209.36 324.39 C 207.18 319.09 200.67 316.80 195.42 318.64 Z" />
<path fill="#ffffff" opacity="1.00" d=" M 144.20 172.32 C 157.09 170.89 170.46 173.67 181.42 180.67 C 195.34 189.25 205.19 204.04 207.84 220.16 C 210.17 234.02 207.31 248.70 199.72 260.56 C 191.93 273.00 179.26 282.28 165.01 285.84 C 151.39 289.32 136.51 287.67 124.06 281.09 C 109.88 273.82 99.04 260.40 94.92 245.01 C 91.10 231.21 92.63 216.01 99.27 203.31 C 107.86 186.40 125.25 174.11 144.20 172.32 M 124.54 189.57 C 113.99 196.51 106.19 207.66 103.74 220.09 C 100.90 232.90 103.98 246.79 111.58 257.42 C 120.36 270.04 135.55 278.03 150.96 277.70 C 163.47 277.83 175.88 272.56 184.62 263.65 C 192.68 255.75 197.73 244.90 198.61 233.65 C 183.82 233.60 169.03 233.79 154.24 233.56 L 153.90 233.19 C 153.76 216.09 153.96 198.98 153.90 181.88 C 143.64 181.13 133.12 183.88 124.54 189.57 Z" />
<path fill="#ffffff" opacity="1.00" d=" M 244.18 179.20 C 285.68 179.17 327.18 179.18 368.69 179.19 C 368.59 188.94 368.74 198.68 368.61 208.43 C 327.13 208.31 285.65 208.43 244.18 208.36 C 244.21 198.64 244.21 188.92 244.18 179.20 Z" />
<path fill="#ffffff" opacity="1.00" d=" M 375.80 179.22 C 390.82 179.15 405.85 179.19 420.87 179.20 C 420.81 188.92 420.82 198.65 420.86 208.37 C 405.84 208.38 390.82 208.41 375.80 208.36 C 375.81 198.64 375.80 188.93 375.80 179.22 Z" />
<path fill="#209efe" opacity="1.00" d=" M 124.54 189.57 C 133.12 183.88 143.64 181.13 153.90 181.88 C 153.96 198.98 153.76 216.09 153.90 233.19 L 154.24 233.56 C 169.03 233.79 183.82 233.60 198.61 233.65 C 197.73 244.90 192.68 255.75 184.62 263.65 C 175.88 272.56 163.47 277.83 150.96 277.70 C 135.55 278.03 120.36 270.04 111.58 257.42 C 103.98 246.79 100.90 232.90 103.74 220.09 C 106.19 207.66 113.99 196.51 124.54 189.57 Z" />
<path fill="#ffffff" opacity="1.00" d=" M 244.17 235.80 C 275.92 235.64 307.67 235.78 339.42 235.73 C 339.43 245.55 339.46 255.37 339.41 265.19 C 307.67 265.08 275.91 265.39 244.18 265.03 C 244.20 255.29 244.21 245.54 244.17 235.80 Z" />
<path fill="#ffffff" opacity="1.00" d=" M 346.61 235.74 C 371.35 235.73 396.09 235.72 420.83 235.74 C 420.81 245.56 420.90 255.38 420.78 265.19 C 396.07 265.18 371.36 265.18 346.64 265.19 C 346.54 255.37 346.60 245.56 346.61 235.74 Z" />
<path fill="#ffffff" opacity="1.00" d=" M 244.16 292.55 C 292.97 292.44 341.78 292.62 390.58 292.46 C 390.69 302.20 390.57 311.95 390.64 321.70 C 341.82 321.69 292.99 321.72 244.17 321.69 C 244.21 311.97 244.23 302.26 244.16 292.55 Z" />
<path fill="#ffffff" opacity="1.00" d=" M 397.82 292.54 C 405.51 292.51 413.20 292.50 420.89 292.54 C 420.79 302.26 420.82 311.97 420.87 321.69 C 413.20 321.71 405.53 321.70 397.86 321.70 C 397.78 311.98 397.86 302.26 397.82 292.54 Z" />
<path fill="#ffffff" opacity="1.00" d=" M 98.39 318.61 C 103.82 316.47 110.54 319.52 112.53 324.99 C 115.54 331.53 110.21 339.92 103.03 340.06 C 96.83 340.81 90.70 335.24 91.18 328.95 C 90.91 324.38 94.24 320.18 98.39 318.61 M 99.36 324.31 C 95.78 326.19 95.71 331.78 99.24 333.75 C 102.64 336.22 108.08 333.22 107.67 329.01 C 108.02 324.92 102.69 321.90 99.36 324.31 Z" />
<path fill="#ffffff" opacity="1.00" d=" M 148.25 318.30 C 152.47 317.38 157.14 318.75 159.70 322.35 C 164.29 327.86 161.55 337.40 154.63 339.51 C 149.33 341.37 142.88 338.86 140.71 333.58 C 137.63 327.61 141.76 319.60 148.25 318.30 M 148.16 324.21 C 144.73 325.90 144.29 331.31 147.50 333.45 C 150.54 336.10 155.81 333.97 156.42 330.04 C 157.40 325.69 151.95 321.74 148.16 324.21 Z" />
<path fill="#ffffff" opacity="1.00" d=" M 195.42 318.64 C 200.67 316.80 207.18 319.09 209.36 324.39 C 212.68 330.62 208.11 339.20 201.11 339.96 C 194.62 341.32 187.86 335.60 188.24 328.98 C 188.02 324.43 191.31 320.27 195.42 318.64 M 196.36 324.40 C 192.86 326.35 192.84 331.76 196.33 333.72 C 199.74 336.29 205.15 333.18 204.79 328.97 C 205.04 324.85 199.65 321.81 196.36 324.40 Z" />
<path fill="#209efe" opacity="1.00" d=" M 99.36 324.31 C 102.69 321.90 108.02 324.92 107.67 329.01 C 108.08 333.22 102.64 336.22 99.24 333.75 C 95.71 331.78 95.78 326.19 99.36 324.31 Z" />
<path fill="#209efe" opacity="1.00" d=" M 148.16 324.21 C 151.95 321.74 157.40 325.69 156.42 330.04 C 155.81 333.97 150.54 336.10 147.50 333.45 C 144.29 331.31 144.73 325.90 148.16 324.21 Z" />
<path fill="#209efe" opacity="1.00" d=" M 196.36 324.40 C 199.65 321.81 205.04 324.85 204.79 328.97 C 205.15 333.18 199.74 336.29 196.33 333.72 C 192.84 331.76 192.86 326.35 196.36 324.40 Z" />
</svg>
