<?xml version="1.0" encoding="UTF-8" ?>
<!DOCTYPE svg PUBLIC "-//W3C//DTD SVG 1.1//EN" "http://www.w3.org/Graphics/SVG/1.1/DTD/svg11.dtd">
<svg width="512pt" height="512pt" viewBox="0 0 512 512" version="1.1" xmlns="http://www.w3.org/2000/svg">
<path fill="#209efe" opacity="1.00" d=" M 0.00 0.00 L 512.00 0.00 L 512.00 512.00 L 0.00 512.00 L 0.00 0.00 M 246.26 122.32 C 218.18 124.07 190.83 135.24 169.34 153.35 C 146.31 172.49 130.07 199.57 124.00 228.89 C 119.17 252.36 120.50 277.17 128.34 299.86 C 138.39 329.66 159.37 355.58 186.36 371.71 C 208.98 385.45 235.76 392.10 262.18 390.75 C 293.28 389.43 323.68 376.67 346.53 355.57 C 367.68 336.31 382.33 310.10 387.73 282.01 C 391.99 259.39 390.56 235.65 383.24 213.80 C 372.62 181.79 349.45 154.20 319.75 138.22 C 297.44 125.95 271.61 120.60 246.26 122.32 Z" />
<path fill="#ffffff" opacity="1.00" d=" M 246.26 122.32 C 271.61 120.60 297.44 125.95 319.75 138.22 C 349.45 154.20 372.62 181.79 383.24 213.80 C 390.56 235.65 391.99 259.39 387.73 282.01 C 382.33 310.10 367.68 336.31 346.53 355.57 C 323.68 376.67 293.28 389.43 262.18 390.75 C 235.76 392.10 208.98 385.45 186.36 371.71 C 159.37 355.58 138.39 329.66 128.34 299.86 C 120.50 277.17 119.17 252.36 124.00 228.89 C 130.07 199.57 146.31 172.49 169.34 153.35 C 190.83 135.24 218.18 124.07 246.26 122.32 M 211.77 153.91 C 185.55 165.17 164.01 186.83 152.89 213.10 C 144.71 232.20 142.37 253.59 145.53 274.08 C 150.36 305.64 169.77 334.48 196.93 351.18 C 216.43 363.62 240.05 369.37 263.08 367.69 C 292.38 366.14 320.52 351.79 339.69 329.70 C 355.23 311.98 365.00 289.27 366.85 265.75 C 332.30 265.69 297.75 265.74 263.20 265.72 C 263.27 225.62 263.12 185.52 263.28 145.43 C 245.78 143.76 227.91 147.06 211.77 153.91 Z" />
<path fill="#209efe" opacity="1.00" d=" M 211.77 153.91 C 227.91 147.06 245.78 143.76 263.28 145.43 C 263.12 185.52 263.27 225.62 263.20 265.72 C 297.75 265.74 332.30 265.69 366.85 265.75 C 365.00 289.27 355.23 311.98 339.69 329.70 C 320.52 351.79 292.38 366.14 263.08 367.69 C 240.05 369.37 216.43 363.62 196.93 351.18 C 169.77 334.48 150.36 305.64 145.53 274.08 C 142.37 253.59 144.71 232.20 152.89 213.10 C 164.01 186.83 185.55 165.17 211.77 153.91 Z" />
</svg>
