<?xml version="1.0" encoding="UTF-8" ?>
<!DOCTYPE svg PUBLIC "-//W3C//DTD SVG 1.1//EN" "http://www.w3.org/Graphics/SVG/1.1/DTD/svg11.dtd">
<svg width="512pt" height="512pt" viewBox="0 0 512 512" version="1.1" xmlns="http://www.w3.org/2000/svg">
<path fill="#ef9c00" opacity="1.00" d=" M 0.00 0.00 L 512.00 0.00 L 512.00 512.00 L 0.00 512.00 L 0.00 0.00 M 128.17 137.23 C 126.15 137.83 124.88 139.86 125.14 141.94 C 125.12 197.63 125.15 253.33 125.13 309.02 C 125.18 312.29 124.89 315.59 125.34 318.85 C 125.85 320.85 127.98 321.91 129.94 321.69 C 213.97 321.68 298.00 321.74 382.02 321.66 C 385.17 322.07 386.43 318.64 386.06 316.05 C 386.03 258.01 386.09 199.96 386.03 141.92 C 386.53 138.98 384.00 136.55 381.09 137.00 C 300.74 137.03 220.37 137.02 140.01 137.01 C 136.06 137.05 132.09 136.68 128.17 137.23 M 229.34 325.26 C 229.39 336.57 229.31 347.89 229.38 359.21 C 246.82 359.17 264.25 359.17 281.69 359.21 C 281.76 347.89 281.68 336.57 281.73 325.26 C 264.27 325.28 246.81 325.29 229.34 325.26 M 198.20 344.27 C 195.84 354.61 192.79 364.78 190.44 375.13 C 233.79 375.14 277.14 375.12 320.49 375.14 C 317.85 364.90 315.43 354.60 312.99 344.31 C 304.43 344.19 295.87 344.20 287.32 344.30 C 288.92 350.39 290.46 356.49 291.95 362.61 C 267.55 362.63 243.15 362.60 218.75 362.62 C 220.46 356.54 221.78 350.35 223.51 344.27 C 215.08 344.21 206.64 344.23 198.20 344.27 Z" />
<path fill="#ffffff" opacity="1.00" d=" M 128.17 137.23 C 132.09 136.68 136.06 137.05 140.01 137.01 C 220.37 137.02 300.74 137.03 381.09 137.00 C 384.00 136.55 386.53 138.98 386.03 141.92 C 386.09 199.96 386.03 258.01 386.06 316.05 C 386.43 318.64 385.17 322.07 382.02 321.66 C 298.00 321.74 213.97 321.68 129.94 321.69 C 127.98 321.91 125.85 320.85 125.34 318.85 C 124.89 315.59 125.18 312.29 125.13 309.02 C 125.15 253.33 125.12 197.63 125.14 141.94 C 124.88 139.86 126.15 137.83 128.17 137.23 M 133.34 293.41 C 214.98 293.40 296.62 293.46 378.26 293.38 C 378.24 243.85 378.26 194.33 378.25 144.80 C 296.63 144.76 215.01 144.81 133.39 144.78 C 133.30 194.32 133.40 243.86 133.34 293.41 Z" />
<path fill="#ef9c00" opacity="1.00" d=" M 133.34 293.41 C 133.40 243.86 133.30 194.32 133.39 144.78 C 215.01 144.81 296.63 144.76 378.25 144.80 C 378.26 194.33 378.24 243.85 378.26 293.38 C 296.62 293.46 214.98 293.40 133.34 293.41 M 330.46 149.77 C 324.80 150.84 319.43 153.28 314.88 156.81 C 303.42 165.41 297.85 181.04 301.37 194.94 C 304.23 207.38 313.96 217.91 326.13 221.75 C 340.44 226.72 357.38 221.49 366.68 209.62 C 374.82 199.73 377.02 185.50 372.60 173.53 C 369.03 163.59 361.00 155.39 351.15 151.60 C 344.61 149.01 337.35 148.59 330.46 149.77 M 138.37 150.47 C 136.84 151.38 137.29 153.49 137.12 154.99 C 137.31 171.66 137.10 188.34 137.27 205.01 C 137.35 210.65 142.37 215.53 147.98 215.57 C 162.68 215.64 177.38 215.60 192.08 215.59 C 198.20 215.73 203.40 210.11 203.19 204.07 C 203.25 187.36 203.19 170.65 203.27 153.95 C 203.74 151.45 201.53 149.46 199.11 149.80 C 180.41 149.73 161.71 149.83 143.01 149.75 C 141.46 149.84 139.76 149.63 138.37 150.47 M 219.77 215.19 C 219.79 220.01 219.79 224.83 219.76 229.66 C 244.24 229.71 268.73 229.82 293.20 229.60 C 292.73 224.79 292.79 219.96 292.85 215.14 C 268.49 215.16 244.13 215.07 219.77 215.19 M 178.43 238.72 C 187.75 244.16 193.48 254.76 192.68 265.57 C 200.66 265.54 208.50 260.41 210.53 252.49 C 213.89 242.06 205.00 230.09 194.03 230.35 C 187.65 229.90 182.07 233.80 178.43 238.72 M 316.63 234.18 C 316.66 252.65 316.66 271.12 316.63 289.60 C 330.43 289.62 344.22 289.63 358.01 289.59 C 358.88 285.83 359.80 282.08 360.70 278.33 C 364.52 277.12 368.42 276.18 372.33 275.30 C 372.31 261.59 372.30 247.88 372.33 234.17 C 353.76 234.19 335.20 234.12 316.63 234.18 M 160.56 236.79 C 147.44 238.78 137.08 251.62 138.40 264.92 C 138.90 279.23 152.72 291.06 166.92 289.58 C 181.08 288.89 192.98 275.21 191.34 261.05 C 190.61 246.06 175.35 233.92 160.56 236.79 M 361.81 279.00 C 361.01 282.08 360.23 285.17 359.56 288.28 C 363.39 284.56 367.19 280.79 370.86 276.91 C 367.83 277.57 364.83 278.31 361.81 279.00 Z" />
<path fill="#ffffff" opacity="1.00" d=" M 330.46 149.77 C 337.35 148.59 344.61 149.01 351.15 151.60 C 361.00 155.39 369.03 163.59 372.60 173.53 C 377.02 185.50 374.82 199.73 366.68 209.62 C 357.38 221.49 340.44 226.72 326.13 221.75 C 313.96 217.91 304.23 207.38 301.37 194.94 C 297.85 181.04 303.42 165.41 314.88 156.81 C 319.43 153.28 324.80 150.84 330.46 149.77 M 337.39 164.28 C 337.39 173.44 337.41 182.59 337.38 191.75 C 346.54 191.71 355.71 191.74 364.87 191.73 C 364.85 190.57 364.84 189.41 364.83 188.26 C 357.75 188.27 350.68 188.27 343.60 188.27 C 343.61 180.28 343.59 172.29 343.62 164.30 C 341.54 164.30 339.46 164.29 337.39 164.28 Z" />
<path fill="#ffffff" opacity="1.00" d=" M 138.37 150.47 C 139.76 149.63 141.46 149.84 143.01 149.75 C 161.71 149.83 180.41 149.73 199.11 149.80 C 201.53 149.46 203.74 151.45 203.27 153.95 C 203.19 170.65 203.25 187.36 203.19 204.07 C 203.40 210.11 198.20 215.73 192.08 215.59 C 177.38 215.60 162.68 215.64 147.98 215.57 C 142.37 215.53 137.35 210.65 137.27 205.01 C 137.10 188.34 137.31 171.66 137.12 154.99 C 137.29 153.49 136.84 151.38 138.37 150.47 M 139.25 151.48 C 137.46 154.91 138.82 159.50 138.42 163.37 C 159.55 163.34 180.68 163.36 201.80 163.36 C 201.71 159.40 202.11 155.41 201.46 151.49 C 195.66 150.92 189.81 151.39 183.99 151.25 C 169.08 151.41 154.14 150.92 139.25 151.48 M 153.55 177.26 C 153.57 180.95 153.58 184.64 153.57 188.34 C 157.26 188.33 160.95 188.33 164.65 188.35 C 164.64 184.65 164.64 180.95 164.66 177.25 C 160.96 177.26 157.25 177.26 153.55 177.26 M 181.46 193.88 C 181.45 197.49 181.45 201.10 181.44 204.71 C 185.14 204.71 188.84 204.71 192.54 204.73 C 192.52 201.11 192.53 197.49 192.51 193.88 C 188.83 193.88 185.15 193.88 181.46 193.88 Z" />
<path fill="#ef9c00" opacity="1.00" d=" M 139.25 151.48 C 154.14 150.92 169.08 151.41 183.99 151.25 C 189.81 151.39 195.66 150.92 201.46 151.49 C 202.11 155.41 201.71 159.40 201.80 163.36 C 180.68 163.36 159.55 163.34 138.42 163.37 C 138.82 159.50 137.46 154.91 139.25 151.48 Z" />
<path fill="#ef9c00" opacity="1.00" d=" M 337.39 164.28 C 339.46 164.29 341.54 164.30 343.62 164.30 C 343.59 172.29 343.61 180.28 343.60 188.27 C 350.68 188.27 357.75 188.27 364.83 188.26 C 364.84 189.41 364.85 190.57 364.87 191.73 C 355.71 191.74 346.54 191.71 337.38 191.75 C 337.41 182.59 337.39 173.44 337.39 164.28 Z" />
<path fill="#ef9c00" opacity="1.00" d=" M 153.55 177.26 C 157.25 177.26 160.96 177.26 164.66 177.25 C 164.64 180.95 164.64 184.65 164.65 188.35 C 160.95 188.33 157.26 188.33 153.57 188.34 C 153.58 184.64 153.57 180.95 153.55 177.26 Z" />
<path fill="#ef9c00" opacity="1.00" d=" M 181.46 193.88 C 185.15 193.88 188.83 193.88 192.51 193.88 C 192.53 197.49 192.52 201.11 192.54 204.73 C 188.84 204.71 185.14 204.71 181.44 204.71 C 181.45 201.10 181.45 197.49 181.46 193.88 Z" />
<path fill="#ffffff" opacity="1.00" d=" M 219.77 215.19 C 244.13 215.07 268.49 215.16 292.85 215.14 C 292.79 219.96 292.73 224.79 293.20 229.60 C 268.73 229.82 244.24 229.71 219.76 229.66 C 219.79 224.83 219.79 220.01 219.77 215.19 M 224.38 216.85 C 224.39 220.52 224.39 224.20 224.39 227.88 C 224.87 227.91 225.83 227.96 226.30 227.99 C 226.33 224.26 226.32 220.54 226.32 216.81 C 225.83 216.82 224.87 216.84 224.38 216.85 Z" />
<path fill="#ef9c00" opacity="1.00" d=" M 224.38 216.85 C 224.87 216.84 225.83 216.82 226.32 216.81 C 226.32 220.54 226.33 224.26 226.30 227.99 C 225.83 227.96 224.87 227.91 224.39 227.88 C 224.39 224.20 224.39 220.52 224.38 216.85 Z" />
<path fill="#ffffff" opacity="1.00" d=" M 178.43 238.72 C 182.07 233.80 187.65 229.90 194.03 230.35 C 205.00 230.09 213.89 242.06 210.53 252.49 C 208.50 260.41 200.66 265.54 192.68 265.57 C 193.48 254.76 187.75 244.16 178.43 238.72 Z" />
<path fill="#ffffff" opacity="1.00" d=" M 316.63 234.18 C 335.20 234.12 353.76 234.19 372.33 234.17 C 372.30 247.88 372.31 261.59 372.33 275.30 C 368.42 276.18 364.52 277.12 360.70 278.33 C 359.80 282.08 358.88 285.83 358.01 289.59 C 344.22 289.63 330.43 289.62 316.63 289.60 C 316.66 271.12 316.66 252.65 316.63 234.18 M 332.56 235.75 C 332.54 238.74 332.54 241.72 332.59 244.71 C 334.36 244.53 336.15 244.35 337.92 244.05 C 336.82 243.85 334.63 243.46 333.54 243.26 C 333.54 242.64 333.53 241.41 333.52 240.79 C 334.51 240.65 336.48 240.36 337.46 240.22 C 336.14 239.92 334.79 239.64 333.46 239.38 C 333.51 238.78 333.62 237.57 333.67 236.97 C 335.05 236.67 336.43 236.34 337.80 236.00 C 336.05 235.87 334.31 235.80 332.56 235.75 M 345.92 240.00 C 344.42 242.39 346.81 244.30 348.75 245.29 C 348.75 245.54 348.76 246.03 348.76 246.27 C 347.89 246.48 346.14 246.91 345.26 247.12 C 346.96 247.27 348.67 247.34 350.38 247.40 C 351.06 244.46 351.31 241.46 351.39 238.46 C 349.53 238.76 346.62 237.56 345.92 240.00 M 352.90 240.75 C 353.80 241.36 355.61 242.60 356.51 243.21 C 355.06 243.52 353.62 243.84 352.19 244.18 C 353.57 244.37 354.97 244.55 356.38 244.43 C 357.98 242.34 354.80 241.05 353.88 239.49 C 354.78 239.28 356.58 238.85 357.48 238.64 C 355.45 238.37 353.16 238.13 352.90 240.75 M 338.50 239.68 C 336.99 243.25 340.25 245.43 343.62 244.97 C 341.81 245.98 339.84 246.60 337.87 247.16 C 339.72 247.19 342.02 248.00 343.37 246.26 C 344.20 243.43 343.72 240.39 343.22 237.54 C 342.75 239.72 342.58 241.94 342.32 244.16 C 337.57 243.98 339.15 238.64 342.59 237.36 C 341.57 237.94 339.52 239.10 338.50 239.68 M 334.49 249.65 C 334.16 253.11 334.03 256.62 334.38 260.09 C 334.89 257.67 335.07 255.20 335.33 252.74 C 336.37 254.96 337.37 257.20 338.36 259.44 C 339.44 257.21 340.48 254.96 341.51 252.71 C 341.75 255.18 341.92 257.66 342.43 260.09 C 342.87 256.66 342.80 253.19 342.53 249.75 C 340.94 252.14 339.66 254.71 338.31 257.24 C 337.22 254.62 336.06 252.02 334.49 249.65 M 348.42 249.31 C 347.98 252.89 347.98 256.52 348.35 260.10 C 349.07 256.55 349.09 252.86 348.42 249.31 M 350.79 250.22 C 350.88 253.49 351.10 256.76 351.36 260.02 C 351.70 258.88 352.03 257.74 352.36 256.60 C 353.50 257.75 354.68 258.90 355.89 259.99 C 355.07 258.60 354.17 257.26 353.27 255.94 C 354.18 254.78 355.08 253.61 355.95 252.42 C 354.49 253.51 353.09 254.67 351.70 255.84 C 351.72 253.95 351.75 252.06 351.78 250.18 L 350.79 250.22 M 345.47 253.39 C 344.79 255.02 344.72 257.17 345.49 258.78 C 346.81 258.01 346.84 254.04 345.47 253.39 M 325.99 267.06 C 324.51 269.19 325.72 271.76 326.86 273.73 C 328.72 273.77 330.58 273.84 332.44 273.86 C 330.54 273.26 328.57 272.86 326.77 272.00 C 326.45 270.63 326.39 269.25 326.58 267.86 C 327.50 265.90 329.85 266.40 331.60 266.05 C 331.62 265.81 331.67 265.33 331.69 265.09 C 329.73 265.44 327.15 265.01 325.99 267.06 M 333.47 264.05 C 333.32 267.58 333.19 271.13 333.66 274.65 C 334.15 272.82 334.10 270.78 335.21 269.17 C 338.21 267.44 337.20 272.18 337.67 273.87 C 337.93 273.83 338.44 273.76 338.70 273.72 C 338.49 271.69 338.26 269.66 337.70 267.69 C 337.02 267.56 335.66 267.29 334.98 267.15 C 334.22 266.28 333.71 265.25 333.47 264.05 M 342.15 267.33 C 340.44 268.91 339.41 271.05 340.64 273.28 C 342.24 273.76 343.90 273.99 345.55 274.31 C 343.62 273.40 341.58 272.55 340.41 270.65 C 342.09 270.65 343.78 270.67 345.47 270.72 C 345.04 269.76 344.62 268.80 344.20 267.84 C 343.69 267.71 342.66 267.46 342.15 267.33 M 347.60 267.75 C 347.21 269.20 346.15 270.68 346.62 272.24 C 347.46 274.25 350.11 273.64 351.78 274.37 C 349.99 273.36 348.10 272.43 346.83 270.75 C 348.55 270.69 350.27 270.65 351.99 270.64 C 351.85 270.18 351.57 269.28 351.43 268.83 C 350.94 268.50 349.97 267.84 349.49 267.52 C 349.01 267.57 348.07 267.69 347.60 267.75 M 353.13 267.59 C 352.99 269.80 354.56 271.24 356.00 272.65 C 355.06 272.97 353.19 273.61 352.26 273.92 C 353.99 273.80 355.72 273.57 357.45 273.34 C 356.38 271.71 355.11 270.24 353.81 268.81 C 354.74 268.61 356.60 268.22 357.53 268.02 C 356.07 267.82 354.59 267.69 353.13 267.59 M 358.37 271.82 C 358.50 274.40 361.97 273.52 363.64 274.37 C 361.81 273.37 359.91 272.42 358.61 270.74 C 360.31 270.69 362.01 270.67 363.71 270.67 C 363.60 270.22 363.38 269.34 363.27 268.89 C 362.43 268.30 361.59 267.70 360.75 267.12 C 359.59 268.45 357.53 269.76 358.37 271.82 Z" />
<path fill="#ffffff" opacity="1.00" d=" M 160.56 236.79 C 175.35 233.92 190.61 246.06 191.34 261.05 C 192.98 275.21 181.08 288.89 166.92 289.58 C 152.72 291.06 138.90 279.23 138.40 264.92 C 137.08 251.62 147.44 238.78 160.56 236.79 M 170.85 247.65 C 170.85 251.86 170.85 256.07 170.88 260.29 C 165.32 260.29 159.77 260.30 154.22 260.28 C 154.21 262.09 154.20 263.90 154.19 265.71 C 161.29 265.71 168.40 265.68 175.52 265.73 C 175.49 259.69 175.50 253.64 175.51 247.60 C 173.95 247.61 172.40 247.63 170.85 247.65 Z" />
<path fill="#ef9c00" opacity="1.00" d=" M 332.56 235.75 C 334.31 235.80 336.05 235.87 337.80 236.00 C 336.43 236.34 335.05 236.67 333.67 236.97 C 333.62 237.57 333.51 238.78 333.46 239.38 C 334.79 239.64 336.14 239.92 337.46 240.22 C 336.48 240.36 334.51 240.65 333.52 240.79 C 333.53 241.41 333.54 242.64 333.54 243.26 C 334.63 243.46 336.82 243.85 337.92 244.05 C 336.15 244.35 334.36 244.53 332.59 244.71 C 332.54 241.72 332.54 238.74 332.56 235.75 Z" />
<path fill="#ef9c00" opacity="1.00" d=" M 345.92 240.00 C 346.62 237.56 349.53 238.76 351.39 238.46 C 351.31 241.46 351.06 244.46 350.38 247.40 C 348.67 247.34 346.96 247.27 345.26 247.12 C 346.14 246.91 347.89 246.48 348.76 246.27 C 348.76 246.03 348.75 245.54 348.75 245.29 C 346.81 244.30 344.42 242.39 345.92 240.00 M 346.72 239.79 C 346.72 240.65 346.71 242.37 346.71 243.23 C 347.58 243.38 349.31 243.68 350.18 243.83 C 350.20 242.67 350.23 240.34 350.25 239.18 C 349.06 239.32 347.87 239.49 346.72 239.79 Z" />
<path fill="#ef9c00" opacity="1.00" d=" M 352.90 240.75 C 353.16 238.13 355.45 238.37 357.48 238.64 C 356.58 238.85 354.78 239.28 353.88 239.49 C 354.80 241.05 357.98 242.34 356.38 244.43 C 354.97 244.55 353.57 244.37 352.19 244.18 C 353.62 243.84 355.06 243.52 356.51 243.21 C 355.61 242.60 353.80 241.36 352.90 240.75 Z" />
<path fill="#ef9c00" opacity="1.00" d=" M 338.50 239.68 C 339.52 239.10 341.57 237.94 342.59 237.36 C 339.15 238.64 337.57 243.98 342.32 244.16 C 342.58 241.94 342.75 239.72 343.22 237.54 C 343.72 240.39 344.20 243.43 343.37 246.26 C 342.02 248.00 339.72 247.19 337.87 247.16 C 339.84 246.60 341.81 245.98 343.62 244.97 C 340.25 245.43 336.99 243.25 338.50 239.68 Z" />
<path fill="#ffffff" opacity="1.00" d=" M 346.72 239.79 C 347.87 239.49 349.06 239.32 350.25 239.18 C 350.23 240.34 350.20 242.67 350.18 243.83 C 349.31 243.68 347.58 243.38 346.71 243.23 C 346.71 242.37 346.72 240.65 346.72 239.79 Z" />
<path fill="#ef9c00" opacity="1.00" d=" M 170.85 247.65 C 172.40 247.63 173.95 247.61 175.51 247.60 C 175.50 253.64 175.49 259.69 175.52 265.73 C 168.40 265.68 161.29 265.71 154.19 265.71 C 154.20 263.90 154.21 262.09 154.22 260.28 C 159.77 260.30 165.32 260.29 170.88 260.29 C 170.85 256.07 170.85 251.86 170.85 247.65 Z" />
<path fill="#ef9c00" opacity="1.00" d=" M 334.49 249.65 C 336.06 252.02 337.22 254.62 338.31 257.24 C 339.66 254.71 340.94 252.14 342.53 249.75 C 342.80 253.19 342.87 256.66 342.43 260.09 C 341.92 257.66 341.75 255.18 341.51 252.71 C 340.48 254.96 339.44 257.21 338.36 259.44 C 337.37 257.20 336.37 254.96 335.33 252.74 C 335.07 255.20 334.89 257.67 334.38 260.09 C 334.03 256.62 334.16 253.11 334.49 249.65 Z" />
<path fill="#ef9c00" opacity="1.00" d=" M 348.42 249.31 C 349.09 252.86 349.07 256.55 348.35 260.10 C 347.98 256.52 347.98 252.89 348.42 249.31 Z" />
<path fill="#ef9c00" opacity="1.00" d=" M 350.79 250.22 L 351.78 250.18 C 351.75 252.06 351.72 253.95 351.70 255.84 C 353.09 254.67 354.49 253.51 355.95 252.42 C 355.08 253.61 354.18 254.78 353.27 255.94 C 354.17 257.26 355.07 258.60 355.89 259.99 C 354.68 258.90 353.50 257.75 352.36 256.60 C 352.03 257.74 351.70 258.88 351.36 260.02 C 351.10 256.76 350.88 253.49 350.79 250.22 Z" />
<path fill="#ef9c00" opacity="1.00" d=" M 345.47 253.39 C 346.84 254.04 346.81 258.01 345.49 258.78 C 344.72 257.17 344.79 255.02 345.47 253.39 Z" />
<path fill="#ef9c00" opacity="1.00" d=" M 325.99 267.06 C 327.15 265.01 329.73 265.44 331.69 265.09 C 331.67 265.33 331.62 265.81 331.60 266.05 C 329.85 266.40 327.50 265.90 326.58 267.86 C 326.39 269.25 326.45 270.63 326.77 272.00 C 328.57 272.86 330.54 273.26 332.44 273.86 C 330.58 273.84 328.72 273.77 326.86 273.73 C 325.72 271.76 324.51 269.19 325.99 267.06 Z" />
<path fill="#ef9c00" opacity="1.00" d=" M 333.47 264.05 C 333.71 265.25 334.22 266.28 334.98 267.15 C 335.66 267.29 337.02 267.56 337.70 267.69 C 338.26 269.66 338.49 271.69 338.70 273.72 C 338.44 273.76 337.93 273.83 337.67 273.87 C 337.20 272.18 338.21 267.44 335.21 269.17 C 334.10 270.78 334.15 272.82 333.66 274.65 C 333.19 271.13 333.32 267.58 333.47 264.05 Z" />
<path fill="#ef9c00" opacity="1.00" d=" M 342.15 267.33 C 342.66 267.46 343.69 267.71 344.20 267.84 C 344.62 268.80 345.04 269.76 345.47 270.72 C 343.78 270.67 342.09 270.65 340.41 270.65 C 341.58 272.55 343.62 273.40 345.55 274.31 C 343.90 273.99 342.24 273.76 340.64 273.28 C 339.41 271.05 340.44 268.91 342.15 267.33 M 342.07 268.95 C 342.47 272.28 344.96 267.22 342.07 268.95 Z" />
<path fill="#ef9c00" opacity="1.00" d=" M 347.60 267.75 C 348.07 267.69 349.01 267.57 349.49 267.52 C 349.97 267.84 350.94 268.50 351.43 268.83 C 351.57 269.28 351.85 270.18 351.99 270.64 C 350.27 270.65 348.55 270.69 346.83 270.75 C 348.10 272.43 349.99 273.36 351.78 274.37 C 350.11 273.64 347.46 274.25 346.62 272.24 C 346.15 270.68 347.21 269.20 347.60 267.75 M 348.41 268.81 C 348.07 272.15 351.62 267.68 348.41 268.81 Z" />
<path fill="#ef9c00" opacity="1.00" d=" M 353.13 267.59 C 354.59 267.69 356.07 267.82 357.53 268.02 C 356.60 268.22 354.74 268.61 353.81 268.81 C 355.11 270.24 356.38 271.71 357.45 273.34 C 355.72 273.57 353.99 273.80 352.26 273.92 C 353.19 273.61 355.06 272.97 356.00 272.65 C 354.56 271.24 352.99 269.80 353.13 267.59 Z" />
<path fill="#ef9c00" opacity="1.00" d=" M 358.37 271.82 C 357.53 269.76 359.59 268.45 360.75 267.12 C 361.59 267.70 362.43 268.30 363.27 268.89 C 363.38 269.34 363.60 270.22 363.71 270.67 C 362.01 270.67 360.31 270.69 358.61 270.74 C 359.91 272.42 361.81 273.37 363.64 274.37 C 361.97 273.52 358.50 274.40 358.37 271.82 M 360.22 268.96 C 360.56 272.29 363.14 267.25 360.22 268.96 Z" />
<path fill="#ffffff" opacity="1.00" d=" M 342.07 268.95 C 344.96 267.22 342.47 272.28 342.07 268.95 Z" />
<path fill="#ffffff" opacity="1.00" d=" M 348.41 268.81 C 351.62 267.68 348.07 272.15 348.41 268.81 Z" />
<path fill="#ffffff" opacity="1.00" d=" M 360.22 268.96 C 363.14 267.25 360.56 272.29 360.22 268.96 Z" />
<path fill="#ffffff" opacity="1.00" d=" M 361.81 279.00 C 364.83 278.31 367.83 277.57 370.86 276.91 C 367.19 280.79 363.39 284.56 359.56 288.28 C 360.23 285.17 361.01 282.08 361.81 279.00 Z" />
<path fill="#ffffff" opacity="1.00" d=" M 229.34 325.26 C 246.81 325.29 264.27 325.28 281.73 325.26 C 281.68 336.57 281.76 347.89 281.69 359.21 C 264.25 359.17 246.82 359.17 229.38 359.21 C 229.31 347.89 229.39 336.57 229.34 325.26 Z" />
<path fill="#ffffff" opacity="1.00" d=" M 198.20 344.27 C 206.64 344.23 215.08 344.21 223.51 344.27 C 221.78 350.35 220.46 356.54 218.75 362.62 C 243.15 362.60 267.55 362.63 291.95 362.61 C 290.46 356.49 288.92 350.39 287.32 344.30 C 295.87 344.20 304.43 344.19 312.99 344.31 C 315.43 354.60 317.85 364.90 320.49 375.14 C 277.14 375.12 233.79 375.14 190.44 375.13 C 192.79 364.78 195.84 354.61 198.20 344.27 Z" />
</svg>
