<?xml version="1.0" encoding="UTF-8" ?>
<!DOCTYPE svg PUBLIC "-//W3C//DTD SVG 1.1//EN" "http://www.w3.org/Graphics/SVG/1.1/DTD/svg11.dtd">
<svg width="512pt" height="512pt" viewBox="0 0 512 512" version="1.1" xmlns="http://www.w3.org/2000/svg">
<path fill="#2aa2c1" opacity="1.00" d=" M 0.00 0.00 L 512.00 0.00 L 512.00 512.00 L 0.00 512.00 L 0.00 0.00 M 190.47 121.39 C 190.41 122.02 190.29 123.28 190.23 123.91 C 190.29 167.70 190.21 211.49 190.27 255.28 C 229.21 255.31 268.15 255.25 307.08 255.31 C 308.71 255.05 310.36 256.03 310.12 257.87 C 310.15 301.46 310.18 345.06 310.11 388.66 C 328.09 391.48 346.14 393.90 364.08 396.99 C 367.39 394.26 371.03 392.00 374.68 389.76 C 374.75 317.17 374.67 244.57 374.72 171.98 C 375.24 155.13 361.92 138.73 345.04 136.57 C 298.74 129.60 252.44 122.58 206.13 115.63 C 204.62 115.35 203.13 115.01 201.66 114.62 C 198.04 117.06 194.26 119.25 190.47 121.39 M 136.31 260.28 C 136.33 262.93 136.34 265.57 136.36 268.22 C 192.69 268.21 249.02 268.23 305.35 268.22 C 305.35 265.57 305.35 262.93 305.37 260.29 C 249.02 260.27 192.67 260.28 136.31 260.28 M 136.32 273.18 C 136.36 313.30 136.36 353.42 136.32 393.53 C 192.67 393.51 249.02 393.54 305.37 393.52 C 305.32 353.41 305.35 313.29 305.36 273.18 C 249.01 273.17 192.67 273.15 136.32 273.18 Z" />
<path fill="#ffffff" opacity="1.00" d=" M 190.47 121.39 C 194.26 119.25 198.04 117.06 201.66 114.62 C 203.13 115.01 204.62 115.35 206.13 115.63 C 252.44 122.58 298.74 129.60 345.04 136.57 C 361.92 138.73 375.24 155.13 374.72 171.98 C 374.67 244.57 374.75 317.17 374.68 389.76 C 371.03 392.00 367.39 394.26 364.08 396.99 C 346.14 393.90 328.09 391.48 310.11 388.66 C 310.18 345.06 310.15 301.46 310.12 257.87 C 310.36 256.03 308.71 255.05 307.08 255.31 C 268.15 255.25 229.21 255.31 190.27 255.28 C 190.21 211.49 190.29 167.70 190.23 123.91 C 190.29 123.28 190.41 122.02 190.47 121.39 M 253.75 161.49 C 251.63 169.68 249.01 177.74 246.96 185.95 C 251.52 185.07 256.20 184.03 260.84 185.04 C 265.94 185.78 270.32 188.75 274.17 192.00 C 276.31 183.62 279.09 175.42 281.05 167.00 C 277.52 164.21 273.78 161.39 269.26 160.50 C 264.13 159.10 258.77 160.08 253.75 161.49 M 278.40 195.83 C 281.57 198.43 284.93 200.96 288.92 202.12 C 294.48 204.02 300.54 203.18 306.00 201.38 C 307.95 193.21 310.60 185.22 312.75 177.11 C 308.24 177.98 303.59 179.08 299.00 178.10 C 293.85 177.34 289.32 174.47 285.56 171.00 C 283.06 179.24 280.80 187.56 278.40 195.83 M 245.51 191.38 C 242.73 199.37 240.84 207.66 238.36 215.75 C 242.55 214.77 246.86 213.96 251.18 214.50 C 256.67 215.05 261.55 218.03 265.57 221.66 C 268.12 213.48 270.29 205.18 272.72 196.96 C 269.96 194.81 267.14 192.64 263.87 191.34 C 258.07 188.85 251.35 189.37 245.51 191.38 M 276.89 200.90 C 274.79 209.20 272.08 217.34 270.03 225.66 C 272.73 227.79 275.47 229.96 278.69 231.25 C 284.57 233.81 291.27 233.01 297.29 231.37 C 299.62 223.19 302.17 215.06 304.13 206.78 C 299.21 208.04 294.02 208.74 289.02 207.52 C 284.36 206.70 280.56 203.68 276.89 200.90 Z" />
<path fill="#2aa2c1" opacity="1.00" d=" M 253.75 161.49 C 258.77 160.08 264.13 159.10 269.26 160.50 C 273.78 161.39 277.52 164.21 281.05 167.00 C 279.09 175.42 276.31 183.62 274.17 192.00 C 270.32 188.75 265.94 185.78 260.84 185.04 C 256.20 184.03 251.52 185.07 246.96 185.95 C 249.01 177.74 251.63 169.68 253.75 161.49 Z" />
<path fill="#2aa2c1" opacity="1.00" d=" M 278.40 195.83 C 280.80 187.56 283.06 179.24 285.56 171.00 C 289.32 174.47 293.85 177.34 299.00 178.10 C 303.59 179.08 308.24 177.98 312.75 177.11 C 310.60 185.22 307.95 193.21 306.00 201.38 C 300.54 203.18 294.48 204.02 288.92 202.12 C 284.93 200.96 281.57 198.43 278.40 195.83 Z" />
<path fill="#2aa2c1" opacity="1.00" d=" M 245.51 191.38 C 251.35 189.37 258.07 188.85 263.87 191.34 C 267.14 192.64 269.96 194.81 272.72 196.96 C 270.29 205.18 268.12 213.48 265.57 221.66 C 261.55 218.03 256.67 215.05 251.18 214.50 C 246.86 213.96 242.55 214.77 238.36 215.75 C 240.84 207.66 242.73 199.37 245.51 191.38 Z" />
<path fill="#2aa2c1" opacity="1.00" d=" M 276.89 200.90 C 280.56 203.68 284.36 206.70 289.02 207.52 C 294.02 208.74 299.21 208.04 304.13 206.78 C 302.17 215.06 299.62 223.19 297.29 231.37 C 291.27 233.01 284.57 233.81 278.69 231.25 C 275.47 229.96 272.73 227.79 270.03 225.66 C 272.08 217.34 274.79 209.20 276.89 200.90 Z" />
<path fill="#ffffff" opacity="1.00" d=" M 136.31 260.28 C 192.67 260.28 249.02 260.27 305.37 260.29 C 305.35 262.93 305.35 265.57 305.35 268.22 C 249.02 268.23 192.69 268.21 136.36 268.22 C 136.34 265.57 136.33 262.93 136.31 260.28 Z" />
<path fill="#ffffff" opacity="1.00" d=" M 136.32 273.18 C 192.67 273.15 249.01 273.17 305.36 273.18 C 305.35 313.29 305.32 353.41 305.37 393.52 C 249.02 393.54 192.67 393.51 136.32 393.53 C 136.36 353.42 136.36 313.30 136.32 273.18 M 157.43 296.23 C 157.45 299.97 157.45 303.70 157.43 307.44 C 199.45 307.43 241.46 307.44 283.48 307.43 C 283.45 303.70 283.46 299.97 283.48 296.25 C 241.46 296.22 199.45 296.25 157.43 296.23 M 157.48 335.20 C 199.47 335.18 241.45 335.20 283.44 335.19 C 283.47 331.38 283.47 327.57 283.45 323.77 C 241.46 323.76 199.47 323.77 157.48 323.76 C 157.43 327.57 157.42 331.39 157.48 335.20 M 157.41 353.40 C 157.44 357.02 157.45 360.64 157.45 364.27 C 184.27 364.26 211.10 364.28 237.92 364.26 C 237.94 360.62 237.94 356.98 237.95 353.34 C 211.10 353.32 184.26 353.21 157.41 353.40 M 247.48 356.09 C 247.41 358.92 246.60 362.54 249.40 364.37 C 260.11 364.20 270.82 364.20 281.53 364.37 C 282.87 363.31 283.77 361.81 283.51 360.03 C 283.26 358.00 284.25 355.10 282.06 353.92 C 280.89 353.14 279.37 353.39 278.05 353.28 C 269.35 353.33 260.66 353.29 251.96 353.30 C 250.16 353.17 247.39 353.84 247.48 356.09 Z" />
<path fill="#2aa2c1" opacity="1.00" d=" M 157.43 296.23 C 199.45 296.25 241.46 296.22 283.48 296.25 C 283.46 299.97 283.45 303.70 283.48 307.43 C 241.46 307.44 199.45 307.43 157.43 307.44 C 157.45 303.70 157.45 299.97 157.43 296.23 Z" />
<path fill="#2aa2c1" opacity="1.00" d=" M 157.48 335.20 C 157.42 331.39 157.43 327.57 157.48 323.76 C 199.47 323.77 241.46 323.76 283.45 323.77 C 283.47 327.57 283.47 331.38 283.44 335.19 C 241.45 335.20 199.47 335.18 157.48 335.20 Z" />
<path fill="#2aa2c1" opacity="1.00" d=" M 157.41 353.40 C 184.26 353.21 211.10 353.32 237.95 353.34 C 237.94 356.98 237.94 360.62 237.92 364.26 C 211.10 364.28 184.27 364.26 157.45 364.27 C 157.45 360.64 157.44 357.02 157.41 353.40 Z" />
<path fill="#2aa2c1" opacity="1.00" d=" M 247.48 356.09 C 247.39 353.84 250.16 353.17 251.96 353.30 C 260.66 353.29 269.35 353.33 278.05 353.28 C 279.37 353.39 280.89 353.14 282.06 353.92 C 284.25 355.10 283.26 358.00 283.51 360.03 C 283.77 361.81 282.87 363.31 281.53 364.37 C 270.82 364.20 260.11 364.20 249.40 364.37 C 246.60 362.54 247.41 358.92 247.48 356.09 Z" />
</svg>
