<?xml version="1.0" encoding="UTF-8" ?>
<!DOCTYPE svg PUBLIC "-//W3C//DTD SVG 1.1//EN" "http://www.w3.org/Graphics/SVG/1.1/DTD/svg11.dtd">
<svg width="512pt" height="512pt" viewBox="0 0 512 512" version="1.1" xmlns="http://www.w3.org/2000/svg">
<path fill="#486887" opacity="1.00" d=" M 0.00 0.00 L 512.00 0.00 L 512.00 512.00 L 0.00 512.00 L 0.00 0.00 M 122.52 123.26 C 122.55 211.76 122.52 300.26 122.54 388.75 C 143.11 388.67 163.69 388.77 184.26 388.70 C 184.24 300.23 184.25 211.76 184.26 123.29 C 163.68 123.25 143.10 123.30 122.52 123.26 M 190.79 123.28 C 190.79 143.79 190.80 164.31 190.79 184.82 C 211.37 184.83 231.94 184.84 252.52 184.82 C 252.49 164.30 252.51 143.79 252.51 123.27 C 231.94 123.29 211.37 123.27 190.79 123.28 M 258.68 123.30 C 258.70 143.81 258.69 164.31 258.68 184.82 C 302.04 184.83 345.39 184.83 388.75 184.82 C 388.69 164.30 388.72 143.79 388.74 123.28 C 345.38 123.29 302.03 123.25 258.68 123.30 M 190.78 191.17 C 190.79 211.67 190.81 232.17 190.78 252.67 C 256.77 252.72 322.76 252.67 388.75 252.69 C 388.71 232.18 388.70 211.68 388.75 191.17 C 322.76 191.17 256.77 191.16 190.78 191.17 M 190.79 259.31 C 190.79 279.82 190.80 300.32 190.78 320.83 C 211.36 320.84 231.94 320.83 252.52 320.83 C 252.50 300.32 252.51 279.81 252.52 259.30 C 231.94 259.32 211.36 259.30 190.79 259.31 M 258.68 259.33 C 258.70 279.83 258.69 300.33 258.68 320.83 C 302.04 320.84 345.39 320.82 388.75 320.83 C 388.70 300.32 388.71 279.82 388.75 259.31 C 345.39 259.32 302.03 259.29 258.68 259.33 M 190.79 327.18 C 190.80 347.69 190.79 368.20 190.79 388.72 C 256.77 388.73 322.75 388.72 388.74 388.72 C 388.72 368.21 388.69 347.69 388.75 327.18 C 322.76 327.16 256.78 327.17 190.79 327.18 Z" />
<path fill="#ffffff" opacity="1.00" d=" M 122.52 123.26 C 143.10 123.30 163.68 123.25 184.26 123.29 C 184.25 211.76 184.24 300.23 184.26 388.70 C 163.69 388.77 143.11 388.67 122.54 388.75 C 122.52 300.26 122.55 211.76 122.52 123.26 Z" />
<path fill="#ffffff" opacity="1.00" d=" M 190.79 123.28 C 211.37 123.27 231.94 123.29 252.51 123.27 C 252.51 143.79 252.49 164.30 252.52 184.82 C 231.94 184.84 211.37 184.83 190.79 184.82 C 190.80 164.31 190.79 143.79 190.79 123.28 Z" />
<path fill="#ffffff" opacity="1.00" d=" M 258.68 123.30 C 302.03 123.25 345.38 123.29 388.74 123.28 C 388.72 143.79 388.69 164.30 388.75 184.82 C 345.39 184.83 302.04 184.83 258.68 184.82 C 258.69 164.31 258.70 143.81 258.68 123.30 Z" />
<path fill="#ffffff" opacity="1.00" d=" M 190.78 191.17 C 256.77 191.16 322.76 191.17 388.75 191.17 C 388.70 211.68 388.71 232.18 388.75 252.69 C 322.76 252.67 256.77 252.72 190.78 252.67 C 190.81 232.17 190.79 211.67 190.78 191.17 Z" />
<path fill="#ffffff" opacity="1.00" d=" M 190.79 259.31 C 211.36 259.30 231.94 259.32 252.52 259.30 C 252.51 279.81 252.50 300.32 252.52 320.83 C 231.94 320.83 211.36 320.84 190.78 320.83 C 190.80 300.32 190.79 279.82 190.79 259.31 Z" />
<path fill="#ffffff" opacity="1.00" d=" M 258.68 259.33 C 302.03 259.29 345.39 259.32 388.75 259.31 C 388.71 279.82 388.70 300.32 388.75 320.83 C 345.39 320.82 302.04 320.84 258.68 320.83 C 258.69 300.33 258.70 279.83 258.68 259.33 Z" />
<path fill="#ffffff" opacity="1.00" d=" M 190.79 327.18 C 256.78 327.17 322.76 327.16 388.75 327.18 C 388.69 347.69 388.72 368.21 388.74 388.72 C 322.75 388.72 256.77 388.73 190.79 388.72 C 190.79 368.20 190.80 347.69 190.79 327.18 Z" />
</svg>
