<?xml version="1.0" encoding="UTF-8" ?>
<!DOCTYPE svg PUBLIC "-//W3C//DTD SVG 1.1//EN" "http://www.w3.org/Graphics/SVG/1.1/DTD/svg11.dtd">
<svg width="512pt" height="512pt" viewBox="0 0 512 512" version="1.1" xmlns="http://www.w3.org/2000/svg">
<path fill="#1bc628" opacity="1.00" d=" M 0.00 0.00 L 512.00 0.00 L 512.00 512.00 L 0.00 512.00 L 0.00 0.00 M 261.43 118.50 C 249.59 119.91 238.76 127.94 234.41 139.11 C 228.99 152.27 233.40 168.68 244.90 177.15 C 257.43 187.19 277.24 185.90 288.39 174.34 C 297.33 165.61 300.28 151.59 295.95 139.92 C 291.04 126.05 276.03 116.78 261.43 118.50 M 249.29 198.49 C 228.06 200.58 208.04 212.30 195.74 229.72 C 184.77 244.95 179.86 264.44 182.40 283.05 C 184.57 301.21 193.86 318.39 207.71 330.31 C 221.22 342.11 239.09 348.89 257.06 348.72 C 270.68 348.83 284.29 345.01 295.94 337.97 C 312.19 328.26 324.51 312.19 329.58 293.94 C 333.77 279.24 333.27 263.29 328.30 248.85 C 322.18 230.95 309.01 215.63 292.28 206.82 C 279.21 199.76 264.04 197.10 249.29 198.49 M 356.11 319.93 C 338.95 322.51 326.04 340.38 329.26 357.50 C 331.09 370.37 341.38 381.49 354.05 384.37 C 366.52 387.65 380.61 382.45 388.17 372.05 C 395.59 362.41 396.69 348.50 391.27 337.67 C 385.10 324.89 370.08 317.23 356.11 319.93 M 146.23 328.33 C 141.73 328.72 137.35 330.21 133.42 332.40 C 121.14 339.13 114.21 354.29 117.51 367.95 C 120.52 382.80 134.92 394.07 150.01 393.78 C 161.44 393.67 172.60 387.19 178.26 377.23 C 185.10 365.72 183.76 350.08 174.99 339.95 C 168.13 331.57 156.98 327.13 146.23 328.33 Z" />
<path fill="#ffffff" opacity="1.00" d=" M 261.43 118.50 C 276.03 116.78 291.04 126.05 295.95 139.92 C 300.28 151.59 297.33 165.61 288.39 174.34 C 277.24 185.90 257.43 187.19 244.90 177.15 C 233.40 168.68 228.99 152.27 234.41 139.11 C 238.76 127.94 249.59 119.91 261.43 118.50 Z" />
<path fill="#ffffff" opacity="1.00" d=" M 249.29 198.49 C 264.04 197.10 279.21 199.76 292.28 206.82 C 309.01 215.63 322.18 230.95 328.30 248.85 C 333.27 263.29 333.77 279.24 329.58 293.94 C 324.51 312.19 312.19 328.26 295.94 337.97 C 284.29 345.01 270.68 348.83 257.06 348.72 C 239.09 348.89 221.22 342.11 207.71 330.31 C 193.86 318.39 184.57 301.21 182.40 283.05 C 179.86 264.44 184.77 244.95 195.74 229.72 C 208.04 212.30 228.06 200.58 249.29 198.49 Z" />
<path fill="#ffffff" opacity="1.00" d=" M 356.11 319.93 C 370.08 317.23 385.10 324.89 391.27 337.67 C 396.69 348.50 395.59 362.41 388.17 372.05 C 380.61 382.45 366.52 387.65 354.05 384.37 C 341.38 381.49 331.09 370.37 329.26 357.50 C 326.04 340.38 338.95 322.51 356.11 319.93 Z" />
<path fill="#ffffff" opacity="1.00" d=" M 146.23 328.33 C 156.98 327.13 168.13 331.57 174.99 339.95 C 183.76 350.08 185.10 365.72 178.26 377.23 C 172.60 387.19 161.44 393.67 150.01 393.78 C 134.92 394.07 120.52 382.80 117.51 367.95 C 114.21 354.29 121.14 339.13 133.42 332.40 C 137.35 330.21 141.73 328.72 146.23 328.33 Z" />
</svg>
