<?xml version="1.0" encoding="UTF-8" ?>
<!DOCTYPE svg PUBLIC "-//W3C//DTD SVG 1.1//EN" "http://www.w3.org/Graphics/SVG/1.1/DTD/svg11.dtd">
<svg width="512pt" height="512pt" viewBox="0 0 512 512" version="1.1" xmlns="http://www.w3.org/2000/svg">
<path fill="#1958b7" opacity="1.00" d=" M 0.00 0.00 L 512.00 0.00 L 512.00 512.00 L 0.00 512.00 L 0.00 0.00 M 233.53 116.95 C 200.78 122.19 170.14 139.49 148.77 164.86 C 129.93 186.94 118.14 215.00 115.85 243.96 C 115.69 251.63 115.76 259.31 115.81 266.99 C 117.46 290.59 125.53 313.66 138.53 333.40 C 155.99 359.99 182.73 380.32 213.04 389.97 C 232.93 396.17 254.24 398.80 274.91 395.43 C 296.49 392.58 317.36 384.55 335.34 372.27 C 356.48 357.86 373.61 337.60 384.20 314.29 C 396.25 287.67 400.25 257.23 394.17 228.56 C 388.07 197.19 370.77 168.23 346.22 147.82 C 324.25 129.49 296.56 117.84 267.98 115.79 C 256.49 116.00 244.91 114.98 233.53 116.95 Z" />
<path fill="#ffffff" opacity="1.00" d=" M 233.53 116.95 C 244.91 114.98 256.49 116.00 267.98 115.79 C 296.56 117.84 324.25 129.49 346.22 147.82 C 370.77 168.23 388.07 197.19 394.17 228.56 C 400.25 257.23 396.25 287.67 384.20 314.29 C 373.61 337.60 356.48 357.86 335.34 372.27 C 317.36 384.55 296.49 392.58 274.91 395.43 C 254.24 398.80 232.93 396.17 213.04 389.97 C 182.73 380.32 155.99 359.99 138.53 333.40 C 125.53 313.66 117.46 290.59 115.81 266.99 C 115.76 259.31 115.69 251.63 115.85 243.96 C 118.14 215.00 129.93 186.94 148.77 164.86 C 170.14 139.49 200.78 122.19 233.53 116.95 M 247.11 127.92 C 233.16 128.90 219.36 132.15 206.46 137.57 C 180.50 148.39 158.37 168.09 144.51 192.56 C 133.47 211.76 127.77 233.89 127.72 256.01 C 127.76 282.95 136.41 309.84 152.41 331.55 C 170.91 356.98 199.00 375.29 229.86 381.54 C 269.29 390.07 312.42 378.43 342.12 351.09 C 364.97 330.58 380.03 301.60 383.49 271.08 C 386.14 249.02 382.94 226.28 374.22 205.85 C 363.02 179.22 342.46 156.68 317.02 143.01 C 295.79 131.44 271.21 126.21 247.11 127.92 Z" />
<path fill="#1958b7" opacity="1.00" d=" M 247.11 127.92 C 271.21 126.21 295.79 131.44 317.02 143.01 C 342.46 156.68 363.02 179.22 374.22 205.85 C 382.94 226.28 386.14 249.02 383.49 271.08 C 380.03 301.60 364.97 330.58 342.12 351.09 C 312.42 378.43 269.29 390.07 229.86 381.54 C 199.00 375.29 170.91 356.98 152.41 331.55 C 136.41 309.84 127.76 282.95 127.72 256.01 C 127.77 233.89 133.47 211.76 144.51 192.56 C 158.37 168.09 180.50 148.39 206.46 137.57 C 219.36 132.15 233.16 128.90 247.11 127.92 M 250.40 180.65 C 247.32 181.37 244.41 182.90 242.11 185.08 C 236.51 190.38 236.06 200.02 240.96 205.93 C 247.24 213.80 259.89 214.63 267.83 208.86 C 275.59 203.33 276.10 190.23 268.56 184.30 C 263.65 179.99 256.57 179.54 250.40 180.65 M 239.72 228.59 C 239.74 262.58 239.76 296.57 239.71 330.57 C 250.26 330.66 260.82 330.59 271.38 330.60 C 271.35 296.59 271.36 262.58 271.37 228.57 C 260.82 228.59 250.27 228.55 239.72 228.59 Z" />
<path fill="#ffffff" opacity="1.00" d=" M 250.40 180.65 C 256.57 179.54 263.65 179.99 268.56 184.30 C 276.10 190.23 275.59 203.33 267.83 208.86 C 259.89 214.63 247.24 213.80 240.96 205.93 C 236.06 200.02 236.51 190.38 242.11 185.08 C 244.41 182.90 247.32 181.37 250.40 180.65 Z" />
<path fill="#ffffff" opacity="1.00" d=" M 239.72 228.59 C 250.27 228.55 260.82 228.59 271.37 228.57 C 271.36 262.58 271.35 296.59 271.38 330.60 C 260.82 330.59 250.26 330.66 239.71 330.57 C 239.76 296.57 239.74 262.58 239.72 228.59 Z" />
</svg>
