<?xml version="1.0" encoding="UTF-8" ?>
<!DOCTYPE svg PUBLIC "-//W3C//DTD SVG 1.1//EN" "http://www.w3.org/Graphics/SVG/1.1/DTD/svg11.dtd">
<svg width="512pt" height="512pt" viewBox="0 0 512 512" version="1.1" xmlns="http://www.w3.org/2000/svg">
<path fill="#009f3c" opacity="1.00" d=" M 0.00 0.00 L 512.00 0.00 L 512.00 512.00 L 0.00 512.00 L 0.00 0.00 M 179.38 149.42 C 145.29 171.81 123.38 212.04 124.19 252.95 C 123.66 282.67 135.01 312.19 154.44 334.59 C 154.62 290.72 154.46 246.85 154.52 202.98 C 154.54 201.72 154.96 200.59 155.79 199.61 C 164.54 199.74 173.30 199.66 182.05 199.65 C 180.87 196.69 179.66 193.74 178.33 190.84 C 174.60 189.36 170.92 187.79 167.18 186.34 C 165.37 187.88 163.55 189.41 161.78 190.99 C 159.52 188.53 158.14 185.45 156.20 182.75 C 159.48 178.21 163.23 174.03 166.73 169.65 C 179.33 166.21 191.98 162.92 204.57 159.40 C 206.02 159.14 207.50 158.18 208.99 158.74 C 214.36 160.58 219.63 162.72 225.02 164.49 C 227.87 164.12 230.56 163.05 233.32 162.31 C 238.66 166.72 243.88 171.29 249.14 175.80 C 251.63 177.99 254.75 179.52 256.70 182.28 C 261.17 188.14 265.05 194.48 270.37 199.63 C 286.78 199.74 303.18 199.61 319.59 199.70 C 320.09 196.09 320.70 192.48 320.88 188.84 C 320.85 183.49 319.80 178.22 319.28 172.91 C 320.74 170.54 322.24 168.20 323.90 165.97 C 328.14 170.10 333.08 173.50 337.12 177.83 C 341.99 185.08 346.75 192.40 351.61 199.66 C 354.93 199.69 358.25 199.70 361.57 199.59 C 358.38 193.54 355.11 187.51 351.15 181.92 C 332.71 155.08 303.21 136.11 271.16 130.40 C 239.67 124.30 205.94 131.51 179.38 149.42 M 331.28 199.59 C 335.15 199.71 339.04 199.76 342.91 199.51 C 340.67 198.48 338.41 197.47 336.17 196.44 C 334.56 197.52 332.92 198.57 331.28 199.59 M 159.88 204.53 C 159.88 208.41 159.87 212.28 159.89 216.16 C 235.67 216.20 311.46 216.17 387.24 216.17 C 387.26 212.28 387.26 208.40 387.25 204.51 C 311.46 204.56 235.67 204.52 159.88 204.53 M 160.16 222.71 C 160.01 224.11 159.91 225.52 159.87 226.94 C 159.89 277.98 159.89 329.01 159.87 380.05 C 159.91 381.41 159.99 382.77 160.12 384.14 C 235.83 384.00 311.53 384.07 387.24 384.10 C 387.26 330.32 387.30 276.54 387.22 222.76 C 311.53 222.74 235.84 222.85 160.16 222.71 Z" />
<path fill="#ffffff" opacity="1.00" d=" M 179.38 149.42 C 205.94 131.51 239.67 124.30 271.16 130.40 C 303.21 136.11 332.71 155.08 351.15 181.92 C 355.11 187.51 358.38 193.54 361.57 199.59 C 358.25 199.70 354.93 199.69 351.61 199.66 C 346.75 192.40 341.99 185.08 337.12 177.83 C 333.08 173.50 328.14 170.10 323.90 165.97 C 322.24 168.20 320.74 170.54 319.28 172.91 C 319.80 178.22 320.85 183.49 320.88 188.84 C 320.70 192.48 320.09 196.09 319.59 199.70 C 303.18 199.61 286.78 199.74 270.37 199.63 C 265.05 194.48 261.17 188.14 256.70 182.28 C 254.75 179.52 251.63 177.99 249.14 175.80 C 243.88 171.29 238.66 166.72 233.32 162.31 C 230.56 163.05 227.87 164.12 225.02 164.49 C 219.63 162.72 214.36 160.58 208.99 158.74 C 207.50 158.18 206.02 159.14 204.57 159.40 C 191.98 162.92 179.33 166.21 166.73 169.65 C 163.23 174.03 159.48 178.21 156.20 182.75 C 158.14 185.45 159.52 188.53 161.78 190.99 C 163.55 189.41 165.37 187.88 167.18 186.34 C 170.92 187.79 174.60 189.36 178.33 190.84 C 179.66 193.74 180.87 196.69 182.05 199.65 C 173.30 199.66 164.54 199.74 155.79 199.61 C 154.96 200.59 154.54 201.72 154.52 202.98 C 154.46 246.85 154.62 290.72 154.44 334.59 C 135.01 312.19 123.66 282.67 124.19 252.95 C 123.38 212.04 145.29 171.81 179.38 149.42 M 219.36 140.85 C 225.10 144.36 230.76 148.02 236.44 151.64 C 237.47 152.28 238.57 153.03 239.87 152.82 C 249.32 152.66 258.73 151.82 268.17 151.41 C 271.42 147.84 274.67 144.27 278.05 140.83 C 269.98 139.10 261.98 136.99 253.88 135.44 C 242.26 136.40 230.64 137.78 219.36 140.85 Z" />
<path fill="#009f3c" opacity="1.00" d=" M 219.36 140.85 C 230.64 137.78 242.26 136.40 253.88 135.44 C 261.98 136.99 269.98 139.10 278.05 140.83 C 274.67 144.27 271.42 147.84 268.17 151.41 C 258.73 151.82 249.32 152.66 239.87 152.82 C 238.57 153.03 237.47 152.28 236.44 151.64 C 230.76 148.02 225.10 144.36 219.36 140.85 Z" />
<path fill="#ffffff" opacity="1.00" d=" M 331.28 199.59 C 332.92 198.57 334.56 197.52 336.17 196.44 C 338.41 197.47 340.67 198.48 342.91 199.51 C 339.04 199.76 335.15 199.71 331.28 199.59 Z" />
<path fill="#ffffff" opacity="1.00" d=" M 159.88 204.53 C 235.67 204.52 311.46 204.56 387.25 204.51 C 387.26 208.40 387.26 212.28 387.24 216.17 C 311.46 216.17 235.67 216.20 159.89 216.16 C 159.87 212.28 159.88 208.41 159.88 204.53 Z" />
<path fill="#ffffff" opacity="1.00" d=" M 160.16 222.71 C 235.84 222.85 311.53 222.74 387.22 222.76 C 387.30 276.54 387.26 330.32 387.24 384.10 C 311.53 384.07 235.83 384.00 160.12 384.14 C 159.99 382.77 159.91 381.41 159.87 380.05 C 159.89 329.01 159.89 277.98 159.87 226.94 C 159.91 225.52 160.01 224.11 160.16 222.71 M 189.21 235.33 C 189.27 240.27 189.16 245.22 189.31 250.16 C 245.39 250.17 301.47 249.95 357.54 250.22 C 357.75 245.26 357.61 240.29 357.66 235.33 C 301.51 235.35 245.36 235.34 189.21 235.33 M 189.29 263.86 C 189.19 271.77 189.24 279.68 189.25 287.59 C 192.10 285.30 194.36 282.40 196.90 279.80 C 201.21 283.89 205.73 287.75 210.01 291.88 C 219.09 282.50 228.69 273.58 237.47 263.92 C 221.41 263.81 205.35 263.92 189.29 263.86 M 210.07 306.71 C 203.27 300.25 196.39 293.86 189.33 287.69 C 189.12 295.38 189.31 303.08 189.22 310.78 C 205.59 310.78 221.96 310.80 238.34 310.77 C 238.24 299.93 238.44 289.08 238.24 278.24 C 228.77 287.65 219.29 297.06 210.07 306.71 M 248.46 283.49 C 248.46 289.76 248.47 296.03 248.46 302.31 C 284.82 302.33 321.19 302.31 357.56 302.32 C 357.57 296.03 357.59 289.75 357.54 283.46 C 321.18 283.49 284.82 283.43 248.46 283.49 M 189.31 322.49 C 189.36 338.12 189.23 353.75 189.20 369.38 C 205.58 369.39 221.96 369.37 238.33 369.39 C 238.26 358.49 238.41 347.60 238.25 336.70 C 228.67 345.94 219.42 355.53 210.04 364.97 C 203.37 358.48 196.24 352.47 189.63 345.92 C 191.94 343.17 194.42 340.56 196.90 337.95 C 201.17 342.07 205.70 345.92 209.98 350.04 C 218.98 340.91 228.12 331.92 237.05 322.73 C 221.16 322.16 205.22 322.63 189.31 322.49 M 248.49 342.09 C 248.44 348.32 248.48 354.54 248.46 360.77 C 284.83 360.78 321.20 360.76 357.58 360.78 C 357.56 354.53 357.59 348.28 357.55 342.04 C 321.20 342.02 284.84 341.92 248.49 342.09 Z" />
<path fill="#009f3c" opacity="1.00" d=" M 189.21 235.33 C 245.36 235.34 301.51 235.35 357.66 235.33 C 357.61 240.29 357.75 245.26 357.54 250.22 C 301.47 249.95 245.39 250.17 189.31 250.16 C 189.16 245.22 189.27 240.27 189.21 235.33 Z" />
<path fill="#009f3c" opacity="1.00" d=" M 189.29 263.86 C 205.35 263.92 221.41 263.81 237.47 263.92 C 228.69 273.58 219.09 282.50 210.01 291.88 C 205.73 287.75 201.21 283.89 196.90 279.80 C 194.36 282.40 192.10 285.30 189.25 287.59 C 189.24 279.68 189.19 271.77 189.29 263.86 Z" />
<path fill="#009f3c" opacity="1.00" d=" M 210.07 306.71 C 219.29 297.06 228.77 287.65 238.24 278.24 C 238.44 289.08 238.24 299.93 238.34 310.77 C 221.96 310.80 205.59 310.78 189.22 310.78 C 189.31 303.08 189.12 295.38 189.33 287.69 C 196.39 293.86 203.27 300.25 210.07 306.71 Z" />
<path fill="#009f3c" opacity="1.00" d=" M 248.46 283.49 C 284.82 283.43 321.18 283.49 357.54 283.46 C 357.59 289.75 357.57 296.03 357.56 302.32 C 321.19 302.31 284.82 302.33 248.46 302.31 C 248.47 296.03 248.46 289.76 248.46 283.49 Z" />
<path fill="#009f3c" opacity="1.00" d=" M 189.31 322.49 C 205.22 322.63 221.16 322.16 237.05 322.73 C 228.12 331.92 218.98 340.91 209.98 350.04 C 205.70 345.92 201.17 342.07 196.90 337.95 C 194.42 340.56 191.94 343.17 189.63 345.92 C 196.24 352.47 203.37 358.48 210.04 364.97 C 219.42 355.53 228.67 345.94 238.25 336.70 C 238.41 347.60 238.26 358.49 238.33 369.39 C 221.96 369.37 205.58 369.39 189.20 369.38 C 189.23 353.75 189.36 338.12 189.31 322.49 Z" />
<path fill="#009f3c" opacity="1.00" d=" M 248.49 342.09 C 284.84 341.92 321.20 342.02 357.55 342.04 C 357.59 348.28 357.56 354.53 357.58 360.78 C 321.20 360.76 284.83 360.78 248.46 360.77 C 248.48 354.54 248.44 348.32 248.49 342.09 Z" />
</svg>
