<?xml version="1.0" encoding="UTF-8" ?>
<!DOCTYPE svg PUBLIC "-//W3C//DTD SVG 1.1//EN" "http://www.w3.org/Graphics/SVG/1.1/DTD/svg11.dtd">
<svg width="512pt" height="512pt" viewBox="0 0 512 512" version="1.1" xmlns="http://www.w3.org/2000/svg">
<path fill="#486887" opacity="1.00" d=" M 0.00 0.00 L 512.00 0.00 L 512.00 512.00 L 0.00 512.00 L 0.00 0.00 M 96.85 161.15 C 96.89 216.34 96.75 271.53 96.92 326.72 C 147.37 326.64 197.83 326.66 248.28 326.71 C 248.20 327.30 248.03 328.49 247.95 329.09 C 236.62 334.60 224.82 339.14 213.39 344.46 C 210.41 345.36 210.41 351.04 213.96 350.80 C 241.65 350.91 269.35 350.82 297.04 350.85 C 298.75 351.13 300.93 350.07 300.63 348.06 C 300.68 345.93 298.85 344.51 297.05 343.84 C 286.42 339.19 275.75 334.59 265.14 329.89 C 263.77 329.37 263.25 328.30 263.56 326.68 C 313.83 326.63 364.11 326.75 414.39 326.62 C 414.25 271.46 414.37 216.29 414.33 161.13 C 308.50 161.18 202.68 161.13 96.85 161.15 Z" />
<path fill="#ffffff" opacity="1.00" d=" M 96.85 161.15 C 202.68 161.13 308.50 161.18 414.33 161.13 C 414.37 216.29 414.25 271.46 414.39 326.62 C 364.11 326.75 313.83 326.63 263.56 326.68 C 263.25 328.30 263.77 329.37 265.14 329.89 C 275.75 334.59 286.42 339.19 297.05 343.84 C 298.85 344.51 300.68 345.93 300.63 348.06 C 300.93 350.07 298.75 351.13 297.04 350.85 C 269.35 350.82 241.65 350.91 213.96 350.80 C 210.41 351.04 210.41 345.36 213.39 344.46 C 224.82 339.14 236.62 334.60 247.95 329.09 C 248.03 328.49 248.20 327.30 248.28 326.71 C 197.83 326.66 147.37 326.64 96.92 326.72 C 96.75 271.53 96.89 216.34 96.85 161.15 M 105.61 170.10 C 105.57 219.36 105.60 268.62 105.59 317.87 C 205.77 317.77 305.95 317.87 406.13 317.83 C 406.32 268.68 406.04 219.54 406.27 170.39 C 404.23 169.86 402.11 169.87 400.03 170.02 C 392.02 170.48 384.00 169.39 376.00 170.14 C 364.67 169.96 353.34 170.48 342.03 169.90 C 325.70 170.31 309.33 170.20 293.00 170.01 C 276.68 170.19 260.35 170.20 244.03 169.99 C 197.90 170.18 151.75 170.12 105.61 170.10 Z" />
<path fill="#486887" opacity="1.00" d=" M 105.61 170.10 C 151.75 170.12 197.90 170.18 244.03 169.99 C 260.35 170.20 276.68 170.19 293.00 170.01 C 309.33 170.20 325.70 170.31 342.03 169.90 C 353.34 170.48 364.67 169.96 376.00 170.14 C 384.00 169.39 392.02 170.48 400.03 170.02 C 402.11 169.87 404.23 169.86 406.27 170.39 C 406.04 219.54 406.32 268.68 406.13 317.83 C 305.95 317.87 205.77 317.77 105.59 317.87 C 105.60 268.62 105.57 219.36 105.61 170.10 M 245.55 193.85 C 233.04 196.36 221.52 203.65 214.04 214.00 C 207.48 222.90 203.90 233.95 204.13 245.02 C 204.07 260.71 211.90 276.13 224.43 285.53 C 233.39 292.40 244.68 296.28 256.00 295.92 C 273.02 296.26 289.62 286.96 298.83 272.76 C 305.03 263.42 307.92 252.04 307.08 240.88 C 306.21 224.22 296.31 208.51 281.99 200.09 C 271.16 193.57 257.93 191.45 245.55 193.85 Z" />
<path fill="#ffffff" opacity="1.00" d=" M 245.55 193.85 C 257.93 191.45 271.16 193.57 281.99 200.09 C 296.31 208.51 306.21 224.22 307.08 240.88 C 307.92 252.04 305.03 263.42 298.83 272.76 C 289.62 286.96 273.02 296.26 256.00 295.92 C 244.68 296.28 233.39 292.40 224.43 285.53 C 211.90 276.13 204.07 260.71 204.13 245.02 C 203.90 233.95 207.48 222.90 214.04 214.00 C 221.52 203.65 233.04 196.36 245.55 193.85 M 246.50 198.74 C 226.22 202.57 209.79 221.22 209.22 241.95 C 208.15 256.87 215.09 271.98 226.88 281.11 C 236.90 289.06 250.33 292.64 262.95 290.50 C 274.69 288.74 285.59 282.16 292.74 272.71 C 300.43 262.66 303.88 249.38 301.66 236.89 C 299.67 224.49 292.37 213.07 281.98 206.02 C 271.77 198.96 258.67 196.26 246.50 198.74 Z" />
<path fill="#486887" opacity="1.00" d=" M 246.50 198.74 C 258.67 196.26 271.77 198.96 281.98 206.02 C 292.37 213.07 299.67 224.49 301.66 236.89 C 303.88 249.38 300.43 262.66 292.74 272.71 C 285.59 282.16 274.69 288.74 262.95 290.50 C 250.33 292.64 236.90 289.06 226.88 281.11 C 215.09 271.98 208.15 256.87 209.22 241.95 C 209.79 221.22 226.22 202.57 246.50 198.74 M 240.69 223.26 C 240.69 238.25 240.69 253.24 240.69 268.23 C 253.51 260.66 266.61 253.53 279.24 245.65 C 266.37 238.22 253.48 230.81 240.69 223.26 Z" />
<path fill="#ffffff" opacity="1.00" d=" M 240.69 223.26 C 253.48 230.81 266.37 238.22 279.24 245.65 C 266.61 253.53 253.51 260.66 240.69 268.23 C 240.69 253.24 240.69 238.25 240.69 223.26 Z" />
</svg>
