<?xml version="1.0" encoding="UTF-8" ?>
<!DOCTYPE svg PUBLIC "-//W3C//DTD SVG 1.1//EN" "http://www.w3.org/Graphics/SVG/1.1/DTD/svg11.dtd">
<svg width="512pt" height="512pt" viewBox="0 0 512 512" version="1.1" xmlns="http://www.w3.org/2000/svg">
<path fill="#ffa614" opacity="1.00" d=" M 0.00 0.00 L 512.00 0.00 L 512.00 512.00 L 0.00 512.00 L 0.00 0.00 M 156.09 78.94 C 134.88 81.25 113.42 88.02 96.95 102.01 C 88.40 109.23 82.12 119.04 79.76 130.03 C 78.28 138.92 80.88 147.96 85.27 155.66 C 92.88 168.38 105.64 177.09 118.98 182.97 C 131.65 188.82 145.55 191.47 159.37 192.78 C 166.00 198.41 171.83 205.01 178.19 210.98 C 178.79 211.41 179.45 211.72 180.18 211.93 C 181.13 205.46 182.69 199.11 183.87 192.68 C 201.19 191.11 218.51 186.60 233.58 177.74 C 246.51 170.57 257.95 159.03 261.63 144.36 C 264.48 133.57 261.46 121.91 255.19 112.89 C 246.34 100.34 232.74 91.93 218.59 86.51 C 198.77 78.81 177.13 77.15 156.09 78.94 M 246.40 173.61 C 288.67 173.67 330.93 173.51 373.19 173.69 C 372.23 180.42 373.69 187.19 372.88 193.93 C 372.93 235.50 372.84 277.08 372.85 318.65 C 293.15 318.61 213.45 318.85 133.77 318.54 C 133.84 277.69 133.76 236.85 133.81 196.00 C 133.79 194.60 133.69 193.21 133.58 191.81 C 131.03 191.23 128.49 190.59 125.94 190.04 C 125.92 240.36 125.95 290.69 125.92 341.01 C 125.53 343.52 127.27 346.45 130.03 346.34 C 212.01 346.41 294.00 346.34 375.98 346.37 C 378.41 346.67 381.40 344.73 380.89 342.03 C 380.86 284.63 380.90 227.24 380.87 169.85 C 381.09 167.36 378.18 165.84 376.01 165.92 C 336.67 165.88 297.33 165.96 257.98 165.88 C 252.52 164.87 250.14 170.84 246.40 173.61 M 227.62 349.62 C 227.61 360.64 227.65 371.65 227.59 382.67 C 244.66 382.73 261.73 382.68 278.79 382.70 C 278.75 371.67 278.78 360.64 278.78 349.61 C 261.72 349.62 244.67 349.61 227.62 349.62 M 197.38 368.24 C 194.95 378.32 192.10 388.28 189.67 398.36 C 231.99 398.42 274.32 398.38 316.64 398.38 C 314.07 388.38 311.81 378.31 309.27 368.30 C 300.93 368.31 292.59 368.12 284.27 368.40 C 285.94 374.34 287.43 380.33 288.76 386.35 C 264.96 386.29 241.16 386.32 217.36 386.34 C 218.99 380.35 220.40 374.31 221.88 368.29 C 213.72 368.24 205.55 368.31 197.38 368.24 Z" />
<path fill="#ffffff" opacity="1.00" d=" M 156.09 78.94 C 177.13 77.15 198.77 78.81 218.59 86.51 C 232.74 91.93 246.34 100.34 255.19 112.89 C 261.46 121.91 264.48 133.57 261.63 144.36 C 257.95 159.03 246.51 170.57 233.58 177.74 C 218.51 186.60 201.19 191.11 183.87 192.68 C 182.69 199.11 181.13 205.46 180.18 211.93 C 179.45 211.72 178.79 211.41 178.19 210.98 C 171.83 205.01 166.00 198.41 159.37 192.78 C 145.55 191.47 131.65 188.82 118.98 182.97 C 105.64 177.09 92.88 168.38 85.27 155.66 C 80.88 147.96 78.28 138.92 79.76 130.03 C 82.12 119.04 88.40 109.23 96.95 102.01 C 113.42 88.02 134.88 81.25 156.09 78.94 Z" />
<path fill="#ffffff" opacity="1.00" d=" M 246.40 173.61 C 250.14 170.84 252.52 164.87 257.98 165.88 C 297.33 165.96 336.67 165.88 376.01 165.92 C 378.18 165.84 381.09 167.36 380.87 169.85 C 380.90 227.24 380.86 284.63 380.89 342.03 C 381.40 344.73 378.41 346.67 375.98 346.37 C 294.00 346.34 212.01 346.41 130.03 346.34 C 127.27 346.45 125.53 343.52 125.92 341.01 C 125.95 290.69 125.92 240.36 125.94 190.04 C 128.49 190.59 131.03 191.23 133.58 191.81 C 133.69 193.21 133.79 194.60 133.81 196.00 C 133.76 236.85 133.84 277.69 133.77 318.54 C 213.45 318.85 293.15 318.61 372.85 318.65 C 372.84 277.08 372.93 235.50 372.88 193.93 C 373.69 187.19 372.23 180.42 373.19 173.69 C 330.93 173.51 288.67 173.67 246.40 173.61 Z" />
<path fill="#ffffff" opacity="1.00" d=" M 227.62 349.62 C 244.67 349.61 261.72 349.62 278.78 349.61 C 278.78 360.64 278.75 371.67 278.79 382.70 C 261.73 382.68 244.66 382.73 227.59 382.67 C 227.65 371.65 227.61 360.64 227.62 349.62 Z" />
<path fill="#ffffff" opacity="1.00" d=" M 197.38 368.24 C 205.55 368.31 213.72 368.24 221.88 368.29 C 220.40 374.31 218.99 380.35 217.36 386.34 C 241.16 386.32 264.96 386.29 288.76 386.35 C 287.43 380.33 285.94 374.34 284.27 368.40 C 292.59 368.12 300.93 368.31 309.27 368.30 C 311.81 378.31 314.07 388.38 316.64 398.38 C 274.32 398.38 231.99 398.42 189.67 398.36 C 192.10 388.28 194.95 378.32 197.38 368.24 Z" />
</svg>
