<?xml version="1.0" encoding="UTF-8" ?>
<!DOCTYPE svg PUBLIC "-//W3C//DTD SVG 1.1//EN" "http://www.w3.org/Graphics/SVG/1.1/DTD/svg11.dtd">
<svg width="512pt" height="512pt" viewBox="0 0 512 512" version="1.1" xmlns="http://www.w3.org/2000/svg">
<path fill="#01a651" opacity="1.00" d=" M 0.00 0.00 L 512.00 0.00 L 512.00 512.00 L 0.00 512.00 L 0.00 0.00 M 135.45 101.60 C 128.37 101.66 122.16 107.84 122.36 114.95 C 122.37 208.96 122.36 302.97 122.37 396.97 C 122.32 403.64 128.10 410.01 134.92 409.90 C 215.66 409.92 296.39 409.95 377.12 409.88 C 384.33 409.81 389.51 402.88 389.41 396.03 C 389.42 302.67 389.41 209.32 389.42 115.97 C 389.35 111.73 387.79 107.30 384.38 104.60 C 380.68 101.46 375.52 101.43 370.93 101.43 C 292.44 101.58 213.93 101.24 135.45 101.60 Z" />
<path fill="#ffffff" opacity="1.00" d=" M 135.45 101.60 C 213.93 101.24 292.44 101.58 370.93 101.43 C 375.52 101.43 380.68 101.46 384.38 104.60 C 387.79 107.30 389.35 111.73 389.42 115.97 C 389.41 209.32 389.42 302.67 389.41 396.03 C 389.51 402.88 384.33 409.81 377.12 409.88 C 296.39 409.95 215.66 409.92 134.92 409.90 C 128.10 410.01 122.32 403.64 122.37 396.97 C 122.36 302.97 122.37 208.96 122.36 114.95 C 122.16 107.84 128.37 101.66 135.45 101.60 M 141.54 112.69 C 137.94 113.90 134.97 116.83 133.66 120.38 C 131.18 126.63 135.50 134.23 141.91 135.86 C 150.28 138.70 159.59 129.60 156.81 121.18 C 155.20 114.74 147.88 110.60 141.54 112.69 M 363.41 112.56 C 358.72 113.86 354.92 118.17 354.54 123.07 C 353.81 128.73 357.84 134.31 363.25 135.83 C 370.55 138.33 379.08 131.72 378.57 124.05 C 378.81 116.48 370.64 110.40 363.41 112.56 M 225.85 198.95 C 225.80 208.65 225.85 218.35 225.84 228.06 C 225.66 230.83 226.90 234.38 230.07 234.71 C 236.84 235.21 243.66 234.34 250.41 235.24 C 250.32 240.76 250.36 246.28 250.36 251.81 C 230.74 251.85 211.12 251.85 191.49 251.81 C 191.46 260.27 191.53 268.73 191.45 277.19 C 185.63 277.19 179.81 277.10 174.00 277.17 C 170.80 276.80 167.95 279.89 168.26 283.02 C 168.22 293.36 168.22 303.71 168.28 314.05 C 168.06 317.08 170.90 319.92 173.94 319.65 C 190.32 319.64 206.72 319.72 223.11 319.61 C 226.45 319.56 228.37 315.94 228.02 312.91 C 227.58 303.27 228.25 293.62 228.15 283.98 C 228.29 281.19 226.99 277.74 223.89 277.29 C 216.52 276.76 209.09 277.74 201.74 276.74 C 201.85 271.25 201.85 265.77 201.74 260.29 C 207.47 259.49 213.25 260.03 219.01 259.86 C 231.34 259.93 243.68 259.68 256.00 260.11 C 267.68 259.69 279.37 259.84 291.05 259.92 C 297.15 260.53 303.27 259.37 309.36 260.22 C 309.28 265.87 309.33 271.53 309.31 277.18 C 302.54 277.19 295.76 277.10 288.99 277.18 C 285.86 276.90 283.33 280.00 283.44 282.98 C 283.36 292.99 283.43 303.01 283.41 313.03 C 283.09 316.20 285.46 319.84 288.92 319.63 C 304.95 319.70 320.98 319.63 337.02 319.66 C 340.31 320.17 343.50 317.33 343.42 314.02 C 343.48 303.66 343.45 293.29 343.43 282.93 C 343.54 280.05 341.12 277.02 338.09 277.20 C 331.98 276.95 325.83 277.59 319.74 276.72 C 319.83 268.42 319.75 260.12 319.80 251.82 C 300.30 251.84 280.80 251.84 261.31 251.82 C 261.32 246.15 261.24 240.48 261.39 234.82 C 267.60 234.82 273.82 234.90 280.04 234.83 C 283.18 235.19 285.97 232.14 285.60 229.06 C 285.59 218.71 285.63 208.35 285.58 197.99 C 285.90 194.94 283.03 192.13 280.01 192.37 C 263.67 192.36 247.33 192.29 231.00 192.40 C 227.69 192.43 225.55 195.86 225.85 198.95 M 142.18 375.30 C 137.97 376.35 134.47 379.81 133.41 384.02 C 131.16 391.11 137.53 399.40 145.00 398.89 C 152.56 399.54 159.11 391.18 156.82 384.01 C 155.29 377.84 148.38 373.53 142.18 375.30 M 363.28 375.39 C 358.29 376.85 354.34 381.70 354.48 386.99 C 354.27 393.53 360.39 399.58 366.98 398.88 C 373.25 399.13 378.85 393.19 378.57 387.00 C 378.91 379.41 370.54 372.98 363.28 375.39 Z" />
<path fill="#01a651" opacity="1.00" d=" M 141.54 112.69 C 147.88 110.60 155.20 114.74 156.81 121.18 C 159.59 129.60 150.28 138.70 141.91 135.86 C 135.50 134.23 131.18 126.63 133.66 120.38 C 134.97 116.83 137.94 113.90 141.54 112.69 Z" />
<path fill="#01a651" opacity="1.00" d=" M 363.41 112.56 C 370.64 110.40 378.81 116.48 378.57 124.05 C 379.08 131.72 370.55 138.33 363.25 135.83 C 357.84 134.31 353.81 128.73 354.54 123.07 C 354.92 118.17 358.72 113.86 363.41 112.56 Z" />
<path fill="#01a651" opacity="1.00" d=" M 225.85 198.95 C 225.55 195.86 227.69 192.43 231.00 192.40 C 247.33 192.29 263.67 192.36 280.01 192.37 C 283.03 192.13 285.90 194.94 285.58 197.99 C 285.63 208.35 285.59 218.71 285.60 229.06 C 285.97 232.14 283.18 235.19 280.04 234.83 C 273.82 234.90 267.60 234.82 261.39 234.82 C 261.24 240.48 261.32 246.15 261.31 251.82 C 280.80 251.84 300.30 251.84 319.80 251.82 C 319.75 260.12 319.83 268.42 319.74 276.72 C 325.83 277.59 331.98 276.95 338.09 277.20 C 341.12 277.02 343.54 280.05 343.43 282.93 C 343.45 293.29 343.48 303.66 343.42 314.02 C 343.50 317.33 340.31 320.17 337.02 319.66 C 320.98 319.63 304.95 319.70 288.92 319.63 C 285.46 319.84 283.09 316.20 283.41 313.03 C 283.43 303.01 283.36 292.99 283.44 282.98 C 283.33 280.00 285.86 276.90 288.99 277.18 C 295.76 277.10 302.54 277.19 309.31 277.18 C 309.33 271.53 309.28 265.87 309.36 260.22 C 303.27 259.37 297.15 260.53 291.05 259.92 C 279.37 259.84 267.68 259.69 256.00 260.11 C 243.68 259.68 231.34 259.93 219.01 259.86 C 213.25 260.03 207.47 259.49 201.74 260.29 C 201.85 265.77 201.85 271.25 201.74 276.74 C 209.09 277.74 216.52 276.76 223.89 277.29 C 226.99 277.74 228.29 281.19 228.15 283.98 C 228.25 293.62 227.58 303.27 228.02 312.91 C 228.37 315.94 226.45 319.56 223.11 319.61 C 206.72 319.72 190.32 319.64 173.94 319.65 C 170.90 319.92 168.06 317.08 168.28 314.05 C 168.22 303.71 168.22 293.36 168.26 283.02 C 167.95 279.89 170.80 276.80 174.00 277.17 C 179.81 277.10 185.63 277.19 191.45 277.19 C 191.53 268.73 191.46 260.27 191.49 251.81 C 211.12 251.85 230.74 251.85 250.36 251.81 C 250.36 246.28 250.32 240.76 250.41 235.24 C 243.66 234.34 236.84 235.21 230.07 234.71 C 226.90 234.38 225.66 230.83 225.84 228.06 C 225.85 218.35 225.80 208.65 225.85 198.95 M 233.42 227.52 C 248.39 227.50 263.36 227.60 278.33 227.47 C 278.33 218.26 278.36 209.06 278.33 199.86 C 263.37 199.77 248.41 199.88 233.45 199.80 C 233.38 209.04 233.42 218.28 233.42 227.52 M 175.80 284.57 C 176.06 293.81 175.33 303.08 176.23 312.29 C 190.94 312.17 205.66 312.24 220.38 312.25 C 220.39 303.01 220.36 293.77 220.40 284.53 C 205.53 284.64 190.67 284.57 175.80 284.57 M 291.16 284.56 C 291.24 293.79 291.16 303.02 291.21 312.26 C 306.01 312.23 320.81 312.23 335.61 312.25 C 335.67 303.01 335.67 293.77 335.67 284.53 C 320.83 284.64 306.00 284.58 291.16 284.56 Z" />
<path fill="#ffffff" opacity="1.00" d=" M 233.42 227.52 C 233.42 218.28 233.38 209.04 233.45 199.80 C 248.41 199.88 263.37 199.77 278.33 199.86 C 278.36 209.06 278.33 218.26 278.33 227.47 C 263.36 227.60 248.39 227.50 233.42 227.52 Z" />
<path fill="#ffffff" opacity="1.00" d=" M 175.80 284.57 C 190.67 284.57 205.53 284.64 220.40 284.53 C 220.36 293.77 220.39 303.01 220.38 312.25 C 205.66 312.24 190.94 312.17 176.23 312.29 C 175.33 303.08 176.06 293.81 175.80 284.57 Z" />
<path fill="#ffffff" opacity="1.00" d=" M 291.16 284.56 C 306.00 284.58 320.83 284.64 335.67 284.53 C 335.67 293.77 335.67 303.01 335.61 312.25 C 320.81 312.23 306.01 312.23 291.21 312.26 C 291.16 303.02 291.24 293.79 291.16 284.56 Z" />
<path fill="#01a651" opacity="1.00" d=" M 142.18 375.30 C 148.38 373.53 155.29 377.84 156.82 384.01 C 159.11 391.18 152.56 399.54 145.00 398.89 C 137.53 399.40 131.16 391.11 133.41 384.02 C 134.47 379.81 137.97 376.35 142.18 375.30 Z" />
<path fill="#01a651" opacity="1.00" d=" M 363.28 375.39 C 370.54 372.98 378.91 379.41 378.57 387.00 C 378.85 393.19 373.25 399.13 366.98 398.88 C 360.39 399.58 354.27 393.53 354.48 386.99 C 354.34 381.70 358.29 376.85 363.28 375.39 Z" />
</svg>
