<?xml version="1.0" encoding="UTF-8" ?>
<!DOCTYPE svg PUBLIC "-//W3C//DTD SVG 1.1//EN" "http://www.w3.org/Graphics/SVG/1.1/DTD/svg11.dtd">
<svg width="512pt" height="512pt" viewBox="0 0 512 512" version="1.1" xmlns="http://www.w3.org/2000/svg">
<path fill="#ed1c24" opacity="1.00" d=" M 0.00 0.00 L 512.00 0.00 L 512.00 512.00 L 0.00 512.00 L 0.00 0.00 M 135.44 101.57 C 128.72 101.71 122.70 107.21 122.36 113.97 C 122.32 208.35 122.36 302.72 122.34 397.10 C 122.36 403.70 128.14 410.03 134.91 409.92 C 215.29 409.96 295.68 409.90 376.06 409.94 C 380.18 410.08 384.32 408.07 386.74 404.73 C 388.97 401.27 389.76 397.07 389.47 393.00 C 389.44 301.67 389.44 210.33 389.46 119.00 C 389.74 114.26 388.96 108.99 385.41 105.54 C 382.03 101.87 376.69 101.36 372.00 101.41 C 293.15 101.55 214.28 101.22 135.44 101.57 Z" />
<path fill="#ffffff" opacity="1.00" d=" M 135.44 101.57 C 214.28 101.22 293.15 101.55 372.00 101.41 C 376.69 101.36 382.03 101.87 385.41 105.54 C 388.96 108.99 389.74 114.26 389.46 119.00 C 389.44 210.33 389.44 301.67 389.47 393.00 C 389.76 397.07 388.97 401.27 386.74 404.73 C 384.32 408.07 380.18 410.08 376.06 409.94 C 295.68 409.90 215.29 409.96 134.91 409.92 C 128.14 410.03 122.36 403.70 122.34 397.10 C 122.36 302.72 122.32 208.35 122.36 113.97 C 122.70 107.21 128.72 101.71 135.44 101.57 M 141.56 112.68 C 137.07 114.17 133.64 118.36 133.01 123.04 C 132.36 129.46 137.55 135.72 143.98 136.29 C 151.90 137.24 159.34 128.74 156.76 121.04 C 155.06 114.69 147.86 110.65 141.56 112.68 M 363.36 112.59 C 359.12 113.78 355.68 117.41 354.73 121.71 C 353.40 127.41 356.90 133.51 362.34 135.50 C 369.77 138.82 379.16 132.03 378.56 123.99 C 378.74 116.42 370.58 110.41 363.36 112.59 M 246.64 168.88 C 232.80 170.21 219.21 174.31 207.04 181.06 C 186.39 192.40 169.85 211.11 161.42 233.14 C 153.20 254.00 152.23 277.60 158.73 299.06 C 165.21 321.07 179.53 340.63 198.41 353.63 C 214.93 365.02 234.90 371.39 254.97 371.49 C 279.54 371.89 304.12 362.83 322.58 346.61 C 336.86 334.32 347.51 317.90 353.02 299.88 C 359.59 278.78 358.96 255.52 351.24 234.81 C 343.41 213.49 328.16 195.01 308.74 183.25 C 290.30 171.94 268.16 166.94 246.64 168.88 M 142.28 375.27 C 138.00 376.34 134.42 379.83 133.39 384.15 C 131.25 391.18 137.55 399.36 144.95 398.88 C 151.09 399.43 156.54 394.06 157.20 388.15 C 158.12 380.32 149.94 373.09 142.28 375.27 M 364.14 375.16 C 358.82 376.35 354.34 381.36 354.52 386.94 C 354.22 393.51 360.42 399.58 367.02 398.88 C 373.24 399.09 378.82 393.19 378.57 387.02 C 378.88 379.77 371.22 373.47 364.14 375.16 Z" />
<path fill="#ed1c24" opacity="1.00" d=" M 141.56 112.68 C 147.86 110.65 155.06 114.69 156.76 121.04 C 159.34 128.74 151.90 137.24 143.98 136.29 C 137.55 135.72 132.36 129.46 133.01 123.04 C 133.64 118.36 137.07 114.17 141.56 112.68 Z" />
<path fill="#ed1c24" opacity="1.00" d=" M 363.36 112.59 C 370.58 110.41 378.74 116.42 378.56 123.99 C 379.16 132.03 369.77 138.82 362.34 135.50 C 356.90 133.51 353.40 127.41 354.73 121.71 C 355.68 117.41 359.12 113.78 363.36 112.59 Z" />
<path fill="#ed1c24" opacity="1.00" d=" M 246.64 168.88 C 268.16 166.94 290.30 171.94 308.74 183.25 C 328.16 195.01 343.41 213.49 351.24 234.81 C 358.96 255.52 359.59 278.78 353.02 299.88 C 347.51 317.90 336.86 334.32 322.58 346.61 C 304.12 362.83 279.54 371.89 254.97 371.49 C 234.90 371.39 214.93 365.02 198.41 353.63 C 179.53 340.63 165.21 321.07 158.73 299.06 C 152.23 277.60 153.20 254.00 161.42 233.14 C 169.85 211.11 186.39 192.40 207.04 181.06 C 219.21 174.31 232.80 170.21 246.64 168.88 M 216.87 204.34 C 219.61 208.01 222.71 211.41 225.64 214.94 C 225.61 209.91 225.64 204.89 225.60 199.86 C 222.62 201.21 219.71 202.71 216.87 204.34 M 233.65 200.15 C 233.49 208.21 233.66 216.29 233.56 224.36 C 234.40 225.34 235.24 226.32 236.09 227.32 C 250.00 227.30 263.92 227.36 277.83 227.28 C 277.78 218.23 277.86 209.19 277.79 200.14 C 263.08 200.14 248.37 200.12 233.65 200.15 M 286.12 199.73 C 286.02 209.50 286.14 219.27 286.07 229.04 C 286.15 232.33 283.38 235.42 280.00 235.29 C 273.86 235.35 267.72 235.30 261.59 235.28 C 261.55 240.77 261.55 246.26 261.59 251.75 C 281.17 251.69 300.76 251.70 320.35 251.75 C 320.36 260.08 320.34 268.41 320.36 276.74 C 324.30 276.73 328.24 276.74 332.18 276.70 C 333.44 260.47 329.73 243.81 321.07 229.96 C 312.91 216.58 300.47 205.98 286.12 199.73 M 179.79 276.68 C 183.57 276.76 187.36 276.75 191.15 276.69 C 191.15 268.38 191.18 260.07 191.12 251.76 C 202.29 251.67 213.46 251.73 224.62 251.73 C 215.70 241.25 206.83 230.73 198.02 220.16 C 184.71 235.60 178.15 256.39 179.79 276.68 M 242.70 235.35 C 245.23 238.15 247.65 241.06 250.15 243.89 C 250.06 241.03 250.17 238.17 249.91 235.32 C 247.50 235.30 245.10 235.30 242.70 235.35 M 202.11 260.25 C 202.11 265.73 202.10 271.21 202.12 276.70 C 208.75 276.79 215.38 276.67 222.01 276.74 C 225.46 276.42 228.51 279.62 228.40 283.01 C 228.45 293.32 228.45 303.65 228.40 313.97 C 228.43 317.27 225.49 320.15 222.19 320.07 C 214.17 320.21 206.15 319.87 198.13 319.87 C 210.18 333.96 227.54 343.37 245.93 345.72 C 262.85 348.08 280.44 344.36 295.12 335.68 C 274.23 310.35 252.82 285.42 231.75 260.23 C 221.87 260.18 211.99 260.15 202.11 260.25 M 263.74 260.29 C 270.28 267.89 276.81 275.50 283.09 283.31 C 283.08 280.41 284.94 277.41 287.92 276.86 C 295.01 276.38 302.15 277.15 309.24 276.49 C 309.04 271.09 309.20 265.68 309.13 260.28 C 294.00 260.15 278.87 260.13 263.74 260.29 M 180.96 284.74 C 182.95 294.37 186.72 303.58 192.01 311.88 C 201.41 312.18 210.84 312.10 220.25 311.92 C 220.25 302.85 220.27 293.79 220.24 284.73 C 207.15 284.71 194.05 284.69 180.96 284.74 M 293.04 294.97 C 297.82 300.59 302.59 306.22 307.31 311.90 C 311.53 312.13 315.77 312.13 319.99 311.88 C 325.29 303.60 329.04 294.37 331.03 284.73 C 317.84 284.69 304.66 284.72 291.48 284.72 C 291.89 288.11 290.20 292.34 293.04 294.97 Z" />
<path fill="#ffffff" opacity="1.00" d=" M 216.87 204.34 C 219.71 202.71 222.62 201.21 225.60 199.86 C 225.64 204.89 225.61 209.91 225.64 214.94 C 222.71 211.41 219.61 208.01 216.87 204.34 Z" />
<path fill="#ffffff" opacity="1.00" d=" M 233.65 200.15 C 248.37 200.12 263.08 200.14 277.79 200.14 C 277.86 209.19 277.78 218.23 277.83 227.28 C 263.92 227.36 250.00 227.30 236.09 227.32 C 235.24 226.32 234.40 225.34 233.56 224.36 C 233.66 216.29 233.49 208.21 233.65 200.15 Z" />
<path fill="#ffffff" opacity="1.00" d=" M 286.12 199.73 C 300.47 205.98 312.91 216.58 321.07 229.96 C 329.73 243.81 333.44 260.47 332.18 276.70 C 328.24 276.74 324.30 276.73 320.36 276.74 C 320.34 268.41 320.36 260.08 320.35 251.75 C 300.76 251.70 281.17 251.69 261.59 251.75 C 261.55 246.26 261.55 240.77 261.59 235.28 C 267.72 235.30 273.86 235.35 280.00 235.29 C 283.38 235.42 286.15 232.33 286.07 229.04 C 286.14 219.27 286.02 209.50 286.12 199.73 Z" />
<path fill="#ffffff" opacity="1.00" d=" M 179.79 276.68 C 178.15 256.39 184.71 235.60 198.02 220.16 C 206.83 230.73 215.70 241.25 224.62 251.73 C 213.46 251.73 202.29 251.67 191.12 251.76 C 191.18 260.07 191.15 268.38 191.15 276.69 C 187.36 276.75 183.57 276.76 179.79 276.68 Z" />
<path fill="#ffffff" opacity="1.00" d=" M 242.70 235.35 C 245.10 235.30 247.50 235.30 249.91 235.32 C 250.17 238.17 250.06 241.03 250.15 243.89 C 247.65 241.06 245.23 238.15 242.70 235.35 Z" />
<path fill="#ffffff" opacity="1.00" d=" M 202.11 260.25 C 211.99 260.15 221.87 260.18 231.75 260.23 C 252.82 285.42 274.23 310.35 295.12 335.68 C 280.44 344.36 262.85 348.08 245.93 345.72 C 227.54 343.37 210.18 333.96 198.13 319.87 C 206.15 319.87 214.17 320.21 222.19 320.07 C 225.49 320.15 228.43 317.27 228.40 313.97 C 228.45 303.65 228.45 293.32 228.40 283.01 C 228.51 279.62 225.46 276.42 222.01 276.74 C 215.38 276.67 208.75 276.79 202.12 276.70 C 202.10 271.21 202.11 265.73 202.11 260.25 Z" />
<path fill="#ffffff" opacity="1.00" d=" M 263.74 260.29 C 278.87 260.13 294.00 260.15 309.13 260.28 C 309.20 265.68 309.04 271.09 309.24 276.49 C 302.15 277.15 295.01 276.38 287.92 276.86 C 284.94 277.41 283.08 280.41 283.09 283.31 C 276.81 275.50 270.28 267.89 263.74 260.29 Z" />
<path fill="#ffffff" opacity="1.00" d=" M 180.96 284.74 C 194.05 284.69 207.15 284.71 220.24 284.73 C 220.27 293.79 220.25 302.85 220.25 311.92 C 210.84 312.10 201.41 312.18 192.01 311.88 C 186.72 303.58 182.95 294.37 180.96 284.74 Z" />
<path fill="#ffffff" opacity="1.00" d=" M 293.04 294.97 C 290.20 292.34 291.89 288.11 291.48 284.72 C 304.66 284.72 317.84 284.69 331.03 284.73 C 329.04 294.37 325.29 303.60 319.99 311.88 C 315.77 312.13 311.53 312.13 307.31 311.90 C 302.59 306.22 297.82 300.59 293.04 294.97 Z" />
<path fill="#ed1c24" opacity="1.00" d=" M 142.28 375.27 C 149.94 373.09 158.12 380.32 157.20 388.15 C 156.54 394.06 151.09 399.43 144.95 398.88 C 137.55 399.36 131.25 391.18 133.39 384.15 C 134.42 379.83 138.00 376.34 142.28 375.27 Z" />
<path fill="#ed1c24" opacity="1.00" d=" M 364.14 375.16 C 371.22 373.47 378.88 379.77 378.57 387.02 C 378.82 393.19 373.24 399.09 367.02 398.88 C 360.42 399.58 354.22 393.51 354.52 386.94 C 354.34 381.36 358.82 376.35 364.14 375.16 Z" />
</svg>
