<?xml version="1.0" encoding="UTF-8" ?>
<!DOCTYPE svg PUBLIC "-//W3C//DTD SVG 1.1//EN" "http://www.w3.org/Graphics/SVG/1.1/DTD/svg11.dtd">
<svg width="512pt" height="512pt" viewBox="0 0 512 512" version="1.1" xmlns="http://www.w3.org/2000/svg">
<path fill="#00a8ec" opacity="1.00" d=" M 0.00 0.00 L 512.00 0.00 L 512.00 512.00 L 0.00 512.00 L 0.00 0.00 M 109.19 155.92 C 109.21 222.61 109.20 289.31 109.19 356.00 C 108.69 360.31 113.58 361.53 116.93 360.88 C 210.67 360.82 304.41 360.89 398.14 360.85 C 400.02 361.10 401.18 359.49 402.34 358.33 C 402.14 289.90 402.36 221.47 402.23 153.05 C 400.74 151.74 399.28 150.00 397.06 150.45 C 303.00 150.45 208.94 150.46 114.88 150.44 C 111.87 149.98 108.73 152.85 109.19 155.92 Z" />
<path fill="#ffffff" opacity="1.00" d=" M 109.19 155.92 C 108.73 152.85 111.87 149.98 114.88 150.44 C 208.94 150.46 303.00 150.45 397.06 150.45 C 399.28 150.00 400.74 151.74 402.23 153.05 C 402.36 221.47 402.14 289.90 402.34 358.33 C 401.18 359.49 400.02 361.10 398.14 360.85 C 304.41 360.89 210.67 360.82 116.93 360.88 C 113.58 361.53 108.69 360.31 109.19 356.00 C 109.20 289.31 109.21 222.61 109.19 155.92 M 117.37 319.99 C 116.34 330.75 117.19 341.57 116.75 352.36 C 119.99 353.81 123.60 352.66 127.02 352.85 C 144.69 352.93 162.35 352.88 180.01 353.13 C 194.01 352.55 208.02 353.42 222.02 352.87 C 228.67 352.65 235.31 353.45 241.96 352.95 C 252.29 352.69 262.63 353.22 272.96 352.89 C 283.31 353.50 293.67 352.57 304.02 353.10 C 317.33 353.19 330.63 352.71 343.92 353.14 C 353.29 352.62 362.65 353.11 372.02 353.07 C 379.47 352.56 386.91 353.94 394.37 353.17 C 394.37 288.31 394.31 223.45 394.36 158.58 C 302.02 158.58 209.69 158.60 117.36 158.57 C 117.38 212.38 117.35 266.18 117.37 319.99 Z" />
<path fill="#00a8ec" opacity="1.00" d=" M 117.37 319.99 C 117.35 266.18 117.38 212.38 117.36 158.57 C 209.69 158.60 302.02 158.58 394.36 158.58 C 394.31 223.45 394.37 288.31 394.37 353.17 C 386.91 353.94 379.47 352.56 372.02 353.07 C 362.65 353.11 353.29 352.62 343.92 353.14 C 330.63 352.71 317.33 353.19 304.02 353.10 C 293.67 352.57 283.31 353.50 272.96 352.89 C 262.63 353.22 252.29 352.69 241.96 352.95 C 235.31 353.45 228.67 352.65 222.02 352.87 C 208.02 353.42 194.01 352.55 180.01 353.13 C 162.35 352.88 144.69 352.93 127.02 352.85 C 123.60 352.66 119.99 353.81 116.75 352.36 C 117.19 341.57 116.34 330.75 117.37 319.99 M 129.94 202.82 C 130.04 238.27 130.02 273.73 129.96 309.18 C 213.92 309.21 297.88 309.20 381.84 309.19 C 381.77 273.73 381.77 238.27 381.84 202.81 C 297.88 202.80 213.91 202.79 129.94 202.82 M 118.44 324.13 C 118.41 333.23 118.45 342.34 118.42 351.44 C 121.74 351.50 125.07 351.49 128.39 351.41 C 122.32 348.59 118.38 341.58 120.06 334.94 C 121.00 329.92 124.96 326.07 129.53 324.15 C 125.84 324.15 122.14 324.11 118.44 324.13 M 139.45 324.00 C 144.17 326.73 148.62 331.10 148.71 336.91 C 149.42 343.04 145.52 348.84 140.15 351.52 C 220.16 351.39 300.17 351.52 380.18 351.45 C 380.34 342.33 379.74 333.17 380.50 324.07 C 341.66 324.23 302.81 324.09 263.96 324.14 C 222.46 324.05 180.95 324.32 139.45 324.00 M 131.43 328.67 C 127.41 329.83 124.38 333.80 124.48 338.01 C 124.31 343.13 128.85 347.88 134.02 347.75 C 139.73 348.18 144.86 342.60 143.88 336.92 C 143.59 331.00 136.97 326.83 131.43 328.67 M 384.81 328.24 C 384.83 334.99 384.84 341.75 384.80 348.50 C 386.46 348.51 388.13 348.52 389.80 348.55 C 389.75 341.76 389.77 334.98 389.79 328.20 C 388.12 328.22 386.46 328.23 384.81 328.24 Z" />
<path fill="#ffffff" opacity="1.00" d=" M 129.94 202.82 C 213.91 202.79 297.88 202.80 381.84 202.81 C 381.77 238.27 381.77 273.73 381.84 309.19 C 297.88 309.20 213.92 309.21 129.96 309.18 C 130.02 273.73 130.04 238.27 129.94 202.82 M 145.27 243.57 C 151.66 243.56 158.05 243.57 164.45 243.57 C 164.40 237.28 164.44 231.00 164.42 224.71 C 158.05 224.73 151.69 224.75 145.33 224.70 C 145.25 230.99 145.33 237.28 145.27 243.57 M 170.74 224.73 C 170.74 231.00 170.76 237.28 170.72 243.55 C 177.02 243.58 183.32 243.55 189.62 243.57 C 189.56 237.28 189.62 230.99 189.57 224.71 C 183.29 224.75 177.01 224.72 170.74 224.73 M 195.88 224.74 C 195.84 230.97 195.97 237.20 195.79 243.43 C 202.12 243.72 208.45 243.49 214.78 243.57 C 214.72 237.29 214.76 231.00 214.74 224.72 C 208.45 224.74 202.17 224.71 195.88 224.74 M 221.20 224.72 C 221.18 231.00 221.23 237.29 221.16 243.57 C 227.42 243.56 233.67 243.57 239.92 243.57 C 239.83 237.28 239.90 231.00 239.88 224.72 C 233.65 224.73 227.42 224.73 221.20 224.72 M 246.30 243.57 C 252.60 243.55 258.89 243.59 265.19 243.54 C 265.14 237.27 265.17 231.00 265.17 224.73 C 258.92 224.69 252.67 224.82 246.43 224.64 C 246.21 230.95 246.42 237.26 246.30 243.57 M 271.47 243.57 C 277.76 243.56 284.05 243.57 290.33 243.56 C 290.28 237.28 290.31 231.00 290.31 224.72 C 284.04 224.73 277.77 224.74 271.51 224.71 C 271.48 231.00 271.53 237.28 271.47 243.57 M 296.65 224.72 C 296.65 231.00 296.68 237.28 296.63 243.57 C 302.92 243.56 309.21 243.56 315.50 243.57 C 315.43 237.28 315.48 231.00 315.47 224.71 C 309.20 224.74 302.93 224.73 296.65 224.72 M 321.81 224.73 C 321.80 231.00 321.82 237.28 321.79 243.55 C 328.08 243.58 334.37 243.55 340.67 243.57 C 340.59 237.29 340.65 231.00 340.63 224.71 C 334.35 224.75 328.08 224.72 321.81 224.73 M 347.10 224.72 C 347.08 231.00 347.15 237.28 347.05 243.56 C 353.31 243.57 359.57 243.56 365.82 243.57 C 365.74 237.28 365.79 231.00 365.79 224.72 C 359.56 224.73 353.33 224.73 347.10 224.72 M 145.27 248.20 C 145.31 254.41 145.30 260.62 145.28 266.83 C 151.66 266.82 158.04 266.80 164.42 266.84 C 164.43 260.62 164.42 254.40 164.43 248.18 C 158.04 248.21 151.66 248.18 145.27 248.20 M 170.73 248.20 C 170.75 254.40 170.75 260.61 170.73 266.82 C 177.02 266.83 183.31 266.81 189.61 266.83 C 189.59 260.62 189.58 254.41 189.61 248.19 C 183.32 248.19 177.02 248.19 170.73 248.20 M 195.87 248.23 C 195.88 254.42 195.88 260.60 195.87 266.78 C 202.17 266.86 208.47 266.80 214.77 266.83 C 214.74 260.61 214.73 254.40 214.77 248.19 C 208.47 248.21 202.17 248.15 195.87 248.23 M 221.17 248.19 C 221.22 254.40 221.21 260.61 221.17 266.83 C 227.41 266.81 233.66 266.82 239.91 266.82 C 239.86 260.61 239.85 254.40 239.92 248.19 C 233.67 248.19 227.42 248.19 221.17 248.19 M 246.31 248.19 C 246.35 254.40 246.35 260.62 246.31 266.83 C 252.60 266.81 258.89 266.82 265.17 266.82 C 265.16 260.61 265.16 254.40 265.17 248.19 C 258.88 248.19 252.59 248.19 246.31 248.19 M 271.49 248.18 C 271.50 254.40 271.51 260.62 271.49 266.84 C 277.76 266.81 284.04 266.81 290.32 266.84 C 290.30 260.62 290.30 254.40 290.32 248.18 C 284.04 248.19 277.77 248.20 271.49 248.18 M 296.65 248.18 C 296.66 254.40 296.66 260.62 296.65 266.84 C 302.92 266.81 309.20 266.80 315.48 266.84 C 315.46 260.62 315.45 254.40 315.48 248.18 C 309.20 248.20 302.92 248.20 296.65 248.18 M 321.80 248.19 C 321.81 254.40 321.81 260.61 321.80 266.83 C 328.08 266.82 334.37 266.81 340.66 266.83 C 340.62 260.62 340.61 254.40 340.66 248.19 C 334.38 248.19 328.09 248.20 321.80 248.19 M 347.06 248.20 C 347.12 254.40 347.11 260.61 347.07 266.82 C 353.32 266.82 359.56 266.81 365.81 266.83 C 365.77 260.62 365.76 254.40 365.81 248.19 C 359.56 248.19 353.31 248.19 347.06 248.20 M 145.28 290.59 C 151.67 290.57 158.06 290.58 164.45 290.58 C 164.40 284.30 164.44 278.02 164.42 271.74 C 158.07 271.74 151.72 271.80 145.38 271.70 C 145.19 277.99 145.35 284.29 145.28 290.59 M 170.74 271.75 C 170.73 278.02 170.76 284.29 170.72 290.57 C 177.01 290.60 183.31 290.56 189.61 290.59 C 189.57 284.31 189.62 278.02 189.57 271.73 C 183.29 271.77 177.02 271.75 170.74 271.75 M 196.09 271.70 C 195.70 277.99 195.82 284.31 196.02 290.61 C 202.27 290.55 208.52 290.59 214.77 290.59 C 214.72 284.31 214.76 278.03 214.74 271.75 C 208.53 271.73 202.31 271.80 196.09 271.70 M 221.20 271.74 C 221.19 278.02 221.23 284.30 221.16 290.59 C 244.22 290.57 267.28 290.59 290.33 290.58 C 290.29 284.30 290.31 278.02 290.31 271.75 C 267.27 271.75 244.24 271.76 221.20 271.74 M 296.65 271.75 C 296.65 278.02 296.68 284.30 296.63 290.58 C 302.92 290.58 309.21 290.58 315.50 290.59 C 315.44 284.30 315.47 278.02 315.47 271.74 C 309.20 271.76 302.92 271.75 296.65 271.75 M 321.80 271.75 C 321.80 278.02 321.83 284.28 321.78 290.55 C 328.07 290.62 334.37 290.56 340.66 290.59 C 340.60 284.30 340.65 278.02 340.62 271.73 C 334.35 271.77 328.08 271.75 321.80 271.75 M 347.10 271.75 C 347.09 278.03 347.14 284.30 347.06 290.58 C 353.31 290.58 359.56 290.57 365.82 290.59 C 365.75 284.31 365.79 278.03 365.78 271.75 C 359.55 271.75 353.33 271.75 347.10 271.75 Z" />
<path fill="#00a8ec" opacity="1.00" d=" M 145.27 243.57 C 145.33 237.28 145.25 230.99 145.33 224.70 C 151.69 224.75 158.05 224.73 164.42 224.71 C 164.44 231.00 164.40 237.28 164.45 243.57 C 158.05 243.57 151.66 243.56 145.27 243.57 Z" />
<path fill="#00a8ec" opacity="1.00" d=" M 170.74 224.73 C 177.01 224.72 183.29 224.75 189.57 224.71 C 189.62 230.99 189.56 237.28 189.62 243.57 C 183.32 243.55 177.02 243.58 170.72 243.55 C 170.76 237.28 170.74 231.00 170.74 224.73 Z" />
<path fill="#00a8ec" opacity="1.00" d=" M 195.88 224.74 C 202.17 224.71 208.45 224.74 214.74 224.72 C 214.76 231.00 214.72 237.29 214.78 243.57 C 208.45 243.49 202.12 243.72 195.79 243.43 C 195.97 237.20 195.84 230.97 195.88 224.74 Z" />
<path fill="#00a8ec" opacity="1.00" d=" M 221.20 224.72 C 227.42 224.73 233.65 224.73 239.88 224.72 C 239.90 231.00 239.83 237.28 239.92 243.57 C 233.67 243.57 227.42 243.56 221.16 243.57 C 221.23 237.29 221.18 231.00 221.20 224.72 Z" />
<path fill="#00a8ec" opacity="1.00" d=" M 246.30 243.57 C 246.42 237.26 246.21 230.95 246.43 224.64 C 252.67 224.82 258.92 224.69 265.17 224.73 C 265.17 231.00 265.14 237.27 265.19 243.54 C 258.89 243.59 252.60 243.55 246.30 243.57 Z" />
<path fill="#00a8ec" opacity="1.00" d=" M 271.47 243.57 C 271.53 237.28 271.48 231.00 271.51 224.71 C 277.77 224.74 284.04 224.73 290.31 224.72 C 290.31 231.00 290.28 237.28 290.33 243.56 C 284.05 243.57 277.76 243.56 271.47 243.57 Z" />
<path fill="#00a8ec" opacity="1.00" d=" M 296.65 224.72 C 302.93 224.73 309.20 224.74 315.47 224.71 C 315.48 231.00 315.43 237.28 315.50 243.57 C 309.21 243.56 302.92 243.56 296.63 243.57 C 296.68 237.28 296.65 231.00 296.65 224.72 Z" />
<path fill="#00a8ec" opacity="1.00" d=" M 321.81 224.73 C 328.08 224.72 334.35 224.75 340.63 224.71 C 340.65 231.00 340.59 237.29 340.67 243.57 C 334.37 243.55 328.08 243.58 321.79 243.55 C 321.82 237.28 321.80 231.00 321.81 224.73 Z" />
<path fill="#00a8ec" opacity="1.00" d=" M 347.10 224.72 C 353.33 224.73 359.56 224.73 365.79 224.72 C 365.79 231.00 365.74 237.28 365.82 243.57 C 359.57 243.56 353.31 243.57 347.05 243.56 C 347.15 237.28 347.08 231.00 347.10 224.72 Z" />
<path fill="#00a8ec" opacity="1.00" d=" M 145.27 248.20 C 151.66 248.18 158.04 248.21 164.43 248.18 C 164.42 254.40 164.43 260.62 164.42 266.84 C 158.04 266.80 151.66 266.82 145.28 266.83 C 145.30 260.62 145.31 254.41 145.27 248.20 Z" />
<path fill="#00a8ec" opacity="1.00" d=" M 170.73 248.20 C 177.02 248.19 183.32 248.19 189.61 248.19 C 189.58 254.41 189.59 260.62 189.61 266.83 C 183.31 266.81 177.02 266.83 170.73 266.82 C 170.75 260.61 170.75 254.40 170.73 248.20 Z" />
<path fill="#00a8ec" opacity="1.00" d=" M 195.87 248.23 C 202.17 248.15 208.47 248.21 214.77 248.19 C 214.73 254.40 214.74 260.61 214.77 266.83 C 208.47 266.80 202.17 266.86 195.87 266.78 C 195.88 260.60 195.88 254.42 195.87 248.23 Z" />
<path fill="#00a8ec" opacity="1.00" d=" M 221.17 248.19 C 227.42 248.19 233.67 248.19 239.92 248.19 C 239.85 254.40 239.86 260.61 239.91 266.82 C 233.66 266.82 227.41 266.81 221.17 266.83 C 221.21 260.61 221.22 254.40 221.17 248.19 Z" />
<path fill="#00a8ec" opacity="1.00" d=" M 246.31 248.19 C 252.59 248.19 258.88 248.19 265.17 248.19 C 265.16 254.40 265.16 260.61 265.17 266.82 C 258.89 266.82 252.60 266.81 246.31 266.83 C 246.35 260.62 246.35 254.40 246.31 248.19 Z" />
<path fill="#00a8ec" opacity="1.00" d=" M 271.49 248.18 C 277.77 248.20 284.04 248.19 290.32 248.18 C 290.30 254.40 290.30 260.62 290.32 266.84 C 284.04 266.81 277.76 266.81 271.49 266.84 C 271.51 260.62 271.50 254.40 271.49 248.18 Z" />
<path fill="#00a8ec" opacity="1.00" d=" M 296.65 248.18 C 302.92 248.20 309.20 248.20 315.48 248.18 C 315.45 254.40 315.46 260.62 315.48 266.84 C 309.20 266.80 302.92 266.81 296.65 266.84 C 296.66 260.62 296.66 254.40 296.65 248.18 Z" />
<path fill="#00a8ec" opacity="1.00" d=" M 321.80 248.19 C 328.09 248.20 334.38 248.19 340.66 248.19 C 340.61 254.40 340.62 260.62 340.66 266.83 C 334.37 266.81 328.08 266.82 321.80 266.83 C 321.81 260.61 321.81 254.40 321.80 248.19 Z" />
<path fill="#00a8ec" opacity="1.00" d=" M 347.06 248.20 C 353.31 248.19 359.56 248.19 365.81 248.19 C 365.76 254.40 365.77 260.62 365.81 266.83 C 359.56 266.81 353.32 266.82 347.07 266.82 C 347.11 260.61 347.12 254.40 347.06 248.20 Z" />
<path fill="#00a8ec" opacity="1.00" d=" M 145.28 290.59 C 145.35 284.29 145.19 277.99 145.38 271.70 C 151.72 271.80 158.07 271.74 164.42 271.74 C 164.44 278.02 164.40 284.30 164.45 290.58 C 158.06 290.58 151.67 290.57 145.28 290.59 Z" />
<path fill="#00a8ec" opacity="1.00" d=" M 170.74 271.75 C 177.02 271.75 183.29 271.77 189.57 271.73 C 189.62 278.02 189.57 284.31 189.61 290.59 C 183.31 290.56 177.01 290.60 170.72 290.57 C 170.76 284.29 170.73 278.02 170.74 271.75 Z" />
<path fill="#00a8ec" opacity="1.00" d=" M 196.09 271.70 C 202.31 271.80 208.53 271.73 214.74 271.75 C 214.76 278.03 214.72 284.31 214.77 290.59 C 208.52 290.59 202.27 290.55 196.02 290.61 C 195.82 284.31 195.70 277.99 196.09 271.70 Z" />
<path fill="#00a8ec" opacity="1.00" d=" M 221.20 271.74 C 244.24 271.76 267.27 271.75 290.31 271.75 C 290.31 278.02 290.29 284.30 290.33 290.58 C 267.28 290.59 244.22 290.57 221.16 290.59 C 221.23 284.30 221.19 278.02 221.20 271.74 Z" />
<path fill="#00a8ec" opacity="1.00" d=" M 296.65 271.75 C 302.92 271.75 309.20 271.76 315.47 271.74 C 315.47 278.02 315.44 284.30 315.50 290.59 C 309.21 290.58 302.92 290.58 296.63 290.58 C 296.68 284.30 296.65 278.02 296.65 271.75 Z" />
<path fill="#00a8ec" opacity="1.00" d=" M 321.80 271.75 C 328.08 271.75 334.35 271.77 340.62 271.73 C 340.65 278.02 340.60 284.30 340.66 290.59 C 334.37 290.56 328.07 290.62 321.78 290.55 C 321.83 284.28 321.80 278.02 321.80 271.75 Z" />
<path fill="#00a8ec" opacity="1.00" d=" M 347.10 271.75 C 353.33 271.75 359.55 271.75 365.78 271.75 C 365.79 278.03 365.75 284.31 365.82 290.59 C 359.56 290.57 353.31 290.58 347.06 290.58 C 347.14 284.30 347.09 278.03 347.10 271.75 Z" />
<path fill="#ffffff" opacity="1.00" d=" M 118.44 324.13 C 122.14 324.11 125.84 324.15 129.53 324.15 C 124.96 326.07 121.00 329.92 120.06 334.94 C 118.38 341.58 122.32 348.59 128.39 351.41 C 125.07 351.49 121.74 351.50 118.42 351.44 C 118.45 342.34 118.41 333.23 118.44 324.13 Z" />
<path fill="#ffffff" opacity="1.00" d=" M 139.45 324.00 C 180.95 324.32 222.46 324.05 263.96 324.14 C 302.81 324.09 341.66 324.23 380.50 324.07 C 379.74 333.17 380.34 342.33 380.18 351.45 C 300.17 351.52 220.16 351.39 140.15 351.52 C 145.52 348.84 149.42 343.04 148.71 336.91 C 148.62 331.10 144.17 326.73 139.45 324.00 Z" />
<path fill="#ffffff" opacity="1.00" d=" M 131.43 328.67 C 136.97 326.83 143.59 331.00 143.88 336.92 C 144.86 342.60 139.73 348.18 134.02 347.75 C 128.85 347.88 124.31 343.13 124.48 338.01 C 124.38 333.80 127.41 329.83 131.43 328.67 Z" />
<path fill="#ffffff" opacity="1.00" d=" M 384.81 328.24 C 386.46 328.23 388.12 328.22 389.79 328.20 C 389.77 334.98 389.75 341.76 389.80 348.55 C 388.13 348.52 386.46 348.51 384.80 348.50 C 384.84 341.75 384.83 334.99 384.81 328.24 Z" />
</svg>
