<?xml version="1.0" encoding="UTF-8" ?>
<!DOCTYPE svg PUBLIC "-//W3C//DTD SVG 1.1//EN" "http://www.w3.org/Graphics/SVG/1.1/DTD/svg11.dtd">
<svg width="512pt" height="512pt" viewBox="0 0 512 512" version="1.1" xmlns="http://www.w3.org/2000/svg">
<path fill="#009f3c" opacity="1.00" d=" M 0.00 0.00 L 512.00 0.00 L 512.00 512.00 L 0.00 512.00 L 0.00 0.00 M 279.84 128.74 C 279.85 144.24 279.85 159.74 279.84 175.25 C 283.17 175.25 286.51 175.25 289.84 175.27 C 289.84 159.75 289.94 144.23 289.84 128.71 C 286.51 128.72 283.17 128.72 279.84 128.74 M 332.17 128.72 C 332.18 144.24 332.15 159.75 332.19 175.26 C 335.53 175.25 338.87 175.25 342.21 175.25 C 342.20 159.74 342.20 144.24 342.21 128.73 C 338.86 128.72 335.51 128.72 332.17 128.72 M 186.22 142.32 C 186.25 144.94 186.25 147.55 186.28 150.17 C 207.31 150.20 228.35 150.16 249.38 150.19 C 249.40 147.59 249.41 144.99 249.47 142.39 C 228.39 142.23 207.31 142.37 186.22 142.32 M 134.65 168.91 C 133.32 172.47 133.71 176.32 133.67 180.03 C 133.68 239.68 133.67 299.32 133.67 358.96 C 133.74 363.32 133.18 367.87 134.94 372.00 C 137.47 378.87 144.67 383.60 151.98 383.32 C 195.99 383.30 240.00 383.30 284.01 383.31 C 285.96 383.31 287.89 382.92 289.81 382.57 C 289.97 352.42 289.88 322.31 289.89 292.16 C 286.54 292.15 283.19 292.15 279.84 292.18 C 279.87 315.71 279.81 339.25 279.87 362.78 C 238.37 362.78 196.86 362.76 155.36 362.80 C 155.41 300.70 155.40 238.60 155.37 176.50 C 194.68 176.56 234.00 176.47 273.32 176.54 C 273.26 169.94 273.30 163.33 273.30 156.73 C 234.86 156.74 196.42 156.73 157.98 156.73 C 154.29 156.78 150.52 156.42 146.91 157.41 C 141.22 158.84 136.45 163.34 134.65 168.91 M 244.52 182.77 C 244.50 186.14 244.50 189.51 244.51 192.88 C 288.87 192.84 333.23 192.85 377.59 192.87 C 377.60 189.48 377.63 186.10 377.48 182.72 C 333.16 182.87 288.84 182.75 244.52 182.77 M 260.27 199.60 C 260.34 222.72 260.30 245.85 260.30 268.97 C 260.35 272.13 259.92 275.52 261.50 278.42 C 263.54 282.72 268.18 285.65 272.96 285.42 C 298.29 285.37 323.63 285.35 348.97 285.43 C 355.30 285.85 361.61 280.51 361.71 274.07 C 361.78 249.25 361.66 224.42 361.77 199.60 C 327.94 199.58 294.10 199.58 260.27 199.60 M 170.44 347.52 C 201.90 347.49 233.36 347.50 264.82 347.52 C 264.75 328.49 264.87 309.47 264.76 290.44 C 258.52 287.39 253.82 281.04 253.65 273.97 C 253.55 260.21 253.70 246.45 253.59 232.69 C 225.88 232.75 198.17 232.73 170.47 232.70 C 170.41 270.97 170.47 309.24 170.44 347.52 M 296.64 292.14 C 296.64 322.52 296.65 352.90 296.64 383.28 C 306.23 383.27 315.82 383.27 325.41 383.28 C 325.42 352.90 325.39 322.53 325.43 292.15 C 315.83 292.15 306.23 292.18 296.64 292.14 Z" />
<path fill="#ffffff" opacity="1.00" d=" M 279.84 128.74 C 283.17 128.72 286.51 128.72 289.84 128.71 C 289.94 144.23 289.84 159.75 289.84 175.27 C 286.51 175.25 283.17 175.25 279.84 175.25 C 279.85 159.74 279.85 144.24 279.84 128.74 Z" />
<path fill="#ffffff" opacity="1.00" d=" M 332.17 128.72 C 335.51 128.72 338.86 128.72 342.21 128.73 C 342.20 144.24 342.20 159.74 342.21 175.25 C 338.87 175.25 335.53 175.25 332.19 175.26 C 332.15 159.75 332.18 144.24 332.17 128.72 Z" />
<path fill="#ffffff" opacity="1.00" d=" M 186.22 142.32 C 207.31 142.37 228.39 142.23 249.47 142.39 C 249.41 144.99 249.40 147.59 249.38 150.19 C 228.35 150.16 207.31 150.20 186.28 150.17 C 186.25 147.55 186.25 144.94 186.22 142.32 Z" />
<path fill="#ffffff" opacity="1.00" d=" M 134.65 168.91 C 136.45 163.34 141.22 158.84 146.91 157.41 C 150.52 156.42 154.29 156.78 157.98 156.73 C 196.42 156.73 234.86 156.74 273.30 156.73 C 273.30 163.33 273.26 169.94 273.32 176.54 C 234.00 176.47 194.68 176.56 155.37 176.50 C 155.40 238.60 155.41 300.70 155.36 362.80 C 196.86 362.76 238.37 362.78 279.87 362.78 C 279.81 339.25 279.87 315.71 279.84 292.18 C 283.19 292.15 286.54 292.15 289.89 292.16 C 289.88 322.31 289.97 352.42 289.81 382.57 C 287.89 382.92 285.96 383.31 284.01 383.31 C 240.00 383.30 195.99 383.30 151.98 383.32 C 144.67 383.60 137.47 378.87 134.94 372.00 C 133.18 367.87 133.74 363.32 133.67 358.96 C 133.67 299.32 133.68 239.68 133.67 180.03 C 133.71 176.32 133.32 172.47 134.65 168.91 Z" />
<path fill="#ffffff" opacity="1.00" d=" M 244.52 182.77 C 288.84 182.75 333.16 182.87 377.48 182.72 C 377.63 186.10 377.60 189.48 377.59 192.87 C 333.23 192.85 288.87 192.84 244.51 192.88 C 244.50 189.51 244.50 186.14 244.52 182.77 Z" />
<path fill="#ffffff" opacity="1.00" d=" M 260.27 199.60 C 294.10 199.58 327.94 199.58 361.77 199.60 C 361.66 224.42 361.78 249.25 361.71 274.07 C 361.61 280.51 355.30 285.85 348.97 285.43 C 323.63 285.35 298.29 285.37 272.96 285.42 C 268.18 285.65 263.54 282.72 261.50 278.42 C 259.92 275.52 260.35 272.13 260.30 268.97 C 260.30 245.85 260.34 222.72 260.27 199.60 Z" />
<path fill="#ffffff" opacity="1.00" d=" M 170.44 347.52 C 170.47 309.24 170.41 270.97 170.47 232.70 C 198.17 232.73 225.88 232.75 253.59 232.69 C 253.70 246.45 253.55 260.21 253.65 273.97 C 253.82 281.04 258.52 287.39 264.76 290.44 C 264.87 309.47 264.75 328.49 264.82 347.52 C 233.36 347.50 201.90 347.49 170.44 347.52 Z" />
<path fill="#ffffff" opacity="1.00" d=" M 296.64 292.14 C 306.23 292.18 315.83 292.15 325.43 292.15 C 325.39 322.53 325.42 352.90 325.41 383.28 C 315.82 383.27 306.23 383.27 296.64 383.28 C 296.65 352.90 296.64 322.52 296.64 292.14 Z" />
</svg>
