<?xml version="1.0" encoding="UTF-8" ?>
<!DOCTYPE svg PUBLIC "-//W3C//DTD SVG 1.1//EN" "http://www.w3.org/Graphics/SVG/1.1/DTD/svg11.dtd">
<svg width="512pt" height="512pt" viewBox="0 0 512 512" version="1.1" xmlns="http://www.w3.org/2000/svg">
<path fill="#df0024" opacity="1.00" d=" M 0.00 0.00 L 512.00 0.00 L 512.00 512.00 L 0.00 512.00 L 0.00 0.00 M 196.22 149.94 C 196.12 164.41 196.25 178.88 196.16 193.34 C 236.28 193.36 276.39 193.33 316.51 193.36 C 316.46 178.86 316.57 164.37 316.46 149.88 C 316.41 145.04 311.69 141.28 307.00 141.58 C 275.00 141.57 243.01 141.59 211.01 141.57 C 208.33 141.60 205.63 141.41 202.97 141.82 C 199.31 142.69 196.14 146.05 196.22 149.94 M 165.15 159.27 C 163.03 159.68 161.90 161.90 162.17 163.93 C 162.18 179.76 162.12 195.59 162.20 211.42 C 153.15 211.66 144.09 211.46 135.03 211.53 C 130.09 211.63 124.83 210.89 120.27 213.26 C 114.23 215.98 110.06 222.39 110.15 229.03 C 110.10 252.68 110.12 276.33 110.14 299.98 C 109.74 309.11 117.81 317.70 126.98 317.68 C 148.59 317.73 170.19 317.68 191.80 317.71 C 191.73 298.13 191.75 278.55 191.78 258.98 C 191.54 251.31 198.31 244.25 206.04 244.54 C 239.68 244.54 273.31 244.53 306.94 244.54 C 314.65 244.27 321.35 251.32 321.12 258.94 C 321.20 278.53 321.19 298.11 321.12 317.70 C 342.43 317.70 363.74 317.71 385.05 317.70 C 394.38 317.87 402.53 309.22 402.27 299.97 C 402.26 276.32 402.28 252.67 402.26 229.02 C 402.31 219.84 394.19 211.58 385.00 211.56 C 373.50 211.48 362.00 211.55 350.51 211.53 C 350.57 195.67 350.52 179.80 350.54 163.94 C 350.76 161.99 349.70 159.86 347.71 159.34 C 343.89 158.39 339.95 159.07 336.07 158.93 C 332.99 158.94 329.72 158.42 326.82 159.70 C 325.08 160.86 324.69 163.06 324.79 165.01 C 324.85 180.51 324.76 196.02 324.84 211.53 C 279.12 211.51 233.40 211.54 187.68 211.52 C 187.68 195.35 187.75 179.18 187.65 163.02 C 187.52 158.59 182.15 158.90 178.98 158.94 C 174.37 159.44 169.70 158.25 165.15 159.27 M 204.48 253.59 C 201.66 254.22 200.36 257.34 200.62 259.99 C 200.69 295.00 200.58 330.02 200.67 365.03 C 200.51 368.37 203.85 370.89 207.03 370.48 C 240.02 370.47 273.01 370.48 305.99 370.48 C 309.15 370.88 312.42 368.29 312.25 365.00 C 312.28 329.64 312.27 294.28 312.25 258.92 C 312.47 255.60 309.30 252.89 306.07 253.37 C 274.71 253.35 243.35 253.38 211.99 253.36 C 209.49 253.38 206.96 253.21 204.48 253.59 Z" />
<path fill="#ffffff" opacity="1.00" d=" M 196.22 149.94 C 196.14 146.05 199.31 142.69 202.97 141.82 C 205.63 141.41 208.33 141.60 211.01 141.57 C 243.01 141.59 275.00 141.57 307.00 141.58 C 311.69 141.28 316.41 145.04 316.46 149.88 C 316.57 164.37 316.46 178.86 316.51 193.36 C 276.39 193.33 236.28 193.36 196.16 193.34 C 196.25 178.88 196.12 164.41 196.22 149.94 Z" />
<path fill="#ffffff" opacity="1.00" d=" M 165.15 159.27 C 169.70 158.25 174.37 159.44 178.98 158.94 C 182.15 158.90 187.52 158.59 187.65 163.02 C 187.75 179.18 187.68 195.35 187.68 211.52 C 233.40 211.54 279.12 211.51 324.84 211.53 C 324.76 196.02 324.85 180.51 324.79 165.01 C 324.69 163.06 325.08 160.86 326.82 159.70 C 329.72 158.42 332.99 158.94 336.07 158.93 C 339.95 159.07 343.89 158.39 347.71 159.34 C 349.70 159.86 350.76 161.99 350.54 163.94 C 350.52 179.80 350.57 195.67 350.51 211.53 C 362.00 211.55 373.50 211.48 385.00 211.56 C 394.19 211.58 402.31 219.84 402.26 229.02 C 402.28 252.67 402.26 276.32 402.27 299.97 C 402.53 309.22 394.38 317.87 385.05 317.70 C 363.74 317.71 342.43 317.70 321.12 317.70 C 321.19 298.11 321.20 278.53 321.12 258.94 C 321.35 251.32 314.65 244.27 306.94 244.54 C 273.31 244.53 239.68 244.54 206.04 244.54 C 198.31 244.25 191.54 251.31 191.78 258.98 C 191.75 278.55 191.73 298.13 191.80 317.71 C 170.19 317.68 148.59 317.73 126.98 317.68 C 117.81 317.70 109.74 309.11 110.14 299.98 C 110.12 276.33 110.10 252.68 110.15 229.03 C 110.06 222.39 114.23 215.98 120.27 213.26 C 124.83 210.89 130.09 211.63 135.03 211.53 C 144.09 211.46 153.15 211.66 162.20 211.42 C 162.12 195.59 162.18 179.76 162.17 163.93 C 161.90 161.90 163.03 159.68 165.15 159.27 M 368.20 225.19 C 364.34 226.03 361.12 229.08 360.00 232.87 C 357.96 238.91 362.55 246.11 368.89 246.80 C 375.31 248.09 381.90 242.51 381.66 235.97 C 381.96 229.19 374.75 223.39 368.20 225.19 M 368.89 251.82 C 365.71 252.43 362.81 254.40 361.13 257.18 C 357.62 262.53 360.23 270.35 366.03 272.83 C 372.47 276.16 381.08 271.24 381.60 264.05 C 382.67 257.11 375.76 250.54 368.89 251.82 Z" />
<path fill="#df0024" opacity="1.00" d=" M 368.20 225.19 C 374.75 223.39 381.96 229.19 381.66 235.97 C 381.90 242.51 375.31 248.09 368.89 246.80 C 362.55 246.11 357.96 238.91 360.00 232.87 C 361.12 229.08 364.34 226.03 368.20 225.19 M 367.40 231.42 C 363.27 234.01 365.11 241.36 370.05 241.50 C 373.97 242.17 377.54 237.57 375.86 233.95 C 374.71 230.67 370.14 229.17 367.40 231.42 Z" />
<path fill="#ffffff" opacity="1.00" d=" M 367.40 231.42 C 370.14 229.17 374.71 230.67 375.86 233.95 C 377.54 237.57 373.97 242.17 370.05 241.50 C 365.11 241.36 363.27 234.01 367.40 231.42 Z" />
<path fill="#df0024" opacity="1.00" d=" M 368.89 251.82 C 375.76 250.54 382.67 257.11 381.60 264.05 C 381.08 271.24 372.47 276.16 366.03 272.83 C 360.23 270.35 357.62 262.53 361.13 257.18 C 362.81 254.40 365.71 252.43 368.89 251.82 M 368.45 257.63 C 364.51 259.13 363.87 265.26 367.51 267.45 C 370.91 270.12 376.18 267.15 376.26 263.01 C 376.53 259.05 372.07 256.01 368.45 257.63 Z" />
<path fill="#ffffff" opacity="1.00" d=" M 204.48 253.59 C 206.96 253.21 209.49 253.38 211.99 253.36 C 243.35 253.38 274.71 253.35 306.07 253.37 C 309.30 252.89 312.47 255.60 312.25 258.92 C 312.27 294.28 312.28 329.64 312.25 365.00 C 312.42 368.29 309.15 370.88 305.99 370.48 C 273.01 370.48 240.02 370.47 207.03 370.48 C 203.85 370.89 200.51 368.37 200.67 365.03 C 200.58 330.02 200.69 295.00 200.62 259.99 C 200.36 257.34 201.66 254.22 204.48 253.59 Z" />
<path fill="#ffffff" opacity="1.00" d=" M 368.45 257.63 C 372.07 256.01 376.53 259.05 376.26 263.01 C 376.18 267.15 370.91 270.12 367.51 267.45 C 363.87 265.26 364.51 259.13 368.45 257.63 Z" />
</svg>
