<?xml version="1.0" encoding="UTF-8" ?>
<!DOCTYPE svg PUBLIC "-//W3C//DTD SVG 1.1//EN" "http://www.w3.org/Graphics/SVG/1.1/DTD/svg11.dtd">
<svg width="512pt" height="512pt" viewBox="0 0 512 512" version="1.1" xmlns="http://www.w3.org/2000/svg">
<path fill="#1e86ea" opacity="1.00" d=" M 0.00 0.00 L 512.00 0.00 L 512.00 512.00 L 0.00 512.00 L 0.00 0.00 M 148.33 105.44 C 126.23 109.35 107.56 128.52 105.18 150.95 C 105.14 220.64 105.15 290.33 105.18 360.02 C 106.57 374.42 114.87 387.82 126.47 396.33 C 134.44 402.30 144.19 405.56 153.99 406.79 C 221.67 406.84 289.35 406.81 357.03 406.80 C 369.60 405.37 382.05 400.16 390.96 390.98 C 400.33 381.77 405.77 368.94 406.81 355.94 C 406.79 288.62 406.85 221.30 406.78 153.98 C 405.48 144.00 402.12 134.05 395.92 126.00 C 387.41 114.66 374.20 106.64 360.04 105.18 C 291.71 105.12 223.37 105.18 155.03 105.15 C 152.79 105.16 150.54 105.08 148.33 105.44 Z" />
<path fill="#ffffff" opacity="1.00" d=" M 148.33 105.44 C 150.54 105.08 152.79 105.16 155.03 105.15 C 223.37 105.18 291.71 105.12 360.04 105.18 C 374.20 106.64 387.41 114.66 395.92 126.00 C 402.12 134.05 405.48 144.00 406.78 153.98 C 406.85 221.30 406.79 288.62 406.81 355.94 C 405.77 368.94 400.33 381.77 390.96 390.98 C 382.05 400.16 369.60 405.37 357.03 406.80 C 289.35 406.81 221.67 406.84 153.99 406.79 C 144.19 405.56 134.44 402.30 126.47 396.33 C 114.87 387.82 106.57 374.42 105.18 360.02 C 105.15 290.33 105.14 220.64 105.18 150.95 C 107.56 128.52 126.23 109.35 148.33 105.44 M 154.26 114.48 C 136.29 115.90 120.15 129.54 115.77 147.02 C 113.77 153.85 114.28 161.02 114.23 168.04 C 114.24 229.70 114.19 291.35 114.26 353.01 C 114.12 370.10 124.94 386.69 140.74 393.28 C 149.24 397.29 158.83 397.09 168.01 397.05 C 228.00 397.05 288.00 397.05 347.99 397.05 C 355.56 397.02 363.41 396.62 370.37 393.32 C 382.89 388.08 392.49 376.59 395.67 363.43 C 397.10 357.41 396.97 351.19 397.05 345.05 C 396.98 283.35 397.08 221.66 396.99 159.97 C 397.12 149.48 393.92 138.88 387.21 130.72 C 378.86 120.17 365.47 114.07 352.06 114.23 C 288.36 114.22 224.67 114.23 160.97 114.22 C 158.73 114.23 156.49 114.27 154.26 114.48 Z" />
<path fill="#1e86ea" opacity="1.00" d=" M 154.26 114.48 C 156.49 114.27 158.73 114.23 160.97 114.22 C 224.67 114.23 288.36 114.22 352.06 114.23 C 365.47 114.07 378.86 120.17 387.21 130.72 C 393.92 138.88 397.12 149.48 396.99 159.97 C 397.08 221.66 396.98 283.35 397.05 345.05 C 396.97 351.19 397.10 357.41 395.67 363.43 C 392.49 376.59 382.89 388.08 370.37 393.32 C 363.41 396.62 355.56 397.02 347.99 397.05 C 288.00 397.05 228.00 397.05 168.01 397.05 C 158.83 397.09 149.24 397.29 140.74 393.28 C 124.94 386.69 114.12 370.10 114.26 353.01 C 114.19 291.35 114.24 229.70 114.23 168.04 C 114.28 161.02 113.77 153.85 115.77 147.02 C 120.15 129.54 136.29 115.90 154.26 114.48 M 235.56 129.90 C 201.25 135.21 169.52 155.30 150.22 184.19 C 130.61 212.64 123.80 249.36 131.31 283.04 C 137.83 313.81 156.54 341.67 182.25 359.72 C 209.38 379.01 244.27 386.76 277.04 381.05 C 307.99 376.02 336.68 358.80 355.89 334.06 C 376.88 307.53 386.32 272.39 381.76 238.91 C 378.14 210.65 364.64 183.73 344.03 164.05 C 315.94 136.37 274.41 123.58 235.56 129.90 Z" />
<path fill="#ffffff" opacity="1.00" d=" M 235.56 129.90 C 274.41 123.58 315.94 136.37 344.03 164.05 C 364.64 183.73 378.14 210.65 381.76 238.91 C 386.32 272.39 376.88 307.53 355.89 334.06 C 336.68 358.80 307.99 376.02 277.04 381.05 C 244.27 386.76 209.38 379.01 182.25 359.72 C 156.54 341.67 137.83 313.81 131.31 283.04 C 123.80 249.36 130.61 212.64 150.22 184.19 C 169.52 155.30 201.25 135.21 235.56 129.90 M 247.51 218.68 C 229.45 222.36 215.86 240.68 217.98 259.06 C 218.88 269.86 224.79 280.03 233.59 286.31 C 243.91 293.86 258.16 295.65 269.94 290.59 C 285.39 284.56 295.46 267.42 293.19 251.00 C 291.93 241.24 286.78 232.07 279.04 225.99 C 270.33 218.98 258.42 216.25 247.51 218.68 Z" />
<path fill="#1e86ea" opacity="1.00" d=" M 247.51 218.68 C 258.42 216.25 270.33 218.98 279.04 225.99 C 286.78 232.07 291.93 241.24 293.19 251.00 C 295.46 267.42 285.39 284.56 269.94 290.59 C 258.16 295.65 243.91 293.86 233.59 286.31 C 224.79 280.03 218.88 269.86 217.98 259.06 C 215.86 240.68 229.45 222.36 247.51 218.68 Z" />
</svg>
