<?xml version="1.0" encoding="UTF-8" ?>
<!DOCTYPE svg PUBLIC "-//W3C//DTD SVG 1.1//EN" "http://www.w3.org/Graphics/SVG/1.1/DTD/svg11.dtd">
<svg width="512pt" height="512pt" viewBox="0 0 512 512" version="1.1" xmlns="http://www.w3.org/2000/svg">
<path fill="#486887" opacity="1.00" d=" M 0.00 0.00 L 512.00 0.00 L 512.00 512.00 L 0.00 512.00 L 0.00 0.00 M 96.87 161.14 C 96.89 216.34 96.73 271.54 96.95 326.74 C 147.40 326.62 197.85 326.68 248.30 326.71 C 248.38 328.34 247.82 329.70 246.13 330.10 C 235.24 334.92 224.25 339.53 213.41 344.45 C 210.42 345.34 210.40 351.02 213.95 350.80 C 241.65 350.91 269.36 350.82 297.06 350.85 C 298.77 351.13 301.00 350.03 300.62 348.02 C 300.67 345.89 298.81 344.50 297.03 343.83 C 286.64 339.31 276.26 334.76 265.88 330.25 C 264.05 329.84 263.33 328.49 263.55 326.68 C 313.83 326.64 364.11 326.75 414.39 326.62 C 414.25 271.46 414.37 216.29 414.33 161.13 C 308.51 161.17 202.69 161.14 96.87 161.14 Z" />
<path fill="#ffffff" opacity="1.00" d=" M 96.87 161.14 C 202.69 161.14 308.51 161.17 414.33 161.13 C 414.37 216.29 414.25 271.46 414.39 326.62 C 364.11 326.75 313.83 326.64 263.55 326.68 C 263.33 328.49 264.05 329.84 265.88 330.25 C 276.26 334.76 286.64 339.31 297.03 343.83 C 298.81 344.50 300.67 345.89 300.62 348.02 C 301.00 350.03 298.77 351.13 297.06 350.85 C 269.36 350.82 241.65 350.91 213.95 350.80 C 210.40 351.02 210.42 345.34 213.41 344.45 C 224.25 339.53 235.24 334.92 246.13 330.10 C 247.82 329.70 248.38 328.34 248.30 326.71 C 197.85 326.68 147.40 326.62 96.95 326.74 C 96.73 271.54 96.89 216.34 96.87 161.14 M 105.62 169.85 C 105.55 219.19 105.61 268.53 105.59 317.87 C 205.78 317.77 305.96 317.88 406.14 317.82 C 406.32 268.69 406.02 219.55 406.29 170.42 C 404.84 170.16 403.39 169.77 401.92 169.88 C 392.28 170.50 382.63 169.63 373.00 170.18 C 352.99 170.01 332.99 170.24 312.99 169.98 C 299.01 170.07 285.00 170.48 271.02 169.90 C 233.00 170.46 194.97 169.86 156.93 170.16 C 139.83 169.80 122.71 170.50 105.62 169.85 Z" />
<path fill="#486887" opacity="1.00" d=" M 105.62 169.85 C 122.71 170.50 139.83 169.80 156.93 170.16 C 194.97 169.86 233.00 170.46 271.02 169.90 C 285.00 170.48 299.01 170.07 312.99 169.98 C 332.99 170.24 352.99 170.01 373.00 170.18 C 382.63 169.63 392.28 170.50 401.92 169.88 C 403.39 169.77 404.84 170.16 406.29 170.42 C 406.02 219.55 406.32 268.69 406.14 317.82 C 305.96 317.88 205.78 317.77 105.59 317.87 C 105.61 268.53 105.55 219.19 105.62 169.85 M 249.38 216.62 C 241.79 218.37 235.08 223.48 231.32 230.28 C 225.95 239.70 226.76 252.13 233.30 260.77 C 239.49 269.26 250.76 273.80 261.09 271.68 C 268.77 270.28 275.78 265.51 279.85 258.85 C 284.66 251.24 285.35 241.29 281.87 233.01 C 276.87 220.64 262.31 213.18 249.38 216.62 Z" />
<path fill="#ffffff" opacity="1.00" d=" M 249.38 216.62 C 262.31 213.18 276.87 220.64 281.87 233.01 C 285.35 241.29 284.66 251.24 279.85 258.85 C 275.78 265.51 268.77 270.28 261.09 271.68 C 250.76 273.80 239.49 269.26 233.30 260.77 C 226.76 252.13 225.95 239.70 231.32 230.28 C 235.08 223.48 241.79 218.37 249.38 216.62 Z" />
</svg>
