<?xml version="1.0" encoding="UTF-8" ?>
<!DOCTYPE svg PUBLIC "-//W3C//DTD SVG 1.1//EN" "http://www.w3.org/Graphics/SVG/1.1/DTD/svg11.dtd">
<svg width="512pt" height="512pt" viewBox="0 0 512 512" version="1.1" xmlns="http://www.w3.org/2000/svg">
<path fill="#df0024" opacity="1.00" d=" M 0.00 0.00 L 512.00 0.00 L 512.00 512.00 L 0.00 512.00 L 0.00 0.00 M 230.61 115.79 C 225.32 118.55 221.96 124.32 222.05 130.28 C 244.46 130.19 266.87 130.32 289.27 130.21 C 289.15 122.39 283.10 114.65 275.02 114.20 C 264.00 113.97 252.97 114.18 241.94 114.10 C 238.13 114.16 234.03 113.74 230.61 115.79 M 152.39 172.58 C 221.22 172.35 290.05 172.56 358.88 172.47 C 358.92 161.84 353.46 151.29 344.55 145.42 C 338.87 141.45 331.87 139.67 324.99 139.73 C 277.98 139.79 230.98 139.69 183.97 139.78 C 166.92 139.97 151.68 155.42 152.39 172.58 M 167.79 182.25 C 167.87 245.53 167.74 308.80 167.85 372.08 C 168.00 385.71 180.28 397.87 193.92 397.79 C 233.27 397.79 272.63 397.78 311.99 397.79 C 316.30 397.77 320.76 398.11 324.88 396.54 C 335.66 393.05 343.43 382.28 343.37 370.94 C 343.50 308.03 343.24 245.11 343.50 182.19 C 284.93 182.24 226.36 182.12 167.79 182.25 Z" />
<path fill="#ffffff" opacity="1.00" d=" M 230.61 115.79 C 234.03 113.74 238.13 114.16 241.94 114.10 C 252.97 114.18 264.00 113.97 275.02 114.20 C 283.10 114.65 289.15 122.39 289.27 130.21 C 266.87 130.32 244.46 130.19 222.05 130.28 C 221.96 124.32 225.32 118.55 230.61 115.79 Z" />
<path fill="#ffffff" opacity="1.00" d=" M 152.39 172.58 C 151.68 155.42 166.92 139.97 183.97 139.78 C 230.98 139.69 277.98 139.79 324.99 139.73 C 331.87 139.67 338.87 141.45 344.55 145.42 C 353.46 151.29 358.92 161.84 358.88 172.47 C 290.05 172.56 221.22 172.35 152.39 172.58 Z" />
<path fill="#ffffff" opacity="1.00" d=" M 167.79 182.25 C 226.36 182.12 284.93 182.24 343.50 182.19 C 343.24 245.11 343.50 308.03 343.37 370.94 C 343.43 382.28 335.66 393.05 324.88 396.54 C 320.76 398.11 316.30 397.77 311.99 397.79 C 272.63 397.78 233.27 397.79 193.92 397.79 C 180.28 397.87 168.00 385.71 167.85 372.08 C 167.74 308.80 167.87 245.53 167.79 182.25 M 202.39 207.57 C 198.40 208.75 195.54 212.83 195.77 216.99 C 195.81 265.67 195.75 314.34 195.80 363.02 C 195.91 368.17 200.91 372.50 206.05 371.69 C 211.22 371.29 214.59 365.96 214.18 361.04 C 214.20 313.01 214.22 264.99 214.17 216.97 C 214.55 210.88 208.30 205.70 202.39 207.57 M 253.35 207.60 C 249.42 208.85 246.47 212.83 246.72 217.02 C 246.72 265.34 246.72 313.66 246.72 361.97 C 246.34 367.06 250.82 372.08 256.02 371.67 C 261.05 371.88 265.22 366.93 264.90 362.05 C 264.92 313.67 264.89 265.30 264.91 216.92 C 265.46 210.92 259.13 205.77 253.35 207.60 M 304.36 207.56 C 300.29 208.67 297.40 212.84 297.60 217.02 C 297.65 265.71 297.57 314.39 297.64 363.08 C 297.76 368.62 303.54 372.93 308.90 371.53 C 313.06 370.50 316.22 366.31 315.78 361.99 C 315.80 313.65 315.79 265.30 315.78 216.96 C 316.50 210.96 310.11 205.81 304.36 207.56 Z" />
<path fill="#df0024" opacity="1.00" d=" M 202.39 207.57 C 208.30 205.70 214.55 210.88 214.17 216.97 C 214.22 264.99 214.20 313.01 214.18 361.04 C 214.59 365.96 211.22 371.29 206.05 371.69 C 200.91 372.50 195.91 368.17 195.80 363.02 C 195.75 314.34 195.81 265.67 195.77 216.99 C 195.54 212.83 198.40 208.75 202.39 207.57 Z" />
<path fill="#df0024" opacity="1.00" d=" M 253.35 207.60 C 259.13 205.77 265.46 210.92 264.91 216.92 C 264.89 265.30 264.92 313.67 264.90 362.05 C 265.22 366.93 261.05 371.88 256.02 371.67 C 250.82 372.08 246.34 367.06 246.72 361.97 C 246.72 313.66 246.72 265.34 246.72 217.02 C 246.47 212.83 249.42 208.85 253.35 207.60 Z" />
<path fill="#df0024" opacity="1.00" d=" M 304.36 207.56 C 310.11 205.81 316.50 210.96 315.78 216.96 C 315.79 265.30 315.80 313.65 315.78 361.99 C 316.22 366.31 313.06 370.50 308.90 371.53 C 303.54 372.93 297.76 368.62 297.64 363.08 C 297.57 314.39 297.65 265.71 297.60 217.02 C 297.40 212.84 300.29 208.67 304.36 207.56 Z" />
</svg>
