<?xml version="1.0" encoding="UTF-8" ?>
<!DOCTYPE svg PUBLIC "-//W3C//DTD SVG 1.1//EN" "http://www.w3.org/Graphics/SVG/1.1/DTD/svg11.dtd">
<svg width="512pt" height="512pt" viewBox="0 0 512 512" version="1.1" xmlns="http://www.w3.org/2000/svg">
<path fill="#df0024" opacity="1.00" d=" M 0.00 0.00 L 512.00 0.00 L 512.00 512.00 L 0.00 512.00 L 0.00 0.00 M 131.19 122.26 C 128.28 123.62 126.60 126.87 127.34 130.04 C 138.93 214.71 150.62 299.37 162.26 384.04 C 162.48 387.41 165.55 390.32 168.92 390.32 C 226.98 390.32 285.04 390.33 343.09 390.32 C 346.46 390.30 349.47 387.35 349.69 384.00 C 361.17 300.68 372.61 217.35 384.09 134.03 C 384.39 131.38 385.17 128.62 384.38 125.99 C 383.25 123.58 380.78 121.54 378.01 121.67 C 297.37 121.63 216.72 121.70 136.07 121.64 C 134.45 121.75 132.66 121.39 131.19 122.26 Z" />
<path fill="#ffffff" opacity="1.00" d=" M 131.19 122.26 C 132.66 121.39 134.45 121.75 136.07 121.64 C 216.72 121.70 297.37 121.63 378.01 121.67 C 380.78 121.54 383.25 123.58 384.38 125.99 C 385.17 128.62 384.39 131.38 384.09 134.03 C 372.61 217.35 361.17 300.68 349.69 384.00 C 349.47 387.35 346.46 390.30 343.09 390.32 C 285.04 390.33 226.98 390.32 168.92 390.32 C 165.55 390.32 162.48 387.41 162.26 384.04 C 150.62 299.37 138.93 214.71 127.34 130.04 C 126.60 126.87 128.28 123.62 131.19 122.26 M 141.36 135.10 C 152.45 215.67 163.54 296.24 174.62 376.81 C 228.87 376.78 283.11 376.81 337.36 376.80 C 348.41 296.23 359.48 215.67 370.62 135.11 C 294.19 135.10 217.78 135.14 141.36 135.10 Z" />
<path fill="#df0024" opacity="1.00" d=" M 141.36 135.10 C 217.78 135.14 294.19 135.10 370.62 135.11 C 359.48 215.67 348.41 296.23 337.36 376.80 C 283.11 376.81 228.87 376.78 174.62 376.81 C 163.54 296.24 152.45 215.67 141.36 135.10 M 159.12 154.78 C 161.59 175.25 164.70 195.65 167.43 216.09 C 173.87 262.96 180.36 309.83 186.78 356.71 C 232.78 356.69 278.78 356.67 324.78 356.72 C 334.19 289.42 343.34 222.09 352.64 154.79 C 288.13 154.80 223.63 154.81 159.12 154.78 Z" />
<path fill="#ffffff" opacity="1.00" d=" M 159.12 154.78 C 223.63 154.81 288.13 154.80 352.64 154.79 C 343.34 222.09 334.19 289.42 324.78 356.72 C 278.78 356.67 232.78 356.69 186.78 356.71 C 180.36 309.83 173.87 262.96 167.43 216.09 C 164.70 195.65 161.59 175.25 159.12 154.78 Z" />
</svg>
