<?xml version="1.0" encoding="UTF-8" ?>
<!DOCTYPE svg PUBLIC "-//W3C//DTD SVG 1.1//EN" "http://www.w3.org/Graphics/SVG/1.1/DTD/svg11.dtd">
<svg width="512pt" height="512pt" viewBox="0 0 512 512" version="1.1" xmlns="http://www.w3.org/2000/svg">
<path fill="#009f3c" opacity="1.00" d=" M 0.00 0.00 L 512.00 0.00 L 512.00 512.00 L 0.00 512.00 L 0.00 0.00 M 131.25 122.22 C 129.10 123.36 127.10 125.49 127.26 128.09 C 127.29 131.74 128.19 135.30 128.54 138.92 C 139.78 220.63 151.00 302.34 162.26 384.04 C 162.48 387.43 165.59 390.36 169.00 390.32 C 227.01 390.32 285.02 390.33 343.03 390.32 C 346.39 390.33 349.42 387.43 349.67 384.09 C 361.16 300.76 372.61 217.41 384.08 134.08 C 384.39 131.40 385.17 128.61 384.36 125.95 C 383.23 123.58 380.80 121.57 378.07 121.67 C 297.40 121.62 216.72 121.70 136.05 121.63 C 134.45 121.74 132.71 121.42 131.25 122.22 Z" />
<path fill="#ffffff" opacity="1.00" d=" M 131.25 122.22 C 132.71 121.42 134.45 121.74 136.05 121.63 C 216.72 121.70 297.40 121.62 378.07 121.67 C 380.80 121.57 383.23 123.58 384.36 125.95 C 385.17 128.61 384.39 131.40 384.08 134.08 C 372.61 217.41 361.16 300.76 349.67 384.09 C 349.42 387.43 346.39 390.33 343.03 390.32 C 285.02 390.33 227.01 390.32 169.00 390.32 C 165.59 390.36 162.48 387.43 162.26 384.04 C 151.00 302.34 139.78 220.63 128.54 138.92 C 128.19 135.30 127.29 131.74 127.26 128.09 C 127.10 125.49 129.10 123.36 131.25 122.22 M 141.39 134.84 C 152.35 215.52 163.56 296.16 174.63 376.82 C 228.89 376.74 283.14 376.86 337.39 376.76 C 348.34 296.10 359.62 215.49 370.59 134.83 C 355.39 135.51 340.17 134.90 324.96 135.14 C 285.65 135.08 246.34 135.16 207.02 135.13 C 185.15 134.92 163.25 135.47 141.39 134.84 Z" />
<path fill="#009f3c" opacity="1.00" d=" M 141.39 134.84 C 163.25 135.47 185.15 134.92 207.02 135.13 C 246.34 135.16 285.65 135.08 324.96 135.14 C 340.17 134.90 355.39 135.51 370.59 134.83 C 359.62 215.49 348.34 296.10 337.39 376.76 C 283.14 376.86 228.89 376.74 174.63 376.82 C 163.56 296.16 152.35 215.52 141.39 134.84 Z" />
</svg>
