<?xml version="1.0" encoding="UTF-8" ?>
<!DOCTYPE svg PUBLIC "-//W3C//DTD SVG 1.1//EN" "http://www.w3.org/Graphics/SVG/1.1/DTD/svg11.dtd">
<svg width="512pt" height="512pt" viewBox="0 0 512 512" version="1.1" xmlns="http://www.w3.org/2000/svg">
<path fill="#467be5" opacity="1.00" d=" M 0.00 0.00 L 512.00 0.00 L 512.00 512.00 L 0.00 512.00 L 0.00 0.00 M 160.82 198.79 C 144.88 241.21 128.91 283.62 112.95 326.03 C 111.48 329.85 110.24 333.77 108.34 337.41 C 186.14 337.67 263.95 337.37 341.75 337.56 C 355.94 300.10 369.97 262.57 384.11 225.09 C 390.68 207.99 396.74 190.67 403.68 173.71 C 325.96 173.61 248.24 173.84 170.53 173.60 C 166.93 181.84 164.12 190.42 160.82 198.79 Z" />
<path fill="#ffffff" opacity="1.00" d=" M 160.82 198.79 C 164.12 190.42 166.93 181.84 170.53 173.60 C 248.24 173.84 325.96 173.61 403.68 173.71 C 396.74 190.67 390.68 207.99 384.11 225.09 C 369.97 262.57 355.94 300.10 341.75 337.56 C 263.95 337.37 186.14 337.67 108.34 337.41 C 110.24 333.77 111.48 329.85 112.95 326.03 C 128.91 283.62 144.88 241.21 160.82 198.79 M 189.55 192.44 C 173.69 234.47 157.92 276.53 142.05 318.55 C 202.20 318.58 262.35 318.52 322.50 318.58 C 338.38 276.56 354.13 234.50 369.99 192.47 C 309.84 192.44 249.70 192.50 189.55 192.44 Z" />
<path fill="#467be5" opacity="1.00" d=" M 189.55 192.44 C 249.70 192.50 309.84 192.44 369.99 192.47 C 354.13 234.50 338.38 276.56 322.50 318.58 C 262.35 318.52 202.20 318.58 142.05 318.55 C 157.92 276.53 173.69 234.47 189.55 192.44 M 183.98 295.46 C 222.03 295.43 260.09 295.56 298.14 295.39 C 308.03 268.80 318.03 242.24 328.12 215.72 C 290.08 215.37 252.01 215.62 213.96 215.60 C 204.04 242.25 193.90 268.81 183.98 295.46 Z" />
<path fill="#ffffff" opacity="1.00" d=" M 183.98 295.46 C 193.90 268.81 204.04 242.25 213.96 215.60 C 252.01 215.62 290.08 215.37 328.12 215.72 C 318.03 242.24 308.03 268.80 298.14 295.39 C 260.09 295.56 222.03 295.43 183.98 295.46 M 218.66 229.40 C 215.34 238.06 212.13 246.77 208.82 255.45 C 237.00 255.52 265.18 255.39 293.35 255.51 C 296.68 246.84 299.99 238.16 303.15 229.43 C 274.99 229.39 246.83 229.45 218.66 229.40 Z" />
<path fill="#467be5" opacity="1.00" d=" M 218.66 229.40 C 246.83 229.45 274.99 229.39 303.15 229.43 C 299.99 238.16 296.68 246.84 293.35 255.51 C 265.18 255.39 237.00 255.52 208.82 255.45 C 212.13 246.77 215.34 238.06 218.66 229.40 M 222.97 233.68 C 221.37 239.56 219.46 245.34 217.99 251.25 C 221.08 251.27 224.17 251.27 227.26 251.28 C 229.15 245.45 230.63 239.50 232.51 233.66 C 229.32 233.64 226.14 233.65 222.97 233.68 Z" />
<path fill="#ffffff" opacity="1.00" d=" M 222.97 233.68 C 226.14 233.65 229.32 233.64 232.51 233.66 C 230.63 239.50 229.15 245.45 227.26 251.28 C 224.17 251.27 221.08 251.27 217.99 251.25 C 219.46 245.34 221.37 239.56 222.97 233.68 Z" />
</svg>
