<?xml version="1.0" encoding="UTF-8" ?>
<!DOCTYPE svg PUBLIC "-//W3C//DTD SVG 1.1//EN" "http://www.w3.org/Graphics/SVG/1.1/DTD/svg11.dtd">
<svg width="512pt" height="512pt" viewBox="0 0 512 512" version="1.1" xmlns="http://www.w3.org/2000/svg">
<path fill="#00a9ec" opacity="1.00" d=" M 0.00 0.00 L 512.00 0.00 L 512.00 512.00 L 0.00 512.00 L 0.00 0.00 M 105.19 148.20 C 103.25 148.93 101.76 150.73 102.14 152.90 C 102.18 221.62 102.13 290.33 102.17 359.05 C 101.83 361.62 104.56 363.55 106.92 363.41 C 205.93 363.46 304.94 363.40 403.96 363.43 C 406.45 363.78 409.48 361.88 409.07 359.10 C 409.10 290.02 409.11 220.93 409.07 151.84 C 409.35 149.20 406.41 147.64 404.13 147.78 C 307.08 147.75 210.04 147.79 112.99 147.76 C 110.40 147.86 107.69 147.39 105.19 148.20 Z" />
<path fill="#ffffff" opacity="1.00" d=" M 105.19 148.20 C 107.69 147.39 110.40 147.86 112.99 147.76 C 210.04 147.79 307.08 147.75 404.13 147.78 C 406.41 147.64 409.35 149.20 409.07 151.84 C 409.11 220.93 409.10 290.02 409.07 359.10 C 409.48 361.88 406.45 363.78 403.96 363.43 C 304.94 363.40 205.93 363.46 106.92 363.41 C 104.56 363.55 101.83 361.62 102.17 359.05 C 102.13 290.33 102.18 221.62 102.14 152.90 C 101.76 150.73 103.25 148.93 105.19 148.20 M 111.43 353.49 C 207.58 353.47 303.72 353.50 399.86 353.48 C 399.81 336.76 399.82 320.04 399.86 303.32 C 326.56 303.32 253.27 303.32 179.97 303.32 C 176.96 303.28 173.93 303.51 170.93 303.16 C 168.72 302.55 167.15 300.35 167.35 298.05 C 167.30 251.28 167.35 204.50 167.33 157.73 C 148.70 157.74 130.08 157.74 111.45 157.73 C 111.43 222.99 111.47 288.24 111.43 353.49 M 177.19 157.73 C 177.17 203.00 177.21 248.27 177.17 293.54 C 251.40 293.54 325.63 293.55 399.86 293.54 C 399.81 280.58 399.83 267.61 399.85 254.65 C 346.20 254.65 292.55 254.64 238.90 254.65 C 235.71 255.18 232.89 252.24 233.29 249.09 C 233.27 218.64 233.29 188.19 233.28 157.73 C 214.58 157.74 195.89 157.74 177.19 157.73 M 243.17 157.73 C 243.14 186.76 243.20 215.78 243.14 244.81 C 295.38 244.81 347.62 244.81 399.87 244.81 C 399.79 229.45 399.87 214.09 399.82 198.74 C 371.22 198.75 342.61 198.73 314.01 198.75 C 311.21 198.70 308.37 198.99 305.60 198.47 C 303.62 197.47 302.43 195.28 302.63 193.07 C 302.60 181.29 302.66 169.50 302.62 157.72 C 282.80 157.75 262.98 157.73 243.17 157.73 M 312.50 157.72 C 312.49 168.21 312.46 178.70 312.52 189.18 C 341.61 189.16 370.70 189.17 399.80 189.18 C 399.88 178.70 399.82 168.21 399.83 157.73 C 370.72 157.73 341.61 157.75 312.50 157.72 Z" />
<path fill="#00a9ec" opacity="1.00" d=" M 111.43 353.49 C 111.47 288.24 111.43 222.99 111.45 157.73 C 130.08 157.74 148.70 157.74 167.33 157.73 C 167.35 204.50 167.30 251.28 167.35 298.05 C 167.15 300.35 168.72 302.55 170.93 303.16 C 173.93 303.51 176.96 303.28 179.97 303.32 C 253.27 303.32 326.56 303.32 399.86 303.32 C 399.82 320.04 399.81 336.76 399.86 353.48 C 303.72 353.50 207.58 353.47 111.43 353.49 Z" />
<path fill="#00a9ec" opacity="1.00" d=" M 177.19 157.73 C 195.89 157.74 214.58 157.74 233.28 157.73 C 233.29 188.19 233.27 218.64 233.29 249.09 C 232.89 252.24 235.71 255.18 238.90 254.65 C 292.55 254.64 346.20 254.65 399.85 254.65 C 399.83 267.61 399.81 280.58 399.86 293.54 C 325.63 293.55 251.40 293.54 177.17 293.54 C 177.21 248.27 177.17 203.00 177.19 157.73 Z" />
<path fill="#00a9ec" opacity="1.00" d=" M 243.17 157.73 C 262.98 157.73 282.80 157.75 302.62 157.72 C 302.66 169.50 302.60 181.29 302.63 193.07 C 302.43 195.28 303.62 197.47 305.60 198.47 C 308.37 198.99 311.21 198.70 314.01 198.75 C 342.61 198.73 371.22 198.75 399.82 198.74 C 399.87 214.09 399.79 229.45 399.87 244.81 C 347.62 244.81 295.38 244.81 243.14 244.81 C 243.20 215.78 243.14 186.76 243.17 157.73 Z" />
<path fill="#00a9ec" opacity="1.00" d=" M 312.50 157.72 C 341.61 157.75 370.72 157.73 399.83 157.73 C 399.82 168.21 399.88 178.70 399.80 189.18 C 370.70 189.17 341.61 189.16 312.52 189.18 C 312.46 178.70 312.49 168.21 312.50 157.72 Z" />
</svg>
