<?xml version="1.0" encoding="UTF-8" ?>
<!DOCTYPE svg PUBLIC "-//W3C//DTD SVG 1.1//EN" "http://www.w3.org/Graphics/SVG/1.1/DTD/svg11.dtd">
<svg width="512pt" height="512pt" viewBox="0 0 512 512" version="1.1" xmlns="http://www.w3.org/2000/svg">
<path fill="#6e6e6e" opacity="1.00" d=" M 0.00 0.00 L 512.00 0.00 L 512.00 512.00 L 0.00 512.00 L 0.00 0.00 M 207.11 124.54 C 207.22 131.53 207.12 138.51 207.32 145.50 C 197.48 147.95 187.88 151.66 179.45 157.39 C 174.38 152.46 169.47 147.37 164.29 142.55 C 156.66 150.42 148.86 158.13 141.22 165.98 C 146.32 170.92 151.42 175.86 156.45 180.87 C 150.85 189.25 147.07 198.80 145.12 208.68 C 138.03 208.73 130.94 208.73 123.85 208.79 C 123.69 219.75 124.41 230.68 124.18 241.63 C 131.22 241.60 138.26 241.58 145.31 241.51 C 147.48 251.32 151.35 260.79 157.00 269.11 C 152.22 274.29 147.23 279.28 142.19 284.20 C 149.80 292.12 157.83 299.64 165.55 307.46 C 170.63 302.47 175.53 297.32 180.61 292.33 C 188.98 297.96 198.57 301.59 208.40 303.68 C 208.41 310.70 208.44 317.71 208.47 324.73 C 219.47 324.65 230.47 324.69 241.47 324.52 C 241.23 317.50 241.25 310.48 241.18 303.46 C 251.03 301.19 260.55 297.37 268.93 291.66 C 270.63 293.40 272.35 295.12 274.10 296.82 C 274.46 296.29 275.19 295.24 275.55 294.72 C 273.42 292.09 270.79 289.95 268.29 287.69 C 266.88 286.39 266.13 283.94 267.51 282.35 C 272.40 276.94 277.33 271.53 282.79 266.68 C 284.12 266.25 285.85 265.96 287.01 266.96 C 289.81 269.37 292.19 272.24 294.96 274.69 C 295.42 274.45 296.33 273.97 296.78 273.74 C 296.28 271.33 293.48 270.08 292.04 268.16 C 297.56 259.74 301.28 250.20 303.34 240.36 C 310.37 240.35 317.39 240.32 324.42 240.29 C 324.44 229.33 324.27 218.36 324.31 207.40 C 317.20 207.37 310.08 207.66 302.96 207.50 C 300.99 197.64 296.97 188.15 291.29 179.85 C 296.22 174.83 301.15 169.81 306.14 164.86 C 298.60 156.91 290.50 149.52 282.89 141.65 C 277.73 146.49 272.90 151.67 267.97 156.74 C 259.46 151.27 249.93 147.40 240.00 145.43 C 239.72 138.43 239.88 131.42 239.83 124.42 C 228.92 124.43 218.02 124.50 207.11 124.54 M 312.52 257.75 C 312.55 262.30 312.56 266.85 312.65 271.40 C 306.12 272.81 300.06 275.68 294.32 279.03 C 291.20 275.81 287.89 272.77 284.82 269.50 C 279.91 274.40 275.18 279.48 270.18 284.30 C 273.35 287.57 276.67 290.69 279.87 293.94 C 276.26 299.53 273.90 305.79 272.40 312.24 C 267.86 312.25 263.33 312.22 258.79 312.31 C 258.80 319.29 258.84 326.27 259.20 333.24 C 263.77 333.30 268.36 332.89 272.92 333.38 C 273.96 339.77 276.82 345.73 280.32 351.13 C 277.17 354.42 273.93 357.63 270.75 360.90 C 275.74 365.74 280.67 370.65 285.63 375.52 C 288.75 372.25 291.99 369.10 295.11 365.83 C 300.72 369.22 306.81 371.94 313.31 373.08 C 313.45 377.63 313.34 382.17 313.42 386.72 C 320.41 386.70 327.40 386.66 334.39 386.61 C 334.33 382.08 334.31 377.54 334.29 373.01 C 340.67 371.54 346.89 369.13 352.26 365.33 C 355.59 368.47 358.79 371.74 362.04 374.96 C 366.96 369.99 371.87 365.02 376.77 360.04 C 373.48 356.94 370.34 353.69 367.05 350.60 C 370.46 344.93 373.05 338.79 374.43 332.30 C 379.02 332.30 383.61 332.34 388.20 332.22 C 387.76 325.27 387.80 318.30 387.82 311.34 C 383.23 311.34 378.64 311.50 374.05 311.35 C 372.96 304.85 370.07 298.79 366.58 293.25 C 369.73 289.97 373.24 286.99 376.05 283.39 C 371.03 278.72 366.19 273.86 361.37 269.00 C 358.00 272.02 354.93 275.36 351.83 278.64 C 346.16 275.24 340.02 272.57 333.50 271.30 C 333.47 266.74 333.49 262.19 333.45 257.63 C 326.47 257.68 319.50 257.74 312.52 257.75 Z" />
<path fill="#ffffff" opacity="1.00" d=" M 207.11 124.54 C 218.02 124.50 228.92 124.43 239.83 124.42 C 239.88 131.42 239.72 138.43 240.00 145.43 C 249.93 147.40 259.46 151.27 267.97 156.74 C 272.90 151.67 277.73 146.49 282.89 141.65 C 290.50 149.52 298.60 156.91 306.14 164.86 C 301.15 169.81 296.22 174.83 291.29 179.85 C 296.97 188.15 300.99 197.64 302.96 207.50 C 310.08 207.66 317.20 207.37 324.31 207.40 C 324.27 218.36 324.44 229.33 324.42 240.29 C 317.39 240.32 310.37 240.35 303.34 240.36 C 301.28 250.20 297.56 259.74 292.04 268.16 C 293.48 270.08 296.28 271.33 296.78 273.74 C 296.33 273.97 295.42 274.45 294.96 274.69 C 292.19 272.24 289.81 269.37 287.01 266.96 C 285.85 265.96 284.12 266.25 282.79 266.68 C 277.33 271.53 272.40 276.94 267.51 282.35 C 266.13 283.94 266.88 286.39 268.29 287.69 C 270.79 289.95 273.42 292.09 275.55 294.72 C 275.19 295.24 274.46 296.29 274.10 296.82 C 272.35 295.12 270.63 293.40 268.93 291.66 C 260.55 297.37 251.03 301.19 241.18 303.46 C 241.25 310.48 241.23 317.50 241.47 324.52 C 230.47 324.69 219.47 324.65 208.47 324.73 C 208.44 317.71 208.41 310.70 208.40 303.68 C 198.57 301.59 188.98 297.96 180.61 292.33 C 175.53 297.32 170.63 302.47 165.55 307.46 C 157.83 299.64 149.80 292.12 142.19 284.20 C 147.23 279.28 152.22 274.29 157.00 269.11 C 151.35 260.79 147.48 251.32 145.31 241.51 C 138.26 241.58 131.22 241.60 124.18 241.63 C 124.41 230.68 123.69 219.75 123.85 208.79 C 130.94 208.73 138.03 208.73 145.12 208.68 C 147.07 198.80 150.85 189.25 156.45 180.87 C 151.42 175.86 146.32 170.92 141.22 165.98 C 148.86 158.13 156.66 150.42 164.29 142.55 C 169.47 147.37 174.38 152.46 179.45 157.39 C 187.88 151.66 197.48 147.95 207.32 145.50 C 207.12 138.51 207.22 131.53 207.11 124.54 M 211.46 166.73 C 204.33 168.37 197.46 171.23 191.37 175.31 C 175.04 186.04 164.57 205.40 165.14 225.00 C 164.95 236.64 168.77 248.19 175.28 257.79 C 183.68 270.39 197.24 279.37 212.05 282.46 C 226.38 285.50 241.81 282.96 254.38 275.42 C 266.75 268.12 276.28 256.16 280.59 242.46 C 284.22 231.08 284.39 218.59 280.76 207.19 C 276.47 193.01 266.59 180.62 253.73 173.28 C 241.11 165.93 225.71 163.50 211.46 166.73 Z" />
<path fill="#6e6e6e" opacity="1.00" d=" M 211.46 166.73 C 225.71 163.50 241.11 165.93 253.73 173.28 C 266.59 180.62 276.47 193.01 280.76 207.19 C 284.39 218.59 284.22 231.08 280.59 242.46 C 276.28 256.16 266.75 268.12 254.38 275.42 C 241.81 282.96 226.38 285.50 212.05 282.46 C 197.24 279.37 183.68 270.39 175.28 257.79 C 168.77 248.19 164.95 236.64 165.14 225.00 C 164.57 205.40 175.04 186.04 191.37 175.31 C 197.46 171.23 204.33 168.37 211.46 166.73 Z" />
<path fill="#ffffff" opacity="1.00" d=" M 312.52 257.75 C 319.50 257.74 326.47 257.68 333.45 257.63 C 333.49 262.19 333.47 266.74 333.50 271.30 C 340.02 272.57 346.16 275.24 351.83 278.64 C 354.93 275.36 358.00 272.02 361.37 269.00 C 366.19 273.86 371.03 278.72 376.05 283.39 C 373.24 286.99 369.73 289.97 366.58 293.25 C 370.07 298.79 372.96 304.85 374.05 311.35 C 378.64 311.50 383.23 311.34 387.82 311.34 C 387.80 318.30 387.76 325.27 388.20 332.22 C 383.61 332.34 379.02 332.30 374.43 332.30 C 373.05 338.79 370.46 344.93 367.05 350.60 C 370.34 353.69 373.48 356.94 376.77 360.04 C 371.87 365.02 366.96 369.99 362.04 374.96 C 358.79 371.74 355.59 368.47 352.26 365.33 C 346.89 369.13 340.67 371.54 334.29 373.01 C 334.31 377.54 334.33 382.08 334.39 386.61 C 327.40 386.66 320.41 386.70 313.42 386.72 C 313.34 382.17 313.45 377.63 313.31 373.08 C 306.81 371.94 300.72 369.22 295.11 365.83 C 291.99 369.10 288.75 372.25 285.63 375.52 C 280.67 370.65 275.74 365.74 270.75 360.90 C 273.93 357.63 277.17 354.42 280.32 351.13 C 276.82 345.73 273.96 339.77 272.92 333.38 C 268.36 332.89 263.77 333.30 259.20 333.24 C 258.84 326.27 258.80 319.29 258.79 312.31 C 263.33 312.22 267.86 312.25 272.40 312.24 C 273.90 305.79 276.26 299.53 279.87 293.94 C 276.67 290.69 273.35 287.57 270.18 284.30 C 275.18 279.48 279.91 274.40 284.82 269.50 C 287.89 272.77 291.20 275.81 294.32 279.03 C 300.06 275.68 306.12 272.81 312.65 271.40 C 312.56 266.85 312.55 262.30 312.52 257.75 M 320.12 283.99 C 301.69 285.19 285.69 301.50 285.19 320.01 C 284.19 332.82 290.42 345.77 300.81 353.25 C 307.47 358.13 315.74 360.81 324.02 360.61 C 335.99 360.54 347.73 354.40 354.63 344.63 C 359.33 338.10 361.96 330.06 361.77 321.99 C 361.92 310.39 356.15 298.98 347.00 291.92 C 339.48 285.99 329.64 283.14 320.12 283.99 Z" />
<path fill="#6e6e6e" opacity="1.00" d=" M 320.12 283.99 C 329.64 283.14 339.48 285.99 347.00 291.92 C 356.15 298.98 361.92 310.39 361.77 321.99 C 361.96 330.06 359.33 338.10 354.63 344.63 C 347.73 354.40 335.99 360.54 324.02 360.61 C 315.74 360.81 307.47 358.13 300.81 353.25 C 290.42 345.77 284.19 332.82 285.19 320.01 C 285.69 301.50 301.69 285.19 320.12 283.99 Z" />
</svg>
