<?xml version="1.0" encoding="UTF-8" ?>
<!DOCTYPE svg PUBLIC "-//W3C//DTD SVG 1.1//EN" "http://www.w3.org/Graphics/SVG/1.1/DTD/svg11.dtd">
<svg width="512pt" height="512pt" viewBox="0 0 512 512" version="1.1" xmlns="http://www.w3.org/2000/svg">
<path fill="#04aeda" opacity="1.00" d=" M 0.00 0.00 L 512.00 0.00 L 512.00 512.00 L 0.00 512.00 L 0.00 0.00 M 236.53 123.87 C 211.03 127.12 185.99 136.66 166.02 153.07 C 150.37 165.79 138.02 183.13 133.08 202.83 C 132.00 206.83 132.02 211.21 129.80 214.82 C 123.10 226.25 118.69 239.11 117.51 252.33 C 117.22 260.90 117.00 269.56 118.45 278.05 C 120.33 289.83 121.53 301.88 126.08 313.02 C 135.87 338.31 156.44 358.25 180.08 370.89 C 205.65 384.55 235.10 390.45 263.98 388.85 C 289.43 387.89 314.66 380.63 336.67 367.79 C 358.32 355.33 376.96 336.43 386.06 312.88 C 390.54 301.79 391.76 289.81 393.58 278.09 C 395.00 269.47 394.78 260.70 394.48 252.01 C 393.23 239.14 389.02 226.59 382.53 215.42 C 379.43 210.46 379.87 204.31 377.84 198.94 C 370.30 174.24 351.50 154.24 329.37 141.61 C 301.51 125.49 268.29 120.19 236.53 123.87 Z" />
<path fill="#ffffff" opacity="1.00" d=" M 236.53 123.87 C 268.29 120.19 301.51 125.49 329.37 141.61 C 351.50 154.24 370.30 174.24 377.84 198.94 C 379.87 204.31 379.43 210.46 382.53 215.42 C 389.02 226.59 393.23 239.14 394.48 252.01 C 394.78 260.70 395.00 269.47 393.58 278.09 C 391.76 289.81 390.54 301.79 386.06 312.88 C 376.96 336.43 358.32 355.33 336.67 367.79 C 314.66 380.63 289.43 387.89 263.98 388.85 C 235.10 390.45 205.65 384.55 180.08 370.89 C 156.44 358.25 135.87 338.31 126.08 313.02 C 121.53 301.88 120.33 289.83 118.45 278.05 C 117.00 269.56 117.22 260.90 117.51 252.33 C 118.69 239.11 123.10 226.25 129.80 214.82 C 132.02 211.21 132.00 206.83 133.08 202.83 C 138.02 183.13 150.37 165.79 166.02 153.07 C 185.99 136.66 211.03 127.12 236.53 123.87 M 214.68 162.71 C 212.54 163.68 209.39 163.98 208.72 166.65 C 204.64 178.76 200.86 190.96 196.79 203.06 C 195.69 206.31 194.59 209.56 194.02 212.95 C 196.31 212.46 198.53 211.74 200.75 211.00 C 213.72 206.75 227.98 206.80 240.99 210.82 C 245.47 212.13 249.53 214.52 253.97 215.95 C 259.27 199.91 264.68 183.90 269.70 167.77 C 253.38 157.89 232.57 156.73 214.68 162.71 M 277.16 173.28 C 273.48 184.92 269.63 196.51 265.84 208.12 C 264.40 212.62 262.55 217.03 261.91 221.75 C 280.05 232.11 303.16 232.90 322.10 224.21 C 327.10 208.16 332.76 192.32 337.57 176.21 C 335.35 176.68 333.19 177.30 331.04 178.00 C 317.51 182.60 302.48 182.39 288.95 177.88 C 284.91 176.62 281.31 174.24 277.16 173.28 M 190.88 220.89 C 185.85 236.95 180.18 252.81 175.41 268.96 C 180.29 267.96 184.89 265.92 189.81 265.06 C 201.06 262.83 212.85 263.63 223.73 267.21 C 227.79 268.50 231.46 270.76 235.55 271.95 C 240.28 258.39 244.44 244.63 249.09 231.03 C 249.85 228.71 250.72 226.40 251.03 223.97 C 247.34 220.84 242.55 219.43 238.07 217.87 C 222.65 213.38 205.57 214.28 190.88 220.89 M 243.27 277.33 C 261.15 288.35 284.51 288.72 303.52 280.36 C 308.80 264.37 314.25 248.42 319.09 232.30 C 317.02 232.73 314.98 233.27 312.98 233.94 C 299.75 238.48 285.11 238.45 271.78 234.33 C 267.36 232.98 263.32 230.67 258.96 229.18 C 253.69 245.21 248.31 261.22 243.27 277.33 M 132.71 251.05 C 133.63 260.42 133.87 269.95 136.51 279.05 C 142.17 299.40 155.88 316.78 172.66 329.28 C 195.66 346.48 224.44 355.04 253.01 355.43 C 257.63 355.43 262.25 356.02 266.87 355.67 C 284.53 354.09 302.07 349.85 318.08 342.12 C 335.74 333.69 352.20 321.57 363.01 305.03 C 372.67 291.66 377.63 275.33 378.49 258.94 C 378.64 252.58 380.65 246.11 379.33 239.82 C 376.68 248.50 373.37 257.01 369.02 264.99 C 361.98 276.58 352.49 286.58 341.65 294.68 C 337.99 297.75 334.24 300.73 330.01 302.98 C 314.08 312.24 296.29 318.14 278.08 320.78 C 270.76 321.79 263.37 322.52 255.99 321.84 C 223.19 322.04 189.76 311.81 164.48 290.50 C 151.87 280.07 141.89 266.42 136.12 251.08 C 134.37 246.56 133.48 241.77 131.97 237.18 C 131.45 241.82 132.49 246.43 132.71 251.05 Z" />
<path fill="#04aeda" opacity="1.00" d=" M 214.68 162.71 C 232.57 156.73 253.38 157.89 269.70 167.77 C 264.68 183.90 259.27 199.91 253.97 215.95 C 249.53 214.52 245.47 212.13 240.99 210.82 C 227.98 206.80 213.72 206.75 200.75 211.00 C 198.53 211.74 196.31 212.46 194.02 212.95 C 194.59 209.56 195.69 206.31 196.79 203.06 C 200.86 190.96 204.64 178.76 208.72 166.65 C 209.39 163.98 212.54 163.68 214.68 162.71 Z" />
<path fill="#04aeda" opacity="1.00" d=" M 277.16 173.28 C 281.31 174.24 284.91 176.62 288.95 177.88 C 302.48 182.39 317.51 182.60 331.04 178.00 C 333.19 177.30 335.35 176.68 337.57 176.21 C 332.76 192.32 327.10 208.16 322.10 224.21 C 303.16 232.90 280.05 232.11 261.91 221.75 C 262.55 217.03 264.40 212.62 265.84 208.12 C 269.63 196.51 273.48 184.92 277.16 173.28 Z" />
<path fill="#04aeda" opacity="1.00" d=" M 190.88 220.89 C 205.57 214.28 222.65 213.38 238.07 217.87 C 242.55 219.43 247.34 220.84 251.03 223.97 C 250.72 226.40 249.85 228.71 249.09 231.03 C 244.44 244.63 240.28 258.39 235.55 271.95 C 231.46 270.76 227.79 268.50 223.73 267.21 C 212.85 263.63 201.06 262.83 189.81 265.06 C 184.89 265.92 180.29 267.96 175.41 268.96 C 180.18 252.81 185.85 236.95 190.88 220.89 Z" />
<path fill="#04aeda" opacity="1.00" d=" M 243.27 277.33 C 248.31 261.22 253.69 245.21 258.96 229.18 C 263.32 230.67 267.36 232.98 271.78 234.33 C 285.11 238.45 299.75 238.48 312.98 233.94 C 314.98 233.27 317.02 232.73 319.09 232.30 C 314.25 248.42 308.80 264.37 303.52 280.36 C 284.51 288.72 261.15 288.35 243.27 277.33 Z" />
<path fill="#04aeda" opacity="1.00" d=" M 132.71 251.05 C 132.49 246.43 131.45 241.82 131.97 237.18 C 133.48 241.77 134.37 246.56 136.12 251.08 C 141.89 266.42 151.87 280.07 164.48 290.50 C 189.76 311.81 223.19 322.04 255.99 321.84 C 263.37 322.52 270.76 321.79 278.08 320.78 C 296.29 318.14 314.08 312.24 330.01 302.98 C 334.24 300.73 337.99 297.75 341.65 294.68 C 352.49 286.58 361.98 276.58 369.02 264.99 C 373.37 257.01 376.68 248.50 379.33 239.82 C 380.65 246.11 378.64 252.58 378.49 258.94 C 377.63 275.33 372.67 291.66 363.01 305.03 C 352.20 321.57 335.74 333.69 318.08 342.12 C 302.07 349.85 284.53 354.09 266.87 355.67 C 262.25 356.02 257.63 355.43 253.01 355.43 C 224.44 355.04 195.66 346.48 172.66 329.28 C 155.88 316.78 142.17 299.40 136.51 279.05 C 133.87 269.95 133.63 260.42 132.71 251.05 Z" />
</svg>
