<?xml version="1.0" encoding="UTF-8" ?>
<!DOCTYPE svg PUBLIC "-//W3C//DTD SVG 1.1//EN" "http://www.w3.org/Graphics/SVG/1.1/DTD/svg11.dtd">
<svg width="512pt" height="512pt" viewBox="0 0 512 512" version="1.1" xmlns="http://www.w3.org/2000/svg">
<path fill="#48ac3f" opacity="1.00" d=" M 0.00 0.00 L 512.00 0.00 L 512.00 512.00 L 0.00 512.00 L 0.00 0.00 M 238.53 121.79 C 197.67 126.78 160.02 151.79 139.26 187.28 C 123.99 212.86 117.71 243.63 121.55 273.16 C 124.85 300.62 137.10 326.85 155.75 347.24 C 176.04 369.65 204.05 384.95 233.91 389.74 C 257.73 393.65 282.59 391.16 305.09 382.39 C 328.12 373.47 348.61 358.13 363.61 338.52 C 378.89 318.68 388.57 294.53 390.89 269.58 C 393.87 240.88 387.30 211.27 372.37 186.57 C 355.73 158.70 328.78 137.16 297.85 127.24 C 278.79 121.20 258.37 118.94 238.53 121.79 Z" />
<path fill="#ffffff" opacity="1.00" d=" M 238.53 121.79 C 258.37 118.94 278.79 121.20 297.85 127.24 C 328.78 137.16 355.73 158.70 372.37 186.57 C 387.30 211.27 393.87 240.88 390.89 269.58 C 388.57 294.53 378.89 318.68 363.61 338.52 C 348.61 358.13 328.12 373.47 305.09 382.39 C 282.59 391.16 257.73 393.65 233.91 389.74 C 204.05 384.95 176.04 369.65 155.75 347.24 C 137.10 326.85 124.85 300.62 121.55 273.16 C 117.71 243.63 123.99 212.86 139.26 187.28 C 160.02 151.79 197.67 126.78 238.53 121.79 M 238.55 132.89 C 203.29 137.77 170.66 158.57 151.47 188.56 C 136.28 211.84 129.29 240.35 132.08 268.01 C 134.20 291.07 143.05 313.44 157.19 331.76 C 174.16 353.98 198.84 370.21 226.01 376.83 C 245.96 381.85 267.16 381.70 287.07 376.58 C 315.91 369.31 341.77 351.14 358.60 326.64 C 373.06 305.77 380.86 280.36 380.54 254.98 C 380.39 230.09 372.47 205.30 358.14 184.95 C 343.80 164.30 323.03 148.23 299.46 139.51 C 280.12 132.30 258.99 130.02 238.55 132.89 Z" />
<path fill="#48ac3f" opacity="1.00" d=" M 238.55 132.89 C 258.99 130.02 280.12 132.30 299.46 139.51 C 323.03 148.23 343.80 164.30 358.14 184.95 C 372.47 205.30 380.39 230.09 380.54 254.98 C 380.86 280.36 373.06 305.77 358.60 326.64 C 341.77 351.14 315.91 369.31 287.07 376.58 C 267.16 381.70 245.96 381.85 226.01 376.83 C 198.84 370.21 174.16 353.98 157.19 331.76 C 143.05 313.44 134.20 291.07 132.08 268.01 C 129.29 240.35 136.28 211.84 151.47 188.56 C 170.66 158.57 203.29 137.77 238.55 132.89 M 204.10 168.10 C 183.42 180.13 167.53 199.72 159.41 222.18 C 168.62 225.43 177.82 228.70 187.07 231.85 C 194.41 210.81 211.89 193.65 233.12 186.80 C 253.19 180.09 276.15 182.73 294.16 193.85 C 307.09 201.67 317.32 213.65 323.34 227.49 C 318.78 227.53 314.23 227.41 309.68 227.57 C 319.71 235.77 329.54 244.21 339.47 252.53 C 340.92 253.62 342.11 255.27 343.89 255.83 C 352.06 246.48 359.96 236.89 368.14 227.55 C 363.46 227.40 358.77 227.61 354.09 227.40 C 348.84 208.66 337.72 191.70 323.05 178.97 C 305.69 163.83 283.06 154.91 260.05 154.00 C 240.57 153.18 220.91 158.23 204.10 168.10 M 143.95 284.56 C 148.60 284.78 153.27 284.55 157.93 284.72 C 162.18 300.02 170.41 314.14 181.21 325.75 C 197.49 343.30 220.14 354.74 243.90 357.55 C 266.73 360.46 290.43 354.99 309.97 342.90 C 329.70 330.81 344.87 311.74 352.60 289.96 C 343.35 286.86 334.21 283.45 324.96 280.36 C 317.55 301.78 299.53 319.14 277.85 325.75 C 260.36 331.34 240.79 329.86 224.30 321.83 C 208.45 314.31 195.57 300.81 188.74 284.65 C 193.24 284.63 197.73 284.71 202.22 284.61 C 190.95 275.15 179.65 265.70 168.45 256.16 C 160.05 265.42 152.29 275.24 143.95 284.56 Z" />
<path fill="#ffffff" opacity="1.00" d=" M 204.10 168.10 C 220.91 158.23 240.57 153.18 260.05 154.00 C 283.06 154.91 305.69 163.83 323.05 178.97 C 337.72 191.70 348.84 208.66 354.09 227.40 C 358.77 227.61 363.46 227.40 368.14 227.55 C 359.96 236.89 352.06 246.48 343.89 255.83 C 342.11 255.27 340.92 253.62 339.47 252.53 C 329.54 244.21 319.71 235.77 309.68 227.57 C 314.23 227.41 318.78 227.53 323.34 227.49 C 317.32 213.65 307.09 201.67 294.16 193.85 C 276.15 182.73 253.19 180.09 233.12 186.80 C 211.89 193.65 194.41 210.81 187.07 231.85 C 177.82 228.70 168.62 225.43 159.41 222.18 C 167.53 199.72 183.42 180.13 204.10 168.10 Z" />
<path fill="#ffffff" opacity="1.00" d=" M 143.95 284.56 C 152.29 275.24 160.05 265.42 168.45 256.16 C 179.65 265.70 190.95 275.15 202.22 284.61 C 197.73 284.71 193.24 284.63 188.74 284.65 C 195.57 300.81 208.45 314.31 224.30 321.83 C 240.79 329.86 260.36 331.34 277.85 325.75 C 299.53 319.14 317.55 301.78 324.96 280.36 C 334.21 283.45 343.35 286.86 352.60 289.96 C 344.87 311.74 329.70 330.81 309.97 342.90 C 290.43 354.99 266.73 360.46 243.90 357.55 C 220.14 354.74 197.49 343.30 181.21 325.75 C 170.41 314.14 162.18 300.02 157.93 284.72 C 153.27 284.55 148.60 284.78 143.95 284.56 Z" />
</svg>
