<?xml version="1.0" encoding="UTF-8" ?>
<!DOCTYPE svg PUBLIC "-//W3C//DTD SVG 1.1//EN" "http://www.w3.org/Graphics/SVG/1.1/DTD/svg11.dtd">
<svg width="512pt" height="512pt" viewBox="0 0 512 512" version="1.1" xmlns="http://www.w3.org/2000/svg">
<path fill="#424bff" opacity="1.00" d=" M 0.00 0.00 L 512.00 0.00 L 512.00 512.00 L 0.00 512.00 L 0.00 0.00 M 128.10 137.17 C 126.17 137.99 124.75 139.86 125.12 142.03 C 125.14 198.36 125.13 254.69 125.13 311.02 C 125.16 313.65 124.98 316.30 125.28 318.93 C 126.03 320.81 127.94 322.06 130.00 321.70 C 214.04 321.68 298.08 321.71 382.11 321.68 C 384.68 321.99 386.42 319.30 386.05 316.95 C 386.06 258.62 386.05 200.28 386.06 141.94 C 386.46 139.49 384.63 136.84 381.99 137.05 C 324.66 136.91 267.32 137.06 209.98 136.99 C 182.69 137.18 155.38 136.72 128.10 137.17 M 229.34 325.26 C 229.46 336.59 229.16 347.93 229.49 359.26 C 246.84 359.16 264.19 359.07 281.53 359.31 C 281.98 347.97 281.58 336.61 281.73 325.26 C 264.27 325.28 246.80 325.28 229.34 325.26 M 198.20 344.27 C 195.88 354.62 192.70 364.76 190.50 375.14 C 233.81 375.15 277.12 375.12 320.43 375.15 C 317.72 364.92 315.77 354.44 312.71 344.35 C 304.25 344.16 295.77 344.14 287.31 344.38 C 288.95 350.43 290.50 356.51 291.91 362.62 C 267.61 362.64 243.30 362.56 219.00 362.66 C 220.23 356.49 221.81 350.39 223.55 344.34 C 215.10 344.12 206.65 344.26 198.20 344.27 Z" />
<path fill="#ffffff" opacity="1.00" d=" M 128.10 137.17 C 155.38 136.72 182.69 137.18 209.98 136.99 C 267.32 137.06 324.66 136.91 381.99 137.05 C 384.63 136.84 386.46 139.49 386.06 141.94 C 386.05 200.28 386.06 258.62 386.05 316.95 C 386.42 319.30 384.68 321.99 382.11 321.68 C 298.08 321.71 214.04 321.68 130.00 321.70 C 127.94 322.06 126.03 320.81 125.28 318.93 C 124.98 316.30 125.16 313.65 125.13 311.02 C 125.13 254.69 125.14 198.36 125.12 142.03 C 124.75 139.86 126.17 137.99 128.10 137.17 M 133.34 150.06 C 133.44 197.86 133.24 245.67 133.44 293.47 C 215.04 293.29 296.65 293.52 378.26 293.36 C 378.23 243.84 378.27 194.33 378.24 144.81 C 296.66 144.71 215.08 144.89 133.50 144.72 C 133.39 146.50 133.32 148.27 133.34 150.06 Z" />
<path fill="#424bff" opacity="1.00" d=" M 133.34 150.06 C 133.32 148.27 133.39 146.50 133.50 144.72 C 215.08 144.89 296.66 144.71 378.24 144.81 C 378.27 194.33 378.23 243.84 378.26 293.36 C 296.65 293.52 215.04 293.29 133.44 293.47 C 133.24 245.67 133.44 197.86 133.34 150.06 M 260.32 151.64 C 234.17 149.62 207.71 164.41 195.81 187.79 C 187.85 202.76 186.02 220.81 190.55 237.13 C 195.14 254.19 206.85 269.16 222.23 277.83 C 235.64 285.63 251.74 288.23 267.00 285.79 C 280.54 283.39 293.42 276.96 303.13 267.16 C 315.97 254.71 323.39 236.90 323.16 219.01 C 323.35 201.38 316.02 183.90 303.55 171.48 C 292.18 159.92 276.47 152.82 260.32 151.64 Z" />
<path fill="#ffffff" opacity="1.00" d=" M 260.32 151.64 C 276.47 152.82 292.18 159.92 303.55 171.48 C 316.02 183.90 323.35 201.38 323.16 219.01 C 323.39 236.90 315.97 254.71 303.13 267.16 C 293.42 276.96 280.54 283.39 267.00 285.79 C 251.74 288.23 235.64 285.63 222.23 277.83 C 206.85 269.16 195.14 254.19 190.55 237.13 C 186.02 220.81 187.85 202.76 195.81 187.79 C 207.71 164.41 234.17 149.62 260.32 151.64 M 261.54 157.73 C 240.04 155.54 217.93 165.71 205.51 183.38 C 195.30 197.50 191.72 216.06 195.69 233.00 C 199.24 249.14 209.86 263.50 224.02 271.96 C 237.90 280.36 255.18 282.91 270.88 278.82 C 294.79 273.03 313.93 251.59 316.71 227.11 C 318.94 210.63 314.15 193.30 303.57 180.45 C 293.37 167.62 277.82 159.37 261.54 157.73 Z" />
<path fill="#424bff" opacity="1.00" d=" M 261.54 157.73 C 277.82 159.37 293.37 167.62 303.57 180.45 C 314.15 193.30 318.94 210.63 316.71 227.11 C 313.93 251.59 294.79 273.03 270.88 278.82 C 255.18 282.91 237.90 280.36 224.02 271.96 C 209.86 263.50 199.24 249.14 195.69 233.00 C 191.72 216.06 195.30 197.50 205.51 183.38 C 217.93 165.71 240.04 155.54 261.54 157.73 M 252.18 183.25 C 247.80 184.34 245.40 189.69 247.52 193.69 C 250.76 200.91 263.87 199.36 264.32 191.04 C 265.04 184.72 257.44 181.12 252.18 183.25 M 247.75 206.19 C 247.69 222.31 247.93 238.44 247.63 254.56 C 252.73 255.34 258.02 254.96 263.18 254.78 C 263.14 238.59 263.16 222.40 263.17 206.21 C 258.03 206.08 252.89 206.10 247.75 206.19 Z" />
<path fill="#ffffff" opacity="1.00" d=" M 252.18 183.25 C 257.44 181.12 265.04 184.72 264.32 191.04 C 263.87 199.36 250.76 200.91 247.52 193.69 C 245.40 189.69 247.80 184.34 252.18 183.25 Z" />
<path fill="#ffffff" opacity="1.00" d=" M 247.75 206.19 C 252.89 206.10 258.03 206.08 263.17 206.21 C 263.16 222.40 263.14 238.59 263.18 254.78 C 258.02 254.96 252.73 255.34 247.63 254.56 C 247.93 238.44 247.69 222.31 247.75 206.19 Z" />
<path fill="#ffffff" opacity="1.00" d=" M 229.34 325.26 C 246.80 325.28 264.27 325.28 281.73 325.26 C 281.58 336.61 281.98 347.97 281.53 359.31 C 264.19 359.07 246.84 359.16 229.49 359.26 C 229.16 347.93 229.46 336.59 229.34 325.26 Z" />
<path fill="#ffffff" opacity="1.00" d=" M 198.20 344.27 C 206.65 344.26 215.10 344.12 223.55 344.34 C 221.81 350.39 220.23 356.49 219.00 362.66 C 243.30 362.56 267.61 362.64 291.91 362.62 C 290.50 356.51 288.95 350.43 287.31 344.38 C 295.77 344.14 304.25 344.16 312.71 344.35 C 315.77 354.44 317.72 364.92 320.43 375.15 C 277.12 375.12 233.81 375.15 190.50 375.14 C 192.70 364.76 195.88 354.62 198.20 344.27 Z" />
</svg>
