<?xml version="1.0" encoding="UTF-8" ?>
<!DOCTYPE svg PUBLIC "-//W3C//DTD SVG 1.1//EN" "http://www.w3.org/Graphics/SVG/1.1/DTD/svg11.dtd">
<svg width="512pt" height="512pt" viewBox="0 0 512 512" version="1.1" xmlns="http://www.w3.org/2000/svg">
<path fill="#009f3c" opacity="1.00" d=" M 0.00 0.00 L 512.00 0.00 L 512.00 512.00 L 0.00 512.00 L 0.00 0.00 M 229.61 132.83 C 200.36 140.49 174.41 159.44 157.70 184.57 C 144.88 203.79 137.34 226.52 136.36 249.60 C 123.90 249.68 111.43 249.56 98.97 249.66 C 115.94 267.56 132.64 285.72 149.80 303.42 C 166.54 285.39 183.55 267.63 200.32 249.64 C 187.34 249.60 174.35 249.64 161.37 249.62 C 163.08 222.01 176.16 195.17 197.39 177.34 C 213.65 163.36 234.61 155.10 256.00 153.92 C 279.09 152.70 302.53 160.00 320.84 174.14 C 340.61 189.15 354.37 211.67 359.06 236.03 C 362.72 255.74 361.04 276.56 353.43 295.17 C 344.24 318.11 326.43 337.51 304.20 348.37 C 286.29 357.09 265.68 360.41 245.98 357.15 C 225.67 354.11 206.58 344.26 191.96 329.89 C 186.17 335.86 180.65 342.09 174.85 348.06 C 194.60 367.79 221.40 379.99 249.09 382.91 C 279.10 385.94 310.10 377.25 334.31 359.27 C 358.90 341.18 376.53 313.95 383.00 284.12 C 386.05 271.34 386.10 258.14 385.55 245.09 C 383.13 214.31 369.05 184.60 346.65 163.33 C 327.56 144.85 302.34 132.79 275.94 129.64 C 260.49 127.32 244.68 129.01 229.61 132.83 M 255.56 176.23 C 254.64 204.50 253.52 232.76 252.40 261.02 C 252.52 262.23 251.81 263.94 253.20 264.69 C 269.82 278.14 286.48 291.55 303.09 305.02 C 304.64 303.34 306.19 301.67 307.73 300.00 C 294.19 286.63 280.77 273.13 267.21 259.77 C 266.46 258.94 265.30 258.20 265.46 256.92 C 264.38 230.02 263.35 203.12 262.46 176.21 C 260.18 175.69 257.83 175.66 255.56 176.23 Z" />
<path fill="#ffffff" opacity="1.00" d=" M 229.61 132.83 C 244.68 129.01 260.49 127.32 275.94 129.64 C 302.34 132.79 327.56 144.85 346.65 163.33 C 369.05 184.60 383.13 214.31 385.55 245.09 C 386.10 258.14 386.05 271.34 383.00 284.12 C 376.53 313.95 358.90 341.18 334.31 359.27 C 310.10 377.25 279.10 385.94 249.09 382.91 C 221.40 379.99 194.60 367.79 174.85 348.06 C 180.65 342.09 186.17 335.86 191.96 329.89 C 206.58 344.26 225.67 354.11 245.98 357.15 C 265.68 360.41 286.29 357.09 304.20 348.37 C 326.43 337.51 344.24 318.11 353.43 295.17 C 361.04 276.56 362.72 255.74 359.06 236.03 C 354.37 211.67 340.61 189.15 320.84 174.14 C 302.53 160.00 279.09 152.70 256.00 153.92 C 234.61 155.10 213.65 163.36 197.39 177.34 C 176.16 195.17 163.08 222.01 161.37 249.62 C 174.35 249.64 187.34 249.60 200.32 249.64 C 183.55 267.63 166.54 285.39 149.80 303.42 C 132.64 285.72 115.94 267.56 98.97 249.66 C 111.43 249.56 123.90 249.68 136.36 249.60 C 137.34 226.52 144.88 203.79 157.70 184.57 C 174.41 159.44 200.36 140.49 229.61 132.83 Z" />
<path fill="#ffffff" opacity="1.00" d=" M 255.56 176.23 C 257.83 175.66 260.18 175.69 262.46 176.21 C 263.35 203.12 264.38 230.02 265.46 256.92 C 265.30 258.20 266.46 258.94 267.21 259.77 C 280.77 273.13 294.19 286.63 307.73 300.00 C 306.19 301.67 304.64 303.34 303.09 305.02 C 286.48 291.55 269.82 278.14 253.20 264.69 C 251.81 263.94 252.52 262.23 252.40 261.02 C 253.52 232.76 254.64 204.50 255.56 176.23 Z" />
</svg>
