<?xml version="1.0" encoding="UTF-8" ?>
<!DOCTYPE svg PUBLIC "-//W3C//DTD SVG 1.1//EN" "http://www.w3.org/Graphics/SVG/1.1/DTD/svg11.dtd">
<svg width="512pt" height="512pt" viewBox="0 0 512 512" version="1.1" xmlns="http://www.w3.org/2000/svg">
<path fill="#00a9ec" opacity="1.00" d=" M 0.00 0.00 L 512.00 0.00 L 512.00 512.00 L 0.00 512.00 L 0.00 0.00 M 128.11 137.25 C 126.07 137.85 124.87 139.92 125.22 142.00 C 125.23 200.34 125.22 258.69 125.22 317.04 C 124.74 319.74 127.27 322.18 129.95 321.71 C 213.98 321.69 298.02 321.73 382.05 321.69 C 384.62 322.04 386.33 319.39 386.13 317.06 C 386.14 258.70 386.15 200.33 386.15 141.97 C 386.40 139.57 384.74 136.85 382.08 137.12 C 320.39 137.01 258.69 137.10 197.00 137.07 C 174.04 137.20 151.06 136.82 128.11 137.25 M 229.43 325.35 C 229.44 336.52 229.47 347.69 229.41 358.85 C 246.83 358.88 264.25 358.86 281.67 358.86 C 281.63 347.69 281.64 336.52 281.67 325.35 C 264.25 325.37 246.84 325.38 229.43 325.35 M 198.36 344.34 C 195.91 354.58 193.04 364.72 190.57 374.96 C 233.82 374.89 277.06 374.96 320.31 374.92 C 317.56 364.78 315.49 354.48 312.74 344.35 C 304.29 344.43 295.85 344.26 287.41 344.44 C 289.14 350.48 290.69 356.57 292.03 362.71 C 267.53 362.62 243.02 362.91 218.53 362.56 C 220.43 356.60 221.44 350.40 223.44 344.47 C 215.08 344.22 206.72 344.46 198.36 344.34 Z" />
<path fill="#ffffff" opacity="1.00" d=" M 128.11 137.25 C 151.06 136.82 174.04 137.20 197.00 137.07 C 258.69 137.10 320.39 137.01 382.08 137.12 C 384.74 136.85 386.40 139.57 386.15 141.97 C 386.15 200.33 386.14 258.70 386.13 317.06 C 386.33 319.39 384.62 322.04 382.05 321.69 C 298.02 321.73 213.98 321.69 129.95 321.71 C 127.27 322.18 124.74 319.74 125.22 317.04 C 125.22 258.69 125.23 200.34 125.22 142.00 C 124.87 139.92 126.07 137.85 128.11 137.25 M 132.86 147.01 C 133.25 195.90 132.72 244.76 133.16 293.65 C 214.90 293.50 296.65 293.73 378.38 293.54 C 378.30 243.92 378.39 194.31 378.34 144.69 C 298.23 144.64 218.11 144.72 138.00 144.65 C 136.04 144.84 132.20 143.67 132.86 147.01 Z" />
<path fill="#00a9ec" opacity="1.00" d=" M 132.86 147.01 C 132.20 143.67 136.04 144.84 138.00 144.65 C 218.11 144.72 298.23 144.64 378.34 144.69 C 378.39 194.31 378.30 243.92 378.38 293.54 C 296.65 293.73 214.90 293.50 133.16 293.65 C 132.72 244.76 133.25 195.90 132.86 147.01 M 230.03 242.54 C 217.43 230.58 204.35 219.15 191.80 207.14 C 183.95 214.71 177.15 223.28 169.39 230.93 C 189.92 249.22 209.97 268.07 230.28 286.60 C 267.38 249.09 304.52 211.60 341.78 174.24 C 333.92 167.37 326.98 159.52 319.33 152.43 C 289.70 182.60 259.64 212.35 230.03 242.54 Z" />
<path fill="#ffffff" opacity="1.00" d=" M 230.03 242.54 C 259.64 212.35 289.70 182.60 319.33 152.43 C 326.98 159.52 333.92 167.37 341.78 174.24 C 304.52 211.60 267.38 249.09 230.28 286.60 C 209.97 268.07 189.92 249.22 169.39 230.93 C 177.15 223.28 183.95 214.71 191.80 207.14 C 204.35 219.15 217.43 230.58 230.03 242.54 Z" />
<path fill="#ffffff" opacity="1.00" d=" M 229.43 325.35 C 246.84 325.38 264.25 325.37 281.67 325.35 C 281.64 336.52 281.63 347.69 281.67 358.86 C 264.25 358.86 246.83 358.88 229.41 358.85 C 229.47 347.69 229.44 336.52 229.43 325.35 Z" />
<path fill="#ffffff" opacity="1.00" d=" M 198.36 344.34 C 206.72 344.46 215.08 344.22 223.44 344.47 C 221.44 350.40 220.43 356.60 218.53 362.56 C 243.02 362.91 267.53 362.62 292.03 362.71 C 290.69 356.57 289.14 350.48 287.41 344.44 C 295.85 344.26 304.29 344.43 312.74 344.35 C 315.49 354.48 317.56 364.78 320.31 374.92 C 277.06 374.96 233.82 374.89 190.57 374.96 C 193.04 364.72 195.91 354.58 198.36 344.34 Z" />
</svg>
