<?xml version="1.0" encoding="UTF-8" ?>
<!DOCTYPE svg PUBLIC "-//W3C//DTD SVG 1.1//EN" "http://www.w3.org/Graphics/SVG/1.1/DTD/svg11.dtd">
<svg width="512pt" height="512pt" viewBox="0 0 512 512" version="1.1" xmlns="http://www.w3.org/2000/svg">
<path fill="#00a8ec" opacity="1.00" d=" M 0.00 0.00 L 512.00 0.00 L 512.00 512.00 L 0.00 512.00 L 0.00 0.00 M 161.61 155.62 C 136.22 179.41 120.25 213.18 118.75 248.01 C 118.76 253.33 118.69 258.65 118.79 263.98 C 120.51 295.09 133.55 325.39 154.77 348.18 C 175.14 370.44 203.12 385.59 232.91 390.43 C 263.68 395.87 296.19 389.71 323.27 374.26 C 346.32 361.09 365.43 341.08 377.42 317.38 C 387.00 298.71 391.96 277.77 392.39 256.83 C 344.46 256.85 296.53 256.80 248.60 256.85 C 248.52 210.77 248.77 164.68 248.47 118.60 C 216.34 120.20 185.00 133.51 161.61 155.62 M 262.14 118.70 C 262.15 160.28 262.21 201.86 262.11 243.44 C 305.32 243.50 348.54 243.45 391.75 243.46 C 388.73 206.50 369.72 171.34 340.69 148.33 C 318.46 130.57 290.59 119.90 262.14 118.70 Z" />
<path fill="#ffffff" opacity="1.00" d=" M 161.61 155.62 C 185.00 133.51 216.34 120.20 248.47 118.60 C 248.77 164.68 248.52 210.77 248.60 256.85 C 296.53 256.80 344.46 256.85 392.39 256.83 C 391.96 277.77 387.00 298.71 377.42 317.38 C 365.43 341.08 346.32 361.09 323.27 374.26 C 296.19 389.71 263.68 395.87 232.91 390.43 C 203.12 385.59 175.14 370.44 154.77 348.18 C 133.55 325.39 120.51 295.09 118.79 263.98 C 118.69 258.65 118.76 253.33 118.75 248.01 C 120.25 213.18 136.22 179.41 161.61 155.62 Z" />
<path fill="#ffffff" opacity="1.00" d=" M 262.14 118.70 C 290.59 119.90 318.46 130.57 340.69 148.33 C 369.72 171.34 388.73 206.50 391.75 243.46 C 348.54 243.45 305.32 243.50 262.11 243.44 C 262.21 201.86 262.15 160.28 262.14 118.70 Z" />
</svg>
