<?xml version="1.0" encoding="UTF-8" ?>
<!DOCTYPE svg PUBLIC "-//W3C//DTD SVG 1.1//EN" "http://www.w3.org/Graphics/SVG/1.1/DTD/svg11.dtd">
<svg width="512pt" height="512pt" viewBox="0 0 512 512" version="1.1" xmlns="http://www.w3.org/2000/svg">
<path fill="#00a9ec" opacity="1.00" d=" M 0.00 0.00 L 512.00 0.00 L 512.00 512.00 L 0.00 512.00 L 0.00 0.00 M 212.62 115.98 C 202.49 172.12 192.39 228.26 182.29 284.40 C 166.18 284.42 150.08 284.35 133.97 284.43 C 130.92 284.34 127.87 285.58 125.84 287.88 C 122.18 291.67 122.17 298.32 125.84 302.10 C 127.87 304.37 130.88 305.67 133.93 305.53 C 152.96 305.52 171.99 305.54 191.02 305.53 C 196.00 305.72 200.73 301.81 201.51 296.89 C 207.35 264.85 213.05 232.78 218.86 200.72 C 219.88 195.46 220.54 190.12 221.97 184.94 C 222.47 191.63 223.65 198.24 224.50 204.89 C 233.28 268.44 242.11 331.98 250.86 395.53 C 251.31 399.58 254.13 403.36 258.08 404.57 C 264.10 406.78 271.16 402.39 271.92 396.06 C 281.93 347.80 292.16 299.58 302.00 251.28 C 306.54 266.44 310.76 281.69 315.27 296.86 C 316.62 301.43 321.30 304.58 326.04 304.32 C 343.38 304.48 360.72 304.75 378.06 304.82 C 384.18 304.99 389.28 298.78 388.19 292.81 C 387.51 287.45 382.29 283.42 376.96 283.73 C 362.48 283.58 348.00 283.34 333.52 283.33 C 326.15 259.14 319.40 234.74 312.28 210.47 C 311.01 206.51 310.49 201.75 306.84 199.14 C 301.24 194.58 291.60 197.77 290.20 204.97 C 282.37 241.94 274.78 278.96 267.01 315.94 C 265.95 321.46 264.54 326.93 263.87 332.52 C 263.52 331.11 263.20 329.69 262.93 328.27 C 253.20 257.84 243.44 187.42 233.69 117.00 C 233.41 113.55 231.51 110.31 228.54 108.51 C 222.47 104.59 213.43 108.75 212.62 115.98 Z" />
<path fill="#ffffff" opacity="1.00" d=" M 212.62 115.98 C 213.43 108.75 222.47 104.59 228.54 108.51 C 231.51 110.31 233.41 113.55 233.69 117.00 C 243.44 187.42 253.20 257.84 262.93 328.27 C 263.20 329.69 263.52 331.11 263.87 332.52 C 264.54 326.93 265.95 321.46 267.01 315.94 C 274.78 278.96 282.37 241.94 290.20 204.97 C 291.60 197.77 301.24 194.58 306.84 199.14 C 310.49 201.75 311.01 206.51 312.28 210.47 C 319.40 234.74 326.15 259.14 333.52 283.33 C 348.00 283.34 362.48 283.58 376.96 283.73 C 382.29 283.42 387.51 287.45 388.19 292.81 C 389.28 298.78 384.18 304.99 378.06 304.82 C 360.72 304.75 343.38 304.48 326.04 304.32 C 321.30 304.58 316.62 301.43 315.27 296.86 C 310.76 281.69 306.54 266.44 302.00 251.28 C 292.16 299.58 281.93 347.80 271.92 396.06 C 271.16 402.39 264.10 406.78 258.08 404.57 C 254.13 403.36 251.31 399.58 250.86 395.53 C 242.11 331.98 233.28 268.44 224.50 204.89 C 223.65 198.24 222.47 191.63 221.97 184.94 C 220.54 190.12 219.88 195.46 218.86 200.72 C 213.05 232.78 207.35 264.85 201.51 296.89 C 200.73 301.81 196.00 305.72 191.02 305.53 C 171.99 305.54 152.96 305.52 133.93 305.53 C 130.88 305.67 127.87 304.37 125.84 302.10 C 122.17 298.32 122.18 291.67 125.84 287.88 C 127.87 285.58 130.92 284.34 133.97 284.43 C 150.08 284.35 166.18 284.42 182.29 284.40 C 192.39 228.26 202.49 172.12 212.62 115.98 Z" />
</svg>
