<?xml version="1.0" encoding="UTF-8" ?>
<!DOCTYPE svg PUBLIC "-//W3C//DTD SVG 1.1//EN" "http://www.w3.org/Graphics/SVG/1.1/DTD/svg11.dtd">
<svg width="512pt" height="512pt" viewBox="0 0 512 512" version="1.1" xmlns="http://www.w3.org/2000/svg">
<path fill="#00a9ec" opacity="1.00" d=" M 0.00 0.00 L 512.00 0.00 L 512.00 512.00 L 0.00 512.00 L 0.00 0.00 M 208.87 123.04 C 196.51 167.57 184.11 212.10 171.79 256.64 C 157.18 256.66 142.57 256.67 127.96 256.64 C 123.12 256.21 117.40 257.10 114.80 261.74 C 110.56 268.00 115.42 277.57 123.00 277.74 C 142.00 277.87 161.01 277.80 180.02 277.78 C 184.94 277.91 189.23 273.98 190.23 269.28 C 198.86 237.92 207.77 206.63 216.22 175.22 C 217.29 179.71 217.71 184.32 218.51 188.86 C 228.95 255.25 239.34 321.65 249.79 388.04 C 250.39 394.85 258.34 399.59 264.56 396.54 C 269.02 394.76 270.61 389.94 271.87 385.74 C 283.18 352.78 294.39 319.78 305.79 286.85 C 333.18 286.87 360.58 286.87 387.97 286.85 C 391.62 287.05 395.18 285.08 397.12 282.02 C 399.59 278.31 399.26 273.03 396.40 269.62 C 394.18 266.79 390.47 265.59 386.97 265.71 C 357.67 265.73 328.36 265.72 299.06 265.72 C 294.28 265.40 289.56 268.48 288.08 273.06 C 280.00 296.38 272.23 319.81 263.99 343.07 C 259.61 313.01 254.62 283.04 250.01 253.01 C 243.23 209.98 236.55 166.94 229.74 123.92 C 229.18 118.69 224.26 114.41 219.00 114.64 C 214.21 114.72 209.90 118.40 208.87 123.04 Z" />
<path fill="#ffffff" opacity="1.00" d=" M 208.87 123.04 C 209.90 118.40 214.21 114.72 219.00 114.64 C 224.26 114.41 229.18 118.69 229.74 123.92 C 236.55 166.94 243.23 209.98 250.01 253.01 C 254.62 283.04 259.61 313.01 263.99 343.07 C 272.23 319.81 280.00 296.38 288.08 273.06 C 289.56 268.48 294.28 265.40 299.06 265.72 C 328.36 265.72 357.67 265.73 386.97 265.71 C 390.47 265.59 394.18 266.79 396.40 269.62 C 399.26 273.03 399.59 278.31 397.12 282.02 C 395.18 285.08 391.62 287.05 387.97 286.85 C 360.58 286.87 333.18 286.87 305.79 286.85 C 294.39 319.78 283.18 352.78 271.87 385.74 C 270.61 389.94 269.02 394.76 264.56 396.54 C 258.34 399.59 250.39 394.85 249.79 388.04 C 239.34 321.65 228.95 255.25 218.51 188.86 C 217.71 184.32 217.29 179.71 216.22 175.22 C 207.77 206.63 198.86 237.92 190.23 269.28 C 189.23 273.98 184.94 277.91 180.02 277.78 C 161.01 277.80 142.00 277.87 123.00 277.74 C 115.42 277.57 110.56 268.00 114.80 261.74 C 117.40 257.10 123.12 256.21 127.96 256.64 C 142.57 256.67 157.18 256.66 171.79 256.64 C 184.11 212.10 196.51 167.57 208.87 123.04 Z" />
</svg>
