<?xml version="1.0" encoding="UTF-8" ?>
<!DOCTYPE svg PUBLIC "-//W3C//DTD SVG 1.1//EN" "http://www.w3.org/Graphics/SVG/1.1/DTD/svg11.dtd">
<svg width="512pt" height="512pt" viewBox="0 0 512 512" version="1.1" xmlns="http://www.w3.org/2000/svg">
<path fill="#0082c0" opacity="1.00" d=" M 0.00 0.00 L 512.00 0.00 L 512.00 512.00 L 0.00 512.00 L 0.00 0.00 M 112.79 139.02 C 112.81 200.43 112.79 261.84 112.80 323.25 C 163.13 323.26 213.45 323.25 263.78 323.26 C 263.82 261.82 263.79 200.38 263.79 138.95 C 213.46 139.10 163.12 138.91 112.79 139.02 M 112.79 335.38 C 112.80 347.91 112.81 360.45 112.79 372.99 C 126.20 373.05 139.61 372.88 153.02 373.11 C 145.98 369.15 141.62 360.99 142.36 352.94 C 142.77 345.52 147.55 338.84 154.03 335.40 C 140.29 335.32 126.54 335.38 112.79 335.38 M 173.22 335.42 C 178.23 338.10 182.42 342.53 184.03 348.07 C 187.32 357.23 182.97 368.44 174.33 372.95 C 249.00 373.05 323.67 373.01 398.34 372.96 C 398.32 360.43 398.31 347.91 398.35 335.39 C 323.30 335.37 248.26 335.32 173.22 335.42 M 160.24 338.26 C 152.89 339.63 147.22 346.54 146.92 353.96 C 146.50 362.85 154.06 371.08 162.98 371.31 C 172.75 371.95 181.55 362.72 180.33 352.97 C 179.64 343.40 169.61 335.93 160.24 338.26 Z" />
<path fill="#ffffff" opacity="1.00" d=" M 112.79 139.02 C 163.12 138.91 213.46 139.10 263.79 138.95 C 263.79 200.38 263.82 261.82 263.78 323.26 C 213.45 323.25 163.13 323.26 112.80 323.25 C 112.79 261.84 112.81 200.43 112.79 139.02 M 121.61 153.77 C 121.60 204.11 121.62 254.45 121.60 304.78 C 149.54 304.74 177.48 304.75 205.42 304.78 C 205.39 254.44 205.42 204.11 205.41 153.78 C 177.48 153.78 149.54 153.79 121.61 153.77 M 211.83 288.34 C 211.87 293.78 211.87 299.23 211.83 304.68 C 225.85 304.87 239.87 304.70 253.89 304.76 C 253.69 299.29 254.32 293.83 254.15 288.35 C 240.05 288.19 225.94 288.21 211.83 288.34 Z" />
<path fill="#0082c0" opacity="1.00" d=" M 121.61 153.77 C 149.54 153.79 177.48 153.78 205.41 153.78 C 205.42 204.11 205.39 254.44 205.42 304.78 C 177.48 304.75 149.54 304.74 121.60 304.78 C 121.62 254.45 121.60 204.11 121.61 153.77 M 128.32 181.44 C 128.37 187.03 128.32 192.62 128.37 198.21 C 151.71 198.17 175.06 198.19 198.41 198.20 C 198.43 192.61 198.40 187.03 198.44 181.44 C 175.07 181.44 151.70 181.45 128.32 181.44 Z" />
<path fill="#ffffff" opacity="1.00" d=" M 128.32 181.44 C 151.70 181.45 175.07 181.44 198.44 181.44 C 198.40 187.03 198.43 192.61 198.41 198.20 C 175.06 198.19 151.71 198.17 128.37 198.21 C 128.32 192.62 128.37 187.03 128.32 181.44 Z" />
<path fill="#0082c0" opacity="1.00" d=" M 211.83 288.34 C 225.94 288.21 240.05 288.19 254.15 288.35 C 254.32 293.83 253.69 299.29 253.89 304.76 C 239.87 304.70 225.85 304.87 211.83 304.68 C 211.87 299.23 211.87 293.78 211.83 288.34 Z" />
<path fill="#ffffff" opacity="1.00" d=" M 112.79 335.38 C 126.54 335.38 140.29 335.32 154.03 335.40 C 147.55 338.84 142.77 345.52 142.36 352.94 C 141.62 360.99 145.98 369.15 153.02 373.11 C 139.61 372.88 126.20 373.05 112.79 372.99 C 112.81 360.45 112.80 347.91 112.79 335.38 Z" />
<path fill="#ffffff" opacity="1.00" d=" M 173.22 335.42 C 248.26 335.32 323.30 335.37 398.35 335.39 C 398.31 347.91 398.32 360.43 398.34 372.96 C 323.67 373.01 249.00 373.05 174.33 372.95 C 182.97 368.44 187.32 357.23 184.03 348.07 C 182.42 342.53 178.23 338.10 173.22 335.42 Z" />
<path fill="#ffffff" opacity="1.00" d=" M 160.24 338.26 C 169.61 335.93 179.64 343.40 180.33 352.97 C 181.55 362.72 172.75 371.95 162.98 371.31 C 154.06 371.08 146.50 362.85 146.92 353.96 C 147.22 346.54 152.89 339.63 160.24 338.26 Z" />
</svg>
