<?xml version="1.0" encoding="UTF-8" ?>
<!DOCTYPE svg PUBLIC "-//W3C//DTD SVG 1.1//EN" "http://www.w3.org/Graphics/SVG/1.1/DTD/svg11.dtd">
<svg width="512pt" height="512pt" viewBox="0 0 512 512" version="1.1" xmlns="http://www.w3.org/2000/svg">
<path fill="#486887" opacity="1.00" d=" M 0.00 0.00 L 512.00 0.00 L 512.00 512.00 L 0.00 512.00 L 0.00 0.00 M 96.84 161.16 C 96.87 216.34 96.81 271.52 96.87 326.70 C 147.36 326.67 197.85 326.65 248.34 326.71 C 248.23 327.30 248.01 328.48 247.90 329.07 C 237.77 334.08 227.18 338.23 216.84 342.85 C 214.54 343.94 210.95 344.82 211.22 348.06 C 211.09 350.15 213.15 351.15 214.98 350.85 C 241.98 350.87 268.98 350.82 295.98 350.87 C 297.63 350.81 300.00 351.10 300.57 349.01 C 301.14 346.62 299.24 344.60 297.13 343.87 C 286.70 339.33 276.28 334.78 265.86 330.23 C 264.06 329.82 263.36 328.45 263.50 326.69 C 313.78 326.66 364.07 326.69 414.36 326.67 C 414.29 271.49 414.34 216.31 414.33 161.13 C 308.50 161.18 202.67 161.13 96.84 161.16 Z" />
<path fill="#ffffff" opacity="1.00" d=" M 96.84 161.16 C 202.67 161.13 308.50 161.18 414.33 161.13 C 414.34 216.31 414.29 271.49 414.36 326.67 C 364.07 326.69 313.78 326.66 263.50 326.69 C 263.36 328.45 264.06 329.82 265.86 330.23 C 276.28 334.78 286.70 339.33 297.13 343.87 C 299.24 344.60 301.14 346.62 300.57 349.01 C 300.00 351.10 297.63 350.81 295.98 350.87 C 268.98 350.82 241.98 350.87 214.98 350.85 C 213.15 351.15 211.09 350.15 211.22 348.06 C 210.95 344.82 214.54 343.94 216.84 342.85 C 227.18 338.23 237.77 334.08 247.90 329.07 C 248.01 328.48 248.23 327.30 248.34 326.71 C 197.85 326.65 147.36 326.67 96.87 326.70 C 96.81 271.52 96.87 216.34 96.84 161.16 M 105.58 170.16 C 105.59 219.40 105.60 268.63 105.58 317.87 C 179.39 317.78 253.19 317.85 326.99 317.83 C 353.42 317.73 379.85 318.04 406.27 317.67 C 406.04 268.70 406.32 219.72 406.13 170.75 C 405.88 170.54 405.38 170.14 405.13 169.93 C 398.43 169.90 391.74 170.28 385.04 169.91 C 377.71 170.65 370.37 169.44 363.04 170.06 C 277.24 170.13 191.41 170.04 105.58 170.16 Z" />
<path fill="#486887" opacity="1.00" d=" M 105.58 170.16 C 191.41 170.04 277.24 170.13 363.04 170.06 C 370.37 169.44 377.71 170.65 385.04 169.91 C 391.74 170.28 398.43 169.90 405.13 169.93 C 405.38 170.14 405.88 170.54 406.13 170.75 C 406.32 219.72 406.04 268.70 406.27 317.67 C 379.85 318.04 353.42 317.73 326.99 317.83 C 253.19 317.85 179.39 317.78 105.58 317.87 C 105.60 268.63 105.59 219.40 105.58 170.16 M 231.56 203.84 C 225.28 205.85 220.46 212.24 221.49 218.97 C 222.24 226.74 230.38 232.50 237.99 230.70 C 244.30 229.63 249.28 223.38 248.83 216.97 C 249.08 208.50 239.66 201.29 231.56 203.84 M 260.44 204.56 C 254.58 207.03 250.64 213.75 252.19 220.06 C 253.37 226.33 259.46 231.48 265.97 230.88 C 274.46 231.31 281.40 222.01 279.03 213.95 C 277.18 206.30 267.76 200.72 260.44 204.56 M 288.70 246.83 C 287.12 242.53 288.01 237.90 288.24 233.46 C 263.06 233.09 237.85 233.36 212.66 233.33 C 212.74 248.83 212.67 264.34 212.68 279.85 C 237.75 279.85 262.82 279.85 287.89 279.85 C 287.85 273.82 287.93 267.78 287.97 261.75 C 289.74 262.24 291.28 263.23 292.53 264.57 C 297.82 269.79 303.65 274.45 308.81 279.83 C 308.78 262.87 308.79 245.92 308.81 228.97 C 301.97 234.76 295.93 241.49 288.70 246.83 M 201.62 235.53 C 201.63 242.11 201.62 248.70 201.63 255.28 C 204.55 255.27 207.48 255.27 210.41 255.27 C 210.42 248.69 210.41 242.12 210.42 235.54 C 207.49 235.54 204.55 235.54 201.62 235.53 Z" />
<path fill="#ffffff" opacity="1.00" d=" M 231.56 203.84 C 239.66 201.29 249.08 208.50 248.83 216.97 C 249.28 223.38 244.30 229.63 237.99 230.70 C 230.38 232.50 222.24 226.74 221.49 218.97 C 220.46 212.24 225.28 205.85 231.56 203.84 Z" />
<path fill="#ffffff" opacity="1.00" d=" M 260.44 204.56 C 267.76 200.72 277.18 206.30 279.03 213.95 C 281.40 222.01 274.46 231.31 265.97 230.88 C 259.46 231.48 253.37 226.33 252.19 220.06 C 250.64 213.75 254.58 207.03 260.44 204.56 Z" />
<path fill="#ffffff" opacity="1.00" d=" M 288.70 246.83 C 295.93 241.49 301.97 234.76 308.81 228.97 C 308.79 245.92 308.78 262.87 308.81 279.83 C 303.65 274.45 297.82 269.79 292.53 264.57 C 291.28 263.23 289.74 262.24 287.97 261.75 C 287.93 267.78 287.85 273.82 287.89 279.85 C 262.82 279.85 237.75 279.85 212.68 279.85 C 212.67 264.34 212.74 248.83 212.66 233.33 C 237.85 233.36 263.06 233.09 288.24 233.46 C 288.01 237.90 287.12 242.53 288.70 246.83 Z" />
<path fill="#ffffff" opacity="1.00" d=" M 201.62 235.53 C 204.55 235.54 207.49 235.54 210.42 235.54 C 210.41 242.12 210.42 248.69 210.41 255.27 C 207.48 255.27 204.55 255.27 201.63 255.28 C 201.62 248.70 201.63 242.11 201.62 235.53 Z" />
</svg>
