<?xml version="1.0" encoding="UTF-8" ?>
<!DOCTYPE svg PUBLIC "-//W3C//DTD SVG 1.1//EN" "http://www.w3.org/Graphics/SVG/1.1/DTD/svg11.dtd">
<svg width="512pt" height="512pt" viewBox="0 0 512 512" version="1.1" xmlns="http://www.w3.org/2000/svg">
<path fill="#ffa408" opacity="1.00" d=" M 0.00 0.00 L 512.00 0.00 L 512.00 512.00 L 0.00 512.00 L 0.00 0.00 M 250.50 97.70 C 236.77 101.18 225.15 109.83 213.38 117.34 C 196.45 129.78 177.87 140.39 157.59 146.23 C 147.95 149.23 137.37 148.62 128.20 153.20 C 125.97 154.30 125.23 156.89 124.55 159.08 C 122.27 167.86 122.38 176.99 122.14 185.99 C 122.31 211.65 124.81 237.30 129.76 262.48 C 134.28 285.26 142.29 307.32 153.29 327.77 C 168.57 355.96 189.44 381.80 216.44 399.51 C 227.04 406.17 238.44 412.28 250.90 414.45 C 263.86 416.61 276.24 410.61 286.93 403.95 C 305.83 392.06 321.87 376.07 335.27 358.30 C 352.11 335.92 365.03 310.71 374.21 284.28 C 384.22 255.00 389.73 223.93 388.16 192.95 C 387.24 181.93 386.90 170.73 383.94 160.02 C 382.63 155.05 379.20 150.20 373.91 149.08 C 367.35 147.67 360.66 146.86 354.12 145.30 C 341.02 142.49 329.07 136.09 317.60 129.39 C 304.08 121.88 292.09 111.98 278.68 104.31 C 270.22 99.46 260.40 95.51 250.50 97.70 Z" />
<path fill="#ffffff" opacity="1.00" d=" M 250.50 97.70 C 260.40 95.51 270.22 99.46 278.68 104.31 C 292.09 111.98 304.08 121.88 317.60 129.39 C 329.07 136.09 341.02 142.49 354.12 145.30 C 360.66 146.86 367.35 147.67 373.91 149.08 C 379.20 150.20 382.63 155.05 383.94 160.02 C 386.90 170.73 387.24 181.93 388.16 192.95 C 389.73 223.93 384.22 255.00 374.21 284.28 C 365.03 310.71 352.11 335.92 335.27 358.30 C 321.87 376.07 305.83 392.06 286.93 403.95 C 276.24 410.61 263.86 416.61 250.90 414.45 C 238.44 412.28 227.04 406.17 216.44 399.51 C 189.44 381.80 168.57 355.96 153.29 327.77 C 142.29 307.32 134.28 285.26 129.76 262.48 C 124.81 237.30 122.31 211.65 122.14 185.99 C 122.38 176.99 122.27 167.86 124.55 159.08 C 125.23 156.89 125.97 154.30 128.20 153.20 C 137.37 148.62 147.95 149.23 157.59 146.23 C 177.87 140.39 196.45 129.78 213.38 117.34 C 225.15 109.83 236.77 101.18 250.50 97.70 M 242.64 127.66 C 218.95 142.72 196.47 160.98 169.06 168.87 C 161.83 170.93 154.35 172.36 147.51 175.59 C 145.73 184.29 146.53 193.24 146.62 202.06 C 147.40 218.23 148.67 234.44 151.94 250.32 C 185.12 250.32 218.31 250.29 251.50 250.34 C 251.07 208.25 252.47 166.11 250.02 124.08 C 247.21 124.42 244.99 126.28 242.64 127.66 M 254.72 255.72 C 255.62 289.82 255.89 323.93 257.01 358.03 C 257.64 368.81 257.16 379.66 258.37 390.41 C 260.59 389.74 262.81 389.01 264.87 387.91 C 280.48 379.67 294.48 368.43 305.87 354.93 C 323.03 334.66 337.07 311.72 347.35 287.23 C 351.59 277.28 354.39 266.81 357.35 256.43 C 323.16 255.07 288.93 256.00 254.72 255.72 Z" />
<path fill="#ffa408" opacity="1.00" d=" M 242.64 127.66 C 244.99 126.28 247.21 124.42 250.02 124.08 C 252.47 166.11 251.07 208.25 251.50 250.34 C 218.31 250.29 185.12 250.32 151.94 250.32 C 148.67 234.44 147.40 218.23 146.62 202.06 C 146.53 193.24 145.73 184.29 147.51 175.59 C 154.35 172.36 161.83 170.93 169.06 168.87 C 196.47 160.98 218.95 142.72 242.64 127.66 Z" />
<path fill="#ffa408" opacity="1.00" d=" M 254.72 255.72 C 288.93 256.00 323.16 255.07 357.35 256.43 C 354.39 266.81 351.59 277.28 347.35 287.23 C 337.07 311.72 323.03 334.66 305.87 354.93 C 294.48 368.43 280.48 379.67 264.87 387.91 C 262.81 389.01 260.59 389.74 258.37 390.41 C 257.16 379.66 257.64 368.81 257.01 358.03 C 255.89 323.93 255.62 289.82 254.72 255.72 Z" />
</svg>
