<?xml version="1.0" encoding="UTF-8" ?>
<!DOCTYPE svg PUBLIC "-//W3C//DTD SVG 1.1//EN" "http://www.w3.org/Graphics/SVG/1.1/DTD/svg11.dtd">
<svg width="512pt" height="512pt" viewBox="0 0 512 512" version="1.1" xmlns="http://www.w3.org/2000/svg">
<path fill="#d68a3a" opacity="1.00" d=" M 0.00 0.00 L 512.00 0.00 L 512.00 512.00 L 0.00 512.00 L 0.00 0.00 M 164.18 122.28 C 153.76 123.94 143.86 128.88 136.43 136.39 C 127.27 145.45 121.86 158.16 121.66 171.04 C 121.65 227.38 121.67 283.72 121.65 340.06 C 121.60 353.47 127.16 366.86 136.88 376.14 C 146.32 385.49 159.67 390.75 172.95 390.38 C 229.28 390.35 285.61 390.39 341.93 390.36 C 362.49 389.99 381.78 375.42 387.89 355.81 C 391.14 346.89 390.28 337.31 390.37 328.02 C 390.37 276.02 390.36 224.02 390.38 172.02 C 390.49 159.06 385.24 146.14 376.14 136.92 C 367.07 127.43 354.08 121.88 340.97 121.67 C 286.66 121.69 232.34 121.68 178.02 121.68 C 173.40 121.71 168.74 121.46 164.18 122.28 Z" />
<path fill="#ffffff" opacity="1.00" d=" M 164.18 122.28 C 168.74 121.46 173.40 121.71 178.02 121.68 C 232.34 121.68 286.66 121.69 340.97 121.67 C 354.08 121.88 367.07 127.43 376.14 136.92 C 385.24 146.14 390.49 159.06 390.38 172.02 C 390.36 224.02 390.37 276.02 390.37 328.02 C 390.28 337.31 391.14 346.89 387.89 355.81 C 381.78 375.42 362.49 389.99 341.93 390.36 C 285.61 390.39 229.28 390.35 172.95 390.38 C 159.67 390.75 146.32 385.49 136.88 376.14 C 127.16 366.86 121.60 353.47 121.65 340.06 C 121.67 283.72 121.65 227.38 121.66 171.04 C 121.86 158.16 127.27 145.45 136.43 136.39 C 143.86 128.88 153.76 123.94 164.18 122.28 M 168.22 138.34 C 151.93 139.73 138.11 154.62 138.19 171.01 C 138.12 227.33 138.17 283.66 138.17 339.98 C 137.83 351.30 143.99 362.37 153.43 368.50 C 159.74 372.81 167.47 374.16 174.99 374.14 C 228.99 374.16 283.00 374.16 337.00 374.14 C 344.74 374.18 352.72 372.74 359.14 368.17 C 368.25 361.99 374.23 351.17 373.84 340.08 C 373.82 283.38 373.89 226.68 373.81 169.98 C 373.44 152.60 357.34 137.52 339.97 138.18 C 282.72 138.25 225.46 137.94 168.22 138.34 Z" />
<path fill="#d68a3a" opacity="1.00" d=" M 168.22 138.34 C 225.46 137.94 282.72 138.25 339.97 138.18 C 357.34 137.52 373.44 152.60 373.81 169.98 C 373.89 226.68 373.82 283.38 373.84 340.08 C 374.23 351.17 368.25 361.99 359.14 368.17 C 352.72 372.74 344.74 374.18 337.00 374.14 C 283.00 374.16 228.99 374.16 174.99 374.14 C 167.47 374.16 159.74 372.81 153.43 368.50 C 143.99 362.37 137.83 351.30 138.17 339.98 C 138.17 283.66 138.12 227.33 138.19 171.01 C 138.11 154.62 151.93 139.73 168.22 138.34 M 249.33 166.50 C 231.93 168.49 216.34 180.76 209.78 196.92 C 206.06 205.71 205.33 215.58 206.88 224.94 C 209.72 241.10 221.28 255.24 236.31 261.68 C 246.19 265.94 257.46 266.74 267.91 264.23 C 280.34 261.16 291.41 253.05 298.16 242.18 C 306.66 228.90 308.03 211.45 301.99 196.93 C 296.26 182.91 283.83 171.81 269.21 167.80 C 262.78 165.80 255.96 166.41 249.33 166.50 M 200.53 284.53 C 192.67 289.64 185.32 297.32 184.48 307.10 C 184.35 319.93 184.51 332.76 184.41 345.59 C 232.15 345.60 279.89 345.61 327.64 345.58 C 327.53 332.75 327.69 319.92 327.56 307.09 C 326.60 296.24 317.90 288.15 308.99 282.98 C 290.91 272.72 269.54 269.81 249.02 270.63 C 232.16 271.69 214.95 275.37 200.53 284.53 Z" />
<path fill="#ffffff" opacity="1.00" d=" M 249.33 166.50 C 255.96 166.41 262.78 165.80 269.21 167.80 C 283.83 171.81 296.26 182.91 301.99 196.93 C 308.03 211.45 306.66 228.90 298.16 242.18 C 291.41 253.05 280.34 261.16 267.91 264.23 C 257.46 266.74 246.19 265.94 236.31 261.68 C 221.28 255.24 209.72 241.10 206.88 224.94 C 205.33 215.58 206.06 205.71 209.78 196.92 C 216.34 180.76 231.93 168.49 249.33 166.50 Z" />
<path fill="#ffffff" opacity="1.00" d=" M 200.53 284.53 C 214.95 275.37 232.16 271.69 249.02 270.63 C 269.54 269.81 290.91 272.72 308.99 282.98 C 317.90 288.15 326.60 296.24 327.56 307.09 C 327.69 319.92 327.53 332.75 327.64 345.58 C 279.89 345.61 232.15 345.60 184.41 345.59 C 184.51 332.76 184.35 319.93 184.48 307.10 C 185.32 297.32 192.67 289.64 200.53 284.53 Z" />
</svg>
