<?xml version="1.0" encoding="UTF-8" ?>
<!DOCTYPE svg PUBLIC "-//W3C//DTD SVG 1.1//EN" "http://www.w3.org/Graphics/SVG/1.1/DTD/svg11.dtd">
<svg width="512pt" height="512pt" viewBox="0 0 512 512" version="1.1" xmlns="http://www.w3.org/2000/svg">
<path fill="#4c78c5" opacity="1.00" d=" M 0.00 0.00 L 512.00 0.00 L 512.00 512.00 L 0.00 512.00 L 0.00 0.00 M 218.27 138.25 C 193.17 143.30 169.92 156.81 152.84 175.83 C 137.58 192.86 127.37 214.23 123.60 236.78 C 141.01 233.80 159.24 235.03 176.03 240.56 C 174.92 237.78 173.78 235.01 172.72 232.22 C 173.94 227.12 174.49 221.87 176.06 216.86 C 176.98 213.31 178.51 209.86 178.74 206.18 C 177.67 202.81 176.37 199.46 174.60 196.40 C 171.35 194.33 167.54 193.37 164.03 191.84 C 162.13 193.37 160.18 194.83 158.16 196.21 C 156.55 193.47 154.91 190.75 153.25 188.05 C 156.78 184.02 159.82 179.54 163.60 175.76 C 176.70 171.71 190.15 168.76 203.28 164.75 C 208.87 166.61 214.27 169.05 219.95 170.59 C 222.67 170.22 225.27 169.30 227.91 168.58 C 232.44 172.55 237.09 176.40 241.60 180.40 C 244.57 183.11 248.33 184.99 250.70 188.34 C 254.81 193.86 258.54 199.71 263.45 204.58 C 264.17 205.64 265.64 206.49 265.56 207.91 C 261.35 213.87 256.33 219.27 252.42 225.44 C 249.11 234.65 247.18 244.27 246.07 253.99 C 244.79 259.00 248.15 263.45 249.53 268.07 C 248.94 268.40 247.78 269.07 247.20 269.40 C 244.88 264.87 242.23 260.52 239.76 256.06 C 233.83 257.07 226.79 256.07 222.34 260.98 C 236.52 268.17 251.16 274.41 265.87 280.41 C 270.72 282.38 275.88 283.34 280.93 284.60 C 284.32 285.21 285.87 288.90 289.08 289.92 C 299.14 293.65 309.09 297.77 319.42 300.70 C 330.18 303.37 341.17 305.23 352.24 305.83 C 357.82 293.87 361.05 280.92 362.46 267.82 C 362.92 260.86 362.79 253.88 362.59 246.92 C 360.06 207.51 336.25 170.31 301.66 151.30 C 284.80 141.41 265.39 136.80 246.04 135.39 C 236.69 135.05 227.43 136.58 218.27 138.25 M 116.06 248.18 C 110.02 251.41 105.96 257.45 103.76 263.81 C 101.37 270.28 102.07 277.32 102.09 284.08 C 102.07 289.46 105.25 294.69 110.14 296.98 C 116.77 300.20 124.29 300.56 131.37 302.27 C 143.01 330.45 165.87 353.77 193.78 366.02 C 208.31 372.63 224.18 375.67 240.03 376.72 C 250.09 376.99 260.09 375.17 269.90 373.16 C 299.59 366.57 326.06 347.84 342.94 322.65 C 349.57 323.76 356.31 323.19 363.00 323.33 C 375.45 322.76 387.32 318.12 398.06 312.03 C 402.05 309.59 406.83 308.23 410.22 304.93 C 409.09 302.11 406.93 299.91 405.15 297.51 C 399.81 300.82 394.11 303.49 388.63 306.54 C 381.30 310.55 373.18 312.93 364.95 314.19 C 353.92 315.45 342.83 313.87 331.97 311.99 C 324.38 310.75 316.91 308.83 309.68 306.23 C 287.48 298.27 265.74 289.13 244.08 279.84 C 229.82 273.75 216.28 266.16 202.04 260.03 C 191.92 255.62 181.95 250.70 171.29 247.70 C 161.10 244.94 150.51 243.75 139.96 243.70 C 131.88 244.20 123.43 244.42 116.06 248.18 Z" />
<path fill="#ffffff" opacity="1.00" d=" M 218.27 138.25 C 227.43 136.58 236.69 135.05 246.04 135.39 C 265.39 136.80 284.80 141.41 301.66 151.30 C 336.25 170.31 360.06 207.51 362.59 246.92 C 362.79 253.88 362.92 260.86 362.46 267.82 C 361.05 280.92 357.82 293.87 352.24 305.83 C 341.17 305.23 330.18 303.37 319.42 300.70 C 309.09 297.77 299.14 293.65 289.08 289.92 C 285.87 288.90 284.32 285.21 280.93 284.60 C 275.88 283.34 270.72 282.38 265.87 280.41 C 251.16 274.41 236.52 268.17 222.34 260.98 C 226.79 256.07 233.83 257.07 239.76 256.06 C 242.23 260.52 244.88 264.87 247.20 269.40 C 247.78 269.07 248.94 268.40 249.53 268.07 C 248.15 263.45 244.79 259.00 246.07 253.99 C 247.18 244.27 249.11 234.65 252.42 225.44 C 256.33 219.27 261.35 213.87 265.56 207.91 C 265.64 206.49 264.17 205.64 263.45 204.58 C 258.54 199.71 254.81 193.86 250.70 188.34 C 248.33 184.99 244.57 183.11 241.60 180.40 C 237.09 176.40 232.44 172.55 227.91 168.58 C 225.27 169.30 222.67 170.22 219.95 170.59 C 214.27 169.05 208.87 166.61 203.28 164.75 C 190.15 168.76 176.70 171.71 163.60 175.76 C 159.82 179.54 156.78 184.02 153.25 188.05 C 154.91 190.75 156.55 193.47 158.16 196.21 C 160.18 194.83 162.13 193.37 164.03 191.84 C 167.54 193.37 171.35 194.33 174.60 196.40 C 176.37 199.46 177.67 202.81 178.74 206.18 C 178.51 209.86 176.98 213.31 176.06 216.86 C 174.49 221.87 173.94 227.12 172.72 232.22 C 173.78 235.01 174.92 237.78 176.03 240.56 C 159.24 235.03 141.01 233.80 123.60 236.78 C 127.37 214.23 137.58 192.86 152.84 175.83 C 169.92 156.81 193.17 143.30 218.27 138.25 M 243.14 142.98 C 233.44 143.91 223.76 145.18 214.38 147.88 C 220.55 151.75 226.71 155.66 232.87 159.57 C 242.28 159.23 251.67 158.41 261.09 158.16 C 264.43 154.76 267.64 151.24 270.96 147.81 C 266.31 146.73 261.65 145.73 257.00 144.66 C 252.44 143.68 247.85 141.85 243.14 142.98 M 310.67 178.90 C 311.30 182.58 311.62 186.31 312.10 190.01 C 312.91 194.85 311.55 199.65 311.07 204.44 C 313.37 205.57 315.72 206.61 318.08 207.62 C 321.06 205.54 324.09 203.54 327.07 201.46 C 333.35 204.50 339.54 207.75 345.92 210.57 C 339.95 201.69 334.10 192.73 328.16 183.84 C 324.26 179.44 319.36 176.04 315.01 172.09 C 313.57 174.36 312.11 176.63 310.67 178.90 M 322.74 218.71 C 317.94 223.56 313.12 228.39 308.25 233.18 C 307.54 234.07 306.31 234.84 306.40 236.12 C 306.31 239.37 306.23 242.63 306.49 245.88 C 308.09 249.31 310.62 252.23 312.57 255.47 C 315.37 260.18 319.59 263.76 323.51 267.51 C 328.24 271.08 334.14 272.66 339.06 275.91 C 342.83 280.65 345.43 286.21 349.03 291.09 C 350.90 284.67 353.29 278.41 355.08 271.97 C 355.93 263.34 355.81 254.63 355.87 245.96 C 356.12 239.39 353.73 233.14 353.10 226.66 C 344.59 222.12 335.40 219.04 325.94 217.22 C 324.58 216.68 323.62 217.94 322.74 218.71 Z" />
<path fill="#4c78c5" opacity="1.00" d=" M 243.14 142.98 C 247.85 141.85 252.44 143.68 257.00 144.66 C 261.65 145.73 266.31 146.73 270.96 147.81 C 267.64 151.24 264.43 154.76 261.09 158.16 C 251.67 158.41 242.28 159.23 232.87 159.57 C 226.71 155.66 220.55 151.75 214.38 147.88 C 223.76 145.18 233.44 143.91 243.14 142.98 Z" />
<path fill="#4c78c5" opacity="1.00" d=" M 310.67 178.90 C 312.11 176.63 313.57 174.36 315.01 172.09 C 319.36 176.04 324.26 179.44 328.16 183.84 C 334.10 192.73 339.95 201.69 345.92 210.57 C 339.54 207.75 333.35 204.50 327.07 201.46 C 324.09 203.54 321.06 205.54 318.08 207.62 C 315.72 206.61 313.37 205.57 311.07 204.44 C 311.55 199.65 312.91 194.85 312.10 190.01 C 311.62 186.31 311.30 182.58 310.67 178.90 Z" />
<path fill="#4c78c5" opacity="1.00" d=" M 322.74 218.71 C 323.62 217.94 324.58 216.68 325.94 217.22 C 335.40 219.04 344.59 222.12 353.10 226.66 C 353.73 233.14 356.12 239.39 355.87 245.96 C 355.81 254.63 355.93 263.34 355.08 271.97 C 353.29 278.41 350.90 284.67 349.03 291.09 C 345.43 286.21 342.83 280.65 339.06 275.91 C 334.14 272.66 328.24 271.08 323.51 267.51 C 319.59 263.76 315.37 260.18 312.57 255.47 C 310.62 252.23 308.09 249.31 306.49 245.88 C 306.23 242.63 306.31 239.37 306.40 236.12 C 306.31 234.84 307.54 234.07 308.25 233.18 C 313.12 228.39 317.94 223.56 322.74 218.71 Z" />
<path fill="#ffffff" opacity="1.00" d=" M 116.06 248.18 C 123.43 244.42 131.88 244.20 139.96 243.70 C 150.51 243.75 161.10 244.94 171.29 247.70 C 181.95 250.70 191.92 255.62 202.04 260.03 C 216.28 266.16 229.82 273.75 244.08 279.84 C 265.74 289.13 287.48 298.27 309.68 306.23 C 316.91 308.83 324.38 310.75 331.97 311.99 C 342.83 313.87 353.92 315.45 364.95 314.19 C 373.18 312.93 381.30 310.55 388.63 306.54 C 394.11 303.49 399.81 300.82 405.15 297.51 C 406.93 299.91 409.09 302.11 410.22 304.93 C 406.83 308.23 402.05 309.59 398.06 312.03 C 387.32 318.12 375.45 322.76 363.00 323.33 C 356.31 323.19 349.57 323.76 342.94 322.65 C 326.06 347.84 299.59 366.57 269.90 373.16 C 260.09 375.17 250.09 376.99 240.03 376.72 C 224.18 375.67 208.31 372.63 193.78 366.02 C 165.87 353.77 143.01 330.45 131.37 302.27 C 124.29 300.56 116.77 300.20 110.14 296.98 C 105.25 294.69 102.07 289.46 102.09 284.08 C 102.07 277.32 101.37 270.28 103.76 263.81 C 105.96 257.45 110.02 251.41 116.06 248.18 M 108.76 272.17 C 108.14 277.30 107.40 283.13 110.22 287.74 C 114.74 292.05 121.53 292.26 127.40 292.99 C 126.26 285.86 123.98 278.96 123.21 271.77 C 122.24 265.84 122.31 259.84 122.29 253.86 C 114.19 256.13 109.84 264.36 108.76 272.17 M 182.11 260.18 C 182.89 264.28 184.06 268.52 187.24 271.46 C 186.96 268.15 186.27 264.90 185.48 261.68 C 184.64 261.31 182.95 260.55 182.11 260.18 M 188.44 262.94 C 190.63 266.56 192.32 270.61 195.62 273.41 C 198.99 276.39 201.61 280.42 205.92 282.17 C 210.31 284.03 214.44 286.54 218.98 288.03 C 226.53 288.18 234.10 288.14 241.66 288.15 C 223.88 279.84 206.53 270.58 188.44 262.94 M 255.43 293.89 C 254.11 301.31 252.07 308.58 250.78 316.00 C 251.15 320.42 252.66 324.65 253.50 328.99 C 254.34 332.18 254.43 335.74 256.49 338.47 C 262.13 346.27 267.42 354.31 273.01 362.14 C 277.11 360.85 281.31 359.80 285.29 358.13 C 287.95 356.47 290.00 354.02 292.33 351.95 C 292.39 346.27 292.11 340.58 292.41 334.91 C 293.68 326.86 298.36 319.43 297.72 311.07 C 283.45 305.79 269.45 299.80 255.43 293.89 Z" />
<path fill="#4c78c5" opacity="1.00" d=" M 108.76 272.17 C 109.84 264.36 114.19 256.13 122.29 253.86 C 122.31 259.84 122.24 265.84 123.21 271.77 C 123.98 278.96 126.26 285.86 127.40 292.99 C 121.53 292.26 114.74 292.05 110.22 287.74 C 107.40 283.13 108.14 277.30 108.76 272.17 Z" />
<path fill="#4c78c5" opacity="1.00" d=" M 182.11 260.18 C 182.95 260.55 184.64 261.31 185.48 261.68 C 186.27 264.90 186.96 268.15 187.24 271.46 C 184.06 268.52 182.89 264.28 182.11 260.18 Z" />
<path fill="#4c78c5" opacity="1.00" d=" M 188.44 262.94 C 206.53 270.58 223.88 279.84 241.66 288.15 C 234.10 288.14 226.53 288.18 218.98 288.03 C 214.44 286.54 210.31 284.03 205.92 282.17 C 201.61 280.42 198.99 276.39 195.62 273.41 C 192.32 270.61 190.63 266.56 188.44 262.94 Z" />
<path fill="#4c78c5" opacity="1.00" d=" M 255.43 293.89 C 269.45 299.80 283.45 305.79 297.72 311.07 C 298.36 319.43 293.68 326.86 292.41 334.91 C 292.11 340.58 292.39 346.27 292.33 351.95 C 290.00 354.02 287.95 356.47 285.29 358.13 C 281.31 359.80 277.11 360.85 273.01 362.14 C 267.42 354.31 262.13 346.27 256.49 338.47 C 254.43 335.74 254.34 332.18 253.50 328.99 C 252.66 324.65 251.15 320.42 250.78 316.00 C 252.07 308.58 254.11 301.31 255.43 293.89 Z" />
</svg>
