<?xml version="1.0" encoding="UTF-8" ?>
<!DOCTYPE svg PUBLIC "-//W3C//DTD SVG 1.1//EN" "http://www.w3.org/Graphics/SVG/1.1/DTD/svg11.dtd">
<svg width="512pt" height="512pt" viewBox="0 0 512 512" version="1.1" xmlns="http://www.w3.org/2000/svg">
<path fill="#7b8086" opacity="1.00" d=" M 0.00 0.00 L 512.00 0.00 L 512.00 512.00 L 0.00 512.00 L 0.00 0.00 M 124.08 155.50 C 124.14 167.14 124.13 178.79 124.09 190.43 C 141.10 190.45 158.12 190.46 175.14 190.43 C 175.15 178.79 175.13 167.16 175.15 155.52 C 158.13 155.46 141.10 155.51 124.08 155.50 M 228.70 155.52 C 228.77 167.16 228.71 178.79 228.73 190.43 C 247.02 190.48 265.32 190.42 283.61 190.46 C 283.64 178.81 283.55 167.16 283.66 155.51 C 265.34 155.50 247.02 155.47 228.70 155.52 M 335.68 155.53 C 335.74 167.17 335.70 178.80 335.70 190.44 C 353.11 190.45 370.51 190.46 387.91 190.43 C 387.89 178.79 387.83 167.15 387.94 155.51 C 370.52 155.50 353.10 155.47 335.68 155.53 M 124.08 196.49 C 124.17 208.33 124.06 220.17 124.14 232.01 C 151.32 231.91 178.51 232.04 205.70 231.97 C 205.70 220.14 205.66 208.31 205.72 196.48 C 178.51 196.48 151.29 196.47 124.08 196.49 M 212.76 196.53 C 212.80 208.30 212.78 220.08 212.77 231.85 C 240.75 232.02 268.76 232.03 296.75 231.92 C 296.77 220.11 296.73 208.29 296.77 196.48 C 268.76 196.51 240.76 196.42 212.76 196.53 M 304.07 196.49 C 304.13 208.29 304.09 220.09 304.09 231.89 C 319.71 232.27 335.34 231.72 350.96 232.07 C 363.27 231.67 375.58 232.25 387.90 231.88 C 387.89 220.08 387.85 208.28 387.92 196.49 C 359.97 196.48 332.02 196.48 304.07 196.49 M 124.10 237.65 C 124.13 249.51 124.11 261.38 124.11 273.24 C 136.91 273.26 149.72 273.21 162.52 273.27 C 162.60 261.39 162.55 249.51 162.55 237.63 C 149.73 237.67 136.91 237.63 124.10 237.65 M 170.55 237.64 C 170.54 249.51 170.54 261.38 170.55 273.25 C 198.53 273.25 226.50 273.23 254.47 273.26 C 254.51 261.38 254.48 249.51 254.49 237.63 C 226.51 237.66 198.53 237.64 170.55 237.64 M 262.49 273.26 C 290.46 273.23 318.44 273.26 346.42 273.24 C 346.42 261.38 346.41 249.51 346.42 237.65 C 318.44 237.62 290.46 237.68 262.48 237.62 C 262.47 249.50 262.46 261.38 262.49 273.26 M 353.56 237.64 C 353.56 249.51 353.54 261.38 353.57 273.25 C 365.01 273.24 376.45 273.25 387.89 273.24 C 387.89 261.38 387.87 249.51 387.90 237.65 C 376.45 237.64 365.01 237.65 353.56 237.64 M 124.09 279.27 C 124.12 290.99 124.14 302.70 124.08 314.42 C 151.31 314.38 178.55 314.56 205.78 314.33 C 205.59 302.64 205.73 290.95 205.70 279.27 C 178.50 279.27 151.30 279.26 124.09 279.27 M 212.67 279.47 C 212.91 291.11 212.72 302.76 212.77 314.41 C 240.73 314.52 268.69 314.30 296.65 314.52 C 296.89 302.77 296.68 291.01 296.76 279.26 C 268.73 279.41 240.69 278.99 212.67 279.47 M 304.08 279.28 C 304.10 290.99 304.13 302.71 304.07 314.42 C 332.02 314.44 359.97 314.44 387.92 314.42 C 387.86 302.70 387.88 290.99 387.91 279.27 C 359.97 279.26 332.02 279.26 304.08 279.28 M 124.08 320.48 C 124.13 332.24 124.14 344.00 124.07 355.75 C 136.91 355.77 149.75 355.77 162.58 355.75 C 162.54 343.99 162.56 332.23 162.57 320.47 C 149.74 320.49 136.91 320.48 124.08 320.48 M 169.72 320.50 C 169.77 332.25 169.73 344.00 169.74 355.75 C 198.00 355.77 226.26 355.78 254.52 355.75 C 254.46 343.99 254.48 332.24 254.51 320.48 C 226.25 320.50 197.98 320.46 169.72 320.50 M 261.61 320.50 C 261.65 332.25 261.62 344.01 261.62 355.77 C 289.89 355.76 318.16 355.77 346.43 355.76 C 346.43 344.01 346.39 332.25 346.45 320.50 C 318.17 320.48 289.89 320.47 261.61 320.50 M 353.54 320.49 C 353.54 332.22 353.61 343.96 353.50 355.69 C 364.97 355.85 376.45 355.73 387.93 355.75 C 387.85 344.00 387.88 332.24 387.91 320.48 C 376.45 320.49 364.99 320.47 353.54 320.49 Z" />
<path fill="#ffffff" opacity="1.00" d=" M 124.08 155.50 C 141.10 155.51 158.13 155.46 175.15 155.52 C 175.13 167.16 175.15 178.79 175.14 190.43 C 158.12 190.46 141.10 190.45 124.09 190.43 C 124.13 178.79 124.14 167.14 124.08 155.50 Z" />
<path fill="#ffffff" opacity="1.00" d=" M 228.70 155.52 C 247.02 155.47 265.34 155.50 283.66 155.51 C 283.55 167.16 283.64 178.81 283.61 190.46 C 265.32 190.42 247.02 190.48 228.73 190.43 C 228.71 178.79 228.77 167.16 228.70 155.52 Z" />
<path fill="#ffffff" opacity="1.00" d=" M 335.68 155.53 C 353.10 155.47 370.52 155.50 387.94 155.51 C 387.83 167.15 387.89 178.79 387.91 190.43 C 370.51 190.46 353.11 190.45 335.70 190.44 C 335.70 178.80 335.74 167.17 335.68 155.53 Z" />
<path fill="#ffffff" opacity="1.00" d=" M 124.08 196.49 C 151.29 196.47 178.51 196.48 205.72 196.48 C 205.66 208.31 205.70 220.14 205.70 231.97 C 178.51 232.04 151.32 231.91 124.14 232.01 C 124.06 220.17 124.17 208.33 124.08 196.49 Z" />
<path fill="#ffffff" opacity="1.00" d=" M 212.76 196.53 C 240.76 196.42 268.76 196.51 296.77 196.48 C 296.73 208.29 296.77 220.11 296.75 231.92 C 268.76 232.03 240.75 232.02 212.77 231.85 C 212.78 220.08 212.80 208.30 212.76 196.53 Z" />
<path fill="#ffffff" opacity="1.00" d=" M 304.07 196.49 C 332.02 196.48 359.97 196.48 387.92 196.49 C 387.85 208.28 387.89 220.08 387.90 231.88 C 375.58 232.25 363.27 231.67 350.96 232.07 C 335.34 231.72 319.71 232.27 304.09 231.89 C 304.09 220.09 304.13 208.29 304.07 196.49 Z" />
<path fill="#ffffff" opacity="1.00" d=" M 124.10 237.65 C 136.91 237.63 149.73 237.67 162.55 237.63 C 162.55 249.51 162.60 261.39 162.52 273.27 C 149.72 273.21 136.91 273.26 124.11 273.24 C 124.11 261.38 124.13 249.51 124.10 237.65 Z" />
<path fill="#ffffff" opacity="1.00" d=" M 170.55 237.64 C 198.53 237.64 226.51 237.66 254.49 237.63 C 254.48 249.51 254.51 261.38 254.47 273.26 C 226.50 273.23 198.53 273.25 170.55 273.25 C 170.54 261.38 170.54 249.51 170.55 237.64 Z" />
<path fill="#ffffff" opacity="1.00" d=" M 262.49 273.26 C 262.46 261.38 262.47 249.50 262.48 237.62 C 290.46 237.68 318.44 237.62 346.42 237.65 C 346.41 249.51 346.42 261.38 346.42 273.24 C 318.44 273.26 290.46 273.23 262.49 273.26 Z" />
<path fill="#ffffff" opacity="1.00" d=" M 353.56 237.64 C 365.01 237.65 376.45 237.64 387.90 237.65 C 387.87 249.51 387.89 261.38 387.89 273.24 C 376.45 273.25 365.01 273.24 353.57 273.25 C 353.54 261.38 353.56 249.51 353.56 237.64 Z" />
<path fill="#ffffff" opacity="1.00" d=" M 124.09 279.27 C 151.30 279.26 178.50 279.27 205.70 279.27 C 205.73 290.95 205.59 302.64 205.78 314.33 C 178.55 314.56 151.31 314.38 124.08 314.42 C 124.14 302.70 124.12 290.99 124.09 279.27 Z" />
<path fill="#ffffff" opacity="1.00" d=" M 212.67 279.47 C 240.69 278.99 268.73 279.41 296.76 279.26 C 296.68 291.01 296.89 302.77 296.65 314.52 C 268.69 314.30 240.73 314.52 212.77 314.41 C 212.72 302.76 212.91 291.11 212.67 279.47 Z" />
<path fill="#ffffff" opacity="1.00" d=" M 304.08 279.28 C 332.02 279.26 359.97 279.26 387.91 279.27 C 387.88 290.99 387.86 302.70 387.92 314.42 C 359.97 314.44 332.02 314.44 304.07 314.42 C 304.13 302.71 304.10 290.99 304.08 279.28 Z" />
<path fill="#ffffff" opacity="1.00" d=" M 124.08 320.48 C 136.91 320.48 149.74 320.49 162.57 320.47 C 162.56 332.23 162.54 343.99 162.58 355.75 C 149.75 355.77 136.91 355.77 124.07 355.75 C 124.14 344.00 124.13 332.24 124.08 320.48 Z" />
<path fill="#ffffff" opacity="1.00" d=" M 169.72 320.50 C 197.98 320.46 226.25 320.50 254.51 320.48 C 254.48 332.24 254.46 343.99 254.52 355.75 C 226.26 355.78 198.00 355.77 169.74 355.75 C 169.73 344.00 169.77 332.25 169.72 320.50 Z" />
<path fill="#ffffff" opacity="1.00" d=" M 261.61 320.50 C 289.89 320.47 318.17 320.48 346.45 320.50 C 346.39 332.25 346.43 344.01 346.43 355.76 C 318.16 355.77 289.89 355.76 261.62 355.77 C 261.62 344.01 261.65 332.25 261.61 320.50 Z" />
<path fill="#ffffff" opacity="1.00" d=" M 353.54 320.49 C 364.99 320.47 376.45 320.49 387.91 320.48 C 387.88 332.24 387.85 344.00 387.93 355.75 C 376.45 355.73 364.97 355.85 353.50 355.69 C 353.61 343.96 353.54 332.22 353.54 320.49 Z" />
</svg>
