<?xml version="1.0" encoding="UTF-8" ?>
<!DOCTYPE svg PUBLIC "-//W3C//DTD SVG 1.1//EN" "http://www.w3.org/Graphics/SVG/1.1/DTD/svg11.dtd">
<svg width="512pt" height="512pt" viewBox="0 0 512 512" version="1.1" xmlns="http://www.w3.org/2000/svg">
<path fill="#009f3c" opacity="1.00" d=" M 0.00 0.00 L 512.00 0.00 L 512.00 512.00 L 0.00 512.00 L 0.00 0.00 M 258.96 158.33 C 264.30 159.47 268.82 162.79 273.87 164.50 C 318.47 164.63 363.09 164.51 407.70 164.56 C 407.63 197.82 407.67 231.09 407.68 264.35 C 363.23 264.34 318.78 264.34 274.34 264.35 C 274.37 241.56 274.34 218.77 274.36 195.99 C 274.72 193.92 273.21 191.76 271.03 191.78 C 261.79 191.60 252.54 191.77 243.30 191.73 C 243.33 185.85 243.32 179.98 243.31 174.10 C 241.13 174.30 238.95 174.52 236.78 174.76 C 236.78 180.41 236.76 186.07 236.80 191.72 C 228.80 191.71 220.79 191.70 212.78 191.73 C 212.59 192.22 212.20 193.21 212.00 193.71 C 213.73 193.72 215.46 193.72 217.20 193.74 C 217.40 194.27 217.82 195.35 218.03 195.89 C 217.08 196.68 216.13 197.47 215.19 198.26 C 222.39 198.27 229.59 198.27 236.80 198.26 C 236.75 225.18 236.81 252.09 236.77 279.01 C 236.58 281.11 237.30 284.03 239.87 284.12 C 249.20 284.34 258.53 284.13 267.87 284.20 C 267.82 288.75 267.83 293.30 267.86 297.85 C 213.06 297.84 158.26 297.84 103.47 297.85 C 103.49 264.65 103.50 231.46 103.46 198.27 C 131.25 198.31 159.04 198.17 186.83 198.34 C 185.84 196.97 185.01 195.49 185.33 193.75 C 188.03 193.20 192.23 195.20 193.54 191.81 C 163.71 191.57 133.87 191.82 104.03 191.68 C 101.81 191.58 99.63 192.04 97.50 192.61 C 97.30 233.37 97.45 274.15 97.43 314.91 C 97.09 316.93 99.19 317.94 100.92 317.67 C 155.93 317.70 210.95 317.64 265.97 317.70 C 268.89 317.52 272.61 318.58 274.46 315.58 C 274.21 305.12 274.43 294.65 274.33 284.19 C 319.21 284.19 364.08 284.18 408.95 284.22 C 410.46 284.24 412.05 284.12 413.36 283.27 C 414.19 280.26 413.68 277.08 413.80 274.01 C 413.80 237.00 413.77 200.00 413.82 162.99 C 413.73 161.60 413.94 160.07 413.16 158.83 C 411.93 157.98 410.36 158.14 408.96 158.07 C 360.65 158.12 312.35 158.07 264.05 158.09 C 262.35 158.14 260.65 158.22 258.96 158.33 M 220.05 165.11 C 207.67 171.54 198.58 183.33 194.65 196.63 C 193.04 196.68 191.43 196.72 189.83 196.76 C 192.84 200.52 196.07 204.10 199.13 207.82 C 203.52 204.18 207.89 200.53 212.23 196.83 C 211.13 196.73 208.93 196.53 207.84 196.43 C 212.42 181.28 228.36 170.83 243.99 171.19 C 253.96 170.93 263.84 175.10 270.99 181.98 C 278.18 188.84 282.46 198.50 282.92 208.41 C 286.89 208.42 290.86 208.42 294.83 208.42 C 294.41 190.55 283.80 173.42 267.95 165.16 C 253.30 157.22 234.72 157.25 220.05 165.11 M 307.71 286.15 C 307.73 293.65 307.73 301.16 307.71 308.67 C 319.55 308.65 331.38 308.74 343.22 308.62 C 343.18 301.14 343.19 293.66 343.22 286.18 C 331.38 286.11 319.54 286.18 307.71 286.15 M 281.42 319.42 C 310.62 319.41 339.82 319.44 369.02 319.41 C 367.39 312.55 365.76 305.69 364.05 298.85 C 358.41 298.83 352.77 298.84 347.14 298.83 C 348.11 303.03 349.12 307.21 350.25 311.37 C 333.67 311.36 317.09 311.37 300.51 311.37 C 301.65 307.21 302.69 303.02 303.71 298.83 C 298.00 298.83 292.28 298.84 286.57 298.82 C 284.71 305.65 283.29 312.59 281.42 319.42 M 167.79 319.48 C 168.01 327.07 167.35 334.70 168.23 342.26 C 179.91 342.14 191.59 342.23 203.28 342.21 C 203.29 334.62 203.27 327.04 203.29 319.45 C 191.46 319.46 179.62 319.40 167.79 319.48 M 146.93 332.36 C 145.14 339.30 143.48 346.27 141.58 353.17 C 170.91 353.18 200.24 353.19 229.58 353.17 C 227.67 346.26 226.02 339.27 224.20 332.34 C 218.55 332.38 212.90 332.34 207.25 332.36 C 208.31 336.45 209.34 340.56 210.46 344.63 C 193.87 344.69 177.28 344.69 160.69 344.63 C 161.84 340.57 162.90 336.48 163.88 332.37 C 158.23 332.34 152.58 332.36 146.93 332.36 Z" />
<path fill="#ffffff" opacity="1.00" d=" M 258.96 158.33 C 260.65 158.22 262.35 158.14 264.05 158.09 C 312.35 158.07 360.65 158.12 408.96 158.07 C 410.36 158.14 411.93 157.98 413.16 158.83 C 413.94 160.07 413.73 161.60 413.82 162.99 C 413.77 200.00 413.80 237.00 413.80 274.01 C 413.68 277.08 414.19 280.26 413.36 283.27 C 412.05 284.12 410.46 284.24 408.95 284.22 C 364.08 284.18 319.21 284.19 274.33 284.19 C 274.43 294.65 274.21 305.12 274.46 315.58 C 272.61 318.58 268.89 317.52 265.97 317.70 C 210.95 317.64 155.93 317.70 100.92 317.67 C 99.19 317.94 97.09 316.93 97.43 314.91 C 97.45 274.15 97.30 233.37 97.50 192.61 C 99.63 192.04 101.81 191.58 104.03 191.68 C 133.87 191.82 163.71 191.57 193.54 191.81 C 192.23 195.20 188.03 193.20 185.33 193.75 C 185.01 195.49 185.84 196.97 186.83 198.34 C 159.04 198.17 131.25 198.31 103.46 198.27 C 103.50 231.46 103.49 264.65 103.47 297.85 C 158.26 297.84 213.06 297.84 267.86 297.85 C 267.83 293.30 267.82 288.75 267.87 284.20 C 258.53 284.13 249.20 284.34 239.87 284.12 C 237.30 284.03 236.58 281.11 236.77 279.01 C 236.81 252.09 236.75 225.18 236.80 198.26 C 229.59 198.27 222.39 198.27 215.19 198.26 C 216.13 197.47 217.08 196.68 218.03 195.89 C 217.82 195.35 217.40 194.27 217.20 193.74 C 215.46 193.72 213.73 193.72 212.00 193.71 C 212.20 193.21 212.59 192.22 212.78 191.73 C 220.79 191.70 228.80 191.71 236.80 191.72 C 236.76 186.07 236.78 180.41 236.78 174.76 C 238.95 174.52 241.13 174.30 243.31 174.10 C 243.32 179.98 243.33 185.85 243.30 191.73 C 252.54 191.77 261.79 191.60 271.03 191.78 C 273.21 191.76 274.72 193.92 274.36 195.99 C 274.34 218.77 274.37 241.56 274.34 264.35 C 318.78 264.34 363.23 264.34 407.68 264.35 C 407.67 231.09 407.63 197.82 407.70 164.56 C 363.09 164.51 318.47 164.63 273.87 164.50 C 268.82 162.79 264.30 159.47 258.96 158.33 M 243.30 198.26 C 243.33 220.29 243.35 242.31 243.29 264.34 C 251.48 264.34 259.67 264.34 267.86 264.34 C 267.82 242.32 267.81 220.29 267.87 198.27 C 259.68 198.26 251.49 198.27 243.30 198.26 Z" />
<path fill="#ffffff" opacity="1.00" d=" M 220.05 165.11 C 234.72 157.25 253.30 157.22 267.95 165.16 C 283.80 173.42 294.41 190.55 294.83 208.42 C 290.86 208.42 286.89 208.42 282.92 208.41 C 282.46 198.50 278.18 188.84 270.99 181.98 C 263.84 175.10 253.96 170.93 243.99 171.19 C 228.36 170.83 212.42 181.28 207.84 196.43 C 208.93 196.53 211.13 196.73 212.23 196.83 C 207.89 200.53 203.52 204.18 199.13 207.82 C 196.07 204.10 192.84 200.52 189.83 196.76 C 191.43 196.72 193.04 196.68 194.65 196.63 C 198.58 183.33 207.67 171.54 220.05 165.11 Z" />
<path fill="#009f3c" opacity="1.00" d=" M 243.30 198.26 C 251.49 198.27 259.68 198.26 267.87 198.27 C 267.81 220.29 267.82 242.32 267.86 264.34 C 259.67 264.34 251.48 264.34 243.29 264.34 C 243.35 242.31 243.33 220.29 243.30 198.26 Z" />
<path fill="#ffffff" opacity="1.00" d=" M 307.71 286.15 C 319.54 286.18 331.38 286.11 343.22 286.18 C 343.19 293.66 343.18 301.14 343.22 308.62 C 331.38 308.74 319.55 308.65 307.71 308.67 C 307.73 301.16 307.73 293.65 307.71 286.15 Z" />
<path fill="#ffffff" opacity="1.00" d=" M 281.42 319.42 C 283.29 312.59 284.71 305.65 286.57 298.82 C 292.28 298.84 298.00 298.83 303.71 298.83 C 302.69 303.02 301.65 307.21 300.51 311.37 C 317.09 311.37 333.67 311.36 350.25 311.37 C 349.12 307.21 348.11 303.03 347.14 298.83 C 352.77 298.84 358.41 298.83 364.05 298.85 C 365.76 305.69 367.39 312.55 369.02 319.41 C 339.82 319.44 310.62 319.41 281.42 319.42 Z" />
<path fill="#ffffff" opacity="1.00" d=" M 167.79 319.48 C 179.62 319.40 191.46 319.46 203.29 319.45 C 203.27 327.04 203.29 334.62 203.28 342.21 C 191.59 342.23 179.91 342.14 168.23 342.26 C 167.35 334.70 168.01 327.07 167.79 319.48 Z" />
<path fill="#ffffff" opacity="1.00" d=" M 146.93 332.36 C 152.58 332.36 158.23 332.34 163.88 332.37 C 162.90 336.48 161.84 340.57 160.69 344.63 C 177.28 344.69 193.87 344.69 210.46 344.63 C 209.34 340.56 208.31 336.45 207.25 332.36 C 212.90 332.34 218.55 332.38 224.20 332.34 C 226.02 339.27 227.67 346.26 229.58 353.17 C 200.24 353.19 170.91 353.18 141.58 353.17 C 143.48 346.27 145.14 339.30 146.93 332.36 Z" />
</svg>
