<?xml version="1.0" encoding="UTF-8" ?>
<!DOCTYPE svg PUBLIC "-//W3C//DTD SVG 1.1//EN" "http://www.w3.org/Graphics/SVG/1.1/DTD/svg11.dtd">
<svg width="512pt" height="512pt" viewBox="0 0 512 512" version="1.1" xmlns="http://www.w3.org/2000/svg">
<path fill="#b44528" opacity="1.00" d=" M 0.00 0.00 L 512.00 0.00 L 512.00 512.00 L 0.00 512.00 L 0.00 0.00 M 211.56 147.62 C 191.80 160.43 176.66 179.63 167.51 201.23 C 182.72 201.23 197.93 201.26 213.14 201.22 C 213.55 199.75 213.98 198.29 214.42 196.83 C 213.02 193.47 211.64 190.10 210.19 186.76 C 206.75 185.31 203.27 183.95 199.85 182.44 C 198.10 183.89 196.34 185.36 194.62 186.85 C 192.57 184.43 191.09 181.61 189.39 178.95 C 192.64 174.90 195.98 170.92 199.21 166.86 C 212.17 163.44 225.07 159.78 238.05 156.48 C 243.46 157.96 248.51 160.58 253.96 161.90 C 256.63 161.66 259.12 160.49 261.78 160.20 C 268.63 165.66 274.98 171.73 281.98 176.99 C 287.59 183.90 292.42 191.45 298.67 197.84 C 297.73 198.96 296.79 200.08 295.86 201.21 C 319.83 201.26 343.80 201.24 367.77 201.22 C 367.76 204.11 367.75 207.01 367.81 209.90 C 372.61 211.26 377.09 213.49 381.65 215.47 C 383.18 215.89 383.18 217.66 383.49 218.91 C 384.10 223.27 385.37 227.52 385.78 231.91 C 385.96 241.29 385.86 250.69 385.06 260.04 C 383.35 266.42 380.93 272.60 379.10 278.96 C 376.59 274.81 373.95 270.75 371.44 266.61 C 370.57 265.06 369.36 263.73 367.84 262.79 C 367.69 280.84 367.75 298.89 367.81 316.94 C 383.90 296.33 393.23 270.24 392.50 244.01 C 392.81 220.35 384.97 196.81 371.33 177.56 C 355.36 154.75 330.83 138.15 303.80 131.54 C 292.40 129.07 280.65 127.21 268.97 128.42 C 248.60 129.61 228.54 136.26 211.56 147.62 M 119.42 247.61 C 143.91 247.47 168.39 247.78 192.88 247.69 C 192.81 234.73 192.85 221.76 192.86 208.80 C 168.41 208.76 143.96 208.93 119.50 208.81 C 119.32 221.74 119.48 234.68 119.42 247.61 M 199.71 208.79 C 199.71 221.77 199.70 234.75 199.72 247.72 C 224.94 247.52 250.17 247.61 275.39 247.65 C 275.33 234.72 275.38 221.78 275.36 208.84 C 250.15 208.84 224.93 208.88 199.71 208.79 M 282.18 208.82 C 281.95 221.75 281.62 234.70 281.71 247.65 C 306.92 247.75 332.13 247.72 357.34 247.60 C 357.32 234.68 357.36 221.77 357.32 208.85 C 332.27 208.74 307.22 208.81 282.18 208.82 M 161.47 254.50 C 161.57 267.42 161.39 280.34 161.57 293.26 C 186.63 293.45 211.69 293.33 236.75 293.36 C 236.82 280.42 236.61 267.47 236.61 254.53 C 211.56 254.45 186.52 254.49 161.47 254.50 M 244.69 254.53 C 244.78 267.48 244.41 280.42 244.53 293.37 C 269.60 293.43 294.67 293.21 319.75 293.23 C 319.80 280.32 319.74 267.41 319.82 254.50 C 294.78 254.48 269.74 254.45 244.69 254.53 M 326.55 254.50 C 326.60 267.41 326.56 280.32 326.67 293.23 C 336.94 293.51 347.23 293.28 357.51 293.37 C 357.41 280.42 357.74 267.47 357.31 254.52 C 347.05 254.46 336.80 254.47 326.55 254.50 M 119.42 254.53 C 119.45 267.44 119.39 280.35 119.45 293.26 C 130.86 293.25 142.27 293.21 153.68 293.28 C 153.77 280.35 153.69 267.41 153.72 254.48 C 142.29 254.55 130.85 254.46 119.42 254.53 M 119.42 338.47 C 143.87 338.52 168.32 338.50 192.77 338.48 C 192.70 325.54 192.92 312.59 192.87 299.65 C 168.40 299.69 143.93 299.83 119.46 299.74 C 119.38 312.65 119.45 325.56 119.42 338.47 M 199.71 299.62 C 199.72 312.57 199.66 325.52 199.78 338.47 C 225.01 338.57 250.24 338.50 275.48 338.50 C 275.41 325.54 275.45 312.58 275.46 299.62 C 250.21 299.65 224.96 299.64 199.71 299.62 M 281.73 299.64 C 281.73 312.58 281.76 325.53 281.71 338.48 C 306.92 338.51 332.14 338.54 357.35 338.47 C 357.45 325.53 357.58 312.58 357.52 299.63 C 332.26 299.56 306.99 299.99 281.73 299.64 M 119.42 345.39 C 119.40 358.10 119.47 370.81 119.39 383.53 C 130.85 383.55 142.32 383.53 153.79 383.54 C 153.64 370.82 153.72 358.11 153.75 345.40 C 142.31 345.42 130.87 345.43 119.42 345.39 M 160.74 345.44 C 160.80 358.12 160.78 370.79 160.75 383.47 C 186.04 383.61 211.34 383.51 236.64 383.53 C 236.52 370.78 236.62 358.04 236.75 345.29 C 211.41 345.42 186.08 345.40 160.74 345.44 M 243.60 345.35 C 243.74 358.07 243.92 370.79 243.79 383.51 C 269.11 383.55 294.44 383.56 319.77 383.50 C 319.76 370.76 319.75 358.03 319.79 345.29 C 294.40 345.44 269.00 345.17 243.60 345.35 M 326.54 345.31 C 326.79 358.05 326.67 370.79 326.63 383.54 C 336.87 383.53 347.12 383.54 357.36 383.53 C 357.31 370.82 357.34 358.11 357.34 345.40 C 347.07 345.47 336.80 345.37 326.54 345.31 Z" />
<path fill="#ffffff" opacity="1.00" d=" M 211.56 147.62 C 228.54 136.26 248.60 129.61 268.97 128.42 C 280.65 127.21 292.40 129.07 303.80 131.54 C 330.83 138.15 355.36 154.75 371.33 177.56 C 384.97 196.81 392.81 220.35 392.50 244.01 C 393.23 270.24 383.90 296.33 367.81 316.94 C 367.75 298.89 367.69 280.84 367.84 262.79 C 369.36 263.73 370.57 265.06 371.44 266.61 C 373.95 270.75 376.59 274.81 379.10 278.96 C 380.93 272.60 383.35 266.42 385.06 260.04 C 385.86 250.69 385.96 241.29 385.78 231.91 C 385.37 227.52 384.10 223.27 383.49 218.91 C 383.18 217.66 383.18 215.89 381.65 215.47 C 377.09 213.49 372.61 211.26 367.81 209.90 C 367.75 207.01 367.76 204.11 367.77 201.22 C 343.80 201.24 319.83 201.26 295.86 201.21 C 296.79 200.08 297.73 198.96 298.67 197.84 C 292.42 191.45 287.59 183.90 281.98 176.99 C 274.98 171.73 268.63 165.66 261.78 160.20 C 259.12 160.49 256.63 161.66 253.96 161.90 C 248.51 160.58 243.46 157.96 238.05 156.48 C 225.07 159.78 212.17 163.44 199.21 166.86 C 195.98 170.92 192.64 174.90 189.39 178.95 C 191.09 181.61 192.57 184.43 194.62 186.85 C 196.34 185.36 198.10 183.89 199.85 182.44 C 203.27 183.95 206.75 185.31 210.19 186.76 C 211.64 190.10 213.02 193.47 214.42 196.83 C 213.98 198.29 213.55 199.75 213.14 201.22 C 197.93 201.26 182.72 201.23 167.51 201.23 C 176.66 179.63 191.80 160.43 211.56 147.62 M 248.80 139.87 C 254.65 143.90 260.77 147.52 266.73 151.38 C 275.78 150.43 284.93 150.72 293.96 149.59 C 297.59 146.96 300.12 142.95 303.40 139.85 C 295.94 138.23 288.51 136.41 281.04 134.83 C 270.20 135.74 259.32 136.94 248.80 139.87 M 346.21 163.41 C 344.91 165.63 343.08 167.62 342.26 170.08 C 342.21 175.05 343.73 179.91 343.63 184.89 C 343.40 188.27 342.74 191.60 342.40 194.97 C 344.61 195.86 346.75 196.97 349.04 197.66 C 352.24 196.12 354.93 193.69 358.02 191.93 C 364.03 194.89 369.99 197.97 376.11 200.70 C 370.26 191.94 364.54 183.10 358.62 174.40 C 354.82 170.38 350.31 167.11 346.21 163.41 Z" />
<path fill="#b44528" opacity="1.00" d=" M 248.80 139.87 C 259.32 136.94 270.20 135.74 281.04 134.83 C 288.51 136.41 295.94 138.23 303.40 139.85 C 300.12 142.95 297.59 146.96 293.96 149.59 C 284.93 150.72 275.78 150.43 266.73 151.38 C 260.77 147.52 254.65 143.90 248.80 139.87 Z" />
<path fill="#b44528" opacity="1.00" d=" M 346.21 163.41 C 350.31 167.11 354.82 170.38 358.62 174.40 C 364.54 183.10 370.26 191.94 376.11 200.70 C 369.99 197.97 364.03 194.89 358.02 191.93 C 354.93 193.69 352.24 196.12 349.04 197.66 C 346.75 196.97 344.61 195.86 342.40 194.97 C 342.74 191.60 343.40 188.27 343.63 184.89 C 343.73 179.91 342.21 175.05 342.26 170.08 C 343.08 167.62 344.91 165.63 346.21 163.41 Z" />
<path fill="#ffffff" opacity="1.00" d=" M 119.42 247.61 C 119.48 234.68 119.32 221.74 119.50 208.81 C 143.96 208.93 168.41 208.76 192.86 208.80 C 192.85 221.76 192.81 234.73 192.88 247.69 C 168.39 247.78 143.91 247.47 119.42 247.61 Z" />
<path fill="#ffffff" opacity="1.00" d=" M 199.71 208.79 C 224.93 208.88 250.15 208.84 275.36 208.84 C 275.38 221.78 275.33 234.72 275.39 247.65 C 250.17 247.61 224.94 247.52 199.72 247.72 C 199.70 234.75 199.71 221.77 199.71 208.79 Z" />
<path fill="#ffffff" opacity="1.00" d=" M 282.18 208.82 C 307.22 208.81 332.27 208.74 357.32 208.85 C 357.36 221.77 357.32 234.68 357.34 247.60 C 332.13 247.72 306.92 247.75 281.71 247.65 C 281.62 234.70 281.95 221.75 282.18 208.82 Z" />
<path fill="#ffffff" opacity="1.00" d=" M 161.47 254.50 C 186.52 254.49 211.56 254.45 236.61 254.53 C 236.61 267.47 236.82 280.42 236.75 293.36 C 211.69 293.33 186.63 293.45 161.57 293.26 C 161.39 280.34 161.57 267.42 161.47 254.50 Z" />
<path fill="#ffffff" opacity="1.00" d=" M 244.69 254.53 C 269.74 254.45 294.78 254.48 319.82 254.50 C 319.74 267.41 319.80 280.32 319.75 293.23 C 294.67 293.21 269.60 293.43 244.53 293.37 C 244.41 280.42 244.78 267.48 244.69 254.53 Z" />
<path fill="#ffffff" opacity="1.00" d=" M 326.55 254.50 C 336.80 254.47 347.05 254.46 357.31 254.52 C 357.74 267.47 357.41 280.42 357.51 293.37 C 347.23 293.28 336.94 293.51 326.67 293.23 C 326.56 280.32 326.60 267.41 326.55 254.50 Z" />
<path fill="#ffffff" opacity="1.00" d=" M 119.42 254.53 C 130.85 254.46 142.29 254.55 153.72 254.48 C 153.69 267.41 153.77 280.35 153.68 293.28 C 142.27 293.21 130.86 293.25 119.45 293.26 C 119.39 280.35 119.45 267.44 119.42 254.53 Z" />
<path fill="#ffffff" opacity="1.00" d=" M 119.42 338.47 C 119.45 325.56 119.38 312.65 119.46 299.74 C 143.93 299.83 168.40 299.69 192.87 299.65 C 192.92 312.59 192.70 325.54 192.77 338.48 C 168.32 338.50 143.87 338.52 119.42 338.47 Z" />
<path fill="#ffffff" opacity="1.00" d=" M 199.71 299.62 C 224.96 299.64 250.21 299.65 275.46 299.62 C 275.45 312.58 275.41 325.54 275.48 338.50 C 250.24 338.50 225.01 338.57 199.78 338.47 C 199.66 325.52 199.72 312.57 199.71 299.62 Z" />
<path fill="#ffffff" opacity="1.00" d=" M 281.73 299.64 C 306.99 299.99 332.26 299.56 357.52 299.63 C 357.58 312.58 357.45 325.53 357.35 338.47 C 332.14 338.54 306.92 338.51 281.71 338.48 C 281.76 325.53 281.73 312.58 281.73 299.64 Z" />
<path fill="#ffffff" opacity="1.00" d=" M 119.42 345.39 C 130.87 345.43 142.31 345.42 153.75 345.40 C 153.72 358.11 153.64 370.82 153.79 383.54 C 142.32 383.53 130.85 383.55 119.39 383.53 C 119.47 370.81 119.40 358.10 119.42 345.39 Z" />
<path fill="#ffffff" opacity="1.00" d=" M 160.74 345.44 C 186.08 345.40 211.41 345.42 236.75 345.29 C 236.62 358.04 236.52 370.78 236.64 383.53 C 211.34 383.51 186.04 383.61 160.75 383.47 C 160.78 370.79 160.80 358.12 160.74 345.44 Z" />
<path fill="#ffffff" opacity="1.00" d=" M 243.60 345.35 C 269.00 345.17 294.40 345.44 319.79 345.29 C 319.75 358.03 319.76 370.76 319.77 383.50 C 294.44 383.56 269.11 383.55 243.79 383.51 C 243.92 370.79 243.74 358.07 243.60 345.35 Z" />
<path fill="#ffffff" opacity="1.00" d=" M 326.54 345.31 C 336.80 345.37 347.07 345.47 357.34 345.40 C 357.34 358.11 357.31 370.82 357.36 383.53 C 347.12 383.54 336.87 383.53 326.63 383.54 C 326.67 370.79 326.79 358.05 326.54 345.31 Z" />
</svg>
