<?xml version="1.0" encoding="UTF-8" ?>
<!DOCTYPE svg PUBLIC "-//W3C//DTD SVG 1.1//EN" "http://www.w3.org/Graphics/SVG/1.1/DTD/svg11.dtd">
<svg width="512pt" height="512pt" viewBox="0 0 512 512" version="1.1" xmlns="http://www.w3.org/2000/svg">
<path fill="#0099ff" opacity="1.00" d=" M 0.00 0.00 L 512.00 0.00 L 512.00 512.00 L 0.00 512.00 L 0.00 0.00 Z" />
<path fill="#ffffff" opacity="1.00" d=" M 207.07 116.76 C 240.97 104.67 279.22 105.92 312.43 119.69 C 316.81 146.06 321.26 172.41 325.65 198.78 C 286.13 171.42 246.63 144.05 207.07 116.76 Z" />
<path fill="#ffffff" opacity="1.00" d=" M 121.99 193.75 C 137.06 161.16 164.51 134.79 197.37 120.45 C 220.09 135.90 242.62 151.64 265.27 167.19 C 217.52 176.05 169.77 185.02 121.99 193.75 Z" />
<path fill="#ffffff" opacity="1.00" d=" M 322.63 124.33 C 354.07 140.22 379.25 167.73 392.62 200.29 C 377.37 221.93 361.94 243.44 346.64 265.05 C 338.52 218.16 330.64 171.23 322.63 124.33 Z" />
<path fill="#ffffff" opacity="1.00" d=" M 118.21 203.22 C 144.66 198.16 171.30 193.85 197.81 189.05 C 170.88 227.84 143.81 266.56 116.76 305.27 C 105.06 272.57 105.33 235.51 118.21 203.22 Z" />
<path fill="#ffffff" opacity="1.00" d=" M 314.69 326.60 C 341.77 287.45 368.63 248.14 395.90 209.13 C 406.98 242.31 405.75 279.29 392.58 311.69 C 366.64 316.79 340.66 321.67 314.69 326.60 Z" />
<path fill="#ffffff" opacity="1.00" d=" M 121.88 313.99 C 136.29 293.03 150.27 271.78 164.90 250.98 C 173.62 297.03 182.96 342.97 191.76 389.01 C 161.88 374.65 137.21 349.90 122.88 320.01 C 122.19 318.11 120.05 315.87 121.88 313.99 Z" />
<path fill="#ffffff" opacity="1.00" d=" M 187.22 316.38 C 226.24 342.63 265.07 369.17 304.14 395.36 C 270.95 407.32 233.47 406.07 200.79 393.00 C 196.21 367.47 191.83 341.91 187.22 316.38 Z" />
<path fill="#ffffff" opacity="1.00" d=" M 248.96 347.68 C 295.51 338.52 342.10 329.63 388.65 320.50 C 373.16 352.38 345.87 378.36 313.12 391.98 C 291.72 377.22 270.39 362.39 248.96 347.68 Z" />
</svg>
