<?xml version="1.0" encoding="UTF-8" ?>
<!DOCTYPE svg PUBLIC "-//W3C//DTD SVG 1.1//EN" "http://www.w3.org/Graphics/SVG/1.1/DTD/svg11.dtd">
<svg width="512pt" height="512pt" viewBox="0 0 512 512" version="1.1" xmlns="http://www.w3.org/2000/svg">
<path fill="#c40a27" opacity="1.00" d=" M 0.00 0.00 L 512.00 0.00 L 512.00 512.00 L 0.00 512.00 L 0.00 0.00 Z" />
<path fill="#ffffff" opacity="1.00" d=" M 151.43 161.47 C 159.83 152.59 171.87 147.47 184.05 147.14 C 224.35 147.16 264.66 147.15 304.97 147.15 C 315.58 146.74 326.39 149.69 335.02 155.97 C 346.66 164.13 353.89 177.92 354.39 192.09 C 354.53 205.08 354.38 218.07 354.46 231.06 C 354.50 236.32 353.31 241.76 350.03 245.99 C 344.96 253.17 335.40 256.68 326.87 254.62 C 319.37 253.08 312.98 247.32 310.56 240.08 C 309.07 236.23 309.41 232.05 309.37 228.02 C 309.34 217.36 309.44 206.69 309.32 196.03 C 309.33 193.36 306.67 191.21 304.07 191.48 C 265.71 191.47 227.34 191.49 188.97 191.46 C 185.95 190.99 182.97 193.91 183.54 196.97 C 183.58 224.01 183.53 251.06 183.57 278.11 C 183.49 280.34 185.66 282.65 187.96 282.44 C 232.30 282.40 276.64 282.46 320.99 282.41 C 328.98 281.94 336.91 285.97 341.64 292.38 C 351.51 304.86 361.28 317.43 371.11 329.95 C 376.29 337.49 376.11 348.28 370.65 355.63 C 366.42 361.62 359.12 365.03 351.86 365.05 C 345.50 364.60 339.20 361.89 335.11 356.89 C 326.94 346.98 319.36 336.59 311.17 326.70 C 270.10 326.81 229.03 326.71 187.96 326.75 C 183.93 326.73 179.87 326.82 175.91 325.99 C 160.69 323.13 147.35 312.04 141.70 297.63 C 139.24 291.41 138.17 284.67 138.26 278.00 C 138.28 250.33 138.26 222.66 138.27 194.99 C 138.21 182.70 142.69 170.25 151.43 161.47 Z" />
</svg>
