<?xml version="1.0" encoding="UTF-8" ?>
<!DOCTYPE svg PUBLIC "-//W3C//DTD SVG 1.1//EN" "http://www.w3.org/Graphics/SVG/1.1/DTD/svg11.dtd">
<svg width="512pt" height="512pt" viewBox="0 0 512 512" version="1.1" xmlns="http://www.w3.org/2000/svg">
<path fill="#f874a4" opacity="1.00" d=" M 0.00 0.00 L 512.00 0.00 L 512.00 512.00 L 0.00 512.00 L 0.00 0.00 Z" />
<path fill="#ffffff" opacity="1.00" d=" M 360.89 211.90 C 364.47 207.42 372.09 208.21 375.47 212.54 C 380.21 218.21 381.56 225.82 382.06 232.98 C 382.54 242.66 381.97 252.78 377.54 261.58 C 374.94 267.19 370.77 271.82 367.11 276.73 C 369.55 280.81 370.89 286.14 375.25 288.64 C 380.34 290.26 385.74 287.77 389.80 284.73 C 388.33 276.36 389.31 267.31 394.24 260.19 C 398.82 252.77 408.12 247.39 416.89 250.13 C 423.82 252.12 428.03 259.92 426.40 266.86 C 424.11 277.23 414.97 284.84 405.10 287.82 C 412.69 292.51 422.92 292.23 430.32 287.30 C 434.72 284.45 437.80 280.13 441.12 276.19 C 443.79 278.67 447.12 282.45 445.35 286.33 C 440.79 293.12 433.83 298.40 425.90 300.54 C 415.15 303.33 402.60 301.77 394.51 293.58 C 388.35 298.00 380.75 301.74 372.98 300.17 C 365.23 298.23 360.48 291.04 357.23 284.26 C 353.68 284.61 350.11 284.63 346.55 284.42 C 345.40 289.87 343.69 295.60 339.43 299.46 C 334.56 304.08 326.48 303.76 321.23 299.97 C 314.85 295.40 310.87 288.13 309.16 280.58 C 307.72 281.94 306.46 283.72 304.50 284.35 C 302.37 284.75 300.20 284.49 298.06 284.46 C 296.92 291.41 293.80 299.01 286.95 302.05 C 282.36 303.58 277.02 302.94 273.02 300.14 C 266.31 295.63 262.37 287.97 260.63 280.23 C 259.18 281.68 257.98 283.58 256.03 284.38 C 253.90 284.71 251.74 284.49 249.61 284.42 C 248.44 289.87 246.77 295.65 242.46 299.49 C 237.55 304.16 229.38 303.73 224.13 299.87 C 217.54 295.10 213.57 287.42 211.98 279.57 C 208.37 285.60 204.64 291.71 199.54 296.62 C 196.30 299.78 191.44 301.75 187.00 300.07 C 183.17 298.93 180.72 295.59 178.69 292.39 C 174.97 296.18 170.66 300.33 165.04 300.64 C 159.92 301.15 154.91 297.94 152.78 293.34 C 149.00 285.46 149.49 276.42 150.22 267.94 C 150.48 266.45 149.82 265.09 149.25 263.77 C 146.72 263.49 144.21 263.10 141.70 262.65 C 138.26 273.01 133.26 282.90 126.50 291.49 C 123.46 295.22 119.19 299.08 114.00 298.34 C 109.88 297.97 106.71 295.13 103.85 292.43 C 100.13 297.62 95.09 303.41 88.05 302.98 C 76.95 303.57 68.29 293.44 66.50 283.21 C 64.97 274.93 67.90 265.81 74.11 260.10 C 78.97 255.73 86.08 256.00 91.93 257.90 C 90.32 246.12 89.98 233.85 93.51 222.37 C 94.77 218.60 96.55 214.41 100.36 212.60 C 104.62 210.37 109.73 212.95 112.36 216.52 C 117.33 222.85 117.64 231.31 117.55 239.02 C 117.06 254.77 113.87 270.51 107.60 285.00 C 108.99 286.53 109.78 289.23 112.01 289.62 C 116.00 288.18 119.28 285.18 121.85 281.88 C 126.54 275.19 130.23 267.83 132.75 260.06 C 128.71 256.45 125.61 250.80 127.37 245.31 C 128.56 241.92 132.73 240.52 135.88 242.06 C 140.43 243.82 142.32 248.71 143.28 253.12 C 147.44 253.94 151.71 254.16 155.83 255.20 C 158.97 255.94 161.60 258.74 161.68 262.05 C 162.05 269.91 159.77 278.05 162.22 285.74 C 162.85 288.27 165.88 289.63 168.13 288.19 C 171.11 286.26 173.66 283.54 175.44 280.48 C 175.81 271.32 175.12 261.79 177.92 252.96 C 181.52 250.89 186.96 254.82 187.10 258.90 C 187.08 266.90 185.96 274.95 187.03 282.93 C 187.52 285.34 188.39 288.37 191.10 289.07 C 194.16 290.32 196.26 286.93 197.85 284.86 C 201.74 278.43 205.86 272.14 209.84 265.77 C 211.65 263.20 211.22 259.95 211.29 256.99 C 211.16 246.20 212.16 235.34 214.86 224.88 C 216.29 220.07 217.99 214.69 222.36 211.75 C 225.80 209.40 230.09 211.90 232.27 214.78 C 235.36 218.94 234.96 224.48 234.30 229.33 C 232.00 243.08 225.97 255.81 219.87 268.20 C 219.12 275.26 220.53 282.78 223.85 289.11 C 225.53 292.20 229.00 295.91 232.85 294.04 C 238.10 291.41 240.14 285.20 240.85 279.74 C 236.26 275.60 233.09 269.98 231.67 263.98 C 231.30 261.88 230.90 259.00 233.13 257.77 C 236.17 256.34 239.42 258.33 241.52 260.49 C 245.46 264.67 248.09 270.08 248.90 275.77 C 249.70 275.93 251.29 276.25 252.09 276.41 C 253.78 271.95 256.89 268.30 259.21 264.20 C 260.06 260.56 259.45 256.73 259.71 253.02 C 260.20 242.65 261.10 232.16 264.20 222.19 C 265.57 218.33 267.19 214.04 270.80 211.73 C 273.47 210.62 276.89 210.90 279.04 212.98 C 283.09 216.32 283.84 222.08 283.17 227.00 C 281.63 238.91 276.96 250.14 271.83 260.90 C 270.40 264.15 267.87 267.19 268.15 270.94 C 268.16 277.77 269.38 284.91 273.29 290.65 C 274.94 293.04 277.87 295.53 280.94 294.17 C 286.34 291.76 288.68 285.45 289.18 279.93 C 284.58 274.90 280.71 268.88 279.89 261.97 C 279.57 259.92 280.87 257.30 283.20 257.32 C 286.76 257.12 289.63 259.76 291.65 262.40 C 294.84 266.41 296.66 271.28 297.73 276.25 C 298.53 276.21 300.13 276.12 300.93 276.08 C 302.54 271.65 305.74 268.09 307.72 263.87 C 308.57 260.31 307.94 256.58 308.15 252.96 C 308.51 242.73 309.51 232.40 312.52 222.58 C 314.00 218.34 315.82 213.48 320.10 211.36 C 323.22 209.72 326.69 211.94 328.78 214.23 C 332.23 218.13 332.05 223.72 331.43 228.56 C 329.64 239.96 325.08 250.70 320.23 261.09 C 318.87 264.32 316.28 267.30 316.52 270.99 C 316.81 277.69 317.89 284.68 321.58 290.41 C 323.29 293.05 326.57 295.69 329.83 294.03 C 335.03 291.33 337.16 285.20 337.77 279.71 C 333.23 275.55 330.02 269.97 328.67 263.97 C 328.17 261.89 328.14 259.44 329.82 257.86 C 332.69 256.39 335.96 258.01 338.06 260.07 C 342.36 264.35 344.92 270.13 345.95 276.06 C 348.52 276.43 353.97 276.99 353.56 273.08 C 350.35 258.32 350.78 242.91 353.86 228.17 C 355.23 222.43 356.84 216.39 360.89 211.90 Z" />
<path fill="#f874a4" opacity="1.00" d=" M 100.37 235.36 C 100.80 230.00 101.37 223.71 106.06 220.24 C 108.88 225.70 108.63 232.01 108.44 237.97 C 107.78 248.88 105.92 259.73 102.85 270.22 C 100.14 258.82 99.99 247.00 100.37 235.36 Z" />
<path fill="#f874a4" opacity="1.00" d=" M 274.77 220.64 C 274.67 230.11 271.92 239.41 268.42 248.14 C 268.55 238.71 270.72 229.16 274.77 220.64 Z" />
<path fill="#f874a4" opacity="1.00" d=" M 223.75 226.05 C 224.23 224.26 225.20 222.68 226.47 221.35 C 225.96 230.63 223.87 239.95 219.79 248.33 C 219.95 240.76 221.56 233.28 223.75 226.05 Z" />
<path fill="#f874a4" opacity="1.00" d=" M 316.82 248.35 C 317.04 238.84 319.17 229.21 323.18 220.57 C 323.07 230.12 320.28 239.51 316.82 248.35 Z" />
<path fill="#f874a4" opacity="1.00" d=" M 363.16 237.93 C 364.04 232.39 364.38 226.34 367.99 221.74 C 371.55 225.57 371.76 231.05 371.81 235.98 C 371.96 246.15 369.69 256.90 363.12 264.93 C 361.35 256.04 362.22 246.87 363.16 237.93 Z" />
<path fill="#ffffff" opacity="1.00" d=" M 179.35 231.47 C 186.10 228.70 192.71 236.52 189.75 242.86 C 188.36 247.79 181.77 249.02 178.08 245.87 C 172.82 242.65 173.30 233.50 179.35 231.47 Z" />
<path fill="#f874a4" opacity="1.00" d=" M 404.24 265.27 C 406.09 262.35 409.45 259.70 413.11 260.56 C 414.07 261.55 414.82 262.72 415.62 263.85 C 414.07 271.43 407.76 276.88 400.62 279.18 C 400.57 274.34 401.44 269.33 404.24 265.27 Z" />
<path fill="#f874a4" opacity="1.00" d=" M 83.40 265.56 C 87.30 264.57 93.06 265.24 94.27 269.81 C 95.30 274.24 97.27 278.46 97.86 282.97 C 96.42 286.96 93.79 290.95 89.87 292.84 C 85.47 294.36 78.87 294.15 76.89 289.11 C 73.46 281.19 74.89 269.57 83.40 265.56 Z" />
</svg>
