<?xml version="1.0" encoding="UTF-8" ?>
<!DOCTYPE svg PUBLIC "-//W3C//DTD SVG 1.1//EN" "http://www.w3.org/Graphics/SVG/1.1/DTD/svg11.dtd">
<svg width="512pt" height="512pt" viewBox="0 0 512 512" version="1.1" xmlns="http://www.w3.org/2000/svg">
<path fill="#e52719" opacity="1.00" d=" M 0.00 0.00 L 512.00 0.00 L 512.00 512.00 L 0.00 512.00 L 0.00 0.00 Z" />
<path fill="#ffffff" opacity="1.00" d=" M 295.18 185.74 C 307.19 185.69 319.19 185.76 331.19 185.70 C 339.22 203.78 346.95 221.98 354.95 240.07 C 363.15 221.89 371.77 203.91 379.99 185.75 C 391.24 185.71 402.48 185.72 413.72 185.74 C 399.20 213.27 384.72 240.83 370.21 268.37 C 369.02 270.39 369.63 272.82 369.49 275.04 C 369.45 288.10 369.66 301.17 369.39 314.23 C 358.45 314.12 347.52 314.20 336.58 314.19 C 336.48 299.77 336.57 285.35 336.54 270.93 C 336.63 269.45 335.83 268.17 335.22 266.90 C 332.21 260.96 329.30 254.98 326.46 248.97 C 326.29 262.50 325.68 276.13 327.58 289.58 C 319.66 289.51 311.74 289.77 303.83 289.43 C 303.64 285.58 303.33 281.74 303.14 277.89 C 300.48 279.62 299.49 283.00 296.94 284.90 C 290.59 291.10 281.11 292.12 272.69 291.05 C 272.43 300.50 271.28 310.68 265.43 318.46 C 258.57 327.06 245.60 328.12 236.03 323.89 C 231.51 321.96 228.71 317.79 225.89 313.99 C 225.90 317.45 225.92 320.91 225.91 324.37 C 218.04 324.36 210.16 324.34 202.29 324.38 C 202.25 318.21 202.29 312.05 202.27 305.88 C 190.44 310.75 177.63 312.41 164.96 313.32 C 148.24 313.83 131.25 313.67 114.96 309.44 C 106.62 307.14 98.21 303.14 93.13 295.86 C 88.03 288.34 86.90 278.92 87.22 270.03 C 86.86 259.90 90.10 248.82 98.58 242.59 C 109.32 234.72 123.01 232.89 135.91 231.60 C 144.60 231.39 153.29 230.33 161.98 231.15 C 175.59 231.50 189.52 232.72 202.21 238.02 C 202.36 223.83 202.23 209.65 202.27 195.47 C 210.66 195.50 219.04 195.48 227.43 195.48 C 227.40 211.31 227.38 227.14 227.43 242.97 C 230.40 239.14 233.86 235.35 238.61 233.82 C 247.32 231.06 257.87 231.94 264.66 238.58 C 275.28 230.99 289.11 231.67 301.55 231.62 C 301.22 226.36 302.34 220.76 300.18 215.77 C 297.89 210.99 291.49 210.67 287.05 212.05 C 281.86 214.16 281.86 220.58 281.62 225.30 C 273.47 225.23 265.32 225.27 257.16 225.28 C 256.79 216.91 259.38 207.57 266.79 202.81 C 276.88 195.99 289.71 197.13 301.26 197.73 C 299.11 193.80 297.22 189.73 295.18 185.74 Z" />
<path fill="#ffffff" opacity="1.00" d=" M 417.47 186.58 C 419.63 186.06 422.57 185.78 423.92 187.99 C 426.70 191.23 421.30 196.14 418.01 193.96 C 415.44 192.63 415.47 188.31 417.47 186.58 Z" />
<path fill="#e52719" opacity="1.00" d=" M 417.46 187.39 C 419.45 187.10 421.47 187.05 423.34 187.92 C 424.29 191.33 421.67 194.80 417.96 193.42 C 418.44 191.09 420.09 190.67 421.49 192.74 C 421.16 191.33 421.90 189.88 421.59 188.52 C 420.49 188.38 419.40 188.28 418.30 188.22 C 418.27 189.77 418.22 191.33 418.15 192.88 C 415.94 191.73 416.91 189.17 417.46 187.39 Z" />
<path fill="#e52719" opacity="1.00" d=" M 138.06 249.09 C 143.29 244.77 150.55 244.47 157.03 244.66 C 162.53 245.02 168.77 245.92 172.53 250.39 C 175.52 253.98 175.55 258.92 175.53 263.35 C 161.51 263.34 147.49 263.33 133.47 263.35 C 133.34 258.31 133.95 252.56 138.06 249.09 Z" />
<path fill="#e52719" opacity="1.00" d=" M 280.31 255.04 C 281.09 250.66 284.86 247.31 289.19 246.68 C 293.28 246.17 297.39 245.92 301.50 245.69 C 301.44 254.00 302.74 263.00 298.59 270.60 C 295.33 276.89 284.10 278.03 281.15 270.90 C 279.18 265.91 279.21 260.23 280.31 255.04 Z" />
<path fill="#e52719" opacity="1.00" d=" M 234.32 248.45 C 238.87 246.60 244.69 249.02 246.17 253.81 C 248.19 259.61 248.17 265.88 248.28 271.95 C 248.30 281.12 248.49 290.33 247.14 299.43 C 246.56 302.63 245.73 306.01 243.43 308.46 C 239.56 312.19 232.13 310.99 230.26 305.71 C 226.96 296.90 227.58 287.25 227.41 278.00 C 227.55 270.29 226.90 262.39 229.05 254.88 C 229.78 252.14 231.54 249.43 234.32 248.45 Z" />
<path fill="#e52719" opacity="1.00" d=" M 133.52 275.70 C 156.43 275.74 179.35 275.70 202.27 275.73 C 202.27 278.74 202.28 281.76 202.28 284.79 C 192.81 284.79 183.34 284.76 173.87 284.79 C 173.92 288.74 172.65 292.88 169.45 295.40 C 165.10 298.78 159.30 299.33 153.98 299.40 C 148.36 299.31 142.18 298.10 138.26 293.73 C 133.92 288.86 133.41 281.92 133.52 275.70 Z" />
</svg>
