<?xml version="1.0" encoding="UTF-8" ?>
<!DOCTYPE svg PUBLIC "-//W3C//DTD SVG 1.1//EN" "http://www.w3.org/Graphics/SVG/1.1/DTD/svg11.dtd">
<svg width="512pt" height="512pt" viewBox="0 0 512 512" version="1.1" xmlns="http://www.w3.org/2000/svg">
<path fill="#f5af02" opacity="1.00" d=" M 0.00 0.00 L 512.00 0.00 L 512.00 512.00 L 0.00 512.00 L 0.00 0.00 Z" />
<path fill="#ffffff" opacity="1.00" d=" M 167.32 184.15 C 173.40 184.19 179.48 184.18 185.56 184.16 C 185.55 199.16 185.58 214.17 185.54 229.17 C 191.76 220.95 202.06 217.03 212.05 216.15 C 225.28 214.52 239.82 218.02 249.19 227.96 C 259.07 237.91 262.03 252.83 260.20 266.36 C 263.10 257.81 271.74 253.10 280.00 250.97 C 295.07 247.07 310.79 248.69 326.18 248.31 C 326.23 243.29 325.85 237.66 322.01 233.94 C 315.51 227.49 305.36 226.77 296.79 228.29 C 290.61 229.23 284.83 233.46 283.39 239.77 C 277.06 239.72 270.73 239.82 264.40 239.70 C 265.24 232.88 269.10 226.58 274.88 222.85 C 284.57 216.41 296.68 215.38 308.01 215.63 C 319.50 215.83 331.96 218.99 339.39 228.42 C 337.52 225.27 335.81 222.03 334.15 218.77 C 341.19 218.74 348.24 218.80 355.29 218.73 C 365.69 239.19 375.83 259.79 386.04 280.35 C 396.26 259.80 406.35 239.20 416.71 218.74 C 423.10 218.79 429.48 218.75 435.87 218.77 C 417.57 255.18 398.84 291.38 380.61 327.84 C 373.81 328.09 367.00 327.92 360.20 327.94 C 365.40 317.91 370.85 308.00 375.88 297.89 C 368.63 283.09 360.45 268.72 352.86 254.07 C 349.42 247.24 345.30 240.73 342.44 233.64 C 343.13 237.41 344.14 241.15 344.29 245.00 C 344.64 262.74 343.83 280.51 344.87 298.24 C 339.36 298.23 333.85 298.20 328.34 298.27 C 327.72 294.43 327.65 290.55 327.62 286.67 C 319.95 297.14 306.34 300.91 293.93 301.26 C 283.55 301.32 272.13 299.07 264.84 291.09 C 260.02 286.05 258.53 278.87 258.59 272.11 C 255.50 284.24 245.93 294.32 234.12 298.33 C 227.05 301.00 219.38 301.16 211.94 300.62 C 201.87 299.64 191.83 295.29 185.38 287.29 C 185.41 290.96 185.20 294.62 184.65 298.25 C 178.69 298.21 172.73 298.24 166.78 298.22 C 167.72 286.56 167.14 274.84 167.32 263.15 C 143.40 263.13 119.49 263.14 95.58 263.15 C 95.72 270.25 98.47 277.44 103.94 282.14 C 111.43 288.94 122.51 290.16 132.02 287.79 C 138.52 286.14 144.03 281.43 146.70 275.28 C 152.98 275.31 159.26 275.13 165.53 275.39 C 163.61 283.58 158.19 290.80 150.80 294.83 C 140.23 300.71 127.68 301.31 115.88 300.36 C 105.57 299.36 94.82 296.22 87.44 288.55 C 80.02 281.09 77.27 270.25 77.19 260.00 C 76.89 249.00 79.23 237.23 86.81 228.84 C 93.88 220.81 104.58 217.13 114.97 216.02 C 126.84 214.85 139.56 215.73 149.99 222.04 C 160.09 228.03 166.44 239.32 167.14 250.95 C 167.55 228.70 167.17 206.42 167.32 184.15 Z" />
<path fill="#f5af02" opacity="1.00" d=" M 102.99 235.04 C 111.65 227.20 125.09 225.62 135.64 230.36 C 143.62 233.85 148.41 242.36 148.44 250.92 C 130.98 250.93 113.53 250.96 96.08 250.91 C 96.07 244.95 98.54 239.04 102.99 235.04 Z" />
<path fill="#f5af02" opacity="1.00" d=" M 207.47 228.81 C 217.63 226.81 229.17 229.88 235.52 238.44 C 244.95 251.08 243.78 271.13 231.89 281.84 C 221.19 291.49 202.75 290.72 193.18 279.84 C 183.63 268.78 183.06 251.22 191.26 239.25 C 195.01 233.81 200.98 230.02 207.47 228.81 Z" />
<path fill="#f5af02" opacity="1.00" d=" M 294.84 261.31 C 305.21 259.85 315.71 260.31 326.15 260.24 C 326.41 266.86 325.52 273.93 321.26 279.28 C 316.36 285.84 308.01 288.69 300.08 289.08 C 294.17 289.43 287.70 288.95 282.82 285.22 C 277.42 281.23 275.75 272.51 280.22 267.23 C 283.98 263.25 289.65 262.12 294.84 261.31 Z" />
</svg>
