<?xml version="1.0" encoding="UTF-8" ?>
<!DOCTYPE svg PUBLIC "-//W3C//DTD SVG 1.1//EN" "http://www.w3.org/Graphics/SVG/1.1/DTD/svg11.dtd">
<svg width="512pt" height="512pt" viewBox="0 0 512 512" version="1.1" xmlns="http://www.w3.org/2000/svg">
<path fill="#0182c4" opacity="1.00" d=" M 0.00 0.00 L 512.00 0.00 L 512.00 512.00 L 0.00 512.00 L 0.00 0.00 Z" />
<path fill="#ffffff" opacity="1.00" d=" M 175.63 112.89 C 179.08 112.35 182.56 111.95 186.06 111.91 C 231.68 111.93 277.31 111.93 322.94 111.91 C 341.60 111.51 360.23 118.46 374.21 130.80 C 390.83 145.19 400.49 167.09 400.18 189.04 C 400.16 233.34 400.17 277.64 400.17 321.94 C 400.56 338.76 395.30 355.69 385.26 369.20 C 371.06 388.73 347.13 400.58 323.00 400.18 C 278.34 400.16 233.67 400.16 189.00 400.18 C 166.79 400.50 144.65 390.56 130.27 373.60 C 118.89 360.48 112.32 343.34 111.91 325.99 C 111.93 280.64 111.92 235.29 111.92 189.94 C 111.53 174.88 115.70 159.71 123.87 147.03 C 135.27 129.01 154.57 116.25 175.63 112.89 Z" />
<path fill="#0182c4" opacity="1.00" d=" M 260.98 151.44 C 275.13 147.28 290.13 147.92 304.62 149.59 C 304.85 160.65 304.66 171.73 304.71 182.80 C 296.61 182.31 287.31 180.99 280.53 186.51 C 274.68 191.71 274.75 200.50 276.42 207.56 C 286.12 207.38 295.84 207.63 305.54 207.42 C 305.53 217.37 305.91 227.34 305.35 237.27 C 296.02 237.06 286.68 237.24 277.35 237.16 C 276.36 245.42 276.76 253.75 276.40 262.04 C 275.73 295.78 276.94 329.53 276.29 363.26 L 275.83 363.66 C 260.98 363.84 246.11 363.66 231.25 363.74 C 231.26 321.54 231.33 279.34 231.21 237.14 C 222.90 237.01 214.54 237.59 206.26 236.84 C 206.49 227.02 206.00 217.19 206.51 207.39 C 214.31 207.66 222.11 207.39 229.90 207.54 C 228.94 194.84 229.11 181.21 235.90 169.96 C 241.24 160.61 250.82 154.42 260.98 151.44 Z" />
</svg>
