<?xml version="1.0" encoding="UTF-8" ?>
<!DOCTYPE svg PUBLIC "-//W3C//DTD SVG 1.1//EN" "http://www.w3.org/Graphics/SVG/1.1/DTD/svg11.dtd">
<svg width="512pt" height="512pt" viewBox="0 0 512 512" version="1.1" xmlns="http://www.w3.org/2000/svg">
<path fill="#262626" opacity="1.00" d=" M 0.00 0.00 L 512.00 0.00 L 512.00 512.00 L 0.00 512.00 L 0.00 0.00 Z" />
<path fill="#ffffff" opacity="1.00" d=" M 250.87 164.65 C 254.59 164.12 258.24 162.66 262.02 162.72 C 278.70 166.52 295.59 169.35 312.24 173.29 C 312.16 178.22 312.16 183.14 312.22 188.07 C 307.47 193.76 301.80 199.07 294.79 201.77 C 290.38 203.39 284.69 203.35 281.28 199.69 C 274.66 192.85 274.16 182.36 267.50 175.56 C 262.89 170.73 257.17 166.90 250.87 164.65 Z" />
<path fill="#ffffff" opacity="1.00" d=" M 200.72 172.86 C 210.16 171.57 219.49 169.46 228.95 168.37 C 233.52 169.74 238.67 171.43 241.67 175.34 C 243.19 179.03 238.88 180.87 236.28 182.19 C 235.63 192.34 233.09 203.17 225.35 210.35 C 218.80 216.53 209.39 218.27 200.67 217.61 C 200.73 202.69 200.68 187.78 200.72 172.86 Z" />
<path fill="#ffffff" opacity="1.00" d=" M 299.13 228.97 C 301.25 222.67 306.46 217.93 312.18 214.84 C 312.21 221.63 312.16 228.42 312.21 235.22 C 308.10 237.45 303.88 239.46 299.75 241.65 C 298.38 237.60 297.65 233.09 299.13 228.97 Z" />
<path fill="#ffffff" opacity="1.00" d=" M 244.98 217.12 C 251.10 215.69 258.12 214.43 263.67 218.21 C 275.03 225.15 279.42 239.22 279.33 251.90 C 272.07 255.35 264.99 259.17 257.74 262.62 C 256.49 263.41 255.12 262.43 253.90 262.09 C 245.66 258.61 237.46 255.01 229.16 251.68 C 230.12 244.25 226.75 236.64 229.51 229.39 C 231.84 222.74 238.41 218.68 244.98 217.12 Z" />
<path fill="#ffffff" opacity="1.00" d=" M 105.32 284.30 C 112.52 277.44 123.32 275.01 132.90 277.24 C 137.76 278.31 142.00 281.03 145.93 283.96 C 144.49 285.69 143.07 287.44 141.68 289.21 C 137.42 286.02 132.56 283.16 127.07 283.14 C 117.48 282.33 108.04 288.73 104.79 297.68 C 102.57 303.84 102.95 311.03 106.23 316.75 C 109.40 322.61 115.39 326.80 121.94 327.98 C 129.73 329.58 138.28 326.44 143.20 320.20 C 145.12 317.85 146.38 315.08 147.69 312.38 C 142.18 312.19 136.66 312.31 131.15 312.28 C 131.13 310.11 131.13 307.94 131.15 305.77 C 139.37 305.78 147.59 305.77 155.82 305.77 C 155.18 313.74 152.10 321.73 146.09 327.17 C 134.76 337.98 114.77 337.33 104.08 325.92 C 98.46 319.78 95.08 311.29 95.96 302.91 C 96.89 295.90 100.10 289.13 105.32 284.30 Z" />
<path fill="#ffffff" opacity="1.00" d=" M 208.60 283.59 C 210.81 283.59 213.02 283.60 215.23 283.61 C 215.22 286.70 215.21 289.79 215.21 292.88 C 217.72 292.86 220.22 292.85 222.73 292.83 C 222.79 294.73 222.84 296.64 222.88 298.54 C 220.32 298.56 217.76 298.55 215.21 298.55 C 215.31 307.22 215.04 315.90 215.36 324.56 C 217.98 324.99 220.63 325.21 223.28 325.35 C 223.04 327.30 222.86 329.26 222.74 331.23 C 219.13 331.15 215.36 331.47 211.94 330.15 C 209.21 328.92 208.63 325.62 208.62 322.95 C 208.58 314.81 208.63 306.68 208.61 298.54 C 206.85 298.55 205.09 298.56 203.34 298.57 C 203.35 296.65 203.37 294.74 203.39 292.83 C 205.13 292.85 206.87 292.87 208.62 292.90 C 208.62 289.79 208.61 286.69 208.60 283.59 Z" />
<path fill="#ffffff" opacity="1.00" d=" M 408.49 292.82 C 410.70 292.85 412.91 292.85 415.12 292.85 C 407.01 311.61 398.46 330.18 390.28 348.92 C 388.02 348.89 385.75 348.88 383.50 348.88 C 386.19 342.55 389.06 336.29 391.59 329.90 C 386.87 317.40 381.21 305.24 376.17 292.85 C 378.57 292.85 380.97 292.85 383.37 292.84 C 387.68 302.69 391.52 312.75 395.91 322.57 C 400.08 312.64 404.14 302.67 408.49 292.82 Z" />
<path fill="#ffffff" opacity="1.00" d=" M 162.84 294.84 C 169.72 292.13 177.50 291.13 184.68 293.20 C 189.57 294.56 193.91 298.68 194.21 303.95 C 194.54 311.05 194.01 318.17 194.50 325.27 C 196.42 325.39 198.35 325.46 200.28 325.52 C 200.27 327.50 200.26 329.49 200.26 331.48 C 195.83 331.59 190.17 332.08 187.81 327.39 C 181.48 333.40 170.74 333.34 163.97 328.15 C 158.30 323.97 157.54 314.62 162.87 309.86 C 169.52 303.57 180.81 303.82 187.80 309.47 C 187.50 306.62 188.41 303.16 186.15 300.91 C 183.11 297.62 178.15 297.46 173.98 297.74 C 171.01 297.88 168.32 299.68 165.38 299.71 C 164.41 298.15 163.65 296.48 162.84 294.84 Z" />
<path fill="#ffffff" opacity="1.00" d=" M 237.51 295.57 C 245.28 290.12 257.34 290.95 263.59 298.39 C 267.67 302.69 268.72 308.73 269.35 314.40 C 258.24 314.50 247.13 314.33 236.02 314.49 C 236.96 317.16 237.86 320.00 239.98 322.01 C 245.24 327.25 254.72 327.18 260.06 322.06 C 260.98 321.47 261.67 320.25 262.86 320.22 C 264.47 321.32 265.90 322.65 267.40 323.89 C 263.04 328.30 257.42 332.08 250.96 331.86 C 243.45 332.40 235.57 328.74 231.96 321.98 C 227.01 313.40 229.31 301.31 237.51 295.57 Z" />
<path fill="#ffffff" opacity="1.00" d=" M 271.17 292.82 C 273.41 292.93 275.73 292.58 277.93 293.16 C 281.60 302.25 284.20 311.76 287.90 320.84 C 291.17 311.51 294.24 302.12 297.62 292.84 C 299.86 292.85 302.10 292.85 304.34 292.85 C 307.73 302.08 310.73 311.46 314.05 320.73 C 317.71 311.68 320.60 302.34 323.81 293.13 C 326.14 292.96 328.48 292.84 330.82 292.77 C 326.05 305.59 321.53 318.52 316.51 331.24 C 314.86 331.22 313.21 331.21 311.57 331.20 C 307.72 321.38 305.13 311.04 300.84 301.42 C 297.13 311.26 294.07 321.34 290.40 331.20 C 288.75 331.21 287.11 331.22 285.47 331.26 C 280.41 318.56 275.92 305.64 271.17 292.82 Z" />
<path fill="#ffffff" opacity="1.00" d=" M 337.42 294.84 C 344.25 292.20 351.89 291.14 359.04 293.11 C 363.72 294.43 368.32 298.10 368.68 303.26 C 369.02 310.17 368.49 317.10 368.90 324.00 C 369.93 326.37 372.96 325.09 374.92 325.55 C 374.83 327.52 374.84 329.49 374.69 331.47 C 370.24 331.79 364.86 331.80 362.36 327.38 C 356.52 333.11 346.78 333.15 340.01 329.16 C 333.40 325.50 331.82 315.57 337.15 310.16 C 343.80 303.61 355.32 303.71 362.48 309.46 C 362.34 306.22 362.97 302.15 359.93 300.00 C 353.98 296.07 346.34 297.64 340.13 300.10 C 339.25 298.33 338.34 296.58 337.42 294.84 Z" />
<path fill="#262626" opacity="1.00" d=" M 243.92 298.94 C 248.70 297.37 254.61 297.94 258.25 301.71 C 260.39 303.66 261.21 306.50 261.94 309.21 C 253.33 309.24 244.73 309.24 236.12 309.21 C 236.98 304.82 239.54 300.53 243.92 298.94 Z" />
<path fill="#262626" opacity="1.00" d=" M 174.71 310.93 C 178.63 310.54 183.25 310.88 186.15 313.88 C 188.21 315.80 188.17 319.01 187.40 321.51 C 184.71 326.58 177.94 326.94 172.96 325.91 C 169.22 325.36 165.59 322.05 166.24 318.00 C 166.25 313.62 170.86 311.25 174.71 310.93 Z" />
<path fill="#262626" opacity="1.00" d=" M 346.33 311.59 C 350.66 310.31 355.58 310.47 359.55 312.74 C 363.40 315.13 363.71 321.42 359.97 324.06 C 355.89 326.91 350.31 326.85 345.72 325.35 C 342.09 324.18 339.61 319.81 341.22 316.19 C 341.99 313.90 344.08 312.28 346.33 311.59 Z" />
</svg>
