<?xml version="1.0" encoding="UTF-8" ?>
<!DOCTYPE svg PUBLIC "-//W3C//DTD SVG 1.1//EN" "http://www.w3.org/Graphics/SVG/1.1/DTD/svg11.dtd">
<svg width="512pt" height="512pt" viewBox="0 0 512 512" version="1.1" xmlns="http://www.w3.org/2000/svg">
<path fill="#78b631" opacity="1.00" d=" M 0.00 0.00 L 512.00 0.00 L 512.00 512.00 L 0.00 512.00 L 0.00 0.00 Z" />
<path fill="#ffffff" opacity="1.00" d=" M 159.63 127.46 C 179.99 127.35 200.35 127.47 220.72 127.40 C 220.71 155.28 220.72 183.16 220.80 211.03 C 225.54 210.08 230.09 208.03 235.01 208.20 C 253.68 208.15 272.35 208.12 291.02 208.21 C 306.27 209.15 321.85 214.15 333.34 224.53 C 344.94 235.02 350.35 250.75 351.33 266.05 C 351.34 305.54 351.24 345.03 351.39 384.52 C 330.98 384.69 310.56 384.50 290.15 384.61 C 290.08 350.04 290.17 315.48 290.11 280.91 C 290.23 272.31 282.83 264.00 274.03 264.18 C 261.68 264.17 249.33 264.16 236.98 264.18 C 228.10 263.98 220.65 272.28 220.68 280.97 C 220.72 315.51 220.70 350.05 220.77 384.59 C 200.34 384.55 179.90 384.62 159.47 384.56 C 159.55 298.86 159.66 213.16 159.63 127.46 Z" />
</svg>
