<?xml version="1.0" encoding="UTF-8" ?>
<!DOCTYPE svg PUBLIC "-//W3C//DTD SVG 1.1//EN" "http://www.w3.org/Graphics/SVG/1.1/DTD/svg11.dtd">
<svg width="512pt" height="512pt" viewBox="0 0 512 512" version="1.1" xmlns="http://www.w3.org/2000/svg">
<path fill="#0860a8" opacity="1.00" d=" M 0.00 0.00 L 512.00 0.00 L 512.00 512.00 L 0.00 512.00 L 0.00 0.00 Z" />
<path fill="#ffffff" opacity="1.00" d=" M 273.95 159.83 C 284.93 158.68 295.98 158.96 306.99 158.95 C 323.04 158.98 339.09 161.66 354.29 166.83 C 369.11 172.03 383.45 180.36 392.75 193.32 C 401.95 205.96 404.67 222.53 401.90 237.73 C 397.50 260.70 380.16 280.19 358.57 288.69 C 358.56 283.23 358.53 277.77 358.60 272.31 C 371.18 264.89 381.56 253.16 385.82 239.04 C 390.22 225.11 387.22 209.20 378.29 197.68 C 368.89 185.49 354.48 178.38 339.95 174.25 C 317.88 168.15 294.63 167.77 271.97 169.93 C 237.40 173.55 203.34 183.21 172.41 199.15 C 172.40 197.21 172.40 195.27 172.39 193.33 C 203.18 174.75 238.30 163.83 273.95 159.83 Z" />
<path fill="#ffffff" opacity="1.00" d=" M 332.78 207.97 C 332.85 206.54 333.07 205.12 333.22 203.70 C 338.24 203.84 343.26 203.79 348.29 203.79 C 348.32 231.81 348.22 259.84 348.34 287.87 C 344.16 287.59 339.85 286.30 336.92 283.16 C 333.45 279.74 332.82 274.59 332.78 269.96 C 332.80 249.30 332.81 228.63 332.78 207.97 Z" />
<path fill="#ffffff" opacity="1.00" d=" M 361.49 204.67 C 365.30 202.13 371.04 205.38 370.82 209.94 C 371.11 214.38 365.46 217.88 361.68 215.36 C 357.54 213.30 357.46 206.90 361.49 204.67 Z" />
<path fill="#0860a8" opacity="1.00" d=" M 361.47 206.01 C 363.63 205.05 366.71 204.48 368.37 206.64 C 370.11 208.31 369.64 210.94 369.02 212.98 C 367.63 213.15 366.89 212.03 366.11 211.14 C 366.82 209.87 367.81 208.54 367.15 207.02 C 365.54 205.73 363.31 206.41 361.47 206.01 Z" />
<path fill="#ffffff" opacity="1.00" d=" M 151.17 205.83 C 156.23 205.81 161.29 205.83 166.34 205.81 C 166.39 210.69 166.36 215.58 166.39 220.46 C 161.31 220.46 156.23 220.45 151.15 220.48 C 151.16 215.60 151.13 210.71 151.17 205.83 Z" />
<path fill="#0860a8" opacity="1.00" d=" M 361.08 205.99 C 362.62 208.22 361.97 210.98 361.91 213.50 L 363.50 213.52 C 363.60 212.69 363.78 211.03 363.87 210.20 C 364.84 211.86 366.76 213.84 365.16 215.76 C 363.33 214.69 360.93 213.99 360.03 211.87 C 358.97 209.93 360.37 207.75 361.08 205.99 Z" />
<path fill="#0860a8" opacity="1.00" d=" M 364.24 207.41 C 365.62 206.87 366.48 209.20 364.97 209.57 C 363.58 210.10 362.73 207.77 364.24 207.41 Z" />
<path fill="#ffffff" opacity="1.00" d=" M 240.25 212.37 C 245.31 212.29 250.37 212.28 255.44 212.39 C 255.41 217.81 255.43 223.24 255.40 228.67 C 259.16 228.67 262.93 228.66 266.69 228.61 C 266.76 232.68 266.79 236.76 266.78 240.83 C 263.04 241.23 259.29 241.15 255.55 240.82 C 255.26 250.21 255.51 259.61 255.40 269.00 C 255.33 271.33 255.50 274.26 257.95 275.38 C 260.83 276.01 263.80 275.70 266.72 275.73 C 266.81 280.00 266.77 284.28 266.69 288.56 C 260.88 288.23 254.70 289.38 249.27 286.75 C 243.65 284.25 240.25 278.11 240.29 272.07 C 240.23 252.17 240.31 232.27 240.25 212.37 Z" />
<path fill="#ffffff" opacity="1.00" d=" M 109.98 260.82 C 114.31 242.26 126.31 226.51 140.35 214.07 C 140.38 216.75 140.37 219.43 140.39 222.11 C 129.00 234.75 121.39 251.01 119.96 268.04 C 118.51 283.74 124.17 300.28 136.14 310.81 C 150.16 323.21 168.87 328.42 187.00 331.09 C 201.91 333.00 217.02 333.82 232.02 332.74 C 254.46 332.10 276.72 328.18 298.33 322.19 C 317.19 316.78 335.89 310.12 352.86 300.14 C 352.85 307.64 352.94 315.14 352.81 322.65 C 324.28 337.62 292.63 345.83 260.87 350.36 C 246.66 352.51 232.29 352.44 217.96 352.32 C 198.28 352.83 178.46 349.87 159.87 343.36 C 143.48 337.47 127.65 327.82 118.02 312.94 C 112.43 304.53 109.50 294.58 108.48 284.60 C 108.24 276.66 107.84 268.56 109.98 260.82 Z" />
<path fill="#ffffff" opacity="1.00" d=" M 277.29 237.25 C 284.21 228.63 296.75 225.57 307.11 229.01 C 313.78 231.26 319.00 236.83 321.54 243.32 C 324.15 249.65 324.35 256.62 324.22 263.38 C 311.28 263.45 298.34 263.27 285.40 263.47 C 286.05 267.93 287.62 272.85 291.95 275.03 C 298.87 278.43 307.84 276.74 313.09 271.06 C 316.21 274.08 319.34 277.09 322.47 280.11 C 317.66 284.68 311.76 288.34 305.05 289.16 C 295.93 290.48 285.62 288.89 278.85 282.16 C 273.13 276.70 270.95 268.60 270.60 260.93 C 270.21 252.63 271.92 243.82 277.29 237.25 Z" />
<path fill="#ffffff" opacity="1.00" d=" M 151.14 273.00 C 151.21 258.20 151.03 243.40 151.24 228.60 C 156.31 228.69 161.38 228.67 166.45 228.65 C 166.43 248.92 166.48 269.19 166.42 289.46 C 162.50 288.59 158.23 287.74 155.33 284.71 C 152.11 281.75 151.03 277.23 151.14 273.00 Z" />
<path fill="#ffffff" opacity="1.00" d=" M 179.72 228.66 C 190.13 228.65 200.54 228.67 210.95 228.66 C 215.13 228.65 219.48 229.62 222.80 232.28 C 226.88 235.52 228.98 240.82 228.82 245.98 C 228.83 260.17 228.80 274.37 228.83 288.56 C 223.78 288.55 218.72 288.58 213.66 288.50 C 213.70 274.30 213.76 260.10 213.65 245.91 C 213.84 243.27 211.47 241.23 208.96 241.11 C 204.95 240.70 200.91 240.87 196.89 240.89 C 195.01 240.39 194.66 242.61 194.85 243.93 C 194.86 258.81 194.88 273.68 194.87 288.55 C 189.81 288.55 184.75 288.58 179.69 288.51 C 179.75 268.56 179.70 248.61 179.72 228.66 Z" />
<path fill="#0860a8" opacity="1.00" d=" M 289.48 243.41 C 293.89 239.25 302.16 238.88 306.08 243.92 C 308.21 246.40 308.61 249.76 309.08 252.87 C 301.17 252.65 293.24 253.76 285.36 252.70 C 286.18 249.43 286.78 245.74 289.48 243.41 Z" />
</svg>
