<?xml version="1.0" encoding="UTF-8" ?>
<!DOCTYPE svg PUBLIC "-//W3C//DTD SVG 1.1//EN" "http://www.w3.org/Graphics/SVG/1.1/DTD/svg11.dtd">
<svg width="512pt" height="512pt" viewBox="0 0 512 512" version="1.1" xmlns="http://www.w3.org/2000/svg">
<path fill="#0068be" opacity="1.00" d=" M 0.00 0.00 L 512.00 0.00 L 512.00 512.00 L 0.00 512.00 L 0.00 0.00 Z" />
<path fill="#ffffff" opacity="1.00" d=" M 253.54 124.81 C 254.52 121.55 255.42 118.25 256.87 115.16 C 257.31 117.87 258.13 120.49 258.98 123.09 C 269.27 156.48 279.65 189.84 289.90 223.24 C 325.88 223.30 361.85 223.18 397.82 223.29 C 368.65 245.44 339.62 267.77 310.48 289.96 C 321.69 325.89 332.80 361.86 343.85 397.85 C 314.77 375.63 285.62 353.52 256.65 331.18 C 227.44 353.30 198.38 375.62 169.26 397.87 C 180.22 361.85 191.40 325.90 202.59 289.96 C 173.43 267.79 144.43 245.40 115.20 223.32 C 151.18 223.15 187.16 223.31 223.15 223.24 C 233.25 190.42 243.42 157.62 253.54 124.81 Z" />
</svg>
