<?xml version="1.0" encoding="UTF-8" ?>
<!DOCTYPE svg PUBLIC "-//W3C//DTD SVG 1.1//EN" "http://www.w3.org/Graphics/SVG/1.1/DTD/svg11.dtd">
<svg width="512pt" height="512pt" viewBox="0 0 512 512" version="1.1" xmlns="http://www.w3.org/2000/svg">
<path fill="#da001c" opacity="1.00" d=" M 0.00 0.00 L 512.00 0.00 L 512.00 512.00 L 0.00 512.00 L 0.00 0.00 Z" />
<path fill="#ffffff" opacity="1.00" d=" M 189.61 182.81 C 208.41 179.43 228.60 182.09 245.23 191.75 C 255.57 197.69 264.31 206.25 270.72 216.29 C 274.45 221.93 277.15 228.15 279.85 234.33 C 287.72 251.98 295.58 269.65 303.65 287.22 C 307.19 294.75 311.94 302.66 320.06 305.87 C 328.79 309.16 338.81 309.01 347.47 305.51 C 354.14 302.80 359.85 297.09 361.35 289.89 C 362.16 284.98 361.96 279.34 358.43 275.45 C 354.50 271.26 348.85 269.41 343.59 267.49 C 330.13 262.95 316.03 259.15 304.36 250.72 C 297.51 245.85 292.42 238.48 290.92 230.15 C 289.26 219.97 290.35 208.87 296.18 200.11 C 301.14 192.35 309.39 187.15 318.17 184.78 C 328.36 182.13 339.36 182.00 349.37 185.46 C 358.84 188.75 366.49 196.03 371.46 204.60 C 372.11 205.59 372.19 207.36 370.74 207.70 C 365.45 210.37 360.14 213.01 354.80 215.57 C 352.60 216.62 351.57 213.89 350.32 212.67 C 343.66 204.16 330.54 201.63 321.31 207.32 C 314.10 211.62 311.35 221.98 315.78 229.18 C 318.63 233.61 323.78 235.70 328.51 237.50 C 343.21 242.72 359.23 245.55 372.04 254.99 C 380.08 260.72 385.05 270.20 385.77 279.99 C 387.40 291.50 384.20 303.69 376.63 312.58 C 365.89 325.51 348.53 331.55 332.02 330.88 C 318.79 331.13 305.18 326.78 295.62 317.40 C 285.13 307.44 280.22 293.53 274.20 280.75 C 267.13 265.19 260.04 249.65 252.99 234.09 C 247.60 222.68 237.47 213.87 225.84 209.21 C 210.78 203.07 192.96 203.87 178.68 211.73 C 165.64 218.75 155.66 231.46 152.55 246.01 C 149.63 258.78 152.24 272.61 159.32 283.59 C 167.34 296.27 181.04 305.08 195.83 307.42 C 211.46 310.17 228.22 305.56 240.26 295.22 C 245.57 290.96 249.38 285.25 252.97 279.56 C 253.49 279.59 254.54 279.67 255.07 279.71 C 258.53 286.52 261.33 293.64 264.62 300.53 C 265.17 301.84 266.29 303.58 264.86 304.77 C 253.21 318.30 236.76 327.54 219.18 330.61 C 203.18 333.41 186.29 331.52 171.50 324.68 C 153.38 316.47 138.52 301.09 131.49 282.43 C 125.18 265.86 125.24 246.97 131.66 230.45 C 140.94 205.87 163.92 187.56 189.61 182.81 Z" />
</svg>
