<?xml version="1.0" encoding="UTF-8" ?>
<!DOCTYPE svg PUBLIC "-//W3C//DTD SVG 1.1//EN" "http://www.w3.org/Graphics/SVG/1.1/DTD/svg11.dtd">
<svg width="512pt" height="512pt" viewBox="0 0 512 512" version="1.1" xmlns="http://www.w3.org/2000/svg">
<path fill="#f57f20" opacity="1.00" d=" M 0.00 0.00 L 512.00 0.00 L 512.00 512.00 L 0.00 512.00 L 0.00 0.00 Z" />
<path fill="#ffffff" opacity="1.00" d=" M 246.41 141.03 C 289.79 139.34 333.18 138.12 376.56 136.22 C 335.98 177.74 295.03 218.92 254.33 260.32 C 251.97 262.63 249.88 265.23 247.22 267.21 C 210.77 226.26 173.75 185.81 137.36 144.82 C 173.71 143.69 210.05 142.21 246.41 141.03 Z" />
<path fill="#ffffff" opacity="1.00" d=" M 247.01 280.94 C 290.19 239.68 333.15 198.19 376.35 156.95 C 376.43 198.13 376.28 239.31 376.42 280.49 C 339.58 280.56 302.75 281.78 265.98 283.99 C 232.56 286.17 199.15 289.10 166.01 294.12 C 156.39 295.61 146.79 297.27 137.31 299.50 C 137.34 301.14 137.40 302.79 137.47 304.44 C 156.32 299.61 175.74 297.40 195.02 294.93 C 255.16 288.04 315.71 285.49 376.22 285.16 C 376.59 315.82 376.26 346.51 376.39 377.18 C 303.32 368.08 230.16 359.65 157.07 350.71 C 149.68 350.07 142.38 348.55 134.95 348.57 C 127.12 347.58 120.35 342.50 115.52 336.47 C 110.28 329.89 106.96 321.40 107.95 312.91 C 108.68 309.99 111.51 308.25 113.96 306.87 C 121.29 303.14 129.35 301.21 137.28 299.23 C 137.31 253.37 137.27 207.52 137.30 161.66 C 174.04 201.25 210.49 241.14 247.01 280.94 Z" />
<path fill="#f57f20" opacity="1.00" d=" M 112.49 314.29 C 119.32 308.27 128.79 306.88 137.28 304.46 C 137.39 317.48 137.11 330.51 137.42 343.54 C 132.40 343.83 127.74 341.01 123.99 337.94 C 117.18 332.06 112.58 323.38 112.49 314.29 Z" />
</svg>
