<?xml version="1.0" encoding="UTF-8" ?>
<!DOCTYPE svg PUBLIC "-//W3C//DTD SVG 1.1//EN" "http://www.w3.org/Graphics/SVG/1.1/DTD/svg11.dtd">
<svg width="512pt" height="512pt" viewBox="0 0 512 512" version="1.1" xmlns="http://www.w3.org/2000/svg">
<path fill="#f57f20" opacity="1.00" d=" M 0.00 0.00 L 512.00 0.00 L 512.00 512.00 L 0.00 512.00 L 0.00 0.00 Z" />
<path fill="#ffffff" opacity="1.00" d=" M 130.58 157.84 C 199.78 153.81 268.93 149.23 338.12 145.09 C 344.42 144.47 350.76 144.33 357.09 144.35 C 331.52 169.37 306.11 194.56 280.54 219.58 C 265.73 234.05 251.28 248.92 236.13 263.01 C 210.98 237.76 185.62 212.73 160.36 187.60 C 150.51 177.61 140.18 168.06 130.58 157.84 Z" />
<path fill="#ffffff" opacity="1.00" d=" M 236.20 275.69 C 276.81 239.65 316.84 202.96 357.38 166.85 C 357.51 213.11 357.36 259.37 357.46 305.62 C 366.26 304.87 375.04 302.70 382.91 298.61 C 388.71 295.64 394.48 292.61 400.01 289.17 C 403.20 286.92 407.89 290.36 406.80 294.07 C 406.43 296.33 404.22 297.39 402.41 298.34 C 393.89 302.30 385.96 307.58 376.95 310.43 C 370.67 312.32 364.20 313.92 357.59 313.81 C 357.27 318.30 357.50 322.82 357.40 327.32 C 338.54 327.35 319.58 323.89 302.00 316.96 C 283.50 310.19 265.36 302.46 247.21 294.80 C 232.16 288.48 217.89 280.50 202.91 274.02 C 192.36 269.42 181.93 264.26 170.66 261.62 C 157.54 258.59 143.90 257.82 130.55 259.74 C 130.62 232.45 130.49 205.16 130.61 177.87 C 165.62 210.68 201.18 242.90 236.20 275.69 Z" />
<path fill="#ffffff" opacity="1.00" d=" M 119.08 276.05 C 126.80 271.17 136.24 271.44 145.00 270.82 C 154.47 271.10 163.98 271.92 173.15 274.45 C 184.15 277.44 194.40 282.54 204.82 287.07 C 217.43 292.57 229.50 299.21 242.09 304.73 C 265.01 314.61 288.01 324.40 311.61 332.56 C 322.39 336.17 333.70 337.86 344.97 339.08 C 353.43 340.00 362.07 339.58 370.29 337.26 C 379.18 335.16 387.00 330.27 394.99 326.04 C 398.14 324.33 401.48 320.96 405.33 322.62 C 408.65 324.28 408.32 329.48 404.89 330.82 C 396.21 335.10 387.92 340.24 378.85 343.66 C 371.96 345.96 364.79 347.71 357.49 347.78 C 357.41 354.71 357.33 361.64 357.55 368.57 C 343.34 368.85 329.19 367.16 315.01 366.51 C 253.54 362.77 192.09 358.71 130.60 355.20 C 130.42 345.41 130.80 335.61 130.40 325.83 C 123.79 325.19 116.54 324.21 111.38 319.63 C 106.56 315.17 106.71 308.08 106.83 302.05 C 106.95 292.23 110.69 281.74 119.08 276.05 Z" />
<path fill="#f57f20" opacity="1.00" d=" M 120.01 284.06 C 122.86 281.32 126.79 280.29 130.51 279.30 C 130.62 292.43 130.56 305.55 130.54 318.68 C 125.15 317.54 118.81 317.46 114.70 313.29 C 111.80 308.01 112.76 301.67 113.79 296.00 C 114.79 291.60 116.71 287.22 120.01 284.06 Z" />
</svg>
