<?xml version="1.0" encoding="UTF-8" ?>
<!DOCTYPE svg PUBLIC "-//W3C//DTD SVG 1.1//EN" "http://www.w3.org/Graphics/SVG/1.1/DTD/svg11.dtd">
<svg width="512pt" height="512pt" viewBox="0 0 512 512" version="1.1" xmlns="http://www.w3.org/2000/svg">
<path fill="#5c96ff" opacity="1.00" d=" M 0.00 0.00 L 512.00 0.00 L 512.00 512.00 L 0.00 512.00 L 0.00 0.00 Z" />
<path fill="#ffffff" opacity="1.00" d=" M 80.31 224.81 C 88.43 224.81 96.55 224.76 104.68 224.83 C 105.10 235.95 105.42 247.07 105.97 258.17 C 111.44 247.11 116.63 235.91 122.01 224.80 C 130.03 224.80 138.06 224.79 146.08 224.81 C 141.52 245.08 137.22 265.42 132.42 285.63 C 126.76 285.44 121.09 285.57 115.43 285.52 C 117.78 274.62 120.25 263.75 122.56 252.84 C 117.10 263.72 111.72 274.63 106.28 285.52 C 102.06 285.55 97.84 285.55 93.62 285.50 C 93.39 274.73 93.32 263.95 92.93 253.18 C 90.10 263.94 87.52 274.76 84.75 285.54 C 78.79 285.53 72.83 285.54 66.87 285.53 C 71.32 265.28 75.84 245.05 80.31 224.81 Z" />
<path fill="#ffffff" opacity="1.00" d=" M 147.42 234.00 C 148.08 230.88 148.81 227.78 149.65 224.71 C 154.86 224.87 160.08 224.77 165.30 224.81 C 164.71 227.87 164.12 230.92 163.53 233.98 C 158.16 234.02 152.79 234.00 147.42 234.00 Z" />
<path fill="#ffffff" opacity="1.00" d=" M 391.32 227.26 C 396.31 225.25 401.84 225.79 407.10 225.92 C 406.55 228.67 405.95 231.41 405.30 234.14 C 403.95 234.48 402.58 234.77 401.29 235.28 C 400.15 236.92 399.92 238.97 399.37 240.84 C 401.50 240.85 403.65 240.86 405.80 240.86 C 406.62 237.31 407.45 233.76 408.28 230.21 C 413.53 230.19 418.78 230.20 424.03 230.20 C 423.28 233.75 422.52 237.30 421.77 240.85 C 423.63 240.86 425.50 240.87 427.37 240.88 C 426.55 244.32 425.72 247.76 424.88 251.19 C 422.98 251.20 421.09 251.19 419.20 251.21 C 417.76 258.83 415.02 266.26 414.57 274.03 C 416.77 274.08 418.97 274.13 421.17 274.11 C 420.27 277.91 419.40 281.72 418.50 285.52 C 413.80 285.44 409.08 285.78 404.40 285.32 C 399.78 284.62 397.20 279.19 398.32 274.91 C 399.96 266.86 401.85 258.85 403.57 250.82 C 401.58 250.80 399.59 250.77 397.61 250.75 C 394.88 262.31 392.38 273.92 389.77 285.51 C 384.32 285.55 378.87 285.53 373.42 285.53 C 376.17 273.95 378.96 262.38 381.71 250.81 C 379.59 250.80 377.48 250.79 375.37 250.78 C 379.72 263.67 372.22 278.59 359.92 283.82 C 353.12 286.76 345.14 287.31 338.11 284.86 C 332.12 282.81 327.71 277.20 326.85 270.97 C 324.57 256.54 335.39 241.36 349.90 239.10 C 359.33 237.31 370.68 240.57 374.93 249.88 C 375.62 246.77 376.42 243.70 377.20 240.62 C 379.33 240.60 381.46 240.61 383.59 240.60 C 384.77 235.60 386.46 229.86 391.32 227.26 Z" />
<path fill="#ffffff" opacity="1.00" d=" M 170.04 245.05 C 176.24 240.10 184.58 238.30 192.35 239.42 C 196.57 240.07 200.60 242.38 202.90 246.03 C 205.17 249.37 205.79 253.45 206.17 257.38 C 201.27 257.41 196.38 257.39 191.48 257.42 C 191.09 254.96 191.30 251.61 188.63 250.40 C 185.28 249.22 182.15 251.83 180.33 254.40 C 177.20 258.89 175.29 264.47 175.75 269.97 C 175.89 272.68 178.02 275.60 181.02 275.12 C 184.77 275.00 186.92 271.56 188.84 268.82 C 193.69 268.89 198.54 268.84 203.39 268.90 C 201.81 274.92 198.23 280.60 192.67 283.64 C 186.77 286.95 179.62 287.80 173.02 286.61 C 167.24 285.45 162.37 281.01 160.53 275.43 C 156.88 264.65 161.20 252.02 170.04 245.05 Z" />
<path fill="#ffffff" opacity="1.00" d=" M 237.83 251.95 C 242.27 245.52 248.99 240.46 256.82 239.21 C 264.20 237.92 272.97 238.90 278.12 244.91 C 282.76 250.32 283.16 258.04 281.62 264.71 C 276.91 266.36 272.13 267.83 267.41 269.50 C 276.46 269.56 285.51 269.55 294.56 269.50 C 294.59 271.79 294.47 274.91 297.10 275.89 C 300.47 277.20 305.97 277.05 307.39 273.04 C 307.83 270.08 304.68 268.43 302.28 267.81 C 296.88 266.39 290.92 265.33 286.87 261.14 C 282.11 256.33 283.27 247.59 288.64 243.69 C 294.43 239.41 301.99 238.61 308.98 238.77 C 314.24 239.04 320.22 239.81 323.92 243.98 C 326.31 246.57 326.21 250.28 326.03 253.57 C 320.89 253.52 315.75 253.52 310.61 253.56 C 310.31 251.76 310.53 249.44 308.65 248.44 C 305.76 246.97 300.84 247.35 299.67 250.89 C 299.48 252.97 301.54 254.18 303.27 254.67 C 309.08 256.43 315.77 256.30 320.71 260.27 C 325.59 264.47 325.61 272.19 322.28 277.35 C 318.17 284.31 309.67 286.97 302.01 287.16 C 295.09 287.27 287.37 286.80 281.81 282.17 C 278.87 279.84 277.89 276.05 277.72 272.46 C 273.84 280.80 265.21 286.56 256.01 286.93 C 248.70 287.54 240.32 285.45 236.15 278.92 C 231.37 271.62 232.75 262.13 236.24 254.60 C 230.85 255.09 224.93 257.53 223.12 263.10 C 220.79 270.39 219.98 278.07 218.26 285.53 C 212.65 285.54 207.04 285.53 201.43 285.53 C 204.88 270.69 208.36 255.85 211.82 241.01 C 217.07 240.78 222.32 240.58 227.58 240.38 C 227.26 241.58 226.64 243.97 226.32 245.17 C 230.13 241.42 235.33 239.70 240.59 239.52 C 239.70 243.67 238.78 247.82 237.83 251.95 Z" />
<path fill="#ffffff" opacity="1.00" d=" M 145.89 240.21 C 151.30 240.20 156.71 240.20 162.12 240.21 C 158.90 255.34 155.66 270.46 152.42 285.59 C 146.87 285.61 141.33 285.60 135.79 285.59 C 139.11 270.46 142.51 255.33 145.89 240.21 Z" />
<path fill="#ffffff" opacity="1.00" d=" M 435.44 240.59 C 439.66 238.79 444.89 242.41 444.11 247.10 C 443.92 251.78 438.04 254.13 434.33 251.70 C 430.21 249.26 430.82 242.10 435.44 240.59 Z" />
<path fill="#5c96ff" opacity="1.00" d=" M 435.12 241.93 C 438.65 239.81 443.92 242.77 443.11 247.07 C 442.81 251.10 437.46 252.80 434.49 250.43 C 431.74 248.37 432.03 243.53 435.12 241.93 Z" />
<path fill="#ffffff" opacity="1.00" d=" M 436.29 242.98 C 437.81 243.28 439.77 242.79 440.80 244.28 C 441.03 245.57 440.04 246.51 439.39 247.48 C 439.52 248.43 439.66 249.38 439.80 250.34 C 438.86 249.09 437.95 247.81 437.11 246.50 C 436.76 247.88 436.37 249.25 435.95 250.61 C 435.01 248.10 435.95 245.49 436.29 242.98 Z" />
<path fill="#5c96ff" opacity="1.00" d=" M 437.53 244.32 C 439.20 243.80 439.78 244.33 439.27 245.93 C 437.59 246.45 437.01 245.91 437.53 244.32 Z" />
<path fill="#5c96ff" opacity="1.00" d=" M 259.46 249.65 C 261.82 248.54 264.71 249.89 265.60 252.28 C 267.20 256.36 266.32 260.92 265.05 264.97 C 263.64 268.82 261.63 273.01 257.75 274.88 C 254.82 276.32 251.43 274.07 250.64 271.15 C 249.33 266.62 250.61 261.77 252.47 257.59 C 254.01 254.41 256.09 251.09 259.46 249.65 Z" />
<path fill="#5c96ff" opacity="1.00" d=" M 352.41 249.64 C 355.10 248.24 358.34 250.17 359.04 252.96 C 360.53 258.24 359.04 263.93 356.71 268.75 C 355.03 271.99 352.12 275.92 347.97 275.20 C 343.77 273.92 343.44 268.65 343.93 265.01 C 344.84 259.23 347.00 252.65 352.41 249.64 Z" />
</svg>
