<?xml version="1.0" encoding="UTF-8" ?>
<!DOCTYPE svg PUBLIC "-//W3C//DTD SVG 1.1//EN" "http://www.w3.org/Graphics/SVG/1.1/DTD/svg11.dtd">
<svg width="512pt" height="512pt" viewBox="0 0 512 512" version="1.1" xmlns="http://www.w3.org/2000/svg">
<path fill="#003399" opacity="1.00" d=" M 0.00 0.00 L 512.00 0.00 L 512.00 512.00 L 0.00 512.00 L 0.00 0.00 Z" />
<path fill="#ffffff" opacity="1.00" d=" M 307.40 122.67 C 315.65 120.49 324.48 121.15 332.59 123.63 C 348.63 128.97 361.19 144.05 362.67 161.02 C 362.99 167.37 363.11 173.92 360.91 179.99 C 355.98 194.97 342.69 207.23 327.05 210.04 C 322.03 210.77 316.92 210.92 311.88 210.51 C 296.46 208.41 282.61 197.61 276.77 183.19 C 272.91 174.69 272.99 165.04 274.48 156.00 C 278.16 139.93 291.38 126.58 307.40 122.67 Z" />
<path fill="#ffffff" opacity="1.00" d=" M 232.59 137.98 C 251.18 135.33 269.88 152.11 268.61 170.96 C 269.21 185.85 257.44 199.41 243.14 202.48 C 229.22 205.99 213.57 198.57 207.04 185.88 C 202.41 177.32 202.25 166.74 205.72 157.74 C 210.25 146.97 220.90 139.00 232.59 137.98 Z" />
<path fill="#ffffff" opacity="1.00" d=" M 163.55 146.83 C 170.26 145.33 177.57 146.09 183.60 149.51 C 190.07 153.23 194.82 159.80 196.39 167.08 C 197.00 172.85 197.09 179.04 194.29 184.31 C 189.95 192.99 180.76 199.28 170.95 199.41 C 163.21 199.73 155.49 196.36 150.27 190.67 C 145.43 185.02 142.77 177.42 143.58 169.96 C 144.56 159.09 152.97 149.46 163.55 146.83 Z" />
<path fill="#ffffff" opacity="1.00" d=" M 157.65 207.43 C 163.42 205.10 169.77 205.03 175.89 205.54 C 187.35 207.12 197.02 214.98 202.93 224.66 C 211.34 215.60 223.50 209.69 236.01 210.26 C 246.65 209.75 257.07 214.08 265.15 220.82 C 270.03 224.94 273.49 230.38 276.97 235.66 C 286.72 227.67 298.43 221.53 311.15 220.39 C 329.48 218.14 349.04 224.70 361.73 238.29 C 373.32 249.55 379.82 265.84 379.44 281.98 C 379.81 318.58 379.60 355.19 379.67 391.80 C 338.73 391.75 297.78 391.85 256.84 391.75 C 256.82 373.10 256.89 354.45 256.81 335.81 C 234.93 335.77 213.06 335.83 191.19 335.78 C 191.17 326.45 191.22 317.13 191.17 307.81 C 171.83 307.60 152.49 307.76 133.16 307.74 C 133.39 289.83 133.16 271.91 133.27 254.00 C 133.51 245.56 132.77 236.84 135.90 228.81 C 139.75 219.11 147.68 210.83 157.65 207.43 Z" />
</svg>
