<?xml version="1.0" encoding="UTF-8" ?>
<!DOCTYPE svg PUBLIC "-//W3C//DTD SVG 1.1//EN" "http://www.w3.org/Graphics/SVG/1.1/DTD/svg11.dtd">
<svg width="512pt" height="512pt" viewBox="0 0 512 512" version="1.1" xmlns="http://www.w3.org/2000/svg">
<path fill="#cb2027" opacity="1.00" d=" M 0.00 0.00 L 512.00 0.00 L 512.00 512.00 L 0.00 512.00 L 0.00 0.00 Z" />
<path fill="#ffffff" opacity="1.00" d=" M 232.63 125.97 C 252.25 122.31 272.64 123.63 291.79 129.12 C 321.11 137.43 347.22 156.42 364.27 181.66 C 376.48 199.51 384.05 220.45 386.33 241.94 C 386.54 249.01 388.14 256.11 386.71 263.16 C 385.57 287.20 377.33 310.83 363.61 330.59 C 346.11 355.94 319.47 374.89 289.66 382.75 C 278.75 385.97 267.36 386.78 256.08 387.64 C 243.30 387.02 230.53 385.56 218.20 382.03 C 223.15 373.05 228.50 364.08 231.17 354.08 C 234.48 341.92 237.37 329.65 240.66 317.48 C 246.06 326.47 256.21 331.49 266.26 333.26 C 282.73 335.40 299.86 330.25 312.69 319.76 C 327.29 307.90 336.27 290.32 340.49 272.22 C 344.27 254.71 345.73 235.86 339.07 218.83 C 331.45 198.64 314.63 182.42 294.57 174.69 C 277.04 167.64 257.48 167.01 239.04 170.31 C 218.27 173.98 198.54 184.63 185.09 201.03 C 172.74 215.99 165.49 235.48 166.59 254.98 C 167.42 268.35 171.23 282.35 180.85 292.15 C 184.75 296.20 189.58 299.41 194.92 301.20 C 197.98 301.82 199.97 298.63 200.31 295.99 C 201.33 291.98 202.34 287.97 203.37 283.96 C 201.99 280.49 199.04 278.02 197.26 274.78 C 191.41 264.99 191.35 252.92 193.18 241.98 C 196.03 224.67 206.81 208.82 221.92 199.88 C 237.32 190.80 256.34 188.51 273.64 192.58 C 287.51 195.50 300.23 204.52 306.45 217.42 C 313.11 230.73 312.23 246.20 310.16 260.52 C 307.55 275.87 302.22 291.72 290.60 302.65 C 282.74 310.24 270.24 313.89 260.02 309.07 C 252.04 305.59 247.16 296.51 248.65 287.93 C 251.64 273.04 258.00 259.00 260.36 243.95 C 261.30 237.44 260.44 230.18 256.06 225.01 C 251.55 219.63 243.60 218.22 237.12 220.33 C 230.13 222.46 224.85 228.28 221.73 234.70 C 216.37 246.09 216.50 259.56 220.77 271.27 C 221.30 272.78 222.13 274.35 221.52 275.99 C 216.21 298.36 210.97 320.75 205.65 343.12 C 202.79 353.92 202.29 365.18 202.64 376.30 C 176.00 364.51 153.39 343.81 139.59 318.13 C 128.84 298.27 123.38 275.58 123.92 253.01 C 124.33 223.41 135.26 194.07 154.33 171.41 C 173.96 147.63 202.24 131.21 232.63 125.97 Z" />
</svg>
