<?xml version="1.0" encoding="UTF-8" ?>
<!DOCTYPE svg PUBLIC "-//W3C//DTD SVG 1.1//EN" "http://www.w3.org/Graphics/SVG/1.1/DTD/svg11.dtd">
<svg width="512pt" height="512pt" viewBox="0 0 512 512" version="1.1" xmlns="http://www.w3.org/2000/svg">
<path fill="#ff4006" opacity="1.00" d=" M 0.00 0.00 L 512.00 0.00 L 512.00 512.00 L 0.00 512.00 L 0.00 0.00 Z" />
<path fill="#ffffff" opacity="1.00" d=" M 349.86 128.04 C 365.72 123.03 384.01 132.80 389.90 148.11 C 396.28 163.01 389.89 181.82 375.83 189.85 C 363.38 197.59 346.06 195.63 335.54 185.46 C 327.59 177.96 323.27 166.30 325.48 155.50 C 318.53 153.66 311.36 152.90 304.28 151.83 C 295.51 150.97 286.54 149.91 277.85 151.95 C 272.41 153.47 269.68 159.13 267.93 164.04 C 264.43 175.10 263.76 186.81 263.24 198.33 C 292.21 199.27 321.32 206.27 346.60 220.70 C 355.92 211.57 368.79 205.60 381.98 206.17 C 393.31 205.98 404.53 211.60 411.29 220.68 C 417.70 229.25 419.87 240.56 418.02 251.02 C 415.70 265.28 406.60 277.75 394.79 285.77 C 396.79 301.13 392.00 316.84 383.74 329.75 C 371.45 348.56 352.43 362.04 332.06 370.96 C 310.35 380.64 286.62 385.03 262.99 386.34 C 243.58 386.96 224.13 384.53 205.30 379.84 C 177.79 372.45 150.75 358.83 132.75 336.15 C 121.30 321.95 115.22 303.51 116.77 285.27 C 104.78 277.43 96.12 264.54 93.84 250.36 C 92.78 242.47 93.48 234.19 96.99 226.97 C 101.42 217.15 110.61 209.86 120.99 207.21 C 136.82 203.44 153.95 209.22 165.30 220.64 C 191.52 205.93 221.68 198.56 251.68 198.40 C 252.82 195.06 252.18 191.44 252.65 187.99 C 253.68 177.68 254.59 167.12 258.58 157.44 C 261.40 150.87 266.00 144.43 272.97 141.92 C 278.73 139.96 284.92 139.63 290.96 139.69 C 303.75 140.17 316.42 142.20 328.96 144.66 C 333.29 136.58 341.02 130.45 349.86 128.04 Z" />
<path fill="#ff4006" opacity="1.00" d=" M 108.99 230.00 C 113.37 222.37 122.25 217.76 130.99 218.15 C 139.83 217.80 148.11 221.94 154.94 227.23 C 139.46 238.53 125.62 253.50 119.92 272.16 C 114.02 268.36 110.18 261.90 107.59 255.50 C 104.42 247.33 104.41 237.65 108.99 230.00 Z" />
<path fill="#ff4006" opacity="1.00" d=" M 357.11 227.43 C 363.92 221.56 372.83 217.65 381.95 218.16 C 389.41 218.05 396.81 221.66 401.38 227.55 C 405.35 232.75 407.07 239.47 406.55 245.95 C 405.71 256.34 400.13 266.06 392.11 272.60 C 386.52 253.86 372.74 238.64 357.11 227.43 Z" />
<path fill="#ff4006" opacity="1.00" d=" M 302.68 267.07 C 312.25 265.55 321.88 272.99 323.14 282.54 C 324.58 291.57 318.21 301.09 309.18 302.91 C 299.69 305.49 289.08 298.78 287.20 289.16 C 284.55 279.11 292.39 268.09 302.68 267.07 Z" />
<path fill="#ff4006" opacity="1.00" d=" M 199.00 267.72 C 203.83 266.69 209.30 266.64 213.64 269.32 C 219.11 272.49 222.90 278.59 222.74 285.00 C 223.12 293.54 216.45 301.66 208.03 303.07 C 198.28 305.31 187.76 297.86 186.52 287.96 C 184.98 279.30 190.66 270.30 199.00 267.72 Z" />
<path fill="#ff4006" opacity="1.00" d=" M 254.02 343.60 C 274.30 343.70 294.74 340.19 313.39 332.06 C 313.20 341.22 305.83 348.12 298.35 352.29 C 283.10 360.68 265.19 362.96 248.01 362.28 C 233.49 361.19 218.51 358.13 206.33 349.74 C 200.54 345.66 195.42 339.53 195.29 332.11 C 213.78 340.04 233.94 343.65 254.02 343.60 Z" />
</svg>
