<?xml version="1.0" encoding="UTF-8" ?>
<!DOCTYPE svg PUBLIC "-//W3C//DTD SVG 1.1//EN" "http://www.w3.org/Graphics/SVG/1.1/DTD/svg11.dtd">
<svg width="512pt" height="512pt" viewBox="0 0 512 512" version="1.1" xmlns="http://www.w3.org/2000/svg">
<path fill="#0479f3" opacity="1.00" d=" M 0.00 0.00 L 512.00 0.00 L 512.00 512.00 L 0.00 512.00 L 0.00 0.00 Z" />
<path fill="#ffffff" opacity="1.00" d=" M 375.81 181.02 C 375.88 179.43 376.01 176.70 378.08 176.53 C 383.48 176.15 388.91 176.31 394.31 176.54 C 394.80 178.65 395.27 180.79 395.23 182.98 C 395.12 207.99 395.26 233.00 395.17 258.01 C 395.23 260.53 394.96 263.30 396.48 265.48 C 398.34 268.77 401.93 270.39 405.24 271.82 C 405.55 272.32 406.16 273.31 406.47 273.81 C 405.08 278.69 404.30 283.76 402.45 288.49 C 401.90 290.07 399.74 289.83 398.45 289.51 C 386.03 285.90 375.68 274.24 375.80 260.95 C 375.79 234.31 375.82 207.66 375.81 181.02 Z" />
<path fill="#ffffff" opacity="1.00" d=" M 120.22 200.17 C 130.87 193.94 144.48 193.36 155.83 197.99 C 165.58 201.90 173.05 211.80 172.70 222.50 C 167.43 224.06 161.77 223.89 156.35 223.57 C 154.19 222.12 154.02 218.76 152.03 216.95 C 147.07 212.60 139.81 211.99 133.67 213.82 C 130.90 214.69 127.98 215.83 126.21 218.27 C 123.77 221.34 123.83 226.45 127.04 228.98 C 130.78 231.73 135.61 231.61 140.00 232.30 C 149.39 233.41 159.32 235.08 166.98 241.04 C 174.72 247.32 177.25 258.67 173.89 267.89 C 172.20 272.43 169.34 276.50 165.70 279.69 C 150.97 292.03 126.76 291.70 112.95 278.09 C 107.93 273.33 105.07 266.22 105.70 259.31 C 106.39 256.90 109.04 257.45 110.96 257.28 C 115.04 257.22 119.13 257.11 123.20 257.47 C 124.06 260.46 124.29 264.00 126.96 266.05 C 134.23 272.24 145.80 272.03 153.27 266.30 C 157.04 263.48 158.27 256.84 154.01 253.91 C 148.81 250.99 142.62 251.41 136.90 250.46 C 127.92 249.34 118.01 247.31 111.84 240.09 C 106.33 233.94 105.32 225.04 106.89 217.21 C 108.66 209.97 113.73 203.73 120.22 200.17 Z" />
<path fill="#ffffff" opacity="1.00" d=" M 217.31 195.27 C 229.44 193.07 242.50 195.16 252.70 202.31 C 262.82 208.82 269.96 219.47 272.68 231.14 C 275.15 243.84 273.19 257.78 265.29 268.31 C 258.24 278.92 246.55 286.01 234.06 288.10 C 225.30 289.15 216.15 288.40 208.01 284.84 C 192.91 278.78 181.86 264.03 179.66 248.00 C 178.94 239.28 179.48 230.14 183.41 222.17 C 189.55 208.47 202.53 198.07 217.31 195.27 Z" />
<path fill="#ffffff" opacity="1.00" d=" M 302.57 201.54 C 315.95 193.69 333.47 193.46 347.07 200.91 C 358.47 207.27 367.31 219.12 368.53 232.27 C 362.92 233.63 356.91 233.61 351.27 232.55 C 349.32 229.49 348.26 225.91 345.88 223.12 C 340.35 215.99 330.81 212.89 322.03 213.97 C 308.99 215.18 298.28 227.11 297.59 240.04 C 296.31 253.64 306.40 267.46 319.89 270.03 C 329.56 271.95 340.42 268.45 346.46 260.48 C 349.25 257.65 349.84 253.46 352.28 250.45 C 356.76 249.39 361.51 249.89 366.09 250.04 C 367.82 249.88 368.52 251.56 369.48 252.65 C 366.50 264.49 359.56 275.60 349.00 282.05 C 336.73 289.73 320.78 290.74 307.46 285.24 C 297.32 280.91 288.90 272.70 284.19 262.75 C 277.50 249.49 277.85 232.99 284.92 219.95 C 288.83 212.26 295.08 205.80 302.57 201.54 Z" />
<path fill="#0479f3" opacity="1.00" d=" M 218.46 213.75 C 231.18 209.82 245.95 216.20 252.01 228.00 C 256.90 236.86 256.39 248.39 250.95 256.91 C 243.48 269.13 226.39 274.03 213.68 267.30 C 203.46 262.09 196.47 250.61 197.84 239.02 C 198.52 227.33 207.38 217.06 218.46 213.75 Z" />
<path fill="#ffffff" opacity="1.00" d=" M 350.43 299.50 C 352.79 298.61 354.86 302.20 352.88 303.79 C 342.76 312.45 331.31 319.50 319.33 325.30 C 300.68 333.72 279.55 337.49 259.26 333.87 C 236.87 330.57 215.81 320.02 198.86 305.16 C 196.74 303.92 197.18 301.47 197.34 299.43 C 202.00 299.31 204.52 303.73 208.03 306.02 C 222.71 317.13 239.83 325.51 258.11 328.38 C 266.98 330.29 276.14 329.68 285.13 329.40 C 305.58 327.17 324.80 318.19 341.38 306.28 C 344.50 304.16 347.17 301.41 350.43 299.50 Z" />
</svg>
