<?xml version="1.0" encoding="UTF-8" ?>
<!DOCTYPE svg PUBLIC "-//W3C//DTD SVG 1.1//EN" "http://www.w3.org/Graphics/SVG/1.1/DTD/svg11.dtd">
<svg width="512pt" height="512pt" viewBox="0 0 512 512" version="1.1" xmlns="http://www.w3.org/2000/svg">
<path fill="#eb4924" opacity="1.00" d=" M 0.00 0.00 L 512.00 0.00 L 512.00 512.00 L 0.00 512.00 L 0.00 0.00 Z" />
<path fill="#ffffff" opacity="1.00" d=" M 197.65 205.03 C 201.07 177.73 226.42 155.07 254.02 155.13 C 272.59 154.08 291.01 162.99 302.39 177.58 C 309.74 187.39 315.11 199.51 314.26 211.99 C 314.31 217.86 314.15 223.74 314.37 229.61 C 306.35 232.86 298.10 235.62 289.98 238.64 C 284.02 236.50 278.50 233.11 272.44 231.16 C 271.24 223.42 274.01 215.04 270.22 207.81 C 267.44 201.82 260.50 197.70 253.90 199.10 C 246.61 200.49 241.26 207.65 241.27 214.95 C 241.33 242.97 241.28 271.00 241.30 299.03 C 241.31 301.70 241.61 304.41 241.03 307.05 C 237.21 326.17 223.97 343.28 206.20 351.38 C 195.97 356.32 184.13 357.67 172.99 355.71 C 147.54 351.31 126.90 328.61 123.87 303.14 C 123.77 289.29 123.91 275.43 123.81 261.58 C 138.46 261.53 153.11 261.60 167.76 261.54 C 167.83 273.36 167.82 285.18 167.77 296.99 C 167.03 305.29 174.73 313.41 183.09 312.88 C 191.23 312.92 198.06 304.93 197.76 296.98 C 197.66 266.33 197.86 235.68 197.65 205.03 Z" />
<path fill="#ffffff" opacity="1.00" d=" M 271.30 262.93 C 277.31 265.25 283.13 268.04 288.98 270.74 C 297.71 268.17 306.41 265.51 315.22 263.28 C 315.18 275.80 315.13 288.34 315.24 300.86 C 315.44 309.08 322.59 316.93 331.07 316.53 C 339.58 316.45 346.19 308.25 346.33 300.07 C 346.40 287.83 346.36 275.59 346.35 263.34 C 360.51 263.43 374.67 263.39 388.83 263.36 C 388.83 275.58 388.81 287.80 388.84 300.02 C 389.76 305.77 387.89 311.45 385.98 316.81 C 380.21 332.57 367.87 345.82 352.44 352.47 C 342.56 356.87 331.41 357.82 320.80 356.18 C 292.13 351.35 269.40 323.10 271.28 294.03 C 271.29 283.66 271.24 273.29 271.30 262.93 Z" />
</svg>
