<?xml version="1.0" encoding="UTF-8" ?>
<!DOCTYPE svg PUBLIC "-//W3C//DTD SVG 1.1//EN" "http://www.w3.org/Graphics/SVG/1.1/DTD/svg11.dtd">
<svg width="512pt" height="512pt" viewBox="0 0 512 512" version="1.1" xmlns="http://www.w3.org/2000/svg">
<path fill="#454442" opacity="1.00" d=" M 0.00 0.00 L 512.00 0.00 L 512.00 512.00 L 0.00 512.00 L 0.00 0.00 Z" />
<path fill="#ffffff" opacity="1.00" d=" M 288.60 127.14 C 298.29 123.17 309.32 123.66 319.39 125.90 C 332.17 128.78 344.76 136.17 350.74 148.23 C 356.86 160.93 355.80 176.63 348.89 188.80 C 341.01 202.98 325.22 211.34 309.33 212.52 C 309.34 221.48 309.32 230.44 309.34 239.40 C 320.33 248.85 331.15 258.49 342.11 267.97 C 331.13 277.41 320.33 287.07 309.35 296.51 C 309.29 309.02 309.37 321.53 309.31 334.05 C 328.09 327.60 343.79 313.70 353.78 296.69 C 356.34 292.61 358.14 288.14 360.54 283.98 C 361.41 304.92 358.26 326.52 348.06 345.07 C 338.31 363.39 321.57 377.72 302.12 384.85 C 278.55 393.60 252.48 393.85 228.05 388.82 C 203.97 383.53 180.86 371.09 165.57 351.42 C 150.72 332.65 144.06 307.76 147.12 284.07 C 149.23 266.88 157.39 250.76 169.14 238.15 C 188.89 217.03 216.49 205.23 244.25 198.89 C 242.64 197.96 240.88 197.39 239.10 196.91 C 227.30 193.54 215.35 190.12 203.03 189.48 C 194.95 189.06 185.91 192.68 182.35 200.37 C 178.88 207.86 181.26 216.95 186.75 222.83 C 177.18 221.20 167.49 217.49 160.89 210.09 C 153.91 202.57 151.59 191.91 151.90 181.91 C 152.73 167.92 160.89 155.12 172.01 146.93 C 183.40 138.32 197.84 134.29 212.02 134.57 C 229.02 135.03 245.42 140.13 261.33 145.75 C 272.97 149.63 284.57 154.30 296.93 155.21 C 302.27 155.48 308.09 153.84 311.55 149.54 C 317.02 143.12 314.99 131.30 306.69 128.30 C 300.93 125.62 294.63 127.50 288.60 127.14 Z" />
<path fill="#454442" opacity="1.00" d=" M 244.96 198.58 C 254.72 201.84 264.63 204.65 274.51 207.51 L 273.97 207.99 C 272.72 208.67 271.48 209.35 270.17 209.87 C 255.89 215.57 241.61 221.26 227.35 227.00 C 227.38 259.61 227.31 292.23 227.39 324.84 C 243.12 318.36 258.92 312.05 274.65 305.56 C 275.12 283.73 274.67 261.85 274.87 240.00 C 274.83 229.87 274.81 219.74 274.85 209.61 C 274.95 209.27 275.13 208.58 275.22 208.24 C 276.86 207.76 278.50 208.55 280.10 208.82 C 289.16 211.15 298.47 212.71 307.85 212.47 C 307.59 221.46 308.26 230.58 307.54 239.50 C 297.03 249.16 286.15 258.45 275.50 267.96 C 286.15 277.49 297.06 286.74 307.53 296.44 C 308.24 309.05 307.60 321.84 307.87 334.52 C 287.91 340.42 266.13 341.16 246.16 334.90 C 232.49 330.58 220.00 321.98 212.07 309.93 C 206.44 301.53 203.25 291.71 201.78 281.76 C 200.11 265.51 201.17 248.44 208.49 233.57 C 214.91 220.07 226.22 209.26 239.35 202.31 C 241.33 201.25 243.57 200.47 244.96 198.58 Z" />
</svg>
