<?xml version="1.0" encoding="UTF-8" ?>
<!DOCTYPE svg PUBLIC "-//W3C//DTD SVG 1.1//EN" "http://www.w3.org/Graphics/SVG/1.1/DTD/svg11.dtd">
<svg width="512pt" height="512pt" viewBox="0 0 512 512" version="1.1" xmlns="http://www.w3.org/2000/svg">
<path fill="#ff5f07" opacity="1.00" d=" M 0.00 0.00 L 512.00 0.00 L 512.00 512.00 L 0.00 512.00 L 0.00 0.00 Z" />
<path fill="#ffffff" opacity="1.00" d=" M 215.81 110.86 C 223.04 108.67 230.50 107.59 237.92 106.33 C 247.26 105.51 256.65 105.71 266.00 105.84 C 275.01 105.73 283.77 108.05 292.55 109.75 C 305.20 112.65 317.37 117.68 328.69 124.00 C 336.95 128.16 344.55 133.51 351.71 139.35 C 362.64 148.73 372.80 159.14 380.85 171.13 C 383.34 175.32 386.70 178.94 388.44 183.56 C 398.36 201.18 404.47 220.88 406.40 241.00 C 407.07 249.95 407.95 258.99 406.58 267.92 C 405.36 295.39 394.83 321.90 379.27 344.36 C 366.68 361.64 350.72 376.66 332.08 387.23 C 329.45 388.53 326.93 390.03 324.48 391.65 C 311.92 397.60 298.82 402.76 285.05 405.07 C 279.30 405.48 273.73 407.38 267.91 407.14 C 248.03 408.20 227.75 406.88 208.86 400.19 C 204.89 398.73 201.06 396.93 196.97 395.81 C 170.08 384.30 146.76 364.73 130.49 340.43 C 110.94 311.18 102.05 274.93 106.06 239.95 C 106.68 233.18 108.35 226.59 109.41 219.89 C 113.51 205.58 118.99 191.60 126.51 178.73 C 130.09 174.16 132.60 168.83 136.43 164.44 C 139.53 160.87 142.12 156.86 145.49 153.53 C 151.23 147.98 156.67 142.04 163.19 137.36 C 175.54 127.92 189.11 119.92 203.80 114.73 C 207.74 113.23 211.54 111.26 215.81 110.86 Z" />
<path fill="#ff5f07" opacity="1.00" d=" M 235.91 135.59 C 246.78 133.17 258.02 134.44 269.07 134.27 C 274.69 135.34 280.48 135.72 285.91 137.57 C 290.46 138.09 294.38 140.65 298.88 141.36 C 304.26 143.57 309.92 145.57 314.55 149.17 C 315.01 149.29 315.92 149.53 316.38 149.65 C 318.59 151.46 321.69 151.98 323.39 154.40 C 329.82 157.27 334.64 162.55 340.18 166.73 C 343.12 170.43 346.81 173.45 349.81 177.12 C 365.44 195.49 375.49 218.55 378.23 242.51 C 379.01 253.68 379.13 264.98 377.49 276.08 C 375.09 287.36 372.47 298.78 367.06 309.05 C 359.99 323.83 350.13 337.45 337.55 348.00 C 321.35 362.99 300.58 372.89 278.94 377.06 C 273.90 377.33 269.06 379.16 263.98 378.82 C 254.96 378.51 245.77 379.73 236.92 377.55 C 230.72 376.18 224.45 375.15 218.40 373.16 C 194.10 365.55 172.58 349.77 157.47 329.35 C 134.22 298.41 126.78 255.97 139.27 219.22 C 144.14 202.63 153.44 187.69 164.63 174.66 C 167.32 171.95 169.74 168.94 172.82 166.65 C 190.07 150.33 212.48 139.41 235.91 135.59 Z" />
<path fill="#ffffff" opacity="1.00" d=" M 179.88 212.83 C 185.51 209.04 192.31 208.04 198.91 207.31 C 203.43 206.73 207.71 208.51 212.15 208.93 C 219.21 211.96 226.04 215.98 230.85 222.10 C 235.48 229.11 239.22 237.18 238.88 245.77 C 237.87 245.61 236.87 245.45 235.87 245.29 C 231.11 240.72 224.12 240.56 218.57 237.50 C 213.67 237.06 209.01 234.69 204.03 235.28 C 197.42 242.19 193.19 250.99 190.08 259.96 C 189.46 261.80 189.26 263.74 189.10 265.67 C 189.64 265.57 190.73 265.35 191.27 265.25 C 191.64 264.84 192.38 264.02 192.75 263.61 C 195.19 263.51 197.75 263.75 200.01 262.63 C 203.72 265.40 207.74 268.87 207.75 273.94 C 207.78 278.81 204.07 282.35 200.28 284.79 C 204.11 286.88 207.52 290.41 207.83 294.97 C 207.78 299.14 205.14 302.65 202.16 305.32 C 198.60 305.94 194.53 307.00 191.33 304.72 C 188.54 303.42 187.00 300.73 185.95 297.98 C 185.39 299.33 184.85 300.69 184.32 302.06 C 181.55 304.72 177.95 306.95 173.93 306.02 C 166.96 305.36 162.50 296.74 165.76 290.64 C 166.93 287.99 169.54 286.52 171.79 284.92 C 168.23 282.29 164.65 278.77 164.66 274.00 C 164.29 269.50 167.79 266.04 171.20 263.70 C 175.83 262.97 180.67 263.37 184.24 266.71 C 185.91 264.45 185.87 261.51 186.43 258.87 C 187.13 253.79 189.27 249.07 191.38 244.45 C 192.78 241.20 195.09 238.29 195.55 234.68 C 191.99 234.92 188.43 235.29 184.85 235.24 C 184.47 235.47 183.71 235.93 183.33 236.15 C 176.95 236.69 170.62 238.59 164.94 241.49 C 163.84 241.64 162.74 241.78 161.65 241.91 C 162.59 230.01 170.10 219.33 179.88 212.83 Z" />
<path fill="#ffffff" opacity="1.00" d=" M 292.98 212.69 C 306.40 204.50 324.93 205.75 336.96 215.96 C 345.26 222.03 349.92 232.13 351.44 242.05 C 348.56 242.03 346.07 240.69 343.58 239.45 C 338.63 237.83 333.54 236.64 328.46 235.49 C 312.80 233.61 296.52 235.43 282.12 242.08 C 279.42 243.29 276.97 245.03 274.13 245.90 C 273.79 232.51 281.42 219.37 292.98 212.69 Z" />
<path fill="#ff5f07" opacity="1.00" d=" M 182.08 285.11 C 181.63 282.61 184.05 281.31 185.86 280.29 C 187.24 281.12 189.27 281.41 189.82 283.18 C 190.76 285.07 189.23 286.93 188.38 288.53 C 185.81 289.04 182.39 288.11 182.08 285.11 Z" />
</svg>
