<?xml version="1.0" encoding="UTF-8" ?>
<!DOCTYPE svg PUBLIC "-//W3C//DTD SVG 1.1//EN" "http://www.w3.org/Graphics/SVG/1.1/DTD/svg11.dtd">
<svg width="512pt" height="512pt" viewBox="0 0 512 512" version="1.1" xmlns="http://www.w3.org/2000/svg">
<path fill="#304e6c" opacity="1.00" d=" M 0.00 0.00 L 512.00 0.00 L 512.00 512.00 L 0.00 512.00 L 0.00 0.00 Z" />
<path fill="#ffffff" opacity="1.00" d=" M 299.35 220.02 C 301.86 219.03 304.57 218.92 307.23 218.97 C 307.22 227.99 307.20 237.02 307.24 246.04 C 311.70 243.42 316.62 240.97 321.96 241.36 C 330.44 241.35 337.58 248.04 340.07 255.83 C 342.30 262.78 342.26 270.45 340.25 277.46 C 337.58 286.21 329.52 293.94 319.98 293.77 C 314.41 294.18 309.25 291.60 304.93 288.34 C 304.00 289.79 303.08 291.24 302.16 292.69 C 298.55 292.69 294.94 292.70 291.33 292.69 C 291.37 272.70 291.32 252.72 291.35 232.73 C 288.83 232.72 286.30 232.71 283.78 232.67 C 283.80 229.56 283.80 226.45 283.77 223.35 C 289.03 222.58 294.34 221.85 299.35 220.02 Z" />
<path fill="#ffffff" opacity="1.00" d=" M 357.35 220.19 C 360.03 219.18 362.90 218.89 365.75 218.83 C 365.77 237.89 365.76 256.96 365.72 276.03 C 365.69 278.22 366.01 280.40 366.39 282.56 C 368.74 282.98 371.13 283.21 373.52 283.31 C 373.51 286.43 373.52 289.56 373.52 292.69 C 363.20 292.70 352.88 292.69 342.57 292.70 C 342.58 289.57 342.58 286.44 342.57 283.31 C 344.91 283.20 347.25 282.95 349.56 282.48 C 350.23 265.91 349.67 249.30 349.85 232.71 C 347.42 232.71 344.98 232.72 342.55 232.73 C 342.56 229.58 342.56 226.42 342.54 223.27 C 347.55 222.65 352.56 221.84 357.35 220.19 Z" />
<path fill="#ffffff" opacity="1.00" d=" M 92.35 225.26 C 95.47 225.28 98.59 225.28 101.71 225.27 C 101.67 231.04 101.70 236.81 101.68 242.58 C 107.16 242.60 112.65 242.54 118.14 242.63 C 118.22 246.18 118.26 249.76 117.71 253.28 C 112.37 253.17 107.02 253.22 101.68 253.22 C 101.73 260.16 101.61 267.10 101.73 274.04 C 101.84 276.62 102.07 279.92 104.76 281.18 C 109.74 284.04 115.73 281.96 120.34 279.34 C 120.29 282.78 120.28 286.22 120.34 289.66 C 112.67 293.54 103.35 294.95 95.18 291.78 C 90.26 289.90 86.00 285.50 85.92 279.99 C 85.55 271.07 85.86 262.13 85.78 253.20 C 83.32 253.21 80.87 253.22 78.41 253.23 C 78.39 250.08 78.39 246.94 78.36 243.79 C 81.77 242.28 85.23 240.51 87.56 237.49 C 90.54 234.09 91.51 229.57 92.35 225.26 Z" />
<path fill="#ffffff" opacity="1.00" d=" M 206.59 242.27 C 208.79 241.30 211.22 241.34 213.58 241.27 C 213.59 243.51 213.60 245.76 213.62 248.01 C 219.48 243.77 226.60 240.57 233.99 241.47 C 238.66 241.83 242.78 244.56 245.45 248.32 C 251.06 244.17 257.78 240.85 264.94 241.37 C 271.86 241.44 278.80 246.72 279.34 253.88 C 279.79 263.37 279.17 272.89 279.66 282.38 C 282.11 283.01 284.63 283.26 287.16 283.38 C 287.14 286.46 287.14 289.54 287.15 292.62 C 277.35 292.77 267.54 292.69 257.74 292.66 C 257.74 289.59 257.74 286.52 257.74 283.45 C 259.60 283.13 261.46 282.79 263.31 282.41 C 263.81 274.26 263.58 266.09 263.49 257.94 C 263.72 255.46 261.52 253.18 259.02 253.39 C 254.62 252.96 250.96 255.82 247.41 257.96 C 247.47 266.09 247.13 274.23 247.62 282.35 C 249.46 282.75 251.30 283.11 253.16 283.47 C 253.15 286.52 253.15 289.57 253.16 292.62 C 243.98 292.78 234.81 292.67 225.63 292.68 C 225.63 289.59 225.64 286.51 225.63 283.42 C 227.56 282.91 231.22 283.54 231.36 280.69 C 231.71 273.27 231.54 265.82 231.43 258.39 C 231.54 255.92 229.98 252.93 227.10 253.39 C 222.58 252.88 218.85 255.75 215.30 258.06 C 215.37 266.17 215.00 274.29 215.53 282.39 C 217.42 282.78 219.32 283.13 221.23 283.47 C 221.21 286.52 221.21 289.57 221.23 292.63 C 211.41 292.74 201.60 292.74 191.79 292.63 C 191.80 289.53 191.80 286.44 191.79 283.35 C 194.40 282.98 199.33 284.11 199.34 280.11 C 199.57 271.85 199.30 263.57 199.42 255.30 C 196.88 255.29 194.34 255.28 191.80 255.26 C 191.80 252.08 191.80 248.91 191.78 245.73 C 196.82 245.11 201.86 244.19 206.59 242.27 Z" />
<path fill="#ffffff" opacity="1.00" d=" M 393.56 242.34 C 395.77 241.34 398.22 241.33 400.60 241.25 C 400.61 243.78 400.60 246.32 400.62 248.85 C 404.52 245.08 409.16 240.48 415.11 241.48 C 422.05 242.51 424.37 252.66 418.85 256.83 C 415.34 259.86 410.70 257.74 406.90 256.60 C 405.40 257.15 403.92 257.72 402.45 258.31 C 402.57 266.35 402.25 274.39 402.66 282.42 C 405.02 282.99 407.43 283.24 409.86 283.33 C 409.83 286.44 409.84 289.56 409.87 292.68 C 399.59 292.66 389.31 292.80 379.04 292.60 C 379.18 289.51 379.20 286.41 379.14 283.32 C 381.55 283.25 383.96 283.01 386.31 282.45 C 386.80 273.35 386.43 264.22 386.55 255.11 C 384.10 255.13 381.65 255.14 379.21 255.16 C 379.17 251.99 379.17 248.82 379.15 245.65 C 384.07 245.15 388.96 244.20 393.56 242.34 Z" />
<path fill="#ffffff" opacity="1.00" d=" M 123.36 242.55 C 131.15 242.33 138.95 242.32 146.75 242.15 C 146.75 253.45 146.72 264.75 146.74 276.04 C 146.63 278.34 147.32 281.38 149.98 281.87 C 154.60 282.82 159.05 280.18 162.63 277.53 C 163.50 271.05 162.91 264.50 162.90 257.99 C 162.84 256.24 162.99 254.38 162.12 252.80 C 160.05 251.97 157.77 252.29 155.61 252.15 C 155.60 248.95 155.60 245.74 155.59 242.54 C 163.45 242.37 171.33 242.24 179.20 242.22 C 179.29 255.67 178.95 269.13 179.38 282.58 C 181.76 283.05 184.18 283.24 186.61 283.30 C 186.59 286.42 186.60 289.55 186.61 292.67 C 179.28 292.56 171.98 293.26 164.65 293.36 C 164.61 291.34 164.58 289.32 164.52 287.31 C 159.11 291.17 152.72 294.21 145.91 293.76 C 138.98 293.94 131.92 288.86 131.16 281.72 C 130.15 272.04 131.41 262.24 130.46 252.54 C 128.11 252.33 125.76 252.22 123.41 252.15 C 123.35 248.95 123.35 245.75 123.36 242.55 Z" />
<path fill="#304e6c" opacity="1.00" d=" M 307.25 256.72 C 310.71 254.53 314.90 252.17 319.09 253.77 C 323.09 255.86 324.35 260.75 324.58 264.93 C 324.88 270.30 324.51 276.43 320.52 280.49 C 316.79 284.39 308.59 283.02 307.57 277.32 C 306.89 270.48 307.45 263.58 307.25 256.72 Z" />
<path fill="#ffffff" opacity="1.00" d=" M 421.55 275.71 C 427.96 272.49 436.12 279.10 434.36 286.05 C 433.10 292.76 423.88 296.10 419.00 291.00 C 413.85 286.87 415.56 278.09 421.55 275.71 Z" />
</svg>
