<?xml version="1.0" encoding="UTF-8" ?>
<!DOCTYPE svg PUBLIC "-//W3C//DTD SVG 1.1//EN" "http://www.w3.org/Graphics/SVG/1.1/DTD/svg11.dtd">
<svg width="512pt" height="512pt" viewBox="0 0 512 512" version="1.1" xmlns="http://www.w3.org/2000/svg">
<path fill="#359bed" opacity="1.00" d=" M 0.00 0.00 L 512.00 0.00 L 512.00 512.00 L 0.00 512.00 L 0.00 0.00 Z" />
<path fill="#ffffff" opacity="1.00" d=" M 292.20 145.15 C 312.68 138.53 336.55 144.78 351.11 160.66 C 363.96 158.25 376.13 153.19 387.57 146.94 C 384.43 155.81 379.47 164.11 372.57 170.57 C 369.65 173.63 366.00 175.81 362.73 178.46 C 373.92 176.96 384.95 173.98 395.27 169.40 C 387.55 180.85 377.89 190.99 366.66 199.05 C 368.69 246.41 349.14 294.17 314.75 326.74 C 294.35 346.15 268.50 359.69 240.97 365.54 C 198.61 374.89 152.45 367.55 116.01 343.68 C 141.43 346.84 167.84 341.07 189.66 327.67 C 193.41 325.30 197.26 322.99 200.47 319.90 C 176.61 319.89 154.32 302.93 147.19 280.28 C 155.67 281.78 164.55 281.79 172.81 279.12 C 157.13 276.06 143.08 265.86 135.05 252.09 C 129.73 243.17 126.99 232.75 127.18 222.37 C 135.07 226.73 143.97 229.27 153.00 229.50 C 140.63 221.14 131.58 207.91 128.77 193.21 C 125.80 179.64 128.50 165.19 135.21 153.12 C 146.96 167.00 160.62 179.33 176.15 188.85 C 199.35 203.18 226.21 211.67 253.48 212.79 C 250.60 199.89 252.01 185.92 258.09 174.12 C 264.91 160.35 277.54 149.71 292.20 145.15 Z" />
</svg>
