<?xml version="1.0" encoding="UTF-8" ?>
<!DOCTYPE svg PUBLIC "-//W3C//DTD SVG 1.1//EN" "http://www.w3.org/Graphics/SVG/1.1/DTD/svg11.dtd">
<svg width="512pt" height="512pt" viewBox="0 0 512 512" version="1.1" xmlns="http://www.w3.org/2000/svg">
<path fill="#20b8ff" opacity="1.00" d=" M 0.00 0.00 L 512.00 0.00 L 512.00 512.00 L 0.00 512.00 L 0.00 0.00 Z" />
<path fill="#ffffff" opacity="1.00" d=" M 181.27 120.36 C 230.85 119.88 280.45 120.24 330.04 120.17 C 359.46 122.73 385.41 145.89 392.17 174.52 C 393.18 179.31 394.11 184.13 394.84 188.96 C 394.85 234.35 394.85 279.73 394.84 325.12 C 393.36 333.42 392.20 341.91 388.74 349.70 C 381.45 367.47 366.70 381.98 348.86 389.09 C 341.29 392.32 333.08 393.45 325.05 394.84 C 281.03 394.86 237.00 394.83 192.97 394.86 C 187.22 395.30 181.70 393.38 176.07 392.56 C 146.75 386.29 122.74 360.01 120.17 330.00 C 120.12 281.31 120.13 232.62 120.17 183.93 C 122.82 152.08 149.71 124.55 181.27 120.36 Z" />
<path fill="#20b8ff" opacity="1.00" d=" M 199.78 161.80 C 207.39 159.28 216.27 159.48 223.23 163.76 C 225.66 165.27 228.33 166.60 230.22 168.81 C 232.43 172.57 233.15 177.01 233.64 181.28 C 234.02 190.21 233.60 199.14 233.79 208.07 C 247.07 210.67 260.63 209.39 274.06 209.58 C 287.33 209.80 300.77 206.76 313.92 209.69 C 320.96 211.11 326.06 217.31 327.92 224.00 C 330.64 232.91 329.56 243.28 323.84 250.82 C 320.33 255.37 314.43 257.11 308.94 257.61 C 295.64 258.29 282.35 256.90 269.05 257.17 C 257.90 257.08 246.76 257.23 235.62 257.72 C 234.49 268.63 233.34 279.95 236.51 290.63 C 238.82 298.25 245.78 303.75 253.45 305.33 C 265.54 307.95 277.84 305.12 289.96 304.17 C 299.76 303.22 310.45 302.69 319.35 307.64 C 326.11 312.37 328.72 321.12 328.82 329.03 C 329.13 336.35 327.12 344.43 321.21 349.23 C 315.75 353.32 308.55 353.54 302.00 353.66 C 287.65 353.53 273.30 353.79 258.96 353.29 C 247.89 352.51 236.47 351.62 226.36 346.62 C 210.46 338.61 197.32 324.97 190.43 308.49 C 186.39 299.22 185.42 289.01 185.20 279.00 C 184.68 271.68 184.62 264.33 185.15 257.01 C 185.29 245.01 185.65 233.01 185.25 221.00 C 184.67 207.34 183.50 193.46 186.23 179.94 C 187.77 172.34 192.09 164.53 199.78 161.80 Z" />
</svg>
