<?xml version="1.0" encoding="UTF-8" ?>
<!DOCTYPE svg PUBLIC "-//W3C//DTD SVG 1.1//EN" "http://www.w3.org/Graphics/SVG/1.1/DTD/svg11.dtd">
<svg width="512pt" height="512pt" viewBox="0 0 512 512" version="1.1" xmlns="http://www.w3.org/2000/svg">
<path fill="#454442" opacity="1.00" d=" M 0.00 0.00 L 512.00 0.00 L 512.00 512.00 L 0.00 512.00 L 0.00 0.00 Z" />
<path fill="#ffffff" opacity="1.00" d=" M 244.68 128.10 C 272.73 125.42 301.66 132.36 325.40 147.57 C 348.17 162.00 366.32 183.70 376.22 208.79 C 385.30 231.49 387.62 256.81 383.00 280.80 C 378.20 306.65 365.03 330.82 346.11 349.06 C 325.11 369.56 296.90 382.60 267.62 384.94 C 243.61 387.14 218.97 382.37 197.54 371.28 C 169.90 357.18 147.75 332.67 136.43 303.79 C 127.36 280.80 125.08 255.18 130.01 230.96 C 136.05 199.88 154.34 171.57 179.73 152.75 C 198.57 138.79 221.29 130.04 244.68 128.10 Z" />
<path fill="#454442" opacity="1.00" d=" M 212.15 155.01 C 227.48 148.31 244.38 145.20 261.08 145.88 C 286.85 147.02 312.27 157.29 331.11 175.01 C 326.21 174.77 321.20 176.19 317.60 179.60 C 311.72 184.82 309.85 193.51 312.00 200.93 C 314.87 211.35 322.56 219.44 326.56 229.35 C 329.85 236.76 331.47 244.93 331.06 253.03 C 330.59 261.11 328.08 268.84 325.83 276.55 C 321.12 291.93 316.33 307.30 312.03 322.80 C 311.77 322.71 311.26 322.53 311.00 322.45 C 298.00 283.09 284.70 243.82 271.39 204.56 C 276.26 204.23 281.32 204.36 286.02 202.98 C 289.55 201.02 288.69 196.28 285.46 194.51 C 270.02 195.65 254.52 196.34 239.04 195.49 C 233.84 195.56 228.69 194.29 223.49 194.69 C 219.58 195.44 219.02 201.93 222.85 203.24 C 227.17 204.15 231.60 204.31 236.00 204.61 C 241.37 219.58 246.86 234.50 252.32 249.43 C 253.18 251.21 252.84 253.16 252.16 254.93 C 244.34 278.07 236.76 301.29 228.92 324.42 C 215.15 284.56 202.15 244.43 188.37 204.58 C 193.06 204.34 197.79 204.16 202.42 203.26 C 206.12 201.96 206.33 196.62 202.84 194.90 C 198.58 194.01 194.28 195.31 189.99 195.35 C 181.31 195.58 172.60 196.33 163.92 195.65 C 175.64 177.83 192.58 163.50 212.15 155.01 Z" />
<path fill="#454442" opacity="1.00" d=" M 353.55 203.66 C 366.22 226.64 370.36 254.35 364.49 279.97 C 358.21 309.99 338.50 336.80 311.98 352.11 C 322.82 319.73 334.27 287.54 345.35 255.23 C 349.82 243.96 353.22 232.14 353.88 219.98 C 354.74 214.53 353.54 209.11 353.55 203.66 Z" />
<path fill="#454442" opacity="1.00" d=" M 154.85 212.24 C 155.15 212.26 155.73 212.29 156.03 212.31 C 170.91 254.41 186.51 296.26 201.74 338.25 C 203.81 344.19 206.29 350.00 208.00 356.07 C 185.51 345.17 166.98 326.41 156.36 303.79 C 146.35 282.54 143.04 258.01 147.91 234.97 C 149.28 227.13 151.95 219.62 154.85 212.24 Z" />
<path fill="#454442" opacity="1.00" d=" M 257.94 266.69 C 259.48 267.96 259.81 269.99 260.48 271.76 C 271.24 301.56 282.30 331.25 292.96 361.08 C 271.28 368.32 247.28 369.61 225.44 362.61 L 225.28 361.98 C 236.03 330.18 247.22 298.51 257.94 266.69 Z" />
</svg>
