<?xml version="1.0" encoding="UTF-8" ?>
<!DOCTYPE svg PUBLIC "-//W3C//DTD SVG 1.1//EN" "http://www.w3.org/Graphics/SVG/1.1/DTD/svg11.dtd">
<svg width="512pt" height="512pt" viewBox="0 0 512 512" version="1.1" xmlns="http://www.w3.org/2000/svg">
<path fill="#454442" opacity="1.00" d=" M 0.00 0.00 L 512.00 0.00 L 512.00 512.00 L 0.00 512.00 L 0.00 0.00 Z" />
<path fill="#ffffff" opacity="1.00" d=" M 68.78 232.78 C 76.95 232.79 85.12 232.77 93.30 232.79 C 93.29 233.35 93.28 234.48 93.27 235.04 C 90.94 235.25 88.62 235.65 86.51 236.68 C 86.58 238.47 86.56 240.30 87.10 242.04 C 89.32 249.49 92.13 256.77 94.25 264.26 C 98.37 253.89 101.63 243.17 105.07 232.56 C 106.33 232.75 107.88 232.96 108.17 234.47 C 111.45 244.61 115.06 254.64 118.00 264.89 C 120.67 256.22 124.21 247.78 126.38 238.99 C 126.96 235.52 122.75 235.32 120.41 235.09 C 120.40 234.31 120.41 233.54 120.41 232.76 C 127.05 232.80 133.70 232.78 140.34 232.78 C 140.33 233.36 140.32 234.52 140.31 235.10 C 137.87 235.40 135.06 235.19 133.10 236.97 C 130.98 239.16 130.07 242.16 129.04 244.95 C 125.10 257.13 120.87 269.21 117.01 281.41 C 116.46 281.15 115.34 280.64 114.79 280.38 C 111.09 269.71 107.85 258.88 104.15 248.20 C 101.23 258.14 97.67 267.87 94.56 277.75 C 93.96 279.22 93.81 281.38 91.75 281.41 C 88.03 272.53 85.75 263.09 82.54 254.01 C 80.48 248.59 79.61 242.58 76.29 237.73 C 74.65 235.20 71.41 235.39 68.78 235.11 C 68.78 234.52 68.78 233.36 68.78 232.78 Z" />
<path fill="#ffffff" opacity="1.00" d=" M 261.25 232.85 C 268.85 232.70 276.45 232.84 284.05 232.76 C 288.74 232.67 293.76 233.48 297.42 236.66 C 303.20 241.36 303.14 251.52 297.04 255.95 C 291.84 260.29 284.70 259.70 278.38 259.60 C 278.57 264.31 277.83 269.19 279.17 273.76 C 280.14 277.08 283.96 277.03 286.73 277.49 C 286.73 278.05 286.72 279.19 286.72 279.76 C 278.60 279.76 270.49 279.75 262.38 279.77 C 262.36 279.20 262.32 278.06 262.29 277.48 C 264.78 276.94 268.24 277.04 269.19 274.08 C 271.13 267.92 269.97 261.35 270.27 255.00 C 270.00 249.36 271.12 243.41 269.03 238.01 C 267.71 234.31 262.13 236.75 261.25 232.85 Z" />
<path fill="#454442" opacity="1.00" d=" M 278.41 236.83 C 282.51 236.96 287.51 236.10 290.58 239.51 C 293.94 243.63 293.76 251.00 289.04 254.06 C 285.86 256.05 281.93 255.20 278.40 255.41 C 278.39 249.21 278.36 243.02 278.41 236.83 Z" />
<path fill="#ffffff" opacity="1.00" d=" M 148.52 242.78 C 158.01 240.39 169.24 243.78 174.20 252.61 C 177.88 258.81 177.22 267.16 172.78 272.80 C 164.43 283.87 145.47 284.00 137.00 273.01 C 132.99 268.43 132.38 261.85 133.75 256.13 C 135.91 249.48 141.85 244.51 148.52 242.78 Z" />
<path fill="#ffffff" opacity="1.00" d=" M 388.71 243.76 C 393.53 241.19 399.74 241.76 404.24 244.77 C 404.40 244.16 404.72 242.92 404.88 242.30 C 405.56 242.22 406.92 242.05 407.60 241.96 C 407.65 246.45 407.64 250.95 407.63 255.44 C 406.77 255.38 405.92 255.31 405.06 255.25 C 404.27 251.03 401.69 246.46 396.99 245.96 C 393.43 244.91 388.10 249.04 391.33 252.57 C 396.30 257.35 404.13 257.97 408.66 263.39 C 411.27 266.00 411.13 270.11 410.30 273.44 C 408.55 277.97 403.86 281.01 399.03 281.06 C 394.92 281.63 391.08 279.85 387.51 278.05 C 386.85 279.89 385.94 281.60 383.66 281.39 C 383.73 276.26 383.45 271.12 383.78 266.00 C 384.37 265.86 385.54 265.58 386.13 265.43 C 386.98 269.37 388.54 273.69 392.37 275.63 C 395.65 277.40 400.44 278.27 403.21 275.14 C 404.97 273.45 404.54 270.58 402.90 268.98 C 397.64 263.92 388.83 263.66 384.99 256.95 C 382.20 252.47 384.12 246.18 388.71 243.76 Z" />
<path fill="#ffffff" opacity="1.00" d=" M 420.60 244.69 C 425.31 241.18 432.38 241.34 437.14 244.70 C 437.84 243.14 438.88 241.86 440.65 241.54 C 440.87 246.12 440.77 250.70 440.76 255.29 C 440.20 255.33 439.07 255.40 438.51 255.44 C 437.47 251.78 435.93 247.50 431.87 246.35 C 428.38 244.44 421.79 247.48 423.92 251.92 C 428.86 257.49 437.63 257.78 442.25 263.80 C 445.52 267.59 444.78 273.82 441.12 277.10 C 435.97 282.56 426.75 282.21 421.02 277.81 C 420.16 279.33 419.20 280.80 417.79 281.88 C 415.93 276.70 416.97 270.94 417.27 265.56 C 417.80 265.62 418.88 265.73 419.42 265.78 C 420.21 268.62 420.93 271.69 423.17 273.78 C 426.26 276.79 431.33 278.46 435.31 276.23 C 437.72 274.98 438.48 271.38 436.51 269.41 C 431.95 264.51 424.44 263.98 419.86 259.11 C 415.96 255.32 416.11 247.96 420.60 244.69 Z" />
<path fill="#ffffff" opacity="1.00" d=" M 177.16 245.11 C 178.84 242.38 182.38 243.79 185.01 243.46 C 192.37 243.95 200.42 242.01 207.17 245.82 C 211.46 248.11 212.99 253.79 211.05 258.12 C 209.44 261.87 205.43 263.40 201.85 264.61 C 206.65 269.05 210.42 275.30 217.07 277.13 C 219.48 277.98 221.93 277.00 224.23 276.27 C 226.11 270.70 225.18 264.77 225.40 259.02 C 225.28 255.25 225.91 251.27 224.37 247.72 C 222.95 245.76 220.26 246.00 218.17 245.48 C 218.19 244.98 218.23 243.99 218.26 243.49 C 225.17 243.49 232.08 243.42 239.00 243.49 C 244.70 243.58 250.73 244.97 255.02 248.95 C 262.26 255.69 261.87 268.98 254.01 275.09 C 249.57 278.75 243.63 279.78 238.03 279.72 C 227.43 279.72 216.83 279.79 206.24 279.70 C 201.67 274.62 198.34 268.30 192.84 264.17 C 192.83 268.03 192.26 272.18 193.95 275.80 C 195.46 277.34 197.81 277.23 199.78 277.64 C 199.80 278.16 199.82 279.20 199.83 279.72 C 192.60 279.74 185.36 279.73 178.13 279.74 C 178.10 279.22 178.06 278.19 178.04 277.68 C 179.78 277.33 181.63 277.24 183.23 276.41 C 185.27 274.17 184.80 270.84 185.14 268.05 C 185.00 261.38 185.83 254.55 184.20 248.01 C 182.68 245.68 179.51 245.99 177.16 245.11 Z" />
<path fill="#ffffff" opacity="1.00" d=" M 303.80 243.51 C 310.21 243.44 316.61 243.44 323.02 243.47 C 327.58 243.51 332.69 244.59 335.69 248.34 C 338.50 251.71 338.35 257.08 335.31 260.26 C 333.41 262.56 330.51 263.54 327.78 264.44 C 331.98 269.06 335.87 274.66 341.96 276.89 C 344.73 278.20 348.97 276.96 349.31 273.54 C 349.76 268.71 349.48 263.85 349.57 259.00 C 349.49 254.89 350.00 250.58 348.25 246.72 C 346.34 246.26 344.42 245.81 342.50 245.41 C 342.52 244.93 342.57 243.96 342.59 243.47 C 353.23 243.44 363.86 243.49 374.50 243.45 C 374.72 246.90 375.14 250.34 375.37 253.79 C 374.88 253.77 373.92 253.73 373.44 253.71 C 372.62 251.47 372.12 248.48 369.49 247.68 C 365.55 246.67 361.42 247.26 357.40 247.09 C 357.40 251.00 357.40 254.90 357.38 258.81 C 359.63 258.66 361.99 258.95 364.15 258.16 C 366.29 257.00 365.88 254.13 366.58 252.12 C 367.06 252.34 368.03 252.77 368.52 252.98 C 368.40 258.15 368.71 263.33 368.39 268.49 C 367.91 268.66 366.96 268.99 366.48 269.16 C 366.10 267.31 365.72 265.47 365.35 263.62 C 362.83 262.57 360.09 262.38 357.39 262.35 C 357.55 266.70 356.71 271.33 358.73 275.39 C 363.10 276.55 367.84 276.66 372.16 275.24 C 375.17 274.29 374.14 269.60 377.33 268.96 C 377.30 272.57 376.81 276.14 376.55 279.74 C 361.81 279.63 347.05 279.92 332.32 279.60 C 327.32 274.85 324.31 268.18 318.69 264.10 C 318.52 268.18 318.24 272.40 319.68 276.31 C 321.64 276.87 323.62 277.34 325.62 277.74 C 325.61 278.24 325.57 279.23 325.55 279.73 C 318.46 279.63 311.37 279.91 304.29 279.62 C 304.07 279.17 303.63 278.27 303.41 277.82 C 305.44 277.42 307.46 277.00 309.47 276.52 C 311.66 271.63 310.49 266.15 310.78 260.98 C 310.49 256.19 311.69 251.02 309.33 246.59 C 307.46 246.20 305.60 245.81 303.73 245.45 C 303.75 244.96 303.78 243.99 303.80 243.51 Z" />
<path fill="#454442" opacity="1.00" d=" M 150.36 246.56 C 156.41 244.04 163.91 247.36 166.31 253.42 C 169.21 260.31 168.57 269.61 162.58 274.69 C 157.03 279.42 147.27 277.76 144.00 271.11 C 139.51 263.16 141.09 250.28 150.36 246.56 Z" />
<path fill="#454442" opacity="1.00" d=" M 233.23 247.13 C 238.12 247.24 243.93 246.42 247.60 250.43 C 252.10 255.35 252.09 263.06 249.97 269.05 C 247.60 275.40 239.60 277.45 233.63 275.40 C 232.79 266.01 233.48 256.55 233.23 247.13 Z" />
<path fill="#454442" opacity="1.00" d=" M 318.59 247.09 C 321.15 247.21 323.87 246.73 326.32 247.72 C 330.84 250.13 330.95 257.77 326.49 260.29 C 324.02 261.41 321.24 261.19 318.60 261.27 C 318.57 256.54 318.59 251.81 318.59 247.09 Z" />
<path fill="#454442" opacity="1.00" d=" M 192.75 247.13 C 195.16 247.20 197.62 246.98 199.99 247.56 C 205.55 249.75 205.13 259.60 199.07 260.80 C 197.12 261.00 194.37 262.08 192.84 260.50 C 192.61 256.05 192.83 251.58 192.75 247.13 Z" />
</svg>
