<?xml version="1.0" encoding="UTF-8" ?>
<!DOCTYPE svg PUBLIC "-//W3C//DTD SVG 1.1//EN" "http://www.w3.org/Graphics/SVG/1.1/DTD/svg11.dtd">
<svg width="512pt" height="512pt" viewBox="0 0 512 512" version="1.1" xmlns="http://www.w3.org/2000/svg">
<path fill="#8a6ba6" opacity="1.00" d=" M 0.00 0.00 L 512.00 0.00 L 512.00 512.00 L 0.00 512.00 L 0.00 0.00 Z" />
<path fill="#ffffff" opacity="1.00" d=" M 140.00 144.95 C 153.21 132.17 171.52 124.66 189.95 125.12 C 257.68 125.12 325.42 125.09 393.15 125.14 C 393.15 212.15 393.15 299.16 393.15 386.17 C 301.49 386.18 209.83 386.19 118.17 386.17 C 118.19 322.78 118.17 259.39 118.18 196.00 C 118.00 176.94 126.26 158.09 140.00 144.95 Z" />
<path fill="#8a6ba6" opacity="1.00" d=" M 193.32 133.55 C 254.88 133.31 316.44 133.53 378.00 133.44 C 380.57 133.11 383.42 134.35 384.14 137.03 C 384.47 139.68 384.27 142.36 384.30 145.03 C 384.30 221.05 384.30 297.06 384.30 373.08 C 384.55 375.98 381.95 378.63 379.03 378.33 C 296.67 378.32 214.31 378.35 131.96 378.31 C 129.27 378.37 126.97 375.71 127.28 373.06 C 127.27 316.38 127.28 259.70 127.28 203.03 C 127.04 186.13 133.41 169.24 144.76 156.71 C 156.92 142.83 174.88 134.26 193.32 133.55 Z" />
<path fill="#ffffff" opacity="1.00" d=" M 153.45 161.44 C 164.56 149.65 180.74 142.82 196.94 143.17 C 256.17 143.16 315.40 143.18 374.63 143.16 C 374.59 218.32 374.59 293.48 374.63 368.64 C 295.33 368.58 216.03 368.69 136.73 368.58 C 136.81 313.05 136.72 257.52 136.77 201.99 C 137.08 187.03 142.89 172.13 153.45 161.44 Z" />
<path fill="#8a6ba6" opacity="1.00" d=" M 213.77 176.44 C 240.77 176.27 267.77 176.43 294.78 176.36 C 294.78 182.09 294.78 187.82 294.78 193.55 C 274.03 193.55 253.28 193.53 232.53 193.56 C 232.55 211.16 232.54 228.76 232.54 246.36 C 251.77 246.42 270.99 246.29 290.22 246.43 C 290.18 252.02 290.22 257.60 290.19 263.19 C 270.98 263.22 251.77 263.21 232.56 263.19 C 232.53 281.73 232.54 300.26 232.56 318.80 C 254.49 318.79 276.43 318.79 298.36 318.80 C 298.39 324.47 298.38 330.14 298.37 335.81 C 270.18 335.79 241.99 335.82 213.80 335.79 C 213.76 282.68 213.84 229.56 213.77 176.44 Z" />
</svg>
