<?xml version="1.0" encoding="UTF-8" ?>
<!DOCTYPE svg PUBLIC "-//W3C//DTD SVG 1.1//EN" "http://www.w3.org/Graphics/SVG/1.1/DTD/svg11.dtd">
<svg width="512pt" height="512pt" viewBox="0 0 512 512" version="1.1" xmlns="http://www.w3.org/2000/svg">
<path fill="#1e7145" opacity="1.00" d=" M 0.00 0.00 L 512.00 0.00 L 512.00 512.00 L 0.00 512.00 L 0.00 0.00 Z" />
<path fill="#ffffff" opacity="1.00" d=" M 258.94 122.74 C 264.36 121.80 269.75 120.56 275.24 120.06 C 275.19 210.39 275.19 300.72 275.24 391.04 C 270.14 390.73 265.16 389.58 260.14 388.69 C 211.46 379.93 162.84 370.83 114.13 362.24 C 114.06 304.83 114.12 247.41 114.10 190.00 C 114.24 176.29 113.82 162.56 114.31 148.85 C 139.29 144.84 164.12 139.86 189.04 135.49 C 212.34 131.23 235.64 127.02 258.94 122.74 Z" />
<path fill="#ffffff" opacity="1.00" d=" M 283.75 151.58 C 321.80 151.55 359.84 151.62 397.89 151.55 C 397.93 220.62 397.86 289.69 397.93 358.76 C 359.88 358.70 321.82 358.74 283.77 358.74 C 284.03 352.04 283.17 345.26 284.27 338.63 C 298.28 338.89 312.30 338.73 326.32 338.71 C 326.23 329.72 326.28 320.72 326.29 311.72 C 312.10 311.73 297.92 311.79 283.73 311.70 C 283.76 308.92 283.76 306.15 283.73 303.38 C 297.92 303.29 312.12 303.35 326.31 303.35 C 326.24 294.15 326.28 284.96 326.28 275.76 C 312.10 275.72 297.91 275.88 283.73 275.69 C 283.77 272.91 283.77 270.14 283.68 267.38 C 288.09 266.26 292.62 267.34 297.09 267.15 C 306.84 266.84 316.61 267.38 326.35 266.86 C 326.20 257.98 326.27 249.09 326.31 240.21 C 313.53 240.22 300.75 240.18 287.98 240.24 C 286.50 240.26 285.07 239.95 283.64 239.66 C 283.75 237.02 283.78 234.39 283.77 231.76 C 297.96 231.71 312.16 231.84 326.35 231.70 C 326.20 222.70 326.29 213.71 326.30 204.72 C 312.11 204.69 297.92 204.78 283.73 204.68 C 283.76 201.64 283.77 198.61 283.75 195.58 C 297.93 195.53 312.12 195.60 326.31 195.55 C 326.24 186.54 326.27 177.53 326.29 168.53 C 312.11 168.53 297.92 168.59 283.74 168.50 C 283.79 162.86 283.77 157.22 283.75 151.58 Z" />
<path fill="#1e7145" opacity="1.00" d=" M 334.32 195.58 C 334.41 186.56 334.36 177.53 334.35 168.51 C 349.08 168.55 363.81 168.58 378.54 168.49 C 378.52 177.53 378.51 186.57 378.54 195.61 C 363.80 195.52 349.06 195.57 334.32 195.58 Z" />
<path fill="#1e7145" opacity="1.00" d=" M 208.47 205.64 C 215.67 205.53 222.81 204.47 230.00 204.36 C 222.96 218.37 215.50 232.17 208.38 246.14 C 207.19 248.71 205.31 251.05 204.70 253.83 C 213.40 270.33 222.13 286.83 230.83 303.33 C 224.54 302.90 218.26 302.37 211.94 302.34 C 210.36 302.10 207.99 302.70 207.15 300.90 C 202.84 291.44 198.75 281.86 194.39 272.41 C 193.24 269.99 192.70 267.35 192.07 264.76 C 190.91 268.28 189.78 271.83 188.12 275.15 C 184.19 283.51 180.63 292.05 176.50 300.32 C 169.83 299.62 163.09 299.74 156.44 298.86 C 163.76 285.59 170.62 272.07 177.83 258.74 C 178.64 257.22 179.55 255.72 179.97 254.03 C 179.63 252.52 178.93 251.13 178.27 249.74 C 171.56 236.33 165.11 222.79 158.44 209.37 C 165.31 208.34 172.30 208.66 179.18 207.69 C 183.82 219.22 188.74 230.66 193.02 242.31 C 193.92 238.98 194.77 235.62 196.27 232.50 C 200.33 223.55 204.14 214.47 208.47 205.64 Z" />
<path fill="#1e7145" opacity="1.00" d=" M 334.30 231.78 C 334.44 222.75 334.32 213.72 334.37 204.69 C 349.09 204.75 363.81 204.73 378.52 204.69 C 378.55 213.73 378.48 222.77 378.57 231.80 C 363.81 231.71 349.06 231.75 334.30 231.78 Z" />
<path fill="#1e7145" opacity="1.00" d=" M 334.30 240.18 C 349.06 240.23 363.81 240.22 378.57 240.19 C 378.42 249.22 378.67 258.25 378.43 267.28 C 369.29 266.58 360.12 267.32 350.97 266.93 C 345.47 267.13 339.96 266.83 334.46 267.27 C 334.20 258.24 334.50 249.21 334.30 240.18 Z" />
<path fill="#1e7145" opacity="1.00" d=" M 334.37 303.41 C 334.37 294.18 334.33 284.96 334.40 275.74 C 349.10 275.79 363.81 275.78 378.51 275.74 C 378.56 284.95 378.49 294.16 378.55 303.37 C 363.82 303.34 349.10 303.27 334.37 303.41 Z" />
<path fill="#1e7145" opacity="1.00" d=" M 334.32 338.78 C 334.43 329.75 334.32 320.73 334.38 311.70 C 349.09 311.76 363.80 311.77 378.51 311.70 C 378.56 320.72 378.49 329.75 378.55 338.77 C 363.81 338.75 349.06 338.74 334.32 338.78 Z" />
</svg>
