<?xml version="1.0" encoding="UTF-8" ?>
<!DOCTYPE svg PUBLIC "-//W3C//DTD SVG 1.1//EN" "http://www.w3.org/Graphics/SVG/1.1/DTD/svg11.dtd">
<svg width="512pt" height="512pt" viewBox="0 0 512 512" version="1.1" xmlns="http://www.w3.org/2000/svg">
<path fill="#2727f7" opacity="1.00" d=" M 0.00 0.00 L 512.00 0.00 L 512.00 512.00 L 0.00 512.00 L 0.00 0.00 Z" />
<path fill="#ffffff" opacity="1.00" d=" M 148.11 138.20 C 159.91 129.71 174.40 125.02 188.93 125.00 C 256.96 125.01 324.99 124.99 393.02 125.01 C 393.05 212.02 393.01 299.04 393.05 386.06 C 301.37 386.08 209.70 386.12 118.02 386.04 C 118.05 328.37 118.02 270.70 118.03 213.03 C 118.18 201.65 117.21 190.07 120.23 178.95 C 124.29 162.63 134.38 147.90 148.11 138.20 Z" />
<path fill="#2727f7" opacity="1.00" d=" M 192.39 133.52 C 254.28 133.15 316.17 133.48 378.07 133.35 C 381.36 132.76 384.91 135.48 384.38 138.98 C 384.37 216.98 384.38 294.98 384.37 372.97 C 384.81 375.98 381.95 378.81 378.96 378.41 C 296.63 378.41 214.29 378.43 131.96 378.40 C 129.21 378.48 126.88 375.77 127.17 373.06 C 127.19 316.03 127.15 259.00 127.18 201.97 C 127.16 184.68 134.15 167.57 146.09 155.09 C 158.02 142.36 174.93 134.36 192.39 133.52 Z" />
<path fill="#ffffff" opacity="1.00" d=" M 150.21 165.21 C 161.17 151.53 178.46 143.17 196.01 143.25 C 255.53 143.19 315.04 143.27 374.56 143.21 C 374.50 218.33 374.52 293.44 374.55 368.56 C 295.32 368.46 216.07 368.68 136.84 368.45 C 136.92 313.32 136.84 258.19 136.88 203.06 C 136.95 189.43 141.48 175.76 150.21 165.21 Z" />
<path fill="#2727f7" opacity="1.00" d=" M 215.22 176.91 C 215.71 176.80 216.67 176.59 217.15 176.48 C 243.39 176.46 269.63 176.57 295.86 176.43 C 296.16 182.05 295.93 187.68 295.99 193.31 C 275.37 193.35 254.75 193.36 234.13 193.30 C 233.73 211.73 233.88 230.21 234.06 248.65 C 253.10 248.66 272.15 248.70 291.20 248.63 C 291.50 254.08 291.25 259.54 291.34 265.00 C 272.22 265.01 253.10 264.99 233.98 265.00 C 233.76 288.59 234.12 312.20 233.80 335.78 C 227.64 335.84 221.47 336.06 215.32 335.67 C 215.26 282.75 215.45 229.83 215.22 176.91 Z" />
</svg>
