<?xml version="1.0" encoding="UTF-8" ?>
<!DOCTYPE svg PUBLIC "-//W3C//DTD SVG 1.1//EN" "http://www.w3.org/Graphics/SVG/1.1/DTD/svg11.dtd">
<svg width="512pt" height="512pt" viewBox="0 0 512 512" version="1.1" xmlns="http://www.w3.org/2000/svg">
<path fill="#2727f7" opacity="1.00" d=" M 0.00 0.00 L 512.00 0.00 L 512.00 512.00 L 0.00 512.00 L 0.00 0.00 Z" />
<path fill="#ffffff" opacity="1.00" d=" M 160.15 129.25 C 162.40 128.78 164.70 128.66 166.98 128.64 C 235.32 128.61 303.65 128.67 371.98 128.61 C 374.56 128.72 377.76 128.07 379.63 130.35 C 381.76 132.30 381.04 135.39 381.19 137.95 C 381.15 217.63 381.17 297.31 381.17 376.98 C 381.60 380.03 379.27 383.46 376.01 383.34 C 296.00 383.40 215.99 383.35 135.98 383.37 C 133.18 383.74 130.91 381.46 130.13 378.97 C 129.83 376.31 130.04 373.63 130.00 370.97 C 129.99 303.00 130.02 235.03 129.99 167.06 C 130.02 158.97 132.37 150.78 137.18 144.20 C 142.54 136.50 151.03 131.23 160.15 129.25 Z" />
<path fill="#2727f7" opacity="1.00" d=" M 152.89 144.80 C 157.82 141.23 164.02 139.94 170.02 140.06 C 236.55 140.15 303.08 139.93 369.61 140.17 C 369.53 207.06 369.61 273.95 369.57 340.84 C 293.66 340.99 217.75 340.84 141.84 340.91 C 141.77 282.61 141.80 224.32 141.82 166.02 C 141.64 157.65 146.07 149.54 152.89 144.80 Z" />
<path fill="#ffffff" opacity="1.00" d=" M 221.02 195.98 C 220.60 192.09 224.09 188.75 227.92 189.01 C 247.98 188.92 268.04 189.07 288.10 188.93 C 291.43 191.21 291.16 195.63 290.94 199.18 C 290.83 201.33 289.73 204.54 287.02 204.09 C 271.01 204.15 255.00 204.03 238.98 204.15 C 238.91 219.10 238.97 234.05 238.96 249.00 C 254.31 249.11 269.68 248.90 285.03 249.10 C 288.99 250.08 288.04 254.93 288.12 258.02 C 288.45 260.54 287.16 264.17 284.11 263.98 C 269.06 264.01 254.01 263.96 238.96 264.00 C 238.87 282.69 239.10 301.40 238.85 320.09 C 237.22 322.76 233.65 322.38 230.95 322.59 C 227.54 322.49 223.54 322.92 220.99 320.18 C 221.06 278.78 221.00 237.38 221.02 195.98 Z" />
</svg>
