<?xml version="1.0" encoding="UTF-8" ?>
<!DOCTYPE svg PUBLIC "-//W3C//DTD SVG 1.1//EN" "http://www.w3.org/Graphics/SVG/1.1/DTD/svg11.dtd">
<svg width="512pt" height="512pt" viewBox="0 0 512 512" version="1.1" xmlns="http://www.w3.org/2000/svg">
<path fill="#0b96bf" opacity="1.00" d=" M 0.00 0.00 L 512.00 0.00 L 512.00 512.00 L 0.00 512.00 L 0.00 0.00 Z" />
<path fill="#ffffff" opacity="1.00" d=" M 121.27 175.30 C 129.65 146.95 157.27 125.54 186.92 125.14 C 255.69 125.06 324.46 125.11 393.22 125.12 C 393.12 212.15 393.13 299.19 393.22 386.22 C 301.52 386.23 209.82 386.22 118.12 386.23 C 118.17 328.48 118.13 270.74 118.14 212.99 C 118.28 200.39 117.15 187.45 121.27 175.30 Z" />
<path fill="#0b96bf" opacity="1.00" d=" M 188.56 133.89 C 192.70 133.44 196.88 133.50 201.04 133.43 C 260.36 133.47 319.68 133.38 379.00 133.48 C 382.05 133.12 384.66 136.02 384.30 139.01 C 384.29 217.02 384.29 295.03 384.29 373.04 C 384.58 375.99 381.89 378.65 378.95 378.36 C 296.62 378.33 214.29 378.37 131.97 378.34 C 129.31 378.36 126.91 375.69 127.28 373.02 C 127.29 316.00 127.27 258.98 127.29 201.95 C 127.26 182.59 136.09 163.48 150.71 150.81 C 161.14 141.38 174.63 135.54 188.56 133.89 Z" />
<path fill="#ffffff" opacity="1.00" d=" M 153.44 161.51 C 164.61 149.73 180.82 142.86 197.06 143.23 C 256.22 143.23 315.38 143.19 374.54 143.25 C 374.47 218.37 374.52 293.50 374.52 368.62 C 295.36 368.64 216.21 368.57 137.05 368.66 C 136.64 313.80 137.01 258.91 136.87 204.03 C 136.60 188.42 142.49 172.72 153.44 161.51 Z" />
<path fill="#0b96bf" opacity="1.00" d=" M 220.29 188.27 C 225.69 188.40 231.11 188.05 236.50 188.46 C 236.25 228.56 236.48 268.66 236.38 308.76 C 254.40 308.78 272.41 308.79 290.42 308.76 C 290.50 313.57 290.43 318.38 290.47 323.20 C 267.06 323.14 243.65 323.31 220.24 323.11 C 220.35 278.17 220.26 233.22 220.29 188.27 Z" />
</svg>
