<?xml version="1.0" encoding="UTF-8" ?>
<!DOCTYPE svg PUBLIC "-//W3C//DTD SVG 1.1//EN" "http://www.w3.org/Graphics/SVG/1.1/DTD/svg11.dtd">
<svg width="512pt" height="512pt" viewBox="0 0 512 512" version="1.1" xmlns="http://www.w3.org/2000/svg">
<path fill="#f1c11e" opacity="1.00" d=" M 0.00 0.00 L 512.00 0.00 L 512.00 512.00 L 0.00 512.00 L 0.00 0.00 Z" />
<path fill="#ffffff" opacity="1.00" d=" M 160.36 129.27 C 162.21 128.86 164.11 128.68 166.01 128.64 C 235.69 128.62 305.37 128.65 375.05 128.62 C 378.55 128.15 381.56 131.65 381.24 135.02 C 381.23 215.68 381.23 296.34 381.24 377.00 C 381.58 380.36 378.60 383.93 375.08 383.39 C 295.38 383.34 215.68 383.37 135.99 383.37 C 133.52 383.72 131.30 381.89 130.45 379.69 C 129.97 377.17 130.21 374.59 130.17 372.05 C 130.22 303.01 130.13 233.96 130.22 164.92 C 130.40 147.91 143.67 132.37 160.36 129.27 Z" />
<path fill="#f1c11e" opacity="1.00" d=" M 157.93 142.02 C 163.29 139.64 169.26 140.25 174.96 140.17 C 239.84 140.15 304.72 140.21 369.59 140.14 C 369.59 207.04 369.59 273.93 369.59 340.82 C 293.62 340.78 217.64 340.81 141.67 340.81 C 141.69 282.54 141.65 224.27 141.69 166.00 C 141.65 155.69 148.33 145.78 157.93 142.02 Z" />
<path fill="#ffffff" opacity="1.00" d=" M 245.42 188.71 C 262.31 186.38 281.10 188.15 294.93 199.01 C 307.78 208.96 313.28 225.36 314.92 240.99 C 316.44 257.81 315.67 275.34 309.17 291.14 C 304.56 302.51 296.10 312.46 285.06 318.00 C 271.48 324.93 255.51 325.68 240.69 323.35 C 226.96 321.22 213.86 313.48 206.75 301.33 C 199.44 289.26 197.29 274.90 196.78 261.02 C 196.37 243.69 198.82 225.35 208.76 210.71 C 216.98 198.42 230.90 190.65 245.42 188.71 Z" />
<path fill="#f1c11e" opacity="1.00" d=" M 250.32 203.42 C 259.87 202.66 270.10 203.20 278.35 208.63 C 289.13 215.25 294.00 228.05 295.58 240.08 C 297.41 253.54 297.15 267.47 293.53 280.63 C 290.77 289.91 285.31 298.79 276.82 303.81 C 268.58 308.95 258.39 309.80 248.94 308.71 C 239.96 307.90 231.14 303.54 225.68 296.26 C 221.03 290.13 218.47 282.66 217.24 275.12 C 215.00 261.79 214.96 248.00 217.94 234.78 C 220.02 225.90 224.34 217.26 231.47 211.38 C 236.75 206.87 243.41 204.06 250.32 203.42 Z" />
</svg>
