<?xml version="1.0" encoding="UTF-8" ?>
<!DOCTYPE svg PUBLIC "-//W3C//DTD SVG 1.1//EN" "http://www.w3.org/Graphics/SVG/1.1/DTD/svg11.dtd">
<svg width="512pt" height="512pt" viewBox="0 0 512 512" version="1.1" xmlns="http://www.w3.org/2000/svg">
<path fill="#d04525" opacity="1.00" d=" M 0.00 0.00 L 512.00 0.00 L 512.00 512.00 L 0.00 512.00 L 0.00 0.00 Z" />
<path fill="#ffffff" opacity="1.00" d=" M 104.64 141.73 C 161.94 131.38 219.27 121.14 276.53 110.52 C 276.76 207.23 276.55 303.94 276.61 400.65 C 219.30 390.15 161.93 379.93 104.61 369.43 C 104.68 293.53 104.62 217.63 104.64 141.73 Z" />
<path fill="#ffffff" opacity="1.00" d=" M 285.26 165.97 C 321.16 165.72 357.06 165.95 392.96 165.85 C 396.71 166.02 401.09 165.25 404.23 167.82 C 407.37 170.17 407.28 174.40 407.34 177.94 C 407.39 219.61 407.34 261.29 407.37 302.96 C 407.77 306.74 404.81 310.31 401.13 310.93 C 398.24 311.39 395.30 311.13 392.40 311.25 C 392.00 267.98 392.27 224.68 392.26 181.40 C 356.63 181.36 321.00 181.28 285.37 181.43 C 285.19 176.28 285.34 171.12 285.26 165.97 Z" />
<path fill="#ffffff" opacity="1.00" d=" M 285.77 187.47 C 316.20 187.24 346.63 187.44 377.06 187.37 C 380.08 187.19 383.22 188.58 384.77 191.25 C 386.42 193.84 386.11 197.06 386.15 200.00 C 386.08 245.01 386.18 290.02 386.10 335.03 C 386.31 339.45 382.62 343.84 378.05 343.65 C 347.28 343.59 316.51 343.83 285.75 343.53 C 285.88 337.82 285.86 332.12 285.77 326.42 C 308.61 326.11 331.47 326.36 354.33 326.29 C 354.29 321.59 354.29 316.89 354.34 312.19 C 331.50 312.27 308.66 312.24 285.81 312.21 C 285.83 308.63 285.83 305.04 285.78 301.46 C 308.83 301.30 331.88 301.44 354.94 301.39 C 354.82 296.69 354.83 292.00 354.92 287.31 C 331.89 287.33 308.85 287.34 285.81 287.31 C 285.82 281.74 285.86 276.16 285.78 270.59 C 299.42 278.41 317.68 275.77 328.97 264.99 C 335.59 258.87 339.57 250.29 340.72 241.42 C 326.96 241.47 313.20 241.40 299.43 241.46 C 299.48 227.84 299.48 214.22 299.44 200.61 C 294.71 201.45 290.08 202.76 285.80 204.96 C 285.83 199.13 285.87 193.30 285.77 187.47 Z" />
<path fill="#d04525" opacity="1.00" d=" M 306.35 234.34 C 306.34 223.05 306.21 211.76 306.42 200.47 C 315.24 201.73 323.97 205.26 330.11 211.91 C 336.12 217.85 339.66 225.99 340.68 234.32 C 329.24 234.29 317.79 234.24 306.35 234.34 Z" />
<path fill="#d04525" opacity="1.00" d=" M 169.21 209.16 C 179.44 208.21 189.70 207.70 199.93 206.82 C 207.38 206.87 215.43 208.60 220.77 214.17 C 226.44 220.23 227.99 228.97 227.59 236.99 C 227.76 248.95 220.07 260.69 208.75 264.82 C 201.46 267.84 193.46 267.10 185.78 266.77 C 185.78 277.00 185.73 287.23 185.81 297.46 C 180.26 297.07 174.71 296.68 169.17 296.18 C 169.28 267.18 169.20 238.17 169.21 209.16 Z" />
<path fill="#ffffff" opacity="1.00" d=" M 185.76 223.45 C 189.88 223.25 194.02 223.04 198.14 223.49 C 202.78 224.15 206.42 228.23 207.05 232.81 C 207.97 238.27 207.30 244.97 202.51 248.53 C 197.73 252.11 191.38 251.28 185.77 251.42 C 185.77 242.10 185.79 232.78 185.76 223.45 Z" />
</svg>
