<?xml version="1.0" encoding="UTF-8" ?>
<!DOCTYPE svg PUBLIC "-//W3C//DTD SVG 1.1//EN" "http://www.w3.org/Graphics/SVG/1.1/DTD/svg11.dtd">
<svg width="512pt" height="512pt" viewBox="0 0 512 512" version="1.1" xmlns="http://www.w3.org/2000/svg">
<path fill="#e65618" opacity="1.00" d=" M 0.00 0.00 L 512.00 0.00 L 512.00 512.00 L 0.00 512.00 L 0.00 0.00 Z" />
<path fill="#ffffff" opacity="1.00" d=" M 136.57 123.84 C 146.94 121.05 157.71 123.65 167.87 126.14 C 216.07 136.28 264.52 145.18 312.55 156.13 C 326.53 159.27 340.49 163.15 353.35 169.61 C 364.20 175.09 374.33 182.80 380.71 193.31 C 388.37 206.53 391.16 221.92 392.29 236.97 C 392.59 250.65 390.80 264.93 384.01 277.03 C 379.66 284.73 373.02 291.01 365.32 295.31 C 355.10 301.07 343.55 303.83 332.14 306.09 C 320.81 308.17 309.43 310.05 298.00 311.46 C 291.46 311.71 284.23 312.18 278.53 308.38 C 271.40 303.45 267.42 293.68 270.47 285.34 C 272.45 280.08 277.94 277.36 283.05 276.00 C 298.15 272.05 314.70 274.15 328.99 267.08 C 336.12 263.70 340.30 256.09 340.62 248.36 C 341.27 236.88 340.39 224.62 334.51 214.47 C 330.00 207.45 322.34 203.24 314.62 200.62 C 303.35 196.88 291.48 195.60 279.76 194.08 C 244.59 189.35 209.40 184.81 174.21 180.25 C 165.73 178.90 157.29 177.40 148.83 176.00 C 140.38 174.07 131.58 170.89 125.89 164.02 C 120.13 156.87 117.55 146.62 121.11 137.91 C 123.65 131.08 129.75 126.05 136.57 123.84 Z" />
<path fill="#ffffff" opacity="1.00" d=" M 169.52 197.05 C 199.33 189.86 232.48 209.45 241.09 238.74 C 246.04 254.77 248.30 271.44 251.73 287.83 C 253.92 298.13 255.69 308.53 258.12 318.78 C 260.03 326.81 262.75 334.72 263.37 343.00 C 263.45 354.17 259.13 365.31 251.54 373.50 C 241.18 384.77 224.93 390.42 209.83 387.59 C 197.94 385.66 186.09 380.09 178.69 370.32 C 173.78 363.37 171.21 355.11 168.83 347.03 C 164.49 331.47 161.95 315.50 158.04 299.84 C 154.52 286.53 150.71 273.30 147.21 259.99 C 144.43 250.47 141.52 240.88 140.72 230.96 C 140.21 223.47 141.65 215.45 146.55 209.55 C 152.24 202.58 160.94 198.93 169.52 197.05 Z" />
</svg>
