<?xml version="1.0" encoding="UTF-8" ?>
<!DOCTYPE svg PUBLIC "-//W3C//DTD SVG 1.1//EN" "http://www.w3.org/Graphics/SVG/1.1/DTD/svg11.dtd">
<svg width="512pt" height="512pt" viewBox="0 0 512 512" version="1.1" xmlns="http://www.w3.org/2000/svg">
<path fill="#b4371e" opacity="1.00" d=" M 0.00 0.00 L 512.00 0.00 L 512.00 512.00 L 0.00 512.00 L 0.00 0.00 Z" />
<path fill="#ffffff" opacity="1.00" d=" M 159.34 129.44 C 162.16 128.72 165.10 128.67 168.00 128.64 C 237.02 128.64 306.04 128.64 375.06 128.64 C 377.61 128.36 380.02 129.97 380.92 132.33 C 381.31 134.53 381.12 136.77 381.16 138.99 C 381.11 218.68 381.19 298.36 381.12 378.05 C 381.27 381.22 378.12 383.84 375.02 383.37 C 295.36 383.34 215.70 383.37 136.04 383.36 C 132.59 383.79 129.71 380.32 129.99 377.05 C 130.02 306.69 129.98 236.32 130.00 165.96 C 130.26 158.21 132.61 150.44 137.22 144.16 C 142.41 136.70 150.55 131.55 159.34 129.44 Z" />
<path fill="#b4371e" opacity="1.00" d=" M 150.14 147.15 C 155.08 142.27 162.12 140.11 168.96 140.07 C 235.76 140.01 302.56 140.15 369.36 140.00 C 369.70 199.98 369.41 259.98 369.51 319.97 C 369.40 326.97 369.72 333.98 369.34 340.97 C 293.55 340.81 217.76 340.92 141.98 340.91 C 141.92 282.62 141.97 224.34 141.95 166.05 C 141.64 158.93 144.91 151.91 150.14 147.15 Z" />
<path fill="#ffffff" opacity="1.00" d=" M 214.92 194.97 C 214.76 191.36 218.55 188.73 221.92 188.99 C 232.63 189.00 243.35 189.01 254.07 188.99 C 264.01 189.42 274.35 191.42 282.45 197.58 C 291.28 203.76 296.06 214.54 296.51 225.12 C 297.20 236.57 294.24 248.71 286.30 257.28 C 277.95 266.66 265.18 270.97 252.89 271.38 C 246.24 271.55 239.58 271.49 232.93 271.39 C 232.46 287.49 232.81 303.62 232.75 319.73 C 232.11 320.46 231.46 321.20 230.82 321.94 C 225.59 322.79 219.71 323.60 214.92 320.82 C 214.88 278.87 214.87 236.92 214.92 194.97 Z" />
<path fill="#b4371e" opacity="1.00" d=" M 232.45 256.88 C 232.45 239.10 232.43 221.32 232.46 203.54 C 242.26 203.87 252.32 202.61 261.88 205.27 C 269.84 207.57 275.90 214.76 277.31 222.85 C 278.82 231.40 277.52 240.96 271.82 247.79 C 267.00 253.57 259.43 256.44 252.04 256.78 C 245.52 257.02 238.98 256.95 232.45 256.88 Z" />
</svg>
