<?xml version="1.0" encoding="UTF-8" ?>
<!DOCTYPE svg PUBLIC "-//W3C//DTD SVG 1.1//EN" "http://www.w3.org/Graphics/SVG/1.1/DTD/svg11.dtd">
<svg width="512pt" height="512pt" viewBox="0 0 512 512" version="1.1" xmlns="http://www.w3.org/2000/svg">
<path fill="#6da929" opacity="1.00" d=" M 0.00 0.00 L 512.00 0.00 L 512.00 512.00 L 0.00 512.00 L 0.00 0.00 Z" />
<path fill="#ffffff" opacity="1.00" d=" M 154.29 134.27 C 164.81 128.33 176.84 124.93 188.96 125.14 C 257.03 125.10 325.09 125.09 393.15 125.14 C 393.14 212.15 393.15 299.16 393.15 386.17 C 301.49 386.19 209.83 386.18 118.17 386.17 C 118.20 327.44 118.17 268.71 118.18 209.98 C 118.33 199.64 117.42 189.12 120.23 179.03 C 124.85 160.29 137.47 143.73 154.29 134.27 Z" />
<path fill="#6da929" opacity="1.00" d=" M 193.35 133.56 C 254.57 133.30 315.79 133.55 377.02 133.43 C 379.10 133.44 381.54 133.27 383.03 135.05 C 384.95 137.24 384.14 140.33 384.31 142.98 C 384.28 219.68 384.31 296.39 384.30 373.10 C 384.56 375.99 381.95 378.62 379.05 378.33 C 296.67 378.32 214.29 378.34 131.92 378.31 C 130.04 378.39 128.42 376.97 127.60 375.39 C 126.99 372.97 127.35 370.43 127.27 367.96 C 127.29 312.95 127.26 257.94 127.28 202.93 C 127.06 186.07 133.43 169.22 144.75 156.72 C 156.92 142.83 174.89 134.25 193.35 133.56 Z" />
<path fill="#ffffff" opacity="1.00" d=" M 153.44 161.44 C 164.57 149.64 180.77 142.81 196.99 143.17 C 256.20 143.15 315.42 143.18 374.63 143.16 C 374.60 218.32 374.59 293.48 374.63 368.64 C 295.34 368.60 216.04 368.66 136.74 368.61 C 136.78 313.08 136.74 257.55 136.76 202.02 C 137.07 187.05 142.88 172.14 153.44 161.44 Z" />
<path fill="#6da929" opacity="1.00" d=" M 220.79 183.38 C 235.88 183.37 250.96 183.34 266.05 183.39 C 279.32 183.59 293.31 186.43 303.66 195.26 C 313.87 203.62 318.49 217.12 318.37 230.03 C 318.86 243.38 314.18 257.07 304.56 266.52 C 294.34 277.15 279.46 282.09 264.98 282.58 C 256.50 282.65 248.01 282.57 239.53 282.61 C 239.56 302.68 239.53 322.75 239.55 342.81 C 233.29 342.78 227.04 342.83 220.79 342.78 C 220.79 289.65 220.79 236.51 220.79 183.38 Z" />
<path fill="#ffffff" opacity="1.00" d=" M 239.53 200.56 C 250.65 200.86 261.87 199.76 272.91 201.39 C 281.38 202.73 290.07 206.76 294.49 214.46 C 299.19 222.71 299.63 232.88 297.48 241.97 C 295.29 251.59 287.67 259.45 278.42 262.61 C 265.96 267.15 252.49 265.21 239.54 265.63 C 239.54 243.94 239.56 222.25 239.53 200.56 Z" />
</svg>
