<?xml version="1.0" encoding="UTF-8" ?>
<!DOCTYPE svg PUBLIC "-//W3C//DTD SVG 1.1//EN" "http://www.w3.org/Graphics/SVG/1.1/DTD/svg11.dtd">
<svg width="512pt" height="512pt" viewBox="0 0 512 512" version="1.1" xmlns="http://www.w3.org/2000/svg">
<path fill="#6da929" opacity="1.00" d=" M 0.00 0.00 L 512.00 0.00 L 512.00 512.00 L 0.00 512.00 L 0.00 0.00 Z" />
<path fill="#ffffff" opacity="1.00" d=" M 136.55 123.84 C 147.02 121.03 157.91 123.68 168.16 126.22 C 218.83 136.87 269.81 146.10 320.23 157.94 C 339.29 162.82 359.03 169.45 373.20 183.75 C 383.70 194.07 388.22 208.78 390.67 222.93 C 393.48 238.66 392.90 255.25 387.24 270.29 C 382.80 282.12 373.39 291.70 362.03 297.05 C 348.88 303.41 334.31 305.73 320.06 308.24 C 308.73 309.70 297.36 312.79 285.88 311.17 C 274.39 309.64 266.57 296.22 270.43 285.43 C 272.38 280.14 277.86 277.39 282.98 276.02 C 297.64 272.18 313.54 274.01 327.61 267.76 C 334.44 264.90 339.46 258.40 340.28 251.01 C 341.61 240.13 340.68 228.78 336.65 218.52 C 333.97 211.97 328.45 207.00 322.24 203.83 C 313.18 199.22 303.06 197.39 293.10 195.84 C 253.48 190.55 213.84 185.35 174.19 180.25 C 165.76 178.90 157.35 177.40 148.93 176.02 C 140.46 174.10 131.64 170.92 125.92 164.06 C 120.13 156.89 117.53 146.59 121.13 137.85 C 123.68 131.06 129.75 126.05 136.55 123.84 Z" />
<path fill="#ffffff" opacity="1.00" d=" M 170.50 196.84 C 200.86 190.06 234.09 210.85 241.75 240.88 C 248.95 267.77 252.34 295.52 259.07 322.53 C 260.81 329.29 262.88 336.05 263.37 343.06 C 263.43 354.22 259.11 365.36 251.50 373.54 C 242.53 383.27 229.19 388.78 215.98 388.29 C 203.75 387.54 191.36 383.17 182.43 374.57 C 176.45 368.96 173.40 361.12 170.81 353.52 C 164.57 334.26 162.04 314.06 156.65 294.58 C 154.10 285.37 151.59 276.16 149.06 266.94 C 146.07 255.02 141.69 243.35 140.72 231.01 C 140.22 223.50 141.65 215.44 146.57 209.52 C 152.49 202.32 161.58 198.65 170.50 196.84 Z" />
</svg>
