<?xml version="1.0" encoding="UTF-8" ?>
<!DOCTYPE svg PUBLIC "-//W3C//DTD SVG 1.1//EN" "http://www.w3.org/Graphics/SVG/1.1/DTD/svg11.dtd">
<svg width="512pt" height="512pt" viewBox="0 0 512 512" version="1.1" xmlns="http://www.w3.org/2000/svg">
<path fill="#dd5a04" opacity="1.00" d=" M 0.00 0.00 L 512.00 0.00 L 512.00 512.00 L 0.00 512.00 L 0.00 0.00 Z" />
<path fill="#ffffff" opacity="1.00" d=" M 139.27 146.25 C 152.41 132.83 171.15 124.96 189.97 125.37 C 257.58 125.31 325.19 125.40 392.80 125.32 C 392.72 212.16 392.73 299.00 392.79 385.84 C 301.33 385.81 209.86 385.81 118.39 385.84 C 118.49 322.88 118.40 259.93 118.43 196.98 C 118.07 178.18 125.86 159.40 139.27 146.25 Z" />
<path fill="#dd5a04" opacity="1.00" d=" M 193.36 133.41 C 255.25 133.18 317.15 133.36 379.04 133.32 C 382.12 133.00 384.89 135.93 384.46 138.99 C 384.44 217.00 384.47 295.01 384.45 373.01 C 384.83 376.01 382.05 378.89 379.03 378.45 C 296.68 378.45 214.34 378.47 132.00 378.44 C 129.17 378.59 126.78 375.84 127.14 373.07 C 127.15 321.38 127.14 269.70 127.14 218.01 C 127.26 205.82 126.19 193.27 130.33 181.55 C 138.62 154.49 164.99 134.11 193.36 133.41 Z" />
<path fill="#ffffff" opacity="1.00" d=" M 165.17 152.15 C 174.67 146.23 185.87 143.18 197.05 143.25 C 256.19 143.25 315.32 143.25 374.46 143.25 C 374.42 218.33 374.43 293.40 374.46 368.48 C 295.30 368.44 216.15 368.43 136.99 368.48 C 136.80 318.31 136.97 268.14 136.91 217.97 C 137.00 208.13 136.32 198.13 138.73 188.49 C 142.31 173.52 152.07 160.20 165.17 152.15 Z" />
<path fill="#dd5a04" opacity="1.00" d=" M 219.92 188.83 C 228.77 181.26 240.37 177.46 251.90 176.96 C 268.93 176.18 286.22 179.23 301.65 186.57 C 301.60 194.77 301.69 202.98 301.60 211.18 C 300.61 211.00 299.70 210.62 298.90 210.06 C 286.91 200.28 271.60 193.93 255.97 194.53 C 246.33 194.65 235.95 197.97 230.03 206.00 C 225.73 211.66 225.52 219.36 227.10 226.02 C 229.07 233.86 236.22 239.09 243.59 241.46 C 255.58 245.08 268.00 247.13 279.91 251.04 C 288.60 254.00 297.08 259.02 301.97 267.03 C 309.01 278.43 309.29 293.21 304.52 305.51 C 298.09 322.80 280.03 333.81 262.05 334.83 C 249.44 335.60 236.54 335.10 224.38 331.39 C 217.32 329.22 210.38 326.59 203.76 323.30 C 203.80 314.73 203.74 306.17 203.79 297.61 C 206.23 297.84 207.69 299.99 209.52 301.34 C 220.47 310.22 234.03 315.99 248.08 317.36 C 258.60 317.89 270.40 317.00 278.65 309.70 C 290.23 299.97 288.88 278.01 274.60 271.46 C 264.90 267.04 254.19 265.59 243.97 262.79 C 232.87 260.24 221.34 256.15 213.79 247.16 C 205.66 237.97 203.61 224.89 205.44 213.07 C 206.93 203.50 212.52 194.93 219.92 188.83 Z" />
</svg>
