<?xml version="1.0" encoding="UTF-8" ?>
<!DOCTYPE svg PUBLIC "-//W3C//DTD SVG 1.1//EN" "http://www.w3.org/Graphics/SVG/1.1/DTD/svg11.dtd">
<svg width="512pt" height="512pt" viewBox="0 0 512 512" version="1.1" xmlns="http://www.w3.org/2000/svg">
<path fill="#38549e" opacity="1.00" d=" M 0.00 0.00 L 512.00 0.00 L 512.00 512.00 L 0.00 512.00 L 0.00 0.00 Z" />
<path fill="#ffffff" opacity="1.00" d=" M 235.00 123.38 C 249.09 121.10 263.05 117.82 277.21 116.08 C 277.18 209.48 277.22 302.88 277.20 396.29 C 221.38 386.36 165.63 375.97 109.80 366.04 C 109.59 365.83 109.15 365.40 108.93 365.19 C 108.76 292.33 109.02 219.47 108.80 146.61 C 110.40 145.78 112.19 145.63 113.94 145.38 C 154.29 138.03 194.65 130.75 235.00 123.38 Z" />
<path fill="#ffffff" opacity="1.00" d=" M 287.33 150.14 C 325.63 150.23 363.94 150.17 402.24 150.17 C 402.24 220.36 402.22 290.54 402.25 360.73 C 363.93 360.72 325.62 360.71 287.30 360.74 C 287.35 349.53 287.31 338.32 287.33 327.11 C 299.43 327.22 311.52 327.12 323.62 327.16 C 323.69 318.90 323.64 310.64 323.64 302.38 C 333.70 302.36 343.76 302.38 353.81 302.37 C 353.73 284.56 353.82 266.75 353.77 248.95 C 364.75 237.92 375.71 226.88 386.79 215.95 C 374.05 203.10 361.13 190.43 348.48 177.50 C 337.65 188.10 327.01 198.89 316.30 209.61 C 306.64 209.68 296.99 209.56 287.33 209.68 C 287.32 189.83 287.32 169.98 287.33 150.14 Z" />
<path fill="#ffffff" opacity="1.00" d=" M 331.05 215.96 C 336.71 210.24 342.46 204.61 348.09 198.85 C 354.28 204.13 359.70 210.27 365.55 215.93 C 359.63 221.52 354.12 227.53 348.15 233.07 C 342.50 227.32 336.79 221.62 331.05 215.96 Z" />
<path fill="#38549e" opacity="1.00" d=" M 208.77 209.50 C 211.70 208.32 214.90 208.71 217.98 208.37 C 222.53 207.92 227.07 207.35 231.65 207.27 C 220.64 241.57 210.05 276.01 199.22 310.37 C 191.81 309.56 184.33 309.45 176.95 308.36 C 172.89 292.13 167.85 276.16 163.45 260.03 C 159.07 244.84 154.87 229.59 150.40 214.43 C 156.65 213.33 163.03 213.33 169.32 212.56 C 175.17 235.06 180.95 257.57 186.81 280.07 C 187.75 283.22 187.73 286.53 188.05 289.77 C 194.48 262.91 202.17 236.33 208.77 209.50 Z" />
<path fill="#ffffff" opacity="1.00" d=" M 287.35 268.47 C 287.30 252.52 287.32 236.58 287.34 220.63 C 296.47 220.69 305.60 220.60 314.74 220.68 C 323.53 229.57 332.41 238.38 341.25 247.23 C 341.25 262.04 341.22 276.84 341.26 291.64 C 335.39 291.71 329.51 291.67 323.64 291.67 C 323.68 283.91 323.61 276.16 323.69 268.41 C 311.57 268.48 299.46 268.36 287.35 268.47 Z" />
<path fill="#ffffff" opacity="1.00" d=" M 287.32 316.63 C 287.36 304.02 287.26 291.40 287.37 278.79 C 296.01 278.84 304.64 278.80 313.28 278.82 C 313.34 291.41 313.26 304.00 313.32 316.59 C 304.65 316.65 295.99 316.57 287.32 316.63 Z" />
</svg>
