<?xml version="1.0" encoding="UTF-8" ?>
<!DOCTYPE svg PUBLIC "-//W3C//DTD SVG 1.1//EN" "http://www.w3.org/Graphics/SVG/1.1/DTD/svg11.dtd">
<svg width="512pt" height="512pt" viewBox="0 0 512 512" version="1.1" xmlns="http://www.w3.org/2000/svg">
<path fill="#2564a9" opacity="1.00" d=" M 0.00 0.00 L 512.00 0.00 L 512.00 512.00 L 0.00 512.00 L 0.00 0.00 Z" />
<path fill="#ffffff" opacity="1.00" d=" M 181.31 125.46 C 185.52 125.11 189.74 125.12 193.95 125.11 C 260.35 125.13 326.75 125.07 393.15 125.14 C 393.15 212.15 393.15 299.16 393.15 386.17 C 301.49 386.19 209.83 386.18 118.17 386.17 C 118.20 322.76 118.17 259.36 118.19 195.95 C 118.05 180.25 123.64 164.65 133.32 152.33 C 144.88 137.46 162.58 127.51 181.31 125.46 Z" />
<path fill="#2564a9" opacity="1.00" d=" M 193.41 133.56 C 255.30 133.33 317.20 133.49 379.09 133.47 C 382.11 133.18 384.69 136.08 384.30 139.05 C 384.29 217.05 384.30 295.05 384.30 373.06 C 384.59 375.96 381.95 378.63 379.04 378.33 C 296.67 378.32 214.30 378.34 131.94 378.32 C 129.24 378.37 126.95 375.67 127.28 373.01 C 127.28 321.69 127.28 270.36 127.28 219.04 C 127.41 206.46 126.28 193.50 130.57 181.41 C 138.92 154.48 165.17 134.33 193.41 133.56 Z" />
<path fill="#ffffff" opacity="1.00" d=" M 152.94 161.96 C 163.88 150.11 179.88 143.04 196.04 143.18 C 255.57 143.14 315.10 143.18 374.64 143.17 C 374.59 218.32 374.60 293.48 374.63 368.64 C 295.33 368.59 216.03 368.67 136.73 368.60 C 136.79 313.07 136.73 257.55 136.76 202.03 C 137.07 187.30 142.68 172.62 152.94 161.96 Z" />
<path fill="#2564a9" opacity="1.00" d=" M 152.30 176.36 C 159.25 176.39 166.20 176.33 173.16 176.40 C 184.51 217.68 196.05 258.91 207.43 300.18 C 208.80 305.03 209.01 310.10 209.98 315.03 C 211.03 305.97 213.92 297.30 216.39 288.57 C 227.16 251.17 237.96 213.78 248.70 176.38 C 254.71 176.36 260.72 176.36 266.73 176.37 C 278.13 217.64 289.39 258.95 300.75 300.24 C 302.11 304.89 302.41 309.75 303.36 314.48 C 304.17 307.12 306.23 299.98 308.12 292.84 C 318.35 254.05 328.83 215.32 338.90 176.49 C 345.77 176.21 352.65 176.42 359.53 176.38 C 344.41 229.49 329.47 282.66 314.47 335.81 C 307.08 335.76 299.68 335.89 292.29 335.74 C 281.41 296.84 270.41 257.97 259.49 219.09 C 257.95 213.79 257.39 208.30 257.07 202.81 C 256.16 207.85 255.65 212.97 254.26 217.91 C 243.18 257.21 231.98 296.47 220.97 335.78 C 213.62 335.79 206.28 335.88 198.93 335.74 C 183.52 282.57 167.87 229.47 152.30 176.36 Z" />
</svg>
