<?xml version="1.0" encoding="UTF-8" ?>
<!DOCTYPE svg PUBLIC "-//W3C//DTD SVG 1.1//EN" "http://www.w3.org/Graphics/SVG/1.1/DTD/svg11.dtd">
<svg width="512pt" height="512pt" viewBox="0 0 512 512" version="1.1" xmlns="http://www.w3.org/2000/svg">
<path fill="#00c000" opacity="1.00" d=" M 0.00 0.00 L 512.00 0.00 L 512.00 512.00 L 0.00 512.00 L 0.00 0.00 M 117.32 158.61 C 117.20 222.74 117.33 286.88 117.26 351.01 C 116.90 352.62 117.94 353.79 119.09 354.74 C 187.74 354.67 256.39 354.74 325.04 354.70 C 330.76 355.16 336.17 357.96 342.03 357.38 C 348.16 357.93 354.05 356.18 359.93 354.77 C 370.59 354.58 381.26 354.83 391.93 354.67 C 393.26 354.76 394.40 353.26 394.27 352.01 C 394.35 341.32 394.20 330.63 394.32 319.94 C 395.27 314.32 397.13 308.77 396.73 302.98 C 396.93 297.52 394.71 292.37 394.28 287.01 C 394.30 244.26 394.27 201.52 394.29 158.78 C 393.95 158.26 393.26 157.22 392.92 156.70 C 301.67 156.58 210.41 156.64 119.15 156.67 C 118.70 157.15 117.78 158.13 117.32 158.61 Z" />
<path fill="#ffffff" opacity="1.00" d=" M 117.32 158.61 C 117.78 158.13 118.70 157.15 119.15 156.67 C 210.41 156.64 301.67 156.58 392.92 156.70 C 393.26 157.22 393.95 158.26 394.29 158.78 C 394.27 201.52 394.30 244.26 394.28 287.01 C 394.71 292.37 396.93 297.52 396.73 302.98 C 397.13 308.77 395.27 314.32 394.32 319.94 C 394.20 330.63 394.35 341.32 394.27 352.01 C 394.40 353.26 393.26 354.76 391.93 354.67 C 381.26 354.83 370.59 354.58 359.93 354.77 C 354.05 356.18 348.16 357.93 342.03 357.38 C 336.17 357.96 330.76 355.16 325.04 354.70 C 256.39 354.74 187.74 354.67 119.09 354.74 C 117.94 353.79 116.90 352.62 117.26 351.01 C 117.33 286.88 117.20 222.74 117.32 158.61 M 122.67 186.20 C 122.67 240.66 122.69 295.11 122.66 349.57 C 186.84 349.57 251.01 349.58 315.19 349.56 C 306.30 343.48 298.64 335.36 294.29 325.40 C 267.04 325.41 239.79 325.39 212.54 325.41 C 212.56 321.31 212.56 317.22 212.54 313.13 C 238.56 313.18 264.58 313.11 290.60 313.16 C 289.93 308.04 289.34 302.85 290.28 297.72 C 264.38 297.74 238.48 297.67 212.58 297.75 C 212.53 293.64 212.58 289.53 212.52 285.42 C 239.39 285.42 266.27 285.43 293.15 285.41 C 295.23 279.72 298.46 274.56 302.16 269.80 C 272.29 269.80 242.42 269.79 212.56 269.80 C 212.55 265.70 212.57 261.61 212.53 257.51 C 246.99 257.51 281.45 257.52 315.91 257.51 C 317.11 257.56 318.13 256.84 319.18 256.38 C 331.57 249.95 346.57 248.87 359.80 253.27 C 372.07 257.17 382.40 265.93 389.20 276.76 C 389.19 246.63 389.10 216.51 389.25 186.38 C 362.17 185.97 335.08 186.32 308.00 186.20 C 246.22 186.20 184.45 186.20 122.67 186.20 M 340.61 261.08 C 323.64 261.81 308.00 273.82 302.60 289.86 C 298.21 302.28 299.98 316.71 307.36 327.63 C 315.28 339.65 329.48 347.42 343.96 346.81 C 363.00 347.00 380.72 332.56 384.93 314.09 C 388.16 301.40 384.98 287.34 376.76 277.18 C 368.27 266.37 354.33 260.10 340.61 261.08 M 370.99 349.56 C 377.07 349.56 383.15 349.67 389.22 349.47 C 389.13 343.36 389.19 337.26 389.19 331.15 C 384.52 338.51 378.31 344.81 370.99 349.56 Z" />
<path fill="#00c000" opacity="1.00" d=" M 122.67 186.20 C 184.45 186.20 246.22 186.20 308.00 186.20 C 335.08 186.32 362.17 185.97 389.25 186.38 C 389.10 216.51 389.19 246.63 389.20 276.76 C 382.40 265.93 372.07 257.17 359.80 253.27 C 346.57 248.87 331.57 249.95 319.18 256.38 C 318.13 256.84 317.11 257.56 315.91 257.51 C 281.45 257.52 246.99 257.51 212.53 257.51 C 212.57 261.61 212.55 265.70 212.56 269.80 C 242.42 269.79 272.29 269.80 302.16 269.80 C 298.46 274.56 295.23 279.72 293.15 285.41 C 266.27 285.43 239.39 285.42 212.52 285.42 C 212.58 289.53 212.53 293.64 212.58 297.75 C 238.48 297.67 264.38 297.74 290.28 297.72 C 289.34 302.85 289.93 308.04 290.60 313.16 C 264.58 313.11 238.56 313.18 212.54 313.13 C 212.56 317.22 212.56 321.31 212.54 325.41 C 239.79 325.39 267.04 325.41 294.29 325.40 C 298.64 335.36 306.30 343.48 315.19 349.56 C 251.01 349.58 186.84 349.57 122.66 349.57 C 122.69 295.11 122.67 240.66 122.67 186.20 M 135.36 201.88 C 135.28 246.16 135.38 290.44 135.31 334.72 C 155.90 334.71 176.49 334.70 197.08 334.72 C 197.30 290.65 196.96 246.56 197.25 202.49 C 196.23 202.00 195.14 201.78 194.00 201.84 C 174.45 201.90 154.91 201.84 135.36 201.88 M 212.57 201.86 C 212.54 206.02 212.56 210.18 212.55 214.34 C 263.90 214.33 315.25 214.32 366.60 214.35 C 366.53 210.29 366.72 206.23 366.53 202.17 C 365.91 202.09 364.67 201.92 364.05 201.84 C 313.56 201.90 263.07 201.86 212.57 201.86 M 212.56 229.76 C 212.55 233.93 212.55 238.09 212.55 242.26 C 263.90 242.26 315.24 242.23 366.58 242.27 C 366.61 238.10 366.61 233.92 366.57 229.75 C 315.24 229.78 263.90 229.76 212.56 229.76 Z" />
<path fill="#ffffff" opacity="1.00" d=" M 135.36 201.88 C 154.91 201.84 174.45 201.90 194.00 201.84 C 195.14 201.78 196.23 202.00 197.25 202.49 C 196.96 246.56 197.30 290.65 197.08 334.72 C 176.49 334.70 155.90 334.71 135.31 334.72 C 135.38 290.44 135.28 246.16 135.36 201.88 Z" />
<path fill="#ffffff" opacity="1.00" d=" M 212.57 201.86 C 263.07 201.86 313.56 201.90 364.05 201.84 C 364.67 201.92 365.91 202.09 366.53 202.17 C 366.72 206.23 366.53 210.29 366.60 214.35 C 315.25 214.32 263.90 214.33 212.55 214.34 C 212.56 210.18 212.54 206.02 212.57 201.86 Z" />
<path fill="#ffffff" opacity="1.00" d=" M 212.56 229.76 C 263.90 229.76 315.24 229.78 366.57 229.75 C 366.61 233.92 366.61 238.10 366.58 242.27 C 315.24 242.23 263.90 242.26 212.55 242.26 C 212.55 238.09 212.55 233.93 212.56 229.76 Z" />
<path fill="#00c000" opacity="1.00" d=" M 340.61 261.08 C 354.33 260.10 368.27 266.37 376.76 277.18 C 384.98 287.34 388.16 301.40 384.93 314.09 C 380.72 332.56 363.00 347.00 343.96 346.81 C 329.48 347.42 315.28 339.65 307.36 327.63 C 299.98 316.71 298.21 302.28 302.60 289.86 C 308.00 273.82 323.64 261.81 340.61 261.08 M 328.59 283.12 C 328.55 297.89 328.61 312.66 328.56 327.43 C 341.23 319.97 354.04 312.73 366.67 305.18 C 353.87 298.02 341.24 290.53 328.59 283.12 Z" />
<path fill="#ffffff" opacity="1.00" d=" M 328.59 283.12 C 341.24 290.53 353.87 298.02 366.67 305.18 C 354.04 312.73 341.23 319.97 328.56 327.43 C 328.61 312.66 328.55 297.89 328.59 283.12 Z" />
<path fill="#00c000" opacity="1.00" d=" M 370.99 349.56 C 378.31 344.81 384.52 338.51 389.19 331.15 C 389.19 337.26 389.13 343.36 389.22 349.47 C 383.15 349.67 377.07 349.56 370.99 349.56 Z" />
</svg>
