<?xml version="1.0" encoding="UTF-8" ?>
<!DOCTYPE svg PUBLIC "-//W3C//DTD SVG 1.1//EN" "http://www.w3.org/Graphics/SVG/1.1/DTD/svg11.dtd">
<svg width="512pt" height="512pt" viewBox="0 0 512 512" version="1.1" xmlns="http://www.w3.org/2000/svg">
<path fill="#00a8ec" opacity="1.00" d=" M 0.00 0.00 L 512.00 0.00 L 512.00 512.00 L 0.00 512.00 L 0.00 0.00 M 214.82 126.01 C 227.40 138.62 239.95 151.26 252.63 163.77 C 244.69 163.81 236.75 163.76 228.81 163.79 C 228.78 186.96 228.88 210.13 228.76 233.29 C 236.85 223.91 249.89 218.88 262.14 221.43 C 277.96 224.13 290.49 239.03 290.51 255.08 C 291.02 270.52 279.92 285.34 264.98 289.24 C 252.84 292.81 238.96 288.88 230.38 279.62 C 225.56 274.71 222.60 268.27 221.19 261.59 C 208.96 261.59 196.73 261.59 184.49 261.59 C 184.50 290.27 184.54 318.95 184.47 347.64 C 192.44 347.66 200.40 347.64 208.36 347.65 C 200.40 355.52 192.57 363.51 184.57 371.34 C 212.47 388.54 246.79 395.39 279.08 389.40 C 312.76 383.69 343.82 364.50 364.23 337.15 C 387.03 307.05 396.46 267.09 388.99 230.03 C 382.64 196.21 362.74 165.21 334.69 145.29 C 311.16 128.19 281.99 119.48 253.00 119.71 C 240.08 120.25 227.24 122.40 214.82 126.01 M 168.96 159.84 C 174.93 159.81 180.89 159.82 186.86 159.81 C 187.04 192.41 186.94 225.01 186.87 257.61 C 199.53 257.67 212.19 257.60 224.85 257.65 C 224.78 226.07 224.87 194.48 224.80 162.90 C 224.66 161.59 224.87 159.34 226.82 159.83 C 232.21 159.73 237.61 159.86 243.00 159.86 C 230.67 147.51 218.30 135.18 205.98 122.83 C 193.66 135.19 181.33 147.53 168.96 159.84 M 129.76 204.77 C 123.44 220.06 120.44 236.55 119.69 253.02 C 119.48 278.00 125.96 303.02 138.57 324.62 C 138.74 302.29 138.60 279.95 138.64 257.62 C 153.49 257.59 168.34 257.73 183.19 257.55 C 183.11 229.70 183.17 201.84 183.16 173.98 C 183.31 170.55 183.10 167.12 182.79 163.71 C 174.98 163.86 167.16 163.77 159.35 163.77 C 166.37 156.68 173.72 149.90 180.40 142.49 C 157.93 157.73 139.85 179.51 129.76 204.77 M 142.59 261.59 C 142.62 291.61 142.57 321.63 142.61 351.65 C 136.53 351.63 130.45 351.65 124.38 351.62 C 136.88 363.94 149.19 376.47 161.68 388.81 C 174.02 376.36 186.38 363.93 198.88 351.65 C 192.76 351.62 186.65 351.64 180.54 351.65 C 180.58 321.63 180.54 291.60 180.56 261.58 C 167.90 261.60 155.24 261.58 142.59 261.59 Z" />
<path fill="#ffffff" opacity="1.00" d=" M 214.82 126.01 C 227.24 122.40 240.08 120.25 253.00 119.71 C 281.99 119.48 311.16 128.19 334.69 145.29 C 362.74 165.21 382.64 196.21 388.99 230.03 C 396.46 267.09 387.03 307.05 364.23 337.15 C 343.82 364.50 312.76 383.69 279.08 389.40 C 246.79 395.39 212.47 388.54 184.57 371.34 C 192.57 363.51 200.40 355.52 208.36 347.65 C 200.40 347.64 192.44 347.66 184.47 347.64 C 184.54 318.95 184.50 290.27 184.49 261.59 C 196.73 261.59 208.96 261.59 221.19 261.59 C 222.60 268.27 225.56 274.71 230.38 279.62 C 238.96 288.88 252.84 292.81 264.98 289.24 C 279.92 285.34 291.02 270.52 290.51 255.08 C 290.49 239.03 277.96 224.13 262.14 221.43 C 249.89 218.88 236.85 223.91 228.76 233.29 C 228.88 210.13 228.78 186.96 228.81 163.79 C 236.75 163.76 244.69 163.81 252.63 163.77 C 239.95 151.26 227.40 138.62 214.82 126.01 Z" />
<path fill="#ffffff" opacity="1.00" d=" M 168.96 159.84 C 181.33 147.53 193.66 135.19 205.98 122.83 C 218.30 135.18 230.67 147.51 243.00 159.86 C 237.61 159.86 232.21 159.73 226.82 159.83 C 224.87 159.34 224.66 161.59 224.80 162.90 C 224.87 194.48 224.78 226.07 224.85 257.65 C 212.19 257.60 199.53 257.67 186.87 257.61 C 186.94 225.01 187.04 192.41 186.86 159.81 C 180.89 159.82 174.93 159.81 168.96 159.84 Z" />
<path fill="#ffffff" opacity="1.00" d=" M 129.76 204.77 C 139.85 179.51 157.93 157.73 180.40 142.49 C 173.72 149.90 166.37 156.68 159.35 163.77 C 167.16 163.77 174.98 163.86 182.79 163.71 C 183.10 167.12 183.31 170.55 183.16 173.98 C 183.17 201.84 183.11 229.70 183.19 257.55 C 168.34 257.73 153.49 257.59 138.64 257.62 C 138.60 279.95 138.74 302.29 138.57 324.62 C 125.96 303.02 119.48 278.00 119.69 253.02 C 120.44 236.55 123.44 220.06 129.76 204.77 Z" />
<path fill="#ffffff" opacity="1.00" d=" M 142.59 261.59 C 155.24 261.58 167.90 261.60 180.56 261.58 C 180.54 291.60 180.58 321.63 180.54 351.65 C 186.65 351.64 192.76 351.62 198.88 351.65 C 186.38 363.93 174.02 376.36 161.68 388.81 C 149.19 376.47 136.88 363.94 124.38 351.62 C 130.45 351.65 136.53 351.63 142.61 351.65 C 142.57 321.63 142.62 291.61 142.59 261.59 Z" />
</svg>
