<?xml version="1.0" encoding="UTF-8" ?>
<!DOCTYPE svg PUBLIC "-//W3C//DTD SVG 1.1//EN" "http://www.w3.org/Graphics/SVG/1.1/DTD/svg11.dtd">
<svg width="512pt" height="512pt" viewBox="0 0 512 512" version="1.1" xmlns="http://www.w3.org/2000/svg">
<path fill="#131313" opacity="1.00" d=" M 0.00 0.00 L 512.00 0.00 L 512.00 512.00 L 0.00 512.00 L 0.00 0.00 M 105.63 120.62 C 105.48 207.24 105.71 293.86 105.69 380.48 C 107.12 380.68 108.55 380.83 110.00 380.84 C 205.02 380.80 300.04 380.84 395.06 380.82 C 398.81 380.78 402.58 381.05 406.31 380.50 C 406.30 293.88 406.51 207.26 406.37 120.63 C 402.60 120.31 398.81 120.44 395.04 120.43 C 302.01 120.43 208.98 120.43 115.96 120.43 C 112.51 120.42 109.07 120.34 105.63 120.62 Z" />
<path fill="#ffffff" opacity="1.00" d=" M 105.63 120.62 C 109.07 120.34 112.51 120.42 115.96 120.43 C 208.98 120.43 302.01 120.43 395.04 120.43 C 398.81 120.44 402.60 120.31 406.37 120.63 C 406.51 207.26 406.30 293.88 406.31 380.50 C 402.58 381.05 398.81 380.78 395.06 380.82 C 300.04 380.84 205.02 380.80 110.00 380.84 C 108.55 380.83 107.12 380.68 105.69 380.48 C 105.71 293.86 105.48 207.24 105.63 120.62 M 125.82 140.66 C 125.72 161.13 126.26 181.57 126.17 202.03 C 126.19 254.80 126.25 307.56 126.17 360.33 C 212.72 360.19 299.27 360.20 385.82 360.33 C 385.72 289.21 385.84 218.10 385.86 146.99 C 385.87 144.88 386.07 142.77 386.24 140.66 C 299.43 140.75 212.63 140.74 125.82 140.66 Z" />
<path fill="#131313" opacity="1.00" d=" M 125.82 140.66 C 212.63 140.74 299.43 140.75 386.24 140.66 C 386.07 142.77 385.87 144.88 385.86 146.99 C 385.84 218.10 385.72 289.21 385.82 360.33 C 299.27 360.20 212.72 360.19 126.17 360.33 C 126.25 307.56 126.19 254.80 126.17 202.03 C 126.26 181.57 125.72 161.13 125.82 140.66 M 148.59 162.22 C 148.57 165.46 148.55 168.70 148.66 171.93 C 157.25 175.05 165.68 178.60 174.22 181.87 C 175.48 182.16 176.26 183.14 176.96 184.15 C 167.62 188.28 157.97 191.64 148.55 195.58 C 148.58 198.72 148.57 201.86 148.60 205.00 C 162.80 199.34 177.23 194.23 191.29 188.24 C 191.25 185.11 191.26 181.99 191.25 178.87 C 177.06 173.24 162.80 167.79 148.59 162.22 M 194.50 210.60 C 194.51 213.20 194.51 215.81 194.43 218.42 C 195.89 218.98 197.43 219.27 199.01 219.17 C 211.51 219.13 224.01 219.14 236.51 219.16 C 236.57 216.31 236.57 213.45 236.56 210.59 C 222.54 210.32 208.52 210.28 194.50 210.60 Z" />
<path fill="#ffffff" opacity="1.00" d=" M 148.59 162.22 C 162.80 167.79 177.06 173.24 191.25 178.87 C 191.26 181.99 191.25 185.11 191.29 188.24 C 177.23 194.23 162.80 199.34 148.60 205.00 C 148.57 201.86 148.58 198.72 148.55 195.58 C 157.97 191.64 167.62 188.28 176.96 184.15 C 176.26 183.14 175.48 182.16 174.22 181.87 C 165.68 178.60 157.25 175.05 148.66 171.93 C 148.55 168.70 148.57 165.46 148.59 162.22 Z" />
<path fill="#ffffff" opacity="1.00" d=" M 194.50 210.60 C 208.52 210.28 222.54 210.32 236.56 210.59 C 236.57 213.45 236.57 216.31 236.51 219.16 C 224.01 219.14 211.51 219.13 199.01 219.17 C 197.43 219.27 195.89 218.98 194.43 218.42 C 194.51 215.81 194.51 213.20 194.50 210.60 Z" />
</svg>
