<?xml version="1.0" encoding="UTF-8" ?>
<!DOCTYPE svg PUBLIC "-//W3C//DTD SVG 1.1//EN" "http://www.w3.org/Graphics/SVG/1.1/DTD/svg11.dtd">
<svg width="512pt" height="512pt" viewBox="0 0 512 512" version="1.1" xmlns="http://www.w3.org/2000/svg">
<path fill="#e8641b" opacity="1.00" d=" M 0.00 0.00 L 512.00 0.00 L 512.00 512.00 L 0.00 512.00 L 0.00 0.00 M 206.51 160.97 C 206.44 176.94 206.51 192.91 206.52 208.87 C 209.98 211.75 213.43 214.63 217.01 217.36 C 215.61 218.73 214.20 220.09 212.79 221.44 C 215.15 221.94 217.56 222.21 219.98 222.20 C 228.80 222.13 237.61 222.17 246.43 222.17 C 246.44 231.01 246.39 239.86 246.47 248.71 C 224.04 248.82 201.62 248.77 179.20 248.73 C 175.60 251.53 172.14 254.50 168.60 257.38 C 168.58 254.50 168.60 251.63 168.58 248.75 C 162.45 248.78 156.31 248.77 150.18 248.76 C 150.12 261.15 150.14 273.55 150.18 285.95 C 149.96 287.29 150.62 289.08 149.35 290.05 C 139.88 290.32 130.39 289.95 120.92 290.18 C 115.44 290.28 111.61 295.87 111.69 301.02 C 111.63 316.02 111.73 331.03 111.67 346.03 C 111.70 348.69 111.45 351.44 112.38 354.00 C 113.61 358.06 117.61 361.29 121.98 360.87 C 148.34 360.86 174.70 360.85 201.06 360.87 C 205.78 361.36 210.25 357.51 210.86 352.90 C 211.64 347.63 210.65 342.32 210.85 337.03 C 211.34 324.65 211.15 312.26 211.06 299.88 C 211.14 294.95 207.01 290.21 201.99 290.13 C 190.75 289.94 179.50 290.30 168.26 289.86 C 168.29 280.81 168.18 271.77 168.33 262.73 C 226.65 262.80 284.97 262.74 343.29 262.76 C 343.37 271.77 343.24 280.78 343.37 289.79 C 332.24 290.47 321.07 289.89 309.93 290.17 C 304.97 290.26 300.71 295.06 301.12 300.00 C 301.16 317.37 301.09 334.74 301.20 352.11 C 301.17 357.07 306.02 361.34 310.93 360.87 C 337.31 360.85 363.69 360.86 390.07 360.87 C 395.94 361.45 400.62 355.58 400.35 350.03 C 400.33 333.69 400.33 317.36 400.35 301.02 C 400.55 295.82 396.50 290.24 391.02 290.17 C 381.25 290.06 371.47 290.13 361.70 290.15 C 361.59 276.35 361.76 262.54 361.62 248.74 C 329.53 248.80 297.44 248.76 265.35 248.75 C 265.38 239.89 265.36 231.03 265.35 222.17 C 275.62 222.07 285.90 222.32 296.16 222.07 C 301.32 221.91 305.78 217.24 305.52 212.05 C 305.55 194.98 305.56 177.91 305.52 160.84 C 305.68 155.77 301.26 150.91 296.08 151.16 C 269.36 151.12 242.65 151.12 215.94 151.16 C 210.72 150.93 206.31 155.88 206.51 160.97 M 171.40 183.62 C 171.35 189.98 171.39 196.34 171.38 202.70 C 158.48 202.78 145.58 202.74 132.68 202.72 C 132.67 212.67 132.67 222.61 132.68 232.55 C 145.58 232.51 158.48 232.55 171.38 232.53 C 171.40 238.80 171.32 245.07 171.42 251.34 C 185.35 240.28 198.95 228.82 212.78 217.62 C 199.04 206.22 185.12 195.04 171.40 183.62 Z" />
<path fill="#ffffff" opacity="1.00" d=" M 206.51 160.97 C 206.31 155.88 210.72 150.93 215.94 151.16 C 242.65 151.12 269.36 151.12 296.08 151.16 C 301.26 150.91 305.68 155.77 305.52 160.84 C 305.56 177.91 305.55 194.98 305.52 212.05 C 305.78 217.24 301.32 221.91 296.16 222.07 C 285.90 222.32 275.62 222.07 265.35 222.17 C 265.36 231.03 265.38 239.89 265.35 248.75 C 297.44 248.76 329.53 248.80 361.62 248.74 C 361.76 262.54 361.59 276.35 361.70 290.15 C 371.47 290.13 381.25 290.06 391.02 290.17 C 396.50 290.24 400.55 295.82 400.35 301.02 C 400.33 317.36 400.33 333.69 400.35 350.03 C 400.62 355.58 395.94 361.45 390.07 360.87 C 363.69 360.86 337.31 360.85 310.93 360.87 C 306.02 361.34 301.17 357.07 301.20 352.11 C 301.09 334.74 301.16 317.37 301.12 300.00 C 300.71 295.06 304.97 290.26 309.93 290.17 C 321.07 289.89 332.24 290.47 343.37 289.79 C 343.24 280.78 343.37 271.77 343.29 262.76 C 284.97 262.74 226.65 262.80 168.33 262.73 C 168.18 271.77 168.29 280.81 168.26 289.86 C 179.50 290.30 190.75 289.94 201.99 290.13 C 207.01 290.21 211.14 294.95 211.06 299.88 C 211.15 312.26 211.34 324.65 210.85 337.03 C 210.65 342.32 211.64 347.63 210.86 352.90 C 210.25 357.51 205.78 361.36 201.06 360.87 C 174.70 360.85 148.34 360.86 121.98 360.87 C 117.61 361.29 113.61 358.06 112.38 354.00 C 111.45 351.44 111.70 348.69 111.67 346.03 C 111.73 331.03 111.63 316.02 111.69 301.02 C 111.61 295.87 115.44 290.28 120.92 290.18 C 130.39 289.95 139.88 290.32 149.35 290.05 C 150.62 289.08 149.96 287.29 150.18 285.95 C 150.14 273.55 150.12 261.15 150.18 248.76 C 156.31 248.77 162.45 248.78 168.58 248.75 C 168.60 251.63 168.58 254.50 168.60 257.38 C 172.14 254.50 175.60 251.53 179.20 248.73 C 201.62 248.77 224.04 248.82 246.47 248.71 C 246.39 239.86 246.44 231.01 246.43 222.17 C 237.61 222.17 228.80 222.13 219.98 222.20 C 217.56 222.21 215.15 221.94 212.79 221.44 C 214.20 220.09 215.61 218.73 217.01 217.36 C 213.43 214.63 209.98 211.75 206.52 208.87 C 206.51 192.91 206.44 176.94 206.51 160.97 M 219.58 164.25 C 219.63 179.09 219.61 193.94 219.59 208.79 C 243.87 208.82 268.15 208.84 292.44 208.77 C 292.38 193.92 292.42 179.07 292.43 164.22 C 268.15 164.20 243.87 164.14 219.58 164.25 M 125.27 303.21 C 125.29 318.09 125.28 332.96 125.28 347.84 C 149.45 347.80 173.62 347.85 197.80 347.82 C 197.78 332.96 197.77 318.10 197.83 303.24 C 173.65 303.19 149.46 303.25 125.27 303.21 M 314.22 303.23 C 314.27 318.10 314.25 332.96 314.23 347.82 C 338.40 347.84 362.57 347.81 386.73 347.84 C 386.73 332.96 386.73 318.09 386.76 303.21 C 362.58 303.25 338.40 303.20 314.22 303.23 Z" />
<path fill="#e8641b" opacity="1.00" d=" M 219.58 164.25 C 243.87 164.14 268.15 164.20 292.43 164.22 C 292.42 179.07 292.38 193.92 292.44 208.77 C 268.15 208.84 243.87 208.82 219.59 208.79 C 219.61 193.94 219.63 179.09 219.58 164.25 Z" />
<path fill="#ffffff" opacity="1.00" d=" M 171.40 183.62 C 185.12 195.04 199.04 206.22 212.78 217.62 C 198.95 228.82 185.35 240.28 171.42 251.34 C 171.32 245.07 171.40 238.80 171.38 232.53 C 158.48 232.55 145.58 232.51 132.68 232.55 C 132.67 222.61 132.67 212.67 132.68 202.72 C 145.58 202.74 158.48 202.78 171.38 202.70 C 171.39 196.34 171.35 189.98 171.40 183.62 Z" />
<path fill="#e8641b" opacity="1.00" d=" M 125.27 303.21 C 149.46 303.25 173.65 303.19 197.83 303.24 C 197.77 318.10 197.78 332.96 197.80 347.82 C 173.62 347.85 149.45 347.80 125.28 347.84 C 125.28 332.96 125.29 318.09 125.27 303.21 Z" />
<path fill="#e8641b" opacity="1.00" d=" M 314.22 303.23 C 338.40 303.20 362.58 303.25 386.76 303.21 C 386.73 318.09 386.73 332.96 386.73 347.84 C 362.57 347.81 338.40 347.84 314.23 347.82 C 314.25 332.96 314.27 318.10 314.22 303.23 Z" />
</svg>
