<?xml version="1.0" encoding="UTF-8" ?>
<!DOCTYPE svg PUBLIC "-//W3C//DTD SVG 1.1//EN" "http://www.w3.org/Graphics/SVG/1.1/DTD/svg11.dtd">
<svg width="512pt" height="512pt" viewBox="0 0 512 512" version="1.1" xmlns="http://www.w3.org/2000/svg">
<path fill="#a43ae3" opacity="1.00" d=" M 0.00 0.00 L 512.00 0.00 L 512.00 512.00 L 0.00 512.00 L 0.00 0.00 M 117.50 161.65 C 114.50 162.75 112.49 165.81 112.73 169.02 C 112.72 226.00 112.77 282.99 112.71 339.97 C 112.78 343.35 112.10 347.51 115.07 349.94 C 117.38 352.43 121.00 351.53 124.01 351.69 C 213.71 351.65 303.41 351.66 393.10 351.68 C 397.27 352.18 400.75 348.00 400.28 343.99 C 400.26 285.67 400.26 227.35 400.28 169.03 C 400.42 166.58 399.44 164.02 397.34 162.64 C 394.99 160.74 391.79 161.46 389.02 161.31 C 299.31 161.38 209.60 161.30 119.89 161.34 C 119.29 161.42 118.10 161.57 117.50 161.65 Z" />
<path fill="#ffffff" opacity="1.00" d=" M 117.50 161.65 C 118.10 161.57 119.29 161.42 119.89 161.34 C 209.60 161.30 299.31 161.38 389.02 161.31 C 391.79 161.46 394.99 160.74 397.34 162.64 C 399.44 164.02 400.42 166.58 400.28 169.03 C 400.26 227.35 400.26 285.67 400.28 343.99 C 400.75 348.00 397.27 352.18 393.10 351.68 C 303.41 351.66 213.71 351.65 124.01 351.69 C 121.00 351.53 117.38 352.43 115.07 349.94 C 112.10 347.51 112.78 343.35 112.71 339.97 C 112.77 282.99 112.72 226.00 112.73 169.02 C 112.49 165.81 114.50 162.75 117.50 161.65 M 285.99 188.98 C 275.20 197.18 268.42 210.43 268.26 224.00 C 267.89 235.87 272.54 247.75 280.74 256.33 C 283.59 259.49 287.25 261.74 290.45 264.51 C 279.22 267.14 267.97 271.50 259.49 279.55 C 254.15 284.55 250.57 291.58 250.68 298.99 C 250.71 309.03 250.63 319.08 250.72 329.11 C 250.55 331.47 252.38 334.02 254.93 333.75 C 293.65 333.83 332.37 333.75 371.09 333.79 C 373.90 334.31 376.48 331.95 376.20 329.10 C 376.28 319.06 376.18 309.02 376.24 298.98 C 376.39 292.07 373.29 285.42 368.48 280.56 C 360.00 271.87 348.29 267.29 336.68 264.55 C 339.41 262.33 342.39 260.40 344.95 257.97 C 351.90 251.36 356.72 242.52 358.36 233.06 C 360.74 220.62 357.40 207.29 349.67 197.29 C 342.54 187.94 331.61 181.61 319.96 180.00 C 308.04 178.24 295.49 181.59 285.99 188.98 Z" />
<path fill="#a43ae3" opacity="1.00" d=" M 285.99 188.98 C 295.49 181.59 308.04 178.24 319.96 180.00 C 331.61 181.61 342.54 187.94 349.67 197.29 C 357.40 207.29 360.74 220.62 358.36 233.06 C 356.72 242.52 351.90 251.36 344.95 257.97 C 342.39 260.40 339.41 262.33 336.68 264.55 C 348.29 267.29 360.00 271.87 368.48 280.56 C 373.29 285.42 376.39 292.07 376.24 298.98 C 376.18 309.02 376.28 319.06 376.20 329.10 C 376.48 331.95 373.90 334.31 371.09 333.79 C 332.37 333.75 293.65 333.83 254.93 333.75 C 252.38 334.02 250.55 331.47 250.72 329.11 C 250.63 319.08 250.71 309.03 250.68 298.99 C 250.57 291.58 254.15 284.55 259.49 279.55 C 267.97 271.50 279.22 267.14 290.45 264.51 C 287.25 261.74 283.59 259.49 280.74 256.33 C 272.54 247.75 267.89 235.87 268.26 224.00 C 268.42 210.43 275.20 197.18 285.99 188.98 M 308.32 188.37 C 292.73 190.37 279.43 203.43 277.10 218.96 C 274.10 235.03 283.39 252.21 298.33 258.73 C 314.27 266.34 335.03 260.42 344.52 245.53 C 354.51 231.07 352.03 209.77 339.00 197.98 C 330.94 190.24 319.33 186.84 308.32 188.37 M 286.18 274.36 C 277.80 276.96 269.41 280.81 263.52 287.51 C 260.99 290.38 259.16 294.04 259.28 297.95 C 259.21 307.12 259.32 316.28 259.24 325.45 C 295.41 325.42 331.57 325.45 367.74 325.43 C 367.64 316.29 367.76 307.14 367.70 298.00 C 367.80 293.84 365.77 289.98 363.01 287.00 C 356.74 280.20 347.94 276.44 339.23 273.89 C 321.96 269.20 303.34 269.28 286.18 274.36 Z" />
<path fill="#ffffff" opacity="1.00" d=" M 308.32 188.37 C 319.33 186.84 330.94 190.24 339.00 197.98 C 352.03 209.77 354.51 231.07 344.52 245.53 C 335.03 260.42 314.27 266.34 298.33 258.73 C 283.39 252.21 274.10 235.03 277.10 218.96 C 279.43 203.43 292.73 190.37 308.32 188.37 Z" />
<path fill="#ffffff" opacity="1.00" d=" M 286.18 274.36 C 303.34 269.28 321.96 269.20 339.23 273.89 C 347.94 276.44 356.74 280.20 363.01 287.00 C 365.77 289.98 367.80 293.84 367.70 298.00 C 367.76 307.14 367.64 316.29 367.74 325.43 C 331.57 325.45 295.41 325.42 259.24 325.45 C 259.32 316.28 259.21 307.12 259.28 297.95 C 259.16 294.04 260.99 290.38 263.52 287.51 C 269.41 280.81 277.80 276.96 286.18 274.36 Z" />
</svg>
