<?xml version="1.0" encoding="UTF-8" ?>
<!DOCTYPE svg PUBLIC "-//W3C//DTD SVG 1.1//EN" "http://www.w3.org/Graphics/SVG/1.1/DTD/svg11.dtd">
<svg width="512pt" height="512pt" viewBox="0 0 512 512" version="1.1" xmlns="http://www.w3.org/2000/svg">
<path fill="#c2a54f" opacity="1.00" d=" M 0.00 0.00 L 512.00 0.00 L 512.00 512.00 L 0.00 512.00 L 0.00 0.00 M 177.17 106.28 C 159.72 108.23 145.28 124.43 145.48 142.01 C 145.44 218.01 145.44 294.01 145.48 370.01 C 145.20 388.51 161.33 405.68 179.94 405.91 C 230.63 405.90 281.33 405.93 332.02 405.90 C 350.35 405.29 366.16 388.33 365.77 370.03 C 365.80 294.00 365.80 217.97 365.77 141.95 C 366.12 122.96 349.01 105.67 329.98 106.09 C 279.05 106.22 228.09 105.84 177.17 106.28 Z" />
<path fill="#ffffff" opacity="1.00" d=" M 177.17 106.28 C 228.09 105.84 279.05 106.22 329.98 106.09 C 349.01 105.67 366.12 122.96 365.77 141.95 C 365.80 217.97 365.80 294.00 365.77 370.03 C 366.16 388.33 350.35 405.29 332.02 405.90 C 281.33 405.93 230.63 405.90 179.94 405.91 C 161.33 405.68 145.20 388.51 145.48 370.01 C 145.44 294.01 145.44 218.01 145.48 142.01 C 145.28 124.43 159.72 108.23 177.17 106.28 M 177.45 148.36 C 172.47 153.61 169.91 160.84 169.80 168.02 C 169.76 226.34 169.81 284.66 169.77 342.98 C 169.71 349.76 171.67 356.67 175.96 362.00 C 181.17 368.66 189.45 373.05 197.98 372.84 C 236.64 372.83 275.30 372.85 313.95 372.82 C 326.97 372.88 338.72 362.38 340.96 349.69 C 338.79 349.67 336.63 349.67 334.48 349.67 C 334.52 338.50 334.50 327.34 334.49 316.18 C 336.79 316.18 339.09 316.19 341.40 316.20 C 341.45 276.68 341.42 237.16 341.42 197.64 C 339.10 197.65 336.78 197.65 334.47 197.65 C 334.53 186.50 334.50 175.35 334.49 164.19 C 336.76 164.20 339.04 164.19 341.33 164.19 C 339.67 150.80 327.74 139.35 314.09 139.22 C 275.72 139.10 237.35 139.19 198.98 139.17 C 190.90 138.87 182.85 142.38 177.45 148.36 Z" />
<path fill="#c2a54f" opacity="1.00" d=" M 177.45 148.36 C 182.85 142.38 190.90 138.87 198.98 139.17 C 237.35 139.19 275.72 139.10 314.09 139.22 C 327.74 139.35 339.67 150.80 341.33 164.19 C 339.04 164.19 336.76 164.20 334.49 164.19 C 334.50 175.35 334.53 186.50 334.47 197.65 C 336.78 197.65 339.10 197.65 341.42 197.64 C 341.42 237.16 341.45 276.68 341.40 316.20 C 339.09 316.19 336.79 316.18 334.49 316.18 C 334.50 327.34 334.52 338.50 334.48 349.67 C 336.63 349.67 338.79 349.67 340.96 349.69 C 338.72 362.38 326.97 372.88 313.95 372.82 C 275.30 372.85 236.64 372.83 197.98 372.84 C 189.45 373.05 181.17 368.66 175.96 362.00 C 171.67 356.67 169.71 349.76 169.77 342.98 C 169.81 284.66 169.76 226.34 169.80 168.02 C 169.91 160.84 172.47 153.61 177.45 148.36 M 248.27 186.41 C 220.09 188.94 195.02 210.49 187.87 237.80 C 183.53 253.70 185.00 271.13 192.06 286.03 C 199.42 301.79 212.87 314.59 228.96 321.19 C 246.05 328.29 265.98 328.20 282.99 320.91 C 299.24 314.08 312.68 300.86 319.83 284.76 C 326.50 269.91 327.59 252.70 323.23 237.05 C 318.80 221.27 308.54 207.26 294.98 198.08 C 281.46 188.69 264.59 184.80 248.27 186.41 Z" />
<path fill="#ffffff" opacity="1.00" d=" M 248.27 186.41 C 264.59 184.80 281.46 188.69 294.98 198.08 C 308.54 207.26 318.80 221.27 323.23 237.05 C 327.59 252.70 326.50 269.91 319.83 284.76 C 312.68 300.86 299.24 314.08 282.99 320.91 C 265.98 328.20 246.05 328.29 228.96 321.19 C 212.87 314.59 199.42 301.79 192.06 286.03 C 185.00 271.13 183.53 253.70 187.87 237.80 C 195.02 210.49 220.09 188.94 248.27 186.41 M 220.01 211.85 C 226.43 218.14 232.76 224.52 239.08 230.90 C 242.15 229.23 245.34 227.76 248.73 226.87 C 248.82 217.80 248.69 208.73 248.80 199.66 C 238.34 201.01 228.23 205.21 220.01 211.85 M 262.42 226.80 C 265.81 227.77 269.09 229.11 272.11 230.94 C 278.52 224.64 284.77 218.19 291.21 211.94 C 283.16 204.99 272.84 201.22 262.45 199.52 C 262.37 208.61 262.43 217.71 262.42 226.80 M 199.07 249.32 C 208.10 249.55 217.15 249.33 226.19 249.43 C 227.09 246.40 228.24 243.44 229.83 240.70 C 223.57 234.18 216.94 228.01 210.77 221.40 C 204.27 229.31 200.49 239.23 199.07 249.32 M 281.45 240.76 C 283.08 243.44 284.24 246.36 285.02 249.39 C 294.13 249.43 303.25 249.43 312.36 249.39 C 310.80 239.33 306.98 229.66 300.87 221.49 C 294.21 227.72 287.91 234.33 281.45 240.76 M 199.02 262.72 C 200.28 272.63 204.02 282.21 209.97 290.25 C 216.82 284.26 222.95 277.45 229.48 271.10 C 228.01 268.41 226.89 265.56 226.13 262.59 C 217.10 262.67 208.05 262.41 199.02 262.72 M 285.08 262.63 C 284.47 265.18 283.58 267.65 282.47 270.03 C 289.05 276.41 295.39 283.06 302.01 289.40 C 307.61 281.47 310.95 272.17 312.41 262.61 C 303.30 262.58 294.19 262.54 285.08 262.63 M 262.38 285.69 C 262.45 294.73 262.41 303.77 262.40 312.81 C 273.56 311.39 284.37 306.76 292.82 299.30 C 286.34 293.14 280.11 286.74 273.82 280.40 C 270.31 282.77 266.46 284.55 262.38 285.69 M 219.41 300.17 C 227.79 306.98 238.06 311.51 248.81 312.74 C 248.72 303.71 248.74 294.69 248.80 285.66 C 245.26 284.59 241.78 283.23 238.70 281.13 C 232.15 287.35 226.00 293.98 219.41 300.17 Z" />
<path fill="#c2a54f" opacity="1.00" d=" M 220.01 211.85 C 228.23 205.21 238.34 201.01 248.80 199.66 C 248.69 208.73 248.82 217.80 248.73 226.87 C 245.34 227.76 242.15 229.23 239.08 230.90 C 232.76 224.52 226.43 218.14 220.01 211.85 Z" />
<path fill="#c2a54f" opacity="1.00" d=" M 262.42 226.80 C 262.43 217.71 262.37 208.61 262.45 199.52 C 272.84 201.22 283.16 204.99 291.21 211.94 C 284.77 218.19 278.52 224.64 272.11 230.94 C 269.09 229.11 265.81 227.77 262.42 226.80 Z" />
<path fill="#c2a54f" opacity="1.00" d=" M 199.07 249.32 C 200.49 239.23 204.27 229.31 210.77 221.40 C 216.94 228.01 223.57 234.18 229.83 240.70 C 228.24 243.44 227.09 246.40 226.19 249.43 C 217.15 249.33 208.10 249.55 199.07 249.32 Z" />
<path fill="#c2a54f" opacity="1.00" d=" M 281.45 240.76 C 287.91 234.33 294.21 227.72 300.87 221.49 C 306.98 229.66 310.80 239.33 312.36 249.39 C 303.25 249.43 294.13 249.43 285.02 249.39 C 284.24 246.36 283.08 243.44 281.45 240.76 Z" />
<path fill="#c2a54f" opacity="1.00" d=" M 199.02 262.72 C 208.05 262.41 217.10 262.67 226.13 262.59 C 226.89 265.56 228.01 268.41 229.48 271.10 C 222.95 277.45 216.82 284.26 209.97 290.25 C 204.02 282.21 200.28 272.63 199.02 262.72 Z" />
<path fill="#c2a54f" opacity="1.00" d=" M 285.08 262.63 C 294.19 262.54 303.30 262.58 312.41 262.61 C 310.95 272.17 307.61 281.47 302.01 289.40 C 295.39 283.06 289.05 276.41 282.47 270.03 C 283.58 267.65 284.47 265.18 285.08 262.63 Z" />
<path fill="#c2a54f" opacity="1.00" d=" M 262.38 285.69 C 266.46 284.55 270.31 282.77 273.82 280.40 C 280.11 286.74 286.34 293.14 292.82 299.30 C 284.37 306.76 273.56 311.39 262.40 312.81 C 262.41 303.77 262.45 294.73 262.38 285.69 Z" />
<path fill="#c2a54f" opacity="1.00" d=" M 219.41 300.17 C 226.00 293.98 232.15 287.35 238.70 281.13 C 241.78 283.23 245.26 284.59 248.80 285.66 C 248.74 294.69 248.72 303.71 248.81 312.74 C 238.06 311.51 227.79 306.98 219.41 300.17 Z" />
</svg>
