<?xml version="1.0" encoding="UTF-8" ?>
<!DOCTYPE svg PUBLIC "-//W3C//DTD SVG 1.1//EN" "http://www.w3.org/Graphics/SVG/1.1/DTD/svg11.dtd">
<svg width="512pt" height="512pt" viewBox="0 0 512 512" version="1.1" xmlns="http://www.w3.org/2000/svg">
<path fill="#ea595a" opacity="1.00" d=" M 0.00 0.00 L 512.00 0.00 L 512.00 512.00 L 0.00 512.00 L 0.00 0.00 M 245.34 107.46 C 222.35 109.13 199.71 116.03 179.91 127.86 C 149.92 145.51 126.49 174.03 115.16 206.94 C 110.17 220.76 107.91 235.38 106.63 249.96 C 106.05 260.85 107.46 271.70 109.29 282.41 C 114.98 314.95 132.17 345.26 156.91 367.10 C 178.87 386.74 206.83 399.52 236.04 403.30 C 261.31 406.84 287.43 403.29 311.11 393.91 C 338.06 383.02 361.78 364.16 378.17 340.13 C 391.94 320.27 400.62 296.96 403.35 272.95 C 405.11 261.76 405.15 250.26 403.37 239.07 C 401.05 218.64 394.53 198.68 384.08 180.95 C 368.66 154.37 344.72 132.85 316.70 120.25 C 294.44 110.14 269.71 105.91 245.34 107.46 Z" />
<path fill="#ffffff" opacity="1.00" d=" M 245.34 107.46 C 269.71 105.91 294.44 110.14 316.70 120.25 C 344.72 132.85 368.66 154.37 384.08 180.95 C 394.53 198.68 401.05 218.64 403.37 239.07 C 405.15 250.26 405.11 261.76 403.35 272.95 C 400.62 296.96 391.94 320.27 378.17 340.13 C 361.78 364.16 338.06 383.02 311.11 393.91 C 287.43 403.29 261.31 406.84 236.04 403.30 C 206.83 399.52 178.87 386.74 156.91 367.10 C 132.17 345.26 114.98 314.95 109.29 282.41 C 107.46 271.70 106.05 260.85 106.63 249.96 C 107.91 235.38 110.17 220.76 115.16 206.94 C 126.49 174.03 149.92 145.51 179.91 127.86 C 199.71 116.03 222.35 109.13 245.34 107.46 M 238.49 118.78 C 205.28 122.89 173.79 139.52 151.84 164.80 C 130.01 189.43 117.55 222.14 117.49 255.04 C 117.24 281.18 124.74 307.31 138.70 329.40 C 154.04 353.83 177.20 373.31 204.01 384.01 C 234.93 396.60 270.43 397.29 301.85 386.06 C 327.87 376.84 350.99 359.61 367.19 337.26 C 384.55 313.65 394.05 284.33 393.70 255.01 C 393.71 226.57 384.38 198.28 367.74 175.24 C 349.09 149.21 321.13 129.99 290.08 122.12 C 273.28 117.80 255.70 116.57 238.49 118.78 Z" />
<path fill="#ea595a" opacity="1.00" d=" M 238.49 118.78 C 255.70 116.57 273.28 117.80 290.08 122.12 C 321.13 129.99 349.09 149.21 367.74 175.24 C 384.38 198.28 393.71 226.57 393.70 255.01 C 394.05 284.33 384.55 313.65 367.19 337.26 C 350.99 359.61 327.87 376.84 301.85 386.06 C 270.43 397.29 234.93 396.60 204.01 384.01 C 177.20 373.31 154.04 353.83 138.70 329.40 C 124.74 307.31 117.24 281.18 117.49 255.04 C 117.55 222.14 130.01 189.43 151.84 164.80 C 173.79 139.52 205.28 122.89 238.49 118.78 M 224.95 125.92 C 195.87 132.59 169.43 149.61 150.92 172.96 C 134.44 193.69 124.31 219.44 122.47 245.87 C 163.55 245.85 204.63 245.88 245.71 245.86 C 245.67 204.77 245.71 163.69 245.69 122.61 C 238.73 123.40 231.74 124.11 224.95 125.92 M 265.20 122.60 C 265.17 163.69 265.21 204.77 265.18 245.86 C 306.37 245.88 347.55 245.84 388.74 245.88 C 386.46 211.58 369.96 178.52 344.10 155.90 C 322.43 136.47 294.18 124.78 265.20 122.60 M 122.42 265.33 C 124.66 300.57 141.87 334.46 168.74 357.32 C 190.14 375.65 217.52 387.30 245.73 388.89 C 245.72 386.95 245.71 385.01 245.71 383.08 C 225.61 364.67 205.58 346.19 185.45 327.82 C 194.01 318.60 202.46 309.27 210.98 300.00 C 222.54 310.63 234.08 321.28 245.70 331.85 C 245.70 309.68 245.66 287.51 245.72 265.34 C 204.62 265.34 163.52 265.36 122.42 265.33 M 265.17 265.34 C 265.29 287.60 265.03 309.86 265.30 332.11 C 287.24 309.72 309.46 287.61 331.56 265.39 C 309.43 265.28 287.30 265.38 265.17 265.34 M 382.11 265.96 C 343.12 305.25 304.17 344.58 265.15 383.83 C 265.16 385.51 265.17 387.20 265.19 388.90 C 297.97 387.14 329.59 371.85 352.15 348.13 C 373.55 325.96 386.81 296.10 388.79 265.35 C 386.61 265.59 383.98 264.62 382.11 265.96 Z" />
<path fill="#ffffff" opacity="1.00" d=" M 224.95 125.92 C 231.74 124.11 238.73 123.40 245.69 122.61 C 245.71 163.69 245.67 204.77 245.71 245.86 C 204.63 245.88 163.55 245.85 122.47 245.87 C 124.31 219.44 134.44 193.69 150.92 172.96 C 169.43 149.61 195.87 132.59 224.95 125.92 Z" />
<path fill="#ffffff" opacity="1.00" d=" M 265.20 122.60 C 294.18 124.78 322.43 136.47 344.10 155.90 C 369.96 178.52 386.46 211.58 388.74 245.88 C 347.55 245.84 306.37 245.88 265.18 245.86 C 265.21 204.77 265.17 163.69 265.20 122.60 Z" />
<path fill="#ffffff" opacity="1.00" d=" M 122.42 265.33 C 163.52 265.36 204.62 265.34 245.72 265.34 C 245.66 287.51 245.70 309.68 245.70 331.85 C 234.08 321.28 222.54 310.63 210.98 300.00 C 202.46 309.27 194.01 318.60 185.45 327.82 C 205.58 346.19 225.61 364.67 245.71 383.08 C 245.71 385.01 245.72 386.95 245.73 388.89 C 217.52 387.30 190.14 375.65 168.74 357.32 C 141.87 334.46 124.66 300.57 122.42 265.33 Z" />
<path fill="#ffffff" opacity="1.00" d=" M 265.17 265.34 C 287.30 265.38 309.43 265.28 331.56 265.39 C 309.46 287.61 287.24 309.72 265.30 332.11 C 265.03 309.86 265.29 287.60 265.17 265.34 Z" />
<path fill="#ffffff" opacity="1.00" d=" M 382.11 265.96 C 383.98 264.62 386.61 265.59 388.79 265.35 C 386.81 296.10 373.55 325.96 352.15 348.13 C 329.59 371.85 297.97 387.14 265.19 388.90 C 265.17 387.20 265.16 385.51 265.15 383.83 C 304.17 344.58 343.12 305.25 382.11 265.96 Z" />
</svg>
