<?xml version="1.0" encoding="UTF-8" ?>
<!DOCTYPE svg PUBLIC "-//W3C//DTD SVG 1.1//EN" "http://www.w3.org/Graphics/SVG/1.1/DTD/svg11.dtd">
<svg width="512pt" height="512pt" viewBox="0 0 512 512" version="1.1" xmlns="http://www.w3.org/2000/svg">
<path fill="#e4696a" opacity="1.00" d=" M 0.00 0.00 L 512.00 0.00 L 512.00 512.00 L 0.00 512.00 L 0.00 0.00 M 296.07 128.13 C 291.42 137.45 286.55 146.66 281.93 156.00 C 297.43 163.81 312.82 171.83 328.31 179.67 C 330.77 180.88 333.10 182.47 335.84 183.03 C 340.36 173.86 345.04 164.77 349.80 155.72 C 331.94 146.43 313.91 137.46 296.07 128.13 M 115.88 142.81 C 115.85 223.60 115.85 304.39 115.88 385.18 C 197.19 385.20 278.51 385.18 359.82 385.19 C 359.90 371.01 359.82 356.83 359.86 342.65 C 294.34 342.64 228.81 342.63 163.29 342.66 C 163.35 276.04 163.32 209.43 163.30 142.81 C 147.49 142.79 131.69 142.80 115.88 142.81 M 251.22 191.18 C 272.75 207.34 294.45 223.27 315.96 239.45 C 322.44 230.70 328.95 221.97 335.44 213.23 C 313.88 197.21 292.27 181.24 270.79 165.11 C 264.14 173.71 257.89 182.60 251.22 191.18 M 172.47 271.86 C 209.22 271.85 245.97 271.85 282.72 271.86 C 282.61 254.77 282.91 237.68 282.57 220.60 C 245.88 220.82 209.18 220.65 172.48 220.69 C 172.47 237.74 172.49 254.80 172.47 271.86 M 350.44 293.79 C 354.85 300.62 358.49 307.91 362.70 314.86 C 374.15 308.14 385.79 301.76 397.29 295.12 C 393.18 288.06 389.24 280.91 385.14 273.85 C 373.62 280.57 361.79 286.78 350.44 293.79 M 172.47 283.14 C 172.50 300.20 172.45 317.27 172.49 334.34 C 209.19 334.36 245.90 334.22 282.60 334.41 C 282.87 317.32 282.62 300.23 282.72 283.14 C 245.97 283.14 209.22 283.14 172.47 283.14 M 291.35 283.14 C 291.39 300.21 291.28 317.28 291.40 334.35 C 308.43 334.29 325.47 334.32 342.50 334.34 C 342.54 317.27 342.50 300.20 342.53 283.14 C 325.46 283.14 308.41 283.14 291.35 283.14 Z" />
<path fill="#ffffff" opacity="1.00" d=" M 296.07 128.13 C 313.91 137.46 331.94 146.43 349.80 155.72 C 345.04 164.77 340.36 173.86 335.84 183.03 C 333.10 182.47 330.77 180.88 328.31 179.67 C 312.82 171.83 297.43 163.81 281.93 156.00 C 286.55 146.66 291.42 137.45 296.07 128.13 Z" />
<path fill="#ffffff" opacity="1.00" d=" M 115.88 142.81 C 131.69 142.80 147.49 142.79 163.30 142.81 C 163.32 209.43 163.35 276.04 163.29 342.66 C 228.81 342.63 294.34 342.64 359.86 342.65 C 359.82 356.83 359.90 371.01 359.82 385.19 C 278.51 385.18 197.19 385.20 115.88 385.18 C 115.85 304.39 115.85 223.60 115.88 142.81 Z" />
<path fill="#ffffff" opacity="1.00" d=" M 251.22 191.18 C 257.89 182.60 264.14 173.71 270.79 165.11 C 292.27 181.24 313.88 197.21 335.44 213.23 C 328.95 221.97 322.44 230.70 315.96 239.45 C 294.45 223.27 272.75 207.34 251.22 191.18 Z" />
<path fill="#ffffff" opacity="1.00" d=" M 172.47 271.86 C 172.49 254.80 172.47 237.74 172.48 220.69 C 209.18 220.65 245.88 220.82 282.57 220.60 C 282.91 237.68 282.61 254.77 282.72 271.86 C 245.97 271.85 209.22 271.85 172.47 271.86 Z" />
<path fill="#ffffff" opacity="1.00" d=" M 350.44 293.79 C 361.79 286.78 373.62 280.57 385.14 273.85 C 389.24 280.91 393.18 288.06 397.29 295.12 C 385.79 301.76 374.15 308.14 362.70 314.86 C 358.49 307.91 354.85 300.62 350.44 293.79 Z" />
<path fill="#ffffff" opacity="1.00" d=" M 172.47 283.14 C 209.22 283.14 245.97 283.14 282.72 283.14 C 282.62 300.23 282.87 317.32 282.60 334.41 C 245.90 334.22 209.19 334.36 172.49 334.34 C 172.45 317.27 172.50 300.20 172.47 283.14 Z" />
<path fill="#ffffff" opacity="1.00" d=" M 291.35 283.14 C 308.41 283.14 325.46 283.14 342.53 283.14 C 342.50 300.20 342.54 317.27 342.50 334.34 C 325.47 334.32 308.43 334.29 291.40 334.35 C 291.28 317.28 291.39 300.21 291.35 283.14 Z" />
</svg>
