<?xml version="1.0" encoding="UTF-8" ?>
<!DOCTYPE svg PUBLIC "-//W3C//DTD SVG 1.1//EN" "http://www.w3.org/Graphics/SVG/1.1/DTD/svg11.dtd">
<svg width="512pt" height="512pt" viewBox="0 0 512 512" version="1.1" xmlns="http://www.w3.org/2000/svg">
<path fill="#e76f00" opacity="1.00" d=" M 0.00 0.00 L 512.00 0.00 L 512.00 512.00 L 0.00 512.00 L 0.00 0.00 M 285.60 135.17 C 282.87 145.76 275.92 154.65 268.08 162.02 C 255.91 173.64 241.41 182.56 229.62 194.60 C 225.24 199.38 220.77 204.49 218.92 210.86 C 217.27 216.92 218.23 223.46 220.79 229.13 C 224.70 237.96 231.09 245.38 237.59 252.41 C 243.66 258.72 249.96 264.83 256.66 270.48 C 251.95 260.87 244.90 252.72 239.42 243.57 C 235.93 237.64 232.96 231.04 233.12 224.02 C 232.83 215.30 237.34 207.28 242.83 200.83 C 250.35 191.62 260.69 185.40 269.02 177.02 C 278.82 167.52 287.81 156.39 291.54 143.03 C 294.54 132.22 292.77 119.83 285.37 111.14 C 286.96 119.03 287.73 127.30 285.60 135.17 M 273.76 192.80 C 264.91 199.60 257.22 209.35 256.74 220.93 C 256.62 231.82 262.41 241.71 269.34 249.71 C 273.26 254.10 276.05 260.09 274.82 266.07 C 273.99 271.87 270.11 276.47 266.44 280.77 C 274.87 275.41 283.52 269.12 287.77 259.76 C 290.42 254.17 290.05 247.39 286.92 242.07 C 282.24 234.20 275.00 227.38 273.37 218.03 C 272.05 209.22 278.34 201.86 284.31 196.26 C 295.51 186.00 308.68 178.27 321.64 170.49 C 304.68 175.33 287.87 182.00 273.76 192.80 M 323.41 273.71 C 327.61 272.95 331.82 271.10 336.15 272.15 C 343.26 273.26 349.70 278.79 351.03 285.99 C 352.22 292.34 349.23 298.62 345.41 303.52 C 338.46 312.17 328.97 318.30 319.28 323.45 C 318.38 323.94 317.73 324.76 317.02 325.47 C 331.67 321.56 346.92 315.86 357.13 304.10 C 362.38 298.22 364.69 289.59 361.93 282.05 C 358.31 273.07 348.33 267.98 338.93 268.35 C 333.45 268.54 327.29 269.41 323.41 273.71 M 175.94 282.84 C 174.14 283.85 171.23 285.77 172.71 288.16 C 175.92 291.42 180.71 292.15 184.97 293.17 C 206.03 297.05 227.58 296.92 248.91 296.30 C 267.47 295.24 286.15 293.63 304.21 289.02 C 308.85 286.64 313.33 283.94 318.08 281.75 C 298.21 285.14 278.17 287.65 258.03 288.59 C 240.20 289.56 222.26 290.20 204.47 288.23 C 201.05 287.65 197.44 287.28 194.38 285.52 C 192.97 284.93 192.82 282.95 194.00 282.05 C 196.67 279.71 200.06 278.43 203.32 277.14 C 209.80 274.79 216.40 272.68 223.21 271.50 C 220.47 271.26 217.71 271.07 214.97 271.37 C 201.40 272.72 188.04 276.55 175.94 282.84 M 197.66 310.76 C 196.00 312.19 194.51 314.72 195.93 316.82 C 198.44 320.38 202.81 321.84 206.77 323.16 C 220.10 327.02 234.10 327.75 247.91 327.58 C 267.99 327.45 287.94 324.17 307.30 319.01 C 302.89 317.17 298.70 314.75 295.16 311.51 C 268.84 317.08 241.61 318.42 214.92 314.93 C 212.27 314.42 209.25 313.87 207.50 311.59 C 206.07 308.53 208.98 306.10 210.82 304.08 C 206.25 305.87 201.43 307.50 197.66 310.76 M 204.82 342.90 C 202.92 345.69 205.04 348.98 207.47 350.59 C 213.90 355.13 221.82 356.82 229.42 358.27 C 253.38 361.88 278.44 359.53 300.93 350.31 C 301.03 348.33 297.88 348.48 296.60 347.46 C 291.64 346.01 287.49 340.75 282.01 342.74 C 264.60 346.24 246.69 347.22 229.05 344.89 C 224.00 344.11 217.76 344.52 214.29 340.07 C 215.26 338.70 216.27 337.36 217.33 336.06 C 212.84 337.54 207.86 339.02 204.82 342.90 M 173.32 359.25 C 165.42 361.60 157.15 364.28 150.99 369.99 C 148.87 371.68 148.29 375.59 150.79 377.21 C 154.64 380.03 159.53 380.75 164.11 381.59 C 189.87 385.68 215.94 387.94 242.03 387.80 C 265.44 387.95 288.91 386.35 311.95 382.08 C 322.02 380.07 332.15 377.75 341.54 373.47 C 345.01 371.74 348.89 369.76 350.52 366.01 C 351.10 362.59 347.54 360.80 345.05 359.41 C 346.15 361.07 347.41 362.96 346.55 365.04 C 345.02 367.76 342.03 369.16 339.25 370.28 C 332.80 372.73 325.96 373.93 319.18 375.07 C 296.29 378.68 273.09 379.62 249.96 380.22 C 237.92 380.43 225.91 379.80 213.88 379.30 C 200.63 378.24 187.21 377.28 174.43 373.40 C 171.99 372.45 169.01 371.86 167.43 369.61 C 166.86 367.57 169.00 366.34 170.42 365.38 C 178.07 360.98 186.89 359.19 195.58 358.27 C 188.36 355.59 180.54 357.58 173.32 359.25 M 337.54 387.11 C 310.99 394.21 283.43 396.41 256.06 397.26 C 238.04 397.61 220.00 396.87 202.07 395.09 C 197.28 394.67 192.57 393.53 187.75 393.40 C 193.10 396.07 199.04 397.19 204.87 398.27 C 230.04 402.20 255.62 402.11 281.01 401.32 C 302.84 399.85 325.11 398.28 345.80 390.62 C 353.08 387.62 361.79 383.37 363.32 374.79 C 356.33 381.61 346.65 384.40 337.54 387.11 Z" />
<path fill="#ffffff" opacity="1.00" d=" M 285.60 135.17 C 287.73 127.30 286.96 119.03 285.37 111.14 C 292.77 119.83 294.54 132.22 291.54 143.03 C 287.81 156.39 278.82 167.52 269.02 177.02 C 260.69 185.40 250.35 191.62 242.83 200.83 C 237.34 207.28 232.83 215.30 233.12 224.02 C 232.96 231.04 235.93 237.64 239.42 243.57 C 244.90 252.72 251.95 260.87 256.66 270.48 C 249.96 264.83 243.66 258.72 237.59 252.41 C 231.09 245.38 224.70 237.96 220.79 229.13 C 218.23 223.46 217.27 216.92 218.92 210.86 C 220.77 204.49 225.24 199.38 229.62 194.60 C 241.41 182.56 255.91 173.64 268.08 162.02 C 275.92 154.65 282.87 145.76 285.60 135.17 Z" />
<path fill="#ffffff" opacity="1.00" d=" M 273.76 192.80 C 287.87 182.00 304.68 175.33 321.64 170.49 C 308.68 178.27 295.51 186.00 284.31 196.26 C 278.34 201.86 272.05 209.22 273.37 218.03 C 275.00 227.38 282.24 234.20 286.92 242.07 C 290.05 247.39 290.42 254.17 287.77 259.76 C 283.52 269.12 274.87 275.41 266.44 280.77 C 270.11 276.47 273.99 271.87 274.82 266.07 C 276.05 260.09 273.26 254.10 269.34 249.71 C 262.41 241.71 256.62 231.82 256.74 220.93 C 257.22 209.35 264.91 199.60 273.76 192.80 Z" />
<path fill="#ffffff" opacity="1.00" d=" M 323.41 273.71 C 327.29 269.41 333.45 268.54 338.93 268.35 C 348.33 267.98 358.31 273.07 361.93 282.05 C 364.69 289.59 362.38 298.22 357.13 304.10 C 346.92 315.86 331.67 321.56 317.02 325.47 C 317.73 324.76 318.38 323.94 319.28 323.45 C 328.97 318.30 338.46 312.17 345.41 303.52 C 349.23 298.62 352.22 292.34 351.03 285.99 C 349.70 278.79 343.26 273.26 336.15 272.15 C 331.82 271.10 327.61 272.95 323.41 273.71 Z" />
<path fill="#ffffff" opacity="1.00" d=" M 175.94 282.84 C 188.04 276.55 201.40 272.72 214.97 271.37 C 217.71 271.07 220.47 271.26 223.21 271.50 C 216.40 272.68 209.80 274.79 203.32 277.14 C 200.06 278.43 196.67 279.71 194.00 282.05 C 192.82 282.95 192.97 284.93 194.38 285.52 C 197.44 287.28 201.05 287.65 204.47 288.23 C 222.26 290.20 240.20 289.56 258.03 288.59 C 278.17 287.65 298.21 285.14 318.08 281.75 C 313.33 283.94 308.85 286.64 304.21 289.02 C 286.15 293.63 267.47 295.24 248.91 296.30 C 227.58 296.92 206.03 297.05 184.97 293.17 C 180.71 292.15 175.92 291.42 172.71 288.16 C 171.23 285.77 174.14 283.85 175.94 282.84 Z" />
<path fill="#ffffff" opacity="1.00" d=" M 197.66 310.76 C 201.43 307.50 206.25 305.87 210.82 304.08 C 208.98 306.10 206.07 308.53 207.50 311.59 C 209.25 313.87 212.27 314.42 214.92 314.93 C 241.61 318.42 268.84 317.08 295.16 311.51 C 298.70 314.75 302.89 317.17 307.30 319.01 C 287.94 324.17 267.99 327.45 247.91 327.58 C 234.10 327.75 220.10 327.02 206.77 323.16 C 202.81 321.84 198.44 320.38 195.93 316.82 C 194.51 314.72 196.00 312.19 197.66 310.76 Z" />
<path fill="#ffffff" opacity="1.00" d=" M 204.82 342.90 C 207.86 339.02 212.84 337.54 217.33 336.06 C 216.27 337.36 215.26 338.70 214.29 340.07 C 217.76 344.52 224.00 344.11 229.05 344.89 C 246.69 347.22 264.60 346.24 282.01 342.74 C 287.49 340.75 291.64 346.01 296.60 347.46 C 297.88 348.48 301.03 348.33 300.93 350.31 C 278.44 359.53 253.38 361.88 229.42 358.27 C 221.82 356.82 213.90 355.13 207.47 350.59 C 205.04 348.98 202.92 345.69 204.82 342.90 Z" />
<path fill="#ffffff" opacity="1.00" d=" M 173.32 359.25 C 180.54 357.58 188.36 355.59 195.58 358.27 C 186.89 359.19 178.07 360.98 170.42 365.38 C 169.00 366.34 166.86 367.57 167.43 369.61 C 169.01 371.86 171.99 372.45 174.43 373.40 C 187.21 377.28 200.63 378.24 213.88 379.30 C 225.91 379.80 237.92 380.43 249.96 380.22 C 273.09 379.62 296.29 378.68 319.18 375.07 C 325.96 373.93 332.80 372.73 339.25 370.28 C 342.03 369.16 345.02 367.76 346.55 365.04 C 347.41 362.96 346.15 361.07 345.05 359.41 C 347.54 360.80 351.10 362.59 350.52 366.01 C 348.89 369.76 345.01 371.74 341.54 373.47 C 332.15 377.75 322.02 380.07 311.95 382.08 C 288.91 386.35 265.44 387.95 242.03 387.80 C 215.94 387.94 189.87 385.68 164.11 381.59 C 159.53 380.75 154.64 380.03 150.79 377.21 C 148.29 375.59 148.87 371.68 150.99 369.99 C 157.15 364.28 165.42 361.60 173.32 359.25 Z" />
<path fill="#ffffff" opacity="1.00" d=" M 337.54 387.11 C 346.65 384.40 356.33 381.61 363.32 374.79 C 361.79 383.37 353.08 387.62 345.80 390.62 C 325.11 398.28 302.84 399.85 281.01 401.32 C 255.62 402.11 230.04 402.20 204.87 398.27 C 199.04 397.19 193.10 396.07 187.75 393.40 C 192.57 393.53 197.28 394.67 202.07 395.09 C 220.00 396.87 238.04 397.61 256.06 397.26 C 283.43 396.41 310.99 394.21 337.54 387.11 Z" />
</svg>
