<?xml version="1.0" encoding="UTF-8" ?>
<!DOCTYPE svg PUBLIC "-//W3C//DTD SVG 1.1//EN" "http://www.w3.org/Graphics/SVG/1.1/DTD/svg11.dtd">
<svg width="512pt" height="512pt" viewBox="0 0 512 512" version="1.1" xmlns="http://www.w3.org/2000/svg">
<path fill="#dec500" opacity="1.00" d=" M 0.00 0.00 L 512.00 0.00 L 512.00 512.00 L 0.00 512.00 L 0.00 0.00 M 139.41 166.59 C 128.94 170.92 122.74 181.30 118.13 191.12 C 107.25 216.11 105.08 243.98 106.69 270.92 C 108.56 291.95 112.71 313.65 124.45 331.58 C 128.75 337.57 134.31 343.96 141.95 345.20 C 217.62 345.29 293.30 345.20 368.97 345.25 C 372.25 345.37 375.23 343.68 377.86 341.89 C 386.16 335.78 391.31 326.44 395.22 317.11 C 404.98 292.75 406.91 265.98 405.31 240.01 C 403.77 221.80 400.19 203.43 391.91 187.00 C 387.50 178.70 381.66 170.23 372.63 166.59 C 366.52 165.36 360.20 166.23 354.01 166.03 C 283.99 165.97 213.98 166.02 143.96 165.98 C 142.43 166.01 140.87 166.09 139.41 166.59 Z" />
<path fill="#ffffff" opacity="1.00" d=" M 139.41 166.59 C 140.87 166.09 142.43 166.01 143.96 165.98 C 213.98 166.02 283.99 165.97 354.01 166.03 C 360.20 166.23 366.52 165.36 372.63 166.59 C 381.66 170.23 387.50 178.70 391.91 187.00 C 400.19 203.43 403.77 221.80 405.31 240.01 C 406.91 265.98 404.98 292.75 395.22 317.11 C 391.31 326.44 386.16 335.78 377.86 341.89 C 375.23 343.68 372.25 345.37 368.97 345.25 C 293.30 345.20 217.62 345.29 141.95 345.20 C 134.31 343.96 128.75 337.57 124.45 331.58 C 112.71 313.65 108.56 291.95 106.69 270.92 C 105.08 243.98 107.25 216.11 118.13 191.12 C 122.74 181.30 128.94 170.92 139.41 166.59 M 166.32 195.72 C 176.36 195.67 186.40 195.69 196.44 195.71 C 196.83 206.06 196.57 216.42 196.57 226.78 C 186.55 226.88 176.52 226.96 166.50 226.74 C 166.12 236.05 166.48 245.38 166.31 254.70 C 176.36 254.70 186.40 254.71 196.45 254.69 C 196.75 274.87 196.71 295.08 196.47 315.27 C 186.42 315.25 176.37 315.30 166.33 315.24 C 166.32 318.58 166.32 321.92 166.41 325.27 C 229.46 325.23 292.52 325.14 355.57 325.32 C 355.85 315.67 355.64 306.02 355.67 296.37 C 364.30 296.39 372.92 296.40 381.55 296.37 C 381.75 269.30 381.57 242.23 381.64 215.17 C 372.96 214.90 364.27 215.39 355.61 214.69 C 355.71 205.02 355.81 195.34 355.57 185.67 C 292.51 185.82 229.45 185.74 166.39 185.71 C 166.33 189.05 166.32 192.38 166.32 195.72 M 167.17 197.33 C 166.85 206.66 167.25 216.00 167.09 225.34 C 176.45 225.35 185.81 225.40 195.17 225.32 C 195.23 216.06 195.04 206.79 195.27 197.54 C 185.92 197.07 176.53 197.48 167.17 197.33 M 167.13 256.28 C 167.13 265.65 167.17 275.01 167.11 284.37 C 176.46 284.35 185.81 284.39 195.17 284.35 C 195.11 274.99 195.30 265.63 195.07 256.27 C 185.76 256.32 176.44 256.30 167.13 256.28 M 167.14 285.87 C 167.25 295.15 166.97 304.45 167.12 313.72 C 176.42 313.66 185.73 313.65 195.03 313.72 C 195.35 304.44 195.09 295.15 195.16 285.87 C 185.82 285.86 176.48 285.87 167.14 285.87 Z" />
<path fill="#dec500" opacity="1.00" d=" M 166.32 195.72 C 166.32 192.38 166.33 189.05 166.39 185.71 C 229.45 185.74 292.51 185.82 355.57 185.67 C 355.81 195.34 355.71 205.02 355.61 214.69 C 364.27 215.39 372.96 214.90 381.64 215.17 C 381.57 242.23 381.75 269.30 381.55 296.37 C 372.92 296.40 364.30 296.39 355.67 296.37 C 355.64 306.02 355.85 315.67 355.57 325.32 C 292.52 325.14 229.46 325.23 166.41 325.27 C 166.32 321.92 166.32 318.58 166.33 315.24 C 176.37 315.30 186.42 315.25 196.47 315.27 C 196.71 295.08 196.75 274.87 196.45 254.69 C 186.40 254.71 176.36 254.70 166.31 254.70 C 166.48 245.38 166.12 236.05 166.50 226.74 C 176.52 226.96 186.55 226.88 196.57 226.78 C 196.57 216.42 196.83 206.06 196.44 195.71 C 186.40 195.69 176.36 195.67 166.32 195.72 M 356.25 254.83 C 364.34 255.33 372.45 255.07 380.56 255.14 C 380.62 242.02 380.75 228.89 380.49 215.78 C 372.45 215.76 364.41 215.96 356.37 215.63 C 356.14 228.70 356.38 241.76 356.25 254.83 M 356.34 295.42 C 364.43 295.30 372.52 295.39 380.61 295.37 C 380.60 282.20 380.69 269.03 380.56 255.86 C 372.49 255.84 364.41 256.01 356.35 255.66 C 356.23 268.91 356.24 282.16 356.34 295.42 Z" />
<path fill="#dec500" opacity="1.00" d=" M 167.17 197.33 C 176.53 197.48 185.92 197.07 195.27 197.54 C 195.04 206.79 195.23 216.06 195.17 225.32 C 185.81 225.40 176.45 225.35 167.09 225.34 C 167.25 216.00 166.85 206.66 167.17 197.33 M 179.27 203.68 C 179.26 205.62 179.26 207.55 179.26 209.49 C 177.32 209.50 175.37 209.50 173.44 209.51 C 173.46 210.43 173.52 212.25 173.54 213.17 C 175.44 213.17 177.35 213.17 179.26 213.17 C 179.25 215.03 179.24 216.88 179.24 218.74 C 180.39 218.74 181.55 218.74 182.72 218.74 C 182.71 216.88 182.70 215.02 182.69 213.17 C 184.59 213.16 186.50 213.16 188.40 213.16 C 188.43 212.25 188.47 210.43 188.49 209.52 C 186.55 209.50 184.62 209.50 182.69 209.49 C 182.69 207.55 182.69 205.61 182.68 203.67 C 181.54 203.67 180.40 203.68 179.27 203.68 Z" />
<path fill="#ffffff" opacity="1.00" d=" M 179.27 203.68 C 180.40 203.68 181.54 203.67 182.68 203.67 C 182.69 205.61 182.69 207.55 182.69 209.49 C 184.62 209.50 186.55 209.50 188.49 209.52 C 188.47 210.43 188.43 212.25 188.40 213.16 C 186.50 213.16 184.59 213.16 182.69 213.17 C 182.70 215.02 182.71 216.88 182.72 218.74 C 181.55 218.74 180.39 218.74 179.24 218.74 C 179.24 216.88 179.25 215.03 179.26 213.17 C 177.35 213.17 175.44 213.17 173.54 213.17 C 173.52 212.25 173.46 210.43 173.44 209.51 C 175.37 209.50 177.32 209.50 179.26 209.49 C 179.26 207.55 179.26 205.62 179.27 203.68 Z" />
<path fill="#ffffff" opacity="1.00" d=" M 356.25 254.83 C 356.38 241.76 356.14 228.70 356.37 215.63 C 364.41 215.96 372.45 215.76 380.49 215.78 C 380.75 228.89 380.62 242.02 380.56 255.14 C 372.45 255.07 364.34 255.33 356.25 254.83 M 359.82 242.73 C 365.59 242.84 371.37 242.81 377.15 242.76 C 374.19 237.99 371.40 233.11 368.62 228.23 C 365.37 232.86 362.92 238.00 359.82 242.73 Z" />
<path fill="#dec500" opacity="1.00" d=" M 359.82 242.73 C 362.92 238.00 365.37 232.86 368.62 228.23 C 371.40 233.11 374.19 237.99 377.15 242.76 C 371.37 242.81 365.59 242.84 359.82 242.73 Z" />
<path fill="#dec500" opacity="1.00" d=" M 167.13 256.28 C 176.44 256.30 185.76 256.32 195.07 256.27 C 195.30 265.63 195.11 274.99 195.17 284.35 C 185.81 284.39 176.46 284.35 167.11 284.37 C 167.17 275.01 167.13 265.65 167.13 256.28 M 173.68 276.51 C 178.65 276.46 183.62 276.69 188.58 276.37 C 185.86 272.30 183.54 267.99 181.04 263.80 C 178.66 268.07 176.12 272.26 173.68 276.51 Z" />
<path fill="#ffffff" opacity="1.00" d=" M 356.34 295.42 C 356.24 282.16 356.23 268.91 356.35 255.66 C 364.41 256.01 372.49 255.84 380.56 255.86 C 380.69 269.03 380.60 282.20 380.61 295.37 C 372.52 295.39 364.43 295.30 356.34 295.42 M 359.74 268.24 C 362.93 272.96 365.27 278.22 368.67 282.81 C 371.41 277.88 374.26 273.02 377.19 268.21 C 371.37 268.17 365.56 268.14 359.74 268.24 Z" />
<path fill="#ffffff" opacity="1.00" d=" M 173.68 276.51 C 176.12 272.26 178.66 268.07 181.04 263.80 C 183.54 267.99 185.86 272.30 188.58 276.37 C 183.62 276.69 178.65 276.46 173.68 276.51 Z" />
<path fill="#dec500" opacity="1.00" d=" M 359.74 268.24 C 365.56 268.14 371.37 268.17 377.19 268.21 C 374.26 273.02 371.41 277.88 368.67 282.81 C 365.27 278.22 362.93 272.96 359.74 268.24 Z" />
<path fill="#dec500" opacity="1.00" d=" M 167.14 285.87 C 176.48 285.87 185.82 285.86 195.16 285.87 C 195.09 295.15 195.35 304.44 195.03 313.72 C 185.73 313.65 176.42 313.66 167.12 313.72 C 166.97 304.45 167.25 295.15 167.14 285.87 M 178.56 291.56 C 176.07 293.68 176.01 297.33 177.59 300.03 C 174.84 302.04 172.56 304.59 170.26 307.09 C 170.70 307.50 171.58 308.32 172.03 308.73 C 175.03 306.89 177.11 303.95 179.56 301.49 C 183.49 304.23 189.37 300.69 188.83 295.98 C 189.09 290.86 182.11 288.20 178.56 291.56 Z" />
<path fill="#ffffff" opacity="1.00" d=" M 178.56 291.56 C 182.11 288.20 189.09 290.86 188.83 295.98 C 189.37 300.69 183.49 304.23 179.56 301.49 C 177.11 303.95 175.03 306.89 172.03 308.73 C 171.58 308.32 170.70 307.50 170.26 307.09 C 172.56 304.59 174.84 302.04 177.59 300.03 C 176.01 297.33 176.07 293.68 178.56 291.56 M 181.30 292.41 C 178.61 293.29 177.59 297.24 179.89 299.11 C 181.97 301.48 186.35 300.03 186.67 296.94 C 187.38 294.00 184.09 291.25 181.30 292.41 Z" />
<path fill="#dec500" opacity="1.00" d=" M 181.30 292.41 C 184.09 291.25 187.38 294.00 186.67 296.94 C 186.35 300.03 181.97 301.48 179.89 299.11 C 177.59 297.24 178.61 293.29 181.30 292.41 Z" />
</svg>
