<?xml version="1.0" encoding="UTF-8" ?>
<!DOCTYPE svg PUBLIC "-//W3C//DTD SVG 1.1//EN" "http://www.w3.org/Graphics/SVG/1.1/DTD/svg11.dtd">
<svg width="512pt" height="512pt" viewBox="0 0 512 512" version="1.1" xmlns="http://www.w3.org/2000/svg">
<path fill="#6b6b6b" opacity="1.00" d=" M 0.00 0.00 L 512.00 0.00 L 512.00 512.00 L 0.00 512.00 L 0.00 0.00 M 253.10 123.05 C 256.61 133.31 263.09 142.83 263.74 153.94 C 263.69 167.31 255.93 178.77 250.94 190.68 C 254.03 192.04 256.98 193.69 260.07 195.08 C 266.27 182.36 273.72 169.50 274.17 154.98 C 274.07 142.24 267.39 131.00 262.75 119.53 C 259.56 120.78 256.36 121.99 253.10 123.05 M 197.66 207.57 C 194.47 212.38 193.11 218.19 193.12 223.92 C 193.05 235.31 193.13 246.70 193.08 258.10 C 211.55 258.11 230.02 258.13 248.48 258.09 C 248.48 236.96 248.45 215.84 248.49 194.71 C 238.98 194.80 229.46 194.50 219.96 194.85 C 211.05 195.16 202.40 200.00 197.66 207.57 M 263.74 194.71 C 263.75 215.84 263.74 236.97 263.75 258.10 C 282.20 258.11 300.65 258.11 319.10 258.10 C 319.07 246.05 319.19 233.99 319.05 221.93 C 318.94 214.42 315.63 207.04 310.01 202.05 C 304.87 197.30 297.92 194.88 290.98 194.75 C 281.90 194.63 272.82 194.73 263.74 194.71 M 193.08 274.16 C 193.13 293.78 193.06 313.40 193.11 333.02 C 193.10 342.56 194.94 352.19 199.22 360.76 C 206.74 376.41 221.39 388.40 238.21 392.71 C 246.14 395.09 254.50 394.60 262.67 394.53 C 279.18 393.61 295.11 385.39 305.51 372.55 C 314.20 362.09 319.03 348.58 319.11 334.99 C 319.11 314.71 319.11 294.43 319.10 274.15 C 277.09 274.15 235.09 274.13 193.08 274.16 Z" />
<path fill="#ffffff" opacity="1.00" d=" M 253.10 123.05 C 256.36 121.99 259.56 120.78 262.75 119.53 C 267.39 131.00 274.07 142.24 274.17 154.98 C 273.72 169.50 266.27 182.36 260.07 195.08 C 256.98 193.69 254.03 192.04 250.94 190.68 C 255.93 178.77 263.69 167.31 263.74 153.94 C 263.09 142.83 256.61 133.31 253.10 123.05 Z" />
<path fill="#ffffff" opacity="1.00" d=" M 197.66 207.57 C 202.40 200.00 211.05 195.16 219.96 194.85 C 229.46 194.50 238.98 194.80 248.49 194.71 C 248.45 215.84 248.48 236.96 248.48 258.09 C 230.02 258.13 211.55 258.11 193.08 258.10 C 193.13 246.70 193.05 235.31 193.12 223.92 C 193.11 218.19 194.47 212.38 197.66 207.57 Z" />
<path fill="#ffffff" opacity="1.00" d=" M 263.74 194.71 C 272.82 194.73 281.90 194.63 290.98 194.75 C 297.92 194.88 304.87 197.30 310.01 202.05 C 315.63 207.04 318.94 214.42 319.05 221.93 C 319.19 233.99 319.07 246.05 319.10 258.10 C 300.65 258.11 282.20 258.11 263.75 258.10 C 263.74 236.97 263.75 215.84 263.74 194.71 Z" />
<path fill="#ffffff" opacity="1.00" d=" M 193.08 274.16 C 235.09 274.13 277.09 274.15 319.10 274.15 C 319.11 294.43 319.11 314.71 319.11 334.99 C 319.03 348.58 314.20 362.09 305.51 372.55 C 295.11 385.39 279.18 393.61 262.67 394.53 C 254.50 394.60 246.14 395.09 238.21 392.71 C 221.39 388.40 206.74 376.41 199.22 360.76 C 194.94 352.19 193.10 342.56 193.11 333.02 C 193.06 313.40 193.13 293.78 193.08 274.16 Z" />
</svg>
