<?xml version="1.0" encoding="UTF-8" ?>
<!DOCTYPE svg PUBLIC "-//W3C//DTD SVG 1.1//EN" "http://www.w3.org/Graphics/SVG/1.1/DTD/svg11.dtd">
<svg width="512pt" height="512pt" viewBox="0 0 512 512" version="1.1" xmlns="http://www.w3.org/2000/svg">
<path fill="#04aeda" opacity="1.00" d=" M 0.00 0.00 L 512.00 0.00 L 512.00 512.00 L 0.00 512.00 L 0.00 0.00 M 135.32 101.41 C 128.67 101.33 122.23 107.13 122.32 113.89 C 122.33 208.28 122.36 302.66 122.31 397.05 C 121.81 403.80 128.13 410.46 134.98 409.94 C 215.65 409.91 296.33 409.93 377.01 409.93 C 383.92 410.35 389.54 403.61 389.59 397.04 C 389.61 303.03 389.58 209.02 389.61 115.01 C 389.72 107.75 383.26 101.07 375.90 101.39 C 295.71 101.35 215.51 101.31 135.32 101.41 Z" />
<path fill="#ffffff" opacity="1.00" d=" M 135.32 101.41 C 215.51 101.31 295.71 101.35 375.90 101.39 C 383.26 101.07 389.72 107.75 389.61 115.01 C 389.58 209.02 389.61 303.03 389.59 397.04 C 389.54 403.61 383.92 410.35 377.01 409.93 C 296.33 409.93 215.65 409.91 134.98 409.94 C 128.13 410.46 121.81 403.80 122.31 397.05 C 122.36 302.66 122.33 208.28 122.32 113.89 C 122.23 107.13 128.67 101.33 135.32 101.41 M 140.32 113.45 C 136.36 115.36 133.31 119.44 133.32 123.95 C 133.04 130.21 138.61 136.20 144.98 135.90 C 151.82 136.38 157.87 129.61 156.74 122.85 C 156.19 115.30 147.16 109.98 140.32 113.45 M 361.41 113.64 C 357.49 115.50 354.91 119.65 354.67 123.95 C 354.54 130.40 360.42 136.51 367.01 135.90 C 374.67 136.04 380.68 127.15 377.57 120.10 C 375.38 113.81 367.34 110.42 361.41 113.64 M 225.85 197.91 C 225.77 208.31 225.81 218.71 225.83 229.11 C 225.59 232.02 227.90 234.87 230.86 235.01 C 237.32 235.32 243.79 234.96 250.25 235.16 C 250.27 240.70 250.26 246.23 250.25 251.77 C 230.64 251.85 211.02 251.80 191.40 251.80 C 191.39 260.16 191.43 268.53 191.38 276.89 C 185.54 276.97 179.70 276.79 173.87 276.94 C 170.71 276.86 167.95 279.79 168.15 282.94 C 167.65 293.32 168.18 303.71 168.16 314.10 C 168.05 317.14 170.87 319.96 173.93 319.75 C 189.99 319.77 206.05 319.75 222.12 319.76 C 225.33 320.12 228.28 317.21 228.14 314.02 C 228.22 303.66 228.20 293.29 228.15 282.93 C 228.37 279.62 225.41 276.66 222.10 276.92 C 215.43 276.82 208.76 276.95 202.10 276.89 C 202.08 271.32 202.10 265.75 202.07 260.18 C 237.78 260.14 273.49 260.17 309.21 260.17 C 309.21 265.74 309.22 271.31 309.20 276.88 C 302.44 276.98 295.68 276.78 288.92 276.95 C 285.85 276.99 283.25 279.92 283.35 282.95 C 283.27 292.97 283.34 302.98 283.32 313.00 C 282.98 316.25 285.45 319.90 288.95 319.74 C 304.98 319.79 321.02 319.73 337.05 319.77 C 340.39 320.22 343.60 317.37 343.49 313.99 C 343.54 303.64 343.52 293.28 343.50 282.92 C 343.65 279.97 341.13 277.13 338.17 276.99 C 332.18 276.73 326.18 277.00 320.19 276.89 C 320.16 268.54 320.19 260.18 320.18 251.82 C 300.57 251.78 280.96 251.84 261.36 251.79 C 261.36 246.23 261.33 240.67 261.39 235.12 C 267.62 235.05 273.85 235.22 280.08 235.08 C 283.23 235.16 286.07 232.23 285.69 229.04 C 285.69 218.68 285.72 208.31 285.67 197.95 C 285.93 194.91 283.10 192.12 280.09 192.27 C 264.04 192.22 248.00 192.27 231.95 192.25 C 228.77 191.93 225.66 194.66 225.85 197.91 M 141.60 375.74 C 136.90 377.31 133.20 381.92 133.32 386.98 C 133.16 393.21 138.80 398.92 145.05 398.76 C 151.70 399.02 157.67 392.65 156.78 386.00 C 156.51 378.74 148.43 373.39 141.60 375.74 M 363.37 375.63 C 358.75 376.93 355.30 381.21 354.73 385.94 C 354.08 392.67 360.10 399.29 366.98 398.75 C 374.24 398.78 380.17 390.84 377.91 383.90 C 376.31 377.80 369.47 373.79 363.37 375.63 Z" />
<path fill="#04aeda" opacity="1.00" d=" M 140.32 113.45 C 147.16 109.98 156.19 115.30 156.74 122.85 C 157.87 129.61 151.82 136.38 144.98 135.90 C 138.61 136.20 133.04 130.21 133.32 123.95 C 133.31 119.44 136.36 115.36 140.32 113.45 Z" />
<path fill="#04aeda" opacity="1.00" d=" M 361.41 113.64 C 367.34 110.42 375.38 113.81 377.57 120.10 C 380.68 127.15 374.67 136.04 367.01 135.90 C 360.42 136.51 354.54 130.40 354.67 123.95 C 354.91 119.65 357.49 115.50 361.41 113.64 Z" />
<path fill="#04aeda" opacity="1.00" d=" M 225.85 197.91 C 225.66 194.66 228.77 191.93 231.95 192.25 C 248.00 192.27 264.04 192.22 280.09 192.27 C 283.10 192.12 285.93 194.91 285.67 197.95 C 285.72 208.31 285.69 218.68 285.69 229.04 C 286.07 232.23 283.23 235.16 280.08 235.08 C 273.85 235.22 267.62 235.05 261.39 235.12 C 261.33 240.67 261.36 246.23 261.36 251.79 C 280.96 251.84 300.57 251.78 320.18 251.82 C 320.19 260.18 320.16 268.54 320.19 276.89 C 326.18 277.00 332.18 276.73 338.17 276.99 C 341.13 277.13 343.65 279.97 343.50 282.92 C 343.52 293.28 343.54 303.64 343.49 313.99 C 343.60 317.37 340.39 320.22 337.05 319.77 C 321.02 319.73 304.98 319.79 288.95 319.74 C 285.45 319.90 282.98 316.25 283.32 313.00 C 283.34 302.98 283.27 292.97 283.35 282.95 C 283.25 279.92 285.85 276.99 288.92 276.95 C 295.68 276.78 302.44 276.98 309.20 276.88 C 309.22 271.31 309.21 265.74 309.21 260.17 C 273.49 260.17 237.78 260.14 202.07 260.18 C 202.10 265.75 202.08 271.32 202.10 276.89 C 208.76 276.95 215.43 276.82 222.10 276.92 C 225.41 276.66 228.37 279.62 228.15 282.93 C 228.20 293.29 228.22 303.66 228.14 314.02 C 228.28 317.21 225.33 320.12 222.12 319.76 C 206.05 319.75 189.99 319.77 173.93 319.75 C 170.87 319.96 168.05 317.14 168.16 314.10 C 168.18 303.71 167.65 293.32 168.15 282.94 C 167.95 279.79 170.71 276.86 173.87 276.94 C 179.70 276.79 185.54 276.97 191.38 276.89 C 191.43 268.53 191.39 260.16 191.40 251.80 C 211.02 251.80 230.64 251.85 250.25 251.77 C 250.26 246.23 250.27 240.70 250.25 235.16 C 243.79 234.96 237.32 235.32 230.86 235.01 C 227.90 234.87 225.59 232.02 225.83 229.11 C 225.81 218.71 225.77 208.31 225.85 197.91 M 233.49 200.06 C 233.48 209.19 233.45 218.31 233.51 227.43 C 248.41 227.41 263.31 227.56 278.21 227.36 C 278.25 218.29 278.23 209.22 278.24 200.15 C 263.33 199.93 248.41 200.11 233.49 200.06 M 176.12 284.65 C 176.19 293.80 176.09 302.95 176.17 312.10 C 190.87 312.11 205.57 312.11 220.27 312.10 C 220.30 302.95 220.28 293.79 220.29 284.63 C 205.56 284.71 190.84 284.69 176.12 284.65 M 291.21 284.64 C 291.26 293.80 291.18 302.96 291.25 312.12 C 306.04 312.06 320.82 312.24 335.60 312.02 C 335.52 302.88 335.71 293.74 335.57 284.60 C 320.78 284.75 305.99 284.67 291.21 284.64 Z" />
<path fill="#ffffff" opacity="1.00" d=" M 233.49 200.06 C 248.41 200.11 263.33 199.93 278.24 200.15 C 278.23 209.22 278.25 218.29 278.21 227.36 C 263.31 227.56 248.41 227.41 233.51 227.43 C 233.45 218.31 233.48 209.19 233.49 200.06 Z" />
<path fill="#ffffff" opacity="1.00" d=" M 176.12 284.65 C 190.84 284.69 205.56 284.71 220.29 284.63 C 220.28 293.79 220.30 302.95 220.27 312.10 C 205.57 312.11 190.87 312.11 176.17 312.10 C 176.09 302.95 176.19 293.80 176.12 284.65 Z" />
<path fill="#ffffff" opacity="1.00" d=" M 291.21 284.64 C 305.99 284.67 320.78 284.75 335.57 284.60 C 335.71 293.74 335.52 302.88 335.60 312.02 C 320.82 312.24 306.04 312.06 291.25 312.12 C 291.18 302.96 291.26 293.80 291.21 284.64 Z" />
<path fill="#04aeda" opacity="1.00" d=" M 141.60 375.74 C 148.43 373.39 156.51 378.74 156.78 386.00 C 157.67 392.65 151.70 399.02 145.05 398.76 C 138.80 398.92 133.16 393.21 133.32 386.98 C 133.20 381.92 136.90 377.31 141.60 375.74 Z" />
<path fill="#04aeda" opacity="1.00" d=" M 363.37 375.63 C 369.47 373.79 376.31 377.80 377.91 383.90 C 380.17 390.84 374.24 398.78 366.98 398.75 C 360.10 399.29 354.08 392.67 354.73 385.94 C 355.30 381.21 358.75 376.93 363.37 375.63 Z" />
</svg>
