<?xml version="1.0" encoding="UTF-8" ?>
<!DOCTYPE svg PUBLIC "-//W3C//DTD SVG 1.1//EN" "http://www.w3.org/Graphics/SVG/1.1/DTD/svg11.dtd">
<svg width="512pt" height="512pt" viewBox="0 0 512 512" version="1.1" xmlns="http://www.w3.org/2000/svg">
<path fill="#56a1a1" opacity="1.00" d=" M 0.00 0.00 L 512.00 0.00 L 512.00 512.00 L 0.00 512.00 L 0.00 0.00 M 149.30 140.25 C 147.50 141.14 147.22 143.20 147.29 144.99 C 147.30 194.69 147.28 244.40 147.29 294.10 C 147.36 295.34 147.29 296.77 148.25 297.72 C 150.15 299.97 153.40 299.12 155.98 299.29 C 233.02 299.23 310.06 299.29 387.10 299.26 C 389.44 299.45 391.91 297.54 391.68 295.06 C 391.77 246.72 391.68 198.38 391.73 150.04 C 391.69 147.47 391.92 144.88 391.50 142.34 C 390.75 140.11 388.18 139.31 386.03 139.50 C 308.69 139.51 231.34 139.54 153.99 139.48 C 152.43 139.62 150.64 139.26 149.30 140.25 M 112.05 309.57 C 112.12 330.54 112.07 351.52 112.08 372.49 C 207.79 372.47 303.50 372.52 399.21 372.47 C 399.19 351.50 399.21 330.53 399.20 309.55 C 303.48 309.56 207.77 309.54 112.05 309.57 Z" />
<path fill="#ffffff" opacity="1.00" d=" M 149.30 140.25 C 150.64 139.26 152.43 139.62 153.99 139.48 C 231.34 139.54 308.69 139.51 386.03 139.50 C 388.18 139.31 390.75 140.11 391.50 142.34 C 391.92 144.88 391.69 147.47 391.73 150.04 C 391.68 198.38 391.77 246.72 391.68 295.06 C 391.91 297.54 389.44 299.45 387.10 299.26 C 310.06 299.29 233.02 299.23 155.98 299.29 C 153.40 299.12 150.15 299.97 148.25 297.72 C 147.29 296.77 147.36 295.34 147.29 294.10 C 147.28 244.40 147.30 194.69 147.29 144.99 C 147.22 143.20 147.50 141.14 149.30 140.25 M 193.25 167.21 C 193.27 168.96 193.28 170.71 193.30 172.46 C 244.08 172.45 294.87 172.41 345.66 172.48 C 345.67 170.71 345.67 168.95 345.69 167.19 C 294.88 167.26 244.07 167.21 193.25 167.21 M 193.33 183.84 C 193.30 185.65 193.28 187.46 193.26 189.27 C 244.06 189.30 294.86 189.22 345.65 189.31 C 345.66 187.45 345.58 185.59 345.51 183.73 C 294.78 183.99 244.05 183.76 193.33 183.84 M 193.26 198.31 C 193.26 200.05 193.27 201.80 193.28 203.55 C 244.08 203.56 294.88 203.50 345.68 203.58 C 345.68 201.81 345.68 200.05 345.68 198.29 C 294.87 198.34 244.06 198.30 193.26 198.31 M 193.27 215.37 C 193.27 217.12 193.26 218.87 193.26 220.63 C 244.07 220.63 294.88 220.59 345.68 220.65 C 345.68 218.88 345.67 217.11 345.67 215.34 C 294.87 215.43 244.07 215.37 193.27 215.37 M 153.94 245.36 C 154.22 260.36 153.84 275.35 154.16 290.33 C 231.06 290.21 307.96 290.26 384.86 290.30 C 385.11 275.34 384.92 260.37 385.02 245.40 C 307.99 245.40 230.96 245.47 153.94 245.36 Z" />
<path fill="#56a1a1" opacity="1.00" d=" M 193.25 167.21 C 244.07 167.21 294.88 167.26 345.69 167.19 C 345.67 168.95 345.67 170.71 345.66 172.48 C 294.87 172.41 244.08 172.45 193.30 172.46 C 193.28 170.71 193.27 168.96 193.25 167.21 Z" />
<path fill="#56a1a1" opacity="1.00" d=" M 193.33 183.84 C 244.05 183.76 294.78 183.99 345.51 183.73 C 345.58 185.59 345.66 187.45 345.65 189.31 C 294.86 189.22 244.06 189.30 193.26 189.27 C 193.28 187.46 193.30 185.65 193.33 183.84 Z" />
<path fill="#56a1a1" opacity="1.00" d=" M 193.26 198.31 C 244.06 198.30 294.87 198.34 345.68 198.29 C 345.68 200.05 345.68 201.81 345.68 203.58 C 294.88 203.50 244.08 203.56 193.28 203.55 C 193.27 201.80 193.26 200.05 193.26 198.31 Z" />
<path fill="#56a1a1" opacity="1.00" d=" M 193.27 215.37 C 244.07 215.37 294.87 215.43 345.67 215.34 C 345.67 217.11 345.68 218.88 345.68 220.65 C 294.88 220.59 244.07 220.63 193.26 220.63 C 193.26 218.87 193.27 217.12 193.27 215.37 Z" />
<path fill="#56a1a1" opacity="1.00" d=" M 153.94 245.36 C 230.96 245.47 307.99 245.40 385.02 245.40 C 384.92 260.37 385.11 275.34 384.86 290.30 C 307.96 290.26 231.06 290.21 154.16 290.33 C 153.84 275.35 154.22 260.36 153.94 245.36 M 193.25 264.85 C 193.23 266.68 193.21 268.51 193.20 270.35 C 244.05 270.38 294.90 270.35 345.75 270.37 C 345.72 268.52 345.70 266.69 345.68 264.85 C 294.87 264.85 244.06 264.85 193.25 264.85 Z" />
<path fill="#ffffff" opacity="1.00" d=" M 193.25 264.85 C 244.06 264.85 294.87 264.85 345.68 264.85 C 345.70 266.69 345.72 268.52 345.75 270.37 C 294.90 270.35 244.05 270.38 193.20 270.35 C 193.21 268.51 193.23 266.68 193.25 264.85 Z" />
<path fill="#ffffff" opacity="1.00" d=" M 112.05 309.57 C 207.77 309.54 303.48 309.56 399.20 309.55 C 399.21 330.53 399.19 351.50 399.21 372.47 C 303.50 372.52 207.79 372.47 112.08 372.49 C 112.07 351.52 112.12 330.54 112.05 309.57 M 147.29 341.00 C 150.88 345.22 154.34 349.55 157.88 353.82 C 162.81 353.75 167.74 353.77 172.68 353.80 C 169.15 349.54 165.63 345.28 162.14 341.00 C 165.65 336.71 169.14 332.41 172.71 328.17 C 167.77 328.22 162.83 328.23 157.89 328.16 C 154.34 332.42 150.88 336.76 147.29 341.00 M 193.78 328.20 C 193.79 336.72 193.78 345.25 193.79 353.78 C 202.37 353.78 210.96 353.76 219.55 353.79 C 219.54 345.25 219.53 336.72 219.56 328.19 C 210.97 328.22 202.37 328.20 193.78 328.20 M 277.45 330.67 C 273.95 332.29 272.75 336.45 272.60 340.01 C 272.44 343.75 272.46 347.96 274.99 350.99 C 276.68 353.24 279.99 353.28 282.42 352.39 C 285.67 350.54 286.76 346.56 286.78 343.05 C 286.84 339.25 286.99 334.77 284.12 331.85 C 282.49 329.97 279.65 329.96 277.45 330.67 M 298.72 332.68 C 295.85 336.80 296.15 342.25 296.87 346.98 C 297.38 350.21 299.98 352.48 302.98 353.42 C 304.69 352.74 306.76 352.52 308.00 351.01 C 310.95 347.73 310.78 343.00 310.60 338.88 C 310.48 335.73 309.35 332.20 306.37 330.66 C 303.73 329.75 300.39 330.27 298.72 332.68 M 315.32 333.42 C 312.96 337.81 313.07 343.23 314.25 347.95 C 314.95 350.77 317.41 352.49 320.01 353.42 C 323.67 352.92 326.76 350.26 327.34 346.53 C 327.94 342.04 328.35 337.00 325.97 332.93 C 323.70 329.01 317.32 329.49 315.32 333.42 M 338.01 352.66 C 338.70 352.66 340.09 352.67 340.78 352.67 C 341.54 350.57 342.31 348.48 343.12 346.40 C 346.22 346.46 349.32 346.46 352.42 346.42 C 353.79 348.89 353.73 353.67 357.72 352.77 C 354.69 345.43 352.14 337.89 349.00 330.61 C 348.44 330.57 347.31 330.49 346.75 330.45 C 343.49 337.71 341.00 345.29 338.01 352.66 M 360.84 330.63 C 360.84 337.92 360.86 345.21 360.83 352.51 C 361.49 352.57 362.81 352.70 363.47 352.76 C 363.52 346.51 363.38 340.27 363.53 334.03 C 366.22 340.49 369.02 346.92 372.06 353.23 C 376.04 347.36 377.93 340.36 381.24 334.10 C 381.20 340.20 381.07 346.30 381.18 352.39 C 381.77 352.51 382.94 352.75 383.53 352.87 C 383.54 345.37 383.53 337.88 383.54 330.38 C 382.81 330.44 381.35 330.56 380.63 330.61 C 377.47 336.29 375.20 342.42 372.47 348.31 C 369.23 342.61 367.20 336.31 364.29 330.44 C 363.43 330.48 361.70 330.58 360.84 330.63 M 290.44 337.40 C 289.05 339.54 291.87 340.47 293.40 339.28 C 294.41 337.17 291.13 335.23 290.44 337.40 M 290.35 350.35 C 289.33 351.98 291.13 353.64 292.73 352.67 C 294.98 351.28 291.74 348.01 290.35 350.35 Z" />
<path fill="#56a1a1" opacity="1.00" d=" M 147.29 341.00 C 150.88 336.76 154.34 332.42 157.89 328.16 C 162.83 328.23 167.77 328.22 172.71 328.17 C 169.14 332.41 165.65 336.71 162.14 341.00 C 165.63 345.28 169.15 349.54 172.68 353.80 C 167.74 353.77 162.81 353.75 157.88 353.82 C 154.34 349.55 150.88 345.22 147.29 341.00 Z" />
<path fill="#56a1a1" opacity="1.00" d=" M 193.78 328.20 C 202.37 328.20 210.97 328.22 219.56 328.19 C 219.53 336.72 219.54 345.25 219.55 353.79 C 210.96 353.76 202.37 353.78 193.79 353.78 C 193.78 345.25 193.79 336.72 193.78 328.20 Z" />
<path fill="#56a1a1" opacity="1.00" d=" M 277.45 330.67 C 279.65 329.96 282.49 329.97 284.12 331.85 C 286.99 334.77 286.84 339.25 286.78 343.05 C 286.76 346.56 285.67 350.54 282.42 352.39 C 279.99 353.28 276.68 353.24 274.99 350.99 C 272.46 347.96 272.44 343.75 272.60 340.01 C 272.75 336.45 273.95 332.29 277.45 330.67 M 277.34 333.27 C 275.01 335.50 275.27 338.98 275.16 341.93 C 275.21 344.85 275.13 348.36 277.59 350.44 C 279.79 351.54 282.75 350.66 283.45 348.14 C 284.82 343.84 284.83 338.95 283.26 334.71 C 282.51 332.28 279.08 331.47 277.34 333.27 Z" />
<path fill="#56a1a1" opacity="1.00" d=" M 298.72 332.68 C 300.39 330.27 303.73 329.75 306.37 330.66 C 309.35 332.20 310.48 335.73 310.60 338.88 C 310.78 343.00 310.95 347.73 308.00 351.01 C 306.76 352.52 304.69 352.74 302.98 353.42 C 299.98 352.48 297.38 350.21 296.87 346.98 C 296.15 342.25 295.85 336.80 298.72 332.68 M 302.44 332.48 C 300.52 333.11 299.69 335.27 299.30 337.08 C 298.51 340.94 298.43 345.17 300.12 348.81 C 301.22 351.61 305.80 351.61 306.96 348.86 C 308.79 344.65 308.60 339.73 307.38 335.37 C 306.81 333.22 304.65 331.70 302.44 332.48 Z" />
<path fill="#56a1a1" opacity="1.00" d=" M 315.32 333.42 C 317.32 329.49 323.70 329.01 325.97 332.93 C 328.35 337.00 327.94 342.04 327.34 346.53 C 326.76 350.26 323.67 352.92 320.01 353.42 C 317.41 352.49 314.95 350.77 314.25 347.95 C 313.07 343.23 312.96 337.81 315.32 333.42 M 319.43 332.51 C 315.65 334.43 316.19 339.49 316.10 343.07 C 316.19 345.90 316.47 350.45 320.08 350.85 C 322.31 351.37 324.13 349.53 324.63 347.51 C 325.75 343.36 325.73 338.76 324.21 334.72 C 323.53 332.76 321.36 331.81 319.43 332.51 Z" />
<path fill="#56a1a1" opacity="1.00" d=" M 338.01 352.66 C 341.00 345.29 343.49 337.71 346.75 330.45 C 347.31 330.49 348.44 330.57 349.00 330.61 C 352.14 337.89 354.69 345.43 357.72 352.77 C 353.73 353.67 353.79 348.89 352.42 346.42 C 349.32 346.46 346.22 346.46 343.12 346.40 C 342.31 348.48 341.54 350.57 340.78 352.67 C 340.09 352.67 338.70 352.66 338.01 352.66 M 347.78 333.60 C 346.39 337.12 345.09 340.68 343.93 344.28 C 346.52 344.29 349.12 344.29 351.72 344.29 C 350.40 340.73 349.11 337.16 347.78 333.60 Z" />
<path fill="#56a1a1" opacity="1.00" d=" M 360.84 330.63 C 361.70 330.58 363.43 330.48 364.29 330.44 C 367.20 336.31 369.23 342.61 372.47 348.31 C 375.20 342.42 377.47 336.29 380.63 330.61 C 381.35 330.56 382.81 330.44 383.54 330.38 C 383.53 337.88 383.54 345.37 383.53 352.87 C 382.94 352.75 381.77 352.51 381.18 352.39 C 381.07 346.30 381.20 340.20 381.24 334.10 C 377.93 340.36 376.04 347.36 372.06 353.23 C 369.02 346.92 366.22 340.49 363.53 334.03 C 363.38 340.27 363.52 346.51 363.47 352.76 C 362.81 352.70 361.49 352.57 360.83 352.51 C 360.86 345.21 360.84 337.92 360.84 330.63 Z" />
<path fill="#ffffff" opacity="1.00" d=" M 302.44 332.48 C 304.65 331.70 306.81 333.22 307.38 335.37 C 308.60 339.73 308.79 344.65 306.96 348.86 C 305.80 351.61 301.22 351.61 300.12 348.81 C 298.43 345.17 298.51 340.94 299.30 337.08 C 299.69 335.27 300.52 333.11 302.44 332.48 Z" />
<path fill="#ffffff" opacity="1.00" d=" M 319.43 332.51 C 321.36 331.81 323.53 332.76 324.21 334.72 C 325.73 338.76 325.75 343.36 324.63 347.51 C 324.13 349.53 322.31 351.37 320.08 350.85 C 316.47 350.45 316.19 345.90 316.10 343.07 C 316.19 339.49 315.65 334.43 319.43 332.51 Z" />
<path fill="#ffffff" opacity="1.00" d=" M 277.34 333.27 C 279.08 331.47 282.51 332.28 283.26 334.71 C 284.83 338.95 284.82 343.84 283.45 348.14 C 282.75 350.66 279.79 351.54 277.59 350.44 C 275.13 348.36 275.21 344.85 275.16 341.93 C 275.27 338.98 275.01 335.50 277.34 333.27 Z" />
<path fill="#ffffff" opacity="1.00" d=" M 347.78 333.60 C 349.11 337.16 350.40 340.73 351.72 344.29 C 349.12 344.29 346.52 344.29 343.93 344.28 C 345.09 340.68 346.39 337.12 347.78 333.60 Z" />
<path fill="#56a1a1" opacity="1.00" d=" M 290.44 337.40 C 291.13 335.23 294.41 337.17 293.40 339.28 C 291.87 340.47 289.05 339.54 290.44 337.40 Z" />
<path fill="#56a1a1" opacity="1.00" d=" M 290.35 350.35 C 291.74 348.01 294.98 351.28 292.73 352.67 C 291.13 353.64 289.33 351.98 290.35 350.35 Z" />
</svg>
