<?xml version="1.0" encoding="UTF-8" ?>
<!DOCTYPE svg PUBLIC "-//W3C//DTD SVG 1.1//EN" "http://www.w3.org/Graphics/SVG/1.1/DTD/svg11.dtd">
<svg width="512pt" height="512pt" viewBox="0 0 512 512" version="1.1" xmlns="http://www.w3.org/2000/svg">
<path fill="#009f3c" opacity="1.00" d=" M 0.00 0.00 L 512.00 0.00 L 512.00 512.00 L 0.00 512.00 L 0.00 0.00 M 142.08 128.23 C 140.57 128.49 139.04 128.69 137.51 128.82 C 137.37 129.86 137.28 130.90 137.25 131.95 C 137.28 183.98 137.28 236.00 137.25 288.03 C 137.02 291.83 138.13 295.51 139.08 299.15 C 145.06 321.95 160.38 340.91 177.58 356.44 C 200.70 376.83 227.73 392.41 256.00 404.49 C 278.87 394.78 300.77 382.64 320.66 367.72 C 337.60 354.81 353.28 339.62 363.93 321.01 C 369.23 311.41 373.38 300.92 374.73 290.00 C 374.61 236.29 374.99 182.55 374.54 128.85 C 371.72 128.61 368.95 128.07 366.20 127.49 C 331.44 120.81 296.67 114.21 261.92 107.46 C 259.61 107.06 257.31 106.18 254.94 106.48 C 217.35 113.91 179.69 120.90 142.08 128.23 Z" />
<path fill="#ffffff" opacity="1.00" d=" M 142.08 128.23 C 179.69 120.90 217.35 113.91 254.94 106.48 C 257.31 106.18 259.61 107.06 261.92 107.46 C 296.67 114.21 331.44 120.81 366.20 127.49 C 368.95 128.07 371.72 128.61 374.54 128.85 C 374.99 182.55 374.61 236.29 374.73 290.00 C 373.38 300.92 369.23 311.41 363.93 321.01 C 353.28 339.62 337.60 354.81 320.66 367.72 C 300.77 382.64 278.87 394.78 256.00 404.49 C 227.73 392.41 200.70 376.83 177.58 356.44 C 160.38 340.91 145.06 321.95 139.08 299.15 C 138.13 295.51 137.02 291.83 137.25 288.03 C 137.28 236.00 137.28 183.98 137.25 131.95 C 137.28 130.90 137.37 129.86 137.51 128.82 C 139.04 128.69 140.57 128.49 142.08 128.23 M 215.20 139.13 C 204.04 140.69 193.86 147.69 188.24 157.43 C 182.47 167.11 181.56 179.44 185.60 189.93 C 188.89 198.36 195.22 205.63 203.30 209.75 C 212.36 214.65 223.45 215.36 233.15 212.01 C 243.41 208.49 251.95 200.27 255.89 190.15 C 259.48 181.06 259.38 170.53 255.43 161.57 C 249.11 146.16 231.67 136.25 215.20 139.13 M 178.01 230.07 C 171.97 234.08 166.33 240.38 166.51 248.06 C 166.54 257.32 166.47 266.59 166.56 275.85 C 201.67 275.76 236.78 275.75 271.89 275.85 C 259.15 265.09 256.39 245.01 265.12 230.95 C 252.39 221.86 236.32 219.18 221.01 218.77 C 206.12 219.09 190.65 221.75 178.01 230.07 M 293.98 218.84 C 280.50 219.33 268.12 229.63 265.45 242.89 C 262.90 253.40 266.88 265.04 274.97 272.13 C 282.83 279.44 294.71 281.67 304.83 278.35 C 317.86 274.22 326.99 260.58 325.64 246.94 C 324.73 231.09 309.81 217.94 293.98 218.84 M 263.77 291.61 C 257.77 294.77 251.51 299.74 250.72 306.95 C 250.47 314.91 250.70 322.89 250.61 330.87 C 280.32 330.82 310.03 330.83 339.74 330.86 C 339.68 323.22 339.75 315.58 339.71 307.94 C 339.82 303.06 336.68 298.87 333.12 295.87 C 326.41 290.31 317.88 287.53 309.45 285.88 C 294.16 283.35 277.76 284.53 263.77 291.61 Z" />
<path fill="#009f3c" opacity="1.00" d=" M 215.20 139.13 C 231.67 136.25 249.11 146.16 255.43 161.57 C 259.38 170.53 259.48 181.06 255.89 190.15 C 251.95 200.27 243.41 208.49 233.15 212.01 C 223.45 215.36 212.36 214.65 203.30 209.75 C 195.22 205.63 188.89 198.36 185.60 189.93 C 181.56 179.44 182.47 167.11 188.24 157.43 C 193.86 147.69 204.04 140.69 215.20 139.13 Z" />
<path fill="#009f3c" opacity="1.00" d=" M 178.01 230.07 C 190.65 221.75 206.12 219.09 221.01 218.77 C 236.32 219.18 252.39 221.86 265.12 230.95 C 256.39 245.01 259.15 265.09 271.89 275.85 C 236.78 275.75 201.67 275.76 166.56 275.85 C 166.47 266.59 166.54 257.32 166.51 248.06 C 166.33 240.38 171.97 234.08 178.01 230.07 Z" />
<path fill="#009f3c" opacity="1.00" d=" M 293.98 218.84 C 309.81 217.94 324.73 231.09 325.64 246.94 C 326.99 260.58 317.86 274.22 304.83 278.35 C 294.71 281.67 282.83 279.44 274.97 272.13 C 266.88 265.04 262.90 253.40 265.45 242.89 C 268.12 229.63 280.50 219.33 293.98 218.84 Z" />
<path fill="#009f3c" opacity="1.00" d=" M 263.77 291.61 C 277.76 284.53 294.16 283.35 309.45 285.88 C 317.88 287.53 326.41 290.31 333.12 295.87 C 336.68 298.87 339.82 303.06 339.71 307.94 C 339.75 315.58 339.68 323.22 339.74 330.86 C 310.03 330.83 280.32 330.82 250.61 330.87 C 250.70 322.89 250.47 314.91 250.72 306.95 C 251.51 299.74 257.77 294.77 263.77 291.61 Z" />
</svg>
