<?xml version="1.0" encoding="UTF-8" ?>
<!DOCTYPE svg PUBLIC "-//W3C//DTD SVG 1.1//EN" "http://www.w3.org/Graphics/SVG/1.1/DTD/svg11.dtd">
<svg width="512pt" height="512pt" viewBox="0 0 512 512" version="1.1" xmlns="http://www.w3.org/2000/svg">
<path fill="#813dde" opacity="1.00" d=" M 0.00 0.00 L 512.00 0.00 L 512.00 512.00 L 0.00 512.00 L 0.00 0.00 M 128.12 137.19 C 126.20 137.93 124.81 139.81 125.13 141.92 C 125.14 200.29 125.13 258.65 125.13 317.02 C 124.73 319.74 127.29 322.21 130.00 321.69 C 214.02 321.67 298.05 321.72 382.07 321.67 C 384.62 321.99 386.38 319.40 386.05 317.06 C 386.07 258.72 386.05 200.37 386.06 142.03 C 386.44 139.57 384.72 136.87 382.04 137.03 C 318.37 136.95 254.70 137.05 191.04 136.99 C 170.07 137.15 149.06 136.74 128.12 137.19 M 229.34 325.26 C 229.41 336.58 229.26 347.90 229.42 359.22 C 246.81 359.20 264.20 359.09 281.59 359.28 C 281.90 347.94 281.62 336.60 281.73 325.26 C 264.27 325.28 246.81 325.28 229.34 325.26 M 198.16 344.28 C 195.92 354.65 192.70 364.77 190.48 375.14 C 233.81 375.14 277.14 375.12 320.47 375.14 C 317.84 364.88 315.48 354.56 312.93 344.28 C 304.36 344.33 295.78 343.98 287.23 344.46 C 289.08 350.43 290.42 356.55 291.93 362.62 C 267.57 362.61 243.20 362.62 218.84 362.61 C 220.43 356.53 221.72 350.36 223.55 344.34 C 215.09 344.14 206.62 344.25 198.16 344.28 Z" />
<path fill="#ffffff" opacity="1.00" d=" M 128.12 137.19 C 149.06 136.74 170.07 137.15 191.04 136.99 C 254.70 137.05 318.37 136.95 382.04 137.03 C 384.72 136.87 386.44 139.57 386.06 142.03 C 386.05 200.37 386.07 258.72 386.05 317.06 C 386.38 319.40 384.62 321.99 382.07 321.67 C 298.05 321.72 214.02 321.67 130.00 321.69 C 127.29 322.21 124.73 319.74 125.13 317.02 C 125.13 258.65 125.14 200.29 125.13 141.92 C 124.81 139.81 126.20 137.93 128.12 137.19 M 133.22 293.31 C 214.90 293.53 296.58 293.41 378.26 293.37 C 378.23 243.85 378.27 194.33 378.24 144.81 C 296.65 144.70 215.07 144.90 133.48 144.71 C 133.10 194.24 133.62 243.78 133.22 293.31 Z" />
<path fill="#813dde" opacity="1.00" d=" M 133.22 293.31 C 133.62 243.78 133.10 194.24 133.48 144.71 C 215.07 144.90 296.65 144.70 378.24 144.81 C 378.27 194.33 378.23 243.85 378.26 293.37 C 296.58 293.41 214.90 293.53 133.22 293.31 M 140.09 155.40 C 139.53 162.26 139.95 169.16 139.81 176.03 C 139.63 179.77 144.60 180.07 146.22 182.85 C 149.38 189.33 151.75 196.20 155.28 202.52 C 156.94 206.10 158.52 209.80 161.04 212.89 C 166.90 219.12 172.49 225.76 179.67 230.53 C 182.74 231.15 185.93 231.67 189.06 231.10 C 191.67 229.96 194.03 227.98 197.05 228.10 C 199.50 227.66 201.37 229.50 203.37 230.55 C 206.29 232.24 209.98 233.05 211.97 236.00 C 215.28 240.28 217.92 245.46 222.97 247.98 C 226.16 249.49 229.17 252.59 232.99 251.69 C 234.93 250.68 236.62 249.26 238.51 248.15 C 241.08 243.22 243.14 238.04 245.48 233.00 C 249.12 236.47 252.69 240.03 256.07 243.77 C 250.72 246.19 245.27 248.42 239.96 250.93 C 236.58 252.78 233.23 256.06 229.03 254.46 C 224.28 252.40 219.64 249.79 215.83 246.24 C 213.20 243.18 211.27 239.55 208.54 236.57 C 206.55 235.02 203.98 234.47 201.86 233.13 C 200.31 232.29 198.89 230.78 196.96 231.13 C 193.60 231.06 191.33 234.34 187.96 234.25 C 185.06 234.34 182.14 234.15 179.30 233.55 C 170.71 228.78 164.65 220.81 157.96 213.83 C 152.78 205.27 148.86 196.01 144.87 186.85 C 144.30 184.31 142.07 182.81 139.85 181.81 C 139.78 211.64 139.87 241.46 139.82 271.29 C 194.64 271.37 249.46 271.31 304.28 271.29 C 304.28 244.27 304.28 217.25 304.28 190.22 C 292.07 204.44 280.49 219.21 268.02 233.19 C 264.27 229.03 260.15 225.23 256.28 221.18 C 271.90 208.46 287.40 195.59 303.02 182.87 C 303.99 182.21 304.42 181.30 304.30 180.11 C 304.32 171.90 304.25 163.68 304.32 155.47 C 249.57 155.38 194.83 155.52 140.09 155.40 M 306.11 192.44 C 306.09 217.97 306.08 243.50 306.11 269.03 C 305.85 270.52 306.62 273.54 304.15 273.11 C 285.88 273.17 267.60 273.11 249.32 273.14 C 249.33 276.28 249.32 279.44 249.29 282.59 C 289.96 282.58 330.63 282.65 371.30 282.55 C 371.26 252.53 371.26 222.51 371.29 192.50 C 349.56 192.39 327.83 192.50 306.11 192.44 Z" />
<path fill="#ffffff" opacity="1.00" d=" M 140.09 155.40 C 194.83 155.52 249.57 155.38 304.32 155.47 C 304.25 163.68 304.32 171.90 304.30 180.11 C 304.42 181.30 303.99 182.21 303.02 182.87 C 287.40 195.59 271.90 208.46 256.28 221.18 C 260.15 225.23 264.27 229.03 268.02 233.19 C 280.49 219.21 292.07 204.44 304.28 190.22 C 304.28 217.25 304.28 244.27 304.28 271.29 C 249.46 271.31 194.64 271.37 139.82 271.29 C 139.87 241.46 139.78 211.64 139.85 181.81 C 142.07 182.81 144.30 184.31 144.87 186.85 C 148.86 196.01 152.78 205.27 157.96 213.83 C 164.65 220.81 170.71 228.78 179.30 233.55 C 182.14 234.15 185.06 234.34 187.96 234.25 C 191.33 234.34 193.60 231.06 196.96 231.13 C 198.89 230.78 200.31 232.29 201.86 233.13 C 203.98 234.47 206.55 235.02 208.54 236.57 C 211.27 239.55 213.20 243.18 215.83 246.24 C 219.64 249.79 224.28 252.40 229.03 254.46 C 233.23 256.06 236.58 252.78 239.96 250.93 C 245.27 248.42 250.72 246.19 256.07 243.77 C 252.69 240.03 249.12 236.47 245.48 233.00 C 243.14 238.04 241.08 243.22 238.51 248.15 C 236.62 249.26 234.93 250.68 232.99 251.69 C 229.17 252.59 226.16 249.49 222.97 247.98 C 217.92 245.46 215.28 240.28 211.97 236.00 C 209.98 233.05 206.29 232.24 203.37 230.55 C 201.37 229.50 199.50 227.66 197.05 228.10 C 194.03 227.98 191.67 229.96 189.06 231.10 C 185.93 231.67 182.74 231.15 179.67 230.53 C 172.49 225.76 166.90 219.12 161.04 212.89 C 158.52 209.80 156.94 206.10 155.28 202.52 C 151.75 196.20 149.38 189.33 146.22 182.85 C 144.60 180.07 139.63 179.77 139.81 176.03 C 139.95 169.16 139.53 162.26 140.09 155.40 M 246.32 231.31 C 250.12 235.34 254.10 239.19 257.99 243.13 C 260.94 240.15 263.95 237.23 266.87 234.22 C 262.91 230.39 259.10 226.41 255.15 222.56 C 252.27 225.54 249.37 228.50 246.32 231.31 Z" />
<path fill="#ffffff" opacity="1.00" d=" M 306.11 192.44 C 327.83 192.50 349.56 192.39 371.29 192.50 C 371.26 222.51 371.26 252.53 371.30 282.55 C 330.63 282.65 289.96 282.58 249.29 282.59 C 249.32 279.44 249.33 276.28 249.32 273.14 C 267.60 273.11 285.88 273.17 304.15 273.11 C 306.62 273.54 305.85 270.52 306.11 269.03 C 306.08 243.50 306.09 217.97 306.11 192.44 Z" />
<path fill="#813dde" opacity="1.00" d=" M 246.32 231.31 C 249.37 228.50 252.27 225.54 255.15 222.56 C 259.10 226.41 262.91 230.39 266.87 234.22 C 263.95 237.23 260.94 240.15 257.99 243.13 C 254.10 239.19 250.12 235.34 246.32 231.31 Z" />
<path fill="#ffffff" opacity="1.00" d=" M 229.34 325.26 C 246.81 325.28 264.27 325.28 281.73 325.26 C 281.62 336.60 281.90 347.94 281.59 359.28 C 264.20 359.09 246.81 359.20 229.42 359.22 C 229.26 347.90 229.41 336.58 229.34 325.26 Z" />
<path fill="#ffffff" opacity="1.00" d=" M 198.16 344.28 C 206.62 344.25 215.09 344.14 223.55 344.34 C 221.72 350.36 220.43 356.53 218.84 362.61 C 243.20 362.62 267.57 362.61 291.93 362.62 C 290.42 356.55 289.08 350.43 287.23 344.46 C 295.78 343.98 304.36 344.33 312.93 344.28 C 315.48 354.56 317.84 364.88 320.47 375.14 C 277.14 375.12 233.81 375.14 190.48 375.14 C 192.70 364.77 195.92 354.65 198.16 344.28 Z" />
</svg>
