<?xml version="1.0" encoding="UTF-8" ?>
<!DOCTYPE svg PUBLIC "-//W3C//DTD SVG 1.1//EN" "http://www.w3.org/Graphics/SVG/1.1/DTD/svg11.dtd">
<svg width="512pt" height="512pt" viewBox="0 0 512 512" version="1.1" xmlns="http://www.w3.org/2000/svg">
<path fill="#00aeef" opacity="1.00" d=" M 0.00 0.00 L 512.00 0.00 L 512.00 512.00 L 0.00 512.00 L 0.00 0.00 M 173.21 125.38 C 173.25 155.02 173.23 184.66 173.21 214.30 C 203.41 214.28 233.61 214.34 263.81 214.28 C 263.75 194.78 263.79 175.29 263.79 155.80 C 286.32 155.77 308.85 155.81 331.39 155.78 C 331.38 219.74 331.47 283.70 331.38 347.66 C 340.38 347.53 349.38 347.63 358.38 347.60 C 358.35 285.62 358.35 223.64 358.38 161.67 C 349.32 159.36 340.21 157.22 331.18 154.82 C 328.86 154.57 328.88 151.84 328.29 150.12 C 326.36 141.86 324.16 133.66 322.21 125.40 C 272.54 125.36 222.87 125.40 173.21 125.38 M 326.08 128.90 C 327.70 136.71 329.89 144.39 331.76 152.14 C 339.51 153.86 347.11 156.25 354.92 157.71 C 345.32 148.09 335.80 138.39 326.08 128.90 M 154.47 218.43 C 154.53 261.48 154.52 304.54 154.48 347.60 C 212.18 347.61 269.88 347.56 327.58 347.62 C 327.57 304.55 327.56 261.48 327.59 218.41 C 269.88 218.45 212.18 218.42 154.47 218.43 M 108.55 300.15 C 108.59 329.40 108.55 358.65 108.58 387.90 C 206.94 387.84 305.29 387.87 403.65 387.89 C 403.67 358.64 403.61 329.40 403.69 300.15 C 392.86 299.95 382.03 300.42 371.21 299.83 C 370.90 318.33 371.54 336.86 370.90 355.34 C 294.36 355.23 217.81 355.32 141.27 355.30 C 141.31 336.94 141.18 318.59 141.34 300.24 C 136.90 299.91 132.45 300.39 128.01 300.03 C 121.53 299.46 115.04 300.48 108.55 300.15 Z" />
<path fill="#ffffff" opacity="1.00" d=" M 173.21 125.38 C 222.87 125.40 272.54 125.36 322.21 125.40 C 324.16 133.66 326.36 141.86 328.29 150.12 C 328.88 151.84 328.86 154.57 331.18 154.82 C 340.21 157.22 349.32 159.36 358.38 161.67 C 358.35 223.64 358.35 285.62 358.38 347.60 C 349.38 347.63 340.38 347.53 331.38 347.66 C 331.47 283.70 331.38 219.74 331.39 155.78 C 308.85 155.81 286.32 155.77 263.79 155.80 C 263.79 175.29 263.75 194.78 263.81 214.28 C 233.61 214.34 203.41 214.28 173.21 214.30 C 173.23 184.66 173.25 155.02 173.21 125.38 M 199.75 155.80 C 199.74 158.60 199.75 161.41 199.76 164.21 C 218.28 164.22 236.80 164.21 255.32 164.22 C 255.33 161.41 255.34 158.60 255.33 155.79 C 236.80 155.80 218.28 155.78 199.75 155.80 M 199.74 175.56 C 199.75 178.26 199.74 180.97 199.73 183.69 C 218.27 183.70 236.81 183.69 255.36 183.70 C 255.34 180.98 255.33 178.26 255.34 175.54 C 236.81 175.54 218.27 175.51 199.74 175.56 M 199.75 195.31 C 199.76 198.08 199.73 200.85 199.69 203.62 C 218.23 203.84 236.78 203.63 255.32 203.73 C 255.32 200.92 255.34 198.12 255.36 195.32 C 236.82 195.28 218.29 195.31 199.75 195.31 Z" />
<path fill="#ffffff" opacity="1.00" d=" M 326.08 128.90 C 335.80 138.39 345.32 148.09 354.92 157.71 C 347.11 156.25 339.51 153.86 331.76 152.14 C 329.89 144.39 327.70 136.71 326.08 128.90 Z" />
<path fill="#00aeef" opacity="1.00" d=" M 199.75 155.80 C 218.28 155.78 236.80 155.80 255.33 155.79 C 255.34 158.60 255.33 161.41 255.32 164.22 C 236.80 164.21 218.28 164.22 199.76 164.21 C 199.75 161.41 199.74 158.60 199.75 155.80 Z" />
<path fill="#00aeef" opacity="1.00" d=" M 199.74 175.56 C 218.27 175.51 236.81 175.54 255.34 175.54 C 255.33 178.26 255.34 180.98 255.36 183.70 C 236.81 183.69 218.27 183.70 199.73 183.69 C 199.74 180.97 199.75 178.26 199.74 175.56 Z" />
<path fill="#00aeef" opacity="1.00" d=" M 199.75 195.31 C 218.29 195.31 236.82 195.28 255.36 195.32 C 255.34 198.12 255.32 200.92 255.32 203.73 C 236.78 203.63 218.23 203.84 199.69 203.62 C 199.73 200.85 199.76 198.08 199.75 195.31 Z" />
<path fill="#ffffff" opacity="1.00" d=" M 154.47 218.43 C 212.18 218.42 269.88 218.45 327.59 218.41 C 327.56 261.48 327.57 304.55 327.58 347.62 C 269.88 347.56 212.18 347.61 154.48 347.60 C 154.52 304.54 154.53 261.48 154.47 218.43 M 167.30 231.45 C 167.04 265.84 167.10 300.24 167.26 334.63 C 168.81 334.87 170.36 335.14 171.93 335.17 C 217.27 335.14 262.61 335.13 307.96 335.18 C 310.15 335.05 312.56 335.57 314.58 334.48 C 315.72 331.81 315.01 328.78 315.19 325.97 C 315.15 295.30 315.22 264.63 315.16 233.96 C 315.55 231.48 313.06 230.59 311.05 230.82 C 267.01 230.84 222.97 230.82 178.93 230.83 C 175.05 230.86 171.11 230.49 167.30 231.45 Z" />
<path fill="#00aeef" opacity="1.00" d=" M 167.30 231.45 C 171.11 230.49 175.05 230.86 178.93 230.83 C 222.97 230.82 267.01 230.84 311.05 230.82 C 313.06 230.59 315.55 231.48 315.16 233.96 C 315.22 264.63 315.15 295.30 315.19 325.97 C 315.01 328.78 315.72 331.81 314.58 334.48 C 312.56 335.57 310.15 335.05 307.96 335.18 C 262.61 335.13 217.27 335.14 171.93 335.17 C 170.36 335.14 168.81 334.87 167.26 334.63 C 167.10 300.24 167.04 265.84 167.30 231.45 M 209.15 259.02 C 206.84 267.42 212.79 276.73 221.19 278.62 C 225.94 279.96 230.99 278.59 235.07 276.02 C 235.64 270.72 237.92 265.66 241.77 261.94 C 241.39 254.03 234.79 247.08 226.88 246.45 C 218.92 245.47 210.86 251.21 209.15 259.02 M 253.38 261.64 C 246.26 263.09 240.58 269.69 240.44 277.00 C 239.96 284.65 245.65 292.10 253.16 293.61 C 257.30 294.18 261.90 294.04 265.44 291.53 C 271.46 287.83 274.69 279.95 272.47 273.16 C 270.37 265.11 261.49 259.76 253.38 261.64 M 216.55 285.32 C 210.61 286.59 203.56 288.93 201.02 295.00 C 200.33 299.47 200.90 304.04 200.71 308.55 C 209.58 308.60 218.45 308.55 227.33 308.58 C 230.00 301.32 237.36 297.73 244.21 295.39 C 240.77 292.91 238.34 289.41 236.31 285.75 C 229.82 284.39 223.07 283.97 216.55 285.32 M 235.68 305.67 C 230.31 310.03 233.15 317.60 232.43 323.50 C 248.69 323.46 264.95 323.59 281.21 323.44 C 280.84 318.52 282.05 313.32 280.28 308.61 C 276.39 302.57 268.76 300.63 262.06 299.71 C 253.03 298.89 243.01 299.85 235.68 305.67 Z" />
<path fill="#ffffff" opacity="1.00" d=" M 209.15 259.02 C 210.86 251.21 218.92 245.47 226.88 246.45 C 234.79 247.08 241.39 254.03 241.77 261.94 C 237.92 265.66 235.64 270.72 235.07 276.02 C 230.99 278.59 225.94 279.96 221.19 278.62 C 212.79 276.73 206.84 267.42 209.15 259.02 Z" />
<path fill="#ffffff" opacity="1.00" d=" M 253.38 261.64 C 261.49 259.76 270.37 265.11 272.47 273.16 C 274.69 279.95 271.46 287.83 265.44 291.53 C 261.90 294.04 257.30 294.18 253.16 293.61 C 245.65 292.10 239.96 284.65 240.44 277.00 C 240.58 269.69 246.26 263.09 253.38 261.64 Z" />
<path fill="#ffffff" opacity="1.00" d=" M 216.55 285.32 C 223.07 283.97 229.82 284.39 236.31 285.75 C 238.34 289.41 240.77 292.91 244.21 295.39 C 237.36 297.73 230.00 301.32 227.33 308.58 C 218.45 308.55 209.58 308.60 200.71 308.55 C 200.90 304.04 200.33 299.47 201.02 295.00 C 203.56 288.93 210.61 286.59 216.55 285.32 Z" />
<path fill="#ffffff" opacity="1.00" d=" M 108.55 300.15 C 115.04 300.48 121.53 299.46 128.01 300.03 C 132.45 300.39 136.90 299.91 141.34 300.24 C 141.18 318.59 141.31 336.94 141.27 355.30 C 217.81 355.32 294.36 355.23 370.90 355.34 C 371.54 336.86 370.90 318.33 371.21 299.83 C 382.03 300.42 392.86 299.95 403.69 300.15 C 403.61 329.40 403.67 358.64 403.65 387.89 C 305.29 387.87 206.94 387.84 108.58 387.90 C 108.55 358.65 108.59 329.40 108.55 300.15 Z" />
<path fill="#ffffff" opacity="1.00" d=" M 235.68 305.67 C 243.01 299.85 253.03 298.89 262.06 299.71 C 268.76 300.63 276.39 302.57 280.28 308.61 C 282.05 313.32 280.84 318.52 281.21 323.44 C 264.95 323.59 248.69 323.46 232.43 323.50 C 233.15 317.60 230.31 310.03 235.68 305.67 Z" />
</svg>
