<?xml version="1.0" encoding="UTF-8" ?>
<!DOCTYPE svg PUBLIC "-//W3C//DTD SVG 1.1//EN" "http://www.w3.org/Graphics/SVG/1.1/DTD/svg11.dtd">
<svg width="512pt" height="512pt" viewBox="0 0 512 512" version="1.1" xmlns="http://www.w3.org/2000/svg">
<path fill="#00cf00" opacity="1.00" d=" M 0.00 0.00 L 512.00 0.00 L 512.00 512.00 L 0.00 512.00 L 0.00 0.00 M 167.83 182.21 C 167.80 245.49 167.78 308.76 167.84 372.03 C 168.02 382.93 175.73 392.87 185.91 396.43 C 190.42 398.19 195.33 397.75 200.07 397.79 C 237.39 397.79 274.72 397.78 312.05 397.79 C 316.29 397.77 320.68 398.10 324.74 396.58 C 335.58 393.15 343.41 382.35 343.37 370.98 C 343.48 308.04 343.27 245.11 343.49 182.17 C 284.94 182.24 226.38 182.16 167.83 182.21 Z" />
<path fill="#ffffff" opacity="1.00" d=" M 167.83 182.21 C 226.38 182.16 284.94 182.24 343.49 182.17 C 343.27 245.11 343.48 308.04 343.37 370.98 C 343.41 382.35 335.58 393.15 324.74 396.58 C 320.68 398.10 316.29 397.77 312.05 397.79 C 274.72 397.78 237.39 397.79 200.07 397.79 C 195.33 397.75 190.42 398.19 185.91 396.43 C 175.73 392.87 168.02 382.93 167.84 372.03 C 167.78 308.76 167.80 245.49 167.83 182.21 M 202.39 207.56 C 198.40 208.76 195.52 212.85 195.77 217.02 C 195.81 265.70 195.75 314.37 195.80 363.05 C 195.81 369.67 204.07 374.18 209.59 370.48 C 212.94 368.61 214.29 364.70 214.18 361.04 C 214.19 313.01 214.21 264.98 214.17 216.95 C 214.52 210.88 208.31 205.70 202.39 207.56 M 253.39 207.59 C 249.45 208.82 246.49 212.79 246.72 216.97 C 246.72 265.28 246.72 313.60 246.72 361.91 C 246.30 367.01 250.80 372.08 256.02 371.67 C 261.09 371.89 265.27 366.85 264.90 361.94 C 264.91 313.63 264.93 265.34 264.90 217.03 C 265.52 211.01 259.20 205.78 253.39 207.59 M 304.38 207.56 C 300.32 208.67 297.40 212.81 297.60 216.99 C 297.64 263.99 297.62 311.00 297.61 358.00 C 297.69 361.01 297.14 364.28 298.78 367.01 C 301.10 371.70 307.91 373.30 312.02 370.03 C 314.58 368.23 316.04 365.14 315.77 362.02 C 315.80 313.69 315.78 265.35 315.78 217.02 C 316.53 211.01 310.14 205.80 304.38 207.56 Z" />
<path fill="#00cf00" opacity="1.00" d=" M 202.39 207.56 C 208.31 205.70 214.52 210.88 214.17 216.95 C 214.21 264.98 214.19 313.01 214.18 361.04 C 214.29 364.70 212.94 368.61 209.59 370.48 C 204.07 374.18 195.81 369.67 195.80 363.05 C 195.75 314.37 195.81 265.70 195.77 217.02 C 195.52 212.85 198.40 208.76 202.39 207.56 Z" />
<path fill="#00cf00" opacity="1.00" d=" M 253.39 207.59 C 259.20 205.78 265.52 211.01 264.90 217.03 C 264.93 265.34 264.91 313.63 264.90 361.94 C 265.27 366.85 261.09 371.89 256.02 371.67 C 250.80 372.08 246.30 367.01 246.72 361.91 C 246.72 313.60 246.72 265.28 246.72 216.97 C 246.49 212.79 249.45 208.82 253.39 207.59 Z" />
<path fill="#00cf00" opacity="1.00" d=" M 304.38 207.56 C 310.14 205.80 316.53 211.01 315.78 217.02 C 315.78 265.35 315.80 313.69 315.77 362.02 C 316.04 365.14 314.58 368.23 312.02 370.03 C 307.91 373.30 301.10 371.70 298.78 367.01 C 297.14 364.28 297.69 361.01 297.61 358.00 C 297.62 311.00 297.64 263.99 297.60 216.99 C 297.40 212.81 300.32 208.67 304.38 207.56 Z" />
</svg>
