<?xml version="1.0" encoding="UTF-8" ?>
<!DOCTYPE svg PUBLIC "-//W3C//DTD SVG 1.1//EN" "http://www.w3.org/Graphics/SVG/1.1/DTD/svg11.dtd">
<svg width="512pt" height="512pt" viewBox="0 0 512 512" version="1.1" xmlns="http://www.w3.org/2000/svg">
<path fill="#00a9ec" opacity="1.00" d=" M 0.00 0.00 L 512.00 0.00 L 512.00 512.00 L 0.00 512.00 L 0.00 0.00 M 181.30 140.99 C 181.30 217.66 181.31 294.34 181.30 371.01 C 195.49 371.01 209.70 371.31 223.87 370.86 C 224.37 361.58 223.98 352.26 224.06 342.97 C 224.07 275.66 224.11 208.36 224.05 141.05 C 209.80 140.82 195.55 140.92 181.30 140.99 M 287.89 168.67 C 288.03 236.13 287.76 303.59 288.05 371.04 C 302.44 371.10 316.83 371.06 331.22 371.06 C 331.25 303.59 331.22 236.12 331.24 168.65 C 316.79 168.65 302.34 168.62 287.89 168.67 M 127.92 185.70 C 127.92 247.45 127.93 309.21 127.92 370.96 C 142.08 371.22 156.24 371.00 170.41 371.07 C 170.45 309.28 170.41 247.48 170.43 185.68 C 156.26 185.72 142.09 185.69 127.92 185.70 M 234.79 219.54 C 234.80 270.00 234.82 320.45 234.78 370.90 C 249.05 371.21 263.33 371.11 277.60 370.96 C 277.54 320.47 277.61 269.98 277.57 219.50 C 263.31 219.57 249.05 219.48 234.79 219.54 M 341.57 258.67 C 341.60 296.14 341.55 333.61 341.59 371.07 C 355.72 371.07 369.84 371.06 383.97 371.08 C 384.23 333.62 384.00 296.15 384.08 258.68 C 369.91 258.67 355.74 258.70 341.57 258.67 Z" />
<path fill="#ffffff" opacity="1.00" d=" M 181.30 140.99 C 195.55 140.92 209.80 140.82 224.05 141.05 C 224.11 208.36 224.07 275.66 224.06 342.97 C 223.98 352.26 224.37 361.58 223.87 370.86 C 209.70 371.31 195.49 371.01 181.30 371.01 C 181.31 294.34 181.30 217.66 181.30 140.99 Z" />
<path fill="#ffffff" opacity="1.00" d=" M 287.89 168.67 C 302.34 168.62 316.79 168.65 331.24 168.65 C 331.22 236.12 331.25 303.59 331.22 371.06 C 316.83 371.06 302.44 371.10 288.05 371.04 C 287.76 303.59 288.03 236.13 287.89 168.67 Z" />
<path fill="#ffffff" opacity="1.00" d=" M 127.92 185.70 C 142.09 185.69 156.26 185.72 170.43 185.68 C 170.41 247.48 170.45 309.28 170.41 371.07 C 156.24 371.00 142.08 371.22 127.92 370.96 C 127.93 309.21 127.92 247.45 127.92 185.70 Z" />
<path fill="#ffffff" opacity="1.00" d=" M 234.79 219.54 C 249.05 219.48 263.31 219.57 277.57 219.50 C 277.61 269.98 277.54 320.47 277.60 370.96 C 263.33 371.11 249.05 371.21 234.78 370.90 C 234.82 320.45 234.80 270.00 234.79 219.54 Z" />
<path fill="#ffffff" opacity="1.00" d=" M 341.57 258.67 C 355.74 258.70 369.91 258.67 384.08 258.68 C 384.00 296.15 384.23 333.62 383.97 371.08 C 369.84 371.06 355.72 371.07 341.59 371.07 C 341.55 333.61 341.60 296.14 341.57 258.67 Z" />
</svg>
