<?xml version="1.0" encoding="UTF-8" ?>
<!DOCTYPE svg PUBLIC "-//W3C//DTD SVG 1.1//EN" "http://www.w3.org/Graphics/SVG/1.1/DTD/svg11.dtd">
<svg width="512pt" height="512pt" viewBox="0 0 512 512" version="1.1" xmlns="http://www.w3.org/2000/svg">
<path fill="#ce0a0a" opacity="1.00" d=" M 0.00 0.00 L 512.00 0.00 L 512.00 512.00 L 0.00 512.00 L 0.00 0.00 Z" />
<path fill="#ffffff" opacity="1.00" d=" M 305.78 164.66 C 313.26 164.58 320.75 164.63 328.23 164.63 C 328.23 225.48 328.22 286.33 328.23 347.18 C 320.77 347.18 313.31 347.20 305.85 347.16 C 305.80 334.49 306.44 321.82 305.94 309.15 C 305.83 290.77 305.88 272.38 305.90 254.00 C 306.09 227.67 305.60 201.32 306.12 174.99 C 306.15 171.54 305.90 168.10 305.78 164.66 Z" />
<path fill="#ffffff" opacity="1.00" d=" M 182.35 347.15 C 182.43 288.97 182.37 230.79 182.38 172.61 C 217.30 172.65 252.21 172.57 287.12 172.65 C 287.04 179.63 287.26 186.62 286.98 193.60 C 259.89 193.63 232.80 193.59 205.71 193.62 C 205.76 209.84 205.71 226.05 205.74 242.26 C 231.69 242.28 257.65 242.26 283.60 242.28 C 283.34 249.20 284.00 256.28 283.31 263.11 C 257.45 263.28 231.59 263.13 205.73 263.19 C 205.76 291.18 205.68 319.18 205.77 347.17 C 197.96 347.18 190.16 347.22 182.35 347.15 Z" />
</svg>
