<?xml version="1.0" encoding="UTF-8" ?>
<!DOCTYPE svg PUBLIC "-//W3C//DTD SVG 1.1//EN" "http://www.w3.org/Graphics/SVG/1.1/DTD/svg11.dtd">
<svg width="512pt" height="512pt" viewBox="0 0 512 512" version="1.1" xmlns="http://www.w3.org/2000/svg">
<path fill="#405d76" opacity="1.00" d=" M 0.00 0.00 L 512.00 0.00 L 512.00 512.00 L 0.00 512.00 L 0.00 0.00 Z" />
<path fill="#ffffff" opacity="1.00" d=" M 186.63 165.87 C 204.89 163.17 224.46 164.96 240.68 174.34 C 253.51 181.45 263.43 193.11 269.37 206.43 C 277.30 223.75 279.58 243.13 278.82 262.01 C 278.37 278.09 275.15 294.31 267.84 308.74 C 260.52 323.35 248.03 335.48 232.80 341.62 C 217.07 347.91 199.48 348.58 182.96 345.48 C 164.18 341.78 147.40 329.68 137.87 313.09 C 125.60 292.05 123.18 266.80 124.95 242.93 C 126.62 220.44 134.68 197.21 151.93 181.92 C 161.58 173.31 173.92 167.97 186.63 165.87 Z" />
<path fill="#405d76" opacity="1.00" d=" M 196.66 185.12 C 210.30 184.00 224.84 187.37 234.95 197.04 C 247.93 209.36 252.79 227.70 254.23 245.00 C 255.27 263.30 254.40 282.48 246.23 299.24 C 239.97 312.13 228.23 322.72 214.03 325.79 C 200.06 328.62 184.51 326.97 172.85 318.24 C 159.12 308.22 152.27 291.48 150.03 275.09 C 147.90 257.63 148.18 239.54 153.35 222.61 C 156.67 211.34 163.02 200.68 172.58 193.64 C 179.48 188.37 188.06 185.69 196.66 185.12 Z" />
<path fill="#ffffff" opacity="1.00" d=" M 301.39 195.18 C 305.25 194.51 309.14 195.41 313.03 195.06 C 315.78 194.83 318.57 194.79 321.31 195.22 C 321.22 238.68 321.34 282.15 321.25 325.61 C 343.30 325.63 365.35 325.59 387.40 325.62 C 387.37 331.47 387.38 337.32 387.39 343.18 C 358.73 343.17 330.07 343.22 301.42 343.15 C 301.45 293.83 301.50 244.50 301.39 195.18 Z" />
</svg>
