<?xml version="1.0" encoding="UTF-8" ?>
<!DOCTYPE svg PUBLIC "-//W3C//DTD SVG 1.1//EN" "http://www.w3.org/Graphics/SVG/1.1/DTD/svg11.dtd">
<svg width="512pt" height="512pt" viewBox="0 0 512 512" version="1.1" xmlns="http://www.w3.org/2000/svg">
<path fill="#818999" opacity="1.00" d=" M 0.00 0.00 L 512.00 0.00 L 512.00 512.00 L 0.00 512.00 L 0.00 0.00 Z" />
<path fill="#ffffff" opacity="1.00" d=" M 137.61 168.62 C 174.02 168.71 210.44 168.44 246.85 168.75 C 246.59 175.69 246.76 182.64 246.76 189.59 C 218.11 189.66 189.47 189.55 160.83 189.65 C 161.34 197.09 160.58 204.54 160.99 211.98 C 161.41 220.20 160.47 228.44 161.15 236.65 C 187.73 236.57 214.30 236.64 240.87 236.61 C 241.06 243.61 240.85 250.61 241.00 257.62 C 214.30 257.63 187.59 257.55 160.89 257.65 C 161.03 279.22 161.12 300.80 160.85 322.35 C 189.48 322.46 218.12 322.34 246.76 322.41 C 246.71 329.33 246.70 336.26 246.75 343.19 C 210.37 343.17 173.99 343.20 137.61 343.18 C 137.61 284.99 137.61 226.80 137.61 168.62 Z" />
<path fill="#ffffff" opacity="1.00" d=" M 324.67 208.49 C 337.00 206.64 350.80 209.01 359.98 218.02 C 370.13 227.78 373.12 242.50 373.41 256.07 C 373.50 285.10 373.42 314.14 373.45 343.17 C 366.00 343.19 358.54 343.19 351.09 343.17 C 351.22 316.45 350.94 289.75 351.03 263.05 C 350.27 253.90 350.83 243.73 345.08 235.98 C 340.44 229.80 332.12 228.68 324.92 228.95 C 312.47 229.69 301.84 237.24 292.45 244.80 C 292.39 277.59 292.44 310.38 292.42 343.18 C 285.03 343.19 277.63 343.19 270.24 343.17 C 270.30 299.38 270.25 255.59 270.26 211.80 C 277.64 211.74 285.02 211.77 292.40 211.78 C 292.44 216.52 292.41 221.25 292.44 225.99 C 301.69 217.93 312.27 210.41 324.67 208.49 Z" />
</svg>
