<?xml version="1.0" encoding="UTF-8" ?>
<!DOCTYPE svg PUBLIC "-//W3C//DTD SVG 1.1//EN" "http://www.w3.org/Graphics/SVG/1.1/DTD/svg11.dtd">
<svg width="512pt" height="512pt" viewBox="0 0 512 512" version="1.1" xmlns="http://www.w3.org/2000/svg">
<path fill="#d8a700" opacity="1.00" d=" M 0.00 0.00 L 512.00 0.00 L 512.00 512.00 L 0.00 512.00 L 0.00 0.00 Z" />
<path fill="#ffffff" opacity="1.00" d=" M 158.33 185.40 C 168.49 170.98 185.49 162.29 202.92 160.93 C 224.53 159.38 246.84 162.77 266.34 172.46 C 266.19 182.20 266.29 191.94 266.29 201.69 C 265.27 201.59 264.12 201.69 263.35 200.86 C 248.84 188.73 230.08 180.97 210.98 181.72 C 201.39 182.01 191.43 184.65 184.14 191.15 C 171.92 201.37 172.69 223.07 185.48 232.50 C 188.87 235.07 192.76 236.98 196.82 238.25 C 211.69 242.73 227.14 245.15 241.82 250.27 C 252.67 254.17 262.94 261.20 268.26 271.70 C 276.55 288.11 274.79 308.66 265.12 324.11 C 255.02 339.95 236.46 349.28 217.96 350.37 C 204.39 350.88 190.58 350.79 177.38 347.27 C 167.45 344.64 157.83 340.91 148.58 336.47 C 148.68 326.14 148.55 315.82 148.65 305.49 C 151.88 306.01 153.72 309.03 156.27 310.76 C 173.27 324.03 195.36 331.76 217.01 328.95 C 226.25 327.74 235.86 324.35 241.83 316.82 C 248.28 309.17 249.11 298.15 246.45 288.82 C 244.25 280.81 237.25 275.07 229.66 272.37 C 218.35 268.39 206.50 266.35 194.96 263.22 C 184.60 260.75 174.16 257.10 165.91 250.15 C 156.42 242.30 150.56 230.27 150.16 217.97 C 148.94 206.61 151.66 194.74 158.33 185.40 Z" />
<path fill="#ffffff" opacity="1.00" d=" M 297.43 170.28 C 305.17 170.26 312.90 170.25 320.64 170.28 C 320.58 183.39 320.66 196.49 320.60 209.59 C 334.77 209.66 348.95 209.54 363.13 209.65 C 362.98 216.20 363.44 222.78 362.82 229.31 C 348.75 229.26 334.67 229.27 320.60 229.30 C 320.69 250.86 320.51 272.42 320.69 293.97 C 321.28 303.63 319.32 314.37 324.98 322.93 C 329.67 329.44 338.56 329.98 345.90 329.59 C 351.95 329.60 357.25 326.23 363.12 325.34 C 363.22 332.27 362.94 339.21 363.14 346.15 C 350.11 349.72 336.02 351.82 322.79 348.17 C 313.85 345.61 305.86 339.36 301.99 330.82 C 298.73 323.73 297.42 315.86 297.44 308.09 C 297.45 281.82 297.45 255.55 297.44 229.27 C 292.21 229.28 286.98 229.29 281.75 229.27 C 281.71 222.72 281.75 216.18 281.72 209.63 C 286.97 209.59 292.22 209.64 297.48 209.59 C 297.40 196.48 297.48 183.38 297.43 170.28 Z" />
</svg>
