<?xml version="1.0" encoding="UTF-8" ?>
<!DOCTYPE svg PUBLIC "-//W3C//DTD SVG 1.1//EN" "http://www.w3.org/Graphics/SVG/1.1/DTD/svg11.dtd">
<svg width="512pt" height="512pt" viewBox="0 0 512 512" version="1.1" xmlns="http://www.w3.org/2000/svg">
<path fill="#898075" opacity="1.00" d=" M 0.00 0.00 L 512.00 0.00 L 512.00 512.00 L 0.00 512.00 L 0.00 0.00 Z" />
<path fill="#ffffff" opacity="1.00" d=" M 271.10 163.15 C 278.50 162.85 285.89 163.06 293.29 163.16 C 293.28 184.59 293.27 206.03 293.30 227.46 C 304.19 217.76 317.94 209.72 333.00 210.35 C 345.70 209.79 358.48 215.55 366.31 225.60 C 377.25 239.11 380.53 257.03 381.00 273.99 C 381.59 293.19 378.09 313.53 366.13 329.10 C 358.07 340.14 345.58 348.19 331.83 349.48 C 324.08 349.88 316.13 349.84 308.71 347.27 C 303.19 345.65 298.24 342.67 293.07 340.22 C 292.70 342.02 292.33 343.82 291.95 345.62 C 284.99 345.59 278.04 345.64 271.08 345.59 C 271.06 284.77 271.03 223.96 271.10 163.15 Z" />
<path fill="#ffffff" opacity="1.00" d=" M 180.91 167.61 C 201.91 165.76 223.50 169.23 242.56 178.35 C 242.54 187.77 242.59 197.20 242.54 206.62 C 241.98 206.47 240.86 206.15 240.30 206.00 C 226.59 194.57 209.07 186.80 190.99 187.36 C 181.52 187.37 171.62 189.93 164.43 196.36 C 152.16 206.71 153.63 229.12 167.45 237.49 C 170.40 239.41 173.63 240.89 177.00 241.91 C 186.58 244.76 196.39 246.76 206.05 249.33 C 216.28 251.86 226.71 255.17 234.94 262.02 C 241.40 267.37 245.94 274.89 247.89 283.03 C 251.81 298.11 248.45 314.82 239.29 327.39 C 228.90 340.98 212.06 348.83 195.10 349.53 C 187.06 349.66 178.98 349.89 170.98 348.84 C 156.85 347.23 143.34 342.25 130.54 336.22 C 130.60 326.44 130.47 316.67 130.61 306.89 C 133.49 307.40 135.28 309.88 137.50 311.53 C 149.68 321.16 164.56 327.39 179.98 329.25 C 191.62 330.02 204.37 329.28 214.15 322.22 C 226.43 313.71 228.58 294.75 219.94 282.97 C 215.35 277.01 208.01 274.22 200.96 272.37 C 186.47 267.97 171.07 266.28 157.28 259.75 C 146.24 254.62 137.25 244.84 133.87 233.06 C 129.85 218.83 131.36 202.48 140.28 190.35 C 149.69 177.28 165.03 169.30 180.91 167.61 Z" />
<path fill="#898075" opacity="1.00" d=" M 293.30 246.33 C 303.52 237.74 316.31 230.67 330.05 231.37 C 338.11 231.55 346.21 235.56 350.35 242.63 C 357.09 253.78 358.10 267.28 357.86 280.02 C 358.11 290.86 356.88 302.04 352.04 311.87 C 347.86 320.17 340.04 326.58 330.92 328.58 C 318.08 331.27 304.72 328.08 293.25 322.12 C 293.33 296.85 293.24 271.59 293.30 246.33 Z" />
</svg>
