<?xml version="1.0" encoding="UTF-8" ?>
<!DOCTYPE svg PUBLIC "-//W3C//DTD SVG 1.1//EN" "http://www.w3.org/Graphics/SVG/1.1/DTD/svg11.dtd">
<svg width="512pt" height="512pt" viewBox="0 0 512 512" version="1.1" xmlns="http://www.w3.org/2000/svg">
<path fill="#bb4e82" opacity="1.00" d=" M 0.00 0.00 L 512.00 0.00 L 512.00 512.00 L 0.00 512.00 L 0.00 0.00 Z" />
<path fill="#ffffff" opacity="1.00" d=" M 151.57 168.63 C 174.24 168.61 196.91 168.63 219.58 168.62 C 219.58 174.54 219.56 180.46 219.60 186.38 C 212.15 186.40 204.70 186.37 197.25 186.39 C 197.30 232.80 197.30 279.20 197.25 325.61 C 204.70 325.62 212.15 325.60 219.60 325.62 C 219.53 331.48 219.63 337.35 219.53 343.21 C 196.88 343.14 174.22 343.22 151.57 343.18 C 151.58 337.32 151.59 331.48 151.56 325.63 C 158.96 325.59 166.35 325.62 173.75 325.62 C 173.71 279.21 173.71 232.79 173.75 186.38 C 166.36 186.38 158.96 186.41 151.56 186.37 C 151.59 180.46 151.57 174.54 151.57 168.63 Z" />
<path fill="#ffffff" opacity="1.00" d=" M 244.95 197.47 C 257.97 197.46 271.00 197.33 284.02 197.62 C 298.77 197.65 313.97 199.79 327.04 207.02 C 343.91 216.44 355.42 234.13 358.40 253.09 C 361.41 271.54 360.09 291.38 351.06 308.07 C 344.20 321.65 332.27 332.55 318.00 337.90 C 308.17 341.91 297.47 342.63 286.99 343.18 C 272.94 343.19 258.88 343.21 244.83 343.16 C 245.07 294.60 244.91 246.04 244.95 197.47 Z" />
<path fill="#bb4e82" opacity="1.00" d=" M 264.60 214.39 C 277.89 214.57 291.51 213.63 304.41 217.48 C 316.37 220.90 327.45 228.64 333.13 239.93 C 340.10 253.70 340.65 269.84 338.43 284.86 C 336.59 298.59 328.73 311.68 316.48 318.51 C 300.88 327.76 282.01 326.15 264.61 326.38 C 264.63 289.05 264.64 251.72 264.60 214.39 Z" />
</svg>
