<?xml version="1.0" encoding="UTF-8" ?>
<!DOCTYPE svg PUBLIC "-//W3C//DTD SVG 1.1//EN" "http://www.w3.org/Graphics/SVG/1.1/DTD/svg11.dtd">
<svg width="512pt" height="512pt" viewBox="0 0 512 512" version="1.1" xmlns="http://www.w3.org/2000/svg">
<path fill="#c11e07" opacity="1.00" d=" M 0.00 0.00 L 512.00 0.00 L 512.00 512.00 L 0.00 512.00 L 0.00 0.00 Z" />
<path fill="#ffffff" opacity="1.00" d=" M 218.77 119.17 C 219.82 111.58 226.69 105.95 233.93 104.57 C 238.39 104.25 243.48 103.68 247.18 106.76 C 255.46 113.00 257.46 124.72 255.00 134.32 C 253.31 126.28 251.71 117.88 246.95 110.99 C 245.33 108.74 242.93 106.32 239.89 106.77 C 235.03 108.00 232.86 113.44 232.60 117.99 C 231.36 148.34 237.14 178.62 246.81 207.30 C 252.71 224.05 260.81 240.14 271.83 254.12 C 280.24 264.99 290.39 274.42 301.54 282.42 C 305.14 284.99 308.74 287.56 312.16 290.37 C 307.52 291.51 302.79 292.38 298.01 292.62 C 295.26 291.90 293.12 289.84 290.83 288.26 C 272.92 274.21 256.32 257.80 245.23 237.74 C 240.76 229.34 236.17 220.90 233.68 211.66 C 228.38 192.64 223.91 173.37 220.59 153.90 C 218.76 142.44 217.28 130.74 218.77 119.17 Z" />
<path fill="#ffffff" opacity="1.00" d=" M 242.77 190.05 C 245.92 177.92 250.23 166.07 253.09 153.84 C 253.42 157.22 253.43 160.63 253.17 164.02 C 251.99 175.72 250.71 187.46 247.85 198.90 C 247.56 200.15 246.99 201.32 246.40 202.47 C 245.30 198.29 243.83 194.23 242.77 190.05 Z" />
<path fill="#ffffff" opacity="1.00" d=" M 182.62 320.59 C 202.20 287.52 218.36 252.56 233.02 217.08 C 235.22 220.84 237.11 224.83 238.33 229.03 C 238.30 230.93 237.18 232.60 236.56 234.35 C 229.05 252.71 220.00 270.37 211.07 288.06 C 201.90 306.06 192.48 323.94 182.59 341.57 C 173.31 357.84 163.41 373.93 150.94 387.99 C 143.86 395.69 135.77 403.18 125.57 406.35 C 120.14 408.10 114.27 407.61 108.91 405.87 C 111.60 404.35 114.89 404.91 117.63 403.52 C 124.38 400.42 129.35 394.68 134.33 389.37 C 152.82 368.24 168.26 344.65 182.62 320.59 Z" />
<path fill="#ffffff" opacity="1.00" d=" M 235.04 309.70 C 277.40 295.21 322.29 288.88 366.98 288.92 C 374.32 288.85 381.69 288.99 388.98 289.85 C 396.30 290.77 403.02 294.68 408.11 299.92 C 409.84 301.96 411.94 304.39 411.23 307.29 C 408.52 308.34 406.47 305.56 404.16 304.65 C 394.50 299.96 383.77 297.19 372.99 297.32 C 355.04 297.02 337.11 298.31 319.25 299.99 C 317.58 300.33 315.60 300.11 314.38 301.55 C 320.55 301.24 326.87 299.70 333.00 300.84 C 355.54 310.48 378.93 320.51 403.87 320.60 C 404.75 320.85 405.59 321.21 406.40 321.67 C 398.39 327.12 388.27 328.86 378.84 326.85 C 368.68 324.67 358.82 321.27 348.97 318.00 C 336.51 313.54 323.92 309.21 312.20 303.00 C 313.05 302.39 314.75 301.18 315.60 300.57 C 307.05 300.76 298.63 302.53 290.18 303.68 C 260.57 308.99 231.51 317.04 202.87 326.17 C 198.97 327.33 195.12 328.91 190.99 328.97 C 192.76 325.55 196.55 324.20 199.81 322.63 C 211.31 317.71 223.23 313.84 235.04 309.70 Z" />
<path fill="#ffffff" opacity="1.00" d=" M 120.79 366.74 C 131.36 358.90 141.79 350.75 153.21 344.16 C 141.96 357.51 129.09 369.44 118.10 383.03 C 113.90 388.53 108.87 394.02 107.57 401.04 C 107.71 401.55 107.99 402.55 108.13 403.05 L 109.69 404.18 C 109.02 404.60 108.36 405.01 107.69 405.42 C 103.17 402.69 99.08 397.75 100.55 392.11 C 103.32 381.20 112.15 373.28 120.79 366.74 Z" />
</svg>
