<?xml version="1.0" encoding="UTF-8" ?>
<!DOCTYPE svg PUBLIC "-//W3C//DTD SVG 1.1//EN" "http://www.w3.org/Graphics/SVG/1.1/DTD/svg11.dtd">
<svg width="512pt" height="512pt" viewBox="0 0 512 512" version="1.1" xmlns="http://www.w3.org/2000/svg">
<path fill="#c89700" opacity="1.00" d=" M 0.00 0.00 L 512.00 0.00 L 512.00 512.00 L 0.00 512.00 L 0.00 0.00 Z" />
<path fill="#ffffff" opacity="1.00" d=" M 114.33 343.09 C 114.50 284.92 114.26 226.74 114.46 168.57 C 149.34 168.71 184.23 168.53 219.12 168.66 C 218.86 175.65 219.37 182.65 218.92 189.63 C 191.86 189.61 164.79 189.60 137.72 189.63 C 137.76 205.84 137.71 222.05 137.75 238.26 C 163.70 238.29 189.65 238.24 215.60 238.28 C 215.61 245.19 215.47 252.10 215.67 259.01 C 189.71 259.43 163.72 259.04 137.74 259.20 C 137.74 287.19 137.70 315.18 137.77 343.17 C 129.95 343.15 122.14 343.29 114.33 343.09 Z" />
<path fill="#ffffff" opacity="1.00" d=" M 225.06 211.82 C 232.75 211.71 240.46 211.79 248.16 211.78 C 255.71 245.50 263.65 279.13 271.00 312.89 C 274.66 302.99 277.22 292.70 280.51 282.66 C 287.62 259.04 295.10 235.51 302.01 211.84 C 308.09 211.65 314.18 211.90 320.26 211.69 C 330.24 242.26 339.54 273.06 349.31 303.70 C 350.33 306.64 350.77 309.80 352.37 312.52 C 359.53 278.95 366.85 245.40 373.88 211.81 C 381.40 211.73 388.92 211.79 396.43 211.77 C 385.26 255.56 374.30 299.40 363.16 343.18 C 356.32 343.22 349.48 343.10 342.65 343.25 C 331.70 309.87 321.64 276.17 310.58 242.83 C 300.02 276.26 289.57 309.73 279.04 343.17 C 272.23 343.23 265.43 343.11 258.63 343.24 C 249.03 306.86 240.01 270.32 230.54 233.89 C 228.85 226.50 226.61 219.25 225.06 211.82 Z" />
</svg>
