<?xml version="1.0" encoding="UTF-8" ?>
<!DOCTYPE svg PUBLIC "-//W3C//DTD SVG 1.1//EN" "http://www.w3.org/Graphics/SVG/1.1/DTD/svg11.dtd">
<svg width="512pt" height="512pt" viewBox="0 0 512 512" version="1.1" xmlns="http://www.w3.org/2000/svg">
<path fill="#55606c" opacity="1.00" d=" M 0.00 0.00 L 512.00 0.00 L 512.00 512.00 L 0.00 512.00 L 0.00 0.00 Z" />
<path fill="#ffffff" opacity="1.00" d=" M 157.75 167.84 C 166.02 167.93 174.36 167.27 182.58 168.20 C 182.51 219.33 182.60 270.46 182.53 321.59 C 208.46 321.63 234.38 321.60 260.31 321.61 C 260.92 328.69 260.59 335.84 260.53 342.94 C 260.48 344.69 258.15 344.07 257.04 344.26 C 223.96 344.16 190.87 344.31 157.79 344.19 C 157.37 316.45 157.73 288.70 157.61 260.96 C 157.70 229.92 157.42 198.88 157.75 167.84 Z" />
<path fill="#ffffff" opacity="1.00" d=" M 282.31 211.24 C 290.08 211.19 297.85 211.07 305.62 211.31 C 305.85 217.40 305.69 223.51 305.72 229.61 C 315.31 221.51 325.88 213.31 338.70 211.55 C 343.41 210.97 348.20 211.28 352.88 212.05 C 352.79 220.35 353.23 228.67 352.75 236.95 C 344.92 235.93 336.84 235.20 329.09 237.20 C 320.18 239.38 312.28 244.54 305.71 250.83 C 305.77 280.58 305.69 310.33 305.76 340.08 C 305.74 341.48 305.58 342.88 305.39 344.27 C 297.79 344.21 290.19 344.18 282.59 344.29 C 281.83 342.32 281.72 340.20 281.95 338.12 C 282.59 331.75 281.53 325.38 281.86 319.01 C 282.56 308.01 281.56 297.00 282.00 285.99 C 281.81 263.64 282.15 241.31 282.10 218.98 C 281.88 216.40 281.73 213.79 282.31 211.24 Z" />
</svg>
