<?xml version="1.0" encoding="UTF-8" ?>
<!DOCTYPE svg PUBLIC "-//W3C//DTD SVG 1.1//EN" "http://www.w3.org/Graphics/SVG/1.1/DTD/svg11.dtd">
<svg width="512pt" height="512pt" viewBox="0 0 512 512" version="1.1" xmlns="http://www.w3.org/2000/svg">
<path fill="#064e4f" opacity="1.00" d=" M 0.00 0.00 L 512.00 0.00 L 512.00 512.00 L 0.00 512.00 L 0.00 0.00 Z" />
<path fill="#ffffff" opacity="1.00" d=" M 237.95 134.69 C 275.58 130.77 313.15 126.28 350.75 122.03 C 351.76 134.15 352.65 146.28 353.59 158.41 C 328.42 156.75 303.17 156.27 277.95 157.09 C 255.21 157.92 232.41 160.05 210.22 165.27 C 200.07 167.74 189.98 170.84 180.65 175.62 C 173.93 179.14 167.33 183.67 163.48 190.38 C 158.59 198.85 155.84 208.34 153.82 217.85 C 149.92 237.30 149.44 257.33 151.21 277.06 C 152.70 292.34 155.55 307.58 160.94 321.99 C 163.76 329.38 167.23 336.64 172.23 342.83 C 175.62 347.15 180.89 349.31 185.86 351.24 C 197.74 355.53 210.32 357.44 222.84 358.71 C 245.18 360.77 267.72 360.28 290.02 357.88 C 304.35 356.21 318.66 353.76 332.46 349.50 C 339.68 347.31 346.37 343.01 350.79 336.83 C 357.11 328.19 359.42 317.38 360.66 306.94 C 362.09 293.01 362.27 278.87 360.06 265.01 C 358.00 253.01 354.56 240.27 345.50 231.58 C 334.52 221.63 320.46 215.61 306.13 212.37 C 287.26 208.24 266.99 209.53 249.15 217.12 C 234.06 223.72 222.04 235.32 210.24 246.49 C 216.61 253.30 223.62 259.75 232.02 263.98 C 240.63 268.42 250.40 270.09 260.01 270.21 C 272.19 270.43 284.59 268.50 296.57 271.60 C 312.33 275.16 325.24 285.85 335.88 297.54 C 321.92 310.81 305.63 322.31 286.88 327.59 C 267.61 333.22 246.93 331.55 227.78 326.26 C 218.77 323.68 209.31 321.23 202.01 315.01 C 188.73 304.17 182.85 286.67 181.99 270.00 C 181.53 254.58 181.80 238.86 186.03 223.92 C 189.17 212.88 195.16 202.32 204.53 195.44 C 214.48 187.87 226.92 184.85 239.03 182.86 C 261.17 179.31 283.78 178.35 306.11 180.54 C 325.42 182.66 345.35 187.03 361.33 198.66 C 375.64 209.03 383.02 226.11 387.31 242.73 C 392.36 263.06 393.39 284.25 391.74 305.08 C 390.21 322.51 385.99 340.29 375.78 354.79 C 367.14 367.30 353.84 376.29 339.21 380.23 C 311.83 387.85 283.33 390.70 254.99 391.36 C 231.77 391.60 208.28 390.28 185.77 384.17 C 172.33 380.33 158.51 374.64 149.38 363.58 C 140.14 352.44 134.17 338.99 129.74 325.32 C 122.53 302.63 119.58 278.75 119.46 255.00 C 119.57 237.15 121.30 219.22 125.91 201.93 C 128.72 191.54 132.53 181.33 138.21 172.15 C 144.50 162.35 154.55 155.72 164.94 150.93 C 187.89 140.64 213.14 137.23 237.95 134.69 Z" />
<path fill="#ffffff" opacity="1.00" d=" M 241.39 244.34 C 255.52 238.43 269.65 232.50 283.84 226.72 C 281.30 235.18 278.67 243.61 276.00 252.03 C 264.45 249.55 252.91 246.98 241.39 244.34 Z" />
<path fill="#064e4f" opacity="1.00" d=" M 270.23 291.81 C 281.59 294.36 293.00 296.76 304.34 299.43 C 290.31 305.18 276.28 310.95 262.34 316.93 C 264.98 308.56 267.47 300.15 270.23 291.81 Z" />
</svg>
