<?xml version="1.0" encoding="UTF-8" ?>
<!DOCTYPE svg PUBLIC "-//W3C//DTD SVG 1.1//EN" "http://www.w3.org/Graphics/SVG/1.1/DTD/svg11.dtd">
<svg width="512pt" height="512pt" viewBox="0 0 512 512" version="1.1" xmlns="http://www.w3.org/2000/svg">
<path fill="#0042b4" opacity="1.00" d=" M 0.00 0.00 L 512.00 0.00 L 512.00 512.00 L 0.00 512.00 L 0.00 0.00 Z" />
<path fill="#ffffff" opacity="1.00" d=" M 228.07 112.05 C 235.99 111.09 243.99 112.02 251.92 111.14 C 260.94 110.97 269.96 111.10 278.99 111.07 C 294.37 111.92 309.63 113.98 324.93 115.63 C 330.59 115.90 333.76 121.12 337.48 124.64 C 355.49 147.30 373.13 170.25 391.09 192.95 C 396.32 197.63 398.55 206.17 394.25 212.18 C 385.73 224.06 377.99 236.48 369.40 248.32 C 363.96 257.39 357.33 265.67 351.67 274.60 C 349.20 278.55 345.26 282.10 345.35 287.12 C 342.94 307.97 333.84 328.04 319.13 343.10 C 311.70 350.96 302.79 357.35 293.19 362.31 C 290.41 363.52 289.15 366.45 287.51 368.79 C 282.33 376.21 277.28 383.72 272.18 391.19 C 269.88 394.50 268.13 398.77 264.06 400.26 C 260.04 401.49 255.00 401.26 251.99 397.98 C 249.08 394.83 246.73 391.21 244.26 387.72 C 240.12 381.30 235.28 375.38 231.09 369.00 C 211.62 364.52 194.29 352.69 181.61 337.42 C 168.56 321.53 162.85 300.34 164.49 279.99 C 164.54 277.78 165.38 275.20 163.57 273.44 C 157.54 265.99 152.95 257.52 146.92 250.08 C 139.95 240.36 133.02 230.63 126.23 220.79 C 122.78 215.64 118.59 210.99 115.72 205.47 C 114.19 202.53 114.27 198.90 116.06 196.10 C 117.91 193.33 120.27 190.96 122.51 188.51 C 137.81 169.82 153.63 151.56 169.10 133.01 C 173.34 128.59 176.45 122.24 182.79 120.54 C 190.26 118.53 197.64 116.20 205.11 114.21 C 212.46 111.46 220.41 112.44 228.07 112.05 Z" />
<path fill="#0042b4" opacity="1.00" d=" M 181.88 137.40 C 192.57 136.81 203.29 137.33 213.99 137.28 C 247.66 137.24 281.32 137.16 314.99 137.25 C 321.36 137.37 327.78 136.86 334.11 137.75 C 319.39 160.24 304.26 182.45 289.31 204.79 C 296.98 207.98 304.68 211.48 311.05 216.93 C 324.97 228.77 333.43 246.24 336.20 264.13 C 338.60 284.26 334.61 305.43 323.65 322.63 C 314.74 337.12 301.30 348.63 285.82 355.61 C 275.41 360.88 263.62 362.76 252.06 363.19 C 233.18 362.30 214.41 355.50 199.98 343.15 C 188.08 333.43 178.99 320.03 175.43 305.00 C 172.16 292.33 172.71 278.82 176.44 266.32 C 197.45 266.43 218.49 266.00 239.49 266.54 C 234.31 276.22 228.20 285.41 223.18 295.16 C 227.07 303.38 234.18 310.21 242.95 312.94 C 252.12 315.64 262.57 314.88 270.78 309.74 C 283.87 302.13 289.92 285.22 286.27 270.78 C 283.35 258.27 274.13 247.59 262.42 242.41 C 252.08 237.56 240.15 236.71 229.05 239.12 C 223.60 240.10 218.55 242.47 213.16 243.69 C 214.49 240.36 216.60 237.47 218.63 234.55 C 230.71 216.28 242.85 198.05 254.94 179.79 C 237.83 179.75 220.73 179.80 203.62 179.72 C 196.45 188.23 190.21 197.51 182.68 205.71 C 182.35 204.16 181.87 202.62 181.86 201.03 C 181.89 179.82 181.88 158.61 181.88 137.40 Z" />
</svg>
