<?xml version="1.0" encoding="UTF-8" ?>
<!DOCTYPE svg PUBLIC "-//W3C//DTD SVG 1.1//EN" "http://www.w3.org/Graphics/SVG/1.1/DTD/svg11.dtd">
<svg width="540pt" height="543pt" viewBox="0 0 540 543" version="1.1" xmlns="http://www.w3.org/2000/svg">
<path fill="#0a6fb7" opacity="1.00" d=" M 0.00 0.00 L 540.00 0.00 L 540.00 543.00 L 0.00 543.00 L 0.00 0.00 Z" />
<path fill="#ffffff" opacity="1.00" d=" M 220.80 130.84 C 234.54 130.21 248.29 129.63 262.01 128.71 C 274.07 128.29 286.09 129.60 298.14 129.95 C 306.79 131.05 315.95 129.33 324.11 133.11 C 330.84 136.07 338.77 137.42 343.86 143.16 C 351.38 150.60 358.67 158.28 366.45 165.45 C 369.15 168.74 372.33 171.57 375.49 174.41 C 384.29 183.30 393.23 192.04 402.03 200.92 C 404.78 203.83 408.18 206.11 410.41 209.49 C 410.75 212.11 410.89 214.99 409.17 217.21 C 388.86 246.58 368.80 276.13 348.39 305.44 C 340.95 316.87 332.72 327.77 325.41 339.28 C 323.72 344.67 325.56 350.57 324.28 356.11 C 321.52 358.09 318.32 359.23 314.89 358.79 C 310.96 358.01 309.57 362.30 307.73 364.80 C 297.06 379.85 286.88 395.24 276.23 410.30 C 273.02 415.11 265.42 415.85 261.57 411.45 C 249.60 393.80 237.57 376.18 225.61 358.50 C 221.66 358.73 217.42 358.40 214.38 355.56 C 214.10 352.89 212.86 349.97 214.47 347.49 C 215.66 345.67 215.71 343.42 214.23 341.75 C 185.84 300.13 157.58 258.40 129.17 216.80 C 127.49 213.31 127.96 208.65 130.88 205.94 C 140.32 196.36 149.68 186.72 159.27 177.29 C 162.10 173.43 166.26 170.88 169.17 167.10 C 171.60 163.90 175.13 161.79 177.63 158.66 C 180.66 155.00 184.40 152.04 187.53 148.47 C 191.68 144.63 195.15 139.63 200.74 137.79 C 207.41 135.46 213.86 132.33 220.80 130.84 Z" />
<path fill="#0a6fb7" opacity="1.00" d=" M 235.77 170.81 C 247.22 164.10 260.95 163.05 273.93 163.96 C 278.63 164.75 283.46 165.33 287.92 167.12 C 290.51 168.61 293.21 169.88 295.97 171.02 C 305.07 176.08 312.71 183.48 319.01 191.71 C 322.85 196.44 325.09 202.17 327.58 207.66 C 327.95 207.94 328.69 208.49 329.05 208.76 C 331.74 216.88 331.90 225.51 331.57 233.98 C 331.53 243.64 328.59 253.25 323.49 261.44 C 320.54 266.38 316.49 270.50 312.93 274.99 C 300.06 290.44 287.25 305.94 274.30 321.32 C 273.32 322.51 272.53 323.83 271.76 325.17 C 273.80 325.59 275.86 325.91 277.95 325.88 C 290.69 325.84 303.43 325.87 316.16 325.86 C 317.47 326.59 318.93 326.85 320.42 326.96 C 322.10 335.10 320.97 343.46 321.36 351.70 C 320.30 352.29 319.54 353.69 318.19 353.56 C 285.53 353.82 252.87 353.09 220.22 352.84 C 219.57 352.18 218.93 351.52 218.29 350.87 C 218.47 348.99 217.85 346.80 219.18 345.23 C 232.72 326.30 247.52 308.32 262.67 290.67 C 273.23 278.19 284.54 266.24 293.59 252.58 C 296.47 246.38 300.67 240.61 301.76 233.72 C 303.44 226.30 302.27 218.38 299.31 211.43 C 294.53 200.83 283.18 194.80 272.08 193.24 C 254.42 189.79 234.97 201.70 230.52 219.26 C 226.60 233.89 231.00 251.30 243.44 260.59 C 247.10 263.60 251.75 264.97 255.52 267.79 C 255.56 269.33 255.61 270.87 255.64 272.42 C 251.70 277.73 248.42 283.51 244.15 288.56 C 242.69 288.55 241.23 288.49 239.79 288.36 C 228.87 283.84 219.51 275.95 212.66 266.39 C 205.03 254.84 201.65 240.74 202.15 226.98 C 201.45 212.30 207.21 197.71 216.57 186.54 C 221.91 180.11 229.18 175.80 235.77 170.81 Z" />
</svg>
