<?xml version="1.0" encoding="UTF-8" ?>
<!DOCTYPE svg PUBLIC "-//W3C//DTD SVG 1.1//EN" "http://www.w3.org/Graphics/SVG/1.1/DTD/svg11.dtd">
<svg width="512pt" height="512pt" viewBox="0 0 512 512" version="1.1" xmlns="http://www.w3.org/2000/svg">
<path fill="#0066fb" opacity="1.00" d=" M 0.00 0.00 L 512.00 0.00 L 512.00 512.00 L 0.00 512.00 L 0.00 0.00 Z" />
<path fill="#ffffff" opacity="1.00" d=" M 208.91 126.92 C 219.58 125.87 230.29 125.59 240.95 124.51 C 249.32 124.53 257.67 123.10 266.05 124.00 C 271.97 124.90 278.00 123.97 283.89 125.11 C 290.98 125.08 298.02 125.96 305.11 126.07 C 314.65 128.38 324.28 130.48 333.69 133.29 C 339.69 137.77 344.54 143.70 349.99 148.85 C 354.38 152.15 357.29 156.93 361.41 160.52 C 368.93 169.04 376.24 177.74 383.71 186.30 C 384.67 187.38 385.17 188.76 385.81 190.05 C 385.03 192.11 384.23 194.18 382.93 195.98 C 368.83 217.55 354.95 239.25 340.73 260.74 C 335.56 268.32 331.10 276.36 326.06 284.02 C 316.99 298.85 306.86 312.98 297.70 327.76 C 285.31 347.36 273.24 367.16 260.51 386.54 C 258.86 389.57 254.11 389.54 252.54 386.45 C 240.24 367.42 227.87 348.42 215.70 329.31 C 209.52 319.81 203.87 309.96 197.30 300.72 C 187.49 285.82 178.35 270.49 168.53 255.59 C 162.49 247.11 157.26 238.09 151.58 229.38 C 143.38 216.52 135.12 203.68 126.63 191.02 C 126.67 190.22 126.74 188.64 126.77 187.84 C 135.26 178.91 141.35 167.91 150.49 159.54 C 153.83 155.82 156.93 151.86 160.93 148.78 C 164.79 144.37 168.95 140.24 173.12 136.12 C 175.03 134.07 177.99 133.99 180.53 133.34 C 189.97 131.12 199.41 128.89 208.91 126.92 Z" />
</svg>
