<?xml version="1.0" encoding="UTF-8" ?>
<!DOCTYPE svg PUBLIC "-//W3C//DTD SVG 1.1//EN" "http://www.w3.org/Graphics/SVG/1.1/DTD/svg11.dtd">
<svg width="512pt" height="512pt" viewBox="0 0 512 512" version="1.1" xmlns="http://www.w3.org/2000/svg">
<path fill="#860286" opacity="1.00" d=" M 0.00 0.00 L 512.00 0.00 L 512.00 512.00 L 0.00 512.00 L 0.00 0.00 Z" />
<path fill="#ffffff" opacity="1.00" d=" M 161.99 142.92 C 186.41 122.57 217.61 110.54 249.39 109.34 C 249.38 113.26 249.39 117.18 249.35 121.11 C 221.39 122.21 193.92 132.49 172.02 149.88 C 147.12 169.45 129.40 197.94 123.20 229.02 C 118.74 250.73 119.70 273.55 126.18 294.75 C 126.47 295.89 126.97 297.18 126.25 298.28 C 124.08 302.57 121.87 306.85 119.76 311.17 C 114.04 298.91 111.32 285.38 109.64 272.01 C 108.57 257.03 108.58 241.80 111.67 227.03 C 118.10 194.32 136.29 164.12 161.99 142.92 Z" />
<path fill="#ffffff" opacity="1.00" d=" M 260.76 111.16 C 290.39 111.58 320.03 120.62 344.43 137.53 C 358.63 147.61 370.96 160.72 378.69 176.42 C 380.37 179.82 384.45 179.66 387.67 179.60 C 383.61 187.22 379.74 194.95 375.96 202.70 C 367.65 195.08 359.29 187.52 351.08 179.81 C 351.02 177.89 353.42 176.81 353.59 174.87 C 354.37 171.17 350.99 168.66 348.93 166.11 C 329.33 145.20 301.15 134.17 273.10 130.90 C 268.99 130.07 264.63 130.97 260.67 129.50 C 260.91 123.39 260.75 117.28 260.76 111.16 Z" />
<path fill="#ffffff" opacity="1.00" d=" M 252.74 157.95 C 257.52 157.29 262.29 158.18 267.05 158.46 C 275.38 158.48 283.68 159.32 291.98 159.76 C 298.95 161.46 305.97 163.02 312.84 165.03 C 317.65 168.92 321.51 173.84 326.27 177.80 C 334.65 186.44 342.33 195.75 350.20 204.87 C 351.81 206.82 350.46 209.38 349.24 211.13 C 340.54 224.45 331.88 237.79 323.25 251.16 C 313.89 264.67 305.93 279.09 296.56 292.59 C 283.32 312.48 271.27 333.13 258.07 353.04 C 256.96 355.06 254.07 355.04 253.00 353.01 C 237.84 330.05 223.36 306.65 208.29 283.63 C 201.29 272.93 194.88 261.86 187.54 251.39 C 178.85 237.49 169.93 223.75 161.02 209.99 C 160.21 208.49 158.21 206.54 159.90 204.91 C 164.57 199.85 168.17 193.95 172.79 188.86 C 179.79 181.17 187.00 173.67 194.53 166.51 C 200.59 164.20 207.20 163.42 213.49 161.76 C 221.14 159.59 229.16 159.87 236.99 158.95 C 242.23 158.46 247.52 158.72 252.74 157.95 Z" />
<path fill="#ffffff" opacity="1.00" d=" M 383.54 213.02 C 386.06 208.37 388.11 203.46 390.90 198.95 C 398.19 217.01 402.47 236.40 402.01 255.93 C 402.65 286.27 392.68 316.46 375.16 341.12 C 349.62 377.42 306.88 401.07 262.46 402.69 C 262.75 398.84 261.77 394.57 262.87 390.97 C 286.40 389.76 309.60 382.23 329.29 369.27 C 349.03 356.32 365.42 338.20 376.02 317.08 C 392.33 285.27 395.13 246.85 383.54 213.02 Z" />
<path fill="#ffffff" opacity="1.00" d=" M 123.40 329.22 C 127.43 321.59 131.24 313.86 135.07 306.13 C 143.75 313.83 152.33 321.65 160.71 329.68 C 157.65 331.31 156.13 335.62 158.60 338.41 C 171.12 354.08 189.00 364.66 207.79 371.11 C 221.56 375.74 236.04 378.43 250.58 378.69 C 250.71 385.03 250.75 391.38 250.78 397.72 C 229.09 397.36 207.50 392.38 187.79 383.34 C 166.98 373.66 147.95 358.87 136.06 338.98 C 134.34 336.31 133.30 333.19 131.17 330.79 C 129.17 328.64 125.99 329.43 123.40 329.22 Z" />
</svg>
