<?xml version="1.0" encoding="UTF-8" ?>
<!DOCTYPE svg PUBLIC "-//W3C//DTD SVG 1.1//EN" "http://www.w3.org/Graphics/SVG/1.1/DTD/svg11.dtd">
<svg width="512pt" height="512pt" viewBox="0 0 512 512" version="1.1" xmlns="http://www.w3.org/2000/svg">
<path fill="#ea882b" opacity="1.00" d=" M 0.00 0.00 L 512.00 0.00 L 512.00 512.00 L 0.00 512.00 L 0.00 0.00 Z" />
<path fill="#ffffff" opacity="1.00" d=" M 252.67 142.73 C 257.44 139.08 264.10 138.44 269.66 140.54 C 275.37 142.61 279.98 146.70 284.75 150.31 C 309.23 169.11 333.42 188.29 357.77 207.27 C 360.21 209.12 362.31 211.38 364.70 213.31 C 378.58 224.45 389.36 239.59 394.65 256.64 C 400.65 275.76 399.53 297.03 391.47 315.39 C 382.48 336.27 365.19 353.09 344.71 362.70 C 310.47 379.14 267.24 375.22 236.98 352.08 C 214.82 335.50 199.63 308.31 201.13 280.25 C 182.29 295.02 163.87 310.33 145.08 325.16 C 141.02 328.38 136.03 330.18 131.01 331.22 C 125.19 332.28 118.16 330.10 115.46 324.47 C 112.86 318.81 112.94 311.71 116.46 306.46 C 120.19 300.58 126.40 297.03 131.64 292.67 C 148.55 279.55 165.43 266.39 182.35 253.28 C 197.39 241.51 212.75 230.09 226.95 217.30 C 207.64 217.19 188.32 217.53 169.01 217.76 C 164.58 217.87 159.60 217.03 156.67 213.38 C 153.54 209.79 153.76 204.23 156.44 200.46 C 160.05 194.31 166.99 190.65 174.05 190.59 C 212.77 190.62 251.49 190.29 290.20 190.22 C 278.63 180.25 266.74 170.64 254.98 160.89 C 251.98 158.27 248.39 155.28 248.33 150.94 C 248.06 147.62 250.18 144.68 252.67 142.73 Z" />
<path fill="#ea882b" opacity="1.00" d=" M 286.45 218.74 C 302.56 215.47 319.93 218.37 333.93 227.05 C 343.87 233.21 352.12 242.30 356.59 253.16 C 362.83 267.59 362.22 284.86 354.75 298.72 C 348.87 310.04 338.91 318.98 327.42 324.37 C 310.27 332.44 289.60 332.55 272.36 324.70 C 260.56 319.36 250.34 310.26 244.31 298.73 C 237.24 285.56 236.27 269.31 241.59 255.36 C 248.76 236.37 266.73 222.53 286.45 218.74 Z" />
<path fill="#ffffff" opacity="1.00" d=" M 292.46 238.74 C 300.32 237.61 308.62 237.86 316.01 241.06 C 326.12 245.14 334.57 253.77 337.46 264.40 C 340.38 274.56 337.69 285.94 330.92 293.99 C 319.55 307.95 298.26 311.71 282.36 303.70 C 273.79 299.56 266.77 292.04 263.76 282.95 C 261.03 274.55 261.87 264.99 266.23 257.28 C 271.58 247.54 281.64 240.85 292.46 238.74 Z" />
</svg>
