<?xml version="1.0" encoding="UTF-8" ?>
<!DOCTYPE svg PUBLIC "-//W3C//DTD SVG 1.1//EN" "http://www.w3.org/Graphics/SVG/1.1/DTD/svg11.dtd">
<svg width="512pt" height="512pt" viewBox="0 0 512 512" version="1.1" xmlns="http://www.w3.org/2000/svg">
<path fill="#2546e9" opacity="1.00" d=" M 0.00 0.00 L 512.00 0.00 L 512.00 512.00 L 0.00 512.00 L 0.00 0.00 Z" />
<path fill="#ffffff" opacity="1.00" d=" M 243.29 107.47 C 273.14 137.34 302.98 167.22 332.83 197.09 C 313.31 216.93 293.48 236.46 273.85 256.18 L 273.64 256.65 C 293.38 276.36 313.17 296.03 332.78 315.85 C 302.89 345.55 273.28 375.59 243.28 405.13 C 243.30 365.75 243.36 326.37 243.24 286.99 C 227.99 302.11 212.83 317.32 197.67 332.54 C 191.47 326.90 185.80 320.67 179.72 314.88 C 199.08 295.50 218.37 276.06 237.73 256.69 C 237.61 256.48 237.36 256.05 237.24 255.83 C 217.89 236.55 198.75 217.06 179.30 197.88 C 185.04 191.79 191.12 186.00 196.99 180.02 L 197.64 180.30 C 212.89 195.43 227.98 210.74 243.24 225.86 C 243.31 186.40 243.16 146.93 243.29 107.47 Z" />
<path fill="#2546e9" opacity="1.00" d=" M 268.43 168.69 C 277.83 178.17 287.34 187.56 296.74 197.05 L 296.94 197.62 C 287.42 207.09 278.00 216.70 268.41 226.08 C 268.35 206.95 268.37 187.82 268.43 168.69 Z" />
<path fill="#2546e9" opacity="1.00" d=" M 268.36 286.99 C 268.59 287.11 269.06 287.37 269.29 287.50 C 278.39 296.82 287.75 305.90 296.86 315.22 L 296.82 315.93 C 287.41 325.43 277.93 334.90 268.44 344.32 C 268.22 325.22 268.37 306.09 268.36 286.99 Z" />
</svg>
