<?xml version="1.0" encoding="UTF-8" ?>
<!DOCTYPE svg PUBLIC "-//W3C//DTD SVG 1.1//EN" "http://www.w3.org/Graphics/SVG/1.1/DTD/svg11.dtd">
<svg width="512pt" height="512pt" viewBox="0 0 512 512" version="1.1" xmlns="http://www.w3.org/2000/svg">
<path fill="#2594e9" opacity="1.00" d=" M 0.00 0.00 L 512.00 0.00 L 512.00 512.00 L 0.00 512.00 L 0.00 0.00 Z" />
<path fill="#ffffff" opacity="1.00" d=" M 183.43 112.63 C 187.85 111.30 192.50 111.73 197.05 111.68 C 239.01 111.68 280.96 111.69 322.91 111.68 C 339.39 111.95 354.03 126.54 354.28 143.05 C 354.36 217.03 354.27 291.02 354.32 365.00 C 354.45 370.09 354.14 375.30 352.24 380.07 C 348.52 390.10 339.59 397.95 329.19 400.38 C 324.55 401.67 319.71 401.25 314.96 401.30 C 273.64 401.31 232.32 401.28 191.01 401.31 C 182.11 401.17 173.33 397.23 167.35 390.64 C 161.65 384.61 158.61 376.30 158.69 368.04 C 158.71 293.34 158.66 218.64 158.71 143.94 C 158.66 129.47 169.44 116.04 183.43 112.63 Z" />
<path fill="#2594e9" opacity="1.00" d=" M 191.40 144.55 C 193.90 144.11 196.46 144.27 198.99 144.24 C 238.99 144.30 278.99 144.20 319.00 144.29 C 322.77 144.11 326.54 147.20 326.79 151.03 C 327.30 162.02 326.92 173.03 327.02 184.02 C 327.19 188.41 323.44 192.41 319.01 192.29 C 277.34 192.33 235.66 192.30 193.99 192.30 C 189.46 192.59 185.42 188.51 185.64 184.00 C 185.58 173.67 185.63 163.33 185.62 152.99 C 185.39 149.31 187.84 145.59 191.40 144.55 Z" />
<path fill="#2594e9" opacity="1.00" d=" M 198.48 232.72 C 206.86 230.43 216.12 235.82 218.66 244.02 C 220.92 250.46 218.46 258.00 213.16 262.19 C 209.01 265.83 203.01 266.69 197.78 265.32 C 191.44 263.42 186.46 257.56 185.75 250.96 C 184.73 242.83 190.57 234.64 198.48 232.72 Z" />
<path fill="#2594e9" opacity="1.00" d=" M 252.49 232.73 C 261.53 230.18 271.37 236.87 272.96 245.97 C 275.36 256.38 265.61 267.28 254.99 265.95 C 245.51 265.22 237.97 255.28 240.12 245.96 C 241.28 239.67 246.29 234.31 252.49 232.73 Z" />
<path fill="#2594e9" opacity="1.00" d=" M 306.40 232.69 C 316.03 230.07 326.70 237.97 326.88 247.95 C 327.97 257.35 319.50 266.50 310.02 265.91 C 300.04 266.18 291.71 255.74 293.86 246.06 C 295.01 239.69 300.14 234.27 306.40 232.69 Z" />
<path fill="#2594e9" opacity="1.00" d=" M 198.37 285.51 C 207.22 283.10 216.98 289.04 218.99 297.94 C 221.80 307.85 213.29 318.81 203.04 318.70 C 193.90 319.28 185.66 311.09 185.63 302.05 C 185.50 294.49 191.08 287.36 198.37 285.51 Z" />
<path fill="#2594e9" opacity="1.00" d=" M 251.55 285.74 C 260.56 282.58 270.92 288.99 272.83 298.16 C 275.42 307.93 267.17 318.77 257.02 318.70 C 247.14 319.37 238.56 309.63 239.88 299.95 C 240.66 293.50 245.37 287.74 251.55 285.74 Z" />
<path fill="#2594e9" opacity="1.00" d=" M 305.43 285.71 C 315.33 282.26 326.87 290.51 326.89 300.94 C 327.87 310.31 319.36 319.22 309.96 318.70 C 300.08 318.84 291.84 308.63 293.81 299.00 C 294.86 292.89 299.54 287.59 305.43 285.71 Z" />
<path fill="#2594e9" opacity="1.00" d=" M 196.41 339.58 C 205.39 335.71 216.58 341.57 218.88 350.97 C 221.61 359.89 215.18 370.03 206.13 371.80 C 197.47 374.04 188.02 367.74 186.13 359.14 C 184.01 351.24 188.88 342.47 196.41 339.58 Z" />
<path fill="#2594e9" opacity="1.00" d=" M 250.40 339.60 C 259.12 335.78 269.95 341.31 272.49 350.35 C 275.64 359.32 269.30 369.91 260.09 371.79 C 251.79 373.97 242.75 368.15 240.51 360.04 C 237.82 352.01 242.60 342.63 250.40 339.60 Z" />
<path fill="#2594e9" opacity="1.00" d=" M 304.42 339.51 C 314.30 335.26 326.60 343.28 326.87 353.95 C 328.14 363.86 318.76 373.25 308.89 372.17 C 301.76 371.55 295.51 365.95 293.99 358.98 C 291.99 351.08 296.87 342.34 304.42 339.51 Z" />
</svg>
