<?xml version="1.0" encoding="UTF-8" ?>
<!DOCTYPE svg PUBLIC "-//W3C//DTD SVG 1.1//EN" "http://www.w3.org/Graphics/SVG/1.1/DTD/svg11.dtd">
<svg width="512pt" height="512pt" viewBox="0 0 512 512" version="1.1" xmlns="http://www.w3.org/2000/svg">
<path fill="#b91118" opacity="1.00" d=" M 0.00 0.00 L 512.00 0.00 L 512.00 512.00 L 0.00 512.00 L 0.00 0.00 Z" />
<path fill="#ffffff" opacity="1.00" d=" M 244.57 118.08 C 245.23 117.86 246.55 117.40 247.21 117.17 C 247.54 117.54 248.19 118.26 248.51 118.63 C 249.23 118.57 250.68 118.44 251.40 118.38 C 252.54 121.49 251.85 125.16 253.82 127.96 C 254.58 127.02 255.33 126.08 256.08 125.14 C 256.70 126.21 257.33 127.28 257.98 128.35 C 260.29 125.49 259.09 121.60 259.28 118.24 C 262.26 117.76 265.30 117.64 268.31 117.93 C 268.32 118.72 268.34 120.31 268.35 121.10 C 269.36 122.14 269.84 123.46 270.04 124.89 C 270.75 124.77 272.17 124.53 272.88 124.41 C 272.81 125.20 272.66 126.78 272.59 127.57 C 273.37 127.62 274.95 127.71 275.74 127.75 C 275.68 125.18 275.86 122.60 276.56 120.12 C 278.46 121.19 280.75 123.97 282.87 121.73 C 284.21 121.74 285.54 121.76 286.88 121.78 C 287.15 122.43 287.70 123.75 287.97 124.40 C 289.50 122.37 291.14 118.66 294.28 120.58 C 294.50 121.10 294.95 122.14 295.17 122.66 C 295.79 122.52 297.02 122.23 297.64 122.09 C 298.21 122.29 299.35 122.70 299.93 122.90 C 298.80 124.46 297.76 126.07 296.87 127.76 C 297.63 127.73 299.15 127.65 299.92 127.61 C 302.22 128.61 304.65 129.42 304.99 132.31 C 306.95 132.77 308.95 132.53 310.92 132.29 C 311.21 133.88 311.96 135.20 313.48 135.91 C 313.43 136.61 313.34 138.03 313.30 138.73 C 314.85 138.98 316.42 139.16 317.98 139.48 C 319.37 139.94 320.22 141.73 321.84 141.50 C 323.89 140.59 325.84 139.40 328.11 139.11 C 327.54 140.05 326.97 140.99 326.39 141.93 C 327.80 143.06 329.23 144.18 330.70 145.23 C 332.68 143.69 335.02 144.27 335.81 146.73 C 336.21 146.71 337.01 146.67 337.41 146.64 C 339.03 147.55 340.71 148.38 342.15 149.57 C 342.67 149.56 343.71 149.53 344.22 149.52 C 345.08 150.29 345.96 151.06 346.84 151.81 C 346.77 153.21 346.72 154.61 346.67 156.01 C 344.47 157.30 342.09 159.02 342.37 161.92 C 343.84 162.41 345.26 163.05 346.64 163.77 C 346.68 164.30 346.75 165.36 346.78 165.89 C 351.46 165.74 356.31 164.95 360.84 166.59 C 360.34 167.87 359.84 169.16 359.34 170.46 C 357.12 170.77 354.90 171.13 352.74 171.69 C 355.84 172.86 359.31 172.03 362.38 173.38 C 362.71 174.63 363.08 175.87 363.47 177.10 C 363.42 178.36 363.38 179.63 363.38 180.91 C 366.46 184.48 367.61 190.00 372.66 191.67 C 371.49 192.32 370.32 192.98 369.17 193.65 C 369.85 194.83 370.52 196.02 371.18 197.22 C 372.56 197.40 373.95 197.57 375.35 197.72 C 375.55 198.09 375.95 198.83 376.15 199.20 C 379.21 200.38 382.88 202.11 383.72 205.58 C 380.59 206.43 377.33 206.16 374.16 205.81 C 374.36 206.54 374.56 207.27 374.76 208.00 C 378.09 208.29 381.34 209.10 384.59 209.81 C 384.63 210.26 384.71 211.16 384.75 211.61 C 383.89 211.66 382.18 211.74 381.33 211.79 C 382.51 213.34 383.73 214.93 383.99 216.93 C 381.86 216.55 379.76 216.00 377.65 215.54 C 378.85 217.61 380.46 219.55 380.73 222.02 C 381.21 222.81 381.69 223.60 382.18 224.40 C 381.51 224.41 380.17 224.45 379.50 224.47 C 380.02 226.45 378.62 227.32 377.02 227.96 C 379.80 229.16 381.32 231.72 381.95 234.58 C 381.18 234.63 379.64 234.72 378.88 234.76 C 380.52 237.29 382.50 239.58 384.59 241.75 C 384.22 242.28 383.46 243.34 383.09 243.87 C 381.46 243.33 379.82 242.87 378.17 242.47 C 379.16 244.89 381.73 245.70 383.82 246.87 C 381.27 249.32 385.03 251.71 385.53 254.19 C 385.32 255.28 383.93 256.62 384.90 257.63 C 387.31 259.87 386.68 263.39 386.41 266.32 C 385.38 267.44 385.14 268.89 385.43 270.35 C 383.86 269.59 382.19 269.09 380.44 269.05 C 382.92 272.26 385.57 275.35 388.40 278.26 C 387.90 278.71 386.89 279.61 386.38 280.06 C 388.24 282.64 390.25 285.10 391.89 287.83 C 388.87 288.20 388.01 284.55 385.58 283.49 C 385.05 288.03 390.29 289.80 391.78 293.60 C 389.58 293.38 387.36 293.25 385.18 293.71 C 384.40 292.96 383.62 292.21 382.86 291.47 C 381.68 292.22 380.52 292.99 379.37 293.78 C 380.07 294.86 380.78 295.94 381.49 297.02 C 378.80 298.87 375.63 299.75 372.39 299.90 C 372.46 302.70 373.96 305.29 373.52 308.12 C 372.57 308.65 371.62 309.19 370.69 309.75 C 371.91 312.40 369.51 314.57 368.43 316.78 C 368.50 317.42 368.64 318.71 368.71 319.35 C 367.17 319.70 365.63 320.08 364.10 320.47 C 364.32 321.26 364.74 322.84 364.95 323.63 C 364.60 324.19 363.90 325.30 363.55 325.85 C 364.42 327.02 365.47 328.14 365.84 329.60 C 364.27 329.69 362.82 328.96 361.35 328.56 C 361.68 329.47 362.34 331.31 362.67 332.23 C 361.71 332.48 360.76 332.74 359.81 333.00 C 359.20 330.25 354.83 330.53 354.21 333.14 C 355.13 336.61 354.45 340.50 357.17 343.30 C 356.87 344.71 356.58 346.12 356.33 347.56 C 355.12 347.62 353.91 347.67 352.70 347.71 C 351.75 346.57 350.63 345.68 349.32 345.02 C 349.48 345.91 349.78 347.70 349.93 348.59 C 349.35 350.21 348.80 351.86 348.26 353.51 C 347.56 352.94 346.14 351.80 345.43 351.24 C 345.49 351.97 345.62 353.45 345.68 354.19 C 342.56 355.82 343.43 360.11 340.24 361.49 C 337.59 359.97 334.57 361.09 331.77 361.31 C 331.67 361.81 331.48 362.81 331.38 363.31 C 330.72 363.34 329.38 363.42 328.72 363.46 C 328.75 364.13 328.82 365.48 328.85 366.16 C 327.23 366.27 325.68 366.76 324.21 367.44 C 322.62 367.64 321.25 366.60 319.82 366.12 C 318.93 366.59 318.04 367.07 317.17 367.55 C 317.44 369.11 317.74 370.66 318.12 372.20 C 317.85 372.38 317.32 372.75 317.06 372.94 C 316.18 372.20 315.31 371.49 314.42 370.79 C 314.32 372.32 314.23 373.86 314.16 375.40 C 311.14 375.65 308.11 375.33 305.09 375.46 C 304.51 379.10 300.53 380.15 297.46 380.80 C 297.47 381.53 297.49 382.98 297.49 383.71 C 297.14 383.71 296.43 383.72 296.07 383.72 C 295.09 381.62 292.75 381.27 290.78 380.66 C 290.44 381.94 290.88 383.68 289.66 384.60 C 288.33 385.08 287.15 384.06 285.97 383.65 C 284.76 384.20 283.55 384.75 282.34 385.30 C 281.97 386.90 281.59 388.51 281.21 390.12 C 280.37 390.41 279.54 390.72 278.71 391.03 C 277.39 389.17 276.22 387.19 274.64 385.56 C 274.58 386.51 274.46 388.40 274.39 389.35 C 273.32 389.44 272.24 389.53 271.17 389.63 C 271.02 390.78 270.88 391.95 270.74 393.12 C 268.66 393.32 266.68 393.99 264.78 394.84 C 264.73 392.87 264.68 390.90 264.75 388.94 C 264.26 388.04 263.78 387.15 263.29 386.26 C 261.86 386.27 260.44 386.28 259.02 386.30 C 258.70 386.57 258.06 387.12 257.74 387.39 C 256.09 387.49 254.45 387.63 252.82 387.77 C 252.66 388.40 252.34 389.67 252.18 390.30 C 251.27 390.31 249.45 390.31 248.54 390.31 C 248.43 387.35 249.10 384.46 249.49 381.54 C 248.52 381.97 247.55 382.40 246.58 382.84 C 246.44 384.25 245.96 385.52 245.15 386.65 C 244.36 386.57 242.78 386.41 241.99 386.33 C 241.43 386.50 240.33 386.85 239.78 387.02 C 239.70 386.41 239.54 385.21 239.45 384.60 C 239.02 384.77 238.16 385.10 237.72 385.27 C 237.17 386.33 236.61 387.38 236.05 388.44 C 235.46 387.60 234.88 386.76 234.30 385.93 C 233.37 388.73 231.63 387.16 230.94 385.17 C 230.06 385.71 229.19 386.26 228.32 386.81 C 228.33 384.53 228.36 382.24 228.30 379.97 C 224.98 381.43 225.92 385.63 225.52 388.55 C 225.01 388.59 224.00 388.67 223.49 388.71 C 223.53 387.35 223.59 385.99 223.64 384.64 C 223.27 384.11 222.53 383.06 222.16 382.53 C 220.37 382.63 218.59 382.76 216.81 382.90 C 217.33 379.82 217.83 376.47 216.09 373.66 C 214.12 377.83 214.16 382.61 212.13 386.78 C 209.42 386.20 210.96 383.03 210.75 381.17 C 209.42 381.19 208.09 381.24 206.76 381.29 C 206.74 382.07 206.69 383.62 206.67 384.39 L 204.67 384.43 C 204.22 379.69 205.43 375.00 205.15 370.27 C 203.11 372.91 203.11 376.33 202.52 379.46 C 201.96 379.49 200.85 379.55 200.30 379.58 C 198.89 378.16 196.42 377.92 195.90 375.73 C 194.13 375.27 192.14 375.19 190.66 374.04 C 189.46 373.08 190.94 371.93 191.27 370.94 C 191.56 368.89 191.79 366.83 191.99 364.76 C 189.24 364.89 186.49 365.14 183.82 365.80 C 183.64 365.36 183.28 364.49 183.10 364.05 C 182.47 364.52 181.22 365.47 180.59 365.94 C 180.54 364.10 180.55 362.27 180.58 360.43 C 180.14 360.14 179.27 359.55 178.83 359.25 C 178.48 356.57 179.06 353.94 179.57 351.32 C 178.95 351.61 177.71 352.19 177.09 352.48 C 176.69 351.04 176.12 349.69 174.71 349.00 C 174.52 348.35 174.14 347.03 173.95 346.38 C 172.09 348.22 172.01 350.96 171.08 353.28 C 170.11 351.30 169.37 349.23 168.60 347.18 C 169.47 345.36 171.98 342.70 169.68 340.94 C 168.05 343.69 166.75 346.79 164.16 348.79 C 164.00 347.00 163.31 345.39 162.22 344.00 C 162.87 342.98 163.52 341.96 164.17 340.95 C 162.29 338.46 164.06 335.80 164.90 333.32 C 164.13 333.35 162.57 333.43 161.80 333.47 C 160.22 331.30 157.46 332.62 155.35 332.92 C 155.34 332.32 155.33 331.11 155.32 330.51 C 154.53 330.45 152.96 330.32 152.18 330.26 C 152.98 329.23 153.79 328.21 154.62 327.21 C 154.66 326.81 154.74 326.00 154.78 325.60 C 154.18 325.77 152.99 326.13 152.39 326.31 C 152.29 325.81 152.10 324.81 152.00 324.30 C 151.25 324.36 149.75 324.46 149.00 324.51 C 148.84 323.63 148.51 321.85 148.35 320.96 C 147.00 321.46 145.65 321.96 144.32 322.48 C 144.49 320.82 144.98 319.25 145.78 317.78 C 144.55 317.15 143.30 316.55 142.16 315.77 C 142.63 314.69 143.15 313.63 143.72 312.60 C 143.05 312.32 141.71 311.75 141.04 311.47 C 141.25 310.14 141.44 308.82 141.63 307.50 C 139.83 308.45 138.03 310.48 135.82 309.28 C 136.71 308.44 137.62 307.64 138.53 306.84 C 136.74 305.82 135.17 304.53 134.97 302.35 C 133.74 302.44 132.52 302.53 131.29 302.63 C 131.57 298.35 134.81 295.41 136.92 291.98 C 135.39 291.28 133.89 290.52 132.42 289.70 C 132.16 289.03 131.65 287.68 131.40 287.01 C 130.15 288.05 128.80 288.94 127.35 289.67 C 127.26 286.71 129.30 284.47 130.69 282.07 C 129.37 279.74 126.99 278.50 125.14 276.70 C 125.89 273.36 129.66 271.89 131.20 268.92 C 129.77 268.33 128.35 267.74 126.94 267.14 C 127.26 266.56 127.89 265.38 128.21 264.80 C 125.78 264.89 124.52 262.93 123.42 261.11 C 126.88 258.45 130.90 256.62 134.25 253.83 C 133.54 253.66 132.14 253.32 131.43 253.15 C 131.58 252.41 131.89 250.95 132.04 250.22 C 132.89 249.21 133.71 248.16 134.44 247.06 C 133.50 246.89 131.64 246.55 130.71 246.38 C 132.24 245.15 134.40 244.23 134.45 241.95 C 132.79 241.71 130.41 242.27 130.29 239.87 C 129.45 239.74 127.78 239.48 126.95 239.35 C 125.54 240.17 124.11 240.96 122.62 241.64 C 122.49 239.38 122.23 237.11 122.52 234.86 C 124.27 234.31 126.00 233.72 127.75 233.15 C 127.68 232.62 127.54 231.57 127.47 231.04 C 127.88 230.50 128.70 229.42 129.11 228.88 C 128.40 227.47 127.76 226.02 127.28 224.52 C 128.11 224.42 129.78 224.22 130.61 224.12 C 130.41 221.35 130.55 218.58 130.78 215.82 C 133.41 215.32 136.05 214.82 138.63 214.10 C 137.88 213.87 136.39 213.41 135.65 213.19 C 135.21 212.14 134.76 211.10 134.30 210.07 C 133.94 207.28 134.65 204.64 136.61 202.59 C 138.68 202.11 140.75 201.60 142.82 201.13 C 142.70 200.33 142.58 199.53 142.47 198.73 C 140.72 198.68 138.99 198.58 137.26 198.40 C 137.94 197.39 138.63 196.40 139.32 195.41 C 139.31 193.58 139.32 191.76 139.32 189.94 C 144.52 188.61 149.68 186.97 155.13 187.18 C 154.16 186.42 153.19 185.68 152.21 184.93 C 152.61 184.70 153.40 184.25 153.80 184.02 C 155.70 184.42 158.70 186.05 158.72 182.81 C 155.45 182.15 152.21 181.35 149.03 180.34 C 149.12 179.32 149.23 178.31 149.38 177.30 C 153.87 177.47 158.24 178.92 162.77 178.86 C 161.73 173.59 154.50 176.39 152.22 172.77 C 153.06 172.69 154.75 172.51 155.60 172.43 C 155.51 171.72 155.35 170.31 155.27 169.61 C 156.38 169.15 157.49 168.70 158.61 168.25 C 158.30 166.60 157.75 165.01 157.16 163.44 C 158.49 163.42 159.82 163.40 161.15 163.39 C 161.17 162.83 161.20 161.72 161.22 161.17 C 164.47 160.02 167.60 161.29 170.82 161.66 C 171.15 161.32 171.80 160.64 172.12 160.30 C 173.48 160.82 174.82 161.35 176.17 161.91 C 177.12 160.74 178.87 159.89 178.84 158.19 C 175.18 155.54 168.90 155.18 167.97 149.91 C 172.91 150.73 176.68 154.25 181.03 156.42 C 182.66 157.15 183.08 154.88 183.96 154.02 C 182.94 153.45 181.92 152.87 180.92 152.29 C 180.01 150.69 178.68 149.42 177.19 148.37 C 177.34 147.86 177.65 146.85 177.80 146.34 C 180.54 148.37 183.15 150.59 186.04 152.40 C 186.47 152.26 187.32 151.98 187.75 151.84 C 188.69 149.08 184.91 148.29 183.33 146.84 C 184.14 145.72 184.94 144.60 185.74 143.47 C 187.10 144.82 188.88 145.75 190.25 143.82 C 191.75 144.84 193.06 144.20 194.24 143.07 C 195.22 143.60 196.20 144.15 197.18 144.70 C 197.73 144.21 198.84 143.24 199.39 142.76 C 199.83 142.72 200.69 142.64 201.13 142.60 C 202.23 140.07 204.82 137.24 207.69 139.55 C 208.12 136.79 205.45 135.43 203.84 133.72 C 203.45 132.27 203.05 130.82 202.67 129.37 C 206.27 130.26 207.44 134.55 209.93 136.97 C 211.92 136.48 213.93 136.03 215.85 135.28 C 214.07 132.96 211.51 130.98 211.00 127.93 C 213.28 128.53 215.42 129.52 217.55 130.53 C 217.64 128.83 216.82 127.41 215.82 126.13 C 216.34 125.63 217.37 124.62 217.89 124.11 C 220.00 125.17 222.06 126.34 224.05 127.62 C 225.06 126.66 226.06 125.69 227.05 124.71 C 227.54 125.24 228.51 126.30 229.00 126.83 C 230.40 126.59 231.72 126.08 232.95 125.37 C 232.18 124.76 230.64 123.55 229.87 122.94 C 231.27 121.99 232.70 121.06 234.13 120.15 C 234.67 121.42 235.21 122.69 235.75 123.97 C 236.36 123.87 237.58 123.66 238.19 123.55 C 239.04 124.97 239.85 126.42 240.64 127.87 C 241.06 127.77 241.91 127.57 242.33 127.47 C 241.68 125.83 241.45 124.14 241.65 122.39 C 242.92 123.25 244.19 124.11 245.46 124.99 C 245.27 122.68 244.87 120.38 244.57 118.08 Z" />
<path fill="#b91118" opacity="1.00" d=" M 227.30 302.52 C 236.08 299.04 247.19 306.36 246.87 315.94 C 247.83 323.84 240.90 331.38 233.06 331.57 C 226.00 332.18 218.83 326.99 217.56 319.95 C 215.84 312.69 220.23 304.83 227.30 302.52 Z" />
<path fill="#b91118" opacity="1.00" d=" M 269.33 313.51 C 271.18 307.16 277.43 303.18 283.84 302.83 C 290.84 303.39 297.62 308.56 298.34 315.84 C 299.89 324.27 292.71 333.08 284.05 332.75 C 274.23 333.73 265.91 322.71 269.33 313.51 Z" />
<path fill="#ffffff" opacity="1.00" d=" M 226.46 314.58 C 225.15 310.42 231.04 306.59 234.16 309.84 C 236.52 311.46 235.84 314.61 234.84 316.82 C 235.81 318.40 236.26 320.81 234.02 321.56 C 232.04 321.78 231.46 320.11 230.97 318.59 C 229.21 317.62 226.90 316.81 226.46 314.58 Z" />
<path fill="#ffffff" opacity="1.00" d=" M 278.95 310.06 C 281.91 306.92 286.39 309.51 287.46 313.03 C 286.96 314.25 286.46 315.48 285.98 316.71 C 286.85 318.22 287.55 320.95 285.13 321.44 C 283.20 322.07 282.69 319.81 282.08 318.56 C 278.41 317.72 275.64 312.96 278.95 310.06 Z" />
</svg>
