<?xml version="1.0" encoding="UTF-8" ?>
<!DOCTYPE svg PUBLIC "-//W3C//DTD SVG 1.1//EN" "http://www.w3.org/Graphics/SVG/1.1/DTD/svg11.dtd">
<svg width="512pt" height="512pt" viewBox="0 0 512 512" version="1.1" xmlns="http://www.w3.org/2000/svg">
<path fill="#8e8e8e" opacity="1.00" d=" M 0.00 0.00 L 512.00 0.00 L 512.00 512.00 L 0.00 512.00 L 0.00 0.00 Z" />
<path fill="#ffffff" opacity="1.00" d=" M 242.59 161.93 C 272.11 156.29 304.07 170.78 319.41 196.59 C 327.99 210.66 331.86 227.63 329.79 244.02 C 327.86 260.36 320.32 275.99 308.63 287.59 C 295.38 300.97 276.89 309.16 258.03 309.58 C 240.13 310.30 222.08 304.12 208.26 292.74 C 196.42 283.10 187.66 269.71 183.64 254.97 C 178.89 238.14 180.46 219.65 187.96 203.86 C 197.90 182.08 219.05 166.03 242.59 161.93 Z" />
<path fill="#8e8e8e" opacity="1.00" d=" M 253.33 201.40 C 269.84 199.01 286.76 210.66 290.50 226.88 C 294.85 242.56 285.98 260.46 270.91 266.57 C 256.31 273.33 237.54 267.55 228.96 254.03 C 219.73 240.69 222.14 221.03 234.22 210.24 C 239.44 205.38 246.22 202.17 253.33 201.40 Z" />
<path fill="#ffffff" opacity="1.00" d=" M 252.18 208.13 C 266.94 204.82 282.76 215.99 284.69 230.95 C 287.77 246.74 274.16 263.11 258.05 262.73 C 242.20 263.83 228.16 248.65 229.87 233.00 C 230.69 220.95 240.30 210.25 252.18 208.13 Z" />
<path fill="#ffffff" opacity="1.00" d=" M 88.15 351.18 C 94.04 329.82 98.89 308.18 104.53 286.76 C 134.00 286.81 163.47 286.76 192.94 286.78 C 203.42 299.08 217.33 308.50 232.93 312.92 C 252.71 318.94 274.71 316.58 293.00 307.04 C 302.82 302.12 311.20 294.83 318.49 286.70 C 347.84 286.85 377.20 286.79 406.55 286.73 C 412.40 308.11 417.07 329.82 423.04 351.18 C 311.41 351.19 199.78 351.19 88.15 351.18 Z" />
<path fill="#8e8e8e" opacity="1.00" d=" M 196.44 319.62 C 197.91 319.48 199.39 319.35 200.87 319.24 C 200.80 320.68 200.73 322.13 200.64 323.59 C 199.65 323.51 197.66 323.35 196.66 323.27 C 196.61 322.35 196.49 320.53 196.44 319.62 Z" />
<path fill="#8e8e8e" opacity="1.00" d=" M 231.25 341.92 C 231.32 334.12 231.07 326.31 231.41 318.52 C 232.39 318.58 234.35 318.72 235.32 318.78 C 235.37 326.43 235.28 334.08 235.39 341.73 C 234.01 341.79 232.62 341.85 231.25 341.92 Z" />
<path fill="#8e8e8e" opacity="1.00" d=" M 319.69 318.69 C 321.05 318.71 322.41 318.73 323.78 318.76 C 323.75 323.35 323.72 327.95 323.80 332.54 C 326.42 329.53 328.30 324.70 333.21 325.55 C 331.97 328.17 330.08 330.38 328.08 332.44 C 329.97 335.54 331.96 338.58 333.96 341.62 C 332.40 341.70 330.84 341.78 329.28 341.85 C 327.54 339.00 325.75 336.17 323.81 333.44 C 323.75 336.22 323.74 339.01 323.74 341.80 C 322.40 341.83 321.07 341.87 319.75 341.92 C 319.58 334.18 319.67 326.43 319.69 318.69 Z" />
<path fill="#8e8e8e" opacity="1.00" d=" M 179.66 324.49 C 182.05 320.28 187.90 318.60 192.17 320.89 C 194.24 321.43 193.51 323.86 193.89 325.44 C 191.26 324.40 188.05 322.30 185.34 324.34 C 181.79 327.27 181.73 333.20 184.14 336.86 C 186.66 340.10 190.95 337.96 194.08 337.03 C 193.90 338.21 193.68 339.40 193.41 340.57 C 189.40 343.34 183.15 342.87 180.08 338.93 C 177.22 334.72 177.19 328.89 179.66 324.49 Z" />
<path fill="#8e8e8e" opacity="1.00" d=" M 265.50 320.42 C 270.42 320.42 276.14 319.32 280.25 322.75 C 284.54 326.83 284.38 334.39 280.79 338.85 C 276.82 343.01 270.56 341.66 265.43 341.65 C 265.44 334.57 265.36 327.50 265.50 320.42 Z" />
<path fill="#ffffff" opacity="1.00" d=" M 269.68 323.39 C 272.07 323.75 274.94 323.33 276.86 325.13 C 279.37 327.77 279.18 331.95 278.22 335.22 C 276.87 338.66 272.73 338.48 269.68 338.70 C 269.68 333.60 269.68 328.49 269.68 323.39 Z" />
<path fill="#8e8e8e" opacity="1.00" d=" M 196.75 325.54 C 198.04 325.70 199.33 325.90 200.61 326.14 C 201.03 331.36 200.67 336.62 200.75 341.85 C 199.41 341.84 198.06 341.83 196.72 341.82 C 196.65 336.39 196.63 330.96 196.75 325.54 Z" />
<path fill="#8e8e8e" opacity="1.00" d=" M 205.06 326.96 C 205.43 324.36 208.55 325.97 208.89 327.76 C 210.41 326.37 212.25 325.51 214.30 325.23 C 214.35 326.32 214.44 328.50 214.49 329.58 C 213.64 329.52 211.92 329.40 211.07 329.34 C 207.98 332.74 209.50 337.60 209.28 341.73 C 207.90 341.76 206.53 341.80 205.16 341.73 C 204.61 336.84 204.65 331.86 205.06 326.96 Z" />
<path fill="#8e8e8e" opacity="1.00" d=" M 219.51 341.52 C 213.35 337.89 215.14 325.69 222.94 325.52 C 225.90 325.05 228.33 327.00 228.26 330.02 C 225.90 329.76 222.84 327.68 221.02 330.12 C 219.81 332.65 219.63 336.32 221.73 338.44 C 223.97 339.27 226.23 337.98 228.38 337.45 C 228.07 338.77 227.76 340.10 227.46 341.43 C 224.86 341.94 221.99 343.00 219.51 341.52 Z" />
<path fill="#8e8e8e" opacity="1.00" d=" M 239.90 328.86 C 242.08 325.10 247.68 324.42 250.98 327.05 C 253.12 328.89 252.96 331.99 253.60 334.52 C 249.84 334.83 246.06 334.83 242.29 334.88 C 243.12 336.56 243.64 338.94 245.90 339.20 C 248.26 339.31 250.57 338.64 252.89 338.34 C 252.67 340.14 251.95 341.80 249.93 341.95 C 246.48 342.82 241.92 342.55 239.81 339.25 C 238.03 336.12 238.10 331.97 239.90 328.86 Z" />
<path fill="#8e8e8e" opacity="1.00" d=" M 290.23 326.26 C 294.00 324.57 299.59 325.48 301.21 329.73 C 302.17 333.02 302.21 337.08 299.89 339.84 C 296.43 343.61 288.93 343.29 286.68 338.35 C 284.85 334.26 285.84 328.28 290.23 326.26 Z" />
<path fill="#8e8e8e" opacity="1.00" d=" M 306.57 340.50 C 303.01 336.41 303.62 328.23 309.06 326.01 C 311.48 324.90 314.05 326.03 316.43 326.64 C 316.42 327.60 316.39 329.51 316.38 330.46 C 314.93 329.83 313.47 329.20 312.02 328.59 C 311.39 328.87 310.12 329.44 309.48 329.73 C 308.83 332.45 307.77 335.75 309.93 338.11 C 312.01 339.70 314.54 337.95 316.63 337.34 C 316.56 338.32 316.41 340.27 316.33 341.24 C 313.17 342.21 309.17 343.24 306.57 340.50 Z" />
<path fill="#ffffff" opacity="1.00" d=" M 242.20 332.28 C 243.04 329.45 245.16 328.12 248.07 328.32 C 248.55 329.67 249.04 331.02 249.52 332.38 C 247.08 332.37 244.64 332.35 242.20 332.28 Z" />
<path fill="#ffffff" opacity="1.00" d=" M 292.22 329.18 C 298.34 326.08 299.98 338.89 294.00 338.90 C 289.18 339.28 288.91 331.15 292.22 329.18 Z" />
</svg>
