<?xml version="1.0" encoding="UTF-8" ?>
<!DOCTYPE svg PUBLIC "-//W3C//DTD SVG 1.1//EN" "http://www.w3.org/Graphics/SVG/1.1/DTD/svg11.dtd">
<svg width="512pt" height="512pt" viewBox="0 0 512 512" version="1.1" xmlns="http://www.w3.org/2000/svg">
<path fill="#39bbea" opacity="1.00" d=" M 0.00 0.00 L 512.00 0.00 L 512.00 512.00 L 0.00 512.00 L 0.00 0.00 Z" />
<path fill="#ffffff" opacity="1.00" d=" M 270.30 184.18 C 274.86 184.16 279.43 184.15 283.99 184.19 C 270.65 232.43 257.02 280.59 243.67 328.82 C 239.06 328.84 234.45 328.85 229.83 328.81 C 243.37 280.61 256.90 232.41 270.30 184.18 Z" />
<path fill="#ffffff" opacity="1.00" d=" M 126.31 249.13 C 157.24 236.21 188.06 223.05 218.94 210.03 C 218.96 215.71 218.91 221.40 218.97 227.09 C 196.78 236.25 174.57 245.33 152.37 254.48 C 150.13 255.41 147.76 256.11 145.75 257.51 C 170.17 267.70 194.63 277.78 219.06 287.95 C 218.84 293.61 219.06 299.27 218.97 304.94 C 188.05 291.86 157.27 278.46 126.33 265.41 C 126.16 259.98 126.22 254.55 126.31 249.13 Z" />
<path fill="#ffffff" opacity="1.00" d=" M 294.81 209.97 C 325.69 223.13 356.64 236.13 387.55 249.22 C 387.58 254.56 387.54 259.91 387.58 265.26 C 356.68 278.55 325.75 291.76 294.81 304.97 C 294.80 299.28 294.80 293.60 294.81 287.92 C 315.78 279.19 336.76 270.50 357.73 261.77 C 361.20 260.24 364.84 259.09 368.12 257.18 C 343.63 247.31 319.28 237.08 294.82 227.13 C 294.79 221.41 294.80 215.69 294.81 209.97 Z" />
</svg>
