<?xml version="1.0" encoding="UTF-8" ?>
<!DOCTYPE svg PUBLIC "-//W3C//DTD SVG 1.1//EN" "http://www.w3.org/Graphics/SVG/1.1/DTD/svg11.dtd">
<svg width="512pt" height="512pt" viewBox="0 0 512 512" version="1.1" xmlns="http://www.w3.org/2000/svg">
<path fill="#74b512" opacity="1.00" d=" M 0.00 0.00 L 512.00 0.00 L 512.00 512.00 L 0.00 512.00 L 0.00 0.00 Z" />
<path fill="#ffffff" opacity="1.00" d=" M 146.18 144.15 C 156.76 134.94 171.05 130.02 185.02 130.48 C 187.65 130.19 188.59 132.97 188.95 135.05 C 192.14 152.84 199.68 170.40 212.84 183.09 C 218.43 188.64 225.10 193.01 232.27 196.22 C 203.91 191.94 176.71 181.39 152.00 166.98 C 146.84 163.84 140.99 161.27 137.48 156.13 C 138.87 151.24 142.55 147.50 146.18 144.15 Z" />
<path fill="#ffffff" opacity="1.00" d=" M 210.10 165.21 C 222.67 153.73 238.61 144.74 255.98 144.38 C 272.26 143.53 288.05 150.36 300.50 160.48 C 309.17 167.32 316.53 175.64 323.25 184.37 C 305.85 190.49 287.58 195.17 269.01 194.74 C 254.09 195.02 238.81 191.14 226.56 182.44 C 220.01 177.84 214.47 171.89 210.10 165.21 Z" />
<path fill="#ffffff" opacity="1.00" d=" M 159.13 241.98 C 168.01 223.85 177.51 205.96 189.02 189.34 C 193.34 190.92 197.67 192.51 202.09 193.84 C 196.32 197.50 192.45 203.67 190.73 210.19 C 189.83 214.78 189.66 220.25 193.09 223.91 C 195.98 226.87 200.71 226.94 204.30 225.27 C 211.75 222.08 216.43 214.73 218.80 207.25 C 215.83 207.57 212.35 208.33 209.89 206.10 C 206.46 203.76 205.82 199.06 207.90 195.59 C 216.07 197.68 224.25 199.92 232.66 200.84 C 228.56 208.40 227.50 217.56 229.68 225.87 C 230.92 230.38 233.94 234.66 238.43 236.37 C 242.63 237.49 247.58 237.04 250.81 233.84 C 256.10 228.68 256.92 220.72 256.34 213.72 C 253.04 215.09 248.93 215.41 246.06 212.94 C 242.80 210.50 242.33 205.65 244.55 202.35 C 272.69 205.28 301.64 201.17 327.68 190.01 C 334.65 200.24 341.09 210.82 346.77 221.82 C 317.00 246.66 280.30 265.24 241.03 267.06 C 211.84 268.48 182.94 258.56 159.13 241.98 Z" />
<path fill="#ffffff" opacity="1.00" d=" M 198.24 203.00 C 199.20 200.10 203.49 199.04 205.20 201.78 C 206.14 202.77 205.54 204.14 205.42 205.31 C 202.73 207.30 199.49 205.89 198.24 203.00 Z" />
<path fill="#ffffff" opacity="1.00" d=" M 235.42 207.53 C 237.98 204.72 244.03 208.41 241.74 211.79 C 240.08 214.61 235.34 213.91 234.33 210.91 C 233.82 209.72 234.41 208.25 235.42 207.53 Z" />
<path fill="#ffffff" opacity="1.00" d=" M 289.85 263.70 C 311.28 254.77 330.56 241.37 348.03 226.21 L 348.78 226.20 C 352.67 232.82 355.78 239.85 359.30 246.66 C 369.78 266.58 375.47 289.41 373.36 311.96 C 371.89 324.50 367.60 336.92 359.87 347.01 C 350.61 359.54 336.77 367.98 322.32 373.29 C 302.39 380.38 281.07 382.82 260.01 382.67 C 237.42 382.92 214.42 380.96 193.08 373.08 C 178.14 367.53 164.08 358.40 154.90 345.14 C 143.86 329.57 140.85 309.58 143.05 290.93 C 144.60 276.88 148.74 263.15 154.89 250.44 C 174.95 264.89 199.26 273.17 223.85 275.06 C 246.35 276.72 269.10 272.41 289.85 263.70 Z" />
</svg>
