<?xml version="1.0" encoding="UTF-8" ?>
<!DOCTYPE svg PUBLIC "-//W3C//DTD SVG 1.1//EN" "http://www.w3.org/Graphics/SVG/1.1/DTD/svg11.dtd">
<svg width="512pt" height="512pt" viewBox="0 0 512 512" version="1.1" xmlns="http://www.w3.org/2000/svg">
<path fill="#1ba1e2" opacity="1.00" d=" M 0.00 0.00 L 512.00 0.00 L 512.00 512.00 L 0.00 512.00 L 0.00 0.00 Z" />
<path fill="#ffffff" opacity="1.00" d=" M 125.52 167.06 C 126.06 146.55 144.42 128.21 165.01 128.15 C 223.02 128.14 281.03 128.15 339.03 128.15 C 345.01 128.22 351.15 127.66 356.91 129.62 C 373.22 134.29 385.90 149.89 386.47 166.94 C 386.49 207.99 386.48 249.03 386.48 290.08 C 385.93 306.17 374.67 321.04 359.62 326.53 C 350.52 330.15 340.56 329.14 330.99 329.27 C 300.39 329.34 269.78 329.12 239.19 329.38 C 214.50 345.53 190.04 362.06 165.40 378.30 C 162.45 380.19 159.66 382.64 156.09 383.24 C 149.44 384.51 142.19 378.95 142.18 372.07 C 142.09 369.83 142.25 367.50 143.36 365.51 C 149.53 353.29 155.58 341.01 161.76 328.80 C 142.47 326.82 126.07 309.48 125.52 290.03 C 125.52 249.04 125.51 208.05 125.52 167.06 Z" />
<path fill="#1ba1e2" opacity="1.00" d=" M 155.27 147.73 C 158.03 145.09 162.33 144.71 166.01 144.43 C 225.68 144.40 285.36 144.43 345.03 144.41 C 349.09 144.27 353.01 145.50 356.71 147.04 C 355.88 148.69 354.40 149.84 353.12 151.13 C 324.81 179.49 296.33 207.69 268.04 236.07 C 261.93 242.52 250.85 242.80 244.49 236.57 C 214.76 206.95 185.17 177.17 155.27 147.73 Z" />
<path fill="#1ba1e2" opacity="1.00" d=" M 141.76 169.96 C 141.80 165.50 142.87 161.05 144.98 157.11 C 168.26 180.11 191.25 203.40 214.55 226.37 C 197.77 243.64 180.52 260.48 163.55 277.58 C 156.90 284.07 150.56 290.89 143.71 297.18 C 142.04 292.99 141.60 288.44 141.75 283.97 C 141.78 245.96 141.77 207.96 141.76 169.96 Z" />
<path fill="#1ba1e2" opacity="1.00" d=" M 297.88 226.01 C 320.97 203.08 343.90 180.00 367.02 157.11 C 369.14 161.05 370.20 165.51 370.25 169.99 C 370.22 209.00 370.23 248.01 370.24 287.02 C 370.17 290.43 369.62 293.86 368.29 297.01 C 347.35 275.84 326.19 254.89 305.18 233.79 C 302.78 231.16 299.80 229.03 297.88 226.01 Z" />
<path fill="#1ba1e2" opacity="1.00" d=" M 224.39 236.56 C 230.25 241.68 234.90 248.38 242.09 251.81 C 250.20 256.17 260.25 256.44 268.57 252.45 C 276.54 249.08 281.69 241.85 287.90 236.17 C 311.75 260.19 335.75 284.08 359.69 308.02 C 355.60 310.63 350.93 312.50 346.03 312.55 C 286.36 312.59 226.69 312.54 167.01 312.57 C 162.01 312.62 156.92 311.20 152.91 308.16 C 176.69 284.25 200.65 260.51 224.39 236.56 Z" />
</svg>
