<?xml version="1.0" encoding="UTF-8" ?>
<!DOCTYPE svg PUBLIC "-//W3C//DTD SVG 1.1//EN" "http://www.w3.org/Graphics/SVG/1.1/DTD/svg11.dtd">
<svg width="512pt" height="512pt" viewBox="0 0 512 512" version="1.1" xmlns="http://www.w3.org/2000/svg">
<path fill="#0092b8" opacity="1.00" d=" M 0.00 0.00 L 512.00 0.00 L 512.00 512.00 L 0.00 512.00 L 0.00 0.00 Z" />
<path fill="#ffffff" opacity="1.00" d=" M 116.69 116.71 C 166.98 116.70 217.27 116.70 267.56 116.71 C 267.41 166.97 267.51 217.22 267.51 267.48 C 217.24 267.53 166.98 267.45 116.71 267.51 C 116.69 217.25 116.73 166.98 116.69 116.71 Z" />
<path fill="#ffffff" opacity="1.00" d=" M 280.26 198.80 C 303.08 198.86 325.90 198.68 348.72 198.89 C 348.59 221.76 348.70 244.63 348.67 267.50 C 325.87 267.50 303.08 267.46 280.28 267.52 C 280.23 244.61 280.27 221.70 280.26 198.80 Z" />
<path fill="#ffffff" opacity="1.00" d=" M 170.75 280.26 C 203.02 280.27 235.28 280.24 267.55 280.27 C 267.46 312.38 267.44 344.49 267.56 376.60 C 235.28 376.61 203.01 376.61 170.73 376.59 C 170.80 344.48 170.77 312.37 170.75 280.26 Z" />
<path fill="#ffffff" opacity="1.00" d=" M 280.22 280.27 C 319.20 280.25 358.19 280.27 397.18 280.26 C 397.17 319.23 397.17 358.19 397.17 397.16 C 358.19 397.18 319.21 397.18 280.23 397.16 C 280.27 358.20 280.30 319.23 280.22 280.27 Z" />
</svg>
