<?xml version="1.0" encoding="UTF-8" ?>
<!DOCTYPE svg PUBLIC "-//W3C//DTD SVG 1.1//EN" "http://www.w3.org/Graphics/SVG/1.1/DTD/svg11.dtd">
<svg width="512pt" height="512pt" viewBox="0 0 512 512" version="1.1" xmlns="http://www.w3.org/2000/svg">
<path fill="#ff4316" opacity="1.00" d=" M 0.00 0.00 L 512.00 0.00 L 512.00 512.00 L 0.00 512.00 L 0.00 0.00 Z" />
<path fill="#ffffff" opacity="1.00" d=" M 300.96 106.00 C 307.77 98.93 315.24 92.26 324.08 87.81 C 326.39 89.33 326.22 92.32 324.05 93.92 C 310.47 103.21 300.14 116.40 291.18 130.01 C 285.02 139.98 278.88 150.51 277.37 162.34 C 279.96 164.60 283.30 162.42 286.23 162.19 C 296.98 160.75 308.21 161.65 318.32 165.78 C 334.16 171.82 347.05 184.77 353.68 200.29 C 359.19 214.68 360.41 231.15 354.73 245.68 C 353.38 248.79 351.73 252.04 348.82 253.95 C 346.63 255.24 343.86 254.51 342.05 252.92 C 337.99 249.64 334.72 245.53 331.28 241.64 C 322.28 230.82 312.96 220.19 302.43 210.81 C 296.28 224.24 286.92 236.58 274.08 244.20 C 265.53 249.22 254.95 252.01 245.23 248.92 C 234.20 245.70 226.46 235.84 222.63 225.40 C 216.65 209.24 217.10 191.45 220.73 174.81 C 209.46 175.77 198.14 176.69 187.05 179.08 C 178.59 180.61 170.24 182.69 161.80 184.33 C 158.75 184.81 154.61 185.39 152.73 182.29 C 150.85 178.24 152.50 173.65 153.65 169.63 C 158.63 154.97 169.42 142.52 182.82 134.87 C 196.37 127.23 212.85 124.82 227.98 128.56 C 244.62 132.25 259.32 143.66 266.90 158.93 C 268.50 153.27 270.99 147.93 273.80 142.78 C 281.20 129.41 290.38 117.03 300.96 106.00 Z" />
<path fill="#ffffff" opacity="1.00" d=" M 185.06 187.27 C 193.75 185.73 202.48 184.32 211.27 183.38 C 208.40 202.69 210.43 224.31 223.10 240.00 C 229.63 250.15 240.88 257.55 253.07 258.17 C 265.12 258.23 276.38 252.09 284.92 243.93 C 291.76 236.93 299.24 230.38 304.39 221.94 C 312.31 229.72 319.69 238.03 326.85 246.51 C 325.78 259.61 320.74 271.87 315.94 283.96 C 305.79 308.93 293.51 333.09 278.68 355.62 C 269.25 369.91 258.77 383.57 246.72 395.77 C 237.53 404.86 227.42 413.32 215.58 418.73 C 207.19 422.38 197.52 424.48 188.59 421.50 C 178.78 418.87 172.51 410.23 166.91 402.38 C 156.77 382.12 153.36 359.27 152.24 336.86 C 150.77 304.03 154.25 271.10 161.00 238.98 C 163.92 227.05 165.79 214.64 171.48 203.61 C 174.05 198.39 177.22 193.43 181.00 188.99 C 181.92 187.66 183.62 187.58 185.06 187.27 Z" />
</svg>
