<?xml version="1.0" encoding="UTF-8" ?>
<!DOCTYPE svg PUBLIC "-//W3C//DTD SVG 1.1//EN" "http://www.w3.org/Graphics/SVG/1.1/DTD/svg11.dtd">
<svg width="512pt" height="512pt" viewBox="0 0 512 512" version="1.1" xmlns="http://www.w3.org/2000/svg">
<path fill="#242424" opacity="1.00" d=" M 0.00 0.00 L 512.00 0.00 L 512.00 512.00 L 0.00 512.00 L 0.00 0.00 Z" />
<path fill="#ffffff" opacity="1.00" d=" M 128.11 137.18 C 212.38 136.74 296.71 137.15 381.00 136.98 C 383.92 136.45 386.61 139.01 386.06 141.97 C 386.05 200.33 386.06 258.68 386.05 317.04 C 386.40 319.39 384.61 322.00 382.06 321.68 C 298.03 321.71 213.99 321.68 129.96 321.70 C 127.27 322.19 124.72 319.72 125.13 317.01 C 125.13 258.65 125.14 200.28 125.13 141.92 C 124.75 139.79 126.25 137.96 128.11 137.18 Z" />
<path fill="#242424" opacity="1.00" d=" M 133.46 293.51 C 133.26 243.93 133.34 194.34 133.42 144.76 C 215.03 144.83 296.64 144.74 378.25 144.81 C 378.27 194.33 378.23 243.84 378.27 293.36 C 296.67 293.55 215.06 293.26 133.46 293.51 Z" />
<path fill="#ffffff" opacity="1.00" d=" M 143.08 154.75 C 159.31 154.83 175.54 154.60 191.76 154.89 C 191.53 178.36 192.01 201.85 191.52 225.30 C 175.07 225.23 158.62 225.30 142.16 225.27 C 142.19 219.42 142.18 213.57 142.17 207.71 C 152.62 207.73 163.07 207.68 173.52 207.74 C 173.52 205.96 173.53 204.18 173.54 202.40 C 163.33 202.38 153.11 202.39 142.90 202.40 C 143.06 186.51 143.01 170.63 143.08 154.75 Z" />
<path fill="#ffffff" opacity="1.00" d=" M 193.90 154.59 C 210.31 154.91 226.74 154.47 243.16 154.82 C 243.14 178.30 243.15 201.78 243.15 225.26 C 226.54 225.16 209.83 225.55 193.29 225.07 C 193.15 219.29 193.30 213.50 193.24 207.72 C 203.89 207.61 214.55 207.89 225.20 207.58 C 225.18 205.92 225.18 204.27 225.17 202.61 C 214.83 202.47 204.49 202.59 194.15 202.55 C 194.18 186.56 193.83 170.58 193.90 154.59 Z" />
<path fill="#242424" opacity="1.00" d=" M 209.71 170.61 C 215.22 170.25 220.76 170.41 226.28 170.52 C 226.10 175.84 226.14 181.18 226.29 186.51 C 220.97 186.70 215.62 186.78 210.31 186.52 L 209.86 186.09 C 210.13 180.93 210.36 175.76 209.71 170.61 Z" />
<path fill="#242424" opacity="1.00" d=" M 158.65 170.56 C 163.94 170.46 169.24 170.57 174.54 170.47 C 174.97 175.81 174.38 181.15 174.54 186.50 C 169.22 186.58 163.90 186.58 158.59 186.48 C 158.65 181.17 158.61 175.87 158.65 170.56 Z" />
<path fill="#ffffff" opacity="1.00" d=" M 229.34 325.26 C 246.81 325.29 264.27 325.28 281.73 325.26 C 281.66 336.58 281.82 347.90 281.65 359.23 C 264.24 359.15 246.82 359.16 229.41 359.22 C 229.28 347.90 229.40 336.58 229.34 325.26 Z" />
<path fill="#ffffff" opacity="1.00" d=" M 198.29 344.38 C 206.70 344.11 215.14 344.21 223.56 344.35 C 221.65 350.36 220.54 356.58 218.74 362.63 C 243.13 362.60 267.52 362.61 291.92 362.62 C 290.54 356.47 288.82 350.41 287.37 344.28 C 295.83 344.29 304.31 344.07 312.76 344.37 C 315.71 354.49 317.75 364.92 320.44 375.14 C 277.13 375.12 233.82 375.13 190.51 375.14 C 192.77 364.81 195.73 354.62 198.29 344.38 Z" />
</svg>
