<?xml version="1.0" encoding="UTF-8" ?>
<!DOCTYPE svg PUBLIC "-//W3C//DTD SVG 1.1//EN" "http://www.w3.org/Graphics/SVG/1.1/DTD/svg11.dtd">
<svg width="512pt" height="512pt" viewBox="0 0 512 512" version="1.1" xmlns="http://www.w3.org/2000/svg">
<path fill="#f57900" opacity="1.00" d=" M 0.00 0.00 L 512.00 0.00 L 512.00 512.00 L 0.00 512.00 L 0.00 0.00 Z" />
<path fill="#ffffff" opacity="1.00" d=" M 229.53 130.75 C 234.07 129.17 239.31 130.05 243.22 132.81 C 253.36 139.76 255.77 155.18 249.28 165.36 C 245.47 171.32 237.27 174.58 230.66 171.40 C 216.88 165.62 213.32 145.10 223.53 134.50 C 225.19 132.80 227.29 131.55 229.53 130.75 Z" />
<path fill="#ffffff" opacity="1.00" d=" M 275.40 131.56 C 279.58 130.71 283.93 132.23 287.01 135.10 C 295.55 143.24 295.41 158.63 286.45 166.39 C 282.15 170.26 275.27 170.87 270.54 167.44 C 262.44 161.83 260.27 150.10 264.23 141.39 C 266.23 136.70 270.26 132.56 275.40 131.56 Z" />
<path fill="#ffffff" opacity="1.00" d=" M 186.37 138.47 C 191.80 136.26 198.01 138.09 202.45 141.60 C 213.12 150.22 216.63 166.43 211.04 178.86 C 208.53 184.40 203.21 188.87 196.99 189.25 C 191.14 189.47 185.66 186.30 181.90 181.98 C 176.17 175.48 173.57 166.55 174.19 157.97 C 174.54 150.05 178.59 141.47 186.37 138.47 Z" />
<path fill="#ffffff" opacity="1.00" d=" M 315.40 138.54 C 321.45 136.27 328.57 138.55 332.67 143.41 C 337.94 149.44 338.47 158.69 334.67 165.61 C 331.54 171.69 324.97 176.29 317.96 175.78 C 311.85 175.85 306.24 171.62 303.83 166.14 C 298.99 155.88 304.43 142.05 315.40 138.54 Z" />
<path fill="#ffffff" opacity="1.00" d=" M 138.37 162.19 C 154.30 157.77 171.64 169.33 175.07 185.19 C 179.73 200.93 170.45 219.79 154.32 224.24 C 141.55 228.29 127.04 221.99 120.35 210.61 C 115.25 202.22 114.07 191.55 117.25 182.26 C 120.37 172.62 128.53 164.73 138.37 162.19 Z" />
<path fill="#ffffff" opacity="1.00" d=" M 262.21 174.05 C 281.75 172.74 301.59 175.54 320.09 181.99 C 344.19 190.51 366.30 205.90 380.75 227.20 C 392.63 244.55 398.79 265.99 396.75 287.00 C 395.21 308.51 385.10 328.81 370.50 344.45 C 344.46 372.12 305.68 386.07 268.03 384.80 C 229.86 384.59 190.98 368.36 166.68 338.40 C 155.91 325.06 148.43 308.91 146.11 291.87 C 143.18 271.40 147.70 250.09 158.34 232.38 C 171.30 210.53 192.27 194.13 215.63 184.58 C 230.38 178.39 246.25 174.99 262.21 174.05 Z" />
</svg>
