<?xml version="1.0" encoding="UTF-8" ?>
<!DOCTYPE svg PUBLIC "-//W3C//DTD SVG 1.1//EN" "http://www.w3.org/Graphics/SVG/1.1/DTD/svg11.dtd">
<svg width="512pt" height="512pt" viewBox="0 0 512 512" version="1.1" xmlns="http://www.w3.org/2000/svg">
<path fill="#d7312c" opacity="1.00" d=" M 0.00 0.00 L 512.00 0.00 L 512.00 512.00 L 0.00 512.00 L 0.00 0.00 Z" />
<path fill="#ffffff" opacity="1.00" d=" M 289.05 119.71 C 291.67 119.34 294.31 119.09 296.96 119.00 C 325.48 141.24 353.99 163.52 382.56 185.71 C 376.46 237.74 370.33 289.77 364.11 341.78 C 305.39 358.36 246.71 375.06 187.98 391.58 C 176.62 355.90 164.97 320.30 153.71 284.59 C 145.51 236.57 137.54 188.51 129.39 140.47 C 182.57 133.30 235.84 126.70 289.05 119.71 Z" />
<path fill="#d7312c" opacity="1.00" d=" M 148.11 153.94 C 196.12 148.06 244.06 141.61 292.04 135.49 C 313.58 152.49 335.30 169.25 356.90 186.16 C 358.33 187.31 359.85 188.36 361.40 189.34 C 340.98 193.01 320.53 196.52 300.13 200.30 C 287.41 187.43 275.01 174.25 262.30 161.37 C 227.38 166.39 192.46 171.49 157.54 176.56 C 154.38 169.03 151.07 161.55 148.11 153.94 Z" />
<path fill="#d7312c" opacity="1.00" d=" M 165.03 220.94 C 197.79 215.34 230.55 209.64 263.26 203.68 C 275.34 218.16 286.86 233.10 299.01 247.52 C 279.91 251.91 260.68 255.76 241.51 259.84 C 237.12 251.91 232.25 244.26 227.96 236.28 C 210.07 239.40 192.24 242.95 174.46 246.62 C 171.25 238.09 167.67 229.66 165.03 220.94 Z" />
<path fill="#d7312c" opacity="1.00" d=" M 182.01 294.75 C 198.44 290.97 214.94 287.45 231.31 283.43 C 235.51 291.97 240.49 300.19 244.04 309.02 C 226.38 313.15 208.87 317.96 191.17 321.84 C 188.26 312.76 184.77 303.87 182.01 294.75 Z" />
</svg>
