<?xml version="1.0" encoding="UTF-8" ?>
<!DOCTYPE svg PUBLIC "-//W3C//DTD SVG 1.1//EN" "http://www.w3.org/Graphics/SVG/1.1/DTD/svg11.dtd">
<svg width="512pt" height="512pt" viewBox="0 0 512 512" version="1.1" xmlns="http://www.w3.org/2000/svg">
<path fill="#f16529" opacity="1.00" d=" M 0.00 0.00 L 512.00 0.00 L 512.00 512.00 L 0.00 512.00 L 0.00 0.00 Z" />
<path fill="#ffffff" opacity="1.00" d=" M 170.77 110.75 C 175.32 110.72 179.87 110.73 184.43 110.74 C 184.39 115.02 184.40 119.30 184.39 123.58 C 188.43 123.58 192.48 123.58 196.52 123.56 C 196.52 119.29 196.53 115.01 196.50 110.74 C 200.96 110.73 205.42 110.73 209.88 110.74 C 209.76 123.91 209.91 137.08 209.80 150.25 C 205.38 150.23 200.96 150.23 196.55 150.25 C 196.50 145.87 196.51 141.48 196.55 137.10 C 192.54 136.90 188.47 136.46 184.49 137.13 C 184.23 141.49 184.48 145.87 184.39 150.24 C 179.85 150.24 175.32 150.24 170.79 150.22 C 170.76 137.07 170.80 123.91 170.77 110.75 Z" />
<path fill="#ffffff" opacity="1.00" d=" M 215.46 123.76 C 215.47 119.39 215.48 115.01 215.45 110.64 C 227.78 110.67 240.11 110.66 252.44 110.64 C 252.41 115.02 252.42 119.39 252.42 123.77 C 248.52 123.74 244.62 123.74 240.72 123.75 C 240.68 132.60 240.74 141.45 240.69 150.30 C 236.24 150.26 231.79 150.26 227.34 150.32 C 227.15 141.47 227.32 132.61 227.25 123.75 C 223.32 123.74 219.39 123.74 215.46 123.76 Z" />
<path fill="#ffffff" opacity="1.00" d=" M 258.11 110.67 C 262.82 110.67 267.53 110.68 272.24 110.66 C 275.03 115.09 277.71 119.60 280.51 124.04 C 283.44 119.68 286.04 115.11 288.82 110.66 C 293.50 110.68 298.18 110.68 302.87 110.67 C 302.77 123.88 302.87 137.08 302.81 150.29 C 298.39 150.27 293.97 150.27 289.54 150.28 C 289.50 143.89 289.60 137.50 289.49 131.11 C 286.41 135.70 283.67 140.53 280.30 144.92 C 277.34 140.46 274.66 135.81 271.43 131.54 C 271.27 137.78 271.42 144.03 271.36 150.28 C 266.96 150.27 262.56 150.27 258.17 150.29 C 258.10 137.08 258.22 123.87 258.11 110.67 Z" />
<path fill="#ffffff" opacity="1.00" d=" M 309.64 110.73 C 314.04 110.73 318.43 110.73 322.83 110.74 C 322.78 119.55 322.79 128.37 322.82 137.18 C 329.09 137.21 335.36 137.22 341.63 137.17 C 341.54 141.40 341.79 145.64 341.52 149.86 C 330.96 150.56 320.29 149.95 309.69 150.15 C 309.61 137.01 309.70 123.87 309.64 110.73 Z" />
<path fill="#ffffff" opacity="1.00" d=" M 151.98 167.39 C 221.76 167.40 291.54 167.29 361.32 167.44 C 360.05 173.23 359.84 179.18 359.32 185.07 C 353.25 249.84 347.86 314.70 341.62 379.45 C 313.89 386.90 286.25 394.70 258.54 402.22 C 255.82 403.20 253.08 401.87 250.44 401.27 C 223.89 393.86 197.28 386.69 170.75 379.22 C 164.78 308.59 157.93 238.02 151.98 167.39 Z" />
<path fill="#f16529" opacity="1.00" d=" M 190.76 210.71 C 234.42 210.68 278.09 210.70 321.75 210.70 C 321.10 219.36 320.50 228.04 319.52 236.67 C 286.15 236.66 252.78 236.68 219.41 236.66 C 220.20 245.58 221.09 254.49 221.70 263.42 C 253.55 263.50 285.40 263.29 317.25 263.53 C 314.76 289.77 312.38 316.03 310.13 342.29 C 309.70 343.58 308.06 343.50 307.02 343.95 C 290.63 348.44 274.25 352.93 257.87 357.47 C 255.17 358.16 252.56 356.74 249.97 356.14 C 234.21 351.80 218.46 347.44 202.69 343.13 C 201.62 329.20 200.01 315.31 199.05 301.38 C 207.79 301.33 216.52 301.33 225.26 301.38 C 225.81 308.67 226.34 315.97 227.27 323.22 C 236.55 325.32 245.63 328.22 254.87 330.48 C 257.39 331.12 259.84 329.79 262.27 329.28 C 270.02 327.34 277.64 324.92 285.44 323.21 C 286.91 311.95 287.26 300.59 288.64 289.33 C 258.37 289.25 228.10 289.34 197.82 289.28 C 195.54 263.08 193.16 236.89 190.76 210.71 Z" />
</svg>
