<?xml version="1.0" encoding="UTF-8" ?>
<!DOCTYPE svg PUBLIC "-//W3C//DTD SVG 1.1//EN" "http://www.w3.org/Graphics/SVG/1.1/DTD/svg11.dtd">
<svg width="512pt" height="512pt" viewBox="0 0 512 512" version="1.1" xmlns="http://www.w3.org/2000/svg">
<path fill="#297ded" opacity="1.00" d=" M 0.00 0.00 L 512.00 0.00 L 512.00 512.00 L 0.00 512.00 L 0.00 0.00 Z" />
<path fill="#ffffff" opacity="1.00" d=" M 262.00 150.20 C 282.43 146.74 303.91 151.54 321.37 162.56 C 341.93 175.63 355.41 198.48 358.71 222.42 C 373.97 226.21 388.42 234.22 398.52 246.44 C 409.68 259.57 414.56 276.97 415.12 293.95 C 415.68 309.86 411.07 326.34 400.44 338.44 C 387.87 352.71 369.46 360.76 350.96 363.79 C 288.31 363.92 225.65 363.79 162.99 363.86 C 158.85 363.98 154.90 362.65 150.91 361.78 C 131.63 356.88 113.10 345.32 103.75 327.27 C 94.81 309.67 94.14 288.51 99.70 269.77 C 106.26 248.32 124.43 231.69 145.46 224.75 C 146.41 208.76 155.10 193.13 169.02 184.90 C 181.45 177.07 197.29 176.63 211.02 181.04 C 223.83 165.39 242.02 153.93 262.00 150.20 Z" />
<path fill="#297ded" opacity="1.00" d=" M 260.11 165.76 C 274.98 162.68 290.93 163.97 304.88 170.08 C 329.83 181.20 345.48 208.69 344.52 235.69 C 362.14 236.15 379.45 244.80 389.99 258.98 C 397.53 268.93 400.91 281.60 400.58 293.99 C 400.50 306.47 396.82 319.18 388.81 328.92 C 378.99 340.85 364.16 348.10 349.02 350.25 C 288.02 350.33 227.02 350.19 166.02 350.20 C 150.87 349.31 135.94 342.60 125.67 331.35 C 115.76 320.42 111.22 305.57 110.67 291.03 C 110.73 277.99 116.02 265.26 124.63 255.55 C 133.83 244.93 147.06 238.19 160.83 235.90 C 160.12 227.46 159.92 218.57 163.76 210.78 C 169.01 199.37 181.66 192.53 193.97 192.63 C 201.63 192.91 209.21 195.60 215.21 200.40 C 224.92 183.64 241.03 170.17 260.11 165.76 Z" />
</svg>
