<?xml version="1.0" encoding="UTF-8" ?>
<!DOCTYPE svg PUBLIC "-//W3C//DTD SVG 1.1//EN" "http://www.w3.org/Graphics/SVG/1.1/DTD/svg11.dtd">
<svg width="512pt" height="512pt" viewBox="0 0 512 512" version="1.1" xmlns="http://www.w3.org/2000/svg">
<path fill="#6d6e71" opacity="1.00" d=" M 0.00 0.00 L 512.00 0.00 L 512.00 512.00 L 0.00 512.00 L 0.00 0.00 Z" />
<path fill="#ffffff" opacity="1.00" d=" M 262.01 150.20 C 281.98 146.81 302.94 151.35 320.18 161.81 C 341.40 174.75 355.34 198.02 358.72 222.43 C 373.75 226.17 388.01 233.98 398.07 245.92 C 409.99 259.63 414.94 278.12 415.16 296.00 C 415.26 311.02 410.77 326.39 400.89 337.92 C 389.26 351.52 372.26 359.42 355.01 363.11 C 351.76 364.04 348.35 363.86 345.01 363.85 C 283.68 363.81 222.35 363.90 161.02 363.81 C 146.77 361.76 132.81 356.45 121.25 347.77 C 110.03 339.31 101.74 327.02 98.50 313.32 C 94.41 296.06 95.53 277.24 103.13 261.08 C 111.37 243.77 127.37 230.77 145.44 224.80 C 146.42 208.81 155.06 193.17 168.98 184.93 C 181.42 177.07 197.28 176.62 211.02 181.04 C 223.84 165.39 242.03 153.91 262.01 150.20 Z" />
<path fill="#6d6e71" opacity="1.00" d=" M 260.89 165.59 C 275.77 162.71 291.69 164.11 305.55 170.37 C 330.12 181.71 345.47 208.93 344.53 235.68 C 361.92 236.16 379.02 244.58 389.60 258.46 C 397.42 268.50 400.90 281.40 400.57 294.02 C 400.50 306.48 396.82 319.17 388.83 328.90 C 379.01 340.84 364.17 348.10 349.01 350.25 C 287.99 350.34 226.96 350.18 165.93 350.20 C 150.80 349.28 135.90 342.56 125.64 331.32 C 115.73 320.36 111.19 305.49 110.67 290.93 C 110.76 273.38 120.38 256.62 134.58 246.56 C 142.38 241.16 151.40 237.36 160.81 235.98 C 160.15 227.51 159.90 218.59 163.77 210.77 C 169.02 199.35 181.71 192.51 194.05 192.63 C 201.70 192.92 209.26 195.63 215.25 200.43 C 224.98 183.39 241.51 169.80 260.89 165.59 Z" />
</svg>
