<?xml version="1.0" encoding="UTF-8" ?>
<!DOCTYPE svg PUBLIC "-//W3C//DTD SVG 1.1//EN" "http://www.w3.org/Graphics/SVG/1.1/DTD/svg11.dtd">
<svg width="512pt" height="512pt" viewBox="0 0 512 512" version="1.1" xmlns="http://www.w3.org/2000/svg">
<path fill="#000000" opacity="1.00" d=" M 0.00 0.00 L 512.00 0.00 L 512.00 512.00 L 0.00 512.00 L 0.00 0.00 Z" />
<path fill="#ffffff" opacity="1.00" d=" M 241.84 137.90 C 249.85 133.26 260.20 133.06 268.41 137.31 C 272.36 139.22 275.50 142.36 278.54 145.44 C 310.18 177.12 341.86 208.76 373.49 240.44 C 377.70 244.62 380.63 250.05 381.73 255.89 C 382.86 261.22 383.53 267.38 380.07 272.04 C 375.40 278.01 367.96 280.67 361.23 283.56 C 348.93 288.94 335.86 292.28 322.72 294.89 C 317.27 296.17 310.99 297.36 307.43 302.14 C 305.38 304.44 307.39 307.19 309.25 308.79 C 315.92 314.52 324.92 317.50 330.17 324.85 C 322.74 332.95 313.28 339.00 303.12 343.07 C 296.55 346.01 289.13 347.71 283.77 352.80 C 282.42 353.84 281.51 355.92 282.65 357.45 C 285.36 360.45 289.72 361.03 292.57 363.86 C 293.57 365.63 292.36 367.62 290.84 368.61 C 280.11 375.90 267.08 380.79 253.95 379.29 C 249.58 378.71 245.57 376.70 242.15 373.99 C 242.37 371.03 243.21 367.85 241.82 365.05 C 240.61 362.08 237.59 360.31 234.58 359.64 C 227.98 357.99 220.97 358.45 214.47 356.29 C 211.89 355.32 209.15 353.01 209.54 349.98 C 211.88 343.62 218.60 340.29 221.34 334.18 C 222.31 330.18 218.22 327.59 215.19 326.03 C 199.87 318.66 182.89 315.57 167.46 308.46 C 165.50 307.53 163.55 306.48 161.97 304.97 C 160.59 303.78 160.76 301.30 162.25 300.28 C 168.82 294.98 177.45 293.26 184.18 288.21 C 185.23 287.37 185.91 286.18 186.72 285.13 C 185.53 281.75 182.01 280.46 178.93 279.37 C 165.33 274.65 151.24 271.42 137.79 266.25 C 134.43 264.79 130.72 263.48 128.58 260.29 C 129.75 253.07 132.26 245.82 137.63 240.59 C 167.56 210.54 197.59 180.60 227.57 150.59 C 232.16 146.20 236.26 141.11 241.84 137.90 Z" />
<path fill="#000000" opacity="1.00" d=" M 250.59 147.79 C 254.96 144.94 259.61 148.24 263.15 150.80 C 279.23 162.31 294.93 174.36 310.89 186.05 C 314.62 188.53 318.45 191.96 318.52 196.82 C 309.25 192.41 299.99 187.98 290.78 183.44 C 290.11 190.35 289.02 197.22 288.11 204.11 C 282.84 202.24 278.01 199.34 272.85 197.21 C 265.19 202.44 257.30 207.34 249.82 212.81 C 248.75 211.67 248.57 210.09 248.14 208.67 C 245.85 200.03 243.02 191.55 240.85 182.88 C 239.48 183.58 239.21 185.18 238.61 186.46 C 235.49 193.89 232.24 201.28 229.16 208.73 C 218.68 210.18 208.11 211.00 197.58 212.03 L 196.71 213.37 C 196.50 207.72 196.54 201.96 197.52 196.39 C 199.35 192.47 202.10 189.09 204.69 185.66 C 211.07 177.82 217.82 169.99 226.49 164.59 C 234.63 159.15 242.17 152.79 250.59 147.79 Z" />
<path fill="#000000" opacity="1.00" d=" M 212.24 287.40 C 219.27 289.70 226.54 291.14 233.64 293.20 C 241.11 294.73 248.61 296.28 256.26 296.58 C 256.40 298.57 256.57 300.56 256.74 302.56 C 253.46 302.00 250.18 301.47 246.88 301.11 C 237.50 299.18 228.09 297.25 219.00 294.19 C 215.70 293.41 213.44 290.41 212.24 287.40 Z" />
<path fill="#ffffff" opacity="1.00" d=" M 345.04 318.12 C 352.59 316.67 361.04 314.82 368.15 318.83 C 371.62 320.59 372.65 325.37 370.26 328.43 C 367.87 331.58 363.58 331.69 360.01 332.16 C 351.57 331.94 343.21 330.17 335.30 327.22 C 335.07 321.79 340.51 319.06 345.04 318.12 Z" />
<path fill="#ffffff" opacity="1.00" d=" M 190.76 333.93 C 197.47 331.33 204.15 335.56 209.69 338.96 C 206.03 343.90 200.54 347.15 195.20 350.01 C 190.74 352.64 183.38 351.29 181.51 346.11 C 181.15 340.47 186.18 336.26 190.76 333.93 Z" />
<path fill="#ffffff" opacity="1.00" d=" M 329.39 338.38 C 331.23 336.50 333.76 338.49 335.80 339.01 C 339.88 340.79 344.71 344.95 343.16 349.90 C 339.95 353.24 334.18 354.83 330.23 351.83 C 325.72 348.99 324.84 341.60 329.39 338.38 Z" />
</svg>
