<?xml version="1.0" encoding="UTF-8" ?>
<!DOCTYPE svg PUBLIC "-//W3C//DTD SVG 1.1//EN" "http://www.w3.org/Graphics/SVG/1.1/DTD/svg11.dtd">
<svg width="512pt" height="512pt" viewBox="0 0 512 512" version="1.1" xmlns="http://www.w3.org/2000/svg">
<path fill="#517fa4" opacity="1.00" d=" M 0.00 0.00 L 512.00 0.00 L 512.00 512.00 L 0.00 512.00 L 0.00 0.00 Z" />
<path fill="#ffffff" opacity="1.00" d=" M 129.50 141.95 C 129.12 135.77 134.43 129.00 140.94 129.36 C 217.62 129.38 294.30 129.39 370.98 129.36 C 377.58 128.88 383.26 135.70 382.69 142.07 C 382.52 162.12 382.90 182.19 382.50 202.24 C 350.69 202.04 318.86 202.41 287.07 202.06 C 280.63 197.76 273.65 193.99 265.93 192.65 C 251.78 189.60 236.63 193.52 225.18 202.21 C 193.31 202.18 161.45 202.18 129.58 202.21 C 129.43 182.12 129.59 162.04 129.50 141.95 Z" />
<path fill="#517fa4" opacity="1.00" d=" M 327.36 146.66 C 332.05 144.98 337.11 145.78 341.98 145.61 C 347.26 145.78 352.89 144.83 357.81 147.25 C 363.94 149.90 367.93 156.35 368.07 162.96 C 368.18 169.77 369.11 177.32 365.29 183.38 C 362.06 188.52 356.07 191.72 349.99 191.52 C 344.03 191.47 338.06 191.59 332.11 191.47 C 323.54 191.10 316.12 183.56 315.75 175.01 C 315.69 170.32 315.53 165.62 315.87 160.94 C 316.69 154.54 321.26 148.80 327.36 146.66 Z" />
<path fill="#ffffff" opacity="1.00" d=" M 251.23 202.32 C 260.88 201.10 271.00 203.37 278.98 209.01 C 288.36 215.31 294.82 225.78 296.16 237.01 C 297.09 244.94 295.87 253.22 292.13 260.31 C 286.38 271.79 274.80 280.18 262.06 281.91 C 250.29 283.81 237.81 279.97 229.00 271.97 C 222.42 266.03 217.77 257.88 216.36 249.10 C 213.82 235.66 218.87 221.07 229.21 212.12 C 235.36 206.78 243.05 203.01 251.23 202.32 Z" />
<path fill="#ffffff" opacity="1.00" d=" M 129.52 213.39 C 157.78 213.36 186.05 213.37 214.31 213.39 C 207.00 224.30 203.63 238.03 206.21 251.02 C 208.71 265.61 218.13 278.73 230.98 286.02 C 241.31 291.99 253.82 294.06 265.53 291.78 C 281.70 288.91 296.04 277.48 302.51 262.39 C 309.71 246.72 307.63 227.52 297.86 213.40 C 326.13 213.34 354.39 213.39 382.66 213.38 C 382.65 264.29 382.66 315.21 382.65 366.13 C 382.13 374.91 374.24 383.55 365.02 382.70 C 291.68 382.64 218.33 382.71 144.99 382.67 C 136.56 382.22 130.02 374.04 129.54 365.94 C 129.50 315.09 129.56 264.24 129.52 213.39 Z" />
</svg>
