<?xml version="1.0" encoding="UTF-8" ?>
<!DOCTYPE svg PUBLIC "-//W3C//DTD SVG 1.1//EN" "http://www.w3.org/Graphics/SVG/1.1/DTD/svg11.dtd">
<svg width="512pt" height="512pt" viewBox="0 0 512 512" version="1.1" xmlns="http://www.w3.org/2000/svg">
<path fill="#0062bf" opacity="1.00" d=" M 0.00 0.00 L 512.00 0.00 L 512.00 512.00 L 0.00 512.00 L 0.00 0.00 Z" />
<path fill="#ffffff" opacity="1.00" d=" M 150.30 173.34 C 156.17 172.54 162.10 172.86 168.00 172.81 C 199.32 172.80 230.64 172.83 261.96 172.80 C 267.32 172.95 272.87 173.05 277.85 175.26 C 291.29 180.10 301.69 193.52 301.48 208.04 C 301.49 245.35 301.45 282.66 301.46 319.97 C 301.53 329.97 296.52 339.55 289.06 346.04 C 282.25 352.11 273.07 355.09 264.03 355.22 C 228.01 355.18 192.00 355.22 155.98 355.20 C 147.27 354.87 138.47 351.99 131.91 346.12 C 123.84 339.25 118.79 328.64 119.27 317.98 C 119.29 280.97 119.25 243.97 119.27 206.96 C 119.85 190.26 133.89 175.57 150.30 173.34 Z" />
<path fill="#ffffff" opacity="1.00" d=" M 307.45 250.42 C 333.12 227.97 358.59 205.31 384.18 182.77 C 384.28 236.86 384.15 290.95 384.23 345.04 C 358.60 322.60 333.18 299.94 307.48 277.58 C 307.46 268.52 307.44 259.47 307.45 250.42 Z" />
<path fill="#0062bf" opacity="1.00" d=" M 200.42 213.75 C 211.83 211.89 224.06 212.96 234.29 218.67 C 247.93 225.83 258.04 239.26 261.05 254.38 C 262.95 266.20 261.46 278.80 255.43 289.29 C 248.45 302.28 235.50 311.88 221.01 314.65 C 205.83 317.29 189.43 313.39 177.61 303.33 C 166.07 293.45 158.79 278.32 159.39 263.02 C 159.25 251.65 163.49 240.39 170.69 231.64 C 178.09 222.41 188.91 216.19 200.42 213.75 Z" />
</svg>
