<?xml version="1.0" encoding="UTF-8" ?>
<!DOCTYPE svg PUBLIC "-//W3C//DTD SVG 1.1//EN" "http://www.w3.org/Graphics/SVG/1.1/DTD/svg11.dtd">
<svg width="512pt" height="512pt" viewBox="0 0 512 512" version="1.1" xmlns="http://www.w3.org/2000/svg">
<path fill="#df0000" opacity="1.00" d=" M 0.00 0.00 L 512.00 0.00 L 512.00 512.00 L 0.00 512.00 L 0.00 0.00 Z" />
<path fill="#ffffff" opacity="1.00" d=" M 158.64 142.75 C 167.52 139.61 177.45 139.28 186.51 141.79 C 191.14 142.96 194.34 147.13 195.19 151.70 C 196.42 155.17 195.78 159.56 198.67 162.26 C 202.42 164.54 206.87 165.13 211.08 166.13 C 218.45 168.04 226.10 169.98 232.22 174.77 C 239.65 180.06 243.91 188.55 251.16 194.04 C 254.98 186.61 254.78 177.93 255.39 169.80 C 252.72 166.51 248.73 162.40 250.69 157.83 C 255.64 152.32 262.47 148.22 269.96 147.52 C 283.04 146.46 295.98 150.55 307.42 156.62 C 311.82 158.94 315.58 163.72 314.56 168.94 C 312.90 178.23 304.80 184.43 301.73 193.08 C 300.18 201.52 302.92 210.07 305.89 217.92 C 308.16 223.28 310.77 228.76 315.01 232.87 C 317.40 235.31 321.07 234.74 324.05 235.89 C 332.99 239.00 341.10 244.15 350.20 246.85 C 352.88 247.63 355.78 247.39 358.43 246.55 C 366.36 244.08 373.30 239.41 380.63 235.65 C 388.31 230.83 399.37 231.54 405.94 238.00 C 411.54 243.41 415.80 251.07 415.32 259.02 C 413.74 266.31 415.45 273.87 413.83 281.15 C 412.85 285.14 409.72 288.30 405.87 289.63 C 393.06 293.24 379.86 289.54 366.99 288.30 C 358.15 288.75 348.67 290.71 341.94 296.87 C 338.25 300.04 335.36 304.98 336.71 309.97 C 338.58 313.23 342.43 314.43 345.03 316.97 C 354.60 325.41 362.52 336.96 363.40 350.01 C 363.85 358.57 358.78 366.12 352.99 371.94 C 348.41 376.71 341.54 379.60 334.94 377.92 C 327.82 375.49 322.74 369.60 317.74 364.29 C 316.10 362.29 313.66 360.01 314.39 357.15 C 317.73 350.99 326.04 349.80 329.28 343.52 C 331.04 340.68 330.55 337.13 329.09 334.28 C 327.35 329.84 322.49 328.00 318.25 326.81 C 308.30 325.39 298.49 328.51 289.14 331.57 C 286.59 332.74 282.12 334.00 283.24 337.68 C 285.65 344.43 292.13 349.64 292.23 357.21 C 290.94 364.36 283.52 367.78 277.51 370.34 C 264.56 374.80 249.82 375.29 237.03 369.98 C 230.95 367.31 224.95 363.30 222.17 357.02 C 220.39 353.93 222.27 350.52 223.76 347.76 C 226.59 343.02 231.02 338.81 231.56 333.04 C 232.14 328.85 228.33 325.39 229.37 321.19 C 230.19 319.77 231.52 318.76 232.51 317.48 C 232.90 315.79 232.89 313.97 232.53 312.28 C 230.44 305.64 227.23 299.41 223.54 293.54 C 220.34 288.68 215.90 284.17 210.11 282.67 C 203.23 280.35 196.02 282.50 189.11 283.45 C 178.85 285.69 168.54 287.68 158.33 290.11 C 147.42 291.65 135.36 292.59 125.46 286.76 C 112.79 279.38 108.74 261.32 115.83 248.81 C 118.84 243.43 125.57 242.45 131.16 242.97 C 142.40 242.93 153.21 246.35 164.19 248.27 C 171.65 249.92 180.61 251.24 186.85 245.73 C 189.76 243.72 190.85 239.57 188.61 236.64 C 184.43 231.18 177.43 229.03 171.08 227.23 C 157.05 224.45 142.63 224.52 128.55 222.08 C 123.56 221.11 117.97 219.30 115.45 214.47 C 113.66 211.75 113.72 207.57 116.53 205.55 C 122.48 200.89 130.58 201.62 137.12 198.33 C 140.26 195.23 139.21 189.86 142.48 186.82 C 145.43 183.73 150.09 184.15 153.99 184.20 C 158.60 184.27 163.93 186.19 167.97 183.04 C 171.42 179.49 170.21 174.11 169.87 169.70 C 169.61 166.87 167.35 165.10 164.95 163.99 C 159.31 161.24 153.58 157.23 151.48 151.04 C 150.81 146.66 155.14 144.06 158.64 142.75 Z" />
<path fill="#df0000" opacity="1.00" d=" M 195.53 171.55 C 202.81 166.85 211.55 169.15 219.37 170.88 C 220.88 171.74 222.54 172.23 224.30 172.30 C 227.22 174.68 229.90 177.93 229.72 181.94 C 227.92 184.91 226.06 187.91 223.41 190.21 C 215.18 197.58 205.21 202.60 195.32 207.35 C 192.84 208.68 190.09 209.82 188.21 211.99 C 186.56 214.59 186.46 217.79 185.28 220.59 C 183.79 223.45 180.43 224.38 177.69 225.59 C 176.05 224.41 173.99 224.88 172.12 224.84 C 166.37 225.08 160.46 224.47 155.19 222.05 C 152.44 220.78 151.67 217.36 152.75 214.71 C 155.20 207.58 161.32 201.90 168.45 199.58 C 169.75 199.13 170.86 198.32 171.96 197.51 C 175.98 196.94 179.83 195.49 183.44 193.68 C 187.56 190.40 189.49 185.25 191.26 180.46 C 192.32 177.32 194.41 174.67 195.53 171.55 Z" />
<path fill="#ffffff" opacity="1.00" d=" M 201.40 179.84 C 205.71 179.06 209.38 181.58 211.71 185.00 C 210.58 186.66 209.23 188.16 207.78 189.56 C 203.46 191.47 197.77 189.87 196.45 184.98 C 197.55 182.78 199.40 181.20 201.40 179.84 Z" />
<path fill="#ffffff" opacity="1.00" d=" M 169.08 208.47 C 169.30 205.14 172.92 203.38 175.86 203.11 C 179.08 202.72 181.54 205.10 183.87 206.90 C 184.57 211.40 179.26 212.45 176.07 213.55 C 173.22 212.84 169.73 211.80 169.08 208.47 Z" />
</svg>
