<?xml version="1.0" encoding="UTF-8" ?>
<!DOCTYPE svg PUBLIC "-//W3C//DTD SVG 1.1//EN" "http://www.w3.org/Graphics/SVG/1.1/DTD/svg11.dtd">
<svg width="512pt" height="512pt" viewBox="0 0 512 512" version="1.1" xmlns="http://www.w3.org/2000/svg">
<path fill="#232323" opacity="1.00" d=" M 0.00 0.00 L 512.00 0.00 L 512.00 512.00 L 0.00 512.00 L 0.00 0.00 Z" />
<path fill="#ffffff" opacity="1.00" d=" M 214.17 129.24 C 222.79 127.19 231.16 124.10 239.90 122.58 C 245.39 121.83 251.76 121.66 256.12 125.68 C 266.80 124.93 277.41 123.18 288.08 122.25 C 303.99 123.12 319.77 125.68 335.39 128.78 C 355.84 135.47 376.58 141.42 396.57 149.43 C 399.11 151.54 401.27 154.06 403.70 156.29 C 392.53 159.19 381.22 161.53 370.06 164.45 C 363.07 166.68 356.01 168.70 349.01 170.91 C 345.51 172.06 341.72 172.59 338.60 174.69 C 331.42 179.35 324.22 183.97 317.00 188.56 C 322.79 187.83 328.22 185.39 333.95 184.32 C 343.71 184.46 353.45 185.37 363.12 186.62 C 366.05 186.83 368.50 188.64 371.10 189.84 C 375.42 192.12 379.96 194.00 384.13 196.57 C 379.54 198.20 374.67 199.02 370.32 201.26 C 352.84 209.10 335.43 217.10 317.90 224.82 C 313.88 213.62 309.52 202.55 305.37 191.40 C 302.02 181.04 295.68 172.05 290.74 162.43 C 288.02 156.46 283.16 151.93 279.15 146.85 C 273.38 139.08 265.08 133.82 258.10 127.24 C 263.73 135.27 266.55 144.72 270.55 153.57 C 275.57 163.24 281.34 172.53 285.70 182.54 C 288.25 188.67 290.10 195.43 288.98 202.11 C 288.56 205.36 285.73 207.41 284.04 210.01 C 279.50 216.67 273.54 222.52 270.56 230.14 C 266.95 240.17 270.07 251.15 274.74 260.29 C 279.01 267.78 286.15 274.25 294.91 275.65 C 298.03 276.04 301.73 277.28 304.62 275.68 C 308.55 270.46 311.57 264.43 313.18 258.08 C 314.28 250.75 312.08 243.26 313.72 235.98 C 314.84 231.97 319.21 230.56 322.96 230.66 C 333.48 230.62 343.80 233.15 354.05 235.25 C 355.02 235.69 357.12 235.44 357.02 237.01 C 354.72 237.97 352.14 238.47 350.33 240.30 C 343.21 246.82 336.62 253.92 330.61 261.46 C 322.73 271.25 319.43 283.59 314.89 295.08 C 309.53 308.52 303.90 322.25 294.31 333.30 C 287.62 341.89 279.81 349.71 270.38 355.28 C 255.76 364.02 240.09 370.84 224.50 377.64 C 208.55 384.25 191.75 391.91 174.04 389.50 C 169.71 387.66 166.74 383.74 163.57 380.43 C 151.88 366.44 141.56 351.31 132.33 335.59 C 125.40 323.78 120.29 311.00 116.50 297.87 C 113.27 287.39 110.41 276.76 108.55 265.95 C 112.38 269.52 117.93 271.55 123.07 269.88 C 131.54 267.36 136.24 257.37 133.98 249.05 C 132.46 242.23 126.29 236.27 119.06 236.40 C 115.14 236.25 111.68 238.35 108.70 240.66 C 109.67 232.38 110.47 224.04 112.70 215.97 C 116.01 202.76 119.86 189.22 128.22 178.20 C 136.78 166.84 147.23 156.86 159.11 149.03 C 175.65 138.23 195.34 134.16 214.17 129.24 Z" />
<path fill="#232323" opacity="1.00" d=" M 187.55 222.90 C 198.60 221.71 210.24 222.61 220.25 227.78 C 225.81 230.74 230.96 235.58 232.16 242.01 C 233.39 248.78 229.74 255.39 225.00 259.96 C 217.50 267.11 207.56 271.16 197.54 273.26 C 184.74 275.59 170.77 275.27 159.06 269.03 C 153.08 265.80 147.54 260.08 147.40 252.90 C 147.03 245.68 151.76 239.44 157.05 235.03 C 165.70 228.02 176.63 224.36 187.55 222.90 Z" />
</svg>
