<?xml version="1.0" encoding="UTF-8" ?>
<!DOCTYPE svg PUBLIC "-//W3C//DTD SVG 1.1//EN" "http://www.w3.org/Graphics/SVG/1.1/DTD/svg11.dtd">
<svg width="512pt" height="512pt" viewBox="0 0 512 512" version="1.1" xmlns="http://www.w3.org/2000/svg">
<path fill="#cfac0c" opacity="1.00" d=" M 0.00 0.00 L 512.00 0.00 L 512.00 512.00 L 0.00 512.00 L 0.00 0.00 Z" />
<path fill="#ffffff" opacity="1.00" d=" M 207.38 126.30 C 249.30 111.56 298.23 119.08 333.69 145.93 C 333.35 139.53 332.75 133.02 330.23 127.06 C 339.53 129.55 348.61 133.61 355.62 140.34 C 368.92 152.66 375.29 170.63 377.87 188.18 C 379.72 198.34 379.73 208.68 380.07 218.96 C 382.50 212.25 382.17 205.02 383.01 198.03 C 383.63 190.21 383.67 182.36 383.98 174.53 C 387.82 181.02 389.85 188.37 391.68 195.64 C 396.08 213.41 395.54 232.28 390.67 249.90 C 388.45 256.93 389.64 264.39 388.53 271.60 C 392.36 267.16 395.29 262.05 398.65 257.26 C 398.56 266.77 397.25 276.25 395.15 285.52 C 393.04 293.99 389.96 302.50 384.33 309.31 C 380.87 313.90 374.78 316.09 372.81 321.83 C 376.97 320.95 381.07 319.78 385.15 318.57 C 380.51 324.47 374.90 329.74 368.10 333.05 C 363.88 334.85 361.92 339.24 359.14 342.58 C 362.63 342.42 366.09 342.02 369.53 341.44 C 363.29 348.22 355.66 353.73 347.15 357.30 C 342.79 359.04 339.59 362.62 335.98 365.48 C 338.17 365.41 340.37 365.33 342.56 365.28 C 336.40 368.93 330.80 373.60 324.08 376.24 C 320.44 377.74 316.39 377.99 312.90 379.87 C 308.50 382.13 303.93 384.00 299.33 385.78 C 301.83 387.95 304.28 390.19 306.39 392.76 C 302.26 391.12 298.25 389.21 294.12 387.57 C 284.75 390.39 275.02 393.19 265.18 392.93 C 264.58 393.20 263.98 393.47 263.40 393.76 C 259.58 393.91 255.77 394.17 251.95 394.25 C 252.23 393.00 252.50 391.76 252.78 390.52 C 255.16 390.53 257.53 390.56 259.91 390.62 C 261.56 391.41 263.26 392.09 264.97 392.75 L 263.67 390.37 C 271.74 389.43 279.76 388.07 287.58 385.81 C 276.29 381.00 263.77 381.50 251.77 380.51 C 266.91 367.12 282.38 353.99 295.97 338.98 C 321.51 312.35 341.23 279.57 349.83 243.50 C 351.71 235.23 354.02 226.90 354.15 218.37 C 352.40 222.82 351.62 227.54 350.33 232.13 C 338.51 273.78 314.57 311.53 283.61 341.59 C 272.44 353.08 260.11 363.43 247.16 372.86 C 247.22 368.53 248.49 364.26 247.94 359.92 C 247.02 346.09 238.90 334.37 232.94 322.30 C 240.13 326.00 245.42 332.36 250.72 338.28 C 255.17 343.17 258.12 349.08 261.48 354.70 C 261.56 348.09 258.60 342.08 255.60 336.38 C 250.26 326.06 247.28 314.54 247.27 302.90 C 244.22 302.80 241.18 302.40 238.14 302.41 C 236.15 303.15 234.49 304.53 232.77 305.74 C 232.57 307.77 232.36 309.79 232.19 311.83 C 227.31 310.98 222.20 310.62 217.76 308.23 C 215.37 306.95 212.55 307.47 209.97 306.92 C 207.61 306.70 205.86 304.98 204.10 303.60 C 204.68 303.09 205.85 302.07 206.44 301.56 C 204.68 299.56 203.37 297.21 203.46 294.47 C 202.93 294.35 201.86 294.12 201.32 294.01 C 194.43 295.42 187.05 293.90 180.35 296.47 C 177.96 297.77 175.92 300.31 172.91 299.84 C 170.37 299.91 168.15 298.47 166.45 296.71 C 168.07 296.51 169.70 296.48 171.34 296.46 C 173.03 295.18 175.29 294.30 176.24 292.28 C 176.92 289.94 176.69 287.45 176.83 285.05 C 179.66 282.24 183.31 279.47 183.05 275.01 C 184.29 275.26 185.54 275.57 186.82 275.67 C 189.57 274.19 191.54 271.67 194.04 269.85 C 194.73 271.04 195.33 272.28 195.94 273.52 C 192.46 277.12 192.75 282.35 191.73 286.93 C 192.65 288.10 193.71 289.15 194.75 290.23 C 196.13 289.14 197.50 288.06 198.89 287.00 C 198.30 282.88 197.22 278.86 196.35 274.80 C 200.72 278.29 205.63 280.96 210.61 283.45 C 212.84 284.44 214.26 286.46 215.72 288.32 C 216.69 286.45 217.17 284.41 216.60 282.32 C 217.73 281.85 218.86 281.38 219.99 280.90 C 217.37 277.63 213.62 275.78 209.51 275.20 C 205.71 273.17 203.08 269.40 201.23 265.60 C 202.90 266.04 204.57 266.51 206.25 266.95 C 207.50 268.61 208.57 270.46 210.12 271.88 C 212.92 273.51 216.36 273.41 219.28 274.76 C 221.11 276.75 221.19 279.82 223.21 281.70 C 226.28 284.86 228.82 288.80 233.09 290.48 C 235.02 289.73 234.54 287.38 235.13 285.83 C 236.90 286.51 238.43 287.65 239.94 288.78 C 240.28 287.62 240.88 286.50 240.85 285.27 C 237.70 283.07 233.99 281.76 231.10 279.18 C 232.18 277.72 233.24 276.25 234.23 274.73 C 235.85 274.28 237.46 273.79 239.13 273.53 C 240.93 276.03 241.18 279.23 242.18 282.07 C 242.79 282.72 243.39 283.36 244.01 284.01 C 245.45 284.60 246.88 285.25 248.30 285.91 C 248.52 283.70 248.77 281.50 249.09 279.30 C 253.49 295.35 260.61 310.77 271.21 323.69 C 275.30 328.70 279.88 333.46 285.53 336.73 C 283.16 333.10 280.10 330.01 277.57 326.51 C 267.29 312.79 260.24 296.24 259.53 278.97 C 259.16 271.36 259.37 263.47 262.31 256.33 C 260.68 257.80 259.13 259.39 258.12 261.36 C 257.46 261.13 256.80 260.92 256.14 260.70 C 254.11 263.12 252.37 266.03 249.56 267.62 C 246.70 268.70 242.06 269.91 240.90 266.00 C 239.40 260.45 240.96 254.48 242.80 249.16 C 244.47 249.35 246.15 249.57 247.82 249.81 C 249.08 251.12 250.38 252.40 251.71 253.66 C 253.41 251.94 254.95 250.02 256.98 248.67 C 259.17 247.85 261.57 248.48 263.84 248.55 C 268.35 235.14 275.94 223.05 284.45 211.85 C 285.96 219.11 287.85 226.28 289.80 233.43 C 293.50 234.57 297.47 235.55 299.75 238.98 C 299.47 238.58 298.91 237.78 298.62 237.38 C 298.34 226.62 297.56 215.75 299.35 205.07 C 302.08 188.72 308.06 172.51 318.80 159.69 C 319.49 159.13 320.01 157.79 321.10 158.21 C 322.97 171.13 325.24 184.32 331.02 196.14 L 331.90 195.72 C 333.82 186.96 333.50 177.91 334.01 169.00 C 334.51 162.68 333.54 156.36 333.79 150.03 C 312.41 134.24 286.77 123.51 260.02 122.33 C 253.34 121.48 246.46 121.24 239.91 123.04 C 237.50 123.74 235.01 124.10 232.52 124.36 C 232.46 125.22 232.34 126.94 232.28 127.80 L 233.43 127.72 C 233.46 128.93 233.50 130.14 233.54 131.34 C 238.08 130.02 242.33 126.18 247.29 127.49 C 246.67 128.08 245.42 129.27 244.80 129.86 C 245.54 130.27 246.28 130.69 247.03 131.11 C 244.18 131.66 241.29 132.27 238.72 133.68 C 234.31 136.05 229.32 136.83 224.60 138.35 C 224.35 139.15 223.85 140.77 223.60 141.57 C 228.50 141.91 233.11 140.20 237.82 139.24 C 239.09 139.96 240.24 140.87 241.43 141.71 C 241.47 142.26 241.55 143.36 241.58 143.91 C 243.28 145.21 244.96 146.53 246.64 147.85 C 245.74 148.60 244.85 149.36 243.96 150.12 C 242.93 150.92 241.62 151.59 241.38 153.02 C 243.54 155.39 246.16 157.27 248.57 159.37 C 246.90 160.18 245.23 161.00 243.58 161.83 C 243.57 162.92 243.57 164.00 243.57 165.09 C 240.09 167.42 238.72 171.46 236.50 174.80 C 235.28 174.66 234.06 174.51 232.85 174.37 C 234.60 178.38 232.34 182.34 232.11 186.39 C 231.15 186.84 230.19 187.29 229.24 187.74 C 229.58 188.36 230.25 189.60 230.59 190.22 C 229.62 190.28 227.68 190.39 226.71 190.45 C 225.08 189.18 223.46 187.89 221.88 186.57 C 223.92 186.33 226.02 186.41 228.04 185.98 C 230.10 185.10 230.03 182.36 230.89 180.61 C 229.06 179.62 227.18 178.58 225.07 178.42 C 220.36 177.88 215.75 176.46 210.99 176.42 C 206.14 177.83 202.51 181.98 200.43 186.45 C 199.25 186.90 198.08 187.35 196.92 187.80 C 197.21 189.59 198.14 191.50 197.30 193.28 C 194.56 199.77 189.91 205.18 186.04 210.99 C 184.07 213.87 183.83 217.62 184.46 220.96 C 184.80 222.61 186.60 223.33 188.08 223.61 C 190.00 222.56 191.54 220.99 193.14 219.54 C 194.73 222.73 196.68 226.03 195.66 229.73 C 195.22 229.74 194.34 229.76 193.90 229.76 C 193.84 228.04 193.77 226.31 193.69 224.59 C 192.09 225.30 189.95 225.46 189.23 227.33 C 187.67 230.06 189.41 233.27 189.31 236.20 C 187.46 238.02 184.97 239.18 183.56 241.43 C 182.12 243.69 180.63 245.92 178.68 247.78 C 178.39 245.65 179.39 243.08 177.85 241.28 C 175.30 237.90 174.00 233.83 172.01 230.14 C 172.83 228.78 173.64 227.42 174.45 226.05 C 174.04 225.59 173.22 224.67 172.81 224.21 C 173.06 223.69 173.57 222.64 173.82 222.12 C 172.80 222.23 171.78 222.35 170.77 222.47 C 169.04 223.67 167.18 224.66 165.25 225.50 C 165.40 227.89 165.47 230.30 165.41 232.71 C 163.43 233.86 160.96 234.67 159.84 236.84 C 158.56 239.58 158.15 242.63 157.55 245.58 C 160.69 245.09 163.75 244.14 166.41 242.37 C 165.93 245.01 165.58 247.67 165.36 250.34 C 169.31 249.54 173.34 249.10 177.37 249.20 C 176.75 250.40 176.13 251.60 175.47 252.79 C 173.66 253.46 172.01 254.46 170.61 255.80 C 169.20 256.27 167.77 256.72 166.35 257.17 C 169.84 261.89 172.40 267.71 171.56 273.69 C 169.14 273.77 166.93 272.70 164.83 271.62 C 162.43 271.82 160.29 270.77 158.36 269.44 C 157.08 270.49 155.81 271.57 154.57 272.66 C 155.22 274.44 155.95 276.20 156.40 278.05 C 156.22 280.64 154.71 282.88 153.62 285.17 C 154.44 285.74 155.26 286.32 156.09 286.89 C 156.69 288.60 157.08 290.41 158.02 291.99 C 159.38 293.29 161.11 294.14 162.45 295.47 C 163.46 296.98 163.67 298.86 164.17 300.58 C 163.34 300.59 161.69 300.63 160.86 300.65 C 158.20 302.90 156.04 305.65 154.43 308.74 C 155.36 308.62 157.22 308.39 158.15 308.28 C 158.24 309.17 158.42 310.96 158.50 311.86 C 156.23 313.73 153.30 315.37 152.53 318.45 C 151.46 322.33 150.11 326.15 149.23 330.07 C 152.31 336.50 154.36 343.33 156.96 349.95 C 163.13 354.48 168.89 359.50 174.82 364.32 C 179.87 368.09 185.95 370.15 191.88 372.09 C 198.47 374.32 205.54 373.76 212.36 374.53 C 218.41 375.85 224.28 377.96 230.40 378.99 C 231.03 380.16 231.65 381.34 232.26 382.53 C 228.18 385.20 224.09 387.85 220.03 390.54 C 188.87 383.01 160.50 364.35 141.54 338.47 C 123.45 314.33 114.10 284.08 114.43 253.99 C 115.18 229.67 121.87 205.41 134.73 184.68 C 151.18 157.57 177.33 136.47 207.38 126.30 Z" />
<path fill="#cfac0c" opacity="1.00" d=" M 148.37 171.41 C 157.46 160.58 167.95 150.84 179.97 143.32 C 182.80 145.20 187.12 146.25 187.71 150.15 C 188.71 150.69 189.72 151.23 190.74 151.76 C 189.63 154.12 189.01 156.66 189.34 159.28 C 181.53 168.51 173.24 177.37 166.11 187.15 C 162.43 190.58 157.20 191.37 152.83 193.63 C 147.77 195.88 143.87 199.92 140.24 203.97 C 138.94 203.55 137.64 203.14 136.34 202.74 C 137.51 196.41 141.10 190.96 144.43 185.59 C 147.20 181.05 151.26 177.46 153.93 172.85 C 148.33 175.62 145.06 181.36 139.75 184.54 C 140.88 179.23 145.00 175.40 148.37 171.41 Z" />
<path fill="#cfac0c" opacity="1.00" d=" M 215.78 146.36 C 218.62 144.92 221.27 146.48 223.52 148.23 C 221.62 151.36 218.86 154.70 214.84 154.66 C 212.90 152.13 215.34 149.06 215.78 146.36 Z" />
<path fill="#cfac0c" opacity="1.00" d=" M 228.46 153.82 C 227.82 151.48 228.76 147.16 232.03 148.48 C 234.80 151.89 234.02 156.42 234.41 160.47 C 236.37 161.81 238.54 162.83 240.55 164.09 C 238.22 165.13 235.24 166.68 232.78 165.19 C 230.49 161.82 229.43 157.73 228.46 153.82 Z" />
<path fill="#cfac0c" opacity="1.00" d=" M 204.21 151.06 C 205.38 152.04 206.54 153.03 207.69 154.04 C 206.89 154.45 205.29 155.28 204.49 155.69 C 204.38 154.14 204.28 152.60 204.21 151.06 Z" />
<path fill="#cfac0c" opacity="1.00" d=" M 195.22 161.90 C 196.72 159.12 199.79 157.83 202.37 156.27 C 204.43 158.02 205.85 160.32 206.54 162.94 C 204.15 164.86 201.81 166.84 199.62 168.98 C 198.09 166.66 196.34 164.46 195.22 161.90 Z" />
<path fill="#cfac0c" opacity="1.00" d=" M 156.66 195.40 C 157.73 195.37 158.81 195.33 159.89 195.30 C 160.11 195.64 160.56 196.32 160.78 196.67 C 162.86 196.54 164.94 196.50 167.03 196.48 C 166.81 198.37 166.85 200.34 166.24 202.16 C 164.49 204.05 162.18 205.28 160.05 206.68 C 158.58 206.11 157.10 205.55 155.62 205.01 C 154.10 201.75 155.30 198.47 156.66 195.40 Z" />
<path fill="#cfac0c" opacity="1.00" d=" M 293.38 243.01 C 294.65 243.81 296.00 244.53 297.09 245.57 C 297.81 248.63 296.51 252.46 299.19 254.77 C 300.16 254.73 301.14 254.67 302.13 254.59 C 303.69 258.81 304.75 263.21 305.96 267.55 C 300.42 260.16 296.23 251.78 293.38 243.01 Z" />
<path fill="#cfac0c" opacity="1.00" d=" M 208.35 289.33 C 210.69 288.92 212.96 290.07 215.19 290.64 C 214.14 291.93 213.10 293.23 212.05 294.53 C 209.51 294.34 206.96 294.17 204.42 294.02 C 205.62 292.42 206.40 290.17 208.35 289.33 Z" />
<path fill="#cfac0c" opacity="1.00" d=" M 238.38 291.91 C 240.78 291.26 243.18 290.41 245.72 290.59 C 244.57 292.48 243.13 294.16 241.42 295.56 C 240.66 295.22 239.13 294.55 238.37 294.21 C 238.37 293.44 238.37 292.67 238.38 291.91 Z" />
<path fill="#ffffff" opacity="1.00" d=" M 236.85 393.33 C 239.21 391.58 241.24 389.27 243.96 388.10 C 246.24 388.43 248.29 389.56 250.36 390.51 C 250.36 391.46 250.37 393.35 250.37 394.30 C 245.85 394.13 241.35 393.74 236.85 393.33 Z" />
</svg>
