<?xml version="1.0" encoding="UTF-8" ?>
<!DOCTYPE svg PUBLIC "-//W3C//DTD SVG 1.1//EN" "http://www.w3.org/Graphics/SVG/1.1/DTD/svg11.dtd">
<svg width="512pt" height="512pt" viewBox="0 0 512 512" version="1.1" xmlns="http://www.w3.org/2000/svg">
<path fill="#7e939a" opacity="1.00" d=" M 0.00 0.00 L 512.00 0.00 L 512.00 512.00 L 0.00 512.00 L 0.00 0.00 Z" />
<path fill="#ffffff" opacity="1.00" d=" M 170.98 126.05 C 178.46 123.78 186.35 124.37 194.05 124.53 C 211.38 126.43 227.48 136.26 237.54 150.44 C 246.30 162.35 249.84 177.41 249.11 192.05 C 233.43 193.61 218.54 201.41 208.30 213.38 C 199.68 223.22 194.24 235.85 193.29 248.91 C 178.48 250.21 163.12 246.61 150.95 237.93 C 136.51 227.89 126.42 211.63 124.51 194.08 C 124.31 189.35 124.35 184.62 124.46 179.90 C 126.70 154.58 146.36 132.11 170.98 126.05 Z" />
<path fill="#ffffff" opacity="1.00" d=" M 272.65 151.57 C 282.70 136.81 299.17 126.51 316.97 124.53 C 325.69 124.21 334.63 123.90 342.99 126.84 C 361.76 132.49 377.37 147.58 383.77 166.09 C 387.20 176.37 388.68 187.56 386.13 198.22 C 382.55 218.17 368.36 235.66 349.87 243.79 C 339.85 248.38 328.67 249.53 317.77 249.12 C 316.62 235.05 310.55 221.45 300.74 211.28 C 290.62 200.44 276.53 193.52 261.78 192.04 C 261.11 177.86 264.46 163.30 272.65 151.57 Z" />
<path fill="#ffffff" opacity="1.00" d=" M 206.13 249.12 C 208.06 226.81 226.88 207.54 249.12 205.04 C 249.13 219.73 249.13 234.42 249.12 249.11 C 234.79 249.14 220.46 249.13 206.13 249.12 Z" />
<path fill="#ffffff" opacity="1.00" d=" M 261.77 205.01 C 284.03 207.50 302.94 226.78 304.81 249.12 C 290.47 249.12 276.12 249.14 261.77 249.11 C 261.75 234.41 261.76 219.71 261.77 205.01 Z" />
<path fill="#ffffff" opacity="1.00" d=" M 172.13 263.90 C 179.09 262.10 186.32 262.15 193.45 262.16 C 195.63 279.15 205.11 294.99 219.06 304.92 C 227.79 311.44 238.36 315.11 249.12 316.48 C 249.27 324.99 249.15 333.65 246.71 341.88 C 241.57 360.26 227.44 375.77 209.73 382.81 C 198.44 387.13 185.88 388.95 174.02 385.95 C 147.95 380.99 126.56 357.59 124.45 331.07 C 124.36 326.69 124.33 322.30 124.47 317.92 C 126.79 292.24 147.02 269.52 172.13 263.90 Z" />
<path fill="#ffffff" opacity="1.00" d=" M 206.47 262.17 C 220.68 262.22 234.90 262.14 249.12 262.21 C 249.13 275.99 249.13 289.77 249.12 303.55 C 235.86 301.60 223.32 294.49 215.48 283.54 C 210.81 277.27 207.83 269.84 206.47 262.17 Z" />
<path fill="#ffffff" opacity="1.00" d=" M 261.76 262.22 C 276.02 262.14 290.28 262.21 304.54 262.18 C 302.27 275.24 294.84 287.41 283.84 294.91 C 277.35 299.60 269.62 302.25 261.77 303.55 C 261.75 289.77 261.76 276.00 261.76 262.22 Z" />
<path fill="#ffffff" opacity="1.00" d=" M 317.56 262.14 C 328.92 261.80 340.57 262.99 350.93 268.00 C 369.10 276.41 382.89 293.91 386.25 313.73 C 388.61 323.86 387.16 334.45 384.10 344.26 C 378.19 362.41 363.45 377.41 345.43 383.68 C 334.98 387.20 323.60 388.75 312.76 386.12 C 293.79 382.69 277.01 369.76 268.42 352.58 C 262.67 341.51 261.29 328.83 261.74 316.53 C 278.71 314.60 294.82 305.80 305.10 292.08 C 311.90 283.47 315.93 272.94 317.56 262.14 Z" />
</svg>
