<?xml version="1.0" encoding="UTF-8" ?>
<!DOCTYPE svg PUBLIC "-//W3C//DTD SVG 1.1//EN" "http://www.w3.org/Graphics/SVG/1.1/DTD/svg11.dtd">
<svg width="512pt" height="512pt" viewBox="0 0 512 512" version="1.1" xmlns="http://www.w3.org/2000/svg">
<path fill="#14ac5f" opacity="1.00" d=" M 0.00 0.00 L 512.00 0.00 L 512.00 512.00 L 0.00 512.00 L 0.00 0.00 Z" />
<path fill="#ffffff" opacity="1.00" d=" M 240.56 105.05 C 259.77 103.62 279.35 104.65 297.88 110.29 C 330.63 119.72 359.89 140.66 379.45 168.57 C 399.06 196.11 408.74 230.38 407.33 264.09 C 405.86 279.25 403.23 294.41 397.81 308.70 C 388.66 333.47 372.91 355.76 352.61 372.64 C 330.91 390.84 303.98 402.72 275.90 406.44 C 265.37 407.96 254.69 407.40 244.08 407.31 C 216.42 405.34 189.40 395.39 166.96 379.11 C 137.37 357.85 115.87 325.58 107.90 290.00 C 104.86 276.23 103.05 262.06 103.97 247.94 C 105.21 234.49 107.41 221.05 111.77 208.23 C 121.88 177.48 142.21 150.24 168.74 131.72 C 189.85 116.84 214.86 107.56 240.56 105.05 Z" />
<path fill="#14ac5f" opacity="1.00" d=" M 239.50 129.77 C 257.85 127.37 276.70 129.20 294.33 134.80 C 319.55 142.79 342.00 159.02 357.73 180.26 C 373.87 201.96 382.90 228.95 382.67 256.02 C 382.91 283.09 373.91 310.09 357.76 331.78 C 342.40 352.62 320.54 368.60 295.97 376.76 C 275.83 383.54 253.97 385.15 233.07 381.31 C 207.09 376.71 182.67 363.66 164.41 344.60 C 144.16 323.92 131.46 296.05 129.03 267.22 C 126.56 240.21 133.10 212.47 147.36 189.39 C 167.05 157.01 201.85 134.39 239.50 129.77 Z" />
<path fill="#ffffff" opacity="1.00" d=" M 236.51 144.67 C 246.33 143.87 256.22 143.23 266.06 144.12 C 273.64 144.53 281.29 145.24 288.58 147.48 C 290.65 148.14 293.91 149.65 292.25 152.32 C 279.99 180.49 267.82 208.71 255.54 236.88 C 255.37 236.84 255.04 236.75 254.88 236.71 C 242.60 208.39 230.31 180.08 218.03 151.76 C 216.94 149.81 219.41 148.51 220.87 147.90 C 225.86 145.98 231.24 145.40 236.51 144.67 Z" />
<path fill="#ffffff" opacity="1.00" d=" M 303.70 154.25 C 308.23 154.15 311.84 157.26 315.39 159.66 C 327.41 168.77 338.06 179.64 347.41 191.46 C 351.17 196.58 355.50 201.74 356.63 208.19 C 353.96 209.50 351.20 210.60 348.40 211.58 C 321.29 221.66 294.25 231.97 267.10 241.96 C 279.24 212.70 291.39 183.44 303.70 154.25 Z" />
<path fill="#ffffff" opacity="1.00" d=" M 188.58 165.69 C 193.99 161.23 199.64 156.83 206.29 154.40 C 207.24 155.29 208.26 156.18 208.65 157.48 C 219.95 186.01 231.13 214.59 242.58 243.06 C 213.04 231.77 183.72 219.89 154.32 208.27 C 154.01 203.76 157.07 200.08 159.39 196.52 C 167.76 185.07 177.77 174.86 188.58 165.69 Z" />
<path fill="#ffffff" opacity="1.00" d=" M 145.78 233.07 C 146.70 228.03 147.02 222.29 150.83 218.44 C 179.98 230.87 209.02 243.60 238.17 256.03 C 209.06 268.53 180.00 281.17 150.87 293.65 C 147.20 290.13 146.82 284.73 145.92 280.02 C 143.75 264.48 143.73 248.61 145.78 233.07 Z" />
<path fill="#ffffff" opacity="1.00" d=" M 274.93 256.16 C 303.00 244.10 330.99 231.84 359.04 219.75 C 360.82 218.63 362.01 220.87 362.64 222.18 C 365.42 228.73 365.71 235.96 366.47 242.94 C 367.12 256.69 367.24 270.59 364.84 284.19 C 363.97 287.91 363.43 292.26 360.19 294.77 C 332.09 282.48 303.95 270.30 275.79 258.15 C 274.77 258.08 273.05 256.58 274.93 256.16 Z" />
<path fill="#ffffff" opacity="1.00" d=" M 155.42 302.70 C 184.13 291.26 212.93 280.04 241.60 268.52 C 230.17 297.42 218.74 326.34 207.28 355.23 C 206.85 357.52 204.04 356.90 202.48 356.27 C 196.38 353.50 191.21 349.11 186.08 344.89 C 175.81 335.83 166.06 326.03 158.07 314.87 C 156.12 311.81 153.66 308.74 153.24 305.02 C 152.95 303.57 154.41 303.17 155.42 302.70 Z" />
<path fill="#ffffff" opacity="1.00" d=" M 267.43 267.16 C 295.59 278.81 323.67 290.69 351.83 302.35 C 353.23 302.86 354.41 303.78 355.53 304.76 C 354.46 307.78 353.12 310.73 351.22 313.32 C 344.18 323.38 335.37 332.03 326.36 340.30 C 318.82 346.61 311.28 353.56 301.74 356.65 C 300.88 355.56 300.01 354.45 299.58 353.12 C 288.88 324.46 278.18 295.80 267.43 267.16 Z" />
<path fill="#ffffff" opacity="1.00" d=" M 247.10 290.89 C 249.63 285.26 251.82 279.48 254.61 273.98 C 266.84 302.16 279.04 330.35 291.30 358.52 C 291.75 359.64 292.34 361.14 291.25 362.12 C 288.23 364.20 284.52 364.90 280.98 365.56 C 268.16 367.75 255.06 367.91 242.10 367.22 C 234.79 366.48 227.27 366.11 220.32 363.52 C 218.65 362.91 216.20 361.52 217.42 359.38 C 227.25 336.53 237.21 313.72 247.10 290.89 Z" />
</svg>
