<?xml version="1.0" encoding="UTF-8" ?>
<!DOCTYPE svg PUBLIC "-//W3C//DTD SVG 1.1//EN" "http://www.w3.org/Graphics/SVG/1.1/DTD/svg11.dtd">
<svg width="512pt" height="512pt" viewBox="0 0 512 512" version="1.1" xmlns="http://www.w3.org/2000/svg">
<path fill="#00a9ec" opacity="1.00" d=" M 0.00 0.00 L 512.00 0.00 L 512.00 512.00 L 0.00 512.00 L 0.00 0.00 Z" />
<path fill="#ffffff" opacity="1.00" d=" M 309.96 97.88 C 337.22 120.31 364.27 142.99 391.45 165.52 C 398.34 171.39 405.50 176.96 412.25 183.00 C 378.17 211.34 344.14 239.75 309.95 267.97 C 309.69 251.24 309.96 234.51 309.82 217.78 C 255.63 217.76 201.43 217.78 147.24 217.77 C 147.30 194.51 147.26 171.25 147.27 148.00 C 201.46 147.75 255.66 147.97 309.86 147.88 C 309.90 131.21 309.71 114.54 309.96 97.88 Z" />
<path fill="#ffffff" opacity="1.00" d=" M 99.97 329.14 C 135.00 300.91 169.86 272.46 204.77 244.07 C 204.78 261.21 204.84 278.37 204.73 295.52 C 259.24 295.77 313.76 295.54 368.27 295.63 C 368.27 318.07 368.24 340.51 368.29 362.95 C 351.20 363.43 334.09 363.01 316.99 363.16 C 279.58 363.18 242.18 363.10 204.77 363.20 C 204.82 380.35 204.75 397.50 204.81 414.65 C 179.43 393.84 153.88 373.24 128.42 352.52 C 118.98 344.68 109.18 337.25 99.97 329.14 Z" />
</svg>
