<?xml version="1.0" encoding="UTF-8" ?>
<!DOCTYPE svg PUBLIC "-//W3C//DTD SVG 1.1//EN" "http://www.w3.org/Graphics/SVG/1.1/DTD/svg11.dtd">
<svg width="512pt" height="512pt" viewBox="0 0 512 512" version="1.1" xmlns="http://www.w3.org/2000/svg">
<path fill="#04aeda" opacity="1.00" d=" M 0.00 0.00 L 512.00 0.00 L 512.00 512.00 L 0.00 512.00 L 0.00 0.00 Z" />
<path fill="#ffffff" opacity="1.00" d=" M 219.05 158.84 C 231.17 157.19 243.79 160.28 253.82 167.27 C 268.20 176.92 277.50 193.26 279.56 210.34 C 279.93 216.25 280.00 222.22 279.40 228.12 C 277.01 244.63 267.48 260.45 252.79 268.79 C 243.33 274.01 232.02 276.59 221.32 274.44 C 207.09 272.29 194.28 263.54 186.10 251.84 C 177.68 240.10 173.72 225.38 174.53 211.00 C 175.42 196.28 181.59 181.61 192.50 171.52 C 199.77 164.71 209.16 160.15 219.05 158.84 Z" />
<path fill="#ffffff" opacity="1.00" d=" M 317.63 179.87 C 327.93 176.83 339.50 179.41 347.72 186.26 C 360.84 196.97 364.78 216.28 359.23 231.94 C 355.04 244.58 344.28 255.23 331.08 257.97 C 321.54 260.15 311.24 257.40 303.65 251.35 C 289.32 239.93 285.71 218.50 293.04 202.15 C 297.51 191.65 306.61 183.07 317.63 179.87 Z" />
<path fill="#ffffff" opacity="1.00" d=" M 357.74 262.87 C 365.85 260.82 374.62 263.84 380.52 269.57 C 389.95 278.42 394.61 291.00 397.84 303.23 C 399.54 310.51 400.86 317.95 400.50 325.46 C 370.96 325.41 341.42 325.44 311.88 325.44 C 300.76 309.50 289.74 293.50 278.60 277.57 C 281.84 272.89 285.50 268.33 290.32 265.20 C 292.33 263.74 295.24 264.25 296.95 265.96 C 302.33 270.63 308.12 275.18 315.06 277.21 C 321.46 278.67 327.67 275.98 333.48 273.62 C 341.55 270.01 349.23 265.41 357.74 262.87 Z" />
<path fill="#ffffff" opacity="1.00" d=" M 154.42 285.39 C 162.00 280.83 171.33 279.05 179.98 281.17 C 197.69 286.22 212.80 297.94 230.84 302.06 C 242.45 304.96 253.41 298.06 262.26 291.31 C 266.38 288.54 269.50 283.32 275.01 283.45 C 286.10 299.44 297.12 315.50 308.39 331.36 C 312.51 344.78 313.62 358.87 314.69 372.80 C 256.14 372.78 197.59 372.79 139.05 372.79 C 131.75 372.66 124.44 373.06 117.16 372.58 C 117.78 366.73 118.09 360.85 118.80 355.01 C 121.25 339.68 125.32 324.43 132.57 310.63 C 137.68 300.66 144.71 291.26 154.42 285.39 Z" />
</svg>
