<?xml version="1.0" encoding="UTF-8" ?>
<!DOCTYPE svg PUBLIC "-//W3C//DTD SVG 1.1//EN" "http://www.w3.org/Graphics/SVG/1.1/DTD/svg11.dtd">
<svg width="512pt" height="512pt" viewBox="0 0 512 512" version="1.1" xmlns="http://www.w3.org/2000/svg">
<path fill="#1e86ea" opacity="1.00" d=" M 0.00 0.00 L 512.00 0.00 L 512.00 512.00 L 0.00 512.00 L 0.00 0.00 Z" />
<path fill="#ffffff" opacity="1.00" d=" M 189.09 118.44 C 192.23 119.15 195.06 120.72 198.01 121.96 C 265.01 150.95 331.99 179.97 398.98 208.95 C 384.72 262.53 370.71 316.21 356.41 369.77 C 356.08 365.40 357.21 361.13 357.75 356.84 C 364.97 307.21 372.18 257.57 379.39 207.94 C 379.98 204.91 377.23 202.42 374.49 201.84 C 310.51 182.63 246.65 163.02 182.62 143.96 C 184.61 135.41 187.35 127.05 189.09 118.44 Z" />
<path fill="#ffffff" opacity="1.00" d=" M 151.73 143.97 C 224.72 165.73 297.54 188.09 370.50 209.97 C 363.59 257.39 356.76 304.82 349.81 352.24 C 348.91 357.95 348.59 363.79 346.94 369.37 C 346.63 319.92 346.90 270.45 346.81 221.00 C 346.67 217.53 347.20 213.98 346.45 210.56 C 344.40 206.72 339.57 207.34 335.95 206.58 C 272.99 197.21 210.08 187.51 147.10 178.23 C 148.06 166.75 150.24 155.39 151.73 143.97 Z" />
<path fill="#ffffff" opacity="1.00" d=" M 112.34 182.06 C 187.73 193.14 263.02 204.88 338.40 215.93 C 338.51 274.93 338.42 333.93 338.45 392.93 C 263.05 381.94 187.76 370.18 112.38 359.07 C 112.29 300.07 112.36 241.07 112.34 182.06 Z" />
<path fill="#1e86ea" opacity="1.00" d=" M 289.18 217.60 C 302.96 219.67 316.70 222.05 330.52 223.74 C 330.87 232.39 330.58 241.05 330.67 249.71 C 316.83 247.63 303.00 245.56 289.17 243.41 C 289.17 234.80 289.14 226.20 289.18 217.60 Z" />
<path fill="#1e86ea" opacity="1.00" d=" M 159.36 284.21 C 203.32 290.80 247.31 297.31 291.24 304.12 C 291.16 316.24 291.22 328.37 291.21 340.50 C 247.25 333.81 203.25 327.38 159.31 320.55 C 159.43 308.44 159.34 296.32 159.36 284.21 Z" />
</svg>
