<?xml version="1.0" encoding="UTF-8" ?>
<!DOCTYPE svg PUBLIC "-//W3C//DTD SVG 1.1//EN" "http://www.w3.org/Graphics/SVG/1.1/DTD/svg11.dtd">
<svg width="512pt" height="512pt" viewBox="0 0 512 512" version="1.1" xmlns="http://www.w3.org/2000/svg">
<path fill="#23a8e0" opacity="1.00" d=" M 0.00 0.00 L 512.00 0.00 L 512.00 512.00 L 0.00 512.00 L 0.00 0.00 Z" />
<path fill="#ffffff" opacity="1.00" d=" M 124.97 138.00 C 133.56 134.37 143.02 136.59 152.03 136.11 C 184.00 136.67 215.98 136.68 247.95 136.84 C 256.29 137.56 264.66 137.14 273.02 137.39 C 302.02 137.51 331.03 137.59 360.02 137.99 C 366.53 138.79 373.34 137.25 379.62 139.62 C 387.52 142.60 393.81 149.68 395.42 158.03 C 396.74 167.29 396.26 176.69 397.19 185.99 C 398.85 224.30 400.49 262.64 402.46 300.96 C 402.10 309.21 397.68 317.29 390.54 321.58 C 385.32 324.82 379.04 325.62 373.02 325.63 C 351.07 327.04 329.14 328.80 307.18 329.82 C 306.00 329.91 304.78 330.10 303.83 330.86 C 284.98 345.94 266.53 361.55 247.57 376.49 C 249.61 362.18 252.11 347.93 254.03 333.61 C 215.00 335.91 175.99 338.45 136.99 341.24 C 131.37 341.67 125.65 340.28 120.99 337.08 C 113.84 332.67 109.62 324.34 109.53 316.03 C 109.53 264.35 109.52 212.66 109.53 160.98 C 109.63 151.18 115.76 141.61 124.97 138.00 Z" />
<path fill="#23a8e0" opacity="1.00" d=" M 234.57 179.83 C 240.50 166.86 256.37 159.66 270.03 163.85 C 283.95 167.24 293.83 181.88 291.89 196.05 C 291.04 204.69 285.96 212.47 279.04 217.55 C 282.16 219.23 285.19 221.07 288.09 223.13 C 291.01 215.37 296.01 208.34 303.01 203.78 C 297.30 200.18 292.90 194.00 293.27 187.01 C 292.81 179.75 297.56 172.99 303.94 169.91 C 307.57 167.86 311.89 168.18 315.89 168.43 C 323.67 169.78 330.23 176.63 330.98 184.55 C 332.02 191.43 328.75 198.36 323.27 202.50 C 332.28 206.83 338.20 215.65 341.32 224.90 C 343.79 231.66 345.05 238.88 345.36 246.05 C 344.78 250.11 340.11 250.78 336.97 252.02 C 328.00 255.42 318.30 254.52 308.91 254.63 C 312.07 264.84 314.10 275.38 314.76 286.04 C 314.98 290.61 310.81 293.65 306.82 294.73 C 293.87 299.91 279.86 301.73 265.98 301.30 C 250.57 301.77 234.81 299.76 220.71 293.22 C 218.46 292.11 217.16 289.90 215.98 287.80 C 212.04 288.47 208.06 288.86 204.08 289.17 C 188.74 289.65 172.60 289.57 158.63 282.37 C 155.28 280.29 155.44 275.87 156.22 272.48 C 157.97 256.87 162.80 240.62 174.16 229.24 C 176.06 227.05 179.28 225.91 180.81 223.59 C 176.73 220.61 172.65 217.27 170.60 212.49 C 166.31 203.41 168.22 191.54 175.85 184.79 C 185.66 174.77 204.20 176.44 212.19 187.91 C 220.07 198.33 217.46 214.86 206.46 222.08 C 215.47 226.49 222.46 234.35 226.74 243.33 C 231.75 233.91 238.74 225.33 247.92 219.71 C 244.04 216.78 240.01 213.88 237.15 209.87 C 231.02 201.26 230.12 189.38 234.57 179.83 Z" />
</svg>
