<?xml version="1.0" encoding="UTF-8" ?>
<!DOCTYPE svg PUBLIC "-//W3C//DTD SVG 1.1//EN" "http://www.w3.org/Graphics/SVG/1.1/DTD/svg11.dtd">
<svg width="512pt" height="512pt" viewBox="0 0 512 512" version="1.1" xmlns="http://www.w3.org/2000/svg">
<path fill="#699bf7" opacity="1.00" d=" M 0.00 0.00 L 512.00 0.00 L 512.00 512.00 L 0.00 512.00 L 0.00 0.00 Z" />
<path fill="#ffffff" opacity="1.00" d=" M 245.98 140.11 C 276.20 137.59 307.58 140.19 335.59 152.46 C 355.49 161.08 372.89 176.42 381.63 196.51 C 389.67 215.72 393.36 237.42 388.34 257.90 C 383.72 279.56 370.47 298.50 353.96 312.89 C 333.26 330.94 307.56 342.60 280.98 348.96 C 261.41 353.69 240.95 355.11 220.97 352.29 C 209.31 362.68 195.60 371.52 180.09 374.62 C 172.85 376.34 165.37 377.39 157.92 376.78 C 155.14 376.49 152.14 375.96 149.99 374.03 C 147.44 371.92 147.75 367.37 150.55 365.62 C 153.95 363.38 157.80 361.62 160.27 358.24 C 164.12 353.33 168.62 347.70 167.77 341.04 C 167.67 337.91 167.00 334.84 166.33 331.79 C 144.92 317.30 126.89 295.73 121.70 269.90 C 117.83 252.85 120.83 234.98 126.72 218.76 C 137.22 191.04 159.77 169.08 186.00 155.97 C 204.63 146.59 225.31 141.97 245.98 140.11 Z" />
<path fill="#699bf7" opacity="1.00" d=" M 279.19 238.27 C 289.54 229.96 299.83 221.58 310.22 213.31 C 310.47 235.92 310.53 258.54 310.52 281.15 C 300.57 272.80 290.53 264.57 280.50 256.33 C 279.69 255.80 279.30 255.05 279.33 254.10 C 279.12 248.82 279.22 243.54 279.19 238.27 Z" />
<path fill="#699bf7" opacity="1.00" d=" M 209.34 215.53 C 211.37 214.47 213.71 214.46 215.95 214.46 C 231.96 214.53 247.98 214.45 264.00 214.49 C 269.64 214.29 275.01 219.21 274.87 224.94 C 274.90 239.65 274.88 254.38 274.88 269.10 C 275.16 274.88 269.76 280.03 264.04 279.79 C 247.36 279.80 230.67 279.81 213.99 279.78 C 208.23 280.00 202.98 274.79 203.19 269.02 C 203.10 254.67 203.16 240.32 203.17 225.97 C 202.87 221.63 205.38 217.34 209.34 215.53 Z" />
</svg>
