<?xml version="1.0" encoding="UTF-8" ?>
<!DOCTYPE svg PUBLIC "-//W3C//DTD SVG 1.1//EN" "http://www.w3.org/Graphics/SVG/1.1/DTD/svg11.dtd">
<svg width="512pt" height="512pt" viewBox="0 0 512 512" version="1.1" xmlns="http://www.w3.org/2000/svg">
<path fill="#0269e2" opacity="1.00" d=" M 0.00 0.00 L 512.00 0.00 L 512.00 512.00 L 0.00 512.00 L 0.00 0.00 Z" />
<path fill="#ffffff" opacity="1.00" d=" M 238.67 112.02 C 250.71 110.27 262.96 110.40 274.97 112.25 C 305.89 116.23 335.32 130.62 357.50 152.51 C 379.24 173.75 394.10 201.98 399.01 231.99 C 401.13 243.55 401.09 255.37 400.58 267.07 C 398.41 297.03 386.45 326.15 367.08 349.10 C 348.00 371.92 321.76 388.68 292.97 396.20 C 280.89 399.33 268.43 401.06 255.96 401.25 C 232.88 400.84 209.77 395.46 189.29 384.71 C 157.91 368.50 132.87 340.45 120.42 307.39 C 111.56 284.50 109.15 259.34 112.50 235.08 C 117.44 200.18 135.81 167.45 162.88 144.90 C 184.23 126.88 210.93 115.33 238.67 112.02 Z" />
<path fill="#0269e2" opacity="1.00" d=" M 247.25 121.34 C 268.35 120.01 289.75 123.47 309.16 131.91 C 340.02 145.02 365.53 170.10 379.19 200.72 C 393.24 231.47 394.75 267.51 383.75 299.44 C 377.31 318.79 366.05 336.30 352.00 351.00 C 335.83 366.88 315.97 379.15 294.12 385.41 C 274.99 390.96 254.63 392.65 234.96 389.21 C 198.71 383.79 165.20 362.55 144.69 332.20 C 125.35 304.23 117.16 268.67 122.59 235.09 C 127.51 203.06 144.54 173.07 169.49 152.40 C 191.23 134.15 218.89 122.98 247.25 121.34 Z" />
<path fill="#ffffff" opacity="1.00" d=" M 246.81 169.27 C 246.27 167.20 245.50 164.07 247.79 162.80 C 250.97 162.28 253.15 165.05 254.78 167.33 C 260.13 175.28 264.80 183.67 270.50 191.38 C 278.04 203.60 285.47 215.90 292.70 228.31 C 297.40 236.70 302.23 245.08 305.86 254.01 C 301.17 256.80 296.41 259.52 291.30 261.49 C 287.72 256.93 285.16 251.71 282.32 246.69 C 272.38 227.90 263.78 208.46 254.96 189.14 C 252.75 182.31 249.24 176.01 246.81 169.27 Z" />
<path fill="#ffffff" opacity="1.00" d=" M 242.74 190.69 C 248.38 189.03 255.61 192.82 256.28 198.96 C 256.64 201.49 255.09 203.76 254.16 206.00 C 248.41 202.82 242.86 199.29 236.95 196.41 C 238.38 194.08 239.97 191.56 242.74 190.69 Z" />
<path fill="#ffffff" opacity="1.00" d=" M 230.79 203.96 C 231.84 202.00 233.03 200.14 234.81 198.77 C 241.25 202.18 247.53 205.87 253.74 209.67 C 252.95 213.86 249.49 216.68 248.22 220.63 C 247.94 220.96 247.40 221.61 247.12 221.93 C 246.26 223.48 245.14 224.84 243.99 226.18 C 237.68 222.76 231.46 219.17 225.27 215.53 C 225.46 214.61 225.83 212.77 226.02 211.86 C 226.64 210.86 227.29 209.88 227.91 208.89 C 229.54 207.68 230.73 206.06 230.79 203.96 Z" />
<path fill="#ffffff" opacity="1.00" d=" M 223.52 217.94 C 229.96 221.43 236.26 225.17 242.57 228.88 C 229.23 251.45 216.09 274.15 203.17 296.97 C 196.12 294.71 189.81 290.63 183.95 286.18 C 197.58 263.69 209.86 240.41 223.52 217.94 Z" />
<path fill="#ffffff" opacity="1.00" d=" M 172.28 242.23 C 183.37 242.23 194.47 242.27 205.57 242.21 C 199.26 252.99 193.20 263.94 186.66 274.57 C 181.88 275.02 177.06 274.64 172.27 274.76 C 172.29 263.91 172.22 253.07 172.28 242.23 Z" />
<path fill="#ffffff" opacity="1.00" d=" M 238.88 242.22 C 251.17 242.37 263.47 242.03 275.74 242.37 C 282.07 253.06 287.70 264.21 294.36 274.72 C 269.65 274.61 244.93 274.58 220.21 274.74 C 226.51 263.94 232.60 253.03 238.88 242.22 Z" />
<path fill="#ffffff" opacity="1.00" d=" M 304.35 242.22 C 316.14 242.26 327.93 242.24 339.73 242.23 C 339.71 253.07 339.86 263.91 339.73 274.75 C 333.26 274.69 326.76 275.04 320.31 274.52 C 316.37 268.78 314.40 261.96 311.06 255.87 C 308.48 251.49 306.92 246.61 304.35 242.22 Z" />
<path fill="#ffffff" opacity="1.00" d=" M 292.43 264.66 C 297.50 262.14 302.59 259.63 307.29 256.45 C 310.52 263.05 313.37 269.85 316.84 276.34 C 313.31 279.19 309.33 281.69 304.93 282.92 C 303.47 283.51 303.01 281.61 302.29 280.81 C 299.04 275.40 295.91 269.92 292.43 264.66 Z" />
<path fill="#ffffff" opacity="1.00" d=" M 306.55 286.26 C 310.45 284.62 314.18 282.60 317.80 280.41 C 324.12 290.36 331.31 299.79 336.92 310.17 C 339.40 315.00 335.61 320.59 330.87 322.07 C 326.62 324.06 321.43 321.49 319.69 317.30 C 314.78 307.20 310.64 296.72 306.55 286.26 Z" />
<path fill="#ffffff" opacity="1.00" d=" M 178.19 312.98 C 180.23 305.10 181.69 297.07 183.45 289.12 C 188.26 293.56 194.17 296.85 200.29 299.13 C 195.58 303.50 190.91 307.91 186.24 312.32 C 182.94 315.38 180.40 319.20 176.78 321.94 C 175.22 318.92 177.59 315.91 178.19 312.98 Z" />
</svg>
