<?xml version="1.0" encoding="UTF-8" ?>
<!DOCTYPE svg PUBLIC "-//W3C//DTD SVG 1.1//EN" "http://www.w3.org/Graphics/SVG/1.1/DTD/svg11.dtd">
<svg width="512pt" height="512pt" viewBox="0 0 512 512" version="1.1" xmlns="http://www.w3.org/2000/svg">
<path fill="#434343" opacity="1.00" d=" M 0.00 0.00 L 512.00 0.00 L 512.00 512.00 L 0.00 512.00 L 0.00 0.00 Z" />
<path fill="#ffffff" opacity="1.00" d=" M 242.98 117.90 C 249.98 117.40 257.01 117.68 264.03 117.67 C 293.05 119.33 321.38 130.69 343.64 149.35 C 367.58 169.20 384.51 197.38 390.58 227.90 C 393.10 241.38 394.56 255.26 392.63 268.92 C 390.10 296.17 379.00 322.49 361.49 343.49 C 342.58 366.42 316.01 382.88 287.09 389.68 C 275.90 392.14 264.46 393.72 253.00 393.49 C 225.05 392.77 197.26 383.78 174.63 367.28 C 141.55 343.63 119.82 304.72 117.66 264.06 C 117.62 258.03 117.57 252.00 117.69 245.97 C 119.66 214.42 133.08 183.74 154.86 160.84 C 177.65 136.36 209.67 120.78 242.98 117.90 Z" />
<path fill="#434343" opacity="1.00" d=" M 193.03 149.04 C 212.95 137.53 236.02 131.46 259.05 132.33 C 278.97 132.74 298.60 138.47 316.01 148.07 C 311.73 155.95 306.84 163.49 302.19 171.16 C 306.05 173.55 309.94 175.89 313.83 178.22 C 314.75 178.86 316.39 179.60 316.96 178.09 C 321.25 171.12 325.35 164.03 329.74 157.11 C 347.84 171.12 362.30 189.94 370.37 211.42 C 375.02 223.24 377.38 235.83 378.38 248.46 C 370.98 248.50 363.57 248.47 356.17 248.47 C 356.22 253.87 356.20 259.27 356.19 264.67 C 363.45 264.66 370.70 264.66 377.96 264.66 C 376.44 290.21 366.05 315.04 349.59 334.57 C 329.73 358.44 300.47 374.21 269.61 377.67 C 265.11 334.10 260.45 290.54 256.00 246.97 C 255.75 245.17 255.42 243.39 255.06 241.62 C 250.87 286.99 245.49 332.26 241.19 377.63 C 213.18 374.61 186.45 361.34 166.94 341.04 C 146.64 320.35 134.24 292.21 132.44 263.29 C 139.08 263.28 145.72 263.29 152.36 263.29 C 152.35 257.98 152.34 252.67 152.37 247.37 C 145.73 247.35 139.08 247.37 132.44 247.36 C 134.57 212.77 152.09 179.24 179.78 158.32 C 183.98 165.49 188.26 172.63 192.69 179.66 C 197.14 176.61 201.89 174.05 206.42 171.15 C 201.84 163.85 197.44 156.44 193.03 149.04 Z" />
</svg>
