<?xml version="1.0" encoding="UTF-8" ?>
<!DOCTYPE svg PUBLIC "-//W3C//DTD SVG 1.1//EN" "http://www.w3.org/Graphics/SVG/1.1/DTD/svg11.dtd">
<svg width="512pt" height="512pt" viewBox="0 0 512 512" version="1.1" xmlns="http://www.w3.org/2000/svg">
<path fill="#43433b" opacity="1.00" d=" M 0.00 0.00 L 512.00 0.00 L 512.00 512.00 L 0.00 512.00 L 0.00 0.00 Z" />
<path fill="#ffffff" opacity="1.00" d=" M 239.58 112.13 C 240.50 112.15 241.41 112.16 242.33 112.18 C 259.58 140.35 277.12 168.35 294.37 196.52 C 324.94 192.51 355.37 187.49 385.90 183.21 C 393.12 182.20 400.29 180.53 407.61 180.34 C 407.61 184.70 405.59 188.68 404.50 192.82 C 401.98 202.81 394.08 210.06 386.75 216.76 C 381.32 221.27 376.77 226.73 371.52 231.44 C 365.83 236.12 361.20 241.93 355.50 246.60 C 349.30 252.37 343.71 258.79 337.07 264.08 C 337.85 266.18 338.77 268.24 339.92 270.17 C 356.86 297.26 373.48 324.55 390.43 351.62 C 391.42 353.28 392.52 354.94 392.97 356.86 C 391.68 361.31 389.43 365.44 387.25 369.51 C 382.90 368.45 378.44 367.64 374.37 365.70 C 345.28 352.37 316.29 338.86 287.19 325.55 C 284.52 324.34 281.82 323.11 278.95 322.47 C 276.25 323.32 274.03 325.16 271.97 327.03 C 267.57 331.27 263.42 335.76 258.94 339.92 C 252.25 345.56 246.51 352.22 240.09 358.15 C 232.56 364.55 226.31 372.31 218.68 378.59 C 211.87 384.83 205.93 392.02 198.65 397.75 C 196.26 399.79 193.18 400.75 190.10 401.02 C 189.21 397.65 188.13 394.31 187.50 390.87 C 187.20 386.80 188.61 382.87 189.26 378.89 C 194.70 348.69 200.89 318.61 206.02 288.35 C 179.63 276.11 153.12 264.13 126.64 252.09 C 120.61 249.76 115.07 246.12 110.68 241.37 C 109.00 238.39 108.38 234.96 107.08 231.81 C 106.41 229.58 104.82 227.32 105.80 224.94 C 122.16 221.98 138.71 220.05 155.13 217.37 C 177.20 214.11 199.29 210.92 221.34 207.53 C 222.28 203.04 223.16 198.54 224.01 194.04 C 229.17 166.74 234.07 139.37 239.58 112.13 Z" />
<path fill="#43433b" opacity="1.00" d=" M 242.39 125.93 C 242.27 125.05 243.29 123.07 243.99 124.87 C 259.88 150.44 275.57 176.14 291.36 201.78 C 298.01 201.37 304.55 200.01 311.14 199.08 C 339.09 195.02 367.00 190.68 394.95 186.66 C 390.05 192.21 384.14 196.71 379.04 202.06 C 360.72 219.68 342.17 237.06 323.98 254.82 C 339.60 279.96 355.00 305.23 370.54 330.42 C 373.79 335.83 377.32 341.08 380.31 346.65 C 349.24 332.97 318.52 318.46 287.59 304.45 C 284.05 302.97 280.71 300.94 276.99 299.96 C 274.70 301.30 273.00 303.37 271.12 305.19 C 251.72 323.75 232.23 342.22 212.93 360.88 C 207.05 365.88 202.04 371.83 196.01 376.66 C 197.54 365.77 199.93 355.01 201.78 344.16 C 206.36 319.98 210.72 295.76 215.33 271.59 C 183.82 256.61 151.85 242.56 120.28 227.71 C 155.63 222.02 191.11 217.09 226.51 211.67 C 231.77 183.08 237.07 154.51 242.39 125.93 Z" />
<path fill="#ffffff" opacity="1.00" d=" M 254.50 205.63 C 269.41 202.57 285.78 205.57 298.01 214.85 C 306.84 221.35 313.55 231.01 315.55 241.88 C 318.04 253.31 314.91 265.61 307.91 274.90 C 293.67 294.18 265.42 299.79 244.03 289.98 C 232.79 284.98 223.26 275.78 218.86 264.19 C 213.92 251.64 215.74 236.64 223.62 225.68 C 230.69 215.20 242.23 208.21 254.50 205.63 Z" />
<path fill="#43433b" opacity="1.00" d=" M 292.28 232.64 C 293.82 231.45 295.43 230.36 297.06 229.30 C 298.00 233.38 298.87 237.49 299.56 241.63 C 296.78 240.84 293.94 240.30 291.05 240.22 C 292.40 246.46 294.35 252.65 294.61 259.07 C 294.95 261.61 291.94 262.38 290.02 262.77 C 278.05 264.24 266.19 266.55 254.21 267.89 C 249.84 266.75 249.93 261.65 249.17 258.08 C 242.81 258.43 238.72 263.98 233.67 267.13 C 231.98 259.21 230.89 251.18 229.48 243.20 C 235.37 244.82 241.02 248.47 247.34 247.41 C 246.79 244.45 246.27 241.48 245.55 238.56 C 247.90 235.15 252.37 235.61 255.95 234.85 C 265.70 233.53 275.39 231.87 285.13 230.46 C 287.16 229.78 288.53 231.51 289.91 232.67 C 290.69 232.66 291.48 232.65 292.28 232.64 Z" />
</svg>
