<?xml version="1.0" encoding="UTF-8" ?>
<!DOCTYPE svg PUBLIC "-//W3C//DTD SVG 1.1//EN" "http://www.w3.org/Graphics/SVG/1.1/DTD/svg11.dtd">
<svg width="512pt" height="512pt" viewBox="0 0 512 512" version="1.1" xmlns="http://www.w3.org/2000/svg">
<path fill="#00a9ec" opacity="1.00" d=" M 0.00 0.00 L 512.00 0.00 L 512.00 512.00 L 0.00 512.00 L 0.00 0.00 Z" />
<path fill="#ffffff" opacity="1.00" d=" M 198.94 128.39 C 225.51 124.23 253.02 125.51 278.92 132.89 C 302.39 139.59 324.80 151.42 341.87 169.09 C 343.89 171.35 346.34 173.39 347.44 176.31 C 330.33 170.90 312.64 167.06 294.66 166.47 C 257.88 164.83 219.98 173.42 189.31 194.27 C 168.67 208.41 151.29 229.12 145.85 254.00 C 141.15 273.42 144.84 294.40 154.71 311.64 C 146.43 308.79 139.10 303.62 131.86 298.74 C 119.06 303.32 106.20 307.75 93.42 312.39 C 96.28 296.99 99.16 281.59 101.77 266.15 C 92.43 250.25 88.86 231.00 92.38 212.86 C 96.12 192.72 108.31 174.96 123.65 161.75 C 144.82 143.57 171.62 132.94 198.94 128.39 Z" />
<path fill="#ffffff" opacity="1.00" d=" M 241.98 179.90 C 260.90 175.14 280.59 173.61 300.03 175.04 C 328.00 177.30 355.92 185.70 379.03 201.92 C 394.72 212.93 408.21 227.87 415.00 245.99 C 421.11 262.02 421.21 280.25 415.17 296.32 C 408.41 314.92 394.43 330.07 378.43 341.31 C 377.81 356.28 376.97 371.23 376.36 386.20 C 363.14 378.03 350.16 369.49 336.93 361.34 L 336.18 361.21 C 300.77 371.17 262.22 370.61 227.41 358.46 C 204.63 350.38 183.11 337.02 168.37 317.56 C 158.04 304.03 151.76 287.15 152.21 270.01 C 152.39 250.44 161.47 231.81 174.66 217.67 C 192.53 198.52 216.80 186.28 241.98 179.90 Z" />
</svg>
