<?xml version="1.0" encoding="UTF-8" ?>
<!DOCTYPE svg PUBLIC "-//W3C//DTD SVG 1.1//EN" "http://www.w3.org/Graphics/SVG/1.1/DTD/svg11.dtd">
<svg width="512pt" height="512pt" viewBox="0 0 512 512" version="1.1" xmlns="http://www.w3.org/2000/svg">
<path fill="#04aeda" opacity="1.00" d=" M 0.00 0.00 L 512.00 0.00 L 512.00 512.00 L 0.00 512.00 L 0.00 0.00 Z" />
<path fill="#ffffff" opacity="1.00" d=" M 131.94 144.04 C 137.54 140.33 144.38 139.01 151.01 139.11 C 221.35 139.13 291.70 139.10 362.05 139.13 C 368.33 139.11 374.74 140.51 380.04 143.99 C 388.28 149.10 393.73 158.33 394.45 167.97 C 394.49 210.66 394.45 253.34 394.47 296.03 C 393.99 311.43 380.50 325.02 365.06 325.43 C 321.34 325.42 277.63 325.41 233.91 325.43 C 232.71 325.29 231.83 326.24 230.88 326.79 C 208.21 342.48 185.39 357.97 162.73 373.68 C 163.35 357.62 163.47 341.54 163.81 325.47 C 155.08 324.90 145.95 326.81 137.59 323.45 C 125.57 319.15 117.25 306.68 117.52 293.99 C 117.55 252.31 117.52 210.63 117.54 168.95 C 118.02 159.01 123.43 149.32 131.94 144.04 Z" />
<path fill="#04aeda" opacity="1.00" d=" M 223.40 187.52 C 232.42 183.34 243.87 191.13 243.68 200.95 C 244.26 208.99 236.95 216.43 228.97 216.32 C 221.00 216.47 213.38 209.06 214.20 200.94 C 213.91 195.05 218.18 189.78 223.40 187.52 Z" />
<path fill="#04aeda" opacity="1.00" d=" M 273.34 187.40 C 281.36 184.00 291.15 189.67 292.96 197.99 C 295.26 206.31 288.60 215.43 280.11 216.21 C 271.18 217.50 262.62 209.04 263.68 200.12 C 264.10 194.45 268.09 189.42 273.34 187.40 Z" />
<path fill="#04aeda" opacity="1.00" d=" M 191.66 242.04 C 191.16 239.40 193.77 237.58 195.84 236.60 C 200.90 238.56 205.67 241.30 210.97 242.58 C 231.47 248.11 252.91 248.38 273.99 247.36 C 284.73 246.25 295.53 244.92 305.87 241.70 C 310.04 240.23 313.94 238.10 318.09 236.55 C 319.78 237.70 321.51 238.99 322.33 240.95 C 322.31 243.09 320.63 244.75 319.51 246.44 C 307.60 261.25 290.38 271.45 272.05 276.06 C 257.26 279.30 241.46 277.65 227.68 271.36 C 215.82 266.09 204.63 258.81 196.14 248.90 C 194.41 246.79 192.59 244.64 191.66 242.04 Z" />
</svg>
