<?xml version="1.0" encoding="UTF-8" ?>
<!DOCTYPE svg PUBLIC "-//W3C//DTD SVG 1.1//EN" "http://www.w3.org/Graphics/SVG/1.1/DTD/svg11.dtd">
<svg width="512pt" height="512pt" viewBox="0 0 512 512" version="1.1" xmlns="http://www.w3.org/2000/svg">
<path fill="#2ebf1b" opacity="1.00" d=" M 0.00 0.00 L 512.00 0.00 L 512.00 512.00 L 0.00 512.00 L 0.00 0.00 Z" />
<path fill="#ffffff" opacity="1.00" d=" M 116.78 116.79 C 147.79 116.79 178.80 116.78 209.81 116.79 C 209.82 147.80 209.74 178.82 209.86 209.84 C 178.83 209.76 147.81 209.83 116.78 209.80 C 116.79 178.80 116.79 147.79 116.78 116.79 Z" />
<path fill="#ffffff" opacity="1.00" d=" M 303.56 116.75 C 334.75 116.80 365.93 116.75 397.11 116.78 C 397.11 147.78 397.10 178.79 397.12 209.79 C 365.94 209.88 334.77 209.74 303.60 209.87 C 303.48 225.64 303.50 241.42 303.58 257.19 C 319.19 257.17 334.79 257.19 350.40 257.18 C 350.33 303.81 350.43 350.44 350.35 397.07 C 334.78 397.08 319.22 397.07 303.65 397.08 C 303.61 381.52 303.64 365.96 303.64 350.40 C 272.35 350.42 241.06 350.26 209.77 350.48 C 209.78 366.01 209.82 381.54 209.75 397.08 C 194.35 397.07 178.94 397.08 163.54 397.07 C 163.45 350.44 163.55 303.81 163.49 257.17 C 178.76 257.16 194.04 257.25 209.31 257.13 C 209.51 256.91 209.90 256.47 210.10 256.24 C 210.24 240.89 210.14 225.52 210.14 210.16 C 241.26 210.15 272.39 210.19 303.51 210.14 C 303.64 179.01 303.53 147.88 303.56 116.75 Z" />
</svg>
