<?xml version="1.0" encoding="UTF-8" ?>
<!DOCTYPE svg PUBLIC "-//W3C//DTD SVG 1.1//EN" "http://www.w3.org/Graphics/SVG/1.1/DTD/svg11.dtd">
<svg width="512pt" height="512pt" viewBox="0 0 512 512" version="1.1" xmlns="http://www.w3.org/2000/svg">
<path fill="#df0024" opacity="1.00" d=" M 0.00 0.00 L 512.00 0.00 L 512.00 512.00 L 0.00 512.00 L 0.00 0.00 Z" />
<path fill="#ffffff" opacity="1.00" d=" M 238.45 114.78 C 253.39 113.04 268.62 113.42 283.40 116.36 C 312.16 121.84 339.03 136.62 359.18 157.86 C 379.07 178.56 392.42 205.45 396.81 233.83 C 400.23 255.29 398.66 277.55 392.22 298.31 C 384.28 324.15 368.72 347.59 348.04 364.98 C 328.49 381.57 304.36 392.70 279.04 396.75 C 253.72 400.87 227.28 398.05 203.45 388.51 C 175.92 377.64 152.09 357.83 136.14 332.92 C 121.32 309.85 113.39 282.41 113.73 254.98 C 113.84 226.81 122.70 198.79 138.67 175.59 C 161.28 142.35 198.51 119.61 238.45 114.78 Z" />
<path fill="#df0024" opacity="1.00" d=" M 254.02 153.71 C 276.24 153.40 298.57 160.26 316.48 173.50 C 339.14 189.90 354.62 215.99 357.73 243.83 C 361.61 273.75 351.22 305.24 330.09 326.81 C 329.26 323.38 326.94 320.07 327.55 316.46 C 329.32 311.33 331.93 306.47 335.04 302.03 C 338.11 297.44 345.14 297.63 347.50 292.34 C 350.18 285.95 350.03 278.62 348.76 271.92 C 347.75 266.49 343.05 263.15 339.01 259.94 C 332.95 254.62 326.04 250.39 319.89 245.20 C 315.30 241.73 314.38 235.67 312.56 230.58 C 310.91 226.58 312.11 222.27 311.64 218.14 C 311.02 215.57 307.41 216.51 306.81 218.69 C 304.26 224.64 301.84 230.81 301.02 237.28 C 300.35 241.42 302.78 245.07 304.24 248.75 C 306.64 254.78 310.03 260.38 312.19 266.51 C 312.72 268.26 313.50 270.59 311.99 272.08 C 309.61 274.34 307.13 276.51 305.10 279.12 C 301.03 284.09 294.80 286.29 289.34 289.26 C 284.75 294.08 279.41 299.27 278.94 306.33 C 278.54 314.08 281.13 322.70 287.90 327.16 C 292.66 330.82 299.70 334.26 299.74 341.13 C 298.64 345.68 296.51 351.13 291.48 352.42 C 291.67 349.00 292.15 345.54 291.61 342.13 C 290.29 338.30 287.39 335.25 284.47 332.55 C 277.12 326.65 266.29 325.44 260.95 317.04 C 258.07 312.94 260.39 308.07 262.19 304.08 C 264.56 298.52 269.36 294.67 273.20 290.19 C 277.58 285.21 282.04 280.28 286.07 275.00 C 290.37 269.43 292.70 262.65 294.44 255.91 C 294.93 252.30 294.61 248.63 294.76 245.00 C 295.16 240.88 291.65 238.05 290.46 234.41 C 289.25 230.92 288.30 227.15 285.58 224.48 C 281.43 220.41 276.06 217.89 270.87 215.42 C 267.53 213.66 263.73 214.00 260.12 213.55 C 257.56 212.52 254.93 211.00 253.51 208.56 C 252.81 205.74 253.17 202.70 253.89 199.91 C 255.30 196.58 258.22 194.06 259.21 190.51 C 260.93 184.49 262.25 178.17 261.64 171.89 C 260.57 165.33 257.47 159.31 254.02 153.71 Z" />
<path fill="#df0024" opacity="1.00" d=" M 215.19 162.36 C 225.10 157.94 235.75 155.33 246.53 154.23 C 246.70 158.12 248.07 162.16 246.55 165.95 C 245.21 169.62 244.37 173.68 241.69 176.66 C 231.53 186.97 223.24 199.23 217.91 212.71 C 215.03 219.77 212.31 227.29 213.10 235.05 C 213.51 239.31 213.64 244.07 216.59 247.49 C 220.04 251.55 224.96 253.88 229.44 256.62 C 236.59 260.95 244.86 263.32 251.55 268.42 C 256.14 272.12 255.61 278.75 254.53 283.94 C 253.97 288.66 250.13 291.82 247.51 295.47 C 242.60 302.34 236.09 307.81 230.57 314.16 C 231.28 309.79 230.31 305.42 229.53 301.14 C 228.87 296.40 224.59 293.69 221.57 290.47 C 218.55 287.34 214.03 286.18 211.28 282.75 C 208.06 278.90 204.71 274.85 203.19 269.99 C 204.63 258.80 208.53 248.09 210.30 236.95 C 210.59 234.46 210.69 231.71 209.20 229.55 C 206.31 225.42 206.14 219.95 202.87 216.03 C 200.94 214.07 197.23 215.25 196.92 218.07 C 196.56 222.59 197.57 227.12 198.01 231.62 C 198.50 233.94 197.49 236.24 196.28 238.17 C 192.93 243.37 189.26 248.55 184.18 252.20 C 177.94 256.78 172.72 263.17 170.78 270.77 C 169.81 275.47 170.05 280.33 170.36 285.09 C 171.21 297.14 181.09 306.07 182.75 317.92 C 183.17 320.53 182.22 323.04 181.01 325.30 C 170.51 314.72 163.14 301.21 158.56 287.08 C 151.14 263.98 152.37 238.27 162.00 215.99 C 172.07 192.23 191.51 172.62 215.19 162.36 Z" />
<path fill="#df0024" opacity="1.00" d=" M 211.69 335.59 C 214.23 332.46 217.87 330.47 221.09 328.11 C 217.77 334.95 215.58 342.32 215.38 349.97 C 214.96 349.84 214.13 349.60 213.71 349.47 C 211.43 345.38 209.07 340.04 211.69 335.59 Z" />
</svg>
