<?xml version="1.0" encoding="UTF-8" ?>
<!DOCTYPE svg PUBLIC "-//W3C//DTD SVG 1.1//EN" "http://www.w3.org/Graphics/SVG/1.1/DTD/svg11.dtd">
<svg width="512pt" height="512pt" viewBox="0 0 512 512" version="1.1" xmlns="http://www.w3.org/2000/svg">
<path fill="#2e3192" opacity="1.00" d=" M 0.00 0.00 L 512.00 0.00 L 512.00 512.00 L 0.00 512.00 L 0.00 0.00 Z" />
<path fill="#ffffff" opacity="1.00" d=" M 236.12 137.88 C 249.71 137.87 263.29 137.86 276.87 137.89 C 309.01 208.39 341.28 278.82 373.48 349.29 C 374.29 350.73 374.13 352.40 374.15 353.99 C 374.10 361.04 374.12 368.09 374.14 375.14 C 359.82 375.10 345.50 375.16 331.18 375.11 C 318.57 348.05 305.41 321.23 292.62 294.25 C 280.51 269.17 268.66 243.97 256.46 218.95 C 249.05 234.75 240.63 250.08 232.93 265.74 C 222.05 286.73 211.50 307.88 200.65 328.88 C 220.33 328.91 240.00 328.79 259.67 328.94 C 259.45 344.37 259.86 359.81 259.47 375.23 C 218.94 375.00 178.40 375.17 137.86 375.14 C 137.88 368.09 137.89 361.05 137.85 354.00 C 137.83 352.57 137.85 351.10 138.51 349.80 C 171.03 279.15 203.65 208.55 236.12 137.88 Z" />
</svg>
