<?xml version="1.0" encoding="UTF-8" ?>
<!DOCTYPE svg PUBLIC "-//W3C//DTD SVG 1.1//EN" "http://www.w3.org/Graphics/SVG/1.1/DTD/svg11.dtd">
<svg width="512pt" height="512pt" viewBox="0 0 512 512" version="1.1" xmlns="http://www.w3.org/2000/svg">
<path fill="#14429c" opacity="1.00" d=" M 0.00 0.00 L 512.00 0.00 L 512.00 512.00 L 0.00 512.00 L 0.00 0.00 Z" />
<path fill="#ffffff" opacity="1.00" d=" M 252.57 129.41 C 263.53 129.48 274.48 129.34 285.43 129.50 C 308.13 130.58 330.51 139.30 347.60 154.37 C 368.34 172.13 381.19 198.67 382.46 225.93 C 382.62 239.17 382.46 252.42 382.55 265.66 C 366.80 265.56 351.04 265.62 335.29 265.63 C 334.90 251.74 336.73 237.54 332.95 223.96 C 327.58 204.09 312.10 187.38 292.83 180.22 C 280.00 175.28 266.08 176.26 252.62 176.25 C 252.58 160.64 252.67 145.03 252.57 129.41 Z" />
<path fill="#ffffff" opacity="1.00" d=" M 155.34 163.36 C 173.11 143.29 199.10 130.88 225.86 129.54 C 225.68 145.81 225.83 162.09 225.78 178.36 C 208.21 182.40 193.00 194.84 184.49 210.61 C 179.34 219.86 177.02 230.44 176.68 240.95 C 176.68 249.97 176.70 258.99 176.67 268.01 C 176.57 282.13 180.71 296.38 189.21 307.75 C 200.58 323.61 219.42 333.91 238.95 334.52 C 250.30 334.53 261.65 334.52 273.01 334.52 C 290.65 333.99 307.78 325.60 319.27 312.25 C 325.34 305.41 329.61 297.20 332.67 288.63 C 349.25 288.75 365.84 288.68 382.42 288.67 C 380.51 306.84 374.38 324.72 363.53 339.52 C 344.76 366.06 312.51 382.53 279.99 381.80 C 263.64 381.81 247.30 381.86 230.95 381.78 C 197.33 382.25 164.33 364.14 146.08 335.97 C 136.12 320.87 130.46 303.02 129.56 284.98 C 129.46 265.98 129.51 246.99 129.53 227.99 C 130.23 204.32 139.43 180.95 155.34 163.36 Z" />
</svg>
