<?xml version="1.0" encoding="UTF-8" ?>
<!DOCTYPE svg PUBLIC "-//W3C//DTD SVG 1.1//EN" "http://www.w3.org/Graphics/SVG/1.1/DTD/svg11.dtd">
<svg width="512pt" height="512pt" viewBox="0 0 512 512" version="1.1" xmlns="http://www.w3.org/2000/svg">
<path fill="#04aeda" opacity="1.00" d=" M 0.00 0.00 L 512.00 0.00 L 512.00 512.00 L 0.00 512.00 L 0.00 0.00 Z" />
<path fill="#ffffff" opacity="1.00" d=" M 164.72 131.06 C 164.48 126.63 168.46 122.35 172.91 122.47 C 237.61 122.46 302.31 122.47 367.01 122.47 C 370.26 122.20 373.23 124.40 374.70 127.18 C 376.24 130.21 375.74 133.72 375.83 137.00 C 375.79 183.69 375.80 230.38 375.82 277.07 C 375.76 292.03 374.96 308.67 364.44 320.42 C 347.11 339.39 329.35 357.99 310.97 375.95 C 306.76 379.72 302.79 384.02 297.51 386.30 C 293.26 388.19 288.73 389.81 284.02 389.70 C 247.70 389.66 211.39 389.78 175.07 389.77 C 170.23 390.59 164.95 387.04 164.76 381.96 C 164.61 365.51 164.83 349.06 164.66 332.61 C 170.26 328.92 176.08 325.57 181.68 321.88 C 181.99 338.70 181.70 355.53 181.83 372.36 C 213.89 372.50 245.96 372.36 278.02 372.43 C 284.55 372.65 290.08 367.42 292.25 361.61 C 295.99 351.86 295.59 341.28 296.20 331.05 C 295.75 326.39 295.63 321.70 295.72 317.02 C 295.68 312.66 299.65 308.83 303.98 308.83 C 319.32 308.38 335.54 309.64 349.77 302.78 C 355.59 299.90 358.15 293.20 358.18 287.02 C 358.21 237.92 358.20 188.82 358.19 139.72 C 300.10 139.66 242.01 139.72 183.93 139.69 C 181.88 139.14 181.65 141.64 181.78 143.01 C 181.78 172.81 181.92 202.62 181.72 232.43 C 175.97 235.79 170.34 239.34 164.71 242.87 C 164.73 205.60 164.70 168.33 164.72 131.06 Z" />
<path fill="#ffffff" opacity="1.00" d=" M 276.15 201.91 C 284.41 201.19 292.72 200.91 301.00 201.26 C 303.73 201.09 302.97 204.74 302.27 206.32 C 298.94 212.83 295.21 219.14 292.01 225.72 C 281.94 222.71 276.63 211.85 276.15 201.91 Z" />
<path fill="#ffffff" opacity="1.00" d=" M 245.42 207.56 C 247.89 205.95 250.39 204.36 253.10 203.17 C 253.24 207.87 253.92 212.52 254.60 217.17 C 258.54 219.67 262.50 222.17 266.56 224.48 C 267.12 229.03 267.55 233.61 267.68 238.20 C 271.63 241.19 276.15 243.40 279.82 246.76 C 230.96 277.03 182.03 307.18 133.14 337.41 C 121.77 334.37 111.52 326.22 107.43 314.99 C 104.69 308.73 105.02 301.73 105.52 295.07 C 105.50 293.88 106.68 293.32 107.50 292.73 C 153.50 264.37 199.44 235.93 245.42 207.56 Z" />
</svg>
