<?xml version="1.0" encoding="UTF-8" ?>
<!DOCTYPE svg PUBLIC "-//W3C//DTD SVG 1.1//EN" "http://www.w3.org/Graphics/SVG/1.1/DTD/svg11.dtd">
<svg width="512pt" height="512pt" viewBox="0 0 512 512" version="1.1" xmlns="http://www.w3.org/2000/svg">
<path fill="#006010" opacity="1.00" d=" M 0.00 0.00 L 512.00 0.00 L 512.00 512.00 L 0.00 512.00 L 0.00 0.00 Z" />
<path fill="#ffffff" opacity="1.00" d=" M 160.68 148.48 C 168.80 147.86 177.22 147.86 184.93 150.86 C 193.19 153.49 200.23 158.67 206.83 164.11 C 204.76 158.79 202.30 153.41 202.79 147.53 C 217.04 149.41 230.02 156.99 239.62 167.55 C 246.32 167.27 254.11 167.70 258.91 173.04 C 265.09 180.13 270.58 188.38 272.17 197.82 C 273.24 204.71 269.15 211.74 262.88 214.63 C 250.21 221.08 235.62 218.38 222.08 217.46 C 221.41 219.81 219.55 221.68 217.14 222.19 C 212.94 223.05 208.62 222.95 204.36 222.98 C 206.45 227.49 210.68 230.35 214.97 232.53 C 217.73 232.33 220.82 231.99 223.16 233.83 C 227.03 236.60 228.06 241.48 229.75 245.63 C 235.49 248.73 237.68 255.22 239.59 261.04 C 245.72 281.24 249.45 302.38 259.18 321.30 C 262.83 315.48 262.60 308.33 263.12 301.72 C 262.81 288.15 262.31 274.57 261.60 261.00 C 261.77 254.27 261.58 247.01 264.88 240.92 C 266.86 237.04 272.91 237.36 274.85 241.12 C 278.69 248.01 278.57 256.26 278.56 263.92 C 278.71 272.88 277.36 281.75 276.08 290.58 C 274.11 302.11 271.46 313.57 267.35 324.54 C 265.38 329.54 263.16 334.56 259.73 338.75 C 258.11 340.69 255.72 342.53 253.02 341.75 C 249.69 339.44 247.54 335.86 245.48 332.46 C 238.15 319.34 232.60 305.30 227.85 291.07 C 225.36 282.28 221.80 273.43 222.44 264.15 C 213.55 274.22 207.16 286.15 200.60 297.79 C 206.77 307.17 208.72 318.98 207.09 329.98 C 203.66 345.46 187.32 355.30 172.08 354.85 C 169.44 358.31 167.12 362.53 162.89 364.25 C 161.24 364.99 159.93 363.72 158.70 362.85 C 158.20 359.10 158.87 355.36 160.45 351.94 C 154.33 348.42 150.18 342.56 145.42 337.52 C 118.57 305.58 102.43 263.95 103.81 222.01 C 104.64 205.32 108.59 188.26 118.29 174.39 C 128.34 160.73 143.80 150.88 160.68 148.48 Z" />
<path fill="#006010" opacity="1.00" d=" M 227.72 170.89 C 236.28 169.32 244.53 178.36 241.84 186.75 C 240.12 194.21 230.89 198.55 224.08 194.94 C 216.80 191.88 214.87 181.55 219.64 175.59 C 221.59 173.04 224.61 171.48 227.72 170.89 Z" />
<path fill="#ffffff" opacity="1.00" d=" M 230.16 180.15 C 234.80 177.17 241.23 183.03 238.73 187.89 C 237.20 192.02 231.07 193.16 228.39 189.55 C 225.64 186.77 226.78 181.86 230.16 180.15 Z" />
<path fill="#006010" opacity="1.00" d=" M 162.84 260.86 C 168.01 254.71 173.61 248.95 179.08 243.08 C 179.61 248.01 182.60 252.75 187.47 254.34 C 190.24 255.74 192.53 253.10 194.52 251.56 C 197.73 248.81 201.63 245.70 206.17 246.72 C 210.13 248.07 213.44 250.76 216.92 253.00 C 208.40 265.14 202.45 278.83 194.81 291.51 C 189.85 288.53 183.89 286.74 178.13 288.25 C 169.17 289.62 162.21 297.27 160.30 305.92 C 158.98 311.90 158.21 318.75 161.62 324.20 C 163.65 327.61 166.68 330.26 169.84 332.61 C 168.25 335.25 166.75 337.95 165.24 340.63 C 163.80 339.45 162.28 338.34 161.07 336.92 C 152.29 325.52 145.09 311.77 145.70 297.00 C 146.48 283.25 154.05 271.02 162.84 260.86 Z" />
<path fill="#ffffff" opacity="1.00" d=" M 306.73 279.56 C 311.02 279.53 315.32 279.54 319.61 279.53 C 319.62 286.74 319.56 293.95 319.64 301.17 C 326.90 301.17 334.15 301.18 341.41 301.16 C 341.40 305.48 341.42 309.80 341.38 314.12 C 334.14 314.09 326.90 314.07 319.66 313.89 C 319.55 321.16 319.60 328.43 319.64 335.71 C 315.33 335.70 311.02 335.72 306.72 335.67 C 306.77 328.49 306.71 321.30 306.76 314.12 C 299.59 314.06 292.42 314.13 285.25 314.11 C 285.16 309.80 285.21 305.48 285.18 301.17 C 292.33 301.18 299.47 301.14 306.62 301.20 C 306.88 293.99 306.68 286.77 306.73 279.56 Z" />
<path fill="#ffffff" opacity="1.00" d=" M 373.76 279.54 C 378.10 279.54 382.45 279.53 386.80 279.55 C 386.69 286.60 386.89 293.66 386.68 300.72 C 393.80 301.73 401.07 300.91 408.25 301.17 C 408.25 305.40 408.22 309.63 408.30 313.87 C 401.12 314.55 393.90 313.70 386.72 314.18 C 386.85 321.35 386.71 328.52 386.80 335.70 C 382.45 335.71 378.10 335.70 373.76 335.71 C 373.76 328.48 373.78 321.25 373.75 314.02 C 366.59 314.21 359.43 314.02 352.27 314.11 C 352.19 309.79 352.23 305.48 352.21 301.17 C 359.36 301.18 366.52 301.15 373.68 301.19 C 373.86 293.97 373.72 286.75 373.76 279.54 Z" />
<path fill="#006010" opacity="1.00" d=" M 175.49 300.41 C 179.43 297.25 184.83 298.21 189.10 300.12 C 188.21 302.30 186.98 304.31 185.63 306.23 C 180.57 306.67 178.73 312.02 177.31 316.07 C 178.87 314.80 180.44 313.53 182.00 312.27 C 179.19 316.56 176.53 320.95 173.93 325.37 C 167.56 318.49 167.89 306.23 175.49 300.41 Z" />
<path fill="#006010" opacity="1.00" d=" M 194.89 309.16 C 195.17 309.21 195.74 309.29 196.02 309.33 C 197.58 315.41 199.46 322.04 197.18 328.19 C 194.12 336.16 186.76 342.35 178.34 343.88 C 180.83 340.26 181.19 334.56 185.82 332.93 C 193.16 329.24 198.80 319.30 193.85 311.64 C 194.11 311.02 194.63 309.78 194.89 309.16 Z" />
</svg>
