<?xml version="1.0" encoding="UTF-8" ?>
<!DOCTYPE svg PUBLIC "-//W3C//DTD SVG 1.1//EN" "http://www.w3.org/Graphics/SVG/1.1/DTD/svg11.dtd">
<svg width="512pt" height="512pt" viewBox="0 0 512 512" version="1.1" xmlns="http://www.w3.org/2000/svg">
<path fill="#0294e2" opacity="1.00" d=" M 0.00 0.00 L 512.00 0.00 L 512.00 512.00 L 0.00 512.00 L 0.00 0.00 Z" />
<path fill="#ffffff" opacity="1.00" d=" M 256.67 123.91 C 256.83 120.20 260.63 118.08 263.96 117.83 C 269.34 118.46 274.54 120.75 278.54 124.42 C 287.97 133.81 295.96 144.55 303.05 155.79 C 304.73 158.61 307.15 161.47 306.61 165.00 C 306.07 172.32 308.55 179.99 313.83 185.19 C 315.43 186.91 317.51 188.34 318.38 190.62 C 321.00 196.80 322.46 203.38 323.66 209.96 C 318.44 214.78 314.14 220.84 312.52 227.85 C 309.63 237.92 312.24 249.17 318.66 257.34 C 317.45 262.37 314.99 266.95 312.80 271.59 C 302.39 273.29 292.36 278.27 285.60 286.51 C 278.87 294.50 275.34 304.99 275.62 315.41 C 268.04 321.46 259.34 326.02 250.35 329.57 C 240.86 332.64 231.01 335.36 220.94 334.73 C 210.31 335.37 199.73 332.56 190.29 327.80 C 178.25 321.54 169.84 310.16 164.09 298.15 C 153.10 273.43 152.14 243.68 164.28 219.19 C 170.96 205.06 180.35 192.37 190.78 180.78 C 196.30 175.28 201.27 169.22 207.36 164.34 C 215.45 157.52 223.97 150.94 233.75 146.74 C 239.00 144.57 245.32 143.44 250.53 146.32 C 256.76 149.32 262.55 155.72 261.70 163.07 C 261.44 166.31 259.59 169.13 257.86 171.78 C 249.90 183.40 238.38 191.77 228.08 201.14 C 215.10 213.46 206.69 230.31 204.10 247.99 C 202.93 256.03 203.52 264.58 207.27 271.92 C 208.52 274.02 210.29 275.85 212.35 277.17 C 220.07 280.54 228.60 283.00 237.08 281.61 C 247.62 280.49 256.65 274.24 264.64 267.72 C 271.74 260.53 277.65 252.21 282.47 243.34 C 289.34 231.01 295.37 217.37 294.67 202.95 C 295.25 189.36 290.34 176.06 283.15 164.72 C 276.38 153.52 266.94 144.33 258.37 134.57 C 256.01 131.55 256.48 127.48 256.67 123.91 Z" />
<path fill="#ffffff" opacity="1.00" d=" M 327.65 145.87 C 332.38 144.93 337.49 144.97 341.98 146.90 C 350.21 150.35 356.27 158.98 355.68 168.04 C 355.73 179.49 345.30 189.51 333.95 189.56 C 323.13 190.12 312.82 181.61 311.10 170.96 C 308.97 159.97 316.91 148.48 327.65 145.87 Z" />
<path fill="#ffffff" opacity="1.00" d=" M 339.16 207.17 C 354.38 203.36 371.11 213.87 374.57 229.10 C 379.07 244.86 367.88 262.53 351.89 265.62 C 336.50 269.42 319.58 258.58 316.43 243.09 C 312.26 227.53 323.41 210.19 339.16 207.17 Z" />
<path fill="#ffffff" opacity="1.00" d=" M 314.06 275.87 C 323.65 274.89 333.58 277.78 341.15 283.76 C 350.64 291.02 356.30 303.02 355.67 314.98 C 355.47 330.37 344.61 344.76 330.04 349.52 C 320.47 352.75 309.60 352.04 300.62 347.38 C 289.23 341.58 281.04 329.76 280.13 316.94 C 278.43 301.33 287.83 285.52 302.09 279.15 C 305.87 277.42 309.94 276.39 314.06 275.87 Z" />
<path fill="#ffffff" opacity="1.00" d=" M 82.96 394.35 C 88.43 372.16 93.98 349.99 99.58 327.84 C 124.84 327.84 150.09 327.89 175.34 327.81 C 182.81 333.88 191.50 338.46 200.88 340.72 C 209.74 342.71 218.89 344.29 227.98 343.07 C 232.29 342.40 236.62 341.78 240.92 341.00 C 251.84 338.48 262.19 333.96 271.98 328.56 C 272.48 328.85 273.49 329.42 274.00 329.70 C 276.30 336.21 280.45 341.89 285.00 347.01 C 292.00 353.29 300.55 358.47 310.10 359.36 C 321.73 360.91 334.14 358.79 343.70 351.69 C 352.23 346.12 357.89 337.15 361.43 327.77 C 378.41 327.92 395.40 327.86 412.38 327.80 C 418.10 349.94 423.58 372.15 429.05 394.35 C 313.69 394.42 198.32 394.41 82.96 394.35 Z" />
<path fill="#0294e2" opacity="1.00" d=" M 180.66 362.06 C 184.66 361.35 189.73 362.39 191.76 366.29 C 193.81 370.29 193.77 375.19 192.14 379.33 C 189.01 387.02 175.58 387.32 172.87 379.16 C 171.97 376.00 172.01 372.59 172.62 369.38 C 173.46 365.56 176.79 362.57 180.66 362.06 Z" />
<path fill="#0294e2" opacity="1.00" d=" M 196.93 361.69 C 197.49 359.76 199.79 360.91 201.21 360.60 C 201.22 363.64 201.21 366.68 201.12 369.73 C 203.68 367.95 207.33 366.61 209.92 369.11 C 213.05 372.72 213.24 378.59 210.65 382.55 C 208.46 385.93 203.33 385.54 200.82 382.73 C 200.59 384.96 198.53 384.72 196.81 384.81 C 196.91 377.10 196.59 369.39 196.93 361.69 Z" />
<path fill="#0294e2" opacity="1.00" d=" M 216.27 361.41 C 217.76 361.38 219.24 361.38 220.73 361.40 C 220.70 362.76 220.66 364.13 220.62 365.50 C 219.19 365.52 217.77 365.53 216.35 365.53 C 216.33 364.15 216.31 362.78 216.27 361.41 Z" />
<path fill="#0294e2" opacity="1.00" d=" M 326.79 360.74 C 327.80 360.70 329.84 360.62 330.86 360.58 C 330.92 365.41 330.86 370.25 330.92 375.09 C 332.85 372.88 334.59 370.53 336.34 368.18 C 337.90 368.21 339.46 368.27 341.03 368.36 C 339.29 370.68 337.37 372.86 335.43 375.02 C 337.56 378.13 339.64 381.29 341.42 384.62 C 339.86 384.64 338.31 384.66 336.76 384.66 C 334.97 381.67 333.15 378.68 330.95 375.96 C 330.88 378.88 330.89 381.80 330.88 384.73 C 329.85 384.69 327.80 384.62 326.77 384.59 C 326.79 376.64 326.77 368.69 326.79 360.74 Z" />
<path fill="#0294e2" opacity="1.00" d=" M 270.66 362.49 C 274.73 362.29 278.96 361.85 282.92 363.05 C 291.83 366.13 291.35 381.68 282.22 384.10 C 278.43 384.99 274.50 384.71 270.66 384.48 C 270.58 377.15 270.57 369.82 270.66 362.49 Z" />
<path fill="#0294e2" opacity="1.00" d=" M 258.75 364.55 C 259.31 364.32 260.45 363.87 261.02 363.65 C 261.57 363.87 262.67 364.32 263.22 364.54 C 263.23 365.74 263.24 366.94 263.26 368.15 C 264.24 368.18 266.20 368.24 267.17 368.27 C 267.17 369.06 267.17 370.66 267.17 371.45 C 265.83 371.48 264.50 371.52 263.17 371.55 C 263.17 374.79 263.19 378.03 263.49 381.26 C 264.60 381.90 268.22 380.45 267.23 382.91 C 267.79 384.90 265.21 384.78 264.02 384.93 C 262.44 384.96 260.51 384.76 259.75 383.13 C 258.12 379.64 258.92 375.63 258.77 371.90 C 255.67 372.14 255.43 367.52 258.70 367.74 C 258.71 366.67 258.73 365.61 258.75 364.55 Z" />
<path fill="#ffffff" opacity="1.00" d=" M 179.46 366.44 C 182.24 364.48 187.12 365.51 188.03 369.08 C 188.82 372.40 189.04 376.28 187.15 379.30 C 184.95 382.57 179.00 382.27 177.57 378.41 C 176.28 374.58 176.00 369.23 179.46 366.44 Z" />
<path fill="#ffffff" opacity="1.00" d=" M 275.17 365.50 C 277.83 365.86 281.26 365.45 283.00 367.96 C 285.16 371.14 285.29 375.84 283.05 379.01 C 281.23 381.46 277.91 381.24 275.21 381.42 C 275.15 376.11 275.17 370.81 275.17 365.50 Z" />
<path fill="#0294e2" opacity="1.00" d=" M 216.44 368.22 C 217.82 368.21 219.21 368.20 220.60 368.21 C 220.62 373.14 220.63 378.07 220.64 383.00 C 220.57 385.17 220.78 387.62 219.32 389.43 C 218.02 391.37 215.34 390.57 213.38 390.89 C 213.32 389.82 213.28 388.76 213.24 387.69 C 213.99 387.58 215.49 387.35 216.24 387.24 C 216.57 380.90 216.33 374.56 216.44 368.22 Z" />
<path fill="#0294e2" opacity="1.00" d=" M 225.74 370.87 C 228.23 367.19 234.08 366.61 237.31 369.62 C 239.36 371.61 239.13 374.70 239.47 377.32 C 235.69 377.48 231.91 377.42 228.13 377.49 C 228.80 378.82 229.06 380.56 230.39 381.43 C 233.06 382.30 235.89 381.42 238.58 381.05 C 238.52 381.84 238.40 383.40 238.34 384.18 C 234.20 385.15 228.78 386.19 225.74 382.38 C 223.65 379.02 223.67 374.22 225.74 370.87 Z" />
<path fill="#0294e2" opacity="1.00" d=" M 244.72 369.74 C 247.20 367.31 251.27 367.11 254.17 368.92 C 254.71 370.12 254.62 371.49 254.82 372.79 C 252.68 372.00 250.21 370.35 248.00 371.89 C 246.05 374.65 245.82 379.32 248.86 381.42 C 251.05 381.97 252.97 380.59 254.92 379.84 C 254.81 381.11 254.63 382.38 254.39 383.64 C 250.77 386.31 244.68 385.39 242.97 380.93 C 241.83 377.28 241.85 372.61 244.72 369.74 Z" />
<path fill="#0294e2" opacity="1.00" d=" M 296.32 368.50 C 300.04 366.86 305.30 367.57 307.36 371.43 C 309.07 375.07 308.75 379.93 305.94 382.96 C 302.13 386.42 294.44 385.93 292.49 380.66 C 290.91 376.51 291.85 370.43 296.32 368.50 Z" />
<path fill="#0294e2" opacity="1.00" d=" M 311.11 377.06 C 310.79 373.50 312.29 369.23 316.04 368.16 C 318.44 367.12 320.94 368.21 323.29 368.81 C 323.35 369.78 323.46 371.72 323.52 372.68 C 321.23 371.75 317.50 369.90 316.01 373.01 C 315.07 375.55 314.84 379.10 317.06 381.08 C 319.22 382.33 321.47 380.66 323.54 380.00 C 323.55 381.16 323.56 382.32 323.58 383.48 C 321.25 384.47 318.69 385.84 316.12 384.81 C 312.66 384.07 310.88 380.36 311.11 377.06 Z" />
<path fill="#ffffff" opacity="1.00" d=" M 230.94 370.81 C 232.14 370.51 233.30 371.20 234.47 371.40 C 234.75 372.50 235.05 373.60 235.34 374.70 C 232.94 374.70 230.55 374.69 228.16 374.61 C 228.94 373.26 229.39 371.50 230.94 370.81 Z" />
<path fill="#ffffff" opacity="1.00" d=" M 203.56 371.55 C 205.22 370.84 207.04 371.70 207.48 373.47 C 208.09 376.08 208.27 379.43 205.97 381.32 C 200.43 382.93 199.24 373.49 203.56 371.55 Z" />
<path fill="#ffffff" opacity="1.00" d=" M 298.37 371.47 C 300.01 370.81 302.47 370.98 303.29 372.82 C 304.07 374.97 304.01 377.42 303.42 379.62 C 302.20 382.74 297.05 382.23 296.51 378.92 C 296.16 376.41 295.81 372.98 298.37 371.47 Z" />
</svg>
