<?xml version="1.0" encoding="UTF-8" ?>
<!DOCTYPE svg PUBLIC "-//W3C//DTD SVG 1.1//EN" "http://www.w3.org/Graphics/SVG/1.1/DTD/svg11.dtd">
<svg width="512pt" height="512pt" viewBox="0 0 512 512" version="1.1" xmlns="http://www.w3.org/2000/svg">
<path fill="#ef9c00" opacity="1.00" d=" M 0.00 0.00 L 512.00 0.00 L 512.00 512.00 L 0.00 512.00 L 0.00 0.00 Z" />
<path fill="#ffffff" opacity="1.00" d=" M 133.06 115.98 C 172.75 108.44 212.41 100.70 252.07 92.98 C 254.71 92.39 257.45 92.53 260.08 93.13 C 301.91 101.30 343.77 109.38 385.62 117.41 C 385.46 176.23 385.65 235.05 385.52 293.86 C 383.71 307.97 377.85 321.31 370.26 333.25 C 357.66 352.86 340.10 368.67 321.44 382.39 C 301.66 396.39 280.37 408.23 258.15 417.90 C 256.81 418.60 255.23 418.97 253.84 418.17 C 232.85 409.14 212.75 398.05 193.87 385.19 C 173.77 370.99 154.81 354.42 141.33 333.62 C 133.45 321.35 127.42 307.55 125.73 292.98 C 125.64 234.51 125.83 176.03 125.63 117.56 C 127.99 116.58 130.57 116.44 133.06 115.98 Z" />
<path fill="#ef9c00" opacity="1.00" d=" M 235.19 173.36 C 248.43 173.36 261.67 173.34 274.91 173.37 C 273.57 212.99 271.88 252.59 270.29 292.19 C 260.02 292.08 249.74 292.36 239.47 292.05 C 238.26 252.48 236.35 212.93 235.19 173.36 Z" />
<path fill="#ef9c00" opacity="1.00" d=" M 254.00 308.80 C 260.19 308.61 266.77 310.26 271.30 314.70 C 276.29 319.18 278.22 326.50 276.70 332.95 C 275.33 340.61 268.57 346.55 261.07 347.96 C 254.03 349.28 246.06 348.37 240.46 343.55 C 234.83 339.22 232.20 331.85 233.49 324.91 C 234.96 315.27 244.74 309.05 254.00 308.80 Z" />
</svg>
