<?xml version="1.0" encoding="UTF-8" ?>
<!DOCTYPE svg PUBLIC "-//W3C//DTD SVG 1.1//EN" "http://www.w3.org/Graphics/SVG/1.1/DTD/svg11.dtd">
<svg width="512pt" height="512pt" viewBox="0 0 512 512" version="1.1" xmlns="http://www.w3.org/2000/svg">
<path fill="#00a8ec" opacity="1.00" d=" M 0.00 0.00 L 512.00 0.00 L 512.00 512.00 L 0.00 512.00 L 0.00 0.00 Z" />
<path fill="#ffffff" opacity="1.00" d=" M 183.56 167.45 C 213.05 156.75 244.92 153.23 276.10 155.85 C 303.18 158.27 330.21 165.28 353.95 178.79 C 305.83 227.73 258.23 277.18 210.19 326.20 C 205.39 330.47 204.26 337.11 201.32 342.57 C 175.59 335.39 150.18 324.08 131.19 304.82 C 120.00 293.36 111.09 278.99 108.61 262.96 C 104.73 243.02 112.13 222.26 124.78 206.83 C 139.98 188.29 161.29 175.70 183.56 167.45 Z" />
<path fill="#00a8ec" opacity="1.00" d=" M 280.45 164.69 C 284.69 162.87 289.48 162.83 293.98 163.50 C 304.65 165.48 312.74 176.21 311.71 187.03 C 311.27 198.50 300.55 208.66 288.98 207.84 C 277.12 208.47 266.63 197.63 266.49 185.97 C 266.30 176.92 272.08 168.12 280.45 164.69 Z" />
<path fill="#00a8ec" opacity="1.00" d=" M 227.57 166.83 C 235.80 166.11 244.30 170.31 248.65 177.36 C 254.40 186.35 252.66 199.48 244.39 206.37 C 237.71 212.34 227.38 213.53 219.41 209.56 C 210.50 205.24 205.17 194.63 207.36 184.92 C 209.11 175.26 217.86 167.67 227.57 166.83 Z" />
<path fill="#ffffff" opacity="1.00" d=" M 363.15 175.12 C 366.11 172.27 368.74 168.46 373.02 167.60 C 379.03 166.30 385.22 171.87 384.68 177.96 C 384.46 181.75 381.58 184.51 379.08 187.05 C 331.84 235.51 284.70 284.07 237.41 332.47 C 232.85 327.79 228.15 323.22 223.37 318.76 C 269.97 270.89 316.61 223.05 363.15 175.12 Z" />
<path fill="#00a8ec" opacity="1.00" d=" M 172.50 189.62 C 177.97 188.67 183.87 189.25 188.67 192.19 C 195.82 196.35 200.60 204.62 199.77 212.97 C 199.69 226.19 185.69 236.90 172.88 233.81 C 162.71 231.92 154.65 222.36 154.68 211.99 C 154.36 201.53 162.27 191.68 172.50 189.62 Z" />
<path fill="#ffffff" opacity="1.00" d=" M 228.70 347.51 C 278.14 296.70 327.65 245.95 377.03 195.07 C 390.59 207.36 401.69 223.47 404.48 241.87 C 406.92 255.37 404.27 269.42 398.54 281.76 C 388.89 272.48 375.27 268.07 362.04 268.33 C 347.70 268.01 332.77 273.22 323.01 283.99 C 316.70 290.83 313.54 300.70 315.59 309.88 C 317.79 320.72 326.34 329.37 336.09 334.03 C 313.72 343.78 289.28 347.99 265.02 349.29 C 252.89 349.68 240.71 349.26 228.70 347.51 Z" />
<path fill="#00a8ec" opacity="1.00" d=" M 141.25 238.19 C 147.05 236.66 153.52 237.22 158.73 240.32 C 166.78 244.89 171.67 254.77 169.75 263.92 C 168.24 272.27 161.65 279.45 153.44 281.63 C 145.25 284.08 135.86 281.06 130.37 274.58 C 125.74 269.39 123.75 261.86 125.39 255.08 C 126.96 247.08 133.46 240.41 141.25 238.19 Z" />
<path fill="#00a8ec" opacity="1.00" d=" M 187.51 275.85 C 192.44 274.52 198.27 274.15 202.58 277.38 C 206.03 280.03 206.39 284.94 205.29 288.85 C 203.01 296.73 197.04 302.89 190.43 307.43 C 184.65 311.25 178.00 314.07 171.00 314.36 C 166.61 314.34 161.56 312.59 159.86 308.15 C 158.18 303.50 159.98 298.41 162.43 294.38 C 168.05 285.34 177.35 278.79 187.51 275.85 Z" />
<path fill="#ffffff" opacity="1.00" d=" M 220.28 321.81 C 225.34 326.03 229.72 330.98 234.61 335.38 C 231.79 338.28 228.97 341.17 226.08 344.00 C 221.45 339.41 216.74 334.88 212.09 330.31 C 214.85 327.51 217.59 324.69 220.28 321.81 Z" />
<path fill="#ffffff" opacity="1.00" d=" M 199.33 357.37 C 203.03 349.67 206.21 341.74 209.82 334.00 C 213.88 338.29 218.45 342.08 222.31 346.56 C 214.61 350.08 207.04 353.87 199.33 357.37 Z" />
</svg>
