<?xml version="1.0" encoding="UTF-8" ?>
<!DOCTYPE svg PUBLIC "-//W3C//DTD SVG 1.1//EN" "http://www.w3.org/Graphics/SVG/1.1/DTD/svg11.dtd">
<svg width="512pt" height="512pt" viewBox="0 0 512 512" version="1.1" xmlns="http://www.w3.org/2000/svg">
<path fill="#3a6d90" opacity="1.00" d=" M 0.00 0.00 L 512.00 0.00 L 512.00 512.00 L 0.00 512.00 L 0.00 0.00 Z" />
<path fill="#ffffff" opacity="1.00" d=" M 154.13 187.20 C 172.49 159.03 202.84 138.89 236.04 133.32 C 232.73 142.45 230.35 151.93 229.44 161.61 C 204.05 165.18 181.97 179.64 162.59 195.63 C 159.62 198.13 157.95 202.11 158.28 205.99 C 158.44 211.22 161.69 215.57 163.89 220.11 C 180.61 252.41 195.64 285.60 208.70 319.55 C 212.89 330.55 216.82 341.65 220.27 352.90 C 223.08 362.37 234.43 368.12 243.75 364.84 C 252.93 361.72 261.65 357.18 269.55 351.55 C 273.97 348.43 278.20 344.36 279.45 338.90 C 280.74 334.03 280.63 327.99 276.65 324.36 C 267.07 315.09 258.33 304.90 251.25 293.58 C 266.27 290.15 281.43 284.21 291.90 272.43 C 318.77 285.56 350.87 286.23 378.78 275.90 C 374.45 302.32 360.85 327.03 341.24 345.21 C 321.88 363.38 296.46 374.99 270.03 377.62 C 254.63 379.33 238.92 377.92 224.00 373.78 C 194.66 365.66 168.70 346.18 152.60 320.36 C 139.29 299.22 132.66 273.93 133.92 248.98 C 134.95 227.08 141.96 205.45 154.13 187.20 Z" />
<path fill="#ffffff" opacity="1.00" d=" M 226.56 166.84 C 238.90 164.57 251.73 165.85 263.63 169.69 C 276.04 174.30 285.94 184.12 292.70 195.31 C 301.99 210.60 305.02 229.70 300.22 247.00 C 297.28 258.46 290.66 269.17 280.94 276.07 C 271.61 282.98 260.40 286.86 249.12 289.17 C 246.60 289.08 245.40 292.41 246.67 294.28 C 253.77 306.97 263.68 317.83 273.95 328.02 C 277.56 332.68 275.33 339.67 271.55 343.58 C 265.28 349.77 257.35 353.96 249.44 357.65 C 244.30 359.76 238.44 362.95 232.95 360.06 C 227.57 358.18 224.47 353.00 223.49 347.63 C 208.16 300.50 187.36 255.34 164.73 211.31 C 163.06 208.32 162.26 204.26 164.28 201.25 C 166.70 198.03 170.17 195.82 173.21 193.24 C 188.96 181.05 206.69 170.37 226.56 166.84 Z" />
<path fill="#3a6d90" opacity="1.00" d=" M 212.56 219.12 C 218.51 212.68 229.56 209.30 237.11 214.84 C 241.12 223.74 245.73 232.45 251.87 240.09 C 252.10 245.95 250.54 252.09 246.52 256.51 C 243.53 259.95 239.33 261.96 235.13 263.50 C 226.10 249.54 218.33 234.73 212.56 219.12 Z" />
</svg>
