<?xml version="1.0" encoding="UTF-8" ?>
<!DOCTYPE svg PUBLIC "-//W3C//DTD SVG 1.1//EN" "http://www.w3.org/Graphics/SVG/1.1/DTD/svg11.dtd">
<svg width="512pt" height="512pt" viewBox="0 0 512 512" version="1.1" xmlns="http://www.w3.org/2000/svg">
<path fill="#0e94e6" opacity="1.00" d=" M 0.00 0.00 L 512.00 0.00 L 512.00 512.00 L 0.00 512.00 L 0.00 0.00 Z" />
<path fill="#ffffff" opacity="1.00" d=" M 226.04 138.22 C 259.77 129.56 297.13 136.28 325.48 156.60 C 350.59 174.25 368.61 201.70 374.52 231.85 C 377.07 243.38 377.00 255.27 376.45 267.01 C 374.70 286.15 368.48 304.95 358.07 321.14 C 363.12 328.26 368.53 335.13 373.52 342.28 C 373.72 354.42 373.52 366.57 373.62 378.72 C 361.90 378.66 350.18 378.74 338.46 378.67 C 331.94 372.45 325.27 366.39 318.88 360.03 C 307.21 366.67 294.75 372.08 281.56 374.81 C 258.66 379.75 234.29 378.02 212.42 369.53 C 186.98 359.81 165.08 341.19 151.38 317.66 C 139.05 296.76 133.29 272.09 134.90 247.91 C 136.44 225.51 144.18 203.54 157.29 185.28 C 173.71 162.15 198.51 145.08 226.04 138.22 Z" />
<path fill="#0e94e6" opacity="1.00" d=" M 302.86 165.85 C 304.57 163.64 307.73 164.13 310.06 164.94 C 316.79 167.64 322.22 172.89 326.24 178.83 C 328.59 182.30 330.43 186.42 329.71 190.71 C 325.52 195.42 320.88 199.74 316.38 204.17 C 328.17 217.97 335.14 235.82 335.52 253.99 C 336.03 271.69 330.38 289.53 319.70 303.68 C 308.94 318.01 293.34 328.73 275.91 333.10 C 257.59 337.86 237.57 335.82 220.63 327.32 C 203.57 318.85 189.72 304.04 182.52 286.39 C 176.07 270.86 174.77 253.27 178.83 236.96 C 183.81 216.18 197.73 197.81 216.21 187.13 C 237.08 174.91 263.72 172.93 286.02 182.41 C 291.74 177.00 297.29 171.42 302.86 165.85 Z" />
<path fill="#ffffff" opacity="1.00" d=" M 220.12 248.09 C 239.90 228.05 259.59 207.90 279.83 188.33 C 293.80 187.52 305.61 200.63 305.71 214.12 C 287.30 232.92 268.27 251.09 249.74 269.77 C 246.83 272.80 243.85 277.16 239.01 276.32 C 231.32 274.98 225.13 269.27 220.91 262.98 C 218.18 258.69 215.96 252.25 220.12 248.09 Z" />
</svg>
