<?xml version="1.0" encoding="UTF-8" ?>
<!DOCTYPE svg PUBLIC "-//W3C//DTD SVG 1.1//EN" "http://www.w3.org/Graphics/SVG/1.1/DTD/svg11.dtd">
<svg width="512pt" height="512pt" viewBox="0 0 512 512" version="1.1" xmlns="http://www.w3.org/2000/svg">
<path fill="#0d62a1" opacity="1.00" d=" M 0.00 0.00 L 512.00 0.00 L 512.00 512.00 L 0.00 512.00 L 0.00 0.00 Z" />
<path fill="#ffffff" opacity="1.00" d=" M 176.25 259.24 C 203.21 206.66 229.75 153.85 256.74 101.28 C 282.90 153.31 309.52 205.11 335.82 257.07 C 339.09 263.46 343.07 269.49 345.73 276.18 C 350.25 287.52 353.29 299.69 352.71 311.98 C 353.79 332.37 347.02 352.78 335.32 369.36 C 320.93 389.89 298.19 404.37 273.48 408.65 C 266.39 409.78 259.23 411.06 252.02 410.41 C 244.34 409.51 236.64 408.46 229.21 406.26 C 207.61 399.95 188.37 385.83 176.00 367.02 C 165.49 351.18 159.39 332.10 160.17 313.00 C 159.47 293.94 165.86 275.07 176.25 259.24 Z" />
<path fill="#0d62a1" opacity="1.00" d=" M 200.22 298.11 C 208.75 293.51 218.85 294.04 228.14 295.25 C 244.83 298.12 257.79 309.76 272.12 317.81 C 278.56 321.17 285.61 324.10 293.01 323.80 C 304.16 324.00 315.88 323.48 325.88 317.99 C 325.87 323.40 324.00 328.54 322.43 333.65 C 316.92 349.56 307.37 364.79 292.79 373.80 C 278.54 382.88 260.81 384.92 244.33 382.63 C 227.81 380.78 211.87 372.63 201.50 359.51 C 193.78 349.58 188.54 337.60 186.90 325.11 C 185.71 314.61 190.66 303.16 200.22 298.11 Z" />
</svg>
