<?xml version="1.0" encoding="UTF-8" ?>
<!DOCTYPE svg PUBLIC "-//W3C//DTD SVG 1.1//EN" "http://www.w3.org/Graphics/SVG/1.1/DTD/svg11.dtd">
<svg width="512pt" height="512pt" viewBox="0 0 512 512" version="1.1" xmlns="http://www.w3.org/2000/svg">
<path fill="#157ae7" opacity="1.00" d=" M 0.00 0.00 L 512.00 0.00 L 512.00 512.00 L 0.00 512.00 L 0.00 0.00 Z" />
<path fill="#ffffff" opacity="1.00" d=" M 172.19 162.02 C 198.16 151.85 226.13 147.31 253.95 147.14 C 275.00 146.91 296.12 149.20 316.53 154.42 C 343.52 161.41 370.37 173.47 389.23 194.62 C 394.76 201.12 398.82 208.84 401.44 216.94 C 403.43 224.45 403.22 232.39 402.38 240.05 C 399.22 255.70 388.70 268.81 376.50 278.61 C 366.81 287.56 355.48 294.41 344.41 301.45 C 311.95 321.33 279.18 340.73 245.54 358.56 C 241.30 360.44 237.44 363.20 233.02 364.63 C 230.83 365.21 229.53 362.39 230.80 360.76 C 239.05 347.52 247.23 333.97 251.97 319.00 C 252.43 317.51 252.62 315.97 252.82 314.43 C 248.65 313.61 244.38 313.91 240.16 313.65 C 220.78 312.31 201.46 309.06 182.97 303.00 C 162.29 296.17 142.06 286.12 126.74 270.33 C 116.68 259.79 108.89 245.94 109.18 231.01 C 108.69 217.49 114.86 204.59 123.48 194.49 C 136.38 179.45 153.98 169.28 172.19 162.02 Z" />
<path fill="#157ae7" opacity="1.00" d=" M 181.58 195.49 C 204.61 185.27 229.93 181.26 254.97 180.40 C 273.44 180.02 292.00 181.40 310.08 185.35 C 325.14 188.72 340.14 193.48 353.31 201.71 C 360.88 206.61 368.04 212.78 371.88 221.12 C 375.42 229.45 374.11 239.43 368.58 246.59 C 357.21 260.51 341.16 269.25 325.82 278.03 C 310.98 286.43 295.26 293.20 279.27 299.09 C 277.34 299.81 275.34 300.35 273.34 300.82 C 276.74 294.72 279.09 288.08 279.88 281.12 C 260.14 282.78 240.28 281.22 220.74 278.23 C 201.17 274.45 181.29 268.80 165.00 256.88 C 158.81 251.39 151.99 245.41 150.19 236.93 C 148.27 229.11 150.50 220.66 155.51 214.45 C 162.28 205.91 171.77 199.98 181.58 195.49 Z" />
<path fill="#ffffff" opacity="1.00" d=" M 293.76 194.73 C 301.46 191.59 310.36 192.96 317.46 197.02 C 312.55 203.75 307.98 210.72 303.04 217.43 C 298.71 215.36 293.41 214.27 289.19 217.23 C 282.12 222.22 279.44 231.01 276.76 238.82 C 274.01 248.71 271.50 258.66 268.85 268.57 C 257.97 268.52 247.10 268.61 236.22 268.52 C 236.27 263.27 238.09 258.29 239.35 253.25 C 244.51 233.78 249.62 214.30 254.77 194.83 C 265.31 194.84 275.85 194.83 286.39 194.83 C 285.65 197.15 284.99 199.50 284.49 201.89 C 287.27 199.15 290.01 196.15 293.76 194.73 Z" />
</svg>
