<?xml version="1.0" encoding="UTF-8" ?>
<!DOCTYPE svg PUBLIC "-//W3C//DTD SVG 1.1//EN" "http://www.w3.org/Graphics/SVG/1.1/DTD/svg11.dtd">
<svg width="512pt" height="512pt" viewBox="0 0 512 512" version="1.1" xmlns="http://www.w3.org/2000/svg">
<path fill="#094ab1" opacity="1.00" d=" M 0.00 0.00 L 512.00 0.00 L 512.00 512.00 L 0.00 512.00 L 0.00 0.00 Z" />
<path fill="#ffffff" opacity="1.00" d=" M 253.64 161.89 C 281.11 153.98 312.82 165.27 329.34 188.55 C 336.34 198.45 341.18 210.01 342.56 222.10 C 334.81 221.95 326.67 222.64 319.84 226.64 C 309.02 210.34 289.32 201.21 269.99 201.51 C 256.13 201.78 242.07 205.63 230.70 213.72 C 218.88 222.02 210.55 234.64 206.13 248.28 C 205.08 251.18 204.70 254.28 203.54 257.15 C 190.83 259.23 178.56 265.33 169.64 274.69 C 153.82 291.80 154.21 319.55 166.47 338.52 C 156.01 338.45 145.55 338.60 135.09 338.45 C 119.82 337.41 105.97 327.39 98.95 313.99 C 93.62 304.26 93.29 292.57 95.59 281.92 C 97.83 271.54 104.48 262.23 113.57 256.75 C 119.60 253.18 126.33 250.64 133.34 249.99 C 131.56 234.80 136.57 219.07 146.37 207.38 C 154.05 198.04 165.16 191.66 177.05 189.54 C 189.14 187.14 202.00 189.48 212.76 195.39 C 221.51 179.62 236.22 166.97 253.64 161.89 Z" />
<path fill="#ffffff" opacity="1.00" d=" M 232.36 224.33 C 244.39 213.48 261.52 210.15 277.27 211.61 C 293.56 213.37 308.17 223.42 317.04 236.99 C 329.14 231.31 343.33 229.37 356.19 233.61 C 367.91 237.15 378.20 245.52 383.54 256.60 C 387.32 264.06 388.44 272.57 388.29 280.84 C 397.32 282.49 406.06 287.04 411.62 294.48 C 417.96 302.78 419.45 313.86 418.02 323.96 C 416.76 332.87 412.56 341.78 405.10 347.12 C 399.64 351.16 392.65 352.55 385.97 352.32 C 332.98 352.28 279.98 352.31 226.98 352.30 C 216.71 352.22 206.14 353.04 196.26 349.66 C 185.09 346.14 175.95 337.15 172.02 326.15 C 168.43 315.99 167.38 304.71 170.04 294.21 C 172.28 285.38 178.35 277.82 186.07 273.11 C 193.94 268.30 203.08 265.57 212.29 265.18 C 214.52 249.97 220.65 234.69 232.36 224.33 Z" />
</svg>
