<?xml version="1.0" encoding="UTF-8" ?>
<!DOCTYPE svg PUBLIC "-//W3C//DTD SVG 1.1//EN" "http://www.w3.org/Graphics/SVG/1.1/DTD/svg11.dtd">
<svg width="512pt" height="512pt" viewBox="0 0 512 512" version="1.1" xmlns="http://www.w3.org/2000/svg">
<path fill="#00aff0" opacity="1.00" d=" M 0.00 0.00 L 512.00 0.00 L 512.00 512.00 L 0.00 512.00 L 0.00 0.00 Z" />
<path fill="#ffffff" opacity="1.00" d=" M 107.31 153.29 C 120.18 121.66 153.65 99.17 188.00 101.00 C 203.85 100.28 219.58 105.29 232.98 113.56 C 264.30 108.21 297.33 112.94 325.71 127.29 C 355.41 142.06 379.87 167.13 393.73 197.28 C 407.02 225.74 410.32 258.60 403.61 289.23 C 408.40 298.84 411.12 309.33 412.58 319.92 C 413.85 333.75 410.97 347.73 405.68 360.49 C 394.16 387.60 367.71 407.57 338.50 411.31 C 331.36 412.62 323.99 413.08 316.82 411.70 C 307.01 410.54 297.33 407.93 288.46 403.53 C 287.07 402.90 285.67 401.92 284.08 402.38 C 258.70 406.72 232.21 404.55 207.95 395.90 C 177.20 385.07 150.28 363.76 132.69 336.31 C 112.28 304.91 105.13 265.47 112.59 228.82 C 108.38 220.57 104.42 212.06 102.68 202.88 C 99.44 186.39 100.73 168.84 107.31 153.29 Z" />
<path fill="#00aff0" opacity="1.00" d=" M 248.20 155.26 C 267.58 154.39 287.69 155.93 305.32 164.70 C 316.62 170.32 327.13 178.88 332.46 190.58 C 334.49 195.08 335.75 200.01 335.62 204.97 C 335.13 214.76 326.75 223.52 316.96 224.39 C 311.18 224.97 304.64 223.98 300.50 219.54 C 294.22 213.47 291.47 204.82 285.56 198.46 C 282.67 195.36 279.62 192.21 275.66 190.51 C 268.59 187.37 260.67 187.06 253.06 187.13 C 243.84 187.18 234.21 189.06 226.71 194.72 C 222.74 197.57 219.49 202.02 219.51 207.09 C 219.23 211.41 221.34 215.59 224.63 218.31 C 229.64 222.54 235.88 224.99 242.07 226.91 C 257.49 231.21 273.31 233.86 288.69 238.31 C 301.16 241.81 313.64 246.17 324.32 253.66 C 333.84 260.32 341.11 270.44 343.49 281.89 C 347.11 298.18 343.83 316.15 333.41 329.38 C 323.42 342.22 308.40 350.15 292.91 354.31 C 275.10 358.97 256.36 359.50 238.14 357.33 C 220.45 355.16 202.54 349.08 189.46 336.54 C 179.92 327.44 172.07 315.48 170.97 302.05 C 170.44 297.09 171.85 291.92 175.08 288.09 C 181.25 280.41 192.86 278.20 201.67 282.31 C 207.42 285.08 211.15 290.68 213.76 296.31 C 216.64 302.72 219.83 309.13 224.57 314.39 C 230.97 320.94 239.96 324.49 249.01 325.19 C 261.68 326.27 275.30 325.22 286.29 318.25 C 291.29 315.05 295.82 310.46 297.28 304.54 C 298.80 298.22 297.58 290.91 292.83 286.21 C 286.48 279.85 277.67 277.05 269.18 274.90 C 255.55 271.24 241.54 269.13 228.02 265.01 C 217.08 261.70 206.00 258.03 196.56 251.39 C 188.31 245.64 181.12 237.84 177.77 228.22 C 172.78 213.77 174.31 196.85 183.13 184.17 C 191.21 172.10 204.47 164.58 218.08 160.36 C 227.84 157.33 238.01 155.81 248.20 155.26 Z" />
</svg>
