<?xml version="1.0" encoding="UTF-8" ?>
<!DOCTYPE svg PUBLIC "-//W3C//DTD SVG 1.1//EN" "http://www.w3.org/Graphics/SVG/1.1/DTD/svg11.dtd">
<svg width="512pt" height="512pt" viewBox="0 0 512 512" version="1.1" xmlns="http://www.w3.org/2000/svg">
<path fill="#426db5" opacity="1.00" d=" M 0.00 0.00 L 512.00 0.00 L 512.00 512.00 L 0.00 512.00 L 0.00 0.00 Z" />
<path fill="#ffffff" opacity="1.00" d=" M 122.84 115.01 C 122.57 108.01 129.05 101.86 135.99 102.12 C 215.69 102.04 295.40 102.09 375.11 102.09 C 382.24 101.66 388.79 107.75 388.77 114.90 C 388.84 146.12 388.73 177.34 388.82 208.56 C 373.01 206.20 357.03 204.91 341.04 204.81 C 322.14 205.33 303.07 206.99 284.91 212.58 C 273.95 216.49 262.92 221.79 250.97 220.85 C 240.16 220.28 230.51 214.86 220.36 211.69 C 188.94 201.67 155.17 201.62 122.81 206.55 C 122.89 176.03 122.83 145.52 122.84 115.01 Z" />
<path fill="#426db5" opacity="1.00" d=" M 141.32 113.53 C 147.39 110.87 154.86 114.89 156.75 121.04 C 158.87 126.79 155.42 133.69 149.71 135.72 C 143.73 138.42 136.22 134.57 134.23 128.49 C 131.92 122.62 135.61 115.71 141.32 113.53 Z" />
<path fill="#426db5" opacity="1.00" d=" M 361.42 113.74 C 368.47 110.20 377.81 116.16 377.84 123.96 C 378.71 131.28 371.15 137.86 364.04 136.41 C 359.08 135.47 354.91 131.19 354.28 126.16 C 353.52 121.03 356.72 115.78 361.42 113.74 Z" />
<path fill="#ffffff" opacity="1.00" d=" M 110.19 213.38 C 137.73 207.96 166.18 205.83 194.02 210.17 C 205.11 211.66 215.99 214.58 226.39 218.69 C 235.56 222.13 244.98 225.90 254.96 225.48 C 268.72 225.29 280.77 217.78 293.93 214.84 C 318.08 208.99 343.23 208.45 367.90 210.59 C 379.82 211.32 391.47 213.90 403.21 215.90 C 403.16 221.04 403.16 226.18 403.21 231.33 C 387.76 245.48 386.67 268.13 374.71 284.57 C 369.49 292.49 361.02 297.75 351.95 300.13 C 345.95 301.55 340.32 304.81 334.01 304.55 C 319.63 305.38 303.99 304.86 291.81 296.19 C 273.81 284.35 266.26 261.26 268.65 240.50 C 258.20 238.17 247.06 236.83 236.57 239.55 C 238.03 255.84 234.38 273.08 224.19 286.13 C 215.58 296.96 201.38 301.18 188.07 302.01 C 174.74 302.84 160.87 301.26 148.78 295.31 C 141.76 291.97 135.93 286.19 132.66 279.13 C 127.87 269.00 125.47 257.97 121.54 247.52 C 118.54 239.46 110.78 234.05 108.75 225.52 C 107.38 221.43 108.96 217.27 110.19 213.38 Z" />
<path fill="#426db5" opacity="1.00" d=" M 178.18 217.22 C 188.70 217.26 199.36 218.12 209.41 221.41 C 215.98 223.72 222.91 227.50 225.53 234.36 C 229.19 243.80 228.24 254.43 225.65 264.02 C 223.30 271.99 219.60 279.76 213.89 285.86 C 205.76 293.00 194.44 294.78 183.98 294.83 C 171.28 294.36 158.35 291.48 147.56 284.53 C 142.42 281.21 138.16 276.25 136.60 270.25 C 134.07 261.07 133.06 251.49 133.18 241.97 C 133.34 237.18 133.66 232.19 135.81 227.82 C 138.01 223.63 142.82 221.90 147.10 220.67 C 157.26 218.20 167.76 217.53 178.18 217.22 Z" />
<path fill="#426db5" opacity="1.00" d=" M 312.55 218.78 C 326.38 216.93 340.54 217.53 354.17 220.55 C 361.80 222.52 370.24 225.02 375.31 231.46 C 377.97 242.49 376.67 254.23 374.15 265.21 C 371.70 274.59 367.39 284.43 358.82 289.73 C 350.74 295.28 340.67 296.84 331.06 296.71 C 320.65 296.66 310.02 296.28 300.12 292.76 C 294.86 290.85 291.35 286.20 288.24 281.79 C 281.71 271.74 277.31 260.07 276.80 248.03 C 276.93 240.97 278.92 233.28 284.55 228.59 C 292.50 222.33 302.74 220.15 312.55 218.78 Z" />
<path fill="#ffffff" opacity="1.00" d=" M 158.71 223.12 C 173.09 221.44 187.83 220.94 202.06 224.03 C 208.99 225.59 216.57 228.26 220.57 234.55 C 224.17 241.95 224.12 250.61 222.40 258.52 C 220.45 267.30 216.86 276.00 210.60 282.61 C 203.52 288.48 193.98 290.12 185.04 290.34 C 172.20 290.05 159.03 287.08 148.43 279.55 C 144.52 276.59 141.61 272.37 140.52 267.57 C 138.15 257.56 137.04 247.16 137.97 236.88 C 138.43 233.41 139.19 229.28 142.55 227.45 C 147.45 224.63 153.21 223.95 158.71 223.12 Z" />
<path fill="#ffffff" opacity="1.00" d=" M 314.15 223.14 C 327.40 221.42 340.95 222.16 353.97 225.10 C 360.18 226.81 366.86 228.88 371.36 233.69 C 373.39 248.18 371.81 263.74 364.79 276.76 C 361.37 283.69 354.30 287.83 347.21 290.15 C 340.02 292.32 332.41 292.54 324.96 292.25 C 317.60 291.72 310.10 291.46 303.07 288.99 C 298.95 287.96 296.26 284.45 293.59 281.43 C 287.13 272.72 283.10 262.26 281.57 251.55 C 280.73 244.61 281.99 236.47 287.89 231.97 C 295.25 226.01 305.05 224.45 314.15 223.14 Z" />
<path fill="#ffffff" opacity="1.00" d=" M 241.44 243.17 C 248.87 241.64 256.45 242.90 263.85 243.96 C 263.06 259.09 266.66 274.86 275.86 287.12 C 285.11 299.95 300.30 308.16 316.12 308.83 C 322.35 309.70 328.64 309.71 334.89 308.90 C 341.51 309.32 347.32 305.79 353.61 304.41 C 363.79 301.80 373.05 295.49 378.84 286.68 C 382.90 280.53 386.07 273.84 388.67 266.95 C 388.95 309.98 388.70 353.01 388.80 396.04 C 389.05 402.51 383.77 409.14 377.05 409.17 C 296.35 409.22 215.65 409.17 134.95 409.20 C 128.51 409.40 122.85 403.40 122.84 397.08 C 122.84 353.74 122.86 310.39 122.84 267.05 C 126.58 276.64 129.85 287.14 138.13 293.91 C 151.09 303.92 168.05 307.01 184.07 306.72 C 194.87 306.59 205.75 304.39 215.35 299.33 C 220.99 296.56 225.27 291.76 229.33 287.10 C 237.89 274.23 242.02 258.59 241.44 243.17 Z" />
<path fill="#426db5" opacity="1.00" d=" M 140.48 375.71 C 147.01 372.09 155.77 376.90 157.09 384.02 C 158.82 390.88 153.00 398.11 146.06 398.40 C 140.06 398.73 134.39 393.87 133.66 387.94 C 132.92 382.93 135.95 377.81 140.48 375.71 Z" />
<path fill="#426db5" opacity="1.00" d=" M 362.31 375.18 C 369.32 372.34 377.96 378.48 377.85 385.98 C 378.52 392.90 371.71 399.10 364.94 398.37 C 359.30 397.76 354.41 392.75 354.20 387.04 C 353.84 381.84 357.48 376.90 362.31 375.18 Z" />
</svg>
