<?xml version="1.0" encoding="UTF-8" ?>
<!DOCTYPE svg PUBLIC "-//W3C//DTD SVG 1.1//EN" "http://www.w3.org/Graphics/SVG/1.1/DTD/svg11.dtd">
<svg width="512pt" height="512pt" viewBox="0 0 512 512" version="1.1" xmlns="http://www.w3.org/2000/svg">
<path fill="#95ba1a" opacity="1.00" d=" M 0.00 0.00 L 512.00 0.00 L 512.00 512.00 L 0.00 512.00 L 0.00 0.00 Z" />
<path fill="#ffffff" opacity="1.00" d=" M 164.83 143.63 C 186.64 137.53 209.35 135.47 231.92 134.80 C 276.17 134.58 321.41 141.60 361.19 161.84 C 365.49 164.77 371.01 166.42 373.81 171.12 C 376.44 175.53 377.24 181.89 373.54 185.94 C 373.47 186.37 373.32 187.24 373.25 187.67 C 369.09 192.74 361.69 195.42 355.53 192.49 C 323.39 173.59 285.78 166.62 248.98 164.55 C 240.09 164.53 231.19 164.47 222.30 164.60 C 205.02 165.98 187.59 167.67 170.93 172.76 C 165.81 174.47 159.66 174.15 155.48 170.42 C 149.68 165.78 148.37 156.67 152.70 150.61 C 155.51 146.71 160.21 144.55 164.83 143.63 Z" />
<path fill="#ffffff" opacity="1.00" d=" M 209.46 190.80 C 229.24 188.89 249.23 189.47 268.92 192.13 C 296.69 196.39 324.12 205.02 348.10 219.88 C 354.49 223.63 355.42 233.18 350.51 238.52 C 346.69 242.58 340.09 243.61 335.26 240.80 C 312.72 226.94 286.76 219.54 260.70 215.94 C 233.07 212.89 204.66 213.81 177.88 221.83 C 172.55 223.59 165.86 222.11 162.88 217.06 C 159.05 211.73 160.83 203.80 166.20 200.23 C 170.69 197.57 175.97 196.91 180.93 195.54 C 190.32 193.26 199.84 191.66 209.46 190.80 Z" />
<path fill="#ffffff" opacity="1.00" d=" M 230.28 241.39 C 253.12 240.75 276.07 243.89 297.75 251.16 C 308.87 255.64 319.97 260.36 330.13 266.82 C 332.33 268.16 333.22 270.74 333.92 273.09 C 335.33 280.26 327.01 287.22 320.29 283.74 C 313.76 280.20 307.42 276.21 300.45 273.55 C 294.24 271.36 288.13 268.84 281.74 267.18 C 248.59 258.10 213.34 260.14 180.13 267.82 C 176.11 269.01 171.45 267.37 169.12 263.87 C 165.32 258.97 167.70 250.46 173.95 248.96 C 192.35 244.27 211.32 241.90 230.28 241.39 Z" />
<path fill="#ffffff" opacity="1.00" d=" M 196.85 295.52 C 212.33 292.19 228.36 291.36 244.10 293.20 C 264.88 295.54 285.51 301.63 303.30 312.81 C 320.31 322.98 334.56 337.49 345.23 354.13 C 339.23 356.83 333.96 361.01 328.04 363.93 C 317.76 368.89 307.26 373.65 296.08 376.18 C 294.72 376.48 293.43 377.04 292.16 377.57 C 285.93 365.79 276.05 356.04 264.34 349.72 C 251.66 343.39 237.21 340.76 223.11 341.73 C 208.43 342.53 194.08 348.37 183.06 358.11 C 181.52 359.44 179.74 360.44 177.95 361.39 C 164.50 353.96 152.29 344.36 141.53 333.41 C 139.49 331.15 137.33 328.96 135.86 326.26 C 153.09 310.98 174.24 300.06 196.85 295.52 Z" />
</svg>
