<?xml version="1.0" encoding="UTF-8" ?>
<!DOCTYPE svg PUBLIC "-//W3C//DTD SVG 1.1//EN" "http://www.w3.org/Graphics/SVG/1.1/DTD/svg11.dtd">
<svg width="512pt" height="512pt" viewBox="0 0 512 512" version="1.1" xmlns="http://www.w3.org/2000/svg">
<path fill="#0082c7" opacity="1.00" d=" M 0.00 0.00 L 512.00 0.00 L 512.00 512.00 L 0.00 512.00 L 0.00 0.00 Z" />
<path fill="#ffffff" opacity="1.00" d=" M 189.08 137.18 C 210.39 126.73 234.46 123.40 257.98 123.35 C 283.76 123.93 310.51 128.36 332.56 142.52 C 343.69 149.78 354.05 160.32 356.39 173.90 C 358.66 187.00 351.76 199.95 341.90 208.20 C 363.94 218.44 384.57 233.84 396.58 255.38 C 404.97 270.31 407.97 288.32 403.99 305.05 C 400.59 320.07 392.03 333.47 381.37 344.41 C 366.94 335.19 352.44 326.06 337.88 317.04 C 346.23 308.99 353.16 298.75 354.61 287.01 C 356.37 273.37 350.50 259.63 341.02 249.98 C 326.93 235.35 307.47 227.18 287.98 222.64 C 287.37 216.86 287.18 211.05 286.58 205.27 C 298.12 201.57 310.33 196.89 317.94 186.92 C 322.20 181.56 323.02 173.59 319.28 167.73 C 313.71 158.68 303.69 153.62 294.05 149.97 C 270.25 141.73 243.68 141.59 219.76 149.44 C 209.70 153.01 199.27 158.08 193.24 167.27 C 189.24 173.15 189.90 181.20 194.17 186.75 C 201.79 196.77 214.01 201.67 225.69 205.19 C 225.10 210.95 224.78 216.73 224.38 222.50 C 207.73 226.55 191.30 232.96 177.83 243.79 C 167.83 251.87 159.66 263.04 157.78 276.00 C 154.97 291.66 163.38 306.82 174.48 317.26 C 160.03 326.48 145.41 335.43 131.01 344.74 C 119.58 332.88 110.42 318.30 107.54 301.88 C 103.78 282.99 109.47 263.10 120.51 247.60 C 132.91 230.13 150.84 217.13 170.22 208.36 C 162.75 201.41 156.44 192.39 155.58 181.96 C 154.87 174.31 157.12 166.58 161.33 160.20 C 167.97 149.92 178.28 142.60 189.08 137.18 Z" />
<path fill="#ffffff" opacity="1.00" d=" M 170.19 267.23 C 198.73 251.04 227.27 234.85 255.85 218.72 C 281.18 233.22 306.65 247.50 332.02 261.94 C 335.12 263.74 338.36 265.31 341.28 267.42 C 342.15 274.37 343.52 281.24 344.72 288.14 C 323.05 282.03 301.22 276.48 279.54 270.43 C 284.53 293.44 289.49 316.49 293.96 339.61 C 304.52 337.07 314.69 332.82 324.01 327.24 C 338.60 337.02 353.22 346.77 368.00 356.27 C 335.64 379.32 295.43 389.40 256.06 389.25 C 216.91 389.37 176.93 379.43 144.69 356.62 C 159.19 346.82 173.95 337.39 188.41 327.52 C 197.47 332.69 207.15 336.71 217.19 339.52 C 222.03 316.51 226.87 293.50 231.77 270.51 C 210.18 276.61 188.53 282.46 166.98 288.64 C 168.24 281.53 169.05 274.36 170.19 267.23 Z" />
</svg>
