<?xml version="1.0" encoding="UTF-8" ?>
<!DOCTYPE svg PUBLIC "-//W3C//DTD SVG 1.1//EN" "http://www.w3.org/Graphics/SVG/1.1/DTD/svg11.dtd">
<svg width="512pt" height="512pt" viewBox="0 0 512 512" version="1.1" xmlns="http://www.w3.org/2000/svg">
<path fill="#004892" opacity="1.00" d=" M 0.00 0.00 L 512.00 0.00 L 512.00 512.00 L 0.00 512.00 L 0.00 0.00 Z" />
<path fill="#ffffff" opacity="1.00" d=" M 131.22 130.25 C 213.49 130.00 295.77 130.21 378.05 130.14 C 384.71 129.69 391.56 133.12 394.64 139.15 C 397.96 145.01 396.27 151.94 396.07 158.29 C 391.70 223.88 387.33 289.45 383.01 355.03 C 382.22 360.48 383.06 366.16 381.25 371.44 C 378.60 377.75 371.87 382.06 365.03 381.85 C 292.33 381.86 219.63 381.86 146.93 381.86 C 140.51 382.01 134.21 378.23 131.27 372.53 C 129.64 369.27 129.61 365.54 129.46 361.98 C 124.95 293.92 120.46 225.86 115.88 157.79 C 115.73 151.89 114.22 145.52 116.98 139.99 C 119.47 134.48 125.16 130.54 131.22 130.25 Z" />
<path fill="#004892" opacity="1.00" d=" M 132.66 150.52 C 135.83 145.91 141.49 143.71 146.95 143.75 C 219.62 143.74 292.30 143.74 364.97 143.74 C 370.01 143.75 375.28 145.45 378.53 149.47 C 382.31 153.60 382.82 159.54 381.94 164.83 C 378.35 225.86 374.58 286.89 370.99 347.91 C 370.06 353.26 371.61 359.37 368.14 364.03 C 364.89 369.06 358.76 371.21 352.98 371.20 C 341.99 370.93 330.97 371.59 319.99 370.96 C 317.67 371.30 315.32 371.31 313.00 370.95 C 304.37 371.48 295.69 371.17 287.05 371.03 C 278.70 371.33 270.31 371.24 261.96 370.99 C 253.98 371.38 245.96 371.29 237.98 370.93 C 231.66 371.28 225.31 371.44 219.00 370.94 C 212.35 371.38 205.64 371.37 199.00 370.94 C 191.69 371.39 184.32 371.33 177.00 370.97 C 171.02 371.46 165.00 371.10 159.01 371.20 C 153.47 371.22 147.61 369.26 144.28 364.60 C 140.23 359.66 141.99 352.90 140.93 347.08 C 137.53 287.70 133.72 228.34 130.35 168.96 C 130.44 162.83 128.61 155.80 132.66 150.52 Z" />
<path fill="#ffffff" opacity="1.00" d=" M 140.93 161.91 C 142.36 157.79 147.41 157.69 151.03 157.88 C 155.35 158.49 159.67 157.52 164.00 157.97 C 177.33 157.58 190.66 158.20 203.99 157.84 C 208.08 157.53 212.38 160.56 212.21 164.93 C 212.34 173.28 212.50 181.64 212.61 189.99 C 212.74 192.96 210.04 195.87 207.02 195.75 C 187.66 195.82 168.30 195.76 148.93 195.79 C 145.47 196.21 142.29 193.32 141.88 189.96 C 141.49 185.98 141.57 181.98 141.36 177.99 C 141.20 172.64 139.92 167.21 140.93 161.91 Z" />
<path fill="#ffffff" opacity="1.00" d=" M 224.25 158.27 C 233.45 157.14 242.77 158.56 252.00 157.80 C 262.70 158.63 273.43 157.39 284.14 157.98 C 287.36 157.96 290.89 160.37 290.77 163.85 C 290.76 172.26 290.58 180.67 290.52 189.08 C 290.78 191.85 288.92 194.47 286.41 195.50 C 284.97 195.86 283.47 195.77 282.01 195.80 C 263.34 195.73 244.67 195.81 226.00 195.77 C 222.44 196.00 219.47 192.45 219.66 189.03 C 219.60 180.68 219.38 172.33 219.41 163.98 C 219.32 161.23 221.58 158.69 224.25 158.27 Z" />
<path fill="#ffffff" opacity="1.00" d=" M 302.46 158.45 C 307.22 157.25 312.16 158.00 317.00 158.17 C 321.66 158.39 326.31 157.57 330.97 157.95 C 339.33 157.86 347.70 157.79 356.06 158.12 C 360.17 157.96 365.43 156.79 368.44 160.41 C 370.02 161.82 369.55 164.07 369.60 165.95 C 369.50 173.66 368.51 181.31 368.42 189.03 C 368.56 192.44 365.54 195.90 362.04 195.76 C 342.68 195.81 323.30 195.76 303.94 195.78 C 300.70 196.17 297.57 193.34 297.60 190.10 C 297.62 182.01 297.74 173.92 297.90 165.84 C 297.86 162.78 299.31 159.38 302.46 158.45 Z" />
<path fill="#ffffff" opacity="1.00" d=" M 147.35 202.54 C 166.88 202.19 186.45 202.49 205.99 202.39 C 209.79 201.87 213.25 205.18 213.19 208.94 C 213.36 216.95 213.51 224.97 213.56 232.98 C 213.81 236.43 210.26 238.98 207.03 238.67 C 188.34 238.65 169.65 238.67 150.96 238.65 C 147.75 238.83 144.34 236.29 144.40 232.92 C 143.53 224.65 143.32 216.33 143.13 208.03 C 142.83 205.45 144.98 203.12 147.35 202.54 Z" />
<path fill="#ffffff" opacity="1.00" d=" M 145.54 249.83 C 147.33 245.02 153.00 246.40 156.98 245.99 C 164.31 246.03 171.67 245.45 179.00 246.16 C 183.97 245.41 188.96 246.49 193.94 245.87 C 198.31 245.40 202.71 246.87 207.05 245.80 C 210.42 245.99 213.83 248.21 214.09 251.83 C 214.35 259.58 214.34 267.34 214.47 275.09 C 214.77 278.04 212.02 280.87 209.06 280.71 C 190.36 280.78 171.65 280.73 152.95 280.73 C 149.32 281.03 146.13 277.60 146.48 274.03 C 146.41 265.95 144.97 257.90 145.54 249.83 Z" />
<path fill="#ffffff" opacity="1.00" d=" M 223.49 247.62 C 226.10 245.49 229.78 245.78 232.94 245.97 C 245.29 245.92 257.65 245.71 270.01 246.03 C 275.02 245.40 280.04 246.19 285.06 246.27 C 288.08 246.10 290.49 249.10 290.39 251.97 C 290.35 258.99 290.20 266.02 290.17 273.04 C 290.52 276.66 288.15 281.03 284.08 280.73 C 265.35 280.75 246.63 280.75 227.91 280.73 C 224.83 280.96 222.20 278.14 222.04 275.17 C 221.53 269.13 221.90 263.04 221.65 256.99 C 221.70 253.84 220.88 250.02 223.49 247.62 Z" />
<path fill="#ffffff" opacity="1.00" d=" M 151.17 287.09 C 153.37 286.45 155.70 286.71 157.97 286.66 C 174.64 286.71 191.32 286.64 208.00 286.68 C 211.04 286.47 214.62 288.63 214.71 291.92 C 214.78 300.01 215.60 308.09 215.24 316.18 C 214.37 318.73 211.74 320.50 209.04 320.31 C 190.99 320.30 172.94 320.35 154.90 320.28 C 151.12 320.35 148.19 316.75 148.56 313.07 C 148.59 305.99 147.44 298.98 147.53 291.91 C 147.43 289.69 149.36 288.01 151.17 287.09 Z" />
<path fill="#ffffff" opacity="1.00" d=" M 152.43 327.59 C 154.12 326.61 156.13 326.73 158.01 326.70 C 175.02 326.77 192.04 326.68 209.05 326.74 C 212.02 326.61 215.47 328.70 215.59 331.90 C 215.85 337.90 215.61 343.92 216.14 349.91 C 216.18 352.21 216.67 354.87 215.08 356.82 C 213.71 358.69 211.25 359.10 209.08 359.15 C 197.05 359.26 185.02 359.00 172.99 359.01 C 167.35 359.24 161.70 359.12 156.07 358.76 C 153.16 358.71 150.77 355.95 150.75 353.11 C 150.44 346.74 150.30 340.35 149.67 334.00 C 149.21 331.51 150.09 328.81 152.43 327.59 Z" />
</svg>
