<?xml version="1.0" encoding="UTF-8" ?>
<!DOCTYPE svg PUBLIC "-//W3C//DTD SVG 1.1//EN" "http://www.w3.org/Graphics/SVG/1.1/DTD/svg11.dtd">
<svg width="512pt" height="512pt" viewBox="0 0 512 512" version="1.1" xmlns="http://www.w3.org/2000/svg">
<path fill="#59554f" opacity="1.00" d=" M 0.00 0.00 L 512.00 0.00 L 512.00 512.00 L 0.00 512.00 L 0.00 0.00 Z" />
<path fill="#ffffff" opacity="1.00" d=" M 285.93 183.02 C 295.14 171.25 309.26 163.50 324.14 162.04 C 340.46 160.18 357.51 166.23 369.11 177.86 C 379.11 187.52 385.35 201.08 385.77 215.01 C 386.63 228.27 382.31 241.72 374.20 252.21 C 364.86 264.46 350.23 272.41 334.92 273.82 C 332.36 274.52 329.34 273.39 327.13 275.13 C 310.62 287.06 293.91 298.74 277.44 310.73 C 276.86 317.03 276.38 323.55 273.29 329.23 C 267.83 341.38 255.87 350.04 242.82 352.19 C 223.73 355.78 202.99 343.47 197.35 324.79 C 196.62 323.26 196.69 320.84 194.78 320.24 C 172.18 310.71 149.37 301.68 126.86 291.95 C 126.89 286.63 126.70 281.30 127.41 276.01 C 127.43 264.59 127.39 253.16 127.41 241.74 C 156.23 253.64 184.98 265.71 213.85 277.48 C 220.89 272.70 229.44 270.66 237.88 270.73 C 249.78 253.40 261.79 236.11 273.56 218.70 C 273.80 205.90 277.80 193.03 285.93 183.02 Z" />
<path fill="#59554f" opacity="1.00" d=" M 320.56 181.89 C 328.65 179.83 337.47 180.47 345.06 184.02 C 354.88 188.36 362.53 197.23 365.54 207.53 C 368.92 219.33 366.18 232.66 358.17 242.00 C 348.89 253.14 332.83 257.90 319.00 253.48 C 306.82 249.73 296.89 239.33 293.85 226.92 C 291.09 216.82 293.30 205.70 299.13 197.09 C 304.07 189.58 311.95 184.26 320.56 181.89 Z" />
<path fill="#ffffff" opacity="1.00" d=" M 320.70 190.94 C 333.34 186.37 348.54 192.21 354.85 204.07 C 360.30 214.00 359.21 227.17 351.88 235.87 C 343.76 246.02 328.26 249.33 316.84 242.97 C 304.08 236.83 298.14 220.36 303.50 207.34 C 306.52 199.77 312.94 193.53 320.70 190.94 Z" />
<path fill="#59554f" opacity="1.00" d=" M 226.26 281.83 C 233.88 279.98 242.37 279.71 249.47 283.47 C 260.49 288.26 267.61 300.10 267.56 311.98 C 267.85 328.19 253.39 343.35 236.99 342.87 C 228.48 343.50 220.05 339.92 214.06 333.97 C 211.94 331.61 209.50 329.20 208.86 325.96 C 213.00 327.89 217.29 329.45 221.47 331.29 C 225.48 332.88 229.48 334.99 233.93 334.75 C 242.21 335.38 250.58 330.97 254.85 323.88 C 261.76 313.63 258.06 297.74 246.85 292.18 C 240.58 289.19 234.04 286.72 227.61 284.06 C 227.16 283.31 226.71 282.57 226.26 281.83 Z" />
</svg>
