<?xml version="1.0" encoding="UTF-8" ?>
<!DOCTYPE svg PUBLIC "-//W3C//DTD SVG 1.1//EN" "http://www.w3.org/Graphics/SVG/1.1/DTD/svg11.dtd">
<svg width="512pt" height="512pt" viewBox="0 0 512 512" version="1.1" xmlns="http://www.w3.org/2000/svg">
<path fill="#59554f" opacity="1.00" d=" M 0.00 0.00 L 512.00 0.00 L 512.00 512.00 L 0.00 512.00 L 0.00 0.00 Z" />
<path fill="#ffffff" opacity="1.00" d=" M 328.14 207.11 C 336.55 195.38 351.90 189.15 366.10 192.08 C 381.87 194.72 395.30 207.99 397.57 223.91 C 399.99 237.65 393.73 252.31 382.46 260.45 C 375.63 265.74 366.99 268.02 358.51 268.58 C 346.34 277.34 334.12 286.11 322.20 295.19 C 320.92 303.05 316.92 310.69 310.21 315.26 C 299.83 323.09 284.09 322.09 274.50 313.44 C 270.15 309.61 267.34 304.24 266.18 298.60 C 229.89 283.85 193.48 269.35 157.04 254.95 C 149.14 259.59 138.94 260.26 130.62 256.34 C 122.12 252.56 115.63 244.41 114.16 235.20 C 111.74 223.07 118.44 209.89 129.57 204.55 C 141.23 198.51 156.75 201.88 164.82 212.25 C 167.69 215.68 169.32 219.89 170.65 224.11 C 206.71 238.67 242.79 253.17 278.87 267.68 C 284.35 264.92 290.48 263.17 296.67 263.73 C 304.62 252.35 312.76 241.08 320.52 229.58 C 321.01 221.60 323.17 213.52 328.14 207.11 Z" />
<path fill="#59554f" opacity="1.00" d=" M 353.44 204.53 C 358.35 203.94 363.57 203.74 368.24 205.66 C 376.22 208.37 382.66 215.29 384.65 223.51 C 387.45 233.71 382.91 245.39 374.04 251.12 C 365.44 256.95 353.35 257.33 344.73 251.31 C 337.24 246.21 332.60 237.01 333.39 227.93 C 334.04 216.87 342.60 206.88 353.44 204.53 Z" />
<path fill="#59554f" opacity="1.00" d=" M 121.34 230.01 C 121.07 220.40 128.58 211.40 137.94 209.53 C 146.87 207.37 156.41 212.07 161.10 219.78 C 154.98 218.83 149.64 214.23 143.18 215.17 C 135.25 215.85 128.21 222.88 128.26 230.96 C 127.73 237.13 131.03 243.57 136.57 246.47 C 139.85 248.26 143.58 249.07 146.78 251.05 C 142.12 251.67 137.16 251.45 132.97 249.13 C 125.89 245.69 120.95 237.94 121.34 230.01 Z" />
<path fill="#ffffff" opacity="1.00" d=" M 353.54 209.75 C 365.91 206.33 380.00 216.04 380.38 229.04 C 380.91 242.36 366.60 253.13 353.91 249.74 C 345.03 247.68 338.41 239.08 338.48 230.00 C 338.09 220.84 344.66 212.01 353.54 209.75 Z" />
<path fill="#59554f" opacity="1.00" d=" M 289.22 271.76 C 293.71 270.88 298.62 270.93 302.72 273.20 C 311.37 277.26 316.12 287.78 313.98 297.01 C 312.69 302.45 309.38 307.58 304.40 310.29 C 294.79 316.18 280.08 312.79 275.23 302.29 C 280.56 304.73 285.90 308.14 291.98 307.85 C 298.34 307.85 303.88 303.19 306.57 297.69 C 309.15 290.58 307.31 281.53 301.01 276.94 C 297.36 274.63 293.05 273.71 289.22 271.76 Z" />
</svg>
