<?xml version="1.0" encoding="UTF-8" ?>
<!DOCTYPE svg PUBLIC "-//W3C//DTD SVG 1.1//EN" "http://www.w3.org/Graphics/SVG/1.1/DTD/svg11.dtd">
<svg width="512pt" height="512pt" viewBox="0 0 512 512" version="1.1" xmlns="http://www.w3.org/2000/svg">
<path fill="#144696" opacity="1.00" d=" M 0.00 0.00 L 512.00 0.00 L 512.00 512.00 L 0.00 512.00 L 0.00 0.00 Z" />
<path fill="#ffffff" opacity="1.00" d=" M 173.04 133.95 C 190.46 130.11 209.33 132.35 225.08 140.89 C 244.12 150.76 258.50 169.15 263.42 190.03 C 265.48 198.54 266.01 207.37 265.18 216.08 C 274.04 222.65 282.98 229.11 291.89 235.61 C 307.63 228.51 325.85 227.28 342.49 231.75 C 358.46 236.09 372.96 245.78 382.95 258.98 C 395.48 275.27 400.94 296.85 397.52 317.12 C 395.09 332.65 387.51 347.23 376.50 358.41 C 362.78 372.29 343.57 380.55 324.04 380.78 C 306.12 381.31 288.17 375.05 274.36 363.66 C 255.55 348.57 244.96 324.03 246.73 300.00 C 246.61 298.67 247.43 296.82 245.93 296.03 C 237.30 289.88 228.85 283.46 220.18 277.36 C 203.59 284.85 184.22 285.83 166.88 280.37 C 151.50 275.59 137.77 265.72 128.27 252.72 C 117.34 237.81 112.05 218.77 114.06 200.37 C 115.62 183.20 123.55 166.85 135.59 154.57 C 145.80 144.37 158.88 136.96 173.04 133.95 Z" />
<path fill="#144696" opacity="1.00" d=" M 182.42 162.72 C 192.18 161.43 202.43 162.73 211.12 167.56 C 223.38 174.04 232.47 186.31 234.75 200.03 C 237.53 214.39 232.51 229.85 222.17 240.12 C 213.59 248.92 201.29 254.06 188.98 253.67 C 176.81 253.75 164.82 248.33 156.48 239.53 C 146.50 229.22 141.77 213.96 144.54 199.84 C 147.66 181.11 163.65 165.52 182.42 162.72 Z" />
<path fill="#144696" opacity="1.00" d=" M 314.59 259.87 C 324.42 258.29 334.76 259.67 343.60 264.35 C 356.03 270.76 365.28 283.11 367.61 296.93 C 369.81 308.03 367.29 319.83 361.29 329.36 C 352.84 342.90 336.97 351.53 320.95 350.67 C 300.03 350.49 280.82 333.80 277.45 313.19 C 274.53 298.57 279.71 282.73 290.40 272.40 C 296.89 265.81 305.53 261.56 314.59 259.87 Z" />
</svg>
