<?xml version="1.0" encoding="UTF-8" ?>
<!DOCTYPE svg PUBLIC "-//W3C//DTD SVG 1.1//EN" "http://www.w3.org/Graphics/SVG/1.1/DTD/svg11.dtd">
<svg width="512pt" height="512pt" viewBox="0 0 512 512" version="1.1" xmlns="http://www.w3.org/2000/svg">
<path fill="#ffcb19" opacity="1.00" d=" M 0.00 0.00 L 512.00 0.00 L 512.00 512.00 L 0.00 512.00 L 0.00 0.00 Z" />
<path fill="#ffffff" opacity="1.00" d=" M 218.80 118.12 C 222.23 117.39 226.05 117.89 228.92 119.99 C 236.43 127.13 245.05 133.32 250.77 142.15 C 257.08 151.77 262.43 161.99 268.21 171.93 C 287.04 168.67 306.03 166.46 324.91 163.58 C 329.83 162.69 335.10 162.02 339.81 164.17 C 344.91 166.07 347.89 170.88 350.71 175.22 C 361.18 190.77 371.60 206.36 382.10 221.89 C 387.37 227.73 392.45 234.26 393.82 242.23 C 395.58 248.62 392.50 254.90 389.20 260.20 C 379.91 276.56 370.69 292.97 361.38 309.33 C 358.24 314.94 352.43 319.15 345.94 319.67 C 325.97 320.35 305.98 320.37 285.99 320.40 C 280.61 320.46 275.46 318.82 270.45 317.08 C 270.97 322.23 270.90 327.69 268.21 332.29 C 258.95 348.63 249.56 364.91 240.30 381.26 C 238.13 385.23 235.16 389.03 230.92 390.89 C 221.73 394.48 211.59 393.71 202.12 391.74 C 187.77 390.46 173.35 390.18 159.01 388.71 C 153.60 388.25 148.04 388.67 142.77 387.13 C 138.04 385.48 134.84 381.10 133.39 376.45 C 127.74 359.72 122.08 342.99 116.55 326.22 C 114.33 319.86 115.89 312.86 119.19 307.19 C 127.98 292.01 136.78 276.85 145.55 261.67 C 147.76 257.75 150.68 253.97 154.83 251.99 C 157.42 250.79 160.19 250.05 162.91 249.24 C 158.03 246.28 151.39 244.78 149.13 238.91 C 143.47 225.13 137.89 211.31 132.40 197.46 C 130.09 191.91 131.78 185.68 134.71 180.72 C 142.34 167.70 149.94 154.65 157.51 141.60 C 159.89 137.46 162.28 133.09 166.29 130.29 C 169.74 127.68 174.13 127.03 178.25 126.14 C 191.78 123.54 205.26 120.68 218.80 118.12 Z" />
<path fill="#ffcb19" opacity="1.00" d=" M 175.75 149.91 C 179.64 145.82 183.79 140.46 190.01 140.52 C 195.48 139.97 198.43 145.51 201.03 149.36 C 195.49 147.68 189.38 149.23 185.51 153.56 C 179.59 159.95 173.32 165.97 167.04 171.99 C 167.36 172.51 167.99 173.56 168.31 174.08 C 165.74 176.57 163.07 178.97 160.30 181.24 C 157.58 177.49 154.74 173.82 152.00 170.08 C 154.25 167.66 156.54 165.27 159.00 163.07 C 159.64 163.39 160.90 164.04 161.53 164.36 C 165.85 159.28 171.28 155.27 175.43 150.03 C 172.33 152.72 169.42 155.63 166.63 158.63 C 166.28 158.23 165.58 157.41 165.24 157.00 C 168.08 153.84 171.16 150.89 174.20 147.92 C 174.59 148.41 175.36 149.41 175.75 149.91 Z" />
<path fill="#ffcb19" opacity="1.00" d=" M 209.14 155.94 C 210.93 148.75 218.23 143.22 225.74 144.50 C 222.78 148.63 218.65 151.62 215.07 155.15 C 216.80 158.40 219.27 161.19 221.59 164.03 C 225.17 160.67 228.57 157.09 232.42 154.03 C 231.23 159.41 228.98 165.00 224.50 168.48 C 221.63 170.78 217.79 170.61 214.33 170.45 C 210.11 174.46 205.92 178.50 201.62 182.43 C 207.24 191.01 214.57 198.28 220.39 206.72 C 216.45 210.26 212.63 213.95 208.48 217.24 C 202.70 209.03 196.79 200.91 191.02 192.70 C 186.92 196.38 182.56 199.92 179.38 204.45 C 177.63 208.80 177.06 214.04 173.04 217.08 C 170.34 219.66 166.43 219.58 162.95 219.51 C 166.20 216.46 169.51 213.46 172.66 210.31 C 170.43 207.46 168.28 204.56 166.12 201.67 C 162.85 204.92 159.63 208.23 156.13 211.22 C 156.89 206.94 157.88 202.26 161.19 199.15 C 164.28 196.26 168.73 196.04 172.70 195.50 C 176.69 191.69 180.57 187.79 184.62 184.04 C 180.62 178.41 176.61 172.79 172.87 166.99 C 175.79 163.92 178.82 160.95 181.94 158.09 C 186.28 163.46 190.35 169.06 194.87 174.29 C 198.58 170.51 202.54 166.99 206.34 163.31 C 208.51 161.48 208.25 158.41 209.14 155.94 Z" />
<path fill="#ffcb19" opacity="1.00" d=" M 317.00 195.39 C 322.04 194.43 326.97 192.87 332.09 192.33 C 330.55 193.19 328.97 193.97 327.40 194.76 C 327.50 195.08 327.71 195.74 327.81 196.06 C 322.58 198.24 317.57 201.29 314.31 206.05 C 320.85 204.62 327.05 201.98 333.58 200.45 C 339.94 198.91 346.21 196.98 352.63 195.67 C 351.82 196.53 350.92 197.26 349.94 197.88 C 341.40 201.57 332.11 203.91 324.46 209.39 C 320.13 212.37 317.36 217.21 316.86 222.43 C 320.78 221.73 324.69 221.01 328.62 220.35 C 326.16 226.36 323.85 232.44 321.37 238.45 C 333.54 240.35 344.42 231.09 356.67 233.91 C 354.10 235.92 351.07 237.18 348.10 238.44 C 351.18 240.48 354.35 242.37 357.47 244.37 C 351.67 245.34 345.43 246.47 339.79 244.20 C 338.04 243.66 336.16 242.67 334.37 243.59 C 321.25 248.79 307.74 253.01 293.98 256.15 C 276.62 260.26 259.11 264.38 241.27 265.48 C 246.98 261.82 253.82 260.55 260.06 258.04 C 265.95 256.62 269.10 251.01 273.73 247.61 C 282.29 239.51 292.65 233.79 302.33 227.18 C 302.19 223.88 302.17 220.58 302.16 217.29 C 294.75 218.30 287.51 220.24 280.43 222.62 C 276.64 223.91 272.91 225.64 268.84 225.73 C 275.57 221.53 283.14 218.90 290.23 215.36 C 296.38 212.26 303.49 211.07 309.13 207.01 C 308.17 206.88 306.24 206.61 305.28 206.48 C 304.31 204.22 304.75 201.16 306.05 199.05 C 309.34 197.00 313.30 196.39 317.00 195.39 Z" />
<path fill="#ffffff" opacity="1.00" d=" M 274.42 252.34 C 286.76 241.62 301.78 234.11 317.41 229.45 C 316.49 233.76 315.66 238.08 314.58 242.35 C 303.02 245.42 291.51 248.69 280.04 252.10 C 278.21 252.70 276.29 252.71 274.42 252.34 Z" />
<path fill="#ffcb19" opacity="1.00" d=" M 197.16 270.36 C 199.37 270.05 201.59 269.78 203.82 269.57 C 195.01 289.28 186.19 308.99 177.17 328.61 C 187.86 330.87 198.64 332.74 209.38 334.73 C 209.32 336.53 209.25 338.33 209.19 340.13 C 206.92 341.78 204.67 343.58 201.97 344.50 C 196.83 344.04 191.95 342.11 186.94 340.91 C 171.74 336.94 156.77 332.21 141.92 327.08 C 141.79 323.97 143.72 321.50 146.93 321.45 C 154.57 322.95 161.97 325.57 169.65 326.94 C 178.76 308.05 188.09 289.27 197.16 270.36 Z" />
<path fill="#ffcb19" opacity="1.00" d=" M 141.81 327.98 C 161.51 335.33 181.67 341.43 202.00 346.80 C 204.42 345.19 206.81 343.53 209.17 341.83 C 208.65 346.87 210.98 351.34 213.61 355.44 C 210.46 357.31 207.26 359.08 204.24 361.16 C 201.14 363.28 197.91 360.27 194.88 359.52 C 188.97 358.09 183.86 354.53 177.95 353.04 C 170.18 349.68 162.05 347.24 154.34 343.68 C 150.98 342.02 147.27 341.27 143.69 340.22 C 143.31 339.82 142.55 339.02 142.17 338.62 C 140.04 338.16 137.91 337.66 135.77 337.22 C 138.05 334.32 140.09 331.24 141.81 327.98 Z" />
</svg>
