<?xml version="1.0" encoding="UTF-8" ?>
<!DOCTYPE svg PUBLIC "-//W3C//DTD SVG 1.1//EN" "http://www.w3.org/Graphics/SVG/1.1/DTD/svg11.dtd">
<svg width="512pt" height="512pt" viewBox="0 0 512 512" version="1.1" xmlns="http://www.w3.org/2000/svg">
<path fill="#55ac45" opacity="1.00" d=" M 0.00 0.00 L 512.00 0.00 L 512.00 512.00 L 0.00 512.00 L 0.00 0.00 Z" />
<path fill="#ffffff" opacity="1.00" d=" M 173.98 141.29 C 183.25 141.26 192.52 141.21 201.78 141.32 C 202.36 145.18 202.10 149.09 202.13 152.98 C 202.17 177.00 202.07 201.02 202.18 225.03 C 202.32 241.09 203.96 258.16 213.07 271.89 C 219.43 281.71 230.48 287.72 241.92 289.28 C 255.42 290.86 270.25 289.98 281.63 281.73 C 293.03 273.63 298.08 259.47 299.47 246.05 C 299.80 240.04 300.46 234.03 300.27 228.00 C 300.33 199.12 300.10 170.23 300.37 141.35 C 309.74 141.27 319.12 141.10 328.49 141.45 C 328.69 182.63 328.51 223.81 328.56 264.99 C 328.60 270.91 328.34 276.87 329.19 282.75 C 329.80 286.53 330.95 290.50 333.88 293.17 C 336.81 295.96 341.65 296.41 345.03 294.15 C 348.94 291.71 350.70 287.25 352.86 283.40 C 354.76 284.20 356.64 285.03 358.52 285.88 C 358.01 293.46 354.64 300.86 349.57 306.50 C 344.43 312.18 336.67 315.36 329.02 314.72 C 321.51 315.14 313.82 311.53 309.87 305.04 C 304.00 295.58 302.76 284.13 302.07 273.26 C 296.63 284.89 289.09 295.91 278.69 303.67 C 267.34 312.05 252.89 315.40 238.94 314.70 C 223.56 315.22 207.39 309.00 198.63 295.89 C 199.64 316.99 201.61 338.06 204.05 359.06 C 204.83 367.37 206.73 375.55 207.40 383.85 C 196.75 389.63 186.23 395.69 175.56 401.44 C 173.49 402.66 171.30 401.16 169.36 400.42 C 169.19 388.24 170.56 376.11 170.75 363.94 C 174.20 299.70 173.67 235.34 173.65 171.01 C 173.84 161.11 173.24 151.17 173.98 141.29 Z" />
</svg>
