<?xml version="1.0" encoding="UTF-8" ?>
<!DOCTYPE svg PUBLIC "-//W3C//DTD SVG 1.1//EN" "http://www.w3.org/Graphics/SVG/1.1/DTD/svg11.dtd">
<svg width="512pt" height="512pt" viewBox="0 0 512 512" version="1.1" xmlns="http://www.w3.org/2000/svg">
<path fill="#f67f00" opacity="1.00" d=" M 0.00 0.00 L 512.00 0.00 L 512.00 512.00 L 0.00 512.00 L 0.00 0.00 Z" />
<path fill="#ffffff" opacity="1.00" d=" M 243.78 113.81 C 247.64 112.12 251.96 112.55 256.06 112.45 C 260.32 112.54 264.81 112.13 268.80 113.90 C 271.92 115.79 272.91 119.55 274.21 122.71 C 277.24 131.71 279.75 140.88 282.54 149.97 C 283.56 151.98 280.91 152.71 279.56 153.31 C 270.96 155.91 261.89 156.30 252.98 156.37 C 245.05 155.31 236.20 155.92 229.30 151.24 C 232.71 140.97 235.20 130.41 238.99 120.27 C 239.98 117.77 241.16 114.99 243.78 113.81 Z" />
<path fill="#ffffff" opacity="1.00" d=" M 209.61 217.34 C 211.02 212.33 212.99 207.47 213.93 202.34 C 216.33 205.08 219.50 207.03 222.96 208.12 C 229.87 210.13 236.93 211.80 244.17 211.89 C 250.37 213.17 256.72 212.56 263.00 212.65 C 268.96 211.48 275.12 211.83 281.02 210.29 C 287.11 208.73 294.16 207.85 298.19 202.41 C 303.34 219.95 308.67 237.44 313.81 254.97 C 313.49 259.53 309.28 262.45 305.67 264.58 C 293.90 271.13 280.23 272.63 267.06 274.02 C 254.03 274.46 240.91 274.27 228.07 271.77 C 219.94 270.03 211.71 267.86 204.64 263.30 C 201.67 261.31 199.34 258.43 198.25 255.00 C 200.80 248.29 202.41 241.27 204.52 234.42 C 206.38 228.77 208.02 223.06 209.61 217.34 Z" />
<path fill="#ffffff" opacity="1.00" d=" M 162.18 293.23 C 170.32 292.30 178.54 292.33 186.72 292.30 C 185.07 296.37 183.41 301.23 185.55 305.44 C 188.74 312.40 195.71 316.47 202.32 319.66 C 222.66 328.40 245.25 330.00 267.11 329.22 C 283.04 327.70 299.35 325.33 313.68 317.76 C 319.18 314.83 324.51 310.73 327.04 304.87 C 328.19 300.66 327.11 296.24 325.44 292.31 C 333.87 292.34 342.34 292.28 350.72 293.34 C 354.16 294.36 355.01 298.29 356.04 301.26 C 364.23 327.56 372.45 353.85 380.46 380.20 C 381.99 385.96 384.66 392.60 381.41 398.24 C 378.05 400.42 373.74 399.94 369.92 400.36 C 300.27 400.42 230.63 400.37 160.99 400.38 C 151.69 400.18 142.29 401.00 133.08 399.37 C 131.69 399.16 130.92 397.85 129.89 397.06 C 128.22 389.20 131.58 381.70 133.56 374.26 C 141.40 349.45 148.85 324.54 156.75 299.76 C 157.59 297.02 158.80 293.49 162.18 293.23 Z" />
</svg>
