<?xml version="1.0" encoding="UTF-8" ?>
<!DOCTYPE svg PUBLIC "-//W3C//DTD SVG 1.1//EN" "http://www.w3.org/Graphics/SVG/1.1/DTD/svg11.dtd">
<svg width="512pt" height="512pt" viewBox="0 0 512 512" version="1.1" xmlns="http://www.w3.org/2000/svg">
<path fill="#00a9ec" opacity="1.00" d=" M 0.00 0.00 L 512.00 0.00 L 512.00 512.00 L 0.00 512.00 L 0.00 0.00 Z" />
<path fill="#ffffff" opacity="1.00" d=" M 240.60 103.77 C 269.11 100.91 298.42 106.11 324.06 118.94 C 354.42 133.98 379.45 159.42 394.06 189.98 C 410.33 223.85 413.61 263.74 402.66 299.73 C 394.05 328.98 376.28 355.40 352.65 374.65 C 321.01 400.61 278.64 413.07 238.00 407.95 C 202.97 403.96 169.60 387.20 145.35 361.62 C 125.91 341.33 112.19 315.61 106.40 288.09 C 99.25 255.04 103.49 219.67 118.29 189.26 C 131.77 161.48 153.83 137.96 180.73 122.78 C 199.07 112.35 219.62 105.88 240.60 103.77 Z" />
<path fill="#00a9ec" opacity="1.00" d=" M 242.54 124.78 C 267.35 122.17 292.93 126.59 315.27 137.75 C 339.32 149.65 359.55 169.05 372.51 192.53 C 384.19 213.58 389.81 237.90 388.86 261.94 C 387.81 285.50 380.63 308.87 367.61 328.59 C 353.12 351.00 331.69 368.83 307.02 378.99 C 284.38 388.39 259.08 391.18 234.91 387.18 C 205.87 382.60 178.67 367.68 158.87 345.98 C 142.30 327.96 130.74 305.27 126.41 281.14 C 122.08 259.17 123.79 236.13 130.72 214.88 C 140.03 186.52 159.33 161.60 184.39 145.41 C 201.74 133.98 221.88 126.91 242.54 124.78 Z" />
<path fill="#ffffff" opacity="1.00" d=" M 212.59 194.72 C 250.42 216.79 288.43 238.57 326.19 260.75 C 288.23 282.53 250.40 304.56 212.59 326.59 C 212.61 282.64 212.61 238.68 212.59 194.72 Z" />
</svg>
