<?xml version="1.0" encoding="UTF-8" ?>
<!DOCTYPE svg PUBLIC "-//W3C//DTD SVG 1.1//EN" "http://www.w3.org/Graphics/SVG/1.1/DTD/svg11.dtd">
<svg width="512pt" height="512pt" viewBox="0 0 512 512" version="1.1" xmlns="http://www.w3.org/2000/svg">
<path fill="#00a8ec" opacity="1.00" d=" M 0.00 0.00 L 512.00 0.00 L 512.00 512.00 L 0.00 512.00 L 0.00 0.00 Z" />
<path fill="#ffffff" opacity="1.00" d=" M 205.00 123.69 C 226.04 120.27 247.81 123.19 267.85 130.12 C 298.86 141.07 325.45 163.95 340.86 193.00 C 353.68 216.96 358.85 244.91 355.46 271.86 C 353.37 290.71 346.74 308.90 337.04 325.15 C 351.21 330.52 364.17 338.79 378.72 343.21 C 385.86 345.53 393.54 346.21 400.97 345.08 C 408.98 343.52 416.23 339.16 422.00 333.48 C 421.96 346.38 421.92 359.28 422.02 372.18 C 414.43 379.74 403.98 384.95 393.08 384.41 C 378.18 384.08 364.89 376.45 351.71 370.35 C 339.05 364.24 325.44 358.03 311.02 359.63 C 308.02 359.88 304.95 360.58 302.63 362.62 C 273.17 384.70 234.21 393.82 198.07 386.54 C 168.79 381.11 141.61 365.37 122.16 342.84 C 103.62 321.58 92.16 294.23 90.12 266.09 C 89.95 259.37 90.00 252.64 90.09 245.92 C 92.17 214.14 106.44 183.41 129.12 161.08 C 149.49 140.86 176.50 127.37 205.00 123.69 Z" />
<path fill="#00a8ec" opacity="1.00" d=" M 209.57 126.98 C 232.53 124.61 256.13 128.33 277.10 138.03 C 305.38 150.91 328.65 174.36 341.34 202.71 C 357.76 238.74 356.21 282.38 337.15 317.11 C 335.34 321.38 331.82 324.50 329.47 328.43 C 320.01 342.39 307.71 354.39 293.62 363.64 C 288.98 366.36 284.88 369.97 279.85 372.02 C 240.84 391.31 192.08 388.99 155.16 365.89 C 127.99 349.23 107.31 322.24 98.56 291.58 C 91.94 268.56 91.78 243.66 98.34 220.60 C 106.62 190.67 126.33 164.19 152.33 147.27 C 169.43 136.08 189.23 129.05 209.57 126.98 Z" />
<path fill="#ffffff" opacity="1.00" d=" M 123.32 194.43 C 143.48 160.96 181.51 138.70 220.70 138.74 C 220.73 168.49 220.71 198.25 220.72 228.01 C 220.62 236.48 220.94 244.96 220.51 253.43 C 182.35 253.23 144.18 253.41 106.01 253.34 C 106.68 232.65 112.36 212.06 123.32 194.43 Z" />
<path fill="#ffffff" opacity="1.00" d=" M 225.51 253.41 C 225.45 215.15 225.49 176.88 225.49 138.61 C 250.02 138.81 274.29 147.45 293.79 162.28 C 315.38 178.54 330.99 202.56 337.00 228.92 C 339.30 236.88 339.42 245.17 340.32 253.34 C 302.05 253.43 263.78 253.29 225.51 253.41 Z" />
<path fill="#00a8ec" opacity="1.00" d=" M 162.40 178.52 C 174.89 174.19 189.53 182.40 193.22 194.89 C 198.38 208.83 187.48 225.28 172.93 226.91 C 160.30 229.00 147.38 219.51 145.11 207.01 C 142.40 194.91 150.62 181.92 162.40 178.52 Z" />
<path fill="#00a8ec" opacity="1.00" d=" M 274.19 178.31 C 287.65 174.19 302.80 184.26 305.00 197.98 C 307.87 211.59 296.87 225.94 283.06 226.96 C 270.71 228.58 258.42 219.22 256.15 207.08 C 253.40 194.69 261.97 181.39 274.19 178.31 Z" />
<path fill="#ffffff" opacity="1.00" d=" M 106.11 257.82 C 143.78 257.88 181.44 257.83 219.11 257.83 C 221.19 257.29 220.53 259.78 220.71 260.92 C 220.67 298.22 220.83 335.52 220.63 372.82 C 201.10 372.31 181.64 367.17 164.76 357.26 C 142.17 344.31 124.10 323.62 114.50 299.40 C 109.11 286.23 106.47 272.03 106.11 257.82 Z" />
<path fill="#ffffff" opacity="1.00" d=" M 225.45 372.85 C 225.58 334.48 225.23 296.09 225.63 257.72 C 261.10 257.91 296.58 257.75 332.06 257.80 C 334.85 257.91 337.79 257.31 340.44 258.46 C 339.56 262.58 339.67 266.81 339.19 270.97 C 335.96 294.73 325.52 317.55 309.15 335.12 C 287.91 358.41 256.96 372.33 225.45 372.85 Z" />
<path fill="#00a8ec" opacity="1.00" d=" M 164.47 288.59 C 169.32 287.94 174.47 287.89 178.99 290.03 C 190.24 294.47 197.20 307.98 193.47 319.63 C 190.59 330.17 180.05 338.39 169.00 337.63 C 155.61 338.03 143.93 325.22 144.63 312.02 C 145.00 300.91 153.64 290.87 164.47 288.59 Z" />
<path fill="#00a8ec" opacity="1.00" d=" M 275.45 288.64 C 280.31 287.93 285.48 287.96 290.03 290.05 C 300.67 294.39 307.52 306.70 304.84 318.01 C 302.57 329.26 291.67 338.38 280.05 337.65 C 265.56 338.05 253.28 323.17 256.00 309.02 C 257.60 299.12 265.64 290.70 275.45 288.64 Z" />
</svg>
