<?xml version="1.0" encoding="UTF-8" ?>
<!DOCTYPE svg PUBLIC "-//W3C//DTD SVG 1.1//EN" "http://www.w3.org/Graphics/SVG/1.1/DTD/svg11.dtd">
<svg width="512pt" height="512pt" viewBox="0 0 512 512" version="1.1" xmlns="http://www.w3.org/2000/svg">
<path fill="#f57900" opacity="1.00" d=" M 0.00 0.00 L 512.00 0.00 L 512.00 512.00 L 0.00 512.00 L 0.00 0.00 Z" />
<path fill="#ffffff" opacity="1.00" d=" M 126.75 150.14 C 197.36 150.17 267.96 150.17 338.57 150.14 C 338.57 220.71 338.57 291.29 338.57 361.86 C 267.97 361.83 197.36 361.83 126.75 361.86 C 126.74 291.29 126.74 220.71 126.75 150.14 Z" />
<path fill="#ffffff" opacity="1.00" d=" M 344.64 150.14 C 350.47 150.19 356.30 150.11 362.14 150.19 C 362.13 220.73 362.14 291.27 362.14 361.80 C 356.30 361.89 350.47 361.81 344.64 361.86 C 344.62 291.29 344.62 220.71 344.64 150.14 Z" />
<path fill="#ffffff" opacity="1.00" d=" M 367.80 150.20 C 373.61 150.09 379.43 150.20 385.24 150.14 C 385.26 220.71 385.26 291.29 385.25 361.86 C 379.43 361.80 373.61 361.90 367.80 361.80 C 367.80 291.27 367.80 220.74 367.80 150.20 Z" />
<path fill="#f57900" opacity="1.00" d=" M 219.44 174.69 C 238.36 171.54 258.34 175.35 274.78 185.23 C 290.08 194.30 302.30 208.46 308.98 224.96 C 315.15 239.95 316.62 256.78 313.38 272.64 C 310.15 288.46 302.13 303.27 290.59 314.57 C 277.65 327.53 260.21 335.89 242.01 337.89 C 221.29 340.39 199.73 334.48 183.12 321.86 C 169.98 312.02 159.91 298.14 154.64 282.59 C 147.80 262.65 149.02 240.08 158.05 221.02 C 169.29 196.75 192.99 178.78 219.44 174.69 Z" />
<path fill="#ffffff" opacity="1.00" d=" M 186.33 191.63 C 217.05 213.07 247.91 234.30 278.74 255.59 C 278.76 255.79 278.80 256.21 278.82 256.41 C 247.97 277.72 217.09 298.99 186.32 320.41 C 186.29 277.48 186.28 234.56 186.33 191.63 Z" />
</svg>
