<?xml version="1.0" encoding="UTF-8" ?>
<!DOCTYPE svg PUBLIC "-//W3C//DTD SVG 1.1//EN" "http://www.w3.org/Graphics/SVG/1.1/DTD/svg11.dtd">
<svg width="512pt" height="512pt" viewBox="0 0 512 512" version="1.1" xmlns="http://www.w3.org/2000/svg">
<path fill="#019601" opacity="1.00" d=" M 0.00 0.00 L 512.00 0.00 L 512.00 512.00 L 0.00 512.00 L 0.00 0.00 Z" />
<path fill="#ffffff" opacity="1.00" d=" M 208.22 132.30 C 214.97 126.30 223.93 122.53 233.05 123.07 C 243.98 122.50 254.51 128.72 260.49 137.66 C 265.71 144.92 267.65 154.15 266.98 162.98 C 266.77 168.76 266.72 174.55 266.57 180.34 C 264.58 180.75 262.58 181.16 260.59 181.56 C 260.73 174.38 260.76 167.19 260.86 160.01 C 260.91 148.12 253.64 136.02 242.20 131.95 C 237.89 130.68 233.33 129.24 228.83 130.38 C 217.67 132.02 207.94 139.74 203.12 149.83 C 201.33 153.25 200.09 157.01 200.16 160.91 C 200.07 171.78 200.14 182.66 200.16 193.54 C 197.74 194.06 195.30 194.52 192.86 194.98 C 192.88 184.64 192.84 174.30 192.86 163.96 C 192.84 151.77 199.14 140.16 208.22 132.30 Z" />
<path fill="#ffffff" opacity="1.00" d=" M 265.98 141.43 C 276.15 141.32 286.78 146.21 291.76 155.37 C 295.35 161.12 293.80 168.17 294.26 174.56 C 292.62 175.10 290.91 175.35 289.22 175.57 C 289.10 170.39 290.17 164.95 288.01 160.04 C 285.09 152.17 276.94 147.64 268.97 146.52 C 267.92 144.85 266.89 143.17 265.98 141.43 Z" />
<path fill="#ffffff" opacity="1.00" d=" M 249.60 145.67 C 250.89 144.83 252.38 144.44 253.90 144.24 C 254.64 145.56 255.41 146.87 256.18 148.18 C 249.60 150.93 243.56 155.68 240.64 162.34 C 237.52 169.73 239.64 177.83 239.22 185.57 C 237.36 186.05 235.47 186.37 233.58 186.66 C 234.33 178.54 232.21 170.14 234.73 162.24 C 237.38 155.10 243.04 149.40 249.60 145.67 Z" />
<path fill="#ffffff" opacity="1.00" d=" M 142.86 213.90 C 206.56 201.20 270.26 188.56 333.96 175.87 C 345.58 180.46 357.46 184.36 369.16 188.78 C 369.11 250.60 369.10 312.43 369.16 374.25 C 357.16 378.91 345.18 383.63 333.14 388.18 C 331.16 388.55 329.15 388.11 327.20 387.80 C 265.76 375.53 204.30 363.36 142.86 351.11 C 142.88 305.37 142.88 259.63 142.86 213.90 Z" />
<path fill="#019601" opacity="1.00" d=" M 226.10 237.11 C 244.03 233.56 261.94 229.94 279.86 226.37 C 281.85 225.91 283.90 226.05 285.88 226.51 C 285.90 243.65 285.81 260.79 285.92 277.92 C 265.97 277.84 246.02 277.84 226.08 277.92 C 226.17 264.32 226.12 250.71 226.10 237.11 Z" />
<path fill="#019601" opacity="1.00" d=" M 183.11 246.10 C 195.71 243.44 208.34 240.88 220.92 238.09 C 220.85 251.36 220.84 264.64 220.92 277.92 C 208.31 277.84 195.69 277.84 183.08 277.92 C 183.17 267.32 183.12 256.71 183.11 246.10 Z" />
<path fill="#019601" opacity="1.00" d=" M 183.08 282.08 C 195.69 282.16 208.31 282.16 220.92 282.08 C 220.84 295.69 220.85 309.31 220.92 322.92 C 208.34 320.12 195.71 317.56 183.11 314.90 C 183.12 303.96 183.17 293.02 183.08 282.08 Z" />
<path fill="#019601" opacity="1.00" d=" M 226.08 282.08 C 246.03 282.16 265.98 282.16 285.92 282.08 C 285.84 299.69 285.85 317.31 285.92 334.93 C 266.01 331.11 246.04 327.57 226.11 323.90 C 226.12 309.96 226.18 296.02 226.08 282.08 Z" />
</svg>
