<?xml version="1.0" encoding="UTF-8" ?>
<!DOCTYPE svg PUBLIC "-//W3C//DTD SVG 1.1//EN" "http://www.w3.org/Graphics/SVG/1.1/DTD/svg11.dtd">
<svg width="512pt" height="512pt" viewBox="0 0 512 512" version="1.1" xmlns="http://www.w3.org/2000/svg">
<path fill="#8c0496" opacity="1.00" d=" M 0.00 0.00 L 512.00 0.00 L 512.00 512.00 L 0.00 512.00 L 0.00 0.00 Z" />
<path fill="#ffffff" opacity="1.00" d=" M 130.32 152.93 C 130.60 141.26 141.30 131.32 152.90 131.37 C 221.95 131.40 291.01 131.36 360.07 131.39 C 371.40 131.88 381.16 141.69 381.77 152.98 C 381.78 195.98 381.78 238.99 381.78 281.99 C 381.64 286.96 382.41 292.11 380.53 296.87 C 377.79 305.63 369.19 312.18 360.01 312.40 C 337.15 312.41 314.28 312.34 291.42 312.44 C 298.36 335.62 305.26 358.83 311.97 382.09 C 292.59 368.16 273.53 353.78 254.20 339.78 C 241.12 330.86 228.03 321.95 214.97 313.00 C 213.85 312.10 212.32 312.46 211.01 312.36 C 191.34 312.44 171.66 312.36 151.99 312.40 C 140.71 312.23 130.58 302.31 130.32 291.00 C 130.31 244.98 130.31 198.96 130.32 152.93 Z" />
<path fill="#8c0496" opacity="1.00" d=" M 297.85 169.58 C 300.93 169.55 304.02 169.53 307.11 169.54 C 317.92 182.02 324.45 198.04 325.75 214.48 C 328.24 236.77 322.37 260.57 307.13 277.45 C 304.08 277.46 301.03 277.44 297.99 277.38 C 323.88 247.69 323.54 199.28 297.85 169.58 Z" />
<path fill="#8c0496" opacity="1.00" d=" M 204.35 185.64 C 210.16 183.47 217.62 184.25 221.93 189.03 C 224.62 191.89 224.35 196.83 221.49 199.48 C 215.11 205.57 202.61 204.97 198.09 196.94 C 195.88 192.12 199.89 187.19 204.35 185.64 Z" />
<path fill="#8c0496" opacity="1.00" d=" M 237.54 215.39 C 250.44 215.42 263.35 215.37 276.25 215.42 C 276.22 219.21 276.22 223.00 276.24 226.80 C 263.35 226.82 250.45 226.76 237.56 226.83 C 237.57 223.02 237.57 219.20 237.54 215.39 Z" />
<path fill="#8c0496" opacity="1.00" d=" M 204.29 240.53 C 210.12 238.36 217.65 239.09 221.96 243.95 C 224.71 246.81 224.28 251.80 221.42 254.44 C 216.06 259.32 207.29 259.69 201.37 255.59 C 199.32 254.05 197.36 251.77 197.55 249.04 C 197.28 244.97 200.82 241.90 204.29 240.53 Z" />
</svg>
