<?xml version="1.0" encoding="UTF-8" ?>
<!DOCTYPE svg PUBLIC "-//W3C//DTD SVG 1.1//EN" "http://www.w3.org/Graphics/SVG/1.1/DTD/svg11.dtd">
<svg width="512pt" height="512pt" viewBox="0 0 512 512" version="1.1" xmlns="http://www.w3.org/2000/svg">
<path fill="#ac193d" opacity="1.00" d=" M 0.00 0.00 L 512.00 0.00 L 512.00 512.00 L 0.00 512.00 L 0.00 0.00 Z" />
<path fill="#ffffff" opacity="1.00" d=" M 151.00 176.00 C 215.33 176.00 279.67 176.00 344.00 176.00 C 344.00 182.33 343.99 188.67 344.00 195.00 C 349.70 195.00 355.40 195.00 361.10 195.00 C 354.38 242.32 348.11 289.73 341.32 337.04 C 277.88 336.94 214.44 337.03 151.00 337.00 C 151.00 283.33 151.00 229.67 151.00 176.00 Z" />
<path fill="#ac193d" opacity="1.00" d=" M 175.00 199.00 C 221.67 199.00 268.33 199.00 315.00 199.00 C 315.00 206.00 315.00 213.00 315.00 220.00 C 268.33 220.00 221.67 220.00 175.00 220.00 C 175.00 213.00 175.00 206.00 175.00 199.00 Z" />
<path fill="#ac193d" opacity="1.00" d=" M 175.00 229.00 C 215.67 229.00 256.33 229.00 297.00 229.00 C 297.00 236.33 297.00 243.67 297.00 251.00 C 256.33 251.00 215.67 251.00 175.00 251.00 C 175.00 243.66 175.00 236.33 175.00 229.00 Z" />
<path fill="#ac193d" opacity="1.00" d=" M 175.00 268.00 C 194.67 268.00 214.33 268.00 234.00 268.00 C 234.00 284.00 234.00 300.00 234.00 316.00 C 214.33 316.00 194.67 316.00 175.00 316.00 C 175.00 300.00 175.00 284.00 175.00 268.00 Z" />
<path fill="#ac193d" opacity="1.00" d=" M 251.00 268.00 C 272.00 268.00 293.00 268.00 314.00 268.00 C 314.00 272.00 314.00 276.00 314.00 280.00 C 293.00 280.00 272.00 280.00 251.00 280.00 C 251.00 276.00 251.00 272.00 251.00 268.00 Z" />
<path fill="#ac193d" opacity="1.00" d=" M 251.00 288.00 C 272.00 288.00 293.00 288.00 314.00 288.00 C 314.00 291.33 314.00 294.66 314.00 298.00 C 293.00 298.00 272.00 298.00 251.00 298.00 C 251.00 294.66 251.00 291.33 251.00 288.00 Z" />
<path fill="#ac193d" opacity="1.00" d=" M 251.00 306.00 C 272.00 306.00 293.00 306.00 314.00 306.00 C 314.00 309.67 314.00 313.33 314.00 317.00 C 293.00 317.00 272.00 317.00 251.00 317.00 C 251.00 313.33 251.00 309.67 251.00 306.00 Z" />
</svg>
