<?xml version="1.0" encoding="UTF-8" ?>
<!DOCTYPE svg PUBLIC "-//W3C//DTD SVG 1.1//EN" "http://www.w3.org/Graphics/SVG/1.1/DTD/svg11.dtd">
<svg width="512pt" height="512pt" viewBox="0 0 512 512" version="1.1" xmlns="http://www.w3.org/2000/svg">
<path fill="#4577a4" opacity="1.00" d=" M 0.00 0.00 L 512.00 0.00 L 512.00 512.00 L 0.00 512.00 L 0.00 0.00 Z" />
<path fill="#ffffff" opacity="1.00" d=" M 145.04 117.34 C 219.01 117.34 292.98 117.34 366.95 117.34 C 366.88 128.16 366.90 138.97 366.94 149.79 C 292.98 149.79 219.02 149.78 145.07 149.79 C 145.09 138.98 145.13 128.16 145.04 117.34 Z" />
<path fill="#ffffff" opacity="1.00" d=" M 149.59 159.37 C 220.35 159.35 291.11 159.37 361.87 159.36 C 361.79 215.61 361.87 271.86 361.83 328.11 C 350.55 330.87 339.28 333.73 328.00 336.53 C 326.20 336.67 326.14 338.82 325.64 340.13 C 322.90 350.90 320.36 361.72 317.50 372.45 C 261.54 372.37 205.57 372.44 149.61 372.42 C 149.62 301.40 149.67 230.39 149.59 159.37 Z" />
<path fill="#4577a4" opacity="1.00" d=" M 200.50 186.42 C 206.20 186.59 211.91 186.28 217.61 186.55 C 217.77 186.79 218.10 187.28 218.26 187.53 C 225.96 209.12 233.54 230.76 241.36 252.31 C 236.05 252.33 230.75 252.23 225.44 252.39 C 223.52 247.54 222.28 242.46 220.46 237.58 C 212.64 237.70 204.82 237.55 197.00 237.67 C 195.48 242.57 193.97 247.48 192.29 252.33 C 186.98 252.28 181.67 252.31 176.36 252.31 C 184.54 230.40 192.32 208.33 200.50 186.42 Z" />
<path fill="#4577a4" opacity="1.00" d=" M 250.93 200.83 C 250.92 196.76 250.39 192.62 251.30 188.62 C 276.00 188.89 300.71 188.67 325.41 188.73 C 325.42 192.76 325.42 196.79 325.42 200.82 C 300.59 200.79 275.76 200.78 250.93 200.83 Z" />
<path fill="#ffffff" opacity="1.00" d=" M 208.90 197.69 C 210.35 207.60 214.54 216.81 217.17 226.42 C 211.51 226.45 205.84 226.43 200.18 226.44 C 203.00 216.83 206.64 207.46 208.90 197.69 Z" />
<path fill="#4577a4" opacity="1.00" d=" M 251.34 227.87 C 251.38 223.81 251.26 219.75 251.48 215.70 C 276.12 215.92 300.76 215.75 325.40 215.78 C 325.42 219.81 325.41 223.83 325.42 227.85 C 300.73 227.83 276.04 227.80 251.34 227.87 Z" />
<path fill="#4577a4" opacity="1.00" d=" M 251.31 242.96 C 276.00 242.70 300.70 242.93 325.40 242.85 C 325.42 246.97 325.43 251.09 325.39 255.22 C 306.92 254.67 288.45 255.20 269.96 255.10 C 263.83 254.56 257.68 255.02 251.55 255.27 C 251.17 251.18 251.45 247.06 251.31 242.96 Z" />
<path fill="#4577a4" opacity="1.00" d=" M 176.72 267.30 C 226.31 267.36 275.91 267.21 325.50 267.37 C 325.38 271.20 325.40 275.04 325.42 278.87 C 275.85 278.81 226.28 278.87 176.71 278.84 C 176.71 274.99 176.71 271.15 176.72 267.30 Z" />
<path fill="#4577a4" opacity="1.00" d=" M 176.69 294.39 C 226.27 294.33 275.85 294.38 325.44 294.36 C 325.41 298.28 325.42 302.21 325.40 306.13 C 278.92 306.06 232.45 306.13 185.97 306.09 C 182.87 306.04 179.76 306.20 176.66 305.90 C 176.74 302.06 176.72 298.22 176.69 294.39 Z" />
<path fill="#4577a4" opacity="1.00" d=" M 176.70 321.44 C 226.28 321.39 275.86 321.43 325.44 321.42 C 325.41 325.34 325.41 329.27 325.41 333.19 C 275.85 333.18 226.29 333.19 176.73 333.19 C 176.71 329.27 176.72 325.35 176.70 321.44 Z" />
<path fill="#ffffff" opacity="1.00" d=" M 329.36 339.57 C 338.97 337.45 348.41 334.58 358.06 332.68 C 348.84 342.25 339.29 351.51 329.94 360.95 C 327.34 363.35 325.17 366.26 322.18 368.20 C 324.45 358.63 326.73 349.05 329.36 339.57 Z" />
<path fill="#ffffff" opacity="1.00" d=" M 354.71 340.75 C 357.13 338.38 359.36 335.78 362.10 333.75 C 361.52 350.40 361.98 367.08 361.86 383.74 C 291.11 383.75 220.36 383.71 149.62 383.76 C 149.62 381.10 149.62 378.43 149.63 375.78 C 206.31 375.76 263.00 375.81 319.68 375.75 C 331.37 364.10 343.03 352.41 354.71 340.75 Z" />
<path fill="#ffffff" opacity="1.00" d=" M 149.60 387.32 C 220.35 387.29 291.10 387.32 361.86 387.31 C 361.85 389.75 361.85 392.20 361.86 394.66 C 291.11 394.65 220.35 394.67 149.60 394.65 C 149.61 392.20 149.61 389.76 149.60 387.32 Z" />
</svg>
