<?xml version="1.0" encoding="UTF-8" ?>
<!DOCTYPE svg PUBLIC "-//W3C//DTD SVG 1.1//EN" "http://www.w3.org/Graphics/SVG/1.1/DTD/svg11.dtd">
<svg width="512pt" height="512pt" viewBox="0 0 512 512" version="1.1" xmlns="http://www.w3.org/2000/svg">
<path fill="#175e88" opacity="1.00" d=" M 0.00 0.00 L 512.00 0.00 L 512.00 512.00 L 0.00 512.00 L 0.00 0.00 Z" />
<path fill="#ffffff" opacity="1.00" d=" M 368.45 136.69 C 371.47 136.28 374.59 135.93 377.59 136.62 C 379.46 137.02 380.92 139.11 379.88 140.95 C 377.66 146.13 372.45 149.11 367.72 151.70 C 350.72 160.74 333.09 168.50 315.58 176.46 C 295.92 185.93 275.87 194.58 256.40 204.44 C 249.19 208.32 241.67 212.07 235.88 217.97 C 232.44 221.30 231.41 226.12 229.64 230.40 C 227.33 236.05 228.66 242.23 228.11 248.13 C 227.48 253.58 226.50 259.37 222.78 263.66 C 219.68 267.84 214.33 269.20 209.49 270.18 C 197.36 272.36 185.09 273.58 172.94 275.55 C 164.93 277.38 157.08 281.36 152.05 288.04 C 148.57 292.20 146.24 297.51 141.55 300.53 C 139.44 302.25 136.34 300.96 134.95 298.94 C 133.60 296.91 133.45 294.40 133.18 292.05 C 132.53 286.41 132.82 280.62 134.47 275.17 C 138.85 261.75 146.40 249.72 153.82 237.82 C 158.49 230.37 163.84 223.27 170.39 217.36 C 180.32 208.10 192.50 201.87 204.19 195.19 C 208.40 192.74 212.27 189.72 216.60 187.47 C 222.23 184.45 228.37 182.62 234.38 180.53 C 271.30 168.87 307.43 154.88 344.35 143.23 C 352.29 140.72 360.24 138.13 368.45 136.69 Z" />
<path fill="#ffffff" opacity="1.00" d=" M 162.96 289.00 C 174.80 281.93 188.52 278.81 202.05 277.01 C 211.67 275.53 221.23 278.01 230.55 280.14 C 235.35 281.29 240.45 280.88 245.07 282.78 C 269.38 291.64 293.58 300.84 317.57 310.53 C 324.73 313.51 331.96 316.38 338.84 319.97 C 340.81 320.92 342.42 322.42 343.84 324.07 C 341.85 325.58 339.43 326.33 336.95 326.40 C 329.94 326.70 322.83 326.73 315.95 325.18 C 304.12 322.74 292.53 319.27 280.90 316.05 C 268.97 313.33 257.18 309.90 245.10 307.88 C 240.67 307.25 235.88 306.73 231.71 308.76 C 227.18 310.59 224.98 315.36 221.01 317.97 C 217.40 320.34 213.52 323.39 208.93 322.77 C 197.20 318.69 188.05 308.90 175.72 306.31 C 167.00 304.25 157.74 308.52 149.29 305.17 C 152.45 298.83 156.65 292.55 162.96 289.00 Z" />
<path fill="#ffffff" opacity="1.00" d=" M 168.54 314.75 C 179.01 313.88 190.55 314.04 199.41 320.52 C 213.32 330.24 223.19 344.43 232.84 358.12 C 235.79 362.60 239.03 366.98 241.02 372.00 C 241.71 373.57 241.79 376.08 239.81 376.70 C 236.42 377.41 233.38 375.19 230.97 373.09 C 221.92 364.77 214.11 355.18 204.96 346.96 C 202.65 344.91 200.11 342.82 196.99 342.21 C 193.28 341.54 189.36 343.96 185.82 342.21 C 181.85 339.31 179.22 334.94 177.31 330.49 C 174.90 325.38 168.51 324.73 164.72 321.08 C 162.80 318.44 166.11 315.46 168.54 314.75 Z" />
</svg>
