<?xml version="1.0" encoding="UTF-8" ?>
<!DOCTYPE svg PUBLIC "-//W3C//DTD SVG 1.1//EN" "http://www.w3.org/Graphics/SVG/1.1/DTD/svg11.dtd">
<svg width="512pt" height="512pt" viewBox="0 0 512 512" version="1.1" xmlns="http://www.w3.org/2000/svg">
<path fill="#04a4f2" opacity="1.00" d=" M 0.00 0.00 L 512.00 0.00 L 512.00 512.00 L 0.00 512.00 L 0.00 0.00 Z" />
<path fill="#ffffff" opacity="1.00" d=" M 152.47 135.68 C 154.12 131.81 158.00 129.95 161.76 128.71 C 225.60 128.69 289.43 128.73 353.26 128.67 C 357.67 130.33 361.85 133.92 361.78 139.01 C 361.85 200.99 361.44 262.98 361.90 324.97 C 361.78 327.63 362.29 330.50 361.06 332.97 C 359.52 336.61 355.64 338.74 351.92 339.42 C 347.06 338.84 343.10 335.65 339.82 332.24 C 323.89 316.13 307.80 300.19 291.76 284.19 C 280.54 274.72 270.92 263.51 260.16 253.55 C 257.79 252.87 255.68 254.46 254.08 256.00 C 228.01 281.96 202.04 308.03 176.14 334.16 C 173.29 336.73 170.07 339.92 165.93 339.61 C 158.38 339.10 152.43 332.36 151.19 325.17 C 152.24 322.13 153.11 318.83 155.55 316.56 C 167.09 305.07 178.61 293.55 190.11 282.01 C 192.28 279.86 194.94 278.29 197.06 276.08 C 209.16 263.85 221.42 251.78 233.54 239.58 C 235.19 237.84 237.18 236.35 238.34 234.22 C 238.88 232.60 237.29 231.66 236.48 230.58 C 224.95 218.76 212.71 207.61 201.85 195.17 C 186.40 179.95 171.29 164.39 155.88 149.12 C 152.48 145.76 149.57 140.24 152.47 135.68 Z" />
<path fill="#04a4f2" opacity="1.00" d=" M 201.16 155.45 C 239.02 155.49 276.88 155.49 314.75 155.47 C 314.74 155.97 314.72 156.99 314.71 157.50 C 309.56 161.81 306.00 167.58 301.03 172.06 C 287.19 185.95 273.26 199.73 259.49 213.68 C 258.98 213.70 257.95 213.72 257.43 213.73 C 238.79 194.94 220.06 176.24 201.30 157.58 C 201.26 157.05 201.19 155.98 201.16 155.45 Z" />
<path fill="#04a4f2" opacity="1.00" d=" M 332.52 178.50 C 333.50 177.40 334.91 176.93 336.26 176.44 C 336.39 214.24 336.28 252.04 336.31 289.84 C 335.04 289.55 333.70 289.25 332.85 288.17 C 315.05 270.26 297.12 252.48 279.33 234.57 C 277.49 232.94 279.09 230.70 280.55 229.51 C 287.21 223.20 293.20 216.14 300.48 210.52 C 311.20 199.88 321.84 189.17 332.52 178.50 Z" />
<path fill="#ffffff" opacity="1.00" d=" M 103.80 317.38 C 117.02 317.38 130.24 317.25 143.45 317.44 C 139.79 325.56 142.74 335.14 148.62 341.40 C 154.62 347.25 163.82 351.22 172.09 348.24 C 176.20 347.19 179.57 344.42 182.55 341.53 C 189.69 334.38 196.84 327.25 204.03 320.15 C 205.47 318.95 206.81 317.02 208.95 317.35 C 242.31 317.37 275.68 317.34 309.05 317.36 C 310.63 317.07 311.70 318.29 312.74 319.26 C 320.15 326.53 327.52 333.83 334.89 341.13 C 339.89 346.59 347.29 349.59 354.70 348.83 C 354.28 356.83 354.57 364.85 354.51 372.86 C 355.77 372.76 357.03 372.71 358.31 372.71 C 358.25 369.97 358.24 367.23 358.39 364.51 C 360.61 367.02 362.33 369.90 364.03 372.78 C 365.46 372.74 366.89 372.72 368.32 372.70 C 366.49 369.62 364.55 366.61 362.46 363.69 C 364.27 361.54 366.11 359.42 367.87 357.23 C 366.36 357.17 364.86 357.15 363.37 357.16 C 361.94 359.43 360.33 361.58 358.40 363.44 C 358.05 359.07 358.54 354.68 358.10 350.33 C 357.60 350.02 356.60 349.40 356.10 349.09 C 356.27 348.83 356.60 348.30 356.77 348.04 C 363.37 346.71 368.93 341.37 370.68 334.89 C 372.46 329.22 371.57 323.22 371.73 317.39 C 383.90 317.37 396.07 317.26 408.23 317.44 C 413.48 339.13 419.11 360.72 424.35 382.41 C 312.12 382.44 199.89 382.43 87.67 382.41 C 92.82 360.68 98.46 339.06 103.80 317.38 Z" />
<path fill="#04a4f2" opacity="1.00" d=" M 196.41 350.40 C 197.72 350.08 200.01 350.18 199.71 352.11 C 200.17 354.51 196.82 354.89 195.43 353.65 C 195.23 352.63 194.94 350.48 196.41 350.40 Z" />
<path fill="#04a4f2" opacity="1.00" d=" M 232.56 349.77 C 233.51 349.77 235.40 349.76 236.35 349.76 C 236.40 357.38 236.32 364.99 236.40 372.61 C 235.43 372.72 234.46 372.83 233.49 372.94 C 233.41 372.42 233.24 371.39 233.16 370.87 C 230.80 372.15 228.04 374.32 225.29 372.72 C 222.30 371.48 221.73 367.84 221.62 364.99 C 221.66 361.91 222.63 357.95 225.98 356.95 C 228.24 355.93 230.48 357.43 232.58 358.16 C 232.53 355.36 232.56 352.57 232.56 349.77 Z" />
<path fill="#04a4f2" opacity="1.00" d=" M 143.50 351.46 C 144.97 351.37 146.45 351.31 147.93 351.27 C 149.33 353.92 150.72 356.59 152.12 359.25 C 153.73 356.68 155.13 353.99 156.47 351.27 C 157.85 351.32 159.24 351.39 160.63 351.48 C 158.88 354.94 156.62 358.16 155.21 361.80 C 156.78 365.58 159.13 368.99 160.95 372.66 C 159.41 372.71 157.87 372.76 156.33 372.79 C 155.10 370.27 154.01 367.67 152.51 365.29 C 152.19 365.29 151.56 365.28 151.25 365.27 C 149.78 367.68 148.70 370.29 147.42 372.80 C 145.97 372.79 144.52 372.74 143.08 372.67 C 144.99 369.06 147.26 365.63 148.90 361.88 C 147.48 358.23 145.25 354.95 143.50 351.46 Z" />
<path fill="#04a4f2" opacity="1.00" d=" M 162.44 351.49 C 163.79 351.38 165.14 351.26 166.49 351.12 C 167.89 356.45 169.18 361.81 170.10 367.24 C 170.49 367.04 171.27 366.65 171.66 366.45 C 173.18 361.47 173.89 356.27 175.42 351.28 C 176.78 351.28 178.14 351.29 179.51 351.31 C 181.12 356.31 181.75 361.58 183.43 366.55 C 183.80 366.74 184.52 367.11 184.89 367.29 C 185.94 361.93 187.15 356.60 188.42 351.29 C 189.65 351.29 190.88 351.31 192.11 351.33 C 190.49 358.55 188.54 365.70 186.48 372.81 C 184.71 372.80 182.94 372.77 181.17 372.71 C 180.03 368.04 178.72 363.42 177.88 358.69 C 176.94 359.15 176.39 359.90 176.25 360.94 C 175.28 364.87 174.41 368.83 173.38 372.75 C 171.60 372.78 169.82 372.78 168.03 372.76 C 166.11 365.68 164.40 358.56 162.44 351.49 Z" />
<path fill="#04a4f2" opacity="1.00" d=" M 300.19 351.31 C 305.13 351.48 310.96 350.44 314.93 354.12 C 319.86 359.61 318.18 371.24 309.95 372.46 C 306.76 372.53 302.66 373.55 299.95 372.03 C 299.72 365.14 299.48 358.18 300.19 351.31 Z" />
<path fill="#ffffff" opacity="1.00" d=" M 303.57 354.28 C 306.52 354.40 310.15 353.88 312.13 356.63 C 314.15 359.64 314.12 364.07 312.37 367.21 C 310.62 370.45 306.60 369.55 303.58 369.76 C 303.64 364.60 303.65 359.44 303.57 354.28 Z" />
<path fill="#04a4f2" opacity="1.00" d=" M 195.50 357.15 C 196.82 357.21 198.14 357.22 199.47 357.16 C 199.32 362.39 199.40 367.62 199.37 372.86 C 198.09 372.75 196.80 372.68 195.52 372.64 C 195.62 367.48 195.63 362.31 195.50 357.15 Z" />
<path fill="#04a4f2" opacity="1.00" d=" M 203.93 357.71 C 205.09 355.64 207.01 357.41 207.73 358.84 C 208.80 358.12 209.86 357.37 211.03 356.84 C 213.93 355.67 217.63 358.01 217.62 361.19 C 217.90 365.06 217.69 368.94 217.74 372.82 C 216.49 372.79 215.25 372.76 214.01 372.74 C 213.89 368.62 213.98 364.50 213.59 360.39 C 211.50 359.95 209.06 359.96 207.89 362.10 C 207.29 365.61 207.73 369.23 207.64 372.79 C 206.38 372.77 205.12 372.75 203.86 372.73 C 203.93 367.73 203.67 362.71 203.93 357.71 Z" />
<path fill="#04a4f2" opacity="1.00" d=" M 244.38 357.42 C 248.29 355.51 254.27 356.73 255.51 361.37 C 256.23 364.74 256.17 368.90 253.39 371.37 C 249.75 374.47 242.73 373.89 240.89 369.04 C 239.50 365.06 240.07 359.33 244.38 357.42 Z" />
<path fill="#04a4f2" opacity="1.00" d=" M 258.14 356.72 C 259.51 356.92 260.88 357.15 262.25 357.39 C 263.41 361.00 263.28 365.35 265.87 368.31 C 266.72 364.54 267.59 360.78 268.53 357.04 C 269.79 357.10 271.05 357.18 272.32 357.26 C 273.44 360.93 273.56 365.08 275.88 368.28 C 276.89 364.63 277.76 360.96 278.63 357.28 C 279.92 357.08 281.21 356.90 282.52 356.73 C 281.29 362.15 279.48 367.42 277.99 372.77 C 276.35 372.78 274.72 372.76 273.09 372.71 C 272.31 369.71 271.56 366.70 270.85 363.68 C 268.10 365.69 268.68 369.87 267.42 372.78 C 265.83 372.76 264.24 372.75 262.66 372.76 C 261.19 367.40 259.29 362.16 258.14 356.72 Z" />
<path fill="#04a4f2" opacity="1.00" d=" M 284.38 360.97 C 285.96 356.69 290.90 355.73 294.77 357.40 C 294.81 358.09 294.90 359.49 294.94 360.18 C 292.77 359.40 287.39 357.95 288.65 361.99 C 291.07 363.74 295.64 364.20 295.74 367.92 C 296.44 373.94 284.66 375.73 284.40 369.32 C 286.95 369.79 290.68 371.93 292.43 368.87 C 291.54 366.60 288.91 366.19 287.07 364.99 C 285.48 364.26 285.18 362.33 284.38 360.97 Z" />
<path fill="#04a4f2" opacity="1.00" d=" M 324.37 357.55 C 327.48 355.99 331.76 356.18 334.28 358.76 C 336.61 361.64 336.69 365.87 335.27 369.18 C 332.77 374.62 323.28 374.78 321.11 368.98 C 319.64 365.09 320.36 359.64 324.37 357.55 Z" />
<path fill="#04a4f2" opacity="1.00" d=" M 342.52 357.64 C 345.57 355.63 351.62 356.32 351.12 361.02 C 348.98 360.57 346.27 358.47 344.44 360.54 C 342.49 362.52 342.96 365.83 343.63 368.29 C 345.24 371.29 349.00 369.45 351.29 368.42 C 351.75 374.61 342.27 374.61 340.10 369.97 C 338.38 366.03 338.59 360.20 342.52 357.64 Z" />
<path fill="#ffffff" opacity="1.00" d=" M 225.56 361.94 C 226.34 361.05 227.12 360.16 227.89 359.27 C 229.57 359.82 231.16 360.60 232.66 361.55 C 232.29 364.10 233.65 367.55 231.17 369.30 C 229.83 370.00 228.22 369.78 226.77 369.98 C 225.47 367.48 225.33 364.68 225.56 361.94 Z" />
<path fill="#ffffff" opacity="1.00" d=" M 246.14 360.07 C 252.80 356.81 254.39 370.09 247.94 370.30 C 243.28 369.72 243.12 362.58 246.14 360.07 Z" />
<path fill="#ffffff" opacity="1.00" d=" M 324.52 361.67 C 325.23 360.96 325.95 360.25 326.67 359.55 C 327.59 359.53 329.43 359.50 330.35 359.49 C 332.76 362.21 332.77 365.90 331.36 369.11 C 330.79 369.50 329.64 370.28 329.07 370.67 C 327.60 370.00 325.51 369.94 324.73 368.30 C 324.23 366.12 324.48 363.87 324.52 361.67 Z" />
</svg>
