<?xml version="1.0" encoding="UTF-8" ?>
<!DOCTYPE svg PUBLIC "-//W3C//DTD SVG 1.1//EN" "http://www.w3.org/Graphics/SVG/1.1/DTD/svg11.dtd">
<svg width="512pt" height="512pt" viewBox="0 0 512 512" version="1.1" xmlns="http://www.w3.org/2000/svg">
<path fill="#640f6c" opacity="1.00" d=" M 0.00 0.00 L 512.00 0.00 L 512.00 512.00 L 0.00 512.00 L 0.00 0.00 Z" />
<path fill="#ffffff" opacity="1.00" d=" M 248.11 117.87 C 257.48 116.92 266.84 118.17 276.12 119.38 C 307.81 124.00 337.88 139.89 359.07 163.98 C 378.26 185.14 390.57 212.43 393.69 240.83 C 395.62 259.24 394.08 278.05 388.68 295.78 C 381.19 320.80 366.34 343.55 346.51 360.53 C 320.46 383.24 285.63 395.37 251.14 394.28 C 225.53 393.26 200.18 385.35 178.85 371.07 C 149.61 351.85 128.24 321.08 120.49 286.95 C 117.22 273.60 116.71 259.78 117.36 246.10 C 119.44 216.18 131.77 187.12 151.72 164.74 C 169.09 144.68 192.63 130.21 218.13 123.03 C 227.91 120.25 238.01 118.85 248.11 117.87 Z" />
<path fill="#640f6c" opacity="1.00" d=" M 218.47 182.65 C 223.03 181.36 228.20 182.94 231.22 186.61 C 236.75 193.39 236.37 204.72 229.54 210.51 C 225.04 214.47 217.43 214.26 213.42 209.67 C 205.42 202.22 207.66 186.19 218.47 182.65 Z" />
<path fill="#640f6c" opacity="1.00" d=" M 288.21 181.92 C 298.51 180.87 304.88 193.02 302.09 201.95 C 300.73 209.25 292.79 215.18 285.45 212.36 C 276.92 208.99 274.10 197.78 277.81 189.91 C 279.69 185.78 283.54 182.31 288.21 181.92 Z" />
<path fill="#640f6c" opacity="1.00" d=" M 172.12 270.74 C 230.36 270.80 288.61 270.83 346.86 270.77 C 345.73 283.48 343.15 296.21 337.83 307.87 C 332.27 321.94 323.48 335.32 310.53 343.58 C 296.97 353.00 280.21 356.83 263.88 357.00 C 243.23 358.15 221.46 353.97 204.67 341.26 C 190.17 330.02 181.55 312.94 176.59 295.62 C 174.76 287.40 172.46 279.19 172.12 270.74 Z" />
</svg>
