<?xml version="1.0" encoding="UTF-8" ?>
<!DOCTYPE svg PUBLIC "-//W3C//DTD SVG 1.1//EN" "http://www.w3.org/Graphics/SVG/1.1/DTD/svg11.dtd">
<svg width="512pt" height="512pt" viewBox="0 0 512 512" version="1.1" xmlns="http://www.w3.org/2000/svg">
<path fill="#ed2b84" opacity="1.00" d=" M 0.00 0.00 L 512.00 0.00 L 512.00 512.00 L 0.00 512.00 L 0.00 0.00 Z" />
<path fill="#ffffff" opacity="1.00" d=" M 250.37 118.45 C 259.60 116.81 268.40 121.27 276.02 125.97 C 305.31 143.33 334.71 160.52 364.14 177.65 C 368.40 180.20 373.72 182.47 375.49 187.54 C 377.02 192.55 374.23 197.44 371.78 201.65 C 357.25 226.50 342.56 251.27 328.09 276.16 C 326.42 279.21 324.36 282.48 324.82 286.10 C 326.07 290.21 330.23 292.22 333.53 294.44 C 343.53 300.79 353.39 307.35 363.41 313.67 C 367.63 315.82 371.24 320.00 370.79 325.01 C 371.06 329.23 367.61 332.34 364.28 334.28 C 334.33 352.03 304.36 369.73 274.24 387.17 C 268.88 390.17 263.44 394.09 256.98 393.76 C 249.20 394.05 242.26 389.97 235.79 386.17 C 206.04 368.97 176.23 351.88 146.57 334.53 C 142.44 332.18 138.37 328.79 137.32 323.91 C 135.98 319.41 137.41 314.60 139.56 310.60 C 154.29 285.88 168.49 260.85 182.98 235.99 C 184.40 233.52 186.00 230.93 185.80 227.96 C 185.81 223.34 181.71 220.23 178.32 217.77 C 168.20 211.08 157.75 204.92 147.38 198.65 C 143.99 196.65 141.12 193.11 141.30 188.99 C 140.92 183.73 145.25 179.80 149.35 177.29 C 179.12 159.74 208.99 142.36 238.60 124.54 C 242.41 122.33 245.96 119.38 250.37 118.45 Z" />
<path fill="#ed2b84" opacity="1.00" d=" M 266.43 135.67 C 269.80 134.48 273.22 136.27 276.10 137.91 C 300.19 152.14 324.45 166.07 348.42 180.51 C 351.48 182.24 354.91 185.16 354.26 189.09 C 353.23 192.94 349.91 195.63 346.64 197.62 C 322.41 211.27 298.39 225.29 274.35 239.27 C 271.80 240.68 268.87 241.88 265.90 241.29 C 262.94 240.24 261.49 236.98 261.61 234.01 C 261.64 216.67 261.79 199.33 261.76 181.99 C 262.61 169.00 261.93 155.96 262.22 142.95 C 262.12 139.99 263.61 136.87 266.43 135.67 Z" />
<path fill="#ed2b84" opacity="1.00" d=" M 225.99 146.75 C 228.64 145.99 231.66 148.22 231.82 150.95 C 232.07 153.13 230.92 155.08 229.92 156.91 C 220.72 172.67 211.41 188.36 202.15 204.08 C 200.58 206.68 198.60 209.37 195.62 210.41 C 191.88 211.53 187.96 210.25 184.72 208.36 C 177.46 204.22 170.20 200.07 163.06 195.73 C 160.78 194.15 158.03 192.12 158.15 189.02 C 157.70 185.82 159.96 183.08 162.62 181.64 C 182.14 170.86 201.47 159.73 221.05 149.04 C 222.66 148.20 224.24 147.27 225.99 146.75 Z" />
<path fill="#ed2b84" opacity="1.00" d=" M 244.41 157.46 C 248.18 156.56 250.74 160.70 250.39 164.04 C 250.66 187.04 250.29 210.04 250.36 233.04 C 250.67 236.85 247.90 240.81 244.02 241.33 C 241.42 241.67 239.09 240.24 236.90 239.08 C 230.35 235.35 223.89 231.45 217.42 227.58 C 214.18 225.61 210.70 223.29 209.42 219.52 C 208.13 216.34 209.60 212.92 211.13 210.10 C 220.49 194.14 229.84 178.17 239.28 162.25 C 240.53 160.30 242.01 158.06 244.41 157.46 Z" />
<path fill="#ed2b84" opacity="1.00" d=" M 340.38 214.47 C 342.76 212.97 346.52 213.40 347.70 216.21 C 349.11 218.59 347.66 221.27 346.54 223.44 C 337.48 239.42 328.27 255.32 319.13 271.26 C 317.36 274.41 314.75 277.46 311.05 278.21 C 307.33 278.79 303.91 276.81 300.73 275.19 C 293.91 271.40 287.12 267.55 280.38 263.63 C 277.55 262.02 274.74 259.41 274.66 255.93 C 274.97 252.82 277.21 250.26 279.94 248.91 C 300.16 237.57 320.00 225.54 340.38 214.47 Z" />
<path fill="#ed2b84" opacity="1.00" d=" M 199.28 235.43 C 203.10 233.50 207.26 235.56 210.71 237.29 C 218.03 241.31 225.33 245.37 232.50 249.64 C 235.39 251.35 238.22 254.37 237.48 258.01 C 236.57 262.19 232.35 264.05 228.98 265.93 C 210.95 276.22 193.08 286.79 174.97 296.95 C 173.37 297.82 171.77 298.72 170.02 299.26 C 167.68 299.92 164.90 298.34 164.35 295.96 C 163.82 293.79 164.66 291.60 165.70 289.73 C 174.76 273.77 183.93 257.87 193.04 241.94 C 194.54 239.32 196.45 236.70 199.28 235.43 Z" />
<path fill="#ed2b84" opacity="1.00" d=" M 239.36 272.43 C 242.02 271.10 245.64 270.76 247.86 273.11 C 250.88 276.25 250.41 280.98 250.39 284.99 C 250.24 312.00 250.53 339.01 250.17 366.02 C 249.98 368.67 249.84 371.68 247.83 373.69 C 245.84 375.98 242.48 376.07 239.75 375.35 C 235.38 374.14 231.66 371.45 227.75 369.26 C 205.93 356.67 183.99 344.30 162.05 331.93 C 159.06 330.20 155.88 327.65 155.61 323.95 C 156.30 320.36 159.62 318.28 162.55 316.61 C 188.28 302.11 213.73 287.08 239.36 272.43 Z" />
<path fill="#ed2b84" opacity="1.00" d=" M 266.20 272.21 C 269.21 270.50 272.60 272.21 275.29 273.75 C 282.03 277.66 288.75 281.59 295.39 285.66 C 298.38 287.52 301.57 289.71 302.78 293.20 C 304.12 296.52 302.73 300.13 301.03 303.04 C 291.61 318.99 282.26 334.99 272.78 350.91 C 271.31 353.24 269.09 356.05 265.98 355.45 C 263.13 354.79 261.74 351.71 261.79 349.01 C 261.57 332.68 261.81 316.34 261.77 300.01 C 262.43 292.68 262.02 285.32 262.24 277.98 C 262.19 275.45 264.09 273.35 266.20 272.21 Z" />
<path fill="#ed2b84" opacity="1.00" d=" M 316.41 302.59 C 319.88 301.55 323.68 302.36 326.75 304.18 C 334.43 308.48 342.05 312.92 349.57 317.50 C 352.56 319.29 355.44 322.92 353.90 326.56 C 352.52 330.53 348.27 332.01 344.95 333.93 C 326.94 343.90 309.07 354.12 291.00 363.96 C 289.05 365.00 286.98 365.80 284.92 366.57 C 283.25 365.69 281.13 365.02 280.52 363.02 C 279.90 360.60 280.95 358.24 282.16 356.20 C 290.91 341.29 299.73 326.41 308.53 311.53 C 310.53 308.11 312.55 304.20 316.41 302.59 Z" />
</svg>
