<?xml version="1.0" encoding="UTF-8" ?>
<!DOCTYPE svg PUBLIC "-//W3C//DTD SVG 1.1//EN" "http://www.w3.org/Graphics/SVG/1.1/DTD/svg11.dtd">
<svg width="512pt" height="512pt" viewBox="0 0 512 512" version="1.1" xmlns="http://www.w3.org/2000/svg">
<path fill="#ed1c24" opacity="1.00" d=" M 0.00 0.00 L 512.00 0.00 L 512.00 512.00 L 0.00 512.00 L 0.00 0.00 M 257.47 157.68 C 254.08 159.37 251.64 162.42 248.65 164.68 C 230.96 179.98 213.25 195.25 195.54 210.52 C 194.39 211.80 192.55 211.28 191.06 211.40 C 173.68 211.33 156.31 211.39 138.93 211.36 C 134.49 211.06 129.74 214.35 129.27 218.92 C 128.64 242.62 129.35 266.32 128.99 290.02 C 128.66 295.04 132.82 299.97 137.99 299.79 C 155.99 299.88 174.00 299.79 192.00 299.83 C 193.94 299.63 195.21 301.37 196.58 302.44 C 215.19 318.50 233.80 334.56 252.41 350.61 C 254.33 352.33 256.27 354.25 258.87 354.86 C 262.87 356.03 267.40 353.92 269.29 350.27 C 270.63 348.07 270.32 345.41 270.37 342.97 C 270.32 283.97 270.39 224.97 270.34 165.98 C 270.57 159.65 263.15 154.90 257.47 157.68 Z" />
<path fill="#ffffff" opacity="1.00" d=" M 257.47 157.68 C 263.15 154.90 270.57 159.65 270.34 165.98 C 270.39 224.97 270.32 283.97 270.37 342.97 C 270.32 345.41 270.63 348.07 269.29 350.27 C 267.40 353.92 262.87 356.03 258.87 354.86 C 256.27 354.25 254.33 352.33 252.41 350.61 C 233.80 334.56 215.19 318.50 196.58 302.44 C 195.21 301.37 193.94 299.63 192.00 299.83 C 174.00 299.79 155.99 299.88 137.99 299.79 C 132.82 299.97 128.66 295.04 128.99 290.02 C 129.35 266.32 128.64 242.62 129.27 218.92 C 129.74 214.35 134.49 211.06 138.93 211.36 C 156.31 211.39 173.68 211.33 191.06 211.40 C 192.55 211.28 194.39 211.80 195.54 210.52 C 213.25 195.25 230.96 179.98 248.65 164.68 C 251.64 162.42 254.08 159.37 257.47 157.68 Z" />
</svg>
