<?xml version="1.0" encoding="UTF-8" ?>
<!DOCTYPE svg PUBLIC "-//W3C//DTD SVG 1.1//EN" "http://www.w3.org/Graphics/SVG/1.1/DTD/svg11.dtd">
<svg width="512pt" height="512pt" viewBox="0 0 512 512" version="1.1" xmlns="http://www.w3.org/2000/svg">
<path fill="#c00000" opacity="1.00" d=" M 0.00 0.00 L 512.00 0.00 L 512.00 512.00 L 0.00 512.00 L 0.00 0.00 M 257.41 157.71 C 255.49 158.52 254.04 160.07 252.48 161.39 C 233.86 177.46 215.23 193.52 196.63 209.60 C 195.56 210.39 194.57 211.71 193.06 211.38 C 174.74 211.38 156.42 211.35 138.11 211.39 C 132.14 211.30 127.98 217.37 129.12 223.01 C 129.14 245.70 129.04 268.39 129.16 291.07 C 128.96 295.73 133.29 299.88 137.89 299.79 C 155.94 299.90 174.00 299.79 192.05 299.84 C 193.18 299.82 194.15 300.22 194.96 301.04 C 215.18 318.45 235.34 335.96 255.61 353.33 C 261.20 357.96 270.71 353.29 270.34 346.01 C 270.38 287.35 270.32 228.68 270.37 170.02 C 270.31 167.04 270.74 163.74 268.91 161.16 C 266.60 157.38 261.41 155.85 257.41 157.71 M 333.08 194.06 C 309.89 196.49 289.03 213.13 281.33 235.11 C 275.18 251.99 276.74 271.52 285.64 287.14 C 294.05 302.31 309.04 313.59 325.92 317.54 C 338.45 320.38 351.92 319.58 363.85 314.67 C 377.23 309.35 388.59 299.21 395.49 286.58 C 403.83 271.60 405.42 253.12 400.09 236.86 C 395.23 221.87 384.47 208.92 370.64 201.37 C 359.29 195.08 345.95 192.51 333.08 194.06 Z" />
<path fill="#ffffff" opacity="1.00" d=" M 257.41 157.71 C 261.41 155.85 266.60 157.38 268.91 161.16 C 270.74 163.74 270.31 167.04 270.37 170.02 C 270.32 228.68 270.38 287.35 270.34 346.01 C 270.71 353.29 261.20 357.96 255.61 353.33 C 235.34 335.96 215.18 318.45 194.96 301.04 C 194.15 300.22 193.18 299.82 192.05 299.84 C 174.00 299.79 155.94 299.90 137.89 299.79 C 133.29 299.88 128.96 295.73 129.16 291.07 C 129.04 268.39 129.14 245.70 129.12 223.01 C 127.98 217.37 132.14 211.30 138.11 211.39 C 156.42 211.35 174.74 211.38 193.06 211.38 C 194.57 211.71 195.56 210.39 196.63 209.60 C 215.23 193.52 233.86 177.46 252.48 161.39 C 254.04 160.07 255.49 158.52 257.41 157.71 Z" />
<path fill="#ffffff" opacity="1.00" d=" M 333.08 194.06 C 345.95 192.51 359.29 195.08 370.64 201.37 C 384.47 208.92 395.23 221.87 400.09 236.86 C 405.42 253.12 403.83 271.60 395.49 286.58 C 388.59 299.21 377.23 309.35 363.85 314.67 C 351.92 319.58 338.45 320.38 325.92 317.54 C 309.04 313.59 294.05 302.31 285.64 287.14 C 276.74 271.52 275.18 251.99 281.33 235.11 C 289.03 213.13 309.89 196.49 333.08 194.06 M 301.28 236.19 C 307.32 242.33 313.42 248.40 319.54 254.47 C 320.27 255.20 321.82 256.43 320.46 257.43 C 314.14 263.91 307.60 270.18 301.31 276.70 C 307.77 282.83 314.00 289.18 320.22 295.55 C 326.97 288.86 333.72 282.17 340.36 275.37 C 347.15 282.04 353.80 288.85 360.59 295.52 C 366.85 289.17 373.16 282.86 379.52 276.60 C 372.83 269.81 366.02 263.15 359.35 256.36 C 366.17 249.74 372.85 242.97 379.54 236.22 C 373.14 230.03 366.86 223.71 360.63 217.34 C 353.84 224.02 347.16 230.82 340.39 237.52 C 333.71 230.73 326.96 224.01 320.20 217.30 C 313.98 223.69 307.71 230.02 301.28 236.19 Z" />
<path fill="#c00000" opacity="1.00" d=" M 301.28 236.19 C 307.71 230.02 313.98 223.69 320.20 217.30 C 326.96 224.01 333.71 230.73 340.39 237.52 C 347.16 230.82 353.84 224.02 360.63 217.34 C 366.86 223.71 373.14 230.03 379.54 236.22 C 372.85 242.97 366.17 249.74 359.35 256.36 C 366.02 263.15 372.83 269.81 379.52 276.60 C 373.16 282.86 366.85 289.17 360.59 295.52 C 353.80 288.85 347.15 282.04 340.36 275.37 C 333.72 282.17 326.97 288.86 320.22 295.55 C 314.00 289.18 307.77 282.83 301.31 276.70 C 307.60 270.18 314.14 263.91 320.46 257.43 C 321.82 256.43 320.27 255.20 319.54 254.47 C 313.42 248.40 307.32 242.33 301.28 236.19 Z" />
</svg>
