<?xml version="1.0" encoding="UTF-8" ?>
<!DOCTYPE svg PUBLIC "-//W3C//DTD SVG 1.1//EN" "http://www.w3.org/Graphics/SVG/1.1/DTD/svg11.dtd">
<svg width="512pt" height="512pt" viewBox="0 0 512 512" version="1.1" xmlns="http://www.w3.org/2000/svg">
<path fill="#00a651" opacity="1.00" d=" M 0.00 0.00 L 512.00 0.00 L 512.00 512.00 L 0.00 512.00 L 0.00 0.00 M 257.47 157.69 C 254.88 158.84 253.01 161.08 250.83 162.83 C 231.92 178.92 213.39 195.52 194.27 211.33 C 175.54 211.45 156.80 211.31 138.06 211.39 C 134.36 211.40 130.84 213.95 129.55 217.40 C 128.55 222.86 129.31 228.44 129.13 233.96 C 129.18 252.97 129.03 271.99 129.17 291.00 C 128.91 295.70 133.30 299.91 137.93 299.79 C 155.28 299.87 172.62 299.83 189.97 299.81 C 191.46 299.90 193.21 299.49 194.43 300.63 C 214.88 318.13 235.16 335.83 255.61 353.33 C 261.20 357.96 270.70 353.30 270.34 346.03 C 270.38 287.37 270.33 228.70 270.36 170.03 C 270.32 167.02 270.75 163.70 268.88 161.10 C 266.57 157.37 261.44 155.86 257.47 157.69 M 339.36 158.51 C 333.78 160.68 331.90 168.48 335.97 172.92 C 356.14 198.11 366.69 230.78 365.00 262.99 C 363.73 289.63 354.33 315.87 338.16 337.11 C 334.39 340.81 332.40 347.32 336.47 351.56 C 339.75 355.53 346.45 355.68 349.94 351.91 C 375.05 320.92 387.18 279.72 382.57 240.08 C 379.76 211.52 368.20 184.01 350.42 161.54 C 347.96 158.21 343.17 156.66 339.36 158.51 M 315.34 182.49 C 311.62 184.02 309.20 188.19 309.78 192.18 C 310.22 194.97 312.13 197.16 313.67 199.42 C 329.83 222.53 335.31 252.63 328.64 280.00 C 325.55 292.95 319.79 305.23 311.95 315.98 C 308.91 319.89 309.80 326.16 313.95 328.95 C 317.67 331.70 323.51 331.03 326.36 327.32 C 341.60 306.94 350.00 281.50 349.73 256.04 C 349.85 230.83 341.38 205.75 326.36 185.53 C 323.95 182.15 319.14 180.70 315.34 182.49 M 289.34 208.39 C 284.27 210.46 282.19 217.24 285.26 221.79 C 297.33 240.27 298.74 265.06 288.83 284.77 C 287.26 288.52 283.88 291.76 284.21 296.10 C 284.28 300.66 288.43 304.73 292.99 304.73 C 296.30 304.98 299.55 303.09 301.25 300.28 C 309.24 287.36 313.80 272.23 313.75 257.00 C 313.99 241.26 309.38 225.53 301.00 212.24 C 298.71 208.35 293.50 206.31 289.34 208.39 Z" />
<path fill="#ffffff" opacity="1.00" d=" M 257.47 157.69 C 261.44 155.86 266.57 157.37 268.88 161.10 C 270.75 163.70 270.32 167.02 270.36 170.03 C 270.33 228.70 270.38 287.37 270.34 346.03 C 270.70 353.30 261.20 357.96 255.61 353.33 C 235.16 335.83 214.88 318.13 194.43 300.63 C 193.21 299.49 191.46 299.90 189.97 299.81 C 172.62 299.83 155.28 299.87 137.93 299.79 C 133.30 299.91 128.91 295.70 129.17 291.00 C 129.03 271.99 129.18 252.97 129.13 233.96 C 129.31 228.44 128.55 222.86 129.55 217.40 C 130.84 213.95 134.36 211.40 138.06 211.39 C 156.80 211.31 175.54 211.45 194.27 211.33 C 213.39 195.52 231.92 178.92 250.83 162.83 C 253.01 161.08 254.88 158.84 257.47 157.69 Z" />
<path fill="#ffffff" opacity="1.00" d=" M 339.36 158.51 C 343.17 156.66 347.96 158.21 350.42 161.54 C 368.20 184.01 379.76 211.52 382.57 240.08 C 387.18 279.72 375.05 320.92 349.94 351.91 C 346.45 355.68 339.75 355.53 336.47 351.56 C 332.40 347.32 334.39 340.81 338.16 337.11 C 354.33 315.87 363.73 289.63 365.00 262.99 C 366.69 230.78 356.14 198.11 335.97 172.92 C 331.90 168.48 333.78 160.68 339.36 158.51 Z" />
<path fill="#ffffff" opacity="1.00" d=" M 315.34 182.49 C 319.14 180.70 323.95 182.15 326.36 185.53 C 341.38 205.75 349.85 230.83 349.73 256.04 C 350.00 281.50 341.60 306.94 326.36 327.32 C 323.51 331.03 317.67 331.70 313.95 328.95 C 309.80 326.16 308.91 319.89 311.95 315.98 C 319.79 305.23 325.55 292.95 328.64 280.00 C 335.31 252.63 329.83 222.53 313.67 199.42 C 312.13 197.16 310.22 194.97 309.78 192.18 C 309.20 188.19 311.62 184.02 315.34 182.49 Z" />
<path fill="#ffffff" opacity="1.00" d=" M 289.34 208.39 C 293.50 206.31 298.71 208.35 301.00 212.24 C 309.38 225.53 313.99 241.26 313.75 257.00 C 313.80 272.23 309.24 287.36 301.25 300.28 C 299.55 303.09 296.30 304.98 292.99 304.73 C 288.43 304.73 284.28 300.66 284.21 296.10 C 283.88 291.76 287.26 288.52 288.83 284.77 C 298.74 265.06 297.33 240.27 285.26 221.79 C 282.19 217.24 284.27 210.46 289.34 208.39 Z" />
</svg>
