<?xml version="1.0" encoding="UTF-8" ?>
<!DOCTYPE svg PUBLIC "-//W3C//DTD SVG 1.1//EN" "http://www.w3.org/Graphics/SVG/1.1/DTD/svg11.dtd">
<svg width="512pt" height="512pt" viewBox="0 0 512 512" version="1.1" xmlns="http://www.w3.org/2000/svg">
<path fill="#f58d00" opacity="1.00" d=" M 0.00 0.00 L 512.00 0.00 L 512.00 512.00 L 0.00 512.00 L 0.00 0.00 Z" />
<path fill="#ffffff" opacity="1.00" d=" M 236.97 125.29 C 246.21 124.20 255.58 122.62 264.87 124.20 C 289.05 126.04 312.76 134.39 332.43 148.61 C 336.62 151.41 340.15 155.15 344.68 157.44 C 357.07 164.37 365.85 176.24 371.76 188.91 C 372.18 181.17 369.46 173.83 367.18 166.58 C 373.36 172.43 376.10 180.79 379.38 188.42 C 383.72 200.97 385.57 214.20 387.69 227.27 C 388.45 231.32 388.49 235.52 389.88 239.45 C 390.75 233.99 390.78 228.32 392.49 223.04 C 393.81 230.67 392.54 238.37 392.53 246.04 C 390.23 279.03 381.46 312.60 361.46 339.44 C 346.34 359.95 324.26 374.98 299.89 382.20 C 285.38 386.78 270.14 388.52 255.01 389.29 C 235.99 388.95 216.79 385.50 199.42 377.54 C 183.28 370.14 168.82 359.14 157.31 345.62 C 139.27 324.28 126.57 297.99 123.10 270.13 C 122.64 272.42 122.38 274.76 122.16 277.10 L 121.32 277.14 C 120.75 262.58 121.50 247.85 125.42 233.75 C 122.90 237.03 122.21 241.31 119.60 244.51 C 123.05 228.27 127.37 211.72 136.70 197.77 C 136.80 188.60 136.45 179.24 139.14 170.34 C 141.08 162.54 144.97 155.26 150.56 149.47 C 151.19 156.03 153.82 162.20 157.84 167.39 C 178.28 144.74 206.74 129.54 236.97 125.29 Z" />
<path fill="#f58d00" opacity="1.00" d=" M 234.53 130.14 C 266.54 124.64 300.59 131.97 327.33 150.49 C 314.64 147.67 301.70 144.63 288.61 146.02 C 289.72 146.64 290.86 147.28 292.14 147.49 C 301.42 149.43 310.77 151.58 319.40 155.61 C 321.87 156.69 324.03 158.33 326.03 160.11 C 316.58 160.43 307.14 161.54 298.02 164.05 C 314.00 167.14 329.38 174.55 340.84 186.23 C 350.09 195.66 356.51 207.84 359.01 220.82 C 355.82 215.89 352.51 210.73 347.17 207.89 C 350.45 223.70 350.49 240.18 347.29 256.02 C 346.84 257.86 346.68 259.92 345.24 261.31 C 343.78 256.60 340.57 252.56 336.17 250.28 C 337.44 263.19 337.38 276.38 334.32 289.05 C 332.25 296.89 329.13 305.26 322.14 310.02 C 323.00 302.57 326.35 295.54 326.35 287.98 C 317.75 301.46 307.07 314.56 292.12 321.20 C 279.07 327.28 263.79 326.42 250.61 321.21 C 239.91 317.26 230.20 311.13 220.91 304.61 C 231.15 306.16 241.68 304.75 251.45 301.47 C 260.18 298.66 266.38 291.27 274.78 287.80 C 277.39 286.87 280.21 287.73 282.90 287.29 C 285.98 286.06 286.63 281.86 284.46 279.51 C 277.42 270.86 264.53 268.56 254.44 272.76 C 247.63 275.63 240.60 279.16 232.98 278.39 C 225.02 277.56 217.92 273.15 211.99 268.00 C 207.65 264.16 204.12 258.05 206.24 252.15 C 207.12 247.83 211.21 245.22 215.23 244.23 C 219.56 244.39 223.65 246.24 227.45 248.20 C 228.02 241.67 227.12 235.15 225.15 228.92 C 231.72 221.88 240.68 217.83 248.45 212.33 C 252.32 209.48 252.85 204.25 252.37 199.81 C 244.60 197.74 236.49 199.55 228.61 198.57 C 222.53 197.41 218.27 192.17 215.62 186.93 C 216.42 179.80 219.92 172.98 224.80 167.76 C 227.52 164.73 231.05 162.64 234.19 160.12 C 220.79 160.20 206.77 165.24 197.85 175.54 C 190.15 173.80 182.12 172.87 174.28 174.26 C 171.04 174.90 167.72 174.92 164.45 174.49 C 163.23 173.27 161.99 172.06 160.75 170.86 C 179.83 149.51 206.23 134.74 234.53 130.14 Z" />
</svg>
