<?xml version="1.0" encoding="UTF-8" ?>
<!DOCTYPE svg PUBLIC "-//W3C//DTD SVG 1.1//EN" "http://www.w3.org/Graphics/SVG/1.1/DTD/svg11.dtd">
<svg width="512pt" height="512pt" viewBox="0 0 512 512" version="1.1" xmlns="http://www.w3.org/2000/svg">
<path fill="#e0a500" opacity="1.00" d=" M 0.00 0.00 L 512.00 0.00 L 512.00 512.00 L 0.00 512.00 L 0.00 0.00 Z" />
<path fill="#ffffff" opacity="1.00" d=" M 208.66 121.85 C 232.40 113.48 258.39 111.51 283.10 116.40 C 325.97 124.31 364.14 153.51 383.32 192.61 C 340.22 192.79 297.11 192.63 254.01 192.69 C 240.46 193.11 227.09 197.96 216.53 206.50 C 205.58 215.16 197.68 227.57 194.41 241.14 C 193.39 245.22 193.28 249.46 192.44 253.58 C 176.20 225.33 159.68 197.23 143.39 169.00 C 160.14 147.56 182.94 130.83 208.66 121.85 Z" />
<path fill="#ffffff" opacity="1.00" d=" M 136.80 178.19 C 138.01 178.02 138.25 179.46 138.85 180.20 C 159.61 216.06 180.48 251.86 201.28 287.70 C 208.89 300.96 221.52 311.19 236.00 316.05 C 251.96 321.47 269.95 319.97 284.94 312.34 C 283.86 315.28 282.05 317.85 280.51 320.56 C 265.67 345.94 250.67 371.23 235.97 396.70 C 207.98 393.20 181.37 380.38 160.50 361.49 C 137.55 340.78 121.53 312.42 116.12 281.95 C 109.36 246.41 116.96 208.44 136.80 178.19 Z" />
<path fill="#ffffff" opacity="1.00" d=" M 290.80 202.47 C 323.11 202.21 355.43 202.43 387.75 202.36 C 402.26 237.50 401.69 278.44 386.26 313.19 C 373.65 342.12 351.03 366.51 323.20 381.40 C 302.96 392.38 279.99 397.94 257.01 398.37 C 253.43 398.27 249.76 398.69 246.29 397.56 C 267.73 361.48 288.79 325.18 310.05 288.99 C 317.86 276.26 320.97 260.70 318.50 245.97 C 316.01 229.59 306.61 214.39 293.13 204.77 C 292.24 204.12 291.48 203.33 290.80 202.47 Z" />
<path fill="#ffffff" opacity="1.00" d=" M 248.36 203.54 C 259.91 202.17 271.98 203.87 282.09 209.83 C 295.33 217.21 305.04 230.56 307.96 245.44 C 310.20 257.87 308.56 271.21 302.11 282.21 C 293.01 298.48 274.74 309.41 256.00 308.83 C 244.22 309.20 232.52 304.97 223.28 297.74 C 210.66 287.93 202.70 272.09 203.16 256.02 C 202.82 244.73 206.67 233.49 213.37 224.45 C 221.62 213.19 234.53 205.46 248.36 203.54 Z" />
</svg>
