<?xml version="1.0" encoding="UTF-8" ?>
<!DOCTYPE svg PUBLIC "-//W3C//DTD SVG 1.1//EN" "http://www.w3.org/Graphics/SVG/1.1/DTD/svg11.dtd">
<svg width="512pt" height="512pt" viewBox="0 0 512 512" version="1.1" xmlns="http://www.w3.org/2000/svg">
<path fill="#e0a500" opacity="1.00" d=" M 0.00 0.00 L 512.00 0.00 L 512.00 512.00 L 0.00 512.00 L 0.00 0.00 Z" />
<path fill="#ffffff" opacity="1.00" d=" M 169.01 150.27 C 190.22 132.92 216.64 121.96 243.97 119.68 C 251.97 119.42 259.99 119.42 267.99 119.68 C 297.60 122.17 326.28 134.72 348.14 154.87 C 362.40 167.74 373.70 183.73 381.57 201.23 C 339.71 201.26 297.85 201.22 255.99 201.25 C 238.18 201.10 220.60 210.41 210.79 225.28 C 197.33 201.65 184.27 177.79 170.84 154.14 C 170.12 152.90 169.53 151.60 169.01 150.27 Z" />
<path fill="#ffffff" opacity="1.00" d=" M 119.49 257.99 C 117.98 218.34 136.05 178.79 166.02 153.01 C 178.69 193.32 191.00 233.74 203.53 274.10 C 204.34 275.95 205.76 277.47 206.53 279.36 C 214.05 295.71 230.19 307.59 247.97 310.21 C 233.43 334.42 218.70 358.52 204.05 382.66 C 172.57 369.80 146.28 344.75 131.96 313.90 C 123.93 296.44 119.07 277.28 119.49 257.99 Z" />
<path fill="#ffffff" opacity="1.00" d=" M 298.17 220.99 C 326.58 216.16 354.90 210.70 383.28 205.67 C 388.33 218.19 391.24 231.49 392.56 244.90 C 393.91 254.28 393.19 263.80 391.80 273.13 C 388.35 301.16 375.88 328.01 356.64 348.70 C 336.63 370.59 309.30 385.60 280.09 390.74 C 269.13 392.48 258.00 394.15 246.90 392.80 C 234.67 391.50 222.44 389.42 210.86 385.17 C 239.87 354.03 268.50 322.53 297.65 291.53 C 306.26 281.49 311.06 268.24 310.74 255.01 C 310.64 242.65 305.92 230.55 298.17 220.99 Z" />
<path fill="#ffffff" opacity="1.00" d=" M 249.42 213.62 C 262.90 211.54 277.20 216.44 286.60 226.31 C 294.10 233.86 298.63 244.34 298.80 255.00 C 299.25 267.99 293.29 281.01 283.20 289.20 C 273.88 297.15 261.00 300.66 248.93 298.62 C 237.97 296.96 227.92 290.65 221.29 281.83 C 213.94 271.96 210.77 258.77 213.80 246.75 C 217.49 229.89 232.30 216.02 249.42 213.62 Z" />
</svg>
