<?xml version="1.0" encoding="UTF-8" ?>
<!DOCTYPE svg PUBLIC "-//W3C//DTD SVG 1.1//EN" "http://www.w3.org/Graphics/SVG/1.1/DTD/svg11.dtd">
<svg width="512pt" height="512pt" viewBox="0 0 512 512" version="1.1" xmlns="http://www.w3.org/2000/svg">
<path fill="#5fadf5" opacity="1.00" d=" M 0.00 0.00 L 512.00 0.00 L 512.00 512.00 L 0.00 512.00 L 0.00 0.00 Z" />
<path fill="#ffffff" opacity="1.00" d=" M 210.16 121.33 C 247.71 108.40 290.64 112.21 325.25 131.75 C 350.13 145.60 370.69 167.09 383.34 192.62 C 340.25 192.79 297.15 192.63 254.06 192.70 C 240.71 193.10 227.54 197.79 217.06 206.08 C 206.04 214.60 198.03 226.90 194.60 240.40 C 193.44 244.72 193.24 249.22 192.47 253.62 C 176.21 225.36 159.68 197.25 143.40 169.00 C 160.45 147.14 183.83 130.19 210.16 121.33 Z" />
<path fill="#ffffff" opacity="1.00" d=" M 136.78 178.27 C 137.99 177.82 138.21 179.50 138.83 180.17 C 157.53 212.47 176.31 244.72 195.07 276.99 C 199.02 283.58 202.41 290.58 207.42 296.47 C 217.49 308.61 232.25 316.87 247.94 318.73 C 260.61 320.61 273.62 317.87 285.07 312.36 C 269.07 340.68 252.14 368.49 235.95 396.71 C 207.96 393.18 181.36 380.38 160.50 361.48 C 137.32 340.58 121.23 311.86 115.96 281.05 C 109.51 245.81 117.09 208.22 136.78 178.27 Z" />
<path fill="#ffffff" opacity="1.00" d=" M 290.69 202.52 C 323.05 202.15 355.42 202.44 387.79 202.38 C 394.52 218.73 397.80 236.36 398.37 253.99 C 398.45 278.97 392.35 304.08 379.94 325.83 C 364.49 353.34 339.62 375.44 310.43 387.44 C 292.02 395.16 271.93 398.62 252.00 398.35 C 250.07 398.39 248.16 398.08 246.30 397.59 C 267.69 361.50 288.78 325.22 310.03 289.04 C 317.67 276.57 320.86 261.39 318.64 246.91 C 316.70 232.54 309.39 219.04 298.72 209.27 C 296.17 206.85 293.11 205.06 290.69 202.52 Z" />
<path fill="#ffffff" opacity="1.00" d=" M 248.34 203.54 C 259.69 202.20 271.55 203.80 281.56 209.54 C 295.22 216.94 305.23 230.68 308.06 245.96 C 310.14 258.25 308.47 271.37 302.10 282.22 C 294.45 295.86 280.44 305.70 265.02 308.25 C 253.74 309.85 241.84 308.59 231.71 303.13 C 217.09 295.75 206.40 281.17 203.75 265.01 C 202.29 254.49 203.19 243.41 207.86 233.75 C 215.11 217.70 230.89 205.91 248.34 203.54 Z" />
</svg>
