<?xml version="1.0" encoding="UTF-8" ?>
<!DOCTYPE svg PUBLIC "-//W3C//DTD SVG 1.1//EN" "http://www.w3.org/Graphics/SVG/1.1/DTD/svg11.dtd">
<svg width="512pt" height="512pt" viewBox="0 0 512 512" version="1.1" xmlns="http://www.w3.org/2000/svg">
<path fill="#2d89ef" opacity="1.00" d=" M 0.00 0.00 L 512.00 0.00 L 512.00 512.00 L 0.00 512.00 L 0.00 0.00 Z" />
<path fill="#ffffff" opacity="1.00" d=" M 331.83 114.81 C 345.75 113.45 360.67 113.89 373.22 120.77 C 382.16 125.56 388.20 134.88 389.39 144.91 C 391.77 162.99 385.07 180.54 378.43 197.00 C 387.32 213.63 392.99 232.11 393.84 251.00 C 394.74 258.56 393.55 266.12 393.35 273.68 C 389.93 274.37 386.45 274.20 382.99 274.17 C 327.30 274.17 271.61 274.18 215.92 274.17 C 214.85 274.27 213.83 274.58 212.86 275.11 C 213.06 284.86 215.99 294.53 221.47 302.62 C 230.84 316.92 247.10 326.21 264.04 327.83 C 286.24 330.60 309.54 319.60 321.14 300.37 C 343.06 300.46 364.99 300.40 386.91 300.40 C 380.44 317.58 370.67 333.62 357.61 346.58 C 337.59 366.95 310.39 380.09 281.99 383.09 C 263.48 384.95 244.53 383.08 226.97 376.85 C 222.08 375.37 217.57 372.92 212.81 371.12 C 209.66 371.80 206.98 373.77 204.02 374.99 C 190.01 381.19 175.40 386.53 160.12 388.44 C 151.16 389.61 141.71 389.39 133.29 385.80 C 125.93 382.69 120.17 376.31 117.46 368.84 C 113.58 358.55 113.79 347.29 114.78 336.50 C 116.31 324.87 118.41 313.19 122.35 302.11 C 132.69 277.51 146.10 254.26 161.42 232.44 C 174.80 213.46 189.90 195.64 206.88 179.77 C 206.92 179.02 206.99 177.53 207.02 176.78 C 193.34 183.84 181.44 193.83 170.10 204.14 C 161.76 212.17 153.46 220.30 145.96 229.14 C 152.45 200.05 170.24 173.86 194.26 156.34 C 216.29 140.24 243.71 131.50 271.02 132.39 C 272.93 132.34 274.97 132.70 276.78 131.88 C 294.30 123.91 312.78 117.79 331.83 114.81 Z" />
<path fill="#2d89ef" opacity="1.00" d=" M 316.13 138.99 C 329.06 133.64 342.70 128.49 356.95 129.40 C 366.08 129.72 374.74 134.93 379.71 142.53 C 384.18 149.47 384.07 158.18 382.94 166.06 C 381.66 174.78 378.69 183.11 375.84 191.41 C 375.01 190.80 374.27 190.12 373.61 189.36 C 359.84 168.30 339.67 151.22 316.21 141.98 C 316.19 141.23 316.15 139.74 316.13 138.99 Z" />
<path fill="#2d89ef" opacity="1.00" d=" M 228.48 204.48 C 239.34 193.64 254.70 187.68 270.00 187.88 C 285.96 187.80 301.89 194.52 312.70 206.30 C 321.11 215.40 326.47 227.52 326.63 239.98 C 288.63 239.83 250.64 239.97 212.65 239.91 C 213.12 226.64 218.97 213.72 228.48 204.48 Z" />
<path fill="#2d89ef" opacity="1.00" d=" M 146.87 303.92 C 147.64 302.40 148.14 300.53 149.85 299.79 C 159.12 327.53 179.13 351.42 204.28 366.22 C 201.64 368.52 198.31 369.74 195.20 371.25 C 184.17 376.17 172.28 380.11 160.05 379.49 C 152.18 379.31 144.26 375.96 139.10 369.94 C 134.77 364.67 133.65 357.58 133.60 350.97 C 134.21 334.47 140.20 318.81 146.87 303.92 Z" />
</svg>
