<?xml version="1.0" encoding="UTF-8" ?>
<!DOCTYPE svg PUBLIC "-//W3C//DTD SVG 1.1//EN" "http://www.w3.org/Graphics/SVG/1.1/DTD/svg11.dtd">
<svg width="512pt" height="512pt" viewBox="0 0 512 512" version="1.1" xmlns="http://www.w3.org/2000/svg">
<path fill="#37a5e2" opacity="1.00" d=" M 0.00 0.00 L 512.00 0.00 L 512.00 512.00 L 0.00 512.00 L 0.00 0.00 Z" />
<path fill="#ffffff" opacity="1.00" d=" M 327.02 121.58 C 339.31 118.41 352.59 116.23 364.94 120.32 C 374.29 123.01 382.30 129.99 386.00 139.01 C 388.20 144.04 389.22 149.54 389.02 155.02 C 388.98 163.53 389.46 172.35 386.72 180.52 C 385.26 180.64 383.80 180.62 382.35 180.63 C 384.75 170.00 385.87 158.27 381.08 148.11 C 377.81 140.90 370.73 135.92 363.05 134.46 C 355.76 132.88 348.23 133.66 341.00 135.10 C 327.43 138.10 314.62 143.76 302.41 150.29 C 301.49 150.76 300.71 151.44 299.96 152.14 C 328.65 160.94 354.27 180.54 368.99 206.86 C 380.19 226.68 384.60 250.28 381.08 272.79 C 327.90 272.86 274.72 272.92 221.55 272.76 C 220.79 280.65 222.35 288.80 226.39 295.66 C 232.93 307.13 245.78 314.84 259.05 314.63 C 270.38 314.90 281.58 309.51 288.68 300.73 C 291.73 297.16 293.65 292.85 295.64 288.65 C 322.75 288.80 349.86 288.69 376.97 288.71 C 369.38 313.17 351.92 333.92 330.57 347.73 C 303.06 365.61 268.77 371.97 236.53 366.70 C 218.69 377.25 199.92 386.87 179.55 391.43 C 171.92 393.84 163.86 392.56 156.01 392.91 C 149.69 393.36 143.61 390.86 138.25 387.77 C 128.29 381.87 122.92 370.35 122.24 359.08 C 120.62 338.99 127.04 319.34 135.00 301.16 C 149.19 269.64 169.56 241.24 192.51 215.52 C 205.45 201.02 219.48 187.53 234.27 174.93 C 227.57 176.44 221.28 179.37 215.12 182.34 C 181.88 199.29 155.96 227.67 135.82 258.58 C 135.46 240.13 140.45 221.64 149.69 205.68 C 164.11 180.51 188.59 161.87 215.93 152.68 C 234.26 146.61 253.91 144.24 273.13 146.45 C 289.90 135.89 307.83 126.82 327.02 121.58 Z" />
<path fill="#37a5e2" opacity="1.00" d=" M 229.79 214.75 C 238.62 203.59 254.14 198.12 267.99 201.66 C 278.87 204.08 288.32 211.74 293.30 221.67 C 295.87 226.57 296.81 232.09 297.47 237.52 C 272.09 237.75 246.70 237.58 221.32 237.61 C 221.71 229.35 224.49 221.15 229.79 214.75 Z" />
<path fill="#37a5e2" opacity="1.00" d=" M 148.85 317.91 C 149.72 315.83 150.23 313.50 151.82 311.81 C 168.41 338.77 196.73 357.41 227.28 364.74 C 225.95 366.38 224.00 367.24 222.18 368.21 C 208.32 375.58 193.61 381.95 177.97 384.21 C 168.40 385.34 157.62 384.70 150.00 378.12 C 143.02 372.29 140.63 362.80 140.62 354.05 C 140.85 341.60 144.26 329.42 148.85 317.91 Z" />
</svg>
