<?xml version="1.0" encoding="UTF-8" ?>
<!DOCTYPE svg PUBLIC "-//W3C//DTD SVG 1.1//EN" "http://www.w3.org/Graphics/SVG/1.1/DTD/svg11.dtd">
<svg width="512pt" height="512pt" viewBox="0 0 512 512" version="1.1" xmlns="http://www.w3.org/2000/svg">
<path fill="#00abdc" opacity="1.00" d=" M 0.00 0.00 L 512.00 0.00 L 512.00 512.00 L 0.00 512.00 L 0.00 0.00 Z" />
<path fill="#ffffff" opacity="1.00" d=" M 324.06 129.18 C 335.17 126.50 346.68 125.57 358.07 126.55 C 364.83 127.45 371.84 129.35 377.11 133.90 C 385.22 141.19 389.20 152.17 389.55 162.89 C 390.28 176.59 386.57 190.01 382.00 202.78 C 380.69 201.35 379.50 199.82 378.45 198.19 C 382.96 185.25 387.12 171.07 383.33 157.41 C 380.80 148.26 371.98 142.12 362.75 141.35 C 344.52 139.80 327.06 147.10 311.07 155.04 C 279.98 171.05 252.60 193.39 227.68 217.74 C 204.19 241.31 182.69 267.19 166.32 296.26 C 158.50 310.58 151.44 325.70 148.95 341.96 C 147.91 350.46 147.82 359.85 152.76 367.25 C 157.30 374.30 165.97 377.42 174.05 377.54 C 188.08 377.88 201.49 372.83 214.21 367.46 C 217.20 367.58 219.59 369.87 222.25 371.04 C 204.79 379.61 185.72 386.60 165.98 385.78 C 153.54 386.16 140.34 385.07 129.58 378.22 C 122.53 373.87 118.34 366.07 116.80 358.11 C 114.11 345.94 115.95 333.37 118.63 321.38 C 125.93 292.31 141.08 265.78 159.21 242.14 C 178.43 217.23 201.60 195.42 227.56 177.64 C 256.11 155.45 288.58 137.29 324.06 129.18 Z" />
<path fill="#ffffff" opacity="1.00" d=" M 255.01 144.98 C 260.69 144.08 266.49 142.81 272.25 143.58 C 255.70 151.88 240.16 162.10 225.54 173.44 C 201.09 190.36 178.55 210.37 160.22 233.86 C 166.57 208.20 181.75 184.83 202.60 168.59 C 217.81 156.62 235.97 148.42 255.01 144.98 Z" />
<path fill="#ffffff" opacity="1.00" d=" M 296.44 168.52 C 305.60 162.77 315.27 157.92 325.06 153.38 C 346.68 162.62 364.89 178.90 377.79 198.43 C 392.19 221.46 399.08 249.46 395.61 276.52 C 338.96 276.44 282.31 276.47 225.66 276.50 C 225.95 289.37 230.38 302.25 239.11 311.85 C 249.23 323.38 264.58 330.25 279.96 329.60 C 298.53 329.59 316.32 318.46 325.14 302.24 C 346.72 301.98 368.30 302.24 389.87 302.11 C 380.16 330.50 359.33 354.84 332.81 368.85 C 300.35 386.40 259.62 387.53 226.24 371.79 C 221.86 370.04 217.55 368.08 213.81 365.15 C 192.07 351.87 174.94 331.44 165.31 307.89 C 179.58 279.71 199.12 254.54 220.63 231.55 C 243.21 207.58 268.45 185.94 296.44 168.52 Z" />
<path fill="#00abdc" opacity="1.00" d=" M 239.92 212.94 C 251.10 201.24 268.09 195.23 284.13 197.91 C 299.42 200.00 313.29 209.83 320.75 223.28 C 324.61 229.95 326.51 237.55 327.22 245.18 C 293.52 245.23 259.81 245.18 226.11 245.20 C 226.52 233.22 231.77 221.65 239.92 212.94 Z" />
</svg>
