<?xml version="1.0" encoding="UTF-8" ?>
<!DOCTYPE svg PUBLIC "-//W3C//DTD SVG 1.1//EN" "http://www.w3.org/Graphics/SVG/1.1/DTD/svg11.dtd">
<svg width="512pt" height="512pt" viewBox="0 0 512 512" version="1.1" xmlns="http://www.w3.org/2000/svg">
<path fill="#3089e3" opacity="1.00" d=" M 0.00 0.00 L 512.00 0.00 L 512.00 512.00 L 0.00 512.00 L 0.00 0.00 Z" />
<path fill="#ffffff" opacity="1.00" d=" M 234.00 127.93 C 260.90 123.65 289.18 128.01 313.39 140.59 C 342.51 155.43 365.50 181.72 376.44 212.52 C 381.05 225.98 384.11 240.22 383.63 254.51 C 382.48 253.49 381.78 252.12 381.12 250.77 C 369.67 228.20 351.89 208.73 329.84 196.16 C 306.89 182.88 280.35 176.99 254.06 175.63 C 215.68 173.94 177.42 181.20 141.03 192.95 C 159.73 158.49 195.20 133.68 234.00 127.93 Z" />
<path fill="#ffffff" opacity="1.00" d=" M 124.71 248.99 C 125.26 235.80 128.22 222.77 132.99 210.48 C 143.90 210.46 155.17 212.67 164.55 218.45 C 172.27 223.20 177.68 231.80 177.65 240.98 C 178.27 251.51 174.58 261.69 170.13 271.06 C 162.11 287.44 151.25 302.28 139.53 316.17 C 131.04 300.42 125.93 282.85 124.77 264.99 C 124.62 259.66 124.69 254.32 124.71 248.99 Z" />
<path fill="#ffffff" opacity="1.00" d=" M 240.03 271.21 C 263.53 262.07 288.60 255.78 313.97 256.63 C 338.37 257.21 362.81 265.76 381.35 281.82 C 376.12 306.33 363.89 329.37 346.07 347.04 C 327.02 366.37 301.67 379.45 274.83 383.60 C 264.67 385.53 254.27 384.57 243.99 384.73 C 204.59 382.29 167.44 359.79 145.86 326.90 C 174.42 304.07 206.04 284.80 240.03 271.21 Z" />
</svg>
